<svg xmlns:xlink="http://www.w3.org/1999/xlink" xmlns="http://www.w3.org/2000/svg" height="18" viewBox="0 0 18 18" width="18">
  <defs>
    <style>
      .fill {
        fill: #464646;
      }
    </style>
  </defs>
  <title>S ABC 18 N</title>
  <rect id="Canvas" fill="#ff13dc" opacity="0" width="18" height="18"/><path class="fill" d="M2.468,10.242l-.55,1.661A.1175.1175,0,0,1,1.7885,12H.494c-.086,0-.108-.043-.086-.1185C.9795,10.2635,1.896,7.61,2.5755,5.744a1.90654,1.90654,0,0,0,.108-.6685A.068.068,0,0,1,2.759,5H4.4955a.081.081,0,0,1,.0865.054c.7875,2.168,1.65,4.638,2.45,6.838.032.0755.0105.108-.065.108H5.542a.09649.09649,0,0,1-.108-.0755L4.83,10.242ZM4.4955,9.0125C4.28,8.279,3.85,7.05,3.6325,6.2725H3.622c-.162.7335-.55,1.866-.8305,2.74Z"/>
  <path class="fill" d="M7.0225,5.1285c0-.075.011-.0965.0645-.107C7.5585,5.0105,8.4585,5,9.3695,5c2.218,0,2.6895.975,2.6895,1.843a1.55,1.55,0,0,1-1.018,1.5v.0215a1.65449,1.65449,0,0,1,1.286,1.618c0,1.329-1.147,2.0145-3.097,2.0145-.825.011-1.693-.0105-2.1325-.0215a.085.085,0,0,1-.07536-.09366L7.0225,11.879ZM8.512,7.818h.9325c.857,0,1.125-.3535,1.125-.814,0-.579-.386-.8145-1.211-.8145-.418,0-.75.0105-.8465.0215Zm0,2.9685c.118,0,.3645.021.804.021.9,0,1.4355-.2355,1.4355-.9,0-.557-.343-.8785-1.2965-.8785H8.512Z"/>
  <path class="fill" d="M16.376,5a3.97941,3.97941,0,0,1,1.473.2195c.05.0315.063.05.063.1255V6.45c0,.0945-.05.0945-.094.0735a3.53045,3.53045,0,0,0-1.3895-.2615A2.08751,2.08751,0,0,0,14.161,8.477a2.05127,2.05127,0,0,0,2.257,2.194,4.245,4.245,0,0,0,1.4625-.25c.05-.021.0835,0,.0835.0625v1.076c0,.0735-.0105.115-.0835.1465a4.31063,4.31063,0,0,1-1.724.294A3.241,3.241,0,0,1,12.636,8.521,3.4804,3.4804,0,0,1,16.376,5Z"/>
</svg>