<svg xmlns="http://www.w3.org/2000/svg" width="18" height="18" viewBox="0 0 18 18" class="spectrum-Icon_368b34 spectrum-Icon--sizeXS_368b34 parcel-icon" focusable="false" aria-hidden="true" role="img"><rect id="Placement_Area" data-name="Placement Area" width="18" height="18" opacity="0"></rect><g id="Icon"><rect id="Canvas" width="18" height="18" opacity="0"></rect><path id="Path_105190" data-name="Path 105190" d="M3.075,2.154A6.883,6.883,0,0,1,8.356,5.3l1.565-.817a.346.346,0,0,1,.467.147l0,0a.336.336,0,0,1,.021.261L9.245,8.667a.216.216,0,0,1-.27.142h0L5.233,7.6a.34.34,0,0,1-.2-.168.345.345,0,0,1,.142-.467l0,0,1.645-.86A5.158,5.158,0,0,0,1.745,3.929a.432.432,0,0,1-.5-.313l-.216-.842a.43.43,0,0,1,.3-.526l.027-.006a6.861,6.861,0,0,1,1.713-.088Z" transform="translate(6.555)"></path><path id="Path_105191" data-name="Path 105191" d="M11.554,4.128a.339.339,0,0,1,.224-.136l3.892-.65a.218.218,0,0,1,.161.038.215.215,0,0,1,.087.141l.6,3.885a.339.339,0,0,1-.059.256.345.345,0,0,1-.482.082l0,0L14.529,6.7a5.094,5.094,0,0,0-.569,1.96,5.158,5.158,0,0,0,1.23,3.74.435.435,0,0,1-.012.594l-.611.613a.433.433,0,0,1-.612.009L13.94,13.6a6.866,6.866,0,0,1-.834-7.925L11.632,4.613a.346.346,0,0,1-.08-.482Z" transform="translate(-10.01)"></path><path id="Path_105192" data-name="Path 105192" d="M2.414,14.533l3.012-2.524a.337.337,0,0,1,.25-.082A.346.346,0,0,1,6,12.3v0l-.15,1.84a5.191,5.191,0,0,0,4.436-3.39.433.433,0,0,1,.524-.282l.832.236a.435.435,0,0,1,.3.534l0,.016a6.911,6.911,0,0,1-6.228,4.627l-.142,1.754a.346.346,0,0,1-.372.317h0a.339.339,0,0,1-.233-.121L2.389,14.837a.216.216,0,0,1,.025-.3Z" transform="translate(3.705)"></path></g></svg>