<svg xmlns:xlink="http://www.w3.org/1999/xlink" xmlns="http://www.w3.org/2000/svg" height="18" viewBox="0 0 18 18" width="18">
  <defs>
    <style>
      .fill {
        fill: #464646;
      }
    </style>
  </defs>
  <title>S AdDisplay 18 N</title>
  <rect id="Canvas" fill="#ff13dc" opacity="0" width="18" height="18"/><rect class="fill" height="7" width="4" x="11" y="4"/>
  <path class="fill" d="M17.5,1H.5a.5.5,0,0,0-.5.5v12a.5.5,0,0,0,.5.5H7v2.5a.5.5,0,0,1-.5.5h-1a.4895.4895,0,0,0-.5.47877q-.00022.01062,0,.02123V18h8v-.5a.5.5,0,0,0-.5-.5h-1a.5.5,0,0,1-.5-.5V14h6.5a.5.5,0,0,0,.5-.5V1.5A.5.5,0,0,0,17.5,1ZM16,12H2V3H16Z"/>
</svg>