<svg xmlns="http://www.w3.org/2000/svg" width="18px" height="18px" viewBox="0 0 42 42"><defs><style>.cls-1{fill:#fff}</style></defs><g id="_42px_Circle" data-name="42px@Circle"><circle id="Ellipse_10213" data-name="Ellipse 10213" cx="21" cy="21" r="21" fill="#864ccc"/></g><g id="_24px_Icons" data-name="24px@Icons"><rect class="cls-1" x="12" y="22.5" width="2" height="6.5" rx=".5"/><rect class="cls-1" x="16" y="18.5" width="2" height="10.5" rx=".5"/><rect class="cls-1" x="20" y="19.5" width="2" height="9.5" rx=".5"/><rect class="cls-1" x="24" y="15" width="2" height="14" rx=".5"/><rect class="cls-1" x="28" y="16" width="2" height="13" rx=".5"/><path class="cls-1" d="M13 20.25h-2a.75.75 0 0 1 0-1.5h1.663l3.776-4.25a.749.749 0 0 1 .9-.173l3.408 1.7 3.633-5.449a.75.75 0 0 1 1.042-.2l.028.02 3.629 2.722 1.586-.793a.75.75 0 0 1 .67 1.342l-2 1a.748.748 0 0 1-.785-.071l-3.365-2.524-3.561 5.34a.752.752 0 0 1-.959.255l-3.486-1.743L13.561 20a.755.755 0 0 1-.561.25z"/></g></svg>