<svg xmlns:xlink="http://www.w3.org/1999/xlink" xmlns="http://www.w3.org/2000/svg" height="18" viewBox="0 0 18 18" width="18">
  <defs>
    <style>
      .fill {
        fill: #464646;
      }
    </style>
  </defs>
  <title>S AEMScreens 18 N</title>
  <rect id="Canvas" fill="#ff13dc" opacity="0" width="18" height="18"/><path class="fill" d="M6,1H1A1,1,0,0,0,0,2v9a1,1,0,0,0,1,1H6a1,1,0,0,0,1-1V2A1,1,0,0,0,6,1ZM6,11H1V2H6Zm5.89913-6.3302A1.66985,1.66985,0,1,1,13.569,6.33964,1.66986,1.66986,0,0,1,11.89913,4.6698ZM16,9.35106v3.04387a.46094.46094,0,0,1-.45456.4671h-.4545l-.45456,4.67087A.46094.46094,0,0,1,14.18182,18H12.81818a.461.461,0,0,1-.45456-.4671L11.90907,12.862h-.4545A.46093.46093,0,0,1,11,12.39493V9.35106a2.45068,2.45068,0,0,1,2.41669-2.48332h.16662A2.45068,2.45068,0,0,1,16,9.35106ZM18,1.5v6a.5.5,0,0,1-.5.5h-.61926a3.74371,3.74371,0,0,0-.71991-1H17V2H9V7h1.82977a3.72736,3.72736,0,0,0-.707,1H8.5A.5.5,0,0,1,8,7.5v-6A.5.5,0,0,1,8.5,1h9a.5.5,0,0,1,.5.49989Z"/>
</svg>