<svg id="icons" xmlns="http://www.w3.org/2000/svg" width="18" height="18" viewBox="0 0 18 18" focusable="false" aria-hidden="true" role="img" class="spectrum-Icon spectrum-Icon--sizeS" data-test-icon="IntelligentCaptionsGenerate"><defs><style>fill: #6e6e6e;</style></defs><path class="fill" d="m14.95208,8.69226l-.95208,1.03982v4.26792c0,.55228-.44772,1-1,1H5c-.55228,0-1-.44772-1-1V6c0-.55228.44772-1,1-1h4.48732l-1.90857-2h-2.57875c-1.65685,0-3,1.34315-3,3v8c0,1.65685,1.34315,3,3,3h8c1.65685,0,3-1.34315,3-3v-5.42735l-.64698-.04171c-.15118-.00975-.29863.04958-.40094.16131Z"></path><path class="fill" d="m16.03204.11826l-.44626,3.3797c-.03825.28971.05696.58114.25887.79238l2.14901,2.24828-3.10406-.2005c-.29155-.01883-.57592.09556-.77321.31104l-2.30222,2.51437.44233-3.38292c.0378-.28912-.05727-.57981-.25861-.79072l-2.1457-2.2477,3.10064.19948c.29104.01872.57492-.0953.77214-.31015L16.03204.11826Z"></path><path class="fill" d="m9.93467,7.59029l-.25549,1.93489c-.03524.26688.05247.53535.23848.72995l1.22172,1.27815-1.76472-.11399c-.26858-.01735-.53054.08803-.71229.28653l-1.31806,1.43952.25329-1.93719c.03482-.26634-.05276-.53413-.23823-.72842l-1.21999-1.27798,1.7629.11341c.26811.01725.52962-.08779.7113-.28571l1.32109-1.43916Z"></path></svg>