<svg xmlns:xlink="http://www.w3.org/1999/xlink" xmlns="http://www.w3.org/2000/svg" height="18" viewBox="0 0 18 18" width="18">
  <defs>
    <style>
      .fill {
        fill: #464646;
      }
    </style>
  </defs>
  <title>S AlertCircle 18 N</title>
  <rect id="Canvas" fill="#ff13dc" opacity="0" width="18" height="18"/><path class="fill" d="M7.84555,12.88618a1.13418,1.13418,0,0,1,1.1161-1.15195q.042-.00064.08391.00178a1.116,1.116,0,0,1,1.2,1.15017,1.09065,1.09065,0,0,1-1.2,1.11661,1.0908,1.0908,0,0,1-1.2-1.11661ZM10.0625,4.39771a.20792.20792,0,0,1,.09966.183V5.62212c0,1.40034-.28322,3.98034-.33305,4.48067,0,.04984-.01678.09967-.11695.09967H8.379a.11069.11069,0,0,1-.11695-.09967c-.03305-.46678-.3-3.0305-.3-4.43084V4.6306a.1773.1773,0,0,1,.08339-.18306,2.88262,2.88262,0,0,1,1.00017-.20033A3.27435,3.27435,0,0,1,10.0625,4.39771ZM17.50005,9A8.50005,8.50005,0,1,1,9,.5H9A8.50008,8.50008,0,0,1,17.50005,9ZM15.67484,9A6.67485,6.67485,0,1,0,9,15.6748H9A6.67479,6.67479,0,0,0,15.67484,9Z"/>
</svg>