<svg xmlns:xlink="http://www.w3.org/1999/xlink" xmlns="http://www.w3.org/2000/svg" height="18" viewBox="0 0 18 18" width="18">
  <defs>
    <style>
      .fill {
        fill: #464646;
      }
    </style>
  </defs>
  <title>S Algorithm 18 N</title>
  <rect id="Canvas" fill="#ff13dc" opacity="0" width="18" height="18"/><path class="fill" d="M15.5,12.7h-.0095L13.823,9.961A1.794,1.794,0,0,0,12.5,6.95a1.76489,1.76489,0,0,0-.468.0695L10.323,4.212a1.8,1.8,0,1,0-2.646,0L5.968,7.0195A1.76489,1.76489,0,0,0,5.5,6.95,1.794,1.794,0,0,0,4.177,9.962L2.5095,12.7H2.5A1.8,1.8,0,1,0,4.221,15H7.279a1.789,1.789,0,0,0,3.442,0h3.058A1.7965,1.7965,0,1,0,15.5,12.7ZM13.779,14H10.721a1.792,1.792,0,0,0-.571-.875l1.7155-2.696a1.78547,1.78547,0,0,0,.6345.121,1.76489,1.76489,0,0,0,.468-.0695l1.535,2.522A1.79652,1.79652,0,0,0,13.779,14ZM9,4.8a1.77154,1.77154,0,0,0,.4685-.0695L11.177,7.538A1.80862,1.80862,0,0,0,10.868,8H7.132a1.79993,1.79993,0,0,0-.309-.462L8.5315,4.7305A1.77154,1.77154,0,0,0,9,4.8ZM7.275,9h3.45a1.782,1.782,0,0,0,.339.825L9.2205,12.722A1.77969,1.77969,0,0,0,9,12.7a1.77969,1.77969,0,0,0-.2205.022L6.936,9.825A1.782,1.782,0,0,0,7.275,9ZM5.032,10.4805A1.76489,1.76489,0,0,0,5.5,10.55a1.78548,1.78548,0,0,0,.635-.121L7.85,13.125A1.792,1.792,0,0,0,7.279,14H4.221a1.79648,1.79648,0,0,0-.724-1Z"/>
</svg>