<svg xmlns:xlink="http://www.w3.org/1999/xlink" xmlns="http://www.w3.org/2000/svg" height="18" viewBox="0 0 18 18" width="18">
  <defs>
    <style>
      .fill {
        fill: #464646;
      }
    </style>
  </defs>
  <title>S Amusementpark 18 N</title>
  <rect id="Canvas" fill="#ff13dc" opacity="0" width="18" height="18"/><path class="fill" d="M14.18561,11a5.35535,5.35535,0,0,0-3.48456,1.54645C8.9021,10.47217,7.01,8,3.94776,8a6.22432,6.22432,0,0,0-2.6424.63318A.50075.50075,0,0,0,1,9.09375V16.75a.25.25,0,0,0,.25.25h.5A.25.25,0,0,0,2,16.75V9.42676a4.92357,4.92357,0,0,1,1-.32361V16.75a.25.25,0,0,0,.25.25h1.5A.25.25,0,0,0,5,16.75V9.1435a4.748,4.748,0,0,1,1,.38062V16.75a.25.25,0,0,0,.25.25h1.5A.25.25,0,0,0,8,16.75V11.04114c.34167.34094.675.69873,1,1.06958V16.75a.25.25,0,0,0,.25.25h1.5a.25.25,0,0,0,.25-.25V14.34729a9.8408,9.8408,0,0,0,1,.88941V16.75a.25.25,0,0,0,.25.25h1.5a.25.25,0,0,0,.25-.25v-.76831a2.51775,2.51775,0,0,0,1-.0852V16.75a.25.25,0,0,0,.25.25h1.5a.25.25,0,0,0,.25-.25V13.42682A2.66575,2.66575,0,0,0,14.18561,11Zm1.81675,2.45736A1.6567,1.6567,0,0,1,14.23983,15.001L14.22589,15c-.7069,0-1.3226-.05168-2.86078-1.7091A4.68423,4.68423,0,0,1,14.1805,12,1.69158,1.69158,0,0,1,16.00236,13.45736ZM17.99658,6.5a1,1,0,0,1-1,1,.92955.92955,0,0,1-.09539-.01929,5.4559,5.4559,0,0,1-.54737,1.59137A.97926.97926,0,0,1,16.937,10.3282q-.01644.04494-.03721.08812a4.5497,4.5497,0,0,0-2.10913-.866A4.47471,4.47471,0,0,0,15.97558,6.75H12.6455a.25.25,0,1,1,0-.5h3.32928a4.46,4.46,0,0,0-1.13317-2.73858L12.48633,5.8667a.25.25,0,0,1-.3535-.3535L14.48805,3.158A4.4601,4.4601,0,0,0,11.75,2.02521V5.3545a.25.25,0,1,1-.5,0V2.02521A4.46013,4.46013,0,0,0,8.512,3.158l2.35523,2.35523a.25.25,0,1,1-.34994.35705l-.00356-.00356L8.15839,3.51142A4.46,4.46,0,0,0,7.02521,6.25H10.3545a.25.25,0,1,1,0,.5H7.02521c.01324.16577.02277.33264.0498.49427A7.05382,7.05382,0,0,0,4.5061,6.54718c-.00079-.01654-.00952-.03045-.00952-.04718a1,1,0,0,1,1-1,.97437.97437,0,0,1,.56537.19733c.01489-.10144.02594-.20416.04632-.30371a5.44515,5.44515,0,0,1,.90009-2.03894A.98672.98672,0,0,1,6.49658,2.5a1,1,0,0,1,1-1,.987.987,0,0,1,.85565.51312A5.44269,5.44269,0,0,1,10.515,1.09106c-.003-.0315-.01837-.05877-.01837-.09106a1,1,0,0,1,2,0,.9401.9401,0,0,1-.01935.09594,5.46247,5.46247,0,0,1,2.17133.906.98589.98589,0,0,1,.848-.50189,1,1,0,0,1,1,.99994V2.5a.98582.98582,0,0,1-.50189.848,5.46217,5.46217,0,0,1,.90594,2.17133.93806.93806,0,0,1,.096-.01933,1,1,0,0,1,1,.99994ZM14.20605,9.55957,12.13281,7.48682a.25.25,0,0,1,.3535-.3535l2.07324,2.07275a.25.25,0,1,1-.35.357ZM11.5,10.73242a.25049.25049,0,0,1-.25-.25V7.6455a.25.25,0,1,1,.5,0v2.83691A.2505.2505,0,0,1,11.5,10.73242ZM9.04,9.21a.25.25,0,0,1-.17676-.42675L10.51367,7.1333a.25.25,0,0,1,.3535.3535L9.21677,9.1367A.25.25,0,0,1,9.04,9.21Z"/>
</svg>