<svg xmlns:xlink="http://www.w3.org/1999/xlink" xmlns="http://www.w3.org/2000/svg" height="18" viewBox="0 0 18 18" width="18">
  <defs>
    <style>
      .fill {
        fill: #464646;
      }
    </style>
  </defs>
  <title>S Anchor 18 N</title>
  <rect id="Canvas" fill="#ff13dc" opacity="0" width="18" height="18"/><path class="fill" d="M16.966,12.6355,15,9.9145l-2.05,2.721a.193.193,0,0,0,.126.3145h1.25a5.531,5.531,0,0,1-4.35,1.95V8.606l1.04-.0355a.359.359,0,0,0,.335-.3795V7.4325a.359.359,0,0,0-.335-.3795l-1.04.035L9.964,6.0285A2.96249,2.96249,0,0,0,11.5,3.58,2.58251,2.58251,0,0,0,9.0055.98,2.6445,2.6445,0,0,0,6.5,3.6375,2.8315,2.8315,0,0,0,8,6.0285V7.053H6.9965a.359.359,0,0,0-.335.3795V8.191a.359.359,0,0,0,.335.3795H8V14.864A5.423,5.423,0,0,1,3.675,12.95H4.85a.1935.1935,0,0,0,.126-.3145L3,9.9145l-1.966,2.721a.193.193,0,0,0,.126.3145h.9705c.966,2.65,3.8145,3.9695,6.875,3.9695s5.898-1.3195,6.864-3.9695H16.84a.193.193,0,0,0,.126-.3145ZM7.672,3.5615a1.3915,1.3915,0,0,1,1.3335-1.328A1.33,1.33,0,0,1,10.328,3.504,1.43651,1.43651,0,0,1,9.0055,4.8895,1.3915,1.3915,0,0,1,7.672,3.5615Z"/>
</svg>