<svg xmlns:xlink="http://www.w3.org/1999/xlink" xmlns="http://www.w3.org/2000/svg" height="18" viewBox="0 0 18 18" width="18">
  <defs>
    <style>
      .fill {
        fill: #464646;
      }
    </style>
  </defs>
  <title>S AnnotatePen 18 N</title>
  <rect id="Canvas" fill="#ff13dc" opacity="0" width="18" height="18"/><path class="fill" d="M14.0115,2.18A.48351.48351,0,0,0,13.99,1.5a.48151.48151,0,0,0-.68058-.0224L13.309,1.478a.781.781,0,0,0-.059.072l-.0055-.007-4.37,4.368.006.008a.36036.36036,0,0,0-.0725.0595.4965.4965,0,1,0,.762.629l.0065.0065L13.946,2.2455l-.0075-.007A.407.407,0,0,0,14.0115,2.18Z"/>
  <path class="fill" d="M14.9,2.9415c-.36.3605-4.7685,4.8225-4.794,4.85a1.107,1.107,0,0,1-1.181.0145l-.3835-.3625L3.143,12.737a.7498.7498,0,0,0-.1635.24L2.044,16.18a.1875.1875,0,0,0,.25.2455L5.508,15.45a.75011.75011,0,0,0,.23-.1565L16.53,4.5395Z"/>
  <path class="fill" d="M15.407,2.086,16.96,3.564a1.39,1.39,0,0,0-.4035-1.614,1.65,1.65,0,0,0-1.61-.53c-.0895.032.0325.15.069.1875S15.383,2.038,15.407,2.086Z"/>
  <path class="fill" d="M1.8615,13.743c-1.5265-4.5295.15-8.466,4.363-10.7545.6345-.345.134-1.353-.505-1.006C1.095,4.496-.5385,8.7025,1.143,13.75,1.8615,15.907,1.8615,13.743,1.8615,13.743Z"/>
</svg>