<svg xmlns="http://www.w3.org/2000/svg" height="18" viewBox="0 0 24 24" width="18">
  <defs>
    <style>
      .fill {
        fill: #464646;
      }
    </style>
  </defs>
  <title>S AnnotateRange 18 N</title>
  <path d="M16.5,20.99244V17.06158A.56154.56154,0,0,1,17.06149,16.5h3.93107a.656.656,0,0,1-.14317.47934L16.97928,20.85a.651.651,0,0,1-.47928.14244Zm4.3078-17.803a.64272.64272,0,0,0-.45441-.18817H3.64417a.64256.64256,0,0,0-.64264.64264v16.7099a.64266.64266,0,0,0,.64264.6427H14.98456V16.28376a1.28521,1.28521,0,0,1,1.28534-1.2854H20.996V3.64393A.64329.64329,0,0,0,20.8078,3.18946ZM18.73633,8.12775l-2.29041,2.26392a.25836.25836,0,0,1-.08368.05511.26249.26249,0,0,1-.09869.01917.25947.25947,0,0,1-.09857-.01978.25688.25688,0,0,1-.08344-.05542.24958.24958,0,0,1-.055-.0819.24543.24543,0,0,1-.01843-.09644v-1.217L7.99634,8.99512l-.00006,1.21705a.24641.24641,0,0,1-.07343.17834.25728.25728,0,0,1-.18194.0755.25909.25909,0,0,1-.0987-.01923.25636.25636,0,0,1-.08374-.05529L5.26813,8.12757a.17988.17988,0,0,1,0-.23535L7.55847,5.6283a.25784.25784,0,0,1,.18244-.07422.25869.25869,0,0,1,.18194.07514.2468.2468,0,0,1,.05493.08191.24323.24323,0,0,1,.0185.09637l.00006,1.21112,8.01178.00037V5.80775a.24765.24765,0,0,1,.01849-.09644.25064.25064,0,0,1,.05493-.08191.25859.25859,0,0,1,.36438-.001l2.29041,2.264a.17991.17991,0,0,1,0,.23535Z" />
</svg>
