<svg xmlns:xlink="http://www.w3.org/1999/xlink" xmlns="http://www.w3.org/2000/svg" height="18" viewBox="0 0 18 18" width="18">
  <defs>
    <style>
      .fill {
        fill: #464646;
      }
    </style>
  </defs>
  <title>S AnswerFavorite 18 N</title>
  <rect id="Canvas" fill="#ff13dc" opacity="0" width="18" height="18"/><path class="fill" d="M12.1075,11.75l1.156-2.3685a.25.25,0,0,1,.45,0l1.1765,2.358,2.61.368a.25.25,0,0,1,.1405.4255l-1.8795,1.85.457,2.5955a.25.25,0,0,1-.3615.2655L13.518,16.0275,11.191,17.264A.25.25,0,0,1,10.8255,17l.434-2.6-1.895-1.831A.25.25,0,0,1,9.5,12.141Z"/>
  <path class="fill" d="M16.5,1H1.5a.5.5,0,0,0-.5.5v12a.5.5,0,0,0,.5.5H7l1.768,3.4195a.25.25,0,0,0,.464,0l.0035-.0065.027-.1615.3875-2.321L7.229,12.591a.9945.9945,0,0,1,.443-1.677A1.295,1.295,0,0,1,9,9.6645a1.2675,1.2675,0,0,1,1.259.8465l.847-.127,1.477-3.0255a1,1,0,0,1,1.793-.0075l1.5035,3.0125L17,10.521V1.5A.5.5,0,0,0,16.5,1ZM10.267,3.8415c0,1.2835-.3215,4.608-.3785,5.0665,0,.046-.0195.092-.132.092H8.2405a.12.12,0,0,1-.1325-.092c-.0375-.4275-.341-3.7375-.341-5.0205v-1.1a.153.153,0,0,1,.0945-.168A3.98089,3.98089,0,0,1,9,2.4365a4.5569,4.5569,0,0,1,1.156.137.1835.1835,0,0,1,.113.168Z"/>
</svg>