<svg xmlns:xlink="http://www.w3.org/1999/xlink" xmlns="http://www.w3.org/2000/svg" height="18" viewBox="0 0 18 18" width="18">
  <defs>
    <style>
      .fill {
        fill: #464646;
      }
    </style>
  </defs>
  <title>S Answer 18 N</title>
  <rect id="Canvas" fill="#ff13dc" opacity="0" width="18" height="18"/><path class="fill" d="M16.5,1H1.5a.5.5,0,0,0-.5.5v12a.5.5,0,0,0,.5.5H7l1.768,3.4195a.25.25,0,0,0,.464,0L11,14h5.5a.5.5,0,0,0,.5-.5V1.5A.5.5,0,0,0,16.5,1ZM7.767,2.7875a.153.153,0,0,1,.0945-.168A3.98089,3.98089,0,0,1,9,2.4365a4.55033,4.55033,0,0,1,1.1555.137.183.183,0,0,1,.1135.168v1.1c0,1.2835-.3215,4.608-.378,5.0665,0,.046-.02.092-.133.092H8.2405a.12.12,0,0,1-.1325-.092c-.0375-.4275-.341-3.7375-.341-5.0205ZM9,12.3645A1.25953,1.25953,0,0,1,7.65,11.034,1.312,1.312,0,0,1,8.90263,9.6652Q8.95127,9.663,9,9.6645a1.291,1.291,0,0,1,1.35,1.3695A1.26,1.26,0,0,1,9,12.3645Z"/>
</svg>