<svg xmlns:xlink="http://www.w3.org/1999/xlink" xmlns="http://www.w3.org/2000/svg" height="18" id="ImportedIcons" viewBox="0 0 18 18" width="18">
  <defs>
    <style>
      .fill {
        fill: #464646;
      }
    </style>
  </defs>
  <rect id="Canvas" fill="#ff13dc" opacity="0" width="18" height="18"/><path class="fill" d="M9.4325,7.94446q-.09531-.3045-.19257-.60907-.0954-.30461-.17651-.58777c-.05311-.18878-.10053-.36151-.14417-.518H8.90881a8.737,8.737,0,0,1-.22393.8548c-.09961.32068-.20209.648-.30457.98291q-.15508.50244-.30548.92981H9.76361c-.04266-.14233-.092-.30267-.1499-.481C9.55682,8.3382,9.497,8.14752,9.4325,7.94446Z"/>
  <path class="fill" d="M13.6,1H4.4A3.4,3.4,0,0,0,1,4.4v9.2A3.4,3.4,0,0,0,4.4,17h9.2A3.4,3.4,0,0,0,17,13.6V4.4A3.4,3.4,0,0,0,13.6,1ZM12.20007,12h-1.389a.09753.09753,0,0,1-.10627-.074l-.54559-1.58252H7.69061l-.502,1.56073A.12689.12689,0,0,1,7.05963,12H5.81012c-.07117,0-.09674-.03894-.075-.11768L7.87183,5.72675c.02179-.0636.04364-.13666.06451-.21918A2.20488,2.20488,0,0,0,7.979,5.075.06675.06675,0,0,1,8.054,5H9.75317q.07545,0,.08539.05408l2.426,6.83966C12.28546,11.9649,12.26459,12,12.20007,12Z"/>
</svg>