<svg xmlns:xlink="http://www.w3.org/1999/xlink" xmlns="http://www.w3.org/2000/svg" height="18" viewBox="0 0 18 18" width="18">
  <defs>
    <style>
      .fill {
        fill: #464646;
      }
    </style>
  </defs>
  <title>S ApplicationDelivery 18 N</title>
  <rect id="Canvas" fill="#ff13dc" opacity="0" width="18" height="18"/><path class="fill" d="M4.95,13.2345A1.60019,1.60019,0,0,1,5.105,13H1.5a.5.5,0,0,1-.5-.5V1.5A.5.5,0,0,1,1.5,1h11a.5.5,0,0,1,.5.5V5.014a1.434,1.434,0,0,1,1-.193V1.5A1.5,1.5,0,0,0,12.5,0H1.5A1.5,1.5,0,0,0,0,1.5v11A1.5,1.5,0,0,0,1.5,14H4.8415A1.61245,1.61245,0,0,1,4.95,13.2345Z"/>
  <path class="fill" d="M17.04,8.9525l-1.121.4695a4.67492,4.67492,0,0,0-1.3455-1.3475l.462-1.129a.431.431,0,0,0-.23538-.56224L14.7995,6.383l-.856-.35a.4315.4315,0,0,0-.563.23545l0,.00005-.462,1.129a4.665,4.665,0,0,0-1.904.017l-.47-1.1215a.431.431,0,0,0-.56386-.23148L9.9795,6.062l-.796.3335A.4315.4315,0,0,0,8.952,6.96l.47,1.1215A4.669,4.669,0,0,0,8.0745,9.427L6.946,8.965a.431.431,0,0,0-.5626.23453l-.0004.001-.35.8565a.431.431,0,0,0,.23513.56235l.00037.00015,1.129.4625a4.65615,4.65615,0,0,0,.017,1.904l-1.1215.47a.43151.43151,0,0,0-.23109.56479L6.062,14.021l.3335.796a.431.431,0,0,0,.56386.23148L6.9605,15.048l1.121-.4695a4.66264,4.66264,0,0,0,1.3455,1.35L8.965,17.057a.431.431,0,0,0,.23477.5625L9.201,17.62l.856.35a.4315.4315,0,0,0,.563-.23545l0,0,.462-1.129a4.6645,4.6645,0,0,0,1.904-.0165l.47,1.121a.43151.43151,0,0,0,.56479.23109L14.021,17.941l.796-.3335a.43149.43149,0,0,0,.23169-.56454l-.00019-.00046-.47-1.121a4.6565,4.6565,0,0,0,1.35-1.3455l1.1285.462a.431.431,0,0,0,.5625-.23477L17.62,14.802l.35-.856a.431.431,0,0,0-.23513-.56235l-.00037-.00015L16.606,12.921a4.665,4.665,0,0,0-.0175-1.904l1.1215-.47a.4315.4315,0,0,0,.23109-.56479L17.941,9.982l-.3335-.796a.431.431,0,0,0-.56208-.23576ZM13.592,11.333a1.72742,1.72742,0,1,1-2.26177-.92468L11.331,10.408a1.72551,1.72551,0,0,1,2.25954.92152Z"/>
</svg>