<svg xmlns:xlink="http://www.w3.org/1999/xlink" xmlns="http://www.w3.org/2000/svg" height="18" viewBox="0 0 18 18" width="18">
  <defs>
    <style>
      .fill {
        fill: #464646;
      }
    </style>
  </defs>
  <title>S ApproveReject 18 N</title>
  <rect id="Canvas" fill="#ff13dc" opacity="0" width="18" height="18"/><path class="fill" d="M12,6a6,6,0,0,0-6,6,5.91551,5.91551,0,0,0,5.93038,5.90059L12,17.9a5.831,5.831,0,0,0,5.9-5.76117q.00082-.06942,0-.13883a5.91549,5.91549,0,0,0-5.83038-5.99941Zm3.621,3.9535-3.612,4.717a.603.603,0,0,1-.4375.2305H11.535a.6.6,0,0,1-.4245-.1755L8.692,12.302a.6.6,0,0,1-.00147-.84853L8.692,11.452l.6635-.6625A.6.6,0,0,1,10.204,10.788l.00147.00147,1.2,1.2L13.945,8.65a.6.6,0,0,1,.8419-.10586l.0011.00086.7275.5665a.6.6,0,0,1,.10555.84194Z"/>
  <path class="fill" d="M5.7605,7H2.5A.5.5,0,0,1,2,6.5v-1A.5.5,0,0,1,2.5,5H8.13a7.95,7.95,0,0,1,3.5275-.9825A5.909,5.909,0,0,0,6,.1,5.831,5.831,0,0,0,.1,5.86117Q.09917,5.93059.1,6a5.90949,5.90949,0,0,0,3.917,5.6575A7.96053,7.96053,0,0,1,5.7605,7Z"/>
</svg>