<svg xmlns:xlink="http://www.w3.org/1999/xlink" xmlns="http://www.w3.org/2000/svg" height="18" id="ImportedIcons" viewBox="0 0 18 18" width="18">
  <defs>
    <style>
      .fill {
        fill: #464646;
      }
    </style>
  </defs>
  <rect id="Canvas" fill="#ff13dc" opacity="0" width="18" height="18"/><path class="fill" d="M8.4325,6.94446q-.09531-.3045-.19257-.60907-.0954-.30461-.17651-.58777c-.05311-.18878-.10053-.36151-.14417-.518H7.90881a8.737,8.737,0,0,1-.22393.8548c-.09961.32068-.20209.648-.30457.98291q-.15508.50244-.30548.92981H8.76361c-.04266-.14233-.092-.30267-.1499-.481C8.55682,7.3382,8.497,7.14752,8.4325,6.94446Z"/>
  <path class="fill" d="M7.5,13.5A5.97458,5.97458,0,0,1,9.1647,9.35928l-.00546-.01584H6.69061l-.502,1.56073A.12689.12689,0,0,1,6.05963,11H4.81012c-.07117,0-.09674-.03894-.075-.11768L6.87183,4.72675c.02179-.0636.04364-.13666.06451-.21918A2.20488,2.20488,0,0,0,6.979,4.075.06675.06675,0,0,1,7.054,4H8.75317q.07545,0,.08539.05408l1.53629,4.33117A5.95477,5.95477,0,0,1,16,8.05075V3.4A3.4,3.4,0,0,0,12.6,0H3.4A3.4,3.4,0,0,0,0,3.4v9.2A3.4,3.4,0,0,0,3.4,16H8.05075A5.96725,5.96725,0,0,1,7.5,13.5Z"/>
  <path class="fill" d="M9.19635,12.24893A4.4413,4.4413,0,0,1,16.948,10.699l.62524-.62524A.24428.24428,0,0,1,17.74805,10a.25035.25035,0,0,1,.252.25048V12.75a.25.25,0,0,1-.25.25H15.25049A.25087.25087,0,0,1,15,12.74823a.24439.24439,0,0,1,.07373-.175l.86987-.86987a3.02825,3.02825,0,0,0-5.29845.7181.48838.48838,0,0,1-.46082.30979H9.55908A.37852.37852,0,0,1,9.19635,12.24893Z"/>
  <path class="fill" d="M17.80365,14.75125a4.44129,4.44129,0,0,1-7.75165,1.55l-.62524.62524a.24428.24428,0,0,1-.17481.07373A.25035.25035,0,0,1,9,16.74969V14.25A.25.25,0,0,1,9.25,14h2.4995A.251.251,0,0,1,12,14.252a.24435.24435,0,0,1-.07373.175l-.86987.86987a3.02825,3.02825,0,0,0,5.29845-.71809.48837.48837,0,0,1,.46082-.3098h.62525A.37852.37852,0,0,1,17.80365,14.75125Z"/>
</svg>