<svg xmlns:xlink="http://www.w3.org/1999/xlink" xmlns="http://www.w3.org/2000/svg" height="18" viewBox="0 0 18 18" width="18">
  <defs>
    <style>
      .fill {
        fill: #464646;
      }
    </style>
  </defs>
  <title>S Artboard 18 N</title>
  <rect id="Canvas" fill="#ff13dc" opacity="0" width="18" height="18"/><path class="fill" d="M4,4.5v12a.5.5,0,0,0,.5.5h12a.5.5,0,0,0,.5-.5V7.457a.5.5,0,0,0-.1465-.3535l-2.957-2.957A.5.5,0,0,0,13.543,4H4.5A.5.5,0,0,0,4,4.5ZM16,16H5V5h8V7.5a.5.5,0,0,0,.5.5H16Z"/>
  <rect class="fill" height="3" width="1" x="4"/>
  <rect class="fill" height="1" width="3" y="4"/>
</svg>