<svg xmlns:xlink="http://www.w3.org/1999/xlink" xmlns="http://www.w3.org/2000/svg" height="18" viewBox="0 0 18 18" width="18">
  <defs>
    <style>
      .fill {
        fill: #464646;
      }
    </style>
  </defs>
  <title>S Article 18 N</title>
  <rect id="Canvas" fill="#ff13dc" opacity="0" width="18" height="18"/><rect class="fill" height="1" width="5" x="10" y="5"/>
  <rect class="fill" height="1" width="5" x="10" y="9"/>
  <rect class="fill" height="1" width="6" x="3" y="11"/>
  <rect class="fill" height="1" width="5" x="10" y="7"/>
  <rect class="fill" height="1" width="5" x="10" y="11"/>
  <rect class="fill" height="5" width="6" x="3" y="5"/>
  <path class="fill" d="M16.5,2H1.5a.5.5,0,0,0-.5.5v12a.5.5,0,0,0,.5.5h15a.5.5,0,0,0,.5-.5V2.5A.5.5,0,0,0,16.5,2ZM2,14V3H16V14Z"/>
</svg>