<svg xmlns:xlink="http://www.w3.org/1999/xlink" xmlns="http://www.w3.org/2000/svg" height="18" viewBox="0 0 18 18" width="18">
  <defs>
    <style>
      .fill {
        fill: #464646;
      }
    </style>
  </defs>
  <title>S AssetsExpired 18 N</title>
  <rect id="Canvas" fill="#ff13dc" opacity="0" width="18" height="18"/><path class="fill" d="M17.9475,17.391l-5.59-10.0035a.4095.4095,0,0,0-.7145,0L6.0525,17.391A.4095.4095,0,0,0,6.41,18H17.59a.4095.4095,0,0,0,.3575-.609Zm-5.2635-.987a.228.228,0,0,1-.228.228h-.912a.228.228,0,0,1-.228-.228v-.9125a.228.228,0,0,1,.228-.228h.912a.228.228,0,0,1,.228.228Zm0-2.28a.228.228,0,0,1-.228.228h-.912a.228.228,0,0,1-.228-.228V10.019a.228.228,0,0,1,.228-.228h.912a.228.228,0,0,1,.228.228Z"/>
  <path class="fill" d="M6.484,13h.877l.5585-1H2V2H16v9.856l.625,1.1185A.493.493,0,0,0,17,12.5V1.5a.5.5,0,0,0-.5-.5H1.5a.5.5,0,0,0-.5.5v11a.5.5,0,0,0,.5.5Z"/>
</svg>