<svg xmlns:xlink="http://www.w3.org/1999/xlink" xmlns="http://www.w3.org/2000/svg" height="18" viewBox="0 0 18 18" width="18">
  <defs>
    <style>
      .fill {
        fill: #464646;
      }
    </style>
  </defs>
  <title>S AssetsAdded 18 N</title>
  <rect id="Canvas" fill="#ff13dc" opacity="0" width="18" height="18"/><path class="fill" d="M6,12H2V2H16V7.812a6.023,6.023,0,0,1,1,.729V1.5a.5.5,0,0,0-.5-.5H1.5a.5.5,0,0,0-.5.5v11a.5.5,0,0,0,.5.5H7a5.98723,5.98723,0,0,1,.0905-1Z"/>
  <path class="fill" d="M13,8.025A4.975,4.975,0,1,0,17.975,13,4.975,4.975,0,0,0,13,8.025Zm3,5.725a.25.25,0,0,1-.25.25H14v1.75a.25.25,0,0,1-.25.25h-1.5a.25.25,0,0,1-.25-.25V14H10.25a.25.25,0,0,1-.25-.25v-1.5a.25.25,0,0,1,.25-.25H12V10.25a.25.25,0,0,1,.25-.25h1.5a.25.25,0,0,1,.25.25V12h1.75a.25.25,0,0,1,.25.25Z"/>
</svg>