<svg xmlns:xlink="http://www.w3.org/1999/xlink" xmlns="http://www.w3.org/2000/svg" height="18" viewBox="0 0 18 18" width="18">
  <defs>
    <style>
      .fill {
        fill: #464646;
      }
    </style>
  </defs>
  <title>S AssetCheck 18 N</title>
  <rect id="Canvas" fill="#ff13dc" opacity="0" width="18" height="18"/><path class="fill" d="M9.0945,3.953a.903.903,0,1,0-.903-.903A.903.903,0,0,0,9.0945,3.953Z"/>
  <path class="fill" d="M5,5.1a1.72349,1.72349,0,0,0-1.05-.6875c-.9225,0-2.95,2.794-2.95,2.794V1H12V4h1V.5a.5.5,0,0,0-.5-.5H.5A.5.5,0,0,0,0,.5v9a.5.5,0,0,0,.5.5H5Z"/>
  <path class="fill" d="M7.5295,15H7.25A.25.25,0,0,1,7,14.75v-1.5A.25.25,0,0,1,7.25,13h.128a6.0998,6.0998,0,0,1,.3295-1.5H7.25A.25.25,0,0,1,7,11.25V9.75a.25.25,0,0,1,.25-.25h.5A.25.25,0,0,1,8,9.75v1.06a6.109,6.109,0,0,1,7-3.218V6.25A.25.25,0,0,1,15.25,6h.5a.25.25,0,0,1,.25.25v1.5a.244.244,0,0,1-.0635.1535A6.13392,6.13392,0,0,1,17,8.4965V6a1,1,0,0,0-1-1H7A1,1,0,0,0,6,6v9a1,1,0,0,0,1,1h.8605A6.057,6.057,0,0,1,7.5295,15ZM7,6.25A.25.25,0,0,1,7.25,6h.5A.25.25,0,0,1,8,6.25v1.5A.25.25,0,0,1,7.75,8h-.5A.25.25,0,0,1,7,7.75Z"/>
  <path class="fill" d="M13.5,9.05a4.45,4.45,0,1,0,4.45,4.45A4.45,4.45,0,0,0,13.5,9.05Zm-1.169,7.156-2.064-2.0635a.25.25,0,0,1,0-.3535l.5185-.5185a.25.25,0,0,1,.3535,0l1.3655,1.3655,3.053-3.053a.25.25,0,0,1,.3535,0l.5215.5215a.25.25,0,0,1,0,.3535l-3.75,3.75A.25.25,0,0,1,12.331,16.206Z"/>
</svg>