<svg xmlns:xlink="http://www.w3.org/1999/xlink" xmlns="http://www.w3.org/2000/svg" height="18" viewBox="0 0 18 18" width="18">
  <defs>
    <style>
      .fill {
        fill: #464646;
      }
    </style>
  </defs>
  <title>S AssetsLinkedPublished 18 N</title>
  <rect id="Canvas" fill="#ff13dc" opacity="0" width="18" height="18"/><path class="fill" d="M10.3445,14.179l3.8725,2.1585a.35.35,0,0,0,.469-.156L17.45,9.3Z"/>
  <path class="fill" d="M9,14.591v3.17a.213.213,0,0,0,.35.1625l2.2675-1.9285Z"/>
  <path class="fill" d="M3.831,12H2V2H16V7.253l1-.3055V1.5a.5.5,0,0,0-.5-.5H1.5a.5.5,0,0,0-.5.5v11a.5.5,0,0,0,.5.5H5.3685Z"/>
  <path class="fill" d="M16.9745,8.526,6.014,11.897a.1745.1745,0,0,0-.028.3235l3.032,1.483Z"/>
  <path class="fill" d="M7.237,4.0075H6.8745a3.37908,3.37908,0,0,0-1.6835.485A2.6555,2.6555,0,0,0,4.117,5.75a2.11352,2.11352,0,0,0-.078,1.2A2.59351,2.59351,0,0,0,5.306,8.576a4.546,4.546,0,0,0,2.308.4155l.794-.0525L7.68,8.024a4.90741,4.90741,0,0,1-1.3935-.1155,1.78448,1.78448,0,0,1-1.1545-.806,1.31848,1.31848,0,0,1,.036-1.276,1.9925,1.9925,0,0,1,1.6-.8075c.0555-.004.37-.007.426-.0085a2.46847,2.46847,0,0,1,1.21.244,1.509,1.509,0,0,1,.822,1.086.776.776,0,0,0,.089.355.491.491,0,0,0,.188.144,1.48094,1.48094,0,0,0,.7175.1535A2.44351,2.44351,0,0,0,9.41,4.7815,3.271,3.271,0,0,0,7.237,4.0075Z"/>
  <path class="fill" d="M10.7835,9.0055h.3625a3.37908,3.37908,0,0,0,1.6835-.485A2.65551,2.65551,0,0,0,13.904,7.265a2.11352,2.11352,0,0,0,.078-1.2,2.59348,2.59348,0,0,0-1.267-1.63,4.546,4.546,0,0,0-2.308-.4155l-.794.0525.728.915a4.90741,4.90741,0,0,1,1.3935.1155,1.78448,1.78448,0,0,1,1.1545.806,1.31848,1.31848,0,0,1-.036,1.276,1.99253,1.99253,0,0,1-1.6.8075c-.0555.004-.37.007-.426.0085a2.46847,2.46847,0,0,1-1.21-.244,1.509,1.509,0,0,1-.822-1.086.776.776,0,0,0-.089-.355.491.491,0,0,0-.188-.144,1.48094,1.48094,0,0,0-.7175-.1535A2.44351,2.44351,0,0,0,8.611,8.2295,3.271,3.271,0,0,0,10.7835,9.0055Z"/>
</svg>