<svg xmlns:xlink="http://www.w3.org/1999/xlink" xmlns="http://www.w3.org/2000/svg" height="18" viewBox="0 0 18 18" width="18">
  <defs>
    <style>
      .fill {
        fill: #464646;
      }
    </style>
  </defs>
  <title>S Attach 18 N</title>
  <rect id="Canvas" fill="#ff13dc" opacity="0" width="18" height="18"/><path class="fill" d="M8.1035,15.7785a3.32,3.32,0,0,1-2.364.985h-.053A3.488,3.488,0,0,1,3.273,15.726a3.382,3.382,0,0,1-.09763-4.78187L3.223,10.8955l8.8895-8.9A2.437,2.437,0,0,1,13.679,1.256a1.86,1.86,0,0,1,1.521.56,1.76853,1.76853,0,0,1,.5585,1.534,2.87,2.87,0,0,1-.792,1.5L9.036,10.7705c-.382.3825-.7415.6575-1.15.25s-.088-.7845.263-1.1355c.1335-.1335,4.124-4.119,4.8365-4.8295a.366.366,0,0,0,.007-.5105l-.3375-.359a.3675.3675,0,0,0-.51948-.01578L12.127,4.1785,7.15,9.172a1.816,1.816,0,0,0-.036,2.7345c1.3305,1.33,2.8415-.2955,2.8415-.2955L15.85,5.733a3.30462,3.30462,0,0,0,.236-4.8A3.1135,3.1135,0,0,0,13.7945,0a3.6375,3.6375,0,0,0-2.566,1.1135L2.38,9.95a4.7165,4.7165,0,0,0,6.67,6.67l7.7025-7.7a.36749.36749,0,0,0,0-.519l-.375-.3755a.3675.3675,0,0,0-.5195,0Z"/>
</svg>