<svg xmlns:xlink="http://www.w3.org/1999/xlink" xmlns="http://www.w3.org/2000/svg" height="18" viewBox="0 0 18 18" width="18">
  <defs>
    <style>
      .fill {
        fill: #464646;
      }
    </style>
  </defs>
  <title>S AttachmentExclude 18 N</title>
  <rect id="Canvas" fill="#ff13dc" opacity="0" width="18" height="18"/><path class="fill" d="M7.885,11.018c-.4105-.41-.088-.7845.263-1.1355.1335-.1335,4.124-4.119,4.8365-4.8295a.3655.3655,0,0,0,.0065-.5105l-.337-.359a.367.367,0,0,0-.51875-.01649l-.00925.009L7.15,9.172a1.81553,1.81553,0,0,0-.0355,2.7345,1.93769,1.93769,0,0,0,.389.3,6.08023,6.08023,0,0,1,.3935-1.179Z"/>
  <path class="fill" d="M7.853,15.985a3.3,3.3,0,0,1-2.1135.7785h-.053a3.486,3.486,0,0,1-2.413-1.0375,3.3825,3.3825,0,0,1-.09992-4.78253l.04692-.048,8.89-8.9A2.437,2.437,0,0,1,13.677,1.256a1.8615,1.8615,0,0,1,1.523.5595A1.77,1.77,0,0,1,15.7585,3.35a2.866,2.866,0,0,1-.792,1.5l-2.674,2.67a6.11846,6.11846,0,0,1,1.85-.086l1.7055-1.7a3.30423,3.30423,0,0,0,.2365-4.8A3.11352,3.11352,0,0,0,13.795,0a3.637,3.637,0,0,0-2.5665,1.1135L2.38,9.95a4.7075,4.7075,0,0,0,6.0955,7.139A6.115,6.115,0,0,1,7.853,15.985Z"/>
  <path class="fill" d="M13.5,9.05a4.45,4.45,0,1,0,4.45,4.45A4.45,4.45,0,0,0,13.5,9.05ZM10,13.5a3.46455,3.46455,0,0,1,.7375-2.126l4.8885,4.8885A3.483,3.483,0,0,1,10,13.5Zm6.2625,2.126L11.374,10.7375a3.483,3.483,0,0,1,4.8885,4.8885Z"/>
</svg>