<svg xmlns:xlink="http://www.w3.org/1999/xlink" xmlns="http://www.w3.org/2000/svg" height="18" viewBox="0 0 18 18" width="18">
  <defs>
    <style>
      .fill {
        fill: #464646;
      }
    </style>
  </defs>
  <title>S Attributes 18 N</title>
  <path d="M13,15.5a.5.5,0,0,0,.5.5h2a.5.5,0,0,0,0-1h-2A.5.5,0,0,0,13,15.5Z" />
			<path d="M5,15.5a.5.5,0,0,0,.5.5h2a.5.5,0,0,0,0-1h-2A.5.5,0,0,0,5,15.5Z" />
			<path d="M1,15.5a.5.5,0,0,0,.5.5h2a.5.5,0,0,0,0-1h-2A.5.5,0,0,0,1,15.5Z" />
			<rect height="10" rx="0.5" ry="0.5" width="3" x="9" y="6" />
			<path d="M11.153,1.5H9.847a.25.25,0,0,0-.237.329l.653,1.959a.25.25,0,0,0,.474,0l.653-1.959A.25.25,0,0,0,11.153,1.5Z" />
			<path d="M5.5,5.6V6.9a.25.25,0,0,0,.329.237l1.959-.653a.25.25,0,0,0,0-.474L5.829,5.36A.25.25,0,0,0,5.5,5.6Z" />
			<path d="M7.5,2.525l-.924.924a.25.25,0,0,0,.065.4l1.848.924a.25.25,0,0,0,.335-.335L7.9,2.59A.25.25,0,0,0,7.5,2.525Z" />
			<path d="M15.5,5.6V6.9a.25.25,0,0,1-.329.237l-1.959-.653a.25.25,0,0,1,0-.474l1.959-.653A.25.25,0,0,1,15.5,5.6Z" />
			<path d="M13.5,2.525l.924.924a.25.25,0,0,1-.065.4l-1.848.924a.25.25,0,0,1-.335-.335L13.1,2.59A.25.25,0,0,1,13.5,2.525Z" />
		</svg>