<svg xmlns:xlink="http://www.w3.org/1999/xlink" xmlns="http://www.w3.org/2000/svg" height="18" viewBox="0 0 18 18" width="18">
  <defs>
    <style>
      .fill {
        fill: #464646;
      }
    </style>
  </defs>
  <title>S Attributes 18 N</title>
  <rect height="12" rx="0.5" ry="0.5" width="3" x="13" y="4" />
			<rect height="4" rx="0.5" ry="0.5" width="3" x="1" y="12" />
			<path d="M8,15.5a.5.5,0,0,1-.5.5h-2a.5.5,0,0,1,0-1h2A.5.5,0,0,1,8,15.5Z" />
			<path d="M12,15.5a.5.5,0,0,1-.5.5h-2a.5.5,0,0,1,0-1h2A.5.5,0,0,1,12,15.5Z" />
</svg>