<svg xmlns:xlink="http://www.w3.org/1999/xlink" xmlns="http://www.w3.org/2000/svg" height="18" viewBox="0 0 18 18" width="18">
  <defs>
    <style>
      .fill {
        fill: #464646;
      }
    </style>
  </defs>
  <title>S Attributes 18 N</title>
  <rect id="Canvas" fill="#ff13dc" opacity="0" width="18" height="18"/><path class="fill" d="M3.125,2.817V1.5a.5.5,0,0,1,.5-.5h.75a.5.5,0,0,1,.5.5V2H12V3H4.878a5.51415,5.51415,0,0,0,.4345,2H11a1,1,0,0,1-1,1H5.893A3.81792,3.81792,0,0,0,7.207,7.1095l.679.341L5.9725,8.411A6.59314,6.59314,0,0,1,3.125,2.817Zm8.9085,6.7475-1.919.9655.6785.3405A3.83743,3.83743,0,0,1,12.1235,12H8a1,1,0,0,0-1,1h5.697a5.52406,5.52406,0,0,1,.4255,2H6v1h7.125v.5a.5.5,0,0,0,.5.5h.75a.5.5,0,0,0,.5-.5V15.161A6.59448,6.59448,0,0,0,12.0335,9.5645ZM14.375,1h-.75a.5.5,0,0,0-.5.5V2.817A4.7214,4.7214,0,0,1,10.793,7.11L6.422,9.3045A6.4748,6.4748,0,0,0,3.125,15.161V16.5a.5.5,0,0,0,.5.5h.75a.5.5,0,0,0,.5-.5V15.161a4.72252,4.72252,0,0,1,2.332-4.293l4.371-2.194a6.475,6.475,0,0,0,3.297-5.857V1.5A.5.5,0,0,0,14.375,1Z"/>
</svg>