<svg xmlns:xlink="http://www.w3.org/1999/xlink" xmlns="http://www.w3.org/2000/svg" height="18" viewBox="0 0 18 18" width="18">
  <defs>
    <style>
      .fill {
        fill: #464646;
      }
    </style>
  </defs>
  <title>S Back30Seconds 18 N</title>
  <rect id="Canvas" fill="#ff13dc" opacity="0" width="18" height="18"/><path class="fill" d="M12.0155,1.3375l.911-.9105A.245.245,0,0,0,13,.25.25.25,0,0,0,12.75,0H10.2235A.25.25,0,0,0,10,.2235V2.75a.25.25,0,0,0,.25.25.247.247,0,0,0,.175-.0735l.79-.79a7.22,7.22,0,0,1-.965,13.997.3.3,0,0,0-.25.2925v.524a.204.204,0,0,0,.20612.20185L10.2315,17.15a8.2355,8.2355,0,0,0,1.784-15.8125Z"/>
  <path class="fill" d="M13.8865,8.984c0-1.6295-.493-3.484-2.4655-3.484-1.608,0-2.4975,1.49-2.4975,3.484,0,1.9615.7395,3.516,2.508,3.516C13.2325,12.5,13.8865,10.785,13.8865,8.984ZM10.22,8.95c0-1.6405.4935-2.3585,1.1795-2.3585.7935,0,1.2.75,1.2,2.3795,0,1.5655-.3535,2.412-1.1685,2.412S10.22,10.474,10.22,8.95Z"/>
  <path class="fill" d="M7.75,16.1335a7.2405,7.2405,0,0,1,0-14.267A.3.3,0,0,0,8,1.574V1.05A.204.204,0,0,0,7.79387.84815L7.7685.85a8.2435,8.2435,0,0,0,0,16.304A.204.204,0,0,0,8,16.95v-.524A.3.3,0,0,0,7.75,16.1335Z"/>
  <path class="fill" d="M7.026,8.7375a1.557,1.557,0,0,0,.8805-1.426A1.79493,1.79493,0,0,0,5.894,5.5a3.19254,3.19254,0,0,0-1.6355.418c-.0585.032-.05.0535-.05.1075v.986c0,.043.0095.064.068.043a2.55,2.55,0,0,1,1.393-.4075c.7355,0,1.0935.3325,1.0935.836,0,.536-.406.7935-1.1125.7935h-.484c-.05,0-.058.032-.058.0965V9.35c0,.0535.0195.075.0675.075h.5615c.832,0,1.258.3215,1.258.954,0,.5465-.358.9755-1.258.9755a2.903,2.903,0,0,1-1.539-.45.0555.0555,0,0,0-.0865.0425v1.0615c0,.0535.0095.118.058.139A3.11944,3.11944,0,0,0,5.7775,12.5,2.15724,2.15724,0,0,0,8.197,10.4095,1.65751,1.65751,0,0,0,7.026,8.7375Z"/>
</svg>