<svg xmlns:xlink="http://www.w3.org/1999/xlink" xmlns="http://www.w3.org/2000/svg" height="18" viewBox="0 0 18 18" width="18">
  <defs>
    <style>
      .fill {
        fill: #464646;
      }
    </style>
  </defs>
  <title>S BeakerShare 18 N</title>
  <rect id="Canvas" fill="#ff13dc" opacity="0" width="18" height="18"/><path class="fill" d="M6,17.5v-6a1.48824,1.48824,0,0,1,.0155-.15l-2.65.8335L6,7.2265V2h4V6.725l1-1.109V2h.5a.5.5,0,0,0,.5-.5V.5a.5.5,0,0,0-.5-.5h-7A.5.5,0,0,0,4,.5v1a.5.5,0,0,0,.5.5H5V7L.464,15.8795A1.5,1.5,0,0,0,1.8295,18H6.092A1.48609,1.48609,0,0,1,6,17.5Z"/>
  <path class="fill" d="M14.861,9.1655,12,6,9.146,9.1655A.5.5,0,0,0,9.5175,10H11v3.75a.25.25,0,0,0,.25.25h1.5a.25.25,0,0,0,.25-.25V10h1.4895a.5.5,0,0,0,.3715-.8345Z"/>
  <path class="fill" d="M15,11v5H9V11H7.5a.5.5,0,0,0-.5.5v6a.5.5,0,0,0,.5.5h9a.5.5,0,0,0,.5-.5v-6a.5.5,0,0,0-.5-.5Z"/>
</svg>