<svg xmlns:xlink="http://www.w3.org/1999/xlink" xmlns="http://www.w3.org/2000/svg" height="18" viewBox="0 0 18 18" width="18">
  <defs>
    <style>
      .fill {
        fill: #464646;
      }
    </style>
  </defs>
  <title>S BidRuleAdd 18 N</title>
  <rect id="Canvas" fill="#ff13dc" opacity="0" width="18" height="18"/><rect class="fill" height="1.5775" rx="0.3945" transform="translate(0.50939 7.25312) rotate(-44.995)" width="6.3095" x="5.85631" y="2.22285"/>
  <path class="fill" d="M13.5,9.05a4.45,4.45,0,1,0,4.45,4.45A4.45,4.45,0,0,0,13.5,9.05Zm2.5,4.7a.25.25,0,0,1-.25.25H14v1.75a.25.25,0,0,1-.25.25h-.5a.25.25,0,0,1-.25-.25V14H11.25a.25.25,0,0,1-.25-.25v-.5a.25.25,0,0,1,.25-.25H13V11.25a.25.25,0,0,1,.25-.25h.5a.25.25,0,0,1,.25.25V13h1.75a.25.25,0,0,1,.25.25Z"/>
  <path class="fill" d="M16.805,8.3195l.709-.709a.3945.3945,0,0,0,.00009-.55791L17.514,7.0525l-.5575-.5575a.3945.3945,0,0,0-.55791-.00009L16.3985,6.495,15.28,7.614A6.1036,6.1036,0,0,1,16.805,8.3195Z"/>
  <path class="fill" d="M13.5,7.35c.05,0,.0945.006.143.007L15,6,12,3,9,6l1.922,1.922A6.11549,6.11549,0,0,1,13.5,7.35Z"/>
  <path class="fill" d="M9.969,8.469,9,7.5.9695,14.909a.75.75,0,0,0-.00034,1.06066L.9695,15.97l1.061,1.06a.75.75,0,0,0,1.0605,0l4.3805-4.75A6.15249,6.15249,0,0,1,9.969,8.469Z"/>
</svg>