<svg xmlns:xlink="http://www.w3.org/1999/xlink" xmlns="http://www.w3.org/2000/svg" height="18" viewBox="0 0 18 18" width="18">
  <defs>
    <style>
      .fill {
        fill: #464646;
      }
    </style>
  </defs>
  <title>S Blower 18 N</title>
  <rect id="Canvas" fill="#ff13dc" opacity="0" width="18" height="18"/><path class="fill" d="M15.414,3.6705a3.16451,3.16451,0,0,0-3.2-.9785c-1.2.2845-2.94,2.066-3.6375,3.407-.0265,0-.05-.008-.078-.008a2.877,2.877,0,0,0-1.3145.3275c.5-1.9795,1.9265-3.6335-.1-5.05C5.4655.2325,3.171,2.086,3.171,2.086a3.164,3.164,0,0,0-.979,3.2c.2845,1.2,2.066,2.94,3.407,3.6375,0,.027-.008.05-.008.0785a2.877,2.877,0,0,0,.3275,1.3145c-1.9795-.5-3.6335-1.926-5.05.1-1.135,1.622.718,3.916.718,3.916a3.164,3.164,0,0,0,3.2.979c1.2-.2845,2.94-2.066,3.6375-3.407.0265,0,.05.008.078.008a2.877,2.877,0,0,0,1.3145-.3275c-.5,1.9795-1.926,3.633.1,5.05,1.622,1.1355,3.9165-.718,3.9165-.718a3.164,3.164,0,0,0,.979-3.2c-.2845-1.2-2.066-2.94-3.407-3.6375,0-.027.008-.05.008-.0785a2.877,2.877,0,0,0-.3275-1.3145c1.9795.5,3.6335,1.926,5.05-.1C17.267,5.965,15.414,3.6705,15.414,3.6705ZM8.5,10.5A1.5,1.5,0,1,1,10,9,1.5,1.5,0,0,1,8.5,10.5Z"/>
</svg>