<svg xmlns:xlink="http://www.w3.org/1999/xlink" xmlns="http://www.w3.org/2000/svg" height="18" viewBox="0 0 18 18" width="18">
  <defs>
    <style>
      .fill {
        fill: #464646;
      }
    </style>
  </defs>
  <title>S Bookmark 18 N</title>
  <rect id="Canvas" fill="#ff13dc" opacity="0" width="18" height="18"/><path class="fill" d="M7.5355,17.362,6.5,15.6865,5.4645,17.362A.25.25,0,0,1,5,17.2335V12H8v5.2335a.25.25,0,0,1-.4645.1285Z"/>
  <path class="fill" d="M4,13.7215A1.9935,1.9935,0,0,1,4.9975,10H10.259a.5.5,0,0,0,.4-.2l5.55-7.4a.25.25,0,0,0-.2-.4H8.0125a.5.5,0,0,0-.4.2L1.761,9.664A3.97371,3.97371,0,0,0,4,15.858Z"/>
  <path class="fill" d="M16.009,8H14.391l-4.5,6H9v2h1.259a.5.5,0,0,0,.4-.2l5.55-7.4a.25.25,0,0,0-.2-.4Z"/>
</svg>