<svg xmlns:xlink="http://www.w3.org/1999/xlink" xmlns="http://www.w3.org/2000/svg" height="18" viewBox="0 0 18 18" width="18">
  <defs>
    <style>
      .fill {
        fill: #464646;
        fill-rule: evenodd;
      }
    </style>
  </defs>
  <title>S BookmarkSmall 18 N</title>
  <rect id="Canvas" fill="#ff13dc" opacity="0" width="18" height="18"/><path class="fill" d="M8.511,11.924l3.061,2.994A.2521.2521,0,0,0,12,14.744V3.5a.5.5,0,0,0-.5-.5h-6a.5.5,0,0,0-.5.5V14.753a.2615.2615,0,0,0,.153.228.2405.2405,0,0,0,.271-.05Z"/>
  <path class="fill" d="M8.511,11.924l3.061,2.994A.2521.2521,0,0,0,12,14.744V3.5a.5.5,0,0,0-.5-.5h-6a.5.5,0,0,0-.5.5V14.753a.2615.2615,0,0,0,.153.228.2405.2405,0,0,0,.271-.05Z"/>
</svg>