<svg xmlns:xlink="http://www.w3.org/1999/xlink" xmlns="http://www.w3.org/2000/svg" height="18" viewBox="0 0 18 18" width="18">
  <defs>
    <style>
      .fill {
        fill: #464646;
      }
    </style>
  </defs>
  <title>S BoxAdd 18 N</title>
  <rect id="Canvas" fill="#ff13dc" opacity="0" width="18" height="18"/><path class="fill" d="M16.704,4.2345,13.9855,2.761l-8.258,4.6L9,9.1325l.426-.2305a6.12747,6.12747,0,0,1,2.4525-1.3285l4.8255-2.614a.412.412,0,0,0,0-.725Zm-1.5,3.36A6.11662,6.11662,0,0,1,17,8.4465v-1.85ZM1.296,4.9595l2.7645,1.5,8.258-4.6L9.381.2675a.8.8,0,0,0-.7615,0L1.296,4.2345a.412.412,0,0,0,0,.725ZM8.1065,10.545,1,6.5965V13.326a.8.8,0,0,0,.4115.7L8.2,17.797V16.609A6.1295,6.1295,0,0,1,8.1065,10.545ZM13.5,9.05a4.45,4.45,0,1,0,4.45,4.45A4.45,4.45,0,0,0,13.5,9.05Zm2.5,4.7a.25.25,0,0,1-.25.25H14v1.75a.25.25,0,0,1-.25.25h-.5a.25.25,0,0,1-.25-.25V14H11.25a.25.25,0,0,1-.25-.25v-.5a.25.25,0,0,1,.25-.25H13V11.25a.25.25,0,0,1,.25-.25h.5a.25.25,0,0,1,.25.25V13h1.75a.25.25,0,0,1,.25.25Z"/>
</svg>