<svg xmlns:xlink="http://www.w3.org/1999/xlink" xmlns="http://www.w3.org/2000/svg" height="18" viewBox="0 0 18 18" width="18">
  <defs>
    <style>
      .fill {
        fill: #464646;
      }
    </style>
  </defs>
  <title>S Brackets 18 N</title>
  <rect id="Canvas" fill="#ff13dc" opacity="0" width="18" height="18"/><path class="fill" d="M6.442,15.392a.363.363,0,0,0-.3625-.3635h-.737a.35.35,0,0,1-.364-.3335V10.818c0-.85-1.407-1.8255-1.407-1.8255S4.9785,8.05,4.9785,7.182v-3.9a.3435.3435,0,0,1,.3575-.328h.7425a.36349.36349,0,0,0,.3635-.3635V1.3635A.36349.36349,0,0,0,6.0785,1h-.35A2.7555,2.7555,0,0,0,3.00309,3.78526q.00074.06867.00491.13724c.0065,1.4035.0135,2.876.0135,3.321,0,.595-.7845,1.1525-1.3385,1.4715a.3175.3175,0,0,0-.0035.5615c.554.3265,1.342.8915,1.342,1.465v3.35a2.755,2.755,0,0,0,2.59706,2.90437q.06216.00347.12444.00413h.3355a.36349.36349,0,0,0,.3635-.3635Z"/>
  <path class="fill" d="M11.5555,15.392a.3635.3635,0,0,1,.3635-.3635h.736a.35.35,0,0,0,.364-.3335V10.818c0-.85,1.407-1.8255,1.407-1.8255s-1.407-.944-1.407-1.8105v-3.9a.3435.3435,0,0,0-.3575-.328H11.919a.364.364,0,0,1-.3635-.364V1.3635A.364.364,0,0,1,11.919,1h.35a2.754,2.754,0,0,1,2.725,2.78268q-.00074.07-.005.13982c-.007,1.4035-.0135,2.876-.0135,3.321,0,.595.7845,1.1525,1.338,1.4715a.31749.31749,0,0,1,.004.5615c-.554.3265-1.342.8915-1.342,1.465v3.35a2.7535,2.7535,0,0,1-2.594,2.90427q-.06345.00358-.127.00423H11.919a.364.364,0,0,1-.3635-.3635Z"/>
</svg>