<svg xmlns:xlink="http://www.w3.org/1999/xlink" xmlns="http://www.w3.org/2000/svg" height="18" viewBox="0 0 18 18" width="18">
  <defs>
    <style>
      .fill {
        fill: #464646;
      }
    </style>
  </defs>
  <title>S Branch2 18 N</title>
  <rect id="Canvas" fill="#ff13dc" opacity="0" width="18" height="18"/><path class="fill" d="M14,11a2.981,2.981,0,0,0-2.304,1.1L6.92,9.6665a2.80907,2.80907,0,0,0,0-1.332L11.696,5.9a2.954,2.954,0,1,0-.6375-1.3205l-4.811,2.45a3.00734,3.00734,0,0,0-.454-.423,3.04447,3.04447,0,0,0-.4985-.303c-.0185-.009-.035-.0205-.053-.029a2.98157,2.98157,0,0,0-.497-.1715c-.0365-.0095-.0705-.025-.107-.0335a3,3,0,1,0,0,5.8575c.037-.008.0705-.024.107-.0335a2.98157,2.98157,0,0,0,.497-.1715c.0185-.0085.035-.02.053-.029a2.99287,2.99287,0,0,0,.4945-.3,3.05559,3.05559,0,0,0,.458-.426l4.811,2.45A3,3,0,1,0,14,11Zm0-8.5A1.5,1.5,0,1,1,12.5,4,1.5,1.5,0,0,1,14,2.5Zm0,13A1.5,1.5,0,1,1,15.5,14,1.5,1.5,0,0,1,14,15.5Z"/>
</svg>