<svg xmlns:xlink="http://www.w3.org/1999/xlink" xmlns="http://www.w3.org/2000/svg" height="18" viewBox="0 0 18 18" width="18">
  <defs>
    <style>
      .fill {
        fill: #464646;
      }
    </style>
  </defs>
  <title>S Branch3 18 N</title>
  <rect id="Canvas" fill="#ff13dc" opacity="0" width="18" height="18"/><path class="fill" d="M7,14a2.981,2.981,0,0,0-1.1-2.304L8.334,6.92a2.81089,2.81089,0,0,0,1.3325,0L12.1,11.696a2.954,2.954,0,1,0,1.3205-.6375l-2.45-4.811a3.00734,3.00734,0,0,0,.423-.454,3.04447,3.04447,0,0,0,.303-.4985c.009-.0185.0205-.035.029-.053a2.98157,2.98157,0,0,0,.1715-.497c.0095-.0365.025-.0705.0335-.107a3,3,0,1,0-5.8575,0c.008.037.024.0705.0335.107a2.98339,2.98339,0,0,0,.1715.497c.0085.0185.02.035.029.053a2.99423,2.99423,0,0,0,.3.4945,3.05611,3.05611,0,0,0,.426.458l-2.45,4.811A3,3,0,1,0,7,14Zm8.5,0A1.5,1.5,0,1,1,14,12.5,1.5,1.5,0,0,1,15.5,14Zm-13,0A1.5,1.5,0,1,1,4,15.5,1.5,1.5,0,0,1,2.5,14Z"/>
</svg>