<svg xmlns:xlink="http://www.w3.org/1999/xlink" xmlns="http://www.w3.org/2000/svg" height="18" viewBox="0 0 18 18" width="18">
  <defs>
    <style>
      .fill {
        fill: #464646;
      }
    </style>
  </defs>
  <title>S BreadcrumbNavigation 18 N</title>
  <rect id="Canvas" fill="#ff13dc" opacity="0" width="18" height="18"/><path class="fill" d="M17.99939,8.99986,13.98864,13.7345a.75008.75008,0,0,1-.57233.26525H11.3034a.25.25,0,0,1-.19075-.41158l3.88682-4.58828L11.11265,4.41158A.25.25,0,0,1,11.3034,4h2.113a.75.75,0,0,1,.57228.26523Zm-4.99986,0L8.98877,13.7345a.74977.74977,0,0,1-.57225.26525H.50036a.5.5,0,0,1-.5-.5L-.00012,4.5a.5.5,0,0,1,.5-.5H8.4165a.74971.74971,0,0,1,.57225.26519Zm-9.24926,0a1.25,1.25,0,1,0-1.25,1.25h0A1.2499,1.2499,0,0,0,3.75026,9Zm3.24991,0a1.38057,1.38057,0,1,0,0,.00011Zm3.24991,0a1.25,1.25,0,1,0-1.25,1.25h0A1.24991,1.24991,0,0,0,10.25009,9Z"/>
</svg>