<svg xmlns:xlink="http://www.w3.org/1999/xlink" xmlns="http://www.w3.org/2000/svg" height="18" viewBox="0 0 18 18" width="18">
  <defs>
    <style>
      .fill {
        fill: #464646;
      }
    </style>
  </defs>
  <title>S Browse 18 N</title>
  <rect id="Canvas" fill="#ff13dc" opacity="0" width="18" height="18"/><path class="fill" d="M17.545,10.084s-2.942-6.168-3.324-7.1775c-.3645-.963-.8345-1.8645-1.8645-1.8645A1.85558,1.85558,0,0,0,10.492,2.9065c-.0315.295-.1,1.237-.1805,2.115H7.687c-.1-1.0655-.1745-2.067-.179-2.115C7.4175,1.86,7,1.0415,5.6435,1.0415c-1.03,0-1.455.92-1.8645,1.8645C3.45,3.661.382,10.2235.382,10.2235H.389A4.1,4.1,0,1,0,8.254,11.855c0-.126-.0075-.733-.019-.856H9.764c-.011.123-.019.7305-.019.856a4.1,4.1,0,1,0,7.8-1.771ZM4.15,14.541a2.685,2.685,0,1,1,2.685-2.685h0A2.685,2.685,0,0,1,4.15,14.541Zm9.7,0a2.685,2.685,0,1,1,2.681-2.685A2.68842,2.68842,0,0,1,13.85,14.541Z"/>
</svg>