<svg xmlns:xlink="http://www.w3.org/1999/xlink" xmlns="http://www.w3.org/2000/svg" height="18" viewBox="0 0 18 18" width="18">
  <defs>
    <style>
      .fill {
        fill: #464646;
      }
    </style>
  </defs>
  <title>S Brush 18 N</title>
  <rect id="Canvas" fill="#ff13dc" opacity="0" width="18" height="18"/><path class="fill" d="M6.2545,10.515a2.46051,2.46051,0,0,0-2.0975.6,6.46753,6.46753,0,0,0-1.3395,2.391,2.80972,2.80972,0,0,1-1.68,2.386.3.3,0,0,0-.1705.356.45.45,0,0,0,.3225.329c.2925.073.6265.142.9885.2,1.3035.2045,3.74.369,5.403-.826a3.44365,3.44365,0,0,0,1.411-2.273A3.4065,3.4065,0,0,0,6.2545,10.515Z"/>
  <path class="fill" d="M9.95,12.05c3.6175-4.1135,8.211-9.7675,7.008-10.9705S10.773,5.488,7.19,9.415A5.02547,5.02547,0,0,1,9.95,12.05Z"/>
</svg>