<svg xmlns="http://www.w3.org/2000/svg" width="18" height="18" viewBox="0 0 18 18" class="spectrum-Icon_368b34 spectrum-Icon--sizeS_368b34 spectrum-Icon_e2d99e" focusable="false" aria-hidden="true" role="img"><defs><clipPath id="clip-BucketSettings"><rect width="18" height="18"></rect></clipPath></defs><g id="BucketSettings" clip-path="url(#clip-BucketSettings)"><g id="Button" transform="translate(-10 -7)"><g id="Icon"><rect id="Canvas" width="18" height="18" transform="translate(10 7)" fill="none" opacity="0"></rect><path id="Path_104882" data-name="Path 104882" d="M11.5,1V2.5H13v13H11.5V17h3a.5.5,0,0,0,.5-.5V1.5a.5.5,0,0,0-.5-.5Z" transform="translate(10 7)" fill="none"></path><path id="Path_104883" data-name="Path 104883" d="M3,1.5v15a.5.5,0,0,0,.5.5h3V15.5H5V2.5H6.5V1h-3a.5.5,0,0,0-.5.5Z" transform="translate(10 7)" fill="none"></path></g><g id="Group_178432" data-name="Group 178432" transform="translate(0 0)"><path id="Path_1007607" data-name="Path 1007607" d="M164.92,108.045v4a.5.5,0,0,0,.5.5h4a.5.5,0,0,0,.5-.5v-4a.5.5,0,0,0-.5-.5h-4a.5.5,0,0,0-.5.5" transform="translate(-150 -91.545)"></path><path id="Path_1007608" data-name="Path 1007608" d="M168.92,103.045v3a.5.5,0,0,0,.5.5h3a.5.5,0,0,0,.5-.5v-3a.5.5,0,0,0-.5-.5h-3a.5.5,0,0,0-.5.5" transform="translate(-150 -91.545)"></path><path id="Path_1007609" data-name="Path 1007609" d="M173.42,99.545v1.5h2v13h-2v1.5h3a.5.5,0,0,0,.5-.5v-15a.5.5,0,0,0-.5-.5Z" transform="translate(-150 -91.545)"></path><path id="Path_1007610" data-name="Path 1007610" d="M160.92,100.045v15a.5.5,0,0,0,.5.5h3v-1.5h-2v-13h2v-1.5h-3a.5.5,0,0,0-.5.5" transform="translate(-150 -91.545)"></path></g></g></g></svg>