<svg xmlns:xlink="http://www.w3.org/1999/xlink" xmlns="http://www.w3.org/2000/svg" height="18" viewBox="0 0 18 18" width="18">
  <defs>
    <style>
      .fill {
        fill: #464646;
      }
    </style>
  </defs>
  <title>S Building 18 N</title>
  <rect id="Canvas" fill="#ff13dc" opacity="0" width="18" height="18"/><path class="fill" d="M16.5,1H2.5a.5.5,0,0,0-.5.5v15a.5.5,0,0,0,.5.5H8V11h3v6h5.5a.5.5,0,0,0,.5-.5V1.5A.5.5,0,0,0,16.5,1ZM6,13H3V11H6ZM6,9H3V7H6ZM6,5H3V3H6Zm5,4H8V7h3Zm0-4H8V3h3Zm5,8H13V11h3Zm0-4H13V7h3Zm0-4H13V3h3Z"/>
</svg>