<svg xmlns:xlink="http://www.w3.org/1999/xlink" xmlns="http://www.w3.org/2000/svg" height="18" viewBox="0 0 18 18" width="18">
  <defs>
    <style>
      .fill {
        fill: #464646;
      }
    </style>
  </defs>
  <title>S Calculator 18 N</title>
  <rect id="Canvas" fill="#ff13dc" opacity="0" width="18" height="18"/><path class="fill" d="M14.5,1H2.5a.5.5,0,0,0-.5.5v15a.5.5,0,0,0,.5.5h12a.5.5,0,0,0,.5-.5V1.5A.5.5,0,0,0,14.5,1ZM5,14.75a.25.25,0,0,1-.25.25H3.25A.25.25,0,0,1,3,14.75v-1.5A.25.25,0,0,1,3.25,13h1.5a.25.25,0,0,1,.25.25Zm0-3a.25.25,0,0,1-.25.25H3.25A.25.25,0,0,1,3,11.75v-1.5A.25.25,0,0,1,3.25,10h1.5a.25.25,0,0,1,.25.25Zm0-3A.25.25,0,0,1,4.75,9H3.25A.25.25,0,0,1,3,8.75V7.25A.25.25,0,0,1,3.25,7h1.5A.25.25,0,0,1,5,7.25Zm3,6a.25.25,0,0,1-.25.25H6.25A.25.25,0,0,1,6,14.75v-1.5A.25.25,0,0,1,6.25,13h1.5a.25.25,0,0,1,.25.25Zm0-3a.25.25,0,0,1-.25.25H6.25A.25.25,0,0,1,6,11.75v-1.5A.25.25,0,0,1,6.25,10h1.5a.25.25,0,0,1,.25.25Zm0-3A.25.25,0,0,1,7.75,9H6.25A.25.25,0,0,1,6,8.75V7.25A.25.25,0,0,1,6.25,7h1.5A.25.25,0,0,1,8,7.25Zm3,6a.25.25,0,0,1-.25.25H9.25A.25.25,0,0,1,9,14.75v-1.5A.25.25,0,0,1,9.25,13h1.5a.25.25,0,0,1,.25.25Zm0-3a.25.25,0,0,1-.25.25H9.25A.25.25,0,0,1,9,11.75v-1.5A.25.25,0,0,1,9.25,10h1.5a.25.25,0,0,1,.25.25Zm0-3a.25.25,0,0,1-.25.25H9.25A.25.25,0,0,1,9,8.75V7.25A.25.25,0,0,1,9.25,7h1.5a.25.25,0,0,1,.25.25Zm3,6a.25.25,0,0,1-.25.25h-1.5a.25.25,0,0,1-.25-.25v-4.5a.25.25,0,0,1,.25-.25h1.5a.25.25,0,0,1,.25.25Zm0-6a.25.25,0,0,1-.25.25h-1.5A.25.25,0,0,1,12,8.75V7.25A.25.25,0,0,1,12.25,7h1.5a.25.25,0,0,1,.25.25Zm0-4a.25.25,0,0,1-.25.25H3.25A.25.25,0,0,1,3,4.75V2.25A.25.25,0,0,1,3.25,2h10.5a.25.25,0,0,1,.25.25Z"/>
</svg>