<svg xmlns:xlink="http://www.w3.org/1999/xlink" xmlns="http://www.w3.org/2000/svg" height="18" viewBox="0 0 18 18" width="18">
  <defs>
    <style>
      .fill {
        fill: #464646;
      }
    </style>
  </defs>
  <title>S CalendarUnlocked 18 N</title>
  <rect id="Canvas" fill="#ff13dc" opacity="0" width="18" height="18"/><path class="fill" d="M17.5,12H10.9585V10.2855c0-1.42.7295-2.5715,2.0415-2.5715a1.9125,1.9125,0,0,1,1.838,1.372.25.25,0,0,0,.3155.15957L15.17,9.2395l1.237-.53a.2565.2565,0,0,0,.13508-.33666L16.5415,8.3715A3.9395,3.9395,0,0,0,13,6a4.13177,4.13177,0,0,0-3.9585,4.2855V12H8.5a.5.5,0,0,0-.5.5v5a.5.5,0,0,0,.5.5h9a.5.5,0,0,0,.5-.5v-5A.5.5,0,0,0,17.5,12Zm-3.7085,3.6665v.905A.413.413,0,0,1,13.396,17h-.792a.413.413,0,0,1-.3955-.4285v-.905a1.326,1.326,0,0,1-.396-.95,1.191,1.191,0,1,1,2.375,0A1.326,1.326,0,0,1,13.7915,15.6665Z"/>
  <path class="fill" d="M6.7335,12.5A1.48146,1.48146,0,0,1,6.823,12H2V3H4v.5a.5.5,0,0,0,.5.5h1A.5.5,0,0,0,6,3.5V3h5v.5a.5.5,0,0,0,.5.5h1a.5.5,0,0,0,.5-.5V3h2V4.87a4.9106,4.9106,0,0,1,1,.646V2.5a.5.5,0,0,0-.5-.5H13V.5a.5.5,0,0,0-.5-.5h-1a.5.5,0,0,0-.5.5V2H6V.5A.5.5,0,0,0,5.5,0h-1A.5.5,0,0,0,4,.5V2H1.5a.5.5,0,0,0-.5.5v10a.5.5,0,0,0,.5.5H6.7335Z"/>
</svg>