<svg xmlns:xlink="http://www.w3.org/1999/xlink" xmlns="http://www.w3.org/2000/svg" height="18" viewBox="0 0 18 18" width="18">
  <defs>
    <style>
      .fill {
        fill: #464646;
      }
    </style>
  </defs>
  <title>S CallCenter 18 N</title>
  <rect id="Canvas" fill="#ff13dc" opacity="0" width="18" height="18"/><path class="fill" d="M15.5455,7H14.818A5.9115,5.9115,0,0,0,9,1,5.9115,5.9115,0,0,0,3.182,7H2.4545A1.478,1.478,0,0,0,1,8.5v3A1.478,1.478,0,0,0,2.4545,13h2.182V7H4.6A4.47051,4.47051,0,0,1,9,2.4625,4.47051,4.47051,0,0,1,13.4,7h-.0365v5.669a5.09151,5.09151,0,0,1-3.1055,2.4A1.55753,1.55753,0,0,0,9,14.5a1.32171,1.32171,0,0,0-1.4545,1.125A1.32171,1.32171,0,0,0,9,16.75a1.394,1.394,0,0,0,1.4295-.9345A5.841,5.841,0,0,0,14.0275,13h1.518A1.478,1.478,0,0,0,17,11.5v-3A1.478,1.478,0,0,0,15.5455,7Z"/>
</svg>