<svg xmlns:xlink="http://www.w3.org/1999/xlink" xmlns="http://www.w3.org/2000/svg" height="18" viewBox="0 0 18 18" width="18">
  <defs>
    <style>
      .fill {
        fill: #464646;
      }
    </style>
  </defs>
  <title>S CameraFlip 18 N</title>
  <rect id="Canvas" fill="#ff13dc" opacity="0" width="18" height="18"/><path class="fill" d="M16.5,4H12.975L11.3,2.163A.5.5,0,0,0,10.9295,2H6.0705a.5.5,0,0,0-.3695.163L4.025,4H.5a.5.5,0,0,0-.5.5v10a.5.5,0,0,0,.5.5h16a.5.5,0,0,0,.5-.5V4.5A.5.5,0,0,0,16.5,4Zm-8,9.1a4.07051,4.07051,0,0,1-2.891-1.209l-.6825.6825a.25.25,0,0,1-.4265-.177V10.25A.25.25,0,0,1,4.75,10H6.8965a.25.25,0,0,1,.1765.427l-.682.682A2.95349,2.95349,0,0,0,8.5,12a2.99251,2.99251,0,0,0,2.755-1.844A.25.25,0,0,1,11.4825,10h.6455a.25.25,0,0,1,.24.3215A4.089,4.089,0,0,1,8.5,13.1Zm4-5.35a.25.25,0,0,1-.25.25H10.1035a.25.25,0,0,1-.177-.4265l.6825-.6825A2.95349,2.95349,0,0,0,8.5,6,2.993,2.993,0,0,0,5.745,7.844.25.25,0,0,1,5.5175,8H4.872a.25.25,0,0,1-.24-.321,4.074,4.074,0,0,1,6.759-1.57l.682-.682a.25.25,0,0,1,.427.1765Z"/>
</svg>