<svg xmlns:xlink="http://www.w3.org/1999/xlink" xmlns="http://www.w3.org/2000/svg" height="18" viewBox="0 0 18 18" width="18">
  <defs>
    <style>
      .fill {
        fill: #464646;
      }
    </style>
  </defs>
  <title>S CameraRefresh 18 N</title>
  <rect id="Canvas" fill="#ff13dc" opacity="0" width="18" height="18"/><path class="fill" d="M7.9,13.431a6.17321,6.17321,0,0,1,.2625-1.4175,4.1,4.1,0,1,1,4.927-4.093c.1355-.0105.2705-.021.408-.021a5.60653,5.60653,0,0,1,3.2175,1.07L17,8.6815V3.5a.5.5,0,0,0-.5-.5H13.475L11.8,1.163A.5.5,0,0,0,11.4295,1H6.5705a.5.5,0,0,0-.3695.163L4.525,3H1.5a.5.5,0,0,0-.5.5v10a.5.5,0,0,0,.5.5H7.8665Z"/>
  <path class="fill" d="M11.9875,8.1235C11.9875,8.0815,12,8.042,12,8a3,3,0,1,0-3.4,2.9595A5.70651,5.70651,0,0,1,11.9875,8.1235Z"/>
  <path class="fill" d="M13.5,16.6815a3.0715,3.0715,0,0,1-2.359-1.05l1.141-1.1435H9.05v3.2385l1.238-1.2405A4.324,4.324,0,0,0,13.5,17.95a4.6,4.6,0,0,0,4.45-4.45H16.8225A3.406,3.406,0,0,1,13.5,16.6815Z"/>
  <path class="fill" d="M16.7425,10.513A4.556,4.556,0,0,0,13.5,9.05,4.6,4.6,0,0,0,9.05,13.5h1.1275A3.406,3.406,0,0,1,13.5,10.318a3.107,3.107,0,0,1,2.4085,1.0465L14.786,12.511H17.95V9.28Z"/>
</svg>