<svg xmlns:xlink="http://www.w3.org/1999/xlink" xmlns="http://www.w3.org/2000/svg" height="18" viewBox="0 0 18 18" width="18">
  <defs>
    <style>
      .fill {
        fill: #464646;
      }
    </style>
  </defs>
  <title>S CampaignDelete 18 N</title>
  <rect id="Canvas" fill="#ff13dc" opacity="0" width="18" height="18"/><path class="fill" d="M2.1135,10.1555H0A8.086,8.086,0,0,0,6.844,17V14.886A6.003,6.003,0,0,1,2.1135,10.1555Z"/>
  <path class="fill" d="M6.844,3.114V1A8.086,8.086,0,0,0,0,7.844H2.114A6.00252,6.00252,0,0,1,6.844,3.114Z"/>
  <path class="fill" d="M13.886,7.844H16A8.086,8.086,0,0,0,9.156,1V3.114A6.00252,6.00252,0,0,1,13.886,7.844Z"/>
  <path class="fill" d="M13.5,9.05a4.45,4.45,0,1,0,4.45,4.45A4.45,4.45,0,0,0,13.5,9.05Zm2.5,4.7a.25.25,0,0,1-.25.25h-4.5a.25.25,0,0,1-.25-.25v-.5a.25.25,0,0,1,.25-.25h4.5a.25.25,0,0,1,.25.25Z"/>
  <path class="fill" d="M10.056,8.4045A2.1445,2.1445,0,1,0,7.8235,11.132,6.172,6.172,0,0,1,10.056,8.4045Z"/>
</svg>