<svg xmlns:xlink="http://www.w3.org/1999/xlink" xmlns="http://www.w3.org/2000/svg" height="18" viewBox="0 0 18 18" width="18">
  <defs>
    <style>
      .fill {
        fill: #464646;
      }
    </style>
  </defs>
  <title>S CampaignAdd 18 N</title>
  <rect id="Canvas" fill="#ff13dc" opacity="0" width="18" height="18"/><path class="fill" d="M3.1135,10.1555H1A8.086,8.086,0,0,0,7.844,17V14.886A6.003,6.003,0,0,1,3.1135,10.1555Z"/>
  <path class="fill" d="M7.844,3.114V1A8.086,8.086,0,0,0,1,7.844H3.114A6.00252,6.00252,0,0,1,7.844,3.114Z"/>
  <path class="fill" d="M14.886,7.844H17A8.086,8.086,0,0,0,10.156,1V3.114A6.00252,6.00252,0,0,1,14.886,7.844Z"/>
  <path class="fill" d="M7.95,10.865A6.16445,6.16445,0,0,1,10.865,7.95,2.143,2.143,0,1,0,7.95,10.865Z"/>
  <path class="fill" d="M13.5,9.05a4.45,4.45,0,1,0,4.45,4.45A4.45,4.45,0,0,0,13.5,9.05Zm2.5,4.7a.25.25,0,0,1-.25.25H14v1.75a.25.25,0,0,1-.25.25h-.5a.25.25,0,0,1-.25-.25V14H11.25a.25.25,0,0,1-.25-.25v-.5a.25.25,0,0,1,.25-.25H13V11.25a.25.25,0,0,1,.25-.25h.5a.25.25,0,0,1,.25.25V13h1.75a.25.25,0,0,1,.25.25Z"/>
</svg>