<svg xmlns:xlink="http://www.w3.org/1999/xlink" xmlns="http://www.w3.org/2000/svg" height="18" viewBox="0 0 18 18" width="18">
  <defs>
    <style>
      .fill {
        fill: #464646;
      }
    </style>
  </defs>
  <title>S CampaignEdit 18 N</title>
  <rect id="Canvas" fill="#ff13dc" opacity="0" width="18" height="18"/><circle class="fill" cx="8" cy="9" r="2.15"/>
  <path class="fill" d="M2.1135,10.1555H0A8.086,8.086,0,0,0,6.844,17V14.886A6.003,6.003,0,0,1,2.1135,10.1555Z"/>
  <path class="fill" d="M6.844,3.114V1A8.086,8.086,0,0,0,0,7.844H2.114A6.00252,6.00252,0,0,1,6.844,3.114Z"/>
  <path class="fill" d="M13.886,7.844H16A8.086,8.086,0,0,0,9.156,1V3.114A6.00252,6.00252,0,0,1,13.886,7.844Z"/>
  <path class="fill" d="M17.869,10.882,16.116,9.129a.369.369,0,0,0-.2635-.1075H15.841a.41651.41651,0,0,0-.282.1235L10.4645,14.24a.30352.30352,0,0,0-.0765.128l-1.33,3.315c-.0345.1145.1395.2585.238.2585a.15858.15858,0,0,0,.0185,0c.084-.0195,2.878-1.2,3.317-1.3305a.3.3,0,0,0,.126-.0755l5.095-5.095a.41794.41794,0,0,0,.123-.2685A.3715.3715,0,0,0,17.869,10.882Zm-5.485,5.165c-.657.2-1.964.931-2.5315,1.1L10.95,14.616Z"/>
</svg>