<svg xmlns:xlink="http://www.w3.org/1999/xlink" xmlns="http://www.w3.org/2000/svg" height="18" viewBox="0 0 18 18" width="18">
  <defs>
    <style>
      .fill {
        fill: #464646;
      }
    </style>
  </defs>
  <title>S CampaignClose 18 N</title>
  <rect id="Canvas" fill="#ff13dc" opacity="0" width="18" height="18"/><path class="fill" d="M2.1135,10.1555H0A8.086,8.086,0,0,0,6.844,17V14.886A6.003,6.003,0,0,1,2.1135,10.1555Z"/>
  <path class="fill" d="M6.844,3.114V1A8.086,8.086,0,0,0,0,7.844H2.114A6.00252,6.00252,0,0,1,6.844,3.114Z"/>
  <path class="fill" d="M13.886,7.844H16A8.086,8.086,0,0,0,9.156,1V3.114A6.00252,6.00252,0,0,1,13.886,7.844Z"/>
  <path class="fill" d="M13.5,9.05a4.45,4.45,0,1,0,4.45,4.45A4.45,4.45,0,0,0,13.5,9.05Zm2.913,6.1335a.25.25,0,0,1,0,.3535l-.876.876a.25.25,0,0,1-.3535,0L13.5,14.7295,11.8165,16.413a.25.25,0,0,1-.3535,0l-.876-.876a.25.25,0,0,1,0-.3535L12.2705,13.5,10.587,11.8165a.25.25,0,0,1,0-.3535l.876-.876a.25.25,0,0,1,.3535,0L13.5,12.2705l1.6835-1.6835a.25.25,0,0,1,.3535,0l.876.876a.25.25,0,0,1,0,.3535L14.7295,13.5Z"/>
  <path class="fill" d="M10.056,8.4045A2.1445,2.1445,0,1,0,7.8235,11.132,6.172,6.172,0,0,1,10.056,8.4045Z"/>
</svg>