<svg xmlns:xlink="http://www.w3.org/1999/xlink" xmlns="http://www.w3.org/2000/svg" height="18" viewBox="0 0 18 18" width="18">
  <defs>
    <style>
      .fill {
        fill: #464646;
      }
    </style>
  </defs>
  <title>S Capitals 18 N</title>
  <rect id="Canvas" fill="#ff13dc" opacity="0" width="18" height="18"/><path class="fill" d="M7.5,4a.5.5,0,0,1,.5.5V7a.5.5,0,0,1-.5.5h-1A.5.5,0,0,1,6,7V6H5v6h.5a.5.5,0,0,1,.5.5v1a.5.5,0,0,1-.5.5h-3a.5.5,0,0,1-.5-.5v-1a.5.5,0,0,1,.5-.5H3V6H2V7a.5.5,0,0,1-.5.5H.5A.5.5,0,0,1,0,7V4.5A.5.5,0,0,1,.5,4Z"/>
  <path class="fill" d="M16.5,4a.5.5,0,0,1,.5.5V7a.5.5,0,0,1-.5.5h-1A.5.5,0,0,1,15,7V6H14v6h.5a.5.5,0,0,1,.5.5v1a.5.5,0,0,1-.5.5h-3a.5.5,0,0,1-.5-.5v-1a.5.5,0,0,1,.5-.5H12V6H11V7a.5.5,0,0,1-.5.5h-1A.5.5,0,0,1,9,7V4.5A.5.5,0,0,1,9.5,4Z"/>
</svg>