<svg xmlns:xlink="http://www.w3.org/1999/xlink" xmlns="http://www.w3.org/2000/svg" height="18" viewBox="0 0 18 18" width="18">
  <defs>
    <style>
      .fill {
        fill: #464646;
      }
    </style>
  </defs>
  <title>S Captcha 18 N</title>
  <rect id="Canvas" fill="#ff13dc" opacity="0" width="18" height="18"/><path class="fill" d="M14.259,7.6a2.3635,2.3635,0,0,0,1.6805-2.2255c0-1.521-1.0885-2.625-3.0895-2.625a5.365,5.365,0,0,0-2.561.6245.13949.13949,0,0,0-.064.144V4.542c0,.064.0165.0795.0965.05A4.33146,4.33146,0,0,1,12.626,3.95c1.4085,0,2,.688,2,1.584,0,1.0245-.8645,1.569-2.273,1.569h-.591c-.08,0-.096.05-.096.112V8.223c0,.064.032.096.112.096h.672c1.5845,0,2.641.5765,2.641,1.857,0,1.009-.704,1.8725-2.4325,1.8725a7.11785,7.11785,0,0,1-2.497-.654,3.79252,3.79252,0,0,0,.3305-1.54,3.01569,3.01569,0,0,0-3.224-3.192A6.30249,6.30249,0,0,0,4.5,7.392V1.625a.375.375,0,0,0-.375-.375H3.379a.3735.3735,0,0,0-.3.15L1.65,2.545a.747.747,0,0,0-.15.45v.124a.375.375,0,0,0,.375.375H3v7.125a.375.375,0,0,0,.375.375h.75a.375.375,0,0,0,.375-.375V8.7775a5.26947,5.26947,0,0,1,2.516-.754c1.2735,0,2.05.6225,2.05,1.8765,0,.9625-.4695,1.8975-1.9,3.4775A24.53582,24.53582,0,0,1,4.6,15.897a.25.25,0,0,0-.0845.2095v.709c0,.161.106.1845.169.1845H10.575c.1185,0,.156-.0425.2-.15l.235-.9755a.135.135,0,0,0-.0175-.1215.17851.17851,0,0,0-.15-.05H8.669c-1.209,0-1.457,0-1.932.031a15.25015,15.25015,0,0,0,1.859-2.0125c.3735-.4585.6955-.874.9695-1.275a8.3231,8.3231,0,0,0,3.1085.805c2.161,0,3.7775-1.104,3.7775-3.073A2.611,2.611,0,0,0,14.259,7.6Z"/>
</svg>