<svg xmlns:xlink="http://www.w3.org/1999/xlink" xmlns="http://www.w3.org/2000/svg" height="18" viewBox="0 0 18 18" width="18">
  <defs>
    <style>
      .fill {
        fill: #464646;
      }
    </style>
  </defs>
  <title>S Channel 18 N</title>
  <rect id="Canvas" fill="#ff13dc" opacity="0" width="18" height="18"/><path class="fill" d="M16.188,7.5615a1.43374,1.43374,0,0,0-1.238.7195H12.6775a3.733,3.733,0,0,0-1.335-2.188l1.31-2.4895a1.4395,1.4395,0,1,0-1.2725-.668L10.0705,5.424A3.69979,3.69979,0,0,0,9,5.25a3.69979,3.69979,0,0,0-1.0705.174L6.62,2.9355a1.42371,1.42371,0,1,0-1.27.668L6.66,6.093A3.733,3.733,0,0,0,5.325,8.281H3.05a1.4375,1.4375,0,1,0,0,1.438H5.322a3.733,3.733,0,0,0,1.335,2.188L5.35,14.3965a1.44051,1.44051,0,1,0,1.2725.668L7.932,12.576A3.70024,3.70024,0,0,0,9,12.75a3.69979,3.69979,0,0,0,1.0705-.174L11.38,15.0645a1.43827,1.43827,0,1,0,1.2725-.669l-1.31-2.4895a3.73292,3.73292,0,0,0,1.335-2.188H14.95a1.435,1.435,0,1,0,1.238-2.1565ZM9,11.2875A2.2875,2.2875,0,1,1,11.2875,9,2.2875,2.2875,0,0,1,9,11.2875Z"/>
</svg>