<svg xmlns:xlink="http://www.w3.org/1999/xlink" xmlns="http://www.w3.org/2000/svg" height="18" viewBox="0 0 18 18" width="18">
  <defs>
    <style>
      .fill {
        fill: #464646;
      }
    </style>
  </defs>
  <title>S ChatAdd 18 N</title>
  <rect id="Canvas" fill="#ff13dc" opacity="0" width="18" height="18"/><path class="fill" d="M7.375,14H4.793a.5.5,0,0,0-.3535.1465L3,15.5855V14.5a.5.5,0,0,0-.5-.5h-1a.5.5,0,0,1-.5-.5v-6A.5.5,0,0,1,1.5,7h8a.5.5,0,0,1,.5.5v.9465a6.12921,6.12921,0,0,1,1-.562V7.5A1.5,1.5,0,0,0,9.5,6h-8A1.5,1.5,0,0,0,0,7.5v6A1.5,1.5,0,0,0,1.5,15H2v2.3965a.25.25,0,0,0,.427.177L5,15H7.542A6.11074,6.11074,0,0,1,7.375,14Z"/>
  <path class="fill" d="M12,7.3v.242A6.1045,6.1045,0,0,1,17.8465,9.15,1.48587,1.48587,0,0,0,18,8.5v-6A1.5,1.5,0,0,0,16.5,1h-9A1.5,1.5,0,0,0,6,2.5V5H9.7A2.3,2.3,0,0,1,12,7.3Z"/>
  <path class="fill" d="M13.5,9.05a4.45,4.45,0,1,0,4.45,4.45A4.45,4.45,0,0,0,13.5,9.05Zm2.5,4.7a.25.25,0,0,1-.25.25H14v1.75a.25.25,0,0,1-.25.25h-.5a.25.25,0,0,1-.25-.25V14H11.25a.25.25,0,0,1-.25-.25v-.5a.25.25,0,0,1,.25-.25H13V11.25a.25.25,0,0,1,.25-.25h.5a.25.25,0,0,1,.25.25V13h1.75a.25.25,0,0,1,.25.25Z"/>
</svg>