<svg xmlns:xlink="http://www.w3.org/1999/xlink" xmlns="http://www.w3.org/2000/svg" height="18" viewBox="0 0 18 18" width="18">
  <defs>
    <style>
      .fill {
        fill: #464646;
      }
    </style>
  </defs>
  <title>S ChevronDoubleLeft 18 N</title>
  <rect id="Canvas" fill="#ff13dc" opacity="0" width="18" height="18"/><path class="fill" d="M3,9a.994.994,0,0,0,.2925.7045l3.9915,3.99a1,1,0,1,0,1.4355-1.386L8.695,12.284,5.4095,9l3.286-3.285A1,1,0,0,0,7.309,4.28l-.0245.0245L3.293,8.2945A.994.994,0,0,0,3,9Z"/>
  <path class="fill" d="M9,9a.994.994,0,0,0,.2925.7045l3.9915,3.99a1,1,0,1,0,1.4355-1.386l-.0245-.0245L11.4095,9l3.286-3.285A1,1,0,0,0,13.309,4.28l-.0245.0245L9.293,8.2945A.994.994,0,0,0,9,9Z"/>
</svg>