<svg xmlns:xlink="http://www.w3.org/1999/xlink" xmlns="http://www.w3.org/2000/svg" height="18" viewBox="0 0 18 18" width="18">
  <defs>
    <style>
      .fill {
        fill: #464646;
      }
    </style>
  </defs>
  <title>S ChevronUpDown 18 N</title>
  <rect id="Canvas" fill="#ff13dc" opacity="0" width="18" height="18"/><path class="fill" d="M14,5.99a1,1,0,0,1-1.7055.7055L9.006,3.409,5.717,6.695A1,1,0,0,1,4.28,5.3085l.0245-.0245L8.3,1.2925a1,1,0,0,1,1.4125,0L13.707,5.284A.99446.99446,0,0,1,14,5.99Z"/>
  <path class="fill" d="M4,12.01a1,1,0,0,1,1.7055-.7055l3.289,3.286,3.289-3.286a1,1,0,0,1,1.437,1.3865l-.0245.0245L9.7,16.707a1,1,0,0,1-1.4125,0L4.293,12.7155A.99452.99452,0,0,1,4,12.01Z"/>
</svg>