<svg xmlns:xlink="http://www.w3.org/1999/xlink" xmlns="http://www.w3.org/2000/svg" height="18" viewBox="0 0 18 18" width="18">
  <defs>
    <style>
      .fill {
        fill: #464646;
      }
    </style>
  </defs>
  <title>S ClockCheck 18 N</title>
  <rect id="Canvas" fill="#ff13dc" opacity="0" width="18" height="18"/><path class="fill" d="M7,8.043V3.5A.5.5,0,0,1,7.5,3h1a.5.5,0,0,1,.5.5V8.793a.5.5,0,0,1-.1465.3535L6.05,11.95a.5.5,0,0,1-.707,0l-.668-.6675a.5.5,0,0,1,0-.707l2.179-2.179A.5.5,0,0,0,7,8.043Z"/>
  <path class="fill" d="M7.8815,15.994A7,7,0,1,1,14.8345,7.5a6.09291,6.09291,0,0,1,1.0715.34A7.996,7.996,0,1,0,8,17c.145,0,.2865-.014.43-.022A6.15475,6.15475,0,0,1,7.8815,15.994Z"/>
  <path class="fill" d="M13.5,9.05a4.45,4.45,0,1,0,4.45,4.45A4.45,4.45,0,0,0,13.5,9.05Zm-1.169,7.156-2.064-2.0635a.25.25,0,0,1,0-.3535l.518-.518a.25.25,0,0,1,.3535,0l1.3655,1.3655,3.053-3.053a.25.25,0,0,1,.3535,0l.5215.5215a.25.25,0,0,1,0,.3535l-3.75,3.75A.25.25,0,0,1,12.331,16.206Z"/>
</svg>