<svg xmlns:xlink="http://www.w3.org/1999/xlink" xmlns="http://www.w3.org/2000/svg" height="18" viewBox="0 0 18 18" width="18">
  <defs>
    <style>
      .fill {
        fill: #464646;
      }
    </style>
  </defs>
  <title>S CloneStamp 18 N</title>
  <rect id="Canvas" fill="#ff13dc" opacity="0" width="18" height="18"/><path class="fill" d="M10.3235,10.81A14.99435,14.99435,0,0,1,9.938,8.221a4.98554,4.98554,0,0,1,.306-1.4725,2.8775,2.8775,0,0,0,1.8155-2.874,3.0555,3.0555,0,0,0-6.111-.00068V3.8745A2.874,2.874,0,0,0,7.754,6.7465,5.23327,5.23327,0,0,1,8.065,8.221a15.69591,15.69591,0,0,1-.3885,2.5895,52.68094,52.68094,0,0,0-6.24,1.1755A.573.573,0,0,0,1,12.55v1.8645a.5765.5765,0,0,0,.56742.58544L1.573,15H16.4285A.577.577,0,0,0,17,14.418V12.55a.573.573,0,0,0-.4365-.5655A52.95552,52.95552,0,0,0,10.3235,10.81Z"/>
  <rect class="fill" height="1" rx="0.25" width="14" x="2" y="16"/>
</svg>