<svg xmlns:xlink="http://www.w3.org/1999/xlink" xmlns="http://www.w3.org/2000/svg" height="18" viewBox="0 0 18 18" width="18">
  <defs>
    <style>
      .fill {
        fill: #464646;
      }
    </style>
  </defs>
  <title>S CloseCaptions 18 N</title>
  <rect id="Canvas" fill="#ff13dc" opacity="0" width="18" height="18"/><path class="fill" d="M15.75,3H2.25A2.25,2.25,0,0,0,0,5.25v7.5A2.25,2.25,0,0,0,2.25,15h13.5A2.25,2.25,0,0,0,18,12.75V5.25A2.25,2.25,0,0,0,15.75,3ZM8.3315,6.806a.4045.4045,0,0,1-.185.3575l-.1615.1L7.7555,7.172a2.98008,2.98008,0,0,0-1.171-.188,1.8605,1.8605,0,0,0-2.01,2A1.90849,1.90849,0,0,0,6.605,11.005a3.29292,3.29292,0,0,0,1.1395-.154L7.9,10.8l.1905.0815a.3935.3935,0,0,1,.1805.3455v.906a.46749.46749,0,0,1-.285.45,4.82387,4.82387,0,0,1-1.5325.208A3.5639,3.5639,0,0,1,2.62,9.019,3.68874,3.68874,0,0,1,6.606,5.216a3.78306,3.78306,0,0,1,1.461.2.454.454,0,0,1,.2655.424Zm6.75,0a.4045.4045,0,0,1-.185.3575l-.1615.1-.2295-.0915a2.98008,2.98008,0,0,0-1.171-.188,1.8605,1.8605,0,0,0-2.01,2,1.90849,1.90849,0,0,0,2.0305,2.021,3.2932,3.2932,0,0,0,1.1395-.154L14.65,10.8l.1905.0815a.3935.3935,0,0,1,.1805.3455v.906a.46749.46749,0,0,1-.285.45,4.82387,4.82387,0,0,1-1.5325.208A3.5639,3.5639,0,0,1,9.37,9.019a3.69,3.69,0,0,1,3.986-3.803,3.78306,3.78306,0,0,1,1.461.2.454.454,0,0,1,.2655.424Z"/>
</svg>