<svg xmlns:xlink="http://www.w3.org/1999/xlink" xmlns="http://www.w3.org/2000/svg" height="18" viewBox="0 0 18 18" width="18">
  <defs>
    <style>
      .fill {
        fill: #464646;
      }
    </style>
  </defs>
  <title>S CloudDisconnected 18 N</title>
  <rect id="Canvas" fill="#ff13dc" opacity="0" width="18" height="18"/><path class="fill" d="M13.48438,7.90625a3.625,3.625,0,1,0,3.625,3.625A3.625,3.625,0,0,0,13.48438,7.90625Zm1.93517,4.95761a.45976.45976,0,1,1-.65038.65L13.55609,12.3005l-1.213,1.21338a.45976.45976,0,1,1-.6504-.65l1.21341-1.21341-1.1968-1.20922a.409.409,0,0,1-.15317-.29419.50346.50346,0,0,1,.47843-.49118.4625.4625,0,0,1,.32516.13525l1.19641,1.20929,1.19644-1.20929a.46254.46254,0,0,1,.32517-.13525.50345.50345,0,0,1,.47839.49118.40883.40883,0,0,1-.15317.29419l-1.19677,1.2092Z"/>
  <path class="fill" d="M13.84406,7.013Q13.67372,7.00008,13.5,7a4.50065,4.50065,0,0,0-3.74222,7H1.8591a1.96037,1.96037,0,0,1-1.86-2.05582L0,11.9272A2.301,2.301,0,0,1,2.0459,9.7964a2.4076,2.4076,0,0,1-.0667-.7886A3.12686,3.12686,0,0,1,5.1784,5.9707a3.87165,3.87165,0,0,1,1.0489.1455,4.05958,4.05958,0,0,1,3.804-3.08495A3.64813,3.64813,0,0,1,13.85,6.50034q.00758.15794.00146.31606C13.8515,6.88239,13.84887,6.94791,13.84406,7.013Z"/>
</svg>