<svg xmlns:xlink="http://www.w3.org/1999/xlink" xmlns="http://www.w3.org/2000/svg" height="18" viewBox="0 0 18 18" width="18">
  <defs>
    <style>
      .fill {
        fill: #464646;
      }
    </style>
  </defs>
  <title>S CloudError 18 N</title>
  <rect id="Canvas" fill="#ff13dc" opacity="0" width="18" height="18"/><path class="fill" d="M13.48438,7.90625a3.625,3.625,0,1,0,3.625,3.625A3.625,3.625,0,0,0,13.48438,7.90625Zm-.53784,1.23133c0-.02671.07507-.0685.12957-.08933a1.13491,1.13491,0,0,1,.4126-.04395,1.43867,1.43867,0,0,1,.43484.04395c.05624.02084.13806.06884.13806.08933v.6932A21.51462,21.51462,0,0,1,13.87854,12.22c0,.0205-.01394.12375-.08166.12375h-.58665c-.04492,0-.07312-.097-.08392-.12375-.02228-.19043-.17978-1.63516-.17978-2.38922Zm.58471,5.04992a.6191.6191,0,1,1,.61942-.6193A.61909.61909,0,0,1,13.53125,14.1875Z"/>
  <path class="fill" d="M13.84406,7.013Q13.67372,7.00008,13.5,7a4.50065,4.50065,0,0,0-3.74222,7H1.8591a1.96037,1.96037,0,0,1-1.86-2.05582L0,11.9272A2.301,2.301,0,0,1,2.0459,9.7964a2.4076,2.4076,0,0,1-.0667-.7886A3.12686,3.12686,0,0,1,5.1784,5.9707a3.87165,3.87165,0,0,1,1.0489.1455,4.05958,4.05958,0,0,1,3.804-3.08495A3.64813,3.64813,0,0,1,13.85,6.50034q.00758.15794.00146.31606C13.8515,6.88239,13.84887,6.94791,13.84406,7.013Z"/>
</svg>