<svg xmlns:xlink="http://www.w3.org/1999/xlink" xmlns="http://www.w3.org/2000/svg" height="18" viewBox="0 0 18 18" width="18">
  <defs>
    <style>
      .fill {
        fill: #464646;
      }
    </style>
  </defs>
  <title>S CollectionLink 18 N</title>
  <rect id="Canvas" fill="#ff13dc" opacity="0" width="18" height="18"/><path class="fill" d="M7.568,14H7V9h4v.604l.9685-.9685L12.6035,8H12V3h4V6.5315a3.77611,3.77611,0,0,1,1,.214V2.5a.5.5,0,0,0-.5-.5H1.5a.5.5,0,0,0-.5.5v12a.5.5,0,0,0,.5.5H7.5325A3.83182,3.83182,0,0,1,7.568,14ZM7,3h4V8H7ZM6,14H2V9H6ZM6,8H2V3H6Z"/>
  <path class="fill" d="M12.774,12.7105a1.08247,1.08247,0,0,0,.2105.3055,1.095,1.095,0,0,0,1.547,0l1.8045-1.8045a1.094,1.094,0,0,0-1.547-1.547l-.4095.4095A2.92492,2.92492,0,0,0,13.055,9.85l.9605-.9605A2.1875,2.1875,0,0,1,17.109,11.983l-1.8045,1.8045a2.17548,2.17548,0,0,1-3.328-.281ZM11.698,11.21,9.891,13.015a2.1875,2.1875,0,0,0,3.0935,3.0935l.9605-.9585a2.92549,2.92549,0,0,1-1.3245-.2225l-.4095.4095a1.094,1.094,0,0,1-1.547-1.547l1.8045-1.8045a1.095,1.095,0,0,1,1.547,0,1.07834,1.07834,0,0,1,.2105.3055l.8-.8a2.17552,2.17552,0,0,0-3.328-.281Z"/>
</svg>