<svg xmlns:xlink="http://www.w3.org/1999/xlink" xmlns="http://www.w3.org/2000/svg" height="18" viewBox="0 0 18 18" width="18">
  <defs>
    <style>
      .fill {
        fill: #464646;
      }
    </style>
  </defs>
  <title>S CollectionCheck 18 N</title>
  <rect id="Canvas" fill="#ff13dc" opacity="0" width="18" height="18"/><path class="fill" d="M7.542,14H7V9H8.4465A6.184,6.184,0,0,1,9.318,8H7V3h4V6.8845a6.09968,6.09968,0,0,1,1-.3425V3h4V6.8845a6.13724,6.13724,0,0,1,1,.562V2.5a.5.5,0,0,0-.5-.5H1.5a.5.5,0,0,0-.5.5v12a.5.5,0,0,0,.5.5H7.8845A6.09968,6.09968,0,0,1,7.542,14ZM6,14H2V9H6ZM6,8H2V3H6Z"/>
  <path class="fill" d="M13.5,8.05a4.45,4.45,0,1,0,4.45,4.45A4.45,4.45,0,0,0,13.5,8.05Zm-1.169,7.156-2.064-2.0635a.25.25,0,0,1,0-.3535l.518-.518a.25.25,0,0,1,.3535,0l1.3655,1.3655,3.053-3.053a.25.25,0,0,1,.3535,0l.5215.5215a.25.25,0,0,1,0,.3535l-3.75,3.75A.25.25,0,0,1,12.331,15.206Z"/>
</svg>