<svg xmlns:xlink="http://www.w3.org/1999/xlink" xmlns="http://www.w3.org/2000/svg" height="18" viewBox="0 0 18 18" width="18">
  <defs>
    <style>
      .fill {
        fill: #464646;
      }
    </style>
  </defs>
  <title>S CollectionEdit 18 N</title>
  <rect id="Canvas" fill="#ff13dc" opacity="0" width="18" height="18"/><path class="fill" d="M9.45,14.023,9.461,14H7V9h4v3.291l1-1V9h2.291l.559-.5615a1.428,1.428,0,0,1,.989-.4165h.0115a1.362,1.362,0,0,1,.9705.4L17,8.6V2.5a.5.5,0,0,0-.5-.5H1.5a.5.5,0,0,0-.5.5v12a.5.5,0,0,0,.5.5H9.0575ZM12,3h4V8H12ZM7,3h4V8H7ZM6,14H2V9H6ZM6,8H2V3H6Z"/>
  <path class="fill" d="M17.869,10.882,16.116,9.129a.369.369,0,0,0-.2635-.1075H15.841a.41651.41651,0,0,0-.282.1235L10.4645,14.24a.30352.30352,0,0,0-.0765.128l-1.33,3.315c-.0345.1145.1395.2585.238.2585a.15858.15858,0,0,0,.0185,0c.084-.0195,2.878-1.2,3.317-1.3305a.3.3,0,0,0,.126-.0755l5.095-5.095a.41794.41794,0,0,0,.123-.2685A.3715.3715,0,0,0,17.869,10.882Zm-5.485,5.165c-.657.2-1.964.931-2.5315,1.1L10.95,14.616Z"/>
</svg>