<svg xmlns:xlink="http://www.w3.org/1999/xlink" xmlns="http://www.w3.org/2000/svg" height="18" viewBox="0 0 18 18" width="18">
  <defs>
    <style>
      .fill {
        fill: #464646;
        fill-rule: evenodd;
      }

    </style>
  </defs>
  <title>S ColorWheel 18 N</title>
  <rect id="Canvas" fill="#ff13dc" opacity="0" width="18" height="18"/>
  <path class="fill" opacity="0.2" d="M16,9a6.97651,6.97651,0,0,0-2.057-4.95L9,9Z"/>
  <path class="fill" opacity="0.33" d="M9,9l4.9595,4.9345A6.978,6.978,0,0,0,16,9Z"/>
  <path class="fill" opacity="0.47" d="M9,9v7a6.97752,6.97752,0,0,0,4.937-2.0435Z"/>
  <path class="fill" opacity="0.6" d="M9,16V9L4.05,13.9445A6.98,6.98,0,0,0,9,16Z"/>
  <path class="fill" opacity="0.7" d="M9,9H2a6.97949,6.97949,0,0,0,2.05,4.9445Z"/>
  <path class="fill" opacity="0.8" d="M9,9,4.045,4.061A6.9765,6.9765,0,0,0,2,9Z"/>
  <path class="fill" d="M9,1a8,8,0,1,0,8,8A8,8,0,0,0,9,1ZM9,16A6.9955,6.9955,0,0,1,4.035,4.072L8.9695,9V2H9A7,7,0,0,1,9,16Z"/>
</svg>