<svg xmlns:xlink="http://www.w3.org/1999/xlink" xmlns="http://www.w3.org/2000/svg" height="18" viewBox="0 0 18 18" width="18">
  <defs>
    <style>
      .fill {
        fill: #464646;
      }
    </style>
  </defs>
  <title>S ColorFill 18 N</title>
  <rect id="Canvas" fill="#ff13dc" opacity="0" width="18" height="18"/><path class="fill" d="M16.8635,11.836a32.17369,32.17369,0,0,0-.653-3.316c-.312-1.218-1.4595-1.49-2.67-1.654L9.487,2.8125a.5.5,0,0,0-.70711-.00039L8.7795,2.8125l-1.212,1.215,2.436,2.436A.75.75,0,0,1,8.96142,7.54242L8.943,7.524,6.507,5.088.928,10.667a.5.5,0,0,0-.00039.70711L.928,11.3745,6.3045,16.744a.5.5,0,0,0,.707,0L14.797,8.947a.5.5,0,0,0,.0075-.7.19.19,0,0,1,.283.0745,3.32249,3.32249,0,0,1-.264,2.787,4.74244,4.74244,0,0,0-.694,1.628,1.258,1.258,0,0,0,1.3895,1.4C16.34,14.137,17.0165,13.3665,16.8635,11.836Z"/>
  <path class="fill" d="M7.5655,4.025,4.7,1.1585A.75042.75042,0,0,0,3.638,2.219L6.5045,5.0855Z"/>
</svg>