<svg xmlns="http://www.w3.org/2000/svg" id="shapes" width="18" height="18" viewBox="0 0 18 18" focusable="false" aria-hidden="true" role="img" class="spectrum-Icon spectrum-Icon--sizeS an-BlankPanelItemList-vizIcon" data-test-icon="Combo"><path class="fill" d="M11.77991,6.6333c.03784,0,.07599,.00854,.11145,.02612l3.10742,1.54956,1.80169-1.35386c.04669-.03882,.10327-.05762,.15955-.05762,.07181,0,.14307,.03076,.1925,.09033l.31934,.38477c.08817,.1062,.07352,.26392-.03275,.35205l-2.17825,1.66587c-.04578,.03809-.10242,.05762-.15958,.05762-.03799,0-.0762-.00879-.1116-.02637l-3.05536-1.52295-3.03595,3.10889c-.04791,.04907-.11276,.07544-.17892,.07544-.02884,0-.05789-.00513-.08591-.01538l-2.53027-.92676-3.4455,2.38916c-.04184,.02881-.09155,.04443-.14246,.04443H.62583c-.13806,0-.25-.11182-.25-.25v-.5c0-.13818,.11194-.25,.25-.25h1.57699c.0509,0,.10062-.01562,.14246-.04468l3.50787-2.43213c.04239-.02954,.09216-.04468,.1424-.04468,.02896,0,.05804,.00513,.08597,.01538l2.44022,.89282,3.07922-3.15283c.04819-.04932,.1131-.0752,.17896-.0752"></path><path class="fill" d="M14.86704,7.02451l.49963-.41479,.63879-.53052V1.50131c0-.27612-.22388-.5-.5-.5h-2c-.27612,0-.5,.22388-.5,.5V6.09604l1.86157,.92847Z"></path><path class="fill" d="M10.89139,6.01083c.2337-.23926,.55957-.37622,.89398-.37622,.07385,0,.14716,.01245,.22009,.02563V3.56552c0-.27612-.22388-.5-.5-.5h-2c-.27612,0-.5,.22388-.5,.5V7.94174l1.88593-1.93091Z"></path><path class="fill" d="M5.28714,8.17856c.21051-.14673,.45734-.22412,.71387-.22412,.14709,0,.29187,.02563,.42963,.07617l1.57483,.57617v-3.10547c0-.27612-.22388-.5-.5-.5h-2c-.27612,0-.5,.22388-.5,.5v2.87256l.28168-.19531Z"></path><path class="fill" d="M4.00547,9.06723v-.58594c0-.27637-.22388-.5-.5-.5H1.50547c-.27612,0-.5,.22363-.5,.5v1.99463h.96808l2.03192-1.40869Z"></path><path class="fill" d="M3.23069,13.25498c-.20984,.14453-.45532,.22095-.7099,.22095H1.00547v1.52539h3v-2.28369l-.77478,.53735Z"></path><polygon class="fill" points="6.25211 11.15976 5.00547 12.02426 5.00547 15.00131 8.00547 15.00131 8.00547 11.80185 6.25211 11.15976"></polygon><path class="fill" d="M9.6193,11.60776c-.1662,.17017-.38458,.26538-.61383,.31958v3.07397h3v-5.83716l-2.38617,2.4436Z"></path><path class="fill" d="M15.90604,10.0604c-.22394,.18652-.50775,.28906-.79926,.28906-.19177,0-.38416-.04517-.55774-.13135l-1.54358-.76929v5.55249h3v-5.02344l-.09943,.08252Z"></path><rect class="fill" y="16" width="17" height="1" rx=".25" ry=".25"></rect></svg>