<svg xmlns:xlink="http://www.w3.org/1999/xlink" xmlns="http://www.w3.org/2000/svg" height="18" viewBox="0 0 18 18" width="18">
  <defs>
    <style>
      .fill {
        fill: #464646;
      }
    </style>
  </defs>
  <title>S Compare 18 N</title>
  <rect id="Canvas" fill="#ff13dc" opacity="0" width="18" height="18"/><path class="fill" d="M17.5955,16.0715,15.323,13.8A4.533,4.533,0,1,0,13.8,15.323l2.2725,2.2725a1.022,1.022,0,0,0,1.524,0A1.0975,1.0975,0,0,0,17.5955,16.0715ZM8.706,11.49a2.784,2.784,0,1,1,2.7845,2.7835H11.49A2.784,2.784,0,0,1,8.706,11.49Z"/>
  <path class="fill" d="M5.8,11.5A5.7,5.7,0,0,1,10,6.006V5.5A.5.5,0,0,0,9.5,5H.5a.5.5,0,0,0-.5.5v11a.5.5,0,0,0,.5.5h9a.47406.47406,0,0,0,.25-.0775A5.7,5.7,0,0,1,5.8,11.5Z"/>
  <path class="fill" d="M11,4.5V5.825c.165-.0145.331-.025.5-.025a5.667,5.667,0,0,1,2.5.5835V1.5a.5.5,0,0,0-.5-.5h-9a.5.5,0,0,0-.5.5V4h6.5A.5.5,0,0,1,11,4.5Z"/>
</svg>