<svg xmlns:xlink="http://www.w3.org/1999/xlink" xmlns="http://www.w3.org/2000/svg" height="18" viewBox="0 0 18 18" width="18">
  <defs>
    <style>
      .fill {
        fill: #464646;
      }
    </style>
  </defs>
  <title>S Condition 18 N</title>
  <rect id="Canvas" fill="#ff13dc" opacity="0" width="18" height="18"/><path class="fill" d="M10.72388,1.714l-.824-.5666a.5.5,0,0,0-.69525.12872h0L4.84253,7.61994,2.514,5.29144a.5.5,0,0,0-.70706-.0001l-.0001.0001-.70708.7071a.5.5,0,0,0,0,.70709l3.60358,3.60349a.5.5,0,0,0,.76557-.07025L10.8526,2.4093A.5.5,0,0,0,10.72388,1.714Z"/>
  <path class="fill" d="M13.91424,12.5l2.43933-2.43933a.50007.50007,0,0,0,0-.70716l-.70714-.70709a.5.5,0,0,0-.7071,0L12.5,11.08576,10.06067,8.64643a.5.5,0,0,0-.7071,0l-.70714.70707a.50007.50007,0,0,0,0,.70716L11.08576,12.5,8.64643,14.93933a.5.5,0,0,0,0,.7071l.70714.70709a.49991.49991,0,0,0,.707.00014l.00014-.00014L12.5,13.91418l2.43933,2.43932a.49989.49989,0,0,0,.707.00014l.00015-.00014.70714-.70709a.5.5,0,0,0,0-.7071Z"/>
</svg>