<svg xmlns:xlink="http://www.w3.org/1999/xlink" xmlns="http://www.w3.org/2000/svg" height="18" viewBox="0 0 18 18" width="18">
  <defs>
    <style>
      .fill {
        fill: #464646;
      }
    </style>
  </defs>
  <title>S ConfidenceOne 18 N</title>
  <rect id="Canvas" fill="#ff13dc" opacity="0" width="18" height="18"/><rect class="fill" height="4" rx="0.5" width="3" x="1" y="13"/>
  <path class="fill" d="M8,16.5a.5.5,0,0,1-.5.5h-2a.5.5,0,0,1,0-1h2A.5.5,0,0,1,8,16.5Z"/>
  <path class="fill" d="M12,16.5a.5.5,0,0,1-.5.5h-2a.5.5,0,0,1,0-1h2A.5.5,0,0,1,12,16.5Z"/>
  <path class="fill" d="M16,16.5a.5.5,0,0,1-.5.5h-2a.5.5,0,0,1,0-1h2A.5.5,0,0,1,16,16.5Z"/>
</svg>