<svg xmlns="http://www.w3.org/2000/svg" width="18" height="18" viewBox="0 0 18 18" class="spectrum-Icon_368b34 spectrum-Icon--sizeXS_368b34 parcel-icon" focusable="false" aria-hidden="true" role="img"><defs><clipPath id="a"><rect width="16.279" height="16.948" transform="translate(0 0)" fill="none"></rect></clipPath></defs><rect width="18" height="18" opacity="0"></rect><g transform="translate(0.861 1.052)" clip-path="url(#a)"><path d="M7.477,9.677a1.61,1.61,0,0,1,.138-1.5l.021-.032a1.612,1.612,0,0,1,1.328-.7h.084l.43-1.182.59,1.182h2.689l3.2-4.567A.252.252,0,0,0,16,2.738V.249A.25.25,0,0,0,15.547.1h0L11.476,5.79,9.45,1.734a.25.25,0,0,0-.336-.11.242.242,0,0,0-.122.137l-2.725,7.5L4.226,7.215A.249.249,0,0,0,3.889,7.2L.09,10.363a.249.249,0,0,0-.09.192v2.094a.249.249,0,0,0,.25.249.254.254,0,0,0,.164-.061L3.938,9.759l2.854,2.854a.249.249,0,0,0,.353,0,.255.255,0,0,0,.059-.092l.679-1.868Z"></path><path d="M16.261,9a.111.111,0,0,0-.092-.05H8.946A.114.114,0,0,0,8.853,9a.113.113,0,0,0-.009.1L11,14.3v2.429a.222.222,0,0,0,.223.222h2.667a.222.222,0,0,0,.222-.222V14.285L16.271,9.1a.11.11,0,0,0-.01-.1"></path></g></svg>