<svg xmlns:xlink="http://www.w3.org/1999/xlink" xmlns="http://www.w3.org/2000/svg" height="18" viewBox="0 0 18 18" width="18">
  <defs>
    <style>
      .fill {
        fill: #464646;
      }
    </style>
  </defs>
  <title>S Copy 18 N</title>
  <rect id="Canvas" fill="#ff13dc" opacity="0" width="18" height="18"/><rect class="fill" height="1" rx="0.25" width="1" x="16" y="11"/>
  <rect class="fill" height="1" rx="0.25" width="1" x="16" y="9"/>
  <rect class="fill" height="1" rx="0.25" width="1" x="16" y="7"/>
  <rect class="fill" height="1" rx="0.25" width="1" x="16" y="5"/>
  <rect class="fill" height="1" rx="0.25" width="1" x="16" y="3"/>
  <rect class="fill" height="1" rx="0.25" width="1" x="16" y="1"/>
  <rect class="fill" height="1" rx="0.25" width="1" x="14" y="1"/>
  <rect class="fill" height="1" rx="0.25" width="1" x="12" y="1"/>
  <rect class="fill" height="1" rx="0.25" width="1" x="10" y="1"/>
  <rect class="fill" height="1" rx="0.25" width="1" x="8" y="1"/>
  <rect class="fill" height="1" rx="0.25" width="1" x="6" y="1"/>
  <rect class="fill" height="1" rx="0.25" width="1" x="6" y="3"/>
  <rect class="fill" height="1" rx="0.25" width="1" x="6" y="5"/>
  <rect class="fill" height="1" rx="0.25" width="1" x="6" y="7"/>
  <rect class="fill" height="1" rx="0.25" width="1" x="6" y="9"/>
  <rect class="fill" height="1" rx="0.25" width="1" x="6" y="11"/>
  <rect class="fill" height="1" rx="0.25" width="1" x="8" y="11"/>
  <rect class="fill" height="1" rx="0.25" width="1" x="10" y="11"/>
  <rect class="fill" height="1" rx="0.25" width="1" x="12" y="11"/>
  <rect class="fill" height="1" rx="0.25" width="1" x="14" y="11"/>
  <path class="fill" d="M5,6H1.5a.5.5,0,0,0-.5.5v10a.5.5,0,0,0,.5.5h10a.5.5,0,0,0,.5-.5V13H5.5a.5.5,0,0,1-.5-.5Z"/>
</svg>