<svg xmlns:xlink="http://www.w3.org/1999/xlink" xmlns="http://www.w3.org/2000/svg" height="18" viewBox="0 0 18 18" width="18">
  <defs>
    <style>
      .fill {
        fill: #464646;
      }
    </style>
  </defs>
  <title>S CoverImage 18 N</title>
  <rect id="Canvas" fill="#ff13dc" opacity="0" width="18" height="18"/><circle class="fill" cx="11.9" cy="6.3" r="1.25"/>
  <path class="fill" d="M17.4375,2H.5625A.534.534,0,0,0,0,2.5v11a.534.534,0,0,0,.5625.5h1.2a6.624,6.624,0,0,1,1.62-.544A5.78256,5.78256,0,0,1,2.317,10.2215c0-.023.005-.043.005-.0655C1.576,11.1,1,12,1,12V3H17v8a7.58206,7.58206,0,0,0-3.091-1c-1.2315,0-2.3235,1.3925-3.5095,1.85a5.84548,5.84548,0,0,1-.775,1.621,6.82355,6.82355,0,0,1,1.567.529h6.246A.534.534,0,0,0,18,13.5V2.5A.534.534,0,0,0,17.4375,2Z"/>
  <path class="fill" d="M12,17.019a1.56,1.56,0,0,0-.524-1.1765,5.05451,5.05451,0,0,0-2.869-1.117.572.572,0,0,1-.495-.574v-.829a.557.557,0,0,1,.138-.3605,4.37353,4.37353,0,0,0,1.0035-2.7405C9.2535,8.155,8.1575,7,6.5,7S3.7165,8.2,3.7165,10.2215a4.42648,4.42648,0,0,0,1.05,2.7425.553.553,0,0,1,.1365.3585V14.15a.569.569,0,0,1-.4965.574A4.84652,4.84652,0,0,0,1.502,15.84,1.5625,1.5625,0,0,0,1,17v1H12Z"/>
</svg>