<svg xmlns:xlink="http://www.w3.org/1999/xlink" xmlns="http://www.w3.org/2000/svg" height="18" viewBox="0 0 18 18" width="18">
  <defs>
    <style>
      .fill {
        fill: #464646;
      }
    </style>
  </defs>
  <title>S CreditCard 18 N</title>
  <rect id="Canvas" fill="#ff13dc" opacity="0" width="18" height="18"/><path class="fill" d="M1,16.256A.744.744,0,0,0,1.744,17H15.133a.744.744,0,0,0,.744-.744V15H1Z"/>
  <path class="fill" d="M15.0325,9.513c-1.1705.587-5.243,2.477-5.3945,2.5475a3.20951,3.20951,0,0,1-1.323.3,2.343,2.343,0,0,1-2.189-1.41A2.636,2.636,0,0,1,6.7075,8.072H1.744A.744.744,0,0,0,1,8.816v4.4645H15.877V8.9155A4.10991,4.10991,0,0,1,15.0325,9.513Z"/>
  <path class="fill" d="M5.75,6.586s.1325-.607.3955-1.5675c.179-.655,2.486-3.5265,3.3695-3.821A53.71513,53.71513,0,0,1,15.27.635l2.23,3.89S15.532,7.6,14.367,8.1825,8.99,10.721,8.99,10.721s-1.097.5305-1.508-.3805c-.3125-.6925.394-1.331.394-1.331s1.609-1.116,2.2305-1.6055c.45-.3565.9305-1.0665.293-1.704S9.112,5.694,8.774,5.987s-.669.6-.669.6Z"/>
</svg>