<svg xmlns:xlink="http://www.w3.org/1999/xlink" xmlns="http://www.w3.org/2000/svg" height="18" viewBox="0 0 18 18" width="18">
  <defs>
    <style>
      .fill {
        fill: #464646;
      }
    </style>
  </defs>
  <title>S Crop 18 N</title>
  <rect id="Canvas" fill="#ff13dc" opacity="0" width="18" height="18"/><path class="fill" d="M12,11h2V4.5a.5.5,0,0,0-.5-.5H7V6h5Z"/>
  <path class="fill" d="M6,12V1.5A.5.5,0,0,0,5.5,1h-1a.5.5,0,0,0-.5.5V4H1.5a.5.5,0,0,0-.5.5v1a.5.5,0,0,0,.5.5H4v7.5a.5.5,0,0,0,.5.5H12v2.5a.5.5,0,0,0,.5.5h1a.5.5,0,0,0,.5-.5V14h2.5a.5.5,0,0,0,.5-.5v-1a.5.5,0,0,0-.5-.5Z"/>
</svg>