<svg xmlns:xlink="http://www.w3.org/1999/xlink" xmlns="http://www.w3.org/2000/svg" height="18" viewBox="0 0 18 18" width="18">
  <defs>
    <style>
      .fill {
        fill: #464646;
      }
    </style>
  </defs>
  <title>S CropLightning 18 N</title>
  <rect id="Canvas" fill="#ff13dc" opacity="0" width="18" height="18"/><path class="fill" d="M8,13.5A5.481,5.481,0,0,1,8.208,12H6V1.5A.5.5,0,0,0,5.5,1h-1a.5.5,0,0,0-.5.5V4H1.5a.5.5,0,0,0-.5.5v1a.5.5,0,0,0,.5.5H4v7.5a.5.5,0,0,0,.5.5H8.023C8.008,13.8355,8,13.6685,8,13.5Z"/>
  <path class="fill" d="M12,8.208A5.481,5.481,0,0,1,13.5,8c.1685,0,.3355.008.5.023V4.5a.5.5,0,0,0-.5-.5H7V6h5Z"/>
  <path class="fill" d="M13.5,9A4.5,4.5,0,1,0,18,13.5,4.5,4.5,0,0,0,13.5,9Zm2.0405,4.874L12.577,17.263a.3065.3065,0,0,1-.5135-.321l1-2.3745-1.4135-.607a.5295.5295,0,0,1-.1895-.835l2.964-3.3885a.3065.3065,0,0,1,.513.321l-1,2.3745,1.4125.607a.529.529,0,0,1,.1905.8345Z"/>
</svg>