<svg xmlns:xlink="http://www.w3.org/1999/xlink" xmlns="http://www.w3.org/2000/svg" height="18" viewBox="0 0 18 18" width="18">
  <defs>
    <style>
      .fill {
        fill: #464646;
      }
    </style>
  </defs>
  <title>S CropRotate 18 N</title>
  <rect id="Canvas" fill="#ff13dc" opacity="0" width="18" height="18"/><path class="fill" d="M11.5,10.5H13V5.25A.25.25,0,0,0,12.75,5H8V6.5h3.5Z"/>
  <path class="fill" d="M14.25,11.5H6.5V3.25A.25.25,0,0,0,6.25,3h-1A.25.25,0,0,0,5,3.25V5H3.25A.25.25,0,0,0,3,5.25v1a.25.25,0,0,0,.25.25H5v6.25a.25.25,0,0,0,.25.25H11.5v1.75a.25.25,0,0,0,.25.25h1a.25.25,0,0,0,.25-.25V13h1.25a.25.25,0,0,0,.25-.25v-1A.25.25,0,0,0,14.25,11.5Z"/>
  <path class="fill" d="M14.132,1.5h-.115V.25a.25.25,0,0,0-.25-.25.24648.24648,0,0,0-.175.0735L11.5735,1.842a.25.25,0,0,0,0,.316l2.017,1.7685A.24648.24648,0,0,0,13.7655,4a.25.25,0,0,0,.25-.25V2.479h.115a1.893,1.893,0,0,1,1.89124,1.89476L16.021,4.425v.4135a.1625.1625,0,0,0,.162.163h.651a.163.163,0,0,0,.166-.16L17,4.837V4.4235a2.87,2.87,0,0,0-2.816-2.923Z"/>
  <path class="fill" d="M4.4095,14.0735A.24648.24648,0,0,0,4.2345,14a.25.25,0,0,0-.25.25v1.2705h-.115a1.893,1.893,0,0,1-1.89124-1.89476L1.979,13.5745V13.161A.16251.16251,0,0,0,1.815,13H1.1645A.163.163,0,0,0,1,13.16149v.415a2.87,2.87,0,0,0,2.816,2.923l.052.0005h.115v1.25a.25.25,0,0,0,.25.25.24648.24648,0,0,0,.175-.0735L6.425,16.158a.25.25,0,0,0,0-.316Z"/>
</svg>