<svg xmlns:xlink="http://www.w3.org/1999/xlink" xmlns="http://www.w3.org/2000/svg" height="18" viewBox="0 0 18 18" width="18">
  <defs>
    <style>
      .fill {
        fill: #464646;
      }
    </style>
  </defs>
  <title>S Curate 18 N</title>
  <rect id="Canvas" fill="#ff13dc" opacity="0" width="18" height="18"/><path class="fill" d="M17.5,2H.5a.5.5,0,0,0-.5.5v13a.5.5,0,0,0,.5.5h17a.5.5,0,0,0,.5-.5V2.5A.5.5,0,0,0,17.5,2ZM17,15H1V12H5.8315a1.7385,1.7385,0,0,0,3.337,0h.663a1.7385,1.7385,0,0,0,3.337,0H17Zm0-4H13.1685a1.7385,1.7385,0,0,0-3.337,0h-.663a1.7385,1.7385,0,0,0-3.337,0H1V7h.8315a1.7385,1.7385,0,0,0,3.337,0h.663a1.7385,1.7385,0,0,0,3.337,0h3.663a1.7385,1.7385,0,0,0,3.337,0H17Zm0-5h-.8315a1.7385,1.7385,0,0,0-3.337,0H9.1685a1.7385,1.7385,0,0,0-3.337,0h-.663a1.7385,1.7385,0,0,0-3.337,0H1V3H17Z"/>
</svg>