<?xml version="1.0" encoding="UTF-8"?>
<svg id="Layer_1" xmlns="http://www.w3.org/2000/svg" version="1.1" width="18px" height="18px" viewBox="0 0 18 18">
  <!-- Generator: Adobe Illustrator 29.2.0, SVG Export Plug-In . SVG Version: 2.1.0 Build 108)  -->
  <defs>
    <style>
      .st0 {
        fill: #fff;
      }

      .st1 {
        fill: #864ccc;
      }
    </style>
  </defs>
  <g id="_42px_Circle">
    <circle id="Ellipse_10213" class="st1" cx="9" cy="9" r="9"/>
  </g>
  <g id="_24px_Icons">
    <rect class="st0" x="5.1" y="9.6" width=".9" height="2.8" rx=".2" ry=".2"/>
    <rect class="st0" x="6.9" y="7.9" width=".9" height="4.5" rx=".2" ry=".2"/>
    <rect class="st0" x="8.6" y="8.4" width=".9" height="4.1" rx=".2" ry=".2"/>
    <rect class="st0" x="10.3" y="6.4" width=".9" height="6" rx=".2" ry=".2"/>
    <rect class="st0" x="12" y="6.9" width=".9" height="5.6" rx=".2" ry=".2"/>
    <path class="st0" d="M5.6,8.7h-.9c-.2,0-.3-.1-.3-.3s.1-.3.3-.3h.7l1.6-1.8c0-.1.3-.1.4,0l1.5.7,1.6-2.3c0-.1.3-.2.4,0,0,0,0,0,0,0h0s1.6,1.2,1.6,1.2l.7-.3c.2,0,.4,0,.4.1,0,.2,0,.3-.1.4l-.9.4c-.1,0-.2,0-.3,0l-1.4-1.1-1.5,2.3c0,.1-.3.2-.4.1l-1.5-.7-1.6,1.7c0,0-.1.1-.2.1Z"/>
  </g>
  <circle id="bfEllipse_10213-13" class="st1" cx="9" cy="9" r="9"/>
  <rect class="st0" x="5.1" y="9.6" width=".9" height="2.8" rx=".2" ry=".2"/>
  <rect class="st0" x="6.9" y="7.9" width=".9" height="4.5" rx=".2" ry=".2"/>
  <path class="st0" d="M5.6,8.7h-.9c-.2,0-.3-.1-.3-.3s.1-.3.3-.3h.7l1.6-1.8c0-.1.3-.1.4,0l1.5.7,1.6-2.3c0-.1.3-.2.4,0,0,0,0,0,0,0h0s1.6,1.2,1.6,1.2l.7-.3c.2,0,.4,0,.4.1,0,.2,0,.3-.1.4l-.9.4c-.1,0-.2,0-.3,0l-1.4-1.1-1.5,2.3c0,.1-.3.2-.4.1l-1.5-.7-1.6,1.7c0,0-.1.1-.2.1ZM11.9,11.4v-.5c0,0,0-.1,0-.2.3-.4.5-.9.5-1.4,0-1-.6-1.6-1.4-1.6s-1.4.6-1.4,1.6c0,.5.2,1,.5,1.4,0,0,0,.1,0,.2v.5c0,.1-.1.3-.2.3-1.7.1-1.9,1.3-1.9,1.7s0,.2,0,.3h6s0-.2,0-.3c0-.4-.3-1.6-1.9-1.7-.1,0-.3-.1-.2-.3ZM12.9,7.8v-.7c0-.1,0-.2-.2-.2h-.4c-.1,0-.2,0-.2.2h0c.3.2.6.4.9.7Z"/>
  <path class="st0" d="M11.1,6.9h0v-.3c0-.1,0-.2-.2-.2h-.4c-.1,0-.2,0-.2.2v.5c.3-.1.6-.2.8-.2ZM9.3,10.9c-.3-.5-.4-1-.4-1.5,0-.4,0-.7.2-1.1h-.3c-.1,0-.2,0-.2.2v2.7c.2-.1.5-.2.7-.3Z"/>
</svg>