<svg xmlns:xlink="http://www.w3.org/1999/xlink" xmlns="http://www.w3.org/2000/svg" height="18" viewBox="0 0 18 18" width="18">
  <defs>
    <style>
      .fill {
        fill: #464646;
      }
    </style>
  </defs>
  <title>S Dashboard 18 N</title>
  <rect id="Canvas" fill="#ff13dc" opacity="0" width="18" height="18"/><path class="fill" d="M3.662,14.0265a6.635,6.635,0,0,1-1.328-3.897,6.7415,6.7415,0,0,1,6.472-6.759,6.6655,6.6655,0,0,1,5.532,10.656.3625.3625,0,0,0,.05.5l.4655.3875a.3665.3665,0,0,0,.51642-.0442l.00758-.0093a8,8,0,1,0-12.7575,0,.3645.3645,0,0,0,.5117.06229l.0108-.00879.466-.388A.362.362,0,0,0,3.662,14.0265Z"/>
  <path class="fill" d="M10.4195,11.763a1.4545,1.4545,0,1,1-1.73833-1.0997l.00133-.0003c.374-.0835,2.767-3.1,3.073-2.9225C12.092,7.9355,10.328,11.353,10.4195,11.763Z"/>
  <circle class="fill" cx="3.909" cy="10.0345" r="0.8"/>
  <circle class="fill" cx="5.3635" cy="6.398" r="0.8"/>
  <circle class="fill" cx="12.6365" cy="6.398" r="0.7275"/>
  <circle class="fill" cx="9" cy="4.9435" r="0.7275"/>
  <circle class="fill" cx="14.091" cy="10.0345" r="0.7275"/>
</svg>