<svg xmlns:xlink="http://www.w3.org/1999/xlink" xmlns="http://www.w3.org/2000/svg" height="18" viewBox="0 0 18 18" width="18">
  <defs>
    <style>
      .fill {
        fill: #464646;
      }
    </style>
  </defs>
  <title>S DataSettings 18 N</title>
  <rect id="Canvas" fill="#ff13dc" opacity="0" width="18" height="18"/><ellipse class="fill" cx="9" cy="3.5" rx="8" ry="2.5"/>
  <path class="fill" d="M7.5,13.5a5.986,5.986,0,0,1,.1735-1.41C5.144,11.928,1.75,11.3265,1,10.135V14.5c0,1.3415,3.3845,2.433,7.629,2.494A5.96609,5.96609,0,0,1,7.5,13.5Z"/>
  <path class="fill" d="M13.5,7.5a5.962,5.962,0,0,1,3.4805,1.119A.75086.75086,0,0,0,17,8.5V5.135c-1.2235,1.55-5.532,2-8,2s-7.106-.584-8-2V8.5c0,1.281,3.0855,2.3355,7.06,2.4815A5.99452,5.99452,0,0,1,13.5,7.5Z"/>
  <path class="fill" d="M17.6,12.893H16.534a3.06239,3.06239,0,0,0-.45-1.0895l.7565-.7565a.3035.3035,0,0,0,0-.429l-.46-.46a.3035.3035,0,0,0-.429,0l-.7555.757a3.07344,3.07344,0,0,0-1.089-.45V9.4035A.3035.3035,0,0,0,13.8035,9.1h-.607a.3035.3035,0,0,0-.3035.3035V10.466a3.07344,3.07344,0,0,0-1.089.45l-.754-.7565a.3035.3035,0,0,0-.429,0l-.46.46a.3035.3035,0,0,0,0,.429l.754.7565a3.06239,3.06239,0,0,0-.45,1.0895H9.4035A.3035.3035,0,0,0,9.1,13.198v.607a.3035.3035,0,0,0,.3035.3035H10.466a3.06239,3.06239,0,0,0,.45,1.0895l-.7565.7565a.3035.3035,0,0,0,0,.429l.46.46a.3035.3035,0,0,0,.429,0l.7565-.7565a3.07344,3.07344,0,0,0,1.089.45V17.6a.3035.3035,0,0,0,.3035.3035h.607A.3035.3035,0,0,0,14.108,17.6V16.534a3.07351,3.07351,0,0,0,1.089-.45l.7565.7565a.3035.3035,0,0,0,.429,0l.46-.46a.3035.3035,0,0,0,0-.429l-.7575-.7555a3.06239,3.06239,0,0,0,.45-1.0895H17.6a.3035.3035,0,0,0,.3035-.3035v-.6065A.3035.3035,0,0,0,17.6,12.893Zm-4.1,2.189A1.582,1.582,0,1,1,15.082,13.5h0A1.58251,1.58251,0,0,1,13.5,15.082Z"/>
</svg>