<?xml version="1.0" encoding="UTF-8"?>
<svg id="Component_3_1" xmlns="http://www.w3.org/2000/svg" xmlns:xlink="http://www.w3.org/1999/xlink" version="1.1" viewBox="0 0 18 18" width="18" height="18">
  <!-- Generator: Adobe Illustrator 29.4.0, SVG Export Plug-In . SVG Version: 2.1.0 Build 152)  -->
  <defs>
    <style>
      .st0, .st1, .st2 {
        fill: none;
      }

      .st1 {
        display: none;
      }

      .st1, .st2 {
        stroke: #000;
        stroke-miterlimit: 10;
      }

      .st3 {
        clip-path: url(#clippath);
      }
    </style>
    <clipPath id="clippath">
      <rect class="st0" width="18" height="18"/>
    </clipPath>
  </defs>
  <g class="st3">
    <g id="a">
      <g>
        <g>
          <rect class="st1" x="1" y="1" width="6" height="6"/>
          <rect class="st1" x="1.5" y="1.5" width="5" height="5"/>
        </g>
        <g>
          <rect x="1" y="1" width="6" height="6"/>
          <rect class="st2" x="1.5" y="1.5" width="5" height="5"/>
        </g>
        <path d="M7.5,13.1c.4.4,1,.4,1.4,0,.2-.2.3-.4.3-.7v-1.8s3.9,3.9,3.9,3.9c.4.4,1,.4,1.4,0s.4-1,0-1.4l-3.9-3.9h1.8c.6,0,1-.4,1-1,0-.6-.4-1-1-1h0s-4.2,0-4.2,0c-.6,0-1,.4-1,1v4.2c0,.3.1.5.3.7Z"/>
        <path class="st2" d="M16.5,1.5v15"/>
        <path class="st2" d="M1.5,1.5v15.5"/>
        <path class="st2" d="M2,1.5h15"/>
        <path class="st2" d="M2,16.5h15"/>
        <line class="st2" x1="11.5" y1="1.5" x2="11.5" y2="5.5"/>
        <line class="st2" x1="1.5" y1="11.5" x2="5.5" y2="11.5"/>
      </g>
    </g>
  </g>
</svg>