<svg xmlns:xlink="http://www.w3.org/1999/xlink" xmlns="http://www.w3.org/2000/svg" height="18" viewBox="0 0 18 18" width="18">
  <defs>
    <style>
      .fill {
        fill: #464646;
      }
    </style>
  </defs>
  <title>S DataEdit 18 N</title>
  <rect id="Canvas" fill="#ff13dc" opacity="0" width="18" height="18"/><ellipse class="fill" cx="9" cy="3.5" rx="8" ry="2.5"/>
  <path class="fill" d="M8.888,13.811a1.91089,1.91089,0,0,1,.4455-.7l1.0125-1.013c-.4825.0275-.9405.0415-1.346.0415-2.468,0-7.106-.584-8-2V14.5c0,1.2335,2.863,2.2565,6.6245,2.4605Z"/>
  <path class="fill" d="M11.577,10.865l2.85-2.85a2.009,2.009,0,0,1,1.3445-.5915h.082A1.955,1.955,0,0,1,17,7.7945V5.135c-1.2235,1.5475-5.532,2-8,2s-7.106-.584-8-2V8.5C1,9.8805,4.582,11,9,11A24.40567,24.40567,0,0,0,11.577,10.865Z"/>
  <path class="fill" d="M17.869,10.882,16.116,9.129a.369.369,0,0,0-.2635-.1075H15.841a.41651.41651,0,0,0-.282.1235L10.4645,14.24a.30352.30352,0,0,0-.0765.128l-1.33,3.315c-.0345.1145.1395.2585.238.2585a.15858.15858,0,0,0,.0185,0c.084-.0195,2.878-1.2,3.317-1.3305a.3.3,0,0,0,.126-.0755l5.095-5.095a.41794.41794,0,0,0,.123-.2685A.3715.3715,0,0,0,17.869,10.882Zm-5.485,5.165c-.657.2-1.964.931-2.5315,1.1L10.95,14.616Z"/>
</svg>