<svg xmlns:xlink="http://www.w3.org/1999/xlink" xmlns="http://www.w3.org/2000/svg" height="18" viewBox="0 0 18 18" width="18">
  <defs>
    <style>
      .fill {
        fill: #464646;
      }
    </style>
  </defs>
  <title>S DataAdd 18 N</title>
  <rect id="Canvas" fill="#ff13dc" opacity="0" width="18" height="18"/><ellipse class="fill" cx="9" cy="3.5" rx="8" ry="2.5"/>
  <path class="fill" d="M13.5,9.05a4.45,4.45,0,1,0,4.45,4.45A4.45,4.45,0,0,0,13.5,9.05Zm2.45,5.2h-1.7v1.7a.25.25,0,0,1-.25.25H13a.25.25,0,0,1-.25-.25v-1.7h-1.7A.25.25,0,0,1,10.8,14V13a.25.25,0,0,1,.25-.25h1.7v-1.7A.25.25,0,0,1,13,10.8h1a.25.25,0,0,1,.25.25v1.7h1.7a.25.25,0,0,1,.25.25v1A.25.25,0,0,1,15.95,14.25Z"/>
  <path class="fill" d="M7.5,13.5a5.986,5.986,0,0,1,.1735-1.41C5.144,11.928,1.75,11.3265,1,10.135V14.5c0,1.3415,3.3845,2.433,7.629,2.494A5.96609,5.96609,0,0,1,7.5,13.5Z"/>
  <path class="fill" d="M13.5,7.5a5.962,5.962,0,0,1,3.4805,1.119A.75086.75086,0,0,0,17,8.5V5.135c-1.2235,1.55-5.532,2-8,2s-7.106-.584-8-2V8.5c0,1.281,3.0855,2.3355,7.06,2.4815A5.99452,5.99452,0,0,1,13.5,7.5Z"/>
</svg>