<svg xmlns:xlink="http://www.w3.org/1999/xlink" xmlns="http://www.w3.org/2000/svg" height="18" viewBox="0 0 18 18" width="18">
  <defs>
    <style>
      .fill {
        fill: #464646;
      }
    </style>
  </defs>
  <title>S DataMapping 18 N</title>
  <rect id="Canvas" fill="#ff13dc" opacity="0" width="18" height="18"/><path class="fill" d="M16,9.25a1.74822,1.74822,0,0,0-1.47473.80841L11.98133,9.3316A3.03625,3.03625,0,0,0,12,9a2.99675,2.99675,0,0,0-1.37512-2.5213l1.17443-2.7405A1.77108,1.77108,0,0,0,12,3.75a1.75033,1.75033,0,1,0-1.12036-.40582l-1.17432,2.74a2.99669,2.99669,0,0,0-2.443.47113L3.53961,2.83258a1.74913,1.74913,0,1,0-.707.707L6.5553,7.26233a2.99771,2.99771,0,0,0-.13636,3.26654L3.45685,13.035a1.7488,1.7488,0,1,0,.6465.76354l2.962-2.50646a2.99928,2.99928,0,0,0,2.9339.53674l1.49921,2.69855a1.74969,1.74969,0,1,0,.8745-.48621l-1.49945-2.699a3.00971,3.00971,0,0,0,.83374-1.0485l2.54322.72668A1.74982,1.74982,0,1,0,16,9.25ZM12,1a1,1,0,1,1-1,1A1,1,0,0,1,12,1ZM2,3A1,1,0,1,1,3,2,1,1,0,0,1,2,3Zm.5,12.5a1,1,0,1,1,1-1A1,1,0,0,1,2.5,15.5Zm10.25-.75a1,1,0,1,1-1,1A1,1,0,0,1,12.75,14.75ZM16,12a1,1,0,1,1,1-1A1,1,0,0,1,16,12Z"/>
</svg>