<svg id="Create_from_cell" data-name="Create from cell" data-testid="create from cell icon" xmlns="http://www.w3.org/2000/svg" width="18" height="18" viewBox="0 0 18 18"><rect id="Rectangle_69" data-name="Rectangle 69" width="18" height="18" fill="none"></rect><path id="Subtraction_4" data-name="Subtraction 4" d="M1546.26-10176H1538v-16h16v8.259a5.54,5.54,0,0,0-1-.657v-1.6h-4v1.207a5.505,5.505,0,0,0-1,.395v-1.6h-4v4h1.6a5.49,5.49,0,0,0-.394,1H1544v4h1.6a5.45,5.45,0,0,0,.657,1Zm-7.26-5v4h4v-4Zm0-5v4h4v-4Zm10-5v4h4v-4Zm-5,0v4h4v-4Z" transform="translate(-1537 10192.428)" fill="var(--spectrum-global-color-gray-700)"></path><g id="Icon" transform="translate(0 -0.572)"><path id="Path_33" data-name="Path 33" d="M13.5,9.05a4.45,4.45,0,1,0,4.45,4.45A4.45,4.45,0,0,0,13.5,9.05Zm2.5,4.7a.25.25,0,0,1-.25.25H14v1.75a.25.25,0,0,1-.25.25h-.5a.25.25,0,0,1-.25-.25V14H11.25a.25.25,0,0,1-.25-.25v-.5a.25.25,0,0,1,.25-.25H13V11.25a.25.25,0,0,1,.25-.25h.5a.25.25,0,0,1,.25.25V13h1.75a.25.25,0,0,1,.25.25Z" fill="var(--spectrum-global-color-gray-700)"></path></g></svg>