<svg xmlns:xlink="http://www.w3.org/1999/xlink" xmlns="http://www.w3.org/2000/svg" height="18" viewBox="0 0 18 18" width="18">
  <defs>
    <style>
      .fill {
        fill: #464646;
      }
    </style>
  </defs>
  <title>S DataCheck 18 N</title>
  <rect id="Canvas" fill="#ff13dc" opacity="0" width="18" height="18"/><ellipse class="fill" cx="9" cy="3.5" rx="8" ry="2.5"/>
  <path class="fill" d="M7.35,13.5a6.15024,6.15024,0,0,1,.171-1.42C5.01,11.904,1.7365,11.3025,1,10.135V14.5c0,1.3215,3.284,2.4,7.4395,2.491A6.11748,6.11748,0,0,1,7.35,13.5Z"/>
  <path class="fill" d="M13.5,7.35A6.118,6.118,0,0,1,17,8.4465V5.135c-1.2235,1.5475-5.532,2-8,2s-7.106-.5845-8-2V8.5c0,1.2635,3,2.305,6.897,2.4735A6.14649,6.14649,0,0,1,13.5,7.35Z"/>
  <path class="fill" d="M13.5,9.05a4.45,4.45,0,1,0,4.45,4.45A4.45,4.45,0,0,0,13.5,9.05Zm-1.169,7.156-2.064-2.0635a.25.25,0,0,1,0-.3535l.518-.518a.25.25,0,0,1,.3535,0l1.3655,1.3655,3.053-3.053a.25.25,0,0,1,.3535,0l.5215.5215a.25.25,0,0,1,0,.3535l-3.75,3.75A.25.25,0,0,1,12.331,16.206Z"/>
</svg>