<svg xmlns:xlink="http://www.w3.org/1999/xlink" xmlns="http://www.w3.org/2000/svg" height="18" viewBox="0 0 18 18" width="18">
  <defs>
    <style>
      .fill {
        fill: #464646;
      }
    </style>
  </defs>
  <title>S DataUser 18 N</title>
  <rect id="Canvas" fill="#ff13dc" opacity="0" width="18" height="18"/><ellipse class="fill" cx="9" cy="3.5" rx="8" ry="2.5"/>
  <path class="fill" d="M17,14.0795V10.135a2.41208,2.41208,0,0,1-.4335.407,4.5,4.5,0,0,1-.7785,3.094Z"/>
  <path class="fill" d="M10.157,13.6055a5.17459,5.17459,0,0,1-.6475-1.4745c-.177.004-.35.0065-.51.0065-2.468,0-7.106-.5845-8-2V14.5c0,1.141,2.45,2.1,5.794,2.4A4.2,4.2,0,0,1,10.157,13.6055Z"/>
  <path class="fill" d="M9.3425,10.9945v-.031c0-2.362,1.5-4.0115,3.6425-4.0115a3.411,3.411,0,0,1,3.392,2.5185A1.2755,1.2755,0,0,0,17,8.5V5.135c-1.2235,1.5475-5.532,2-8,2s-7.106-.5845-8-2V8.5C1,9.8805,4.5815,11,9,11,9.1155,11,9.228,10.996,9.3425,10.9945Z"/>
  <path class="fill" d="M14.3385,14.271v-.7a.483.483,0,0,1,.123-.3115,3.683,3.683,0,0,0,.8375-2.3c0-1.7395-.9225-2.712-2.3165-2.712s-2.343,1.0105-2.343,2.712a3.72352,3.72352,0,0,0,.878,2.3.48246.48246,0,0,1,.123.3115v.6945a.479.479,0,0,1-.418.4835c-2.8.2435-3.2195,2.1595-3.2195,2.915C8.0025,17.75,8,18,8,18H18v-.3335c0-.724-.4945-2.633-3.245-2.9125A.4815.4815,0,0,1,14.3385,14.271Z"/>
</svg>