<svg xmlns:xlink="http://www.w3.org/1999/xlink" xmlns="http://www.w3.org/2000/svg" height="18" viewBox="0 0 18 18" width="18">
  <defs>
    <style>
      .fill {
        fill: #464646;
      }
    </style>
  </defs>
  <title>S DeleteOutline 18 N</title>
  <rect id="Canvas" fill="#ff13dc" opacity="0" width="18" height="18"/><path class="fill" d="M13.7455,4l-1.154,12H4.4085L3.2545,4ZM11,1H6A1,1,0,0,0,5,2V3H1.25A.25.25,0,0,0,1,3.25v.5A.25.25,0,0,0,1.25,4h1L3.4565,16.55a.5.5,0,0,0,.5.45H13.046a.5.5,0,0,0,.5-.45L14.75,4h1A.25.25,0,0,0,16,3.75v-.5A.25.25,0,0,0,15.75,3H12V2A1,1,0,0,0,11,1ZM6,3V2h5V3Z"/>
  <path class="fill" d="M8.5,14.5A.5.5,0,0,1,8,14V6A.5.5,0,0,1,9,6v8A.5.5,0,0,1,8.5,14.5Z"/>
  <path class="fill" d="M10.467,14.5a.5.5,0,0,1-.46718-.5308L10,13.9665l.5355-7.9975a.50112.50112,0,1,1,1,.067L11,14.034a.5.5,0,0,1-.53176.46608Z"/>
  <path class="fill" d="M6.533,14.5a.5.5,0,0,0,.46718-.5308L7,13.9665,6.4625,5.969a.50112.50112,0,1,0-1,.067l.5355,8a.5.5,0,0,0,.53348.46411Z"/>
</svg>