<svg xmlns:xlink="http://www.w3.org/1999/xlink" xmlns="http://www.w3.org/2000/svg" height="18" viewBox="0 0 18 18" width="18">
  <defs>
    <style>
      .fill {
        fill: #464646;
      }
    </style>
  </defs>
  <title>S Delegate 18 N</title>
  <rect id="Canvas" fill="#ff13dc" opacity="0" width="18" height="18"/><path class="fill" d="M13.679,9.9445a.65851.65851,0,0,1-.5615-.637V8.4a.661.661,0,0,1,.15-.406A5.671,5.671,0,0,0,14.271,4.8c0-2.268-1.108-3.338-2.7815-3.338a3.13051,3.13051,0,0,0-.8585.1265,5.58953,5.58953,0,0,1,1.069,3.58A7.77342,7.77342,0,0,1,10.4185,9.414V9.55c3.513.639,5.0785,2.989,5.2805,4.6945.0105.0865.017.671.0205.7535h2.25V13.6C17.9695,12.661,17.3,10.35,13.679,9.9445Z"/>
  <path class="fill" d="M9.6335,10.8905a.738.738,0,0,1-.655-.711v-1.01a.73552.73552,0,0,1,.164-.45,6.303,6.303,0,0,0,1.1175-3.55c0-2.52-1.231-3.7085-3.0905-3.7085s-3.126,1.243-3.126,3.7075a6.35,6.35,0,0,0,1.172,3.55.72849.72849,0,0,1,.163.45V10.175c0,.093-.323.415-.359.5L8.539,14.16a.5.5,0,0,1,.0034.7071l-.0004.0004L7.4195,16h6.8v-.9C14.2195,14.0595,13.6265,11.3565,9.6335,10.8905Z"/>
  <path class="fill" d="M3.437,11.0845A.25.25,0,0,0,3,11.25V13H.5a.5.5,0,0,0-.5.5v2a.5.5,0,0,0,.5.5H3v1.75a.25.25,0,0,0,.437.166L6.7,14.5Z"/>
</svg>