<svg xmlns:xlink="http://www.w3.org/1999/xlink" xmlns="http://www.w3.org/2000/svg" height="18" viewBox="0 0 18 18" width="18">
  <defs>
    <style>
      .fill {
        fill: #464646;
      }
    </style>
  </defs>
  <title>S Demographic 18 N</title>
  <rect id="Canvas" fill="#ff13dc" opacity="0" width="18" height="18"/><path class="fill" d="M3.9695,4.05a1.95,1.95,0,1,0-1.95-1.95A1.95,1.95,0,0,0,3.9695,4.05Z"/>
  <path class="fill" d="M8.9695,4.05a1.95,1.95,0,1,0-1.95-1.95A1.95,1.95,0,0,0,8.9695,4.05Z"/>
  <path class="fill" d="M13.9695,4.05a1.95,1.95,0,1,0-1.95-1.95A1.95,1.95,0,0,0,13.9695,4.05Z"/>
  <path class="fill" d="M14.0695,5h-.2a3.068,3.068,0,0,0-2.4.9315A3.0695,3.0695,0,0,0,9.0695,5h-.2a3.068,3.068,0,0,0-2.4.9315A3.0695,3.0695,0,0,0,4.0695,5h-.2c-1.6,0-2.9.8-2.9,2.4V11a.5.5,0,0,0,.5.5h.5l.5,5a.5.5,0,0,0,.5.5h2a.5.5,0,0,0,.5-.5l.5-5h1l.5,5a.5.5,0,0,0,.5.5h2a.5.5,0,0,0,.5-.5l.5-5h1l.5,5a.5.5,0,0,0,.5.5h2a.5.5,0,0,0,.5-.5l.5-5h.5a.5.5,0,0,0,.5-.5V7.4C16.9695,5.8,15.671,5,14.0695,5Z"/>
</svg>