<svg xmlns:xlink="http://www.w3.org/1999/xlink" xmlns="http://www.w3.org/2000/svg" height="18" viewBox="0 0 18 18" width="18">
  <defs>
    <style>
      .fill {
        fill: #464646;
      }
    </style>
  </defs>
  <title>S DeselectCircular 18 N</title>
  <rect id="Canvas" fill="#ff13dc" opacity="0" width="18" height="18"/><rect class="fill" height="21.927" rx="0.409" transform="translate(-3.72812 8.99987) rotate(-45)" width="1.2275" x="8.386" y="-1.96332"/>
  <path class="fill" d="M15.7845,10.725a6.94988,6.94988,0,0,1-.8305,1.9475l.724.724a7.942,7.942,0,0,0,1.076-2.426Z"/>
  <path class="fill" d="M14.55,4.7315c.066.085.13.1725.191.2605l.821-.5715q-.10549-.15-.2195-.3a7.99236,7.99236,0,0,0-1.8-1.71l-.5685.824A7.00451,7.00451,0,0,1,14.55,4.7315Z"/>
  <path class="fill" d="M16,8.9895h1a7.9637,7.9637,0,0,0-.509-2.8l-.936.35A6.972,6.972,0,0,1,16,8.9895Z"/>
  <path class="fill" d="M5.3285,3.047A6.93285,6.93285,0,0,1,7.234,2.224l-.25-.9675a7.9374,7.9374,0,0,0-2.379,1.067Z"/>
  <path class="fill" d="M11.422,2.431l.345-.9385A8.087,8.087,0,0,0,8.964,1l.0035,1A7.083,7.083,0,0,1,11.422,2.431Z"/>
  <path class="fill" d="M2.215,7.275a6.96455,6.96455,0,0,1,.8305-1.95l-.724-.7215a7.95009,7.95009,0,0,0-1.076,2.426Z"/>
  <path class="fill" d="M3.45,13.2685c-.0655-.0855-.1295-.1725-.191-.2605l-.819.5715q.106.15.2195.3a8.01357,8.01357,0,0,0,1.8,1.71l.568-.8235A6.99118,6.99118,0,0,1,3.45,13.2685Z"/>
  <path class="fill" d="M2,9.0105H1a7.9637,7.9637,0,0,0,.509,2.8l.9365-.35A6.94993,6.94993,0,0,1,2,9.0105Z"/>
  <path class="fill" d="M12.6715,14.953a6.95007,6.95007,0,0,1-1.906.823l.25.9675a7.93745,7.93745,0,0,0,2.377-1.067Z"/>
  <path class="fill" d="M6.5775,15.5685l-.345.939A8.087,8.087,0,0,0,9.0355,17L9.032,16A7.072,7.072,0,0,1,6.5775,15.5685Z"/>
</svg>