<svg xmlns:xlink="http://www.w3.org/1999/xlink" xmlns="http://www.w3.org/2000/svg" data-name="i c o n s" height="18" id="i_c_o_n_s" viewBox="0 0 18 18" width="18">
  <defs>
    <style>
      .fill {
        fill: #707070;
      }
    </style>
  </defs>
  <rect id="Canvas" fill="#ff13dc" opacity="0" width="18" height="18"/><path class="fill" d="M8,15H4V3h8V7.673a5.839,5.839,0,0,1,1-.208V1a1,1,0,0,0-1-1H4A1,1,0,0,0,3,1V17a1,1,0,0,0,1,1H8ZM7.5,1h1a.52.52,0,0,1,.5.5.521.521,0,0,1-.5.5h-1A.511.511,0,0,1,7,1.5.511.511,0,0,1,7.5,1Z"/>
  <path class="fill" d="M9.015,12.226a4.442,4.442,0,0,1,7.751-1.546l.625-.625a.244.244,0,0,1,.175-.074.25.25,0,0,1,.252.251v2.5a.25.25,0,0,1-.25.25h-2.5a.251.251,0,0,1-.25-.252.245.245,0,0,1,.073-.175l.87-.869a3.028,3.028,0,0,0-5.3.718.49.49,0,0,1-.461.309H9.377A.379.379,0,0,1,9.015,12.226Z"/>
  <path class="fill" d="M17.8,14.756a4.441,4.441,0,0,1-7.75,1.545l-.625.625A.246.246,0,0,1,9.252,17,.25.25,0,0,1,9,16.75v-2.5A.25.25,0,0,1,9.25,14h2.5a.251.251,0,0,1,.251.252.246.246,0,0,1-.074.175l-.87.87a3.029,3.029,0,0,0,5.3-.718.488.488,0,0,1,.461-.31h.625A.379.379,0,0,1,17.8,14.756Z"/>
</svg>