<svg xmlns:xlink="http://www.w3.org/1999/xlink" xmlns="http://www.w3.org/2000/svg" height="18" viewBox="0 0 18 18" width="18">
  <defs>
    <style>
      .fill {
        fill: #464646;
      }
    </style>
  </defs>
  <title>S DeviceRotateLandscape 18 N</title>
  <rect id="Canvas" fill="#ff13dc" opacity="0" width="18" height="18"/><path class="fill" d="M7.579,15H4V3h8V7.605a6.14968,6.14968,0,0,1,1-.177V1a1,1,0,0,0-1-1H4A1,1,0,0,0,3,1V17a1,1,0,0,0,1,1H9.3125A6.135,6.135,0,0,1,7.579,15ZM7.5,1h1a.52.52,0,0,1,.5.5.52.52,0,0,1-.5.5h-1A.5115.5115,0,0,1,7,1.5.512.512,0,0,1,7.5,1Z"/>
  <path class="fill" d="M16.2015,10.166l.744-.739a.24448.24448,0,0,0,.0735-.175.25.25,0,0,0-.25-.25H14.2425a.25.25,0,0,0-.2235.224V11.75a.25.25,0,0,0,.25.25.24448.24448,0,0,0,.175-.0735l.75-.753a3.032,3.032,0,1,1-2.9895-.5075.488.488,0,0,0,.31-.4605V9.578a.38.38,0,0,0-.487-.3615,4.4595,4.4595,0,0,0-3.2255,4.276,4.51,4.51,0,0,0,4.3225,4.468,4.4455,4.4455,0,0,0,3.077-7.7945Z"/>
</svg>