<svg xmlns:xlink="http://www.w3.org/1999/xlink" xmlns="http://www.w3.org/2000/svg" height="18" viewBox="0 0 18 18" width="18">
  <defs>
    <style>
      .fill {
        fill: #464646;
      }
    </style>
  </defs>
  <title>S DevicePreview 18 N</title>
  <rect id="Canvas" fill="#ff13dc" opacity="0" width="18" height="18"/><path class="fill" d="M17,2H1A1,1,0,0,0,0,3V15a1,1,0,0,0,1,1H17a1,1,0,0,0,1-1V3A1,1,0,0,0,17,2ZM15,14H2V4H15Zm1.5-3.75A1.25,1.25,0,1,1,17.75,9,1.25,1.25,0,0,1,16.5,10.25Z"/>
  <path class="fill" d="M10.3895,6.3085A4.28149,4.28149,0,0,0,8.5,5.839C6.0245,5.839,4,8.3035,4,9.103c0,.8565,2.131,3.058,4.482,3.058,2.37,0,4.518-2.2,4.518-3.058C13,8.4275,11.796,7.0055,10.3895,6.3085ZM8.5,11.6355A2.6355,2.6355,0,1,1,11.1355,9,2.6355,2.6355,0,0,1,8.5,11.6355Z"/>
  <path class="fill" d="M9.262,9.024A.762.762,0,0,1,8.5,8.262a.75.75,0,0,1,.3855-.65A1.40565,1.40565,0,0,0,8.5,7.552,1.4465,1.4465,0,1,0,9.9465,9a1.3501,1.3501,0,0,0-.05-.3415A.75.75,0,0,1,9.262,9.024Z"/>
</svg>