<svg xmlns:xlink="http://www.w3.org/1999/xlink" xmlns="http://www.w3.org/2000/svg" height="18" viewBox="0 0 18 18" width="18">
  <defs>
    <style>
      .fill {
        fill: #464646;
      }
    </style>
  </defs>
  <title>S DeviceRotatePortrait 18 N</title>
  <rect id="Canvas" fill="#ff13dc" opacity="0" width="18" height="18"/><path class="fill" d="M18,7.542V4a1,1,0,0,0-1-1H1A1,1,0,0,0,0,4v8a1,1,0,0,0,1,1H7.3755a6.10921,6.10921,0,0,1,.1665-1H3V4H15V7.5425ZM2,8.5a.5115.5115,0,0,1-.5.5A.511.511,0,0,1,1,8.5v-1A.52.52,0,0,1,1.5,7a.5205.5205,0,0,1,.5.5Z"/>
  <path class="fill" d="M16.1855,10.166l.741-.7395A.245.245,0,0,0,17,9.25.25.25,0,0,0,16.75,9H14.224a.25.25,0,0,0-.2235.2235V11.75a.25.25,0,0,0,.25.25.244.244,0,0,0,.1745-.074l.753-.753a3.033,3.033,0,1,1-2.9895-.5075.488.488,0,0,0,.31-.4605V9.5775a.38.38,0,0,0-.487-.3615A4.45951,4.45951,0,0,0,8.786,13.492a4.51049,4.51049,0,0,0,4.3225,4.4685,4.4455,4.4455,0,0,0,3.077-7.7945Z"/>
</svg>