	<svg xmlns="http://www.w3.org/2000/svg" width="18" height="18" viewBox="0 0 48 48" x="108" y="142">
		<ellipse cx="31" cy="7" rx="17" ry="5"></ellipse>
		<path d="M31 28c-.905 0-2.749-.032-4.977-.223A55.422 55.422 0 0 1 21 28c-9.389 0-17-2.239-17-5v16c0 2.761 7.611 5 17 5s17-2.239 17-5V27.563A60.593 60.593 0 0 1 31 28zm0-12c-9.389 0-17-2.239-17-5v8c0 2.761 7.611 5 17 5s17-2.239 17-5v-8c0 2.761-7.611 5-17 5zm-21 3v-3.806c-3.667.916-6 2.28-6 3.806 0 1.771 3.142 3.324 7.867 4.212A5.739 5.739 0 0 1 10 19z"></path>
	</svg>