<svg xmlns:xlink="http://www.w3.org/1999/xlink" xmlns="http://www.w3.org/2000/svg" height="18" id="icons" viewBox="0 0 18 18" width="18">
  <defs>
    <style>
      .fill {
        fill: #464646;
      }
    </style>
  </defs>
  <rect id="Canvas" fill="#ff13dc" opacity="0" width="18" height="18"/><path class="fill" d="M9,2A7,7,0,1,1,2,9,7.00792,7.00792,0,0,1,9,2ZM9,.9A8.1,8.1,0,1,0,17.1,9,8.1,8.1,0,0,0,9,.9Z"/>
  <path class="fill" d="M10.90089,7.32273a.40866.40866,0,0,0-.27271-.26586l-4.83465-1.436a.20389.20389,0,0,0-.2525.26L7.08924,10.5764a.40941.40941,0,0,0,.26337.26123l4.85126,1.55859a.21013.21013,0,0,0,.0636.01025.205.205,0,0,0,.19354-.26806ZM7.75823,9.84082,9.9119,7.73865a.13157.13157,0,0,1,.21707.0536l1.08953,3.363-3.40861-1.095A.13157.13157,0,0,1,7.75823,9.84082Z"/>
</svg>