<svg xmlns:xlink="http://www.w3.org/1999/xlink" xmlns="http://www.w3.org/2000/svg" height="18" viewBox="0 0 18 18" width="18">
  <defs>
    <style>
      .fill {
        fill: #464646;
      }
    </style>
  </defs>
  <title>S DistributeRightEdge 18 N</title>
  <rect id="Canvas" fill="#ff13dc" opacity="0" width="18" height="18"/><path class="fill" d="M6.75,0h-.5A.25.25,0,0,0,6,.25V3H2.5a.5.5,0,0,0-.5.5v11a.5.5,0,0,0,.5.5H6v2.75a.25.25,0,0,0,.25.25h.5A.25.25,0,0,0,7,17.75V.25A.25.25,0,0,0,6.75,0Z"/>
  <path class="fill" d="M15.75,0h-.5A.25.25,0,0,0,15,.25V5H11.5a.5.5,0,0,0-.5.5v7a.5.5,0,0,0,.5.5H15v4.75a.25.25,0,0,0,.25.25h.5a.25.25,0,0,0,.25-.25V.25A.25.25,0,0,0,15.75,0Z"/>
</svg>