<svg xmlns:xlink="http://www.w3.org/1999/xlink" xmlns="http://www.w3.org/2000/svg" height="18" viewBox="0 0 18 18" width="18">
  <defs>
    <style>
      .fill {
        fill: #464646;
      }
    </style>
  </defs>
  <title>S DistributeHorizontalCenter 18 N</title>
  <rect id="Canvas" fill="#ff13dc" opacity="0" width="18" height="18"/><path class="fill" d="M6.5,3H5V.25A.25.25,0,0,0,4.75,0h-.5A.25.25,0,0,0,4,.25V3H2.5a.5.5,0,0,0-.5.5v11a.5.5,0,0,0,.5.5H4v2.75a.25.25,0,0,0,.25.25h.5A.25.25,0,0,0,5,17.75V15H6.5a.5.5,0,0,0,.5-.5V3.5A.5.5,0,0,0,6.5,3Z"/>
  <path class="fill" d="M15.5,5H14V.25A.25.25,0,0,0,13.75,0h-.5A.25.25,0,0,0,13,.25V5H11.5a.5.5,0,0,0-.5.5v7a.5.5,0,0,0,.5.5H13v4.75a.25.25,0,0,0,.25.25h.5a.25.25,0,0,0,.25-.25V13h1.5a.5.5,0,0,0,.5-.5v-7A.5.5,0,0,0,15.5,5Z"/>
</svg>