<svg xmlns:xlink="http://www.w3.org/1999/xlink" xmlns="http://www.w3.org/2000/svg" height="18" viewBox="0 0 18 18" width="18">
  <defs>
    <style>
      .fill {
        fill: #464646;
      }
    </style>
  </defs>
  <title>S DocumentFragmentGroup 18 N</title>
  <rect id="Canvas" fill="#ff13dc" opacity="0" width="18" height="18"/><path class="fill" d="M17.5,4H2.5a.5.5,0,0,0-.5.5v11a.5.5,0,0,0,.5.5h15a.5.5,0,0,0,.5-.5V4.5A.5.5,0,0,0,17.5,4ZM4,6h7v4.4375A4.26593,4.26593,0,0,0,9.261,9.875c-.8265,0-1.2,1.1-2.026,1.1s-.85-1.8825-1.6755-1.8825C4.8085,9.0905,4,11,4,11Zm12,8H4V13H16Zm0-4H13V9h3Zm0-3H13V6h3Z"/>
  <path class="fill" d="M1,3.5A.5.5,0,0,1,1.5,3H16V2.5a.5.5,0,0,0-.5-.5H.5a.5.5,0,0,0-.5.5v11a.5.5,0,0,0,.5.5H1Z"/>
  <circle class="fill" cx="9" cy="8" r="1"/>
</svg>