<svg xmlns:xlink="http://www.w3.org/1999/xlink" xmlns="http://www.w3.org/2000/svg" height="18" viewBox="0 0 18 18" width="18">
  <defs>
    <style>
      .fill {
        fill: #464646;
      }
    </style>
  </defs>
  <title>S DownloadFromCloud 18 N</title>
  <rect id="Canvas" fill="#ff13dc" opacity="0" width="18" height="18"/><path class="fill" d="M15.5,5.65a3.23033,3.23033,0,0,0-1.0755-.059,4.17248,4.17248,0,0,0,0-2.2035,4.012,4.012,0,0,0-2.855-2.824A4.081,4.081,0,0,0,6.462,3.974a3.485,3.485,0,0,0-1.6805-.0275,3.42449,3.42449,0,0,0-2.562,2.606,3.48609,3.48609,0,0,0,.039,1.6185,1.931,1.931,0,0,0-2.232,2.2245A2,2,0,0,0,2.032,12H8V7.5A.5.5,0,0,1,8.5,7h1a.5.5,0,0,1,.5.5V12h4.786A3.2145,3.2145,0,0,0,15.5,5.65Z"/>
  <path class="fill" d="M8,14H5.85a.35.35,0,0,0-.35.35.34252.34252,0,0,0,.1035.245l3.234,3.0725a.25.25,0,0,0,.325,0L12.397,14.6a.344.344,0,0,0,.103-.245.35.35,0,0,0-.35-.35H10V12H8Z"/>
</svg>