<svg xmlns:xlink="http://www.w3.org/1999/xlink" xmlns="http://www.w3.org/2000/svg" height="18" viewBox="0 0 18 18" width="18">
  <defs>
    <style>
      .fill {
        fill: #464646;
      }
    </style>
  </defs>
  <title>S Draft 18 N</title>
  <rect id="Canvas" fill="#ff13dc" opacity="0" width="18" height="18"/><polygon class="fill" points="10 1 10 6 15 6 10 1"/>
  <path class="fill" d="M17.8925,10.8605,16.14,9.1075A.36952.36952,0,0,0,15.8765,9H15.865a.41651.41651,0,0,0-.282.1235l-5.411,5.411a.304.304,0,0,0-.0765.128l-1.0135,3c-.0345.1145.1395.2585.238.2585a.15858.15858,0,0,0,.0185,0c.084-.0195,2.5615-.882,3-1.014a.3.3,0,0,0,.126-.0755l5.412-5.4145A.41749.41749,0,0,0,18,11.15.37152.37152,0,0,0,17.8925,10.8605Zm-5.8,5.4815c-.657.1975-1.65.6145-2.215.784l.78-2.2155Z"/>
  <path class="fill" d="M9.5,7A.5.5,0,0,1,9,6.5V1H3.5a.5.5,0,0,0-.5.5v15a.5.5,0,0,0,.5.5H8.0395l.9195-2.7215a1.41347,1.41347,0,0,1,.376-.6035L15,8.0635V7Z"/>
</svg>