<svg xmlns:xlink="http://www.w3.org/1999/xlink" xmlns="http://www.w3.org/2000/svg" height="18" viewBox="0 0 18 18" width="18">
  <defs>
    <style>
      .fill {
        fill: #464646;
      }
    </style>
  </defs>
  <title>S Dropdown 18 N</title>
  <rect id="Canvas" fill="#ff13dc" opacity="0" width="18" height="18"/><path class="fill" d="M15.25,1H1.75A.75.75,0,0,0,1,1.75V4.2315a.75.75,0,0,0,.75.75h13.5a.75.75,0,0,0,.75-.75V1.75A.75.75,0,0,0,15.25,1ZM12.5,4.382,10.64,2.363a.216.216,0,0,1,.166-.354H14.2a.216.216,0,0,1,.166.354Z"/>
  <path class="fill" d="M15.25,6H1.75A.75.75,0,0,0,1,6.75v9.5a.75.75,0,0,0,.75.75h13.5a.75.75,0,0,0,.75-.75V6.75A.75.75,0,0,0,15.25,6ZM3,7.875A.375.375,0,0,1,3.375,7.5h10.25A.375.375,0,0,1,14,7.875v.75A.375.375,0,0,1,13.625,9H3.375A.375.375,0,0,1,3,8.625Zm11,6.75a.375.375,0,0,1-.375.375H3.375A.375.375,0,0,1,3,14.625v-.75a.375.375,0,0,1,.375-.375h10.25a.375.375,0,0,1,.375.375Zm-1-3a.375.375,0,0,1-.375.375H3.375A.375.375,0,0,1,3,11.625v-.75a.375.375,0,0,1,.375-.375h9.25a.375.375,0,0,1,.375.375Z"/>
</svg>