<svg xmlns:xlink="http://www.w3.org/1999/xlink" xmlns="http://www.w3.org/2000/svg" height="18" viewBox="0 0 18 18" width="18">
  <defs>
    <style>
      .fill {
        fill: #464646;
      }
    </style>
  </defs>
  <title>S EditInLight 18 N</title>
  <rect id="Canvas" fill="#ff13dc" opacity="0" width="18" height="18"/><path class="fill" d="M17.8225,8.3425,15.6605,6.181a.456.456,0,0,0-.325-.1325h-.014a.51748.51748,0,0,0-.35.15l-7.616,7.621a.368.368,0,0,0-.094.1575l-1.222,3.67c-.0425.141.1725.319.294.319l.023-.0025c.1035-.024,3.13-1.059,3.672-1.222a.36653.36653,0,0,0,.155-.0935L17.8,9.0295a.515.515,0,0,0,.15-.331A.458.458,0,0,0,17.8225,8.3425Zm-10.803,8.644.989-2.7595,1.77,1.7655C8.968,16.236,7.7195,16.7775,7.0195,16.9865Z"/>
  <path class="fill" d="M13.5,1H1.5a.5.5,0,0,0-.5.5v12a.5.5,0,0,0,.5.5H6.0385l.1125-.339a1.35,1.35,0,0,1,.336-.55L6.6,13H2V2H13V6.583l1-1V1.5A.5.5,0,0,0,13.5,1Z"/>
</svg>