<svg xmlns:xlink="http://www.w3.org/1999/xlink" xmlns="http://www.w3.org/2000/svg" height="18" viewBox="0 0 18 18" width="18">
  <defs>
    <style>
      .fill {
        fill: #464646;
      }
    </style>
  </defs>
  <title>S EditCircle 18 N</title>
  <rect id="Canvas" fill="#ff13dc" opacity="0" width="18" height="18"/><path class="fill" d="M9,1a8,8,0,1,0,8,8A8,8,0,0,0,9,1Zm4.85,5.959L8.2245,12.5835a.366.366,0,0,1-.1545.0925c-.538.1615-3.5705,1.218-3.6735,1.2415H4.374c-.1205,0-.334-.1765-.2915-.3165L5.3235,9.93a.369.369,0,0,1,.0935-.1565L11.041,4.15A.50951.50951,0,0,1,11.386,4H11.4a.45252.45252,0,0,1,.3225.1315l2.146,2.146a.45548.45548,0,0,1,.1305.353A.511.511,0,0,1,13.85,6.959Z"/>
  <path class="fill" d="M5.411,12.592c.5125-.153,1.407-.5295,2-.708L6.115,10.5915Z"/>
</svg>