<svg xmlns:xlink="http://www.w3.org/1999/xlink" xmlns="http://www.w3.org/2000/svg" height="18" viewBox="0 0 18 18" width="18">
  <defs>
    <style>
      .fill {
        fill: #464646;
      }
    </style>
  </defs>
  <title>S Effects 18 N</title>
  <rect id="Canvas" fill="#ff13dc" opacity="0" width="18" height="18"/><path class="fill" d="M17.267,6h-1.65c-.1,0-.1215.039-.1815.118L12.1,9.4265V9.404L10.7185,6.0785C10.698,6.0195,10.678,6,10.5975,6H6.018l.31-1.344c.585-2.6475,1.8-3.1155,2.7605-3.1155a8.96952,8.96952,0,0,1,1.5.375c.0695.023.1165-.023.14-.114l.304-1.324C11.056.409,11.0095.341,10.939.295A7.98216,7.98216,0,0,0,9.1165.0405C6.847.0405,5.209,1.324,4.437,4.7705L4.127,6H1.8695a.1275.1275,0,0,0-.14081.11263L1.7285,6.1145l-.468,1.25-.0065.045c.007.009.038,0,.1.0915H3.5805C3.37,8.527,1.2595,16.35.7685,17.7415c-.047.114,0,.1825.093.1825.1875-.0225,1.267.069,1.8285,0,.1165-.0225.1635-.0455.187-.1595C3.368,16.2805,4.6605,11.791,5.5725,7.5h2.391c.05,0,1.019-.0125,1.55-.063l1.41,2.8115c-1.2295,1.35-2.764,3.2255-4.034,4.6145A.076.076,0,0,0,6.93,15H8.6605c.1,0,2.444-2.7755,3.17-3.695H11.85S13.862,15,13.943,15h1.632c.0805,0,.121-.059.0805-.137-.443-.939-1.929-3.3625-2.4935-4.5365,1.1285-1.213,3.2-3.1135,4.1655-4.1895C17.3885,6.0785,17.368,6,17.267,6Z"/>
</svg>