<svg xmlns:xlink="http://www.w3.org/1999/xlink" xmlns="http://www.w3.org/2000/svg" height="18" viewBox="0 0 18 18" width="18">
  <defs>
    <style>
      .fill {
        fill: #464646;
      }
    </style>
  </defs>
  <title>S Efficient 18 N</title>
  <rect id="Canvas" fill="#ff13dc" opacity="0" width="18" height="18"/><path class="fill" d="M4.587,6.7815a.75.75,0,0,1-.275-1.45A39.58155,39.58155,0,0,1,9.055,3.8a30.32363,30.32363,0,0,1,4.295-.665.75.75,0,0,1,.096,1.497,29.53991,29.53991,0,0,0-4.0605.631A38.74176,38.74176,0,0,0,4.865,6.729.75.75,0,0,1,4.587,6.7815Z"/>
  <path class="fill" d="M4.746,3.7025a.75.75,0,0,1-.2755-1.45A38.81874,38.81874,0,0,1,9.055.8c.4-.09.7835-.168,1.146-.2365a.75015.75015,0,0,1,.277,1.4745c-.3465.0655-.7135.14-1.095.2255A37.92721,37.92721,0,0,0,5.0215,3.65.74993.74993,0,0,1,4.746,3.7025Z"/>
  <path class="fill" d="M6.75,16.5v.4395a.75.75,0,0,0,.2195.53l.311.311a.75.75,0,0,0,.53.2195h2.379a.75.75,0,0,0,.53-.2195l.311-.311a.75.75,0,0,0,.2195-.53V16.5a.75.75,0,0,0,.75-.75v-.972a.75.75,0,0,0-.75-.75H6.75a.75.75,0,0,0-.75.75v.972A.762.762,0,0,0,6.75,16.5Z"/>
  <path class="fill" d="M4.85,9.6765a.75.75,0,0,1-.2755-1.45A36.30385,36.30385,0,0,1,9.055,6.8a30.32363,30.32363,0,0,1,4.295-.665.75.75,0,0,1,.096,1.497,29.53839,29.53839,0,0,0-4.0605.631,35.51947,35.51947,0,0,0-4.257,1.3605A.743.743,0,0,1,4.85,9.6765Z"/>
  <path class="fill" d="M6.75,10.875V13h1.5V10.875a1.84988,1.84988,0,0,0-.2075-.8395c-.536.17-1.0595.35-1.5.508A.373.373,0,0,1,6.75,10.875Z"/>
  <path class="fill" d="M13.227,9h-1.6a1.877,1.877,0,0,0-1.875,1.875V13h1.5V10.875a.37551.37551,0,0,1,.375-.375h1.6a.75.75,0,0,0,0-1.5Z"/>
</svg>