<svg xmlns:xlink="http://www.w3.org/1999/xlink" xmlns="http://www.w3.org/2000/svg" height="18" viewBox="0 0 18 18" width="18">
  <defs>
    <style>
      .fill {
        fill: #464646;
      }
    </style>
  </defs>
  <title>S EmailGearOutline 18 N</title>
  <rect id="Canvas" fill="#ff13dc" opacity="0" width="18" height="18"/><path class="fill" d="M17.4625,12.339H16.305a3.345,3.345,0,0,0-.4885-1.1865l.824-.824a.3305.3305,0,0,0,.0001-.4674l-.0001-.0001-.5-.5a.3305.3305,0,0,0-.4674-.0001l-.0001.0001-.823.823a3.34646,3.34646,0,0,0-1.1865-.489V8.538a.3305.3305,0,0,0-.3305-.3305h-.6635a.3305.3305,0,0,0-.3305.3305V9.6955a3.34594,3.34594,0,0,0-1.1865.489l-.824-.8245a.3305.3305,0,0,0-.4674-.0001L9.861,9.36l-.5.5a.3305.3305,0,0,0-.0001.4674l.0001.0001.824.824a3.345,3.345,0,0,0-.4885,1.1865H8.538a.3305.3305,0,0,0-.3305.3305v.661a.3305.3305,0,0,0,.3305.3305H9.6955a3.345,3.345,0,0,0,.4885,1.1865l-.824.8255a.3305.3305,0,0,0-.0001.4674l.0001.0001.5.5a.3305.3305,0,0,0,.4674.0001l.0001-.0001.824-.824a3.34611,3.34611,0,0,0,1.1865.4885v1.1575a.3305.3305,0,0,0,.3305.3305h.661a.3305.3305,0,0,0,.3305-.3305V16.305a3.34655,3.34655,0,0,0,1.1865-.4885l.824.824a.3305.3305,0,0,0,.4674.0001l.0001-.0001.5-.5a.3305.3305,0,0,0,.0001-.4674l-.0001-.0001-.822-.823a3.345,3.345,0,0,0,.4885-1.1865H17.462a.3305.3305,0,0,0,.3305-.3305v-.6635A.33051.33051,0,0,0,17.4625,12.339ZM13,14.8A1.8,1.8,0,1,1,14.8,13,1.8,1.8,0,0,1,13,14.8Z"/>
  <path class="fill" d="M8.6295,15H1V13.804L6.5825,9.625,8.4,10.9875a.9865.9865,0,0,0,.3675.163L8.652,11.035a1.319,1.319,0,0,1-.3105-1.341L1,4.19V3H17V4.167L12.96,7.2075h.3705a1.30848,1.30848,0,0,1,.85.3305L17,5.4175V8.807l.35.35a1.33251,1.33251,0,0,1,0,1.881l-.3035.3035h.419a1.313,1.313,0,0,1,.5345.116V2.5835A.5735.5735,0,0,0,17.4375,2H.5625A.57351.57351,0,0,0,0,2.5835v12.833A.57351.57351,0,0,0,.5625,16H8.282A1.31,1.31,0,0,1,8.6295,15ZM1,5.4405,5.75,9,1,12.5535Z"/>
</svg>