<svg xmlns:xlink="http://www.w3.org/1999/xlink" xmlns="http://www.w3.org/2000/svg" height="18" viewBox="0 0 18 18" width="18">
  <defs>
    <style>
      .fill {
        fill: #464646;
      }
    </style>
  </defs>
  <title>S EmailKeyOutline 18 N</title>
  <rect id="Canvas" fill="#ff13dc" opacity="0" width="18" height="18"/><path class="fill" d="M12.9735,15H1V13.804L6.5825,9.625,8.4,10.9875a1,1,0,0,0,1.2,0L11.144,9.825a3.98819,3.98819,0,0,1-.15-1.0215c0-.0435.011-.0845.0125-.1275L9,10.1875,1,4.19V3H17V4.167l-1.0205.768a3.97,3.97,0,0,1,1.85,1.0375c.0635.0635.1105.1385.169.2055V2.5835A.5735.5735,0,0,0,17.4375,2H.5625A.57351.57351,0,0,0,0,2.5835v12.833A.57351.57351,0,0,0,.5625,16h12.411ZM1,5.4405,5.75,9,1,12.5535Z"/>
  <path class="fill" d="M17.7225,17.7665V16.323H15.841v-.542h1.8815V14.6625a.2335.2335,0,0,0-.2335-.2335h-1.65V11.4655a2.773,2.773,0,0,0,1.1415-.6795,2.8035,2.8035,0,1,0-3.965,0,2.771,2.771,0,0,0,1.1565.6835v6.063A.4675.4675,0,0,0,14.6395,18H17.487a.2335.2335,0,0,0,.23549-.23149ZM15.661,9.0355a.9345.9345,0,1,1-.00008-1.32158L15.661,7.714A.9345.9345,0,0,1,15.661,9.0355Z"/>
</svg>