<svg xmlns:xlink="http://www.w3.org/1999/xlink" xmlns="http://www.w3.org/2000/svg" height="18" viewBox="0 0 18 18" width="18">
  <defs>
    <style>
      .fill {
        fill: #464646;
      }
    </style>
  </defs>
  <title>S EmailNotification 18 N</title>
  <rect id="Canvas" fill="#ff13dc" opacity="0" width="18" height="18"/><path class="fill" d="M10.288,14.2725c.1875-.1905.627-.635.627-2.927A2.41251,2.41251,0,0,1,12.15,9.238L11.433,8.7,9.645,10.047a1.08551,1.08551,0,0,1-1.29,0L6.541,8.6875,0,13.534v.8825A.57351.57351,0,0,0,.5625,15h9.24A2.05339,2.05339,0,0,1,10.288,14.2725Z"/>
  <path class="fill" d="M12.9655,8.4125A1.585,1.585,0,0,1,14.286,7.7h.4275A1.578,1.578,0,0,1,16.274,8.9735,2.47849,2.47849,0,0,1,18,10.7315V3.7705l-5.6105,4.211Z"/>
  <path class="fill" d="M18,2.3325v-.75A.5735.5735,0,0,0,17.4375,1H.5625A.57351.57351,0,0,0,0,1.5835v.734L9,9.094Z"/>
  <polygon class="fill" points="0 3.756 0 5.667 0 12.097 5.582 7.969 0 3.756"/>
  <path class="fill" d="M18,15.5385C18,15,16.7855,15.2,16.7855,11.346c0-.859-.8-1.223-1.7855-1.317V9.25A.2695.2695,0,0,0,14.714,9h-.4285a.2695.2695,0,0,0-.286.25v.779c-.984.094-1.7855.458-1.7855,1.317C12.2145,15.2,11,15.0275,11,15.5385v.422h2.3335v.15a1.16675,1.16675,0,0,0,2.3335,0v-.15H18Z"/>
</svg>