<svg xmlns:xlink="http://www.w3.org/1999/xlink" xmlns="http://www.w3.org/2000/svg" height="18" viewBox="0 0 18 18" width="18">
  <defs>
    <style>
      .fill {
        fill: #464646;
      }
    </style>
  </defs>
  <title>S EmailExcludeOutline 18 N</title>
  <rect id="Canvas" fill="#ff13dc" opacity="0" width="18" height="18"/><path class="fill" d="M17.4375,1H.5625A.57351.57351,0,0,0,0,1.5835v12.833A.57351.57351,0,0,0,.5625,15h7.392a5.70589,5.70589,0,0,1-.1795-1H1V12.804L6.5825,8.625,8.4,9.9875a.9835.9835,0,0,0,.426.172A5.74252,5.74252,0,0,1,12.437,7.85L17,4.4175V8.945a5.78041,5.78041,0,0,1,1,.9815V1.5835A.5735.5735,0,0,0,17.4375,1ZM1,11.5535V4.4405L5.75,8Zm8-2.366L1,3.19V2H17V3.167Z"/>
  <path class="fill" d="M13.5,9.05a4.45,4.45,0,1,0,4.45,4.45A4.45,4.45,0,0,0,13.5,9.05Zm0,7.95a3.483,3.483,0,0,1-2.7625-5.626l4.8885,4.8885A3.46747,3.46747,0,0,1,13.5,17Zm2.7625-1.374L11.374,10.7375a3.483,3.483,0,0,1,4.8885,4.8885Z"/>
</svg>