<svg xmlns:xlink="http://www.w3.org/1999/xlink" xmlns="http://www.w3.org/2000/svg" height="18" viewBox="0 0 18 18" width="18">
  <defs>
    <style>
      .fill {
        fill: #464646;
      }
    </style>
  </defs>
  <title>S EmailSchedule 18 N</title>
  <rect id="Canvas" fill="#ff13dc" opacity="0" width="18" height="18"/><path class="fill" d="M17.4375,1H.5625A.57351.57351,0,0,0,0,1.5835v.734L9,9.094l9-6.7615v-.75A.5735.5735,0,0,0,17.4375,1Z"/>
  <polygon class="fill" points="0 3.756 0 12.097 5.582 7.969 0 3.756"/>
  <path class="fill" d="M8.355,10.047,6.541,8.6875,0,13.534v.8825A.57351.57351,0,0,0,.5625,15H7.542a6.09549,6.09549,0,0,1,.854-4.9315C8.3835,10.0595,8.3675,10.0565,8.355,10.047Z"/>
  <path class="fill" d="M13.5,7.35A6.12653,6.12653,0,0,1,18,9.3175V3.7705l-4.7885,3.594C13.308,7.36,13.4025,7.35,13.5,7.35Z"/>
  <path class="fill" d="M13.5,9.05a4.45,4.45,0,1,0,4.45,4.45A4.45,4.45,0,0,0,13.5,9.05Zm0,7.95a3.5,3.5,0,0,1-.5-6.9645v3.568a.337.337,0,0,0,.1.238l1.45,1.45a.3365.3365,0,0,0,.47588.00062l.00062-.00062.45-.45a.337.337,0,0,0,0-.4765l-1.027-1.027a.33747.33747,0,0,1-.1-.238V10.1035A3.5,3.5,0,0,1,13.5,17Z"/>
</svg>