<svg xmlns:xlink="http://www.w3.org/1999/xlink" xmlns="http://www.w3.org/2000/svg" height="18" viewBox="0 0 18 18" width="18">
  <defs>
    <style>
      .fill {
        fill: #464646;
      }
    </style>
  </defs>
  <title>S EmailGear 18 N</title>
  <rect id="Canvas" fill="#ff13dc" opacity="0" width="18" height="18"/><polygon class="fill" points="5.582 7.969 0 3.756 0 5.667 0 12.097 5.582 7.969"/>
  <path class="fill" d="M17.4625,12.339H16.305a3.345,3.345,0,0,0-.4885-1.1865l.824-.824a.3305.3305,0,0,0,.0001-.4674l-.0001-.0001-.5-.5a.3305.3305,0,0,0-.4674-.0001l-.0001.0001-.823.823a3.34646,3.34646,0,0,0-1.1865-.489V8.538a.3305.3305,0,0,0-.3305-.3305h-.6635a.3305.3305,0,0,0-.3305.3305V9.6955a3.34594,3.34594,0,0,0-1.1865.489l-.824-.8245a.3305.3305,0,0,0-.4674-.0001L9.861,9.36l-.5.5a.3305.3305,0,0,0-.0001.4674l.0001.0001.824.824a3.345,3.345,0,0,0-.4885,1.1865H8.538a.3305.3305,0,0,0-.3305.3305v.661a.3305.3305,0,0,0,.3305.3305H9.6955a3.345,3.345,0,0,0,.4885,1.1865l-.824.8255a.3305.3305,0,0,0-.0001.4674l.0001.0001.5.5a.3305.3305,0,0,0,.4674.0001l.0001-.0001.824-.824a3.34611,3.34611,0,0,0,1.1865.4885v1.1575a.3305.3305,0,0,0,.3305.3305h.661a.3305.3305,0,0,0,.3305-.3305V16.305a3.34655,3.34655,0,0,0,1.1865-.4885l.824.824a.3305.3305,0,0,0,.4674.0001l.0001-.0001.5-.5a.3305.3305,0,0,0,.0001-.4674l-.0001-.0001-.822-.823a3.345,3.345,0,0,0,.4885-1.1865H17.462a.3305.3305,0,0,0,.3305-.3305v-.6635A.33051.33051,0,0,0,17.4625,12.339ZM13,14.8A1.8,1.8,0,1,1,14.8,13,1.8,1.8,0,0,1,13,14.8Z"/>
  <path class="fill" d="M8.4765,14.86a1.5325,1.5325,0,0,1-1.47-1.5295v-.661A1.5325,1.5325,0,0,1,8.4755,11.14a1.522,1.522,0,0,1-.413-1.0455,1.55659,1.55659,0,0,1,.0245-.25L6.541,8.686,0,13.534v.8825A.57351.57351,0,0,0,.5625,15H8.387A1.44244,1.44244,0,0,1,8.4765,14.86Z"/>
  <path class="fill" d="M9.0125,8.511a1.51951,1.51951,0,0,1,1.082-.45,1.50706,1.50706,0,0,1,.2215.042L18,2.3325v-.75A.5735.5735,0,0,0,17.4375,1H.5625A.57351.57351,0,0,0,0,1.5835v.734L8.6755,8.85Z"/>
  <path class="fill" d="M14.8605,8.476a1.5305,1.5305,0,0,1,2.125.032l.504.504a1.5355,1.5355,0,0,1,.036,2.128A1.50981,1.50981,0,0,1,18,11.243V3.7705l-4.357,3.27A1.533,1.533,0,0,1,14.8605,8.476Z"/>
  <polygon class="fill" points="5.582 7.969 0 3.756 0 5.667 0 12.097 5.582 7.969"/>
  <path class="fill" d="M17.4625,12.339H16.305a3.345,3.345,0,0,0-.4885-1.1865l.824-.824a.3305.3305,0,0,0,.0001-.4674l-.0001-.0001-.5-.5a.3305.3305,0,0,0-.4674-.0001l-.0001.0001-.823.823a3.34646,3.34646,0,0,0-1.1865-.489V8.538a.3305.3305,0,0,0-.3305-.3305h-.6635a.3305.3305,0,0,0-.3305.3305V9.6955a3.34594,3.34594,0,0,0-1.1865.489l-.824-.8245a.3305.3305,0,0,0-.4674-.0001L9.861,9.36l-.5.5a.3305.3305,0,0,0-.0001.4674l.0001.0001.824.824a3.345,3.345,0,0,0-.4885,1.1865H8.538a.3305.3305,0,0,0-.3305.3305v.661a.3305.3305,0,0,0,.3305.3305H9.6955a3.345,3.345,0,0,0,.4885,1.1865l-.824.8255a.3305.3305,0,0,0-.0001.4674l.0001.0001.5.5a.3305.3305,0,0,0,.4674.0001l.0001-.0001.824-.824a3.34611,3.34611,0,0,0,1.1865.4885v1.1575a.3305.3305,0,0,0,.3305.3305h.661a.3305.3305,0,0,0,.3305-.3305V16.305a3.34655,3.34655,0,0,0,1.1865-.4885l.824.824a.3305.3305,0,0,0,.4674.0001l.0001-.0001.5-.5a.3305.3305,0,0,0,.0001-.4674l-.0001-.0001-.822-.823a3.345,3.345,0,0,0,.4885-1.1865H17.462a.3305.3305,0,0,0,.3305-.3305v-.6635A.33051.33051,0,0,0,17.4625,12.339ZM13,14.8A1.8,1.8,0,1,1,14.8,13,1.8,1.8,0,0,1,13,14.8Z"/>
  <path class="fill" d="M8.4765,14.86a1.5325,1.5325,0,0,1-1.47-1.5295v-.661A1.5325,1.5325,0,0,1,8.4755,11.14a1.522,1.522,0,0,1-.413-1.0455,1.55659,1.55659,0,0,1,.0245-.25L6.541,8.686,0,13.534v.8825A.57351.57351,0,0,0,.5625,15H8.387A1.44244,1.44244,0,0,1,8.4765,14.86Z"/>
  <path class="fill" d="M9.0125,8.511a1.51951,1.51951,0,0,1,1.082-.45,1.50706,1.50706,0,0,1,.2215.042L18,2.3325v-.75A.5735.5735,0,0,0,17.4375,1H.5625A.57351.57351,0,0,0,0,1.5835v.734L8.6755,8.85Z"/>
  <path class="fill" d="M14.8605,8.476a1.5305,1.5305,0,0,1,2.125.032l.504.504a1.5355,1.5355,0,0,1,.036,2.128A1.50981,1.50981,0,0,1,18,11.243V3.7705l-4.357,3.27A1.533,1.533,0,0,1,14.8605,8.476Z"/>
</svg>