<svg xmlns:xlink="http://www.w3.org/1999/xlink" xmlns="http://www.w3.org/2000/svg" height="18" viewBox="0 0 18 18" width="18">
  <defs>
    <style>
      .fill {
        fill: #464646;
      }
    </style>
  </defs>
  <title>S EmailKey 18 N</title>
  <rect id="Canvas" fill="#ff13dc" opacity="0" width="18" height="18"/><polygon class="fill" points="5.582 8.969 0 4.755 0 6.667 0 13.097 5.582 8.969"/>
  <path class="fill" d="M17.7225,17.7665V16.323H15.841v-.542h1.8815V14.6625a.2335.2335,0,0,0-.2335-.2335h-1.65V11.4655a2.773,2.773,0,0,0,1.1415-.6795,2.8035,2.8035,0,1,0-3.965,0,2.771,2.771,0,0,0,1.1565.6835v6.063A.4675.4675,0,0,0,14.6395,18H17.487a.2335.2335,0,0,0,.23549-.23149ZM15.661,9.0355a.9345.9345,0,1,1-.00008-1.32158L15.661,7.714A.9345.9345,0,0,1,15.661,9.0355Z"/>
  <path class="fill" d="M11.089,9.9605,9.645,11.047a1.08551,1.08551,0,0,1-1.29,0L6.541,9.6875,0,14.534v.8825A.57351.57351,0,0,0,.5625,16h12.411V12.35A4.07653,4.07653,0,0,1,11.089,9.9605Z"/>
  <path class="fill" d="M15,4.7115a4.06771,4.06771,0,0,1,.987.1335L18,3.3325v-.75A.5735.5735,0,0,0,17.4375,2H.5625A.57351.57351,0,0,0,0,2.5835v.734L9,10.094,10.9195,8.65A4.088,4.088,0,0,1,15,4.7115Z"/>
</svg>