<svg xmlns:xlink="http://www.w3.org/1999/xlink" xmlns="http://www.w3.org/2000/svg" height="18" viewBox="0 0 18 18" width="18">
  <defs>
    <style>
      .fill {
        fill: #464646;
      }
    </style>
  </defs>
  <title>S EmailCheck 18 N</title>
  <rect id="Canvas" fill="#ff13dc" opacity="0" width="18" height="18"/><path class="fill" d="M9,9.094l9-6.7615v-.75A.573.573,0,0,0,17.4375,1H.5625A.57351.57351,0,0,0,0,1.5835v.734Z"/>
  <polygon class="fill" points="5.582 7.969 0 3.756 0 5.667 0 12.097 5.582 7.969"/>
  <path class="fill" d="M7.35,13.5a6.12,6.12,0,0,1,1.046-3.4315c-.013-.009-.0285-.012-.041-.0215L6.541,8.6875,0,13.534v.8825A.57351.57351,0,0,0,.5625,15H7.542A6.13641,6.13641,0,0,1,7.35,13.5Z"/>
  <path class="fill" d="M13.5,7.35A6.1265,6.1265,0,0,1,18,9.318V3.7705l-4.7885,3.594C13.308,7.36,13.4025,7.35,13.5,7.35Z"/>
  <path class="fill" d="M13.5,9.05a4.45,4.45,0,1,0,4.45,4.45A4.45,4.45,0,0,0,13.5,9.05Zm-1.169,7.156-2.064-2.0635a.25.25,0,0,1,0-.3535l.518-.518a.25.25,0,0,1,.3535,0l1.3655,1.3655,3.053-3.053a.25.25,0,0,1,.3535,0l.5215.5215a.25.25,0,0,1,0,.3535l-3.75,3.75A.25.25,0,0,1,12.331,16.206Z"/>
</svg>