<svg xmlns:xlink="http://www.w3.org/1999/xlink" xmlns="http://www.w3.org/2000/svg" height="18" viewBox="0 0 18 18" width="18">
  <defs>
    <style>
      .fill {
        fill: #464646;
      }
    </style>
  </defs>
  <title>S EmailRefresh 18 N</title>
  <rect id="Canvas" fill="#ff13dc" opacity="0" width="18" height="18"/><path class="fill" d="M9,9.094l9-6.7615v-.75A.5735.5735,0,0,0,17.4375,1H.5625A.57351.57351,0,0,0,0,1.5835V2.318Z"/>
  <polygon class="fill" points="5.582 7.969 0 3.756 0 5.667 0 12.097 5.582 7.969"/>
  <path class="fill" d="M7.35,13.5a6.12194,6.12194,0,0,1,1.046-3.4315c-.0125-.009-.0285-.012-.041-.0215L6.541,8.6875,0,13.534v.8825A.57351.57351,0,0,0,.5625,15H7.542A6.13641,6.13641,0,0,1,7.35,13.5Z"/>
  <path class="fill" d="M13.5,16.7175a3.106,3.106,0,0,1-2.3855-1.0615l1.154-1.156H9v3.275l1.25-1.2545A4.372,4.372,0,0,0,13.5,18,4.65,4.65,0,0,0,18,13.5H16.86A3.4445,3.4445,0,0,1,13.5,16.7175Z"/>
  <path class="fill" d="M16.779,10.479A4.60747,4.60747,0,0,0,13.5,9,4.65,4.65,0,0,0,9,13.5h1.14a3.4445,3.4445,0,0,1,3.36-3.2175,3.1415,3.1415,0,0,1,2.4355,1.058L14.8,12.5H18V9.2325Z"/>
  <path class="fill" d="M18,7.108V3.7705l-4.7885,3.594c.096-.0045.191-.0145.2885-.0145a6.076,6.076,0,0,1,3.274.964Z"/>
</svg>