<svg xmlns="http://www.w3.org/2000/svg" width="18" height="18" viewBox="0 0 18 18" class="spectrum-Icon_368b34 spectrum-Icon--sizeXS_368b34 parcel-icon" focusable="false" aria-hidden="true" role="img"><path d="M13.59998,12c0-.60754-.49243-1.10004-1.09998-1.10004-.60748,0-1.09998.49249-1.09998,1.10004,0,.60748.49249,1.09998,1.09998,1.09998.60754,0,1.09998-.49249,1.09998-1.09998Z"></path><path d="M15,4.09998c.60754,0,1.09998-.49249,1.09998-1.09998,0-.60754-.49243-1.10004-1.09998-1.10004-.60748,0-1.09998.49249-1.09998,1.10004,0,.60748.49249,1.09998,1.09998,1.09998Z"></path><path d="M13,7.59998c.60754,0,1.09998-.49249,1.09998-1.09998,0-.60754-.49243-1.10004-1.09998-1.10004-.60748,0-1.09998.49249-1.09998,1.10004,0,.60748.49249,1.09998,1.09998,1.09998Z"></path><path d="M4.5,6.59998c.60754,0,1.09998-.49249,1.09998-1.09998,0-.60754-.49243-1.10004-1.09998-1.10004-.60748,0-1.09998.49249-1.09998,1.10004,0,.60748.49249,1.09998,1.09998,1.09998Z"></path><path d="M4.5,13.39996c-.60748,0-1.09998.49249-1.09998,1.10004,0,.60748.49249,1.09998,1.09998,1.09998s1.09998-.49249,1.09998-1.09998c0-.60754-.49249-1.10004-1.09998-1.10004Z"></path><path d="M16.75,8.5h-7.25V1.25c0-.13806-.11194-.25-.25-.25h-.5c-.13806,0-.25.11194-.25.25v7.25H1.25c-.13806,0-.25.11194-.25.25v.5c0,.13806.11194.25.25.25h7.25v2.03485c-.15186-.0791-.31689-.13489-.5-.13489-.60748,0-1.09998.49249-1.09998,1.10004,0,.60748.49249,1.09998,1.09998,1.09998.18311,0,.34814-.05579.5-.13489v3.28491c0,.13806.11194.25.25.25h.5c.13806,0,.25-.11194.25-.25v-7.25h7.25c.13806,0,.25-.11194.25-.25v-.5c0-.13806-.11194-.25-.25-.25Z"></path></svg>