<svg xmlns:xlink="http://www.w3.org/1999/xlink" xmlns="http://www.w3.org/2000/svg" height="18" viewBox="0 0 18 18" width="18">
  <defs>
    <style>
      .fill {
        fill: #464646;
      }
    </style>
  </defs>
  <title>S Engagement 18 N</title>
  <rect id="Canvas" fill="#ff13dc" opacity="0" width="18" height="18"/><path class="fill" d="M4.1,13.271c.021.0395.0915.1415.2.2945A27.01537,27.01537,0,0,1,6.8,18H15c.543-1.477,1.4625-4.3235.8185-5.274a2.167,2.167,0,0,0-1.228-.618,3.9497,3.9497,0,0,1-.2945-.3245,1.68,1.68,0,0,0-.9895-.618,3.38582,3.38582,0,0,0-.554-.0085.68851.68851,0,0,1-.6655-.364,1.564,1.564,0,0,0-.906-.554c-.3845-.062-.5865.1955-.828.1795-.2-.087-.2575-.708-.2575-.708V5.522a1.0355,1.0355,0,1,0-2.0525,0V11.05a4.86664,4.86664,0,0,1-.3635,1.8525c-.057.112-.288.4175-.408.5865a7.06959,7.06959,0,0,1-1.6805-1.8,2.757,2.757,0,0,0-1.26-1.218.77249.77249,0,0,0-.858.1125c-.7.43-.117,1.4165.394,2.286C3.953,13.0185,4.0355,13.1545,4.1,13.271Z"/>
  <path class="fill" d="M9,.75A4.872,4.872,0,0,0,6.375,9.7285V8.3a3.75,3.75,0,1,1,5.303-.053l-.053.053V9.729A4.872,4.872,0,0,0,9,.75Z"/>
</svg>