<svg xmlns:xlink="http://www.w3.org/1999/xlink" xmlns="http://www.w3.org/2000/svg" height="18" viewBox="0 0 18 18" width="18">
  <defs>
    <style>
      .fill {
        fill: #464646;
      }
    </style>
  </defs>
  <title>S EventShare 18 N</title>
  <rect id="Canvas" fill="#ff13dc" opacity="0" width="18" height="18"/><polygon class="fill" points="2 2 10 2 10 6 10.87 6.87 12 5.616 12 0 0 0 0 12 3 12 3 10 2 10 2 2"/>
  <path class="fill" d="M9.192,8.813,4.427,4.0735A.24552.24552,0,0,0,4.25,4,.25.25,0,0,0,4,4.25V15.641a.25.25,0,0,0,.25.25.24553.24553,0,0,0,.175-.074L7,12.328V11a1,1,0,0,1,1-1H9.1165A1.488,1.488,0,0,1,9.192,8.813Z"/>
  <path class="fill" d="M15.861,9.1655,13,6,10.146,9.1655A.5.5,0,0,0,10.5175,10H12v3.75a.25.25,0,0,0,.25.25h1.5a.25.25,0,0,0,.25-.25V10h1.4895a.5.5,0,0,0,.3715-.8345Z"/>
  <path class="fill" d="M16,11v5H10V11H8.5a.5.5,0,0,0-.5.5v6a.5.5,0,0,0,.5.5h9a.5.5,0,0,0,.5-.5v-6a.5.5,0,0,0-.5-.5Z"/>
</svg>