<svg xmlns:xlink="http://www.w3.org/1999/xlink" xmlns="http://www.w3.org/2000/svg" height="18" viewBox="0 0 18 18" width="18">
  <defs>
    <style>
      .fill {
        fill: #464646;
      }
    </style>
  </defs>
  <title>S Events 18 N</title>
  <rect id="Canvas" fill="#ff13dc" opacity="0" width="18" height="18"/><path class="fill" d="M16.3075,14.0675A.23049.23049,0,0,1,16.079,14.3h-.002l-4.3845.0075-3.3,3.6245A.226.226,0,0,1,8.231,18,.2305.2305,0,0,1,8,17.77V6.231A.2305.2305,0,0,1,8.23,6H8.2325a.226.226,0,0,1,.1615.068l7.8455,7.838A.22552.22552,0,0,1,16.3075,14.0675Zm-10.8145.796,1.436-2.504a.2285.2285,0,0,0-.094-.3085l-.5905-.3385a.228.228,0,0,0-.3135.075l-1.4355,2.504a.2285.2285,0,0,0,.094.3085l.59.3385A.228.228,0,0,0,5.493,14.8635ZM12.226,3.945l1.4355-2.504a.228.228,0,0,0-.0935-.3085L12.9775.794a.228.228,0,0,0-.3135.075L11.2285,3.373a.228.228,0,0,0,.0935.3085l.5905.3385A.228.228,0,0,0,12.226,3.945ZM1.9865,11.6615,4.62,10.479a.2285.2285,0,0,0,.1055-.3045l-.279-.621a.228.228,0,0,0-.2974-.12458L4.1465,9.43l-2.631,1.182a.2285.2285,0,0,0-.1055.3045l.279.621A.228.228,0,0,0,1.9865,11.6615ZM13.8535,6.557,16.487,5.375a.2285.2285,0,0,0,.1055-.3045l-.279-.6205a.228.228,0,0,0-.2974-.12458l-.0026.00108L13.38,5.5085a.2285.2285,0,0,0-.1055.3045l.279.621a.22749.22749,0,0,0,.29672.12437Zm-12.62.2855,2.825.5915A.228.228,0,0,0,4.323,7.24957V7.2495l.1395-.666a.2285.2285,0,0,0-.168-.275L1.469,5.717a.228.228,0,0,0-.26449.18443V5.9015l-.1395.666A.2285.2285,0,0,0,1.2335,6.8425ZM13.803,9.6785l2.8255.5915a.2285.2285,0,0,0,.2645-.1845l.139-.666a.22751.22751,0,0,0-.16728-.27483L16.864,9.1445,14.039,8.553a.228.228,0,0,0-.26449.18443V8.7375l-.1395.666A.2285.2285,0,0,0,13.803,9.6785ZM3.462,2.3165,5.4,4.4555a.2285.2285,0,0,0,.3225.0065l.504-.457a.229.229,0,0,0,.026-.3215l-1.938-2.139A.2285.2285,0,0,0,3.992,1.538l-.5045.457A.2285.2285,0,0,0,3.462,2.3165ZM7.7745.3195l.3105,2.87a.228.228,0,0,0,.257.194l.6765-.073a.22751.22751,0,0,0,.20957-.24412L9.228,3.0655,8.9175.196a.228.228,0,0,0-.25592-.19615L8.6605,0,7.984.0745a.22751.22751,0,0,0-.20957.24412Z"/>
</svg>