<svg xmlns:xlink="http://www.w3.org/1999/xlink" xmlns="http://www.w3.org/2000/svg" height="18" viewBox="0 0 18 18" width="18">
  <defs>
    <style>
      .fill {
        fill: #464646;
      }
    </style>
  </defs>
  <title>S EventExclude 18 N</title>
  <rect id="Canvas" fill="#ff13dc" opacity="0" width="18" height="18"/><path class="fill" d="M13.5,9.05a4.45,4.45,0,1,0,4.45,4.45A4.45,4.45,0,0,0,13.5,9.05ZM10,13.5a3.46749,3.46749,0,0,1,.7375-2.126l4.8885,4.8885A3.483,3.483,0,0,1,10,13.5Zm6.2625,2.126L11.374,10.7375a3.483,3.483,0,0,1,4.8885,4.8885Z"/>
  <path class="fill" d="M9.35,8.972l-4.921-4.9A.244.244,0,0,0,4.25,4,.25.25,0,0,0,4,4.25V15.641a.25.25,0,0,0,.25.25.24452.24452,0,0,0,.175-.074L7,12.328l.464.0035A6.13148,6.13148,0,0,1,9.35,8.972Z"/>
  <path class="fill" d="M2,2h8V8.446a6.117,6.117,0,0,1,2-.904V0H0V12H3V10H2Z"/>
</svg>