<svg xmlns:xlink="http://www.w3.org/1999/xlink" xmlns="http://www.w3.org/2000/svg" height="18" viewBox="0 0 18 18" width="18">
  <defs>
    <style>
      .fill {
        fill: #464646;
      }
    </style>
  </defs>
  <title>S ExperienceExport 18 N</title>
  <rect id="Canvas" fill="#ff13dc" opacity="0" width="18" height="18"/><path class="fill" d="M15,14H6V12H9.8V11H6V9H9.8V8H2V4H15V2.5a.5.5,0,0,0-.5-.5H.5a.5.5,0,0,0-.5.5v13a.5.5,0,0,0,.5.5h14a.5.5,0,0,0,.5-.5ZM5,14H2V9H5Z"/>
  <path class="fill" d="M14,7V5.336a.25.25,0,0,1,.433-.1705L18,9l-3.567,3.8345A.25.25,0,0,1,14,12.664V11H11.5a.5.5,0,0,1-.5-.5v-3a.5.5,0,0,1,.5-.5Z"/>
</svg>