<svg xmlns:xlink="http://www.w3.org/1999/xlink" xmlns="http://www.w3.org/2000/svg" height="18" viewBox="0 0 18 18" width="18">
  <defs>
    <style>
      .fill {
        fill: #464646;
      }
    </style>
  </defs>
  <title>S ExperienceAdd 18 N</title>
  <rect id="Canvas" fill="#ff13dc" opacity="0" width="18" height="18"/><path class="fill" d="M7.35,13.55c0-.1855.0115-.3685.028-.55H6V11H7.908a6.15491,6.15491,0,0,1,.575-1H6V8h4.864A6.10251,6.10251,0,0,1,16,7.9345V1.5a.5.5,0,0,0-.5-.5H.5a.5.5,0,0,0-.5.5v13a.5.5,0,0,0,.5.5H7.5295A6.11911,6.11911,0,0,1,7.35,13.55ZM2,3H14V7H2ZM5,13H2V8H5Z"/>
  <path class="fill" d="M13.5,9.05a4.45,4.45,0,1,0,4.45,4.45A4.45,4.45,0,0,0,13.5,9.05Zm2.5,4.7a.25.25,0,0,1-.25.25H14v1.75a.25.25,0,0,1-.25.25h-.5a.25.25,0,0,1-.25-.25V14H11.25a.25.25,0,0,1-.25-.25v-.5a.25.25,0,0,1,.25-.25H13V11.25a.25.25,0,0,1,.25-.25h.5a.25.25,0,0,1,.25.25V13h1.75a.25.25,0,0,1,.25.25Z"/>
</svg>