<svg xmlns:xlink="http://www.w3.org/1999/xlink" xmlns="http://www.w3.org/2000/svg" height="18" viewBox="0 0 18 18" width="18">
  <defs>
    <style>
      .fill {
        fill: #464646;
      }
    </style>
  </defs>
  <title>S ExportOriginal 18 N</title>
  <rect id="Canvas" fill="#ff13dc" opacity="0" width="18" height="18"/><path class="fill" d="M6,10.5v-3A.5.5,0,0,1,6.5,7H13V2.5a.5.5,0,0,0-.5-.5H.5a.5.5,0,0,0-.5.5v13a.5.5,0,0,0,.5.5h12a.5.5,0,0,0,.5-.5V11H6.5A.5.5,0,0,1,6,10.5Z"/>
  <path class="fill" d="M14,5.6035V8H7.25A.25.25,0,0,0,7,8.25v1.5a.25.25,0,0,0,.25.25H14v2.3965a.25.25,0,0,0,.427.1765L17.9565,9,14.427,5.427A.25.25,0,0,0,14,5.6035Z"/>
</svg>