<svg xmlns:xlink="http://www.w3.org/1999/xlink" xmlns="http://www.w3.org/2000/svg" height="18" viewBox="0 0 18 18" width="18">
  <defs>
    <style>
      .fill {
        fill: #464646;
      }
    </style>
  </defs>
  <title>S Fast 18 N</title>
  <rect id="Canvas" fill="#ff13dc" opacity="0" width="18" height="18"/><path class="fill" d="M13.9545,6.716a2.365,2.365,0,0,0-.526-.0215L9.258,2.95A3.444,3.444,0,0,0,9.74,5.2685a7.733,7.733,0,0,0,2.514,1.855,1.589,1.589,0,0,0-.6135.991,1.53457,1.53457,0,0,0,.05.7A6.60339,6.60339,0,0,0,8.7315,6.75,8.43571,8.43571,0,0,0,4.268,6.5,1.3741,1.3741,0,0,0,4.4335,6,1.392,1.392,0,1,0,3.176,7.2085l-.1415.3455c-1.422,2.9375.536,4.496,1.722,5.1635.419.2365,1.7645.7675,1.7645.7675L4.7185,14.7905A.9245.9245,0,0,0,4.434,16s1.607-.967,3.2895-1.992L10,15a1.0705,1.0705,0,0,0,1.3225-.416l-2.383-1.319c.9165-.5625,1.74-1.0735,2.2-1.372a4.079,4.079,0,0,0,1.669-1.9,2.35379,2.35379,0,0,0,.5805.1815c1.121.184,2.7755-.3405,2.9325-1.296S15.076,6.9,13.9545,6.716Zm-6.214,5.8865L6.243,11.775a3.438,3.438,0,0,0,.8455-1.425c1.196.5785,2.3865.997,2.3865.997Z"/>
</svg>