<svg xmlns:xlink="http://www.w3.org/1999/xlink" xmlns="http://www.w3.org/2000/svg" height="18" viewBox="0 0 18 18" width="18">
  <defs>
    <style>
      .fill {
        fill: #464646;
      }
    </style>
  </defs>
  <title>S Feature 18 N</title>
  <rect id="Canvas" fill="#ff13dc" opacity="0" width="18" height="18"/><path class="fill" d="M9,1.1A7.9,7.9,0,1,0,16.9,9,7.9,7.9,0,0,0,9,1.1Zm6.1,6.287-3.363,2.696,1.137,4.154a.17749.17749,0,0,1-.11825.22142l-.00025.00008a.17549.17549,0,0,1-.153-.0245L9,12.072,5.397,14.4375a.1775.1775,0,0,1-.2715-.197l1.137-4.1575L2.9,7.387a.1775.1775,0,0,1,.104-.3195l4.305-.204L8.834,2.832a.1775.1775,0,0,1,.3355,0l1.525,4.0315,4.305.204a.1775.1775,0,0,1,.174.18093V7.2485A.1755.1755,0,0,1,15.1,7.387Z"/>
</svg>