<svg xmlns:xlink="http://www.w3.org/1999/xlink" xmlns="http://www.w3.org/2000/svg" height="18" viewBox="0 0 18 18" width="18">
  <defs>
    <style>
      .fill {
        fill: #464646;
      }
    </style>
  </defs>
  <title>S FeedAdd 18 N</title>
  <rect id="Canvas" fill="#ff13dc" opacity="0" width="18" height="18"/><path class="fill" d="M7.37,14H3V11H7.88a6.12814,6.12814,0,0,1,.563-1H3V7H15v.5345a6.108,6.108,0,0,1,1,.345V2.5a.5.5,0,0,0-.5-.5H2.5a.5.5,0,0,0-.5.5v12a.5.5,0,0,0,.5.5H7.5345A6.12349,6.12349,0,0,1,7.37,14ZM3,3H15V6H3Z"/>
  <path class="fill" d="M13.5,9.05a4.45,4.45,0,1,0,4.45,4.45A4.45,4.45,0,0,0,13.5,9.05Zm2.5,4.7a.25.25,0,0,1-.25.25H14v1.75a.25.25,0,0,1-.25.25h-.5a.25.25,0,0,1-.25-.25V14H11.25a.25.25,0,0,1-.25-.25v-.5a.25.25,0,0,1,.25-.25H13V11.25a.25.25,0,0,1,.25-.25h.5a.25.25,0,0,1,.25.25V13h1.75a.25.25,0,0,1,.25.25Z"/>
</svg>