<svg xmlns:xlink="http://www.w3.org/1999/xlink" xmlns="http://www.w3.org/2000/svg" height="18" viewBox="0 0 18 18" width="18">
  <defs>
    <style>
      .fill {
        fill: #464646;
      }
    </style>
  </defs>
  <title>S Feedback 18 N</title>
  <rect id="Canvas" fill="#ff13dc" opacity="0" width="18" height="18"/><path class="fill" d="M15,1H3A2,2,0,0,0,1,3v8a2,2,0,0,0,2,2H4v4.3965a.25.25,0,0,0,.427.177L9,13h6a2,2,0,0,0,2-2V3A2,2,0,0,0,15,1ZM4,8.675A1.925,1.925,0,1,1,5.925,6.75,1.925,1.925,0,0,1,4,8.675Zm5,0A1.925,1.925,0,1,1,10.925,6.75,1.925,1.925,0,0,1,9,8.675Zm5,0A1.925,1.925,0,1,1,15.925,6.75,1.925,1.925,0,0,1,14,8.675Z"/>
</svg>