<svg xmlns:xlink="http://www.w3.org/1999/xlink" xmlns="http://www.w3.org/2000/svg" height="18" viewBox="0 0 18 18" width="18">
  <defs>
    <style>
      .fill {
        fill: #464646;
      }
    </style>
  </defs>
  <title>S FileGear 18 N</title>
  <rect id="Canvas" fill="#ff13dc" opacity="0" width="18" height="18"/><path class="fill" d="M17.5965,12.893H16.534a3.0709,3.0709,0,0,0-.45-1.0895l.7565-.7565a.3035.3035,0,0,0,0-.429l-.46-.46a.3035.3035,0,0,0-.429,0l-.7555.757a3.07263,3.07263,0,0,0-1.089-.45V9.4035A.3035.3035,0,0,0,13.8035,9.1h-.607a.3035.3035,0,0,0-.3035.3035V10.466a3.07263,3.07263,0,0,0-1.089.45l-.7565-.7565a.3035.3035,0,0,0-.429,0l-.46.46a.3035.3035,0,0,0,0,.429l.7565.7565a3.0709,3.0709,0,0,0-.45,1.0895H9.4035A.3035.3035,0,0,0,9.1,13.198v.607a.3035.3035,0,0,0,.3035.3035H10.466a3.0709,3.0709,0,0,0,.45,1.0895l-.7565.7565a.3035.3035,0,0,0,0,.429l.46.46a.3035.3035,0,0,0,.429,0l.7565-.7565a3.07263,3.07263,0,0,0,1.089.45v1.0625a.3035.3035,0,0,0,.3035.3035h.607a.3035.3035,0,0,0,.3035-.3035V16.534a3.07263,3.07263,0,0,0,1.089-.45l.7565.7565a.3035.3035,0,0,0,.429,0l.46-.46a.3035.3035,0,0,0,0-.429l-.7575-.7555a3.0709,3.0709,0,0,0,.45-1.0895h1.0625a.3035.3035,0,0,0,.3035-.3035v-.6065a.3035.3035,0,0,0-.3035-.3035ZM13.5,15.25a1.75,1.75,0,1,1,1.75-1.75A1.75,1.75,0,0,1,13.5,15.25Z"/>
  <polygon class="fill" points="8 1 8 6 3 6 8 1"/>
  <path class="fill" d="M8.25,13.5A5.25,5.25,0,0,1,13.5,8.25a5.189,5.189,0,0,1,1.5.244V1.5a.5.5,0,0,0-.5-.5H9V6.5a.5.5,0,0,1-.5.5H3v9.5a.5.5,0,0,0,.5.5H9.6125A5.21151,5.21151,0,0,1,8.25,13.5Z"/>
</svg>