<svg xmlns:xlink="http://www.w3.org/1999/xlink" xmlns="http://www.w3.org/2000/svg" height="18" viewBox="0 0 18 18" width="18">
  <defs>
    <style>
      .fill {
        fill: #464646;
      }
    </style>
  </defs>
  <title>S FileCode 18 N</title>
  <rect id="Canvas" fill="#ff13dc" opacity="0" width="18" height="18"/><polygon class="fill" points="10 1 10 6 15 6 10 1"/>
  <path class="fill" d="M9.5,7A.5.5,0,0,1,9,6.5V1H3.5a.5.5,0,0,0-.5.5v15a.5.5,0,0,0,.5.5h11a.5.5,0,0,0,.5-.5V7ZM7.2835,14.6125a.1285.1285,0,0,1-.1045.204H5.807a.12851.12851,0,0,1-.103-.05l-1.7305-2.309L5.704,10.15a.128.128,0,0,1,.103-.05H7.179a.1285.1285,0,0,1,.1045.2035L5.531,12.4585Zm1.3835.9225-.9335-.0005a.257.257,0,0,1-.2475-.326l1.8725-6.706a.25749.25749,0,0,1,.25-.188H10.54a.257.257,0,0,1,.2475.326L8.914,15.347A.257.257,0,0,1,8.667,15.535Zm3.6285-.77a.13.13,0,0,1-.103.05H10.821a.1285.1285,0,0,1-.1045-.204l1.7525-2.155-1.7525-2.155a.1285.1285,0,0,1,.1045-.2035h1.372a.1295.1295,0,0,1,.103.05l1.7305,2.3075Z"/>
</svg>