<svg xmlns:xlink="http://www.w3.org/1999/xlink" xmlns="http://www.w3.org/2000/svg" height="18" viewBox="0 0 18 18" width="18">
  <defs>
    <style>
      .fill {
        fill: #464646;
      }
    </style>
  </defs>
  <title>S FileWorkflow 18 N</title>
  <rect id="Canvas" fill="#ff13dc" opacity="0" width="18" height="18"/><polygon class="fill" points="10 1 10 6 15 6 10 1"/>
  <path class="fill" d="M18,13.75a.25.25,0,0,1-.25.25h-2.5a.25.25,0,0,1-.25-.25V13H14v3h1v-.75a.25.25,0,0,1,.25-.25h2.5a.25.25,0,0,1,.25.25v2.5a.25.25,0,0,1-.25.25h-2.5a.25.25,0,0,1-.25-.25V17H13.25a.25.25,0,0,1-.25-.25V15H12v1.75a.25.25,0,0,1-.25.25H9.25A.25.25,0,0,1,9,16.75v-4.5A.25.25,0,0,1,9.25,12h2.5a.25.25,0,0,1,.25.25V14h1V12.25a.25.25,0,0,1,.25-.25H15v-.75a.25.25,0,0,1,.25-.25h2.5a.25.25,0,0,1,.25.25Z"/>
  <path class="fill" d="M7.75,16.75v-4.5a1.5,1.5,0,0,1,1.5-1.5h4.586A1.49551,1.49551,0,0,1,15,9.7895V7H9.5A.5.5,0,0,1,9,6.5V1H3.5a.5.5,0,0,0-.5.5v15a.5.5,0,0,0,.5.5H7.7755A1.456,1.456,0,0,1,7.75,16.75Z"/>
</svg>