<svg xmlns:xlink="http://www.w3.org/1999/xlink" xmlns="http://www.w3.org/2000/svg" height="18" viewBox="0 0 18 18" width="18">
  <defs>
    <style>
      .fill {
        fill: #464646;
      }
    </style>
  </defs>
  <title>S FileSpace 18 N</title>
  <rect id="Canvas" fill="#ff13dc" opacity="0" width="18" height="18"/><path class="fill" d="M11.826,9.9445A11.65016,11.65016,0,0,0,8.5,9.5a11.65016,11.65016,0,0,0-3.326.4445.25.25,0,0,0-.174.242V14.16a.257.257,0,0,0,.1575.2345A8.291,8.291,0,0,0,8.5,14.95a8.58142,8.58142,0,0,0,3.343-.5555A.25451.25451,0,0,0,12,14.16V10.1865A.25.25,0,0,0,11.826,9.9445Z"/>
  <path class="fill" d="M14,3.5c-.028-1.7255-2.864-2.45-5.5-2.45S3.0305,1.7745,3.0025,3.5L3,14.5c.028,1.7255,2.864,2.45,5.5,2.45s5.4695-.7245,5.4975-2.45ZM8.5,2.05c2.692,0,4.5.7625,4.5,1.475S11.192,5,8.5,5,4,4.2375,4,3.525,5.808,2.05,8.5,2.05ZM13,14.525C13,15.2375,11.192,16,8.5,16S4,15.2375,4,14.525c0-.0085.0035-.0165.004-.025L4,5.0465A9.235,9.235,0,0,0,8.5,6,9.235,9.235,0,0,0,13,5.0465V14.5C13.0005,14.5085,13,14.5165,13,14.525Z"/>
</svg>