<svg xmlns:xlink="http://www.w3.org/1999/xlink" xmlns="http://www.w3.org/2000/svg" height="18" viewBox="0 0 18 18" width="18">
  <defs>
    <style>
      .fill {
        fill: #464646;
      }
    </style>
  </defs>
  <title>S FileCampaign 18 N</title>
  <rect id="Canvas" fill="#ff13dc" opacity="0" width="18" height="18"/><polygon class="fill" points="10 1 10 6 15 6 10 1"/>
  <path class="fill" d="M8.25,13.5A5.17813,5.17813,0,0,1,15,8.494V7H9.5A.5.5,0,0,1,9,6.5V1H3.5a.5.5,0,0,0-.5.5v15a.5.5,0,0,0,.5.5H9.6125A5.212,5.212,0,0,1,8.25,13.5Z"/>
  <path class="fill" d="M9.511,13h1.381A2.6535,2.6535,0,0,1,13,10.892V9.511A4.05951,4.05951,0,0,0,9.511,13Zm6.597,0h1.3805A4.05949,4.05949,0,0,0,14,9.511v1.3805A2.65349,2.65349,0,0,1,16.108,13Zm-5.216,1H9.511A4.0595,4.0595,0,0,0,13,17.489V16.108A2.6535,2.6535,0,0,1,10.892,14ZM14,16.108v1.3805A4.05949,4.05949,0,0,0,17.489,14H16.108A2.6535,2.6535,0,0,1,14,16.108ZM12.389,13.5A1.111,1.111,0,1,1,13.5,14.611,1.111,1.111,0,0,1,12.389,13.5Z"/>
</svg>