<svg xmlns:xlink="http://www.w3.org/1999/xlink" xmlns="http://www.w3.org/2000/svg" height="18" viewBox="0 0 18 18" width="18">
  <defs>
    <style>
      .fill {
        fill: #464646;
      }
    </style>
  </defs>
  <title>S FileKey 18 N</title>
  <rect id="Canvas" fill="#ff13dc" opacity="0" width="18" height="18"/><polygon class="fill" points="10 1 10 6 15 6 10 1"/>
  <path class="fill" d="M11.4105,12.385a.92775.92775,0,1,0,.0015,0ZM9.5,7A.5.5,0,0,1,9,6.5V1H3.5a.5.5,0,0,0-.5.5v15a.5.5,0,0,0,.5.5h11a.5.5,0,0,0,.5-.5V7Zm1.077,7.976a2.19749,2.19749,0,0,1-1.8415-1.843,2.245,2.245,0,0,1,.024-.7845L7.7,11.2545V10.276H6.5185a.1695.1695,0,0,1-.169-.1685V8.9265H5.169A.169.169,0,0,1,5,8.758V7.071a.169.169,0,0,1,.169-.1685h.773a.17452.17452,0,0,1,.1195.05l3.883,3.883a2.171,2.171,0,0,1,1-.221,2.2255,2.2255,0,0,1,2.15188,2.29676l-.00188.04424a2.19349,2.19349,0,0,1-2.33668,2.0403Q10.667,14.98966,10.577,14.976Z"/>
</svg>