<svg xmlns:xlink="http://www.w3.org/1999/xlink" xmlns="http://www.w3.org/2000/svg" height="18" viewBox="0 0 18 18" width="18">
  <defs>
    <style>
      .fill {
        fill: #464646;
      }
    </style>
  </defs>
  <title>S FileImportant 18 N</title>
  <rect id="Canvas" fill="#ff13dc" opacity="0" width="18" height="18"/><path class="fill" d="M9.5,7A.5.5,0,0,1,9,6.5V1H3.5a.5.5,0,0,0-.5.5v15a.5.5,0,0,0,.5.5h11a.5.5,0,0,0,.5-.5V7ZM5.1185,5.914a.181.181,0,0,1,.0855-.1865,2.94469,2.94469,0,0,1,1.0175-.204,3.33114,3.33114,0,0,1,1.0355.153.212.212,0,0,1,.1.187V7.085a39.06508,39.06508,0,0,1-.3395,3.942c0,.05-.0165.1-.1185.1H5.5435a.112.112,0,0,1-.1185-.1c-.0345-.4755-.306-2.4655-.306-3.891Zm1.103,9.3005a1.318,1.318,0,0,1-1.45-1.3505,1.3695,1.3695,0,0,1,1.348-1.39071q.051-.0008.102.00221a1.35,1.35,0,0,1,1.45,1.3885,1.31751,1.31751,0,0,1-1.45,1.3505Z"/>
  <polygon class="fill" points="10 1 10 6 15 6 10 1"/>
</svg>