<svg xmlns:xlink="http://www.w3.org/1999/xlink" xmlns="http://www.w3.org/2000/svg" height="18" viewBox="0 0 18 18" width="18">
  <defs>
    <style>
      .fill {
        fill: #464646;
      }
    </style>
  </defs>
  <title>S FileXML 18 N</title>
  <rect id="Canvas" fill="#ff13dc" opacity="0" width="18" height="18"/><polygon class="fill" points="10 1 10 6 15 6 10 1"/>
  <path class="fill" d="M9.5,7A.5.5,0,0,1,9,6.5V1H3.5a.5.5,0,0,0-.5.5v15a.5.5,0,0,0,.5.5h11a.5.5,0,0,0,.5-.5V7Zm3.5345,8.376H12.069a.306.306,0,0,1-.295-.172s-.705-1.2-.954-1.6355c-.3.55-.6075,1.1065-.915,1.6445a.283.283,0,0,1-.2665.1625H8.719a.238.238,0,0,1-.203-.3625l1.47-2.4L8.55,10.2345a.238.238,0,0,1,.2035-.3615H9.7a.335.335,0,0,1,.292.171l.9,1.6.853-1.594a.335.335,0,0,1,.295-.1765h.893a.238.238,0,0,1,.203.362l-1.415,2.315,1.516,2.463a.238.238,0,0,1-.2025.3625ZM7.31,14.514a.1285.1285,0,0,1-.1045.204H5.8335a.12848.12848,0,0,1-.103-.05L4,12.359,5.7305,10.05a.128.128,0,0,1,.103-.05h1.372a.1285.1285,0,0,1,.1045.2035l-1.7525,2.155Z"/>
</svg>