<svg xmlns:xlink="http://www.w3.org/1999/xlink" xmlns="http://www.w3.org/2000/svg" height="18" viewBox="0 0 18 18" width="18">
  <defs>
    <style>
      .fill {
        fill: #464646;
      }
    </style>
  </defs>
  <title>S FileUser 18 N</title>
  <rect id="Canvas" fill="#ff13dc" opacity="0" width="18" height="18"/><path class="fill" d="M14.3385,14.271v-.7a.483.483,0,0,1,.123-.3115,3.683,3.683,0,0,0,.8375-2.3c0-1.7395-.9225-2.712-2.3165-2.712s-2.343,1.0105-2.343,2.712a3.72352,3.72352,0,0,0,.878,2.3.48246.48246,0,0,1,.123.3115v.6945a.479.479,0,0,1-.418.4835c-2.8.2435-3.2195,2.1595-3.2195,2.915C8.0025,17.75,8,18,8,18H18v-.3335c0-.724-.4945-2.633-3.245-2.9125A.4815.4815,0,0,1,14.3385,14.271Z"/>
  <path class="fill" d="M8,1,3,6H8Zm6.5,0H9V6.5a.5.5,0,0,1-.5.5H3v9.5a.5.5,0,0,0,.5.5H6.5695A4.35549,4.35549,0,0,1,9.845,13.4795,5.131,5.131,0,0,1,9.14,10.964c0-2.4795,1.58-4.212,3.843-4.212A3.775,3.775,0,0,1,15,7.3125V1.5A.5.5,0,0,0,14.5,1Z"/>
</svg>