<svg xmlns:xlink="http://www.w3.org/1999/xlink" xmlns="http://www.w3.org/2000/svg" height="18" viewBox="0 0 18 18" width="18">
  <defs>
    <style>
      .fill {
        fill: #464646;
      }
    </style>
  </defs>
  <title>S FileGlobe 18 N</title>
  <rect id="Canvas" fill="#ff13dc" opacity="0" width="18" height="18"/><polygon class="fill" points="10 1 10 6 15 6 10 1"/>
  <path class="fill" d="M13.0785,14.636c.55.8205,1.3865,2.0795.9435,3.209a1.53739,1.53739,0,0,1-.2315-.0365,3.74907,3.74907,0,0,1-3-3.483,3.5585,3.5585,0,0,1,1.4465-2.853c.059.7165-.539,1.0775-.3075,1.9155C12.2,14.375,12.619,13.9525,13.0785,14.636Zm4.526-.083c-.3565-.1355-.6625.3265-.6895-.922a1.276,1.276,0,0,1,.369-.8855.68067.68067,0,0,1,.1615-.077c-.042-.0775-.0895-.15-.137-.2255-.0085.0045-.0155.01-.024.0135-.277.129-.315.167-.443,0a.35.35,0,0,1,.0765-.515,3.539,3.539,0,0,0-2.58-1.156c.45.006.9845.3385.7115.87.041-.0845-.8915-.2855-1.0185-.2855-.171,0,.35-.6395.3-.584a3.56046,3.56046,0,0,0-1.4645.315c.242.1565.5115.1.7845.169a.66394.66394,0,0,1,.243.1.818.818,0,0,0-.243-.1c-.4-.0465.195,1.0575.172.9105a.51.51,0,0,1,1.012-.0305.82748.82748,0,0,1-.1855.5c-.312.4105-.3755,1.141-.5315.954-1.459-.6-1.3.193-.8195.721.767.8455.3775.0865,1.382.5295.8075.356,1.7795.4405,1.5425.709-.7175.8125-.5665,1.35-1.836,2.3035.1055-.003.4425-.0365.5115-.05a3.603,3.603,0,0,0,2.961-3.188A.53054.53054,0,0,1,17.6045,14.553Z"/>
  <path class="fill" d="M9.2955,14.3215A5.031,5.031,0,0,1,15,9.3365V7H9.5A.5.5,0,0,1,9,6.5V1H3.5a.5.5,0,0,0-.5.5v15a.5.5,0,0,0,.5.5h6.5675A5.00752,5.00752,0,0,1,9.2955,14.3215Z"/>
</svg>