<svg xmlns:xlink="http://www.w3.org/1999/xlink" xmlns="http://www.w3.org/2000/svg" height="18" viewBox="0 0 18 18" width="18">
  <defs>
    <style>
      .fill {
        fill: #464646;
      }
    </style>
  </defs>
  <title>S Filmroll 18 N</title>
  <rect id="Canvas" fill="#ff13dc" opacity="0" width="18" height="18"/><rect class="fill" height="11" rx="0.5" width="7" x="2" y="4"/>
  <path class="fill" d="M13,12a2.5075,2.5075,0,0,1,2.5-2.5H16a1,1,0,0,0,1-1V6a1,1,0,0,0-1-1H10v9h1.5A1.5,1.5,0,0,0,13,12.5Z"/>
  <path class="fill" d="M7,3V2a.5.5,0,0,0-.5-.5h-2A.5.5,0,0,0,4,2V3Z"/>
</svg>