<svg xmlns:xlink="http://www.w3.org/1999/xlink" xmlns="http://www.w3.org/2000/svg" height="18" viewBox="0 0 18 18" width="18">
  <defs>
    <style>
      .fill {
        fill: #464646;
      }
    </style>
  </defs>
  <title>S FilterStar 18 N</title>
  <rect id="Canvas" fill="#ff13dc" opacity="0" width="18" height="18"/><path class="fill" d="M7.4,13.5A6.573,6.573,0,0,1,9,9.2945c1.0415-1.347,5.8665-7.486,5.8665-7.486A.5.5,0,0,0,14.473,1H.527a.5.5,0,0,0-.3935.8085L6,9.2945V16.95a.496.496,0,0,0,.84.4125L8.009,16.143A6.06548,6.06548,0,0,1,7.4,13.5Z"/>
  <path class="fill" d="M13.5,9.05a4.45,4.45,0,1,0,4.45,4.45A4.45,4.45,0,0,0,13.5,9.05Zm3.437,3.5415L15.0425,14.11l.6405,2.34a.1.1,0,0,1-.153.111L13.5,15.2305,11.4705,16.563a.1.1,0,0,1-.153-.111l.6405-2.342-1.8945-1.5185a.1.1,0,0,1,.0585-.18l2.425-.115.859-2.271a.1.1,0,0,1,.189,0l.859,2.271,2.425.115a.1.1,0,0,1,.058.18Z"/>
</svg>