<svg xmlns="http://www.w3.org/2000/svg" width="18" height="18" viewBox="0 0 18 18"><path d="M11.898 0H.414c-.16 0-.3.09-.371.23A.41.41 0 0 0 .09.664l4.828 6.172v6.305a.42.42 0 0 0 .23.41c.153.074.34.047.465-.07L7.25 11.77a.5.5 0 0 0 .14-.348V6.836L12.224.668A.412.412 0 0 0 11.898 0" style="stroke: none; fill-rule: nonzero; fill: rgb(112, 112, 112); fill-opacity: 1;"></path><path d="m14.293 7.871-1.66-1.453a.2.2 0 0 0-.145-.063.21.21 0 0 0-.148.063.2.2 0 0 0-.059.144v.825H8.984a.41.41 0 0 0-.41.41v2.11c0 .226.184.413.41.413h.414c.11 0 .211-.047.29-.12a.43.43 0 0 0 .117-.294V8.617h2.476v.824c0 .055.024.11.063.149.039.035.09.058.144.058.055 0 .11-.023.145-.062l1.66-1.457a.2.2 0 0 0 0-.258M8.621 12.379l1.66 1.457a.2.2 0 0 0 .145.059.2.2 0 0 0 .207-.203v-.825h3.293c.23 0 .414-.183.414-.414v-2.11a.41.41 0 0 0-.414-.41h-.41a.405.405 0 0 0-.407.41v1.29h-2.476v-.824a.2.2 0 0 0-.063-.145.2.2 0 0 0-.148-.059.2.2 0 0 0-.145.06l-1.66 1.456a.22.22 0 0 0 0 .262" style="stroke: none; fill-rule: nonzero; fill: rgb(112, 112, 112); fill-opacity: 1;"></path></svg>