<svg xmlns:xlink="http://www.w3.org/1999/xlink" xmlns="http://www.w3.org/2000/svg" height="18" viewBox="0 0 18 18" width="18">
  <defs>
    <style>
      .fill {
        fill: #464646;
      }
    </style>
  </defs>
  <title>S FindAndReplace 18 N</title>
  <rect id="Canvas" fill="#ff13dc" opacity="0" width="18" height="18"/><path class="fill" d="M17.816,16.314l-3.1385-4.1925a6.0055,6.0055,0,1,0-10.315-3.45,3.28042,3.28042,0,0,0,1.1375.64,5.00248,5.00248,0,1,1,4.5435,3.6565c-.0155.0095-.029.023-.0445.032a6.16368,6.16368,0,0,1-1.75.6325,5.994,5.994,0,0,0,4.6965-.239L16.083,17.586a1.0775,1.0775,0,0,0,1.733-1.272Z"/>
  <path class="fill" d="M11.7335,7.8685a5.576,5.576,0,0,1-2.6065,3.487,5.62578,5.62578,0,0,1-7.4-2.1295l1.2075-.668A4.16851,4.16851,0,0,0,8.376,10a3.80252,3.80252,0,0,0,1.96-2.55L8.4545,6.8875l3.3885-1.874,1.914,3.46Z"/>
  <path class="fill" d="M4.278,2.5355A3.25,3.25,0,0,1,6.486,1.96a6.93638,6.93638,0,0,1,1.7-.7175,4.45751,4.45751,0,0,0-4.6545.25A4.373,4.373,0,0,0,1.75,4.582L0,4.2875l1.9,2.666L4.561,5.056,2.95,4.7845A3.10648,3.10648,0,0,1,4.278,2.5355Z"/>
</svg>