<svg xmlns="http://www.w3.org/2000/svg" width="18" height="18" viewBox="0 0 18 18" class="spectrum-Icon_368b34 spectrum-Icon--sizeXS_368b34 parcel-icon" focusable="false" aria-hidden="true" role="img"><g id="icon-first-use" transform="translate(-15 -87)"><rect id="Canvas" width="18" height="18" transform="translate(15 87)" opacity="0"></rect><path id="cursor" d="M16.308,14.068a.23.23,0,0,1-.229.233h0l-4.385.007-3.3,3.624A.226.226,0,0,1,8.231,18,.23.23,0,0,1,8,17.77V6.231A.23.23,0,0,1,8.23,6h0a.226.226,0,0,1,.161.068l7.845,7.838a.226.226,0,0,1,.068.161Z" transform="translate(15 85)"></path><path id="one" d="M9.191,14.083c-.109,0-.146-.038-.146-.134V9.421a6.964,6.964,0,0,1-1.876.67c-.109.019-.146,0-.146-.115V8.358c0-.1.018-.133.109-.152a8.577,8.577,0,0,0,2.5-1.13A.462.462,0,0,1,9.9,7h1.042c.072,0,.091.038.091.134v6.815c0,.1-.037.134-.109.134Z" transform="translate(9.967 82.001)"></path></g></svg>