<svg xmlns:xlink="http://www.w3.org/1999/xlink" xmlns="http://www.w3.org/2000/svg" height="18" viewBox="0 0 18 18" width="18">
  <defs>
    <style>
      .fill {
        fill: #464646;
      }
    </style>
  </defs>
  <title>S FlagExclude 18 N</title>
  <rect id="Canvas" fill="#ff13dc" opacity="0" width="18" height="18"/><path class="fill" d="M9.3335,8.986A6.12951,6.12951,0,0,1,17,8.4465V3.824a.5.5,0,0,0-.3755-.49,9.74589,9.74589,0,0,0-2.333-.284,9.49415,9.49415,0,0,0-2.056.227.54652.54652,0,0,1-.65-.5425v-.805a.54349.54349,0,0,0-.407-.53,9.75,9.75,0,0,0-2.3-.274,9.716,9.716,0,0,0-4.875,1.5V10.206A9.687,9.687,0,0,1,8.883,8.7085.5305.5305,0,0,1,9.3335,8.986Z"/>
  <rect class="fill" height="16" rx="0.5" width="2" x="1" y="1"/>
  <path class="fill" d="M13.5,9.05a4.45,4.45,0,1,0,4.45,4.45A4.45,4.45,0,0,0,13.5,9.05ZM10,13.5a3.46708,3.46708,0,0,1,.7375-2.126l4.8885,4.8885A3.483,3.483,0,0,1,10,13.5Zm6.2625,2.126L11.374,10.7375a3.483,3.483,0,0,1,4.8885,4.8885Z"/>
</svg>