<svg xmlns:xlink="http://www.w3.org/1999/xlink" xmlns="http://www.w3.org/2000/svg" height="18" viewBox="0 0 18 18" width="18">
  <defs>
    <style>
      .fill {
        fill: #464646;
      }
    </style>
  </defs>
  <title>S FlashlightOn 18 N</title>
  <rect id="Canvas" fill="#ff13dc" opacity="0" width="18" height="18"/><path class="fill" d="M13.45,5.074a.522.522,0,0,1-.369-.8905L14.8175,2.445a.5215.5215,0,0,1,.74176.73324L15.555,3.1825,13.8165,4.921A.519.519,0,0,1,13.45,5.074Z"/>
  <path class="fill" d="M11.3315,3.425a.52.52,0,0,1-.5145-.608l.35-2.081a.5215.5215,0,1,1,1.03127.156L12.1955.9085l-.35,2.081A.52151.52151,0,0,1,11.3315,3.425Z"/>
  <path class="fill" d="M15.0965,7.192a.5215.5215,0,0,1-.0855-1.036l2.081-.3475a.52119.52119,0,0,1,.1725,1.028l-2.081.35A.46918.46918,0,0,1,15.0965,7.192Z"/>
  <path class="fill" d="M14.6805,9.1045l-.42.4205L8.475,3.7395l.4205-.42a.4085.4085,0,0,1,.57771-.00079L9.474,3.3195,14.6805,8.526a.4085.4085,0,0,1,.00079.57771Z"/>
  <path class="fill" d="M7.6585,4.565l-.34.3585a.81748.81748,0,0,0-.2.536L6.3,9.245,1.0915,14.4555a.4085.4085,0,0,0-.00079.57771l.00079.00079,1.886,1.8855a.4085.4085,0,0,0,.57771.00079L3.556,16.9195,8.755,11.7l3.7855-.818a.81748.81748,0,0,0,.536-.2l.3585-.34Zm-.653,7.297-1.227,1.2275a.614.614,0,0,1-.868-.868l1.2275-1.227a.6135.6135,0,0,1,.8675.8675Z"/>
</svg>