<svg xmlns:xlink="http://www.w3.org/1999/xlink" xmlns="http://www.w3.org/2000/svg" height="18" viewBox="0 0 18 18" width="18">
  <defs>
    <style>
      .fill {
        fill: #464646;
      }
    </style>
  </defs>
  <title>S FlashlightOff 18 N</title>
  <rect id="Canvas" fill="#ff13dc" opacity="0" width="18" height="18"/><path class="fill" d="M14.6805,9.1045l-.42.4205L8.475,3.7395l.4205-.42a.4085.4085,0,0,1,.57771-.00079L9.474,3.3195,14.6805,8.526a.4085.4085,0,0,1,.00079.57771Z"/>
  <path class="fill" d="M7.6585,4.565l-.34.3585a.81748.81748,0,0,0-.2.536L6.3,9.245,1.0915,14.4555a.4085.4085,0,0,0-.00079.57771l.00079.00079,1.886,1.8855a.4085.4085,0,0,0,.57771.00079L3.556,16.9195,8.755,11.7l3.7855-.818a.81748.81748,0,0,0,.536-.2l.3585-.34Zm-.653,7.297-1.227,1.2275a.614.614,0,0,1-.868-.868l1.2275-1.227a.6135.6135,0,0,1,.8675.8675Z"/>
</svg>