<svg xmlns:xlink="http://www.w3.org/1999/xlink" xmlns="http://www.w3.org/2000/svg" height="18" viewBox="0 0 18 18" width="18">
  <defs>
    <style>
      .fill {
        fill: #464646;
      }
    </style>
  </defs>
  <title>S FlashAuto 18 N</title>
  <rect id="Canvas" fill="#ff13dc" opacity="0" width="18" height="18"/><polygon class="fill" points="3 1 10 1 6.001 7 11 7 1.451 18 1 18 4.001 10 0.125 10 3 1"/>
  <path class="fill" d="M14.209,8.2085c-.013-.067-.027-.0805-.0945-.0805h-1.877c-.0535,0-.0805.0405-.0805.0945a2.06588,2.06588,0,0,1-.122.7275L9.2535,16.865c-.014.0945.013.135.0945.135h1.35a.1335.1335,0,0,0,.15-.108L11.477,15h3.4565L15.6,16.919a.136.136,0,0,0,.1355.081H17.25c.0805,0,.0945-.0405.0805-.1215Zm-1.026,1.27h.013c.2705.945,1.05,3.2405,1.332,4.132h-2.65C12.2845,12.382,12.967,10.383,13.183,9.4785Z"/>
</svg>