<svg xmlns:xlink="http://www.w3.org/1999/xlink" xmlns="http://www.w3.org/2000/svg" height="18" viewBox="0 0 18 18" width="18">
  <defs>
    <style>
      .fill {
        fill: #464646;
      }
    </style>
  </defs>
  <title>S FolderAddTo 18 N</title>
  <rect id="Canvas" fill="#ff13dc" opacity="0" width="18" height="18"/><path class="fill" d="M6.032,13.709,10.21,9.171a1.543,1.543,0,0,1,1.1065-.4805A1.522,1.522,0,0,1,12.837,10.209v.4715A6.921,6.921,0,0,1,17,12.8025V5.5a.5.5,0,0,0-.5-.5H1V15.5a.5.5,0,0,0,.5.5H8.1425Z"/>
  <path class="fill" d="M11.6365,11.8V10.209a.318.318,0,0,0-.543-.225l-3.43,3.7245,3.43,3.7245a.318.318,0,0,0,.543-.225V15.5935a5.84349,5.84349,0,0,1,5.958,2.316.225.225,0,0,0,.4055-.13C18,16.819,16.904,11.8,11.6365,11.8Z"/>
  <path class="fill" d="M8,4H1V2.75A.75.75,0,0,1,1.75,2H5.586a1,1,0,0,1,.707.293Z"/>
</svg>