<svg xmlns:xlink="http://www.w3.org/1999/xlink" xmlns="http://www.w3.org/2000/svg" height="18" viewBox="0 0 18 18" width="18">
  <defs>
    <style>
      .fill {
        fill: #464646;
      }
    </style>
  </defs>
  <title>S FolderUser 18 N</title>
  <rect id="Canvas" fill="#ff13dc" opacity="0" width="18" height="18"/><path class="fill" d="M8,3H1V1.75A.75.75,0,0,1,1.75,1H5.586a1,1,0,0,1,.707.293Z"/>
  <path class="fill" d="M14.3385,14.271v-.7a.483.483,0,0,1,.123-.3115,3.683,3.683,0,0,0,.8375-2.3c0-1.7395-.9225-2.712-2.3165-2.712s-2.343,1.0105-2.343,2.712a3.72352,3.72352,0,0,0,.878,2.3.48246.48246,0,0,1,.123.3115v.6945a.479.479,0,0,1-.418.4835c-2.8.2435-3.2195,2.1595-3.2195,2.915C8.0025,17.75,8,18,8,18H18v-.3335c0-.724-.4945-2.633-3.245-2.9125A.4815.4815,0,0,1,14.3385,14.271Z"/>
  <path class="fill" d="M9.8445,13.4795a5.16052,5.16052,0,0,1-.705-2.5155c0-2.4795,1.58-4.212,3.843-4.212,2.282,0,3.8165,1.6925,3.8165,4.212a5.246,5.246,0,0,1-.6805,2.5295,5.34187,5.34187,0,0,1,.8815.346V4.5a.5.5,0,0,0-.5-.5H1V14.5a.5.5,0,0,0,.5.5H7.4855A4.524,4.524,0,0,1,9.8445,13.4795Z"/>
</svg>