<svg xmlns:xlink="http://www.w3.org/1999/xlink" xmlns="http://www.w3.org/2000/svg" height="18" viewBox="0 0 18 18" width="18">
  <defs>
    <style>
      .fill {
        fill: #464646;
      }
    </style>
  </defs>
  <title>S FolderRemove 18 N</title>
  <rect id="Canvas" fill="#ff13dc" opacity="0" width="18" height="18"/><path class="fill" d="M8,3H1V1.75A.75.75,0,0,1,1.75,1H5.586a1,1,0,0,1,.707.293Z"/>
  <path class="fill" d="M7.35,13.5A6.15,6.15,0,0,1,17,8.443V4.5a.5.5,0,0,0-.5-.5H1V14.5a.5.5,0,0,0,.5.5H7.5345A6.15037,6.15037,0,0,1,7.35,13.5Z"/>
  <path class="fill" d="M13.55,9.1A4.45,4.45,0,1,0,18,13.55,4.45,4.45,0,0,0,13.55,9.1Zm2.913,6.1335a.25.25,0,0,1,0,.3535l-.876.876a.25.25,0,0,1-.3535,0L13.55,14.7795,11.8665,16.463a.25.25,0,0,1-.3535,0l-.876-.876a.25.25,0,0,1,0-.3535L12.3205,13.55,10.637,11.8665a.25.25,0,0,1,0-.3535l.876-.876a.25.25,0,0,1,.3535,0L13.55,12.3205l1.6835-1.6835a.25.25,0,0,1,.3535,0l.876.876a.25.25,0,0,1,0,.3535L14.7795,13.55Z"/>
</svg>