<svg xmlns:xlink="http://www.w3.org/1999/xlink" xmlns="http://www.w3.org/2000/svg" height="18" viewBox="0 0 18 18" width="18">
  <defs>
    <style>
      .fill {
        fill: #464646;
      }
    </style>
  </defs>
  <title>S FollowOff 18 N</title>
  <rect id="Canvas" fill="#ff13dc" opacity="0" width="18" height="18"/><path class="fill" d="M3.95,14.45l-.379.05a1.45,1.45,0,0,1-1.62561-1.25L1.945,13.247l-.15-1.3625,3.258-.4225.15,1.3625a1.45,1.45,0,0,1-1.25052,1.62518ZM2.8795.669C2.0415-.3075,1.105-.4.443,1.654c-.98,4.35-.22,6.105,1.1615,8.96l3.258-.4225c-.35-2.697.3215-3.9075.181-4.993A8.78449,8.78449,0,0,0,2.8795.669Z"/>
  <path class="fill" d="M6.8445,13.625l.5095.0855c0-.07-.004-.14-.004-.2105a6.15251,6.15251,0,0,1,4.5335-5.935,18.71909,18.71909,0,0,0-.2965-2.3c-.582-2.08-1.5215-2.024-2.396-1.08A8.782,8.782,0,0,0,6.855,8.629C6.673,9.708,7.2975,10.9435,6.8445,13.625Z"/>
  <path class="fill" d="M7.5535,15.0735l-.95-.16-.2,1.3295a1.45,1.45,0,0,0,1.18659,1.67242l.00341.00058.377.0635a1.447,1.447,0,0,0,1.073-.2415A6.13907,6.13907,0,0,1,7.5535,15.0735Z"/>
  <path class="fill" d="M13.5,9.05a4.45,4.45,0,1,0,4.45,4.45A4.45,4.45,0,0,0,13.5,9.05ZM10,13.5a3.46708,3.46708,0,0,1,.7375-2.126l4.8885,4.8885A3.483,3.483,0,0,1,10,13.5Zm6.2625,2.126L11.374,10.7375a3.483,3.483,0,0,1,4.8885,4.8885Z"/>
</svg>