<svg xmlns:xlink="http://www.w3.org/1999/xlink" xmlns="http://www.w3.org/2000/svg" height="18" viewBox="0 0 36 36" width="18">
  <defs>
    <style>
      .fill {
        fill: #464646;
      }
    </style>
  </defs>
  <title>S Subscribe 18 N</title>
 <path fill-rule="evenodd" d="M14.088,28.9l-.758.1a2.9,2.9,0,0,1-3.252-2.506l-.3-2.725,6.516-.845.3,2.725A2.9,2.9,0,0,1,14.088,28.9ZM11.945,1.338C10.27-.615,8.4-.8,7.073,3.308c-1.96,8.7-.44,12.21,2.322,17.92l6.516-.845c-.7-5.394.644-7.815.362-9.986A17.567,17.567,0,0,0,11.945,1.338Z"></path><path fill-rule="evenodd" d="M21.373,35.832l.754.127a2.9,2.9,0,0,0,3.346-2.38l.4-2.659L19.4,29.827l-.4,2.659A2.9,2.9,0,0,0,21.373,35.832Zm3.2-27.462c1.749-1.888,3.628-2,4.794,2.155,1.626,8.767-.027,12.218-3.006,17.818L19.876,27.25c.9-5.363-.344-7.834.02-9.992A17.569,17.569,0,0,1,24.568,8.37Z"></path>
</svg>