<svg xmlns:xlink="http://www.w3.org/1999/xlink" xmlns="http://www.w3.org/2000/svg" height="18" viewBox="0 0 18 18" width="18">
  <defs>
    <style>
      .fill {
        fill: #464646;
      }
    </style>
  </defs>
  <title>S Forecast 18 N</title>
  <rect id="Canvas" fill="#ff13dc" opacity="0" width="18" height="18"/><path class="fill" d="M14.4855,17H3.5a.55848.55848,0,0,1-.4765-.7385L3.9395,13h10.107l.9155,3.2615A.55852.55852,0,0,1,14.4855,17Z"/>
  <path class="fill" d="M16.425,1.338,15.3885,2.5695a1.31149,1.31149,0,0,0-.2385,1.263l.5135,1.5255-1.233-1.0365A1.31147,1.31147,0,0,0,13.168,4.082l-1.526.513,1.0365-1.2315a1.31148,1.31148,0,0,0,.24-1.2635L12.405.575l1.2315,1.0365A1.31149,1.31149,0,0,0,14.9,1.85Z"/>
  <path class="fill" d="M14.5675,6.658,13.503,5.7625l-1.3185.4435A1.7,1.7,0,0,1,10.342,3.5l.8955-1.0645L11.03,1.819A6.176,6.176,0,0,0,4.5,12h8.6455A6.158,6.158,0,0,0,15,7.588a6.287,6.287,0,0,0-.0375-.6815A1.7081,1.7081,0,0,1,14.5675,6.658Z"/>
</svg>