<svg xmlns:xlink="http://www.w3.org/1999/xlink" xmlns="http://www.w3.org/2000/svg" height="18" viewBox="0 0 18 18" width="18">
  <defs>
    <style>
      .fill {
        fill: #464646;
      }
    </style>
  </defs>
  <title>S ForPlacementOnly 18 N</title>
  <rect id="Canvas" fill="#ff13dc" opacity="0" width="18" height="18"/><path class="fill" d="M8.242,7.0905c-.15,0-.289.003-.3965.007V8.753h.3c1.1,0,1.1-.6425,1.1-.8535C9.245,7.231,8.7,7.0905,8.242,7.0905Z"/>
  <path class="fill" d="M13.6785,7.039c-.793,0-1.2655.6825-1.2655,1.827,0,.8965.3435,1.8535,1.3085,1.8535.781,0,1.25-.6925,1.25-1.8535C14.962,7.705,14.491,7.039,13.6785,7.039Z"/>
  <path class="fill" d="M9,1a8,8,0,1,0,8,8A8,8,0,0,0,9,1ZM6.009,7.0465l-.0595.0725-.15.0165H3.666V8.289h2.1l.0615.2615V9.54l-.2615.0615h-1.9V11.875l-.2705.0705H2.3l-.0525-.2705v-5.8l.2615-.0605H5.7035a.263.263,0,0,1,.2775.2375l.088.878Zm2.1365,3.012c-.1355,0-.2215-.0035-.3-.0065v1.831l-.2615.0615H6.497l-.0605-.262v-5.79l.253-.0705c.4355-.0115.9805-.0265,1.5175-.0265,1.8045,0,2.4475,1.078,2.4475,2.087C10.6545,9.2245,9.6925,10.0585,8.1455,10.0585Zm5.541,1.9655c-1.657,0-2.7275-1.2405-2.7275-3.158a2.82531,2.82531,0,0,1,2.7365-3.132c1.622,0,2.719,1.25,2.7285,3.1045C16.424,10.774,15.35,12.024,13.6865,12.024Z"/>
</svg>