<svg xmlns:xlink="http://www.w3.org/1999/xlink" xmlns="http://www.w3.org/2000/svg" height="18" viewBox="0 0 18 18" width="18">
  <defs>
    <style>
      .fill {
        fill: #464646;
      }
    </style>
  </defs>
  <title>S Function 18 N</title>
  <rect id="Canvas" fill="#ff13dc" opacity="0" width="18" height="18"/><path class="fill" d="M3.212,16.706a3.674,3.674,0,0,1-1.6415-.356c-.059-.0285-.09-.0435-.0685-.206l.2285-1.98a4.20837,4.20837,0,0,0,1.503.314c1.2205,0,1.5555-.8845,1.8445-2.8645l.019-.1405a7.00313,7.00313,0,0,0,.0945-.831c.01-.1915.0815-1.187.0815-1.187H2.446l.4745-1.4575a.2405.2405,0,0,1,.2295-.167H5.404s.1315-1.4435.2115-1.9895l.0805-.569C6.1625,1.8945,7.563.254,9.9775.254A2.8046,2.8046,0,0,1,11.23.475a.147.147,0,0,1,.115.1665L11.072,2.503c-.0155.096-.05.096-.0615.096a3.163,3.163,0,0,0-1.1-.204c-1.529,0-1.884,1.5745-2.1625,3.4765l-.0645.4645c-.05.35-.1405,1.4935-.1405,1.4935h2.981l-.474,1.458a.242.242,0,0,1-.2295.1665h-2.4S7.3555,10.5,7.35,10.667a8.62,8.62,0,0,1-.129,1.1155C6.8575,14.3395,6.1205,16.706,3.212,16.706Zm11.867.221c-.4055-.592-1.35-2.012-1.8755-2.8285.473-.6755,1.322-2.031,1.738-2.694l.023-.0375a.187.187,0,0,0,.0115-.195.1925.1925,0,0,0-.18-.09H13.531a.2095.2095,0,0,0-.2155.123l-1.096,1.917L11.184,11.2355a.243.243,0,0,0-.2555-.1535H9.4965a.19649.19649,0,0,0-.186.1035.194.194,0,0,0,.023.2l1.744,2.78c-.2805.415-.6425.9765-.993,1.5205-.293.455-.5775.8975-.797,1.2255a.19151.19151,0,0,0-.0175.2.2.2,0,0,0,.178.1065h1.2785a.23751.23751,0,0,0,.239-.134l1.1265-1.925,1.093,1.9a.296.296,0,0,0,.263.1565h1.4675a.195.195,0,0,0,.197-.1115A.164.164,0,0,0,15.079,16.927Z"/>
</svg>