<svg xmlns:xlink="http://www.w3.org/1999/xlink" xmlns="http://www.w3.org/2000/svg" height="18" viewBox="0 0 18 18" width="18">
  <defs>
    <style>
      .fill {
        fill: #464646;
      }
    </style>
  </defs>
  <title>S Game 18 N</title>
  <rect id="Canvas" fill="#ff13dc" opacity="0" width="18" height="18"/><path class="fill" d="M17.5455,12.427,16.281,8.2c-.8635-2.8825-3.287-5.19-6.0165-5.19H7.354C4.624,3.01,2.2,5.3175,1.3375,8.2L.0725,12.427A1.44185,1.44185,0,0,0,1.848,14.332l.805-.647a9.664,9.664,0,0,1,12.312,0l.805.647A1.44175,1.44175,0,0,0,17.5455,12.427ZM5.6405,10.3845a2.5,2.5,0,1,1,2.5-2.5A2.5,2.5,0,0,1,5.6405,10.3845ZM11.557,8.1a1.75,1.75,0,1,1,1.75-1.75A1.75,1.75,0,0,1,11.557,8.1Zm2.693,3.4A1.75,1.75,0,1,1,16,9.75,1.75,1.75,0,0,1,14.25,11.5Z"/>
  <circle class="fill" cx="5.6405" cy="7.8845" r="1.25"/>
</svg>