<svg xmlns:xlink="http://www.w3.org/1999/xlink" xmlns="http://www.w3.org/2000/svg" height="18" viewBox="0 0 18 18" width="18">
  <defs>
    <style>
      .fill {
        fill: #464646;
      }
    </style>
  </defs>
  <title>S Gauge3 18 N</title>
  <rect id="Canvas" fill="#ff13dc" opacity="0" width="18" height="18"/><path class="fill" d="M9.4305,2.3815a.4335.4335,0,0,0-.861,0l-1.155,9.558a1.60925,1.60925,0,1,0,3.171,0Z"/>
  <path class="fill" d="M16.9825,9.377A8.08151,8.08151,0,0,0,10.908,2.146c.003.0185.0095.0355.0115.0545l.1885,1.558A6.511,6.511,0,0,1,15.5,9.9065a6.43876,6.43876,0,0,1-.3455,2.0585.246.246,0,0,0,.058.253l.781.782a.25.25,0,0,0,.409-.077A7.921,7.921,0,0,0,16.9825,9.377ZM1,9.9065A6.914,6.914,0,0,0,1.697,12.84a.25.25,0,0,0,.403.0665l.6875-.688a.24551.24551,0,0,0,.058-.254,6.23256,6.23256,0,0,1-.1565-3.56,6.667,6.667,0,0,1,4.2-4.6135L7.08,2.2a.45519.45519,0,0,1,.012-.0565A7.9965,7.9965,0,0,0,1,9.9065Z"/>
</svg>