<svg xmlns:xlink="http://www.w3.org/1999/xlink" xmlns="http://www.w3.org/2000/svg" height="18" viewBox="0 0 18 18" width="18">
  <defs>
    <style>
      .fill {
        fill: #464646;
      }
    </style>
  </defs>
  <title>S Gauge2 18 N</title>
  <rect id="Canvas" fill="#ff13dc" opacity="0" width="18" height="18"/><path class="fill" d="M3.35,6.8065l-.7675-1.663A7.956,7.956,0,0,0,1,9.9065,6.914,6.914,0,0,0,1.697,12.84a.25.25,0,0,0,.403.0665l.6875-.688a.24551.24551,0,0,0,.058-.254,6.23343,6.23343,0,0,1-.1565-3.56A6.56852,6.56852,0,0,1,3.35,6.8065ZM16.9825,9.377a8.06744,8.06744,0,0,0-7.701-7.466,7.96947,7.96947,0,0,0-3.611.7295l.993,1.245a6.281,6.281,0,0,1,2.61-.4735A6.508,6.508,0,0,1,15.5,9.9065a6.43876,6.43876,0,0,1-.3455,2.0585.246.246,0,0,0,.058.253l.781.782a.25.25,0,0,0,.409-.077A7.921,7.921,0,0,0,16.9825,9.377Z"/>
  <path class="fill" d="M4.505,3.5445a.4335.4335,0,0,0-.7415.437L7.619,12.803a1.60941,1.60941,0,1,0,2.7325-1.6095Z"/>
</svg>