<svg xmlns:xlink="http://www.w3.org/1999/xlink" xmlns="http://www.w3.org/2000/svg" height="18" viewBox="0 0 18 18" width="18">
  <defs>
    <style>
      .fill {
        fill: #464646;
      }
    </style>
  </defs>
  <title>S Gauge1 18 N</title>
  <rect id="Canvas" fill="#ff13dc" opacity="0" width="18" height="18"/><path class="fill" d="M16.9825,9.377A8,8,0,0,0,1,9.9065c0,.036.0065.071.007.107L2.517,9.85a6.06278,6.06278,0,0,1,.172-1.446A6.6,6.6,0,0,1,9.274,3.412,6.508,6.508,0,0,1,15.5,9.9065a6.43876,6.43876,0,0,1-.3455,2.0585.246.246,0,0,0,.058.253l.781.782a.25.25,0,0,0,.409-.077A7.921,7.921,0,0,0,16.9825,9.377Z"/>
  <path class="fill" d="M.423,11.607a.3455.3455,0,0,0,0,.684L8.907,13.55a1.60955,1.60955,0,1,0,.0045-3.1715Z"/>
</svg>