<svg xmlns:xlink="http://www.w3.org/1999/xlink" xmlns="http://www.w3.org/2000/svg" height="18" viewBox="0 0 18 18" width="18">
  <defs>
    <style>
      .fill {
        fill: #464646;
      }
    </style>
  </defs>
  <title>S Gauge5 18 N</title>
  <rect id="Canvas" fill="#ff13dc" opacity="0" width="18" height="18"/><path class="fill" d="M1.0175,9.377A8,8,0,0,1,17,9.9065c0,.036-.0065.071-.007.107L15.483,9.85a6.06278,6.06278,0,0,0-.172-1.446A6.6,6.6,0,0,0,8.726,3.412,6.508,6.508,0,0,0,2.5,9.9065a6.43876,6.43876,0,0,0,.3455,2.0585.246.246,0,0,1-.058.253L2.0065,13a.25.25,0,0,1-.409-.077A7.921,7.921,0,0,1,1.0175,9.377Z"/>
  <path class="fill" d="M17.577,11.607a.3455.3455,0,0,1,0,.684L9.093,13.55a1.60955,1.60955,0,1,1-.0045-3.1715Z"/>
</svg>