<svg xmlns:xlink="http://www.w3.org/1999/xlink" xmlns="http://www.w3.org/2000/svg" height="18" viewBox="0 0 18 18" width="18">
  <defs>
    <style>
      .fill {
        fill: #464646;
      }
    </style>
  </defs>
  <title>S Gauge4 18 N</title>
  <rect id="Canvas" fill="#ff13dc" opacity="0" width="18" height="18"/><path class="fill" d="M14.65,6.8065l.7685-1.663A7.956,7.956,0,0,1,17,9.9065a6.914,6.914,0,0,1-.697,2.9335.25.25,0,0,1-.403.0665l-.6875-.688a.24551.24551,0,0,1-.058-.254,6.23351,6.23351,0,0,0,.1565-3.56A6.56852,6.56852,0,0,0,14.65,6.8065ZM1.0175,9.377a8.0665,8.0665,0,0,1,7.7-7.466,7.96947,7.96947,0,0,1,3.611.7295l-.993,1.245a6.281,6.281,0,0,0-2.61-.4735A6.508,6.508,0,0,0,2.5,9.9065a6.43876,6.43876,0,0,0,.3455,2.0585.246.246,0,0,1-.058.253L2.0065,13a.25.25,0,0,1-.409-.077A7.921,7.921,0,0,1,1.0175,9.377Z"/>
  <path class="fill" d="M13.495,3.5445a.4335.4335,0,0,1,.7415.437l-3.855,8.8215A1.60941,1.60941,0,1,1,7.649,11.1935Z"/>
</svg>