<svg xmlns:xlink="http://www.w3.org/1999/xlink" xmlns="http://www.w3.org/2000/svg" height="18" viewBox="0 0 18 18" width="18">
  <defs>
    <style>
      .fill {
        fill: #464646;
      }
    </style>
  </defs>
  <title>S GearsEdit 18 N</title>
  <rect id="Canvas" fill="#ff13dc" opacity="0" width="18" height="18"/><path class="fill" d="M8.5965,12.893H7.534a3.0709,3.0709,0,0,0-.45-1.0895l.7565-.7565a.3035.3035,0,0,0,0-.429l-.46-.46a.3035.3035,0,0,0-.429,0l-.7555.757a3.07263,3.07263,0,0,0-1.089-.45V9.4035A.3035.3035,0,0,0,4.8035,9.1h-.607a.3035.3035,0,0,0-.3035.3035V10.466a3.07263,3.07263,0,0,0-1.089.45l-.7565-.758a.3035.3035,0,0,0-.429,0l-.46.46a.3035.3035,0,0,0,0,.429l.7565.757a3.0709,3.0709,0,0,0-.45,1.0895H.4035A.3035.3035,0,0,0,.1,13.197h0v.607a.3035.3035,0,0,0,.3035.3035H1.466a3.0709,3.0709,0,0,0,.45,1.0895l-.758.756a.3035.3035,0,0,0,0,.429l.46.46a.3035.3035,0,0,0,.429,0l.757-.757a3.07263,3.07263,0,0,0,1.089.45v1.0625a.3035.3035,0,0,0,.3035.3035h.607a.3035.3035,0,0,0,.3035-.3035V16.534a3.07263,3.07263,0,0,0,1.089-.45l.7565.7565a.3035.3035,0,0,0,.429,0l.46-.46a.3035.3035,0,0,0,0-.429L7.085,15.196a3.0709,3.0709,0,0,0,.45-1.0895H8.5975a.3035.3035,0,0,0,.3035-.3035v-.6065a.3035.3035,0,0,0-.3035-.3035ZM4.5,15.082A1.582,1.582,0,1,1,6.082,13.5h0A1.582,1.582,0,0,1,4.5,15.082Z"/>
  <path class="fill" d="M9.9835,12.018a.4325.4325,0,0,0,.5635-.237l.572-1.4a4.34533,4.34533,0,0,0,1.5.0125l2.094-2.094a1.61053,1.61053,0,0,1,1.0935-.4745h.05a1.5595,1.5595,0,0,1,1.112.459l.591.5905a.40305.40305,0,0,0,.036-.054l.3265-.8a.4325.4325,0,0,0-.237-.5635l-1.4-.5715a4.3744,4.3744,0,0,0-.006-1.6785l1.4055-.591a.4325.4325,0,0,0,.231-.566L17.55,3.1915a.4325.4325,0,0,0-.566-.231L15.5785,3.55a4.38113,4.38113,0,0,0-1.196-1.178l.5715-1.4a.432.432,0,0,0-.23627-.56341L14.7175.4085l-.8-.3265a.4325.4325,0,0,0-.5635.237l-.5715,1.4a4.38154,4.38154,0,0,0-1.6785.006L10.512.322A.4325.4325,0,0,0,9.946.091L9.0915.45a.4325.4325,0,0,0-.231.566L9.45,2.4215a4.378,4.378,0,0,0-1.178,1.196l-1.4-.5715a.432.432,0,0,0-.5633.23651L6.3085,3.283l-.3265.8a.4325.4325,0,0,0,.237.5635l1.4.5715a4.38035,4.38035,0,0,0,.006,1.6785l-1.4055.591a.4325.4325,0,0,0-.2305.566l.3595.854a.432.432,0,0,0,.5655.23121l.0005-.00021,1.405-.591a4.37889,4.37889,0,0,0,1.196,1.178l-.5715,1.4a.4325.4325,0,0,0,.237.5635ZM11.95,3.956A2.094,2.094,0,1,1,9.856,6.05,2.094,2.094,0,0,1,11.95,3.956Z"/>
  <path class="fill" d="M17.869,10.882,16.116,9.129a.36947.36947,0,0,0-.2635-.1075H15.841a.417.417,0,0,0-.282.1235L10.15,14.5565a.30555.30555,0,0,0-.0765.128l-1.0135,3c-.0345.1145.1395.2585.2385.2585a.14275.14275,0,0,0,.0185,0c.084-.0195,2.5615-.882,3-1.014a.29547.29547,0,0,0,.126-.076l5.41-5.414a.417.417,0,0,0,.123-.2685A.371.371,0,0,0,17.869,10.882ZM9.85,17.15l.78-2.2155,1.4355,1.4315C11.411,16.5615,10.4205,16.9785,9.85,17.15Z"/>
</svg>