<svg xmlns:xlink="http://www.w3.org/1999/xlink" xmlns="http://www.w3.org/2000/svg" height="18" viewBox="0 0 18 18" width="18">
  <defs>
    <style>
      .fill {
        fill: #464646;
      }
    </style>
  </defs>
  <title>S GlobeCheck 18 N</title>
  <rect id="Canvas" fill="#ff13dc" opacity="0" width="18" height="18"/><path class="fill" d="M7.35,13.5a6.15759,6.15759,0,0,1,.204-1.55A25.07476,25.07476,0,0,0,6.168,9.7C5.1315,8.157,4.189,9.111,3.573,6.882c-.523-1.891.827-2.706.694-4.324A8.03648,8.03648,0,0,0,1,9c0,4.556,3.9715,7.271,6.777,7.866a3.44443,3.44443,0,0,0,.523.084c.015-.0385.0235-.0775.0375-.116A6.113,6.113,0,0,1,7.35,13.5Z"/>
  <path class="fill" d="M8.0135,2.327a1.85251,1.85251,0,0,0-.55-.226c-.909-.1055.44,2.3885.3885,2.057a1.15173,1.15173,0,0,1,2.2825-.0735A1.871,1.871,0,0,1,9.716,5.217c-.7055.927-.85,2.577-1.2,2.155-3.2955-1.35-2.9325.4355-1.85,1.629,1.279,1.4105,1.1365.8465,1.8865.8565A6.116,6.116,0,0,1,14.836,7.5V7.4335a2.883,2.883,0,0,1,.833-2,1.55006,1.55006,0,0,1,.365-.1745c-.096-.1745-.2-.342-.31-.509-.0185.0095-.035.022-.0545.031-.625.2915-.7115.3775-1,0a.788.788,0,0,1,.1735-1.163,7.993,7.993,0,0,0-5.83-2.6105c1.0135.014,2.223.765,1.6065,1.9645.093-.1905-2.0135-.645-2.3-.645-.386,0,.7875-1.4445.68-1.3195A8.04239,8.04239,0,0,0,5.692,1.719c.547.353,1.1555.2295,1.772.382A1.507,1.507,0,0,1,8.0135,2.327Z"/>
  <path class="fill" d="M13.5,9.05a4.45,4.45,0,1,0,4.45,4.45A4.45,4.45,0,0,0,13.5,9.05Zm-1.169,7.156-2.064-2.064a.25.25,0,0,1,0-.3535l.518-.518a.25.25,0,0,1,.3535,0L12.504,14.636l3.053-3.053a.25.25,0,0,1,.3535,0l.5215.5215a.25.25,0,0,1,0,.3535l-3.75,3.75A.25.25,0,0,1,12.331,16.206Z"/>
</svg>