<svg xmlns:xlink="http://www.w3.org/1999/xlink" xmlns="http://www.w3.org/2000/svg" height="18" viewBox="0 0 18 18" width="18">
  <defs>
    <style>
      .fill {
        fill: #464646;
      }
    </style>
  </defs>
  <title>S GlobeSearch 18 N</title>
  <rect id="Canvas" fill="#ff13dc" opacity="0" width="18" height="18"/><path class="fill" d="M3.573,6.8845C3.05,4.991,4.4,4.176,4.267,2.558A8.03648,8.03648,0,0,0,1,9c0,4.556,3.9715,7.271,6.777,7.866a3.44943,3.44943,0,0,0,.523.084c1-2.55-.8865-5.3945-2.1315-7.247C5.131,8.159,4.189,9.113,3.573,6.8845Z"/>
  <path class="fill" d="M14.5915,8.979a3.01073,3.01073,0,0,0-2.5475,2.4615,2.976,2.976,0,0,0,.9675,2.742L11.135,17.11a.25.25,0,0,0,.07538.34543l.00012.00007.421.27a.25.25,0,0,0,.34542-.07538L11.977,17.65l1.873-2.9275a3,3,0,1,0,.7415-5.7435ZM15,13.95a2,2,0,1,1,2-2A2,2,0,0,1,15,13.95Z"/>
  <path class="fill" d="M16.0315,5.259c-.096-.1745-.2-.342-.31-.509-.0185.0095-.035.022-.0545.031-.625.2915-.7115.3775-1,0a.788.788,0,0,1,.1735-1.163A7.992,7.992,0,0,0,9.013,1.0075c1.0135.014,2.223.765,1.6065,1.9645.093-.1905-2.0135-.645-2.3-.645-.386,0,.7875-1.4445.68-1.3195A8.04239,8.04239,0,0,0,5.692,1.719c.547.353,1.1555.23,1.772.382a1.50711,1.50711,0,0,1,.55.226,1.85559,1.85559,0,0,0-.55-.226c-.909-.1055.44,2.3885.3885,2.057a1.15173,1.15173,0,0,1,2.2825-.0735A1.871,1.871,0,0,1,9.7165,5.217c-.7055.927-.85,2.577-1.2,2.155-3.2955-1.35-2.9325.4355-1.85,1.629,1.732,1.91.853.196,3.121,1.196a13.23338,13.23338,0,0,0,1.458.525A4.01149,4.01149,0,0,1,14.512,7.9875c.116-.015.23-.017.3445-.0225-.0105-.161-.018-.3345-.0225-.5315a2.883,2.883,0,0,1,.833-2A1.55013,1.55013,0,0,1,16.0315,5.259Z"/>
</svg>