<svg xmlns:xlink="http://www.w3.org/1999/xlink" xmlns="http://www.w3.org/2000/svg" height="18" viewBox="0 0 18 18" width="18">
  <defs>
    <style>
      .fill {
        fill: #464646;
      }
    </style>
  </defs>
  <title>S GlobeExit 18 N</title>
  <rect id="Canvas" fill="#ff13dc" opacity="0" width="18" height="18"/><path class="fill" d="M3.573,6.8845C3.05,4.991,4.4,4.176,4.267,2.558A8.03648,8.03648,0,0,0,1,9c0,4.556,3.9715,7.271,6.777,7.866a3.44943,3.44943,0,0,0,.523.084c1-2.55-.8865-5.3945-2.1315-7.247C5.131,8.159,4.189,9.113,3.573,6.8845Z"/>
  <path class="fill" d="M14.437,10.65a.25.25,0,0,0-.437.166v2.0225H10.5a.5.5,0,0,0-.5.5v2a.5.5,0,0,0,.5.5H14V17.75a.25.25,0,0,0,.437.166L18,14.3405Z"/>
  <path class="fill" d="M16.3905,9.5155c-.8055-.3065-1.496.7375-1.557-2.082a2.883,2.883,0,0,1,.833-2,1.55006,1.55006,0,0,1,.365-.1745c-.096-.1745-.2-.342-.31-.509-.0185.0095-.035.022-.0545.031-.625.2915-.7115.3775-1,0a.788.788,0,0,1,.1735-1.163A7.992,7.992,0,0,0,9.013,1.0075c1.0135.014,2.223.765,1.6065,1.9645.093-.1905-2.0135-.645-2.3-.645-.386,0,.7875-1.4445.68-1.3195A8.04239,8.04239,0,0,0,5.692,1.719c.547.353,1.1555.23,1.772.382a1.50711,1.50711,0,0,1,.55.226,1.85559,1.85559,0,0,0-.55-.226c-.909-.1055.44,2.3885.3885,2.057a1.15173,1.15173,0,0,1,2.2825-.0735A1.871,1.871,0,0,1,9.7165,5.217c-.7055.927-.85,2.577-1.2,2.155-3.2955-1.35-2.9325.4355-1.85,1.629,1.732,1.91.853.196,3.121,1.196C11,10.731,12.37,10.9945,13,11.289v-.471a1.25,1.25,0,0,1,2.1835-.831l1.4095,1.4585a7.7639,7.7639,0,0,0,.374-1.754A1.19655,1.19655,0,0,1,16.3905,9.5155Z"/>
</svg>