<svg xmlns:xlink="http://www.w3.org/1999/xlink" xmlns="http://www.w3.org/2000/svg" height="18" viewBox="0 0 18 18" width="18">
  <defs>
    <style>
      .fill {
        fill: #464646;
      }
    </style>
  </defs>
  <title>S GlobeStrikeClock 18 N</title>
  <rect id="Canvas" fill="#ff13dc" opacity="0" width="18" height="18"/><path class="fill" d="M13.5,9.042a4.45,4.45,0,1,0,4.45,4.45A4.45,4.45,0,0,0,13.5,9.042Zm0,7.95a3.5,3.5,0,1,1,3.5-3.5A3.5,3.5,0,0,1,13.5,16.992Z"/>
  <path class="fill" d="M13.9525,13.2585v-2.064a.25.25,0,0,0-.25-.25h-.5a.25.25,0,0,0-.25.25V13.809L14.59,14.845a.25.25,0,0,0,.345-.07745l0,0,.2675-.4225A.25.25,0,0,0,15.12505,14l0,0Z"/>
  <path class="fill" d="M7.35,13.5a6.159,6.159,0,0,1,.204-1.55A25.08447,25.08447,0,0,0,6.168,9.7C5.1315,8.157,4.189,9.111,3.573,6.882a3.02993,3.02993,0,0,1-.105-.9415L2.2545,4.729A8.0085,8.0085,0,0,0,1,9c0,4.556,3.9715,7.271,6.777,7.866a3.44443,3.44443,0,0,0,.523.084c.015-.0385.0235-.0775.037-.116A6.116,6.116,0,0,1,7.35,13.5Z"/>
  <path class="fill" d="M8.657,9.718A6.18543,6.18543,0,0,1,9.7175,8.6575l-7.442-7.443a.2545.2545,0,0,0-.35992-.00008L1.9155,1.2145l-.7.7a.2545.2545,0,0,0,0,.3595Z"/>
  <path class="fill" d="M8.0135,2.327a1.85559,1.85559,0,0,0-.55-.226c-.909-.1055.44,2.3885.3885,2.057a1.15173,1.15173,0,0,1,2.2825-.0735A1.871,1.871,0,0,1,9.716,5.217a5.09661,5.09661,0,0,0-.657,1.3685l1.507,1.507A6.121,6.121,0,0,1,14.836,7.5V7.4335a2.883,2.883,0,0,1,.833-2,1.55006,1.55006,0,0,1,.365-.1745c-.096-.1745-.2-.342-.31-.509-.0185.0095-.035.022-.0545.031-.625.2915-.7115.3775-1,0a.788.788,0,0,1,.1735-1.163,7.992,7.992,0,0,0-5.83-2.6105c1.0135.014,2.223.765,1.6065,1.9645.093-.1905-2.0135-.645-2.3-.645-.386,0,.7875-1.4445.68-1.3195A8.04239,8.04239,0,0,0,5.692,1.719c.547.353,1.1555.23,1.772.382A1.507,1.507,0,0,1,8.0135,2.327Z"/>
</svg>