<svg xmlns:xlink="http://www.w3.org/1999/xlink" xmlns="http://www.w3.org/2000/svg" height="18" viewBox="0 0 18 18" width="18">
  <defs>
    <style>
      .fill {
        fill: #464646;
      }
    </style>
  </defs>
  <title>S GlobeGrid 18 N</title>
  <rect id="Canvas" fill="#ff13dc" opacity="0" width="18" height="18"/><path class="fill" d="M8.5,0A8.5,8.5,0,1,0,17,8.5,8.5,8.5,0,0,0,8.5,0Zm6.8745,8H12.589a13.56039,13.56039,0,0,0-.4265-3H14.436A6.838,6.838,0,0,1,15.3745,8ZM13.719,4H11.85a7.34044,7.34044,0,0,0-1.1-2.02A6.932,6.932,0,0,1,13.719,4ZM8,9v3H5.866a12.40506,12.40506,0,0,1-.4555-3ZM5.4105,8A12.40506,12.40506,0,0,1,5.866,5H8V8ZM9,9h2.5895a12.40506,12.40506,0,0,1-.4555,3H9ZM9,8V5h2.134a12.40506,12.40506,0,0,1,.4555,3Zm1.784-4H9V1.8095A3.91426,3.91426,0,0,1,10.784,4ZM8,1.8095V4H6.216A3.91426,3.91426,0,0,1,8,1.8095ZM6.25,1.98A7.34047,7.34047,0,0,0,5.1525,4H3.281A6.932,6.932,0,0,1,6.25,1.98ZM2.564,5H4.8375A13.56039,13.56039,0,0,0,4.411,8H1.6255A6.838,6.838,0,0,1,2.564,5ZM1.6255,9H4.411a13.5603,13.5603,0,0,0,.4265,3H2.564A6.838,6.838,0,0,1,1.6255,9ZM3.281,13H5.1525A7.34047,7.34047,0,0,0,6.25,15.02,6.932,6.932,0,0,1,3.281,13Zm2.935,0H8v2.1905A3.91426,3.91426,0,0,1,6.216,13ZM9,15.1905V13h1.784A3.91426,3.91426,0,0,1,9,15.1905Zm1.75-.1705A7.34044,7.34044,0,0,0,11.85,13h1.8715A6.932,6.932,0,0,1,10.75,15.02ZM14.436,12H12.1625a13.5603,13.5603,0,0,0,.4265-3h2.7855A6.838,6.838,0,0,1,14.436,12Z"/>
</svg>