<svg xmlns:xlink="http://www.w3.org/1999/xlink" xmlns="http://www.w3.org/2000/svg" data-name="Layer 1" height="18" id="Layer_1" viewBox="0 0 18 18" width="18">
  <defs>
    <style>
      .fill {
        fill: #464646;
      }
    </style>
  </defs>
  <title>S_Government_18_N</title>
  <rect id="Canvas" fill="#ff13dc" opacity="0" width="18" height="18"/><path class="fill" d="M17.75,16H17v-.75a.25.25,0,0,0-.25-.25H16V7.41418a1,1,0,0,1,.29291-.70709L17,6H1l.70709.70709A1,1,0,0,1,2,7.41418V15H1.25a.25.25,0,0,0-.25.25V16H.25a.25.25,0,0,0-.25.25v.5A.25.25,0,0,0,.25,17h17.5a.25.25,0,0,0,.25-.25v-.5A.25.25,0,0,0,17.75,16ZM14,8v7H13V8ZM11,8v7H10V8ZM8,8v7H7V8ZM4,8H5v7H4ZM18,4.325V5H0V4.325A.5.5,0,0,1,.29694,3.868L8.59387.18048a.99986.99986,0,0,1,.81226,0L17.70306,3.868A.5.5,0,0,1,18,4.325Z"/>
</svg>