<svg xmlns:xlink="http://www.w3.org/1999/xlink" xmlns="http://www.w3.org/2000/svg" height="18" viewBox="0 0 18 18" width="18">
  <defs>
    <style>
      .fill {
        fill: #464646;
      }
    </style>
  </defs>
  <title>S GraphTrendAlert 18 N</title>
  <rect id="Canvas" fill="#ff13dc" opacity="0" width="18" height="18"/><path class="fill" d="M17.5,16.9045l-4.3295-8.579a.75.75,0,0,0-1.339,0L7.5,16.9045A.775.775,0,0,0,8.2035,18h8.593A.775.775,0,0,0,17.5,16.9045ZM12.25,10h.5a.25.25,0,0,1,.25.25v3.5a.25.25,0,0,1-.25.25h-.5a.25.25,0,0,1-.25-.25v-3.5A.25.25,0,0,1,12.25,10Zm.7455,6.2h-.991a.2045.2045,0,0,1-.2045-.2045v-.991a.2045.2045,0,0,1,.2045-.2045h.991a.2045.2045,0,0,1,.2045.2045v.9915A.20449.20449,0,0,1,12.9955,16.2Z"/>
  <path class="fill" d="M16.547,1.0305,12.677,6.438a2.21148,2.21148,0,0,1,1.7115,1.037L16.955,3.808A.25.25,0,0,0,17,3.665V1.176a.25.25,0,0,0-.453-.1455ZM9.989,2.687,7.264,10.183,5.2235,8.142a.25.25,0,0,0-.337-.0155L1.09,11.2895a.25.25,0,0,0-.09.192v2.094a.25.25,0,0,0,.4145.1885l3.524-3.0785L7.61,13.3565,9.85,8.921l.766-1.45a2.21252,2.21252,0,0,1,1.719-1.0335l-1.8875-3.777a.25.25,0,0,0-.4585.0265Z"/>
</svg>