<svg xmlns:xlink="http://www.w3.org/1999/xlink" xmlns="http://www.w3.org/2000/svg" height="18" viewBox="0 0 18 18" width="18">
  <defs>
    <style>
      .fill {
        fill: #464646;
      }
    </style>
  </defs>
  <title>S GraphStream 18 N</title>
  <rect id="Canvas" fill="#ff13dc" opacity="0" width="18" height="18"/><path class="fill" d="M12,5C9.5265,5,9.322,2,7,2,4.8935,2,4.05,5.2835,1,5.894V7.319A8.017,8.017,0,0,0,4.168,6.255,5.68708,5.68708,0,0,1,7,5.375a5.3,5.3,0,0,1,3.177,1.2,3.31747,3.31747,0,0,0,1.823.8,7.26738,7.26738,0,0,0,2.041-.381A14.09105,14.09105,0,0,1,17,6.4215V3.0825C14.823,3.458,14.173,5,12,5Zm0,6.625a8.25015,8.25015,0,0,0-2.121.4435A10.28459,10.28459,0,0,1,7,12.625a14.7629,14.7629,0,0,1-3.6415-.5165A16.72914,16.72914,0,0,0,1,11.6745v1.416C3.1645,13.478,4.584,15,7,15c1.73,0,3.532-1,5-1,1.3185,0,2.259,1.6085,5,1.9375v-3.365a19.60833,19.60833,0,0,1-2.88-.5585A9.77731,9.77731,0,0,0,12,11.625Zm0-3A4.36622,4.36622,0,0,1,9.4695,7.6075,4.17716,4.17716,0,0,0,7,6.625a4.56549,4.56549,0,0,0-2.25.7355A9.23452,9.23452,0,0,1,1,8.5745v1.844a17.45035,17.45035,0,0,1,2.6465.473A13.51818,13.51818,0,0,0,7,11.375a9.38381,9.38381,0,0,0,2.5265-.505A9.0088,9.0088,0,0,1,12,10.375a10.529,10.529,0,0,1,2.424.426A19.26819,19.26819,0,0,0,17,11.3155V7.671a12.93771,12.93771,0,0,0-2.616.524A8.31247,8.31247,0,0,1,12,8.625Z"/>
</svg>