<svg xmlns:xlink="http://www.w3.org/1999/xlink" xmlns="http://www.w3.org/2000/svg" height="18" viewBox="0 0 18 18" width="18">
  <defs>
    <style>
      .fill {
        fill: #464646;
      }
    </style>
  </defs>
  <title>S GraphBarHorizontal 18 N</title>
  <rect id="Canvas" fill="#ff13dc" opacity="0" width="18" height="18"/><path class="fill" d="M16.5,5H3V2H16.5a.5.5,0,0,1,.5.5v2A.5.5,0,0,1,16.5,5Z"/>
  <path class="fill" d="M11.5,9H3V6h8.5a.5.5,0,0,1,.5.5v2A.5.5,0,0,1,11.5,9Z"/>
  <path class="fill" d="M7.5,13H3V10H7.5a.5.5,0,0,1,.5.5v2A.5.5,0,0,1,7.5,13Z"/>
  <path class="fill" d="M5.5,17H3V14H5.5a.5.5,0,0,1,.5.5v2A.5.5,0,0,1,5.5,17Z"/>
  <rect class="fill" height="17" rx="0.25" width="1" x="1" y="1"/>
</svg>