<svg xmlns:xlink="http://www.w3.org/1999/xlink" xmlns="http://www.w3.org/2000/svg" height="18" viewBox="0 0 18 18" width="18">
  <defs>
    <style>
      .fill {
        fill: #464646;
      }
    </style>
  </defs>
  <title>S GraphTrendAdd 18 N</title>
  <rect id="Canvas" fill="#ff13dc" opacity="0" width="18" height="18"/><path class="fill" d="M10.0315,8.423l.447-1.2295.38.759a5.961,5.961,0,0,1,3.5635-.526L16.955,3.808A.25.25,0,0,0,17,3.665V1.176a.25.25,0,0,0-.453-.1455L12.4765,6.718l-2.029-4.0575a.25.25,0,0,0-.4585.0265L7.264,10.183,5.2235,8.142a.25.25,0,0,0-.337-.0155L1.09,11.2895a.25.25,0,0,0-.09.192v2.094a.25.25,0,0,0,.4145.1885l3.524-3.0785L7.369,13.116A6.1405,6.1405,0,0,1,10.0315,8.423Z"/>
  <path class="fill" d="M13.5,9.05a4.45,4.45,0,1,0,4.45,4.45A4.45,4.45,0,0,0,13.5,9.05Zm2.5,4.7a.25.25,0,0,1-.25.25H14v1.75a.25.25,0,0,1-.25.25h-.5a.25.25,0,0,1-.25-.25V14H11.25a.25.25,0,0,1-.25-.25v-.5a.25.25,0,0,1,.25-.25H13V11.25a.25.25,0,0,1,.25-.25h.5a.25.25,0,0,1,.25.25V13h1.75a.25.25,0,0,1,.25.25Z"/>
</svg>