<svg xmlns:xlink="http://www.w3.org/1999/xlink" xmlns="http://www.w3.org/2000/svg" height="18" viewBox="0 0 18 18" width="18">
  <defs>
    <style>
      .fill {
        fill: #464646;
      }
    </style>
  </defs>
  <title>S GraphBarVerticalAdd 18 N</title>
  <rect id="Canvas" fill="#ff13dc" opacity="0" width="18" height="18"/><path class="fill" d="M11.5,6h-2a.5.5,0,0,0-.5.5V9.3175A6.1345,6.1345,0,0,1,12,7.542V6.5A.5.5,0,0,0,11.5,6Z"/>
  <path class="fill" d="M9.05,13.5A4.45,4.45,0,1,0,13.5,9.05,4.45,4.45,0,0,0,9.05,13.5ZM11,13.25a.25.25,0,0,1,.25-.25H13V11.25a.25.25,0,0,1,.25-.25h.5a.25.25,0,0,1,.25.25V13h1.75a.25.25,0,0,1,.25.25v.5a.25.25,0,0,1-.25.25H14v1.75a.25.25,0,0,1-.25.25h-.5a.25.25,0,0,1-.25-.25V14H11.25a.25.25,0,0,1-.25-.25Z"/>
  <path class="fill" d="M16,7.8845V1.5a.5.5,0,0,0-.5-.5h-2a.5.5,0,0,0-.5.5V7.375c.1655-.0135.331-.025.5-.025A6.12049,6.12049,0,0,1,16,7.8845Z"/>
  <path class="fill" d="M.25,17H8.4465a6.15986,6.15986,0,0,1-.562-1H.25a.25.25,0,0,0-.25.25v.5A.25.25,0,0,0,.25,17Z"/>
  <path class="fill" d="M8,10.5a.5.5,0,0,0-.5-.5h-2a.5.5,0,0,0-.5.5V15H7.542A6.05,6.05,0,0,1,8,10.76Z"/>
  <path class="fill" d="M1.5,12a.5.5,0,0,0-.5.5V15H4V12.5a.5.5,0,0,0-.5-.5Z"/>
</svg>