<svg xmlns:xlink="http://www.w3.org/1999/xlink" xmlns="http://www.w3.org/2000/svg" height="18" viewBox="0 0 18 18" width="18">
  <defs>
    <style>
      .fill {
        fill: #464646;
      }
    </style>
  </defs>
  <title>S GraphBarHorizontalAdd 18 N</title>
  <rect id="Canvas" fill="#ff13dc" opacity="0" width="18" height="18"/><rect class="fill" height="17" rx="0.25" width="1" x="1" y="1"/>
  <path class="fill" d="M11.4695,6H3V9H9.318A6.125,6.125,0,0,1,12,7.542V6.5305A.53.53,0,0,0,11.4705,6ZM16.5,2H3V5H16.5a.5.5,0,0,0,.5-.5v-2A.5.5,0,0,0,16.5,2ZM5.3875,14H3v3H5.3875A.61251.61251,0,0,0,6,16.3875v-1.775A.61251.61251,0,0,0,5.3875,14ZM7.441,10H3v3H7.375A6.10736,6.10736,0,0,1,8,10.76v-.2A.559.559,0,0,0,7.442,10Z"/>
  <path class="fill" d="M13.5,9.05a4.45,4.45,0,1,0,4.45,4.45A4.45,4.45,0,0,0,13.5,9.05Zm2.5,4.7a.25.25,0,0,1-.25.25H14v1.75a.25.25,0,0,1-.25.25h-.5a.25.25,0,0,1-.25-.25V14H11.25a.25.25,0,0,1-.25-.25v-.5a.25.25,0,0,1,.25-.25H13V11.25a.25.25,0,0,1,.25-.25h.5a.25.25,0,0,1,.25.25V13h1.75a.25.25,0,0,1,.25.25Z"/>
</svg>