<svg xmlns:xlink="http://www.w3.org/1999/xlink" xmlns="http://www.w3.org/2000/svg" height="18" viewBox="0 0 18 18" width="18">
  <defs>
    <style>
      .fill {
        fill: #464646;
      }
    </style>
  </defs>
  <title>S GraphDonutAdd 18 N</title>
  <rect id="Canvas" fill="#ff13dc" opacity="0" width="18" height="18"/><path class="fill" d="M1.71,5.704A7.9955,7.9955,0,0,0,7.7065,16.8885.25649.25649,0,0,0,8,16.6355V16.24a5.968,5.968,0,0,1-.584-3.5935A3.961,3.961,0,0,1,5.166,7.863a.24249.24249,0,0,0-.096-.2755L2.084,5.6a.257.257,0,0,0-.374.104Z"/>
  <path class="fill" d="M6.4795,5.913A4.022,4.022,0,0,1,7.824,5.1915.243.243,0,0,0,8,4.96V1.3645a.257.257,0,0,0-.294-.253A7.98852,7.98852,0,0,0,3.15,3.5555a.2555.2555,0,0,0,.05.3835L6.1935,5.93A.242.242,0,0,0,6.4795,5.913Z"/>
  <path class="fill" d="M12.657,7.4145a6.022,6.022,0,0,1,4.3165,1.012,7.994,7.994,0,0,0-6.68-7.3155A.25649.25649,0,0,0,10,1.3645v3.594a.244.244,0,0,0,.177.2325A4.0065,4.0065,0,0,1,12.657,7.4145Z"/>
  <path class="fill" d="M13.5,17.95A4.45,4.45,0,1,0,9.05,13.5,4.45,4.45,0,0,0,13.5,17.95ZM11,13.25a.25.25,0,0,1,.25-.25H13V11.25a.25.25,0,0,1,.25-.25h.5a.25.25,0,0,1,.25.25V13h1.75a.25.25,0,0,1,.25.25v.5a.25.25,0,0,1-.25.25H14v1.75a.25.25,0,0,1-.25.25h-.5a.25.25,0,0,1-.25-.25V14H11.25a.25.25,0,0,1-.25-.25Z"/>
</svg>