<svg xmlns:xlink="http://www.w3.org/1999/xlink" xmlns="http://www.w3.org/2000/svg" height="18" viewBox="0 0 18 18" width="18">
  <defs>
    <style>
      .fill {
        fill: #464646;
      }
    </style>
  </defs>
  <title>S GraphDonut 18 N</title>
  <rect id="Canvas" fill="#ff13dc" opacity="0" width="18" height="18"/><path class="fill" d="M10,1.364V4.959a.2445.2445,0,0,0,.1765.233,3.98,3.98,0,0,1,0,7.617A.2445.2445,0,0,0,10,13.042v3.5945a.25651.25651,0,0,0,.2935.253,7.993,7.993,0,0,0,0-15.7775A.25652.25652,0,0,0,10,1.364Z"/>
  <path class="fill" d="M6.4795,5.9135a4.01819,4.01819,0,0,1,1.345-.722A.243.243,0,0,0,8,4.96V1.3645a.257.257,0,0,0-.2935-.253A7.98847,7.98847,0,0,0,3.15,3.5555a.2555.2555,0,0,0,.05.3835L6.19,5.93A.24251.24251,0,0,0,6.4795,5.9135Z"/>
  <path class="fill" d="M5,9a3.95686,3.95686,0,0,1,.1665-1.1375A.243.243,0,0,0,5.07,7.587L2.084,5.6a.25651.25651,0,0,0-.374.103A7.9945,7.9945,0,0,0,7.7065,16.8885.25649.25649,0,0,0,8,16.6355v-3.594a.2445.2445,0,0,0-.1765-.233A3.98849,3.98849,0,0,1,5,9Z"/>
</svg>