<svg xmlns:xlink="http://www.w3.org/1999/xlink" xmlns="http://www.w3.org/2000/svg" height="18" viewBox="0 0 18 18" width="18">
  <defs>
    <style>
      .fill {
        fill: #464646;
      }
    </style>
  </defs>
  <title>S GraphBarVerticalStacked 18 N</title>
  <rect id="Canvas" fill="#ff13dc" opacity="0" width="18" height="18"/><rect class="fill" height="1" rx="0.25" width="17" y="16"/>
  <rect class="fill" height="3" width="3" x="5" y="12"/>
  <rect class="fill" height="7" width="3" x="13" y="8"/>
  <rect class="fill" height="2" width="3" x="1" y="13"/>
  <rect class="fill" height="5" width="3" x="9" y="10"/>
  <path class="fill" d="M12,5.5V9H9V5.5A.5.5,0,0,1,9.5,5h2A.5.5,0,0,1,12,5.5Z"/>
  <path class="fill" d="M16,1.5V7H13V1.5a.5.5,0,0,1,.5-.5h2A.5.5,0,0,1,16,1.5Z"/>
  <path class="fill" d="M8,9.5V11H5V9.5A.5.5,0,0,1,5.5,9h2A.5.5,0,0,1,8,9.5Z"/>
  <path class="fill" d="M4,10.5V12H1V10.5a.5.5,0,0,1,.5-.5h2A.5.5,0,0,1,4,10.5Z"/>
</svg>