<svg xmlns:xlink="http://www.w3.org/1999/xlink" xmlns="http://www.w3.org/2000/svg" height="18" viewBox="0 0 18 18" width="18">
  <defs>
    <style>
      .fill {
        fill: #464646;
      }
    </style>
  </defs>
  <title>S GraphConfidenceBands 18 N</title>
  <rect id="Canvas" fill="#ff13dc" opacity="0" width="18" height="18"/><path class="fill" d="M7.95,10.492a.5.5,0,0,0,.291-.907l-.8135-.581a.5.5,0,1,0-.5775.8145l.811.5815A.50453.50453,0,0,0,7.95,10.492Z"/>
  <path class="fill" d="M5.1385,9.834l.74-.673a.5.5,0,0,0-.65085-.75921L5.2065,8.421l-.74.673a.5.5,0,1,0,.65085.75921Z"/>
  <path class="fill" d="M2.9195,11.8525l.74-.673a.5.5,0,0,0-.65085-.75921l-.02115.01921-.74.673a.5.5,0,0,0,.65085.75921Z"/>
  <path class="fill" d="M12.918,11a.506.506,0,0,0-.2715.1395l-4.593,4.593L5.4,12.1935a.50649.50649,0,0,0-.343-.1975.524.524,0,0,0-.378.1135L0,16.009v1.3l4.916-4.0965L7.6,16.793a.503.503,0,0,0,.365.2.479.479,0,0,0,.3885-.1455L13.24,11.96,18,11.1665V10.153Z"/>
  <path class="fill" d="M1.4395,13.1975a.5.5,0,0,0-.672-.7405l-.74.673L0,13.1575v.6855a.5.5,0,0,0,.7.0275Z"/>
  <path class="fill" d="M14.0525,6.966l.8155-.2335a.5.5,0,0,0-.2755-.961l-.867.25a.495.495,0,0,0-.216.127L13.44,6.218a.4615.4615,0,0,0,.01139.65256L13.474,6.891a.47.47,0,0,0,.335.13A.6.6,0,0,0,14.0525,6.966Z"/>
  <path class="fill" d="M17.988,0,12.1775,2.1785A.49144.49144,0,0,0,12,2.293l-3.8,3.8L4.4745,5.161A.50349.50349,0,0,0,4,5.293l-4,4v1.414L4.507,6.2l3.7255.9315A.504.504,0,0,0,8.707,7l3.924-3.924L18,1.0625V0Z"/>
  <path class="fill" d="M17.4775,4.9475l-.962.2755a.5.5,0,0,0,.1375.9805.48249.48249,0,0,0,.1375-.0195l.962-.2755A.49645.49645,0,0,0,18,5.747V5.1075A.492.492,0,0,0,17.4775,4.9475Z"/>
  <path class="fill" d="M9.9045,11.165l.708-.707a.50028.50028,0,1,0-.707-.708l-.708.708a.5.5,0,1,0,.6947.7193Z"/>
  <path class="fill" d="M12.0265,9.044l.707-.707a.5.5,0,0,0-.707-.707l-.707.707a.5.5,0,0,0,.6947.7193Z"/>
</svg>