<svg xmlns:xlink="http://www.w3.org/1999/xlink" xmlns="http://www.w3.org/2000/svg" height="18" viewBox="0 0 18 18" width="18">
  <defs>
    <style>
      .fill {
        fill: #464646;
      }
    </style>
  </defs>
  <title>S GraphPathing 18 N</title>
  <rect id="Canvas" fill="#ff13dc" opacity="0" width="18" height="18"/><rect class="fill" height="6" rx="0.25" width="3" x="1" y="1"/>
  <rect class="fill" height="4" rx="0.25" width="4" x="13" y="1"/>
  <rect class="fill" height="4" rx="0.25" width="4" x="13" y="7"/>
  <rect class="fill" height="4" rx="0.25" width="4" x="13" y="13"/>
  <path class="fill" d="M12,3.2395a.254.254,0,0,1-.2565.25,14.02252,14.02252,0,0,1-3.675-.544,11.3342,11.3342,0,0,0-2.8195-.45.25.25,0,0,1-.25-.25v-.5a.255.255,0,0,1,.259-.25,12.31476,12.31476,0,0,1,3.0575.4825,13.20011,13.20011,0,0,0,3.4345.513.25.25,0,0,1,.25.25Z"/>
  <path class="fill" d="M12,9.029a.25.25,0,0,1-.24969.25031q-.0064,0-.01281-.00031c-1.4685-.118-2.107-1.2295-2.726-2.306C8.2455,5.64,7.5205,4.3785,5.246,4.294A.25.25,0,0,1,5,4.05v-.5a.2525.2525,0,0,1,.25492-.25006L5.2585,3.3c2.85.097,3.8285,1.803,4.6205,3.181.6125,1.066,1.0225,1.706,1.8845,1.8A.25551.25551,0,0,1,12,8.531Z"/>
  <path class="fill" d="M12,15.226a.255.255,0,0,1-.2955.25c-1.6-.2155-2.3-2.1925-3.0395-4.2785C7.8785,8.979,7.065,6.688,5.236,6.507A.2525.2525,0,0,1,5,6.2575V5.754a.25.25,0,0,1,.24969-.25031q.0064,0,.01281.00031c2.51.1785,3.483,2.9255,4.345,5.359.6245,1.761,1.216,3.431,2.2085,3.615a.2395.2395,0,0,1,.184.2405Z"/>
</svg>