<svg width="18" height="18" viewBox="0 0 18 18" xmlns="http://www.w3.org/2000/svg" focusable="false" aria-hidden="true" role="img" class="spectrum-Icon spectrum-Icon--sizeS rail-tab-icon is-active" _ref="[object Object]"><path d="M 13.75 17.5 H 4.25 C 3.0098 17.5 2 16.4902 2 15.25 V 2.75 C 2 1.5098 3.0098 0.5 4.25 0.5 H 13.75 C 14.9902 0.5 16 1.5098 16 2.75 V 15.25 C 16 16.4902 14.9902 17.5 13.75 17.5 Z M 4.25 2 C 3.8369 2 3.5 2.3369 3.5 2.75 V 15.25 C 3.5 15.6631 3.8369 16 4.25 16 H 13.75 C 14.1631 16 14.5 15.6631 14.5 15.25 V 2.75 C 14.5 2.3369 14.1631 2 13.75 2 H 4.25 Z"></path><path d="M 8.6045 15.0615 C 8.4355 15.0615 8.2627 15.0264 8.0947 14.9541 C 7.5156 14.7031 7.2217 14.1016 7.3818 13.4912 L 8.0351 10.9785 H 5.8994 C 5.4472 10.9785 5.0293 10.7334 4.8086 10.3389 C 4.5879 9.9444 4.5967 9.46 4.833 9.0752 L 8.373 3.3008 C 8.7031 2.7618 9.3398 2.5547 9.9248 2.8018 C 10.5068 3.0469 10.8056 3.6455 10.6513 4.2578 L 9.9678 6.9785 H 12.1006 C 12.5556 6.9785 12.9746 7.2256 13.1953 7.6241 C 13.415 8.0215 13.4013 8.5078 13.1601 8.8926 L 9.6484 14.4727 C 9.4101 14.8516 9.0185 15.0615 8.6045 15.0615 Z M 6.3447 9.4785 H 8.3593 C 8.75 9.4785 9.1103 9.6553 9.3486 9.9649 C 9.5869 10.2735 9.667 10.667 9.5683 11.044 L 9.2402 12.3047 L 11.6484 8.4785 H 9.6474 C 9.2597 8.4785 8.9004 8.3028 8.6621 7.9971 C 8.4228 7.6914 8.3408 7.2998 8.4345 6.9238 L 8.7978 5.4776 L 6.3447 9.4785 Z"></path></svg>