<svg xmlns:xlink="http://www.w3.org/1999/xlink" xmlns="http://www.w3.org/2000/svg" height="18" viewBox="0 0 18 18" width="18">
  <defs>
    <style>
      .fill {
        fill: #464646;
      }
    </style>
  </defs>
  <title>S Hand4 18 N</title>
  <rect id="Canvas" fill="#ff13dc" opacity="0" width="18" height="18"/><path class="fill" d="M13.059,8.5605l.9265-5.364A1.191,1.191,0,0,0,12.95,1.7a1.2345,1.2345,0,0,0-1.28.9385L11,6.568s-.0795.5675-.4815.5675c-.25,0-.491-.126-.491-.636V1.857a1.1905,1.1905,0,0,0-2.381-.00035V6.5s.028.5025-.1645.5755a.314.314,0,0,1-.403-.1595c-.41-1.1945-1.31-3.897-1.31-3.897a1.2355,1.2355,0,0,0-1.338-.8535A1.19152,1.19152,0,0,0,3.493,3.725L5.115,8.442a4.01025,4.01025,0,0,1,.15.6405.9915.9915,0,0,1-.4465,1.0915c-.09.05-.45-.1155-.856-.3375C3.2205,9.295,2.46,8.691,2.46,8.691,1.2695,7.8805.5355,8.161.228,8.5255c-.3275.388-.1,1.025.3735,1.516L3.65,13.505c.1785.2155.4465.5315.7755.888a10.90873,10.90873,0,0,0,1.037,1.55A4.75483,4.75483,0,0,0,9.232,17.332h.027a5.61251,5.61251,0,0,0,3.464-1.0195,3.561,3.561,0,0,0,1.2725-1.4795c.409-1.1855.75-2.484.878-3.0565C15.118,10.6735,15.0075,9.703,13.059,8.5605Z"/>
</svg>