<svg xmlns:xlink="http://www.w3.org/1999/xlink" xmlns="http://www.w3.org/2000/svg" height="18" viewBox="0 0 18 18" width="18">
  <defs>
    <style>
      .fill {
        fill: #464646;
      }
    </style>
  </defs>
  <title>S Hand2 18 N</title>
  <rect id="Canvas" fill="#ff13dc" opacity="0" width="18" height="18"/><path class="fill" d="M14.1205,9.7885c-.266-.15-.55-1.3735-1.629-1.3735a.63088.63088,0,0,1-.291-.035c-.067-.043-.241-1.25-1.4215-1.25a3.64193,3.64193,0,0,1-.8-.058A1.5105,1.5105,0,0,0,8.8225,6.5a2.309,2.309,0,0,0-1.342.5755.314.314,0,0,1-.403-.1595c-.41-1.1945-1.31-3.897-1.31-3.897A1.23549,1.23549,0,0,0,4.431,2.1655,1.19152,1.19152,0,0,0,3.493,3.725L5.115,8.442a4.01025,4.01025,0,0,1,.15.6405.9915.9915,0,0,1-.4465,1.0915c-.09.05-.45-.1155-.856-.3375C3.2205,9.295,2.46,8.691,2.46,8.691,1.2695,7.8805.5355,8.161.228,8.5255c-.3275.388-.1,1.025.3735,1.516L3.65,13.505c.1785.2155.4465.5315.7755.888a10.90873,10.90873,0,0,0,1.037,1.55A4.75483,4.75483,0,0,0,9.232,17.332h.027a5.61251,5.61251,0,0,0,3.464-1.0195,3.561,3.561,0,0,0,1.2725-1.4795c.409-1.1855.75-2.484.878-3.0565A1.79,1.79,0,0,0,14.1205,9.7885Z"/>
</svg>