<svg xmlns:xlink="http://www.w3.org/1999/xlink" xmlns="http://www.w3.org/2000/svg" height="18" viewBox="0 0 18 18" width="18">
  <defs>
    <style>
      .fill {
        fill: #464646;
      }
    </style>
  </defs>
  <title>S Hand1 18 N</title>
  <rect id="Canvas" fill="#ff13dc" opacity="0" width="18" height="18"/><path class="fill" d="M14.1205,9.7885c-.266-.15-.55-1.3735-1.629-1.3735a.63088.63088,0,0,1-.291-.035c-.067-.043-.241-1.25-1.4215-1.25a3.64193,3.64193,0,0,1-.8-.058,1.59,1.59,0,0,0-1.358-.8965c-.112,0-.669.1255-.686.1255-.6075,0-.8-.603-1.75-.38-1.0715.25-1.112,1.544-1.112,2.2285a6.29682,6.29682,0,0,1-.1115,1.229.88952.88952,0,0,1-.45.635c-.2315.132-2.05-1.3225-2.05-1.3225C1.271,7.8805.537,8.161.2295,8.5255c-.3275.388-.1,1.025.3735,1.516L3.65,13.505c.791.9545,3.2605,3.828,5.587,3.828,2.2825,0,4.156-1.0835,4.7585-2.5.409-1.1855.75-2.484.878-3.0565A1.79,1.79,0,0,0,14.1205,9.7885Z"/>
</svg>