<svg xmlns:xlink="http://www.w3.org/1999/xlink" xmlns="http://www.w3.org/2000/svg" height="18" viewBox="0 0 18 18" width="18">
  <defs>
    <style>
      .fill {
        fill: #464646;
      }
    </style>
  </defs>
  <title>S Hand 18 N</title>
  <rect id="Canvas" fill="#ff13dc" opacity="0" width="18" height="18"/><path class="fill" d="M17.055,4.8785A1.339,1.339,0,0,0,15.6,5.672L13.9665,8.196c-.119.24-.425.4635-.6425.369s-.2775-.35-.1675-.7555l.7855-4.613A1.191,1.191,0,0,0,12.9045,1.7a1.2345,1.2345,0,0,0-1.279.9375l-.75,4.3s-.0545.5585-.5.5395-.397-.5905-.397-.5905V1.857A1.1905,1.1905,0,1,0,7.598,1.8082q-.00049.02439,0,.0488V6.8675c0,.3145-.4785.3065-.5675.05-.4095-1.1945-1.31-3.897-1.31-3.897a1.235,1.235,0,0,0-1.334-.855A1.1915,1.1915,0,0,0,3.45,3.725L5.072,8.442a4.01942,4.01942,0,0,1,.15.6405.992.992,0,0,1-.4465,1.0915c-.2315.1325-2.442-1.5595-2.6195-1.639C1.121,7.935.4685,8.189.1845,8.526c-.3275.388-.1,1.025.3735,1.516l3.4835,3.9545A5.32281,5.32281,0,0,1,4.6,14.76a8.66985,8.66985,0,0,0,.82,1.1845,4.75483,4.75483,0,0,0,3.7695,1.389c2.216,0,3.86-.847,4.4445-2.222.3965-1.15.7725-2.704.9525-3.2445.1175-.353,3-5.413,3-5.413A1.02992,1.02992,0,0,0,17.055,4.8785Z"/>
</svg>