<svg xmlns:xlink="http://www.w3.org/1999/xlink" xmlns="http://www.w3.org/2000/svg" height="18" viewBox="0 0 18 18" width="18">
  <defs>
    <style>
      .fill {
        fill: #464646;
      }
    </style>
  </defs>
  <title>S History 18 N</title>
  <rect id="Canvas" fill="#ff13dc" opacity="0" width="18" height="18"/><path class="fill" d="M9.5,3h-1a.5.5,0,0,0-.5.5V8.793a.5.5,0,0,0,.1465.3535L10.95,11.95a.5.5,0,0,0,.707,0l.668-.668a.5.5,0,0,0,0-.707L10,8.25V3.5A.5.5,0,0,0,9.5,3Z"/>
  <path class="fill" d="M9,1A7.973,7.973,0,0,0,3.428,3.2595,6.562,6.562,0,0,0,1.4235,7H.25A.25.25,0,0,0,0,7.25a.245.245,0,0,0,.0735.175L1.842,9.4415a.25.25,0,0,0,.316,0L3.9265,7.425A.245.245,0,0,0,4,7.25.25.25,0,0,0,3.75,7H2.4845A5.854,5.854,0,0,1,4.229,3.8775,7,7,0,1,1,4.2245,14.118a.25.25,0,0,0-.3455.003l-.3535.3535a.253.253,0,0,0-.00372.35778l.00372.00372A8,8,0,1,0,9,1Z"/>
</svg>