<svg xmlns:xlink="http://www.w3.org/1999/xlink" xmlns="http://www.w3.org/2000/svg" height="18" viewBox="0 0 18 18" width="18">
  <defs>
    <style>
      .fill {
        fill: #464646;
      }
    </style>
  </defs>
  <title>S IdentityService 18 N</title>
  <rect id="Canvas" fill="#ff13dc" opacity="0" width="18" height="18"/><path class="fill" d="M4.3035,15.9245a.5.5,0,0,1-.273-.919,11.48559,11.48559,0,0,0,4.538-6.741A.5.5,0,0,1,9.55,8.454a12.34059,12.34059,0,0,1-4.974,7.3895A.49993.49993,0,0,1,4.3035,15.9245Z"/>
  <path class="fill" d="M6.319,17.3185a.5.5,0,0,1-.314-.8895A13.9435,13.9435,0,0,0,10.75,8.75a2.004,2.004,0,0,0-.255-1.438,1.693,1.693,0,0,0-1.0735-.7915A1.7225,1.7225,0,0,0,7.388,7.86178q-.00957.04662-.01654.09372c-.0095.0465-.9,3.981-3.991,5.87a.50011.50011,0,0,1-.5215-.8535c2.705-1.65,3.5245-5.1775,3.532-5.2125a2.766,2.766,0,0,1,3.2207-2.22L9.641,5.545a2.678,2.678,0,0,1,1.7045,1.242,3,3,0,0,1,.386,2.15,15.00953,15.00953,0,0,1-5.1,8.2695A.5.5,0,0,1,6.319,17.3185Z"/>
  <path class="fill" d="M9.4935,17.3965a.5.5,0,0,1-.376-.8295c3.08-3.5175,3.588-6.1645,3.7795-7.1615l.0345-.178a.50034.50034,0,1,1,.9805.2l-.033.168c-.205,1.0695-.75,3.9105-4.0095,7.632A.497.497,0,0,1,9.4935,17.3965Zm-6.95-6.166a.5.5,0,0,1-.268-.9225A3.90649,3.90649,0,0,0,3.616,8.6685.50024.50024,0,1,1,4.5,9.137a4.81752,4.81752,0,0,1-1.6895,2.016A.49992.49992,0,0,1,2.5435,11.2305ZM4.705,7.8465a.50676.50676,0,0,1-.0945-.0085.5.5,0,0,1-.39708-.58509L4.2135,7.2525a5.143,5.143,0,0,1,3.523-3.968.50028.50028,0,1,1,.282.96A4.13249,4.13249,0,0,0,5.196,7.441.5.5,0,0,1,4.705,7.8465Zm8.632-.3275a.5.5,0,0,1-.482-.3675,4.40463,4.40463,0,0,0-.5-1.15A3.864,3.864,0,0,0,9.9,4.1935a.50022.50022,0,0,1,.213-.9775,4.857,4.857,0,0,1,3.095,2.2605,5.44631,5.44631,0,0,1,.614,1.41.5.5,0,0,1-.3493.61481l-.0007.00019A.52446.52446,0,0,1,13.337,7.519Z"/>
  <path class="fill" d="M12.9685,16.294a.5.5,0,0,1-.4175-.7745,14.137,14.137,0,0,0,2.4405-5.777A8.62355,8.62355,0,0,0,14.799,6.658a.5.5,0,0,1,.9535-.3,9.41549,9.41549,0,0,1,.2345,3.4825,14.9902,14.9902,0,0,1-2.6,6.228A.5.5,0,0,1,12.9685,16.294Z"/>
  <path class="fill" d="M2.388,8.406H2.349a.5.5,0,0,1-.46-.537l0-.0005a7.20384,7.20384,0,0,1,5.668-6.825,6.8014,6.8014,0,0,1,7.509,3.123.5.5,0,0,1-.82428.56618q-.01388-.02019-.02572-.04168A5.83355,5.83355,0,0,0,7.757,2.024,6.22261,6.22261,0,0,0,2.8875,7.9445.5.5,0,0,1,2.388,8.406Z"/>
</svg>