<svg xmlns:xlink="http://www.w3.org/1999/xlink" xmlns="http://www.w3.org/2000/svg" height="18" viewBox="0 0 18 18" width="18">
  <defs>
    <style>
      .fill {
        fill: #464646;
      }
    </style>
  </defs>
  <title>S ImageMapCircle 18 N</title>
  <rect id="Canvas" fill="#ff13dc" opacity="0" width="18" height="18"/><path class="fill" d="M16,5.23V2.25A.25.25,0,0,0,15.75,2H12.7695a7.95353,7.95353,0,0,0-7.539,0H2.25A.25.25,0,0,0,2,2.25V5.2305a7.953,7.953,0,0,0,0,7.539V15.75a.25.25,0,0,0,.25.25H5.2305a7.95353,7.95353,0,0,0,7.539,0H15.75a.25.25,0,0,0,.25-.25V12.7695A7.953,7.953,0,0,0,16,5.23ZM13,3h2V5H13ZM3,3H5V5H3ZM5,15H3V13H5Zm10,0H13V13h2Zm.2685-3H12.25a.25.25,0,0,0-.25.25v3.019a6.889,6.889,0,0,1-6,0V12.25A.25.25,0,0,0,5.75,12H2.7315a6.889,6.889,0,0,1,0-6H5.75A.25.25,0,0,0,6,5.75V2.731a6.889,6.889,0,0,1,6,0V5.75a.25.25,0,0,0,.25.25h3.0185A6.889,6.889,0,0,1,15.2685,12Z"/>
</svg>