<svg xmlns:xlink="http://www.w3.org/1999/xlink" xmlns="http://www.w3.org/2000/svg" height="18" viewBox="0 0 18 18" width="18">
  <defs>
    <style>
      .fill {
        fill: #464646;
      }
    </style>
  </defs>
  <title>S Image 18 N</title>
  <rect id="Canvas" fill="#ff13dc" opacity="0" width="18" height="18"/><path class="fill" d="M16.5,3H1.5a.5.5,0,0,0-.5.5v11a.5.5,0,0,0,.5.5h15a.5.5,0,0,0,.5-.5V3.5A.5.5,0,0,0,16.5,3ZM16,12.6865,13.364,10.05a1,1,0,0,0-1.414,0l-1.536,1.536L6.636,7.8075a1,1,0,0,0-1.414,0L2,11.0295V4H16Z"/>
  <circle class="fill" cx="13.35" cy="6.65" r="1.35"/>
</svg>