<svg xmlns:xlink="http://www.w3.org/1999/xlink" xmlns="http://www.w3.org/2000/svg" height="18" viewBox="0 0 18 18" width="18">
  <defs>
    <style>
      .fill {
        fill: #464646;
      }
    </style>
  </defs>
  <title>S ImageProfile 18 N</title>
  <rect id="Canvas" fill="#ff13dc" opacity="0" width="18" height="18"/><path class="fill" d="M17.5,2H.5a.5.5,0,0,0-.5.5v13a.5.5,0,0,0,.5.5h17a.5.5,0,0,0,.5-.5V2.5A.5.5,0,0,0,17.5,2ZM17,15H15.272a4.915,4.915,0,0,0-3.815-1.987.6675.6675,0,0,1-.5775-.67v-.9665a.67047.67047,0,0,1,.17-.4315A5.10447,5.10447,0,0,0,12.211,7.759C12.211,5.3475,10.9325,4,9,4S5.75,5.4,5.75,7.7585a5.162,5.162,0,0,0,1.217,3.186.668.668,0,0,1,.1705.4315v.9625a.664.664,0,0,1-.5795.67A4.75762,4.75762,0,0,0,2.7,15H1V3H17Z"/>
</svg>