<svg xmlns:xlink="http://www.w3.org/1999/xlink" xmlns="http://www.w3.org/2000/svg" height="18" viewBox="0 0 18 18" width="18">
  <defs>
    <style>
      .fill {
        fill: #464646;
      }
    </style>
  </defs>
  <title>S ImageAdd 18 N</title>
  <rect id="Canvas" fill="#ff13dc" opacity="0" width="18" height="18"/><circle class="fill" cx="11.9" cy="6.3" r="1.25"/>
  <path class="fill" d="M7.35,13.5a6.11347,6.11347,0,0,1,.631-2.7C6.927,9.621,5.8285,8,4.8925,8,3.5565,8,1,12,1,12V3H17V8.4465a6.183,6.183,0,0,1,1,.8715V2.5a.534.534,0,0,0-.5625-.5H.5625A.534.534,0,0,0,0,2.5v13a.534.534,0,0,0,.5625.5h7.322A6.12013,6.12013,0,0,1,7.35,13.5Z"/>
  <path class="fill" d="M13.5,9.05a4.45,4.45,0,1,0,4.45,4.45A4.45,4.45,0,0,0,13.5,9.05Zm2.5,4.7a.25.25,0,0,1-.25.25H14v1.75a.25.25,0,0,1-.25.25h-.5a.25.25,0,0,1-.25-.25V14H11.25a.25.25,0,0,1-.25-.25v-.5a.25.25,0,0,1,.25-.25H13V11.25a.25.25,0,0,1,.25-.25h.5a.25.25,0,0,1,.25.25V13h1.75a.25.25,0,0,1,.25.25Z"/>
</svg>