<svg xmlns:xlink="http://www.w3.org/1999/xlink" xmlns="http://www.w3.org/2000/svg" height="18" viewBox="0 0 18 18" width="18">
  <defs>
    <style>
      .fill {
        fill: #464646;
      }
    </style>
  </defs>
  <title>S ImageSearch 18 N</title>
  <rect id="Canvas" fill="#ff13dc" opacity="0" width="18" height="18"/><path class="fill" d="M17.817,16.933l-2.58417-2.58417a4.01015,4.01015,0,1,0-.88389.88389L16.933,17.81693A.625.625,0,0,0,17.817,16.933ZM9,12a3,3,0,1,1,3,3A3,3,0,0,1,9,12ZM8.38672,8.55871,5.63611,5.8081A1,1,0,0,0,4.222,5.808L1,9.029V2H15V8.02264a5.005,5.005,0,0,1,1,1.00482V1.5a.5.5,0,0,0-.5-.5H.5a.5.5,0,0,0-.5.5v11a.5.5,0,0,0,.5.5H7.10077A4.97311,4.97311,0,0,1,8.38672,8.55871ZM11,5.02539a1.35,1.35,0,1,0,1.35-1.35A1.35,1.35,0,0,0,11,5.02539Z"/>
</svg>