<svg xmlns:xlink="http://www.w3.org/1999/xlink" xmlns="http://www.w3.org/2000/svg" height="18" viewBox="0 0 18 18" width="18">
  <defs>
    <style>
      .fill {
        fill: #464646;
      }
    </style>
  </defs>
  <title>S ImageAutoMode 18 N</title>
  <rect id="Canvas" fill="#ff13dc" opacity="0" width="18" height="18"/><circle class="fill" cx="10.3785" cy="9.6415" r="1.25"/>
  <path class="fill" d="M10.4325.2045l.05,1.421a1.159,1.159,0,0,0,.593.9695l1.241.695-1.4215.05a1.15849,1.15849,0,0,0-.969.592L9.231,5.173l-.05-1.4215a1.15849,1.15849,0,0,0-.592-.9695L7.348,2.087l1.4215-.05a1.159,1.159,0,0,0,.968-.592Z"/>
  <path class="fill" d="M14.843,2.7705,14.9095,4.6a1.492,1.492,0,0,0,.762,1.25l1.6.895-1.8305.0665a1.491,1.491,0,0,0-1.25.762l-.8955,1.6-.066-1.8305a1.493,1.493,0,0,0-.7625-1.25l-1.6-.8955,1.8305-.066a1.4935,1.4935,0,0,0,1.25-.7625Z"/>
  <path class="fill" d="M13,11v3.2315l-1.8435-1.843a1,1,0,0,0-1.414,0L8.207,13.924,4.429,10.146a1,1,0,0,0-1.41421-.00029L3.0145,10.146,1,12.1605V7H11.5L10,6H.5a.5.5,0,0,0-.5.5v9a.5.5,0,0,0,.5.5h13a.5.5,0,0,0,.5-.5v-6Z"/>
</svg>