<svg xmlns:xlink="http://www.w3.org/1999/xlink" xmlns="http://www.w3.org/2000/svg" height="18" viewBox="0 0 18 18" width="18">
  <defs>
    <style>
      .fill {
        fill: #464646;
      }
    </style>
  </defs>
  <title>S ImageCheckedOut 18 N</title>
  <rect id="Canvas" fill="#ff13dc" opacity="0" width="18" height="18"/><path class="fill" d="M13.5,9A4.5,4.5,0,1,0,18,13.5,4.5,4.5,0,0,0,13.5,9ZM16,14.4071a.25.25,0,0,1-.42676.17676L14.525,13.53564l-2.31794,2.31793a.25.25,0,0,1-.3535,0l-.70715-.70714a.25.25,0,0,1,0-.35351L13.46436,12.475l-1.04828-1.04821A.25.25,0,0,1,12.59289,11h3.26386A.14327.14327,0,0,1,16,11.14325Z"/>
  <path class="fill" d="M16.5,2H1.5a.5.5,0,0,0-.5.5v11a.5.5,0,0,0,.5.5H7.77521c-.01429-.1651-.02521-.33117-.02521-.5A5.726,5.726,0,0,1,9.3525,9.52405L6.63607,6.80761a1,1,0,0,0-1.41422,0l0,0L2,10.02942V3H16V8.14911A5.22593,5.22593,0,0,1,17,8.7V2.5A.5.5,0,0,0,16.5,2ZM13.35,4.3A1.35,1.35,0,1,0,14.7,5.65,1.35,1.35,0,0,0,13.35,4.3Z"/>
</svg>