<svg xmlns:xlink="http://www.w3.org/1999/xlink" xmlns="http://www.w3.org/2000/svg" height="18" viewBox="0 0 18 18" width="18">
  <defs>
    <style>
      .fill {
        fill: #464646;
      }
    </style>
  </defs>
  <title>S Inbox 18 N</title>
  <rect id="Canvas" fill="#ff13dc" opacity="0" width="18" height="18"/><rect class="fill" height="1" rx="0.25" width="12" x="3" y="2"/>
  <rect class="fill" height="1" rx="0.25" width="12" x="3" y="4"/>
  <rect class="fill" height="1" rx="0.25" width="12" x="3" y="6"/>
  <rect class="fill" height="1" rx="0.25" width="12" x="3" y="8"/>
  <path class="fill" d="M16,5v5H13.5a.5.5,0,0,0-.5.5v1a.5.5,0,0,1-.5.5h-7a.5.5,0,0,1-.5-.5v-1a.5.5,0,0,0-.5-.5H2V5H.5a.5.5,0,0,0-.5.5v10a.5.5,0,0,0,.5.5h17a.5.5,0,0,0,.5-.5V5.5a.5.5,0,0,0-.5-.5Z"/>
</svg>