<svg xmlns:xlink="http://www.w3.org/1999/xlink" xmlns="http://www.w3.org/2000/svg" height="18" viewBox="0 0 18 18" width="18">
  <defs>
    <style>
      .fill {
        fill: #464646;
      }
    </style>
  </defs>
  <title>S InfoOutline 18 N</title>
  <rect id="Canvas" fill="#ff13dc" opacity="0" width="18" height="18"/><path class="fill" d="M10.075,6A1.075,1.075,0,1,1,9,4.925H9A1.075,1.075,0,0,1,10.075,6Zm.09173,6H10V8.2A.20005.20005,0,0,0,9.8,8H7.83324S7.25,8.01612,7.25,8.5c0,.48365.58325.5.58325.5H8v3H7.83325s-.58325.01612-.58325.5c0,.48365.58325.5.58325.5h2.3335s.58325-.01635.58325-.5C10.75,12.01612,10.16673,12,10.16673,12ZM9,.5A8.5,8.5,0,1,0,17.5,9,8.5,8.5,0,0,0,9,.5ZM9,15.6748A6.67481,6.67481,0,1,1,15.67484,9,6.67481,6.67481,0,0,1,9,15.6748Z"/>
</svg>