<svg xmlns:xlink="http://www.w3.org/1999/xlink" xmlns="http://www.w3.org/2000/svg" height="18" viewBox="0 0 18 18" width="18">
  <defs>
    <style>
      .fill {
        fill: #464646;
      }
    </style>
  </defs>
  <title>S_Invite_18_N</title>
  <rect id="Canvas" fill="#ff13dc" opacity="0" width="18" height="18"/><g data-name="Layer 1" id="Layer_1">
    <path class="fill" d="M9.601,15.31244a6.93207,6.93207,0,0,1-6.96039-2.34711A5.8566,5.8566,0,0,1,5.54126,11.6521c.71411-.06213.72534-.63623.72534-1.35205A6.51379,6.51379,0,0,1,4.73633,6.418C4.73633,4.06726,6.074,2.5,8,2.5s3.26373,1.56726,3.26373,3.918a6.51379,6.51379,0,0,1-1.53027,3.88208c0,.71582.01123,1.28992.72534,1.35205a5.58159,5.58159,0,0,1,2.0412.71558V11.25A1.752,1.752,0,0,1,14.25,9.5h.5a1.73331,1.73331,0,0,1,1.11768.41473,8.01014,8.01014,0,1,0-5.62586,6.26087A1.74993,1.74993,0,0,1,9.601,15.31244Z"/>
    <path class="fill" d="M14.25,11a.24984.24984,0,0,0-.25.25V14H11.25a.24984.24984,0,0,0-.25.25v.5a.24984.24984,0,0,0,.25.25H14v2.75a.24984.24984,0,0,0,.25.25h.5a.24984.24984,0,0,0,.25-.25V15h2.75a.24984.24984,0,0,0,.25-.25v-.5a.24984.24984,0,0,0-.25-.25H15V11.25a.24984.24984,0,0,0-.25-.25Z"/>
  </g>
</svg>