<svg xmlns:xlink="http://www.w3.org/1999/xlink" xmlns="http://www.w3.org/2000/svg" height="18" viewBox="0 0 18 18" width="18">
  <defs>
    <style>
      .fill {
        fill: #464646;
      }
    </style>
  </defs>
  <title>S JourneyEvent 18 N</title>
  <rect id="Canvas" fill="#ff13dc" opacity="0" width="18" height="18"/><path class="fill" d="M13.5,9A4.5,4.5,0,1,0,18,13.5,4.5,4.5,0,0,0,13.5,9Zm2.0405,4.874L12.577,17.263a.3065.3065,0,0,1-.5135-.321l1-2.3745-1.4135-.607a.5295.5295,0,0,1-.1895-.835l2.964-3.3885a.3065.3065,0,0,1,.513.321l-1,2.3745,1.4125.607a.529.529,0,0,1,.1905.8345Z"/>
  <path class="fill" d="M8,13c0,.057.012.111.017.167A5.462,5.462,0,0,1,9,10.3435V5a1,1,0,0,1,1-1h2.05a2.5,2.5,0,1,0,0-1H10A2,2,0,0,0,8,5V8H5.95a2.5,2.5,0,1,0,0,1H8ZM14.5,2A1.5,1.5,0,1,1,13,3.5,1.5,1.5,0,0,1,14.5,2Zm-11,8A1.5,1.5,0,1,1,5,8.5,1.5,1.5,0,0,1,3.5,10Z"/>
</svg>