<svg xmlns:xlink="http://www.w3.org/1999/xlink" xmlns="http://www.w3.org/2000/svg" height="18" viewBox="0 0 18 18" width="18">
  <defs>
    <style>
      .fill {
        fill: #464646;
      }
    </style>
  </defs>
  <title>S JourneyData 18 N</title>
  <rect id="Canvas" fill="#ff13dc" opacity="0" width="18" height="18"/><path class="fill" d="M14.5,14c-1.933,0-3.5-.6265-3.5-1.4v-2c0,.773,1.567,1.533,3.5,1.533S18,11.373,18,10.6v2C18,13.3735,16.433,14,14.5,14ZM18,16.5895v-2.579c0,.773-1.567,1.4-3.5,1.4s-3.5-.6265-3.5-1.4V16.59c0,.773,1.567,1.4,3.5,1.4S18,17.363,18,16.5895Zm0-7.534c0-.773-1.5975-1.313-3.5305-1.313S11,8.2825,11,9.0555s1.567,1.4,3.5,1.4S18,9.829,18,9.0555Z"/>
  <path class="fill" d="M10,14a1,1,0,0,1-1-1V5a1,1,0,0,1,1-1h2.05a2.5,2.5,0,1,0,0-1H10A2,2,0,0,0,8,5V8H5.95a2.5,2.5,0,1,0,0,1H8v4a2,2,0,0,0,2,2ZM14.5,2A1.5,1.5,0,1,1,13,3.5,1.5,1.5,0,0,1,14.5,2Zm-11,8A1.5,1.5,0,1,1,5,8.5,1.5,1.5,0,0,1,3.5,10Z"/>
</svg>