<svg xmlns:xlink="http://www.w3.org/1999/xlink" xmlns="http://www.w3.org/2000/svg" height="18" viewBox="0 0 18 18" width="18">
  <defs>
    <style>
      .fill {
        fill: #464646;
      }
    </style>
  </defs>
  <title>S JourneyEvent2 18 N</title>
  <rect id="Canvas" fill="#ff13dc" opacity="0" width="18" height="18"/><path class="fill" d="M13.55,9.05A4.45,4.45,0,1,0,18,13.5,4.45,4.45,0,0,0,13.55,9.05Zm0,8a3.55,3.55,0,0,1-.5-7.0605V13.5a.5.5,0,0,0,.1465.3535l1.511,1.5115a.25.25,0,0,0,.35355.00045l.00045-.00045.3535-.354a.25.25,0,0,0,0-.3535L14.05,13.293V9.989a3.55,3.55,0,0,1-.5,7.061Z"/>
  <path class="fill" d="M8,13c0,.057.012.111.017.167A5.462,5.462,0,0,1,9,10.3435V5a1,1,0,0,1,1-1h2.05a2.5,2.5,0,1,0,0-1H10A2,2,0,0,0,8,5V8H5.95a2.5,2.5,0,1,0,0,1H8ZM14.5,2A1.5,1.5,0,1,1,13,3.5,1.5,1.5,0,0,1,14.5,2Zm-11,8A1.5,1.5,0,1,1,5,8.5,1.5,1.5,0,0,1,3.5,10Z"/>
</svg>