<svg xmlns:xlink="http://www.w3.org/1999/xlink" xmlns="http://www.w3.org/2000/svg" height="18" viewBox="0 0 18 18" width="18">
  <defs>
    <style>
      .fill {
        fill: #464646;
      }
    </style>
  </defs>
  <title>S JourneyAction 18 N</title>
  <rect id="Canvas" fill="#ff13dc" opacity="0" width="18" height="18"/><path class="fill" d="M17.6,12.893H16.534a3.06239,3.06239,0,0,0-.45-1.0895l.7565-.7565a.3035.3035,0,0,0,0-.429l-.46-.46a.3035.3035,0,0,0-.429,0l-.7555.757a3.07344,3.07344,0,0,0-1.089-.45V9.4035A.3035.3035,0,0,0,13.8035,9.1h-.607a.3035.3035,0,0,0-.3035.3035V10.466a3.07344,3.07344,0,0,0-1.089.45l-.754-.7565a.3035.3035,0,0,0-.429,0l-.46.46a.3035.3035,0,0,0,0,.429l.754.7565a3.06239,3.06239,0,0,0-.45,1.0895H9.4035A.3035.3035,0,0,0,9.1,13.198v.607a.3035.3035,0,0,0,.3035.3035H10.466a3.06239,3.06239,0,0,0,.45,1.0895l-.7565.7565a.3035.3035,0,0,0,0,.429l.46.46a.3035.3035,0,0,0,.429,0l.7565-.7565a3.07344,3.07344,0,0,0,1.089.45V17.6a.3035.3035,0,0,0,.3035.3035h.607A.3035.3035,0,0,0,14.108,17.6V16.534a3.07351,3.07351,0,0,0,1.089-.45l.7565.7565a.3035.3035,0,0,0,.429,0l.46-.46a.3035.3035,0,0,0,0-.429l-.7575-.7555a3.06239,3.06239,0,0,0,.45-1.0895H17.6a.3035.3035,0,0,0,.3035-.3035v-.6065A.3035.3035,0,0,0,17.6,12.893Zm-4.1,2.189A1.582,1.582,0,1,1,15.082,13.5h0A1.58251,1.58251,0,0,1,13.5,15.082Z"/>
  <path class="fill" d="M8,13c0,.057.012.111.017.167A5.462,5.462,0,0,1,9,10.3435V5a1,1,0,0,1,1-1h2.05a2.5,2.5,0,1,0,0-1H10A2,2,0,0,0,8,5V8H5.95a2.5,2.5,0,1,0,0,1H8ZM14.5,2A1.5,1.5,0,1,1,13,3.5,1.5,1.5,0,0,1,14.5,2Zm-11,8A1.5,1.5,0,1,1,5,8.5,1.5,1.5,0,0,1,3.5,10Z"/>
</svg>