<svg xmlns:xlink="http://www.w3.org/1999/xlink" xmlns="http://www.w3.org/2000/svg" height="18" viewBox="0 0 18 18" width="18">
  <defs>
    <style>
      .fill {
        fill: #464646;
      }
    </style>
  </defs>
  <title>S Key 18 N</title>
  <rect id="Canvas" fill="#ff13dc" opacity="0" width="18" height="18"/><path class="fill" d="M17.761,4.3875,14.53,1.156a.75.75,0,0,0-1.06066-.00034L13.469,1.156,6.5885,8.0365A4.45,4.45,0,0,0,4.5,7.5,4.5,4.5,0,1,0,9,12a4.45,4.45,0,0,0-.5245-2.0665l3.363-3.363,1.87,1.87a.375.375,0,0,0,.53033.00017L14.239,8.4405l1.672-1.672L13.776,4.633l.6155-.6155,2.135,2.1355L17.761,4.918A.37543.37543,0,0,0,17.761,4.3875ZM3.75,14.25a1.5,1.5,0,1,1,1.5-1.5A1.5,1.5,0,0,1,3.75,14.25Z"/>
</svg>