<svg xmlns:xlink="http://www.w3.org/1999/xlink" xmlns="http://www.w3.org/2000/svg" height="18" viewBox="0 0 18 18" width="18">
  <defs>
    <style>
      .fill {
        fill: #464646;
      }
    </style>
  </defs>
  <title>S KeyExclude 18 N</title>
  <rect id="Canvas" fill="#ff13dc" opacity="0" width="18" height="18"/><path class="fill" d="M13.5,9.05a4.45,4.45,0,1,0,4.45,4.45A4.45,4.45,0,0,0,13.5,9.05ZM10,13.5a3.46708,3.46708,0,0,1,.7375-2.126l4.8885,4.8885A3.483,3.483,0,0,1,10,13.5Zm6.2625,2.126L11.374,10.7375a3.483,3.483,0,0,1,4.8885,4.8885Z"/>
  <path class="fill" d="M8.4835,9.95c.26-.26,3.355-3.3805,3.355-3.3805l.8405.841a5.85589,5.85589,0,0,1,2.4305.1585l.8-.8L13.776,4.633l.6155-.615,2.135,2.1355,1.235-1.235a.375.375,0,0,0,.00017-.53033L17.7615,4.388,14.53,1.1565a.75.75,0,0,0-1.06066-.00034L13.469,1.1565l-6.8805,6.88A4.444,4.444,0,0,0,4.5,7.5a4.5,4.5,0,1,0,3.105,7.7455A5.91865,5.91865,0,0,1,8.4835,9.95ZM3.75,14.25a1.5,1.5,0,1,1,1.5-1.5A1.5,1.5,0,0,1,3.75,14.25Z"/>
</svg>