<svg id="shapes" xmlns="http://www.w3.org/2000/svg" width="18" height="18" viewBox="0 0 18 18" focusable="false" aria-hidden="true" role="img" class="spectrum-Icon spectrum-Icon--sizeS an-BlankPanelItemList-vizIcon" data-test-icon="KeyMetricSummary"><path class="cls-2" d="M16.43822,15.47322h-5.10303c-.23525,0-.3609-.27695-.20611-.45393l2.52621-3.99778c.10744-.17002,.35539-.17002,.46283,0l2.52621,3.99778c.15478,.17697,.02914,.45393-.20611,.45393Z"></path><path class="cls-2" d="M16.43822,15.47322h-5.10303c-.23525,0-.3609-.27695-.20611-.45393l2.52621-3.99778c.10744-.17002,.35539-.17002,.46283,0l2.52621,3.99778c.15478,.17697,.02914,.45393-.20611,.45393Z"></path> <g><path class="cls-2" d="M1.7841,12.73348l-.32612-.37884c-.09006-.10462-.07828-.26244,.02632-.35253l4.04042-3.47977c.10751-.09259,.27044-.07725,.35878,.03378l1.10233,1.38547,3.24159-5.34345c.08617-.14205,.28437-.16208,.39722-.04015l1.765,1.90703,3.3938-3.95385c.08993-.10477,.24777-.1168,.35254-.02686l.37939,.32568c.10476,.08993,.11679,.24777,.02686,.35253l-3.94162,4.59168c-.09731,.11336-.27166,.11663-.37315,.007l-1.66106-1.79423-3.28411,5.4139c-.09026,.14879-.30113,.16214-.40943,.02593l-1.28693-1.61854-3.44919,2.97153c-.10463,.09014-.26254,.07837-.35264-.0263Z"></path><path class="cls-1" d="M1.7841,12.73348l-.32612-.37884c-.09006-.10462-.07828-.26244,.02632-.35253l4.04042-3.47977c.10751-.09259,.27044-.07725,.35878,.03378l1.10233,1.38547,3.24159-5.34345c.08617-.14205,.28437-.16208,.39722-.04015l1.765,1.90703,3.3938-3.95385c.08993-.10477,.24777-.1168,.35254-.02686l.37939,.32568c.10476,.08993,.11679,.24777,.02686,.35253l-3.94162,4.59168c-.09731,.11336-.27166,.11663-.37315,.007l-1.66106-1.79423-3.28411,5.4139c-.09026,.14879-.30113,.16214-.40943,.02593l-1.28693-1.61854-3.44919,2.97153c-.10463,.09014-.26254,.07837-.35264-.0263Z"></path></g></svg>