<svg xmlns:xlink="http://www.w3.org/1999/xlink" xmlns="http://www.w3.org/2000/svg" height="18" viewBox="0 0 18 18" width="18">
  <defs>
    <style>
      .fill {
        fill: #464646;
      }
    </style>
  </defs>
  <title>S LabelExclude 18 N</title>
  <rect id="Canvas" fill="#ff13dc" opacity="0" width="18" height="18"/><path class="fill" d="M7.35,13.55a6.15,6.15,0,0,1,8.527-5.6725L9.1465,1.1465A.5.5,0,0,0,8.793,1H1.5a.5.5,0,0,0-.5.5V8.793a.5.5,0,0,0,.1465.3535l6.623,6.623A6.12517,6.12517,0,0,1,7.35,13.55ZM4,5.3A1.3,1.3,0,1,1,5.3,4,1.3,1.3,0,0,1,4,5.3Z"/>
  <path class="fill" d="M13.5,9.05a4.45,4.45,0,1,0,4.45,4.45A4.45,4.45,0,0,0,13.5,9.05ZM10,13.5a3.46708,3.46708,0,0,1,.7375-2.126l4.8885,4.8885A3.483,3.483,0,0,1,10,13.5Zm6.2625,2.126L11.374,10.7375a3.483,3.483,0,0,1,4.8885,4.8885Z"/>
</svg>