<svg xmlns:xlink="http://www.w3.org/1999/xlink" xmlns="http://www.w3.org/2000/svg" height="18" viewBox="0 0 18 18" width="18">
  <defs>
    <style>
      .fill {
        fill: #464646;
      }
    </style>
  </defs>
  <title>S Landscape 18 N</title>
  <rect id="Canvas" fill="#ff13dc" opacity="0" width="18" height="18"/><circle class="fill" cx="9" cy="7" r="2"/>
  <path class="fill" d="M16.5,3H1.5a.5.5,0,0,0-.5.5v11a.5.5,0,0,0,.5.5h15a.5.5,0,0,0,.5-.5V3.5A.5.5,0,0,0,16.5,3ZM16,14H13V12a2,2,0,0,0-2-2H7a2,2,0,0,0-2,2v2H2V4H16Z"/>
</svg>