<svg xmlns:xlink="http://www.w3.org/1999/xlink" xmlns="http://www.w3.org/2000/svg" height="18" viewBox="0 0 18 18" width="18">
  <defs>
    <style>
      .fill {
        fill: #464646;
      }
    </style>
  </defs>
  <title>S LayersBringToFront 18 N</title>
  <rect id="Canvas" fill="#ff13dc" opacity="0" width="18" height="18"/><path class="fill" d="M1,4H2.0035V16.5a.494.494,0,0,0,.488.5L2.497,17h.496a.5.5,0,0,0,.5-.5L3.4965,4H4.5a.25.25,0,0,0,.25-.25.245.245,0,0,0-.0735-.175L2.908,1.5565a.25.25,0,0,0-.316,0L.8235,3.573A.245.245,0,0,0,.75,3.75.25.25,0,0,0,1,4Z"/>
  <path class="fill" d="M11.5.5a.6.6,0,0,0-.3145.089L5.1905,4.1595a.4.4,0,0,0,0,.681l5.995,3.5705a.6.6,0,0,0,.6245.003l5.9965-3.5715a.4.4,0,0,0,.0035-.683L11.8145.589A.59693.59693,0,0,0,11.5.5Z"/>
  <path class="fill" d="M15.863,12l-1.27.7565,1.248.7435L11.5,16.085,7.159,13.5l1.25-.7435L7.137,12,5.1905,13.1595a.4.4,0,0,0,0,.681l5.995,3.5705a.6.6,0,0,0,.6245.003l5.9965-3.5715a.4.4,0,0,0,.0035-.683Z"/>
  <path class="fill" d="M15.863,7.5l-1.27.7565L15.841,9,11.5,11.585,7.159,9l1.25-.7435L7.137,7.5,5.1905,8.6595a.4.4,0,0,0,0,.681l5.995,3.5705a.6.6,0,0,0,.6245.003l5.9965-3.5715a.4.4,0,0,0,.0035-.683Z"/>
</svg>