<svg xmlns:xlink="http://www.w3.org/1999/xlink" xmlns="http://www.w3.org/2000/svg" height="18" viewBox="0 0 18 18" width="18">
  <defs>
    <style>
      .fill {
        fill: #464646;
      }
    </style>
  </defs>
  <title>S LayersForward 18 N</title>
  <rect id="Canvas" fill="#ff13dc" opacity="0" width="18" height="18"/><path class="fill" d="M.997,11H2v5.5a.494.494,0,0,0,.488.5l.005,0h.4965a.5.5,0,0,0,.5-.5l.003-5.5H4.496a.25.25,0,0,0,.25-.25.24553.24553,0,0,0-.074-.175L2.9045,8.5565a.25.25,0,0,0-.3165,0L.82,10.573a.245.245,0,0,0-.0735.175.25.25,0,0,0,.248.252Z"/>
  <path class="fill" d="M11.5,1.9145,15.841,4.5,11.5,7.085,7.159,4.5ZM11.5.5a.6.6,0,0,0-.3145.089L5.1905,4.1595a.4.4,0,0,0,0,.681l5.995,3.5705a.6.6,0,0,0,.6245.003l5.9965-3.5715a.4.4,0,0,0,.0035-.683L11.8145.589A.59693.59693,0,0,0,11.5.5Z"/>
  <path class="fill" d="M17.81,8.6595,15.863,7.5,11.5,10,7.137,7.5,5.1905,8.6595a.4.4,0,0,0,0,.681l5.995,3.5705a.6.6,0,0,0,.6245.003l5.9965-3.5715a.4.4,0,0,0,.0035-.683Z"/>
  <path class="fill" d="M15.863,12l-1.27.7565,1.248.7435L11.5,16.085,7.159,13.5l1.25-.7435L7.137,12,5.1905,13.1595a.4.4,0,0,0,0,.681l5.995,3.5705a.6.6,0,0,0,.6245.003l5.9965-3.5715a.4.4,0,0,0,.0035-.683Z"/>
</svg>