<svg xmlns:xlink="http://www.w3.org/1999/xlink" xmlns="http://www.w3.org/2000/svg" height="18" id="S_Learn_18_N" viewBox="0 0 18 18" width="18">
  <defs>
    <style>
      .fill {
        fill: #464646;
      }
    </style>
  </defs>
  <rect id="Canvas" fill="#ff13dc" opacity="0" width="18" height="18"/><path class="fill" d="M9.25,3.96A4.055,4.055,0,0,0,5.064,7.881c0,.09,0,.179,0,.269a4.493,4.493,0,0,0,1.285,2.987,2.967,2.967,0,0,1,.85,1.692c0,.19,0,.381,0,.571v2.02a1,1,0,0,0,.318.731l.765.714A.5.5,0,0,0,8.627,17H9.869a.5.5,0,0,0,.341-.135l.768-.715a.994.994,0,0,0,.317-.731v-2.3a2.392,2.392,0,0,1,.265-1.156c.35-.637.9-1.143,1.282-1.763a3.885,3.885,0,0,0,.594-2.048A4.057,4.057,0,0,0,9.519,3.96C9.43,3.957,9.34,3.957,9.25,3.96Zm1.969,6.428a5.723,5.723,0,0,0-.974,1.494,3.219,3.219,0,0,0-.175,1.109H8.434a3.535,3.535,0,0,0-.057-.7,3.007,3.007,0,0,0-.344-.876,8.29,8.29,0,0,0-.753-1.033A3.371,3.371,0,0,1,6.26,8.151,2.837,2.837,0,0,1,8.93,5.157a2.628,2.628,0,0,1,.32,0A2.839,2.839,0,0,1,12.24,8.15,3.377,3.377,0,0,1,11.219,10.388Z"/>
  <rect class="fill" height="2.864" rx="0.409" width="1.227" x="8.637"/>
  <rect class="fill" height="1.227" rx="0.409" width="2.864" x="14.568" y="7.773"/>
  <rect class="fill" height="1.227" rx="0.409" width="2.864" x="1.068" y="7.773"/>
  <rect class="fill" height="2.863" rx="0.409" transform="translate(-1.573 3.758) rotate(-45)" width="1.227" x="3.136" y="2.345"/>
  <rect class="fill" height="1.227" rx="0.409" transform="translate(1.649 11.536) rotate(-45)" width="2.863" x="13.318" y="3.163"/>
</svg>