<svg width="16" height="14" viewBox="0 0 16 14" fill="none" xmlns="http://www.w3.org/2000/svg">
<g clip-path="url(#clip0_5_2)">
<path fill-rule="evenodd" clip-rule="evenodd" d="M14.16 8.54002C12.87 8.20002 11.52 8.91002 11.12 10.16H4.00005V8.02002C4.00005 7.89002 3.89005 7.78001 3.75005 7.78001C3.69005 7.78001 3.63005 7.80001 3.59005 7.84001L0.220046 10.71C0.120046 10.8 0.110046 10.95 0.200046 11.05L0.220046 11.07L3.59005 13.94C3.69005 14.03 3.85005 14.02 3.94005 13.92C3.98005 13.88 4.00005 13.82 4.00005 13.76V11.62H11.12C11.54 12.9 12.94 13.6 14.25 13.2C15.56 12.8 16.29 11.43 15.87 10.15C15.61 9.36001 14.97 8.76002 14.15 8.54002H14.16ZM1.84005 5.46001C3.13005 5.80001 4.48005 5.09001 4.88005 3.84001H12V5.98001C12 6.11001 12.11 6.22001 12.25 6.22001C12.31 6.22001 12.37 6.20001 12.41 6.16001L15.78 3.29001C15.88 3.20001 15.89 3.05002 15.8 2.95002L15.78 2.93002L12.41 0.060015C12.31 -0.029985 12.15 -0.019985 12.06 0.080015C12.02 0.120015 12 0.180015 12 0.240015V2.38002H4.88005C4.46005 1.10002 3.06005 0.400015 1.75005 0.800015C0.430046 1.21002 -0.299954 2.57001 0.120046 3.85001C0.380046 4.63001 1.02005 5.24001 1.84005 5.46001Z" fill="black"/>
</g>
<defs>
<clipPath id="clip0_5_2">
<rect width="16" height="14" fill="white"/>
</clipPath>
</defs>
</svg>
