<svg xmlns:xlink="http://www.w3.org/1999/xlink" xmlns="http://www.w3.org/2000/svg" height="18" viewBox="0 0 18 18" width="18">
  <defs>
    <style>
      .fill {
        fill: #464646;
      }
    </style>
  </defs>
  <title>S LinkNav 18 N</title>
  <rect id="Canvas" fill="#ff13dc" opacity="0" width="18" height="18"/><path class="fill" d="M8,14.1775a4.07622,4.07622,0,0,1-1.037-.2655c-.26.26-.75.7735-.8565.881a2.05061,2.05061,0,0,1-2.9-2.9L6.8,8.3a2.29247,2.29247,0,0,1,1.683-.646A2.03047,2.03047,0,0,1,9.564,8h1.8765a3.5497,3.5497,0,0,0-.6-.811,3.6555,3.6555,0,0,0-5.13.024l-3.591,3.593A3.58821,3.58821,0,0,0,7.194,15.8805c.108-.108.44-.45.806-.8205Z"/>
  <path class="fill" d="M11.861,3.2395a2.05061,2.05061,0,1,1,2.9,2.9L12.9,8h2.1745l.7755-.7735A3.58963,3.58963,0,0,0,10.7735,2.15c-.1925.1925-2.132,2.111-2.6755,2.6545a4.15006,4.15006,0,0,1,1.871.3035C10.2295,4.85,11.7535,3.347,11.861,3.2395Z"/>
  <path class="fill" d="M8,9.625a1.57547,1.57547,0,0,1-.4545-.65,1.02024,1.02024,0,0,0-.214.159l-.818.856a3.58192,3.58192,0,0,0,.6135.8365,3.08237,3.08237,0,0,0,.873.59Z"/>
  <rect class="fill" height="1.5" rx="0.25" width="9" x="9" y="9"/>
  <rect class="fill" height="1.5" rx="0.25" width="9" x="9" y="15"/>
  <rect class="fill" height="1.5" rx="0.25" width="9" x="9" y="12"/>
</svg>