<svg xmlns:xlink="http://www.w3.org/1999/xlink" xmlns="http://www.w3.org/2000/svg" height="18" viewBox="0 0 18 18" width="18">
  <defs>
    <style>
      .fill {
        fill: #464646;
      }
    </style>
  </defs>
  <title>S LinkCheck 18 N</title>
  <rect id="Canvas" fill="#ff13dc" opacity="0" width="18" height="18"/><path class="fill" d="M7.374,14.0285a3.97712,3.97712,0,0,1-.411-.116c-.26.26-.75.7735-.8565.881a2.05061,2.05061,0,0,1-2.9-2.9L6.8,8.3a2.29247,2.29247,0,0,1,1.683-.646,1.97,1.97,0,0,1,1.339.556,3.26609,3.26609,0,0,1,.2195.2555A6.123,6.123,0,0,1,11.318,7.806a3.42231,3.42231,0,0,0-.4755-.6165,3.6555,3.6555,0,0,0-5.13.0235l-3.593,3.593A3.588,3.588,0,1,0,7.194,15.88c.071-.071.239-.2425.45-.4565A6.12428,6.12428,0,0,1,7.374,14.0285Z"/>
  <path class="fill" d="M11.861,3.2395a2.05061,2.05061,0,1,1,2.9,2.9L13.5,7.4a6.14542,6.14542,0,0,1,1.8795.295l.469-.4685A3.5891,3.5891,0,1,0,10.7735,2.15c-.1925.1925-2.132,2.111-2.6755,2.6545a4.15006,4.15006,0,0,1,1.871.3035C10.2295,4.85,11.7535,3.347,11.861,3.2395Z"/>
  <path class="fill" d="M8.463,10.028a1.78952,1.78952,0,0,1-.297-.239,2.07953,2.07953,0,0,1-.6205-.8125,1.02644,1.02644,0,0,0-.214.159l-.818.856a3.57763,3.57763,0,0,0,.6135.8365,3.05473,3.05473,0,0,0,.65.485A6.13825,6.13825,0,0,1,8.463,10.028Z"/>
  <path class="fill" d="M13.5,9.05a4.45,4.45,0,1,0,4.45,4.45A4.45,4.45,0,0,0,13.5,9.05Zm-1.169,7.156-2.064-2.064a.25.25,0,0,1,0-.3535l.518-.518a.25.25,0,0,1,.3535,0L12.504,14.636l3.053-3.053a.25.25,0,0,1,.3535,0l.5215.5215a.25.25,0,0,1,0,.3535l-3.75,3.75A.25.25,0,0,1,12.331,16.206Z"/>
</svg>