<svg xmlns:xlink="http://www.w3.org/1999/xlink" xmlns="http://www.w3.org/2000/svg" height="18" viewBox="0 0 18 18" width="18">
  <defs>
    <style>
      .fill {
        fill: #464646;
      }
    </style>
  </defs>
  <title>S LocationBasedDate 18 N</title>
  <rect id="Canvas" fill="#ff13dc" opacity="0" width="18" height="18"/><rect class="fill" height="4" rx="0.5" width="4" x="11" y="8"/>
  <path class="fill" d="M17.5,2H15V.5a.5.5,0,0,0-.5-.5h-1a.5.5,0,0,0-.5.5V2H7V.5A.5.5,0,0,0,6.5,0h-1A.5.5,0,0,0,5,.5V2H2.5a.5.5,0,0,0-.5.5V5.5545A5.31631,5.31631,0,0,1,3,5.15V3H5v.5a.5.5,0,0,0,.5.5h1A.5.5,0,0,0,7,3.5V3h6v.5a.5.5,0,0,0,.5.5h1a.5.5,0,0,0,.5-.5V3h2V14H8.5715c-.187.3375-.383.6725-.585,1H17.5a.5.5,0,0,0,.5-.5V2.5A.5.5,0,0,0,17.5,2Z"/>
  <path class="fill" d="M4.5,6.1835a4.125,4.125,0,0,0-4.125,4.125c0,2.278,4.125,7.4765,4.125,7.4765s4.125-5.2,4.125-7.4765A4.125,4.125,0,0,0,4.5,6.1835Zm0,5.875a1.75,1.75,0,1,1,1.75-1.75A1.75,1.75,0,0,1,4.5,12.0585Z"/>
</svg>