<svg xmlns:xlink="http://www.w3.org/1999/xlink" xmlns="http://www.w3.org/2000/svg" height="18" viewBox="0 0 18 18" width="18">
  <defs>
    <style>
      .fill {
        fill: #464646;
      }
    </style>
  </defs>
  <title>S Login 18 N</title>
  <rect id="Canvas" fill="#ff13dc" opacity="0" width="18" height="18"/><path class="fill" d="M5.8,15.0885A3.95,3.95,0,0,1,9.7455,11.144a3.78664,3.78664,0,0,1,.9755.1275l.45-.45c0-.016-.0085-.031-.0085-.05V9.661a.77.77,0,0,1,.196-.4965A5.873,5.873,0,0,0,12.694,5.5c0-2.7735-1.4705-4.323-3.6935-4.323S5.2655,2.7875,5.2655,5.5a5.93651,5.93651,0,0,0,1.4,3.665.77.77,0,0,1,.196.4965v1.107a.764.764,0,0,1-.6665.771c-4.4655.3885-5.163,3.443-5.163,4.65,0,.134.0155.6605.0255.792h5.246A3.89259,3.89259,0,0,1,5.8,15.0885Z"/>
  <path class="fill" d="M17.8325,10.446l-1.971-1.971a.45751.45751,0,0,0-.647,0L11.018,12.6715a2.714,2.714,0,0,0-1.2735-.327A2.7445,2.7445,0,1,0,12.489,15.089a2.71592,2.71592,0,0,0-.32-1.2605l2.05-2.05,1.1405,1.1405a.2285.2285,0,0,0,.32315.00035L15.683,12.919l1.02-1.02-1.3-1.3.3755-.3755,1.3,1.3.753-.753a.2285.2285,0,0,0,.00235-.32314ZM9.45,16.3a.915.915,0,1,1,.915-.915A.915.915,0,0,1,9.45,16.3Z"/>
</svg>