<svg xmlns:xlink="http://www.w3.org/1999/xlink" xmlns="http://www.w3.org/2000/svg" height="18" viewBox="0 0 18 18" width="18">
  <defs>
    <style>
      .fill {
        fill: #464646;
      }
    </style>
  </defs>
  <title>S LogOut 18 N</title>
  <rect id="Canvas" fill="#ff13dc" opacity="0" width="18" height="18"/><rect class="fill" height="9" rx="0.5" width="2" x="8"/>
  <path class="fill" d="M12.6075,2.5315l-.57.9115a.505.505,0,0,0,.1685.692,5.869,5.869,0,1,1-6.41,0,.5.5,0,0,0,.16917-.68657L5.964,3.4465,5.392,2.531a.5.5,0,0,0-.68667-.16877L4.7,2.3655a7.95,7.95,0,1,0,8.5955,0,.5.5,0,0,0-.68753.16523Z"/>
</svg>