<svg xmlns:xlink="http://www.w3.org/1999/xlink" xmlns="http://www.w3.org/2000/svg" height="18" viewBox="0 0 18 18" width="18">
  <defs>
    <style>
      .fill {
        fill: #464646;
      }
    </style>
  </defs>
  <title>S Looks 18 N</title>
  <rect id="Canvas" fill="#ff13dc" opacity="0" width="18" height="18"/><path class="fill" d="M13.995,6.603c0-.035.005-.0685.005-.103a5.5,5.5,0,0,0-11,0c0,.0345.0045.068.005.103A5.497,5.497,0,1,0,8.5,16.1065,5.497,5.497,0,1,0,13.995,6.603ZM8.5,14.832a4.46248,4.46248,0,0,1-1.47-3.0365,5.38556,5.38556,0,0,0,2.94,0A4.46248,4.46248,0,0,1,8.5,14.832ZM8.5,11a4.45,4.45,0,0,1-1.424-.25A4.46452,4.46452,0,0,1,8.5,8.168a4.46448,4.46448,0,0,1,1.424,2.58A4.45014,4.45014,0,0,1,8.5,11Zm-2.368-.688A4.48049,4.48049,0,0,1,4.076,7.25,4.45,4.45,0,0,1,5.5,7a4.44988,4.44988,0,0,1,2.154.572A5.489,5.489,0,0,0,6.132,10.312Zm3.214-2.74a4.265,4.265,0,0,1,3.578-.32,4.4805,4.4805,0,0,1-2.056,3.06A5.489,5.489,0,0,0,9.346,7.572ZM8.5,2a4.4865,4.4865,0,0,1,4.47,4.205,5.45,5.45,0,0,0-4.47.6885A5.45,5.45,0,0,0,4.03,6.205,4.4865,4.4865,0,0,1,8.5,2Zm-3,14A4.4905,4.4905,0,0,1,3.132,7.688,5.50548,5.50548,0,0,0,6.005,11.4c0,.0345-.005.068-.005.1a5.4805,5.4805,0,0,0,1.654,3.928A4.447,4.447,0,0,1,5.5,16Zm6,0a4.447,4.447,0,0,1-2.154-.572A5.4805,5.4805,0,0,0,11,11.5c0-.0345-.0045-.068-.005-.1a5.5055,5.5055,0,0,0,2.873-3.7095A4.4905,4.4905,0,0,1,11.5,16Z"/>
</svg>