<svg xmlns:xlink="http://www.w3.org/1999/xlink" xmlns="http://www.w3.org/2000/svg" height="18" viewBox="0 0 18 18" width="18">
  <defs>
    <style>
      .fill {
        fill: #464646;
      }
    </style>
  </defs>
  <title>S MagicWand 18 N</title>
  <rect id="Canvas" fill="#ff13dc" opacity="0" width="18" height="18"/><rect class="fill" height="2" rx="0.5" transform="translate(-5.89684 7.5161) rotate(-45)" width="15.059" x="-1.40518" y="9.87617"/>
  <path class="fill" d="M15.753,6.7795l.039,1.078a.878.878,0,0,0,.45.735l.941.527-1.078.039a.878.878,0,0,0-.735.45l-.528.9415-.039-1.078a.878.878,0,0,0-.45-.735l-.941-.527,1.078-.039a.87951.87951,0,0,0,.735-.45Z"/>
  <path class="fill" d="M14.866.05l.054,1.495a1.21849,1.21849,0,0,0,.6225,1.019l1.3075.7305-1.495.054a1.217,1.217,0,0,0-1.0195.6225l-.731,1.305L13.55,3.781a1.22,1.22,0,0,0-.6225-1.0195l-1.307-.731,1.495-.054A1.21949,1.21949,0,0,0,14.135,1.354Z"/>
  <path class="fill" d="M6.35.84l.0695,1.9255a1.569,1.569,0,0,0,.8,1.3125L8.9,5.02l-1.9255.0695a1.5695,1.5695,0,0,0-1.313.8l-.94,1.6825L4.65,5.6465a1.5695,1.5695,0,0,0-.8-1.313L2.1695,3.392,4.095,3.3225a1.5705,1.5705,0,0,0,1.313-.8Z"/>
</svg>