<svg xmlns:xlink="http://www.w3.org/1999/xlink" xmlns="http://www.w3.org/2000/svg" height="18" viewBox="0 0 18 18" width="18">
  <defs>
    <style>
      .fill {
        fill: #464646;
      }
    </style>
  </defs>
  <title>S Mailbox 18 N</title>
  <rect id="Canvas" fill="#ff13dc" opacity="0" width="18" height="18"/><path class="fill" d="M2.5,4A2.5,2.5,0,0,0,0,6.5v8a.5.5,0,0,0,.5.5H6V6.5A2.5,2.5,0,0,0,3.5,4Z"/>
  <path class="fill" d="M15.5,4H9V7.5a.5.5,0,0,1-.5.5H7v7H17.5a.5.5,0,0,0,.5-.5v-8A2.5,2.5,0,0,0,15.5,4Z"/>
  <path class="fill" d="M10.5,0h-3A.5.5,0,0,0,7,.5V7H8V3h2.5a.5.5,0,0,0,.5-.5V.5A.5.5,0,0,0,10.5,0Z"/>
</svg>