<svg xmlns:xlink="http://www.w3.org/1999/xlink" xmlns="http://www.w3.org/2000/svg" height="18" viewBox="0 0 18 18" width="18">
  <defs>
    <style>
      .fill {
        fill: #464646;
      }
    </style>
  </defs>
  <title>S MarketingActivities 18 N</title>
  <rect id="Canvas" fill="#ff13dc" opacity="0" width="18" height="18"/><path class="fill" d="M12.9325,3.45a2.42645,2.42645,0,0,1-.754.6575l1.955,2.3645a2.42957,2.42957,0,0,1,.7795-.6265ZM4.5075,7.8845l2.134,1.693a2.42145,2.42145,0,0,1,.656-.756L5.1425,7.112A2.426,2.426,0,0,1,4.5075,7.8845Zm6.355,1.7a2.395,2.395,0,0,1,.292.964L13.966,9.312a2.40442,2.40442,0,0,1-.353-.9375ZM3.521,14.1275a2.42538,2.42538,0,0,1,.629.777L7.09,12.509a2.43193,2.43193,0,0,1-.576-.8205ZM5.068,4.75a2.4,2.4,0,0,1,.3285.969L9.1,3.49a2.39989,2.39989,0,0,1-.445-.9Z"/>
  <circle class="fill" cx="2" cy="16" r="1.925"/>
  <circle class="fill" cx="8.75" cy="10.75" r="1.925"/>
  <circle class="fill" cx="11" cy="2" r="1.925"/>
  <circle class="fill" cx="3" cy="6" r="1.925"/>
  <circle class="fill" cx="16" cy="8" r="1.925"/>
</svg>