<svg xmlns:xlink="http://www.w3.org/1999/xlink" xmlns="http://www.w3.org/2000/svg" height="18" viewBox="0 0 18 18" width="18">
  <defs>
    <style>
      .fill {
        fill: #464646;
      }
    </style>
  </defs>
  <title>S MBox 18 N</title>
  <rect id="Canvas" fill="#ff13dc" opacity="0" width="18" height="18"/><path class="fill" d="M16.5,2H1.5a.5.5,0,0,0-.5.5v13a.5.5,0,0,0,.5.5h15a.5.5,0,0,0,.5-.5V2.5A.5.5,0,0,0,16.5,2ZM16,15H2V5H16Z"/>
  <rect class="fill" height="1" width="1" x="3" y="6"/>
  <rect class="fill" height="1" width="1" x="3" y="11"/>
  <rect class="fill" height="1" width="2" x="5" y="6"/>
  <rect class="fill" height="1" width="2" x="8" y="6"/>
  <rect class="fill" height="1" width="2" x="11" y="6"/>
  <rect class="fill" height="1" width="2" x="5" y="13"/>
  <rect class="fill" height="1" width="2" x="8" y="13"/>
  <rect class="fill" height="1" width="2" x="11" y="13"/>
  <rect class="fill" height="1" width="1" x="14" y="6"/>
  <rect class="fill" height="1" width="1" x="14" y="8"/>
  <rect class="fill" height="2" width="1" x="3" y="8"/>
  <rect class="fill" height="2" width="1" x="14" y="10"/>
  <rect class="fill" height="1" width="1" x="3" y="13"/>
  <rect class="fill" height="1" width="1" x="14" y="13"/>
</svg>