<svg xmlns:xlink="http://www.w3.org/1999/xlink" xmlns="http://www.w3.org/2000/svg" height="18" viewBox="0 0 18 18" width="18">
  <defs>
    <style>
      .fill {
        fill: #464646;
      }
    </style>
  </defs>
  <title>S Measure 18 N</title>
  <rect id="Canvas" fill="#ff13dc" opacity="0" width="18" height="18"/><path class="fill" d="M12.5355,1.222,1.222,12.5355a.5.5,0,0,0,0,.707L4.7575,16.778a.5.5,0,0,0,.707,0L7.232,15.0105l-2.65-2.65a.25.25,0,0,1,0-.3535l.3535-.3535a.25.25,0,0,1,.3535,0l2.65,2.65,2.8285-2.8285L8.8225,9.5305a.25.25,0,0,1,0-.3535l.354-.354a.25.25,0,0,1,.3535,0l1.9445,1.945L14.303,7.9395l-2.65-2.65a.25.25,0,0,1,0-.3535l.3535-.3535a.25.25,0,0,1,.35355-.00045l.00045.00045,2.65,2.65L16.778,5.465a.5.5,0,0,0,0-.707L13.2425,1.222A.5.5,0,0,0,12.5355,1.222Z"/>
</svg>