<svg xmlns:xlink="http://www.w3.org/1999/xlink" xmlns="http://www.w3.org/2000/svg" height="18" viewBox="0 0 18 18" width="18">
  <defs>
    <style>
      .fill {
        fill: #464646;
      }
    </style>
  </defs>
  <title>S MergeLayers 18 N</title>
  <rect id="Canvas" fill="#ff13dc" opacity="0" width="18" height="18"/><path class="fill" d="M16.31,11.6595,12.2395,9l4.067-2.6575a.4.4,0,0,0,.0035-.683L9.3145,1.089a.6.6,0,0,0-.629,0L1.6905,5.6595a.4.4,0,0,0,0,.681L5.7605,9l-4.07,2.6595a.4.4,0,0,0,0,.681l6.995,4.5705a.6.6,0,0,0,.6245.003l6.9965-4.5715a.4.4,0,0,0,.0035-.683ZM11.882,12.683,9.1565,15.445a.25.25,0,0,1-.313,0L6.118,12.683A.39252.39252,0,0,1,6,12.403.4.4,0,0,1,6.397,12H8.25V9.082L3.659,6,9,2.4145,14.341,6,9.75,9.082V12H11.6a.4.4,0,0,1,.4.4v.003A.39252.39252,0,0,1,11.882,12.683Z"/>
</svg>