<svg xmlns:xlink="http://www.w3.org/1999/xlink" xmlns="http://www.w3.org/2000/svg" height="18" viewBox="0 0 18 18" width="18">
  <defs>
    <style>
      .fill {
        fill: #464646;
      }
    </style>
  </defs>
  <title>S MobileServices 18 N</title>
  <rect id="Canvas" fill="#ff13dc" opacity="0" width="18" height="18"/><path class="fill" d="M17,2H1A1,1,0,0,0,0,3V15a1,1,0,0,0,1,1H17a1,1,0,0,0,1-1V3A1,1,0,0,0,17,2ZM15,14H2V4H15Zm1.5-3.75A1.25,1.25,0,1,1,17.75,9,1.25,1.25,0,0,1,16.5,10.25Z"/>
  <path class="fill" d="M3.5095,12.843a.62451.62451,0,0,1-.3535-.1915.565.565,0,0,1,.01931-.7988L3.203,11.828,5.329,9.994a.3155.3155,0,0,1,.427.0205l1.1785,1.2L9.268,7.5795a.3125.3125,0,0,1,.5275.0175L10.869,9.453l1.975-4.0075a.61651.61651,0,0,1,.819-.25.57951.57951,0,0,1,.28109.76983L13.9355,5.983,11.182,11.4445a.3115.3115,0,0,1-.5415.008L9.495,9.473,7.357,12.8035a.31252.31252,0,0,1-.4815.0425l-1.393-1.4185L4.0175,12.71A.623.623,0,0,1,3.5095,12.843Z"/>
</svg>