<svg xmlns:xlink="http://www.w3.org/1999/xlink" xmlns="http://www.w3.org/2000/svg" height="18" viewBox="0 0 18 18" width="18">
  <defs>
    <style>
      .fill {
        fill: #464646;
      }
    </style>
  </defs>
  <title>S Monitoring 18 N</title>
  <rect id="Canvas" fill="#ff13dc" opacity="0" width="18" height="18"/><path class="fill" d="M17.5,1H.5a.5.5,0,0,0-.5.5v11a.5.5,0,0,0,.5.5H7v1.5a.5.5,0,0,1-.5.5h-1a.5.5,0,0,0-.5.5v1a.5.5,0,0,0,.5.5h7a.5.5,0,0,0,.5-.5v-1a.5.5,0,0,0-.5-.5h-1a.5.5,0,0,1-.5-.5V13h6.5a.5.5,0,0,0,.5-.5V1.5A.5.5,0,0,0,17.5,1ZM16,8.9415H12.111a.689.689,0,0,1-.6185-.415l-1.15-2.5L8.218,10.0625a.684.684,0,0,1-.6.3785H7.6a.6915.6915,0,0,1-.6-.415l-.9225-2-.5325.6585a.66849.66849,0,0,1-.5205.257H2V7H4.5L5.714,5.1955a.673.673,0,0,1,.6085-.25.7.7,0,0,1,.5305.409l.805,1.75,2.1245-4.036A.7025.7025,0,0,1,10.4,2.688a.689.689,0,0,1,.6.4145L12.75,7H16Z"/>
</svg>