<svg data-name="Net growth" xmlns="http://www.w3.org/2000/svg" width="18" height="18" viewBox="0 0 18 18" class="spectrum-Icon_368b34 spectrum-Icon--sizeXS_368b34 parcel-icon" focusable="false" aria-hidden="true" role="img"><g id="Icon" transform="translate(6 6)"><rect id="Canvas" width="18" height="18" transform="translate(-6 -6)" fill="none"></rect><path id="Trendline" d="M11.515,3,8.762,6.843,7.392,4.1a.169.169,0,0,0-.31.018L5.238,9.187l-1.38-1.38A.169.169,0,0,0,3.63,7.8L1.061,9.935a.169.169,0,0,0-.061.13v1.416a.169.169,0,0,0,.28.127L3.664,9.526l1.93,1.93a.169.169,0,0,0,.278-.062L7.41,7.164,8.44,9.226a.169.169,0,0,0,.29.021l3.062-4.372a.169.169,0,0,0,.03-.1V3.095a.169.169,0,0,0-.307-.1Z" transform="translate(-0.324 -0.947)"></path><path id="Subtraction_1" data-name="Subtraction 1" d="M-355.312-6721h-.951l-1.42-1.42-1.625,1.42h-1.039v-.881a.173.173,0,0,1,.061-.13l2.57-2.139a.17.17,0,0,1,.108-.039.166.166,0,0,1,.12.049l1.38,1.381,1.218-3.353a6.366,6.366,0,0,1,3.049,2.3l-.776,1.108a.165.165,0,0,1-.136.071h-.015a.165.165,0,0,1-.139-.093l-1.03-2.061-1.375,3.782Zm-7.034,0h-4.188a.5.5,0,0,1-.465-.526,5.1,5.1,0,0,1,2.271-3.767,6.683,6.683,0,0,1,2.867-1.147c.837-.073.837-.762.837-1.561a7.552,7.552,0,0,1-1.765-4.479,5.017,5.017,0,0,1,1.05-3.277,3.434,3.434,0,0,1,2.716-1.244,3.436,3.436,0,0,1,2.717,1.244,5.016,5.016,0,0,1,1.05,3.277,7.562,7.562,0,0,1-1.767,4.479,2.16,2.16,0,0,0,.228,1.278l-.223.614a2.141,2.141,0,0,0-.59-.081,2.171,2.171,0,0,0-1.388.5l-2.57,2.139a2.163,2.163,0,0,0-.779,1.667v.88Z" transform="translate(361.023 6731)"></path></g></svg>