<svg xmlns:xlink="http://www.w3.org/1999/xlink" xmlns="http://www.w3.org/2000/svg" height="18" viewBox="0 0 18 18" width="18">
  <defs>
    <style>
      .fill {
        fill: #464646;
      }
    </style>
  </defs>
  <title>S NewsAdd 18 N</title>
  <rect id="Canvas" fill="#ff13dc" opacity="0" width="18" height="18"/><rect class="fill" height="1" width="5" x="10" y="6"/>
  <path class="fill" d="M7.375,14H3V4H16V7.8845a6.13227,6.13227,0,0,1,1,.562V3.5a.5.5,0,0,0-.5-.5H2.5a.5.5,0,0,0-.5.5v10a.5.5,0,0,1-1,0V5.25A.25.25,0,0,0,.75,5H.25A.25.25,0,0,0,0,5.25V13.5A1.5,1.5,0,0,0,1.5,15H7.542A6.12951,6.12951,0,0,1,7.375,14Z"/>
  <path class="fill" d="M10.76,8H10v.4465A6.11249,6.11249,0,0,1,10.76,8Z"/>
  <path class="fill" d="M9,9.3175V6H4v5H7.8845A6.14985,6.14985,0,0,1,9,9.3175Z"/>
  <path class="fill" d="M7.542,12H4v1H7.375A6.12951,6.12951,0,0,1,7.542,12Z"/>
  <path class="fill" d="M13.5,9.05a4.45,4.45,0,1,0,4.45,4.45A4.45,4.45,0,0,0,13.5,9.05Zm2.5,4.7a.25.25,0,0,1-.25.25H14v1.75a.25.25,0,0,1-.25.25h-.5a.25.25,0,0,1-.25-.25V14H11.25a.25.25,0,0,1-.25-.25v-.5a.25.25,0,0,1,.25-.25H13V11.25a.25.25,0,0,1,.25-.25h.5a.25.25,0,0,1,.25.25V13h1.75a.25.25,0,0,1,.25.25Z"/>
</svg>