<svg xmlns:xlink="http://www.w3.org/1999/xlink" xmlns="http://www.w3.org/2000/svg" height="18" viewBox="0 0 18 18" width="18">
  <defs>
    <style>
      .fill {
        fill: #464646;
      }
    </style>
  </defs>
  <title>S NoEdit 18 N</title>
  <rect id="Canvas" fill="#ff13dc" opacity="0" width="18" height="18"/><rect class="fill" height="21.927" rx="0.409" transform="translate(-3.72777 9.00002) rotate(-45)" width="1.2275" x="8.38635" y="-1.96368"/>
  <path class="fill" d="M5.5905,8.6375l-3.05,3.05a.5.5,0,0,0-.1255.2105L1.028,16.55c-.057.188.2295.425.3915.425a.15022.15022,0,0,0,.0305-.003c.138-.032,3.9335-1.172,4.656-1.3895a.48708.48708,0,0,0,.207-.1245l3.05-3.05ZM2.334,15.669l1.0045-3.3655,2.36,2.354C4.618,14.9825,3.2675,15.3905,2.334,15.669Z"/>
  <path class="fill" d="M16.7835,4.1,13.9,1.216a.60751.60751,0,0,0-.4335-.1765H13.45a.6855.6855,0,0,0-.4635.203l-4.4,4.312,3.7715,3.771,4.4-4.3115a.68751.68751,0,0,0,.2-.4415A.61148.61148,0,0,0,16.7835,4.1Z"/>
</svg>