<svg xmlns:xlink="http://www.w3.org/1999/xlink" xmlns="http://www.w3.org/2000/svg" height="18" viewBox="0 0 18 18" width="18">
  <defs>
    <style>
      .fill {
        fill: #464646;
      }
    </style>
  </defs>
  <title>S NoteAdd 18 N</title>
  <rect id="Canvas" fill="#ff13dc" opacity="0" width="18" height="18"/><path class="fill" d="M13.5,9.05a4.45,4.45,0,1,0,4.45,4.45A4.45,4.45,0,0,0,13.5,9.05Zm2.5,4.7a.25.25,0,0,1-.25.25H14v1.75a.25.25,0,0,1-.25.25h-.5a.25.25,0,0,1-.25-.25V14H11.25a.25.25,0,0,1-.25-.25v-.5a.25.25,0,0,1,.25-.25H13V11.25a.25.25,0,0,1,.25-.25h.5a.25.25,0,0,1,.25.25V13h1.75a.25.25,0,0,1,.25.25Z"/>
  <path class="fill" d="M7.4,13.5A6.065,6.065,0,0,1,7.94,11H4.25A.25.25,0,0,1,4,10.75v-.5A.25.25,0,0,1,4.25,10H8.5095a6.1166,6.1166,0,0,1,2.366-2H4.25A.25.25,0,0,1,4,7.75v-.5A.25.25,0,0,1,4.25,7h10.5a.25.25,0,0,1,.25.25v.3435a6.07106,6.07106,0,0,1,2,.915V1.5a.5.5,0,0,0-.5-.5H1.5a.5.5,0,0,0-.5.5v12a.5.5,0,0,0,.5.5H6l1.768,3.4195a.25.25,0,0,0,.464,0l.2415-.467A6.06958,6.06958,0,0,1,7.4,13.5ZM4,4.25A.25.25,0,0,1,4.25,4h8.5a.25.25,0,0,1,.25.25v.5a.25.25,0,0,1-.25.25H4.25A.25.25,0,0,1,4,4.75Z"/>
</svg>