<svg xmlns:xlink="http://www.w3.org/1999/xlink" xmlns="http://www.w3.org/2000/svg" height="18" viewBox="0 0 18 18" width="18">
  <defs>
    <style>
      .fill {
        fill: #464646;
      }
    </style>
  </defs>
  <title>S Note 18 N</title>
  <rect id="Canvas" fill="#ff13dc" opacity="0" width="18" height="18"/><path class="fill" d="M16.5,1H1.5a.5.5,0,0,0-.5.5v12a.5.5,0,0,0,.5.5H7l1.768,3.4195a.25.25,0,0,0,.464,0L11,14h5.5a.5.5,0,0,0,.5-.5V1.5A.5.5,0,0,0,16.5,1ZM4.25,4h8.5a.25.25,0,0,1,.25.25v.5a.25.25,0,0,1-.25.25H4.25A.25.25,0,0,1,4,4.75v-.5A.25.25,0,0,1,4.25,4Zm8.5,7H4.25A.25.25,0,0,1,4,10.75v-.5A.25.25,0,0,1,4.25,10h8.5a.25.25,0,0,1,.25.25v.5A.25.25,0,0,1,12.75,11Zm2-3H4.25A.25.25,0,0,1,4,7.75v-.5A.25.25,0,0,1,4.25,7h10.5a.25.25,0,0,1,.25.25v.5A.25.25,0,0,1,14.75,8Z"/>
</svg>