<svg xmlns:xlink="http://www.w3.org/1999/xlink" xmlns="http://www.w3.org/2000/svg" height="18" viewBox="0 0 18 18" width="18">
  <defs>
    <style>
      .fill {
        fill: #464646;
      }
    </style>
  </defs>
  <title>S OS 18 N</title>
  <rect id="Canvas" fill="#ff13dc" opacity="0" width="18" height="18"/><path class="fill" d="M9.7085,8.95c.0145,3.0175-1.85,4.985-4.504,4.985-2.828,0-4.5185-2.1-4.5185-4.9415,0-2.8,1.8365-4.927,4.5185-4.927C8.061,4.066,9.694,6.25,9.7085,8.95Zm-4.446,3.4245c1.647,0,2.639-1.3545,2.624-3.3805,0-2.0405-1.0055-3.367-2.711-3.367-1.545,0-2.6675,1.21-2.6675,3.367C2.5075,10.873,3.4695,12.3745,5.2625,12.3745Z"/>
  <path class="fill" d="M11.0925,13.4095a.21649.21649,0,0,1-.1-.2185V11.675c0-.0585.0585-.0875.1165-.0585a4.905,4.905,0,0,0,2.591.758c1.195,0,1.7055-.4665,1.7055-1.0935,0-.5395-.35-.9475-1.4575-1.414l-.7-.2915c-1.793-.758-2.2595-1.6615-2.2595-2.755,0-1.5595,1.1805-2.755,3.3815-2.755a5.3451,5.3451,0,0,1,2.23.379c.073.0435.0875.0875.0875.1895V6.05c0,.0585-.044.1165-.1315.0585a4.55356,4.55356,0,0,0-2.2-.481c-1.2535,0-1.647.525-1.647,1.035,0,.525.3355.889,1.487,1.37l.554.233c1.895.787,2.434,1.7055,2.434,2.857,0,1.7055-1.341,2.813-3.542,2.813A5.547,5.547,0,0,1,11.0925,13.4095Z"/>
</svg>