<svg xmlns:xlink="http://www.w3.org/1999/xlink" xmlns="http://www.w3.org/2000/svg" height="18" id="icons" viewBox="0 0 18 18" width="18">
  <defs>
    <style>
      .fill {
        fill: #464646;
      }
    </style>
  </defs>
  <rect id="Canvas" fill="#ff13dc" opacity="0" width="18" height="18"/><circle class="fill" cx="7" cy="9" r="1"/>
  <path class="fill" d="M15.543,2.77,15.609,4.6a1.492,1.492,0,0,0,.762,1.248l1.6.9-1.83.066a1.493,1.493,0,0,0-1.249.762l-.9,1.6-.066-1.83a1.5,1.5,0,0,0-.762-1.249l-1.6-.895L13.4,5.131a1.492,1.492,0,0,0,1.248-.762Z"/>
  <path class="fill" d="M15.763,8.062l-1.554,2.017a.5.5,0,0,1-.89-.227l-.39-2.475a.5.5,0,0,0-.252-.413L10.51,5.505a.479.479,0,0,1-.206-.462l.622-1.11a1.16,1.16,0,0,1,.969-.592l1.422-.051L12.076,2.6a1.158,1.158,0,0,1-.592-.969L11.432.2l-.7,1.241a1.159,1.159,0,0,1-.969.592l-1.421.051,1.241.7a1.158,1.158,0,0,1,.591.969L10.225,5H.5a.5.5,0,0,0-.5.5v11a.5.5,0,0,0,.5.5h15a.5.5,0,0,0,.5-.5V7.862A.468.468,0,0,0,15.763,8.062ZM2,7H9v5.666l-1.74-1.6a.5.5,0,0,0-.648-.023l-1.166.921-1.375-1.7a.5.5,0,0,0-.728-.052L2,11.463Zm12,8H2V14H14Zm0-2H10V12h4Z"/>
</svg>