<svg xmlns:xlink="http://www.w3.org/1999/xlink" xmlns="http://www.w3.org/2000/svg" height="18" viewBox="0 0 18 18" width="18">
  <defs>
    <style>
      .fill {
        fill: #464646;
      }
    </style>
  </defs>
  <title>S OfferDelete 18 N</title>
  <rect id="Canvas" fill="#ff13dc" opacity="0" width="18" height="18"/><path class="fill" d="M8,2H6V3H8Zm3,0H9V3h2ZM1,3H2V2H1A1,1,0,0,0,0,3V4H1ZM17,7h1V5H17Zm0,1.4465a6.13939,6.13939,0,0,1,1,.8715V8H17ZM12,3h2V2H12Zm5-1H15V3h2V4h1V3A1,1,0,0,0,17,2ZM1,5H0V7H1ZM1,8H0v2H1Zm8.1065-.9305L8.11,4.4555a.1175.1175,0,0,0-.2195,0L6.894,7.0695,4.079,7.2a.1165.1165,0,0,0-.0685.2075l2.2,1.75L5.467,11.85a.117.117,0,0,0,.1775.1285L8,10.447l.119.0775a6.161,6.161,0,0,1,3.6175-2.915l.25-.2a.1165.1165,0,0,0-.0685-.2075ZM7,15v1h.8845a6.11165,6.11165,0,0,1-.3425-1ZM4,16H6V15H4ZM5,2H3V3H5ZM1,11H0v2H1Zm0,3H0v1a1,1,0,0,0,1,1H3V15H1Z"/>
  <path class="fill" d="M13.5,9.05a4.45,4.45,0,1,0,4.45,4.45A4.45,4.45,0,0,0,13.5,9.05Zm2.5,4.7a.25.25,0,0,1-.25.25h-4.5a.25.25,0,0,1-.25-.25v-.5a.25.25,0,0,1,.25-.25h4.5a.25.25,0,0,1,.25.25Z"/>
</svg>