<svg xmlns:xlink="http://www.w3.org/1999/xlink" xmlns="http://www.w3.org/2000/svg" height="18" id="icons" viewBox="0 0 18 18" width="18">
  <defs>
    <style>
      .fill {
        fill: #464646;
      }
    </style>
  </defs>
  <rect id="Canvas" fill="#ff13dc" opacity="0" width="18" height="18"/><path class="fill" d="M5,10H2.5A.5.5,0,0,1,2,9.5V5H.5a.5.5,0,0,0-.5.5v8a.5.5,0,0,0,.5.5H9V12H5.5a.5.5,0,0,1-.5-.5Z"/>
  <g>
    <path class="fill" d="M5,2.5A.5.5,0,0,1,5.5,2H14V1.5a.5.5,0,0,0-.5-.5H3.5a.5.5,0,0,0-.5.5v7a.5.5,0,0,0,.5.5H5Z"/>
    <path class="fill" d="M5,2.5A.5.5,0,0,1,5.5,2H14V1.5a.5.5,0,0,0-.5-.5H3.5a.5.5,0,0,0-.5.5v7a.5.5,0,0,0,.5.5H5Z"/>
  </g>
  <path class="fill" d="M10.248,7.027a.247.247,0,0,0-.248.25v9.891a.247.247,0,0,0,.248.25.245.245,0,0,0,.175-.073L13.255,14.5h4c.223,0,.24-.363.113-.49L10.423,7.1A.246.246,0,0,0,10.248,7.027Z"/>
  <path class="fill" d="M17,10.5v-7a.5.5,0,0,0-.5-.5H6.5a.5.5,0,0,0-.5.5v7a.5.5,0,0,0,.5.5H9V7.277a1.251,1.251,0,0,1,1.248-1.25,1.236,1.236,0,0,1,.882.367L15.759,11H16.5A.5.5,0,0,0,17,10.5Z"/>
</svg>