<svg xmlns:xlink="http://www.w3.org/1999/xlink" xmlns="http://www.w3.org/2000/svg" height="18" viewBox="0 0 18 18" width="18">
  <defs>
    <style>
      .fill {
        fill: #464646;
      }
    </style>
  </defs>
  <title>S OnAir 18 N</title>
  <rect id="Canvas" fill="#ff13dc" opacity="0" width="18" height="18"/><path class="fill" d="M10.906,9.339a.25.25,0,0,0-.0535.339l.287.4115a.25.25,0,0,0,.34751.06508l.01049-.00758a4,4,0,1,0-4.9855.0075.25.25,0,0,0,.35046-.04664L6.871,10.096l.2855-.412a.25.25,0,0,0-.0545-.3395A3,3,0,0,1,9.732,4.109a2.95651,2.95651,0,0,1,1.9955,1.65A3.01,3.01,0,0,1,10.906,9.339Z"/>
  <path class="fill" d="M8.2095.547a6.5,6.5,0,0,0-3.122,11.644.254.254,0,0,0,.35484-.05584L5.446,12.13l.2845-.4105a.25.25,0,0,0-.058-.3405,5.5,5.5,0,1,1,6.6685-.0095.25.25,0,0,0-.0575.34l.2865.4105a.253.253,0,0,0,.35215.06333l.00535-.00383A6.5,6.5,0,0,0,8.2095.547Z"/>
  <path class="fill" d="M9.7,8.6a1.75,1.75,0,1,0-1.4045,0L5.875,16.678A.25.25,0,0,0,6.1145,17H6.636a.25.25,0,0,0,.2395-.178L7.7215,14H10.278l.8465,2.822A.25.25,0,0,0,11.364,17h.5215a.25.25,0,0,0,.2395-.322ZM8,7A1,1,0,1,1,9,8,1,1,0,0,1,8,7Zm.0215,6L9,9.7385,9.9785,13Z"/>
</svg>