<svg xmlns:xlink="http://www.w3.org/1999/xlink" xmlns="http://www.w3.org/2000/svg" height="18" viewBox="0 0 18 18" width="18">
  <defs>
    <style>
      .fill {
        fill: #464646;
      }
    </style>
  </defs>
  <title>S OpenRecent 18 N</title>
  <rect id="Canvas" fill="#ff13dc" opacity="0" width="18" height="18"/><path class="fill" d="M13.55,9.05A4.45,4.45,0,1,0,18,13.5,4.45,4.45,0,0,0,13.55,9.05Zm0,8a3.55,3.55,0,0,1-.5-7.0605V13.5a.5.5,0,0,0,.1465.3535l1.511,1.5115a.25.25,0,0,0,.35355.00045l.00045-.00045.3535-.354a.25.25,0,0,0,0-.3535L14.05,13.293V9.989a3.55,3.55,0,0,1-.5,7.061Z"/>
  <path class="fill" d="M7.9,13.5a5.6445,5.6445,0,0,1,9.2825-4.321l.564-1.5035A.5.5,0,0,0,17.2785,7H15V4.5a.5.5,0,0,0-.5-.5l-6.166.004-1.65-1.7A1,1,0,0,0,5.9645,2H2A1,1,0,0,0,1,3V14.5a.5.5,0,0,0,.5.5H8.108A5.62721,5.62721,0,0,1,7.9,13.5ZM3.8785,7.3245,2,12.3335V3H5.9645L7.617,4.7l.295.3035h.4225L14,5V7H4.3465A.5.5,0,0,0,3.8785,7.3245Z"/>
</svg>