<svg xmlns:xlink="http://www.w3.org/1999/xlink" xmlns="http://www.w3.org/2000/svg" height="18" viewBox="0 0 18 18" width="18">
  <defs>
    <style>
      .fill {
        fill: #464646;
      }
    </style>
  </defs>
  <title>S OpenRecentOutline 18 N</title>
  <rect id="Canvas" fill="#ff13dc" opacity="0" width="18" height="18"/><path class="fill" d="M8.0255,14H2L4.3445,7h12.268L16.066,8.6395a5.49128,5.49128,0,0,1,.8645.569l.85-2.55A.5.5,0,0,0,17.3065,6H16V4.5a.5.5,0,0,0-.5-.5l-6.166.0035-1.65-1.7A1,1,0,0,0,6.9645,2H2A1,1,0,0,0,1,3V14.5a.5.5,0,0,0,.5.5H8.2135A5.41889,5.41889,0,0,1,8.0255,14Z"/>
  <path class="fill" d="M13.5,9.05a4.45,4.45,0,1,0,4.45,4.45A4.45,4.45,0,0,0,13.5,9.05Zm0,8A3.55,3.55,0,0,1,13,9.9895V13.5a.5.5,0,0,0,.1465.3535L14.658,15.365a.25.25,0,0,0,.3535,0l.3535-.354a.25.25,0,0,0,0-.3535L14,13.293V9.989a3.55,3.55,0,0,1-.5,7.061Z"/>
</svg>