<svg xmlns:xlink="http://www.w3.org/1999/xlink" xmlns="http://www.w3.org/2000/svg" height="18" viewBox="0 0 18 18" width="18">
  <defs>
    <style>
      .fill {
        fill: #464646;
      }
    </style>
  </defs>
  <title>S Orbit 18 N</title>
  <rect id="Canvas" fill="#ff13dc" opacity="0" width="18" height="18"/><path class="fill" d="M13.8785,6.9355A3.9915,3.9915,0,0,0,6.35,4.374c-.331-.0255-.659-.045-.974-.045C2.6525,4.329.5785,5.2745.1,7c-.52,1.8845,1.019,4.186,3.678,5.973L2.3545,14.6805A.1905.1905,0,0,0,2.5,14.993H8.95L6.045,10.635a.191.191,0,0,0-.305-.0165L4.7555,11.8c-2.25-1.471-3.5-3.25-3.1855-4.3935.261-.944,1.756-1.554,3.8085-1.554.2055,0,.421.018.633.0305C6.0115,5.923,6,5.96,6,6a3.9925,3.9925,0,0,0,7.2385,2.332c2.2,1.4605,3.4045,3.214,3.091,4.345-.2605.944-1.7555,1.554-3.807,1.554-.283,0-.5745-.0155-.87-.041a.3805.3805,0,0,0-.41571.34168l-.00179.03382v.766a.386.386,0,0,0,.353.3835c.3185.025.631.0395.9345.0395,2.725,0,4.8-.9455,5.276-2.671C18.3365,11.1395,16.694,8.7445,13.8785,6.9355Z"/>
</svg>