<svg xmlns:xlink="http://www.w3.org/1999/xlink" xmlns="http://www.w3.org/2000/svg" height="18" viewBox="0 0 18 18" width="18">
  <defs>
    <style>
      .fill {
        fill: #464646;
      }
    </style>
  </defs>
  <title>S Organisations 18 N</title>
  <rect id="Canvas" fill="#ff13dc" opacity="0" width="18" height="18"/><path class="fill" d="M16.5,1h-9a.5.5,0,0,0-.5.5V7h5V17h4.5a.5.5,0,0,0,.5-.5V1.5A.5.5,0,0,0,16.5,1ZM11,5H8V3h3Zm5,8H13V11h3Zm0-4H13V7h3Zm0-4H13V3h3Z"/>
  <path class="fill" d="M1,8.5v8a.5.5,0,0,0,.5.5h9a.5.5,0,0,0,.5-.5v-8a.5.5,0,0,0-.5-.5h-9A.5.5,0,0,0,1,8.5ZM7,9h3v2H7ZM2,9H5v2H2Zm0,4H5v2H2Z"/>
</svg>