<svg xmlns:xlink="http://www.w3.org/1999/xlink" xmlns="http://www.w3.org/2000/svg" height="18" viewBox="0 0 18 18" width="18">
  <defs>
    <style>
      .fill {
        fill: #464646;
      }
    </style>
  </defs>
  <title>S OutlinePath 18 N</title>
  <rect id="Canvas" fill="#ff13dc" opacity="0" width="18" height="18"/><path class="fill" d="M5.25,11H3V3h8V5.25h1V2.5a.5.5,0,0,0-.5-.5h-9a.5.5,0,0,0-.5.5v9a.5.5,0,0,0,.5.5H5.25Z"/>
  <path class="fill" d="M15.5,6H12.75V7H15v8H7V12.75H6V15.5a.5.5,0,0,0,.5.5h9a.5.5,0,0,0,.5-.5v-9A.5.5,0,0,0,15.5,6Z"/>
  <path class="fill" d="M11,7.75V11H7.75v1H11.5a.5.5,0,0,0,.5-.5V7.75Z"/>
  <path class="fill" d="M10.25,6H6.5a.5.5,0,0,0-.5.5v3.75H7V7h3.25Z"/>
</svg>