<svg xmlns:xlink="http://www.w3.org/1999/xlink" xmlns="http://www.w3.org/2000/svg" height="18" viewBox="0 0 18 18" width="18">
  <defs>
    <style>
      .fill {
        fill: #464646;
      }
    </style>
  </defs>
  <title>S PageGear 18 N</title>
  <rect id="Canvas" fill="#ff13dc" opacity="0" width="18" height="18"/><path class="fill" d="M17.4625,12.339H16.305a3.345,3.345,0,0,0-.4885-1.1865l.824-.824a.3305.3305,0,0,0,.0001-.4674l-.0001-.0001-.5-.5a.3305.3305,0,0,0-.4674-.0001l-.0001.0001-.823.823a3.34646,3.34646,0,0,0-1.1865-.489V8.538a.3305.3305,0,0,0-.3305-.3305h-.6635a.3305.3305,0,0,0-.3305.3305V9.6955a3.34594,3.34594,0,0,0-1.1865.489l-.824-.8245a.3305.3305,0,0,0-.4674-.0001L9.861,9.36l-.5.5a.3305.3305,0,0,0-.0001.4674l.0001.0001.824.824a3.345,3.345,0,0,0-.4885,1.1865H8.538a.3305.3305,0,0,0-.3305.3305v.661a.3305.3305,0,0,0,.3305.3305H9.6955a3.345,3.345,0,0,0,.4885,1.1865l-.824.8255a.3305.3305,0,0,0-.0001.4674l.0001.0001.5.5a.3305.3305,0,0,0,.4674.0001l.0001-.0001.824-.824a3.34611,3.34611,0,0,0,1.1865.4885v1.1575a.3305.3305,0,0,0,.3305.3305h.661a.3305.3305,0,0,0,.3305-.3305V16.305a3.34655,3.34655,0,0,0,1.1865-.4885l.824.824a.3305.3305,0,0,0,.4674.0001l.0001-.0001.5-.5a.3305.3305,0,0,0,.0001-.4674l-.0001-.0001-.822-.823a3.345,3.345,0,0,0,.4885-1.1865H17.462a.3305.3305,0,0,0,.3305-.3305v-.6635A.33051.33051,0,0,0,17.4625,12.339ZM13,14.8A1.8,1.8,0,1,1,14.8,13,1.8,1.8,0,0,1,13,14.8Z"/>
  <path class="fill" d="M7.342,15H2V5H16V7.8025a6.03378,6.03378,0,0,1,1,.7255V2.5a.5.5,0,0,0-.5-.5H1.5a.5.5,0,0,0-.5.5v13a.5.5,0,0,0,.5.5H7.8025A6.01389,6.01389,0,0,1,7.342,15Z"/>
</svg>