<svg xmlns:xlink="http://www.w3.org/1999/xlink" xmlns="http://www.w3.org/2000/svg" height="18" viewBox="0 0 18 18" width="18">
  <defs>
    <style>
      .fill {
        fill: #464646;
      }
    </style>
  </defs>
  <title>S Pan 18 N</title>
  <rect id="Canvas" fill="#ff13dc" opacity="0" width="18" height="18"/><path class="fill" d="M15.8235,4.903c-.469-.1675-.9855.25-1.203.762l-1.35,2.423c-.1.2305-.35.4445-.531.354s-.23-.334-.139-.725l.65-4.429a1.139,1.139,0,0,0-.77161-1.41395q-.04227-.01242-.08539-.02155a1.05,1.05,0,0,0-1.058.9l-.618,4.129s-.045.5365-.413.518-.3285-.567-.3285-.567v-4.83A1.0725,1.0725,0,0,0,8.992.8595a1.0725,1.0725,0,0,0-.9845,1.143v4.81c0,.3-.3955.2945-.469.0465C7.2,5.712,6.4555,3.1175,6.4555,3.1175A1.0265,1.0265,0,0,0,5.35,2.3a1.162,1.162,0,0,0-.79514,1.43814q.00833.02891.01814.05736L5.914,8.324a4.32845,4.32845,0,0,1,.1235.6145,1.04,1.04,0,0,1-.3695,1.05,15.03905,15.03905,0,0,1-2.6575-1.441C2.0265,7.77,1.4195,8.039,1.165,8.389c-.271.3725-.082.984.3085,1.455L4.958,13.3405a2.07794,2.07794,0,0,1,.215.35A13.31458,13.31458,0,0,0,6.2,15.5265a3.65414,3.65414,0,0,0,3.117,1.333,3.62963,3.62963,0,0,0,3.675-2.133c.328-1.105.6385-2.596.7875-3.115.097-.339,2.4825-5.1965,2.4825-5.1965C16.5285,5.794,16.4205,5.1165,15.8235,4.903Z"/>
</svg>