<svg xmlns:xlink="http://www.w3.org/1999/xlink" xmlns="http://www.w3.org/2000/svg" height="18" viewBox="0 0 18 18" width="18">
  <defs>
    <style>
      .fill {
        fill: #464646;
      }
    </style>
  </defs>
  <title>S PasteHTML 18 N</title>
  <rect id="Canvas" fill="#ff13dc" opacity="0" width="18" height="18"/><path class="fill" d="M11,3V2A2,2,0,0,0,7,2V3H5V5h8V3ZM10,3H8V2a1,1,0,0,1,2,0Z"/>
  <path class="fill" d="M15.5,3H14V5.5a.5.5,0,0,1-.5.5h-9A.5.5,0,0,1,4,5.5V3H2.5a.5.5,0,0,0-.5.5v13a.5.5,0,0,0,.5.5h13a.5.5,0,0,0,.5-.5V3.5A.5.5,0,0,0,15.5,3ZM7.0245,12.5915a.2.2,0,0,1,0,.2815l-.844.844a.2.2,0,0,1-.2815,0L3.4635,11.2815a.4.4,0,0,1,0-.5625L5.9,8.283a.2.2,0,0,1,.2815,0l.844.844a.2.2,0,0,1,0,.2815L5.433,11Zm1.9165,2.35a.2.2,0,0,1-.234.156l-1.17-.234a.2.2,0,0,1-.1565-.234L8.894,7.06a.2.2,0,0,1,.234-.156l1.1705.234a.2.2,0,0,1,.156.234Zm5.5955-3.66L12.1,13.717a.2.2,0,0,1-.2815,0l-.844-.844a.2.2,0,0,1,0-.2815L12.567,11,10.9755,9.4085a.2.2,0,0,1,0-.2815l.844-.844a.2.2,0,0,1,.2815,0l2.4355,2.4355A.4.4,0,0,1,14.5365,11.2815Z"/>
</svg>