<svg xmlns:xlink="http://www.w3.org/1999/xlink" xmlns="http://www.w3.org/2000/svg" height="18" viewBox="0 0 18 18" width="18">
  <defs>
    <style>
      .fill {
        fill: #464646;
      }
    </style>
  </defs>
  <title>S PasteText 18 N</title>
  <rect id="Canvas" fill="#ff13dc" opacity="0" width="18" height="18"/><path class="fill" d="M11,3V2A2,2,0,0,0,7,2V3H5V5h8V3ZM10,3H8V2a1,1,0,0,1,2,0Z"/>
  <path class="fill" d="M15.5,3H14V5.5a.5.5,0,0,1-.5.5h-9A.5.5,0,0,1,4,5.5V3H2.5a.5.5,0,0,0-.5.5v13a.5.5,0,0,0,.5.5h13a.5.5,0,0,0,.5-.5V3.5A.5.5,0,0,0,15.5,3ZM13,9.75a.25.25,0,0,1-.25.25h-.5A.25.25,0,0,1,12,9.75V9H10v5h.75a.25.25,0,0,1,.25.25v.5a.25.25,0,0,1-.25.25H7.25A.25.25,0,0,1,7,14.75v-.5A.25.25,0,0,1,7.25,14H8V9H6v.7365a.25.25,0,0,1-.25.25h-.5a.25.25,0,0,1-.25-.25V8.25A.25.25,0,0,1,5.25,8h7.5a.25.25,0,0,1,.25.25Z"/>
</svg>