<svg xmlns:xlink="http://www.w3.org/1999/xlink" xmlns="http://www.w3.org/2000/svg" height="18" viewBox="0 0 18 18" width="18">
  <defs>
    <style>
      .fill {
        fill: #464646;
      }
    </style>
  </defs>
  <title>S Pattern 18 N</title>
  <rect id="Canvas" fill="#ff13dc" opacity="0" width="18" height="18"/><rect class="fill" height="2" rx="0.25" width="3" x="1" y="2"/>
  <rect class="fill" height="4" rx="0.25" width="1" x="5" y="1"/>
  <rect class="fill" height="2" rx="0.25" width="3" x="7" y="2"/>
  <rect class="fill" height="2" rx="0.25" width="3" x="13" y="2"/>
  <rect class="fill" height="4" rx="0.25" width="1" x="11" y="1"/>
  <rect class="fill" height="2" rx="0.25" width="3" x="1" y="10"/>
  <rect class="fill" height="4" rx="0.25" width="1" x="5" y="9"/>
  <rect class="fill" height="2" rx="0.25" width="3" x="7" y="10"/>
  <rect class="fill" height="2" rx="0.25" width="3" x="13" y="10"/>
  <rect class="fill" height="4" rx="0.25" width="1" x="11" y="9"/>
  <rect class="fill" height="4" rx="0.25" width="1" x="2" y="5"/>
  <rect class="fill" height="2" rx="0.25" width="3" x="4" y="6"/>
  <rect class="fill" height="2" rx="0.25" width="3" x="10" y="6"/>
  <rect class="fill" height="4" rx="0.25" width="1" x="8" y="5"/>
  <rect class="fill" height="4" rx="0.25" width="1" x="14" y="5"/>
  <rect class="fill" height="4" rx="0.25" width="1" x="2" y="13"/>
  <rect class="fill" height="2" rx="0.25" width="3" x="4" y="14"/>
  <rect class="fill" height="2" rx="0.25" width="3" x="10" y="14"/>
  <rect class="fill" height="4" rx="0.25" width="1" x="8" y="13"/>
  <rect class="fill" height="4" rx="0.25" width="1" x="14" y="13"/>
</svg>