<svg xmlns:xlink="http://www.w3.org/1999/xlink" xmlns="http://www.w3.org/2000/svg" height="18" viewBox="0 0 18 18" width="18">
  <defs>
    <style>
      .fill {
        fill: #464646;
      }
    </style>
  </defs>
  <title>S PeopleGroup 18 N</title>
  <rect id="Canvas" fill="#ff13dc" opacity="0" width="18" height="18"/><path class="fill" d="M6.987,3.376a1.9735,1.9735,0,1,0-.004-2.8,2.936,2.936,0,0,1,.3655,1.4A2.94292,2.94292,0,0,1,6.987,3.376ZM8.4875,4.5h-.225a4.917,4.917,0,0,0-.676.0465,3.4805,3.4805,0,0,1,1.163,2.68v4.706a1.2835,1.2835,0,0,1-1.281,1.2815H7.283l-.409,4.3715.016.17A.281.281,0,0,0,7.169,18H9.575a.281.281,0,0,0,.279-.2445l.519-5.541h1.096a.28151.28151,0,0,0,.2815-.281V7.226C11.75,5.4065,10.2895,4.5,8.4875,4.5Z"/>
  <path class="fill" d="M11.237,3.376a1.9735,1.9735,0,1,0-.004-2.8,2.936,2.936,0,0,1,.3655,1.4A2.94292,2.94292,0,0,1,11.237,3.376ZM12.7375,4.5h-.225a4.917,4.917,0,0,0-.676.0465A3.4805,3.4805,0,0,1,13,7.2265v4.706a1.2835,1.2835,0,0,1-1.281,1.2815h-.1855l-.409,4.3715.016.17a.281.281,0,0,0,.279.2445h2.406a.281.281,0,0,0,.279-.2445l.519-5.541h1.096A.2815.2815,0,0,0,16,11.933V7.226C16,5.4065,14.5395,4.5,12.7375,4.5Z"/>
  <path class="fill" d="M6.35,1.974a1.9735,1.9735,0,1,1,0-.001ZM4.4875,4.5h-.225C2.4605,4.5,1,5.407,1,7.2265V11.933a.281.281,0,0,0,.2805.2815H2.374L2.89,17.755A.2815.2815,0,0,0,3.169,18H5.575a.281.281,0,0,0,.279-.2445l.519-5.541H7.469a.281.281,0,0,0,.281-.281V7.2265C7.75,5.407,6.2895,4.5,4.4875,4.5Z"/>
</svg>