<svg xmlns:xlink="http://www.w3.org/1999/xlink" xmlns="http://www.w3.org/2000/svg" height="18" viewBox="0 0 18 18" width="18">
  <defs>
    <style>
      .fill {
        fill: #464646;
      }
    </style>
  </defs>
  <title>S PersonalizationField 18 N</title>
  <rect id="Canvas" fill="#ff13dc" opacity="0" width="18" height="18"/><path class="fill" d="M15.5,1H2.5a.5.5,0,0,0-.5.5v15a.5.5,0,0,0,.5.5h13a.5.5,0,0,0,.5-.5V1.5A.5.5,0,0,0,15.5,1ZM6,14.75a.25.25,0,0,1-.25.25H3.25A.25.25,0,0,1,3,14.75v-.5A.25.25,0,0,1,3.25,14h2.5a.25.25,0,0,1,.25.25Zm9,0a.25.25,0,0,1-.25.25H8.25A.25.25,0,0,1,8,14.75v-.5A.25.25,0,0,1,8.25,14h6.5a.25.25,0,0,1,.25.25ZM15,11H13.765c-.473-.696-1.343-1.0805-2.9145-1.24a.509.509,0,0,1-.441-.5115V8.51a.51154.51154,0,0,1,.13-.3295,3.9,3.9,0,0,0,.8865-2.434c0-1.842-.9765-2.871-2.4525-2.871s-2.481,1.0695-2.481,2.871a3.94244,3.94244,0,0,0,.9295,2.434.50947.50947,0,0,1,.13.3295v.735a.5075.5075,0,0,1-.4425.512c-1.621.141-2.49.5335-2.95,1.243H3V2H15Z"/>
</svg>