<svg xmlns:xlink="http://www.w3.org/1999/xlink" xmlns="http://www.w3.org/2000/svg" height="18" viewBox="0 0 18 18" width="18">
  <defs>
    <style>
      .fill {
        fill: #464646;
      }
    </style>
  </defs>
  <title>S PlatformDataMapping 18 N</title>
  <rect id="Canvas" fill="#ff13dc" opacity="0" width="18" height="18"/><path class="fill" d="M15.16376,10.00235a2.49376,2.49376,0,0,0-3.03656,1.66432H5V9.46757a.25.25,0,0,0-.41459-.18813L1.215,12.2285a.25.25,0,0,0,0,.37629l3.37034,2.94906A.25.25,0,0,0,5,15.3657v-2.199h7.1272a2.4965,2.4965,0,1,0,3.03656-3.16432ZM2.83592,6.83089A2.49379,2.49379,0,0,0,5.87281,5.16667H13V7.36574a.25.25,0,0,0,.41461.18813L16.785,4.60481a.25.25,0,0,0,0-.37629L13.41461,1.27946A.25.25,0,0,0,13,1.4676V3.66667H5.87281A2.4965,2.4965,0,1,0,2.83592,6.83089Z"/>
</svg>