<svg xmlns:xlink="http://www.w3.org/1999/xlink" xmlns="http://www.w3.org/2000/svg" height="18" viewBox="0 0 18 18" width="18">
  <defs>
    <style>
      .fill {
        fill: #464646;
      }
    </style>
  </defs>
  <title>S Plug 18 N</title>
  <rect id="Canvas" fill="#ff13dc" opacity="0" width="18" height="18"/><path class="fill" d="M1.6775,12.9915a3.0595,3.0595,0,0,1,0-4.3265l2.644-2.644-.017-.017a1.3595,1.3595,0,0,1-.00038-1.92262L4.3045,4.081l.9615-.9615a1.3595,1.3595,0,0,1,1.92262-.00038L7.189,3.1195l.961.9615L11.4115.8195a.51.51,0,0,1,.721,0l.721.721a.51.51,0,0,1,0,.721l-3.262,3.262L12.476,8.408l3.262-3.262a.51.51,0,0,1,.721,0l.721.721a.51.51,0,0,1,0,.721L13.919,9.85l.9615.9615a1.3595,1.3595,0,0,1,.00038,1.92262l-.00038.00038-.9615.9615a1.3595,1.3595,0,0,1-1.92262.00038L11.996,13.696l-.0295-.0295L9.3225,16.31a3.059,3.059,0,0,1-4.32608.00042L4.996,16.31Z"/>
</svg>