<svg xmlns:xlink="http://www.w3.org/1999/xlink" xmlns="http://www.w3.org/2000/svg" height="18" viewBox="0 0 18 18" width="18">
  <defs>
    <style>
      .fill {
        fill: #464646;
      }
    </style>
  </defs>
  <title>S PolygonSelect 18 N</title>
  <rect id="Canvas" fill="#ff13dc" opacity="0" width="18" height="18"/><path class="fill" d="M15.2275.9145l-5.087,3.31-8.808-1.468A.5.5,0,0,0,.796,3.459l3.3415,7.2535a2.70308,2.70308,0,0,0-.2375.972,2.809,2.809,0,0,0,3.05,2.478,3.61944,3.61944,0,0,0,.4575-.0375,3.289,3.289,0,0,1,.6425.925,1.2135,1.2135,0,0,1-.1185,1.0575,2.656,2.656,0,0,1-1.612.833.25.25,0,0,0-.2065.2705l.05.5a.25.25,0,0,0,.273.22466l.0165-.00216a3.62966,3.62966,0,0,0,2.3-1.2525,2.1835,2.1835,0,0,0,.2635-1.8895,2.90593,2.90593,0,0,0-.5585-.964c.425-.186,1.5105-1.0465,1.5105-1.85l5.6595-1.4935A.5.5,0,0,0,16,10V1.3335a.5.5,0,0,0-.7725-.419ZM4.9,11.6845a1.47651,1.47651,0,0,1,.986-1.25,3.205,3.205,0,0,0-.071,1.5315,3.272,3.272,0,0,0,.722,1.1655C5.616,12.9885,4.9,12.384,4.9,11.6845ZM7.7755,13.03a5.37042,5.37042,0,0,1-.991-1.308A2.90006,2.90006,0,0,1,7.009,10.21c1.085.024,1.992.687,1.992,1.4745A1.573,1.573,0,0,1,7.7755,13.03ZM15,9.6145l-5.1295,1.354a3.03949,3.03949,0,0,0-2.92-1.7625,3.4,3.4,0,0,0-2.089.6885L2.1,3.9l8.0685,1.345a.5.5,0,0,0,.355-.0745L15,2.2555Z"/>
</svg>