<svg xmlns:xlink="http://www.w3.org/1999/xlink" xmlns="http://www.w3.org/2000/svg" height="18" viewBox="0 0 18 18" width="18">
  <defs>
    <style>
      .fill {
        fill: #464646;
      }
    </style>
  </defs>
  <title>S Portrait 18 N</title>
  <rect id="Canvas" fill="#ff13dc" opacity="0" width="18" height="18"/><circle class="fill" cx="9" cy="5.5" r="1.75"/>
  <path class="fill" d="M15.5,1H2.5a.5.5,0,0,0-.5.5v15a.5.5,0,0,0,.5.5h13a.5.5,0,0,0,.5-.5V1.5A.5.5,0,0,0,15.5,1ZM15,16H12V14a1,1,0,0,0,1-1V10a2,2,0,0,0-2-2H7a2,2,0,0,0-2,2v3a1,1,0,0,0,1,1v2H3V2H15Z"/>
</svg>