<svg xmlns:xlink="http://www.w3.org/1999/xlink" xmlns="http://www.w3.org/2000/svg" height="18" viewBox="0 0 18 18" width="18">
  <defs>
    <style>
      .fill {
        fill: #464646;
      }
    </style>
  </defs>
  <title>S Preset 18 N</title>
  <rect id="Canvas" fill="#ff13dc" opacity="0" width="18" height="18"/><path class="fill" d="M17,7A6,6,0,0,0,5.2585,5.2585a6.01888,6.01888,0,0,1,1.15-.2285A5,5,0,1,1,12.97,11.5925a6.01888,6.01888,0,0,1-.2285,1.15A6,6,0,0,0,17,7Z"/>
  <rect class="fill" height="1" width="1" x="7" y="6"/>
  <rect class="fill" height="1" width="1" x="6" y="7"/>
  <rect class="fill" height="1" width="1" x="7" y="8"/>
  <rect class="fill" height="1" width="1" x="6" y="9"/>
  <rect class="fill" height="1" width="1" x="7" y="10"/>
  <rect class="fill" height="1" width="1" x="8" y="11"/>
  <rect class="fill" height="1" width="1" x="8" y="9"/>
  <rect class="fill" height="1" width="1" x="8" y="7"/>
  <rect class="fill" height="1" width="1" x="9" y="8"/>
  <rect class="fill" height="1" width="1" x="9" y="10"/>
  <path class="fill" d="M12,12.9085V12H11v1a5.99342,5.99342,0,0,1-1-.09V12H9v.65a5.96962,5.96962,0,0,1-1-.461V12H7.686A5.94317,5.94317,0,0,1,7,11.463V11H6.537A6.08593,6.08593,0,0,1,6,10.314V10H5.8095A5.928,5.928,0,0,1,5.349,9H6V8H5.09A5.99342,5.99342,0,0,1,5,7H6V6H5.0915a6.035,6.035,0,0,1,.167-.741,6,6,0,1,0,7.483,7.482A6.063,6.063,0,0,1,12,12.9085Z"/>
  <rect class="fill" height="1" width="1" x="10" y="11"/>
  <rect class="fill" height="1" width="1" x="11" y="10"/>
  <rect class="fill" height="1" width="1" x="10" y="9"/>
  <rect class="fill" height="1" width="1" x="11" y="8"/>
  <rect class="fill" height="1" width="1" x="10" y="7"/>
  <rect class="fill" height="1" width="1" x="9" y="6"/>
  <path class="fill" d="M13,11H12v1h.9085A5.94018,5.94018,0,0,0,13,11Z"/>
  <path class="fill" d="M12.65,9H12v1h.91A5.95448,5.95448,0,0,0,12.65,9Z"/>
  <path class="fill" d="M12,7.686V8h.1905C12.1295,7.894,12.0675,7.788,12,7.686Z"/>
  <path class="fill" d="M6,6H7V5a5.94018,5.94018,0,0,0-1,.0915Z"/>
  <path class="fill" d="M8,5.09V6H9V5.35A5.95448,5.95448,0,0,0,8,5.09Z"/>
  <path class="fill" d="M10,5.8095V6h.314C10.212,5.9325,10.106,5.8705,10,5.8095Z"/>
  <path class="fill" d="M11,6.537V7h.463A5.95239,5.95239,0,0,0,11,6.537Z"/>
</svg>