	<svg xmlns="http://www.w3.org/2000/svg" width="18" height="18" viewBox="0 0 18 18" x="108" y="142">
		<path d="M16.88 8.694a1.167 1.167 0 0 0-.861-.365 1.853 1.853 0 0 0-1.208.543 12.42 12.42 0 0 0-.856.934c-.789.912-1.052 1.183-1.221 1.254a.272.272 0 0 1-.236-.011 1.086 1.086 0 0 1-.555-.744 4.551 4.551 0 0 1-.217-1.251V2.737a1.039 1.039 0 0 0-2.078 0v5.191a.288.288 0 0 1-.575 0V1.892a1.039 1.039 0 0 0-2.073 0v6.127a.288.288 0 0 1-.575 0V2.945a1.039 1.039 0 0 0-2.078 0v6.02a.287.287 0 0 1-.574 0V5.889a.84.84 0 0 0-.86-.819.845.845 0 0 0-.864.824l-.011 1.598c-.008 2.109-.009 2.391.006 4.019a8.911 8.911 0 0 0 .827 4.113A5.377 5.377 0 0 0 7.663 18c1.592 0 3.557-1.293 5.683-3.738l3.136-4.27c.405-.404.691-.968.398-1.298Z" style="fill:#464646" data-name="18px@Icons"/>
	</svg>