<svg xmlns="http://www.w3.org/2000/svg" height="18" viewBox="0 0 18 18" width="18">
    <defs>
       <style>
         .fill {
           fill: #464646;
         }
       </style>
     </defs>
	 <title>S ProgramOverview 18 N</title>
     <path d="M14.474,9.074a3.9,3.9,0,0,0-3.79-4.543,4.532,4.532,0,0,0-1.167.153,5.456,5.456,0,0,1-7.581,6.9A2.338,2.338,0,0,0-.129,13.772a2.112,2.112,0,0,0,2.281,2.143H14.7a3.113,3.113,0,0,0,3.163-3.279,3.565,3.565,0,0,0-3.392-3.563Z"/>
     <path d="M8.686,5.971H7.643a3.2,3.2,0,0,0-.578-1.4L7.8,3.835a.248.248,0,0,0,0-.351L7.45,3.133a.248.248,0,0,0-.351,0l-.736.736a3.2,3.2,0,0,0-1.4-.578V2.248A.248.248,0,0,0,4.715,2h-.5a.248.248,0,0,0-.248.248V3.291a3.2,3.2,0,0,0-1.4.578l-.736-.736a.248.248,0,0,0-.351,0l-.351.351a.248.248,0,0,0,0,.351l.736.736a3.2,3.2,0,0,0-.578,1.4H.248A.248.248,0,0,0,0,6.219v.5a.248.248,0,0,0,.248.248H1.291a3.2,3.2,0,0,0,.578,1.4L1.133,9.1a.248.248,0,0,0,0,.351l.351.351a.248.248,0,0,0,.351,0l.736-.736a3.2,3.2,0,0,0,1.4.578v1.043a.248.248,0,0,0,.248.248h.5a.248.248,0,0,0,.248-.248V9.643a3.2,3.2,0,0,0,1.4-.578L7.1,9.8a.248.248,0,0,0,.351,0L7.8,9.45a.248.248,0,0,0,0-.351l-.736-.736a3.2,3.2,0,0,0,.578-1.4H8.686a.248.248,0,0,0,.248-.248v-.5A.248.248,0,0,0,8.686,5.971ZM4.467,8.2A1.737,1.737,0,1,1,6.2,6.467,1.737,1.737,0,0,1,4.467,8.2Z"/>
</svg>