<svg xmlns:xlink="http://www.w3.org/1999/xlink" xmlns="http://www.w3.org/2000/svg" height="18" viewBox="0 0 18 18" width="18">
  <defs>
    <style>
      .fill {
        fill: #464646;
      }
    </style>
  </defs>
  <title>S ProjectAdd 18 N</title>
  <rect id="Canvas" fill="#ff13dc" opacity="0" width="18" height="18"/><path class="fill" d="M6,4H0V2.5A.5.5,0,0,1,.5,2H3.793a.5.5,0,0,1,.3535.1465Z"/>
  <path class="fill" d="M7.35,13.55A6.1435,6.1435,0,0,1,16,7.9345V5.5a.5.5,0,0,0-.5-.5H0V15.5a.5.5,0,0,0,.5.5H7.8605A6.12549,6.12549,0,0,1,7.35,13.55ZM4,13.75a.25.25,0,0,1-.25.25H2.25A.25.25,0,0,1,2,13.75V7.25A.25.25,0,0,1,2.25,7h1.5A.25.25,0,0,1,4,7.25Zm3,0a.25.25,0,0,1-.25.25H5.25A.25.25,0,0,1,5,13.75V9.25A.25.25,0,0,1,5.25,9h1.5A.25.25,0,0,1,7,9.25Z"/>
  <path class="fill" d="M13.5,9.05a4.45,4.45,0,1,0,4.45,4.45A4.45,4.45,0,0,0,13.5,9.05Zm2.5,4.7a.25.25,0,0,1-.25.25H14v1.75a.25.25,0,0,1-.25.25h-.5a.25.25,0,0,1-.25-.25V14H11.25a.25.25,0,0,1-.25-.25v-.5a.25.25,0,0,1,.25-.25H13V11.25a.25.25,0,0,1,.25-.25h.5a.25.25,0,0,1,.25.25V13h1.75a.25.25,0,0,1,.25.25Z"/>
</svg>