<svg xmlns:xlink="http://www.w3.org/1999/xlink" xmlns="http://www.w3.org/2000/svg" height="18" viewBox="0 0 18 18" width="18">
  <defs>
    <style>
      .fill {
        fill: #464646;
      }
    </style>
  </defs>
  <title>S Project 18 N</title>
  <rect id="Canvas" fill="#ff13dc" opacity="0" width="18" height="18"/><path class="fill" d="M7,4H1V2.5A.5.5,0,0,1,1.5,2H4.793a.5.5,0,0,1,.3535.1465Z"/>
  <path class="fill" d="M16.5,5H1V15.5a.5.5,0,0,0,.5.5h15a.5.5,0,0,0,.5-.5V5.5A.5.5,0,0,0,16.5,5ZM5,13.75a.25.25,0,0,1-.25.25H3.25A.25.25,0,0,1,3,13.75V7.25A.25.25,0,0,1,3.25,7h1.5A.25.25,0,0,1,5,7.25Zm3,0a.25.25,0,0,1-.25.25H6.25A.25.25,0,0,1,6,13.75V9.25A.25.25,0,0,1,6.25,9h1.5A.25.25,0,0,1,8,9.25Zm3,0a.25.25,0,0,1-.25.25H9.25A.25.25,0,0,1,9,13.75v-2.5A.25.25,0,0,1,9.25,11h1.5a.25.25,0,0,1,.25.25Zm3,0a.25.25,0,0,1-.25.25h-1.5a.25.25,0,0,1-.25-.25v-.5a.25.25,0,0,1,.25-.25h1.5a.25.25,0,0,1,.25.25Z"/>
</svg>