<svg xmlns:xlink="http://www.w3.org/1999/xlink" xmlns="http://www.w3.org/2000/svg" height="18" viewBox="0 0 18 18" width="18">
  <defs>
    <style>
      .fill {
        fill: #464646;
      }
    </style>
  </defs>
  <title>S PublishSchedule 18 N</title>
  <rect id="Canvas" fill="#ff13dc" opacity="0" width="18" height="18"/><path class="fill" d="M16.5955.5565.9,5.239a.25.25,0,0,0-.04.463L4.82,7.679Z"/>
  <path class="fill" d="M7.8225,11.186,5.04,9.625v3.8195a.3565.3565,0,0,0,.587.272l1.8975-1.6A6.12092,6.12092,0,0,1,7.8225,11.186Z"/>
  <path class="fill" d="M13.5,7.4a6.14429,6.14429,0,0,1,1.393.1645L17.8185,1.182,6.5445,8.5155,8.762,9.63A6.13653,6.13653,0,0,1,13.5,7.4Z"/>
  <path class="fill" d="M13.5,9.05a4.45,4.45,0,1,0,4.45,4.45A4.45,4.45,0,0,0,13.5,9.05Zm0,7.9A3.4425,3.4425,0,0,1,13,10.1v3.6225l1.8585,1.8585.7075-.707L14,13.3085V10.1a3.4425,3.4425,0,0,1-.5,6.85Z"/>
</svg>