<svg xmlns:xlink="http://www.w3.org/1999/xlink" xmlns="http://www.w3.org/2000/svg" height="18" viewBox="0 0 18 18" width="18">
  <defs>
    <style>
      .fill {
        fill: #464646;
      }
    </style>
  </defs>
  <title>S PublishReject 18 N</title>
  <rect id="Canvas" fill="#ff13dc" opacity="0" width="18" height="18"/><path class="fill" d="M16.5955.5565.9,5.239a.25.25,0,0,0-.04.463L4.82,7.679Z"/>
  <path class="fill" d="M7.8225,11.186,5.04,9.625v3.8195a.3565.3565,0,0,0,.587.272l1.8975-1.6A6.11869,6.11869,0,0,1,7.8225,11.186Z"/>
  <path class="fill" d="M13.5,7.4a6.14429,6.14429,0,0,1,1.393.1645L17.8185,1.182,6.5445,8.5155,8.762,9.63A6.13653,6.13653,0,0,1,13.5,7.4Z"/>
  <path class="fill" d="M13.5,9.05a4.45,4.45,0,1,0,4.45,4.45A4.45,4.45,0,0,0,13.5,9.05Zm2.5,4.7a.25.25,0,0,1-.25.25h-4.5a.25.25,0,0,1-.25-.25v-.5a.25.25,0,0,1,.25-.25h4.5a.25.25,0,0,1,.25.25Z"/>
</svg>