<svg xmlns:xlink="http://www.w3.org/1999/xlink" xmlns="http://www.w3.org/2000/svg" height="18" viewBox="0 0 18 18" width="18">
  <defs>
    <style>
      .fill {
        fill: #464646;
      }
    </style>
  </defs>
  <title>S PublishPending 18 N</title>
  <rect id="Canvas" fill="#ff13dc" opacity="0" width="18" height="18"/><path class="fill" d="M16.5955.5565.9,5.239a.25.25,0,0,0-.04.463L4.82,7.679Z"/>
  <path class="fill" d="M7.8225,11.186,5.04,9.625v3.8195a.3565.3565,0,0,0,.587.272l1.8975-1.6A6.11869,6.11869,0,0,1,7.8225,11.186Z"/>
  <path class="fill" d="M13.5,7.4a6.14429,6.14429,0,0,1,1.393.1645L17.8185,1.182,6.5445,8.5155,8.762,9.63A6.13653,6.13653,0,0,1,13.5,7.4Z"/>
  <polygon class="fill" points="13 13.309 11.434 14.875 12.142 15.582 14 13.723 14 10.161 13 10.161 13 13.309"/>
  <path class="fill" d="M16.8585,14.15a3.47989,3.47989,0,0,1-.5205,1.268l.7185.7185a4.46447,4.46447,0,0,0,.816-1.9865Z"/>
  <path class="fill" d="M17.876,12.85a4.4175,4.4175,0,0,0-.8-1.958l-.7195.708a3.43136,3.43136,0,0,1,.507,1.25Z"/>
  <path class="fill" d="M15.4245,16.3435A3.38592,3.38592,0,0,1,13.5,16.95a3.438,3.438,0,0,1-.6-6.8255V9.121a4.4335,4.4335,0,0,0,.6,8.829,4.36647,4.36647,0,0,0,2.6355-.8955Z"/>
  <path class="fill" d="M14.1,9.119v1.009a3.44341,3.44341,0,0,1,1.345.5465l.717-.7055A4.417,4.417,0,0,0,14.1,9.119Z"/>
</svg>