<svg xmlns:xlink="http://www.w3.org/1999/xlink" xmlns="http://www.w3.org/2000/svg" height="18" viewBox="0 0 18 18" width="18">
  <defs>
    <style>
      .fill {
        fill: #464646;
      }
    </style>
  </defs>
  <title>S PushNotification 18 N</title>
  <rect id="Canvas" fill="#ff13dc" opacity="0" width="18" height="18"/><path class="fill" d="M13.5.05A4.45,4.45,0,1,0,17.95,4.5,4.45,4.45,0,0,0,13.5.05ZM14.842,7H12.0265c-.0635,0-.0815-.027-.0725-.0815l-.004-.928a.087.087,0,0,1,.09139-.08238L12.05,5.909h.84V3.1855a7.76078,7.76078,0,0,1-.9765.2535c-.063.009-.0815-.009-.0815-.0635v-.787c0-.0455.0095-.0725.0635-.0815a5.79288,5.79288,0,0,0,1.1695-.462A.33352.33352,0,0,1,13.2205,2H13.96c.0455,0,.0545.027.0545.0635V5.909h.8095c.0635,0,.0815.0275.0905.0815v.91C14.923,6.973,14.896,7,14.842,7Z"/>
  <path class="fill" d="M13.5,10.65A6.15,6.15,0,0,1,7.35,4.5c0-.169.012-.3345.025-.5H2A1,1,0,0,0,1,5V16a1,1,0,0,0,1,1H13a1,1,0,0,0,1-1V10.625C13.8345,10.638,13.669,10.65,13.5,10.65Z"/>
</svg>