<svg xmlns:xlink="http://www.w3.org/1999/xlink" xmlns="http://www.w3.org/2000/svg" height="18" viewBox="0 0 18 18" width="18">
  <defs>
    <style>
      .fill {
        fill: #464646;
      }
    </style>
  </defs>
  <title>S QuickSelect 18 N</title>
  <rect id="Canvas" fill="#ff13dc" opacity="0" width="18" height="18"/><path class="fill" d="M8.1665,8.907a2.234,2.234,0,0,0-1.57.419,3.2175,3.2175,0,0,0-.984,1.718,3.04951,3.04951,0,0,1-1.091,1.8135,1.13982,1.13982,0,0,0-.294.205.262.262,0,0,0-.031.3285.36445.36445,0,0,0,.2.0945c1.6585.382,3.7745.509,5.139-.717A2.2,2.2,0,0,0,8.895,9.105,2.35712,2.35712,0,0,0,8.1665,8.907Z"/>
  <path class="fill" d="M11.4685,9.7635c2.8535-3.245,6.477-7.705,5.528-8.654S12.1175,4.587,9.291,7.685A3.965,3.965,0,0,1,11.4685,9.7635Z"/>
  <path class="fill" d="M3.7345,2.977l-.3-1.0185A5.57649,5.57649,0,0,0,1.532,4.195l.9925.2415A4.50337,4.50337,0,0,1,3.7345,2.977Z"/>
  <path class="fill" d="M2,6.5c0-.121.026-.2345.0355-.353l-.994-.242A5.58233,5.58233,0,0,0,1,6.5555V8.111H2Z"/>
  <path class="fill" d="M2,11.5V9.889H1v1.5555a5.58371,5.58371,0,0,0,.055.7415l.99-.2415A4.35788,4.35788,0,0,1,2,11.5Z"/>
  <path class="fill" d="M2.57,13.6465l-.997.243a5.57542,5.57542,0,0,0,1.863,2.15l.3-1.019A4.48951,4.48951,0,0,1,2.57,13.6465Z"/>
  <path class="fill" d="M6.5,16a4.43493,4.43493,0,0,1-1.15-.168l-.2815.9605a5.432,5.432,0,0,0,2.974,0L7.75,15.8A4.434,4.434,0,0,1,6.5,16Z"/>
  <path class="fill" d="M10.443,13.6225A4.49545,4.49545,0,0,1,9.355,14.95l.32,1.0925a5.57705,5.57705,0,0,0,1.8635-2.15Z"/>
  <path class="fill" d="M10.471,4.428q.4025-.43451.777-.83A5.55,5.55,0,0,0,9.675,1.9585L9.355,3.05A4.49016,4.49016,0,0,1,10.471,4.428Z"/>
  <path class="fill" d="M6.5,2a4.43323,4.43323,0,0,1,1.25.2l.2905-.9915a5.432,5.432,0,0,0-2.974,0l.281.96A4.442,4.442,0,0,1,6.5,2Z"/>
</svg>