<svg xmlns:xlink="http://www.w3.org/1999/xlink" xmlns="http://www.w3.org/2000/svg" height="18" viewBox="0 0 18 18" width="18">
  <defs>
    <style>
      .fill {
        fill: #464646;
        fill-rule: evenodd;
      }
    </style>
  </defs>
  <rect id="Canvas" fill="#ff13dc" opacity="0" width="18" height="18"/>
  <path class="fill" opacity="0.07" d="M9,6.178A2.822,2.822,0,1,0,11.822,9,2.822,2.822,0,0,0,9,6.178Z"/>
  <path class="fill" opacity="0.18" d="M9,5.3345A3.6655,3.6655,0,1,0,12.6655,9,3.6655,3.6655,0,0,0,9,5.3345ZM9,11.822A2.822,2.822,0,1,1,11.822,9,2.822,2.822,0,0,1,9,11.822Z"/>
  <path class="fill" opacity="0.28" d="M9,4.4545A4.5455,4.5455,0,1,0,13.5455,9,4.5455,4.5455,0,0,0,9,4.4545Zm0,8.211A3.6655,3.6655,0,1,1,12.6655,9,3.6655,3.6655,0,0,1,9,12.6655Z"/>
  <path class="fill" opacity="0.38" d="M9,3.5455A5.4545,5.4545,0,1,0,14.4545,9,5.4545,5.4545,0,0,0,9,3.5455Zm0,10A4.5455,4.5455,0,1,1,13.5455,9,4.5455,4.5455,0,0,1,9,13.5455Z"/>
  <path class="fill" opacity="0.6" d="M9,2.6365A6.3635,6.3635,0,1,0,15.3635,9,6.36351,6.36351,0,0,0,9,2.6365Zm0,11.818A5.4545,5.4545,0,1,1,14.4545,9,5.4545,5.4545,0,0,1,9,14.4545Z"/>
  <path class="fill" opacity="0.6" d="M7.05,16h3.9A7.2755,7.2755,0,0,0,16,10.95V7.05A7.2755,7.2755,0,0,0,10.95,2H7.05A7.2755,7.2755,0,0,0,2,7.05v3.9A7.2755,7.2755,0,0,0,7.05,16ZM9,2.6365A6.3635,6.3635,0,1,1,2.6365,9,6.36351,6.36351,0,0,1,9,2.6365Z"/>
  <path class="fill" opacity="0.75" d="M7.05,2H4.78A8.20648,8.20648,0,0,0,2,4.78V7.05A7.2755,7.2755,0,0,1,7.05,2Z"/>
  <path class="fill" opacity="0.75" d="M10.95,16h2.268A8.2,8.2,0,0,0,16,13.2195V10.95A7.2755,7.2755,0,0,1,10.95,16Z"/>
  <path class="fill" opacity="0.75" d="M2,10.95v2.2675A8.19992,8.19992,0,0,0,4.7805,16H7.05A7.2755,7.2755,0,0,1,2,10.95Z"/>
  <path class="fill" opacity="0.75" d="M16,7.05V4.78A8.20648,8.20648,0,0,0,13.22,2H10.95A7.2755,7.2755,0,0,1,16,7.05Z"/>
  <path class="fill" opacity="0.9" d="M13.2195,16H14.8A9.08654,9.08654,0,0,0,16,14.8V13.2195A8.2,8.2,0,0,1,13.2195,16Z"/>
  <path class="fill" opacity="0.9" d="M4.78,2H3.2A9.08654,9.08654,0,0,0,2,3.2V4.78A8.20648,8.20648,0,0,1,4.78,2Z"/>
  <path class="fill" opacity="0.9" d="M2,13.2195V14.8A9.08654,9.08654,0,0,0,3.2,16H4.7805A8.2,8.2,0,0,1,2,13.2195Z"/>
  <path class="fill" opacity="0.9" d="M16,4.78V3.2A9.08654,9.08654,0,0,0,14.8,2H13.22A8.20648,8.20648,0,0,1,16,4.78Z"/>
  <path class="fill" d="M16.5,1H1.5a.5.5,0,0,0-.5.5v15a.5.5,0,0,0,.5.5h15a.5.5,0,0,0,.5-.5V1.5A.5.5,0,0,0,16.5,1ZM16,14.8A9.08654,9.08654,0,0,1,14.8,16H3.2A9.08654,9.08654,0,0,1,2,14.8V3.2A9.08654,9.08654,0,0,1,3.2,2H14.8A9.08654,9.08654,0,0,1,16,3.2Z"/>
</svg>