<svg xmlns:xlink="http://www.w3.org/1999/xlink" xmlns="http://www.w3.org/2000/svg" height="18" viewBox="0 0 18 18" width="18">
  <defs>
    <style>
      .fill {
        fill: #464646;
      }
    </style>
  </defs>
  <title>S RailRight 18 N</title>
  <rect id="Canvas" fill="#ff13dc" opacity="0" width="18" height="18"/><path class="fill" d="M0,2.5835v12.833A.573.573,0,0,0,.56231,16H17.4375A.573.573,0,0,0,18,15.41669V2.5835A.573.573,0,0,0,17.43769,2H.5625A.573.573,0,0,0,0,2.58331ZM16.65,5.75A.25.25,0,0,1,16.4,6H13.6a.25.25,0,0,1-.25-.25v-.5A.25.25,0,0,1,13.6,5h2.8a.25.25,0,0,1,.25.25Zm0,3A.25.25,0,0,1,16.4,9H13.6a.25.25,0,0,1-.25-.25v-.5A.25.25,0,0,1,13.6,8h2.8a.25.25,0,0,1,.25.25Zm-3.3,2.5A.25.25,0,0,1,13.6,11h2.8a.25.25,0,0,1,.25.25v.5a.25.25,0,0,1-.25.25H13.6a.25.25,0,0,1-.25-.25ZM1,5H12V15H1Z"/>
</svg>