<svg xmlns:xlink="http://www.w3.org/1999/xlink" xmlns="http://www.w3.org/2000/svg" height="18" viewBox="0 0 18 18" width="18">
  <defs>
    <style>
      .fill {
        fill: #464646;
      }
    </style>
  </defs>
  <title>S RangeMask 18 N</title>
  <rect id="Canvas" fill="#ff13dc" opacity="0" width="18" height="18"/><path class="fill" d="M12.9745,11.044a5.45007,5.45007,0,0,1-.423,1.6395l.888.513A6.47216,6.47216,0,0,0,14,11.044Z"/>
  <path class="fill" d="M10.8345,14.8735l.5155.8905a6.54414,6.54414,0,0,0,1.563-1.614l-.891-.514A5.531,5.531,0,0,1,10.8345,14.8735Z"/>
  <path class="fill" d="M8.2255,15.95v1.035a6.46406,6.46406,0,0,0,2.1945-.6535l-.512-.8865A5.45348,5.45348,0,0,1,8.2255,15.95Z"/>
  <path class="fill" d="M5.377,15.5785l-.5135.89a6.49052,6.49052,0,0,0,2.274.5405V15.9865A5.4636,5.4636,0,0,1,5.377,15.5785Z"/>
  <path class="fill" d="M3.09,13.779l-.894.516A6.55559,6.55559,0,0,0,3.908,15.95l.512-.889A5.538,5.538,0,0,1,3.09,13.779Z"/>
  <path class="fill" d="M2.029,11.044H1a6.47354,6.47354,0,0,0,.6395,2.316l.891-.514A5.454,5.454,0,0,1,2.029,11.044Z"/>
  <path class="fill" d="M2.534,8.1565,1.6395,7.64A6.47354,6.47354,0,0,0,1,9.956H2.0295A5.4642,5.4642,0,0,1,2.534,8.1565Z"/>
  <path class="fill" d="M4.424,5.9465l-.516-.894A6.55544,6.55544,0,0,0,2.196,6.705l.9.519A5.54255,5.54255,0,0,1,4.424,5.9465Z"/>
  <path class="fill" d="M7.1375,5.0235V3.991a6.47959,6.47959,0,0,0-2.274.5405l.5185.9A5.47165,5.47165,0,0,1,7.1375,5.0235Z"/>
  <path class="fill" d="M17.9115,2.129A1.619,1.619,0,0,0,17.455.82L17.1925.5575A1.603,1.603,0,0,0,16.05.0935h-.0605a1.867,1.867,0,0,0-1.25.554L12.975,2.411l-.6565-.6565A.445.445,0,0,0,12,1.6255a.51847.51847,0,0,0-.364.154l-1.18,1.181a.483.483,0,0,0-.0255.6815l.383.383-5.65,5.65A2.23552,2.23552,0,0,0,8.325,12.8365l5.65-5.65.395.3955a.447.447,0,0,0,.318.1285.5165.5165,0,0,0,.364-.154L16.233,6.376a.4835.4835,0,0,0,.025-.682L15.6,5.0375l1.7625-1.763A1.87449,1.87449,0,0,0,17.9115,2.129Zm-10.2955,10a1.2355,1.2355,0,0,1-1.7772-1.7168l.0302-.0302,5.65-5.65,1.75,1.7475Z"/>
</svg>