<svg xmlns:xlink="http://www.w3.org/1999/xlink" xmlns="http://www.w3.org/2000/svg" height="18" viewBox="0 0 18 18" width="18">
  <defs>
    <style>
      .fill {
        fill: #464646;
      }
    </style>
  </defs>
  <title>S RectSelect 18 N</title>
  <rect id="Canvas" fill="#ff13dc" opacity="0" width="18" height="18"/><rect class="fill" height="1" width="3" x="5" y="2"/>
  <rect class="fill" height="1" width="3" x="10" y="2"/>
  <path class="fill" d="M1.5,2a.5.5,0,0,0-.5.5V4H2V3H3V2Z"/>
  <rect class="fill" height="2" width="1" x="1" y="6"/>
  <rect class="fill" height="2" width="1" x="1" y="10"/>
  <path class="fill" d="M2,15V14H1v1.5a.5.5,0,0,0,.5.5H3V15Z"/>
  <rect class="fill" height="1" width="3" x="5" y="15"/>
  <rect class="fill" height="1" width="3" x="10" y="15"/>
  <path class="fill" d="M15,2V3h1V4h1V2.5a.5.5,0,0,0-.5-.5Z"/>
  <rect class="fill" height="2" width="1" x="16" y="6"/>
  <rect class="fill" height="2" width="1" x="16" y="10"/>
  <path class="fill" d="M16,14v1H15v1h1.5a.5.5,0,0,0,.5-.5V14Z"/>
</svg>