<svg xmlns:xlink="http://www.w3.org/1999/xlink" xmlns="http://www.w3.org/2000/svg" height="18" viewBox="0 0 18 18" width="18">
  <defs>
    <style>
      .fill {
        fill: #464646;
      }
    </style>
  </defs>
  <title>S RegionSelect 18 N</title>
  <rect id="Canvas" fill="#ff13dc" opacity="0" width="18" height="18"/><path class="fill" d="M17.046,6.022c-.408-2.557-3.396-4.278-7.042-4.278a12.10409,12.10409,0,0,0-1.9.1525C3.6405,2.6085.41,5.6095.887,8.6a3.93049,3.93049,0,0,0,.8685,1.876c-.004.077-.0075.15-.0075.2085a2.80933,2.80933,0,0,0,3.05,2.478,3.61988,3.61988,0,0,0,.458-.0375,3.3,3.3,0,0,1,.644.925,1.217,1.217,0,0,1-.1185,1.0575,2.657,2.657,0,0,1-1.612.833.25.25,0,0,0-.207.2705l.05.5a.25.25,0,0,0,.27255.2252L4.302,16.934a3.633,3.633,0,0,0,2.3-1.253,2.185,2.185,0,0,0,.264-1.8895,2.92346,2.92346,0,0,0-.5585-.964c.034-.016.059-.0415.0925-.058a11.02516,11.02516,0,0,0,1.53.109,12.11012,12.11012,0,0,0,1.9-.15C14.2925,12.0135,17.523,9.012,17.046,6.022ZM2.75,10.6845a1.47651,1.47651,0,0,1,.986-1.25,3.205,3.205,0,0,0-.071,1.5315,3.2721,3.2721,0,0,0,.72,1.1645C3.464,11.9885,2.75,11.384,2.75,10.6845ZM5.624,12.03a5.36018,5.36018,0,0,1-.989-1.308A2.90749,2.90749,0,0,1,4.859,9.21c1.085.024,1.992.687,1.992,1.4745A1.573,1.573,0,0,1,5.624,12.03Zm4.0485-.292a11.05629,11.05629,0,0,1-1.7405.14c-.1845,0-.3585-.021-.5385-.0305l.3095-.435a2.03316,2.03316,0,0,0,.15-.728A2.809,2.809,0,0,0,4.803,8.206,3.30746,3.30746,0,0,0,2.368,9.2l-.1245.2a2.79713,2.79713,0,0,1-.369-.9565C1.4915,6.0425,4.416,3.5,8.2605,2.884a11.09566,11.09566,0,0,1,1.744-.14c3.1905,0,5.7365,1.445,6.054,3.4355C16.4415,8.579,13.517,11.1245,9.6725,11.738Z"/>
</svg>