<svg xmlns="http://www.w3.org/2000/svg" width="18" height="18" viewBox="0 0 18 18" class="spectrum-Icon_368b34 spectrum-Icon--sizeXS_368b34 parcel-icon" focusable="false" aria-hidden="true" role="img"><g id="icon-impact" transform="translate(0 18) rotate(-90)"><g id="canavs" fill="#222" stroke="#6e6e6e" stroke-width="1" opacity="0"><rect width="18" height="18" stroke="none"></rect><rect x="0.5" y="0.5" width="17" height="17" fill="none"></rect></g><path id="before_arrow" data-name="before arrow" d="M11.966,3.728a.463.463,0,0,0,.1-.524.517.517,0,0,0-.471-.3H10.153V0H7.059V2.909H5.627a.52.52,0,0,0-.478.3.466.466,0,0,0,.106.53L8.606,6.788Z" transform="translate(0.392 0.751)"></path><path id="after_arrow" data-name="after arrow" d="M11.75,14.854A.5.5,0,0,0,11.389,14H10V11H7v3H5.6a.5.5,0,0,0-.358.844L8.5,18Z" transform="translate(0.608)"></path><path id="center_bar" data-name="center bar" d="M.5,0h14a.5.5,0,0,1,.5.5v1a.5.5,0,0,1-.5.5H.5A.5.5,0,0,1,0,1.5V.5A.5.5,0,0,1,.5,0Z" transform="translate(1.5 8)"></path></g></svg>