<svg xmlns:xlink="http://www.w3.org/1999/xlink" xmlns="http://www.w3.org/2000/svg" height="18" viewBox="0 0 18 18" width="18">
  <defs>
    <style>
      .fill {
        fill: #464646;
      }
    </style>
  </defs>
  <title>S Relevance 18 N</title>
  <rect id="Canvas" fill="#ff13dc" opacity="0" width="18" height="18"/><path class="fill" d="M2.1125,7.7925a6.9935,6.9935,0,0,1,5.68-5.68A.247.247,0,0,0,8,1.87V1.3605a.25.25,0,0,0-.289-.25,7.996,7.996,0,0,0-6.6,6.6.25.25,0,0,0,.25.289H1.87A.247.247,0,0,0,2.1125,7.7925Z"/>
  <path class="fill" d="M10.2075,2.1125a6.9935,6.9935,0,0,1,5.68,5.68A.247.247,0,0,0,16.13,8h.5095a.25.25,0,0,0,.25-.289,7.996,7.996,0,0,0-6.6-6.6.25.25,0,0,0-.289.25V1.87A.247.247,0,0,0,10.2075,2.1125Z"/>
  <path class="fill" d="M7.7925,15.8875a6.9935,6.9935,0,0,1-5.68-5.68A.247.247,0,0,0,1.87,10H1.3605a.25.25,0,0,0-.25.289,7.996,7.996,0,0,0,6.6,6.6.25.25,0,0,0,.289-.25V16.13A.247.247,0,0,0,7.7925,15.8875Z"/>
  <path class="fill" d="M15.8875,10.2075a6.9935,6.9935,0,0,1-5.68,5.68A.247.247,0,0,0,10,16.13v.5095a.25.25,0,0,0,.289.25,7.996,7.996,0,0,0,6.6-6.6.25.25,0,0,0-.25-.289H16.13A.247.247,0,0,0,15.8875,10.2075Z"/>
  <circle class="fill" cx="9" cy="9" r="3"/>
</svg>