<svg xmlns:xlink="http://www.w3.org/1999/xlink" xmlns="http://www.w3.org/2000/svg" height="18" viewBox="0 0 18 18" width="18">
  <defs>
    <style>
      .fill {
        fill: #464646;
      }
    </style>
  </defs>
  <title>S Replies 18 N</title>
  <rect id="Canvas" fill="#ff13dc" opacity="0" width="18" height="18"/><path class="fill" d="M10.9735,3.0295V1.439a.318.318,0,0,0-.543-.225L6.837,4.9385,10.43,8.663a.318.318,0,0,0,.543-.225V6.8235a5.84349,5.84349,0,0,1,5.958,2.316.225.225,0,0,0,.4055-.13C17.337,8.05,16.241,3.0295,10.9735,3.0295Z"/>
  <path class="fill" d="M5.9875,9V7.1255a.375.375,0,0,0-.64-.265L1.1125,11.25l4.235,4.3895a.375.375,0,0,0,.64-.265v-1.9A6.88648,6.88648,0,0,1,13.0095,16.2a.2655.2655,0,0,0,.478-.1535C13.4875,14.916,12.1955,9,5.9875,9Z"/>
</svg>