<svg xmlns:xlink="http://www.w3.org/1999/xlink" xmlns="http://www.w3.org/2000/svg" height="18" viewBox="0 0 18 18" width="18">
  <defs>
    <style>
      .fill {
        fill: #464646;
      }
    </style>
  </defs>
  <title>S Replay 18 N</title>
  <rect id="Canvas" fill="#ff13dc" opacity="0" width="18" height="18"/><path class="fill" d="M7.169,5.07A.439.439,0,0,0,6.9315,5H6.466A.484.484,0,0,0,6,5.5v7a.484.484,0,0,0,.466.5h.4655a.439.439,0,0,0,.2375-.07l5.6025-3.5a.519.519,0,0,0,0-.86Z"/>
  <path class="fill" d="M16.6315,10.3125l-.493-.0845a.247.247,0,0,0-.284.197,7,7,0,1,1-5.913-8.3615A6.25,6.25,0,0,1,14.066,4.581l-.9925.992A.245.245,0,0,0,13,5.75a.25.25,0,0,0,.25.25h2.526A.25.25,0,0,0,16,5.7765V3.25A.25.25,0,0,0,15.75,3a.247.247,0,0,0-.175.0735l-.855.8555a6.22,6.22,0,0,0-4.4785-2.832,8.00029,8.00029,0,1,0,6.5955,9.5125.25349.25349,0,0,0-.20178-.29632Z"/>
</svg>