<svg xmlns:xlink="http://www.w3.org/1999/xlink" xmlns="http://www.w3.org/2000/svg" height="18" viewBox="0 0 18 18" width="18">
  <defs>
    <style>
      .fill {
        fill: #464646;
      }
    </style>
  </defs>
  <title>S ReportAdd 18 N</title>
  <rect id="Canvas" fill="#ff13dc" opacity="0" width="18" height="18"/><path class="fill" d="M7.542,15H5.25A.25.25,0,0,1,5,14.75v-1.5A.25.25,0,0,1,5.25,13H7.375a6.12628,6.12628,0,0,1,.167-1H5.25A.25.25,0,0,1,5,11.75v-1.5A.25.25,0,0,1,5.25,10H8.4465A6.17435,6.17435,0,0,1,9.318,9H8.25A.25.25,0,0,1,8,8.75V5.25A.25.25,0,0,1,8.25,5h1.5a.25.25,0,0,1,.25.25V8.4465a6.13459,6.13459,0,0,1,1-.562V3.25A.25.25,0,0,1,11.25,3h1.5a.25.25,0,0,1,.25.25V7.375c.1655-.0135.331-.025.5-.025s.3345.012.5.025V2.5a.5.5,0,0,0-.5-.5h-9a.5.5,0,0,0-.5.5v13a.5.5,0,0,0,.5.5H7.8845A6.09968,6.09968,0,0,1,7.542,15ZM5,7.25A.25.25,0,0,1,5.25,7h1.5A.25.25,0,0,1,7,7.25v1.5A.25.25,0,0,1,6.75,9H5.25A.25.25,0,0,1,5,8.75Z"/>
  <path class="fill" d="M13.55,9.1A4.45,4.45,0,1,0,18,13.55,4.45,4.45,0,0,0,13.55,9.1Zm2.5,4.7a.25.25,0,0,1-.25.25H14.05V15.8a.25.25,0,0,1-.25.25h-.5a.25.25,0,0,1-.25-.25V14.05H11.3a.25.25,0,0,1-.25-.25v-.5a.25.25,0,0,1,.25-.25h1.75V11.3a.25.25,0,0,1,.25-.25h.5a.25.25,0,0,1,.25.25v1.75H15.8a.25.25,0,0,1,.25.25Z"/>
</svg>