<svg xmlns="http://www.w3.org/2000/svg" width="8" height="8" viewBox="0 0 8 8">
  <g id="AsteriskSize100">
    <rect id="Frame" width="8" height="8" fill="#f0f" opacity="0"/>
    <path id="Shape" d="M6.575,6.555c.055.056.092.13,0,.2l-1.149.741c-.092.056-.129.019-.166-.074l-1.426-2.482L1.963,7c-.019.036-.074.073-.129,0L.945,6.073c-.093-.055-.074-.111,0-.166l2.111-1.76L.648,3.24c-.037,0-.092-.074-.056-.167l.63-1.259a.097.097,0,0,1,.167-.03595l2.111,1.37.13-2.7A.1.1,0,0,1,3.711.337a.14462.14462,0,0,1,.03,0l1.537.2c.093,0,.111.037.093.13L4.648,3.314l2.445-.741c.055-.037.111-.037.148.074l.241,1.37c.018.093,0,.13-.074.13l-2.556.2Z"/>
  </g>
</svg>
