<svg xmlns:xlink="http://www.w3.org/1999/xlink" xmlns="http://www.w3.org/2000/svg" id="Icons" width="18" height="18" viewBox="0 0 18 18">
  <defs>
    <style>
      .fill {
        fill: #464646;
      }
    </style>
  </defs>
  <rect id="Canvas" fill="#ff13dc" opacity="0" width="18" height="18"/>
  <path class="fill" d="M15,1H3A2,2,0,0,0,1,3v8a2,2,0,0,0,2,2H4v4.39648a.25.25,0,0,0,.427.177L9,13h6a2,2,0,0,0,2-2V3A2,2,0,0,0,15,1ZM12.89783,4.8609,8.569,10.32623a.44137.44137,0,0,1-.63415.0708.47519.47519,0,0,1-.03553-.03283L5.13428,7.73975a.47809.47809,0,0,1-.00379-.66047l.00379-.004L5.77734,6.444a.44175.44175,0,0,1,.63916-.00391l.00385.00391L8.03766,8.03571l3.45-4.36115a.43864.43864,0,0,1,.62994-.07367l.00849.0072.70734.58863A.4856.4856,0,0,1,12.89783,4.8609Z"/>
</svg>