<svg width="18" height="18" viewBox="0 0 18 18" xmlns="http://www.w3.org/2000/svg" class="spectrum-Icon_368b34 spectrum-Icon--sizeXS_368b34 parcel-icon" focusable="false" aria-hidden="true" role="img"><defs>
    <style>
      .fill {
        fill: #464646;
      }
    </style>
  </defs> <path d="M16.0478 8.99456V11.174C16.3462 11.3456 16.5794 11.6111 16.7113 11.929C16.8431 12.247 16.8662 12.5996 16.7768 12.932C16.6875 13.2645 16.4908 13.558 16.2174 13.7671C15.9439 13.9761 15.609 14.0889 15.2648 14.088C15.0104 14.0863 14.7603 14.0217 14.5368 13.9L10.5638 16.383C10.5688 16.398 10.5688 16.415 10.5688 16.433C10.5688 16.848 10.4039 17.2461 10.1105 17.5396C9.81696 17.8331 9.41889 17.998 9.00383 17.998C8.58877 17.998 8.1907 17.8331 7.89721 17.5396C7.60371 17.2461 7.43883 16.848 7.43883 16.433C7.43883 16.4258 7.43997 16.4182 7.44116 16.4102C7.44246 16.4015 7.44383 16.3924 7.44383 16.383L3.47083 13.9C3.29144 14.0048 3.0929 14.0728 2.88688 14.0998C2.68085 14.1269 2.4715 14.1124 2.27112 14.0574C2.07075 14.0024 1.8834 13.9078 1.72008 13.7794C1.55677 13.6509 1.42079 13.4911 1.32013 13.3093C1.21947 13.1275 1.15617 12.9274 1.13394 12.7208C1.11172 12.5142 1.13102 12.3053 1.19071 12.1062C1.2504 11.9072 1.34928 11.7221 1.48153 11.5618C1.61379 11.4016 1.77675 11.2693 1.96083 11.173V6.82595C1.66256 6.65433 1.42936 6.38895 1.2975 6.07109C1.16564 5.75324 1.14251 5.40072 1.2317 5.06836C1.32089 4.73599 1.51741 4.44242 1.79069 4.23329C2.06398 4.02415 2.39871 3.91119 2.74283 3.91195C2.99729 3.91363 3.24738 3.97822 3.47083 4.09995L7.44383 1.61695C7.43883 1.60195 7.43883 1.58495 7.43883 1.56695C7.43883 1.36143 7.47931 1.15793 7.55796 0.968054C7.63661 0.778179 7.75188 0.605655 7.89721 0.460331C8.04253 0.315007 8.21505 0.19973 8.40493 0.121082C8.5948 0.0424331 8.79831 0.00195312 9.00383 0.00195312C9.20935 0.00195312 9.41286 0.0424331 9.60273 0.121082C9.7926 0.19973 9.96513 0.315007 10.1105 0.460331C10.2558 0.605655 10.3711 0.778179 10.4497 0.968054C10.5283 1.15793 10.5688 1.36143 10.5688 1.56695C10.5688 1.57411 10.5677 1.58173 10.5665 1.58969C10.5652 1.59841 10.5638 1.60754 10.5638 1.61695L12.686 2.94321C12.4503 3.17986 12.2474 3.4491 12.0845 3.74356L10.2508 2.59895C10.0569 2.83947 9.79743 3.01869 9.50383 3.11495V7.51495C9.70637 7.58118 9.89345 7.68764 10.0538 7.82795L11.8837 6.79813C12.0076 7.11411 12.1748 7.40833 12.378 7.67347L10.5678 8.69295C10.6136 8.89614 10.6163 9.10665 10.5758 9.31095L14.1478 11.324C14.3977 11.0984 14.713 10.9583 15.0478 10.924V9.08099C15.1109 9.08428 15.1743 9.08594 15.2382 9.08594C15.5166 9.08594 15.7876 9.05435 16.0478 8.99456ZM2.96383 10.907C3.3003 10.9455 3.61565 11.0905 3.86383 11.321L7.43583 9.31195C7.39536 9.10765 7.39809 8.89714 7.44383 8.69395L3.83383 6.66095C3.59036 6.87593 3.28659 7.01071 2.96383 7.04695V10.907ZM8.50383 3.12295C8.21192 3.02357 7.95494 2.84195 7.76383 2.59995L4.23183 4.80495C4.37506 5.11606 4.41297 5.46537 4.33983 5.79995L7.94983 7.83995C8.11104 7.69774 8.29954 7.58988 8.50383 7.52295V3.12295ZM4.37683 12.489C4.3799 12.7291 4.31582 12.9653 4.19183 13.171L7.77583 15.409C7.96335 15.1693 8.21618 14.9891 8.50383 14.89V10.54C8.28267 10.468 8.07993 10.3486 7.90983 10.19L4.34683 12.197C4.36569 12.2932 4.37574 12.3909 4.37683 12.489ZM9.50383 14.887C9.79309 14.9862 10.0476 15.1667 10.2368 15.407L13.7788 13.19C13.6291 12.8792 13.5852 12.528 13.6538 12.19L10.0978 10.19C9.92773 10.3486 9.72499 10.468 9.50383 10.54V14.887Z"></path><path d="M15.2382 7.08594C16.1227 7.08594 16.8397 6.36889 16.8397 5.48438C16.8397 4.59986 16.1227 3.88281 15.2382 3.88281C14.3536 3.88281 13.6366 4.59986 13.6366 5.48438C13.6366 6.36889 14.3536 7.08594 15.2382 7.08594Z"></path></svg>