<svg width="18" height="18" viewBox="0 0 18 18" xmlns="http://www.w3.org/2000/svg" class="spectrum-Icon_368b34 spectrum-Icon--sizeXS_368b34 parcel-icon" focusable="false" aria-hidden="true" role="img"><g id="RetentionUser" clip-path="url(#clip-RetentionUser)"><path d="M8.77633 11.0207C8.26947 11.8717 8.00153 12.8435 8.00073 13.834C7.99983 15.112 8.44591 16.3502 9.26173 17.334H0.50073C0.432734 17.3341 0.365432 17.3203 0.302939 17.2935C0.240447 17.2667 0.184077 17.2275 0.137277 17.1781C0.0904767 17.1288 0.0542293 17.0704 0.0307512 17.0066C0.00727316 16.9428 -0.00294227 16.8749 0.000729593 16.807C0.33373 13.216 4.01573 11.992 5.14173 11.894C5.96573 11.822 5.97873 11.16 5.97873 10.334C4.91493 9.07498 4.29442 7.50122 4.21273 5.85498C4.21273 3.14198 5.75673 1.33398 7.97873 1.33398C10.2007 1.33398 11.7447 3.14198 11.7447 5.85498C11.7198 6.95811 11.423 8.03803 10.8807 8.99898C10.0102 9.47136 9.28319 10.1698 8.77633 11.0207Z"></path><path d="M16.7593 10.2233C16.7803 10.2145 16.8029 10.2099 16.8257 10.2098C16.8705 10.2098 16.9135 10.2268 16.9461 10.2575C16.9786 10.2882 16.9982 10.3301 17.0007 10.3748V12.7263C17.0005 12.755 16.989 12.7825 16.9687 12.8028C16.9484 12.8231 16.9209 12.8346 16.8922 12.8348H14.5407C14.496 12.8323 14.4541 12.8127 14.4234 12.7802C14.3927 12.7476 14.3757 12.7046 14.3757 12.6598C14.3756 12.6369 14.3802 12.6141 14.389 12.5929C14.3979 12.5717 14.4109 12.5525 14.4274 12.5365L15.2923 11.6711L15.1409 11.5197C14.8308 11.2108 14.4451 10.9886 14.0223 10.8753C13.5995 10.7619 13.1544 10.7614 12.7313 10.8737C12.3083 10.986 11.922 11.2072 11.6111 11.5153C11.3002 11.8234 11.0754 12.2076 10.9593 12.6297C10.9458 12.6873 10.9135 12.7388 10.8675 12.776C10.8214 12.8131 10.7643 12.8339 10.7051 12.8348H10.293C10.2608 12.8353 10.229 12.8287 10.1997 12.8155C10.1704 12.8022 10.1444 12.7827 10.1235 12.7582C10.1026 12.7338 10.0874 12.7051 10.0789 12.6741C10.0703 12.6431 10.0688 12.6106 10.0742 12.5789C10.1704 12.1324 10.3561 11.71 10.6202 11.3374C10.8843 10.9648 11.2213 10.6496 11.6108 10.411C12.0003 10.1725 12.4341 10.0154 12.8861 9.94939C13.338 9.88337 13.7987 9.90976 14.2401 10.027C14.8459 10.1956 15.3957 10.5227 15.833 10.9746L15.9109 11.0525L16.7032 10.2615C16.7192 10.2452 16.7383 10.2322 16.7593 10.2233Z"></path><path d="M16.2964 13.7098H16.7107C16.7426 13.7097 16.7742 13.7166 16.8033 13.7299C16.8323 13.7433 16.858 13.7629 16.8787 13.7873C16.8993 13.8117 16.9143 13.8403 16.9227 13.8711C16.9311 13.902 16.9327 13.9343 16.9272 13.9658C16.8311 14.4123 16.6454 14.8347 16.3812 15.2073C16.1171 15.5799 15.7801 15.8951 15.3907 16.1336C15.0012 16.3722 14.5673 16.5293 14.1154 16.5953C13.6634 16.6613 13.2028 16.6349 12.7614 16.5177C12.1553 16.3492 11.6051 16.0221 11.1675 15.5701L11.0897 15.4922L10.2982 16.2832C10.2823 16.2995 10.2632 16.3125 10.2422 16.3213C10.2211 16.3302 10.1986 16.3348 10.1757 16.3348C10.131 16.3349 10.088 16.3179 10.0554 16.2872C10.0229 16.2565 10.0033 16.2146 10.0007 16.1699V13.8183C10.0008 13.7896 10.0123 13.7621 10.0326 13.7417C10.053 13.7214 10.0805 13.71 10.1092 13.7098H12.4608C12.5054 13.7124 12.5474 13.732 12.5781 13.7645C12.6088 13.7971 12.6258 13.8401 12.6257 13.8848C12.6258 13.9078 12.6213 13.9306 12.6124 13.9518C12.6035 13.9729 12.5905 13.9921 12.5741 14.0082L11.7092 14.8736L11.8605 15.025C12.1707 15.3338 12.5564 15.556 12.9792 15.6694C13.402 15.7827 13.8471 15.7833 14.2701 15.671C14.6932 15.5587 15.0795 15.3375 15.3904 15.0294C15.7013 14.7213 15.926 14.3371 16.0422 13.915C16.0556 13.8574 16.0879 13.8059 16.134 13.7687C16.18 13.7316 16.2372 13.7108 16.2964 13.7098Z"></path></g><defs><clipPath id="clip-RetentionUser"><rect width="18" height="18"></rect></clipPath></defs></svg>