<svg xmlns:xlink="http://www.w3.org/1999/xlink" xmlns="http://www.w3.org/2000/svg" height="18" viewBox="0 0 18 18" width="18">
  <defs>
    <style>
      .fill {
        fill: #464646;
      }
    </style>
  </defs>
  <title>S Retweet 18 N</title>
  <rect id="Canvas" fill="#ff13dc" opacity="0" width="18" height="18"/><path class="fill" d="M6,12V7H7a.25.25,0,0,0,.2-.4L4.5,3,1.8,6.6A.25.25,0,0,0,2,7H3v5a3,3,0,0,0,3,3h6L9.6205,12Z"/>
  <path class="fill" d="M16,11H15V6a3,3,0,0,0-3-3H6L8.3675,6H12v5H11a.25.25,0,0,0-.2.4L13.5,15l2.7-3.6A.25.25,0,0,0,16,11Z"/>
</svg>