<svg xmlns:xlink="http://www.w3.org/1999/xlink" xmlns="http://www.w3.org/2000/svg" height="18" viewBox="0 0 18 18" width="18">
  <defs>
    <style>
      .fill {
        fill: #464646;
      }
    </style>
  </defs>
  <title>S Reuse 18 N</title>
  <rect id="Canvas" fill="#ff13dc" opacity="0" width="18" height="18"/><path class="fill" d="M8.37,2.154a6.88348,6.88348,0,0,0-5.2805,3.15l-1.565-.817a.346.346,0,0,0-.46681.14671L1.056,4.637a.33649.33649,0,0,0-.0215.2615L2.2,8.6665a.2155.2155,0,0,0,.26981.14172L2.4705,8.808,6.212,7.603a.33952.33952,0,0,0,.2-.1675.345.345,0,0,0-.14184-.46683L6.267,6.967,4.622,6.1065A5.158,5.158,0,0,1,9.7,3.9285a.43151.43151,0,0,0,.497-.3125l.216-.8415a.4295.4295,0,0,0-.30346-.52617l-.027-.00633A6.861,6.861,0,0,0,8.37,2.154Z"/>
  <path class="fill" d="M16.456,4.1275a.339.339,0,0,0-.2245-.1365L12.34,3.341a.218.218,0,0,0-.161.038.215.215,0,0,0-.0865.1405l-.6,3.885a.339.339,0,0,0,.0585.256.34548.34548,0,0,0,.48174.08161L12.035,7.7405,13.481,6.7a5.094,5.094,0,0,1,.569,1.9595A5.15849,5.15849,0,0,1,12.8205,12.4a.4345.4345,0,0,0,.0115.5935l.611.6135a.43251.43251,0,0,0,.61159.00876L14.07,13.6a6.866,6.866,0,0,0,.834-7.9255l1.474-1.062a.34551.34551,0,0,0,.08018-.482Z"/>
  <path class="fill" d="M11.8805,14.533l-3.012-2.524a.3375.3375,0,0,0-.25-.082.3455.3455,0,0,0-.31924.3699L8.2995,12.3l.15,1.84A5.191,5.191,0,0,1,4.014,10.75a.433.433,0,0,0-.5235-.282l-.8325.2365a.43451.43451,0,0,0-.30485.53353l.00485.01647A6.9105,6.9105,0,0,0,8.5865,15.882l.1415,1.754a.34551.34551,0,0,0,.37162.31724L9.1025,17.953a.339.339,0,0,0,.2325-.121l2.5705-2.9945a.216.216,0,0,0-.02494-.30445Z"/>
</svg>