<svg xmlns:xlink="http://www.w3.org/1999/xlink" xmlns="http://www.w3.org/2000/svg" height="18" viewBox="0 0 18 18" width="18">
  <defs>
    <style>
      .fill {
        fill: #464646;
      }
    </style>
  </defs>
  <title>S RewindCircle 18 N</title>
  <rect id="Canvas" fill="#ff13dc" opacity="0" width="18" height="18"/><path class="fill" d="M9,1A8,8,0,1,1,1,9,8,8,0,0,1,9,1Zm1,9.955,1.4305,1.25a.5.5,0,0,0,.8295-.3765V6.1245a.5.5,0,0,0-.8295-.3765L10,7Zm-1.829,1.25A.5.5,0,0,0,9,11.831V6.124a.5.5,0,0,0-.829-.376L4.4795,8.9775Z"/>
</svg>