<svg xmlns:xlink="http://www.w3.org/1999/xlink" xmlns="http://www.w3.org/2000/svg" height="18" viewBox="0 0 18 18" width="18">
  <defs>
    <style>
      .fill {
        fill: #464646;
      }
    </style>
  </defs>
  <title>S Ribbon 18 N</title>
  <rect id="Canvas" fill="#ff13dc" opacity="0" width="18" height="18"/><path class="fill" d="M5.888,11.3305,3.782,15.12a.25.25,0,0,0,.3085.3465L6.1,14.75a.25.25,0,0,1,.3195.15l.716,2.008a.25.25,0,0,0,.463.019l.8405-1.854L6.918,11.8525A5.71483,5.71483,0,0,1,5.888,11.3305Zm8.33,3.7895-1.9345-3.9035a5.624,5.624,0,0,1-4.109.9675l2.2295,4.745a.25.25,0,0,0,.4625-.019l.716-2.01a.25.25,0,0,1,.32-.15l2.007.716a.25.25,0,0,0,.3085-.346Z"/>
  <path class="fill" d="M9,2a4.5,4.5,0,1,0,4.5,4.5A4.5,4.5,0,0,0,9,2ZM9,9.25A2.75,2.75,0,1,1,11.75,6.5,2.75,2.75,0,0,1,9,9.25Z"/>
</svg>