<svg xmlns:xlink="http://www.w3.org/1999/xlink" xmlns="http://www.w3.org/2000/svg" height="18" id="S_RSS_18_N" viewBox="0 0 18 18" width="18">
  <defs>
    <style>
      .fill {
        fill: #464646;
      }

      
    </style>
  </defs>
  <rect id="Canvas" fill="#ff13dc" opacity="0" width="18" height="18"/><circle class="fill" cx="3.997" cy="14.003" r="2"/>
  <path class="fill" d="M10.992,16h-2a.25.25,0,0,1-.248-.244,6.759,6.759,0,0,0-6.5-6.5A.25.25,0,0,1,2,9.01v-2a.252.252,0,0,1,.256-.251,9.262,9.262,0,0,1,8.987,8.991A.25.25,0,0,1,10.992,16Z"/>
  <path class="fill" d="M15.992,16h-2a.249.249,0,0,1-.249-.246A11.848,11.848,0,0,0,2.243,4.162.249.249,0,0,1,2,3.914V2.008a.253.253,0,0,1,.254-.253A14.269,14.269,0,0,1,16.245,15.749.253.253,0,0,1,15.992,16Z"/>
  </svg>