<svg xmlns:xlink="http://www.w3.org/1999/xlink" xmlns="http://www.w3.org/2000/svg" height="18" viewBox="0 0 18 18" width="18">
  <defs>
    <style>
      .fill {
        fill: #464646;
      }
    </style>
  </defs>
  <title>S Sampler 18 N</title>
  <rect id="Canvas" fill="#ff13dc" opacity="0" width="18" height="18"/><path class="fill" d="M11.2285,8.5185,4.116,15.631a1.2355,1.2355,0,0,1-1.7772-1.7168l.0302-.0302L9.4815,6.7715ZM14.864,1.053a1.79554,1.79554,0,0,0-1.273.5275L11.3285,3.843l-.707-.707a.5.5,0,0,0-.707,0L8.2335,4.8165a.5.5,0,0,0,0,.707l.5405.541L1.662,13.177a2.23516,2.23516,0,0,0,3.161,3.161l7.1125-7.112.541.5405a.5.5,0,0,0,.707,0L14.864,8.086a.5.5,0,0,0,.00039-.70711L14.864,7.3785l-.707-.707L16.4195,4.409a1.8,1.8,0,0,0,.00042-2.54558L16.4195,1.863l-.2825-.2825A1.796,1.796,0,0,0,14.864,1.053Z"/>
</svg>