<svg xmlns:xlink="http://www.w3.org/1999/xlink" xmlns="http://www.w3.org/2000/svg" height="18" viewBox="0 0 18 18" width="18">
  <defs>
    <style>
      .fill {
        fill: #464646;
      }
    </style>
  </defs>
  <title>S Sandbox 18 N</title>
  <rect id="Canvas" fill="#ff13dc" opacity="0" width="18" height="18"/><rect class="fill" height="1" width="1" x="12" y="1"/>
  <rect class="fill" height="1" width="1" x="12" y="1"/>
  <rect class="fill" height="1" width="1" x="14" y="1"/>
  <rect class="fill" height="1" width="1" x="14" y="1"/>
  <path class="fill" d="M17,2V1.5a.5.5,0,0,0-.5-.5H16V2Z"/>
  <path class="fill" d="M17,2V1.5a.5.5,0,0,0-.5-.5H16V2Z"/>
  <rect class="fill" height="1" width="1" x="10" y="3"/>
  <rect class="fill" height="1" width="1" x="10" y="3"/>
  <rect class="fill" height="1" width="1" x="10" y="5"/>
  <rect class="fill" height="1" width="1" x="10" y="5"/>
  <rect class="fill" height="1" width="1" x="10" y="7"/>
  <rect class="fill" height="1" width="1" x="10" y="7"/>
  <rect class="fill" height="1" width="1" x="10" y="9"/>
  <rect class="fill" height="1" width="1" x="10" y="9"/>
  <rect class="fill" height="1" width="1" x="10" y="11"/>
  <rect class="fill" height="1" width="1" x="10" y="11"/>
  <rect class="fill" height="1" width="1" x="10" y="13"/>
  <rect class="fill" height="1" width="1" x="10" y="13"/>
  <path class="fill" d="M11,16V15H10v.5a.5.5,0,0,0,.5.5Z"/>
  <path class="fill" d="M11,16V15H10v.5a.5.5,0,0,0,.5.5Z"/>
  <rect class="fill" height="1" width="1" x="12" y="15"/>
  <rect class="fill" height="1" width="1" x="12" y="15"/>
  <rect class="fill" height="1" width="1" x="14" y="15"/>
  <rect class="fill" height="1" width="1" x="14" y="15"/>
  <rect class="fill" height="1" width="1" x="16" y="3"/>
  <rect class="fill" height="1" width="1" x="16" y="3"/>
  <rect class="fill" height="1" width="1" x="16" y="5"/>
  <rect class="fill" height="1" width="1" x="16" y="5"/>
  <rect class="fill" height="1" width="1" x="16" y="7"/>
  <rect class="fill" height="1" width="1" x="16" y="7"/>
  <rect class="fill" height="1" width="1" x="16" y="9"/>
  <rect class="fill" height="1" width="1" x="16" y="9"/>
  <rect class="fill" height="1" width="1" x="16" y="11"/>
  <rect class="fill" height="1" width="1" x="16" y="11"/>
  <rect class="fill" height="1" width="1" x="16" y="13"/>
  <rect class="fill" height="1" width="1" x="16" y="13"/>
  <path class="fill" d="M17,15.5V15H16v1h.5A.5.5,0,0,0,17,15.5Z"/>
  <path class="fill" d="M17,15.5V15H16v1h.5A.5.5,0,0,0,17,15.5Z"/>
  <rect class="fill" height="15" rx="0.5" width="7" x="1" y="1"/>
  <path class="fill" d="M11,2V1h-.5a.5.5,0,0,0-.5.5V2Z"/>
</svg>