<svg xmlns:xlink="http://www.w3.org/1999/xlink" xmlns="http://www.w3.org/2000/svg" height="18" viewBox="0 0 18 18" width="18">
  <defs>
    <style>
      .fill {
        fill: #464646;
      }
    </style>
  </defs>
  <title>S SaveToLight 18 N</title>
  <rect id="Canvas" fill="#ff13dc" opacity="0" width="18" height="18"/><path class="fill" d="M16.5,4H13V5h3V15H2V5H5V4H1.5a.5.5,0,0,0-.5.5v11a.5.5,0,0,0,.5.5h15a.5.5,0,0,0,.5-.5V4.5A.5.5,0,0,0,16.5,4Z"/>
  <path class="fill" d="M12.3965,7H10V.25A.25.25,0,0,0,9.75,0H8.25A.25.25,0,0,0,8,.25V7H5.6035a.25.25,0,0,0-.1765.427L9,11l3.573-3.573A.25.25,0,0,0,12.3965,7Z"/>
</svg>