<svg xmlns:xlink="http://www.w3.org/1999/xlink" xmlns="http://www.w3.org/2000/svg" height="18" viewBox="0 0 18 18" width="18">
  <defs>
    <style>
      .fill {
        fill: #464646;
      }
    </style>
  </defs>
  <title>S SaveAsFloppy 18 N</title>
  <rect id="Canvas" fill="#ff13dc" opacity="0" width="18" height="18"/><rect class="fill" height="3" width="2" x="10" y="1"/>
  <path class="fill" d="M7.8845,16H4V8h6.76A6.12,6.12,0,0,1,17,8.4465V4.21a.5.5,0,0,0-.146-.3535s-2.7125-2.711-2.7785-2.7675A.48352.48352,0,0,0,13.7945,1H13V5H6V1H1.5a.5.5,0,0,0-.5.5v15a.5.5,0,0,0,.5.5H8.446A6.12753,6.12753,0,0,1,7.8845,16Z"/>
  <path class="fill" d="M13.5,9.05a4.45,4.45,0,1,0,4.45,4.45A4.45,4.45,0,0,0,13.5,9.05Zm2.5,4.7a.25.25,0,0,1-.25.25H14v1.75a.25.25,0,0,1-.25.25h-.5a.25.25,0,0,1-.25-.25V14H11.25a.25.25,0,0,1-.25-.25v-.5a.25.25,0,0,1,.25-.25H13V11.25a.25.25,0,0,1,.25-.25h.5a.25.25,0,0,1,.25.25V13h1.75a.25.25,0,0,1,.25.25Z"/>
</svg>