<svg xmlns:xlink="http://www.w3.org/1999/xlink" xmlns="http://www.w3.org/2000/svg" height="18" viewBox="0 0 18 18" width="18">
  <defs>
    <style>
      .fill {
        fill: #464646;
      }
    </style>
  </defs>
  <title>S SaveFloppy 18 N</title>
  <rect id="Canvas" fill="#ff13dc" opacity="0" width="18" height="18"/><rect class="fill" height="3" width="2" x="10" y="2"/>
  <path class="fill" d="M15.854,4.1465s-2.0075-2-2.073-2.057A.48449.48449,0,0,0,13.5,2H13V6H7V2H2.5a.5.5,0,0,0-.5.5v13a.5.5,0,0,0,.5.5h13a.5.5,0,0,0,.5-.5V4.5A.5.5,0,0,0,15.854,4.1465ZM13,15H5V8h8Z"/>
</svg>