<svg xmlns:xlink="http://www.w3.org/1999/xlink" xmlns="http://www.w3.org/2000/svg" height="18" viewBox="0 0 36 36" width="18">
  <defs>
    <style>
      .fill {
        fill: #464646;
      }
    </style>
  </defs>
  <title>S Schema 18 N</title>
  <path d="M23 14h10a1 1 0 0 0 1-1V3a1 1 0 0 0-1-1H23a1 1 0 0 0-1 1v3h-8V3a1 1 0 0 0-1-1H3a1 1 0 0 0-1 1v10a1 1 0 0 0 1 1h3v14a2 2 0 0 0 2 2h14v3a1 1 0 0 0 1 1h10a1 1 0 0 0 1-1V23a1 1 0 0 0-1-1H23a1 1 0 0 0-1 1v3H10V14h3a1 1 0 0 0 1-1v-3h8v3a1 1 0 0 0 1 1Z" style="fill:#6e6e6e"/>
</svg>