<svg xmlns:xlink="http://www.w3.org/1999/xlink" xmlns="http://www.w3.org/2000/svg" height="18" viewBox="0 0 18 18" width="18">
  <defs>
    <style>
      .fill {
        fill: #464646;
      }
    </style>
  </defs>
  <title>S Scribble 18 N</title>
  <rect id="Canvas" fill="#ff13dc" opacity="0" width="18" height="18"/><path class="fill" d="M13.9825,2.286a.4825.4825,0,0,0-.0215-.681.48149.48149,0,0,0-.68057-.0224L13.28,1.583a.66448.66448,0,0,0-.0585.0725L8.8465,6.018l.006.008a.3427.3427,0,0,0-.0725.0595.4975.4975,0,0,0,.7.7.45468.45468,0,0,0,.0595-.0725l.0065.0065L13.9175,2.35,13.91,2.3435A.42785.42785,0,0,0,13.9825,2.286Z"/>
  <path class="fill" d="M14.871,3.05c-.3605.3605-4.769,4.8225-4.7945,4.85a1.1065,1.1065,0,0,1-1.1805.0145L8.512,7.552,3.1145,12.843a.7498.7498,0,0,0-.1635.24l-.9355,3.203a.1875.1875,0,0,0,.2475.2455l3.2165-.978a.75011.75011,0,0,0,.23-.1565L16.5,4.6455Z"/>
  <path class="fill" d="M15.3785,2.192,16.931,3.67a1.38949,1.38949,0,0,0-.4035-1.6165,1.65,1.65,0,0,0-1.61-.5305c-.0895.0325.032.15.069.1875S15.3545,2.144,15.3785,2.192Z"/>
  <path class="fill" d="M17.0395,14.4755A5.37865,5.37865,0,0,0,13.12,14.01a9.62259,9.62259,0,0,0-3.4405,1.7c-.4.2885-.842.591-1.1385.4595a1.293,1.293,0,0,1-.4385-.5065,4.234,4.234,0,0,0-.3-.4285,2.2635,2.2635,0,0,0-.194-.193L6.89,15.76a1.25781,1.25781,0,0,1,.1395.11,3.3745,3.3745,0,0,1,.2285.331,2.05349,2.05349,0,0,0,.883.8855,1.36057,1.36057,0,0,0,.55.114,2.87047,2.87047,0,0,0,1.578-.682,8.66358,8.66358,0,0,1,3.08-1.533,4.43952,4.43952,0,0,1,3.1905.357.50042.50042,0,1,0,.5-.867Z"/>
</svg>