<svg xmlns:xlink="http://www.w3.org/1999/xlink" xmlns="http://www.w3.org/2000/svg" height="18" viewBox="0 0 18 18" width="18">
  <defs>
    <style>
      .fill {
        fill: #464646;
      }
    </style>
  </defs>
  <title>S SelectCircular 18 N</title>
  <rect id="Canvas" fill="#ff13dc" opacity="0" width="18" height="18"/><path class="fill" d="M5.9,2.73l-.327-.95A8.01151,8.01151,0,0,0,3,3.714l.8285.5795A7.00718,7.00718,0,0,1,5.9,2.73Z"/>
  <path class="fill" d="M2.804,5.7465l-.8285-.58a7.91953,7.91953,0,0,0-.922,2.944H2.062A6.95948,6.95948,0,0,1,2.804,5.7465Z"/>
  <path class="fill" d="M2.062,9.8885H1.05a8.01058,8.01058,0,0,0,1.0725,3.18l.8-.603A6.94592,6.94592,0,0,1,2.062,9.8885Z"/>
  <path class="fill" d="M3.992,13.886l-.803.605a7.93456,7.93456,0,0,0,2.6365,1.85l.295-.9645A7.0131,7.0131,0,0,1,3.992,13.886Z"/>
  <path class="fill" d="M9,16a6.98925,6.98925,0,0,1-1.1785-.107l-.295.9665a7.931,7.931,0,0,0,3.22-.058L10.42,15.855A7,7,0,0,1,9,16Z"/>
  <path class="fill" d="M12.1,15.2695l.3265.95A7.99992,7.99992,0,0,0,15,14.2845l-.8265-.579A7.01919,7.01919,0,0,1,12.1,15.2695Z"/>
  <path class="fill" d="M15.937,9.8885a6.95007,6.95007,0,0,1-.742,2.364l.828.5795a7.921,7.921,0,0,0,.922-2.9435Z"/>
  <path class="fill" d="M15.937,8.1105H16.95A8.01009,8.01009,0,0,0,15.8765,4.93l-.8.6035A6.94357,6.94357,0,0,1,15.937,8.1105Z"/>
  <path class="fill" d="M14.0065,4.113l.8035-.6055a7.94254,7.94254,0,0,0-2.637-1.85l-.295.965A7.01144,7.01144,0,0,1,14.0065,4.113Z"/>
  <path class="fill" d="M9,2a7.03464,7.03464,0,0,1,1.178.1065l.2955-.9675a7.9399,7.9399,0,0,0-3.22.0585l.3265.947A7.02938,7.02938,0,0,1,9,2Z"/>
</svg>