<svg xmlns:xlink="http://www.w3.org/1999/xlink" xmlns="http://www.w3.org/2000/svg" height="18" viewBox="0 0 18 18" width="18">
  <defs>
    <style>
      .fill {
        fill: #464646;
      }
    </style>
  </defs>
  <title>S SelectionMove 18 N</title>
  <rect id="Canvas" fill="#ff13dc" opacity="0" width="18" height="18"/><rect class="fill" height="3" width="1" x="1" y="10"/>
  <rect class="fill" height="3" width="1" x="1" y="5"/>
  <path class="fill" d="M2,16V15H1v1.5555A.4445.4445,0,0,0,1.4445,17H3V16Z"/>
  <rect class="fill" height="1" width="3" x="5" y="16"/>
  <rect class="fill" height="3" width="1" x="16" y="5"/>
  <path class="fill" d="M16.5555,1H15V2h1V3h1V1.4445A.4445.4445,0,0,0,16.5555,1Z"/>
  <rect class="fill" height="1" width="3" x="10" y="1"/>
  <rect class="fill" height="1" width="3" x="5" y="1"/>
  <path class="fill" d="M3,1H1.5a.5.5,0,0,0-.5.5V3H2V2H3Z"/>
  <path class="fill" d="M17.442,12.342l-2.0155-1.7685A.24452.24452,0,0,0,15.25,10.5a.25.25,0,0,0-.25.25V12H13V10h1.25a.25.25,0,0,0,.25-.25.245.245,0,0,0-.074-.175L12.658,7.5585a.25.25,0,0,0-.3165,0L10.5735,9.575A.24446.24446,0,0,0,10.5,9.75a.25.25,0,0,0,.25.25H12v2H10V10.75a.25.25,0,0,0-.25-.25.24448.24448,0,0,0-.175.0735L7.558,12.342a.25.25,0,0,0,0,.316l2.017,1.768a.245.245,0,0,0,.175.074.25.25,0,0,0,.25-.25V13h2v2H10.75a.25.25,0,0,0-.25.25.24352.24352,0,0,0,.0735.175l1.768,2.017a.25.25,0,0,0,.3165,0l1.768-2.017a.244.244,0,0,0,.074-.175.25.25,0,0,0-.25-.25H13V13h2v1.25a.25.25,0,0,0,.25.25.245.245,0,0,0,.175-.074l2.017-1.768A.25.25,0,0,0,17.442,12.342Z"/>
</svg>