<svg xmlns="http://www.w3.org/2000/svg" height="18" viewBox="0 0 36 36" width="18">
  <defs>
    <style>
      .fill {
        fill: #464646;
      }
    </style>
  </defs>
  <title>S SequenceAfter 18 N</title>
  <rect height="4" rx="1" ry="1" width="20" x="14" y="8"></rect><rect height="4" rx="1" ry="1" width="20" x="14" y="14"></rect><rect height="4" rx="1" ry="1" width="20" x="14" y="2"></rect><path d="M4 33.328a.5.5 0 0 0 .866.341L10 28l-5.134-5.669a.5.5 0 0 0-.866.341zM34 33V23a1 1 0 0 0-1-1H15a1 1 0 0 0-1 1v10a1 1 0 0 0 1 1h18a1 1 0 0 0 1-1zm-2-1H16v-8h16z"></path>
</svg>
