<svg xmlns:xlink="http://www.w3.org/1999/xlink" xmlns="http://www.w3.org/2000/svg" height="18" viewBox="0 0 18 18" width="18">
  <defs>
    <style>
      .fill {
        fill: #464646;
      }
    </style>
  </defs>
  <title>S ShareCheck 18 N</title>
  <rect id="Canvas" fill="#ff13dc" opacity="0" width="18" height="18"/><path class="fill" d="M8.861,3.166,6,0,3.146,3.166A.5.5,0,0,0,3.5175,4H5V8.75A.25.25,0,0,0,5.25,9h1.5A.25.25,0,0,0,7,8.75V4H8.4895a.5.5,0,0,0,.3715-.834Z"/>
  <path class="fill" d="M13.5,9.05a4.45,4.45,0,1,0,4.45,4.45A4.45,4.45,0,0,0,13.5,9.05Zm-1.169,7.156-2.064-2.0635a.25.25,0,0,1,0-.3535l.518-.518a.25.25,0,0,1,.3535,0l1.3655,1.3655,3.053-3.053a.25.25,0,0,1,.3535,0l.5215.5215a.25.25,0,0,1,0,.3535l-3.75,3.75A.25.25,0,0,1,12.331,16.206Z"/>
  <path class="fill" d="M7.35,13.5A6.13641,6.13641,0,0,1,7.542,12H2V7H3V5H.5a.5.5,0,0,0-.5.5v8a.5.5,0,0,0,.5.5H7.375C7.362,13.835,7.35,13.669,7.35,13.5Z"/>
  <path class="fill" d="M10,8.4465a6.11305,6.11305,0,0,1,2-.9045V5.5a.5.5,0,0,0-.5-.5H9V7h1Z"/>
</svg>