<svg xmlns:xlink="http://www.w3.org/1999/xlink" xmlns="http://www.w3.org/2000/svg" height="18" viewBox="0 0 18 18" width="18">
  <defs>
    <style>
      .fill {
        fill: #464646;
      }
    </style>
  </defs>
  <title>S ShareWindows 18 N</title>
  <rect id="Canvas" fill="#ff13dc" opacity="0" width="18" height="18"/><path class="fill" d="M16.587,8.362A6.88662,6.88662,0,0,0,15.95,6.13a3.856,3.856,0,0,1-1.368,1.225A5.108,5.108,0,0,1,14,11.9775a2.618,2.618,0,1,0,1.1635,1.35A6.838,6.838,0,0,0,16.587,8.362Z"/>
  <path class="fill" d="M8.864,14.1625a5.139,5.139,0,0,1-3.611-2.55,2.63613,2.63613,0,1,0-1.6955.489,6.85,6.85,0,0,0,5.7,3.854A3.904,3.904,0,0,1,8.864,14.1625Z"/>
  <path class="fill" d="M14.035,1.6785a2.59047,2.59047,0,0,0-3.282.6045A6.872,6.872,0,0,0,4.384,4.7655a6.97086,6.97086,0,0,0-.6.8705,3.86506,3.86506,0,0,1,1.769.462c.0585-.0815.1175-.163.181-.2415a5.115,5.115,0,0,1,3.46-1.885,5.32,5.32,0,0,1,.555-.0295c.1385,0,.276.008.413.019a2.592,2.592,0,1,0,3.873-2.2825Z"/>
</svg>