<svg xmlns:xlink="http://www.w3.org/1999/xlink" xmlns="http://www.w3.org/2000/svg" height="18" viewBox="0 0 18 18" width="18">
  <defs>
    <style>
      .fill {
        fill: #464646;
      }
    </style>
  </defs>
  <title>S Ship 18 N</title>
  <rect id="Canvas" fill="#ff13dc" opacity="0" width="18" height="18"/><path class="fill" d="M0,11.40106V13c0,2.4812,2.70746,2.0531,2.97821,4.57617a.49448.49448,0,0,0,.5.42377L9,18V9L.39154,10.913A.50007.50007,0,0,0,0,11.40106Z"/>
  <path class="fill" d="M17.60846,10.913,9,9l1,9,4.52179-.00006a.49448.49448,0,0,0,.5-.42377C15.29254,15.0531,18,15.4812,18,13V11.40106A.50006.50006,0,0,0,17.60846,10.913Z"/>
  <path class="fill" d="M16,9l-.02326-6.50183a.5.5,0,0,0-.5-.49817H11V.5a.5.5,0,0,0-.5-.5h-3A.5.5,0,0,0,7,.5V2H2.5a.5.5,0,0,0-.5.5V9L8.98664,7.50287ZM4,4H14V5H4Z"/>
</svg>