<svg xmlns:xlink="http://www.w3.org/1999/xlink" xmlns="http://www.w3.org/2000/svg" height="18" viewBox="0 0 18 18" width="18">
  <defs>
    <style>
      .fill {
        fill: #464646;
      }
    </style>
  </defs>
  <title>S ShowAllLayers 18 N</title>
  <rect id="Canvas" fill="#ff13dc" opacity="0" width="18" height="18"/><path class="fill" d="M8.7875,8.915,1.4435,5.1755c-.1205-.0615-.1205-.1615,0-.223l7.344-3.74a.47149.47149,0,0,1,.425,0L16.5565,4.95c.1205.0615.1205.1615,0,.223L9.2125,8.915A.468.468,0,0,1,8.7875,8.915Z"/>
  <path class="fill" d="M16.557,12.9525l-2.3-1.1705L9,14.459,3.742,11.782l-2.3,1.1705c-.1205.0615-.1205.1615,0,.223L8.7875,16.915a.468.468,0,0,0,.425,0l7.3445-3.7395C16.677,13.114,16.677,13.014,16.557,12.9525Z"/>
  <path class="fill" d="M16.557,8.9525l-2.3-1.1705L9,10.459,3.742,7.782l-2.3,1.1705c-.1205.0615-.1205.1615,0,.223L8.7875,12.915a.468.468,0,0,0,.425,0L16.557,9.1755C16.677,9.114,16.677,9.014,16.557,8.9525Z"/>
</svg>