<svg xmlns:xlink="http://www.w3.org/1999/xlink" xmlns="http://www.w3.org/2000/svg" height="18" viewBox="0 0 18 18" width="18">
  <defs>
    <style>
      .fill {
        fill: #464646;
      }
    </style>
  </defs>
  <title>S ShowOneLayer 18 N</title>
  <rect id="Canvas" fill="#ff13dc" opacity="0" width="18" height="18"/><path class="fill" d="M16.5565,8.9525,12.84,7.06l3.7165-1.8845c.1205-.0615.1205-.1615,0-.223l-7.344-3.74a.49.49,0,0,0-.425,0L1.4435,4.95c-.1205.0615-.1205.1615,0,.223L5.147,7.064,1.4435,8.9525c-.1205.0615-.1205.1615,0,.223l3.7,1.8835-3.7,1.8935c-.1205.0615-.1205.1615,0,.223l7.344,3.7395a.4855.4855,0,0,0,.425,0l7.344-3.7395c.1205-.0615.1205-.1615,0-.223l-3.715-1.8855,3.715-1.8915C16.677,9.114,16.677,9.014,16.5565,8.9525ZM3.4285,5.064,9,2.2265,14.572,5.064,11.7385,6.5,9.2125,5.214a.468.468,0,0,0-.425,0L6.25,6.5055Zm11.1435,8L9,15.9,3.4285,13.064l2.816-1.4435,2.543,1.2945a.468.468,0,0,0,.425,0l2.527-1.287Z"/>
</svg>