<svg xmlns:xlink="http://www.w3.org/1999/xlink" xmlns="http://www.w3.org/2000/svg" height="18" viewBox="0 0 18 18" width="18">
  <defs>
    <style>
      .fill {
        fill: #464646;
      }
    </style>
  </defs>
  <title>S Slice 18 N</title>
  <rect id="Canvas" fill="#ff13dc" opacity="0" width="18" height="18"/><path class="fill" d="M17.121,4.434,12.527.818a.5.5,0,0,0-.7.0795L9.5745,4.0445a.49449.49449,0,0,0,.069.6465v.0145l-.3395.429a3.74112,3.74112,0,0,1-.5135.5315L7.3865,6.858a3.75941,3.75941,0,0,0-.6545.7225L.0315,17.243,11.517,12.1295,13.2705,9.119a3.73516,3.73516,0,0,1,.3-.439l.45-.5665s.069.053.095.074a.5105.5105,0,0,0,.712-.0805c.25-.3135,2.377-2.9675,2.377-2.9675a.5.5,0,0,0-.07981-.70259ZM12.7855,8.0595a4.80052,4.80052,0,0,0-.379.556l-1.591,2.7315L2.89,14.8755,7.554,8.15a2.75855,2.75855,0,0,1,.48-.529L9.4375,6.429a4.73461,4.73461,0,0,0,.65-.6735l.3395-.429,2.8065,2.167Z"/>
</svg>