<svg xmlns:xlink="http://www.w3.org/1999/xlink" xmlns="http://www.w3.org/2000/svg" height="18" viewBox="0 0 18 18" width="18">
  <defs>
    <style>
      .fill {
        fill: #464646;
      }
    </style>
  </defs>
  <title>S Slow 18 N</title>
  <rect id="Canvas" fill="#ff13dc" opacity="0" width="18" height="18"/><path class="fill" d="M16.5585,5.3365A1.4415,1.4415,0,0,0,15.117,6.778a1.9215,1.9215,0,0,0,.518,1.0535l-2.885,4.75c-.006,0,.5835-5.3615.5835-5.3615a1.23767,1.23767,0,0,0,1.394-1.3655,1.4415,1.4415,0,0,0-2.883,0A1.1735,1.1735,0,0,0,12.5235,7L12,12H8.9725A4.993,4.993,0,1,0,1,8a4.26587,4.26587,0,0,0,4.045,4.5135c-1.676,1.2835-3.1885.95-4.2715,1.185C.0655,13.85.356,15,1.081,15H15.8455c.826-.0315.146-.665-.5275-.886-.4135-.136-.5525-.921-.5525-.921-.121-.3615-.484-.592-.7615-.8265l2.2635-4.241c.038.004.2365.0935.291.0935a1.4415,1.4415,0,1,0,.0537-2.8825Q16.58535,5.336,16.5585,5.3365Z"/>
</svg>