<svg xmlns:xlink="http://www.w3.org/1999/xlink" xmlns="http://www.w3.org/2000/svg" height="18" viewBox="0 0 18 18" width="18">
  <defs>
    <style>
      .fill {
        fill: #464646;
      }
    </style>
  </defs>
  <title>S SMS 18 N</title>
  <rect id="Canvas" fill="#ff13dc" opacity="0" width="18" height="18"/><path class="fill" d="M16.5,2H1.5a.5.5,0,0,0-.5.5v11a.5.5,0,0,0,.5.5H4l1.768,3.4195a.25.25,0,0,0,.464,0L8,14h8.5a.5.5,0,0,0,.5-.5V2.5A.5.5,0,0,0,16.5,2ZM3.33,10.5725a3.2736,3.2736,0,0,1-1.503-.3065.329.329,0,0,1-.157-.3055V8.9275l.203-.0645a3.21855,3.21855,0,0,0,1.4835.424c.344,0,.755-.079.755-.454,0-.168-.0545-.3585-.705-.6795l-.3625-.159C2.08,7.542,1.67,7,1.67,6.1845c0-1.087.8235-1.789,2.1-1.789a2.95,2.95,0,0,1,1.3155.2385.2695.2695,0,0,1,.157.2795V5.891l-.2.0725-.121-.008a2.27048,2.27048,0,0,0-1.15-.2675c-.2215,0-.7375.041-.7375.421,0,.167.0545.342.71.6435l.3065.1355c1.036.4755,1.4765,1.031,1.4765,1.8595C5.5245,9.8565,4.663,10.5725,3.33,10.5725Zm8.65-.1915-.0245.0285-.081.0675-.114.0175h-1.07l-.0945-.2195c-.0265-1.087-.042-2.3565-.05-3.335-.1885.671-.413,1.45-.6135,2.1385l-.369,1.284-.211.125L8.5,10.494a.26551.26551,0,0,1-.2765-.197c-.2365-.884-.592-2.255-.87-3.375-.0305.989-.078,2.2315-.124,3.3215l-.003.0665-.0655.119-.157.0595-1.0175.006L5.892,10.264l.3195-5.705L6.44,4.486l1.338-.004a.27351.27351,0,0,1,.2715.1835c.136.4725.6375,2.259.928,3.4295.1765-.62.424-1.4355.6365-2.1385.158-.5215.3-.9865.381-1.2695l.0135-.03.0605-.088.1375-.075,1.4705-.012.1035.1845.24,5.6125Zm2.1555.1915a3.26688,3.26688,0,0,1-1.5015-.3065.324.324,0,0,1-.157-.3055V8.9275l.203-.0645a3.21855,3.21855,0,0,0,1.4835.424c.344,0,.755-.079.755-.454,0-.168-.0545-.3585-.706-.6795l-.3615-.159c-.964-.45-1.374-.993-1.374-1.8095,0-1.087.823-1.789,2.1-1.789a2.957,2.957,0,0,1,1.3155.2385.2695.2695,0,0,1,.1575.2795v.9775l-.2.0725-.121-.008a2.29056,2.29056,0,0,0-1.15-.2675c-.2215,0-.7375.041-.7375.421,0,.167.0545.342.71.6435l.3065.1355c1.035.4755,1.4765,1.031,1.4765,1.8595C16.33,9.8565,15.469,10.5725,14.1355,10.5725Z"/>
</svg>