<svg xmlns:xlink="http://www.w3.org/1999/xlink" xmlns="http://www.w3.org/2000/svg" height="18" viewBox="0 0 18 18" width="18">
  <defs>
    <style>
      .fill {
        fill: #464646;
      }
    </style>
  </defs>
  <title>S SMSLightning 18 N</title>
  <rect id="Canvas" fill="#ff13dc" opacity="0" width="18" height="18"/><path class="fill" d="M16.5,2H1.5a.5.5,0,0,0-.5.5v11a.5.5,0,0,0,.5.5H4l1.768,3.4195a.25.25,0,0,0,.464,0l1.2905-2.496a6.06551,6.06551,0,0,1,.7185-4.6c-.0045-.0105-.0135-.0145-.0175-.026-.2365-.884-.592-2.255-.87-3.375-.0305.989-.078,2.2315-.124,3.3215l-.003.0665-.0655.119-.157.0595-1.0175.006-.0945-.2305.3195-5.705.2285-.073,1.338-.004a.27349.27349,0,0,1,.2715.1835c.136.4725.6375,2.259.928,3.4295.1765-.62.424-1.4355.6365-2.1385.158-.5215.3-.9865.381-1.2695l.0135-.03.0605-.088.1375-.075,1.4705-.012.1035.1845.124,2.9a6.12688,6.12688,0,0,1,1.0545-.189,1.631,1.631,0,0,1-.4835-1.1925c0-1.087.823-1.789,2.1-1.789a2.957,2.957,0,0,1,1.3155.2385.2695.2695,0,0,1,.1575.2795V5.892l-.2.0725-.121-.008a2.29056,2.29056,0,0,0-1.15-.2675c-.2215,0-.7375.041-.7375.421,0,.167.0545.342.71.6435l.3065.1355A2.51648,2.51648,0,0,1,16.122,7.943,6.13431,6.13431,0,0,1,17,8.4465V2.5A.5.5,0,0,0,16.5,2ZM3.33,10.5725a3.2736,3.2736,0,0,1-1.503-.3065.329.329,0,0,1-.157-.3055V8.9275l.203-.0645a3.21855,3.21855,0,0,0,1.4835.424c.344,0,.755-.079.755-.454,0-.168-.0545-.3585-.705-.6795l-.3625-.159C2.08,7.542,1.67,7,1.67,6.1845c0-1.087.8235-1.789,2.1-1.789a2.95,2.95,0,0,1,1.3155.2385.2695.2695,0,0,1,.157.2795V5.891l-.2.0725-.121-.008a2.27048,2.27048,0,0,0-1.15-.2675c-.2215,0-.7375.041-.7375.421,0,.167.0545.342.71.6435l.3065.1355c1.036.4755,1.4765,1.031,1.4765,1.8595C5.5245,9.8565,4.663,10.5725,3.33,10.5725ZM10.144,8.35c.1355-.0885.272-.1745.414-.25-.005-.4075-.009-.805-.011-1.159C10.422,7.3835,10.2825,7.869,10.144,8.35Z"/>
  <path class="fill" d="M13.5,9.05a4.45,4.45,0,1,0,4.45,4.45A4.45,4.45,0,0,0,13.5,9.05Zm2.0405,4.824-2.964,3.3885a.3065.3065,0,0,1-.513-.321l1-2.374-1.4135-.607a.5295.5295,0,0,1-.1895-.835l2.964-3.3885a.3065.3065,0,0,1,.513.321l-1,2.374,1.4125.6075a.52951.52951,0,0,1,.1905.8345Z"/>
</svg>