<svg xmlns:xlink="http://www.w3.org/1999/xlink" xmlns="http://www.w3.org/2000/svg" height="18" viewBox="0 0 18 18" width="18">
  <defs>
    <style>
      .fill {
        fill: #464646;
      }
    </style>
  </defs>
  <title>S SMSRefresh 18 N</title>
  <rect id="Canvas" fill="#ff13dc" opacity="0" width="18" height="18"/><path class="fill" d="M16.5,2.05H1.5a.5.5,0,0,0-.5.5v11a.5.5,0,0,0,.5.5H4l1.768,3.4195a.25.25,0,0,0,.464,0l1.2905-2.496a6.06551,6.06551,0,0,1,.7185-4.6c-.0045-.0105-.0135-.0145-.0175-.026-.2365-.884-.592-2.255-.87-3.375-.0305.989-.078,2.2315-.124,3.3215l-.003.0665-.0655.119-.157.0595-1.0175.006-.0945-.2305.3195-5.705.2285-.073,1.338-.004a.27349.27349,0,0,1,.2715.1835c.136.4725.6375,2.259.928,3.4295.1765-.62.424-1.4355.6365-2.1385.158-.5215.3-.9865.381-1.2695l.0135-.0305.0605-.088.1375-.075,1.4705-.012.1035.1845.124,2.9a6.12688,6.12688,0,0,1,1.0545-.189,1.631,1.631,0,0,1-.4835-1.1925c0-1.087.823-1.789,2.1-1.789a2.957,2.957,0,0,1,1.3155.2385.2695.2695,0,0,1,.1575.2795v.9775l-.2.0725-.121-.008a2.29056,2.29056,0,0,0-1.15-.2675c-.2215,0-.7375.041-.7375.421,0,.167.0545.342.71.6435l.3065.1355a2.51648,2.51648,0,0,1,1.2655,1.054,6.13473,6.13473,0,0,1,.878.504V2.55A.5.5,0,0,0,16.5,2.05ZM3.33,10.6225a3.2736,3.2736,0,0,1-1.503-.3065.329.329,0,0,1-.157-.3055V8.9775l.203-.0645a3.21855,3.21855,0,0,0,1.4835.424c.344,0,.755-.079.755-.454,0-.168-.0545-.3585-.705-.6795l-.3625-.159C2.08,7.592,1.67,7.05,1.67,6.2345c0-1.087.8235-1.789,2.1-1.789a2.95,2.95,0,0,1,1.3155.2385.2695.2695,0,0,1,.157.2795V5.941l-.2.0725-.121-.008a2.27048,2.27048,0,0,0-1.15-.2675c-.2215,0-.7375.041-.7375.421,0,.167.0545.342.71.6435l.3065.1355c1.036.4755,1.4765,1.031,1.4765,1.8595C5.5245,9.9065,4.663,10.6225,3.33,10.6225ZM10.144,8.4c.1355-.0885.272-.1745.414-.25-.005-.4075-.009-.805-.011-1.159C10.422,7.4335,10.2825,7.919,10.144,8.4Z"/>
  <path class="fill" d="M13.55,16.7315a3.07147,3.07147,0,0,1-2.359-1.05l1.141-1.1435H9.1v3.2385l1.238-1.2405A4.324,4.324,0,0,0,13.55,18,4.6,4.6,0,0,0,18,13.55H16.8725A3.406,3.406,0,0,1,13.55,16.7315Z"/>
  <path class="fill" d="M16.7925,10.563A4.556,4.556,0,0,0,13.55,9.1,4.6,4.6,0,0,0,9.1,13.55h1.1275A3.406,3.406,0,0,1,13.55,10.368a3.107,3.107,0,0,1,2.4085,1.0465L14.836,12.561H18V9.33Z"/>
</svg>