<svg xmlns:xlink="http://www.w3.org/1999/xlink" xmlns="http://www.w3.org/2000/svg" height="18" viewBox="0 0 18 18" width="18">
  <defs>
    <style>
      .fill {
        fill: #464646;
      }
    </style>
  </defs>
  <title>S Snapshot 18 N</title>
  <rect id="Canvas" fill="#ff13dc" opacity="0" width="18" height="18"/><path class="fill" d="M10,3.75V3H9V6h1V5.25A.25.25,0,0,1,10.25,5h7.5a.25.25,0,0,1,.25.25v2.5a.25.25,0,0,1-.25.25h-7.5A.25.25,0,0,1,10,7.75V7H9A1,1,0,0,1,8,6V3A1,1,0,0,1,9,2h1V1.25A.25.25,0,0,1,10.25,1h7.5a.25.25,0,0,1,.25.25v2.5a.25.25,0,0,1-.25.25h-7.5A.25.25,0,0,1,10,3.75ZM7.4635,13.26c-.565-.05-.574-.5045-.574-1.0725A5.169,5.169,0,0,0,8.1035,9.108C8.1035,7.243,7.042,6,5.5145,6S2.925,7.243,2.925,9.108a5.16951,5.16951,0,0,0,1.2145,3.0795c0,.568-.009,1.023-.5755,1.0725-.774.0685-3.3055.909-3.533,3.3775a.343.343,0,0,0,.32245.36239L.3555,17h10.297a.344.344,0,0,0,.3445-.3435v-.019C10.769,14.169,8.2375,13.3275,7.4635,13.26Z"/>
</svg>