<svg xmlns:xlink="http://www.w3.org/1999/xlink" xmlns="http://www.w3.org/2000/svg" height="18" viewBox="0 0 18 18" width="18">
  <defs>
    <style>
      .fill {
        fill: #464646;
      }
    </style>
  </defs>
  <title>S SocialNetwork 18 N</title>
  <rect id="Canvas" fill="#ff13dc" opacity="0" width="18" height="18"/><path class="fill" d="M16.0435,11.174V6.8265A1.5585,1.5585,0,0,0,14.533,4.1L10.56,1.6175c0-.018.005-.0345.005-.05a1.565,1.565,0,0,0-3.13-.00018V1.5675c0,.018.0045.0345.005.05L3.467,4.1a1.5431,1.5431,0,0,0-.728-.1875A1.5605,1.5605,0,0,0,1.9565,6.826v4.347A1.5587,1.5587,0,0,0,3.467,13.9L7.44,16.383c0,.018-.005.0345-.005.05a1.565,1.565,0,0,0,3.13,0c0-.018-.0045-.0345-.005-.05L14.533,13.9a1.5431,1.5431,0,0,0,.728.1875,1.5605,1.5605,0,0,0,.7825-2.9135Zm-5.472-1.8625a1.49252,1.49252,0,0,0-.008-.6185l3.592-2.023a1.58006,1.58006,0,0,0,.888.394v3.86a1.58546,1.58546,0,0,0-.897.4Zm-6.712,2.01a1.58756,1.58756,0,0,0-.903-.4135V7.0465a1.581,1.581,0,0,0,.87-.3865l3.61,2.033a1.49252,1.49252,0,0,0-.008.6185ZM13.773,4.805a1.59049,1.59049,0,0,0-.1555.677,1.61612,1.61612,0,0,0,.0335.3245l-3.597,2.026a1.58246,1.58246,0,0,0-.554-.317v-4.4A1.60248,1.60248,0,0,0,10.2465,2.6ZM7.7605,2.5965A1.6,1.6,0,0,0,8.5,3.119V7.5155a1.58246,1.58246,0,0,0-.554.317L4.336,5.8a1.575,1.575,0,0,0-.1075-.995ZM4.188,13.171a1.28894,1.28894,0,0,0,.1845-.6815,1.61094,1.61094,0,0,0-.0295-.2925L7.906,10.19a1.59446,1.59446,0,0,0,.594.35v4.35a1.57744,1.57744,0,0,0-.728.519Zm6.045,2.2365a1.58994,1.58994,0,0,0-.733-.52V10.54a1.59446,1.59446,0,0,0,.594-.35l3.556,2.0025a1.58,1.58,0,0,0,.1245,1Z"/>
</svg>