<svg xmlns:xlink="http://www.w3.org/1999/xlink" xmlns="http://www.w3.org/2000/svg" height="18" viewBox="0 0 18 18" width="18">
  <defs>
    <style>
      .fill {
        fill: #464646;
      }
    </style>
  </defs>
  <title>S Spellcheck 18 N</title>
  <rect id="Canvas" fill="#ff13dc" opacity="0" width="18" height="18"/><path class="fill" d="M16.807,5.672l-.7275-.5665a.5.5,0,0,0-.7.0875L8.562,13.95,5.2385,10.645a.5.5,0,0,0-.707,0l-.6625.6625a.5.5,0,0,0,0,.707l4.463,4.45a.5.5,0,0,0,.75-.0465L16.8965,6.373A.5.5,0,0,0,16.807,5.672Z"/>
  <path class="fill" d="M14.4885,3.4435a2.40008,2.40008,0,0,0-.892-.1195,2.388,2.388,0,0,0-2.524,2.5325A2.3795,2.3795,0,0,0,12,7.907l.536-.6885a1.707,1.707,0,0,1-.564-1.3925,1.56049,1.56049,0,0,1,1.6185-1.7235,2.07516,2.07516,0,0,1,.8845.158c.0295.007.0595.007.0595-.0525V3.5265A.08051.08051,0,0,0,14.4885,3.4435ZM9.618,5.6535a1.1785,1.1785,0,0,0,.472-.9815c0-.4795-.247-1.288-1.7305-1.288-.4875,0-1.124.0145-1.3635.0225-.038.0075-.045.03-.045.067v4.758a.05749.05749,0,0,0,.045.0595c.2695.008.757.0145,1.341.0145,1.2.008,1.993-.5615,1.993-1.5A1.21949,1.21949,0,0,0,9.618,5.6535ZM7.8,4.1405c.1415,0,.322-.0075.539-.0075.584,0,.906.2175.906.659a.7.7,0,0,1-.284.6075,5.48832,5.48832,0,0,0-.63-.038H7.8Zm.5145,3.431c-.2,0-.3575-.007-.5145-.015V6.1105h.621a1.92411,1.92411,0,0,1,.4875.0525.64049.64049,0,0,1,.524.667C9.4305,7.3465,8.9815,7.5715,8.3145,7.5715ZM4.576,3.4H3.5725c-.0305,0-.045.0225-.045.0525a1.0465,1.0465,0,0,1-.0595.39L2.036,8.2235c-.0145.045,0,.0675.045.0675H2.8a.0725.0725,0,0,0,.075-.0525l.3895-1.259h1.65l.412,1.2665a.066.066,0,0,0,.0675.045h.8c.045,0,.0525-.0225.045-.0595l-1.61-4.788C4.621,3.4065,4.6065,3.4,4.576,3.4ZM3.4825,6.195c.21-.6895.4795-1.5585.6-2.0605h.007c.128.532.4645,1.5585.6075,2.0605Z"/>
</svg>