<svg xmlns:xlink="http://www.w3.org/1999/xlink" xmlns="http://www.w3.org/2000/svg" height="18" viewBox="0 0 18 18" width="18">
  <defs>
    <style>
      .fill {
        fill: #464646;
      }
    </style>
  </defs>
  <title>S Spin 18 N</title>
  <rect id="Canvas" fill="#ff13dc" opacity="0" width="18" height="18"/><path class="fill" d="M12,7.5V9.027a26.86888,26.86888,0,0,1-4.824-.0195C5.6075,8.782,3.7575,8.0235,3.7,7.0235,3.6285,6,4.735,4.959,6.2585,4.447A8.07447,8.07447,0,0,1,8,4.0665V8h2V1.5A.5.5,0,0,0,9.5,1h-1a.5.5,0,0,0-.5.5V3.011a9.32,9.32,0,0,0-2.0835.336c-1.845.541-3.624,1.816-3.6105,3.747.0375,2.025,2.5935,3.1455,4.5825,3.566A27.53,27.53,0,0,0,12,10.9725V12.5a.25.25,0,0,0,.4.2L16,10,12.4,7.3a.25.25,0,0,0-.4.2Z"/>
  <circle class="fill" cx="11.45" cy="3.45" r="0.55"/>
  <circle class="fill" cx="13.484" cy="3.6855" r="0.55"/>
  <circle class="fill" cx="15.45" cy="4.45" r="0.55"/>
  <path class="fill" d="M8,16.5a.5.5,0,0,0,.5.5h1a.5.5,0,0,0,.5-.5V12H8Z"/>
</svg>