<svg xmlns:xlink="http://www.w3.org/1999/xlink" xmlns="http://www.w3.org/2000/svg" height="18" viewBox="0 0 18 18" width="18">
  <defs>
    <style>
      .fill {
        fill: #464646;
      }
    </style>
  </defs>
  <title>S Stadium 18 N</title>
  <rect id="Canvas" fill="#ff13dc" opacity="0" width="18" height="18"/><path class="fill" d="M17.5954,7.7301c-.86713-.74-2.95612-1.3266-5.5954-1.5852V3.625l2.3758-.89093a.25.25,0,0,0,0-.46814L12,1.375V1.25A.25.25,0,0,0,11.75,1h-.5a.23534.23534,0,0,0-.11878.0492A.23466.23466,0,0,0,11,1.25V6.06958C10.35315,6.02869,9.69018,6,9,6s-1.35315.02869-2,.06958V2.625l2.3758-.89093a.25.25,0,0,0,0-.46814L7,.375V.25A.25.25,0,0,0,6.75,0h-.5a.23535.23535,0,0,0-.11877.04919A.23468.23468,0,0,0,6,.25V6.14508A18.30572,18.30572,0,0,0,2,6.932V3.625l2.37579-.89093a.25.25,0,0,0,0-.46814L2,1.375V1.25A.25.25,0,0,0,1.75,1h-.5a.23534.23534,0,0,0-.11878.0492A.23466.23466,0,0,0,1,1.25V7.34259A3.31771,3.31771,0,0,0,.4165,7.72,1.23383,1.23383,0,0,0,0,8.672V16c0,.909,2.7315,1.67492,6.4685,1.918a.50124.50124,0,0,0,.53053-.47012l.00091-.0278L7,15.75525C7,15.2547,7.2585,15,7.57733,15h2.84534A.57733.57733,0,0,1,11,15.57733l.00006,1.83942a.50433.50433,0,0,0,.5067.502l.028-.00091C15.27014,17.6745,18,16.90875,18,16V8.65686A1.209,1.209,0,0,0,17.5954,7.7301ZM16.623,8.96661c-.94476.60945-3.4886,1.46564-7.623,1.46564-4.13153,0-6.67475-.855-7.621-1.46441a.30483.30483,0,0,1,.014-.49634C2.16888,7.9875,4.36859,7,9,7c4.65821,0,6.8407.98621,7.60956,1.47077a.305.305,0,0,1,.01344.49584Z"/>
</svg>