<svg xmlns:xlink="http://www.w3.org/1999/xlink" xmlns="http://www.w3.org/2000/svg" height="18" viewBox="0 0 18 18" width="18">
  <defs>
    <style>
      .fill {
        fill: #464646;
      }
    </style>
  </defs>
  <title>S Stamp 18 N</title>
  <rect id="Canvas" fill="#ff13dc" opacity="0" width="18" height="18"/><path class="fill" d="M12.6365,7.6665a1.364,1.364,0,0,0-2.7275,0V10.333a1.364,1.364,0,0,0,2.7275,0Z"/>
  <path class="fill" d="M18,2.778V2H15.657c0,1.004-.4,1.091-.8885,1.091s-.889-.087-.889-1.091h-2.05c0,1.004-.4,1.091-.889,1.091s-.888-.087-.888-1.091H7.984c0,1.004-.4,1.091-.889,1.091S6.2065,3.004,6.2065,2H4.08c0,1.004-.4,1.091-.889,1.091S2.3,3.004,2.3,2H0v.778c1.004,0,1.091.4,1.091.889S1.004,4.5555,0,4.5555v1.778c1.004,0,1.091.4,1.091.889S1.004,8.111,0,8.111V9.889c1.004,0,1.091.4,1.091.889s-.087.8885-1.091.8885v1.778c1.004,0,1.091.4,1.091.889S1.004,15.222,0,15.222V16H2.2925c0-1.004.4-1.091.889-1.091s.889.087.889,1.091h2.106c0-1.004.4-1.091.8885-1.091s.889.0865.889,1.091H10.1c0-1.004.4-1.091.889-1.091s.889.0865.889,1.091H13.82c0-1.004.4-1.091.889-1.091s.891.087.891,1.091H18v-.778c-1.004,0-.909-.4-.909-.889s-.095-.889.909-.889V11.6665c-1.004,0-1.091-.4-1.091-.889s.0865-.889,1.091-.889V8.111c-1.004,0-1.091-.4-1.091-.889s.0865-.889,1.091-.889V4.5555c-1.004,0-1.091-.4-1.091-.889S16.996,2.778,18,2.778ZM8.091,7.6665a3.1825,3.1825,0,0,1,6.364,0V10.333a3.1825,3.1825,0,0,1-6.364,0ZM3.5455,4.5555H6.273v8.889H4.4545V6.3335h-.909Z"/>
</svg>