<svg xmlns:xlink="http://www.w3.org/1999/xlink" xmlns="http://www.w3.org/2000/svg" height="18" viewBox="0 0 18 18" width="18">
  <defs>
    <style>
      .fill {
        fill: #464646;
      }
    </style>
  </defs>
  <title>S StarOutline 18 N</title>
  <rect id="Canvas" fill="#ff13dc" opacity="0" width="18" height="18"/><path class="fill" d="M9.0295,2.541l1.777,4.75,5.1095.2405-3.987,3.2L13.2645,15.65,8.997,12.866,4.7185,15.6735l1.35-4.9365-3.987-3.2,5.1-.2445ZM9.041.4115a.36849.36849,0,0,0-.35.2395L6.4855,6.3255l-6.1.293a.375.375,0,0,0-.2165.667l4.7615,3.821-1.6145,5.9a.376.376,0,0,0,.362.4755.37.37,0,0,0,.205-.063L9,14.061l5.0935,3.324a.371.371,0,0,0,.204.0625.376.376,0,0,0,.3625-.475l-1.5945-5.866L17.8295,7.28a.375.375,0,0,0-.217-.667l-6.1-.2875-2.12-5.67A.369.369,0,0,0,9.041.4115Z"/>
</svg>