<svg xmlns:xlink="http://www.w3.org/1999/xlink" xmlns="http://www.w3.org/2000/svg" height="18" viewBox="0 0 18 18" width="18">
  <defs>
    <style>
      .fill {
        fill: #464646;
      }
    </style>
  </defs>
  <title>S Stopwatch 18 N</title>
  <rect id="Canvas" fill="#ff13dc" opacity="0" width="18" height="18"/><path class="fill" d="M10,1h.5a.5.5,0,0,0,0-1h-2a.5.5,0,0,0,0,1H9V2h1Z"/>
  <path class="fill" d="M9.5,2A7.47,7.47,0,0,0,4.55,3.8645L3.7185,3.031l.354-.3535a.5001.5001,0,1,0-.7075-.707l-.3535.3535-.707.707L1.95,3.385a.50028.50028,0,1,0,.708.707l.3535-.3535.8345.834A7.5,7.5,0,1,0,9.5,2Zm0,14A6.5,6.5,0,1,1,13.4165,4.3125L8.954,8.775c-.0105.0105-.0185.02-.0285.031a.929.929,0,1,0,1.28141,1.34541l.02809-.02791c.0115-.0105.023-.0225.034-.0335l4.4565-4.456A6.5,6.5,0,0,1,9.5,16Z"/>
</svg>