<svg xmlns:xlink="http://www.w3.org/1999/xlink" xmlns="http://www.w3.org/2000/svg" height="18" viewBox="0 0 18 18" width="18">
  <defs>
    <style>
      .fill {
        fill: #464646;
      }
    </style>
  </defs>
  <title>S Straighten 18 N</title>
  <rect id="Canvas" fill="#ff13dc" opacity="0" width="18" height="18"/><circle class="fill" cx="3.5" cy="5.5" r="0.65"/>
  <circle class="fill" cx="13.5" cy="5.5" r="0.65"/>
  <circle class="fill" cx="8.5" cy="2.5" r="0.65"/>
  <circle class="fill" cx="5.5" cy="3.5" r="0.65"/>
  <circle class="fill" cx="11.5" cy="3.5" r="0.65"/>
  <path class="fill" d="M3,7H.25A.25.25,0,0,0,0,7.25v5.5A.25.25,0,0,0,.25,13H3Z"/>
  <path class="fill" d="M16.75,7H14v6h2.75a.25.25,0,0,0,.25-.25V7.25A.25.25,0,0,0,16.75,7Z"/>
  <path class="fill" d="M8.5,9c.9035,0,2.4915-.5,2.4915-1.4915L10.9825,7H6v.5205C6,8.5,7.59,9,8.5,9Z"/>
  <path class="fill" d="M12.05,7v.5c0,1.5-1.617,2.55-3.55,2.55S4.95,9,4.95,7.5V7H4v6h9V7Z"/>
</svg>