<svg xmlns:xlink="http://www.w3.org/1999/xlink" xmlns="http://www.w3.org/2000/svg" height="18" viewBox="0 0 18 18" width="18">
  <defs>
    <style>
      .fill {
        fill: #464646;
      }
    </style>
  </defs>
  <title>S SubtractFromSelection 18 N</title>
  <rect id="Canvas" fill="#ff13dc" opacity="0" width="18" height="18"/><path class="fill" d="M12.08,2.7215l.514-.8885a7.97354,7.97354,0,0,0-2.7-.803V2.063A6.94168,6.94168,0,0,1,12.08,2.7215Z"/>
  <path class="fill" d="M14.765,5.033l.9-.5175a8.06649,8.06649,0,0,0-1.926-1.985l-.519.894A7.03319,7.03319,0,0,1,14.765,5.033Z"/>
  <path class="fill" d="M15.9665,8.3315H17a7.95519,7.95519,0,0,0-.6895-2.6455L15.415,6.2A6.95,6.95,0,0,1,15.9665,8.3315Z"/>
  <path class="fill" d="M15.9665,9.6685a6.95,6.95,0,0,1-.55,2.129l.8955.516A7.95513,7.95513,0,0,0,17,9.6685Z"/>
  <path class="fill" d="M13.22,14.5755l.5165.894a8.06544,8.06544,0,0,0,1.926-1.985l-.9-.5175A7.033,7.033,0,0,1,13.22,14.5755Z"/>
  <path class="fill" d="M9.8925,15.937V16.97a7.97354,7.97354,0,0,0,2.7-.803l-.5125-.8885A6.94146,6.94146,0,0,1,9.8925,15.937Z"/>
  <path class="fill" d="M6.269,15.447l-.514.8885A7.99637,7.99637,0,0,0,8.5535,17V15.9775A6.96845,6.96845,0,0,1,6.269,15.447Z"/>
  <path class="fill" d="M3.3695,13.1465l-.9.5175a8.06609,8.06609,0,0,0,2.107,2.031l.513-.8875A7.03548,7.03548,0,0,1,3.3695,13.1465Z"/>
  <path class="fill" d="M2.0335,9.6685H1a7.94984,7.94984,0,0,0,.787,2.847L2.6825,12A6.94449,6.94449,0,0,1,2.0335,9.6685Z"/>
  <path class="fill" d="M2.6825,6,1.787,5.4845A7.94984,7.94984,0,0,0,1,8.3315H2.0335A6.94449,6.94449,0,0,1,2.6825,6Z"/>
  <path class="fill" d="M5.092,3.192l-.513-.8875a8.06609,8.06609,0,0,0-2.107,2.031l.9.5175A7.03639,7.03639,0,0,1,5.092,3.192Z"/>
  <path class="fill" d="M8.5535,2.0225V1a7.99514,7.99514,0,0,0-2.8.6645l.5135.8885A6.96854,6.96854,0,0,1,8.5535,2.0225Z"/>
  <path class="fill" d="M14,9.5a.5.5,0,0,1-.5.5h-9A.5.5,0,0,1,4,9.5v-1A.5.5,0,0,1,4.5,8h9a.5.5,0,0,1,.5.5Z"/>
</svg>