<svg xmlns:xlink="http://www.w3.org/1999/xlink" xmlns="http://www.w3.org/2000/svg" height="18" viewBox="0 0 18 18" width="18">
  <defs>
    <style>
      .fill {
        fill: #464646;
      }
    </style>
  </defs>
  <title>S Survey 18 N</title>
  <rect id="Canvas" fill="#ff13dc" opacity="0" width="18" height="18"/><path class="fill" d="M9.647,6.133a2.218,2.218,0,0,1-.8035,1.733c-.4895.4645-.9545.8785-.9545,1.2555a1.325,1.325,0,0,0,.2.6905.054.054,0,0,1-.05.088H6.95a.2095.2095,0,0,1-.163-.05,1.372,1.372,0,0,1-.3-.866c0-.5905.364-.967.967-1.5695.414-.4145.65-.678.65-1.067,0-.45-.3-.766-1.067-.766a3.1895,3.1895,0,0,0-1.582.414c-.05.025-.1,0-.1-.05V4.727c0-.05,0-.1.05-.1255A3.987,3.987,0,0,1,7.3135,4.162C8.8185,4.162,9.647,5.0285,9.647,6.133Z"/>
  <path class="fill" d="M7.867,15H2V2H13V8.7605l1-1V1.5a.5.5,0,0,0-.5-.5H1.5a.5.5,0,0,0-.5.5v14a.5.5,0,0,0,.5.5H7.5345Z"/>
  <path class="fill" d="M17.8225,10.3425,15.6605,8.181a.54151.54151,0,0,0-.339-.1325.565.565,0,0,0-.35.15l-5.616,5.621a.368.368,0,0,0-.094.1575l-1.222,3.67c-.0425.141.1725.319.294.319l.023-.0025c.1035-.024,3.13-1.059,3.672-1.222a.36653.36653,0,0,0,.155-.0935L17.8,11.0295a.515.515,0,0,0,.15-.331A.458.458,0,0,0,17.8225,10.3425Zm-8.803,6.644.989-2.7595,1.77,1.7655C10.968,16.236,9.7195,16.7775,9.0195,16.9865Z"/>
  <path class="fill" d="M6.5455,11.7835a.834.834,0,0,1,.799-.86755q.04-.00164.08.00055a.834.834,0,0,1,.87845.787q.00219.03994.00055.08a.8115.8115,0,0,1-.879.8785.824.824,0,0,1-.879-.8785Z"/>
</svg>