<svg xmlns:xlink="http://www.w3.org/1999/xlink" xmlns="http://www.w3.org/2000/svg" height="18" viewBox="0 0 18 18" width="18">
  <defs>
    <style>
      .fill {
        fill: #464646;
      }
    </style>
  </defs>
  <title>S SyncRemove 18 N</title>
  <rect id="Canvas" fill="#ff13dc" opacity="0" width="18" height="18"/><path class="fill" d="M11,6.5v-3a.5.5,0,0,0-.5-.5H5V.6035A.25.25,0,0,0,4.573.427L0,5,2.665,7.665A6.14992,6.14992,0,0,1,4.45,7.4c.1855,0,.368.0115.55.028V7h5.5A.5.5,0,0,0,11,6.5Zm2.427-.073A.25.25,0,0,0,13,6.6035V9H8.577a6.12649,6.12649,0,0,1,1.995,4H13v2.3965a.25.25,0,0,0,.427.1765L18,11Z"/>
  <path class="fill" d="M4.45,9.1A4.45,4.45,0,1,0,8.9,13.55,4.45,4.45,0,0,0,4.45,9.1Zm2.913,6.1335a.25.25,0,0,1,0,.3535l-.876.876a.25.25,0,0,1-.3535,0L4.45,14.7795,2.7665,16.463a.25.25,0,0,1-.3535,0l-.876-.876a.25.25,0,0,1,0-.3535L3.2205,13.55,1.537,11.8665a.25.25,0,0,1,0-.3535l.876-.876a.25.25,0,0,1,.3535,0L4.45,12.3205,6.1335,10.637a.25.25,0,0,1,.3535,0l.876.876a.25.25,0,0,1,0,.3535L5.6795,13.55Z"/>
</svg>