<svg xmlns:xlink="http://www.w3.org/1999/xlink" xmlns="http://www.w3.org/2000/svg" height="18" viewBox="0 0 18 18" width="18">
  <defs>
    <style>
      .fill {
        fill: #464646;
      }
    </style>
  </defs>
  <title>S TableEdit 18 N</title>
  <rect id="Canvas" fill="#ff13dc" opacity="0" width="18" height="18"/><path class="fill" d="M8.646,14.219a1.76074,1.76074,0,0,1,.1-.219H6V12h4.5835l1-1H6V9h7.5835L14.5,8.086c.032-.0325.069-.0565.103-.086H6V6h9V7.7285a1.775,1.775,0,0,1,.75-.2035l.0575-.003h.046c.05,0,.1.01.147.014V1.5a.5.5,0,0,0-.5-.5H1.5a.5.5,0,0,0-.5.5v13a.5.5,0,0,0,.5.5H8.382ZM2,2H15V5H2ZM5,14H2V12H5Zm0-3H2V9H5ZM5,8H2V6H5Z"/>
  <path class="fill" d="M17.869,10.882l-1.753-1.75a.368.368,0,0,0-.263-.1075h-.012a.419.419,0,0,0-.282.1235L10.4645,14.24a.31.31,0,0,0-.076.128L9.058,17.6835c-.0345.1145.14.2585.2385.2585a.12693.12693,0,0,0,.0185,0c.084-.019,2.8775-1.2,3.317-1.3305a.3.3,0,0,0,.126-.0755l5.095-5.095a.417.417,0,0,0,.1225-.2685A.37.37,0,0,0,17.869,10.882ZM12.3845,16.05c-.657.2-1.964.931-2.532,1.1L10.95,14.616Z"/>
</svg>