<svg xmlns:xlink="http://www.w3.org/1999/xlink" xmlns="http://www.w3.org/2000/svg" height="18" viewBox="0 0 18 18" width="18">
  <defs>
    <style>
      .fill {
        fill: #464646;
      }
    </style>
  </defs>
  <title>S TableColumnRemoveCenter 18 N</title>
  <rect id="Canvas" fill="#ff13dc" opacity="0" width="18" height="18"/><path class="fill" d="M4.05,13.5A4.45,4.45,0,1,0,8.5,9.05,4.45,4.45,0,0,0,4.05,13.5ZM6,13.25A.25.25,0,0,1,6.25,13h4.5a.25.25,0,0,1,.25.25v.5a.25.25,0,0,1-.25.25H6.25A.25.25,0,0,1,6,13.75Z"/>
  <path class="fill" d="M16.5,1H.5a.5.5,0,0,0-.5.5v15a.5.5,0,0,0,.5.5H3.4465a6.069,6.069,0,0,1-.5615-1H1V12H2.542a6.06971,6.06971,0,0,1,.342-1H1V7H5V8.654A6.11451,6.11451,0,0,1,7,7.75V3h3V7.75a6.11458,6.11458,0,0,1,2,.9045V7h4v4H14.116a6.06971,6.06971,0,0,1,.342,1H16v4H14.1155a6.069,6.069,0,0,1-.5615,1H16.5a.5.5,0,0,0,.5-.5V1.5A.5.5,0,0,0,16.5,1ZM5,6H1V2H5ZM16,6H12V2h4Z"/>
</svg>