<svg xmlns:xlink="http://www.w3.org/1999/xlink" xmlns="http://www.w3.org/2000/svg" height="18" viewBox="0 0 18 18" width="18">
  <defs>
    <style>
      .fill {
        fill: #464646;
      }
    </style>
  </defs>
  <title>S TableAdd 18 N</title>
  <rect id="Canvas" fill="#ff13dc" opacity="0" width="18" height="18"/><path class="fill" d="M7.8845,16H7V14h.375c-.013-.1655-.025-.331-.025-.5s.0115-.3345.025-.5H7V11h.8845a6.16915,6.16915,0,0,1,.562-1H7V8h3.76A6.121,6.121,0,0,1,17,8.4465V1.5a.5.5,0,0,0-.5-.5H1.5a.5.5,0,0,0-.5.5v15a.5.5,0,0,0,.5.5H8.4465A6.16873,6.16873,0,0,1,7.8845,16ZM2,2H16V7H2ZM6,16H2V14H6Zm0-3H2V11H6Zm0-3H2V8H6Z"/>
  <path class="fill" d="M13.5,9.05a4.45,4.45,0,1,0,4.45,4.45A4.45,4.45,0,0,0,13.5,9.05Zm2.5,4.7a.25.25,0,0,1-.25.25H14v1.75a.25.25,0,0,1-.25.25h-.5a.25.25,0,0,1-.25-.25V14H11.25a.25.25,0,0,1-.25-.25v-.5a.25.25,0,0,1,.25-.25H13V11.25a.25.25,0,0,1,.25-.25h.5a.25.25,0,0,1,.25.25V13h1.75a.25.25,0,0,1,.25.25Z"/>
</svg>