<?xml version="1.0" encoding="UTF-8"?>
<svg xmlns="http://www.w3.org/2000/svg" version="1.1" viewBox="0 0 18 18" width="18" height="18">
  <!-- Generator: Adobe Illustrator 29.4.0, SVG Export Plug-In . SVG Version: 2.1.0 Build 152)  -->
  <g id="Layer_1" focusable="false">
    <path d="M7.4,14H3v-3h4.9c.2-.4.3-.7.6-1H3v-3h12v.5c.3,0,.7.2,1,.3V2.5c0-.3-.2-.5-.5-.5H2.5c-.3,0-.5.2-.5.5v12c0,.3.2.5.5.5h5c0-.3-.1-.7-.2-1ZM3,3h12v3H3v-3Z"/>
    <path d="M17.6,12.9h-1.1c0-.4-.2-.8-.5-1.1l.8-.8c.1-.1.1-.3,0-.4l-.5-.5c-.1-.1-.3-.1-.4,0l-.8.8c-.3-.2-.7-.4-1.1-.4v-1.1c0-.2-.1-.3-.3-.3h-.6c-.2,0-.3.1-.3.3h0v1.1c-.4,0-.8.2-1.1.4l-.8-.8c-.1-.1-.3-.1-.4,0l-.5.5c-.1.1-.1.3,0,.4l.8.8c-.2.3-.4.7-.4,1.1h-1.1c-.2,0-.3.1-.3.3h0v.6c0,.2.1.3.3.3h1.1c0,.4.2.8.4,1.1l-.8.8c-.1.1-.1.3,0,.4l.5.5c.1.1.3.1.4,0l.8-.8c.3.2.7.4,1.1.5v1.1c0,.2.1.3.3.3h.6c.2,0,.3-.1.3-.3v-1.1c.4,0,.8-.2,1.1-.5l.8.8c.1.1.3.1.4,0l.5-.5c.1-.1.1-.3,0-.4l-.8-.8c.2-.3.4-.7.5-1.1h1.1c.2,0,.3-.1.3-.3v-.6c0-.2-.1-.3-.3-.3,0,0,0,0,0,0ZM13.5,15.2c-1,0-1.8-.8-1.8-1.8s.8-1.8,1.8-1.8,1.8.8,1.8,1.8-.8,1.8-1.8,1.8h0Z"/>
  </g>
</svg>