<svg xmlns:xlink="http://www.w3.org/1999/xlink" xmlns="http://www.w3.org/2000/svg" height="18" viewBox="0 0 18 18" width="18">
  <defs>
    <style>
      .fill {
        fill: #464646;
      }
    </style>
  </defs>
  <title>S Tableau 18 N</title>
  <rect id="Canvas" fill="#ff13dc" opacity="0" width="18" height="18"/><polygon class="fill" points="12 8.25 9.75 8.25 9.75 6 8.25 6 8.25 8.25 6 8.25 6 9.75 8.25 9.75 8.25 12 9.75 12 9.75 9.75 12 9.75 12 8.25"/>
  <polygon class="fill" points="10.5 1.875 9.375 1.875 9.375 0.75 8.625 0.75 8.625 1.875 7.5 1.875 7.5 2.625 8.625 2.625 8.625 3.75 9.375 3.75 9.375 2.625 10.5 2.625 10.5 1.875"/>
  <polygon class="fill" points="10.5 15.375 9.375 15.375 9.375 14.25 8.625 14.25 8.625 15.375 7.5 15.375 7.5 16.125 8.625 16.125 8.625 17.25 9.375 17.25 9.375 16.125 10.5 16.125 10.5 15.375"/>
  <polygon class="fill" points="17.25 8.625 16.125 8.625 16.125 7.5 15.375 7.5 15.375 8.625 14.25 8.625 14.25 9.375 15.375 9.375 15.375 10.5 16.125 10.5 16.125 9.375 17.25 9.375 17.25 8.625"/>
  <polygon class="fill" points="3.75 8.625 2.625 8.625 2.625 7.5 1.875 7.5 1.875 8.625 0.75 8.625 0.75 9.375 1.875 9.375 1.875 10.5 2.625 10.5 2.625 9.375 3.75 9.375 3.75 8.625"/>
  <polygon class="fill" points="15.6 4.088 13.913 4.088 13.913 2.4 12.788 2.4 12.788 4.088 11.1 4.088 11.1 5.213 12.788 5.213 12.788 6.9 13.913 6.9 13.913 5.213 15.6 5.213 15.6 4.088"/>
  <polygon class="fill" points="6.9 4.088 5.213 4.088 5.213 2.4 4.088 2.4 4.088 4.088 2.4 4.088 2.4 5.213 4.088 5.213 4.088 6.9 5.213 6.9 5.213 5.213 6.9 5.213 6.9 4.088"/>
  <polygon class="fill" points="15.6 12.788 13.913 12.788 13.913 11.1 12.788 11.1 12.788 12.788 11.1 12.788 11.1 13.913 12.788 13.913 12.788 15.6 13.913 15.6 13.913 13.913 15.6 13.913 15.6 12.788"/>
  <polygon class="fill" points="6.9 12.788 5.213 12.788 5.213 11.1 4.088 11.1 4.088 12.788 2.4 12.788 2.4 13.913 4.088 13.913 4.088 15.6 5.213 15.6 5.213 13.913 6.9 13.913 6.9 12.788"/>
</svg>