<svg id="Component_3_1" data-name="Component 3 – 1" xmlns="http://www.w3.org/2000/svg" width="32" height="32" viewBox="0 0 32 32"><g id="Action_button" data-name="Action button"><g id="Icon"><rect id="Canvas" fill="var(--spectrum-global-color-gray-900)" opacity="0"></rect><path id="Subtraction_1" data-name="Subtraction 1" d="M-9243.791-467h-9.71a.5.5,0,0,1-.5-.5v-15a.5.5,0,0,1,.5-.5h15a.5.5,0,0,1,.5.5v10.463l-1.971-1.963h.972v-2h-9v2h4.214q-.006.063-.006.137V-473H-9248v2h4.208v1H-9248v2h4.208v1Zm-9.208-3v2h4v-2Zm0-3v2h4v-2Zm0-3v2h4v-2Zm0-6v5h14v-5Z" transform="translate(9262 491)" fill="var(--spectrum-global-color-gray-900)" stroke="rgba(0,0,0,0)" stroke-miterlimit="10" stroke-width="1"></path></g></g><path id="Path_83864" data-name="Path 83864" d="M4.137,1.027A.137.137,0,0,0,4,1.164v8.978a.137.137,0,0,0,.137.137.134.134,0,0,0,.1-.04l2.65-2.653h3.561a.137.137,0,0,0,.1-.234L4.234,1.067A.134.134,0,0,0,4.137,1.027Z" transform="translate(15.71 15.973)" fill="var(--spectrum-global-color-gray-900)"></path></svg>