<svg xmlns:xlink="http://www.w3.org/1999/xlink" xmlns="http://www.w3.org/2000/svg" height="18" viewBox="0 0 18 18" width="18">
  <defs>
    <style>
      .fill {
        fill: #464646;
      }
    </style>
  </defs>
  <title>S TagBold 18 N</title>
  <rect id="Canvas" fill="#ff13dc" opacity="0" width="18" height="18"/><path class="fill" d="M3,2.254c0-.106.0225-.1695.1395-.1905C3.9745,2.0425,6.086,2,7.642,2c4.85,0,5.592,2.3295,5.592,3.685a3.231,3.231,0,0,1-1.4615,2.7535A3.557,3.557,0,0,1,14,11.7215C14,14.39,11.471,16,7.642,16c-2.019,0-3.5975-.021-4.48-.0425C3.0465,15.9365,3,15.873,3,15.788ZM5.989,7.991H7.6685a12.13966,12.13966,0,0,1,2.0105.15,2.445,2.445,0,0,0,.8405-1.955c0-1.461-.973-2.179-2.784-2.179-.7075,0-1.2815.025-1.7465.025Zm0,5.9855c.4895.021,1.045.042,1.712.042,2.088.021,3.4215-.6535,3.4215-2.0665a1.793,1.793,0,0,0-1.6-1.8345,6.12448,6.12448,0,0,0-1.5115-.15H5.989Z"/>
</svg>