<svg xmlns:xlink="http://www.w3.org/1999/xlink" xmlns="http://www.w3.org/2000/svg" height="18" viewBox="0 0 18 18" width="18">
  <defs>
    <style>
      .fill {
        fill: #464646;
      }
    </style>
  </defs>
  <title>S TagUnderline 18 N</title>
  <rect id="Canvas" fill="#ff13dc" opacity="0" width="18" height="18"/><rect class="fill" height="1" rx="0.25" width="11" x="3.5" y="15"/>
  <path class="fill" d="M11.25,2.006a.25.25,0,0,0-.25.25v6.75s.241,3.1-2.5,3.1c-2.7295,0-2.5-3.1-2.5-3.1V2.256a.25.25,0,0,0-.25-.25H4.25a.25.25,0,0,0-.25.25v6.75c0,.706-.0705,5,4.5,5S13,9.5,13,8.994V2.256a.25.25,0,0,0-.25-.25Z"/>
</svg>