<svg xmlns:xlink="http://www.w3.org/1999/xlink" xmlns="http://www.w3.org/2000/svg" height="18" viewBox="0 0 18 18" width="18">
  <defs>
    <style>
      .fill {
        fill: #464646;
      }
    </style>
  </defs>
  <title>S Targeted 18 N</title>
  <rect id="Canvas" fill="#ff13dc" opacity="0" width="18" height="18"/><path class="fill" d="M8.6125,7.6405,6,5.028V3.4235a1,1,0,0,0-.293-.7075L3.427.1195A.25.25,0,0,0,3,.296L2.25,2.25.3,3.009a.25.25,0,0,0-.177.427l2.5865,2.28A.99.99,0,0,0,3.414,6H5.0005l2.631,2.6255a.3465.3465,0,0,0,.49.00048L8.122,8.6255l.4905-.4905a.34615.34615,0,0,0,.00535-.48971Z"/>
  <path class="fill" d="M9.664,7.1225a1.52705,1.52705,0,0,1-.2245,1.849l-.491.491A1.526,1.526,0,0,1,7.143,9.734,1.997,1.997,0,1,0,9.664,7.1225Z"/>
  <path class="fill" d="M9,1.05a7.91194,7.91194,0,0,0-2.75.5l.3375.3905A2.17152,2.17152,0,0,1,7.1895,3.45v.8295A5.12,5.12,0,1,1,4.273,7.211H3.4275A2.16951,2.16951,0,0,1,1.9135,6.6L1.54,6.271A7.94551,7.94551,0,1,0,9,1.05Z"/>
</svg>