<svg xmlns:xlink="http://www.w3.org/1999/xlink" xmlns="http://www.w3.org/2000/svg" height="18" viewBox="0 0 18 18" width="18">
  <defs>
    <style>
      .fill {
        fill: #464646;
      }
    </style>
  </defs>
  <title>S TestABEdit 18 N</title>
  <rect id="Canvas" fill="#ff13dc" opacity="0" width="18" height="18"/><path class="fill" d="M2.4095,8.891l-.654,1.993a.118.118,0,0,1-.131.0965H.435c-.0715,0-.095-.036-.0835-.121L2.8,3.7815a1.87138,1.87138,0,0,0,.107-.65c0-.05.024-.0845.0715-.0845H4.634c.0595,0,.0715.012.0835.0725l2.75,7.7545c.012.0725,0,.1085-.0715.1085H6.0615a.119.119,0,0,1-.119-.0725L5.25,8.891ZM4.872,7.5745c-.25-.797-.809-2.476-1.047-3.3215H3.813c-.1905.8095-.666,2.2225-1.023,3.3215Z"/>
  <path class="fill" d="M8.774,11.4395c-.012.05-.0355.0605-.083.0605H7.7035c-.0595,0-.0715-.024-.0595-.0725L9.9875,2.574c.012-.05.024-.05.0715-.05h1c.05,0,.0595.012.05.0605Z"/>
  <path class="fill" d="M13.4155,9.592V7.4655H14.5a3.08558,3.08558,0,0,1,.809.0845,1.20844,1.20844,0,0,1,.521.274,1.5845,1.5845,0,0,1,1.1395.4595L17.6,8.916a2.32577,2.32577,0,0,0,.039-.35,2.025,2.025,0,0,0-1.142-1.8725,1.89447,1.89447,0,0,0,.75-1.57c0-.773-.381-2.1-2.867-2.1-.797,0-1.8795.024-2.3075.036-.0595.012-.0715.05-.0715.109V10.884c0,.033.031.05.0575.0665Zm0-5.3155c.25,0,.559-.012.94-.012.975,0,1.5.35,1.5,1.063a1.15,1.15,0,0,1-.45.954A7.21311,7.21311,0,0,0,14.323,6.209h-.9075Z"/>
  <path class="fill" d="M17.869,10.882,16.116,9.129a.369.369,0,0,0-.2635-.1075H15.841a.41651.41651,0,0,0-.282.1235L10.15,14.5565a.30352.30352,0,0,0-.0765.128l-1.0135,3c-.0345.1145.1395.2585.238.2585a.15431.15431,0,0,0,.0185,0c.084-.0195,2.5615-.882,3-1.014a.3.3,0,0,0,.126-.0755L17.853,11.439a.41794.41794,0,0,0,.123-.2685A.37149.37149,0,0,0,17.869,10.882Zm-5.8,5.4815c-.657.1975-1.65.6145-2.2155.784l.78-2.2155Z"/>
</svg>