<svg xmlns:xlink="http://www.w3.org/1999/xlink" xmlns="http://www.w3.org/2000/svg" height="18" viewBox="0 0 18 18" width="18">
  <defs>
    <style>
      .fill {
        fill: #464646;
      }
    </style>
  </defs>
  <title>S TestABGear 18 N</title>
  <rect id="Canvas" fill="#ff13dc" opacity="0" width="18" height="18"/><path class="fill" d="M2.4235,8.891,1.769,10.884a.118.118,0,0,1-.131.0965H.45c-.0715,0-.095-.036-.0835-.121l2.45-7.078a1.87138,1.87138,0,0,0,.107-.65c0-.05.024-.0845.0715-.0845H4.65c.0595,0,.0715.012.0835.0725l2.75,7.7545c.012.0725,0,.1085-.0715.1085H6.075a.119.119,0,0,1-.119-.0725l-.69-2.017ZM4.886,7.5745c-.25-.797-.809-2.476-1.047-3.3215H3.827c-.1905.8095-.666,2.2225-1.023,3.3215Z"/>
  <path class="fill" d="M8.334,9.2445c.0045,0,.115-.157.1935-.234l.5-.5a1.51406,1.51406,0,0,1,.631-.3735l1.462-5.55c.012-.05,0-.0605-.0475-.0605h-1c-.05,0-.0595,0-.072.05C10,2.574,8.259,9.2595,8.334,9.2445Z"/>
  <path class="fill" d="M12.684,7.0075h.661a1.521,1.521,0,0,1,1.0865.4585h.0805a3.08558,3.08558,0,0,1,.809.0845,1.05549,1.05549,0,0,1,.7225.525A1.51652,1.51652,0,0,1,17,8.5085l.504.504a1.28006,1.28006,0,0,1,.0745.112,2.24131,2.24131,0,0,0,.0745-.559A2.025,2.025,0,0,0,16.511,6.693a1.89452,1.89452,0,0,0,.75-1.57c0-.773-.381-2.1-2.867-2.1-.797,0-1.8795.024-2.3075.036-.0595.012-.0715.05-.0715.109V7.171A1.51191,1.51191,0,0,1,12.684,7.0075Zm.7455-2.7305c.25,0,.559-.012.94-.012.975,0,1.5.35,1.5,1.063a1.15,1.15,0,0,1-.45.954,7.21311,7.21311,0,0,0-1.0825-.0725h-.9075Z"/>
  <path class="fill" d="M17.476,12.339H16.3185a3.345,3.345,0,0,0-.4885-1.1865l.824-.824a.3305.3305,0,0,0,.0001-.4674L16.654,9.861l-.5-.5a.3305.3305,0,0,0-.4674-.0001l-.0001.0001-.824.824a3.34646,3.34646,0,0,0-1.1865-.489V8.538a.3305.3305,0,0,0-.3305-.3305h-.662a.3305.3305,0,0,0-.3305.3305V9.6955a3.34594,3.34594,0,0,0-1.1865.489l-.824-.8245a.3305.3305,0,0,0-.4674-.0001L9.875,9.36l-.5.5a.3305.3305,0,0,0-.0001.4674l.0001.0001.825.825a3.345,3.345,0,0,0-.4885,1.1865H8.55a.3305.3305,0,0,0-.3305.3305v.661a.3305.3305,0,0,0,.3305.3305H9.7075A3.34513,3.34513,0,0,0,10.2,14.85l-.824.824a.3305.3305,0,0,0-.0001.4674l.0001.0001.5.5a.3305.3305,0,0,0,.4674.0001l.0001-.0001.824-.824a3.34593,3.34593,0,0,0,1.1865.4885v1.1575a.3305.3305,0,0,0,.3305.3305h.661a.3305.3305,0,0,0,.3305-.3305V16.305a3.34655,3.34655,0,0,0,1.1865-.4885l.824.824a.3305.3305,0,0,0,.4674.0001l.0001-.0001.5-.5a.3305.3305,0,0,0,.0001-.4674l-.0001-.0001-.824-.823a3.345,3.345,0,0,0,.4885-1.1865H17.476a.3305.3305,0,0,0,.3305-.3305v-.6635A.3305.3305,0,0,0,17.476,12.339ZM13.014,14.8a1.8,1.8,0,1,1,1.8-1.8,1.8,1.8,0,0,1-1.8,1.8Z"/>
</svg>