<svg xmlns:xlink="http://www.w3.org/1999/xlink" xmlns="http://www.w3.org/2000/svg" height="18" viewBox="0 0 18 18" width="18">
  <defs>
    <style>
      .fill {
        fill: #464646;
      }
    </style>
  </defs>
  <title>S TestProfile 18 N</title>
  <rect id="Canvas" fill="#ff13dc" opacity="0" width="18" height="18"/><path class="fill" d="M17.67,16.149l-5.738-5.737a6.006,6.006,0,1,0-1.52,1.52l5.738,5.737a1.0775,1.0775,0,0,0,1.52-1.52ZM2,7a5,5,0,1,1,8.9,3.096,2.681,2.681,0,0,0-2.478-1.65.38851.38851,0,0,1-.3365-.39V7.495a.39.39,0,0,1,.1-.25A2.97451,2.97451,0,0,0,8.862,5.39c0-1.404-.7445-2.1885-1.87-2.1885S5.1,4.0155,5.1,5.3885a3.004,3.004,0,0,0,.7085,1.855.38951.38951,0,0,1,.1.25V8.054a.387.387,0,0,1-.3375.3905A2.58249,2.58249,0,0,0,3.09,10.077,4.955,4.955,0,0,1,2,7Z"/>
</svg>