<svg xmlns:xlink="http://www.w3.org/1999/xlink" xmlns="http://www.w3.org/2000/svg" height="18" viewBox="0 0 18 18" width="18">
  <defs>
    <style>
      .fill {
        fill: #464646;
      }
    </style>
  </defs>
  <title>S TestAB 18 N</title>
  <rect id="Canvas" fill="#ff13dc" opacity="0" width="18" height="18"/><path class="fill" d="M2.4095,10.891l-.654,1.993a.118.118,0,0,1-.131.0965H.435c-.0715,0-.095-.036-.0835-.121L2.8,5.7815a1.87138,1.87138,0,0,0,.107-.65c0-.05.024-.0845.0715-.0845H4.634c.0595,0,.0715.012.0835.0725l2.75,7.7545c.012.0725,0,.1085-.0715.1085H6.0615a.119.119,0,0,1-.119-.0725L5.25,10.891ZM4.872,9.5745c-.25-.797-.809-2.476-1.047-3.3215H3.813c-.1905.8095-.666,2.2225-1.023,3.3215Z"/>
  <path class="fill" d="M8.774,13.4395c-.012.05-.0355.0605-.083.0605H7.7035c-.0595,0-.0715-.024-.0595-.0725L9.9875,4.574c.012-.05.024-.05.0715-.05h1c.05,0,.0595.012.05.0605Z"/>
  <path class="fill" d="M12,5.1655c0-.0605.012-.0965.0715-.1085.428-.012,1.5105-.036,2.3075-.036,2.486,0,2.867,1.3285,2.867,2.1a1.89447,1.89447,0,0,1-.75,1.57,2.02449,2.02449,0,0,1,1.142,1.872c0,1.522-1.2965,2.44-3.2595,2.44-1.035,0-1.8435-.012-2.2955-.024A.0915.0915,0,0,1,12,12.884Zm1.4155,3.044h.904a7.22234,7.22234,0,0,1,1.0825.0725,1.15,1.15,0,0,0,.45-.954c0-.7125-.5235-1.063-1.5-1.063-.3805,0-.69.012-.9395.012Zm0,3.55c.2615.012.559.024.916.024,1.118.012,1.832-.3745,1.832-1.1835a1.0105,1.0105,0,0,0-.8565-1.05,3.0846,3.0846,0,0,0-.807-.0845H13.4155Z"/>
</svg>