<svg xmlns:xlink="http://www.w3.org/1999/xlink" xmlns="http://www.w3.org/2000/svg" height="18" viewBox="0 0 18 18" width="18">
  <defs>
    <style>
      .fill {
        fill: #464646;
      }
    </style>
  </defs>
  <title>S TestABRemove 18 N</title>
  <rect id="Canvas" fill="#ff13dc" opacity="0" width="18" height="18"/><path class="fill" d="M2.4095,8.891l-.654,1.993a.118.118,0,0,1-.131.0965H.435c-.0715,0-.095-.036-.0835-.121L2.8,3.7815a1.87138,1.87138,0,0,0,.107-.65c0-.05.024-.0845.0715-.0845H4.634c.0595,0,.0715.012.0835.0725l2.75,7.7545c.012.0725,0,.1085-.0715.1085H6.0615a.119.119,0,0,1-.119-.0725L5.25,8.891ZM4.872,7.5745c-.25-.797-.809-2.476-1.047-3.3215H3.813c-.1905.8095-.666,2.2225-1.023,3.3215Z"/>
  <path class="fill" d="M7.7035,11.5a6.15744,6.15744,0,0,1,1.727-2.55l1.675-6.3615c.012-.05,0-.0605-.0475-.0605h-1c-.05,0-.0595,0-.072.05L7.644,11.4275C7.6325,11.476,7.644,11.5,7.7035,11.5Z"/>
  <path class="fill" d="M13.5,7.4a6.18225,6.18225,0,0,1,.85.066h.15a3.08558,3.08558,0,0,1,.809.0845,1.16452,1.16452,0,0,1,.587.333,6.13986,6.13986,0,0,1,1.7,1.0865,2.36129,2.36129,0,0,0,.045-.405,2.025,2.025,0,0,0-1.142-1.8725,1.89447,1.89447,0,0,0,.75-1.57c0-.773-.381-2.1-2.867-2.1-.797,0-1.8795.024-2.3075.036-.0595.012-.0715.05-.0715.109v4.426A6.14544,6.14544,0,0,1,13.5,7.4Zm-.0845-3.123c.25,0,.559-.012.94-.012.975,0,1.5.35,1.5,1.063a1.15,1.15,0,0,1-.45.954,7.21311,7.21311,0,0,0-1.0825-.0725h-.9075Z"/>
  <path class="fill" d="M13.5,9.05a4.45,4.45,0,1,0,4.45,4.45A4.45,4.45,0,0,0,13.5,9.05Zm2.913,6.1335a.25.25,0,0,1,0,.3535l-.876.876a.25.25,0,0,1-.3535,0L13.5,14.7295,11.8165,16.413a.25.25,0,0,1-.3535,0l-.876-.876a.25.25,0,0,1,0-.3535L12.2705,13.5,10.587,11.8165a.25.25,0,0,1,0-.3535l.876-.876a.25.25,0,0,1,.3535,0L13.5,12.2705l1.6835-1.6835a.25.25,0,0,1,.3535,0l.876.876a.25.25,0,0,1,0,.3535L14.7295,13.5Z"/>
</svg>