<svg xmlns:xlink="http://www.w3.org/1999/xlink" xmlns="http://www.w3.org/2000/svg" height="18" viewBox="0 0 18 18" width="18">
  <defs>
    <style>
      .fill {
        fill: #464646;
      }
    </style>
  </defs>
  <title>S TextSizeAdd 18 N</title>
  <rect id="Canvas" fill="#ff13dc" opacity="0" width="18" height="18"/><path class="fill" d="M6.75,9A.25.25,0,0,1,7,9.25v1.5a.25.25,0,0,1-.25.25h-.5A.25.25,0,0,1,6,10.75V10H4v5h.75a.25.25,0,0,1,.25.25v.5a.25.25,0,0,1-.25.25H2.25A.25.25,0,0,1,2,15.75v-.5A.25.25,0,0,1,2.25,15H3V10H1v.7365a.25.25,0,0,1-.25.25H.25a.25.25,0,0,1-.25-.25V9.25A.25.25,0,0,1,.25,9Z"/>
  <path class="fill" d="M10,9.261a5.4865,5.4865,0,0,1,2-1.0475V4h4V5.5a.5.5,0,0,0,.5.5h1a.5.5,0,0,0,.5-.5v-3a.5.5,0,0,0-.5-.5H4.5a.5.5,0,0,0-.5.5v3a.5.5,0,0,0,.5.5h1A.5.5,0,0,0,6,5.5V4h4Z"/>
  <path class="fill" d="M13.5,9.05a4.45,4.45,0,1,0,4.45,4.45A4.45,4.45,0,0,0,13.5,9.05Zm2.45,5.2h-1.7v1.7a.25.25,0,0,1-.25.25H13a.25.25,0,0,1-.25-.25v-1.7h-1.7A.25.25,0,0,1,10.8,14V13a.25.25,0,0,1,.25-.25h1.7v-1.7A.25.25,0,0,1,13,10.8h1a.25.25,0,0,1,.25.25v1.7h1.7a.25.25,0,0,1,.25.25v1A.25.25,0,0,1,15.95,14.25Z"/>
</svg>