<svg xmlns:xlink="http://www.w3.org/1999/xlink" xmlns="http://www.w3.org/2000/svg" height="18" viewBox="0 0 18 18" width="18">
  <defs>
    <style>
      .fill {
        fill: #464646;
      }
    </style>
  </defs>
  <title>S TextEdit 18 N</title>
  <rect id="Canvas" fill="#ff13dc" opacity="0" width="18" height="18"/><path class="fill" d="M8,14V4h4V5.5a.5.5,0,0,0,.5.5h1a.5.5,0,0,0,.5-.5v-3a.5.5,0,0,0-.5-.5H.5a.5.5,0,0,0-.5.5v3A.5.5,0,0,0,.5,6h1A.5.5,0,0,0,2,5.5V4H6V14H4.5a.5.5,0,0,0-.5.5v1a.5.5,0,0,0,.5.5H7.3335Z"/>
  <path class="fill" d="M17.8225,10.3425,15.6605,8.181a.54151.54151,0,0,0-.339-.1325.565.565,0,0,0-.35.15l-5.616,5.621a.368.368,0,0,0-.094.1575l-1.222,3.67c-.0425.141.1725.319.294.319l.023-.0025c.1035-.024,3.13-1.059,3.672-1.222a.36653.36653,0,0,0,.155-.0935L17.8,11.0295a.515.515,0,0,0,.15-.331A.458.458,0,0,0,17.8225,10.3425Zm-8.803,6.644.989-2.7595,1.77,1.7655C10.968,16.236,9.7195,16.7775,9.0195,16.9865Z"/>
</svg>