<svg xmlns:xlink="http://www.w3.org/1999/xlink" xmlns="http://www.w3.org/2000/svg" height="18" viewBox="0 0 18 18" width="18">
  <defs>
    <style>
      .fill {
        fill: #464646;
      }
    </style>
  </defs>
  <title>S TextStyle 18 N</title>
  <rect id="Canvas" fill="#ff13dc" opacity="0" width="18" height="18"/><path class="fill" d="M3.988,11.65c.292,1.521,1.485,4.2395,4.243,4.2395a2.57217,2.57217,0,0,0,2.864-2.5345c0-1.0825-.7425-2.0275-2.095-2.95L8.2045,9.9C6.534,8.771,5.049,7.481,5.049,5.5685c0-2.719,2.519-4.4,5.7805-4.4a9.87005,9.87005,0,0,1,2.9965.461c.4775.138.822.2765,1.087.3685a31.61081,31.61081,0,0,0-.159,3.5255l-.928.069c-.2385-1.45-.875-3.5-3.2085-3.5A2.403,2.403,0,0,0,8.0761,4.34863q-.00348.05862-.0041.11737c0,1.129.7425,1.8665,2.15,2.742l.7955.4835c1.83,1.15,3.3415,2.4195,3.3415,4.493,0,2.9035-2.864,4.6545-6.417,4.6545a8.188,8.188,0,0,1-4.8265-1.4285c.0265-.53.0265-1.8205,0-3.6635Z"/>
</svg>