<svg xmlns:xlink="http://www.w3.org/1999/xlink" xmlns="http://www.w3.org/2000/svg" height="18" viewBox="0 0 18 18" width="18">
  <defs>
    <style>
      .fill {
        fill: #464646;
      }
    </style>
  </defs>
  <title>S TextSuperscript 18 N</title>
  <rect id="Canvas" fill="#ff13dc" opacity="0" width="18" height="18"/><path class="fill" d="M1.5,2a.5.5,0,0,0-.5.5v3a.5.5,0,0,0,.5.5h1A.5.5,0,0,0,3,5.5V4H6V14H4.5a.5.5,0,0,0-.5.5v1a.5.5,0,0,0,.5.5h5a.5.5,0,0,0,.5-.5v-1a.5.5,0,0,0-.5-.5H8V4h3V5.5a.5.5,0,0,0,.5.5h1a.5.5,0,0,0,.5-.5v-3a.5.5,0,0,0-.5-.5Z"/>
  <path class="fill" d="M15.871,6c-.0605,0-.08-.0195-.08-.0705V1.9025a4.06383,4.06383,0,0,1-1.05.36c-.0595.01-.079,0-.079-.0605v-.85c0-.05.01-.0705.0595-.08a4.98456,4.98456,0,0,0,1.39-.6.25253.25253,0,0,1,.15-.04H16.95c.04,0,.05.0195.05.069V5.9295c0,.05-.0195.0705-.0595.0705Z"/>
</svg>