<svg xmlns:xlink="http://www.w3.org/1999/xlink" xmlns="http://www.w3.org/2000/svg" height="18" viewBox="0 0 18 18" width="18">
  <defs>
    <style>
      .fill {
        fill: #464646;
      }
    </style>
  </defs>
  <title>S TextLetteredLowerCase 18 N</title>
  <rect id="Canvas" fill="#ff13dc" opacity="0" width="18" height="18"/><rect class="fill" height="2" rx="0.5" width="11" x="7" y="2"/>
  <rect class="fill" height="2" rx="0.5" width="11" x="7" y="8"/>
  <rect class="fill" height="2" rx="0.5" width="11" x="7" y="14"/>
  <path class="fill" d="M4.835,4.17c0,.15,0,.288.008.4405,0,.0155,0,.0235-.016.0315a3.66892,3.66892,0,0,1-1.615.36c-.8635,0-1.55-.4-1.55-1.279,0-.85.8-1.2475,1.84-1.2475.3035,0,.4875.016.5675.0235V2.3555c0-.2155-.1125-.735-.9035-.735a2.37956,2.37956,0,0,0-1.071.239.04.04,0,0,1-.057-.04V1.25a.079.079,0,0,1,.04-.072A2.91545,2.91545,0,0,1,3.286.9385a1.419,1.419,0,0,1,1.55,1.55ZM4.0675,3.1A4.24391,4.24391,0,0,0,3.54,3.0755c-.7595,0-1.1125.239-1.1125.65,0,.3435.2405.655.92.655a1.837,1.837,0,0,0,.72-.1355Z"/>
  <path class="fill" d="M2.6865,5.4795c.045,0,.06,0,.06.045v1.758a2.319,2.319,0,0,1,.8145-.135A1.7165,1.7165,0,0,1,5.36987,8.76637q.00426.07674.00163.15363a2.061,2.061,0,0,1-2.05714,2.06485Q3.2381,10.985,3.162,10.9795a3.48056,3.48056,0,0,1-1.1095-.1585A.0795.0795,0,0,1,2,10.753V5.5245c0-.0375.022-.045.0525-.045Zm.7465,2.301A1.73,1.73,0,0,0,2.7465,7.9v2.4a1.80559,1.80559,0,0,0,.4755.0525A1.30649,1.30649,0,0,0,4.6105,8.987,1.1175,1.1175,0,0,0,3.433,7.7805Z"/>
  <path class="fill" d="M4.954,16.81a.06049.06049,0,0,1-.04.0645,2.67545,2.67545,0,0,1-.919.128,1.95,1.95,0,0,1-2.087-2.015A2.04262,2.04262,0,0,1,4.123,12.941a2.18516,2.18516,0,0,1,.791.0955c.0325.0155.04.04.04.08L4.9465,13.7c0,.05-.0235.05-.056.04a1.95279,1.95279,0,0,0-.7595-.119,1.341,1.341,0,1,0,0,2.6775,2.28861,2.28861,0,0,0,.769-.096c.04-.0155.0555,0,.0555.032Z"/>
</svg>