<svg xmlns:xlink="http://www.w3.org/1999/xlink" xmlns="http://www.w3.org/2000/svg" height="18" viewBox="0 0 18 18" width="18">
  <defs>
    <style>
      .fill {
        fill: #464646;
      }
    </style>
  </defs>
  <title>S TextSpaceAfter 18 N</title>
  <rect id="Canvas" fill="#ff13dc" opacity="0" width="18" height="18"/><rect class="fill" height="2" rx="0.5" width="10" x="7" y="4"/>
  <rect class="fill" height="2" rx="0.5" width="10" x="7" y="7"/>
  <rect class="fill" height="2" rx="0.5" width="10" x="7" y="1"/>
  <path class="fill" d="M2,16.664a.25.25,0,0,0,.433.1705L5,14,2.433,11.1655A.25.25,0,0,0,2,11.336Z"/>
  <path class="fill" d="M17,16.5v-5a.5.5,0,0,0-.5-.5h-9a.5.5,0,0,0-.5.5v5a.5.5,0,0,0,.5.5h9A.5.5,0,0,0,17,16.5ZM16,16H8V12h8Z"/>
</svg>