<svg xmlns:xlink="http://www.w3.org/1999/xlink" xmlns="http://www.w3.org/2000/svg" height="18" viewBox="0 0 18 18" width="18">
  <defs>
    <style>
      .fill {
        fill: #464646;
      }
    </style>
  </defs>
  <title>S TextTracking 18 N</title>
  <rect id="Canvas" fill="#ff13dc" opacity="0" width="18" height="18"/><path class="fill" d="M13.183,3.35c-.216.9045-.9,2.9035-1.3045,4.132h2.65c-.2835-.8915-1.0615-3.1865-1.332-4.132Z"/>
  <path class="fill" d="M17.75,1H.25A.25.25,0,0,0,0,1.25v10.5A.25.25,0,0,0,.25,12h17.5a.25.25,0,0,0,.25-.25V1.25A.25.25,0,0,0,17.75,1ZM6.0365,10.7775a.1175.1175,0,0,1-.1345.0945H4.335a.11949.11949,0,0,1-.1345-.0805L1.027,2.1215C1,2.054,1.027,2,1.1075,2H2.661a.0935.0935,0,0,1,.107.07765L2.7685,2.081C4.05,5.633,4.929,8.2525,5.1725,9.25H5.2c.3-1.053.9725-3.35,2.255-7.1435.027-.081.0545-.108.1215-.108H9.05c.067,0,.1075.0405.0805.1215ZM17.25,10.872H15.7355a.1365.1365,0,0,1-.1355-.0805L14.9335,8.872H11.477l-.6305,1.892a.13349.13349,0,0,1-.15.108H9.35c-.0815,0-.1085-.0405-.0945-.135L12.035,2.824a2.05547,2.05547,0,0,0,.1215-.7295c0-.054.0275-.0945.081-.0945h1.877c.0675,0,.0815.0135.0945.081l3.1195,8.669C17.3425,10.8315,17.3285,10.872,17.25,10.872Z"/>
  <path class="fill" d="M16.3615,15.075l-1.977-1.9815a.216.216,0,0,0-.3625.131v1.283H3.978v-1.283a.216.216,0,0,0-.3625-.131L1.6385,15.075a.25.25,0,0,0,0,.353L3.616,17.414a.216.216,0,0,0,.3625-.1315V16H14.022v1.2825a.216.216,0,0,0,.3625.1315l1.9775-1.986A.25.25,0,0,0,16.3615,15.075Z"/>
  <path class="fill" d="M16.4155,15.0635,14.417,13.064A.245.245,0,0,0,14.25,13a.25.25,0,0,0-.25.25V14.5H4V13.25A.25.25,0,0,0,3.75,13a.245.245,0,0,0-.1655.0645l-2,2a.25.25,0,0,0-.019.353l.019.019,2,2A.245.245,0,0,0,3.75,17.5.25.25,0,0,0,4,17.25V16H14v1.25a.25.25,0,0,0,.25.25.245.245,0,0,0,.1655-.0645l2-2a.25.25,0,0,0,.019-.353Z"/>
</svg>