<svg xmlns:xlink="http://www.w3.org/1999/xlink" xmlns="http://www.w3.org/2000/svg" height="18" viewBox="0 0 18 18" width="18">
  <defs>
    <style>
      .fill {
        fill: #464646;
      }
    </style>
  </defs>
  <title>S Text 18 N</title>
  <rect id="Canvas" fill="#ff13dc" opacity="0" width="18" height="18"/><path class="fill" d="M2.5,2a.5.5,0,0,0-.5.5v3a.5.5,0,0,0,.5.5h1A.5.5,0,0,0,4,5.5V4H8V14H6.5a.5.5,0,0,0-.5.5v1a.5.5,0,0,0,.5.5h5a.5.5,0,0,0,.5-.5v-1a.5.5,0,0,0-.5-.5H10V4h4V5.5a.5.5,0,0,0,.5.5h1a.5.5,0,0,0,.5-.5v-3a.5.5,0,0,0-.5-.5Z"/>
</svg>