<svg xmlns:xlink="http://www.w3.org/1999/xlink" xmlns="http://www.w3.org/2000/svg" height="18" viewBox="0 0 18 18" width="18">
  <defs>
    <style>
      .fill {
        fill: #464646;
      }
    </style>
  </defs>
  <title>S TextColor 18 N</title>
  <rect id="Canvas" fill="#ff13dc" opacity="0" width="18" height="18"/><path class="fill" d="M7.0295,13.9345A3.427,3.427,0,0,1,8,12.274V4h4V5.5a.5.5,0,0,0,.5.5h1a.5.5,0,0,0,.5-.5v-3a.5.5,0,0,0-.5-.5H.5a.5.5,0,0,0-.5.5v3A.5.5,0,0,0,.5,6h1A.5.5,0,0,0,2,5.5V4H6V14H4.5a.5.5,0,0,0-.5.5v1a.5.5,0,0,0,.5.5H7.081A3.474,3.474,0,0,1,7.0295,13.9345Z"/>
  <path class="fill" d="M17.9,12.064a4.01065,4.01065,0,0,0-4.3425-2.8885c-1.258.158-2.183.586-2.2,1.2785-.0095.386.2055.55.5795.777.328.1975.7.2975.4375.991-.1605.428-.9245.2335-1.2585.2425-1.106.0285-2.529-.012-3.026,1.7665A2.608,2.608,0,0,0,9.5,17.2195a6.107,6.107,0,0,0,4.404.3795C16.547,16.787,18.47,14.3405,17.9,12.064Zm-7.2965,4.344a1.195,1.195,0,1,1,.82384-1.47558l.00016.00058a1.19449,1.19449,0,0,1-.82362,1.47489Zm2.788.369a1.1195,1.1195,0,1,1,.77192-1.38228l.00008.00028A1.1195,1.1195,0,0,1,13.3915,16.777Zm1.48-6.727a.78746.78746,0,1,1-.5425.973h0a.786.786,0,0,1,.53917-.972Zm.772,5.394a.945.945,0,1,1,.64976-1.16784l.00024.00084A.9455.9455,0,0,1,15.6435,15.444Zm1.0205-2.088a.84119.84119,0,1,1,.00148-.00042Z"/>
</svg>