<svg xmlns:xlink="http://www.w3.org/1999/xlink" xmlns="http://www.w3.org/2000/svg" height="18" viewBox="0 0 18 18" width="18">
  <defs>
    <style>
      .fill {
        fill: #464646;
      }
    </style>
  </defs>
  <title>S TextNumbered 18 N</title>
  <rect id="Canvas" fill="#ff13dc" opacity="0" width="18" height="18"/><path class="fill" d="M2.21,14.844c-.038,0-.053-.015-.053-.0535v-.758c0-.046,0-.0765.046-.0765l.3815-.0035c.5365,0,.827-.161.827-.513,0-.337-.283-.559-.8425-.559a2.356,2.356,0,0,0-1.133.291c-.046.023-.053,0-.053-.0305v-.7585c0-.046-.008-.061.038-.084A2.82746,2.82746,0,0,1,2.753,12c1.011,0,1.6385.505,1.6385,1.3a1.084,1.084,0,0,1-.6735,1.003A1.217,1.217,0,0,1,4.6295,15.5c0,.98-.904,1.5-1.9605,1.5a2.762,2.762,0,0,1-1.3095-.2525c-.046-.0155-.046-.0615-.046-.1V15.821c0-.0305.0385-.046.0695-.0305a2.617,2.617,0,0,0,1.25.3215c.6885,0,.957-.2835.957-.6435,0-.4055-.291-.628-.927-.628Z"/>
  <path class="fill" d="M2.535.988a6.45366,6.45366,0,0,1-.814.212c-.05.0075-.068-.0075-.068-.05V.49c0-.0375.008-.06.053-.0675a4.83464,4.83464,0,0,0,.9745-.385A.27859.27859,0,0,1,2.8085,0H3.55c.0375,0,.045.0225.045.053V4.091h.673c.053,0,.068.0225.0755.068v.758C4.351,4.9775,4.328,5,4.283,5H1.8135c-.053,0-.068-.0225-.0605-.068V4.159a.0725.0725,0,0,1,.07613-.06868L1.836,4.091h.7Z"/>
  <path class="fill" d="M1.257,11c-.05,0-.06-.0225-.06-.0675v-.538a.107.107,0,0,1,.0375-.1,18.45239,18.45239,0,0,0,1.406-1.264c.5905-.5755.85-.9475.85-1.3665,0-.471-.3845-.7465-.953-.7465a2.68291,2.68291,0,0,0-1.2035.329c-.045.0225-.075.0075-.075-.045v-.738a.085.085,0,0,1,.045-.0895A2.85,2.85,0,0,1,2.7825,6,1.5,1.5,0,0,1,4.45,7.491a2.2,2.2,0,0,1-.7725,1.706,11.63314,11.63314,0,0,1-.95.9155c.516,0,1.579-.014,2.02-.014.0525,0,.06.015.0525.0675l-.2225.774A.0745.0745,0,0,1,4.495,11Z"/>
  <rect class="fill" height="2" rx="0.5" width="11" x="7" y="2"/>
  <rect class="fill" height="2" rx="0.5" width="11" x="7" y="8"/>
  <rect class="fill" height="2" rx="0.5" width="11" x="7" y="14"/>
</svg>