<svg xmlns="http://www.w3.org/2000/svg" width="18" height="18" viewBox="0 0 18 18" class="spectrum-Icon_368b34 spectrum-Icon--sizeXS_368b34 parcel-icon" focusable="false" aria-hidden="true" role="img"><path d="m13.43652,11c-1.20721,0-2.2171.86005-2.4494,2h-5.23712c-.96484,0-1.75-.78516-1.75-1.75s.78516-1.75,1.75-1.75h6.5c1.5166,0,2.75-1.2334,2.75-2.75s-1.2334-2.75-2.75-2.75h-5.3006c-.2323-1.13995-1.24219-2-2.4494-2-1.37842,0-2.5,1.12109-2.5,2.5s1.12158,2.5,2.5,2.5c1.20721,0,2.2171-.86005,2.4494-2h5.3006c.96484,0,1.75.78516,1.75,1.75s-.78516,1.75-1.75,1.75h-6.5c-1.5166,0-2.75,1.2334-2.75,2.75s1.2334,2.75,2.75,2.75h5.23712c.2323,1.13995,1.24219,2,2.4494,2,1.37842,0,2.5-1.12109,2.5-2.5s-1.12158-2.5-2.5-2.5ZM4.5,6c-.82715,0-1.5-.67285-1.5-1.5s.67285-1.5,1.5-1.5,1.5.67285,1.5,1.5-.67285,1.5-1.5,1.5Z"></path></svg>