<svg xmlns:xlink="http://www.w3.org/1999/xlink" xmlns="http://www.w3.org/2000/svg" height="18" viewBox="0 0 18 18" width="18">
  <defs>
    <style>
      .fill {
        fill: #464646;
      }
    </style>
  </defs>
  <title>S TransferToPlatform 18 N</title>
  <rect id="Canvas" fill="#ff13dc" opacity="0" width="18" height="18"/><path class="fill" d="M3.05871,7.96219A2.50278,2.50278,0,0,0,5.94989,6H6.304L7.4423,7.992,8.076,6.88311,7.22979,5.40216A.79814.79814,0,0,0,6.53681,5H5.94989A2.50138,2.50138,0,1,0,3.05871,7.96219ZM14.94127,10.0378A2.50277,2.50277,0,0,0,12.05011,12H11L9.86176,10.008l-.63373,1.109L10,12.468l.08006.14012A.77784.77784,0,0,0,10.75541,13h1.2947a2.50139,2.50139,0,1,0,2.89116-2.9622ZM14.5,14A1.5,1.5,0,1,1,16,12.5,1.5,1.5,0,0,1,14.5,14ZM11,6h1.05011a2.5,2.5,0,1,0,0-1h-1.2947a.77781.77781,0,0,0-.67534.39191L6.304,12H5.94987a2.5,2.5,0,1,0,0,1h.58692a.79814.79814,0,0,0,.693-.40216Zm3.5-2A1.5,1.5,0,1,1,13,5.5,1.5,1.5,0,0,1,14.5,4Z"/>
</svg>