<svg xmlns:xlink="http://www.w3.org/1999/xlink" xmlns="http://www.w3.org/2000/svg" height="18" viewBox="0 0 18 18" width="18">
  <defs>
    <style>
      .fill {
        fill: #464646;
      }
    </style>
  </defs>
  <title>S TreeCollapseAll 18 N</title>
  <rect id="Canvas" fill="#ff13dc" opacity="0" width="18" height="18"/><path class="fill" d="M4.5,4H13V1.5a.5.5,0,0,0-.5-.5H1.5a.5.5,0,0,0-.5.5v11a.5.5,0,0,0,.5.5H4V4.5A.5.5,0,0,1,4.5,4Z"/>
  <path class="fill" d="M5,5.5v11a.5.5,0,0,0,.5.5h11a.5.5,0,0,0,.5-.5V5.5a.5.5,0,0,0-.5-.5H5.5A.5.5,0,0,0,5,5.5ZM7.25,12A.25.25,0,0,1,7,11.75v-1.5A.25.25,0,0,1,7.25,10h7.5a.25.25,0,0,1,.25.25v1.5a.25.25,0,0,1-.25.25Z"/>
</svg>