<svg xmlns:xlink="http://www.w3.org/1999/xlink" xmlns="http://www.w3.org/2000/svg" height="18" viewBox="0 0 18 18" width="18">
  <defs>
    <style>
      .fill {
        fill: #464646;
      }
    </style>
  </defs>
  <title>S TrendInspect 18 N</title>
  <rect id="Canvas" fill="#ff13dc" opacity="0" width="18" height="18"/><path class="fill" d="M4.45,13.3095l-.8.895L1.8065,10.591.034,11.9205l.7025,1.192.593-.5125,2.25,4.125,1.9775-2.64A7.00726,7.00726,0,0,1,4.45,13.3095Z"/>
  <path class="fill" d="M11.535,9.666,13,7.977a3.96594,3.96594,0,0,0-.3365-1.5775L11.7,7.5385,10.044,5.159c-.033-.0125-.0685-.021-.1-.032L6.128,10.7725a3.99345,3.99345,0,0,0,1.0945.792l2.774-4.111Z"/>
  <path class="fill" d="M15.5075,5.4375,17.932,2.716,16.94,1.8l-2.1,2.3535A6.94966,6.94966,0,0,1,15.5075,5.4375Z"/>
  <path class="fill" d="M17.67,15.149l-3.738-3.736a6.0065,6.0065,0,1,0-1.52,1.52l3.738,3.736a1.0775,1.0775,0,0,0,1.52-1.52ZM4,8a5,5,0,1,1,5,5A5,5,0,0,1,4,8Z"/>
</svg>