<svg xmlns:xlink="http://www.w3.org/1999/xlink" xmlns="http://www.w3.org/2000/svg" height="18" viewBox="0 0 18 18" width="18">
  <defs>
    <style>
      .fill {
        fill: #464646;
      }
    </style>
  </defs>
  <title>S Type 18 N</title>
  <rect id="Canvas" fill="#ff13dc" opacity="0" width="18" height="18"/><path class="fill" d="M11.8575,2.4545H13.643A.3605.3605,0,0,0,14,2.091V1.3635A.3605.3605,0,0,0,13.643,1H11.7345a1.41548,1.41548,0,0,0-1.01.426L9,3.182,7.2755,1.426A1.41552,1.41552,0,0,0,6.2655,1H4.357A.3605.3605,0,0,0,4,1.3635V2.091a.3605.3605,0,0,0,.357.3635H6.143l1.8955,2.182V11H5.7855a.3605.3605,0,0,0-.357.3635v.7275a.3605.3605,0,0,0,.357.3635H8.038v.909l-1.8955,2.182H4.357A.3605.3605,0,0,0,4,15.909v.7275A.3605.3605,0,0,0,4.357,17H6.2655a1.41552,1.41552,0,0,0,1.01-.426L9,14.818l1.7245,1.756a1.41552,1.41552,0,0,0,1.01.426H13.643A.36049.36049,0,0,0,14,16.6365V15.909a.3605.3605,0,0,0-.357-.3635H11.8575l-1.896-2.182v-.909h2.253a.3605.3605,0,0,0,.357-.3635v-.7275A.3605.3605,0,0,0,12.2145,11H9.9615V4.6365Z"/>
</svg>