<svg xmlns:xlink="http://www.w3.org/1999/xlink" xmlns="http://www.w3.org/2000/svg" height="18" viewBox="0 0 18 18" width="18">
  <defs>
    <style>
      .fill {
        fill: #464646;
      }
    </style>
  </defs>
  <title>S Ungroup 18 N</title>
  <rect id="Canvas" fill="#ff13dc" opacity="0" width="18" height="18"/><rect class="fill" height="3.5" rx="0.5" width="3.5" x="10.25" y="10.25"/>
  <path class="fill" d="M17.75,9A.25.25,0,0,0,18,8.75V6.25A.25.25,0,0,0,17.75,6h-2.5a.25.25,0,0,0-.25.25V7H9V6.25A.25.25,0,0,0,8.75,6H6.25A.25.25,0,0,0,6,6.25v2.5A.25.25,0,0,0,6.25,9H7v6H6.25a.25.25,0,0,0-.25.25v2.5a.25.25,0,0,0,.25.25h2.5A.25.25,0,0,0,9,17.75V17h6v.75a.25.25,0,0,0,.25.25h2.5a.25.25,0,0,0,.25-.25v-2.5a.25.25,0,0,0-.25-.25H17V9ZM16,15h-.75a.25.25,0,0,0-.25.25V16H9v-.75A.25.25,0,0,0,8.75,15H8V9h.75A.25.25,0,0,0,9,8.75V8h6v.75a.25.25,0,0,0,.25.25H16Z"/>
  <path class="fill" d="M5,5.5A.5.5,0,0,1,5.5,5H7.75V4.75a.5.5,0,0,0-.5-.5H4.75a.5.5,0,0,0-.5.5v2.5a.5.5,0,0,0,.5.5H5Z"/>
  <path class="fill" d="M5,10H3V9.25A.25.25,0,0,0,2.75,9H2V3h.75A.25.25,0,0,0,3,2.75V2H9v.75A.25.25,0,0,0,9.25,3H10V5h1V3h.75A.25.25,0,0,0,12,2.75V.25A.25.25,0,0,0,11.75,0H9.25A.25.25,0,0,0,9,.25V1H3V.25A.25.25,0,0,0,2.75,0H.25A.25.25,0,0,0,0,.25v2.5A.25.25,0,0,0,.25,3H1V9H.25A.25.25,0,0,0,0,9.25v2.5A.25.25,0,0,0,.25,12h2.5A.25.25,0,0,0,3,11.75V11H5Z"/>
</svg>