<svg xmlns:xlink="http://www.w3.org/1999/xlink" xmlns="http://www.w3.org/2000/svg" height="18" viewBox="0 0 18 18" width="18">
  <defs>
    <style>
      .fill {
        fill: #464646;
      }
    </style>
  </defs>
  <title>S Unlink 18 N</title>
  <rect id="Canvas" fill="#ff13dc" opacity="0" width="18" height="18"/><polygon class="fill" points="5.568 4.761 4.82 5.482 2.156 2.862 2.904 2.142 5.568 4.761"/>
  <polygon class="fill" points="15.901 15.139 15.153 15.858 12.503 13.191 13.25 12.472 15.901 15.139"/>
  <rect class="fill" height="2.3145" width="1.157" x="5.5285" y="0.9"/>
  <rect class="fill" height="1.157" width="2.3145" x="0.9" y="5.5285"/>
  <rect class="fill" height="1.157" width="2.3145" x="14.7855" y="11.3145"/>
  <rect class="fill" height="2.3145" width="1.157" x="11.3145" y="14.7855"/>
  <path class="fill" d="M9.0265,11.854l-2.92,2.939a2.05061,2.05061,0,0,1-2.9-2.9l2.929-2.9295L5.05,7.877,2.1195,10.806A3.588,3.588,0,1,0,7.194,15.88l2.9205-2.937Z"/>
  <path class="fill" d="M8.956,6.128l2.905-2.8885a2.05061,2.05061,0,1,1,2.9,2.9c-.258.258-1.928,1.9275-2.8965,2.8965L12.95,10.123l2.9-2.8965A3.58963,3.58963,0,0,0,10.7735,2.15C10.656,2.2675,9.153,3.7635,7.87,5.04Z"/>
</svg>