<svg xmlns:xlink="http://www.w3.org/1999/xlink" xmlns="http://www.w3.org/2000/svg" height="18" viewBox="0 0 18 18" width="18">
  <defs>
    <style>
      .fill {
        fill: #464646;
      }
    </style>
  </defs>
  <title>S UploadToCloudOutline 18 N</title>
  <rect id="Canvas" fill="#ff13dc" opacity="0" width="18" height="18"/><path class="fill" d="M14.643,4.7355a4.3935,4.3935,0,0,0-8.5095-1.521,3.861,3.861,0,0,0-3.8445,3.7A2.612,2.612,0,0,0,.5165,9.6865,2.673,2.673,0,0,0,3.205,12H5.75A.25.25,0,0,0,6,11.75v-.5A.25.25,0,0,0,5.75,11H3.2A1.668,1.668,0,0,1,1.5045,9.4795,1.607,1.607,0,0,1,3.02214,7.78786q.0434-.00235.08686-.00236h.1795v-.714a2.85951,2.85951,0,0,1,3.6-2.7595,3.3935,3.3935,0,1,1,6.634,1.35,2.6785,2.6785,0,1,1,.3,5.34H12.25a.25.25,0,0,0-.25.25v.5a.25.25,0,0,0,.25.25H13.7A3.7585,3.7585,0,0,0,17.4735,8.76,3.684,3.684,0,0,0,14.643,4.7355Z"/>
  <path class="fill" d="M6.75,9H8v7.5a.5.5,0,0,0,.5.5h1a.5.5,0,0,0,.5-.5V9h1.25a.25.25,0,0,0,.25-.25.24453.24453,0,0,0-.0585-.1585L9.182,6.08a.25.25,0,0,0-.3534-.01061L8.818,6.08,6.5585,8.59A.24453.24453,0,0,0,6.5,8.75.25.25,0,0,0,6.75,9Z"/>
</svg>