<svg xmlns:xlink="http://www.w3.org/1999/xlink" xmlns="http://www.w3.org/2000/svg" height="18" viewBox="0 0 18 18" width="18">
  <defs>
    <style>
      .fill {
        fill: #464646;
      }
    </style>
  </defs>
  <title>S USA 18 N</title>
  <rect id="Canvas" fill="#ff13dc" opacity="0" width="18" height="18"/><path class="fill" d="M5.3795,12.2685c.0775-.6145.9355.3645.9725.3925.226.1675.4.5105.68.6055.133.045.282-.269.336-.244.479.2225,1.0475,1.4115,1.5055,1.5095.4035.086.7175-1.3815,1.5675-1.5865.3135-.0755,1.5905.3235,1.7065.163.011-.015-.403-.323-.1435-.444.0225-.011.678-.32.456-.32.458,0,2.578.48,2.1545.9225a2.03153,2.03153,0,0,0,.788.9795c-.0905.045-.044.183-.021.27.977-.6065-.6675-1.9955-.5825-2.7625.0335-.3,1.3355-2.0845,1.4965-1.9655-.105.0035.0675-.177.0605-.35-.04-.0685-1.032-1.5265-.505-1.5265-.107.184.272.964.2665.9625a5.03829,5.03829,0,0,1,.108-.792c.2835,0,.0565-.6695.0965-.7345.1-.1635.36-.385.4795-.567s.6425-.2895.243-.714c-.295-.313.0045-.3775.1615-.7105.0775-.1645.522-.345.4915-.671.006.0635-.6945-.7535-.6-.7345-.9725-.19-.203.422-.4945.792a7.19068,7.19068,0,0,1-1.3,1.19c-.086.0665-1.9065,2.09-1.983,1.6465.0065.038.2535-1.242-.1375-1.006l-.172.256c-.194,0,.227-.5805-.09-.684-.714-.2335-.261.2795-.535.2795-.6135-.1.292,1.04-.194,1.343-.57.225-.1425-1.4135-.2355-1.5195a1.29141,1.29141,0,0,1-.2875.419c-.409-.6175,1.041-.6855,1.1285-.807-.0325-.0285-.454-.31-.4-.286.0215.01-.9435.165-1,.1865a.36151.36151,0,0,0,.172-.32c-.3605-.16-.5235.5195-.75.32a4.03405,4.03405,0,0,1-.474.172c0-.126.705-.5755.6735-.6235a7.68152,7.68152,0,0,1-1.5695-.4A15.74543,15.74543,0,0,1,2.0315,4.166c-.1605.144.2225.4-.015.5375a4.47057,4.47057,0,0,1-.5-.4235,20.18121,20.18121,0,0,0-.573,2.6815c-.017.073-.5575,2.097.0325,1.734a1.6465,1.6465,0,0,0,.0175.2725A.40443.40443,0,0,0,.872,8.8495c-.669.472,1.082,2.1405,1.4,2.3335.284.174,3.083,1.303,3.111,1.0855C5.412,12.011,5.3735,12.3145,5.3795,12.2685Z"/>
</svg>