<svg xmlns:xlink="http://www.w3.org/1999/xlink" xmlns="http://www.w3.org/2000/svg" height="18" viewBox="0 0 18 18" width="18">
  <defs>
    <style>
      .fill {
        fill: #464646;
      }
    </style>
  </defs>
  <title>S UserLock 18 N</title>
  <rect id="Canvas" fill="#ff13dc" opacity="0" width="18" height="18"/><path class="fill" d="M7,12.5065a1.3685,1.3685,0,0,1,.9165-1.43,4.00559,4.00559,0,0,1,1.554-2.982A5.471,5.471,0,0,0,10.94,4.2265c0-2.6-1.378-4.05-3.4595-4.05s-3.5,1.509-3.5,4.05a5.56049,5.56049,0,0,0,1.311,3.433.72153.72153,0,0,1,.1835.465v1.037a.71551.71551,0,0,1-.625.722C.669,10.25.0155,13.1085.0155,14.237.0155,14.3625,0,15,0,15H7Z"/>
  <path class="fill" d="M16.4935,12.0065l-.5.019v-.359A3.6025,3.6025,0,0,0,12.71,8.005a3.47,3.47,0,0,0-3.65148,3.27848q-.005.09318-.005.18652v.5555l-.547-.0195a.5.5,0,0,0-.506.494l0,.006V17.5a.5.5,0,0,0,.5.5H16.5a.5.5,0,0,0,.5-.5V12.5065a.5.5,0,0,0-.5-.5ZM10.441,11.47a2.082,2.082,0,0,1,4.164-.00187v.55737H10.441Zm2.776,4.241v.964a.347.347,0,0,1-.347.347h-.694a.347.347,0,0,1-.347-.347v-.964a1.04093,1.04093,0,1,1,1.388,0Z"/>
</svg>