<svg xmlns:xlink="http://www.w3.org/1999/xlink" xmlns="http://www.w3.org/2000/svg" height="18" viewBox="0 0 18 18" width="18">
  <defs>
    <style>
      .fill {
        fill: #464646;
      }
    </style>
  </defs>
  <title>S UserAdmin 18 N</title>
  <rect id="Canvas" fill="#ff13dc" opacity="0" width="18" height="18"/><path class="fill" d="M6.81,12.96a6.14351,6.14351,0,0,1,2.7135-5.1.74.74,0,0,1,.1655-.3765A5.38739,5.38739,0,0,0,10.67,5.644a4.95286,4.95286,0,0,0,.2885-1.573A5.396,5.396,0,0,0,10.7,2.357,3.179,3.179,0,0,0,7.4805,0a3.4,3.4,0,0,0-2.025.6145,3.016,3.016,0,0,0-.65.665A4.51053,4.51053,0,0,0,3.9815,4.05a4.727,4.727,0,0,0,.138,1.0665A5.4875,5.4875,0,0,0,5.25,7.5035a.72153.72153,0,0,1,.1835.465c.0155.4185.0415.733.0415,1.016a.71551.71551,0,0,1-.625.722C.667,10.0705.0135,12.9315.0135,14.06c0,.1255.024.763.024.763H7.1A6.14223,6.14223,0,0,1,6.81,12.96Z"/>
  <path class="fill" d="M17.615,12.2705H16.4075a3.49006,3.49006,0,0,0-.51-1.238l.86-.86a.345.345,0,0,0,0-.4875l-.5225-.5225a.345.345,0,0,0-.4875,0l-.86.86a3.49135,3.49135,0,0,0-1.2375-.51V8.305a.345.345,0,0,0-.345-.345h-.69a.345.345,0,0,0-.345.345V9.5125a3.49154,3.49154,0,0,0-1.2375.51l-.86-.86a.345.345,0,0,0-.4875,0l-.5225.5225a.345.345,0,0,0,0,.4875l.86.86a3.49006,3.49006,0,0,0-.51,1.238H8.305a.345.345,0,0,0-.345.345v.6895a.345.345,0,0,0,.345.345H9.5125a3.49006,3.49006,0,0,0,.51,1.238l-.86.86a.34451.34451,0,0,0-.0003.4872l.0003.0003.5225.5225a.345.345,0,0,0,.4875,0l.86-.86a3.49135,3.49135,0,0,0,1.2375.51v1.207a.345.345,0,0,0,.345.345h.69a.345.345,0,0,0,.345-.345V16.4075a3.49154,3.49154,0,0,0,1.2375-.51l.86.86a.345.345,0,0,0,.4875,0l.5225-.5225a.3445.3445,0,0,0,.0003-.4872l-.0003-.0003-.86-.86a3.49,3.49,0,0,0,.51-1.238H17.615a.345.345,0,0,0,.345-.345V12.615A.345.345,0,0,0,17.615,12.2705Zm-4.655,2.487a1.79975,1.79975,0,1,1,1.8-1.7995A1.79958,1.79958,0,0,1,12.96,14.7575Z"/>
</svg>