<svg xmlns:xlink="http://www.w3.org/1999/xlink" xmlns="http://www.w3.org/2000/svg" height="18" viewBox="0 0 18 18" width="18">
  <defs>
    <style>
      .fill {
        fill: #464646;
      }
    </style>
  </defs>
  <title>S UserArrow 18 N</title>
  <rect id="Canvas" fill="#ff13dc" opacity="0" width="18" height="18"/><path class="fill" d="M5.437,9.811A.25.25,0,0,0,5,9.977V12H1.5a.5.5,0,0,0-.5.5v2a.5.5,0,0,0,.5.5H5v1.909a.25.25,0,0,0,.437.166L9,13.5Z"/>
  <path class="fill" d="M13.1275,9.8875a.719.719,0,0,1-.622-.7215V8.1245a.72049.72049,0,0,1,.1835-.465,5.5,5.5,0,0,0,1.25-3.433c0-2.6-1.378-4.05-3.4595-4.05s-3.5,1.509-3.5,4.05A5.562,5.562,0,0,0,8.302,7.673a.694.694,0,0,1,.172.45V9.186a.7.7,0,0,1-.684.697L11.2845,13.5,9.7895,15H17.968c.003-.3655.0055-.7085.0055-.763C17.9735,13.1555,17.2345,10.3045,13.1275,9.8875Z"/>
</svg>