<svg xmlns:xlink="http://www.w3.org/1999/xlink" xmlns="http://www.w3.org/2000/svg" height="18" viewBox="0 0 18 18" width="18">
  <defs>
    <style>
      .fill {
        fill: #464646;
      }
    </style>
  </defs>
  <title>S UserActivity 18 N</title>
  <rect id="Canvas" fill="#ff13dc" opacity="0" width="18" height="18"/><path class="fill" d="M10,1h.043a.5.5,0,0,1,.3535.1465l4.457,4.457A.5.5,0,0,1,15,5.957V6H10Z"/>
  <path class="fill" d="M9.5,7A.5.5,0,0,1,9,6.5V1H3.5a.5.5,0,0,0-.5.5v15a.5.5,0,0,0,.5.5h11a.5.5,0,0,0,.5-.5V7Zm3.493,9H5.013C5.008,15.9395,5,15.7,5,15.6365c0-.5525.35-1.954,2.5865-2.1325a.36151.36151,0,0,0,.334-.3535v-.508a.33649.33649,0,0,0-.1-.2275A3.17245,3.17245,0,0,1,6.9,10.625,2.1795,2.1795,0,0,1,8.9925,8.4,2.1735,2.1735,0,0,1,11.1,10.625a3.179,3.179,0,0,1-.9265,1.79.339.339,0,0,0-.1.2275v.5105a.363.363,0,0,0,.333.353c2.1965.2045,2.5915,1.6,2.5915,2.1305C13,15.7,12.993,16,12.993,16Z"/>
</svg>