<svg xmlns:xlink="http://www.w3.org/1999/xlink" xmlns="http://www.w3.org/2000/svg" height="18" viewBox="0 0 18 18" width="18">
  <defs>
    <style>
      .fill {
        fill: #464646;
      }
    </style>
  </defs>
  <title>S UsersAdd 18 N</title>
  <rect id="Canvas" fill="#ff13dc" opacity="0" width="18" height="18"/><path class="fill" d="M7.35,13.5c0-2.8245,1.4795-3.8195,2.323-4.8195a5.5,5.5,0,0,0,1.25-3.433c0-2.6-1.378-4.05-3.4595-4.05s-3.5,1.509-3.5,4.05A5.56044,5.56044,0,0,0,5.2745,8.68a.71947.71947,0,0,1,.1835.465v1.037a.71549.71549,0,0,1-.624.722C.6535,11.2685,0,14.1295,0,15.258,0,15.383.0145,16.8765.024,17H8.4465A6.118,6.118,0,0,1,7.35,13.5Z"/>
  <path class="fill" d="M11.6435,7.6365A6.1412,6.1412,0,0,1,13.5,7.35c.0645,0,.1275.0075.1915.0095A6.362,6.362,0,0,0,14.197,4.974c0-2.177-1.2845-3.776-3.2255-3.776-.116,0-.222.021-.334.031a5.465,5.465,0,0,1,1.487,4.021A6.6,6.6,0,0,1,11.6435,7.6365Z"/>
  <path class="fill" d="M13.5,9.05a4.45,4.45,0,1,0,4.45,4.45A4.45,4.45,0,0,0,13.5,9.05Zm2.5,4.7a.25.25,0,0,1-.25.25H14v1.75a.25.25,0,0,1-.25.25h-.5a.25.25,0,0,1-.25-.25V14H11.25a.25.25,0,0,1-.25-.25v-.5a.25.25,0,0,1,.25-.25H13V11.25a.25.25,0,0,1,.25-.25h.5a.25.25,0,0,1,.25.25V13h1.75a.25.25,0,0,1,.25.25Z"/>
</svg>