<svg xmlns:xlink="http://www.w3.org/1999/xlink" xmlns="http://www.w3.org/2000/svg" height="18" viewBox="0 0 18 18" width="18">
  <defs>
    <style>
      .fill {
        fill: #464646;
      }
    </style>
  </defs>
  <title>S UserExclude 18 N</title>
  <rect id="Canvas" fill="#ff13dc" opacity="0" width="18" height="18"/><path class="fill" d="M7.35,13.5A6.133,6.133,0,0,1,9.5055,8.829V8.1245a.72049.72049,0,0,1,.1835-.465,5.5,5.5,0,0,0,1.25-3.433c0-2.6-1.378-4.05-3.4595-4.05s-3.5,1.509-3.5,4.05a5.56049,5.56049,0,0,0,1.311,3.433.72153.72153,0,0,1,.1835.465v1.037a.71549.71549,0,0,1-.624.722C.669,10.25.0155,13.1085.0155,14.237c0,.1255.024.742.024.742h7.497A6.144,6.144,0,0,1,7.35,13.5Z"/>
  <path class="fill" d="M13.5,9.05a4.45,4.45,0,1,0,4.45,4.45A4.45,4.45,0,0,0,13.5,9.05ZM10.1,13.5a3.37449,3.37449,0,0,1,.6445-1.9785l4.734,4.734A3.39,3.39,0,0,1,10.1,13.5Zm6.1555,1.9785-4.734-4.734a3.39,3.39,0,0,1,4.734,4.734Z"/>
</svg>