<svg xmlns:xlink="http://www.w3.org/1999/xlink" xmlns="http://www.w3.org/2000/svg" height="18" viewBox="0 0 18 18" width="18">
  <defs>
    <style>
      .fill {
        fill: #464646;
      }
    </style>
  </defs>
  <title>S UsersShare 18 N</title>
  <rect id="Canvas" fill="#ff13dc" opacity="0" width="18" height="18"/><path class="fill" d="M10.2925,10.9195c-.092-.0125-.069-.022-.165-.032a.7185.7185,0,0,1-.622-.7215V9.1245a.72153.72153,0,0,1,.1835-.465,5.5,5.5,0,0,0,1.25-3.433c0-2.6-1.3775-4.05-3.4595-4.05s-3.5,1.509-3.5,4.05A5.56,5.56,0,0,0,5.2905,8.659a.72153.72153,0,0,1,.1835.465v1.037a.71549.71549,0,0,1-.624.7225C.667,11.2475.0135,14.1085.0135,15.237c0,.1255.0145,1.6185.024,1.742H6.514A6.667,6.667,0,0,1,10.2925,10.9195Z"/>
  <path class="fill" d="M10.7055,9.3125V9.75a8.06552,8.06552,0,0,1,1.7035.4435c.2-.0405.4025-.083.6175-.108V9.439a1.27592,1.27592,0,0,1,.0805-.397V8.5875a.76649.76649,0,0,1,.171-.4335,6.0735,6.0735,0,0,0,.9345-3.2c0-2.177-1.285-3.776-3.226-3.776-.116,0-.2225.021-.334.031A5.465,5.465,0,0,1,12.14,5.2275,6.73,6.73,0,0,1,10.7055,9.3125Z"/>
  <path class="fill" d="M14.0265,11.0295V9.439a.318.318,0,0,1,.543-.225L18,12.9385,14.57,16.663a.318.318,0,0,1-.543-.225V14.8235a5.84349,5.84349,0,0,0-5.958,2.316.225.225,0,0,1-.4055-.13C7.663,16.05,8.759,11.0295,14.0265,11.0295Z"/>
</svg>