<svg xmlns:xlink="http://www.w3.org/1999/xlink" xmlns="http://www.w3.org/2000/svg" height="18" viewBox="0 0 18 18" width="18">
  <defs>
    <style>
      .fill {
        fill: #464646;
      }
    </style>
  </defs>
  <title>S UsersLock 18 N</title>
  <rect id="Canvas" fill="#ff13dc" opacity="0" width="18" height="18"/><path class="fill" d="M11.8415,7.065a3.9431,3.9431,0,0,1,.9215-.059,4.82,4.82,0,0,1,.99.184,6.30946,6.30946,0,0,0,.443-2.2165c0-2.305-1.44-3.9615-3.574-3.759a5.457,5.457,0,0,1,1.5,4.033A6.31156,6.31156,0,0,1,11.8415,7.065Z"/>
  <path class="fill" d="M7,12.5065A1.50251,1.50251,0,0,1,8.0705,11.069a4.46451,4.46451,0,0,1,2.287-3.4905,5.454,5.454,0,0,0,.567-2.3285c0-2.6-1.378-4.05-3.4595-4.05s-3.5,1.509-3.5,4.05A5.56056,5.56056,0,0,0,5.276,8.6825a.71947.71947,0,0,1,.1835.465v1.037a.71549.71549,0,0,1-.624.722C.6535,11.2685,0,14.1295,0,15.258,0,15.383.0145,16.8765.024,17H7Z"/>
  <path class="fill" d="M16.5,12h-.4775v-.504a3.5,3.5,0,0,0-7,0V12H8.5a.5.5,0,0,0-.5.5v5a.5.5,0,0,0,.5.5h8a.5.5,0,0,0,.5-.5v-5A.5.5,0,0,0,16.5,12Zm-3.283,3.711v.964a.347.347,0,0,1-.347.347h-.694a.347.347,0,0,1-.347-.347v-.964a1.04093,1.04093,0,1,1,1.388,0ZM14.7725,12h-4.5v-.504a2.25,2.25,0,0,1,4.5,0Z"/>
</svg>