<svg xmlns:xlink="http://www.w3.org/1999/xlink" xmlns="http://www.w3.org/2000/svg" height="18" viewBox="0 0 18 18" width="18">
  <defs>
    <style>
      .fill {
        fill: #464646;
      }
    </style>
  </defs>
  <title>S UserEdit 18 N</title>
  <rect id="Canvas" fill="#ff13dc" opacity="0" width="18" height="18"/><path class="fill" d="M17.8155,10.94l-1.753-1.753a.36947.36947,0,0,0-.2635-.1075h-.0115a.417.417,0,0,0-.282.1235l-5.411,5.4115a.30352.30352,0,0,0-.0765.128l-1.0135,3c-.0345.1145.1395.2585.238.2585a.15858.15858,0,0,0,.0185,0c.084-.0195,2.5615-.882,3-1.014a.3.3,0,0,0,.126-.0755L17.8,11.497a.41806.41806,0,0,0,.123-.2685A.37148.37148,0,0,0,17.8155,10.94Zm-5.8,5.4815c-.657.1975-1.65.6145-2.2155.784l.78-2.2155Z"/>
  <path class="fill" d="M8.8875,13.811a1.91747,1.91747,0,0,1,.4455-.7l2.8825-2.882a6.96711,6.96711,0,0,0-2.1275-.5.71549.71549,0,0,1-.624-.722c0-.3605.0215-.508.042-1.058a.72048.72048,0,0,1,.183-.465,5.38747,5.38747,0,0,0,.981-1.839,4.954,4.954,0,0,0,.2885-1.573A5.39587,5.39587,0,0,0,10.7,2.357,3.179,3.179,0,0,0,7.4805,0a3.4,3.4,0,0,0-2.025.6145,3.01559,3.01559,0,0,0-.65.665A4.511,4.511,0,0,0,3.9815,4.05a4.72355,4.72355,0,0,0,.138,1.0665A5.48551,5.48551,0,0,0,5.25,7.5035a.72194.72194,0,0,1,.1835.465c.0155.4185.0415.733.0415,1.016a.71551.71551,0,0,1-.625.722C.667,10.0705.0135,12.9315.0135,14.06c0,.1255.024.763.024.763H8.482Z"/>
</svg>