<svg xmlns:xlink="http://www.w3.org/1999/xlink" xmlns="http://www.w3.org/2000/svg" height="18" viewBox="0 0 18 18" width="18">
  <defs>
    <style>
      .fill {
        fill: #464646;
      }
    </style>
  </defs>
  <title>S UserAdd 18 N</title>
  <rect id="Canvas" fill="#ff13dc" opacity="0" width="18" height="18"/><path class="fill" d="M8,13.5a5.50649,5.50649,0,0,1,2.8805-4.835,6.7065,6.7065,0,0,0,.8635-3.144C11.744,2.8085,10.2,1,7.978,1S4.212,2.8085,4.212,5.521A7.51507,7.51507,0,0,0,5.978,10c0,.826-.013,1.4885-.8365,1.56C4.0155,11.658.333,12.8815,0,16.4735a.49649.49649,0,0,0,.46557.52561Q.48276,17.00016.5,17H9.261A5.472,5.472,0,0,1,8,13.5Z"/>
  <path class="fill" d="M13.5,9A4.5,4.5,0,1,0,18,13.5,4.5,4.5,0,0,0,13.5,9Zm2.45,5.25h-1.7v1.7a.25.25,0,0,1-.25.25H13a.25.25,0,0,1-.25-.25v-1.7h-1.7A.25.25,0,0,1,10.8,14V13a.25.25,0,0,1,.25-.25h1.7v-1.7A.25.25,0,0,1,13,10.8h1a.25.25,0,0,1,.25.25v1.7h1.7a.25.25,0,0,1,.25.25v1A.25.25,0,0,1,15.95,14.25Z"/>
</svg>