<svg xmlns:xlink="http://www.w3.org/1999/xlink" xmlns="http://www.w3.org/2000/svg" height="18" viewBox="0 0 18 18" width="18">
  <defs>
    <style>
      .fill {
        fill: #464646;
      }
    </style>
  </defs>
  <title>S UserShare 18 N</title>
  <rect id="Canvas" fill="#ff13dc" opacity="0" width="18" height="18"/><path class="fill" d="M9.4035,8.621l.1-.1135v-.383a.72049.72049,0,0,1,.1835-.465,5.5,5.5,0,0,0,1.25-3.433c0-2.6-1.378-4.05-3.4595-4.05s-3.5,1.509-3.5,4.05a5.56049,5.56049,0,0,0,1.311,3.433.72153.72153,0,0,1,.1835.465v1.037a.71549.71549,0,0,1-.622.722C.669,10.25.0155,13.1085.0155,14.237c0,.1255.024.742.024.742H7V11a1,1,0,0,1,1-1h.985A1.97012,1.97012,0,0,1,9.4035,8.621Z"/>
  <path class="fill" d="M15.861,9.1655,13,6,10.146,9.1655A.5.5,0,0,0,10.5175,10H12v3.75a.25.25,0,0,0,.25.25h1.5a.25.25,0,0,0,.25-.25V10h1.4895a.5.5,0,0,0,.3715-.8345Z"/>
  <path class="fill" d="M16,11v5H10V11H8.5a.5.5,0,0,0-.5.5v6a.5.5,0,0,0,.5.5h9a.5.5,0,0,0,.5-.5v-6a.5.5,0,0,0-.5-.5Z"/>
</svg>