<svg xmlns:xlink="http://www.w3.org/1999/xlink" xmlns="http://www.w3.org/2000/svg" height="18" viewBox="0 0 18 18" width="18">
  <defs>
    <style>
      .fill {
        fill: #464646;
      }
    </style>
  </defs>
  <title>S Variable 18 N</title>
  <rect id="Canvas" fill="#ff13dc" opacity="0" width="18" height="18"/><path class="fill" d="M5.4545,5.346c-.0465-.0615-.03-.139.0775-.139H7.3775c.108,0,.139.0165.1855.1075L9.024,7.977h.031l1.5385-2.6925c.0465-.0775.0615-.0775.139-.0775h1.63c.093,0,.124.0465.078.124-.539.8605-1.724,2.754-2.324,3.6.6615,1.031,1.939,2.954,2.478,3.7395.0615.0615.03.123-.078.123H10.625a.223.223,0,0,1-.2-.123L8.8865,9.9935h-.015L7.286,12.7c-.031.061-.0625.0925-.169.0925H5.4695a.0865.0865,0,0,1-.0765-.139c.6465-.9685,1.7075-2.661,2.369-3.631Zm-.885,10.5125a.4955.4955,0,0,0,.1185-.6795A11.22355,11.22355,0,0,1,2.7885,9a11.22254,11.22254,0,0,1,1.9-6.179.4955.4955,0,0,0-.119-.6795l-.6115-.436a.5075.5075,0,0,0-.708.11787L3.244,1.832A12.968,12.968,0,0,0,1.0385,9,12.97094,12.97094,0,0,0,3.244,16.1685a.507.507,0,0,0,.70454.13311L3.958,16.295Zm9.4725.4365a.507.507,0,0,0,.70739-.117l.00661-.00946A12.97094,12.97094,0,0,0,16.9615,9,12.968,12.968,0,0,0,14.756,1.832a.5075.5075,0,0,0-.70537-.13253l-.00863.006-.611.436a.4955.4955,0,0,0-.119.6795A11.22248,11.22248,0,0,1,15.2115,9a11.22345,11.22345,0,0,1-1.9,6.179.4955.4955,0,0,0,.1185.6795Z"/>
</svg>