<svg xmlns:xlink="http://www.w3.org/1999/xlink" xmlns="http://www.w3.org/2000/svg" height="18" viewBox="0 0 18 18" width="18">
  <defs>
    <style>
      .fill {
        fill: #464646;
      }
    </style>
  </defs>
  <title>S VectorDraw 18 N</title>
  <rect id="Canvas" fill="#ff13dc" opacity="0" width="18" height="18"/><path class="fill" d="M16.567,5.63,12.359,1.423a.534.534,0,0,0-.755,0L9.7455,3.281a.526.526,0,0,0-.0735.6445l4.21,4.21.004-.0085.093.0915a.533.533,0,0,0,.75378.00072l.00072-.00072,1.8335-1.833a.534.534,0,0,0-.00072-.75459Z"/>
  <path class="fill" d="M8.731,4.6915,4.7925,6.5055a1,1,0,0,0-.5055.5255L.9895,14.9865a.5.5,0,0,0,.108.545l.2615.2615,4.078-4.0785a.80975.80975,0,0,1-.0185-.127,1,1,0,1,1,1,1,.84221.84221,0,0,1-.138-.02L2.207,16.6415l.296.296a.5.5,0,0,0,.545.1085l7.9565-3.3a1,1,0,0,0,.525-.5055l1.814-3.938Z"/>
</svg>