<svg xmlns:xlink="http://www.w3.org/1999/xlink" xmlns="http://www.w3.org/2000/svg" height="18" viewBox="0 0 18 18" width="18">
  <defs>
    <style>
      .fill {
        fill: #464646;
      }
    </style>
  </defs>
  <title>S VideoCheckedOut 18 N</title>
  <rect id="Canvas" fill="#ff13dc" opacity="0" width="18" height="18"/><path class="fill" d="M7.75,13.5A5.7354,5.7354,0,0,1,9.92663,9.00006H6.25a.25.25,0,0,1-.25-.25v-.5a.25.25,0,0,1,.25-.25h5.5c.01153,0,.01843.01075.0296.01227A5.72452,5.72452,0,0,1,13,7.77521V6.603a.25.25,0,0,1,.25-.25h1.5a.25.25,0,0,1,.25.25V7.95453A5.69467,5.69467,0,0,1,16,8.328V2.50006a.5.5,0,0,0-.5-.5H2.5a.5.5,0,0,0-.5.5v13a.5.5,0,0,0,.5.5H8.328A5.71628,5.71628,0,0,1,7.75,13.5ZM13,3.25006a.25.25,0,0,1,.25-.25h1.5a.25.25,0,0,1,.25.25v1.5a.25.25,0,0,1-.25.25h-1.5a.25.25,0,0,1-.25-.25Zm-8,11.5a.25.25,0,0,1-.25.25H3.25a.25.25,0,0,1-.25-.25v-1.5a.25.25,0,0,1,.25-.25h1.5a.25.25,0,0,1,.25.25Zm0-3.353a.24994.24994,0,0,1-.24988.25H3.25A.24994.24994,0,0,1,3,11.39718V9.89706a.25009.25009,0,0,1,.25-.25h1.5a.25009.25009,0,0,1,.25.25ZM5,8.103a.25.25,0,0,1-.25.25H3.25A.25.25,0,0,1,3,8.103v-1.5a.25.25,0,0,1,.25-.25h1.5a.25.25,0,0,1,.25.25ZM5,4.75008a.25.25,0,0,1-.25.25H3.25a.25.25,0,0,1-.25-.25v-1.5a.25.25,0,0,1,.25-.25h1.5a.25.25,0,0,1,.25.25Z"/>
  <path class="fill" d="M13.5,9A4.5,4.5,0,1,0,18,13.5,4.5,4.5,0,0,0,13.5,9ZM16,14.4071a.25.25,0,0,1-.42676.17676L14.525,13.53564l-2.31794,2.31793a.25.25,0,0,1-.3535,0l-.70715-.70714a.25.25,0,0,1,0-.35351L13.46436,12.475l-1.04828-1.04821A.25.25,0,0,1,12.59289,11h3.26386A.14327.14327,0,0,1,16,11.14325Z"/>
</svg>