<svg xmlns:xlink="http://www.w3.org/1999/xlink" xmlns="http://www.w3.org/2000/svg" height="18" viewBox="0 0 18 18" width="18">
  <defs>
    <style>
      .fill {
        fill: #464646;
      }
    </style>
  </defs>
  <title>S VideoFilled 18 N</title>
  <rect id="Canvas" fill="#ff13dc" opacity="0" width="18" height="18"/><path class="fill" d="M2,2.5v13a.5.5,0,0,0,.5.5h13a.5.5,0,0,0,.5-.5V2.5a.5.5,0,0,0-.5-.5H2.5A.5.5,0,0,0,2,2.5ZM5,14.75a.25.25,0,0,1-.25.25H3.25A.25.25,0,0,1,3,14.75v-1.5A.25.25,0,0,1,3.25,13h1.5a.25.25,0,0,1,.25.25Zm0-3.353a.25.25,0,0,1-.25.25H3.25a.25.25,0,0,1-.25-.25v-1.5a.25.25,0,0,1,.25-.25h1.5a.25.25,0,0,1,.25.25ZM5,8.103a.25.25,0,0,1-.25.25H3.25A.25.25,0,0,1,3,8.103v-1.5a.25.25,0,0,1,.25-.25h1.5a.25.25,0,0,1,.25.25ZM5,4.75A.25.25,0,0,1,4.75,5H3.25A.25.25,0,0,1,3,4.75V3.25A.25.25,0,0,1,3.25,3h1.5A.25.25,0,0,1,5,3.25ZM11.75,9H6.25A.25.25,0,0,1,6,8.75v-.5A.25.25,0,0,1,6.25,8h5.5a.25.25,0,0,1,.25.25v.5A.25.25,0,0,1,11.75,9ZM15,14.75a.25.25,0,0,1-.25.25h-1.5a.25.25,0,0,1-.25-.25v-1.5a.25.25,0,0,1,.25-.25h1.5a.25.25,0,0,1,.25.25Zm0-3.353a.25.25,0,0,1-.25.25h-1.5a.25.25,0,0,1-.25-.25v-1.5a.25.25,0,0,1,.25-.25h1.5a.25.25,0,0,1,.25.25Zm0-3.294a.25.25,0,0,1-.25.25h-1.5a.25.25,0,0,1-.25-.25v-1.5a.25.25,0,0,1,.25-.25h1.5a.25.25,0,0,1,.25.25ZM15,4.75a.25.25,0,0,1-.25.25h-1.5A.25.25,0,0,1,13,4.75V3.25A.25.25,0,0,1,13.25,3h1.5a.25.25,0,0,1,.25.25Z"/>
</svg>