<svg xmlns:xlink="http://www.w3.org/1999/xlink" xmlns="http://www.w3.org/2000/svg" height="18" viewBox="0 0 18 18" width="18">
  <defs>
    <style>
      .fill {
        fill: #464646;
      }
    </style>
  </defs>
  <title>S ViewedMarkAs 18 N</title>
  <rect id="Canvas" fill="#ff13dc" opacity="0" width="18" height="18"/><path class="fill" d="M11.397,7.777A2.5,2.5,0,0,0,11.5315,7a2.34554,2.34554,0,0,0-.0875-.6,1.31151,1.31151,0,0,1-1.1105.6395A1.3335,1.3335,0,0,1,9,5.7085,1.31549,1.31549,0,0,1,9.675,4.574,2.45787,2.45787,0,0,0,9,4.469a2.526,2.526,0,0,0-.136,5.05A6.15,6.15,0,0,1,11.397,7.777Z"/>
  <path class="fill" d="M7.7385,11.4155A4.6035,4.6035,0,1,1,13.6125,7c0,.138-.0285.2685-.0405.4035a6.11346,6.11346,0,0,1,2.947.7915,2.18248,2.18248,0,0,0,.356-1.015c0-1.182-2.107-3.6705-4.5685-4.89A7.48908,7.48908,0,0,0,9,1.4685c-4.332,0-7.875,4.3125-7.875,5.712,0,1.313,2.8645,4.434,6.3415,5.186A6.08806,6.08806,0,0,1,7.7385,11.4155Z"/>
  <path class="fill" d="M13.5,9.05a4.45,4.45,0,1,0,4.45,4.45A4.45,4.45,0,0,0,13.5,9.05Zm-1.169,7.156-2.064-2.064a.25.25,0,0,1,0-.3535l.518-.518a.25.25,0,0,1,.3535,0L12.504,14.636l3.053-3.053a.25.25,0,0,1,.3535,0l.5215.5215a.25.25,0,0,1,0,.3535l-3.75,3.75A.25.25,0,0,1,12.331,16.206Z"/>
</svg>