<svg xmlns:xlink="http://www.w3.org/1999/xlink" xmlns="http://www.w3.org/2000/svg" height="18" viewBox="0 0 18 18" width="18">
  <defs>
    <style>
      .fill {
        fill: #464646;
      }
    </style>
  </defs>
  <title>S ViewDay 18 N</title>
  <rect id="Canvas" fill="#ff13dc" opacity="0" width="18" height="18"/><path class="fill" d="M9.166,14c-.108,0-.144-.038-.144-.132V9.393a6.88288,6.88288,0,0,1-1.8545.6625c-.108.0185-.144,0-.144-.1135v-1.6c0-.094.018-.1315.108-.15A8.4769,8.4769,0,0,0,9.6,7.0755.45651.45651,0,0,1,9.87,7H10.9c.0715,0,.09.038.09.132v6.736c0,.094-.0365.132-.108.132Z"/>
  <path class="fill" d="M17.5,3H15V1.5a.5.5,0,0,0-.5-.5h-1a.5.5,0,0,0-.5.5V3H6V1.5A.5.5,0,0,0,5.5,1h-1a.5.5,0,0,0-.5.5V3H1.5a.5.5,0,0,0-.5.5v13a.5.5,0,0,0,.5.5h16a.5.5,0,0,0,.5-.5V3.5A.5.5,0,0,0,17.5,3ZM17,16H2V4H4v.5a.5.5,0,0,0,.5.5h1A.5.5,0,0,0,6,4.5V4h7v.5a.5.5,0,0,0,.5.5h1a.5.5,0,0,0,.5-.5V4h2Z"/>
</svg>