<svg xmlns:xlink="http://www.w3.org/1999/xlink" xmlns="http://www.w3.org/2000/svg" height="18" viewBox="0 0 18 18" width="18">
  <defs>
    <style>
      .fill {
        fill: #464646;
      }
    </style>
  </defs>
  <title>S ViewGrid 18 N</title>
  <rect id="Canvas" fill="#ff13dc" opacity="0" width="18" height="18"/><path class="fill" d="M5,5H1V1.5A.5.5,0,0,1,1.5,1H5Z"/>
  <rect class="fill" height="4" width="4" x="7" y="1"/>
  <path class="fill" d="M17,5H13V1h3.5a.5.5,0,0,1,.5.5Z"/>
  <rect class="fill" height="4" width="4" x="1" y="7"/>
  <rect class="fill" height="4" width="4" x="7" y="7"/>
  <rect class="fill" height="4" width="4" x="13" y="7"/>
  <path class="fill" d="M5,17H1.5a.5.5,0,0,1-.5-.5V13H5Z"/>
  <rect class="fill" height="4" width="4" x="7" y="13"/>
  <path class="fill" d="M16.5,17H13V13h4v3.5A.5.5,0,0,1,16.5,17Z"/>
</svg>