<svg xmlns:xlink="http://www.w3.org/1999/xlink" xmlns="http://www.w3.org/2000/svg" height="18" viewBox="0 0 18 18" width="18">
  <defs>
    <style>
      .fill {
        fill: #464646;
      }
    </style>
  </defs>
  <title>S Vignette 18 N</title>
  <rect id="Canvas" fill="#ff13dc" opacity="0" width="18" height="18"/><path class="fill" d="M15.5,2H2.5a.5.5,0,0,0-.5.5v13a.5.5,0,0,0,.5.5h13a.5.5,0,0,0,.5-.5V2.5A.5.5,0,0,0,15.5,2ZM15,15H3V3H15Z"/>
  <path class="fill" d="M14,7.816V4H10.184A5.14151,5.14151,0,0,1,14,7.816Z"/>
  <path class="fill" d="M7.816,4H4V7.816A5.14151,5.14151,0,0,1,7.816,4Z"/>
  <path class="fill" d="M4,10.184V14H7.816A5.14151,5.14151,0,0,1,4,10.184Z"/>
  <path class="fill" d="M10.184,14H14V10.184A5.14151,5.14151,0,0,1,10.184,14Z"/>
</svg>