<svg xmlns:xlink="http://www.w3.org/1999/xlink" xmlns="http://www.w3.org/2000/svg" height="18" viewBox="0 0 18 18" width="18">
  <defs>
    <style>
      .fill {
        fill: #464646;
      }
    </style>
  </defs>
  <title>S VisibilityOff 18 N</title>
  <rect id="Canvas" fill="#ff13dc" opacity="0" width="18" height="18"/><path class="fill" d="M7.2865,4.72A4.6075,4.6075,0,0,1,13.28,10.7135l1.4725,1.4725C16.05,11.0915,16.875,9.88,16.875,9.18c0-1.182-2.107-3.6705-4.5685-4.89A7.48591,7.48591,0,0,0,9,3.4685a7.18,7.18,0,0,0-2.4945.4705Z"/>
  <path class="fill" d="M16.897,16.029l-5.733-5.733A2.511,2.511,0,0,0,11.531,9a2.35608,2.35608,0,0,0-.087-.6,1.31249,1.31249,0,0,1-1.1105.639A1.3335,1.3335,0,0,1,9,7.7085a1.316,1.316,0,0,1,.675-1.135A2.47276,2.47276,0,0,0,9,6.469a2.511,2.511,0,0,0-1.296.367L1.971,1.103a.40949.40949,0,0,0-.5785,0l-.289.2895a.4085.4085,0,0,0-.00079.57771L1.1035,1.971l3.173,3.173c-1.908,1.37-3.15,3.209-3.15,4.036,0,1.5,3.729,5.35,7.843,5.35a8.2275,8.2275,0,0,0,3.722-.974l3.3395,3.3395a.40851.40851,0,0,0,.57771.0008l.00079-.0008.289-.289A.409.409,0,0,0,16.897,16.029ZM9,13.6125A4.6,4.6,0,0,1,5.3395,6.207l1.497,1.497A2.50409,2.50409,0,0,0,6.469,9a2.531,2.531,0,0,0,2.5305,2.5315H9a2.50447,2.50447,0,0,0,1.296-.368l1.497,1.497A4.572,4.572,0,0,1,9,13.6125Z"/>
</svg>