<svg xmlns:xlink="http://www.w3.org/1999/xlink" xmlns="http://www.w3.org/2000/svg" height="18" viewBox="0 0 18 18" width="18">
  <defs>
    <style>
      .fill {
        fill: #464646;
      }
    </style>
  </defs>
  <title>S VolumeMute 18 N</title>
  <rect id="Canvas" fill="#ff13dc" opacity="0" width="18" height="18"/><path class="fill" d="M6,13.5A5.4915,5.4915,0,0,1,8,9.261V2.5a.363.363,0,0,0-.597-.2855l-3.3195,3.4c-.2195.2235-.363.4225-.711.4225H.5a.5.5,0,0,0-.5.5V11.5a.5.5,0,0,0,.5.5H3.3725c.35,0,.5.2055.711.4225l2.0025,2.05A5.50725,5.50725,0,0,1,6,13.5Z"/>
  <path class="fill" d="M11.5,9.05a4.45,4.45,0,1,0,4.45,4.45A4.45,4.45,0,0,0,11.5,9.05ZM8,13.5a3.46455,3.46455,0,0,1,.7375-2.126l4.8885,4.8885A3.483,3.483,0,0,1,8,13.5Zm6.2625,2.126L9.374,10.7375a3.483,3.483,0,0,1,4.8885,4.8885Z"/>
</svg>