<svg xmlns:xlink="http://www.w3.org/1999/xlink" xmlns="http://www.w3.org/2000/svg" height="18" viewBox="0 0 18 18" width="18">
  <defs>
    <style>
      .fill {
        fill: #464646;
      }
    </style>
  </defs>
  <title>S VolumeOne 18 N</title>
  <rect id="Canvas" fill="#ff13dc" opacity="0" width="18" height="18"/><path class="fill" d="M3.3725,6.0365H.5a.5.5,0,0,0-.5.5V11.5a.5.5,0,0,0,.5.5H3.3725a.714.714,0,0,1,.4655.1725L7.403,15.802A.3635.3635,0,0,0,8,15.5145V2.5a.363.363,0,0,0-.597-.2855l-3.5635,3.65A.72.72,0,0,1,3.3725,6.0365Z"/>
  <path class="fill" d="M11.02,9a3.46751,3.46751,0,0,1-.7035,2.096.49.49,0,0,0,.043.644l.008.008a.496.496,0,0,0,.7435-.045A4.47751,4.47751,0,0,0,11.1,6.2765a.496.496,0,0,0-.742-.0435l-.0075.008a.491.491,0,0,0-.0425.646A3.47151,3.47151,0,0,1,11.02,9Z"/>
</svg>