<svg xmlns:xlink="http://www.w3.org/1999/xlink" xmlns="http://www.w3.org/2000/svg" height="18" viewBox="0 0 18 18" width="18">
  <defs>
    <style>
      .fill {
        fill: #464646;
      }
    </style>
  </defs>
  <title>S WebPages 18 N</title>
  <rect id="Canvas" fill="#ff13dc" opacity="0" width="18" height="18"/><path class="fill" d="M3,4.5v12a.5.5,0,0,0,.5.5h13a.5.5,0,0,0,.5-.5V4.5a.5.5,0,0,0-.5-.5H3.5A.5.5,0,0,0,3,4.5ZM16,16H4V7H16Z"/>
  <path class="fill" d="M2,3H15V1.5a.5.5,0,0,0-.5-.5H1.5a.5.5,0,0,0-.5.5v12a.5.5,0,0,0,.5.5H2Z"/>
  <path class="fill" d="M3,4.5v12a.5.5,0,0,0,.5.5h13a.5.5,0,0,0,.5-.5V4.5a.5.5,0,0,0-.5-.5H3.5A.5.5,0,0,0,3,4.5ZM16,16H4V7H16Z"/>
  <path class="fill" d="M2,3H15V1.5a.5.5,0,0,0-.5-.5H1.5a.5.5,0,0,0-.5.5v12a.5.5,0,0,0,.5.5H2Z"/>
</svg>