<svg width="791" height="311" viewBox="0 0 791 311" fill="none" xmlns="http://www.w3.org/2000/svg">
<g clip-path="url(#clip0_70_60)">
<mask id="mask0_70_60" style="mask-type:luminance" maskUnits="userSpaceOnUse" x="0" y="0" width="791" height="311">
<path d="M791 0H0V311H791V0Z" fill="white"/>
</mask>
<g mask="url(#mask0_70_60)">
<path d="M791 0H0V311H791V0Z" fill="white"/>
<path d="M125 52H45C40.5817 52 37 55.5817 37 60V132C37 136.418 40.5817 140 45 140H125C129.418 140 133 136.418 133 132V60C133 55.5817 129.418 52 125 52Z" fill="#EFF1F5"/>
<path d="M125 52.5H45C40.8579 52.5 37.5 55.8579 37.5 60V132C37.5 136.142 40.8579 139.5 45 139.5H125C129.142 139.5 132.5 136.142 132.5 132V60C132.5 55.8579 129.142 52.5 125 52.5Z" stroke="#D6D6D6" stroke-opacity="0.49"/>
<path d="M51.4672 93H49.9072C49.8292 93 49.8032 92.974 49.8032 92.883V84.628C49.8032 84.563 49.8162 84.498 49.8942 84.498C51.0642 84.472 51.5582 84.459 52.6112 84.459C54.7692 84.459 55.9782 85.382 55.9782 87.059C55.9782 88.138 55.3022 88.97 54.3532 89.347C54.7822 89.932 56.2512 92.142 56.6542 92.844C56.6932 92.922 56.7062 93 56.6152 93H54.7302C54.6132 93 54.5742 92.974 54.5482 92.922C54.1712 92.35 53.3522 90.959 52.8192 90.075C52.7282 89.919 52.6632 89.854 52.5202 89.854H51.5712V92.896C51.5712 92.961 51.5322 93 51.4672 93ZM51.5712 88.32H52.5722C53.5472 88.32 54.1712 87.93 54.1712 87.163C54.1712 86.37 53.5212 86.032 52.5592 86.032C52.1302 86.032 51.7662 86.045 51.5712 86.058V88.32ZM61.2173 90.244H58.6823C58.7473 90.985 59.2673 91.596 60.5413 91.596C61.1263 91.596 61.6463 91.505 62.1403 91.297C62.1793 91.271 62.2183 91.284 62.2183 91.362V92.597C62.2183 92.688 62.1923 92.727 62.1273 92.753C61.6073 93 61.0353 93.13 60.1383 93.13C57.6943 93.13 56.8363 91.453 56.8363 89.841C56.8363 88.047 57.9413 86.409 59.9823 86.409C61.9453 86.409 62.7253 87.93 62.7253 89.217C62.7253 89.62 62.6993 89.945 62.6603 90.088C62.6473 90.153 62.6213 90.179 62.5563 90.192C62.3873 90.218 61.8933 90.244 61.2173 90.244ZM58.6693 88.983H60.3723C60.7883 88.983 60.9703 88.97 61.0223 88.957C61.0223 88.931 61.0223 88.879 61.0223 88.866C61.0223 88.554 60.7753 87.839 59.9173 87.839C59.0983 87.839 58.7473 88.45 58.6693 88.983ZM66.6216 86.409C68.8836 86.409 69.9106 87.943 69.9106 89.568C69.9106 91.947 67.9606 93.13 65.9326 93.13C65.8676 93.13 65.7766 93.13 65.6856 93.117V95.327C65.6856 95.392 65.6726 95.431 65.5816 95.444C65.0486 95.496 64.0476 95.587 63.9696 95.6C63.8916 95.6 63.8786 95.574 63.8786 95.509V87.865C63.8786 87.683 63.8526 87.202 63.8396 87.007C63.8396 86.994 63.8396 86.955 63.8916 86.942C64.5546 86.721 65.4906 86.409 66.6216 86.409ZM66.4656 87.943C66.1666 87.943 65.9456 87.969 65.6856 88.047V91.596C65.7896 91.622 65.9846 91.622 66.1016 91.622C66.9986 91.622 68.0516 91.102 68.0516 89.685C68.0516 88.567 67.4796 87.943 66.4656 87.943ZM73.9874 86.409C76.0804 86.409 77.1594 87.982 77.1594 89.737C77.1594 91.778 75.8334 93.13 73.9614 93.13C71.7384 93.13 70.7504 91.453 70.7504 89.776C70.7504 87.93 71.9854 86.409 73.9874 86.409ZM73.9094 87.917C73.1554 87.917 72.5834 88.593 72.5834 89.75C72.5834 90.894 73.1164 91.622 73.9874 91.622C74.7414 91.622 75.3134 90.972 75.3134 89.776C75.3134 88.762 74.8974 87.917 73.9094 87.917ZM78.3389 86.539H79.7559C79.8469 86.539 79.8859 86.578 79.9119 86.656C79.9769 86.825 80.0419 87.098 80.0549 87.384C80.4839 86.877 81.1989 86.409 82.1219 86.409C82.1999 86.409 82.2259 86.435 82.2259 86.513V88.112C82.2259 88.177 82.1999 88.203 82.1089 88.203C81.1729 88.164 80.4189 88.45 80.1459 88.762L80.1329 92.896C80.1329 92.974 80.1069 93 80.0159 93H78.4559C78.3519 93 78.3259 92.961 78.3259 92.883V88.398C78.3259 87.839 78.3129 87.085 78.2609 86.63C78.2609 86.565 78.2739 86.539 78.3389 86.539ZM86.8556 91.7V92.779C86.8556 92.857 86.8426 92.922 86.7646 92.948C86.4006 93.078 86.0626 93.13 85.6076 93.13C84.4766 93.13 83.8136 92.571 83.8136 91.271V88.047H83.0336C82.9556 88.034 82.9296 88.008 82.9296 87.93V86.656C82.9296 86.565 82.9556 86.539 83.0466 86.539H83.8266C83.8396 86.097 83.8916 85.33 83.9566 84.966C83.9696 84.901 84.0086 84.862 84.0736 84.849L85.5946 84.654C85.6596 84.641 85.6986 84.641 85.6986 84.732C85.6596 85.135 85.6336 85.902 85.6336 86.539H86.8296C86.9076 86.539 86.9336 86.565 86.9336 86.643V87.956C86.9336 88.021 86.9076 88.034 86.8426 88.047H85.6206V90.829C85.6206 91.401 85.7896 91.661 86.3226 91.661C86.4786 91.661 86.6086 91.635 86.7646 91.609C86.8166 91.609 86.8556 91.622 86.8556 91.7ZM92.9362 93.13C91.9742 93.13 91.1812 92.961 90.6352 92.675C90.5702 92.636 90.5442 92.571 90.5442 92.467V90.92C90.5442 90.855 90.5962 90.816 90.6482 90.855C91.3632 91.31 92.2212 91.531 93.0012 91.531C93.9892 91.531 94.3792 91.193 94.3792 90.738C94.3792 90.322 94.0802 90.023 93.1962 89.646L92.5462 89.373C90.9472 88.697 90.5052 87.891 90.5052 86.877C90.5052 85.473 91.5712 84.355 93.6382 84.355C94.4572 84.355 95.1982 84.459 95.6662 84.693C95.7312 84.732 95.7442 84.784 95.7442 84.862V86.318C95.7442 86.37 95.7052 86.435 95.6272 86.383C95.1072 86.084 94.3922 85.954 93.6252 85.954C92.6242 85.954 92.2732 86.292 92.2732 86.721C92.2732 87.124 92.5462 87.397 93.5212 87.787L94.0022 87.982C95.7312 88.697 96.2122 89.516 96.2122 90.569C96.2122 92.142 94.9382 93.13 92.9362 93.13ZM102.972 86.643V91.557C102.972 92.22 103.024 92.623 103.05 92.896C103.063 92.974 103.024 93 102.933 93H101.555C101.451 93 101.425 92.974 101.399 92.909C101.373 92.792 101.334 92.623 101.321 92.506C100.749 93 100.099 93.13 99.5405 93.13C98.2405 93.13 97.3435 92.415 97.3435 90.621V86.643C97.3435 86.552 97.3695 86.539 97.4605 86.539H99.0465C99.1245 86.539 99.1375 86.565 99.1375 86.643V90.413C99.1375 91.115 99.4365 91.57 100.151 91.57C100.58 91.57 100.879 91.44 101.165 91.193V86.643C101.165 86.565 101.204 86.539 101.295 86.539H102.868C102.959 86.539 102.972 86.565 102.972 86.643ZM104.542 92.883V86.643C104.542 86.578 104.568 86.539 104.646 86.539H106.245C106.323 86.539 106.349 86.565 106.349 86.643V92.883C106.349 92.961 106.336 93 106.232 93H104.672C104.581 93 104.542 92.961 104.542 92.883ZM105.452 85.85C104.841 85.85 104.451 85.447 104.451 84.836C104.451 84.251 104.88 83.835 105.465 83.835C106.089 83.835 106.466 84.251 106.466 84.836C106.466 85.447 106.063 85.85 105.452 85.85ZM111.231 91.7V92.779C111.231 92.857 111.218 92.922 111.14 92.948C110.776 93.078 110.438 93.13 109.983 93.13C108.852 93.13 108.189 92.571 108.189 91.271V88.047H107.409C107.331 88.034 107.305 88.008 107.305 87.93V86.656C107.305 86.565 107.331 86.539 107.422 86.539H108.202C108.215 86.097 108.267 85.33 108.332 84.966C108.345 84.901 108.384 84.862 108.449 84.849L109.97 84.654C110.035 84.641 110.074 84.641 110.074 84.732C110.035 85.135 110.009 85.902 110.009 86.539H111.205C111.283 86.539 111.309 86.565 111.309 86.643V87.956C111.309 88.021 111.283 88.034 111.218 88.047H109.996V90.829C109.996 91.401 110.165 91.661 110.698 91.661C110.854 91.661 110.984 91.635 111.14 91.609C111.192 91.609 111.231 91.622 111.231 91.7ZM116.277 90.244H113.742C113.807 90.985 114.327 91.596 115.601 91.596C116.186 91.596 116.706 91.505 117.2 91.297C117.239 91.271 117.278 91.284 117.278 91.362V92.597C117.278 92.688 117.252 92.727 117.187 92.753C116.667 93 116.095 93.13 115.198 93.13C112.754 93.13 111.896 91.453 111.896 89.841C111.896 88.047 113.001 86.409 115.042 86.409C117.005 86.409 117.785 87.93 117.785 89.217C117.785 89.62 117.759 89.945 117.72 90.088C117.707 90.153 117.681 90.179 117.616 90.192C117.447 90.218 116.953 90.244 116.277 90.244ZM113.729 88.983H115.432C115.848 88.983 116.03 88.97 116.082 88.957C116.082 88.931 116.082 88.879 116.082 88.866C116.082 88.554 115.835 87.839 114.977 87.839C114.158 87.839 113.807 88.45 113.729 88.983Z" fill="#666666"/>
<path d="M86.0533 109H84.4413C84.3633 109 84.3373 108.974 84.3373 108.896V102.643C83.9603 102.812 83.4013 102.981 83.0503 103.033C82.9723 103.046 82.9463 103.02 82.9463 102.942V101.668C82.9463 101.603 82.9593 101.564 83.0243 101.551C83.6223 101.408 84.3113 101.122 84.8313 100.797C84.8833 100.758 84.9743 100.745 85.0393 100.745H86.0663C86.1313 100.745 86.1443 100.784 86.1443 100.836V108.896C86.1443 108.974 86.1183 109 86.0533 109Z" fill="#666666"/>
<path d="M181 160H101C96.5817 160 93 163.582 93 168V240C93 244.418 96.5817 248 101 248H181C185.418 248 189 244.418 189 240V168C189 163.582 185.418 160 181 160Z" fill="#EFF1F5"/>
<path d="M181 160.5H101C96.8579 160.5 93.5 163.858 93.5 168V240C93.5 244.142 96.8579 247.5 101 247.5H181C185.142 247.5 188.5 244.142 188.5 240V168C188.5 163.858 185.142 160.5 181 160.5Z" stroke="#D6D6D6" stroke-opacity="0.49"/>
<path d="M111.009 199.375V200.714C111.009 200.805 110.983 200.87 110.905 200.896C110.476 201.052 109.826 201.13 109.098 201.13C106.576 201.13 104.613 199.635 104.613 196.788C104.613 194.149 106.433 192.355 109.306 192.355C110.125 192.355 110.658 192.42 110.996 192.576C111.061 192.602 111.087 192.654 111.087 192.732V194.149C111.087 194.266 111.022 194.266 110.97 194.24C110.541 194.032 109.93 193.954 109.28 193.954C107.538 193.954 106.472 195.033 106.472 196.723C106.472 198.751 107.954 199.518 109.319 199.518C109.956 199.518 110.437 199.466 110.905 199.31C110.97 199.284 111.009 199.297 111.009 199.375ZM112.162 199.336V191.887C112.162 191.822 112.188 191.783 112.292 191.783H113.839C113.93 191.783 113.969 191.822 113.969 191.887V199.167C113.969 199.531 114.086 199.661 114.398 199.661C114.502 199.661 114.515 199.661 114.632 199.648C114.684 199.648 114.697 199.674 114.697 199.739V200.857C114.697 200.961 114.684 200.987 114.606 201.013C114.45 201.078 114.203 201.13 113.8 201.13C112.864 201.13 112.162 200.779 112.162 199.336ZM119.094 199.609V198.218C118.886 198.192 118.704 198.179 118.444 198.179C117.521 198.179 117.144 198.478 117.144 198.946C117.144 199.375 117.469 199.726 118.288 199.726C118.587 199.726 118.847 199.687 119.094 199.609ZM120.849 197.048V199.557C120.849 199.895 120.849 200.168 120.875 200.48C120.875 200.506 120.875 200.532 120.849 200.545C119.705 200.987 118.951 201.13 118.015 201.13C116.572 201.13 115.389 200.467 115.389 198.959C115.389 197.581 116.598 196.853 118.327 196.853C118.678 196.853 118.977 196.853 119.094 196.879V196.788C119.094 196.541 118.938 195.969 117.846 195.969C117.196 195.969 116.624 196.099 116.13 196.32C116.078 196.346 116.013 196.32 116.013 196.255V194.942C116.013 194.877 116.026 194.838 116.104 194.812C116.676 194.539 117.417 194.409 118.145 194.409C120.017 194.409 120.849 195.566 120.849 197.048ZM126.202 196.229C125.773 196.008 125.11 195.852 124.525 195.852C123.914 195.852 123.719 196.073 123.719 196.294C123.719 196.515 123.888 196.684 124.642 196.97C126.215 197.542 126.709 198.153 126.709 199.076C126.709 200.311 125.747 201.13 124.031 201.13C123.238 201.13 122.549 200.987 122.146 200.766C122.081 200.727 122.055 200.688 122.055 200.623V199.219C122.055 199.141 122.107 199.102 122.159 199.141C122.757 199.518 123.485 199.661 124.07 199.661C124.681 199.661 124.954 199.492 124.954 199.219C124.954 198.972 124.733 198.79 123.966 198.504C122.497 197.958 122.016 197.334 122.016 196.398C122.016 195.384 122.835 194.409 124.551 194.409C125.318 194.409 125.916 194.513 126.241 194.669C126.319 194.708 126.332 194.773 126.332 194.838V196.138C126.332 196.216 126.28 196.268 126.202 196.229ZM131.712 196.229C131.283 196.008 130.619 195.852 130.035 195.852C129.424 195.852 129.229 196.073 129.229 196.294C129.229 196.515 129.398 196.684 130.152 196.97C131.725 197.542 132.219 198.153 132.219 199.076C132.219 200.311 131.257 201.13 129.541 201.13C128.748 201.13 128.059 200.987 127.656 200.766C127.591 200.727 127.565 200.688 127.565 200.623V199.219C127.565 199.141 127.616 199.102 127.669 199.141C128.267 199.518 128.995 199.661 129.58 199.661C130.191 199.661 130.464 199.492 130.464 199.219C130.464 198.972 130.243 198.79 129.476 198.504C128.007 197.958 127.526 197.334 127.526 196.398C127.526 195.384 128.345 194.409 130.061 194.409C130.828 194.409 131.426 194.513 131.751 194.669C131.829 194.708 131.842 194.773 131.842 194.838V196.138C131.842 196.216 131.79 196.268 131.712 196.229ZM133.312 200.883V194.643C133.312 194.578 133.338 194.539 133.416 194.539H135.015C135.093 194.539 135.119 194.565 135.119 194.643V200.883C135.119 200.961 135.106 201 135.002 201H133.442C133.351 201 133.312 200.961 133.312 200.883ZM134.222 193.85C133.611 193.85 133.221 193.447 133.221 192.836C133.221 192.251 133.65 191.835 134.235 191.835C134.859 191.835 135.236 192.251 135.236 192.836C135.236 193.447 134.833 193.85 134.222 193.85ZM140.756 200.883V194.643C140.756 194.578 140.795 194.539 140.873 194.539H142.472C142.55 194.539 142.576 194.565 142.576 194.643V200.883C142.576 200.961 142.55 201 142.459 201H140.899C140.808 201 140.756 200.961 140.756 200.883ZM141.679 193.85C141.094 193.85 140.691 193.447 140.691 192.862C140.691 192.277 141.107 191.861 141.692 191.861C142.29 191.861 142.667 192.277 142.667 192.862C142.667 193.46 142.264 193.85 141.679 193.85ZM136.921 196.047H136.154C136.089 196.034 136.063 196.008 136.063 195.943V194.63C136.063 194.565 136.102 194.539 136.154 194.539H136.921V194.201C136.921 193.72 137.012 193.226 137.194 192.836C137.532 192.108 138.195 191.653 139.235 191.653C139.612 191.653 139.781 191.692 139.911 191.744C139.989 191.77 140.002 191.809 140.002 191.887V193.187C140.002 193.239 139.976 193.291 139.898 193.265C139.742 193.213 139.612 193.213 139.469 193.213C138.988 193.213 138.728 193.473 138.728 194.136V194.539H139.833C139.924 194.539 139.937 194.578 139.937 194.63V195.943C139.937 196.021 139.924 196.034 139.833 196.047H138.728V200.883C138.728 200.948 138.715 201 138.611 201H137.038C136.96 201 136.921 200.961 136.921 200.883V196.047ZM148.679 199.466V200.818C148.679 200.883 148.666 200.909 148.614 200.922C148.198 201.091 147.665 201.13 147.158 201.13C145.052 201.13 143.726 199.713 143.726 197.802C143.726 195.852 145.195 194.409 147.405 194.409C148.042 194.409 148.393 194.474 148.601 194.552C148.666 194.578 148.679 194.617 148.679 194.695L148.666 196.034C148.666 196.125 148.614 196.138 148.562 196.125C148.315 196.034 147.951 195.969 147.47 195.969C146.378 195.969 145.585 196.567 145.585 197.737C145.585 199.089 146.586 199.531 147.496 199.531C147.951 199.531 148.354 199.479 148.575 199.414C148.653 199.388 148.679 199.414 148.679 199.466ZM153.232 199.609V198.218C153.024 198.192 152.842 198.179 152.582 198.179C151.659 198.179 151.282 198.478 151.282 198.946C151.282 199.375 151.607 199.726 152.426 199.726C152.725 199.726 152.985 199.687 153.232 199.609ZM154.987 197.048V199.557C154.987 199.895 154.987 200.168 155.013 200.48C155.013 200.506 155.013 200.532 154.987 200.545C153.843 200.987 153.089 201.13 152.153 201.13C150.71 201.13 149.527 200.467 149.527 198.959C149.527 197.581 150.736 196.853 152.465 196.853C152.816 196.853 153.115 196.853 153.232 196.879V196.788C153.232 196.541 153.076 195.969 151.984 195.969C151.334 195.969 150.762 196.099 150.268 196.32C150.216 196.346 150.151 196.32 150.151 196.255V194.942C150.151 194.877 150.164 194.838 150.242 194.812C150.814 194.539 151.555 194.409 152.283 194.409C154.155 194.409 154.987 195.566 154.987 197.048ZM159.666 199.7V200.779C159.666 200.857 159.653 200.922 159.575 200.948C159.211 201.078 158.873 201.13 158.418 201.13C157.287 201.13 156.624 200.571 156.624 199.271V196.047H155.844C155.766 196.034 155.74 196.008 155.74 195.93V194.656C155.74 194.565 155.766 194.539 155.857 194.539H156.637C156.65 194.097 156.702 193.33 156.767 192.966C156.78 192.901 156.819 192.862 156.884 192.849L158.405 192.654C158.47 192.641 158.509 192.641 158.509 192.732C158.47 193.135 158.444 193.902 158.444 194.539H159.64C159.718 194.539 159.744 194.565 159.744 194.643V195.956C159.744 196.021 159.718 196.034 159.653 196.047H158.431V198.829C158.431 199.401 158.6 199.661 159.133 199.661C159.289 199.661 159.419 199.635 159.575 199.609C159.627 199.609 159.666 199.622 159.666 199.7ZM160.785 200.883V194.643C160.785 194.578 160.811 194.539 160.889 194.539H162.488C162.566 194.539 162.592 194.565 162.592 194.643V200.883C162.592 200.961 162.579 201 162.475 201H160.915C160.824 201 160.785 200.961 160.785 200.883ZM161.695 193.85C161.084 193.85 160.694 193.447 160.694 192.836C160.694 192.251 161.123 191.835 161.708 191.835C162.332 191.835 162.709 192.251 162.709 192.836C162.709 193.447 162.306 193.85 161.695 193.85ZM166.996 194.409C169.089 194.409 170.168 195.982 170.168 197.737C170.168 199.778 168.842 201.13 166.97 201.13C164.747 201.13 163.759 199.453 163.759 197.776C163.759 195.93 164.994 194.409 166.996 194.409ZM166.918 195.917C166.164 195.917 165.592 196.593 165.592 197.75C165.592 198.894 166.125 199.622 166.996 199.622C167.75 199.622 168.322 198.972 168.322 197.776C168.322 196.762 167.906 195.917 166.918 195.917ZM171.335 200.883V196.047C171.335 195.605 171.309 194.929 171.283 194.643C171.27 194.578 171.296 194.539 171.374 194.539H172.739C172.843 194.539 172.882 194.578 172.908 194.643C172.96 194.76 172.986 194.89 173.012 195.072C173.558 194.63 174.169 194.409 174.858 194.409C175.859 194.409 177.042 194.929 177.042 197.022V200.883C177.042 200.961 177.016 201 176.925 201H175.365C175.274 201 175.235 200.961 175.235 200.883V197.178C175.235 196.398 174.897 195.982 174.221 195.982C173.779 195.982 173.415 196.138 173.142 196.385V200.896C173.142 200.961 173.103 201 173.025 201H171.452C171.361 201 171.335 200.961 171.335 200.883Z" fill="#666666"/>
<path d="M129.534 217.13C128.572 217.13 127.779 216.961 127.233 216.675C127.168 216.636 127.142 216.571 127.142 216.467V214.92C127.142 214.855 127.194 214.816 127.246 214.855C127.961 215.31 128.819 215.531 129.599 215.531C130.587 215.531 130.977 215.193 130.977 214.738C130.977 214.322 130.678 214.023 129.794 213.646L129.144 213.373C127.545 212.697 127.103 211.891 127.103 210.877C127.103 209.473 128.169 208.355 130.236 208.355C131.055 208.355 131.796 208.459 132.264 208.693C132.329 208.732 132.342 208.784 132.342 208.862V210.318C132.342 210.37 132.303 210.435 132.225 210.383C131.705 210.084 130.99 209.954 130.223 209.954C129.222 209.954 128.871 210.292 128.871 210.721C128.871 211.124 129.144 211.397 130.119 211.787L130.6 211.982C132.329 212.697 132.81 213.516 132.81 214.569C132.81 216.142 131.536 217.13 129.534 217.13ZM138.059 214.244H135.524C135.589 214.985 136.109 215.596 137.383 215.596C137.968 215.596 138.488 215.505 138.982 215.297C139.021 215.271 139.06 215.284 139.06 215.362V216.597C139.06 216.688 139.034 216.727 138.969 216.753C138.449 217 137.877 217.13 136.98 217.13C134.536 217.13 133.678 215.453 133.678 213.841C133.678 212.047 134.783 210.409 136.824 210.409C138.787 210.409 139.567 211.93 139.567 213.217C139.567 213.62 139.541 213.945 139.502 214.088C139.489 214.153 139.463 214.179 139.398 214.192C139.229 214.218 138.735 214.244 138.059 214.244ZM135.511 212.983H137.214C137.63 212.983 137.812 212.97 137.864 212.957C137.864 212.931 137.864 212.879 137.864 212.866C137.864 212.554 137.617 211.839 136.759 211.839C135.94 211.839 135.589 212.45 135.511 212.983ZM144.083 215.7V216.779C144.083 216.857 144.07 216.922 143.992 216.948C143.628 217.078 143.29 217.13 142.835 217.13C141.704 217.13 141.041 216.571 141.041 215.271V212.047H140.261C140.183 212.034 140.157 212.008 140.157 211.93V210.656C140.157 210.565 140.183 210.539 140.274 210.539H141.054C141.067 210.097 141.119 209.33 141.184 208.966C141.197 208.901 141.236 208.862 141.301 208.849L142.822 208.654C142.887 208.641 142.926 208.641 142.926 208.732C142.887 209.135 142.861 209.902 142.861 210.539H144.057C144.135 210.539 144.161 210.565 144.161 210.643V211.956C144.161 212.021 144.135 212.034 144.07 212.047H142.848V214.829C142.848 215.401 143.017 215.661 143.55 215.661C143.706 215.661 143.836 215.635 143.992 215.609C144.044 215.609 144.083 215.622 144.083 215.7ZM152.712 214.972H149.709L149.085 216.896C149.059 216.961 149.02 217 148.942 217H147.434C147.343 217 147.317 216.948 147.33 216.87L149.93 209.369C149.982 209.226 150.034 209.07 150.06 208.576C150.06 208.524 150.099 208.485 150.138 208.485H152.218C152.283 208.485 152.309 208.498 152.322 208.563L155.273 216.883C155.299 216.948 155.286 217 155.208 217H153.518C153.44 217 153.401 216.974 153.375 216.909L152.712 214.972ZM150.177 213.347H152.231C151.971 212.489 151.451 210.916 151.204 209.993H151.191C150.983 210.864 150.515 212.294 150.177 213.347Z" fill="#666666"/>
<path d="M336 160H256C251.582 160 248 163.582 248 168V240C248 244.418 251.582 248 256 248H336C340.418 248 344 244.418 344 240V168C344 163.582 340.418 160 336 160Z" fill="#EFF1F5"/>
<path d="M336 160.5H256C251.858 160.5 248.5 163.858 248.5 168V240C248.5 244.142 251.858 247.5 256 247.5H336C340.142 247.5 343.5 244.142 343.5 240V168C343.5 163.858 340.142 160.5 336 160.5Z" stroke="#D6D6D6" stroke-opacity="0.49"/>
<path d="M266.009 199.375V200.714C266.009 200.805 265.983 200.87 265.905 200.896C265.476 201.052 264.826 201.13 264.098 201.13C261.576 201.13 259.613 199.635 259.613 196.788C259.613 194.149 261.433 192.355 264.306 192.355C265.125 192.355 265.658 192.42 265.996 192.576C266.061 192.602 266.087 192.654 266.087 192.732V194.149C266.087 194.266 266.022 194.266 265.97 194.24C265.541 194.032 264.93 193.954 264.28 193.954C262.538 193.954 261.472 195.033 261.472 196.723C261.472 198.751 262.954 199.518 264.319 199.518C264.956 199.518 265.437 199.466 265.905 199.31C265.97 199.284 266.009 199.297 266.009 199.375ZM267.162 199.336V191.887C267.162 191.822 267.188 191.783 267.292 191.783H268.839C268.93 191.783 268.969 191.822 268.969 191.887V199.167C268.969 199.531 269.086 199.661 269.398 199.661C269.502 199.661 269.515 199.661 269.632 199.648C269.684 199.648 269.697 199.674 269.697 199.739V200.857C269.697 200.961 269.684 200.987 269.606 201.013C269.45 201.078 269.203 201.13 268.8 201.13C267.864 201.13 267.162 200.779 267.162 199.336ZM274.094 199.609V198.218C273.886 198.192 273.704 198.179 273.444 198.179C272.521 198.179 272.144 198.478 272.144 198.946C272.144 199.375 272.469 199.726 273.288 199.726C273.587 199.726 273.847 199.687 274.094 199.609ZM275.849 197.048V199.557C275.849 199.895 275.849 200.168 275.875 200.48C275.875 200.506 275.875 200.532 275.849 200.545C274.705 200.987 273.951 201.13 273.015 201.13C271.572 201.13 270.389 200.467 270.389 198.959C270.389 197.581 271.598 196.853 273.327 196.853C273.678 196.853 273.977 196.853 274.094 196.879V196.788C274.094 196.541 273.938 195.969 272.846 195.969C272.196 195.969 271.624 196.099 271.13 196.32C271.078 196.346 271.013 196.32 271.013 196.255V194.942C271.013 194.877 271.026 194.838 271.104 194.812C271.676 194.539 272.417 194.409 273.145 194.409C275.017 194.409 275.849 195.566 275.849 197.048ZM281.202 196.229C280.773 196.008 280.11 195.852 279.525 195.852C278.914 195.852 278.719 196.073 278.719 196.294C278.719 196.515 278.888 196.684 279.642 196.97C281.215 197.542 281.709 198.153 281.709 199.076C281.709 200.311 280.747 201.13 279.031 201.13C278.238 201.13 277.549 200.987 277.146 200.766C277.081 200.727 277.055 200.688 277.055 200.623V199.219C277.055 199.141 277.107 199.102 277.159 199.141C277.757 199.518 278.485 199.661 279.07 199.661C279.681 199.661 279.954 199.492 279.954 199.219C279.954 198.972 279.733 198.79 278.966 198.504C277.497 197.958 277.016 197.334 277.016 196.398C277.016 195.384 277.835 194.409 279.551 194.409C280.318 194.409 280.916 194.513 281.241 194.669C281.319 194.708 281.332 194.773 281.332 194.838V196.138C281.332 196.216 281.28 196.268 281.202 196.229ZM286.712 196.229C286.283 196.008 285.619 195.852 285.035 195.852C284.424 195.852 284.229 196.073 284.229 196.294C284.229 196.515 284.398 196.684 285.152 196.97C286.725 197.542 287.219 198.153 287.219 199.076C287.219 200.311 286.257 201.13 284.541 201.13C283.748 201.13 283.059 200.987 282.656 200.766C282.591 200.727 282.565 200.688 282.565 200.623V199.219C282.565 199.141 282.616 199.102 282.669 199.141C283.267 199.518 283.995 199.661 284.58 199.661C285.191 199.661 285.464 199.492 285.464 199.219C285.464 198.972 285.243 198.79 284.476 198.504C283.007 197.958 282.526 197.334 282.526 196.398C282.526 195.384 283.345 194.409 285.061 194.409C285.828 194.409 286.426 194.513 286.751 194.669C286.829 194.708 286.842 194.773 286.842 194.838V196.138C286.842 196.216 286.79 196.268 286.712 196.229ZM288.312 200.883V194.643C288.312 194.578 288.338 194.539 288.416 194.539H290.015C290.093 194.539 290.119 194.565 290.119 194.643V200.883C290.119 200.961 290.106 201 290.002 201H288.442C288.351 201 288.312 200.961 288.312 200.883ZM289.222 193.85C288.611 193.85 288.221 193.447 288.221 192.836C288.221 192.251 288.65 191.835 289.235 191.835C289.859 191.835 290.236 192.251 290.236 192.836C290.236 193.447 289.833 193.85 289.222 193.85ZM295.756 200.883V194.643C295.756 194.578 295.795 194.539 295.873 194.539H297.472C297.55 194.539 297.576 194.565 297.576 194.643V200.883C297.576 200.961 297.55 201 297.459 201H295.899C295.808 201 295.756 200.961 295.756 200.883ZM296.679 193.85C296.094 193.85 295.691 193.447 295.691 192.862C295.691 192.277 296.107 191.861 296.692 191.861C297.29 191.861 297.667 192.277 297.667 192.862C297.667 193.46 297.264 193.85 296.679 193.85ZM291.921 196.047H291.154C291.089 196.034 291.063 196.008 291.063 195.943V194.63C291.063 194.565 291.102 194.539 291.154 194.539H291.921V194.201C291.921 193.72 292.012 193.226 292.194 192.836C292.532 192.108 293.195 191.653 294.235 191.653C294.612 191.653 294.781 191.692 294.911 191.744C294.989 191.77 295.002 191.809 295.002 191.887V193.187C295.002 193.239 294.976 193.291 294.898 193.265C294.742 193.213 294.612 193.213 294.469 193.213C293.988 193.213 293.728 193.473 293.728 194.136V194.539H294.833C294.924 194.539 294.937 194.578 294.937 194.63V195.943C294.937 196.021 294.924 196.034 294.833 196.047H293.728V200.883C293.728 200.948 293.715 201 293.611 201H292.038C291.96 201 291.921 200.961 291.921 200.883V196.047ZM303.679 199.466V200.818C303.679 200.883 303.666 200.909 303.614 200.922C303.198 201.091 302.665 201.13 302.158 201.13C300.052 201.13 298.726 199.713 298.726 197.802C298.726 195.852 300.195 194.409 302.405 194.409C303.042 194.409 303.393 194.474 303.601 194.552C303.666 194.578 303.679 194.617 303.679 194.695L303.666 196.034C303.666 196.125 303.614 196.138 303.562 196.125C303.315 196.034 302.951 195.969 302.47 195.969C301.378 195.969 300.585 196.567 300.585 197.737C300.585 199.089 301.586 199.531 302.496 199.531C302.951 199.531 303.354 199.479 303.575 199.414C303.653 199.388 303.679 199.414 303.679 199.466ZM308.232 199.609V198.218C308.024 198.192 307.842 198.179 307.582 198.179C306.659 198.179 306.282 198.478 306.282 198.946C306.282 199.375 306.607 199.726 307.426 199.726C307.725 199.726 307.985 199.687 308.232 199.609ZM309.987 197.048V199.557C309.987 199.895 309.987 200.168 310.013 200.48C310.013 200.506 310.013 200.532 309.987 200.545C308.843 200.987 308.089 201.13 307.153 201.13C305.71 201.13 304.527 200.467 304.527 198.959C304.527 197.581 305.736 196.853 307.465 196.853C307.816 196.853 308.115 196.853 308.232 196.879V196.788C308.232 196.541 308.076 195.969 306.984 195.969C306.334 195.969 305.762 196.099 305.268 196.32C305.216 196.346 305.151 196.32 305.151 196.255V194.942C305.151 194.877 305.164 194.838 305.242 194.812C305.814 194.539 306.555 194.409 307.283 194.409C309.155 194.409 309.987 195.566 309.987 197.048ZM314.666 199.7V200.779C314.666 200.857 314.653 200.922 314.575 200.948C314.211 201.078 313.873 201.13 313.418 201.13C312.287 201.13 311.624 200.571 311.624 199.271V196.047H310.844C310.766 196.034 310.74 196.008 310.74 195.93V194.656C310.74 194.565 310.766 194.539 310.857 194.539H311.637C311.65 194.097 311.702 193.33 311.767 192.966C311.78 192.901 311.819 192.862 311.884 192.849L313.405 192.654C313.47 192.641 313.509 192.641 313.509 192.732C313.47 193.135 313.444 193.902 313.444 194.539H314.64C314.718 194.539 314.744 194.565 314.744 194.643V195.956C314.744 196.021 314.718 196.034 314.653 196.047H313.431V198.829C313.431 199.401 313.6 199.661 314.133 199.661C314.289 199.661 314.419 199.635 314.575 199.609C314.627 199.609 314.666 199.622 314.666 199.7ZM315.785 200.883V194.643C315.785 194.578 315.811 194.539 315.889 194.539H317.488C317.566 194.539 317.592 194.565 317.592 194.643V200.883C317.592 200.961 317.579 201 317.475 201H315.915C315.824 201 315.785 200.961 315.785 200.883ZM316.695 193.85C316.084 193.85 315.694 193.447 315.694 192.836C315.694 192.251 316.123 191.835 316.708 191.835C317.332 191.835 317.709 192.251 317.709 192.836C317.709 193.447 317.306 193.85 316.695 193.85ZM321.996 194.409C324.089 194.409 325.168 195.982 325.168 197.737C325.168 199.778 323.842 201.13 321.97 201.13C319.747 201.13 318.759 199.453 318.759 197.776C318.759 195.93 319.994 194.409 321.996 194.409ZM321.918 195.917C321.164 195.917 320.592 196.593 320.592 197.75C320.592 198.894 321.125 199.622 321.996 199.622C322.75 199.622 323.322 198.972 323.322 197.776C323.322 196.762 322.906 195.917 321.918 195.917ZM326.335 200.883V196.047C326.335 195.605 326.309 194.929 326.283 194.643C326.27 194.578 326.296 194.539 326.374 194.539H327.739C327.843 194.539 327.882 194.578 327.908 194.643C327.96 194.76 327.986 194.89 328.012 195.072C328.558 194.63 329.169 194.409 329.858 194.409C330.859 194.409 332.042 194.929 332.042 197.022V200.883C332.042 200.961 332.016 201 331.925 201H330.365C330.274 201 330.235 200.961 330.235 200.883V197.178C330.235 196.398 329.897 195.982 329.221 195.982C328.779 195.982 328.415 196.138 328.142 196.385V200.896C328.142 200.961 328.103 201 328.025 201H326.452C326.361 201 326.335 200.961 326.335 200.883Z" fill="#666666"/>
<path d="M284.672 217.13C283.71 217.13 282.917 216.961 282.371 216.675C282.306 216.636 282.28 216.571 282.28 216.467V214.92C282.28 214.855 282.332 214.816 282.384 214.855C283.099 215.31 283.957 215.531 284.737 215.531C285.725 215.531 286.115 215.193 286.115 214.738C286.115 214.322 285.816 214.023 284.932 213.646L284.282 213.373C282.683 212.697 282.241 211.891 282.241 210.877C282.241 209.473 283.307 208.355 285.374 208.355C286.193 208.355 286.934 208.459 287.402 208.693C287.467 208.732 287.48 208.784 287.48 208.862V210.318C287.48 210.37 287.441 210.435 287.363 210.383C286.843 210.084 286.128 209.954 285.361 209.954C284.36 209.954 284.009 210.292 284.009 210.721C284.009 211.124 284.282 211.397 285.257 211.787L285.738 211.982C287.467 212.697 287.948 213.516 287.948 214.569C287.948 216.142 286.674 217.13 284.672 217.13ZM293.197 214.244H290.662C290.727 214.985 291.247 215.596 292.521 215.596C293.106 215.596 293.626 215.505 294.12 215.297C294.159 215.271 294.198 215.284 294.198 215.362V216.597C294.198 216.688 294.172 216.727 294.107 216.753C293.587 217 293.015 217.13 292.118 217.13C289.674 217.13 288.816 215.453 288.816 213.841C288.816 212.047 289.921 210.409 291.962 210.409C293.925 210.409 294.705 211.93 294.705 213.217C294.705 213.62 294.679 213.945 294.64 214.088C294.627 214.153 294.601 214.179 294.536 214.192C294.367 214.218 293.873 214.244 293.197 214.244ZM290.649 212.983H292.352C292.768 212.983 292.95 212.97 293.002 212.957C293.002 212.931 293.002 212.879 293.002 212.866C293.002 212.554 292.755 211.839 291.897 211.839C291.078 211.839 290.727 212.45 290.649 212.983ZM299.221 215.7V216.779C299.221 216.857 299.208 216.922 299.13 216.948C298.766 217.078 298.428 217.13 297.973 217.13C296.842 217.13 296.179 216.571 296.179 215.271V212.047H295.399C295.321 212.034 295.295 212.008 295.295 211.93V210.656C295.295 210.565 295.321 210.539 295.412 210.539H296.192C296.205 210.097 296.257 209.33 296.322 208.966C296.335 208.901 296.374 208.862 296.439 208.849L297.96 208.654C298.025 208.641 298.064 208.641 298.064 208.732C298.025 209.135 297.999 209.902 297.999 210.539H299.195C299.273 210.539 299.299 210.565 299.299 210.643V211.956C299.299 212.021 299.273 212.034 299.208 212.047H297.986V214.829C297.986 215.401 298.155 215.661 298.688 215.661C298.844 215.661 298.974 215.635 299.13 215.609C299.182 215.609 299.221 215.622 299.221 215.7ZM303.377 216.883V208.628C303.377 208.55 303.39 208.511 303.455 208.498C303.91 208.485 305.184 208.459 306.107 208.459C308.876 208.459 309.331 209.876 309.331 210.734C309.331 211.618 308.863 212.151 308.538 212.385C309.019 212.632 309.747 213.191 309.747 214.387C309.747 215.973 308.369 217.026 306.133 217.026C304.872 217.026 303.949 217.013 303.468 217C303.403 216.987 303.377 216.948 303.377 216.883ZM305.145 213.36V215.492C305.418 215.505 305.704 215.518 306.094 215.518C307.212 215.531 307.875 215.167 307.875 214.413C307.875 213.971 307.693 213.594 307.082 213.438C306.874 213.386 306.588 213.36 306.263 213.36H305.145ZM305.145 210.006V211.813H306.029C306.471 211.813 306.991 211.852 307.186 211.878C307.42 211.67 307.576 211.423 307.576 210.994C307.576 210.331 307.082 209.98 306.094 209.98C305.691 209.98 305.431 209.993 305.145 210.006Z" fill="#666666"/>
<path d="M548 160H468C463.582 160 460 163.582 460 168V240C460 244.418 463.582 248 468 248H548C552.418 248 556 244.418 556 240V168C556 163.582 552.418 160 548 160Z" fill="#EFF1F5"/>
<path d="M548 160.5H468C463.858 160.5 460.5 163.858 460.5 168V240C460.5 244.142 463.858 247.5 468 247.5H548C552.142 247.5 555.5 244.142 555.5 240V168C555.5 163.858 552.142 160.5 548 160.5Z" stroke="#D6D6D6" stroke-opacity="0.49"/>
<path d="M478.009 199.375V200.714C478.009 200.805 477.983 200.87 477.905 200.896C477.476 201.052 476.826 201.13 476.098 201.13C473.576 201.13 471.613 199.635 471.613 196.788C471.613 194.149 473.433 192.355 476.306 192.355C477.125 192.355 477.658 192.42 477.996 192.576C478.061 192.602 478.087 192.654 478.087 192.732V194.149C478.087 194.266 478.022 194.266 477.97 194.24C477.541 194.032 476.93 193.954 476.28 193.954C474.538 193.954 473.472 195.033 473.472 196.723C473.472 198.751 474.954 199.518 476.319 199.518C476.956 199.518 477.437 199.466 477.905 199.31C477.97 199.284 478.009 199.297 478.009 199.375ZM479.162 199.336V191.887C479.162 191.822 479.188 191.783 479.292 191.783H480.839C480.93 191.783 480.969 191.822 480.969 191.887V199.167C480.969 199.531 481.086 199.661 481.398 199.661C481.502 199.661 481.515 199.661 481.632 199.648C481.684 199.648 481.697 199.674 481.697 199.739V200.857C481.697 200.961 481.684 200.987 481.606 201.013C481.45 201.078 481.203 201.13 480.8 201.13C479.864 201.13 479.162 200.779 479.162 199.336ZM486.094 199.609V198.218C485.886 198.192 485.704 198.179 485.444 198.179C484.521 198.179 484.144 198.478 484.144 198.946C484.144 199.375 484.469 199.726 485.288 199.726C485.587 199.726 485.847 199.687 486.094 199.609ZM487.849 197.048V199.557C487.849 199.895 487.849 200.168 487.875 200.48C487.875 200.506 487.875 200.532 487.849 200.545C486.705 200.987 485.951 201.13 485.015 201.13C483.572 201.13 482.389 200.467 482.389 198.959C482.389 197.581 483.598 196.853 485.327 196.853C485.678 196.853 485.977 196.853 486.094 196.879V196.788C486.094 196.541 485.938 195.969 484.846 195.969C484.196 195.969 483.624 196.099 483.13 196.32C483.078 196.346 483.013 196.32 483.013 196.255V194.942C483.013 194.877 483.026 194.838 483.104 194.812C483.676 194.539 484.417 194.409 485.145 194.409C487.017 194.409 487.849 195.566 487.849 197.048ZM493.202 196.229C492.773 196.008 492.11 195.852 491.525 195.852C490.914 195.852 490.719 196.073 490.719 196.294C490.719 196.515 490.888 196.684 491.642 196.97C493.215 197.542 493.709 198.153 493.709 199.076C493.709 200.311 492.747 201.13 491.031 201.13C490.238 201.13 489.549 200.987 489.146 200.766C489.081 200.727 489.055 200.688 489.055 200.623V199.219C489.055 199.141 489.107 199.102 489.159 199.141C489.757 199.518 490.485 199.661 491.07 199.661C491.681 199.661 491.954 199.492 491.954 199.219C491.954 198.972 491.733 198.79 490.966 198.504C489.497 197.958 489.016 197.334 489.016 196.398C489.016 195.384 489.835 194.409 491.551 194.409C492.318 194.409 492.916 194.513 493.241 194.669C493.319 194.708 493.332 194.773 493.332 194.838V196.138C493.332 196.216 493.28 196.268 493.202 196.229ZM498.712 196.229C498.283 196.008 497.619 195.852 497.035 195.852C496.424 195.852 496.229 196.073 496.229 196.294C496.229 196.515 496.398 196.684 497.152 196.97C498.725 197.542 499.219 198.153 499.219 199.076C499.219 200.311 498.257 201.13 496.541 201.13C495.748 201.13 495.059 200.987 494.656 200.766C494.591 200.727 494.565 200.688 494.565 200.623V199.219C494.565 199.141 494.616 199.102 494.669 199.141C495.267 199.518 495.995 199.661 496.58 199.661C497.191 199.661 497.464 199.492 497.464 199.219C497.464 198.972 497.243 198.79 496.476 198.504C495.007 197.958 494.526 197.334 494.526 196.398C494.526 195.384 495.345 194.409 497.061 194.409C497.828 194.409 498.426 194.513 498.751 194.669C498.829 194.708 498.842 194.773 498.842 194.838V196.138C498.842 196.216 498.79 196.268 498.712 196.229ZM500.312 200.883V194.643C500.312 194.578 500.338 194.539 500.416 194.539H502.015C502.093 194.539 502.119 194.565 502.119 194.643V200.883C502.119 200.961 502.106 201 502.002 201H500.442C500.351 201 500.312 200.961 500.312 200.883ZM501.222 193.85C500.611 193.85 500.221 193.447 500.221 192.836C500.221 192.251 500.65 191.835 501.235 191.835C501.859 191.835 502.236 192.251 502.236 192.836C502.236 193.447 501.833 193.85 501.222 193.85ZM507.756 200.883V194.643C507.756 194.578 507.795 194.539 507.873 194.539H509.472C509.55 194.539 509.576 194.565 509.576 194.643V200.883C509.576 200.961 509.55 201 509.459 201H507.899C507.808 201 507.756 200.961 507.756 200.883ZM508.679 193.85C508.094 193.85 507.691 193.447 507.691 192.862C507.691 192.277 508.107 191.861 508.692 191.861C509.29 191.861 509.667 192.277 509.667 192.862C509.667 193.46 509.264 193.85 508.679 193.85ZM503.921 196.047H503.154C503.089 196.034 503.063 196.008 503.063 195.943V194.63C503.063 194.565 503.102 194.539 503.154 194.539H503.921V194.201C503.921 193.72 504.012 193.226 504.194 192.836C504.532 192.108 505.195 191.653 506.235 191.653C506.612 191.653 506.781 191.692 506.911 191.744C506.989 191.77 507.002 191.809 507.002 191.887V193.187C507.002 193.239 506.976 193.291 506.898 193.265C506.742 193.213 506.612 193.213 506.469 193.213C505.988 193.213 505.728 193.473 505.728 194.136V194.539H506.833C506.924 194.539 506.937 194.578 506.937 194.63V195.943C506.937 196.021 506.924 196.034 506.833 196.047H505.728V200.883C505.728 200.948 505.715 201 505.611 201H504.038C503.96 201 503.921 200.961 503.921 200.883V196.047ZM515.679 199.466V200.818C515.679 200.883 515.666 200.909 515.614 200.922C515.198 201.091 514.665 201.13 514.158 201.13C512.052 201.13 510.726 199.713 510.726 197.802C510.726 195.852 512.195 194.409 514.405 194.409C515.042 194.409 515.393 194.474 515.601 194.552C515.666 194.578 515.679 194.617 515.679 194.695L515.666 196.034C515.666 196.125 515.614 196.138 515.562 196.125C515.315 196.034 514.951 195.969 514.47 195.969C513.378 195.969 512.585 196.567 512.585 197.737C512.585 199.089 513.586 199.531 514.496 199.531C514.951 199.531 515.354 199.479 515.575 199.414C515.653 199.388 515.679 199.414 515.679 199.466ZM520.232 199.609V198.218C520.024 198.192 519.842 198.179 519.582 198.179C518.659 198.179 518.282 198.478 518.282 198.946C518.282 199.375 518.607 199.726 519.426 199.726C519.725 199.726 519.985 199.687 520.232 199.609ZM521.987 197.048V199.557C521.987 199.895 521.987 200.168 522.013 200.48C522.013 200.506 522.013 200.532 521.987 200.545C520.843 200.987 520.089 201.13 519.153 201.13C517.71 201.13 516.527 200.467 516.527 198.959C516.527 197.581 517.736 196.853 519.465 196.853C519.816 196.853 520.115 196.853 520.232 196.879V196.788C520.232 196.541 520.076 195.969 518.984 195.969C518.334 195.969 517.762 196.099 517.268 196.32C517.216 196.346 517.151 196.32 517.151 196.255V194.942C517.151 194.877 517.164 194.838 517.242 194.812C517.814 194.539 518.555 194.409 519.283 194.409C521.155 194.409 521.987 195.566 521.987 197.048ZM526.666 199.7V200.779C526.666 200.857 526.653 200.922 526.575 200.948C526.211 201.078 525.873 201.13 525.418 201.13C524.287 201.13 523.624 200.571 523.624 199.271V196.047H522.844C522.766 196.034 522.74 196.008 522.74 195.93V194.656C522.74 194.565 522.766 194.539 522.857 194.539H523.637C523.65 194.097 523.702 193.33 523.767 192.966C523.78 192.901 523.819 192.862 523.884 192.849L525.405 192.654C525.47 192.641 525.509 192.641 525.509 192.732C525.47 193.135 525.444 193.902 525.444 194.539H526.64C526.718 194.539 526.744 194.565 526.744 194.643V195.956C526.744 196.021 526.718 196.034 526.653 196.047H525.431V198.829C525.431 199.401 525.6 199.661 526.133 199.661C526.289 199.661 526.419 199.635 526.575 199.609C526.627 199.609 526.666 199.622 526.666 199.7ZM527.785 200.883V194.643C527.785 194.578 527.811 194.539 527.889 194.539H529.488C529.566 194.539 529.592 194.565 529.592 194.643V200.883C529.592 200.961 529.579 201 529.475 201H527.915C527.824 201 527.785 200.961 527.785 200.883ZM528.695 193.85C528.084 193.85 527.694 193.447 527.694 192.836C527.694 192.251 528.123 191.835 528.708 191.835C529.332 191.835 529.709 192.251 529.709 192.836C529.709 193.447 529.306 193.85 528.695 193.85ZM533.996 194.409C536.089 194.409 537.168 195.982 537.168 197.737C537.168 199.778 535.842 201.13 533.97 201.13C531.747 201.13 530.759 199.453 530.759 197.776C530.759 195.93 531.994 194.409 533.996 194.409ZM533.918 195.917C533.164 195.917 532.592 196.593 532.592 197.75C532.592 198.894 533.125 199.622 533.996 199.622C534.75 199.622 535.322 198.972 535.322 197.776C535.322 196.762 534.906 195.917 533.918 195.917ZM538.335 200.883V196.047C538.335 195.605 538.309 194.929 538.283 194.643C538.27 194.578 538.296 194.539 538.374 194.539H539.739C539.843 194.539 539.882 194.578 539.908 194.643C539.96 194.76 539.986 194.89 540.012 195.072C540.558 194.63 541.169 194.409 541.858 194.409C542.859 194.409 544.042 194.929 544.042 197.022V200.883C544.042 200.961 544.016 201 543.925 201H542.365C542.274 201 542.235 200.961 542.235 200.883V197.178C542.235 196.398 541.897 195.982 541.221 195.982C540.779 195.982 540.415 196.138 540.142 196.385V200.896C540.142 200.961 540.103 201 540.025 201H538.452C538.361 201 538.335 200.961 538.335 200.883Z" fill="#666666"/>
<path d="M496.905 217.13C495.943 217.13 495.15 216.961 494.604 216.675C494.539 216.636 494.513 216.571 494.513 216.467V214.92C494.513 214.855 494.565 214.816 494.617 214.855C495.332 215.31 496.19 215.531 496.97 215.531C497.958 215.531 498.348 215.193 498.348 214.738C498.348 214.322 498.049 214.023 497.165 213.646L496.515 213.373C494.916 212.697 494.474 211.891 494.474 210.877C494.474 209.473 495.54 208.355 497.607 208.355C498.426 208.355 499.167 208.459 499.635 208.693C499.7 208.732 499.713 208.784 499.713 208.862V210.318C499.713 210.37 499.674 210.435 499.596 210.383C499.076 210.084 498.361 209.954 497.594 209.954C496.593 209.954 496.242 210.292 496.242 210.721C496.242 211.124 496.515 211.397 497.49 211.787L497.971 211.982C499.7 212.697 500.181 213.516 500.181 214.569C500.181 216.142 498.907 217.13 496.905 217.13ZM505.43 214.244H502.895C502.96 214.985 503.48 215.596 504.754 215.596C505.339 215.596 505.859 215.505 506.353 215.297C506.392 215.271 506.431 215.284 506.431 215.362V216.597C506.431 216.688 506.405 216.727 506.34 216.753C505.82 217 505.248 217.13 504.351 217.13C501.907 217.13 501.049 215.453 501.049 213.841C501.049 212.047 502.154 210.409 504.195 210.409C506.158 210.409 506.938 211.93 506.938 213.217C506.938 213.62 506.912 213.945 506.873 214.088C506.86 214.153 506.834 214.179 506.769 214.192C506.6 214.218 506.106 214.244 505.43 214.244ZM502.882 212.983H504.585C505.001 212.983 505.183 212.97 505.235 212.957C505.235 212.931 505.235 212.879 505.235 212.866C505.235 212.554 504.988 211.839 504.13 211.839C503.311 211.839 502.96 212.45 502.882 212.983ZM511.454 215.7V216.779C511.454 216.857 511.441 216.922 511.363 216.948C510.999 217.078 510.661 217.13 510.206 217.13C509.075 217.13 508.412 216.571 508.412 215.271V212.047H507.632C507.554 212.034 507.528 212.008 507.528 211.93V210.656C507.528 210.565 507.554 210.539 507.645 210.539H508.425C508.438 210.097 508.49 209.33 508.555 208.966C508.568 208.901 508.607 208.862 508.672 208.849L510.193 208.654C510.258 208.641 510.297 208.641 510.297 208.732C510.258 209.135 510.232 209.902 510.232 210.539H511.428C511.506 210.539 511.532 210.565 511.532 210.643V211.956C511.532 212.021 511.506 212.034 511.441 212.047H510.219V214.829C510.219 215.401 510.388 215.661 510.921 215.661C511.077 215.661 511.207 215.635 511.363 215.609C511.415 215.609 511.454 215.622 511.454 215.7ZM521.526 215.375V216.714C521.526 216.805 521.5 216.87 521.422 216.896C520.993 217.052 520.343 217.13 519.615 217.13C517.093 217.13 515.13 215.635 515.13 212.788C515.13 210.149 516.95 208.355 519.823 208.355C520.642 208.355 521.175 208.42 521.513 208.576C521.578 208.602 521.604 208.654 521.604 208.732V210.149C521.604 210.266 521.539 210.266 521.487 210.24C521.058 210.032 520.447 209.954 519.797 209.954C518.055 209.954 516.989 211.033 516.989 212.723C516.989 214.751 518.471 215.518 519.836 215.518C520.473 215.518 520.954 215.466 521.422 215.31C521.487 215.284 521.526 215.297 521.526 215.375Z" fill="#666666"/>
<path d="M231 52H151C146.582 52 143 55.5817 143 60V132C143 136.418 146.582 140 151 140H231C235.418 140 239 136.418 239 132V60C239 55.5817 235.418 52 231 52Z" fill="#EFF1F5"/>
<path d="M231 52.5H151C146.858 52.5 143.5 55.8579 143.5 60V132C143.5 136.142 146.858 139.5 151 139.5H231C235.142 139.5 238.5 136.142 238.5 132V60C238.5 55.8579 235.142 52.5 231 52.5Z" stroke="#D6D6D6" stroke-opacity="0.49"/>
<path d="M157.467 93H155.907C155.829 93 155.803 92.974 155.803 92.883V84.628C155.803 84.563 155.816 84.498 155.894 84.498C157.064 84.472 157.558 84.459 158.611 84.459C160.769 84.459 161.978 85.382 161.978 87.059C161.978 88.138 161.302 88.97 160.353 89.347C160.782 89.932 162.251 92.142 162.654 92.844C162.693 92.922 162.706 93 162.615 93H160.73C160.613 93 160.574 92.974 160.548 92.922C160.171 92.35 159.352 90.959 158.819 90.075C158.728 89.919 158.663 89.854 158.52 89.854H157.571V92.896C157.571 92.961 157.532 93 157.467 93ZM157.571 88.32H158.572C159.547 88.32 160.171 87.93 160.171 87.163C160.171 86.37 159.521 86.032 158.559 86.032C158.13 86.032 157.766 86.045 157.571 86.058V88.32ZM167.217 90.244H164.682C164.747 90.985 165.267 91.596 166.541 91.596C167.126 91.596 167.646 91.505 168.14 91.297C168.179 91.271 168.218 91.284 168.218 91.362V92.597C168.218 92.688 168.192 92.727 168.127 92.753C167.607 93 167.035 93.13 166.138 93.13C163.694 93.13 162.836 91.453 162.836 89.841C162.836 88.047 163.941 86.409 165.982 86.409C167.945 86.409 168.725 87.93 168.725 89.217C168.725 89.62 168.699 89.945 168.66 90.088C168.647 90.153 168.621 90.179 168.556 90.192C168.387 90.218 167.893 90.244 167.217 90.244ZM164.669 88.983H166.372C166.788 88.983 166.97 88.97 167.022 88.957C167.022 88.931 167.022 88.879 167.022 88.866C167.022 88.554 166.775 87.839 165.917 87.839C165.098 87.839 164.747 88.45 164.669 88.983ZM172.622 86.409C174.884 86.409 175.911 87.943 175.911 89.568C175.911 91.947 173.961 93.13 171.933 93.13C171.868 93.13 171.777 93.13 171.686 93.117V95.327C171.686 95.392 171.673 95.431 171.582 95.444C171.049 95.496 170.048 95.587 169.97 95.6C169.892 95.6 169.879 95.574 169.879 95.509V87.865C169.879 87.683 169.853 87.202 169.84 87.007C169.84 86.994 169.84 86.955 169.892 86.942C170.555 86.721 171.491 86.409 172.622 86.409ZM172.466 87.943C172.167 87.943 171.946 87.969 171.686 88.047V91.596C171.79 91.622 171.985 91.622 172.102 91.622C172.999 91.622 174.052 91.102 174.052 89.685C174.052 88.567 173.48 87.943 172.466 87.943ZM179.987 86.409C182.08 86.409 183.159 87.982 183.159 89.737C183.159 91.778 181.833 93.13 179.961 93.13C177.738 93.13 176.75 91.453 176.75 89.776C176.75 87.93 177.985 86.409 179.987 86.409ZM179.909 87.917C179.155 87.917 178.583 88.593 178.583 89.75C178.583 90.894 179.116 91.622 179.987 91.622C180.741 91.622 181.313 90.972 181.313 89.776C181.313 88.762 180.897 87.917 179.909 87.917ZM184.339 86.539H185.756C185.847 86.539 185.886 86.578 185.912 86.656C185.977 86.825 186.042 87.098 186.055 87.384C186.484 86.877 187.199 86.409 188.122 86.409C188.2 86.409 188.226 86.435 188.226 86.513V88.112C188.226 88.177 188.2 88.203 188.109 88.203C187.173 88.164 186.419 88.45 186.146 88.762L186.133 92.896C186.133 92.974 186.107 93 186.016 93H184.456C184.352 93 184.326 92.961 184.326 92.883V88.398C184.326 87.839 184.313 87.085 184.261 86.63C184.261 86.565 184.274 86.539 184.339 86.539ZM192.856 91.7V92.779C192.856 92.857 192.843 92.922 192.765 92.948C192.401 93.078 192.063 93.13 191.608 93.13C190.477 93.13 189.814 92.571 189.814 91.271V88.047H189.034C188.956 88.034 188.93 88.008 188.93 87.93V86.656C188.93 86.565 188.956 86.539 189.047 86.539H189.827C189.84 86.097 189.892 85.33 189.957 84.966C189.97 84.901 190.009 84.862 190.074 84.849L191.595 84.654C191.66 84.641 191.699 84.641 191.699 84.732C191.66 85.135 191.634 85.902 191.634 86.539H192.83C192.908 86.539 192.934 86.565 192.934 86.643V87.956C192.934 88.021 192.908 88.034 192.843 88.047H191.621V90.829C191.621 91.401 191.79 91.661 192.323 91.661C192.479 91.661 192.609 91.635 192.765 91.609C192.817 91.609 192.856 91.622 192.856 91.7ZM198.936 93.13C197.974 93.13 197.181 92.961 196.635 92.675C196.57 92.636 196.544 92.571 196.544 92.467V90.92C196.544 90.855 196.596 90.816 196.648 90.855C197.363 91.31 198.221 91.531 199.001 91.531C199.989 91.531 200.379 91.193 200.379 90.738C200.379 90.322 200.08 90.023 199.196 89.646L198.546 89.373C196.947 88.697 196.505 87.891 196.505 86.877C196.505 85.473 197.571 84.355 199.638 84.355C200.457 84.355 201.198 84.459 201.666 84.693C201.731 84.732 201.744 84.784 201.744 84.862V86.318C201.744 86.37 201.705 86.435 201.627 86.383C201.107 86.084 200.392 85.954 199.625 85.954C198.624 85.954 198.273 86.292 198.273 86.721C198.273 87.124 198.546 87.397 199.521 87.787L200.002 87.982C201.731 88.697 202.212 89.516 202.212 90.569C202.212 92.142 200.938 93.13 198.936 93.13ZM208.972 86.643V91.557C208.972 92.22 209.024 92.623 209.05 92.896C209.063 92.974 209.024 93 208.933 93H207.555C207.451 93 207.425 92.974 207.399 92.909C207.373 92.792 207.334 92.623 207.321 92.506C206.749 93 206.099 93.13 205.54 93.13C204.24 93.13 203.343 92.415 203.343 90.621V86.643C203.343 86.552 203.369 86.539 203.46 86.539H205.046C205.124 86.539 205.137 86.565 205.137 86.643V90.413C205.137 91.115 205.436 91.57 206.151 91.57C206.58 91.57 206.879 91.44 207.165 91.193V86.643C207.165 86.565 207.204 86.539 207.295 86.539H208.868C208.959 86.539 208.972 86.565 208.972 86.643ZM210.542 92.883V86.643C210.542 86.578 210.568 86.539 210.646 86.539H212.245C212.323 86.539 212.349 86.565 212.349 86.643V92.883C212.349 92.961 212.336 93 212.232 93H210.672C210.581 93 210.542 92.961 210.542 92.883ZM211.452 85.85C210.841 85.85 210.451 85.447 210.451 84.836C210.451 84.251 210.88 83.835 211.465 83.835C212.089 83.835 212.466 84.251 212.466 84.836C212.466 85.447 212.063 85.85 211.452 85.85ZM217.231 91.7V92.779C217.231 92.857 217.218 92.922 217.14 92.948C216.776 93.078 216.438 93.13 215.983 93.13C214.852 93.13 214.189 92.571 214.189 91.271V88.047H213.409C213.331 88.034 213.305 88.008 213.305 87.93V86.656C213.305 86.565 213.331 86.539 213.422 86.539H214.202C214.215 86.097 214.267 85.33 214.332 84.966C214.345 84.901 214.384 84.862 214.449 84.849L215.97 84.654C216.035 84.641 216.074 84.641 216.074 84.732C216.035 85.135 216.009 85.902 216.009 86.539H217.205C217.283 86.539 217.309 86.565 217.309 86.643V87.956C217.309 88.021 217.283 88.034 217.218 88.047H215.996V90.829C215.996 91.401 216.165 91.661 216.698 91.661C216.854 91.661 216.984 91.635 217.14 91.609C217.192 91.609 217.231 91.622 217.231 91.7ZM222.277 90.244H219.742C219.807 90.985 220.327 91.596 221.601 91.596C222.186 91.596 222.706 91.505 223.2 91.297C223.239 91.271 223.278 91.284 223.278 91.362V92.597C223.278 92.688 223.252 92.727 223.187 92.753C222.667 93 222.095 93.13 221.198 93.13C218.754 93.13 217.896 91.453 217.896 89.841C217.896 88.047 219.001 86.409 221.042 86.409C223.005 86.409 223.785 87.93 223.785 89.217C223.785 89.62 223.759 89.945 223.72 90.088C223.707 90.153 223.681 90.179 223.616 90.192C223.447 90.218 222.953 90.244 222.277 90.244ZM219.729 88.983H221.432C221.848 88.983 222.03 88.97 222.082 88.957C222.082 88.931 222.082 88.879 222.082 88.866C222.082 88.554 221.835 87.839 220.977 87.839C220.158 87.839 219.807 88.45 219.729 88.983Z" fill="#666666"/>
<path d="M193.509 109H188.14C188.049 109 188.049 108.948 188.049 108.883V107.882C188.049 107.791 188.049 107.752 188.101 107.713C188.673 107.284 189.492 106.699 190.155 106.088C191.481 104.905 191.689 104.177 191.689 103.579C191.689 102.786 191.26 102.279 190.233 102.279C189.427 102.279 188.881 102.513 188.335 102.799C188.257 102.838 188.218 102.812 188.218 102.734V101.369C188.218 101.291 188.231 101.265 188.296 101.226C188.972 100.862 189.739 100.667 190.636 100.667C192.599 100.667 193.522 101.928 193.522 103.345C193.522 104.294 193.171 105.256 192.092 106.27C191.468 106.881 191.091 107.154 190.649 107.505C191.156 107.453 191.702 107.453 192.482 107.453H193.834C193.938 107.453 193.964 107.479 193.951 107.544L193.639 108.896C193.613 108.974 193.587 109 193.509 109Z" fill="#666666"/>
<path d="M336 52H256C251.582 52 248 55.5817 248 60V132C248 136.418 251.582 140 256 140H336C340.418 140 344 136.418 344 132V60C344 55.5817 340.418 52 336 52Z" fill="#EFF1F5"/>
<path d="M336 52.5H256C251.858 52.5 248.5 55.8579 248.5 60V132C248.5 136.142 251.858 139.5 256 139.5H336C340.142 139.5 343.5 136.142 343.5 132V60C343.5 55.8579 340.142 52.5 336 52.5Z" stroke="#D6D6D6" stroke-opacity="0.49"/>
<path d="M262.467 93H260.907C260.829 93 260.803 92.974 260.803 92.883V84.628C260.803 84.563 260.816 84.498 260.894 84.498C262.064 84.472 262.558 84.459 263.611 84.459C265.769 84.459 266.978 85.382 266.978 87.059C266.978 88.138 266.302 88.97 265.353 89.347C265.782 89.932 267.251 92.142 267.654 92.844C267.693 92.922 267.706 93 267.615 93H265.73C265.613 93 265.574 92.974 265.548 92.922C265.171 92.35 264.352 90.959 263.819 90.075C263.728 89.919 263.663 89.854 263.52 89.854H262.571V92.896C262.571 92.961 262.532 93 262.467 93ZM262.571 88.32H263.572C264.547 88.32 265.171 87.93 265.171 87.163C265.171 86.37 264.521 86.032 263.559 86.032C263.13 86.032 262.766 86.045 262.571 86.058V88.32ZM272.217 90.244H269.682C269.747 90.985 270.267 91.596 271.541 91.596C272.126 91.596 272.646 91.505 273.14 91.297C273.179 91.271 273.218 91.284 273.218 91.362V92.597C273.218 92.688 273.192 92.727 273.127 92.753C272.607 93 272.035 93.13 271.138 93.13C268.694 93.13 267.836 91.453 267.836 89.841C267.836 88.047 268.941 86.409 270.982 86.409C272.945 86.409 273.725 87.93 273.725 89.217C273.725 89.62 273.699 89.945 273.66 90.088C273.647 90.153 273.621 90.179 273.556 90.192C273.387 90.218 272.893 90.244 272.217 90.244ZM269.669 88.983H271.372C271.788 88.983 271.97 88.97 272.022 88.957C272.022 88.931 272.022 88.879 272.022 88.866C272.022 88.554 271.775 87.839 270.917 87.839C270.098 87.839 269.747 88.45 269.669 88.983ZM277.622 86.409C279.884 86.409 280.911 87.943 280.911 89.568C280.911 91.947 278.961 93.13 276.933 93.13C276.868 93.13 276.777 93.13 276.686 93.117V95.327C276.686 95.392 276.673 95.431 276.582 95.444C276.049 95.496 275.048 95.587 274.97 95.6C274.892 95.6 274.879 95.574 274.879 95.509V87.865C274.879 87.683 274.853 87.202 274.84 87.007C274.84 86.994 274.84 86.955 274.892 86.942C275.555 86.721 276.491 86.409 277.622 86.409ZM277.466 87.943C277.167 87.943 276.946 87.969 276.686 88.047V91.596C276.79 91.622 276.985 91.622 277.102 91.622C277.999 91.622 279.052 91.102 279.052 89.685C279.052 88.567 278.48 87.943 277.466 87.943ZM284.987 86.409C287.08 86.409 288.159 87.982 288.159 89.737C288.159 91.778 286.833 93.13 284.961 93.13C282.738 93.13 281.75 91.453 281.75 89.776C281.75 87.93 282.985 86.409 284.987 86.409ZM284.909 87.917C284.155 87.917 283.583 88.593 283.583 89.75C283.583 90.894 284.116 91.622 284.987 91.622C285.741 91.622 286.313 90.972 286.313 89.776C286.313 88.762 285.897 87.917 284.909 87.917ZM289.339 86.539H290.756C290.847 86.539 290.886 86.578 290.912 86.656C290.977 86.825 291.042 87.098 291.055 87.384C291.484 86.877 292.199 86.409 293.122 86.409C293.2 86.409 293.226 86.435 293.226 86.513V88.112C293.226 88.177 293.2 88.203 293.109 88.203C292.173 88.164 291.419 88.45 291.146 88.762L291.133 92.896C291.133 92.974 291.107 93 291.016 93H289.456C289.352 93 289.326 92.961 289.326 92.883V88.398C289.326 87.839 289.313 87.085 289.261 86.63C289.261 86.565 289.274 86.539 289.339 86.539ZM297.856 91.7V92.779C297.856 92.857 297.843 92.922 297.765 92.948C297.401 93.078 297.063 93.13 296.608 93.13C295.477 93.13 294.814 92.571 294.814 91.271V88.047H294.034C293.956 88.034 293.93 88.008 293.93 87.93V86.656C293.93 86.565 293.956 86.539 294.047 86.539H294.827C294.84 86.097 294.892 85.33 294.957 84.966C294.97 84.901 295.009 84.862 295.074 84.849L296.595 84.654C296.66 84.641 296.699 84.641 296.699 84.732C296.66 85.135 296.634 85.902 296.634 86.539H297.83C297.908 86.539 297.934 86.565 297.934 86.643V87.956C297.934 88.021 297.908 88.034 297.843 88.047H296.621V90.829C296.621 91.401 296.79 91.661 297.323 91.661C297.479 91.661 297.609 91.635 297.765 91.609C297.817 91.609 297.856 91.622 297.856 91.7ZM303.936 93.13C302.974 93.13 302.181 92.961 301.635 92.675C301.57 92.636 301.544 92.571 301.544 92.467V90.92C301.544 90.855 301.596 90.816 301.648 90.855C302.363 91.31 303.221 91.531 304.001 91.531C304.989 91.531 305.379 91.193 305.379 90.738C305.379 90.322 305.08 90.023 304.196 89.646L303.546 89.373C301.947 88.697 301.505 87.891 301.505 86.877C301.505 85.473 302.571 84.355 304.638 84.355C305.457 84.355 306.198 84.459 306.666 84.693C306.731 84.732 306.744 84.784 306.744 84.862V86.318C306.744 86.37 306.705 86.435 306.627 86.383C306.107 86.084 305.392 85.954 304.625 85.954C303.624 85.954 303.273 86.292 303.273 86.721C303.273 87.124 303.546 87.397 304.521 87.787L305.002 87.982C306.731 88.697 307.212 89.516 307.212 90.569C307.212 92.142 305.938 93.13 303.936 93.13ZM313.972 86.643V91.557C313.972 92.22 314.024 92.623 314.05 92.896C314.063 92.974 314.024 93 313.933 93H312.555C312.451 93 312.425 92.974 312.399 92.909C312.373 92.792 312.334 92.623 312.321 92.506C311.749 93 311.099 93.13 310.54 93.13C309.24 93.13 308.343 92.415 308.343 90.621V86.643C308.343 86.552 308.369 86.539 308.46 86.539H310.046C310.124 86.539 310.137 86.565 310.137 86.643V90.413C310.137 91.115 310.436 91.57 311.151 91.57C311.58 91.57 311.879 91.44 312.165 91.193V86.643C312.165 86.565 312.204 86.539 312.295 86.539H313.868C313.959 86.539 313.972 86.565 313.972 86.643ZM315.542 92.883V86.643C315.542 86.578 315.568 86.539 315.646 86.539H317.245C317.323 86.539 317.349 86.565 317.349 86.643V92.883C317.349 92.961 317.336 93 317.232 93H315.672C315.581 93 315.542 92.961 315.542 92.883ZM316.452 85.85C315.841 85.85 315.451 85.447 315.451 84.836C315.451 84.251 315.88 83.835 316.465 83.835C317.089 83.835 317.466 84.251 317.466 84.836C317.466 85.447 317.063 85.85 316.452 85.85ZM322.231 91.7V92.779C322.231 92.857 322.218 92.922 322.14 92.948C321.776 93.078 321.438 93.13 320.983 93.13C319.852 93.13 319.189 92.571 319.189 91.271V88.047H318.409C318.331 88.034 318.305 88.008 318.305 87.93V86.656C318.305 86.565 318.331 86.539 318.422 86.539H319.202C319.215 86.097 319.267 85.33 319.332 84.966C319.345 84.901 319.384 84.862 319.449 84.849L320.97 84.654C321.035 84.641 321.074 84.641 321.074 84.732C321.035 85.135 321.009 85.902 321.009 86.539H322.205C322.283 86.539 322.309 86.565 322.309 86.643V87.956C322.309 88.021 322.283 88.034 322.218 88.047H320.996V90.829C320.996 91.401 321.165 91.661 321.698 91.661C321.854 91.661 321.984 91.635 322.14 91.609C322.192 91.609 322.231 91.622 322.231 91.7ZM327.277 90.244H324.742C324.807 90.985 325.327 91.596 326.601 91.596C327.186 91.596 327.706 91.505 328.2 91.297C328.239 91.271 328.278 91.284 328.278 91.362V92.597C328.278 92.688 328.252 92.727 328.187 92.753C327.667 93 327.095 93.13 326.198 93.13C323.754 93.13 322.896 91.453 322.896 89.841C322.896 88.047 324.001 86.409 326.042 86.409C328.005 86.409 328.785 87.93 328.785 89.217C328.785 89.62 328.759 89.945 328.72 90.088C328.707 90.153 328.681 90.179 328.616 90.192C328.447 90.218 327.953 90.244 327.277 90.244ZM324.729 88.983H326.432C326.848 88.983 327.03 88.97 327.082 88.957C327.082 88.931 327.082 88.879 327.082 88.866C327.082 88.554 326.835 87.839 325.977 87.839C325.158 87.839 324.807 88.45 324.729 88.983Z" fill="#666666"/>
<path d="M295.481 105.529H294.623C294.558 105.529 294.519 105.516 294.519 105.438V104.073C294.519 103.995 294.532 103.943 294.61 103.943H295.325C296.183 103.943 296.651 103.709 296.651 103.137C296.651 102.591 296.183 102.253 295.273 102.253C294.584 102.253 293.999 102.409 293.388 102.721C293.31 102.76 293.297 102.734 293.297 102.682V101.304C293.297 101.239 293.284 101.213 293.362 101.161C293.96 100.849 294.74 100.667 295.624 100.667C297.327 100.667 298.419 101.525 298.419 102.89C298.419 103.748 297.86 104.333 297.327 104.567C297.977 104.801 298.796 105.347 298.796 106.582C298.796 108.233 297.262 109.13 295.468 109.13C294.623 109.13 293.895 109.026 293.284 108.727C293.193 108.688 293.193 108.61 293.193 108.545V107.063C293.193 106.998 293.258 106.985 293.31 107.011C294.051 107.375 294.675 107.544 295.39 107.544C296.508 107.544 296.937 107.102 296.937 106.517C296.937 105.88 296.495 105.529 295.481 105.529Z" fill="#666666"/>
<path d="M336 52H256C251.582 52 248 55.5817 248 60V132C248 136.418 251.582 140 256 140H336C340.418 140 344 136.418 344 132V60C344 55.5817 340.418 52 336 52Z" fill="#EFF1F5"/>
<path d="M336 52.5H256C251.858 52.5 248.5 55.8579 248.5 60V132C248.5 136.142 251.858 139.5 256 139.5H336C340.142 139.5 343.5 136.142 343.5 132V60C343.5 55.8579 340.142 52.5 336 52.5Z" stroke="#D6D6D6" stroke-opacity="0.49"/>
<path d="M262.467 93H260.907C260.829 93 260.803 92.974 260.803 92.883V84.628C260.803 84.563 260.816 84.498 260.894 84.498C262.064 84.472 262.558 84.459 263.611 84.459C265.769 84.459 266.978 85.382 266.978 87.059C266.978 88.138 266.302 88.97 265.353 89.347C265.782 89.932 267.251 92.142 267.654 92.844C267.693 92.922 267.706 93 267.615 93H265.73C265.613 93 265.574 92.974 265.548 92.922C265.171 92.35 264.352 90.959 263.819 90.075C263.728 89.919 263.663 89.854 263.52 89.854H262.571V92.896C262.571 92.961 262.532 93 262.467 93ZM262.571 88.32H263.572C264.547 88.32 265.171 87.93 265.171 87.163C265.171 86.37 264.521 86.032 263.559 86.032C263.13 86.032 262.766 86.045 262.571 86.058V88.32ZM272.217 90.244H269.682C269.747 90.985 270.267 91.596 271.541 91.596C272.126 91.596 272.646 91.505 273.14 91.297C273.179 91.271 273.218 91.284 273.218 91.362V92.597C273.218 92.688 273.192 92.727 273.127 92.753C272.607 93 272.035 93.13 271.138 93.13C268.694 93.13 267.836 91.453 267.836 89.841C267.836 88.047 268.941 86.409 270.982 86.409C272.945 86.409 273.725 87.93 273.725 89.217C273.725 89.62 273.699 89.945 273.66 90.088C273.647 90.153 273.621 90.179 273.556 90.192C273.387 90.218 272.893 90.244 272.217 90.244ZM269.669 88.983H271.372C271.788 88.983 271.97 88.97 272.022 88.957C272.022 88.931 272.022 88.879 272.022 88.866C272.022 88.554 271.775 87.839 270.917 87.839C270.098 87.839 269.747 88.45 269.669 88.983ZM277.622 86.409C279.884 86.409 280.911 87.943 280.911 89.568C280.911 91.947 278.961 93.13 276.933 93.13C276.868 93.13 276.777 93.13 276.686 93.117V95.327C276.686 95.392 276.673 95.431 276.582 95.444C276.049 95.496 275.048 95.587 274.97 95.6C274.892 95.6 274.879 95.574 274.879 95.509V87.865C274.879 87.683 274.853 87.202 274.84 87.007C274.84 86.994 274.84 86.955 274.892 86.942C275.555 86.721 276.491 86.409 277.622 86.409ZM277.466 87.943C277.167 87.943 276.946 87.969 276.686 88.047V91.596C276.79 91.622 276.985 91.622 277.102 91.622C277.999 91.622 279.052 91.102 279.052 89.685C279.052 88.567 278.48 87.943 277.466 87.943ZM284.987 86.409C287.08 86.409 288.159 87.982 288.159 89.737C288.159 91.778 286.833 93.13 284.961 93.13C282.738 93.13 281.75 91.453 281.75 89.776C281.75 87.93 282.985 86.409 284.987 86.409ZM284.909 87.917C284.155 87.917 283.583 88.593 283.583 89.75C283.583 90.894 284.116 91.622 284.987 91.622C285.741 91.622 286.313 90.972 286.313 89.776C286.313 88.762 285.897 87.917 284.909 87.917ZM289.339 86.539H290.756C290.847 86.539 290.886 86.578 290.912 86.656C290.977 86.825 291.042 87.098 291.055 87.384C291.484 86.877 292.199 86.409 293.122 86.409C293.2 86.409 293.226 86.435 293.226 86.513V88.112C293.226 88.177 293.2 88.203 293.109 88.203C292.173 88.164 291.419 88.45 291.146 88.762L291.133 92.896C291.133 92.974 291.107 93 291.016 93H289.456C289.352 93 289.326 92.961 289.326 92.883V88.398C289.326 87.839 289.313 87.085 289.261 86.63C289.261 86.565 289.274 86.539 289.339 86.539ZM297.856 91.7V92.779C297.856 92.857 297.843 92.922 297.765 92.948C297.401 93.078 297.063 93.13 296.608 93.13C295.477 93.13 294.814 92.571 294.814 91.271V88.047H294.034C293.956 88.034 293.93 88.008 293.93 87.93V86.656C293.93 86.565 293.956 86.539 294.047 86.539H294.827C294.84 86.097 294.892 85.33 294.957 84.966C294.97 84.901 295.009 84.862 295.074 84.849L296.595 84.654C296.66 84.641 296.699 84.641 296.699 84.732C296.66 85.135 296.634 85.902 296.634 86.539H297.83C297.908 86.539 297.934 86.565 297.934 86.643V87.956C297.934 88.021 297.908 88.034 297.843 88.047H296.621V90.829C296.621 91.401 296.79 91.661 297.323 91.661C297.479 91.661 297.609 91.635 297.765 91.609C297.817 91.609 297.856 91.622 297.856 91.7ZM303.936 93.13C302.974 93.13 302.181 92.961 301.635 92.675C301.57 92.636 301.544 92.571 301.544 92.467V90.92C301.544 90.855 301.596 90.816 301.648 90.855C302.363 91.31 303.221 91.531 304.001 91.531C304.989 91.531 305.379 91.193 305.379 90.738C305.379 90.322 305.08 90.023 304.196 89.646L303.546 89.373C301.947 88.697 301.505 87.891 301.505 86.877C301.505 85.473 302.571 84.355 304.638 84.355C305.457 84.355 306.198 84.459 306.666 84.693C306.731 84.732 306.744 84.784 306.744 84.862V86.318C306.744 86.37 306.705 86.435 306.627 86.383C306.107 86.084 305.392 85.954 304.625 85.954C303.624 85.954 303.273 86.292 303.273 86.721C303.273 87.124 303.546 87.397 304.521 87.787L305.002 87.982C306.731 88.697 307.212 89.516 307.212 90.569C307.212 92.142 305.938 93.13 303.936 93.13ZM313.972 86.643V91.557C313.972 92.22 314.024 92.623 314.05 92.896C314.063 92.974 314.024 93 313.933 93H312.555C312.451 93 312.425 92.974 312.399 92.909C312.373 92.792 312.334 92.623 312.321 92.506C311.749 93 311.099 93.13 310.54 93.13C309.24 93.13 308.343 92.415 308.343 90.621V86.643C308.343 86.552 308.369 86.539 308.46 86.539H310.046C310.124 86.539 310.137 86.565 310.137 86.643V90.413C310.137 91.115 310.436 91.57 311.151 91.57C311.58 91.57 311.879 91.44 312.165 91.193V86.643C312.165 86.565 312.204 86.539 312.295 86.539H313.868C313.959 86.539 313.972 86.565 313.972 86.643ZM315.542 92.883V86.643C315.542 86.578 315.568 86.539 315.646 86.539H317.245C317.323 86.539 317.349 86.565 317.349 86.643V92.883C317.349 92.961 317.336 93 317.232 93H315.672C315.581 93 315.542 92.961 315.542 92.883ZM316.452 85.85C315.841 85.85 315.451 85.447 315.451 84.836C315.451 84.251 315.88 83.835 316.465 83.835C317.089 83.835 317.466 84.251 317.466 84.836C317.466 85.447 317.063 85.85 316.452 85.85ZM322.231 91.7V92.779C322.231 92.857 322.218 92.922 322.14 92.948C321.776 93.078 321.438 93.13 320.983 93.13C319.852 93.13 319.189 92.571 319.189 91.271V88.047H318.409C318.331 88.034 318.305 88.008 318.305 87.93V86.656C318.305 86.565 318.331 86.539 318.422 86.539H319.202C319.215 86.097 319.267 85.33 319.332 84.966C319.345 84.901 319.384 84.862 319.449 84.849L320.97 84.654C321.035 84.641 321.074 84.641 321.074 84.732C321.035 85.135 321.009 85.902 321.009 86.539H322.205C322.283 86.539 322.309 86.565 322.309 86.643V87.956C322.309 88.021 322.283 88.034 322.218 88.047H320.996V90.829C320.996 91.401 321.165 91.661 321.698 91.661C321.854 91.661 321.984 91.635 322.14 91.609C322.192 91.609 322.231 91.622 322.231 91.7ZM327.277 90.244H324.742C324.807 90.985 325.327 91.596 326.601 91.596C327.186 91.596 327.706 91.505 328.2 91.297C328.239 91.271 328.278 91.284 328.278 91.362V92.597C328.278 92.688 328.252 92.727 328.187 92.753C327.667 93 327.095 93.13 326.198 93.13C323.754 93.13 322.896 91.453 322.896 89.841C322.896 88.047 324.001 86.409 326.042 86.409C328.005 86.409 328.785 87.93 328.785 89.217C328.785 89.62 328.759 89.945 328.72 90.088C328.707 90.153 328.681 90.179 328.616 90.192C328.447 90.218 327.953 90.244 327.277 90.244ZM324.729 88.983H326.432C326.848 88.983 327.03 88.97 327.082 88.957C327.082 88.931 327.082 88.879 327.082 88.866C327.082 88.554 326.835 87.839 325.977 87.839C325.158 87.839 324.807 88.45 324.729 88.983Z" fill="#666666"/>
<path d="M295.481 105.529H294.623C294.558 105.529 294.519 105.516 294.519 105.438V104.073C294.519 103.995 294.532 103.943 294.61 103.943H295.325C296.183 103.943 296.651 103.709 296.651 103.137C296.651 102.591 296.183 102.253 295.273 102.253C294.584 102.253 293.999 102.409 293.388 102.721C293.31 102.76 293.297 102.734 293.297 102.682V101.304C293.297 101.239 293.284 101.213 293.362 101.161C293.96 100.849 294.74 100.667 295.624 100.667C297.327 100.667 298.419 101.525 298.419 102.89C298.419 103.748 297.86 104.333 297.327 104.567C297.977 104.801 298.796 105.347 298.796 106.582C298.796 108.233 297.262 109.13 295.468 109.13C294.623 109.13 293.895 109.026 293.284 108.727C293.193 108.688 293.193 108.61 293.193 108.545V107.063C293.193 106.998 293.258 106.985 293.31 107.011C294.051 107.375 294.675 107.544 295.39 107.544C296.508 107.544 296.937 107.102 296.937 106.517C296.937 105.88 296.495 105.529 295.481 105.529Z" fill="#666666"/>
<path d="M442 52H362C357.582 52 354 55.5817 354 60V132C354 136.418 357.582 140 362 140H442C446.418 140 450 136.418 450 132V60C450 55.5817 446.418 52 442 52Z" fill="#EFF1F5"/>
<path d="M442 52.5H362C357.858 52.5 354.5 55.8579 354.5 60V132C354.5 136.142 357.858 139.5 362 139.5H442C446.142 139.5 449.5 136.142 449.5 132V60C449.5 55.8579 446.142 52.5 442 52.5Z" stroke="#D6D6D6" stroke-opacity="0.49"/>
<path d="M368.467 93H366.907C366.829 93 366.803 92.974 366.803 92.883V84.628C366.803 84.563 366.816 84.498 366.894 84.498C368.064 84.472 368.558 84.459 369.611 84.459C371.769 84.459 372.978 85.382 372.978 87.059C372.978 88.138 372.302 88.97 371.353 89.347C371.782 89.932 373.251 92.142 373.654 92.844C373.693 92.922 373.706 93 373.615 93H371.73C371.613 93 371.574 92.974 371.548 92.922C371.171 92.35 370.352 90.959 369.819 90.075C369.728 89.919 369.663 89.854 369.52 89.854H368.571V92.896C368.571 92.961 368.532 93 368.467 93ZM368.571 88.32H369.572C370.547 88.32 371.171 87.93 371.171 87.163C371.171 86.37 370.521 86.032 369.559 86.032C369.13 86.032 368.766 86.045 368.571 86.058V88.32ZM378.217 90.244H375.682C375.747 90.985 376.267 91.596 377.541 91.596C378.126 91.596 378.646 91.505 379.14 91.297C379.179 91.271 379.218 91.284 379.218 91.362V92.597C379.218 92.688 379.192 92.727 379.127 92.753C378.607 93 378.035 93.13 377.138 93.13C374.694 93.13 373.836 91.453 373.836 89.841C373.836 88.047 374.941 86.409 376.982 86.409C378.945 86.409 379.725 87.93 379.725 89.217C379.725 89.62 379.699 89.945 379.66 90.088C379.647 90.153 379.621 90.179 379.556 90.192C379.387 90.218 378.893 90.244 378.217 90.244ZM375.669 88.983H377.372C377.788 88.983 377.97 88.97 378.022 88.957C378.022 88.931 378.022 88.879 378.022 88.866C378.022 88.554 377.775 87.839 376.917 87.839C376.098 87.839 375.747 88.45 375.669 88.983ZM383.622 86.409C385.884 86.409 386.911 87.943 386.911 89.568C386.911 91.947 384.961 93.13 382.933 93.13C382.868 93.13 382.777 93.13 382.686 93.117V95.327C382.686 95.392 382.673 95.431 382.582 95.444C382.049 95.496 381.048 95.587 380.97 95.6C380.892 95.6 380.879 95.574 380.879 95.509V87.865C380.879 87.683 380.853 87.202 380.84 87.007C380.84 86.994 380.84 86.955 380.892 86.942C381.555 86.721 382.491 86.409 383.622 86.409ZM383.466 87.943C383.167 87.943 382.946 87.969 382.686 88.047V91.596C382.79 91.622 382.985 91.622 383.102 91.622C383.999 91.622 385.052 91.102 385.052 89.685C385.052 88.567 384.48 87.943 383.466 87.943ZM390.987 86.409C393.08 86.409 394.159 87.982 394.159 89.737C394.159 91.778 392.833 93.13 390.961 93.13C388.738 93.13 387.75 91.453 387.75 89.776C387.75 87.93 388.985 86.409 390.987 86.409ZM390.909 87.917C390.155 87.917 389.583 88.593 389.583 89.75C389.583 90.894 390.116 91.622 390.987 91.622C391.741 91.622 392.313 90.972 392.313 89.776C392.313 88.762 391.897 87.917 390.909 87.917ZM395.339 86.539H396.756C396.847 86.539 396.886 86.578 396.912 86.656C396.977 86.825 397.042 87.098 397.055 87.384C397.484 86.877 398.199 86.409 399.122 86.409C399.2 86.409 399.226 86.435 399.226 86.513V88.112C399.226 88.177 399.2 88.203 399.109 88.203C398.173 88.164 397.419 88.45 397.146 88.762L397.133 92.896C397.133 92.974 397.107 93 397.016 93H395.456C395.352 93 395.326 92.961 395.326 92.883V88.398C395.326 87.839 395.313 87.085 395.261 86.63C395.261 86.565 395.274 86.539 395.339 86.539ZM403.856 91.7V92.779C403.856 92.857 403.843 92.922 403.765 92.948C403.401 93.078 403.063 93.13 402.608 93.13C401.477 93.13 400.814 92.571 400.814 91.271V88.047H400.034C399.956 88.034 399.93 88.008 399.93 87.93V86.656C399.93 86.565 399.956 86.539 400.047 86.539H400.827C400.84 86.097 400.892 85.33 400.957 84.966C400.97 84.901 401.009 84.862 401.074 84.849L402.595 84.654C402.66 84.641 402.699 84.641 402.699 84.732C402.66 85.135 402.634 85.902 402.634 86.539H403.83C403.908 86.539 403.934 86.565 403.934 86.643V87.956C403.934 88.021 403.908 88.034 403.843 88.047H402.621V90.829C402.621 91.401 402.79 91.661 403.323 91.661C403.479 91.661 403.609 91.635 403.765 91.609C403.817 91.609 403.856 91.622 403.856 91.7ZM409.936 93.13C408.974 93.13 408.181 92.961 407.635 92.675C407.57 92.636 407.544 92.571 407.544 92.467V90.92C407.544 90.855 407.596 90.816 407.648 90.855C408.363 91.31 409.221 91.531 410.001 91.531C410.989 91.531 411.379 91.193 411.379 90.738C411.379 90.322 411.08 90.023 410.196 89.646L409.546 89.373C407.947 88.697 407.505 87.891 407.505 86.877C407.505 85.473 408.571 84.355 410.638 84.355C411.457 84.355 412.198 84.459 412.666 84.693C412.731 84.732 412.744 84.784 412.744 84.862V86.318C412.744 86.37 412.705 86.435 412.627 86.383C412.107 86.084 411.392 85.954 410.625 85.954C409.624 85.954 409.273 86.292 409.273 86.721C409.273 87.124 409.546 87.397 410.521 87.787L411.002 87.982C412.731 88.697 413.212 89.516 413.212 90.569C413.212 92.142 411.938 93.13 409.936 93.13ZM419.972 86.643V91.557C419.972 92.22 420.024 92.623 420.05 92.896C420.063 92.974 420.024 93 419.933 93H418.555C418.451 93 418.425 92.974 418.399 92.909C418.373 92.792 418.334 92.623 418.321 92.506C417.749 93 417.099 93.13 416.54 93.13C415.24 93.13 414.343 92.415 414.343 90.621V86.643C414.343 86.552 414.369 86.539 414.46 86.539H416.046C416.124 86.539 416.137 86.565 416.137 86.643V90.413C416.137 91.115 416.436 91.57 417.151 91.57C417.58 91.57 417.879 91.44 418.165 91.193V86.643C418.165 86.565 418.204 86.539 418.295 86.539H419.868C419.959 86.539 419.972 86.565 419.972 86.643ZM421.542 92.883V86.643C421.542 86.578 421.568 86.539 421.646 86.539H423.245C423.323 86.539 423.349 86.565 423.349 86.643V92.883C423.349 92.961 423.336 93 423.232 93H421.672C421.581 93 421.542 92.961 421.542 92.883ZM422.452 85.85C421.841 85.85 421.451 85.447 421.451 84.836C421.451 84.251 421.88 83.835 422.465 83.835C423.089 83.835 423.466 84.251 423.466 84.836C423.466 85.447 423.063 85.85 422.452 85.85ZM428.231 91.7V92.779C428.231 92.857 428.218 92.922 428.14 92.948C427.776 93.078 427.438 93.13 426.983 93.13C425.852 93.13 425.189 92.571 425.189 91.271V88.047H424.409C424.331 88.034 424.305 88.008 424.305 87.93V86.656C424.305 86.565 424.331 86.539 424.422 86.539H425.202C425.215 86.097 425.267 85.33 425.332 84.966C425.345 84.901 425.384 84.862 425.449 84.849L426.97 84.654C427.035 84.641 427.074 84.641 427.074 84.732C427.035 85.135 427.009 85.902 427.009 86.539H428.205C428.283 86.539 428.309 86.565 428.309 86.643V87.956C428.309 88.021 428.283 88.034 428.218 88.047H426.996V90.829C426.996 91.401 427.165 91.661 427.698 91.661C427.854 91.661 427.984 91.635 428.14 91.609C428.192 91.609 428.231 91.622 428.231 91.7ZM433.277 90.244H430.742C430.807 90.985 431.327 91.596 432.601 91.596C433.186 91.596 433.706 91.505 434.2 91.297C434.239 91.271 434.278 91.284 434.278 91.362V92.597C434.278 92.688 434.252 92.727 434.187 92.753C433.667 93 433.095 93.13 432.198 93.13C429.754 93.13 428.896 91.453 428.896 89.841C428.896 88.047 430.001 86.409 432.042 86.409C434.005 86.409 434.785 87.93 434.785 89.217C434.785 89.62 434.759 89.945 434.72 90.088C434.707 90.153 434.681 90.179 434.616 90.192C434.447 90.218 433.953 90.244 433.277 90.244ZM430.729 88.983H432.432C432.848 88.983 433.03 88.97 433.082 88.957C433.082 88.931 433.082 88.879 433.082 88.866C433.082 88.554 432.835 87.839 431.977 87.839C431.158 87.839 430.807 88.45 430.729 88.983Z" fill="#666666"/>
<path d="M402.552 107.128H398.912C398.821 107.128 398.808 107.102 398.808 107.05V105.88C398.808 105.789 398.821 105.763 398.873 105.685L402.071 100.888C402.123 100.81 402.162 100.797 402.279 100.797H404.151C404.229 100.797 404.255 100.81 404.255 100.901V105.672H405.217C405.308 105.672 405.321 105.724 405.308 105.776L405.126 107.063C405.1 107.102 405.087 107.128 405.009 107.128H404.255V108.896C404.255 108.961 404.229 109 404.164 109H402.656C402.591 109 402.552 108.948 402.552 108.896V107.128ZM402.552 105.672V104.736C402.552 103.696 402.604 102.903 402.63 102.435H402.617C402.279 103.124 401.018 105.1 400.654 105.672H402.552Z" fill="#666666"/>
<path d="M548 52H468C463.582 52 460 55.5817 460 60V132C460 136.418 463.582 140 468 140H548C552.418 140 556 136.418 556 132V60C556 55.5817 552.418 52 548 52Z" fill="#EFF1F5"/>
<path d="M548 52.5H468C463.858 52.5 460.5 55.8579 460.5 60V132C460.5 136.142 463.858 139.5 468 139.5H548C552.142 139.5 555.5 136.142 555.5 132V60C555.5 55.8579 552.142 52.5 548 52.5Z" stroke="#D6D6D6" stroke-opacity="0.49"/>
<path d="M474.467 93H472.907C472.829 93 472.803 92.974 472.803 92.883V84.628C472.803 84.563 472.816 84.498 472.894 84.498C474.064 84.472 474.558 84.459 475.611 84.459C477.769 84.459 478.978 85.382 478.978 87.059C478.978 88.138 478.302 88.97 477.353 89.347C477.782 89.932 479.251 92.142 479.654 92.844C479.693 92.922 479.706 93 479.615 93H477.73C477.613 93 477.574 92.974 477.548 92.922C477.171 92.35 476.352 90.959 475.819 90.075C475.728 89.919 475.663 89.854 475.52 89.854H474.571V92.896C474.571 92.961 474.532 93 474.467 93ZM474.571 88.32H475.572C476.547 88.32 477.171 87.93 477.171 87.163C477.171 86.37 476.521 86.032 475.559 86.032C475.13 86.032 474.766 86.045 474.571 86.058V88.32ZM484.217 90.244H481.682C481.747 90.985 482.267 91.596 483.541 91.596C484.126 91.596 484.646 91.505 485.14 91.297C485.179 91.271 485.218 91.284 485.218 91.362V92.597C485.218 92.688 485.192 92.727 485.127 92.753C484.607 93 484.035 93.13 483.138 93.13C480.694 93.13 479.836 91.453 479.836 89.841C479.836 88.047 480.941 86.409 482.982 86.409C484.945 86.409 485.725 87.93 485.725 89.217C485.725 89.62 485.699 89.945 485.66 90.088C485.647 90.153 485.621 90.179 485.556 90.192C485.387 90.218 484.893 90.244 484.217 90.244ZM481.669 88.983H483.372C483.788 88.983 483.97 88.97 484.022 88.957C484.022 88.931 484.022 88.879 484.022 88.866C484.022 88.554 483.775 87.839 482.917 87.839C482.098 87.839 481.747 88.45 481.669 88.983ZM489.622 86.409C491.884 86.409 492.911 87.943 492.911 89.568C492.911 91.947 490.961 93.13 488.933 93.13C488.868 93.13 488.777 93.13 488.686 93.117V95.327C488.686 95.392 488.673 95.431 488.582 95.444C488.049 95.496 487.048 95.587 486.97 95.6C486.892 95.6 486.879 95.574 486.879 95.509V87.865C486.879 87.683 486.853 87.202 486.84 87.007C486.84 86.994 486.84 86.955 486.892 86.942C487.555 86.721 488.491 86.409 489.622 86.409ZM489.466 87.943C489.167 87.943 488.946 87.969 488.686 88.047V91.596C488.79 91.622 488.985 91.622 489.102 91.622C489.999 91.622 491.052 91.102 491.052 89.685C491.052 88.567 490.48 87.943 489.466 87.943ZM496.987 86.409C499.08 86.409 500.159 87.982 500.159 89.737C500.159 91.778 498.833 93.13 496.961 93.13C494.738 93.13 493.75 91.453 493.75 89.776C493.75 87.93 494.985 86.409 496.987 86.409ZM496.909 87.917C496.155 87.917 495.583 88.593 495.583 89.75C495.583 90.894 496.116 91.622 496.987 91.622C497.741 91.622 498.313 90.972 498.313 89.776C498.313 88.762 497.897 87.917 496.909 87.917ZM501.339 86.539H502.756C502.847 86.539 502.886 86.578 502.912 86.656C502.977 86.825 503.042 87.098 503.055 87.384C503.484 86.877 504.199 86.409 505.122 86.409C505.2 86.409 505.226 86.435 505.226 86.513V88.112C505.226 88.177 505.2 88.203 505.109 88.203C504.173 88.164 503.419 88.45 503.146 88.762L503.133 92.896C503.133 92.974 503.107 93 503.016 93H501.456C501.352 93 501.326 92.961 501.326 92.883V88.398C501.326 87.839 501.313 87.085 501.261 86.63C501.261 86.565 501.274 86.539 501.339 86.539ZM509.856 91.7V92.779C509.856 92.857 509.843 92.922 509.765 92.948C509.401 93.078 509.063 93.13 508.608 93.13C507.477 93.13 506.814 92.571 506.814 91.271V88.047H506.034C505.956 88.034 505.93 88.008 505.93 87.93V86.656C505.93 86.565 505.956 86.539 506.047 86.539H506.827C506.84 86.097 506.892 85.33 506.957 84.966C506.97 84.901 507.009 84.862 507.074 84.849L508.595 84.654C508.66 84.641 508.699 84.641 508.699 84.732C508.66 85.135 508.634 85.902 508.634 86.539H509.83C509.908 86.539 509.934 86.565 509.934 86.643V87.956C509.934 88.021 509.908 88.034 509.843 88.047H508.621V90.829C508.621 91.401 508.79 91.661 509.323 91.661C509.479 91.661 509.609 91.635 509.765 91.609C509.817 91.609 509.856 91.622 509.856 91.7ZM515.936 93.13C514.974 93.13 514.181 92.961 513.635 92.675C513.57 92.636 513.544 92.571 513.544 92.467V90.92C513.544 90.855 513.596 90.816 513.648 90.855C514.363 91.31 515.221 91.531 516.001 91.531C516.989 91.531 517.379 91.193 517.379 90.738C517.379 90.322 517.08 90.023 516.196 89.646L515.546 89.373C513.947 88.697 513.505 87.891 513.505 86.877C513.505 85.473 514.571 84.355 516.638 84.355C517.457 84.355 518.198 84.459 518.666 84.693C518.731 84.732 518.744 84.784 518.744 84.862V86.318C518.744 86.37 518.705 86.435 518.627 86.383C518.107 86.084 517.392 85.954 516.625 85.954C515.624 85.954 515.273 86.292 515.273 86.721C515.273 87.124 515.546 87.397 516.521 87.787L517.002 87.982C518.731 88.697 519.212 89.516 519.212 90.569C519.212 92.142 517.938 93.13 515.936 93.13ZM525.972 86.643V91.557C525.972 92.22 526.024 92.623 526.05 92.896C526.063 92.974 526.024 93 525.933 93H524.555C524.451 93 524.425 92.974 524.399 92.909C524.373 92.792 524.334 92.623 524.321 92.506C523.749 93 523.099 93.13 522.54 93.13C521.24 93.13 520.343 92.415 520.343 90.621V86.643C520.343 86.552 520.369 86.539 520.46 86.539H522.046C522.124 86.539 522.137 86.565 522.137 86.643V90.413C522.137 91.115 522.436 91.57 523.151 91.57C523.58 91.57 523.879 91.44 524.165 91.193V86.643C524.165 86.565 524.204 86.539 524.295 86.539H525.868C525.959 86.539 525.972 86.565 525.972 86.643ZM527.542 92.883V86.643C527.542 86.578 527.568 86.539 527.646 86.539H529.245C529.323 86.539 529.349 86.565 529.349 86.643V92.883C529.349 92.961 529.336 93 529.232 93H527.672C527.581 93 527.542 92.961 527.542 92.883ZM528.452 85.85C527.841 85.85 527.451 85.447 527.451 84.836C527.451 84.251 527.88 83.835 528.465 83.835C529.089 83.835 529.466 84.251 529.466 84.836C529.466 85.447 529.063 85.85 528.452 85.85ZM534.231 91.7V92.779C534.231 92.857 534.218 92.922 534.14 92.948C533.776 93.078 533.438 93.13 532.983 93.13C531.852 93.13 531.189 92.571 531.189 91.271V88.047H530.409C530.331 88.034 530.305 88.008 530.305 87.93V86.656C530.305 86.565 530.331 86.539 530.422 86.539H531.202C531.215 86.097 531.267 85.33 531.332 84.966C531.345 84.901 531.384 84.862 531.449 84.849L532.97 84.654C533.035 84.641 533.074 84.641 533.074 84.732C533.035 85.135 533.009 85.902 533.009 86.539H534.205C534.283 86.539 534.309 86.565 534.309 86.643V87.956C534.309 88.021 534.283 88.034 534.218 88.047H532.996V90.829C532.996 91.401 533.165 91.661 533.698 91.661C533.854 91.661 533.984 91.635 534.14 91.609C534.192 91.609 534.231 91.622 534.231 91.7ZM539.277 90.244H536.742C536.807 90.985 537.327 91.596 538.601 91.596C539.186 91.596 539.706 91.505 540.2 91.297C540.239 91.271 540.278 91.284 540.278 91.362V92.597C540.278 92.688 540.252 92.727 540.187 92.753C539.667 93 539.095 93.13 538.198 93.13C535.754 93.13 534.896 91.453 534.896 89.841C534.896 88.047 536.001 86.409 538.042 86.409C540.005 86.409 540.785 87.93 540.785 89.217C540.785 89.62 540.759 89.945 540.72 90.088C540.707 90.153 540.681 90.179 540.616 90.192C540.447 90.218 539.953 90.244 539.277 90.244ZM536.729 88.983H538.432C538.848 88.983 539.03 88.97 539.082 88.957C539.082 88.931 539.082 88.879 539.082 88.866C539.082 88.554 538.835 87.839 537.977 87.839C537.158 87.839 536.807 88.45 536.729 88.983Z" fill="#666666"/>
<path d="M509.995 102.37H507.356C507.278 102.682 507.135 103.254 507.07 103.54C509.748 103.839 510.775 104.84 510.775 106.387C510.775 108.051 509.462 109.13 507.499 109.13C506.667 109.13 505.926 108.987 505.38 108.727C505.315 108.701 505.289 108.662 505.289 108.571V107.102C505.289 107.037 505.354 107.011 505.393 107.037C505.952 107.336 506.706 107.544 507.486 107.544C508.552 107.544 508.955 107.102 508.955 106.504C508.955 105.568 507.941 105.152 505.471 104.931C505.406 104.931 505.341 104.918 505.341 104.84V104.112C505.432 103.709 506.212 100.953 506.238 100.888C506.264 100.823 506.29 100.797 506.368 100.797H510.437C510.515 100.797 510.541 100.823 510.515 100.901L510.125 102.279C510.112 102.344 510.086 102.37 509.995 102.37Z" fill="#666666"/>
<path d="M654 52H574C569.582 52 566 55.5817 566 60V132C566 136.418 569.582 140 574 140H654C658.418 140 662 136.418 662 132V60C662 55.5817 658.418 52 654 52Z" fill="#EFF1F5"/>
<path d="M654 52.5H574C569.858 52.5 566.5 55.8579 566.5 60V132C566.5 136.142 569.858 139.5 574 139.5H654C658.142 139.5 661.5 136.142 661.5 132V60C661.5 55.8579 658.142 52.5 654 52.5Z" stroke="#D6D6D6" stroke-opacity="0.49"/>
<path d="M580.467 93H578.907C578.829 93 578.803 92.974 578.803 92.883V84.628C578.803 84.563 578.816 84.498 578.894 84.498C580.064 84.472 580.558 84.459 581.611 84.459C583.769 84.459 584.978 85.382 584.978 87.059C584.978 88.138 584.302 88.97 583.353 89.347C583.782 89.932 585.251 92.142 585.654 92.844C585.693 92.922 585.706 93 585.615 93H583.73C583.613 93 583.574 92.974 583.548 92.922C583.171 92.35 582.352 90.959 581.819 90.075C581.728 89.919 581.663 89.854 581.52 89.854H580.571V92.896C580.571 92.961 580.532 93 580.467 93ZM580.571 88.32H581.572C582.547 88.32 583.171 87.93 583.171 87.163C583.171 86.37 582.521 86.032 581.559 86.032C581.13 86.032 580.766 86.045 580.571 86.058V88.32ZM590.217 90.244H587.682C587.747 90.985 588.267 91.596 589.541 91.596C590.126 91.596 590.646 91.505 591.14 91.297C591.179 91.271 591.218 91.284 591.218 91.362V92.597C591.218 92.688 591.192 92.727 591.127 92.753C590.607 93 590.035 93.13 589.138 93.13C586.694 93.13 585.836 91.453 585.836 89.841C585.836 88.047 586.941 86.409 588.982 86.409C590.945 86.409 591.725 87.93 591.725 89.217C591.725 89.62 591.699 89.945 591.66 90.088C591.647 90.153 591.621 90.179 591.556 90.192C591.387 90.218 590.893 90.244 590.217 90.244ZM587.669 88.983H589.372C589.788 88.983 589.97 88.97 590.022 88.957C590.022 88.931 590.022 88.879 590.022 88.866C590.022 88.554 589.775 87.839 588.917 87.839C588.098 87.839 587.747 88.45 587.669 88.983ZM595.622 86.409C597.884 86.409 598.911 87.943 598.911 89.568C598.911 91.947 596.961 93.13 594.933 93.13C594.868 93.13 594.777 93.13 594.686 93.117V95.327C594.686 95.392 594.673 95.431 594.582 95.444C594.049 95.496 593.048 95.587 592.97 95.6C592.892 95.6 592.879 95.574 592.879 95.509V87.865C592.879 87.683 592.853 87.202 592.84 87.007C592.84 86.994 592.84 86.955 592.892 86.942C593.555 86.721 594.491 86.409 595.622 86.409ZM595.466 87.943C595.167 87.943 594.946 87.969 594.686 88.047V91.596C594.79 91.622 594.985 91.622 595.102 91.622C595.999 91.622 597.052 91.102 597.052 89.685C597.052 88.567 596.48 87.943 595.466 87.943ZM602.987 86.409C605.08 86.409 606.159 87.982 606.159 89.737C606.159 91.778 604.833 93.13 602.961 93.13C600.738 93.13 599.75 91.453 599.75 89.776C599.75 87.93 600.985 86.409 602.987 86.409ZM602.909 87.917C602.155 87.917 601.583 88.593 601.583 89.75C601.583 90.894 602.116 91.622 602.987 91.622C603.741 91.622 604.313 90.972 604.313 89.776C604.313 88.762 603.897 87.917 602.909 87.917ZM607.339 86.539H608.756C608.847 86.539 608.886 86.578 608.912 86.656C608.977 86.825 609.042 87.098 609.055 87.384C609.484 86.877 610.199 86.409 611.122 86.409C611.2 86.409 611.226 86.435 611.226 86.513V88.112C611.226 88.177 611.2 88.203 611.109 88.203C610.173 88.164 609.419 88.45 609.146 88.762L609.133 92.896C609.133 92.974 609.107 93 609.016 93H607.456C607.352 93 607.326 92.961 607.326 92.883V88.398C607.326 87.839 607.313 87.085 607.261 86.63C607.261 86.565 607.274 86.539 607.339 86.539ZM615.856 91.7V92.779C615.856 92.857 615.843 92.922 615.765 92.948C615.401 93.078 615.063 93.13 614.608 93.13C613.477 93.13 612.814 92.571 612.814 91.271V88.047H612.034C611.956 88.034 611.93 88.008 611.93 87.93V86.656C611.93 86.565 611.956 86.539 612.047 86.539H612.827C612.84 86.097 612.892 85.33 612.957 84.966C612.97 84.901 613.009 84.862 613.074 84.849L614.595 84.654C614.66 84.641 614.699 84.641 614.699 84.732C614.66 85.135 614.634 85.902 614.634 86.539H615.83C615.908 86.539 615.934 86.565 615.934 86.643V87.956C615.934 88.021 615.908 88.034 615.843 88.047H614.621V90.829C614.621 91.401 614.79 91.661 615.323 91.661C615.479 91.661 615.609 91.635 615.765 91.609C615.817 91.609 615.856 91.622 615.856 91.7ZM621.936 93.13C620.974 93.13 620.181 92.961 619.635 92.675C619.57 92.636 619.544 92.571 619.544 92.467V90.92C619.544 90.855 619.596 90.816 619.648 90.855C620.363 91.31 621.221 91.531 622.001 91.531C622.989 91.531 623.379 91.193 623.379 90.738C623.379 90.322 623.08 90.023 622.196 89.646L621.546 89.373C619.947 88.697 619.505 87.891 619.505 86.877C619.505 85.473 620.571 84.355 622.638 84.355C623.457 84.355 624.198 84.459 624.666 84.693C624.731 84.732 624.744 84.784 624.744 84.862V86.318C624.744 86.37 624.705 86.435 624.627 86.383C624.107 86.084 623.392 85.954 622.625 85.954C621.624 85.954 621.273 86.292 621.273 86.721C621.273 87.124 621.546 87.397 622.521 87.787L623.002 87.982C624.731 88.697 625.212 89.516 625.212 90.569C625.212 92.142 623.938 93.13 621.936 93.13ZM631.972 86.643V91.557C631.972 92.22 632.024 92.623 632.05 92.896C632.063 92.974 632.024 93 631.933 93H630.555C630.451 93 630.425 92.974 630.399 92.909C630.373 92.792 630.334 92.623 630.321 92.506C629.749 93 629.099 93.13 628.54 93.13C627.24 93.13 626.343 92.415 626.343 90.621V86.643C626.343 86.552 626.369 86.539 626.46 86.539H628.046C628.124 86.539 628.137 86.565 628.137 86.643V90.413C628.137 91.115 628.436 91.57 629.151 91.57C629.58 91.57 629.879 91.44 630.165 91.193V86.643C630.165 86.565 630.204 86.539 630.295 86.539H631.868C631.959 86.539 631.972 86.565 631.972 86.643ZM633.542 92.883V86.643C633.542 86.578 633.568 86.539 633.646 86.539H635.245C635.323 86.539 635.349 86.565 635.349 86.643V92.883C635.349 92.961 635.336 93 635.232 93H633.672C633.581 93 633.542 92.961 633.542 92.883ZM634.452 85.85C633.841 85.85 633.451 85.447 633.451 84.836C633.451 84.251 633.88 83.835 634.465 83.835C635.089 83.835 635.466 84.251 635.466 84.836C635.466 85.447 635.063 85.85 634.452 85.85ZM640.231 91.7V92.779C640.231 92.857 640.218 92.922 640.14 92.948C639.776 93.078 639.438 93.13 638.983 93.13C637.852 93.13 637.189 92.571 637.189 91.271V88.047H636.409C636.331 88.034 636.305 88.008 636.305 87.93V86.656C636.305 86.565 636.331 86.539 636.422 86.539H637.202C637.215 86.097 637.267 85.33 637.332 84.966C637.345 84.901 637.384 84.862 637.449 84.849L638.97 84.654C639.035 84.641 639.074 84.641 639.074 84.732C639.035 85.135 639.009 85.902 639.009 86.539H640.205C640.283 86.539 640.309 86.565 640.309 86.643V87.956C640.309 88.021 640.283 88.034 640.218 88.047H638.996V90.829C638.996 91.401 639.165 91.661 639.698 91.661C639.854 91.661 639.984 91.635 640.14 91.609C640.192 91.609 640.231 91.622 640.231 91.7ZM645.277 90.244H642.742C642.807 90.985 643.327 91.596 644.601 91.596C645.186 91.596 645.706 91.505 646.2 91.297C646.239 91.271 646.278 91.284 646.278 91.362V92.597C646.278 92.688 646.252 92.727 646.187 92.753C645.667 93 645.095 93.13 644.198 93.13C641.754 93.13 640.896 91.453 640.896 89.841C640.896 88.047 642.001 86.409 644.042 86.409C646.005 86.409 646.785 87.93 646.785 89.217C646.785 89.62 646.759 89.945 646.72 90.088C646.707 90.153 646.681 90.179 646.616 90.192C646.447 90.218 645.953 90.244 645.277 90.244ZM642.729 88.983H644.432C644.848 88.983 645.03 88.97 645.082 88.957C645.082 88.931 645.082 88.879 645.082 88.866C645.082 88.554 644.835 87.839 643.977 87.839C643.158 87.839 642.807 88.45 642.729 88.983Z" fill="#666666"/>
<path d="M613.928 105.087C613.408 105.087 613.005 105.23 612.706 105.412C612.693 105.49 612.68 105.672 612.68 105.789C612.68 106.92 613.226 107.583 614.097 107.583C614.851 107.583 615.306 107.102 615.306 106.361C615.306 105.568 614.786 105.087 613.928 105.087ZM616.372 100.758V102.123C616.372 102.175 616.372 102.201 616.307 102.214C614.903 102.344 613.59 102.955 613.057 103.982C613.408 103.8 613.876 103.67 614.487 103.67C615.93 103.67 617.152 104.606 617.152 106.296C617.152 107.713 616.112 109.13 614.045 109.13C611.965 109.13 610.886 107.609 610.886 105.75C610.886 102.929 613.33 100.992 616.32 100.667C616.372 100.667 616.372 100.706 616.372 100.758Z" fill="#666666"/>
<path d="M86.5 139.5V148.5" stroke="#707070"/>
<path d="M139.5 148.5V160.5" stroke="#707070"/>
<path d="M191 139.5V148.5" stroke="#707070"/>
<path d="M296 139.5V160.5" stroke="#707070"/>
<path d="M736.82 153.6C734.9 153.6 733.58 152.34 733.58 150.3C733.58 148.44 734.9 147.06 736.82 147.06C738.74 147.06 740.06 148.44 740.06 150.3C740.06 152.28 738.8 153.6 736.82 153.6ZM704.66 153.6C702.8 153.6 701.48 152.34 701.48 150.3C701.48 148.44 702.74 147.06 704.66 147.06C706.64 147.06 707.9 148.44 707.9 150.3C707.9 152.28 706.7 153.6 704.66 153.6ZM720.86 153.6C718.94 153.6 717.62 152.34 717.62 150.3C717.62 148.44 718.94 147.06 720.86 147.06C722.78 147.06 724.1 148.44 724.1 150.3C724.1 152.28 722.9 153.6 720.86 153.6Z" fill="#707070"/>
<path d="M86.5 148.5H191.5" stroke="#707070"/>
<path d="M402.5 139.5V148.5" stroke="#707070"/>
<path d="M508 148.5V160.5" stroke="#707070"/>
<path d="M508 139.5V148.5" stroke="#707070"/>
<path d="M612 139.5V148.5" stroke="#707070"/>
<path d="M402.5 148.5H507.5" stroke="#707070"/>
<path d="M507.5 148.5H612.5" stroke="#707070"/>
</g>
</g>
<defs>
<clipPath id="clip0_70_60">
<rect width="791" height="311" fill="white"/>
</clipPath>
</defs>
</svg>
