<svg width="791" height="357" viewBox="0 0 791 357" fill="none" xmlns="http://www.w3.org/2000/svg">
<g clip-path="url(#clip0_70_2)">
<mask id="mask0_70_2" style="mask-type:luminance" maskUnits="userSpaceOnUse" x="0" y="0" width="791" height="357">
<path d="M791 0H0V357H791V0Z" fill="white"/>
</mask>
<g mask="url(#mask0_70_2)">
<path d="M791 0H0V357H791V0Z" fill="white"/>
<path d="M276 53H196C191.582 53 188 56.5817 188 61V133C188 137.418 191.582 141 196 141H276C280.418 141 284 137.418 284 133V61C284 56.5817 280.418 53 276 53Z" fill="#EFF1F5"/>
<path d="M276 53.5H196C191.858 53.5 188.5 56.8579 188.5 61V133C188.5 137.142 191.858 140.5 196 140.5H276C280.142 140.5 283.5 137.142 283.5 133V61C283.5 56.8579 280.142 53.5 276 53.5Z" stroke="#D6D6D6" stroke-opacity="0.49"/>
<path d="M202.467 94H200.907C200.829 94 200.803 93.974 200.803 93.883V85.628C200.803 85.563 200.816 85.498 200.894 85.498C202.064 85.472 202.558 85.459 203.611 85.459C205.769 85.459 206.978 86.382 206.978 88.059C206.978 89.138 206.302 89.97 205.353 90.347C205.782 90.932 207.251 93.142 207.654 93.844C207.693 93.922 207.706 94 207.615 94H205.73C205.613 94 205.574 93.974 205.548 93.922C205.171 93.35 204.352 91.959 203.819 91.075C203.728 90.919 203.663 90.854 203.52 90.854H202.571V93.896C202.571 93.961 202.532 94 202.467 94ZM202.571 89.32H203.572C204.547 89.32 205.171 88.93 205.171 88.163C205.171 87.37 204.521 87.032 203.559 87.032C203.13 87.032 202.766 87.045 202.571 87.058V89.32ZM212.217 91.244H209.682C209.747 91.985 210.267 92.596 211.541 92.596C212.126 92.596 212.646 92.505 213.14 92.297C213.179 92.271 213.218 92.284 213.218 92.362V93.597C213.218 93.688 213.192 93.727 213.127 93.753C212.607 94 212.035 94.13 211.138 94.13C208.694 94.13 207.836 92.453 207.836 90.841C207.836 89.047 208.941 87.409 210.982 87.409C212.945 87.409 213.725 88.93 213.725 90.217C213.725 90.62 213.699 90.945 213.66 91.088C213.647 91.153 213.621 91.179 213.556 91.192C213.387 91.218 212.893 91.244 212.217 91.244ZM209.669 89.983H211.372C211.788 89.983 211.97 89.97 212.022 89.957C212.022 89.931 212.022 89.879 212.022 89.866C212.022 89.554 211.775 88.839 210.917 88.839C210.098 88.839 209.747 89.45 209.669 89.983ZM217.622 87.409C219.884 87.409 220.911 88.943 220.911 90.568C220.911 92.947 218.961 94.13 216.933 94.13C216.868 94.13 216.777 94.13 216.686 94.117V96.327C216.686 96.392 216.673 96.431 216.582 96.444C216.049 96.496 215.048 96.587 214.97 96.6C214.892 96.6 214.879 96.574 214.879 96.509V88.865C214.879 88.683 214.853 88.202 214.84 88.007C214.84 87.994 214.84 87.955 214.892 87.942C215.555 87.721 216.491 87.409 217.622 87.409ZM217.466 88.943C217.167 88.943 216.946 88.969 216.686 89.047V92.596C216.79 92.622 216.985 92.622 217.102 92.622C217.999 92.622 219.052 92.102 219.052 90.685C219.052 89.567 218.48 88.943 217.466 88.943ZM224.987 87.409C227.08 87.409 228.159 88.982 228.159 90.737C228.159 92.778 226.833 94.13 224.961 94.13C222.738 94.13 221.75 92.453 221.75 90.776C221.75 88.93 222.985 87.409 224.987 87.409ZM224.909 88.917C224.155 88.917 223.583 89.593 223.583 90.75C223.583 91.894 224.116 92.622 224.987 92.622C225.741 92.622 226.313 91.972 226.313 90.776C226.313 89.762 225.897 88.917 224.909 88.917ZM229.339 87.539H230.756C230.847 87.539 230.886 87.578 230.912 87.656C230.977 87.825 231.042 88.098 231.055 88.384C231.484 87.877 232.199 87.409 233.122 87.409C233.2 87.409 233.226 87.435 233.226 87.513V89.112C233.226 89.177 233.2 89.203 233.109 89.203C232.173 89.164 231.419 89.45 231.146 89.762L231.133 93.896C231.133 93.974 231.107 94 231.016 94H229.456C229.352 94 229.326 93.961 229.326 93.883V89.398C229.326 88.839 229.313 88.085 229.261 87.63C229.261 87.565 229.274 87.539 229.339 87.539ZM237.856 92.7V93.779C237.856 93.857 237.843 93.922 237.765 93.948C237.401 94.078 237.063 94.13 236.608 94.13C235.477 94.13 234.814 93.571 234.814 92.271V89.047H234.034C233.956 89.034 233.93 89.008 233.93 88.93V87.656C233.93 87.565 233.956 87.539 234.047 87.539H234.827C234.84 87.097 234.892 86.33 234.957 85.966C234.97 85.901 235.009 85.862 235.074 85.849L236.595 85.654C236.66 85.641 236.699 85.641 236.699 85.732C236.66 86.135 236.634 86.902 236.634 87.539H237.83C237.908 87.539 237.934 87.565 237.934 87.643V88.956C237.934 89.021 237.908 89.034 237.843 89.047H236.621V91.829C236.621 92.401 236.79 92.661 237.323 92.661C237.479 92.661 237.609 92.635 237.765 92.609C237.817 92.609 237.856 92.622 237.856 92.7ZM243.936 94.13C242.974 94.13 242.181 93.961 241.635 93.675C241.57 93.636 241.544 93.571 241.544 93.467V91.92C241.544 91.855 241.596 91.816 241.648 91.855C242.363 92.31 243.221 92.531 244.001 92.531C244.989 92.531 245.379 92.193 245.379 91.738C245.379 91.322 245.08 91.023 244.196 90.646L243.546 90.373C241.947 89.697 241.505 88.891 241.505 87.877C241.505 86.473 242.571 85.355 244.638 85.355C245.457 85.355 246.198 85.459 246.666 85.693C246.731 85.732 246.744 85.784 246.744 85.862V87.318C246.744 87.37 246.705 87.435 246.627 87.383C246.107 87.084 245.392 86.954 244.625 86.954C243.624 86.954 243.273 87.292 243.273 87.721C243.273 88.124 243.546 88.397 244.521 88.787L245.002 88.982C246.731 89.697 247.212 90.516 247.212 91.569C247.212 93.142 245.938 94.13 243.936 94.13ZM253.972 87.643V92.557C253.972 93.22 254.024 93.623 254.05 93.896C254.063 93.974 254.024 94 253.933 94H252.555C252.451 94 252.425 93.974 252.399 93.909C252.373 93.792 252.334 93.623 252.321 93.506C251.749 94 251.099 94.13 250.54 94.13C249.24 94.13 248.343 93.415 248.343 91.621V87.643C248.343 87.552 248.369 87.539 248.46 87.539H250.046C250.124 87.539 250.137 87.565 250.137 87.643V91.413C250.137 92.115 250.436 92.57 251.151 92.57C251.58 92.57 251.879 92.44 252.165 92.193V87.643C252.165 87.565 252.204 87.539 252.295 87.539H253.868C253.959 87.539 253.972 87.565 253.972 87.643ZM255.542 93.883V87.643C255.542 87.578 255.568 87.539 255.646 87.539H257.245C257.323 87.539 257.349 87.565 257.349 87.643V93.883C257.349 93.961 257.336 94 257.232 94H255.672C255.581 94 255.542 93.961 255.542 93.883ZM256.452 86.85C255.841 86.85 255.451 86.447 255.451 85.836C255.451 85.251 255.88 84.835 256.465 84.835C257.089 84.835 257.466 85.251 257.466 85.836C257.466 86.447 257.063 86.85 256.452 86.85ZM262.231 92.7V93.779C262.231 93.857 262.218 93.922 262.14 93.948C261.776 94.078 261.438 94.13 260.983 94.13C259.852 94.13 259.189 93.571 259.189 92.271V89.047H258.409C258.331 89.034 258.305 89.008 258.305 88.93V87.656C258.305 87.565 258.331 87.539 258.422 87.539H259.202C259.215 87.097 259.267 86.33 259.332 85.966C259.345 85.901 259.384 85.862 259.449 85.849L260.97 85.654C261.035 85.641 261.074 85.641 261.074 85.732C261.035 86.135 261.009 86.902 261.009 87.539H262.205C262.283 87.539 262.309 87.565 262.309 87.643V88.956C262.309 89.021 262.283 89.034 262.218 89.047H260.996V91.829C260.996 92.401 261.165 92.661 261.698 92.661C261.854 92.661 261.984 92.635 262.14 92.609C262.192 92.609 262.231 92.622 262.231 92.7ZM267.277 91.244H264.742C264.807 91.985 265.327 92.596 266.601 92.596C267.186 92.596 267.706 92.505 268.2 92.297C268.239 92.271 268.278 92.284 268.278 92.362V93.597C268.278 93.688 268.252 93.727 268.187 93.753C267.667 94 267.095 94.13 266.198 94.13C263.754 94.13 262.896 92.453 262.896 90.841C262.896 89.047 264.001 87.409 266.042 87.409C268.005 87.409 268.785 88.93 268.785 90.217C268.785 90.62 268.759 90.945 268.72 91.088C268.707 91.153 268.681 91.179 268.616 91.192C268.447 91.218 267.953 91.244 267.277 91.244ZM264.729 89.983H266.432C266.848 89.983 267.03 89.97 267.082 89.957C267.082 89.931 267.082 89.879 267.082 89.866C267.082 89.554 266.835 88.839 265.977 88.839C265.158 88.839 264.807 89.45 264.729 89.983Z" fill="#666666"/>
<path d="M237.053 110H235.441C235.363 110 235.337 109.974 235.337 109.896V103.643C234.96 103.812 234.401 103.981 234.05 104.033C233.972 104.046 233.946 104.02 233.946 103.942V102.668C233.946 102.603 233.959 102.564 234.024 102.551C234.622 102.408 235.311 102.122 235.831 101.797C235.883 101.758 235.974 101.745 236.039 101.745H237.066C237.131 101.745 237.144 101.784 237.144 101.836V109.896C237.144 109.974 237.118 110 237.053 110Z" fill="#666666"/>
<path d="M276 161H196C191.582 161 188 164.582 188 169V241C188 245.418 191.582 249 196 249H276C280.418 249 284 245.418 284 241V169C284 164.582 280.418 161 276 161Z" fill="#EFF1F5"/>
<path d="M276 161.5H196C191.858 161.5 188.5 164.858 188.5 169V241C188.5 245.142 191.858 248.5 196 248.5H276C280.142 248.5 283.5 245.142 283.5 241V169C283.5 164.858 280.142 161.5 276 161.5Z" stroke="#D6D6D6" stroke-opacity="0.49"/>
<path d="M206.009 200.375V201.714C206.009 201.805 205.983 201.87 205.905 201.896C205.476 202.052 204.826 202.13 204.098 202.13C201.576 202.13 199.613 200.635 199.613 197.788C199.613 195.149 201.433 193.355 204.306 193.355C205.125 193.355 205.658 193.42 205.996 193.576C206.061 193.602 206.087 193.654 206.087 193.732V195.149C206.087 195.266 206.022 195.266 205.97 195.24C205.541 195.032 204.93 194.954 204.28 194.954C202.538 194.954 201.472 196.033 201.472 197.723C201.472 199.751 202.954 200.518 204.319 200.518C204.956 200.518 205.437 200.466 205.905 200.31C205.97 200.284 206.009 200.297 206.009 200.375ZM207.162 200.336V192.887C207.162 192.822 207.188 192.783 207.292 192.783H208.839C208.93 192.783 208.969 192.822 208.969 192.887V200.167C208.969 200.531 209.086 200.661 209.398 200.661C209.502 200.661 209.515 200.661 209.632 200.648C209.684 200.648 209.697 200.674 209.697 200.739V201.857C209.697 201.961 209.684 201.987 209.606 202.013C209.45 202.078 209.203 202.13 208.8 202.13C207.864 202.13 207.162 201.779 207.162 200.336ZM214.094 200.609V199.218C213.886 199.192 213.704 199.179 213.444 199.179C212.521 199.179 212.144 199.478 212.144 199.946C212.144 200.375 212.469 200.726 213.288 200.726C213.587 200.726 213.847 200.687 214.094 200.609ZM215.849 198.048V200.557C215.849 200.895 215.849 201.168 215.875 201.48C215.875 201.506 215.875 201.532 215.849 201.545C214.705 201.987 213.951 202.13 213.015 202.13C211.572 202.13 210.389 201.467 210.389 199.959C210.389 198.581 211.598 197.853 213.327 197.853C213.678 197.853 213.977 197.853 214.094 197.879V197.788C214.094 197.541 213.938 196.969 212.846 196.969C212.196 196.969 211.624 197.099 211.13 197.32C211.078 197.346 211.013 197.32 211.013 197.255V195.942C211.013 195.877 211.026 195.838 211.104 195.812C211.676 195.539 212.417 195.409 213.145 195.409C215.017 195.409 215.849 196.566 215.849 198.048ZM221.202 197.229C220.773 197.008 220.11 196.852 219.525 196.852C218.914 196.852 218.719 197.073 218.719 197.294C218.719 197.515 218.888 197.684 219.642 197.97C221.215 198.542 221.709 199.153 221.709 200.076C221.709 201.311 220.747 202.13 219.031 202.13C218.238 202.13 217.549 201.987 217.146 201.766C217.081 201.727 217.055 201.688 217.055 201.623V200.219C217.055 200.141 217.107 200.102 217.159 200.141C217.757 200.518 218.485 200.661 219.07 200.661C219.681 200.661 219.954 200.492 219.954 200.219C219.954 199.972 219.733 199.79 218.966 199.504C217.497 198.958 217.016 198.334 217.016 197.398C217.016 196.384 217.835 195.409 219.551 195.409C220.318 195.409 220.916 195.513 221.241 195.669C221.319 195.708 221.332 195.773 221.332 195.838V197.138C221.332 197.216 221.28 197.268 221.202 197.229ZM226.712 197.229C226.283 197.008 225.619 196.852 225.035 196.852C224.424 196.852 224.229 197.073 224.229 197.294C224.229 197.515 224.398 197.684 225.152 197.97C226.725 198.542 227.219 199.153 227.219 200.076C227.219 201.311 226.257 202.13 224.541 202.13C223.748 202.13 223.059 201.987 222.656 201.766C222.591 201.727 222.565 201.688 222.565 201.623V200.219C222.565 200.141 222.616 200.102 222.669 200.141C223.267 200.518 223.995 200.661 224.58 200.661C225.191 200.661 225.464 200.492 225.464 200.219C225.464 199.972 225.243 199.79 224.476 199.504C223.007 198.958 222.526 198.334 222.526 197.398C222.526 196.384 223.345 195.409 225.061 195.409C225.828 195.409 226.426 195.513 226.751 195.669C226.829 195.708 226.842 195.773 226.842 195.838V197.138C226.842 197.216 226.79 197.268 226.712 197.229ZM228.312 201.883V195.643C228.312 195.578 228.338 195.539 228.416 195.539H230.015C230.093 195.539 230.119 195.565 230.119 195.643V201.883C230.119 201.961 230.106 202 230.002 202H228.442C228.351 202 228.312 201.961 228.312 201.883ZM229.222 194.85C228.611 194.85 228.221 194.447 228.221 193.836C228.221 193.251 228.65 192.835 229.235 192.835C229.859 192.835 230.236 193.251 230.236 193.836C230.236 194.447 229.833 194.85 229.222 194.85ZM235.756 201.883V195.643C235.756 195.578 235.795 195.539 235.873 195.539H237.472C237.55 195.539 237.576 195.565 237.576 195.643V201.883C237.576 201.961 237.55 202 237.459 202H235.899C235.808 202 235.756 201.961 235.756 201.883ZM236.679 194.85C236.094 194.85 235.691 194.447 235.691 193.862C235.691 193.277 236.107 192.861 236.692 192.861C237.29 192.861 237.667 193.277 237.667 193.862C237.667 194.46 237.264 194.85 236.679 194.85ZM231.921 197.047H231.154C231.089 197.034 231.063 197.008 231.063 196.943V195.63C231.063 195.565 231.102 195.539 231.154 195.539H231.921V195.201C231.921 194.72 232.012 194.226 232.194 193.836C232.532 193.108 233.195 192.653 234.235 192.653C234.612 192.653 234.781 192.692 234.911 192.744C234.989 192.77 235.002 192.809 235.002 192.887V194.187C235.002 194.239 234.976 194.291 234.898 194.265C234.742 194.213 234.612 194.213 234.469 194.213C233.988 194.213 233.728 194.473 233.728 195.136V195.539H234.833C234.924 195.539 234.937 195.578 234.937 195.63V196.943C234.937 197.021 234.924 197.034 234.833 197.047H233.728V201.883C233.728 201.948 233.715 202 233.611 202H232.038C231.96 202 231.921 201.961 231.921 201.883V197.047ZM243.679 200.466V201.818C243.679 201.883 243.666 201.909 243.614 201.922C243.198 202.091 242.665 202.13 242.158 202.13C240.052 202.13 238.726 200.713 238.726 198.802C238.726 196.852 240.195 195.409 242.405 195.409C243.042 195.409 243.393 195.474 243.601 195.552C243.666 195.578 243.679 195.617 243.679 195.695L243.666 197.034C243.666 197.125 243.614 197.138 243.562 197.125C243.315 197.034 242.951 196.969 242.47 196.969C241.378 196.969 240.585 197.567 240.585 198.737C240.585 200.089 241.586 200.531 242.496 200.531C242.951 200.531 243.354 200.479 243.575 200.414C243.653 200.388 243.679 200.414 243.679 200.466ZM248.232 200.609V199.218C248.024 199.192 247.842 199.179 247.582 199.179C246.659 199.179 246.282 199.478 246.282 199.946C246.282 200.375 246.607 200.726 247.426 200.726C247.725 200.726 247.985 200.687 248.232 200.609ZM249.987 198.048V200.557C249.987 200.895 249.987 201.168 250.013 201.48C250.013 201.506 250.013 201.532 249.987 201.545C248.843 201.987 248.089 202.13 247.153 202.13C245.71 202.13 244.527 201.467 244.527 199.959C244.527 198.581 245.736 197.853 247.465 197.853C247.816 197.853 248.115 197.853 248.232 197.879V197.788C248.232 197.541 248.076 196.969 246.984 196.969C246.334 196.969 245.762 197.099 245.268 197.32C245.216 197.346 245.151 197.32 245.151 197.255V195.942C245.151 195.877 245.164 195.838 245.242 195.812C245.814 195.539 246.555 195.409 247.283 195.409C249.155 195.409 249.987 196.566 249.987 198.048ZM254.666 200.7V201.779C254.666 201.857 254.653 201.922 254.575 201.948C254.211 202.078 253.873 202.13 253.418 202.13C252.287 202.13 251.624 201.571 251.624 200.271V197.047H250.844C250.766 197.034 250.74 197.008 250.74 196.93V195.656C250.74 195.565 250.766 195.539 250.857 195.539H251.637C251.65 195.097 251.702 194.33 251.767 193.966C251.78 193.901 251.819 193.862 251.884 193.849L253.405 193.654C253.47 193.641 253.509 193.641 253.509 193.732C253.47 194.135 253.444 194.902 253.444 195.539H254.64C254.718 195.539 254.744 195.565 254.744 195.643V196.956C254.744 197.021 254.718 197.034 254.653 197.047H253.431V199.829C253.431 200.401 253.6 200.661 254.133 200.661C254.289 200.661 254.419 200.635 254.575 200.609C254.627 200.609 254.666 200.622 254.666 200.7ZM255.785 201.883V195.643C255.785 195.578 255.811 195.539 255.889 195.539H257.488C257.566 195.539 257.592 195.565 257.592 195.643V201.883C257.592 201.961 257.579 202 257.475 202H255.915C255.824 202 255.785 201.961 255.785 201.883ZM256.695 194.85C256.084 194.85 255.694 194.447 255.694 193.836C255.694 193.251 256.123 192.835 256.708 192.835C257.332 192.835 257.709 193.251 257.709 193.836C257.709 194.447 257.306 194.85 256.695 194.85ZM261.996 195.409C264.089 195.409 265.168 196.982 265.168 198.737C265.168 200.778 263.842 202.13 261.97 202.13C259.747 202.13 258.759 200.453 258.759 198.776C258.759 196.93 259.994 195.409 261.996 195.409ZM261.918 196.917C261.164 196.917 260.592 197.593 260.592 198.75C260.592 199.894 261.125 200.622 261.996 200.622C262.75 200.622 263.322 199.972 263.322 198.776C263.322 197.762 262.906 196.917 261.918 196.917ZM266.335 201.883V197.047C266.335 196.605 266.309 195.929 266.283 195.643C266.27 195.578 266.296 195.539 266.374 195.539H267.739C267.843 195.539 267.882 195.578 267.908 195.643C267.96 195.76 267.986 195.89 268.012 196.072C268.558 195.63 269.169 195.409 269.858 195.409C270.859 195.409 272.042 195.929 272.042 198.022V201.883C272.042 201.961 272.016 202 271.925 202H270.365C270.274 202 270.235 201.961 270.235 201.883V198.178C270.235 197.398 269.897 196.982 269.221 196.982C268.779 196.982 268.415 197.138 268.142 197.385V201.896C268.142 201.961 268.103 202 268.025 202H266.452C266.361 202 266.335 201.961 266.335 201.883Z" fill="#666666"/>
<path d="M237.053 218H235.441C235.363 218 235.337 217.974 235.337 217.896V211.643C234.96 211.812 234.401 211.981 234.05 212.033C233.972 212.046 233.946 212.02 233.946 211.942V210.668C233.946 210.603 233.959 210.564 234.024 210.551C234.622 210.408 235.311 210.122 235.831 209.797C235.883 209.758 235.974 209.745 236.039 209.745H237.066C237.131 209.745 237.144 209.784 237.144 209.836V217.896C237.144 217.974 237.118 218 237.053 218Z" fill="#666666"/>
<path d="M382 161H302C297.582 161 294 164.582 294 169V241C294 245.418 297.582 249 302 249H382C386.418 249 390 245.418 390 241V169C390 164.582 386.418 161 382 161Z" fill="#EFF1F5"/>
<path d="M382 161.5H302C297.858 161.5 294.5 164.858 294.5 169V241C294.5 245.142 297.858 248.5 302 248.5H382C386.142 248.5 389.5 245.142 389.5 241V169C389.5 164.858 386.142 161.5 382 161.5Z" stroke="#D6D6D6" stroke-opacity="0.49"/>
<path d="M312.009 200.375V201.714C312.009 201.805 311.983 201.87 311.905 201.896C311.476 202.052 310.826 202.13 310.098 202.13C307.576 202.13 305.613 200.635 305.613 197.788C305.613 195.149 307.433 193.355 310.306 193.355C311.125 193.355 311.658 193.42 311.996 193.576C312.061 193.602 312.087 193.654 312.087 193.732V195.149C312.087 195.266 312.022 195.266 311.97 195.24C311.541 195.032 310.93 194.954 310.28 194.954C308.538 194.954 307.472 196.033 307.472 197.723C307.472 199.751 308.954 200.518 310.319 200.518C310.956 200.518 311.437 200.466 311.905 200.31C311.97 200.284 312.009 200.297 312.009 200.375ZM313.162 200.336V192.887C313.162 192.822 313.188 192.783 313.292 192.783H314.839C314.93 192.783 314.969 192.822 314.969 192.887V200.167C314.969 200.531 315.086 200.661 315.398 200.661C315.502 200.661 315.515 200.661 315.632 200.648C315.684 200.648 315.697 200.674 315.697 200.739V201.857C315.697 201.961 315.684 201.987 315.606 202.013C315.45 202.078 315.203 202.13 314.8 202.13C313.864 202.13 313.162 201.779 313.162 200.336ZM320.094 200.609V199.218C319.886 199.192 319.704 199.179 319.444 199.179C318.521 199.179 318.144 199.478 318.144 199.946C318.144 200.375 318.469 200.726 319.288 200.726C319.587 200.726 319.847 200.687 320.094 200.609ZM321.849 198.048V200.557C321.849 200.895 321.849 201.168 321.875 201.48C321.875 201.506 321.875 201.532 321.849 201.545C320.705 201.987 319.951 202.13 319.015 202.13C317.572 202.13 316.389 201.467 316.389 199.959C316.389 198.581 317.598 197.853 319.327 197.853C319.678 197.853 319.977 197.853 320.094 197.879V197.788C320.094 197.541 319.938 196.969 318.846 196.969C318.196 196.969 317.624 197.099 317.13 197.32C317.078 197.346 317.013 197.32 317.013 197.255V195.942C317.013 195.877 317.026 195.838 317.104 195.812C317.676 195.539 318.417 195.409 319.145 195.409C321.017 195.409 321.849 196.566 321.849 198.048ZM327.202 197.229C326.773 197.008 326.11 196.852 325.525 196.852C324.914 196.852 324.719 197.073 324.719 197.294C324.719 197.515 324.888 197.684 325.642 197.97C327.215 198.542 327.709 199.153 327.709 200.076C327.709 201.311 326.747 202.13 325.031 202.13C324.238 202.13 323.549 201.987 323.146 201.766C323.081 201.727 323.055 201.688 323.055 201.623V200.219C323.055 200.141 323.107 200.102 323.159 200.141C323.757 200.518 324.485 200.661 325.07 200.661C325.681 200.661 325.954 200.492 325.954 200.219C325.954 199.972 325.733 199.79 324.966 199.504C323.497 198.958 323.016 198.334 323.016 197.398C323.016 196.384 323.835 195.409 325.551 195.409C326.318 195.409 326.916 195.513 327.241 195.669C327.319 195.708 327.332 195.773 327.332 195.838V197.138C327.332 197.216 327.28 197.268 327.202 197.229ZM332.712 197.229C332.283 197.008 331.619 196.852 331.035 196.852C330.424 196.852 330.229 197.073 330.229 197.294C330.229 197.515 330.398 197.684 331.152 197.97C332.725 198.542 333.219 199.153 333.219 200.076C333.219 201.311 332.257 202.13 330.541 202.13C329.748 202.13 329.059 201.987 328.656 201.766C328.591 201.727 328.565 201.688 328.565 201.623V200.219C328.565 200.141 328.616 200.102 328.669 200.141C329.267 200.518 329.995 200.661 330.58 200.661C331.191 200.661 331.464 200.492 331.464 200.219C331.464 199.972 331.243 199.79 330.476 199.504C329.007 198.958 328.526 198.334 328.526 197.398C328.526 196.384 329.345 195.409 331.061 195.409C331.828 195.409 332.426 195.513 332.751 195.669C332.829 195.708 332.842 195.773 332.842 195.838V197.138C332.842 197.216 332.79 197.268 332.712 197.229ZM334.312 201.883V195.643C334.312 195.578 334.338 195.539 334.416 195.539H336.015C336.093 195.539 336.119 195.565 336.119 195.643V201.883C336.119 201.961 336.106 202 336.002 202H334.442C334.351 202 334.312 201.961 334.312 201.883ZM335.222 194.85C334.611 194.85 334.221 194.447 334.221 193.836C334.221 193.251 334.65 192.835 335.235 192.835C335.859 192.835 336.236 193.251 336.236 193.836C336.236 194.447 335.833 194.85 335.222 194.85ZM341.756 201.883V195.643C341.756 195.578 341.795 195.539 341.873 195.539H343.472C343.55 195.539 343.576 195.565 343.576 195.643V201.883C343.576 201.961 343.55 202 343.459 202H341.899C341.808 202 341.756 201.961 341.756 201.883ZM342.679 194.85C342.094 194.85 341.691 194.447 341.691 193.862C341.691 193.277 342.107 192.861 342.692 192.861C343.29 192.861 343.667 193.277 343.667 193.862C343.667 194.46 343.264 194.85 342.679 194.85ZM337.921 197.047H337.154C337.089 197.034 337.063 197.008 337.063 196.943V195.63C337.063 195.565 337.102 195.539 337.154 195.539H337.921V195.201C337.921 194.72 338.012 194.226 338.194 193.836C338.532 193.108 339.195 192.653 340.235 192.653C340.612 192.653 340.781 192.692 340.911 192.744C340.989 192.77 341.002 192.809 341.002 192.887V194.187C341.002 194.239 340.976 194.291 340.898 194.265C340.742 194.213 340.612 194.213 340.469 194.213C339.988 194.213 339.728 194.473 339.728 195.136V195.539H340.833C340.924 195.539 340.937 195.578 340.937 195.63V196.943C340.937 197.021 340.924 197.034 340.833 197.047H339.728V201.883C339.728 201.948 339.715 202 339.611 202H338.038C337.96 202 337.921 201.961 337.921 201.883V197.047ZM349.679 200.466V201.818C349.679 201.883 349.666 201.909 349.614 201.922C349.198 202.091 348.665 202.13 348.158 202.13C346.052 202.13 344.726 200.713 344.726 198.802C344.726 196.852 346.195 195.409 348.405 195.409C349.042 195.409 349.393 195.474 349.601 195.552C349.666 195.578 349.679 195.617 349.679 195.695L349.666 197.034C349.666 197.125 349.614 197.138 349.562 197.125C349.315 197.034 348.951 196.969 348.47 196.969C347.378 196.969 346.585 197.567 346.585 198.737C346.585 200.089 347.586 200.531 348.496 200.531C348.951 200.531 349.354 200.479 349.575 200.414C349.653 200.388 349.679 200.414 349.679 200.466ZM354.232 200.609V199.218C354.024 199.192 353.842 199.179 353.582 199.179C352.659 199.179 352.282 199.478 352.282 199.946C352.282 200.375 352.607 200.726 353.426 200.726C353.725 200.726 353.985 200.687 354.232 200.609ZM355.987 198.048V200.557C355.987 200.895 355.987 201.168 356.013 201.48C356.013 201.506 356.013 201.532 355.987 201.545C354.843 201.987 354.089 202.13 353.153 202.13C351.71 202.13 350.527 201.467 350.527 199.959C350.527 198.581 351.736 197.853 353.465 197.853C353.816 197.853 354.115 197.853 354.232 197.879V197.788C354.232 197.541 354.076 196.969 352.984 196.969C352.334 196.969 351.762 197.099 351.268 197.32C351.216 197.346 351.151 197.32 351.151 197.255V195.942C351.151 195.877 351.164 195.838 351.242 195.812C351.814 195.539 352.555 195.409 353.283 195.409C355.155 195.409 355.987 196.566 355.987 198.048ZM360.666 200.7V201.779C360.666 201.857 360.653 201.922 360.575 201.948C360.211 202.078 359.873 202.13 359.418 202.13C358.287 202.13 357.624 201.571 357.624 200.271V197.047H356.844C356.766 197.034 356.74 197.008 356.74 196.93V195.656C356.74 195.565 356.766 195.539 356.857 195.539H357.637C357.65 195.097 357.702 194.33 357.767 193.966C357.78 193.901 357.819 193.862 357.884 193.849L359.405 193.654C359.47 193.641 359.509 193.641 359.509 193.732C359.47 194.135 359.444 194.902 359.444 195.539H360.64C360.718 195.539 360.744 195.565 360.744 195.643V196.956C360.744 197.021 360.718 197.034 360.653 197.047H359.431V199.829C359.431 200.401 359.6 200.661 360.133 200.661C360.289 200.661 360.419 200.635 360.575 200.609C360.627 200.609 360.666 200.622 360.666 200.7ZM361.785 201.883V195.643C361.785 195.578 361.811 195.539 361.889 195.539H363.488C363.566 195.539 363.592 195.565 363.592 195.643V201.883C363.592 201.961 363.579 202 363.475 202H361.915C361.824 202 361.785 201.961 361.785 201.883ZM362.695 194.85C362.084 194.85 361.694 194.447 361.694 193.836C361.694 193.251 362.123 192.835 362.708 192.835C363.332 192.835 363.709 193.251 363.709 193.836C363.709 194.447 363.306 194.85 362.695 194.85ZM367.996 195.409C370.089 195.409 371.168 196.982 371.168 198.737C371.168 200.778 369.842 202.13 367.97 202.13C365.747 202.13 364.759 200.453 364.759 198.776C364.759 196.93 365.994 195.409 367.996 195.409ZM367.918 196.917C367.164 196.917 366.592 197.593 366.592 198.75C366.592 199.894 367.125 200.622 367.996 200.622C368.75 200.622 369.322 199.972 369.322 198.776C369.322 197.762 368.906 196.917 367.918 196.917ZM372.335 201.883V197.047C372.335 196.605 372.309 195.929 372.283 195.643C372.27 195.578 372.296 195.539 372.374 195.539H373.739C373.843 195.539 373.882 195.578 373.908 195.643C373.96 195.76 373.986 195.89 374.012 196.072C374.558 195.63 375.169 195.409 375.858 195.409C376.859 195.409 378.042 195.929 378.042 198.022V201.883C378.042 201.961 378.016 202 377.925 202H376.365C376.274 202 376.235 201.961 376.235 201.883V198.178C376.235 197.398 375.897 196.982 375.221 196.982C374.779 196.982 374.415 197.138 374.142 197.385V201.896C374.142 201.961 374.103 202 374.025 202H372.452C372.361 202 372.335 201.961 372.335 201.883Z" fill="#666666"/>
<path d="M344.509 218H339.14C339.049 218 339.049 217.948 339.049 217.883V216.882C339.049 216.791 339.049 216.752 339.101 216.713C339.673 216.284 340.492 215.699 341.155 215.088C342.481 213.905 342.689 213.177 342.689 212.579C342.689 211.786 342.26 211.279 341.233 211.279C340.427 211.279 339.881 211.513 339.335 211.799C339.257 211.838 339.218 211.812 339.218 211.734V210.369C339.218 210.291 339.231 210.265 339.296 210.226C339.972 209.862 340.739 209.667 341.636 209.667C343.599 209.667 344.522 210.928 344.522 212.345C344.522 213.294 344.171 214.256 343.092 215.27C342.468 215.881 342.091 216.154 341.649 216.505C342.156 216.453 342.702 216.453 343.482 216.453H344.834C344.938 216.453 344.964 216.479 344.951 216.544L344.639 217.896C344.613 217.974 344.587 218 344.509 218Z" fill="#666666"/>
<path d="M578 161H498C493.582 161 490 164.582 490 169V241C490 245.418 493.582 249 498 249H578C582.418 249 586 245.418 586 241V169C586 164.582 582.418 161 578 161Z" fill="#EFF1F5"/>
<path d="M578 161.5H498C493.858 161.5 490.5 164.858 490.5 169V241C490.5 245.142 493.858 248.5 498 248.5H578C582.142 248.5 585.5 245.142 585.5 241V169C585.5 164.858 582.142 161.5 578 161.5Z" stroke="#D6D6D6" stroke-opacity="0.49"/>
<path d="M508.009 200.375V201.714C508.009 201.805 507.983 201.87 507.905 201.896C507.476 202.052 506.826 202.13 506.098 202.13C503.576 202.13 501.613 200.635 501.613 197.788C501.613 195.149 503.433 193.355 506.306 193.355C507.125 193.355 507.658 193.42 507.996 193.576C508.061 193.602 508.087 193.654 508.087 193.732V195.149C508.087 195.266 508.022 195.266 507.97 195.24C507.541 195.032 506.93 194.954 506.28 194.954C504.538 194.954 503.472 196.033 503.472 197.723C503.472 199.751 504.954 200.518 506.319 200.518C506.956 200.518 507.437 200.466 507.905 200.31C507.97 200.284 508.009 200.297 508.009 200.375ZM509.162 200.336V192.887C509.162 192.822 509.188 192.783 509.292 192.783H510.839C510.93 192.783 510.969 192.822 510.969 192.887V200.167C510.969 200.531 511.086 200.661 511.398 200.661C511.502 200.661 511.515 200.661 511.632 200.648C511.684 200.648 511.697 200.674 511.697 200.739V201.857C511.697 201.961 511.684 201.987 511.606 202.013C511.45 202.078 511.203 202.13 510.8 202.13C509.864 202.13 509.162 201.779 509.162 200.336ZM516.094 200.609V199.218C515.886 199.192 515.704 199.179 515.444 199.179C514.521 199.179 514.144 199.478 514.144 199.946C514.144 200.375 514.469 200.726 515.288 200.726C515.587 200.726 515.847 200.687 516.094 200.609ZM517.849 198.048V200.557C517.849 200.895 517.849 201.168 517.875 201.48C517.875 201.506 517.875 201.532 517.849 201.545C516.705 201.987 515.951 202.13 515.015 202.13C513.572 202.13 512.389 201.467 512.389 199.959C512.389 198.581 513.598 197.853 515.327 197.853C515.678 197.853 515.977 197.853 516.094 197.879V197.788C516.094 197.541 515.938 196.969 514.846 196.969C514.196 196.969 513.624 197.099 513.13 197.32C513.078 197.346 513.013 197.32 513.013 197.255V195.942C513.013 195.877 513.026 195.838 513.104 195.812C513.676 195.539 514.417 195.409 515.145 195.409C517.017 195.409 517.849 196.566 517.849 198.048ZM523.202 197.229C522.773 197.008 522.11 196.852 521.525 196.852C520.914 196.852 520.719 197.073 520.719 197.294C520.719 197.515 520.888 197.684 521.642 197.97C523.215 198.542 523.709 199.153 523.709 200.076C523.709 201.311 522.747 202.13 521.031 202.13C520.238 202.13 519.549 201.987 519.146 201.766C519.081 201.727 519.055 201.688 519.055 201.623V200.219C519.055 200.141 519.107 200.102 519.159 200.141C519.757 200.518 520.485 200.661 521.07 200.661C521.681 200.661 521.954 200.492 521.954 200.219C521.954 199.972 521.733 199.79 520.966 199.504C519.497 198.958 519.016 198.334 519.016 197.398C519.016 196.384 519.835 195.409 521.551 195.409C522.318 195.409 522.916 195.513 523.241 195.669C523.319 195.708 523.332 195.773 523.332 195.838V197.138C523.332 197.216 523.28 197.268 523.202 197.229ZM528.712 197.229C528.283 197.008 527.619 196.852 527.035 196.852C526.424 196.852 526.229 197.073 526.229 197.294C526.229 197.515 526.398 197.684 527.152 197.97C528.725 198.542 529.219 199.153 529.219 200.076C529.219 201.311 528.257 202.13 526.541 202.13C525.748 202.13 525.059 201.987 524.656 201.766C524.591 201.727 524.565 201.688 524.565 201.623V200.219C524.565 200.141 524.616 200.102 524.669 200.141C525.267 200.518 525.995 200.661 526.58 200.661C527.191 200.661 527.464 200.492 527.464 200.219C527.464 199.972 527.243 199.79 526.476 199.504C525.007 198.958 524.526 198.334 524.526 197.398C524.526 196.384 525.345 195.409 527.061 195.409C527.828 195.409 528.426 195.513 528.751 195.669C528.829 195.708 528.842 195.773 528.842 195.838V197.138C528.842 197.216 528.79 197.268 528.712 197.229ZM530.312 201.883V195.643C530.312 195.578 530.338 195.539 530.416 195.539H532.015C532.093 195.539 532.119 195.565 532.119 195.643V201.883C532.119 201.961 532.106 202 532.002 202H530.442C530.351 202 530.312 201.961 530.312 201.883ZM531.222 194.85C530.611 194.85 530.221 194.447 530.221 193.836C530.221 193.251 530.65 192.835 531.235 192.835C531.859 192.835 532.236 193.251 532.236 193.836C532.236 194.447 531.833 194.85 531.222 194.85ZM537.756 201.883V195.643C537.756 195.578 537.795 195.539 537.873 195.539H539.472C539.55 195.539 539.576 195.565 539.576 195.643V201.883C539.576 201.961 539.55 202 539.459 202H537.899C537.808 202 537.756 201.961 537.756 201.883ZM538.679 194.85C538.094 194.85 537.691 194.447 537.691 193.862C537.691 193.277 538.107 192.861 538.692 192.861C539.29 192.861 539.667 193.277 539.667 193.862C539.667 194.46 539.264 194.85 538.679 194.85ZM533.921 197.047H533.154C533.089 197.034 533.063 197.008 533.063 196.943V195.63C533.063 195.565 533.102 195.539 533.154 195.539H533.921V195.201C533.921 194.72 534.012 194.226 534.194 193.836C534.532 193.108 535.195 192.653 536.235 192.653C536.612 192.653 536.781 192.692 536.911 192.744C536.989 192.77 537.002 192.809 537.002 192.887V194.187C537.002 194.239 536.976 194.291 536.898 194.265C536.742 194.213 536.612 194.213 536.469 194.213C535.988 194.213 535.728 194.473 535.728 195.136V195.539H536.833C536.924 195.539 536.937 195.578 536.937 195.63V196.943C536.937 197.021 536.924 197.034 536.833 197.047H535.728V201.883C535.728 201.948 535.715 202 535.611 202H534.038C533.96 202 533.921 201.961 533.921 201.883V197.047ZM545.679 200.466V201.818C545.679 201.883 545.666 201.909 545.614 201.922C545.198 202.091 544.665 202.13 544.158 202.13C542.052 202.13 540.726 200.713 540.726 198.802C540.726 196.852 542.195 195.409 544.405 195.409C545.042 195.409 545.393 195.474 545.601 195.552C545.666 195.578 545.679 195.617 545.679 195.695L545.666 197.034C545.666 197.125 545.614 197.138 545.562 197.125C545.315 197.034 544.951 196.969 544.47 196.969C543.378 196.969 542.585 197.567 542.585 198.737C542.585 200.089 543.586 200.531 544.496 200.531C544.951 200.531 545.354 200.479 545.575 200.414C545.653 200.388 545.679 200.414 545.679 200.466ZM550.232 200.609V199.218C550.024 199.192 549.842 199.179 549.582 199.179C548.659 199.179 548.282 199.478 548.282 199.946C548.282 200.375 548.607 200.726 549.426 200.726C549.725 200.726 549.985 200.687 550.232 200.609ZM551.987 198.048V200.557C551.987 200.895 551.987 201.168 552.013 201.48C552.013 201.506 552.013 201.532 551.987 201.545C550.843 201.987 550.089 202.13 549.153 202.13C547.71 202.13 546.527 201.467 546.527 199.959C546.527 198.581 547.736 197.853 549.465 197.853C549.816 197.853 550.115 197.853 550.232 197.879V197.788C550.232 197.541 550.076 196.969 548.984 196.969C548.334 196.969 547.762 197.099 547.268 197.32C547.216 197.346 547.151 197.32 547.151 197.255V195.942C547.151 195.877 547.164 195.838 547.242 195.812C547.814 195.539 548.555 195.409 549.283 195.409C551.155 195.409 551.987 196.566 551.987 198.048ZM556.666 200.7V201.779C556.666 201.857 556.653 201.922 556.575 201.948C556.211 202.078 555.873 202.13 555.418 202.13C554.287 202.13 553.624 201.571 553.624 200.271V197.047H552.844C552.766 197.034 552.74 197.008 552.74 196.93V195.656C552.74 195.565 552.766 195.539 552.857 195.539H553.637C553.65 195.097 553.702 194.33 553.767 193.966C553.78 193.901 553.819 193.862 553.884 193.849L555.405 193.654C555.47 193.641 555.509 193.641 555.509 193.732C555.47 194.135 555.444 194.902 555.444 195.539H556.64C556.718 195.539 556.744 195.565 556.744 195.643V196.956C556.744 197.021 556.718 197.034 556.653 197.047H555.431V199.829C555.431 200.401 555.6 200.661 556.133 200.661C556.289 200.661 556.419 200.635 556.575 200.609C556.627 200.609 556.666 200.622 556.666 200.7ZM557.785 201.883V195.643C557.785 195.578 557.811 195.539 557.889 195.539H559.488C559.566 195.539 559.592 195.565 559.592 195.643V201.883C559.592 201.961 559.579 202 559.475 202H557.915C557.824 202 557.785 201.961 557.785 201.883ZM558.695 194.85C558.084 194.85 557.694 194.447 557.694 193.836C557.694 193.251 558.123 192.835 558.708 192.835C559.332 192.835 559.709 193.251 559.709 193.836C559.709 194.447 559.306 194.85 558.695 194.85ZM563.996 195.409C566.089 195.409 567.168 196.982 567.168 198.737C567.168 200.778 565.842 202.13 563.97 202.13C561.747 202.13 560.759 200.453 560.759 198.776C560.759 196.93 561.994 195.409 563.996 195.409ZM563.918 196.917C563.164 196.917 562.592 197.593 562.592 198.75C562.592 199.894 563.125 200.622 563.996 200.622C564.75 200.622 565.322 199.972 565.322 198.776C565.322 197.762 564.906 196.917 563.918 196.917ZM568.335 201.883V197.047C568.335 196.605 568.309 195.929 568.283 195.643C568.27 195.578 568.296 195.539 568.374 195.539H569.739C569.843 195.539 569.882 195.578 569.908 195.643C569.96 195.76 569.986 195.89 570.012 196.072C570.558 195.63 571.169 195.409 571.858 195.409C572.859 195.409 574.042 195.929 574.042 198.022V201.883C574.042 201.961 574.016 202 573.925 202H572.365C572.274 202 572.235 201.961 572.235 201.883V198.178C572.235 197.398 571.897 196.982 571.221 196.982C570.779 196.982 570.415 197.138 570.142 197.385V201.896C570.142 201.961 570.103 202 570.025 202H568.452C568.361 202 568.335 201.961 568.335 201.883Z" fill="#666666"/>
<path d="M536.869 214.711L535.556 211.643C535.517 211.591 535.556 211.539 535.608 211.539H537.246C537.311 211.539 537.311 211.552 537.324 211.604C537.597 212.293 537.857 213.021 538.117 213.71H538.13C538.611 213.021 539.079 212.319 539.56 211.617C539.599 211.565 539.625 211.539 539.677 211.539H541.25C541.315 211.539 541.328 211.617 541.302 211.643L538.988 214.75L540.379 217.883C540.405 217.948 540.392 218 540.327 218H538.715C538.65 218 538.611 217.961 538.585 217.896L537.74 215.738H537.727C537.337 216.362 536.687 217.272 536.245 217.922C536.219 217.948 536.193 217.987 536.115 218H534.477C534.412 218 534.399 217.935 534.438 217.883L536.869 214.711Z" fill="#666666"/>
<path d="M382 53H302C297.582 53 294 56.5817 294 61V133C294 137.418 297.582 141 302 141H382C386.418 141 390 137.418 390 133V61C390 56.5817 386.418 53 382 53Z" fill="#EFF1F5"/>
<path d="M382 53.5H302C297.858 53.5 294.5 56.8579 294.5 61V133C294.5 137.142 297.858 140.5 302 140.5H382C386.142 140.5 389.5 137.142 389.5 133V61C389.5 56.8579 386.142 53.5 382 53.5Z" stroke="#D6D6D6" stroke-opacity="0.49"/>
<path d="M308.467 94H306.907C306.829 94 306.803 93.974 306.803 93.883V85.628C306.803 85.563 306.816 85.498 306.894 85.498C308.064 85.472 308.558 85.459 309.611 85.459C311.769 85.459 312.978 86.382 312.978 88.059C312.978 89.138 312.302 89.97 311.353 90.347C311.782 90.932 313.251 93.142 313.654 93.844C313.693 93.922 313.706 94 313.615 94H311.73C311.613 94 311.574 93.974 311.548 93.922C311.171 93.35 310.352 91.959 309.819 91.075C309.728 90.919 309.663 90.854 309.52 90.854H308.571V93.896C308.571 93.961 308.532 94 308.467 94ZM308.571 89.32H309.572C310.547 89.32 311.171 88.93 311.171 88.163C311.171 87.37 310.521 87.032 309.559 87.032C309.13 87.032 308.766 87.045 308.571 87.058V89.32ZM318.217 91.244H315.682C315.747 91.985 316.267 92.596 317.541 92.596C318.126 92.596 318.646 92.505 319.14 92.297C319.179 92.271 319.218 92.284 319.218 92.362V93.597C319.218 93.688 319.192 93.727 319.127 93.753C318.607 94 318.035 94.13 317.138 94.13C314.694 94.13 313.836 92.453 313.836 90.841C313.836 89.047 314.941 87.409 316.982 87.409C318.945 87.409 319.725 88.93 319.725 90.217C319.725 90.62 319.699 90.945 319.66 91.088C319.647 91.153 319.621 91.179 319.556 91.192C319.387 91.218 318.893 91.244 318.217 91.244ZM315.669 89.983H317.372C317.788 89.983 317.97 89.97 318.022 89.957C318.022 89.931 318.022 89.879 318.022 89.866C318.022 89.554 317.775 88.839 316.917 88.839C316.098 88.839 315.747 89.45 315.669 89.983ZM323.622 87.409C325.884 87.409 326.911 88.943 326.911 90.568C326.911 92.947 324.961 94.13 322.933 94.13C322.868 94.13 322.777 94.13 322.686 94.117V96.327C322.686 96.392 322.673 96.431 322.582 96.444C322.049 96.496 321.048 96.587 320.97 96.6C320.892 96.6 320.879 96.574 320.879 96.509V88.865C320.879 88.683 320.853 88.202 320.84 88.007C320.84 87.994 320.84 87.955 320.892 87.942C321.555 87.721 322.491 87.409 323.622 87.409ZM323.466 88.943C323.167 88.943 322.946 88.969 322.686 89.047V92.596C322.79 92.622 322.985 92.622 323.102 92.622C323.999 92.622 325.052 92.102 325.052 90.685C325.052 89.567 324.48 88.943 323.466 88.943ZM330.987 87.409C333.08 87.409 334.159 88.982 334.159 90.737C334.159 92.778 332.833 94.13 330.961 94.13C328.738 94.13 327.75 92.453 327.75 90.776C327.75 88.93 328.985 87.409 330.987 87.409ZM330.909 88.917C330.155 88.917 329.583 89.593 329.583 90.75C329.583 91.894 330.116 92.622 330.987 92.622C331.741 92.622 332.313 91.972 332.313 90.776C332.313 89.762 331.897 88.917 330.909 88.917ZM335.339 87.539H336.756C336.847 87.539 336.886 87.578 336.912 87.656C336.977 87.825 337.042 88.098 337.055 88.384C337.484 87.877 338.199 87.409 339.122 87.409C339.2 87.409 339.226 87.435 339.226 87.513V89.112C339.226 89.177 339.2 89.203 339.109 89.203C338.173 89.164 337.419 89.45 337.146 89.762L337.133 93.896C337.133 93.974 337.107 94 337.016 94H335.456C335.352 94 335.326 93.961 335.326 93.883V89.398C335.326 88.839 335.313 88.085 335.261 87.63C335.261 87.565 335.274 87.539 335.339 87.539ZM343.856 92.7V93.779C343.856 93.857 343.843 93.922 343.765 93.948C343.401 94.078 343.063 94.13 342.608 94.13C341.477 94.13 340.814 93.571 340.814 92.271V89.047H340.034C339.956 89.034 339.93 89.008 339.93 88.93V87.656C339.93 87.565 339.956 87.539 340.047 87.539H340.827C340.84 87.097 340.892 86.33 340.957 85.966C340.97 85.901 341.009 85.862 341.074 85.849L342.595 85.654C342.66 85.641 342.699 85.641 342.699 85.732C342.66 86.135 342.634 86.902 342.634 87.539H343.83C343.908 87.539 343.934 87.565 343.934 87.643V88.956C343.934 89.021 343.908 89.034 343.843 89.047H342.621V91.829C342.621 92.401 342.79 92.661 343.323 92.661C343.479 92.661 343.609 92.635 343.765 92.609C343.817 92.609 343.856 92.622 343.856 92.7ZM349.936 94.13C348.974 94.13 348.181 93.961 347.635 93.675C347.57 93.636 347.544 93.571 347.544 93.467V91.92C347.544 91.855 347.596 91.816 347.648 91.855C348.363 92.31 349.221 92.531 350.001 92.531C350.989 92.531 351.379 92.193 351.379 91.738C351.379 91.322 351.08 91.023 350.196 90.646L349.546 90.373C347.947 89.697 347.505 88.891 347.505 87.877C347.505 86.473 348.571 85.355 350.638 85.355C351.457 85.355 352.198 85.459 352.666 85.693C352.731 85.732 352.744 85.784 352.744 85.862V87.318C352.744 87.37 352.705 87.435 352.627 87.383C352.107 87.084 351.392 86.954 350.625 86.954C349.624 86.954 349.273 87.292 349.273 87.721C349.273 88.124 349.546 88.397 350.521 88.787L351.002 88.982C352.731 89.697 353.212 90.516 353.212 91.569C353.212 93.142 351.938 94.13 349.936 94.13ZM359.972 87.643V92.557C359.972 93.22 360.024 93.623 360.05 93.896C360.063 93.974 360.024 94 359.933 94H358.555C358.451 94 358.425 93.974 358.399 93.909C358.373 93.792 358.334 93.623 358.321 93.506C357.749 94 357.099 94.13 356.54 94.13C355.24 94.13 354.343 93.415 354.343 91.621V87.643C354.343 87.552 354.369 87.539 354.46 87.539H356.046C356.124 87.539 356.137 87.565 356.137 87.643V91.413C356.137 92.115 356.436 92.57 357.151 92.57C357.58 92.57 357.879 92.44 358.165 92.193V87.643C358.165 87.565 358.204 87.539 358.295 87.539H359.868C359.959 87.539 359.972 87.565 359.972 87.643ZM361.542 93.883V87.643C361.542 87.578 361.568 87.539 361.646 87.539H363.245C363.323 87.539 363.349 87.565 363.349 87.643V93.883C363.349 93.961 363.336 94 363.232 94H361.672C361.581 94 361.542 93.961 361.542 93.883ZM362.452 86.85C361.841 86.85 361.451 86.447 361.451 85.836C361.451 85.251 361.88 84.835 362.465 84.835C363.089 84.835 363.466 85.251 363.466 85.836C363.466 86.447 363.063 86.85 362.452 86.85ZM368.231 92.7V93.779C368.231 93.857 368.218 93.922 368.14 93.948C367.776 94.078 367.438 94.13 366.983 94.13C365.852 94.13 365.189 93.571 365.189 92.271V89.047H364.409C364.331 89.034 364.305 89.008 364.305 88.93V87.656C364.305 87.565 364.331 87.539 364.422 87.539H365.202C365.215 87.097 365.267 86.33 365.332 85.966C365.345 85.901 365.384 85.862 365.449 85.849L366.97 85.654C367.035 85.641 367.074 85.641 367.074 85.732C367.035 86.135 367.009 86.902 367.009 87.539H368.205C368.283 87.539 368.309 87.565 368.309 87.643V88.956C368.309 89.021 368.283 89.034 368.218 89.047H366.996V91.829C366.996 92.401 367.165 92.661 367.698 92.661C367.854 92.661 367.984 92.635 368.14 92.609C368.192 92.609 368.231 92.622 368.231 92.7ZM373.277 91.244H370.742C370.807 91.985 371.327 92.596 372.601 92.596C373.186 92.596 373.706 92.505 374.2 92.297C374.239 92.271 374.278 92.284 374.278 92.362V93.597C374.278 93.688 374.252 93.727 374.187 93.753C373.667 94 373.095 94.13 372.198 94.13C369.754 94.13 368.896 92.453 368.896 90.841C368.896 89.047 370.001 87.409 372.042 87.409C374.005 87.409 374.785 88.93 374.785 90.217C374.785 90.62 374.759 90.945 374.72 91.088C374.707 91.153 374.681 91.179 374.616 91.192C374.447 91.218 373.953 91.244 373.277 91.244ZM370.729 89.983H372.432C372.848 89.983 373.03 89.97 373.082 89.957C373.082 89.931 373.082 89.879 373.082 89.866C373.082 89.554 372.835 88.839 371.977 88.839C371.158 88.839 370.807 89.45 370.729 89.983Z" fill="#666666"/>
<path d="M344.509 110H339.14C339.049 110 339.049 109.948 339.049 109.883V108.882C339.049 108.791 339.049 108.752 339.101 108.713C339.673 108.284 340.492 107.699 341.155 107.088C342.481 105.905 342.689 105.177 342.689 104.579C342.689 103.786 342.26 103.279 341.233 103.279C340.427 103.279 339.881 103.513 339.335 103.799C339.257 103.838 339.218 103.812 339.218 103.734V102.369C339.218 102.291 339.231 102.265 339.296 102.226C339.972 101.862 340.739 101.667 341.636 101.667C343.599 101.667 344.522 102.928 344.522 104.345C344.522 105.294 344.171 106.256 343.092 107.27C342.468 107.881 342.091 108.154 341.649 108.505C342.156 108.453 342.702 108.453 343.482 108.453H344.834C344.938 108.453 344.964 108.479 344.951 108.544L344.639 109.896C344.613 109.974 344.587 110 344.509 110Z" fill="#666666"/>
<path d="M578 53H498C493.582 53 490 56.5817 490 61V133C490 137.418 493.582 141 498 141H578C582.418 141 586 137.418 586 133V61C586 56.5817 582.418 53 578 53Z" fill="#EFF1F5"/>
<path d="M578 53.5H498C493.858 53.5 490.5 56.8579 490.5 61V133C490.5 137.142 493.858 140.5 498 140.5H578C582.142 140.5 585.5 137.142 585.5 133V61C585.5 56.8579 582.142 53.5 578 53.5Z" stroke="#D6D6D6" stroke-opacity="0.49"/>
<path d="M504.467 94H502.907C502.829 94 502.803 93.974 502.803 93.883V85.628C502.803 85.563 502.816 85.498 502.894 85.498C504.064 85.472 504.558 85.459 505.611 85.459C507.769 85.459 508.978 86.382 508.978 88.059C508.978 89.138 508.302 89.97 507.353 90.347C507.782 90.932 509.251 93.142 509.654 93.844C509.693 93.922 509.706 94 509.615 94H507.73C507.613 94 507.574 93.974 507.548 93.922C507.171 93.35 506.352 91.959 505.819 91.075C505.728 90.919 505.663 90.854 505.52 90.854H504.571V93.896C504.571 93.961 504.532 94 504.467 94ZM504.571 89.32H505.572C506.547 89.32 507.171 88.93 507.171 88.163C507.171 87.37 506.521 87.032 505.559 87.032C505.13 87.032 504.766 87.045 504.571 87.058V89.32ZM514.217 91.244H511.682C511.747 91.985 512.267 92.596 513.541 92.596C514.126 92.596 514.646 92.505 515.14 92.297C515.179 92.271 515.218 92.284 515.218 92.362V93.597C515.218 93.688 515.192 93.727 515.127 93.753C514.607 94 514.035 94.13 513.138 94.13C510.694 94.13 509.836 92.453 509.836 90.841C509.836 89.047 510.941 87.409 512.982 87.409C514.945 87.409 515.725 88.93 515.725 90.217C515.725 90.62 515.699 90.945 515.66 91.088C515.647 91.153 515.621 91.179 515.556 91.192C515.387 91.218 514.893 91.244 514.217 91.244ZM511.669 89.983H513.372C513.788 89.983 513.97 89.97 514.022 89.957C514.022 89.931 514.022 89.879 514.022 89.866C514.022 89.554 513.775 88.839 512.917 88.839C512.098 88.839 511.747 89.45 511.669 89.983ZM519.622 87.409C521.884 87.409 522.911 88.943 522.911 90.568C522.911 92.947 520.961 94.13 518.933 94.13C518.868 94.13 518.777 94.13 518.686 94.117V96.327C518.686 96.392 518.673 96.431 518.582 96.444C518.049 96.496 517.048 96.587 516.97 96.6C516.892 96.6 516.879 96.574 516.879 96.509V88.865C516.879 88.683 516.853 88.202 516.84 88.007C516.84 87.994 516.84 87.955 516.892 87.942C517.555 87.721 518.491 87.409 519.622 87.409ZM519.466 88.943C519.167 88.943 518.946 88.969 518.686 89.047V92.596C518.79 92.622 518.985 92.622 519.102 92.622C519.999 92.622 521.052 92.102 521.052 90.685C521.052 89.567 520.48 88.943 519.466 88.943ZM526.987 87.409C529.08 87.409 530.159 88.982 530.159 90.737C530.159 92.778 528.833 94.13 526.961 94.13C524.738 94.13 523.75 92.453 523.75 90.776C523.75 88.93 524.985 87.409 526.987 87.409ZM526.909 88.917C526.155 88.917 525.583 89.593 525.583 90.75C525.583 91.894 526.116 92.622 526.987 92.622C527.741 92.622 528.313 91.972 528.313 90.776C528.313 89.762 527.897 88.917 526.909 88.917ZM531.339 87.539H532.756C532.847 87.539 532.886 87.578 532.912 87.656C532.977 87.825 533.042 88.098 533.055 88.384C533.484 87.877 534.199 87.409 535.122 87.409C535.2 87.409 535.226 87.435 535.226 87.513V89.112C535.226 89.177 535.2 89.203 535.109 89.203C534.173 89.164 533.419 89.45 533.146 89.762L533.133 93.896C533.133 93.974 533.107 94 533.016 94H531.456C531.352 94 531.326 93.961 531.326 93.883V89.398C531.326 88.839 531.313 88.085 531.261 87.63C531.261 87.565 531.274 87.539 531.339 87.539ZM539.856 92.7V93.779C539.856 93.857 539.843 93.922 539.765 93.948C539.401 94.078 539.063 94.13 538.608 94.13C537.477 94.13 536.814 93.571 536.814 92.271V89.047H536.034C535.956 89.034 535.93 89.008 535.93 88.93V87.656C535.93 87.565 535.956 87.539 536.047 87.539H536.827C536.84 87.097 536.892 86.33 536.957 85.966C536.97 85.901 537.009 85.862 537.074 85.849L538.595 85.654C538.66 85.641 538.699 85.641 538.699 85.732C538.66 86.135 538.634 86.902 538.634 87.539H539.83C539.908 87.539 539.934 87.565 539.934 87.643V88.956C539.934 89.021 539.908 89.034 539.843 89.047H538.621V91.829C538.621 92.401 538.79 92.661 539.323 92.661C539.479 92.661 539.609 92.635 539.765 92.609C539.817 92.609 539.856 92.622 539.856 92.7ZM545.936 94.13C544.974 94.13 544.181 93.961 543.635 93.675C543.57 93.636 543.544 93.571 543.544 93.467V91.92C543.544 91.855 543.596 91.816 543.648 91.855C544.363 92.31 545.221 92.531 546.001 92.531C546.989 92.531 547.379 92.193 547.379 91.738C547.379 91.322 547.08 91.023 546.196 90.646L545.546 90.373C543.947 89.697 543.505 88.891 543.505 87.877C543.505 86.473 544.571 85.355 546.638 85.355C547.457 85.355 548.198 85.459 548.666 85.693C548.731 85.732 548.744 85.784 548.744 85.862V87.318C548.744 87.37 548.705 87.435 548.627 87.383C548.107 87.084 547.392 86.954 546.625 86.954C545.624 86.954 545.273 87.292 545.273 87.721C545.273 88.124 545.546 88.397 546.521 88.787L547.002 88.982C548.731 89.697 549.212 90.516 549.212 91.569C549.212 93.142 547.938 94.13 545.936 94.13ZM555.972 87.643V92.557C555.972 93.22 556.024 93.623 556.05 93.896C556.063 93.974 556.024 94 555.933 94H554.555C554.451 94 554.425 93.974 554.399 93.909C554.373 93.792 554.334 93.623 554.321 93.506C553.749 94 553.099 94.13 552.54 94.13C551.24 94.13 550.343 93.415 550.343 91.621V87.643C550.343 87.552 550.369 87.539 550.46 87.539H552.046C552.124 87.539 552.137 87.565 552.137 87.643V91.413C552.137 92.115 552.436 92.57 553.151 92.57C553.58 92.57 553.879 92.44 554.165 92.193V87.643C554.165 87.565 554.204 87.539 554.295 87.539H555.868C555.959 87.539 555.972 87.565 555.972 87.643ZM557.542 93.883V87.643C557.542 87.578 557.568 87.539 557.646 87.539H559.245C559.323 87.539 559.349 87.565 559.349 87.643V93.883C559.349 93.961 559.336 94 559.232 94H557.672C557.581 94 557.542 93.961 557.542 93.883ZM558.452 86.85C557.841 86.85 557.451 86.447 557.451 85.836C557.451 85.251 557.88 84.835 558.465 84.835C559.089 84.835 559.466 85.251 559.466 85.836C559.466 86.447 559.063 86.85 558.452 86.85ZM564.231 92.7V93.779C564.231 93.857 564.218 93.922 564.14 93.948C563.776 94.078 563.438 94.13 562.983 94.13C561.852 94.13 561.189 93.571 561.189 92.271V89.047H560.409C560.331 89.034 560.305 89.008 560.305 88.93V87.656C560.305 87.565 560.331 87.539 560.422 87.539H561.202C561.215 87.097 561.267 86.33 561.332 85.966C561.345 85.901 561.384 85.862 561.449 85.849L562.97 85.654C563.035 85.641 563.074 85.641 563.074 85.732C563.035 86.135 563.009 86.902 563.009 87.539H564.205C564.283 87.539 564.309 87.565 564.309 87.643V88.956C564.309 89.021 564.283 89.034 564.218 89.047H562.996V91.829C562.996 92.401 563.165 92.661 563.698 92.661C563.854 92.661 563.984 92.635 564.14 92.609C564.192 92.609 564.231 92.622 564.231 92.7ZM569.277 91.244H566.742C566.807 91.985 567.327 92.596 568.601 92.596C569.186 92.596 569.706 92.505 570.2 92.297C570.239 92.271 570.278 92.284 570.278 92.362V93.597C570.278 93.688 570.252 93.727 570.187 93.753C569.667 94 569.095 94.13 568.198 94.13C565.754 94.13 564.896 92.453 564.896 90.841C564.896 89.047 566.001 87.409 568.042 87.409C570.005 87.409 570.785 88.93 570.785 90.217C570.785 90.62 570.759 90.945 570.72 91.088C570.707 91.153 570.681 91.179 570.616 91.192C570.447 91.218 569.953 91.244 569.277 91.244ZM566.729 89.983H568.432C568.848 89.983 569.03 89.97 569.082 89.957C569.082 89.931 569.082 89.879 569.082 89.866C569.082 89.554 568.835 88.839 567.977 88.839C567.158 88.839 566.807 89.45 566.729 89.983Z" fill="#666666"/>
<path d="M536.869 106.711L535.556 103.643C535.517 103.591 535.556 103.539 535.608 103.539H537.246C537.311 103.539 537.311 103.552 537.324 103.604C537.597 104.293 537.857 105.021 538.117 105.71H538.13C538.611 105.021 539.079 104.319 539.56 103.617C539.599 103.565 539.625 103.539 539.677 103.539H541.25C541.315 103.539 541.328 103.617 541.302 103.643L538.988 106.75L540.379 109.883C540.405 109.948 540.392 110 540.327 110H538.715C538.65 110 538.611 109.961 538.585 109.896L537.74 107.738H537.727C537.337 108.362 536.687 109.272 536.245 109.922C536.219 109.948 536.193 109.987 536.115 110H534.477C534.412 110 534.399 109.935 534.438 109.883L536.869 106.711Z" fill="#666666"/>
<path d="M237.5 140.5V161.5" stroke="#707070"/>
<path d="M342 140.5V161.5" stroke="#707070"/>
<path d="M538 140.5V161.5" stroke="#707070"/>
<path d="M457.82 154.6C455.9 154.6 454.58 153.34 454.58 151.3C454.58 149.44 455.9 148.06 457.82 148.06C459.74 148.06 461.06 149.44 461.06 151.3C461.06 153.28 459.8 154.6 457.82 154.6ZM425.66 154.6C423.8 154.6 422.48 153.34 422.48 151.3C422.48 149.44 423.74 148.06 425.66 148.06C427.64 148.06 428.9 149.44 428.9 151.3C428.9 153.28 427.7 154.6 425.66 154.6ZM441.86 154.6C439.94 154.6 438.62 153.34 438.62 151.3C438.62 149.44 439.94 148.06 441.86 148.06C443.78 148.06 445.1 149.44 445.1 151.3C445.1 153.28 443.9 154.6 441.86 154.6Z" fill="#707070"/>
</g>
</g>
<defs>
<clipPath id="clip0_70_2">
<rect width="791" height="357" fill="white"/>
</clipPath>
</defs>
</svg>
