<svg width="1024" height="566" viewBox="0 0 1024 566" fill="none" xmlns="http://www.w3.org/2000/svg">
<g clip-path="url(#clip0_81_1361)">
<mask id="mask0_81_1361" style="mask-type:luminance" maskUnits="userSpaceOnUse" x="0" y="0" width="1024" height="566">
<path d="M1024 0H0V566H1024V0Z" fill="white"/>
</mask>
<g mask="url(#mask0_81_1361)">
<path d="M1024 0H0V566H1024V0Z" fill="white"/>
<path d="M291.94 181.297H61.9267C52.155 181.297 44.2334 189.216 44.2334 198.984V395.758C44.2334 405.526 52.155 413.445 61.9267 413.445H291.94C301.711 413.445 309.633 405.526 309.633 395.758V198.984C309.633 189.216 301.711 181.297 291.94 181.297Z" fill="#EFF1F5"/>
<path d="M291.939 181.85H61.9265C52.4601 181.85 44.7861 189.521 44.7861 198.984V395.758C44.7861 405.221 52.4601 412.893 61.9265 412.893H291.939C301.406 412.893 309.08 405.221 309.08 395.758V198.984C309.08 189.521 301.406 181.85 291.939 181.85Z" stroke="#707070" stroke-width="0.5"/>
<path d="M191.948 202.933C191.948 198.215 183.048 195.748 174.255 195.748C165.461 195.748 156.562 198.215 156.562 202.933C156.569 203.081 156.586 203.229 156.612 203.375C156.589 203.456 156.572 203.538 156.562 203.621V225.595C156.562 230.154 165.733 232.228 174.255 232.228C182.776 232.228 191.948 230.154 191.948 225.595V203.621C191.938 203.535 191.921 203.45 191.897 203.366C191.923 203.223 191.94 203.078 191.948 202.933ZM188.631 214.529C188.427 215.447 183.703 217.857 174.255 217.857C164.807 217.857 160.078 215.445 159.879 214.541V207.297C164.391 209.328 169.31 210.293 174.255 210.119C179.2 210.293 184.119 209.328 188.631 207.297V214.529ZM174.255 199.064C183.741 199.064 188.631 201.777 188.631 202.933C188.631 204.089 183.741 206.802 174.255 206.802C164.769 206.802 159.879 204.089 159.879 202.933C159.879 201.777 164.769 199.064 174.255 199.064ZM174.255 228.912C164.804 228.912 160.078 226.499 159.879 225.595V218.622C164.438 220.474 169.337 221.343 174.255 221.173C179.173 221.344 184.072 220.474 188.631 218.622V225.582C188.429 226.499 183.703 228.912 174.255 228.912Z" fill="black"/>
<path d="M484.354 181.297H342.808C333.036 181.297 325.114 189.216 325.114 198.984V395.758C325.114 405.526 333.036 413.445 342.808 413.445H484.354C494.126 413.445 502.047 405.526 502.047 395.758V198.984C502.047 189.216 494.126 181.297 484.354 181.297Z" fill="#EFF1F5"/>
<path d="M484.354 181.85H342.807C333.341 181.85 325.667 189.521 325.667 198.984V395.758C325.667 405.221 333.341 412.893 342.807 412.893H484.354C493.82 412.893 501.494 405.221 501.494 395.758V198.984C501.494 189.521 493.82 181.85 484.354 181.85Z" stroke="#707070" stroke-width="0.5"/>
<path d="M429.627 202.933C429.627 198.215 420.727 195.748 411.934 195.748C403.14 195.748 394.24 198.215 394.24 202.933C394.248 203.081 394.265 203.229 394.291 203.375C394.268 203.456 394.251 203.538 394.24 203.621V225.595C394.24 230.154 403.412 232.228 411.934 232.228C420.455 232.228 429.627 230.154 429.627 225.595V203.621C429.617 203.535 429.6 203.45 429.576 203.366C429.602 203.223 429.619 203.078 429.627 202.933ZM426.309 214.529C426.106 215.447 421.382 217.857 411.934 217.857C402.485 217.857 397.757 215.445 397.558 214.541V207.297C402.07 209.328 406.989 210.293 411.934 210.119C416.879 210.293 421.797 209.328 426.309 207.297V214.529ZM411.934 199.064C421.419 199.064 426.309 201.777 426.309 202.933C426.309 204.089 421.419 206.802 411.934 206.802C402.448 206.802 397.558 204.089 397.558 202.933C397.558 201.777 402.448 199.064 411.934 199.064ZM411.934 228.912C402.483 228.912 397.757 226.499 397.558 225.595V218.622C402.117 220.474 407.015 221.343 411.934 221.173C416.852 221.344 421.75 220.474 426.309 218.622V225.582C426.108 226.499 421.382 228.912 411.934 228.912Z" fill="black"/>
<path d="M955.438 181.297H723.214C713.442 181.297 705.521 189.216 705.521 198.984V395.758C705.521 405.526 713.442 413.445 723.214 413.445H955.438C965.21 413.445 973.132 405.526 973.132 395.758V198.984C973.132 189.216 965.21 181.297 955.438 181.297Z" fill="#EFF1F5"/>
<path d="M955.438 181.85H723.214C713.747 181.85 706.073 189.521 706.073 198.984V395.758C706.073 405.221 713.747 412.893 723.214 412.893H955.438C964.905 412.893 972.579 405.221 972.579 395.758V198.984C972.579 189.521 964.905 181.85 955.438 181.85Z" stroke="#707070" stroke-width="0.5"/>
<path d="M854.317 202.933C854.317 198.215 845.418 195.748 836.624 195.748C827.83 195.748 818.931 198.215 818.931 202.933C818.938 203.081 818.955 203.229 818.982 203.375C818.958 203.456 818.941 203.538 818.931 203.621V225.595C818.931 230.154 828.102 232.228 836.624 232.228C845.146 232.228 854.317 230.154 854.317 225.595V203.621C854.307 203.535 854.29 203.45 854.266 203.366C854.292 203.223 854.309 203.078 854.317 202.933ZM851 214.529C850.796 215.447 846.072 217.857 836.624 217.857C827.176 217.857 822.447 215.445 822.248 214.541V207.297C826.76 209.328 831.679 210.293 836.624 210.119C841.569 210.293 846.488 209.328 851 207.297V214.529ZM836.624 199.064C846.11 199.064 851 201.777 851 202.933C851 204.089 846.11 206.802 836.624 206.802C827.138 206.802 822.248 204.089 822.248 202.933C822.248 201.777 827.138 199.064 836.624 199.064ZM836.624 228.912C827.174 228.912 822.447 226.499 822.248 225.595V218.622C826.807 220.474 831.706 221.343 836.624 221.173C841.542 221.344 846.441 220.474 851 218.622V225.582C850.799 226.499 846.072 228.912 836.624 228.912Z" fill="black"/>
<path d="M593.947 231.842C592.027 231.842 590.707 230.582 590.707 228.542C590.707 226.682 592.027 225.302 593.947 225.302C595.867 225.302 597.187 226.682 597.187 228.542C597.187 230.522 595.927 231.842 593.947 231.842ZM561.787 231.842C559.927 231.842 558.607 230.582 558.607 228.542C558.607 226.682 559.867 225.302 561.787 225.302C563.767 225.302 565.027 226.682 565.027 228.542C565.027 230.522 563.827 231.842 561.787 231.842ZM577.987 231.842C576.067 231.842 574.747 230.582 574.747 228.542C574.747 226.682 576.067 225.302 577.987 225.302C579.907 225.302 581.227 226.682 581.227 228.542C581.227 230.522 580.027 231.842 577.987 231.842Z" fill="#707070"/>
<path d="M593.947 231.842C592.027 231.842 590.707 230.582 590.707 228.542C590.707 226.682 592.027 225.302 593.947 225.302C595.867 225.302 597.187 226.682 597.187 228.542C597.187 230.522 595.927 231.842 593.947 231.842ZM561.787 231.842C559.927 231.842 558.607 230.582 558.607 228.542C558.607 226.682 559.867 225.302 561.787 225.302C563.767 225.302 565.027 226.682 565.027 228.542C565.027 230.522 563.827 231.842 561.787 231.842ZM577.987 231.842C576.067 231.842 574.747 230.582 574.747 228.542C574.747 226.682 576.067 225.302 577.987 225.302C579.907 225.302 581.227 226.682 581.227 228.542C581.227 230.522 580.027 231.842 577.987 231.842Z" fill="black"/>
<path d="M406.946 155.871V182.402" stroke="#707070" stroke-width="0.25"/>
<path d="M754.177 413.445V439.977" stroke="#707070" stroke-width="0.25"/>
<path d="M455.603 413.445V439.977" stroke="#707070" stroke-width="0.25"/>
<path d="M367.136 413.445V439.977" stroke="#707070" stroke-width="0.25"/>
<path d="M263.188 413.445V439.977" stroke="#707070" stroke-width="0.25"/>
<path d="M174.722 413.445V439.977" stroke="#707070" stroke-width="0.25"/>
<path d="M86.2549 413.445V439.977" stroke="#707070" stroke-width="0.25"/>
<path d="M840.432 413.445V439.977" stroke="#707070" stroke-width="0.25"/>
<path d="M928.898 413.445V439.977" stroke="#707070" stroke-width="0.25"/>
<path d="M371.56 259.785V281.895" stroke="#707070" stroke-width="0.25"/>
<path d="M260.977 259.785V281.895" stroke="#707070" stroke-width="0.25"/>
<path d="M926.687 259.785V281.895" stroke="#707070" stroke-width="0.25"/>
<path d="M174.722 259.785V281.895" stroke="#707070" stroke-width="0.25"/>
<path d="M840.432 259.785V281.895" stroke="#707070" stroke-width="0.25"/>
<path d="M90.6777 259.785V281.895" stroke="#707070" stroke-width="0.25"/>
<path d="M756.389 259.785V281.895" stroke="#707070" stroke-width="0.25"/>
<path d="M455.603 259.785V281.895" stroke="#707070" stroke-width="0.25"/>
<path d="M172.51 155.871V182.402" stroke="#707070" stroke-width="0.25"/>
<path d="M291.939 131.551V155.871" stroke="#707070" stroke-width="0.25"/>
<path d="M411.369 235.465V259.785" stroke="#707070" stroke-width="0.25"/>
<path d="M174.722 235.465V259.785" stroke="#707070" stroke-width="0.25"/>
<path d="M840.432 235.465V259.785" stroke="#707070" stroke-width="0.25"/>
<path d="M171.404 155.871H408.052" stroke="#707070" stroke-width="0.25"/>
<path d="M370.453 259.785H456.708" stroke="#707070" stroke-width="0.25"/>
<path d="M89.5723 259.785H262.082" stroke="#707070" stroke-width="0.25"/>
<path d="M755.283 259.785H927.793" stroke="#707070" stroke-width="0.25"/>
<path d="M840.432 131.551L841.537 182.402" stroke="#707070" stroke-width="0.25"/>
<path d="M345.02 44.2188H201.262C191.49 44.2188 183.568 52.1377 183.568 61.9062V114.969C183.568 124.737 191.49 132.656 201.262 132.656H345.02C354.792 132.656 362.713 124.737 362.713 114.969V61.9062C362.713 52.1377 354.792 44.2188 345.02 44.2188Z" fill="#EFF1F5"/>
<path d="M345.02 44.7715H201.261C191.795 44.7715 184.121 52.443 184.121 61.9062V114.969C184.121 124.432 191.795 132.104 201.261 132.104H345.02C354.486 132.104 362.16 124.432 362.16 114.969V61.9062C362.16 52.443 354.486 44.7715 345.02 44.7715Z" stroke="#707070" stroke-width="0.5"/>
<path d="M239.116 107.23H222.529C222.089 107.23 221.667 107.056 221.356 106.745C221.045 106.434 220.87 106.012 220.87 105.572C220.87 105.132 221.045 104.711 221.356 104.4C221.667 104.089 222.089 103.914 222.529 103.914H239.116C239.556 103.914 239.978 104.089 240.289 104.4C240.6 104.711 240.775 105.132 240.775 105.572C240.775 106.012 240.6 106.434 240.289 106.745C239.978 107.056 239.556 107.23 239.116 107.23Z" fill="black"/>
<path d="M210.325 78.1301C210.01 78.1289 209.701 78.0381 209.436 77.8683C209.17 77.6984 208.958 77.4565 208.825 77.1709C208.692 76.8852 208.643 76.5676 208.684 76.2551C208.725 75.9426 208.853 75.6482 209.055 75.4062L215.102 68.2096C215.242 68.0431 215.414 67.9058 215.608 67.8057C215.801 67.7056 216.013 67.6446 216.23 67.6261C216.447 67.6076 216.665 67.6321 216.873 67.698C217.081 67.764 217.273 67.8702 217.44 68.0106C217.606 68.151 217.744 68.3228 217.844 68.5162C217.944 68.7096 218.005 68.9209 218.023 69.1379C218.042 69.3549 218.017 69.5734 217.951 69.781C217.885 69.9885 217.779 70.1811 217.639 70.3476L211.599 77.5397C211.443 77.7255 211.248 77.8749 211.029 77.9773C210.809 78.0796 210.569 78.1326 210.327 78.1323L210.325 78.1301Z" fill="black"/>
<path d="M232.021 96.1338C231.706 96.1326 231.397 96.0418 231.132 95.872C230.866 95.7021 230.655 95.4603 230.522 95.1746C230.388 94.889 230.339 94.5713 230.38 94.2589C230.421 93.9464 230.55 93.6519 230.752 93.4099L236.794 86.2111C237.077 85.8742 237.482 85.6635 237.921 85.6254C238.359 85.5872 238.795 85.7248 239.132 86.0077C239.469 86.2906 239.679 86.6958 239.717 87.134C239.756 87.5723 239.618 88.0078 239.335 88.3447L233.293 95.5523C233.137 95.7382 232.943 95.8876 232.723 95.99C232.503 96.0924 232.264 96.1453 232.021 96.1448V96.1338Z" fill="black"/>
<path d="M232.484 80.0272L224.86 73.6309C224.36 73.2105 223.781 72.8928 223.158 72.6959C222.535 72.4991 221.879 72.4269 221.228 72.4836C220.577 72.5403 219.943 72.7246 219.364 73.0262C218.784 73.3278 218.269 73.7406 217.849 74.2412L215.717 76.7837C214.876 77.7897 214.466 79.0866 214.576 80.393C214.685 81.6994 215.306 82.9097 216.303 83.7615C212.382 88.2983 206.174 95.4242 203.716 98.2409L202.653 99.4635C201.899 100.42 201.547 101.631 201.671 102.842C201.795 104.053 202.384 105.168 203.316 105.952C204.247 106.737 205.447 107.128 206.662 107.044C207.876 106.96 209.011 106.407 209.825 105.502L210.396 104.838C212.375 102.572 218.977 94.9996 223.21 90.1024C223.301 89.9878 223.375 89.8613 223.431 89.7266L223.964 90.1688C224.857 90.9202 225.987 91.3314 227.153 91.3295C227.299 91.3295 227.45 91.3295 227.596 91.3096C228.243 91.257 228.874 91.0774 229.452 90.7812C230.03 90.4849 230.544 90.0777 230.964 89.5829L233.098 87.0447C233.518 86.5442 233.836 85.9658 234.032 85.3427C234.228 84.7196 234.3 84.0639 234.243 83.4131C234.186 82.7622 234.001 82.129 233.699 81.5496C233.397 80.9702 232.984 80.4558 232.484 80.036V80.0272ZM220.7 87.949C216.469 92.8418 209.863 100.408 207.894 102.674L207.295 103.361C207.062 103.642 206.728 103.818 206.365 103.852C206.002 103.886 205.641 103.774 205.361 103.542C205.08 103.309 204.904 102.975 204.87 102.612C204.836 102.25 204.948 101.888 205.181 101.608L206.216 100.421C208.688 97.5953 214.919 90.4363 218.842 85.8972L221.005 87.7124C220.895 87.7786 220.793 87.8581 220.702 87.949H220.7ZM230.557 84.9023L228.423 87.4427C228.283 87.6095 228.111 87.7472 227.918 87.8477C227.725 87.9482 227.513 88.0097 227.296 88.0286C227.079 88.0475 226.86 88.0234 226.653 87.9578C226.445 87.8921 226.252 87.7862 226.085 87.6461L218.464 81.252C218.127 80.9692 217.916 80.5642 217.877 80.1261C217.839 79.6879 217.976 79.2524 218.258 78.9151L220.39 76.3725C220.53 76.2058 220.702 76.0684 220.895 75.9682C221.088 75.868 221.299 75.8071 221.516 75.7888C221.954 75.7532 222.388 75.8905 222.726 76.1713L230.363 82.5675C230.53 82.7072 230.667 82.8785 230.768 83.0715C230.869 83.2645 230.931 83.4754 230.95 83.6923C230.969 83.9091 230.945 84.1276 230.879 84.3353C230.814 84.5429 230.708 84.7356 230.568 84.9023H230.557Z" fill="black"/>
<path d="M289.164 107.23H272.577C272.137 107.23 271.715 107.056 271.404 106.745C271.093 106.434 270.918 106.012 270.918 105.572C270.918 105.132 271.093 104.711 271.404 104.4C271.715 104.089 272.137 103.914 272.577 103.914H289.164C289.604 103.914 290.026 104.089 290.337 104.4C290.648 104.711 290.823 105.132 290.823 105.572C290.823 106.012 290.648 106.434 290.337 106.745C290.026 107.056 289.604 107.23 289.164 107.23Z" fill="black"/>
<path d="M260.373 78.1301C260.057 78.1289 259.749 78.0381 259.484 77.8683C259.218 77.6984 259.006 77.4565 258.873 77.1709C258.74 76.8852 258.691 76.5676 258.732 76.2551C258.772 75.9426 258.901 75.6482 259.103 75.4062L265.15 68.2096C265.29 68.0431 265.462 67.9058 265.656 67.8057C265.849 67.7056 266.06 67.6446 266.277 67.6261C266.495 67.6076 266.713 67.6321 266.921 67.698C267.128 67.764 267.321 67.8702 267.488 68.0106C267.654 68.151 267.791 68.3228 267.892 68.5162C267.992 68.7096 268.053 68.9209 268.071 69.1379C268.09 69.3549 268.065 69.5734 267.999 69.781C267.933 69.9885 267.827 70.1811 267.687 70.3476L261.647 77.5397C261.491 77.7255 261.296 77.8749 261.077 77.9773C260.857 78.0796 260.617 78.1326 260.375 78.1323L260.373 78.1301Z" fill="black"/>
<path d="M282.069 96.1338C281.754 96.1326 281.445 96.0418 281.18 95.872C280.914 95.7021 280.703 95.4603 280.569 95.1746C280.436 94.889 280.387 94.5713 280.428 94.2589C280.469 93.9464 280.598 93.6519 280.799 93.4099L286.842 86.2111C287.125 85.8742 287.53 85.6635 287.968 85.6254C288.407 85.5872 288.842 85.7248 289.179 86.0077C289.516 86.2906 289.727 86.6958 289.765 87.134C289.804 87.5723 289.666 88.0078 289.383 88.3447L283.341 95.5523C283.185 95.7382 282.991 95.8876 282.771 95.99C282.551 96.0924 282.311 96.1453 282.069 96.1448V96.1338Z" fill="black"/>
<path d="M282.531 80.0272L274.908 73.6309C274.407 73.2105 273.829 72.8928 273.206 72.6959C272.583 72.4991 271.927 72.4269 271.276 72.4836C270.625 72.5403 269.991 72.7246 269.411 73.0262C268.832 73.3278 268.317 73.7406 267.897 74.2412L265.765 76.7837C264.924 77.7897 264.514 79.0866 264.624 80.393C264.733 81.6994 265.354 82.9097 266.351 83.7615C262.43 88.2983 256.221 95.4242 253.764 98.2409L252.7 99.4635C251.947 100.42 251.595 101.631 251.719 102.842C251.842 104.053 252.432 105.168 253.364 105.952C254.295 106.737 255.495 107.128 256.71 107.044C257.924 106.96 259.059 106.407 259.873 105.502L260.444 104.838C262.423 102.572 269.025 94.9996 273.258 90.1024C273.348 89.9878 273.423 89.8613 273.479 89.7266L274.012 90.1688C274.905 90.9202 276.034 91.3314 277.201 91.3295C277.347 91.3295 277.498 91.3295 277.644 91.3096C278.291 91.257 278.922 91.0774 279.5 90.7812C280.078 90.4849 280.591 90.0777 281.012 89.5829L283.146 87.0447C283.566 86.5442 283.884 85.9658 284.08 85.3427C284.276 84.7196 284.348 84.0639 284.291 83.4131C284.234 82.7622 284.049 82.129 283.747 81.5496C283.445 80.9702 283.032 80.4558 282.531 80.036V80.0272ZM270.748 87.949C266.517 92.8418 259.911 100.408 257.942 102.674L257.343 103.361C257.11 103.642 256.776 103.818 256.413 103.852C256.05 103.886 255.689 103.774 255.409 103.542C255.128 103.309 254.952 102.975 254.918 102.612C254.884 102.25 254.996 101.888 255.228 101.608L256.263 100.421C258.736 97.5953 264.966 90.4363 268.89 85.8972L271.053 87.7124C270.943 87.7786 270.841 87.8581 270.75 87.949H270.748ZM280.605 84.9023L278.471 87.4427C278.331 87.6095 278.159 87.7472 277.966 87.8477C277.772 87.9482 277.561 88.0097 277.344 88.0286C277.127 88.0475 276.908 88.0234 276.701 87.9578C276.493 87.8921 276.3 87.7862 276.133 87.6461L268.512 81.252C268.175 80.9692 267.964 80.5642 267.925 80.1261C267.887 79.6879 268.024 79.2524 268.306 78.9151L270.438 76.3725C270.578 76.2058 270.749 76.0684 270.943 75.9682C271.136 75.868 271.347 75.8071 271.564 75.7888C272.002 75.7532 272.436 75.8905 272.774 76.1713L280.41 82.5675C280.577 82.7072 280.715 82.8785 280.816 83.0715C280.917 83.2645 280.978 83.4754 280.998 83.6923C281.017 83.9091 280.993 84.1276 280.927 84.3353C280.862 84.5429 280.756 84.7356 280.616 84.9023H280.605Z" fill="black"/>
<path d="M338.294 107.23H321.707C321.267 107.23 320.845 107.056 320.534 106.745C320.223 106.434 320.048 106.012 320.048 105.572C320.048 105.132 320.223 104.711 320.534 104.4C320.845 104.089 321.267 103.914 321.707 103.914H338.294C338.734 103.914 339.156 104.089 339.467 104.4C339.778 104.711 339.953 105.132 339.953 105.572C339.953 106.012 339.778 106.434 339.467 106.745C339.156 107.056 338.734 107.23 338.294 107.23Z" fill="black"/>
<path d="M309.503 78.1301C309.187 78.1289 308.879 78.0381 308.613 77.8683C308.348 77.6984 308.136 77.4565 308.003 77.1709C307.87 76.8852 307.821 76.5676 307.862 76.2551C307.902 75.9426 308.031 75.6482 308.233 75.4062L314.28 68.2096C314.42 68.0431 314.592 67.9058 314.786 67.8057C314.979 67.7056 315.19 67.6446 315.407 67.6261C315.624 67.6076 315.843 67.6321 316.051 67.698C316.258 67.764 316.451 67.8702 316.617 68.0106C316.784 68.151 316.921 68.3228 317.021 68.5162C317.122 68.7096 317.183 68.9209 317.201 69.1379C317.22 69.3549 317.195 69.5734 317.129 69.781C317.063 69.9885 316.957 70.1811 316.817 70.3476L310.776 77.5397C310.621 77.7255 310.426 77.8749 310.206 77.9773C309.987 78.0796 309.747 78.1326 309.505 78.1323L309.503 78.1301Z" fill="black"/>
<path d="M331.199 96.1338C330.884 96.1326 330.575 96.0418 330.31 95.872C330.044 95.7021 329.832 95.4603 329.699 95.1746C329.566 94.889 329.517 94.5713 329.558 94.2589C329.599 93.9464 329.727 93.6519 329.929 93.4099L335.972 86.2111C336.255 85.8742 336.66 85.6635 337.098 85.6254C337.537 85.5872 337.972 85.7248 338.309 86.0077C338.646 86.2906 338.857 86.6958 338.895 87.134C338.933 87.5723 338.796 88.0078 338.513 88.3447L332.471 95.5523C332.315 95.7382 332.12 95.8876 331.901 95.99C331.681 96.0924 331.441 96.1453 331.199 96.1448V96.1338Z" fill="black"/>
<path d="M331.661 80.0272L324.038 73.6309C323.537 73.2105 322.959 72.8928 322.336 72.6959C321.713 72.4991 321.057 72.4269 320.406 72.4836C319.755 72.5403 319.121 72.7246 318.541 73.0262C317.961 73.3278 317.447 73.7406 317.027 74.2412L314.895 76.7837C314.054 77.7897 313.644 79.0866 313.753 80.393C313.863 81.6994 314.484 82.9097 315.481 83.7615C311.559 88.2983 305.351 95.4242 302.894 98.2409L301.83 99.4635C301.077 100.42 300.725 101.631 300.849 102.842C300.972 104.053 301.562 105.168 302.494 105.952C303.425 106.737 304.625 107.128 305.839 107.044C307.054 106.96 308.189 106.407 309.003 105.502L309.573 104.838C311.553 102.572 318.155 94.9996 322.388 90.1024C322.478 89.9878 322.553 89.8613 322.609 89.7266L323.142 90.1688C324.034 90.9202 325.164 91.3314 326.331 91.3295C326.477 91.3295 326.628 91.3295 326.774 91.3096C327.421 91.257 328.052 91.0774 328.63 90.7812C329.207 90.4849 329.721 90.0777 330.142 89.5829L332.276 87.0447C332.696 86.5442 333.013 85.9658 333.21 85.3427C333.406 84.7196 333.478 84.0639 333.421 83.4131C333.364 82.7622 333.179 82.129 332.877 81.5496C332.575 80.9702 332.162 80.4558 331.661 80.036V80.0272ZM319.878 87.949C315.647 92.8418 309.04 100.408 307.072 102.674L306.473 103.361C306.24 103.642 305.906 103.818 305.543 103.852C305.18 103.886 304.819 103.774 304.539 103.542C304.258 103.309 304.082 102.975 304.048 102.612C304.014 102.25 304.126 101.888 304.358 101.608L305.393 100.421C307.866 97.5953 314.096 90.4363 318.02 85.8972L320.183 87.7124C320.073 87.7786 319.971 87.8581 319.88 87.949H319.878ZM329.735 84.9023L327.601 87.4427C327.461 87.6095 327.289 87.7472 327.096 87.8477C326.902 87.9482 326.691 88.0097 326.474 88.0286C326.257 88.0475 326.038 88.0234 325.83 87.9578C325.623 87.8921 325.43 87.7862 325.263 87.6461L317.642 81.252C317.305 80.9692 317.094 80.5642 317.055 80.1261C317.017 79.6879 317.154 79.2524 317.436 78.9151L319.568 76.3725C319.708 76.2058 319.879 76.0684 320.072 75.9682C320.266 75.868 320.477 75.8071 320.694 75.7888C321.131 75.7532 321.566 75.8905 321.903 76.1713L329.54 82.5675C329.707 82.7072 329.845 82.8785 329.946 83.0715C330.047 83.2645 330.108 83.4754 330.127 83.6923C330.146 83.9091 330.123 84.1276 330.057 84.3353C329.992 84.5429 329.886 84.7356 329.746 84.9023H329.735Z" fill="black"/>
<path d="M893.512 48.6406H749.754C739.982 48.6406 732.061 56.5596 732.061 66.3281V119.391C732.061 129.159 739.982 137.078 749.754 137.078H893.512C903.284 137.078 911.205 129.159 911.205 119.391V66.3281C911.205 56.5596 903.284 48.6406 893.512 48.6406Z" fill="#EFF1F5"/>
<path d="M893.512 49.1934H749.754C740.287 49.1934 732.613 56.8649 732.613 66.3281V119.391C732.613 128.854 740.287 136.525 749.754 136.525H893.512C902.978 136.525 910.652 128.854 910.652 119.391V66.3281C910.652 56.8649 902.978 49.1934 893.512 49.1934Z" stroke="#707070" stroke-width="0.5"/>
<path d="M787.609 111.652H771.021C770.581 111.652 770.159 111.478 769.848 111.167C769.537 110.856 769.362 110.434 769.362 109.994C769.362 109.554 769.537 109.133 769.848 108.822C770.159 108.511 770.581 108.336 771.021 108.336H787.609C788.048 108.336 788.47 108.511 788.781 108.822C789.093 109.133 789.267 109.554 789.267 109.994C789.267 110.434 789.093 110.856 788.781 111.167C788.47 111.478 788.048 111.652 787.609 111.652Z" fill="black"/>
<path d="M758.817 82.5519C758.502 82.5508 758.193 82.46 757.928 82.2901C757.662 82.1203 757.451 81.8784 757.317 81.5928C757.184 81.3071 757.135 80.9895 757.176 80.677C757.217 80.3645 757.346 80.0701 757.548 79.8281L763.594 72.6315C763.735 72.465 763.906 72.3277 764.1 72.2276C764.293 72.1275 764.505 72.0664 764.722 72.048C764.939 72.0295 765.157 72.0539 765.365 72.1199C765.573 72.1859 765.765 72.2921 765.932 72.4325C766.098 72.5729 766.236 72.7447 766.336 72.9381C766.436 73.1315 766.497 73.3427 766.516 73.5597C766.534 73.7768 766.51 73.9953 766.444 74.2028C766.378 74.4104 766.271 74.6029 766.131 74.7694L760.091 81.9616C759.935 82.1474 759.741 82.2967 759.521 82.3991C759.301 82.5015 759.062 82.5544 758.819 82.5542L758.817 82.5519Z" fill="black"/>
<path d="M780.513 100.556C780.198 100.555 779.89 100.464 779.624 100.294C779.359 100.124 779.147 99.8821 779.014 99.5965C778.881 99.3108 778.832 98.9932 778.872 98.6807C778.913 98.3682 779.042 98.0738 779.244 97.8318L785.286 90.633C785.569 90.2961 785.974 90.0854 786.413 90.0473C786.851 90.0091 787.287 90.1466 787.624 90.4296C787.961 90.7125 788.172 91.1177 788.21 91.5559C788.248 91.9942 788.11 92.4297 787.827 92.7665L781.785 99.9742C781.629 100.16 781.435 100.31 781.215 100.412C780.995 100.514 780.756 100.567 780.513 100.567V100.556Z" fill="black"/>
<path d="M780.976 84.4491L773.352 78.0528C772.852 77.6324 772.274 77.3147 771.65 77.1178C771.027 76.9209 770.371 76.8488 769.72 76.9055C769.069 76.9621 768.435 77.1465 767.856 77.4481C767.276 77.7497 766.761 78.1625 766.341 78.663L764.209 81.2056C763.368 82.2116 762.958 83.5085 763.068 84.8149C763.178 86.1212 763.798 87.3316 764.795 88.1833C760.874 92.7202 754.666 99.846 752.209 102.663L751.145 103.885C750.391 104.842 750.039 106.053 750.163 107.264C750.287 108.475 750.877 109.59 751.808 110.374C752.739 111.158 753.939 111.55 755.154 111.466C756.369 111.381 757.503 110.828 758.317 109.923L758.888 109.26C760.867 106.994 767.469 99.4215 771.702 94.5243C771.793 94.4097 771.867 94.2832 771.923 94.1484L772.456 94.5906C773.349 95.342 774.479 95.7532 775.646 95.7514C775.792 95.7514 775.942 95.7514 776.088 95.7315C776.735 95.6789 777.366 95.4993 777.944 95.203C778.522 94.9068 779.036 94.4996 779.456 94.0047L781.591 91.4666C782.011 90.966 782.328 90.3877 782.524 89.7646C782.721 89.1415 782.792 88.4858 782.735 87.8349C782.678 87.1841 782.493 86.5509 782.192 85.9715C781.89 85.392 781.476 84.8777 780.976 84.4579V84.4491ZM769.192 92.3708C764.961 97.2636 758.355 104.829 756.386 107.096L755.787 107.783C755.555 108.064 755.22 108.24 754.857 108.274C754.495 108.308 754.133 108.196 753.853 107.963C753.573 107.731 753.396 107.397 753.362 107.034C753.329 106.671 753.44 106.31 753.673 106.03L754.708 104.843C757.18 102.017 763.411 94.8582 767.334 90.3191L769.497 92.1343C769.387 92.2005 769.285 92.28 769.194 92.3708H769.192ZM779.049 89.3242L776.915 91.8645C776.775 92.0314 776.603 92.169 776.41 92.2696C776.217 92.3701 776.006 92.4316 775.788 92.4505C775.571 92.4694 775.353 92.4453 775.145 92.3797C774.937 92.314 774.744 92.2081 774.577 92.0679L766.956 85.6739C766.619 85.391 766.408 84.9861 766.37 84.548C766.331 84.1098 766.468 83.6743 766.75 83.337L768.882 80.7944C769.022 80.6277 769.194 80.4903 769.387 80.3901C769.58 80.2899 769.791 80.2289 770.008 80.2107C770.446 80.1751 770.88 80.3124 771.218 80.5932L778.855 86.9894C779.022 87.1291 779.16 87.3004 779.26 87.4934C779.361 87.6864 779.423 87.8973 779.442 88.1142C779.461 88.331 779.437 88.5495 779.372 88.7571C779.306 88.9648 779.2 89.1574 779.06 89.3242H779.049Z" fill="black"/>
<path d="M837.656 111.652H821.069C820.629 111.652 820.207 111.478 819.896 111.167C819.585 110.856 819.41 110.434 819.41 109.994C819.41 109.554 819.585 109.133 819.896 108.822C820.207 108.511 820.629 108.336 821.069 108.336H837.656C838.096 108.336 838.518 108.511 838.829 108.822C839.14 109.133 839.315 109.554 839.315 109.994C839.315 110.434 839.14 110.856 838.829 111.167C838.518 111.478 838.096 111.652 837.656 111.652Z" fill="black"/>
<path d="M808.865 82.5519C808.55 82.5508 808.241 82.46 807.976 82.2901C807.71 82.1203 807.498 81.8784 807.365 81.5928C807.232 81.3071 807.183 80.9895 807.224 80.677C807.265 80.3645 807.393 80.0701 807.595 79.8281L813.642 72.6315C813.782 72.465 813.954 72.3277 814.148 72.2276C814.341 72.1275 814.553 72.0664 814.77 72.048C814.987 72.0295 815.205 72.0539 815.413 72.1199C815.621 72.1859 815.813 72.2921 815.98 72.4325C816.146 72.5729 816.284 72.7447 816.384 72.9381C816.484 73.1315 816.545 73.3427 816.563 73.5597C816.582 73.7768 816.557 73.9953 816.491 74.2028C816.425 74.4104 816.319 74.6029 816.179 74.7694L810.139 81.9616C809.983 82.1474 809.789 82.2967 809.569 82.3991C809.349 82.5015 809.109 82.5544 808.867 82.5542L808.865 82.5519Z" fill="black"/>
<path d="M830.561 100.556C830.246 100.555 829.938 100.464 829.672 100.294C829.406 100.124 829.195 99.8821 829.062 99.5965C828.929 99.3108 828.879 98.9932 828.92 98.6807C828.961 98.3682 829.09 98.0738 829.292 97.8318L835.334 90.633C835.617 90.2961 836.022 90.0854 836.461 90.0473C836.899 90.0091 837.335 90.1466 837.672 90.4296C838.009 90.7125 838.219 91.1177 838.258 91.5559C838.296 91.9942 838.158 92.4297 837.875 92.7665L831.833 99.9742C831.677 100.16 831.483 100.31 831.263 100.412C831.043 100.514 830.804 100.567 830.561 100.567V100.556Z" fill="black"/>
<path d="M831.024 84.4491L823.4 78.0528C822.9 77.6324 822.321 77.3147 821.698 77.1178C821.075 76.9209 820.419 76.8488 819.768 76.9055C819.117 76.9621 818.483 77.1465 817.904 77.4481C817.324 77.7497 816.809 78.1625 816.389 78.663L814.257 81.2056C813.416 82.2116 813.006 83.5085 813.116 84.8149C813.225 86.1212 813.846 87.3316 814.843 88.1833C810.922 92.7202 804.714 99.846 802.256 102.663L801.193 103.885C800.439 104.842 800.087 106.053 800.211 107.264C800.335 108.475 800.924 109.59 801.856 110.374C802.787 111.158 803.987 111.55 805.202 111.466C806.416 111.381 807.551 110.828 808.365 109.923L808.936 109.26C810.915 106.994 817.517 99.4215 821.75 94.5243C821.841 94.4097 821.915 94.2832 821.971 94.1484L822.504 94.5906C823.397 95.342 824.527 95.7532 825.693 95.7514C825.839 95.7514 825.99 95.7514 826.136 95.7315C826.783 95.6789 827.414 95.4993 827.992 95.203C828.57 94.9068 829.084 94.4996 829.504 94.0047L831.638 91.4666C832.058 90.966 832.376 90.3877 832.572 89.7646C832.769 89.1415 832.84 88.4858 832.783 87.8349C832.726 87.1841 832.541 86.5509 832.239 85.9715C831.937 85.392 831.524 84.8777 831.024 84.4579V84.4491ZM819.24 92.3708C815.009 97.2636 808.403 104.829 806.434 107.096L805.835 107.783C805.602 108.064 805.268 108.24 804.905 108.274C804.543 108.308 804.181 108.196 803.901 107.963C803.62 107.731 803.444 107.397 803.41 107.034C803.376 106.671 803.488 106.31 803.721 106.03L804.756 104.843C807.228 102.017 813.459 94.8582 817.382 90.3191L819.545 92.1343C819.435 92.2005 819.333 92.28 819.242 92.3708H819.24ZM829.097 89.3242L826.963 91.8645C826.823 92.0314 826.651 92.169 826.458 92.2696C826.265 92.3701 826.053 92.4316 825.836 92.4505C825.619 92.4694 825.4 92.4453 825.193 92.3797C824.985 92.314 824.792 92.2081 824.625 92.0679L817.004 85.6739C816.667 85.391 816.456 84.9861 816.417 84.548C816.379 84.1098 816.516 83.6743 816.798 83.337L818.93 80.7944C819.07 80.6277 819.242 80.4903 819.435 80.3901C819.628 80.2899 819.839 80.2289 820.056 80.2107C820.494 80.1751 820.928 80.3124 821.266 80.5932L828.903 86.9894C829.07 87.1291 829.207 87.3004 829.308 87.4934C829.409 87.6864 829.471 87.8973 829.49 88.1142C829.509 88.331 829.485 88.5495 829.419 88.7571C829.354 88.9648 829.248 89.1574 829.108 89.3242H829.097Z" fill="black"/>
<path d="M886.786 111.652H870.199C869.759 111.652 869.337 111.478 869.026 111.167C868.715 110.856 868.54 110.434 868.54 109.994C868.54 109.554 868.715 109.133 869.026 108.822C869.337 108.511 869.759 108.336 870.199 108.336H886.786C887.226 108.336 887.648 108.511 887.959 108.822C888.27 109.133 888.445 109.554 888.445 109.994C888.445 110.434 888.27 110.856 887.959 111.167C887.648 111.478 887.226 111.652 886.786 111.652Z" fill="black"/>
<path d="M857.995 82.5519C857.68 82.5508 857.371 82.46 857.106 82.2901C856.84 82.1203 856.628 81.8784 856.495 81.5928C856.362 81.3071 856.313 80.9895 856.354 80.677C856.394 80.3645 856.523 80.0701 856.725 79.8281L862.772 72.6315C862.912 72.465 863.084 72.3277 863.278 72.2276C863.471 72.1275 863.682 72.0664 863.9 72.048C864.117 72.0295 864.335 72.0539 864.543 72.1199C864.75 72.1859 864.943 72.2921 865.11 72.4325C865.276 72.5729 865.413 72.7447 865.514 72.9381C865.614 73.1315 865.675 73.3427 865.693 73.5597C865.712 73.7768 865.687 73.9953 865.621 74.2028C865.555 74.4104 865.449 74.6029 865.309 74.7694L859.269 81.9616C859.113 82.1474 858.918 82.2967 858.699 82.3991C858.479 82.5015 858.239 82.5544 857.997 82.5542L857.995 82.5519Z" fill="black"/>
<path d="M879.691 100.556C879.376 100.555 879.067 100.464 878.802 100.294C878.536 100.124 878.325 99.8821 878.192 99.5965C878.058 99.3108 878.009 98.9932 878.05 98.6807C878.091 98.3682 878.22 98.0738 878.422 97.8318L884.464 90.633C884.747 90.2961 885.152 90.0854 885.591 90.0473C886.029 90.0091 886.465 90.1466 886.802 90.4296C887.139 90.7125 887.349 91.1177 887.387 91.5559C887.426 91.9942 887.288 92.4297 887.005 92.7665L880.963 99.9742C880.807 100.16 880.613 100.31 880.393 100.412C880.173 100.514 879.933 100.567 879.691 100.567V100.556Z" fill="black"/>
<path d="M880.153 84.4491L872.53 78.0528C872.03 77.6324 871.451 77.3147 870.828 77.1178C870.205 76.9209 869.549 76.8488 868.898 76.9055C868.247 76.9621 867.613 77.1465 867.033 77.4481C866.454 77.7497 865.939 78.1625 865.519 78.663L863.387 81.2056C862.546 82.2116 862.136 83.5085 862.246 84.8149C862.355 86.1212 862.976 87.3316 863.973 88.1833C860.052 92.7202 853.844 99.846 851.386 102.663L850.323 103.885C849.569 104.842 849.217 106.053 849.341 107.264C849.464 108.475 850.054 109.59 850.986 110.374C851.917 111.158 853.117 111.55 854.332 111.466C855.546 111.381 856.681 110.828 857.495 109.923L858.066 109.26C860.045 106.994 866.647 99.4215 870.88 94.5243C870.97 94.4097 871.045 94.2832 871.101 94.1484L871.634 94.5906C872.527 95.342 873.657 95.7532 874.823 95.7514C874.969 95.7514 875.12 95.7514 875.266 95.7315C875.913 95.6789 876.544 95.4993 877.122 95.203C877.7 94.9068 878.214 94.4996 878.634 94.0047L880.768 91.4666C881.188 90.966 881.506 90.3877 881.702 89.7646C881.898 89.1415 881.97 88.4858 881.913 87.8349C881.856 87.1841 881.671 86.5509 881.369 85.9715C881.067 85.392 880.654 84.8777 880.153 84.4579V84.4491ZM868.37 92.3708C864.139 97.2636 857.533 104.829 855.564 107.096L854.965 107.783C854.732 108.064 854.398 108.24 854.035 108.274C853.672 108.308 853.311 108.196 853.031 107.963C852.75 107.731 852.574 107.397 852.54 107.034C852.506 106.671 852.618 106.31 852.85 106.03L853.886 104.843C856.358 102.017 862.588 94.8582 866.512 90.3191L868.675 92.1343C868.565 92.2005 868.463 92.28 868.372 92.3708H868.37ZM878.227 89.3242L876.093 91.8645C875.953 92.0314 875.781 92.169 875.588 92.2696C875.394 92.3701 875.183 92.4316 874.966 92.4505C874.749 92.4694 874.53 92.4453 874.323 92.3797C874.115 92.314 873.922 92.2081 873.755 92.0679L866.134 85.6739C865.797 85.391 865.586 84.9861 865.547 84.548C865.509 84.1098 865.646 83.6743 865.928 83.337L868.06 80.7944C868.2 80.6277 868.371 80.4903 868.565 80.3901C868.758 80.2899 868.969 80.2289 869.186 80.2107C869.624 80.1751 870.058 80.3124 870.396 80.5932L878.032 86.9894C878.199 87.1291 878.337 87.3004 878.438 87.4934C878.539 87.6864 878.6 87.8973 878.62 88.1142C878.639 88.331 878.615 88.5495 878.549 88.7571C878.484 88.9648 878.378 89.1574 878.238 89.3242H878.227Z" fill="black"/>
<path d="M110.583 280.789H70.7734C61.0016 280.789 53.0801 288.708 53.0801 298.477V386.914C53.0801 396.683 61.0016 404.602 70.7734 404.602H110.583C120.355 404.602 128.277 396.683 128.277 386.914V298.477C128.277 288.708 120.355 280.789 110.583 280.789Z" fill="#EFF1F5"/>
<path d="M110.583 281.342H70.7732C61.3068 281.342 53.6328 289.013 53.6328 298.477V386.914C53.6328 396.377 61.3068 404.049 70.7732 404.049H110.583C120.05 404.049 127.724 396.377 127.724 386.914V298.477C127.724 289.013 120.05 281.342 110.583 281.342Z" stroke="#707070" stroke-width="0.5"/>
<path d="M72.3043 321.736C74.757 318.811 79.4767 318.488 83.398 320.758L102.345 296.894C102.619 296.549 103.018 296.327 103.455 296.276C103.892 296.226 104.331 296.351 104.676 296.624C105.021 296.897 105.243 297.296 105.294 297.733C105.345 298.17 105.22 298.609 104.946 298.954L103.705 300.517L108.595 304.621C108.764 304.763 108.903 304.936 109.004 305.132C109.104 305.328 109.165 305.542 109.182 305.762C109.199 305.982 109.172 306.202 109.103 306.411C109.034 306.621 108.924 306.814 108.779 306.98L104.119 312.317C103.833 312.645 103.43 312.847 102.997 312.88C102.563 312.914 102.134 312.776 101.801 312.496L97.2363 308.665L95.8607 310.398L100.384 314.192C100.558 314.33 100.702 314.502 100.809 314.697C100.915 314.892 100.981 315.107 101.003 315.328C101.025 315.549 101.002 315.772 100.936 315.984C100.87 316.196 100.762 316.393 100.618 316.563C100.475 316.732 100.298 316.871 100.1 316.971C99.9013 317.071 99.6847 317.131 99.4629 317.145C99.2411 317.16 99.0186 317.13 98.8086 317.057C98.5986 316.985 98.4054 316.87 98.2404 316.721L93.7972 312.998L85.9989 322.819C87.5152 324.338 88.4898 326.312 88.7723 328.439C88.8848 329.354 88.8104 330.281 88.5538 331.166C88.2972 332.051 87.8637 332.874 87.2794 333.586C86.5585 334.397 85.6676 335.039 84.6703 335.467C83.673 335.894 82.5937 336.097 81.5092 336.06C79.0785 336.024 76.7286 335.183 74.8278 333.668C73.7408 332.86 72.8262 331.842 72.1373 330.676C71.4484 329.51 70.9991 328.218 70.8158 326.876C70.7044 325.963 70.779 325.037 71.0352 324.154C71.2914 323.27 71.7216 322.448 72.3043 321.736ZM102.688 308.912L105.167 306.073L101.642 303.113L99.2976 306.067L102.688 308.912ZM74.1134 326.533C74.4004 328.345 75.3907 329.971 76.8691 331.057C79.5563 333.151 83.1591 333.337 84.736 331.457C85.0323 331.085 85.2502 330.657 85.3764 330.198C85.5026 329.739 85.5345 329.26 85.4703 328.789C85.1822 326.977 84.1912 325.353 82.7124 324.267C81.3885 323.204 79.7519 322.606 78.0546 322.565C77.4573 322.534 76.8604 322.634 76.3063 322.859C75.7521 323.084 75.2542 323.428 74.8477 323.867C74.552 324.239 74.3348 324.667 74.209 325.125C74.0832 325.584 74.0492 326.063 74.1134 326.533Z" fill="#222222"/>
<path d="M95.6544 367.016H98.9719C100.291 367.014 101.556 366.489 102.489 365.557C103.422 364.624 103.946 363.36 103.948 362.041V358.725C103.946 357.406 103.422 356.142 102.489 355.209C101.556 354.276 100.291 353.752 98.9719 353.75H95.6544C94.3415 353.751 93.0821 354.27 92.1502 355.195C91.2183 356.12 90.6892 357.375 90.6782 358.687H81.8315C81.8204 357.375 81.2914 356.12 80.3595 355.195C79.4276 354.27 78.1682 353.751 76.8553 353.75H73.5378C72.2185 353.752 70.9538 354.276 70.021 355.209C69.0881 356.142 68.5633 357.406 68.5615 358.725V362.041C68.5651 363.261 69.0181 364.437 69.834 365.345C70.65 366.252 71.7716 366.827 72.9848 366.96V379.176C72.9866 380.495 73.5114 381.759 74.4443 382.691C75.3771 383.624 76.6418 384.149 77.9611 384.15H90.6782C90.6799 385.469 91.2048 386.733 92.1376 387.666C93.0704 388.599 94.3352 389.123 95.6544 389.125H98.9719C100.291 389.123 101.556 388.599 102.489 387.666C103.422 386.733 103.946 385.469 103.948 384.15V380.834C103.946 379.515 103.422 378.251 102.489 377.318C101.556 376.386 100.291 375.861 98.9719 375.859H95.6544C94.3352 375.861 93.0704 376.386 92.1376 377.318C91.2048 378.251 90.6799 379.515 90.6782 380.834H77.9611C77.5213 380.833 77.0998 380.659 76.7888 380.348C76.4779 380.037 76.3029 379.615 76.3023 379.176V367.016H76.8553C78.1745 367.014 79.4392 366.489 80.3721 365.557C81.3049 364.624 81.8297 363.36 81.8315 362.041V362.003H90.6782V362.041C90.6799 363.36 91.2048 364.624 92.1376 365.557C93.0704 366.489 94.3352 367.014 95.6544 367.016ZM93.9956 380.834C93.9962 380.394 94.1712 379.973 94.4821 379.662C94.7931 379.351 95.2146 379.176 95.6544 379.176H98.9719C99.4116 379.176 99.8332 379.351 100.144 379.662C100.455 379.973 100.63 380.394 100.631 380.834V384.15C100.63 384.59 100.455 385.011 100.144 385.322C99.8332 385.633 99.4116 385.808 98.9719 385.809H95.6544C95.2146 385.808 94.7931 385.633 94.4821 385.322C94.1712 385.011 93.9962 384.59 93.9956 384.15V380.834ZM93.9956 358.725C93.9962 358.285 94.1712 357.864 94.4821 357.553C94.7931 357.242 95.2146 357.067 95.6544 357.066H98.9719C99.4116 357.067 99.8332 357.242 100.144 357.553C100.455 357.864 100.63 358.285 100.631 358.725V362.041C100.63 362.481 100.455 362.902 100.144 363.213C99.8332 363.524 99.4116 363.699 98.9719 363.699H95.6544C95.2146 363.699 94.7931 363.524 94.4821 363.213C94.1712 362.902 93.9962 362.481 93.9956 362.041V358.725ZM78.514 362.041C78.5134 362.481 78.3385 362.902 78.0275 363.213C77.7166 363.524 77.295 363.699 76.8553 363.699H73.5378C73.098 363.699 72.6764 363.524 72.3655 363.213C72.0546 362.902 71.8796 362.481 71.879 362.041V358.725C71.8796 358.285 72.0546 357.864 72.3655 357.553C72.6764 357.242 73.098 357.067 73.5378 357.066H76.8553C77.295 357.067 77.7166 357.242 78.0275 357.553C78.3385 357.864 78.5134 358.285 78.514 358.725V362.041Z" fill="#222222"/>
<path opacity="0.2" d="M70.2207 358.725V362.041C70.2207 363.873 71.706 365.357 73.5382 365.357H76.8557C78.6879 365.357 80.1732 363.873 80.1732 362.041V358.725C80.1732 356.893 78.6879 355.408 76.8557 355.408H73.5382C71.706 355.408 70.2207 356.893 70.2207 358.725Z" fill="#222222"/>
<path d="M774.082 280.789H734.272C724.501 280.789 716.579 288.708 716.579 298.477V386.914C716.579 396.683 724.501 404.602 734.272 404.602H774.082C783.854 404.602 791.776 396.683 791.776 386.914V298.477C791.776 288.708 783.854 280.789 774.082 280.789Z" fill="#EFF1F5"/>
<path d="M774.082 281.342H734.272C724.806 281.342 717.132 289.013 717.132 298.477V386.914C717.132 396.377 724.806 404.049 734.272 404.049H774.082C783.549 404.049 791.223 396.377 791.223 386.914V298.477C791.223 289.013 783.549 281.342 774.082 281.342Z" stroke="#707070" stroke-width="0.5"/>
<path d="M735.803 321.736C738.256 318.811 742.976 318.488 746.897 320.758L765.844 296.894C766.118 296.549 766.517 296.327 766.954 296.276C767.391 296.226 767.83 296.351 768.175 296.624C768.52 296.897 768.742 297.296 768.793 297.733C768.844 298.17 768.719 298.609 768.445 298.954L767.204 300.517L772.094 304.621C772.263 304.763 772.402 304.936 772.503 305.132C772.603 305.328 772.664 305.542 772.681 305.762C772.698 305.982 772.671 306.202 772.602 306.411C772.533 306.621 772.423 306.814 772.278 306.98L767.618 312.317C767.332 312.645 766.929 312.847 766.496 312.88C766.062 312.914 765.633 312.776 765.3 312.496L760.735 308.665L759.36 310.398L763.883 314.192C764.057 314.33 764.201 314.502 764.308 314.697C764.414 314.892 764.48 315.107 764.502 315.328C764.524 315.549 764.501 315.772 764.435 315.984C764.369 316.196 764.261 316.393 764.117 316.563C763.974 316.732 763.797 316.871 763.599 316.971C763.4 317.071 763.184 317.131 762.962 317.145C762.74 317.16 762.518 317.13 762.308 317.057C762.098 316.985 761.904 316.87 761.739 316.721L757.296 312.998L749.498 322.819C751.014 324.338 751.989 326.312 752.271 328.439C752.384 329.354 752.309 330.281 752.053 331.166C751.796 332.051 751.363 332.874 750.778 333.586C750.057 334.397 749.167 335.039 748.169 335.467C747.172 335.894 746.093 336.097 745.008 336.06C742.578 336.024 740.228 335.183 738.327 333.668C737.24 332.86 736.325 331.842 735.636 330.676C734.947 329.51 734.498 328.218 734.315 326.876C734.203 325.963 734.278 325.037 734.534 324.154C734.79 323.27 735.221 322.448 735.803 321.736ZM766.187 308.912L768.666 306.073L765.141 303.113L762.797 306.067L766.187 308.912ZM737.612 326.533C737.899 328.345 738.89 329.971 740.368 331.057C743.055 333.151 746.658 333.337 748.235 331.457C748.531 331.085 748.749 330.657 748.875 330.198C749.002 329.739 749.034 329.26 748.969 328.789C748.681 326.977 747.69 325.353 746.211 324.267C744.888 323.204 743.251 322.606 741.554 322.565C740.956 322.534 740.359 322.634 739.805 322.859C739.251 323.084 738.753 323.428 738.347 323.867C738.051 324.239 737.834 324.667 737.708 325.125C737.582 325.584 737.548 326.063 737.612 326.533Z" fill="#222222"/>
<path d="M759.153 367.016H762.471C763.79 367.014 765.055 366.489 765.988 365.557C766.921 364.624 767.445 363.36 767.447 362.041V358.725C767.445 357.406 766.921 356.142 765.988 355.209C765.055 354.276 763.79 353.752 762.471 353.75H759.153C757.84 353.751 756.581 354.27 755.649 355.195C754.717 356.12 754.188 357.375 754.177 358.687H745.331C745.319 357.375 744.79 356.12 743.859 355.195C742.927 354.27 741.667 353.751 740.354 353.75H737.037C735.718 353.752 734.453 354.276 733.52 355.209C732.587 356.142 732.062 357.406 732.061 358.725V362.041C732.064 363.261 732.517 364.437 733.333 365.345C734.149 366.252 735.271 366.827 736.484 366.96V379.176C736.486 380.495 737.01 381.759 737.943 382.691C738.876 383.624 740.141 384.149 741.46 384.15H754.177C754.179 385.469 754.704 386.733 755.637 387.666C756.569 388.599 757.834 389.123 759.153 389.125H762.471C763.79 389.123 765.055 388.599 765.988 387.666C766.921 386.733 767.445 385.469 767.447 384.15V380.834C767.445 379.515 766.921 378.251 765.988 377.318C765.055 376.386 763.79 375.861 762.471 375.859H759.153C757.834 375.861 756.569 376.386 755.637 377.318C754.704 378.251 754.179 379.515 754.177 380.834H741.46C741.02 380.833 740.599 380.659 740.288 380.348C739.977 380.037 739.802 379.615 739.801 379.176V367.016H740.354C741.674 367.014 742.938 366.489 743.871 365.557C744.804 364.624 745.329 363.36 745.331 362.041V362.003H754.177V362.041C754.179 363.36 754.704 364.624 755.637 365.557C756.569 366.489 757.834 367.014 759.153 367.016ZM757.495 380.834C757.495 380.394 757.67 379.973 757.981 379.662C758.292 379.351 758.714 379.176 759.153 379.176H762.471C762.911 379.176 763.332 379.351 763.643 379.662C763.954 379.973 764.129 380.394 764.13 380.834V384.15C764.129 384.59 763.954 385.011 763.643 385.322C763.332 385.633 762.911 385.808 762.471 385.809H759.153C758.714 385.808 758.292 385.633 757.981 385.322C757.67 385.011 757.495 384.59 757.495 384.15V380.834ZM757.495 358.725C757.495 358.285 757.67 357.864 757.981 357.553C758.292 357.242 758.714 357.067 759.153 357.066H762.471C762.911 357.067 763.332 357.242 763.643 357.553C763.954 357.864 764.129 358.285 764.13 358.725V362.041C764.129 362.481 763.954 362.902 763.643 363.213C763.332 363.524 762.911 363.699 762.471 363.699H759.153C758.714 363.699 758.292 363.524 757.981 363.213C757.67 362.902 757.495 362.481 757.495 362.041V358.725ZM742.013 362.041C742.012 362.481 741.837 362.902 741.527 363.213C741.216 363.524 740.794 363.699 740.354 363.699H737.037C736.597 363.699 736.175 363.524 735.865 363.213C735.554 362.902 735.379 362.481 735.378 362.041V358.725C735.379 358.285 735.554 357.864 735.865 357.553C736.175 357.242 736.597 357.067 737.037 357.066H740.354C740.794 357.067 741.216 357.242 741.527 357.553C741.837 357.864 742.012 358.285 742.013 358.725V362.041Z" fill="#222222"/>
<path opacity="0.2" d="M733.72 358.725V362.041C733.72 363.873 735.205 365.357 737.037 365.357H740.355C742.187 365.357 743.672 363.873 743.672 362.041V358.725C743.672 356.893 742.187 355.408 740.355 355.408H737.037C735.205 355.408 733.72 356.893 733.72 358.725Z" fill="#222222"/>
<path d="M194.626 280.789H154.816C145.045 280.789 137.123 288.708 137.123 298.477V386.914C137.123 396.683 145.045 404.602 154.816 404.602H194.626C204.398 404.602 212.32 396.683 212.32 386.914V298.477C212.32 288.708 204.398 280.789 194.626 280.789Z" fill="#EFF1F5"/>
<path d="M194.626 281.342H154.816C145.35 281.342 137.676 289.013 137.676 298.477V386.914C137.676 396.377 145.35 404.049 154.816 404.049H194.626C204.092 404.049 211.766 396.377 211.766 386.914V298.477C211.766 289.013 204.092 281.342 194.626 281.342Z" stroke="#707070" stroke-width="0.5"/>
<path d="M156.347 321.736C158.8 318.811 163.52 318.488 167.441 320.758L186.388 296.894C186.662 296.549 187.061 296.327 187.498 296.276C187.935 296.226 188.374 296.351 188.719 296.624C189.064 296.897 189.286 297.296 189.337 297.733C189.388 298.17 189.263 298.609 188.989 298.954L187.748 300.517L192.638 304.621C192.807 304.763 192.946 304.936 193.047 305.132C193.147 305.328 193.208 305.542 193.225 305.762C193.242 305.982 193.215 306.202 193.146 306.411C193.077 306.621 192.967 306.814 192.822 306.98L188.162 312.317C187.876 312.645 187.473 312.847 187.04 312.88C186.606 312.914 186.177 312.776 185.844 312.496L181.279 308.665L179.904 310.398L184.427 314.192C184.601 314.33 184.745 314.502 184.852 314.697C184.958 314.892 185.024 315.107 185.046 315.328C185.068 315.549 185.045 315.772 184.979 315.984C184.913 316.196 184.805 316.393 184.661 316.563C184.517 316.732 184.341 316.871 184.143 316.971C183.944 317.071 183.728 317.131 183.506 317.145C183.284 317.16 183.062 317.13 182.852 317.057C182.642 316.985 182.448 316.87 182.283 316.721L177.84 312.998L170.042 322.819C171.558 324.338 172.533 326.312 172.815 328.439C172.928 329.354 172.853 330.281 172.597 331.166C172.34 332.051 171.907 332.874 171.322 333.586C170.601 334.397 169.711 335.039 168.713 335.467C167.716 335.894 166.637 336.097 165.552 336.06C163.122 336.024 160.772 335.183 158.871 333.668C157.784 332.86 156.869 331.842 156.18 330.676C155.491 329.51 155.042 328.218 154.859 326.876C154.747 325.963 154.822 325.037 155.078 324.154C155.334 323.27 155.765 322.448 156.347 321.736ZM186.731 308.912L189.21 306.073L185.685 303.113L183.341 306.067L186.731 308.912ZM158.156 326.533C158.443 328.345 159.434 329.971 160.912 331.057C163.599 333.151 167.202 333.337 168.779 331.457C169.075 331.085 169.293 330.657 169.419 330.198C169.546 329.739 169.577 329.26 169.513 328.789C169.225 326.977 168.234 325.353 166.755 324.267C165.432 323.204 163.795 322.606 162.098 322.565C161.5 322.534 160.903 322.634 160.349 322.859C159.795 323.084 159.297 323.428 158.891 323.867C158.595 324.239 158.378 324.667 158.252 325.125C158.126 325.584 158.092 326.063 158.156 326.533Z" fill="#222222"/>
<path d="M179.697 367.016H183.015C184.334 367.014 185.599 366.489 186.532 365.557C187.464 364.624 187.989 363.36 187.991 362.041V358.725C187.989 357.406 187.464 356.142 186.532 355.209C185.599 354.276 184.334 353.752 183.015 353.75H179.697C178.384 353.751 177.125 354.27 176.193 355.195C175.261 356.12 174.732 357.375 174.721 358.687H165.874C165.863 357.375 165.334 356.12 164.402 355.195C163.471 354.27 162.211 353.751 160.898 353.75H157.581C156.261 353.752 154.997 354.276 154.064 355.209C153.131 356.142 152.606 357.406 152.604 358.725V362.041C152.608 363.261 153.061 364.437 153.877 365.345C154.693 366.252 155.815 366.827 157.028 366.96V379.176C157.03 380.495 157.554 381.759 158.487 382.691C159.42 383.624 160.685 384.149 162.004 384.15H174.721C174.723 385.469 175.248 386.733 176.181 387.666C177.113 388.599 178.378 389.123 179.697 389.125H183.015C184.334 389.123 185.599 388.599 186.532 387.666C187.464 386.733 187.989 385.469 187.991 384.15V380.834C187.989 379.515 187.464 378.251 186.532 377.318C185.599 376.386 184.334 375.861 183.015 375.859H179.697C178.378 375.861 177.113 376.386 176.181 377.318C175.248 378.251 174.723 379.515 174.721 380.834H162.004C161.564 380.833 161.143 380.659 160.832 380.348C160.521 380.037 160.346 379.615 160.345 379.176V367.016H160.898C162.217 367.014 163.482 366.489 164.415 365.557C165.348 364.624 165.873 363.36 165.874 362.041V362.003H174.721V362.041C174.723 363.36 175.248 364.624 176.181 365.557C177.113 366.489 178.378 367.014 179.697 367.016ZM178.039 380.834C178.039 380.394 178.214 379.973 178.525 379.662C178.836 379.351 179.258 379.176 179.697 379.176H183.015C183.455 379.176 183.876 379.351 184.187 379.662C184.498 379.973 184.673 380.394 184.674 380.834V384.15C184.673 384.59 184.498 385.011 184.187 385.322C183.876 385.633 183.455 385.808 183.015 385.809H179.697C179.258 385.808 178.836 385.633 178.525 385.322C178.214 385.011 178.039 384.59 178.039 384.15V380.834ZM178.039 358.725C178.039 358.285 178.214 357.864 178.525 357.553C178.836 357.242 179.258 357.067 179.697 357.066H183.015C183.455 357.067 183.876 357.242 184.187 357.553C184.498 357.864 184.673 358.285 184.674 358.725V362.041C184.673 362.481 184.498 362.902 184.187 363.213C183.876 363.524 183.455 363.699 183.015 363.699H179.697C179.258 363.699 178.836 363.524 178.525 363.213C178.214 362.902 178.039 362.481 178.039 362.041V358.725ZM162.557 362.041C162.556 362.481 162.381 362.902 162.07 363.213C161.76 363.524 161.338 363.699 160.898 363.699H157.581C157.141 363.699 156.719 363.524 156.408 363.213C156.098 362.902 155.923 362.481 155.922 362.041V358.725C155.923 358.285 156.098 357.864 156.408 357.553C156.719 357.242 157.141 357.067 157.581 357.066H160.898C161.338 357.067 161.76 357.242 162.07 357.553C162.381 357.864 162.556 358.285 162.557 358.725V362.041Z" fill="#222222"/>
<path opacity="0.2" d="M154.264 358.725V362.041C154.264 363.873 155.749 365.357 157.581 365.357H160.899C162.731 365.357 164.216 363.873 164.216 362.041V358.725C164.216 356.893 162.731 355.408 160.899 355.408H157.581C155.749 355.408 154.264 356.893 154.264 358.725Z" fill="#222222"/>
<path d="M858.125 280.789H818.315C808.544 280.789 800.622 288.708 800.622 298.477V386.914C800.622 396.683 808.544 404.602 818.315 404.602H858.125C867.897 404.602 875.819 396.683 875.819 386.914V298.477C875.819 288.708 867.897 280.789 858.125 280.789Z" fill="#EFF1F5"/>
<path d="M858.125 281.342H818.315C808.849 281.342 801.175 289.013 801.175 298.477V386.914C801.175 396.377 808.849 404.049 818.315 404.049H858.125C867.591 404.049 875.266 396.377 875.266 386.914V298.477C875.266 289.013 867.591 281.342 858.125 281.342Z" stroke="#707070" stroke-width="0.5"/>
<path d="M819.846 321.736C822.299 318.811 827.019 318.488 830.94 320.758L849.887 296.894C850.161 296.549 850.56 296.327 850.997 296.276C851.434 296.226 851.873 296.351 852.218 296.624C852.563 296.897 852.785 297.296 852.836 297.733C852.887 298.17 852.762 298.609 852.488 298.954L851.247 300.517L856.137 304.621C856.306 304.763 856.445 304.936 856.546 305.132C856.646 305.328 856.707 305.542 856.724 305.762C856.741 305.982 856.714 306.202 856.645 306.411C856.576 306.621 856.466 306.814 856.321 306.98L851.661 312.317C851.375 312.645 850.972 312.847 850.539 312.88C850.105 312.914 849.676 312.776 849.343 312.496L844.778 308.665L843.403 310.398L847.926 314.192C848.1 314.33 848.244 314.502 848.351 314.697C848.457 314.892 848.523 315.107 848.545 315.328C848.567 315.549 848.544 315.772 848.478 315.984C848.412 316.196 848.304 316.393 848.16 316.563C848.017 316.732 847.84 316.871 847.642 316.971C847.443 317.071 847.227 317.131 847.005 317.145C846.783 317.16 846.561 317.13 846.351 317.057C846.141 316.985 845.947 316.87 845.782 316.721L841.339 312.998L833.541 322.819C835.057 324.338 836.032 326.312 836.314 328.439C836.427 329.354 836.352 330.281 836.096 331.166C835.839 332.051 835.406 332.874 834.821 333.586C834.1 334.397 833.21 335.039 832.212 335.467C831.215 335.894 830.136 336.097 829.051 336.06C826.621 336.024 824.271 335.183 822.37 333.668C821.283 332.86 820.368 331.842 819.679 330.676C818.99 329.51 818.541 328.218 818.358 326.876C818.246 325.963 818.321 325.037 818.577 324.154C818.833 323.27 819.264 322.448 819.846 321.736ZM850.23 308.912L852.709 306.073L849.184 303.113L846.84 306.067L850.23 308.912ZM821.655 326.533C821.942 328.345 822.933 329.971 824.411 331.057C827.098 333.151 830.701 333.337 832.278 331.457C832.574 331.085 832.792 330.657 832.918 330.198C833.045 329.739 833.077 329.26 833.012 328.789C832.724 326.977 831.733 325.353 830.254 324.267C828.931 323.204 827.294 322.606 825.597 322.565C824.999 322.534 824.402 322.634 823.848 322.859C823.294 323.084 822.796 323.428 822.39 323.867C822.094 324.239 821.877 324.667 821.751 325.125C821.625 325.584 821.591 326.063 821.655 326.533Z" fill="#222222"/>
<path d="M843.196 367.016H846.514C847.833 367.014 849.098 366.489 850.031 365.557C850.964 364.624 851.488 363.36 851.49 362.041V358.725C851.488 357.406 850.964 356.142 850.031 355.209C849.098 354.276 847.833 353.752 846.514 353.75H843.196C841.883 353.751 840.624 354.27 839.692 355.195C838.76 356.12 838.231 357.375 838.22 358.687H829.373C829.362 357.375 828.833 356.12 827.901 355.195C826.97 354.27 825.71 353.751 824.397 353.75H821.08C819.761 353.752 818.496 354.276 817.563 355.209C816.63 356.142 816.105 357.406 816.104 358.725V362.041C816.107 363.261 816.56 364.437 817.376 365.345C818.192 366.252 819.314 366.827 820.527 366.96V379.176C820.529 380.495 821.053 381.759 821.986 382.691C822.919 383.624 824.184 384.149 825.503 384.15H838.22C838.222 385.469 838.747 386.733 839.68 387.666C840.612 388.599 841.877 389.123 843.196 389.125H846.514C847.833 389.123 849.098 388.599 850.031 387.666C850.964 386.733 851.488 385.469 851.49 384.15V380.834C851.488 379.515 850.964 378.251 850.031 377.318C849.098 376.386 847.833 375.861 846.514 375.859H843.196C841.877 375.861 840.612 376.386 839.68 377.318C838.747 378.251 838.222 379.515 838.22 380.834H825.503C825.063 380.833 824.642 380.659 824.331 380.348C824.02 380.037 823.845 379.615 823.844 379.176V367.016H824.397C825.716 367.014 826.981 366.489 827.914 365.557C828.847 364.624 829.372 363.36 829.373 362.041V362.003H838.22V362.041C838.222 363.36 838.747 364.624 839.68 365.557C840.612 366.489 841.877 367.014 843.196 367.016ZM841.538 380.834C841.538 380.394 841.713 379.973 842.024 379.662C842.335 379.351 842.757 379.176 843.196 379.176H846.514C846.954 379.176 847.375 379.351 847.686 379.662C847.997 379.973 848.172 380.394 848.173 380.834V384.15C848.172 384.59 847.997 385.011 847.686 385.322C847.375 385.633 846.954 385.808 846.514 385.809H843.196C842.757 385.808 842.335 385.633 842.024 385.322C841.713 385.011 841.538 384.59 841.538 384.15V380.834ZM841.538 358.725C841.538 358.285 841.713 357.864 842.024 357.553C842.335 357.242 842.757 357.067 843.196 357.066H846.514C846.954 357.067 847.375 357.242 847.686 357.553C847.997 357.864 848.172 358.285 848.173 358.725V362.041C848.172 362.481 847.997 362.902 847.686 363.213C847.375 363.524 846.954 363.699 846.514 363.699H843.196C842.757 363.699 842.335 363.524 842.024 363.213C841.713 362.902 841.538 362.481 841.538 362.041V358.725ZM826.056 362.041C826.055 362.481 825.88 362.902 825.57 363.213C825.259 363.524 824.837 363.699 824.397 363.699H821.08C820.64 363.699 820.218 363.524 819.907 363.213C819.597 362.902 819.422 362.481 819.421 362.041V358.725C819.422 358.285 819.597 357.864 819.907 357.553C820.218 357.242 820.64 357.067 821.08 357.066H824.397C824.837 357.067 825.259 357.242 825.57 357.553C825.88 357.864 826.055 358.285 826.056 358.725V362.041Z" fill="#222222"/>
<path opacity="0.2" d="M817.763 358.725V362.041C817.763 363.873 819.248 365.357 821.08 365.357H824.398C826.23 365.357 827.715 363.873 827.715 362.041V358.725C827.715 356.893 826.23 355.408 824.398 355.408H821.08C819.248 355.408 817.763 356.893 817.763 358.725Z" fill="#222222"/>
<path d="M389.252 280.789H349.442C339.671 280.789 331.749 288.708 331.749 298.477V386.914C331.749 396.683 339.671 404.602 349.442 404.602H389.252C399.024 404.602 406.946 396.683 406.946 386.914V298.477C406.946 288.708 399.024 280.789 389.252 280.789Z" fill="#EFF1F5"/>
<path d="M389.252 281.342H349.442C339.976 281.342 332.302 289.013 332.302 298.477V386.914C332.302 396.377 339.976 404.049 349.442 404.049H389.252C398.718 404.049 406.392 396.377 406.392 386.914V298.477C406.392 289.013 398.718 281.342 389.252 281.342Z" stroke="#707070" stroke-width="0.5"/>
<path d="M350.973 321.736C353.426 318.811 358.146 318.488 362.067 320.758L381.014 296.894C381.288 296.549 381.687 296.327 382.124 296.276C382.561 296.226 383 296.351 383.345 296.624C383.69 296.897 383.912 297.296 383.963 297.733C384.014 298.17 383.888 298.609 383.615 298.954L382.374 300.517L387.264 304.621C387.433 304.763 387.572 304.936 387.673 305.132C387.773 305.328 387.834 305.542 387.851 305.762C387.868 305.982 387.841 306.202 387.772 306.411C387.703 306.621 387.593 306.814 387.448 306.98L382.788 312.317C382.502 312.645 382.099 312.847 381.666 312.88C381.232 312.914 380.803 312.776 380.47 312.496L375.905 308.665L374.53 310.398L379.052 314.192C379.227 314.33 379.371 314.502 379.478 314.697C379.584 314.892 379.65 315.107 379.672 315.328C379.694 315.549 379.671 315.772 379.605 315.984C379.539 316.196 379.431 316.393 379.287 316.563C379.143 316.732 378.967 316.871 378.769 316.971C378.57 317.071 378.354 317.131 378.132 317.145C377.91 317.16 377.688 317.13 377.478 317.057C377.268 316.985 377.074 316.87 376.909 316.721L372.466 312.998L364.668 322.819C366.184 324.338 367.159 326.312 367.441 328.439C367.554 329.354 367.479 330.281 367.223 331.166C366.966 332.051 366.533 332.874 365.948 333.586C365.227 334.397 364.337 335.039 363.339 335.467C362.342 335.894 361.263 336.097 360.178 336.06C357.747 336.024 355.398 335.183 353.497 333.668C352.41 332.86 351.495 331.842 350.806 330.676C350.117 329.51 349.668 328.218 349.485 326.876C349.373 325.963 349.448 325.037 349.704 324.154C349.96 323.27 350.391 322.448 350.973 321.736ZM381.357 308.912L383.836 306.073L380.311 303.113L377.967 306.067L381.357 308.912ZM352.782 326.533C353.069 328.345 354.06 329.971 355.538 331.057C358.225 333.151 361.828 333.337 363.405 331.457C363.701 331.085 363.919 330.657 364.045 330.198C364.172 329.739 364.203 329.26 364.139 328.789C363.851 326.977 362.86 325.353 361.381 324.267C360.057 323.204 358.421 322.606 356.724 322.565C356.126 322.534 355.529 322.634 354.975 322.859C354.421 323.084 353.923 323.428 353.517 323.867C353.221 324.239 353.004 324.667 352.878 325.125C352.752 325.584 352.718 326.063 352.782 326.533Z" fill="#222222"/>
<path d="M374.323 367.016H377.641C378.96 367.014 380.225 366.489 381.158 365.557C382.09 364.624 382.615 363.36 382.617 362.041V358.725C382.615 357.406 382.09 356.142 381.158 355.209C380.225 354.276 378.96 353.752 377.641 353.75H374.323C373.01 353.751 371.751 354.27 370.819 355.195C369.887 356.12 369.358 357.375 369.347 358.687H360.5C360.489 357.375 359.96 356.12 359.028 355.195C358.097 354.27 356.837 353.751 355.524 353.75H352.207C350.887 353.752 349.623 354.276 348.69 355.209C347.757 356.142 347.232 357.406 347.23 358.725V362.041C347.234 363.261 347.687 364.437 348.503 365.345C349.319 366.252 350.441 366.827 351.654 366.96V379.176C351.656 380.495 352.18 381.759 353.113 382.691C354.046 383.624 355.311 384.149 356.63 384.15H369.347C369.349 385.469 369.874 386.733 370.807 387.666C371.739 388.599 373.004 389.123 374.323 389.125H377.641C378.96 389.123 380.225 388.599 381.158 387.666C382.09 386.733 382.615 385.469 382.617 384.15V380.834C382.615 379.515 382.09 378.251 381.158 377.318C380.225 376.386 378.96 375.861 377.641 375.859H374.323C373.004 375.861 371.739 376.386 370.807 377.318C369.874 378.251 369.349 379.515 369.347 380.834H356.63C356.19 380.833 355.769 380.659 355.458 380.348C355.147 380.037 354.972 379.615 354.971 379.176V367.016H355.524C356.843 367.014 358.108 366.489 359.041 365.557C359.974 364.624 360.499 363.36 360.5 362.041V362.003H369.347V362.041C369.349 363.36 369.874 364.624 370.807 365.557C371.739 366.489 373.004 367.014 374.323 367.016ZM372.665 380.834C372.665 380.394 372.84 379.973 373.151 379.662C373.462 379.351 373.884 379.176 374.323 379.176H377.641C378.081 379.176 378.502 379.351 378.813 379.662C379.124 379.973 379.299 380.394 379.3 380.834V384.15C379.299 384.59 379.124 385.011 378.813 385.322C378.502 385.633 378.081 385.808 377.641 385.809H374.323C373.884 385.808 373.462 385.633 373.151 385.322C372.84 385.011 372.665 384.59 372.665 384.15V380.834ZM372.665 358.725C372.665 358.285 372.84 357.864 373.151 357.553C373.462 357.242 373.884 357.067 374.323 357.066H377.641C378.081 357.067 378.502 357.242 378.813 357.553C379.124 357.864 379.299 358.285 379.3 358.725V362.041C379.299 362.481 379.124 362.902 378.813 363.213C378.502 363.524 378.081 363.699 377.641 363.699H374.323C373.884 363.699 373.462 363.524 373.151 363.213C372.84 362.902 372.665 362.481 372.665 362.041V358.725ZM357.183 362.041C357.182 362.481 357.007 362.902 356.696 363.213C356.386 363.524 355.964 363.699 355.524 363.699H352.207C351.767 363.699 351.345 363.524 351.034 363.213C350.723 362.902 350.549 362.481 350.548 362.041V358.725C350.549 358.285 350.723 357.864 351.034 357.553C351.345 357.242 351.767 357.067 352.207 357.066H355.524C355.964 357.067 356.386 357.242 356.696 357.553C357.007 357.864 357.182 358.285 357.183 358.725V362.041Z" fill="#222222"/>
<path opacity="0.2" d="M348.89 358.725V362.041C348.89 363.873 350.375 365.357 352.207 365.357H355.525C357.357 365.357 358.842 363.873 358.842 362.041V358.725C358.842 356.893 357.357 355.408 355.525 355.408H352.207C350.375 355.408 348.89 356.893 348.89 358.725Z" fill="#222222"/>
<path d="M278.669 280.789H238.859C229.088 280.789 221.166 288.708 221.166 298.477V386.914C221.166 396.683 229.088 404.602 238.859 404.602H278.669C288.441 404.602 296.363 396.683 296.363 386.914V298.477C296.363 288.708 288.441 280.789 278.669 280.789Z" fill="#EFF1F5"/>
<path d="M278.669 281.342H238.859C229.393 281.342 221.719 289.013 221.719 298.477V386.914C221.719 396.377 229.393 404.049 238.859 404.049H278.669C288.135 404.049 295.809 396.377 295.809 386.914V298.477C295.809 289.013 288.135 281.342 278.669 281.342Z" stroke="#707070" stroke-width="0.5"/>
<path d="M240.39 321.736C242.843 318.811 247.563 318.488 251.484 320.758L270.431 296.894C270.705 296.549 271.104 296.327 271.541 296.276C271.978 296.226 272.417 296.351 272.762 296.624C273.107 296.897 273.329 297.296 273.38 297.733C273.431 298.17 273.305 298.609 273.032 298.954L271.791 300.517L276.681 304.621C276.85 304.763 276.989 304.936 277.09 305.132C277.19 305.328 277.251 305.542 277.268 305.762C277.285 305.982 277.258 306.202 277.189 306.411C277.12 306.621 277.01 306.814 276.865 306.98L272.205 312.317C271.919 312.645 271.516 312.847 271.083 312.88C270.649 312.914 270.22 312.776 269.887 312.496L265.322 308.665L263.947 310.398L268.469 314.192C268.644 314.33 268.788 314.502 268.895 314.697C269.001 314.892 269.067 315.107 269.089 315.328C269.111 315.549 269.088 315.772 269.022 315.984C268.956 316.196 268.848 316.393 268.704 316.563C268.56 316.732 268.384 316.871 268.186 316.971C267.987 317.071 267.771 317.131 267.549 317.145C267.327 317.16 267.105 317.13 266.895 317.057C266.685 316.985 266.491 316.87 266.326 316.721L261.883 312.998L254.085 322.819C255.601 324.338 256.576 326.312 256.858 328.439C256.971 329.354 256.896 330.281 256.64 331.166C256.383 332.051 255.95 332.874 255.365 333.586C254.644 334.397 253.754 335.039 252.756 335.467C251.759 335.894 250.68 336.097 249.595 336.06C247.164 336.024 244.815 335.183 242.914 333.668C241.827 332.86 240.912 331.842 240.223 330.676C239.534 329.51 239.085 328.218 238.902 326.876C238.79 325.963 238.865 325.037 239.121 324.154C239.377 323.27 239.808 322.448 240.39 321.736ZM270.774 308.912L273.253 306.073L269.728 303.113L267.384 306.067L270.774 308.912ZM242.199 326.533C242.486 328.345 243.477 329.971 244.955 331.057C247.642 333.151 251.245 333.337 252.822 331.457C253.118 331.085 253.336 330.657 253.462 330.198C253.589 329.739 253.62 329.26 253.556 328.789C253.268 326.977 252.277 325.353 250.798 324.267C249.474 323.204 247.838 322.606 246.141 322.565C245.543 322.534 244.946 322.634 244.392 322.859C243.838 323.084 243.34 323.428 242.934 323.867C242.638 324.239 242.421 324.667 242.295 325.125C242.169 325.584 242.135 326.063 242.199 326.533Z" fill="#222222"/>
<path d="M263.74 367.016H267.058C268.377 367.014 269.642 366.489 270.575 365.557C271.507 364.624 272.032 363.36 272.034 362.041V358.725C272.032 357.406 271.507 356.142 270.575 355.209C269.642 354.276 268.377 353.752 267.058 353.75H263.74C262.427 353.751 261.168 354.27 260.236 355.195C259.304 356.12 258.775 357.375 258.764 358.687H249.917C249.906 357.375 249.377 356.12 248.445 355.195C247.514 354.27 246.254 353.751 244.941 353.75H241.624C240.304 353.752 239.04 354.276 238.107 355.209C237.174 356.142 236.649 357.406 236.647 358.725V362.041C236.651 363.261 237.104 364.437 237.92 365.345C238.736 366.252 239.858 366.827 241.071 366.96V379.176C241.073 380.495 241.597 381.759 242.53 382.691C243.463 383.624 244.728 384.149 246.047 384.15H258.764C258.766 385.469 259.291 386.733 260.224 387.666C261.156 388.599 262.421 389.123 263.74 389.125H267.058C268.377 389.123 269.642 388.599 270.575 387.666C271.507 386.733 272.032 385.469 272.034 384.15V380.834C272.032 379.515 271.507 378.251 270.575 377.318C269.642 376.386 268.377 375.861 267.058 375.859H263.74C262.421 375.861 261.156 376.386 260.224 377.318C259.291 378.251 258.766 379.515 258.764 380.834H246.047C245.607 380.833 245.186 380.659 244.875 380.348C244.564 380.037 244.389 379.615 244.388 379.176V367.016H244.941C246.26 367.014 247.525 366.489 248.458 365.557C249.391 364.624 249.916 363.36 249.917 362.041V362.003H258.764V362.041C258.766 363.36 259.291 364.624 260.224 365.557C261.156 366.489 262.421 367.014 263.74 367.016ZM262.082 380.834C262.082 380.394 262.257 379.973 262.568 379.662C262.879 379.351 263.301 379.176 263.74 379.176H267.058C267.498 379.176 267.919 379.351 268.23 379.662C268.541 379.973 268.716 380.394 268.717 380.834V384.15C268.716 384.59 268.541 385.011 268.23 385.322C267.919 385.633 267.498 385.808 267.058 385.809H263.74C263.301 385.808 262.879 385.633 262.568 385.322C262.257 385.011 262.082 384.59 262.082 384.15V380.834ZM262.082 358.725C262.082 358.285 262.257 357.864 262.568 357.553C262.879 357.242 263.301 357.067 263.74 357.066H267.058C267.498 357.067 267.919 357.242 268.23 357.553C268.541 357.864 268.716 358.285 268.717 358.725V362.041C268.716 362.481 268.541 362.902 268.23 363.213C267.919 363.524 267.498 363.699 267.058 363.699H263.74C263.301 363.699 262.879 363.524 262.568 363.213C262.257 362.902 262.082 362.481 262.082 362.041V358.725ZM246.6 362.041C246.599 362.481 246.424 362.902 246.113 363.213C245.803 363.524 245.381 363.699 244.941 363.699H241.624C241.184 363.699 240.762 363.524 240.451 363.213C240.14 362.902 239.966 362.481 239.965 362.041V358.725C239.966 358.285 240.14 357.864 240.451 357.553C240.762 357.242 241.184 357.067 241.624 357.066H244.941C245.381 357.067 245.803 357.242 246.113 357.553C246.424 357.864 246.599 358.285 246.6 358.725V362.041Z" fill="#222222"/>
<path opacity="0.2" d="M238.307 358.725V362.041C238.307 363.873 239.792 365.357 241.624 365.357H244.942C246.774 365.357 248.259 363.873 248.259 362.041V358.725C248.259 356.893 246.774 355.408 244.942 355.408H241.624C239.792 355.408 238.307 356.893 238.307 358.725Z" fill="#222222"/>
<path d="M942.168 280.789H902.358C892.587 280.789 884.665 288.708 884.665 298.477V386.914C884.665 396.683 892.587 404.602 902.358 404.602H942.168C951.94 404.602 959.862 396.683 959.862 386.914V298.477C959.862 288.708 951.94 280.789 942.168 280.789Z" fill="#EFF1F5"/>
<path d="M942.168 281.342H902.358C892.892 281.342 885.218 289.013 885.218 298.477V386.914C885.218 396.377 892.892 404.049 902.358 404.049H942.168C951.634 404.049 959.308 396.377 959.308 386.914V298.477C959.308 289.013 951.634 281.342 942.168 281.342Z" stroke="#707070" stroke-width="0.5"/>
<path d="M903.889 321.736C906.342 318.811 911.062 318.488 914.983 320.758L933.93 296.894C934.204 296.549 934.603 296.327 935.04 296.276C935.477 296.226 935.916 296.351 936.261 296.624C936.606 296.897 936.828 297.296 936.879 297.733C936.93 298.17 936.805 298.609 936.531 298.954L935.29 300.517L940.18 304.621C940.349 304.763 940.488 304.936 940.589 305.132C940.689 305.328 940.75 305.542 940.767 305.762C940.784 305.982 940.757 306.202 940.688 306.411C940.619 306.621 940.509 306.814 940.364 306.98L935.704 312.317C935.418 312.645 935.015 312.847 934.582 312.88C934.148 312.914 933.719 312.776 933.386 312.496L928.821 308.665L927.446 310.398L931.969 314.192C932.143 314.33 932.287 314.502 932.394 314.697C932.5 314.892 932.566 315.107 932.588 315.328C932.61 315.549 932.587 315.772 932.521 315.984C932.455 316.196 932.347 316.393 932.203 316.563C932.059 316.732 931.883 316.871 931.685 316.971C931.486 317.071 931.27 317.131 931.048 317.145C930.826 317.16 930.604 317.13 930.394 317.057C930.184 316.985 929.99 316.87 929.825 316.721L925.382 312.998L917.584 322.819C919.1 324.338 920.075 326.312 920.357 328.439C920.47 329.354 920.395 330.281 920.139 331.166C919.882 332.051 919.449 332.874 918.864 333.586C918.143 334.397 917.253 335.039 916.255 335.467C915.258 335.894 914.179 336.097 913.094 336.06C910.664 336.024 908.314 335.183 906.413 333.668C905.326 332.86 904.411 331.842 903.722 330.676C903.033 329.51 902.584 328.218 902.401 326.876C902.289 325.963 902.364 325.037 902.62 324.154C902.876 323.27 903.307 322.448 903.889 321.736ZM934.273 308.912L936.752 306.073L933.227 303.113L930.883 306.067L934.273 308.912ZM905.698 326.533C905.985 328.345 906.976 329.971 908.454 331.057C911.141 333.151 914.744 333.337 916.321 331.457C916.617 331.085 916.835 330.657 916.961 330.198C917.088 329.739 917.119 329.26 917.055 328.789C916.767 326.977 915.776 325.353 914.297 324.267C912.974 323.204 911.337 322.606 909.64 322.565C909.042 322.534 908.445 322.634 907.891 322.859C907.337 323.084 906.839 323.428 906.433 323.867C906.137 324.239 905.92 324.667 905.794 325.125C905.668 325.584 905.634 326.063 905.698 326.533Z" fill="#222222"/>
<path d="M927.239 367.016H930.557C931.876 367.014 933.141 366.489 934.074 365.557C935.006 364.624 935.531 363.36 935.533 362.041V358.725C935.531 357.406 935.006 356.142 934.074 355.209C933.141 354.276 931.876 353.752 930.557 353.75H927.239C925.926 353.751 924.667 354.27 923.735 355.195C922.803 356.12 922.274 357.375 922.263 358.687H913.416C913.405 357.375 912.876 356.12 911.944 355.195C911.013 354.27 909.753 353.751 908.44 353.75H905.123C903.803 353.752 902.539 354.276 901.606 355.209C900.673 356.142 900.148 357.406 900.146 358.725V362.041C900.15 363.261 900.603 364.437 901.419 365.345C902.235 366.252 903.357 366.827 904.57 366.96V379.176C904.572 380.495 905.096 381.759 906.029 382.691C906.962 383.624 908.227 384.149 909.546 384.15H922.263C922.265 385.469 922.79 386.733 923.723 387.666C924.655 388.599 925.92 389.123 927.239 389.125H930.557C931.876 389.123 933.141 388.599 934.074 387.666C935.006 386.733 935.531 385.469 935.533 384.15V380.834C935.531 379.515 935.006 378.251 934.074 377.318C933.141 376.386 931.876 375.861 930.557 375.859H927.239C925.92 375.861 924.655 376.386 923.723 377.318C922.79 378.251 922.265 379.515 922.263 380.834H909.546C909.106 380.833 908.685 380.659 908.374 380.348C908.063 380.037 907.888 379.615 907.887 379.176V367.016H908.44C909.759 367.014 911.024 366.489 911.957 365.557C912.89 364.624 913.415 363.36 913.416 362.041V362.003H922.263V362.041C922.265 363.36 922.79 364.624 923.723 365.557C924.655 366.489 925.92 367.014 927.239 367.016ZM925.581 380.834C925.581 380.394 925.756 379.973 926.067 379.662C926.378 379.351 926.8 379.176 927.239 379.176H930.557C930.997 379.176 931.418 379.351 931.729 379.662C932.04 379.973 932.215 380.394 932.216 380.834V384.15C932.215 384.59 932.04 385.011 931.729 385.322C931.418 385.633 930.997 385.808 930.557 385.809H927.239C926.8 385.808 926.378 385.633 926.067 385.322C925.756 385.011 925.581 384.59 925.581 384.15V380.834ZM925.581 358.725C925.581 358.285 925.756 357.864 926.067 357.553C926.378 357.242 926.8 357.067 927.239 357.066H930.557C930.997 357.067 931.418 357.242 931.729 357.553C932.04 357.864 932.215 358.285 932.216 358.725V362.041C932.215 362.481 932.04 362.902 931.729 363.213C931.418 363.524 930.997 363.699 930.557 363.699H927.239C926.8 363.699 926.378 363.524 926.067 363.213C925.756 362.902 925.581 362.481 925.581 362.041V358.725ZM910.099 362.041C910.098 362.481 909.923 362.902 909.612 363.213C909.302 363.524 908.88 363.699 908.44 363.699H905.123C904.683 363.699 904.261 363.524 903.95 363.213C903.64 362.902 903.465 362.481 903.464 362.041V358.725C903.465 358.285 903.64 357.864 903.95 357.553C904.261 357.242 904.683 357.067 905.123 357.066H908.44C908.88 357.067 909.302 357.242 909.612 357.553C909.923 357.864 910.098 358.285 910.099 358.725V362.041Z" fill="#222222"/>
<path opacity="0.2" d="M901.806 358.725V362.041C901.806 363.873 903.291 365.357 905.123 365.357H908.441C910.273 365.357 911.758 363.873 911.758 362.041V358.725C911.758 356.893 910.273 355.408 908.441 355.408H905.123C903.291 355.408 901.806 356.893 901.806 358.725Z" fill="#222222"/>
<path d="M473.296 280.789H433.486C423.715 280.789 415.793 288.708 415.793 298.477V386.914C415.793 396.683 423.715 404.602 433.486 404.602H473.296C483.068 404.602 490.99 396.683 490.99 386.914V298.477C490.99 288.708 483.068 280.789 473.296 280.789Z" fill="#EFF1F5"/>
<path d="M473.296 281.342H433.486C424.02 281.342 416.346 289.013 416.346 298.477V386.914C416.346 396.377 424.02 404.049 433.486 404.049H473.296C482.762 404.049 490.436 396.377 490.436 386.914V298.477C490.436 289.013 482.762 281.342 473.296 281.342Z" stroke="#707070" stroke-width="0.5"/>
<path d="M435.017 321.736C437.47 318.811 442.19 318.488 446.111 320.758L465.058 296.894C465.332 296.549 465.731 296.327 466.168 296.276C466.605 296.226 467.044 296.351 467.389 296.624C467.734 296.897 467.956 297.296 468.007 297.733C468.058 298.17 467.932 298.609 467.659 298.954L466.418 300.517L471.308 304.621C471.477 304.763 471.616 304.936 471.717 305.132C471.817 305.328 471.878 305.542 471.895 305.762C471.912 305.982 471.885 306.202 471.816 306.411C471.747 306.621 471.637 306.814 471.492 306.98L466.832 312.317C466.546 312.645 466.143 312.847 465.71 312.88C465.276 312.914 464.847 312.776 464.514 312.496L459.949 308.665L458.574 310.398L463.096 314.192C463.271 314.33 463.415 314.502 463.522 314.697C463.628 314.892 463.694 315.107 463.716 315.328C463.738 315.549 463.715 315.772 463.649 315.984C463.583 316.196 463.475 316.393 463.331 316.563C463.187 316.732 463.011 316.871 462.813 316.971C462.614 317.071 462.398 317.131 462.176 317.145C461.954 317.16 461.731 317.13 461.521 317.057C461.311 316.985 461.118 316.87 460.953 316.721L456.51 312.998L448.712 322.819C450.228 324.338 451.203 326.312 451.485 328.439C451.598 329.354 451.523 330.281 451.267 331.166C451.01 332.051 450.577 332.874 449.992 333.586C449.271 334.397 448.381 335.039 447.383 335.467C446.386 335.894 445.307 336.097 444.222 336.06C441.791 336.024 439.441 335.183 437.541 333.668C436.454 332.86 435.539 331.842 434.85 330.676C434.161 329.51 433.712 328.218 433.529 326.876C433.417 325.963 433.492 325.037 433.748 324.154C434.004 323.27 434.434 322.448 435.017 321.736ZM465.401 308.912L467.88 306.073L464.355 303.113L462.011 306.067L465.401 308.912ZM436.826 326.533C437.113 328.345 438.104 329.971 439.582 331.057C442.269 333.151 445.872 333.337 447.449 331.457C447.745 331.085 447.963 330.657 448.089 330.198C448.215 329.739 448.247 329.26 448.183 328.789C447.895 326.977 446.904 325.353 445.425 324.267C444.101 323.204 442.465 322.606 440.767 322.565C440.17 322.534 439.573 322.634 439.019 322.859C438.465 323.084 437.967 323.428 437.561 323.867C437.265 324.239 437.048 324.667 436.922 325.125C436.796 325.584 436.762 326.063 436.826 326.533Z" fill="#222222"/>
<path d="M458.367 367.016H461.685C463.004 367.014 464.269 366.489 465.202 365.557C466.134 364.624 466.659 363.36 466.661 362.041V358.725C466.659 357.406 466.134 356.142 465.202 355.209C464.269 354.276 463.004 353.752 461.685 353.75H458.367C457.054 353.751 455.795 354.27 454.863 355.195C453.931 356.12 453.402 357.375 453.391 358.687H444.544C444.533 357.375 444.004 356.12 443.072 355.195C442.14 354.27 440.881 353.751 439.568 353.75H436.251C434.931 353.752 433.667 354.276 432.734 355.209C431.801 356.142 431.276 357.406 431.274 358.725V362.041C431.278 363.261 431.731 364.437 432.547 365.345C433.363 366.252 434.485 366.827 435.698 366.96V379.176C435.699 380.495 436.224 381.759 437.157 382.691C438.09 383.624 439.355 384.149 440.674 384.15H453.391C453.393 385.469 453.918 386.733 454.85 387.666C455.783 388.599 457.048 389.123 458.367 389.125H461.685C463.004 389.123 464.269 388.599 465.202 387.666C466.134 386.733 466.659 385.469 466.661 384.15V380.834C466.659 379.515 466.134 378.251 465.202 377.318C464.269 376.386 463.004 375.861 461.685 375.859H458.367C457.048 375.861 455.783 376.386 454.85 377.318C453.918 378.251 453.393 379.515 453.391 380.834H440.674C440.234 380.833 439.813 380.659 439.502 380.348C439.191 380.037 439.016 379.615 439.015 379.176V367.016H439.568C440.887 367.014 442.152 366.489 443.085 365.557C444.018 364.624 444.543 363.36 444.544 362.041V362.003H453.391V362.041C453.393 363.36 453.918 364.624 454.85 365.557C455.783 366.489 457.048 367.014 458.367 367.016ZM456.709 380.834C456.709 380.394 456.884 379.973 457.195 379.662C457.506 379.351 457.928 379.176 458.367 379.176H461.685C462.125 379.176 462.546 379.351 462.857 379.662C463.168 379.973 463.343 380.394 463.344 380.834V384.15C463.343 384.59 463.168 385.011 462.857 385.322C462.546 385.633 462.125 385.808 461.685 385.809H458.367C457.928 385.808 457.506 385.633 457.195 385.322C456.884 385.011 456.709 384.59 456.709 384.15V380.834ZM456.709 358.725C456.709 358.285 456.884 357.864 457.195 357.553C457.506 357.242 457.928 357.067 458.367 357.066H461.685C462.125 357.067 462.546 357.242 462.857 357.553C463.168 357.864 463.343 358.285 463.344 358.725V362.041C463.343 362.481 463.168 362.902 462.857 363.213C462.546 363.524 462.125 363.699 461.685 363.699H458.367C457.928 363.699 457.506 363.524 457.195 363.213C456.884 362.902 456.709 362.481 456.709 362.041V358.725ZM441.227 362.041C441.226 362.481 441.051 362.902 440.74 363.213C440.429 363.524 440.008 363.699 439.568 363.699H436.251C435.811 363.699 435.389 363.524 435.078 363.213C434.767 362.902 434.592 362.481 434.592 362.041V358.725C434.592 358.285 434.767 357.864 435.078 357.553C435.389 357.242 435.811 357.067 436.251 357.066H439.568C440.008 357.067 440.429 357.242 440.74 357.553C441.051 357.864 441.226 358.285 441.227 358.725V362.041Z" fill="#222222"/>
<path opacity="0.2" d="M432.934 358.725V362.041C432.934 363.873 434.419 365.357 436.251 365.357H439.569C441.401 365.357 442.886 363.873 442.886 362.041V358.725C442.886 356.893 441.401 355.408 439.569 355.408H436.251C434.419 355.408 432.934 356.893 432.934 358.725Z" fill="#222222"/>
<path d="M962.073 439.977H66.3496C56.5778 439.977 48.6562 447.896 48.6562 457.664V497.461C48.6562 507.229 56.5778 515.148 66.3496 515.148H962.073C971.845 515.148 979.766 507.229 979.766 497.461V457.664C979.766 447.896 971.845 439.977 962.073 439.977Z" fill="#EFF1F5"/>
<path d="M962.073 440.529H66.3494C56.883 440.529 49.209 448.201 49.209 457.664V497.461C49.209 506.924 56.883 514.596 66.3494 514.596H962.073C971.539 514.596 979.213 506.924 979.213 497.461V457.664C979.213 448.201 971.539 440.529 962.073 440.529Z" stroke="#707070" stroke-width="0.5"/>
<path d="M444.385 474.799C445.606 474.799 446.596 473.809 446.596 472.588C446.596 471.367 445.606 470.377 444.385 470.377C443.163 470.377 442.173 471.367 442.173 472.588C442.173 473.809 443.163 474.799 444.385 474.799Z" fill="#464646"/>
<path d="M466.66 462.086H429.062C428.769 462.086 428.487 462.202 428.28 462.41C428.073 462.617 427.956 462.898 427.956 463.191V491.934C427.956 492.227 428.073 492.508 428.28 492.715C428.487 492.923 428.769 493.039 429.062 493.039H466.66C466.953 493.039 467.235 492.923 467.442 492.715C467.649 492.508 467.766 492.227 467.766 491.934V463.191C467.766 462.898 467.649 462.617 467.442 462.41C467.235 462.202 466.953 462.086 466.66 462.086ZM432.379 466.508H450.073V480.541C448.895 479.854 447.583 479.43 446.227 479.298C444.4 479.298 443.573 481.73 441.746 481.73C439.919 481.73 438.499 476.917 436.672 476.917C435.011 476.912 432.379 481.785 432.379 481.785V466.508ZM463.343 488.617H432.379V486.406H463.343V488.617ZM463.343 481.984H454.496V479.773H463.343V481.984ZM463.343 475.352H454.496V473.141H463.343V475.352ZM463.343 468.719H454.496V466.508H463.343V468.719Z" fill="#464646"/>
<path d="M512.013 500.777C512.013 501.071 512.129 501.352 512.337 501.559C512.544 501.766 512.825 501.883 513.119 501.883H515.33C515.623 501.883 515.905 501.766 516.112 501.559C516.32 501.352 516.436 501.071 516.436 500.777V490.828H512.013V500.777Z" fill="#464646"/>
<path d="M527.021 476.614C526.752 476.614 526.484 476.63 526.218 476.66C526.549 475.47 526.631 474.224 526.459 473C526.288 471.776 525.866 470.601 525.22 469.547C524.575 468.493 523.719 467.584 522.706 466.875C521.694 466.166 520.546 465.674 519.334 465.427C518.123 465.181 516.874 465.187 515.665 465.445C514.456 465.702 513.313 466.205 512.307 466.923C511.301 467.642 510.454 468.559 509.818 469.619C509.182 470.679 508.771 471.858 508.611 473.083C507.325 472.74 505.972 472.741 504.686 473.086C503.401 473.43 502.229 474.107 501.288 475.048C500.346 475.989 499.669 477.16 499.324 478.445C498.979 479.73 498.979 481.084 499.322 482.369C498.739 482.265 498.141 482.283 497.565 482.423C496.99 482.563 496.45 482.821 495.98 483.181C495.51 483.541 495.12 483.995 494.835 484.514C494.55 485.032 494.376 485.605 494.325 486.195C494.273 486.784 494.345 487.378 494.536 487.939C494.727 488.499 495.032 489.013 495.433 489.449C495.833 489.885 496.32 490.233 496.863 490.47C497.405 490.708 497.991 490.829 498.583 490.828H512.012V484.195H507.257C507.052 484.195 506.855 484.114 506.71 483.969C506.565 483.823 506.483 483.627 506.483 483.421C506.481 483.319 506.499 483.217 506.537 483.122C506.575 483.027 506.632 482.941 506.704 482.869L513.864 476.596C513.964 476.511 514.091 476.463 514.223 476.463C514.355 476.463 514.482 476.511 514.582 476.596L521.744 482.869C521.815 482.94 521.871 483.024 521.909 483.117C521.947 483.21 521.966 483.31 521.965 483.41C521.965 483.616 521.883 483.812 521.738 483.957C521.593 484.103 521.396 484.184 521.191 484.184H516.436V490.817H527.021C528.906 490.817 530.715 490.068 532.048 488.735C533.381 487.402 534.13 485.595 534.13 483.71C534.13 481.825 533.381 480.017 532.048 478.684C530.715 477.352 528.906 476.603 527.021 476.603V476.614Z" fill="#464646"/>
<path d="M597.148 488.617H594.936C594.643 488.617 594.362 488.734 594.154 488.941C593.947 489.148 593.83 489.429 593.83 489.723V495.25H567.291V489.723C567.291 489.429 567.174 489.148 566.967 488.941C566.759 488.734 566.478 488.617 566.185 488.617H563.973C563.68 488.617 563.398 488.734 563.191 488.941C562.984 489.148 562.867 489.429 562.867 489.723V498.566C562.867 498.86 562.984 499.141 563.191 499.348C563.398 499.555 563.68 499.672 563.973 499.672H597.148C597.441 499.672 597.723 499.555 597.93 499.348C598.137 499.141 598.254 498.86 598.254 498.566V489.723C598.254 489.429 598.137 489.148 597.93 488.941C597.723 488.734 597.441 488.617 597.148 488.617Z" fill="#464646"/>
<path d="M580.173 491.774C580.277 491.876 580.416 491.932 580.561 491.932C580.705 491.932 580.844 491.876 580.948 491.774L589.186 483.455C589.33 483.294 589.409 483.085 589.407 482.869C589.407 482.634 589.314 482.409 589.148 482.243C588.982 482.078 588.757 481.984 588.523 481.984H582.772V465.402C582.772 465.109 582.656 464.828 582.448 464.621C582.241 464.413 581.96 464.297 581.666 464.297H579.455C579.161 464.297 578.88 464.413 578.673 464.621C578.465 464.828 578.349 465.109 578.349 465.402V481.984H572.599C572.364 481.984 572.139 482.078 571.973 482.243C571.807 482.409 571.714 482.634 571.714 482.869C571.713 483.083 571.792 483.291 571.935 483.45L580.173 491.774Z" fill="#464646"/>
</g>
</g>
<defs>
<clipPath id="clip0_81_1361">
<rect width="1024" height="566" fill="white"/>
</clipPath>
</defs>
</svg>
