<svg width="1024" height="332" viewBox="0 0 1024 332" fill="none" xmlns="http://www.w3.org/2000/svg">
<g clip-path="url(#clip0_81_1587)">
<mask id="mask0_81_1587" style="mask-type:luminance" maskUnits="userSpaceOnUse" x="0" y="0" width="1024" height="332">
<path d="M1024 0H0V332H1024V0Z" fill="white"/>
</mask>
<g mask="url(#mask0_81_1587)">
<path d="M1024 0H0V332H1024V0Z" fill="white"/>
<path d="M265.4 44.2666H61.9267C52.155 44.2666 44.2334 52.1941 44.2334 61.9733V267.813C44.2334 277.592 52.155 285.52 61.9267 285.52H265.4C275.171 285.52 283.093 277.592 283.093 267.813V61.9733C283.093 52.1941 275.171 44.2666 265.4 44.2666Z" fill="#EFF1F5"/>
<path d="M265.4 44.8198H61.9265C52.4601 44.8198 44.7861 52.4996 44.7861 61.9732V267.813C44.7861 277.287 52.4601 284.966 61.9265 284.966H265.4C274.866 284.966 282.54 277.287 282.54 267.813V61.9732C282.54 52.4996 274.866 44.8198 265.4 44.8198Z" stroke="#707070" stroke-width="0.5"/>
<path d="M256.553 57.5464H70.7734C61.0016 57.5464 53.0801 65.4739 53.0801 75.2531V157.146C53.0801 166.926 61.0016 174.853 70.7734 174.853H256.553C266.325 174.853 274.246 166.926 274.246 157.146V75.2531C274.246 65.4739 266.325 57.5464 256.553 57.5464Z" fill="#EFF1F5"/>
<path d="M256.553 58.0996H70.7732C61.3068 58.0996 53.6328 65.7794 53.6328 75.2529V157.146C53.6328 166.62 61.3068 174.3 70.7732 174.3H256.553C266.019 174.3 273.693 166.62 273.693 157.146V75.2529C273.693 65.7794 266.019 58.0996 256.553 58.0996Z" stroke="#707070" stroke-width="0.5"/>
<path d="M101.737 181.493H70.7734C61.0016 181.493 53.0801 189.421 53.0801 199.2V252.32C53.0801 262.099 61.0016 270.026 70.7734 270.026H101.737C111.508 270.026 119.43 262.099 119.43 252.32V199.2C119.43 189.421 111.508 181.493 101.737 181.493Z" fill="#EFF1F5"/>
<path d="M101.736 182.046H70.7732C61.3068 182.046 53.6328 189.726 53.6328 199.2V252.32C53.6328 261.793 61.3068 269.473 70.7732 269.473H101.736C111.203 269.473 118.877 261.793 118.877 252.32V199.2C118.877 189.726 111.203 182.046 101.736 182.046Z" stroke="#707070" stroke-width="0.5"/>
<path d="M102.301 79.6801C102.301 74.9569 93.4009 72.4868 84.6074 72.4868C75.8138 72.4868 66.9141 74.9569 66.9141 79.6801C66.9218 79.8286 66.9388 79.9765 66.9649 80.1228C66.9414 80.2032 66.9244 80.2854 66.9141 80.3685V102.367C66.9141 106.931 76.0858 109.007 84.6074 109.007C93.1289 109.007 102.301 106.931 102.301 102.367V80.3685C102.291 80.2824 102.274 80.1973 102.25 80.114C102.276 79.9705 102.293 79.8257 102.301 79.6801ZM98.9832 91.2891C98.7797 92.2076 94.0556 94.6202 84.6074 94.6202C75.1591 94.6202 70.4306 92.2054 70.2316 91.3002V84.0493C74.7436 86.0817 79.6624 87.048 84.6074 86.8735C89.5523 87.0482 94.4712 86.0819 98.9832 84.0493V91.2891ZM84.6074 75.8068C94.0932 75.8068 98.9832 78.5226 98.9832 79.6801C98.9832 80.8377 94.0932 83.5535 84.6074 83.5535C75.1215 83.5535 70.2316 80.8377 70.2316 79.6801C70.2316 78.5226 75.1215 75.8068 84.6074 75.8068ZM84.6074 105.687C75.1569 105.687 70.4306 103.272 70.2316 102.367V95.386C74.7905 97.2401 79.6892 98.1105 84.6074 97.9402C89.5255 98.1106 94.4242 97.2402 98.9832 95.386V102.354C98.7819 103.272 94.0556 105.687 84.6074 105.687Z" fill="black"/>
<path d="M102.301 121.733C102.301 117.01 93.4009 114.54 84.6074 114.54C75.8138 114.54 66.9141 117.01 66.9141 121.733C66.9218 121.882 66.9388 122.03 66.9649 122.176C66.9414 122.256 66.9244 122.339 66.9141 122.422V144.42C66.9141 148.984 76.0858 151.06 84.6074 151.06C93.1289 151.06 102.301 148.984 102.301 144.42V122.422C102.291 122.336 102.274 122.25 102.25 122.167C102.276 122.024 102.293 121.879 102.301 121.733ZM98.9832 133.342C98.7797 134.261 94.0556 136.673 84.6074 136.673C75.1591 136.673 70.4306 134.259 70.2316 133.353V126.102C74.7436 128.135 79.6624 129.101 84.6074 128.927C89.5523 129.101 94.4712 128.135 98.9832 126.102V133.342ZM84.6074 117.86C94.0932 117.86 98.9832 120.576 98.9832 121.733C98.9832 122.891 94.0932 125.607 84.6074 125.607C75.1215 125.607 70.2316 122.891 70.2316 121.733C70.2316 120.576 75.1215 117.86 84.6074 117.86ZM84.6074 147.74C75.1569 147.74 70.4306 145.325 70.2316 144.42V137.439C74.7905 139.293 79.6892 140.164 84.6074 139.993C89.5255 140.164 94.4242 139.293 98.9832 137.439V144.407C98.7819 145.325 94.0556 147.74 84.6074 147.74Z" fill="black"/>
<path d="M213.85 96.3244C216.303 93.3961 221.023 93.073 224.944 95.3461L243.891 71.4554C244.165 71.1102 244.564 70.8878 245.001 70.8372C245.438 70.7866 245.877 70.9118 246.222 71.1853C246.567 71.4589 246.789 71.8583 246.84 72.2958C246.891 72.7333 246.765 73.173 246.492 73.5182L245.251 75.083L250.141 79.191C250.31 79.3328 250.449 79.5069 250.55 79.703C250.65 79.8991 250.711 80.1134 250.728 80.3332C250.745 80.5531 250.718 80.7742 250.649 80.9835C250.58 81.1929 250.47 81.3863 250.325 81.5526L245.665 86.8956C245.379 87.2235 244.976 87.426 244.543 87.4595C244.109 87.4931 243.68 87.3549 243.347 87.0748L238.782 83.2391L237.407 84.9744L241.929 88.7725C242.104 88.9108 242.248 89.0827 242.355 89.278C242.461 89.4733 242.527 89.688 242.549 89.9094C242.571 90.1307 242.548 90.3543 242.482 90.5667C242.416 90.7791 242.308 90.976 242.164 91.1457C242.02 91.3155 241.844 91.4546 241.646 91.5548C241.447 91.6551 241.231 91.7143 241.009 91.7291C240.787 91.744 240.565 91.714 240.354 91.6411C240.144 91.5681 239.951 91.4537 239.786 91.3045L235.343 87.5773L227.545 97.4089C229.061 98.929 230.036 100.906 230.318 103.035C230.431 103.95 230.356 104.879 230.1 105.765C229.843 106.65 229.41 107.475 228.825 108.188C228.104 108.999 227.214 109.642 226.216 110.07C225.219 110.498 224.14 110.701 223.055 110.665C220.624 110.629 218.274 109.786 216.374 108.27C215.287 107.46 214.372 106.442 213.683 105.275C212.994 104.107 212.545 102.814 212.362 101.47C212.25 100.556 212.325 99.6292 212.581 98.7448C212.837 97.8604 213.267 97.037 213.85 96.3244ZM244.234 83.487L246.713 80.6451L243.188 77.6815L240.844 80.6385L244.234 83.487ZM215.659 101.127C215.946 102.941 216.937 104.568 218.415 105.656C221.102 107.752 224.705 107.938 226.282 106.056C226.578 105.684 226.796 105.255 226.922 104.796C227.048 104.337 227.08 103.857 227.016 103.385C226.728 101.572 225.737 99.9453 224.258 98.8586C222.934 97.7947 221.298 97.1959 219.6 97.1544C219.003 97.1233 218.406 97.224 217.852 97.4493C217.298 97.6745 216.8 98.0189 216.394 98.458C216.098 98.8305 215.881 99.259 215.755 99.7178C215.629 100.176 215.595 100.656 215.659 101.127Z" fill="#222222"/>
<path d="M213.85 138.378C216.303 135.449 221.023 135.126 224.944 137.399L243.891 113.509C244.165 113.163 244.564 112.941 245.001 112.89C245.438 112.84 245.877 112.965 246.222 113.239C246.567 113.512 246.789 113.912 246.84 114.349C246.891 114.787 246.765 115.226 246.492 115.571L245.251 117.136L250.141 121.244C250.31 121.386 250.449 121.56 250.55 121.756C250.65 121.952 250.711 122.167 250.728 122.386C250.745 122.606 250.718 122.827 250.649 123.037C250.58 123.246 250.47 123.44 250.325 123.606L245.665 128.949C245.379 129.277 244.976 129.479 244.543 129.513C244.109 129.546 243.68 129.408 243.347 129.128L238.782 125.292L237.407 127.028L241.929 130.826C242.104 130.964 242.248 131.136 242.355 131.331C242.461 131.526 242.527 131.741 242.549 131.963C242.571 132.184 242.548 132.407 242.482 132.62C242.416 132.832 242.308 133.029 242.164 133.199C242.02 133.369 241.844 133.508 241.646 133.608C241.447 133.708 241.231 133.768 241.009 133.782C240.787 133.797 240.565 133.767 240.354 133.694C240.144 133.621 239.951 133.507 239.786 133.358L235.343 129.63L227.545 139.462C229.061 140.982 230.036 142.959 230.318 145.088C230.431 146.004 230.356 146.932 230.1 147.818C229.843 148.704 229.41 149.528 228.825 150.241C228.104 151.053 227.214 151.695 226.216 152.123C225.219 152.552 224.14 152.754 223.055 152.718C220.624 152.682 218.274 151.839 216.374 150.323C215.287 149.514 214.372 148.495 213.683 147.328C212.994 146.16 212.545 144.867 212.362 143.524C212.25 142.61 212.325 141.682 212.581 140.798C212.837 139.914 213.267 139.09 213.85 138.378ZM244.234 125.54L246.713 122.698L243.188 119.735L240.844 122.692L244.234 125.54ZM215.659 143.181C215.946 144.994 216.937 146.621 218.415 147.709C221.102 149.805 224.705 149.991 226.282 148.11C226.578 147.737 226.796 147.308 226.922 146.849C227.048 146.39 227.08 145.91 227.016 145.438C226.728 143.625 225.737 141.998 224.258 140.912C222.934 139.848 221.298 139.249 219.6 139.208C219.003 139.177 218.406 139.277 217.852 139.502C217.298 139.728 216.8 140.072 216.394 140.511C216.098 140.884 215.881 141.312 215.755 141.771C215.629 142.23 215.595 142.709 215.659 143.181Z" fill="#222222"/>
<path d="M176.423 89.5715L169.777 82.9315C169.463 82.637 169.048 82.4757 168.618 82.4816C168.188 82.4875 167.778 82.6602 167.472 82.9632C167.167 83.2663 166.992 83.676 166.983 84.1061C166.973 84.5361 167.131 84.953 167.423 85.2688L171.205 89.0536H143.206C142.766 89.0536 142.344 89.2285 142.033 89.5398C141.722 89.8511 141.547 90.2733 141.547 90.7136C141.547 91.1538 141.722 91.576 142.033 91.8874C142.344 92.1987 142.766 92.3736 143.206 92.3736H171.278L167.423 96.2248C167.112 96.5362 166.937 96.9585 166.937 97.3989C166.937 97.8393 167.112 98.2617 167.423 98.5731C167.735 98.8845 168.157 99.0595 168.597 99.0595C169.037 99.0595 169.459 98.8845 169.77 98.5731L176.416 91.9198C176.57 91.7657 176.692 91.5826 176.776 91.3812C176.859 91.1797 176.902 90.9637 176.902 90.7457C176.902 90.5276 176.859 90.3116 176.776 90.1102C176.692 89.9087 176.57 89.7256 176.416 89.5715H176.423Z" fill="#222222"/>
<path d="M176.423 131.625L169.777 124.985C169.463 124.69 169.048 124.529 168.618 124.535C168.188 124.541 167.778 124.713 167.472 125.016C167.167 125.319 166.992 125.729 166.983 126.159C166.973 126.589 167.131 127.006 167.423 127.322L171.205 131.107H143.206C142.766 131.107 142.344 131.282 142.033 131.593C141.722 131.904 141.547 132.327 141.547 132.767C141.547 133.207 141.722 133.629 142.033 133.941C142.344 134.252 142.766 134.427 143.206 134.427H171.278L167.423 138.278C167.112 138.589 166.937 139.012 166.937 139.452C166.937 139.893 167.112 140.315 167.423 140.626C167.735 140.938 168.157 141.113 168.597 141.113C169.037 141.113 169.459 140.938 169.77 140.626L176.416 133.973C176.57 133.819 176.692 133.636 176.776 133.434C176.859 133.233 176.902 133.017 176.902 132.799C176.902 132.581 176.859 132.365 176.776 132.163C176.692 131.962 176.57 131.779 176.416 131.625H176.423Z" fill="#222222"/>
<path d="M256.553 181.493H141.547C131.775 181.493 123.854 189.421 123.854 199.2V252.32C123.854 262.099 131.775 270.026 141.547 270.026H256.553C266.325 270.026 274.247 262.099 274.247 252.32V199.2C274.247 189.421 266.325 181.493 256.553 181.493Z" fill="#EFF1F5"/>
<path d="M256.553 182.046H141.547C132.08 182.046 124.406 189.726 124.406 199.2V252.32C124.406 261.793 132.08 269.473 141.547 269.473H256.553C266.02 269.473 273.694 261.793 273.694 252.32V199.2C273.694 189.726 266.02 182.046 256.553 182.046Z" stroke="#707070" stroke-width="0.5"/>
<path d="M170.555 244.573H153.967C153.527 244.573 153.106 244.398 152.794 244.087C152.483 243.775 152.309 243.353 152.309 242.913C152.309 242.473 152.483 242.05 152.794 241.739C153.106 241.428 153.527 241.253 153.967 241.253H170.555C170.995 241.253 171.417 241.428 171.728 241.739C172.039 242.05 172.214 242.473 172.214 242.913C172.214 243.353 172.039 243.775 171.728 244.087C171.417 244.398 170.995 244.573 170.555 244.573Z" fill="black"/>
<path d="M141.763 215.441C141.448 215.44 141.14 215.349 140.874 215.179C140.609 215.009 140.397 214.767 140.264 214.481C140.131 214.195 140.082 213.877 140.122 213.564C140.163 213.251 140.292 212.957 140.494 212.714L146.54 205.51C146.681 205.343 146.853 205.206 147.046 205.106C147.24 205.006 147.451 204.944 147.668 204.926C147.885 204.907 148.104 204.932 148.311 204.998C148.519 205.064 148.712 205.17 148.878 205.311C149.045 205.451 149.182 205.623 149.282 205.817C149.382 206.011 149.443 206.222 149.462 206.439C149.48 206.657 149.456 206.875 149.39 207.083C149.324 207.291 149.218 207.484 149.077 207.65L143.037 214.85C142.882 215.036 142.687 215.186 142.467 215.288C142.247 215.391 142.008 215.444 141.765 215.443L141.763 215.441Z" fill="black"/>
<path d="M163.46 233.465C163.144 233.463 162.836 233.372 162.57 233.202C162.305 233.032 162.093 232.79 161.96 232.504C161.827 232.218 161.778 231.9 161.819 231.588C161.859 231.275 161.988 230.98 162.19 230.738L168.232 223.531C168.515 223.194 168.921 222.983 169.359 222.945C169.797 222.907 170.233 223.044 170.57 223.327C170.907 223.611 171.118 224.016 171.156 224.455C171.194 224.894 171.057 225.33 170.774 225.667L164.731 232.882C164.576 233.068 164.381 233.218 164.161 233.321C163.942 233.423 163.702 233.476 163.46 233.476V233.465Z" fill="black"/>
<path d="M163.922 217.34L156.298 210.937C155.798 210.516 155.22 210.198 154.597 210.001C153.973 209.804 153.318 209.732 152.666 209.788C152.015 209.845 151.382 210.03 150.802 210.332C150.222 210.633 149.708 211.047 149.287 211.548L147.155 214.093C146.315 215.1 145.904 216.398 146.014 217.706C146.124 219.014 146.745 220.226 147.742 221.078C143.82 225.62 137.612 232.754 135.155 235.574L134.091 236.797C133.338 237.755 132.986 238.968 133.109 240.18C133.233 241.392 133.823 242.509 134.754 243.293C135.686 244.078 136.885 244.47 138.1 244.386C139.315 244.302 140.449 243.748 141.264 242.842L141.834 242.178C143.814 239.909 150.415 232.329 154.649 227.426C154.739 227.311 154.813 227.185 154.87 227.05L155.403 227.493C156.295 228.245 157.425 228.656 158.592 228.655C158.738 228.655 158.888 228.655 159.034 228.635C159.682 228.582 160.312 228.402 160.89 228.106C161.468 227.809 161.982 227.401 162.403 226.906L164.537 224.365C164.957 223.864 165.274 223.285 165.471 222.661C165.667 222.038 165.739 221.381 165.682 220.73C165.624 220.078 165.44 219.444 165.138 218.864C164.836 218.284 164.423 217.769 163.922 217.349V217.34ZM152.138 225.27C147.907 230.169 141.301 237.743 139.333 240.011L138.733 240.7C138.501 240.98 138.166 241.157 137.804 241.191C137.441 241.224 137.08 241.113 136.799 240.88C136.519 240.647 136.342 240.313 136.309 239.95C136.275 239.587 136.386 239.225 136.619 238.944L137.654 237.756C140.127 234.927 146.357 227.76 150.28 223.216L152.443 225.034C152.333 225.1 152.231 225.179 152.14 225.27H152.138ZM161.996 222.22L159.861 224.764C159.721 224.931 159.55 225.068 159.356 225.169C159.163 225.27 158.952 225.331 158.735 225.35C158.518 225.369 158.299 225.345 158.091 225.279C157.883 225.214 157.691 225.108 157.524 224.967L149.902 218.566C149.565 218.283 149.354 217.878 149.316 217.439C149.277 217 149.414 216.564 149.697 216.227L151.829 213.681C151.969 213.515 152.14 213.377 152.333 213.277C152.526 213.176 152.738 213.115 152.954 213.097C153.392 213.061 153.826 213.199 154.164 213.48L161.801 219.883C161.968 220.023 162.106 220.194 162.207 220.388C162.307 220.581 162.369 220.792 162.388 221.009C162.407 221.226 162.383 221.445 162.318 221.653C162.252 221.861 162.147 222.054 162.007 222.22H161.996Z" fill="black"/>
<path d="M216.18 244.573H199.592C199.152 244.573 198.731 244.398 198.419 244.087C198.108 243.775 197.934 243.353 197.934 242.913C197.934 242.473 198.108 242.05 198.419 241.739C198.731 241.428 199.152 241.253 199.592 241.253H216.18C216.62 241.253 217.042 241.428 217.353 241.739C217.664 242.05 217.839 242.473 217.839 242.913C217.839 243.353 217.664 243.775 217.353 244.087C217.042 244.398 216.62 244.573 216.18 244.573Z" fill="black"/>
<path d="M187.388 215.441C187.073 215.44 186.765 215.349 186.499 215.179C186.234 215.009 186.022 214.767 185.889 214.481C185.756 214.195 185.707 213.877 185.747 213.564C185.788 213.251 185.917 212.957 186.119 212.714L192.165 205.51C192.306 205.343 192.478 205.206 192.671 205.106C192.865 205.006 193.076 204.944 193.293 204.926C193.51 204.907 193.729 204.932 193.936 204.998C194.144 205.064 194.337 205.17 194.503 205.311C194.67 205.451 194.807 205.623 194.907 205.817C195.007 206.011 195.068 206.222 195.087 206.439C195.105 206.657 195.081 206.875 195.015 207.083C194.949 207.291 194.843 207.484 194.702 207.65L188.662 214.85C188.507 215.036 188.312 215.186 188.092 215.288C187.872 215.391 187.633 215.444 187.39 215.443L187.388 215.441Z" fill="black"/>
<path d="M209.085 233.465C208.769 233.463 208.461 233.372 208.195 233.202C207.93 233.032 207.718 232.79 207.585 232.504C207.452 232.218 207.403 231.9 207.444 231.588C207.484 231.275 207.613 230.98 207.815 230.738L213.857 223.531C214.14 223.194 214.546 222.983 214.984 222.945C215.422 222.907 215.858 223.044 216.195 223.327C216.532 223.611 216.743 224.016 216.781 224.455C216.819 224.894 216.682 225.33 216.399 225.667L210.356 232.882C210.201 233.068 210.006 233.218 209.786 233.321C209.567 233.423 209.327 233.476 209.085 233.476V233.465Z" fill="black"/>
<path d="M209.547 217.34L201.923 210.937C201.423 210.516 200.845 210.198 200.222 210.001C199.598 209.804 198.943 209.732 198.291 209.788C197.64 209.845 197.007 210.03 196.427 210.332C195.847 210.633 195.333 211.047 194.912 211.548L192.78 214.093C191.94 215.1 191.529 216.398 191.639 217.706C191.749 219.014 192.37 220.226 193.367 221.078C189.445 225.62 183.237 232.754 180.78 235.574L179.716 236.797C178.963 237.755 178.611 238.968 178.734 240.18C178.858 241.392 179.448 242.509 180.379 243.293C181.311 244.078 182.51 244.47 183.725 244.386C184.94 244.302 186.074 243.748 186.889 242.842L187.459 242.178C189.439 239.909 196.04 232.329 200.274 227.426C200.364 227.311 200.438 227.185 200.495 227.05L201.028 227.493C201.92 228.245 203.05 228.656 204.217 228.655C204.363 228.655 204.513 228.655 204.659 228.635C205.307 228.582 205.937 228.402 206.515 228.106C207.093 227.809 207.607 227.401 208.028 226.906L210.162 224.365C210.582 223.864 210.899 223.285 211.096 222.661C211.292 222.038 211.364 221.381 211.307 220.73C211.249 220.078 211.065 219.444 210.763 218.864C210.461 218.284 210.048 217.769 209.547 217.349V217.34ZM197.763 225.27C193.532 230.169 186.926 237.743 184.958 240.011L184.358 240.7C184.126 240.98 183.791 241.157 183.429 241.191C183.066 241.224 182.705 241.113 182.424 240.88C182.144 240.647 181.967 240.313 181.934 239.95C181.9 239.587 182.011 239.225 182.244 238.944L183.279 237.756C185.752 234.927 191.982 227.76 195.905 223.216L198.068 225.034C197.958 225.1 197.856 225.179 197.765 225.27H197.763ZM207.621 222.22L205.486 224.764C205.346 224.931 205.175 225.068 204.981 225.169C204.788 225.27 204.577 225.331 204.36 225.35C204.143 225.369 203.924 225.345 203.716 225.279C203.508 225.214 203.316 225.108 203.149 224.967L195.527 218.566C195.19 218.283 194.979 217.878 194.941 217.439C194.902 217 195.039 216.564 195.322 216.227L197.454 213.681C197.594 213.515 197.765 213.377 197.958 213.277C198.151 213.176 198.363 213.115 198.579 213.097C199.017 213.061 199.451 213.199 199.789 213.48L207.426 219.883C207.593 220.023 207.731 220.194 207.832 220.388C207.932 220.581 207.994 220.792 208.013 221.009C208.032 221.226 208.008 221.445 207.943 221.653C207.877 221.861 207.772 222.054 207.632 222.22H207.621Z" fill="black"/>
<path d="M260.412 244.573H243.825C243.385 244.573 242.963 244.398 242.652 244.087C242.341 243.775 242.166 243.353 242.166 242.913C242.166 242.473 242.341 242.05 242.652 241.739C242.963 241.428 243.385 241.253 243.825 241.253H260.412C260.852 241.253 261.274 241.428 261.585 241.739C261.896 242.05 262.071 242.473 262.071 242.913C262.071 243.353 261.896 243.775 261.585 244.087C261.274 244.398 260.852 244.573 260.412 244.573Z" fill="black"/>
<path d="M231.621 215.441C231.305 215.44 230.997 215.349 230.732 215.179C230.466 215.009 230.254 214.767 230.121 214.481C229.988 214.195 229.939 213.877 229.98 213.564C230.02 213.251 230.149 212.957 230.351 212.714L236.398 205.51C236.538 205.343 236.71 205.206 236.904 205.106C237.097 205.006 237.308 204.944 237.526 204.926C237.743 204.907 237.961 204.932 238.169 204.998C238.376 205.064 238.569 205.17 238.736 205.311C238.902 205.451 239.039 205.623 239.14 205.817C239.24 206.011 239.301 206.222 239.319 206.439C239.338 206.657 239.313 206.875 239.247 207.083C239.181 207.291 239.075 207.484 238.935 207.65L232.895 214.85C232.739 215.036 232.544 215.186 232.325 215.288C232.105 215.391 231.865 215.444 231.623 215.443L231.621 215.441Z" fill="black"/>
<path d="M253.317 233.465C253.002 233.463 252.693 233.372 252.428 233.202C252.162 233.032 251.951 232.79 251.818 232.504C251.684 232.218 251.635 231.9 251.676 231.588C251.717 231.275 251.846 230.98 252.048 230.738L258.09 223.531C258.373 223.194 258.778 222.983 259.216 222.945C259.655 222.907 260.091 223.044 260.427 223.327C260.764 223.611 260.975 224.016 261.013 224.455C261.052 224.894 260.914 225.33 260.631 225.667L254.589 232.882C254.433 233.068 254.239 233.218 254.019 233.321C253.799 233.423 253.559 233.476 253.317 233.476V233.465Z" fill="black"/>
<path d="M253.779 217.34L246.156 210.937C245.656 210.516 245.077 210.198 244.454 210.001C243.831 209.804 243.175 209.732 242.524 209.788C241.873 209.845 241.239 210.03 240.659 210.332C240.08 210.633 239.565 211.047 239.145 211.548L237.013 214.093C236.172 215.1 235.762 216.398 235.872 217.706C235.981 219.014 236.602 220.226 237.599 221.078C233.678 225.62 227.47 232.754 225.012 235.574L223.949 236.797C223.195 237.755 222.843 238.968 222.967 240.18C223.09 241.392 223.68 242.509 224.612 243.293C225.543 244.078 226.743 244.47 227.958 244.386C229.172 244.302 230.307 243.748 231.121 242.842L231.692 242.178C233.671 239.909 240.273 232.329 244.506 227.426C244.596 227.311 244.671 227.185 244.727 227.05L245.26 227.493C246.153 228.245 247.282 228.656 248.449 228.655C248.595 228.655 248.746 228.655 248.892 228.635C249.539 228.582 250.17 228.402 250.748 228.106C251.326 227.809 251.84 227.401 252.26 226.906L254.394 224.365C254.814 223.864 255.132 223.285 255.328 222.661C255.524 222.038 255.596 221.381 255.539 220.73C255.482 220.078 255.297 219.444 254.995 218.864C254.693 218.284 254.28 217.769 253.779 217.349V217.34ZM241.996 225.27C237.765 230.169 231.159 237.743 229.19 240.011L228.591 240.7C228.358 240.98 228.024 241.157 227.661 241.191C227.298 241.224 226.937 241.113 226.657 240.88C226.376 240.647 226.2 240.313 226.166 239.95C226.132 239.587 226.244 239.225 226.476 238.944L227.512 237.756C229.984 234.927 236.214 227.76 240.138 223.216L242.301 225.034C242.191 225.1 242.089 225.179 241.998 225.27H241.996ZM251.853 222.22L249.719 224.764C249.579 224.931 249.407 225.068 249.214 225.169C249.02 225.27 248.809 225.331 248.592 225.35C248.375 225.369 248.156 225.345 247.949 225.279C247.741 225.214 247.548 225.108 247.381 224.967L239.76 218.566C239.423 218.283 239.212 217.878 239.173 217.439C239.135 217 239.272 216.564 239.554 216.227L241.686 213.681C241.826 213.515 241.997 213.377 242.191 213.277C242.384 213.176 242.595 213.115 242.812 213.097C243.25 213.061 243.684 213.199 244.022 213.48L251.658 219.883C251.825 220.023 251.963 220.194 252.064 220.388C252.165 220.581 252.226 220.792 252.246 221.009C252.265 221.226 252.241 221.445 252.175 221.653C252.11 221.861 252.004 222.054 251.864 222.22H251.853Z" fill="black"/>
<path d="M93.4425 208.053H96.76C98.0792 208.052 99.3439 207.526 100.277 206.593C101.21 205.659 101.734 204.394 101.736 203.073V199.753C101.734 198.433 101.21 197.168 100.277 196.234C99.3439 195.3 98.0792 194.775 96.76 194.773H93.4425C92.1295 194.775 90.8701 195.294 89.9382 196.22C89.0063 197.146 88.4773 198.402 88.4662 199.716H79.6196C79.6085 198.402 79.0795 197.146 78.1476 196.22C77.2157 195.294 75.9563 194.775 74.6433 194.773H71.3259C70.0066 194.775 68.7419 195.3 67.8091 196.234C66.8762 197.168 66.3514 198.433 66.3496 199.753V203.073C66.3532 204.295 66.8062 205.472 67.6221 206.381C68.438 207.289 69.5597 207.865 70.7729 207.998V220.227C70.7747 221.547 71.2995 222.813 72.2324 223.746C73.1652 224.68 74.4299 225.205 75.7492 225.207H88.4662C88.468 226.527 88.9928 227.793 89.9257 228.726C90.8585 229.66 92.1232 230.185 93.4425 230.187H96.76C98.0792 230.185 99.3439 229.66 100.277 228.726C101.21 227.793 101.734 226.527 101.736 225.207V221.887C101.734 220.567 101.21 219.301 100.277 218.367C99.3439 217.434 98.0792 216.909 96.76 216.907H93.4425C92.1232 216.909 90.8585 217.434 89.9257 218.367C88.9928 219.301 88.468 220.567 88.4662 221.887H75.7492C75.3094 221.886 74.8879 221.711 74.5769 221.4C74.266 221.089 74.091 220.667 74.0904 220.227V208.053H74.6433C75.9626 208.052 77.2273 207.526 78.1601 206.593C79.093 205.659 79.6178 204.394 79.6196 203.073V203.036H88.4662V203.073C88.468 204.394 88.9928 205.659 89.9257 206.593C90.8585 207.526 92.1232 208.052 93.4425 208.053ZM91.7837 221.887C91.7843 221.447 91.9593 221.025 92.2702 220.714C92.5812 220.402 93.0027 220.227 93.4425 220.227H96.76C97.1997 220.227 97.6213 220.402 97.9322 220.714C98.2432 221.025 98.4181 221.447 98.4187 221.887V225.207C98.4181 225.647 98.2432 226.069 97.9322 226.38C97.6213 226.691 97.1997 226.866 96.76 226.867H93.4425C93.0027 226.866 92.5812 226.691 92.2702 226.38C91.9593 226.069 91.7843 225.647 91.7837 225.207V221.887ZM91.7837 199.753C91.7843 199.313 91.9593 198.891 92.2702 198.58C92.5812 198.269 93.0027 198.094 93.4425 198.093H96.76C97.1997 198.094 97.6213 198.269 97.9322 198.58C98.2432 198.891 98.4181 199.313 98.4187 199.753V203.073C98.4181 203.514 98.2432 203.935 97.9322 204.247C97.6213 204.558 97.1997 204.733 96.76 204.733H93.4425C93.0027 204.733 92.5812 204.558 92.2702 204.247C91.9593 203.935 91.7843 203.514 91.7837 203.073V199.753ZM76.3021 203.073C76.3015 203.514 76.1266 203.935 75.8156 204.247C75.5047 204.558 75.0831 204.733 74.6433 204.733H71.3259C70.8861 204.733 70.4645 204.558 70.1536 204.247C69.8426 203.935 69.6677 203.514 69.6671 203.073V199.753C69.6677 199.313 69.8426 198.891 70.1536 198.58C70.4645 198.269 70.8861 198.094 71.3259 198.093H74.6433C75.0831 198.094 75.5047 198.269 75.8156 198.58C76.1266 198.891 76.3015 199.313 76.3021 199.753V203.073Z" fill="#222222"/>
<path opacity="0.2" d="M68.0088 199.754V203.074C68.0088 204.907 69.4941 206.394 71.3263 206.394H74.6438C76.476 206.394 77.9613 204.907 77.9613 203.074V199.754C77.9613 197.92 76.476 196.434 74.6438 196.434H71.3263C69.4941 196.434 68.0088 197.92 68.0088 199.754Z" fill="#222222"/>
<path d="M105.054 234.613H67.4558C61.3484 234.613 56.3975 239.568 56.3975 245.68C56.3975 251.792 61.3484 256.747 67.4558 256.747H105.054C111.161 256.747 116.112 251.792 116.112 245.68C116.112 239.568 111.161 234.613 105.054 234.613Z" fill="#EFF1F5"/>
<path d="M67.6833 245.37C68.9048 245.37 69.895 244.379 69.895 243.157C69.895 241.934 68.9048 240.943 67.6833 240.943C66.4619 240.943 65.4717 241.934 65.4717 243.157C65.4717 244.379 66.4619 245.37 67.6833 245.37Z" fill="black"/>
<path d="M78.1314 239.04H59.3654C59.2297 239.03 59.0954 239.073 58.9918 239.162C58.8883 239.25 58.8238 239.376 58.8125 239.512V251.756C58.8238 251.891 58.8883 252.017 58.9918 252.105C59.0954 252.194 59.2297 252.238 59.3654 252.227H78.1314C78.2671 252.238 78.4014 252.194 78.5049 252.105C78.6085 252.017 78.673 251.891 78.6843 251.756V239.512C78.673 239.376 78.6085 239.25 78.5049 239.162C78.4014 239.073 78.2671 239.03 78.1314 239.04ZM61.0242 240.924H69.8509V246.9C69.2501 246.604 68.5987 246.424 67.9312 246.371C67.0178 246.371 66.6042 247.406 65.6952 247.406C64.7862 247.406 64.074 245.357 63.1628 245.357C62.3335 245.357 61.0197 247.431 61.0197 247.431L61.0242 240.924ZM76.4748 250.344H61.0242V249.401H76.4748V250.344ZM76.4748 247.517H72.0515V246.565H76.4748V247.517ZM76.4748 244.691H72.0515V243.75H76.4748V244.691ZM76.4748 241.864H72.0515V240.924H76.4748V241.864Z" fill="black"/>
<path d="M86.3082 251.855C86.3052 251.913 86.3138 251.972 86.3335 252.027C86.3531 252.082 86.3835 252.132 86.4227 252.175C86.462 252.219 86.5094 252.254 86.5623 252.278C86.6151 252.303 86.6723 252.317 86.7306 252.32H87.5755C87.6338 252.317 87.691 252.303 87.7438 252.278C87.7967 252.254 87.8441 252.219 87.8834 252.175C87.9226 252.132 87.953 252.082 87.9726 252.027C87.9923 251.972 88.0009 251.913 87.9979 251.855V247.681H86.3082V251.855Z" fill="black"/>
<path d="M92.0428 241.718C91.94 241.719 91.8373 241.725 91.7353 241.738C91.9074 241.077 91.9081 240.382 91.7374 239.72C91.5668 239.059 91.2304 238.451 90.76 237.956C90.3193 237.49 89.7499 237.167 89.1246 237.027C88.4993 236.888 87.8466 236.938 87.2501 237.172C86.6361 237.435 86.104 237.857 85.7094 238.396C85.3149 238.935 85.0724 239.57 85.0075 240.235C84.511 240.093 83.9842 240.094 83.4885 240.24C82.9928 240.385 82.5486 240.668 82.2075 241.057C81.8426 241.469 81.5835 241.964 81.4525 242.5C81.3215 243.035 81.3225 243.594 81.4555 244.129C81.152 244.076 80.8395 244.113 80.5574 244.237C80.2752 244.361 80.036 244.566 79.8698 244.826C79.6893 245.099 79.5812 245.414 79.5557 245.741C79.5302 246.068 79.588 246.396 79.7238 246.694C79.846 246.98 80.048 247.226 80.3056 247.4C80.5633 247.575 80.8657 247.672 81.1769 247.679H86.3079V244.899H84.4899C84.4486 244.898 84.4079 244.888 84.3702 244.871C84.3325 244.854 84.2986 244.83 84.2704 244.8C84.2422 244.769 84.2203 244.734 84.2059 244.695C84.1916 244.656 84.1852 244.615 84.1869 244.574C84.1882 244.491 84.2197 244.413 84.2754 244.352L87.0156 241.709C87.0524 241.674 87.1016 241.654 87.1528 241.654C87.204 241.654 87.2532 241.674 87.2899 241.709L90.0213 244.346C90.077 244.406 90.1085 244.485 90.1098 244.567C90.1134 244.649 90.0842 244.73 90.0287 244.791C89.9731 244.852 89.8957 244.888 89.8134 244.892H87.9976V247.681H92.0428C92.7973 247.644 93.5066 247.31 94.0156 246.751C94.5246 246.193 94.7917 245.455 94.7587 244.7C94.7917 243.944 94.5246 243.207 94.0156 242.648C93.5066 242.089 92.7973 241.755 92.0428 241.718Z" fill="black"/>
<path d="M112.165 248.56H111.059C110.921 248.551 110.784 248.598 110.68 248.689C110.576 248.781 110.512 248.91 110.502 249.049V251.483H97.139V249.049C97.1293 248.91 97.0657 248.782 96.9617 248.69C96.8578 248.599 96.7221 248.552 96.5839 248.56H95.478C95.4089 248.554 95.3394 248.563 95.2736 248.585C95.2077 248.607 95.1469 248.641 95.0945 248.687C95.042 248.732 94.9991 248.788 94.9682 248.85C94.9372 248.912 94.9188 248.979 94.9141 249.049V252.96C94.9237 253.098 94.9877 253.227 95.0921 253.319C95.1965 253.411 95.3328 253.457 95.4714 253.449H112.165C112.304 253.457 112.44 253.411 112.544 253.319C112.649 253.227 112.713 253.098 112.722 252.96V249.049C112.713 248.91 112.649 248.781 112.544 248.689C112.44 248.598 112.304 248.551 112.165 248.56Z" fill="black"/>
<path d="M103.619 249.956C103.673 250.001 103.742 250.025 103.813 250.025C103.884 250.025 103.953 250.001 104.008 249.956L108.155 246.277C108.189 246.244 108.217 246.204 108.236 246.16C108.255 246.116 108.265 246.069 108.265 246.021C108.258 245.91 108.207 245.807 108.124 245.734C108.042 245.66 107.933 245.623 107.823 245.629H104.928V238.294C104.918 238.155 104.854 238.026 104.75 237.934C104.645 237.843 104.509 237.796 104.37 237.805H103.265C103.126 237.796 102.99 237.843 102.885 237.934C102.781 238.026 102.717 238.155 102.707 238.294V245.627H99.8056C99.6952 245.621 99.5869 245.658 99.5041 245.732C99.4213 245.805 99.3707 245.908 99.3633 246.018C99.3635 246.066 99.3734 246.114 99.3924 246.158C99.4114 246.202 99.4391 246.242 99.4739 246.275L103.619 249.956Z" fill="black"/>
<path d="M519.741 44.2666H316.268C306.496 44.2666 298.574 52.1941 298.574 61.9733V267.813C298.574 277.592 306.496 285.52 316.268 285.52H519.741C529.512 285.52 537.434 277.592 537.434 267.813V61.9733C537.434 52.1941 529.512 44.2666 519.741 44.2666Z" fill="#EFF1F5"/>
<path d="M519.74 44.8198H316.267C306.801 44.8198 299.127 52.4996 299.127 61.9732V267.813C299.127 277.287 306.801 284.966 316.267 284.966H519.74C529.207 284.966 536.881 277.287 536.881 267.813V61.9732C536.881 52.4996 529.207 44.8198 519.74 44.8198Z" stroke="#707070" stroke-width="0.5"/>
<path d="M510.894 57.5464H325.114C315.342 57.5464 307.421 65.4739 307.421 75.2531V157.146C307.421 166.926 315.342 174.853 325.114 174.853H510.894C520.666 174.853 528.587 166.926 528.587 157.146V75.2531C528.587 65.4739 520.666 57.5464 510.894 57.5464Z" fill="#EFF1F5"/>
<path d="M510.894 58.0996H325.114C315.648 58.0996 307.974 65.7794 307.974 75.2529V157.146C307.974 166.62 315.648 174.3 325.114 174.3H510.894C520.36 174.3 528.034 166.62 528.034 157.146V75.2529C528.034 65.7794 520.36 58.0996 510.894 58.0996Z" stroke="#707070" stroke-width="0.5"/>
<path d="M356.077 181.493H325.114C315.342 181.493 307.421 189.421 307.421 199.2V252.32C307.421 262.099 315.342 270.026 325.114 270.026H356.077C365.849 270.026 373.771 262.099 373.771 252.32V199.2C373.771 189.421 365.849 181.493 356.077 181.493Z" fill="#EFF1F5"/>
<path d="M356.077 182.046H325.114C315.648 182.046 307.974 189.726 307.974 199.2V252.32C307.974 261.793 315.648 269.473 325.114 269.473H356.077C365.544 269.473 373.218 261.793 373.218 252.32V199.2C373.218 189.726 365.544 182.046 356.077 182.046Z" stroke="#707070" stroke-width="0.5"/>
<path d="M356.641 79.6801C356.641 74.9569 347.742 72.4868 338.948 72.4868C330.155 72.4868 321.255 74.9569 321.255 79.6801C321.263 79.8286 321.28 79.9765 321.306 80.1228C321.282 80.2032 321.265 80.2854 321.255 80.3685V102.367C321.255 106.931 330.427 109.007 338.948 109.007C347.47 109.007 356.641 106.931 356.641 102.367V80.3685C356.632 80.2824 356.615 80.1973 356.591 80.114C356.616 79.9705 356.633 79.8257 356.641 79.6801ZM353.324 91.2891C353.121 92.2076 348.396 94.6202 338.948 94.6202C329.5 94.6202 324.771 92.2054 324.572 91.3002V84.0493C329.084 86.0817 334.003 87.048 338.948 86.8735C343.893 87.0482 348.812 86.0819 353.324 84.0493V91.2891ZM338.948 75.8068C348.434 75.8068 353.324 78.5226 353.324 79.6801C353.324 80.8377 348.434 83.5535 338.948 83.5535C329.462 83.5535 324.572 80.8377 324.572 79.6801C324.572 78.5226 329.462 75.8068 338.948 75.8068ZM338.948 105.687C329.498 105.687 324.771 103.272 324.572 102.367V95.386C329.131 97.2401 334.03 98.1105 338.948 97.9402C343.866 98.1106 348.765 97.2402 353.324 95.386V102.354C353.123 103.272 348.396 105.687 338.948 105.687Z" fill="black"/>
<path d="M356.641 121.733C356.641 117.01 347.742 114.54 338.948 114.54C330.155 114.54 321.255 117.01 321.255 121.733C321.263 121.882 321.28 122.03 321.306 122.176C321.282 122.256 321.265 122.339 321.255 122.422V144.42C321.255 148.984 330.427 151.06 338.948 151.06C347.47 151.06 356.641 148.984 356.641 144.42V122.422C356.632 122.336 356.615 122.25 356.591 122.167C356.616 122.024 356.633 121.879 356.641 121.733ZM353.324 133.342C353.121 134.261 348.396 136.673 338.948 136.673C329.5 136.673 324.771 134.259 324.572 133.353V126.102C329.084 128.135 334.003 129.101 338.948 128.927C343.893 129.101 348.812 128.135 353.324 126.102V133.342ZM338.948 117.86C348.434 117.86 353.324 120.576 353.324 121.733C353.324 122.891 348.434 125.607 338.948 125.607C329.462 125.607 324.572 122.891 324.572 121.733C324.572 120.576 329.462 117.86 338.948 117.86ZM338.948 147.74C329.498 147.74 324.771 145.325 324.572 144.42V137.439C329.131 139.293 334.03 140.164 338.948 139.993C343.866 140.164 348.765 139.293 353.324 137.439V144.407C353.123 145.325 348.396 147.74 338.948 147.74Z" fill="black"/>
<path d="M468.191 96.3244C470.644 93.3961 475.363 93.073 479.285 95.3461L498.232 71.4554C498.505 71.1102 498.905 70.8878 499.342 70.8372C499.779 70.7866 500.218 70.9118 500.563 71.1853C500.908 71.4589 501.13 71.8583 501.181 72.2958C501.231 72.7333 501.106 73.173 500.833 73.5182L499.592 75.083L504.482 79.191C504.651 79.3328 504.79 79.5069 504.89 79.703C504.991 79.8991 505.052 80.1134 505.069 80.3332C505.086 80.5531 505.059 80.7742 504.99 80.9835C504.921 81.1929 504.811 81.3863 504.666 81.5526L500.006 86.8956C499.72 87.2235 499.317 87.426 498.883 87.4595C498.45 87.4931 498.021 87.3549 497.688 87.0748L493.123 83.2391L491.747 84.9744L496.27 88.7725C496.444 88.9108 496.589 89.0827 496.695 89.278C496.802 89.4733 496.868 89.688 496.89 89.9094C496.912 90.1307 496.889 90.3543 496.823 90.5667C496.757 90.7791 496.649 90.976 496.505 91.1457C496.361 91.3155 496.185 91.4546 495.986 91.5548C495.788 91.6551 495.571 91.7143 495.35 91.7291C495.128 91.744 494.905 91.714 494.695 91.6411C494.485 91.5681 494.292 91.4537 494.127 91.3045L489.684 87.5773L481.886 97.4089C483.402 98.929 484.376 100.906 484.659 103.035C484.771 103.95 484.697 104.879 484.441 105.765C484.184 106.65 483.75 107.475 483.166 108.188C482.445 108.999 481.554 109.642 480.557 110.07C479.56 110.498 478.48 110.701 477.396 110.665C474.965 110.629 472.615 109.786 470.714 108.27C469.628 107.46 468.713 106.442 468.024 105.275C467.335 104.107 466.886 102.814 466.703 101.47C466.591 100.556 466.666 99.6292 466.922 98.7448C467.178 97.8604 467.608 97.037 468.191 96.3244ZM498.575 83.487L501.054 80.6451L497.529 77.6815L495.184 80.6385L498.575 83.487ZM470 101.127C470.287 102.941 471.277 104.568 472.756 105.656C475.443 107.752 479.046 107.938 480.623 106.056C480.919 105.684 481.137 105.255 481.263 104.796C481.389 104.337 481.421 103.857 481.357 103.385C481.069 101.572 480.078 99.9453 478.599 98.8586C477.275 97.7947 475.639 97.1959 473.941 97.1544C473.344 97.1233 472.747 97.224 472.193 97.4493C471.639 97.6745 471.141 98.0189 470.734 98.458C470.439 98.8305 470.221 99.259 470.096 99.7178C469.97 100.176 469.936 100.656 470 101.127Z" fill="#222222"/>
<path d="M468.191 138.378C470.644 135.449 475.363 135.126 479.285 137.399L498.232 113.509C498.505 113.163 498.905 112.941 499.342 112.89C499.779 112.84 500.218 112.965 500.563 113.239C500.908 113.512 501.13 113.912 501.181 114.349C501.231 114.787 501.106 115.226 500.833 115.571L499.592 117.136L504.482 121.244C504.651 121.386 504.79 121.56 504.89 121.756C504.991 121.952 505.052 122.167 505.069 122.386C505.086 122.606 505.059 122.827 504.99 123.037C504.921 123.246 504.811 123.44 504.666 123.606L500.006 128.949C499.72 129.277 499.317 129.479 498.883 129.513C498.45 129.546 498.021 129.408 497.688 129.128L493.123 125.292L491.747 127.028L496.27 130.826C496.444 130.964 496.589 131.136 496.695 131.331C496.802 131.526 496.868 131.741 496.89 131.963C496.912 132.184 496.889 132.407 496.823 132.62C496.757 132.832 496.649 133.029 496.505 133.199C496.361 133.369 496.185 133.508 495.986 133.608C495.788 133.708 495.571 133.768 495.35 133.782C495.128 133.797 494.905 133.767 494.695 133.694C494.485 133.621 494.292 133.507 494.127 133.358L489.684 129.63L481.886 139.462C483.402 140.982 484.376 142.959 484.659 145.088C484.771 146.004 484.697 146.932 484.441 147.818C484.184 148.704 483.75 149.528 483.166 150.241C482.445 151.053 481.554 151.695 480.557 152.123C479.56 152.552 478.48 152.754 477.396 152.718C474.965 152.682 472.615 151.839 470.714 150.323C469.628 149.514 468.713 148.495 468.024 147.328C467.335 146.16 466.886 144.867 466.703 143.524C466.591 142.61 466.666 141.682 466.922 140.798C467.178 139.914 467.608 139.09 468.191 138.378ZM498.575 125.54L501.054 122.698L497.529 119.735L495.184 122.692L498.575 125.54ZM470 143.181C470.287 144.994 471.277 146.621 472.756 147.709C475.443 149.805 479.046 149.991 480.623 148.11C480.919 147.737 481.137 147.308 481.263 146.849C481.389 146.39 481.421 145.91 481.357 145.438C481.069 143.625 480.078 141.998 478.599 140.912C477.275 139.848 475.639 139.249 473.941 139.208C473.344 139.177 472.747 139.277 472.193 139.502C471.639 139.728 471.141 140.072 470.734 140.511C470.439 140.884 470.221 141.312 470.096 141.771C469.97 142.23 469.936 142.709 470 143.181Z" fill="#222222"/>
<path d="M430.763 89.5715L424.117 82.9315C423.804 82.637 423.389 82.4757 422.959 82.4816C422.529 82.4875 422.118 82.6602 421.813 82.9632C421.508 83.2663 421.333 83.676 421.323 84.1061C421.314 84.5361 421.472 84.953 421.764 85.2688L425.546 89.0536H397.546C397.107 89.0536 396.685 89.2285 396.374 89.5398C396.062 89.8511 395.888 90.2733 395.888 90.7136C395.888 91.1538 396.062 91.576 396.374 91.8874C396.685 92.1987 397.107 92.3736 397.546 92.3736H425.619L421.764 96.2248C421.453 96.5362 421.278 96.9585 421.278 97.3989C421.278 97.8393 421.453 98.2617 421.764 98.5731C422.075 98.8845 422.497 99.0595 422.937 99.0595C423.378 99.0595 423.8 98.8845 424.111 98.5731L430.757 91.9198C430.911 91.7657 431.033 91.5826 431.117 91.3812C431.2 91.1797 431.243 90.9637 431.243 90.7457C431.243 90.5276 431.2 90.3116 431.117 90.1102C431.033 89.9087 430.911 89.7256 430.757 89.5715H430.763Z" fill="#222222"/>
<path d="M430.763 131.625L424.117 124.985C423.804 124.69 423.389 124.529 422.959 124.535C422.529 124.541 422.118 124.713 421.813 125.016C421.508 125.319 421.333 125.729 421.323 126.159C421.314 126.589 421.472 127.006 421.764 127.322L425.546 131.107H397.546C397.107 131.107 396.685 131.282 396.374 131.593C396.062 131.904 395.888 132.327 395.888 132.767C395.888 133.207 396.062 133.629 396.374 133.941C396.685 134.252 397.107 134.427 397.546 134.427H425.619L421.764 138.278C421.453 138.589 421.278 139.012 421.278 139.452C421.278 139.893 421.453 140.315 421.764 140.626C422.075 140.938 422.497 141.113 422.937 141.113C423.378 141.113 423.8 140.938 424.111 140.626L430.757 133.973C430.911 133.819 431.033 133.636 431.117 133.434C431.2 133.233 431.243 133.017 431.243 132.799C431.243 132.581 431.2 132.365 431.117 132.163C431.033 131.962 430.911 131.779 430.757 131.625H430.763Z" fill="#222222"/>
<path d="M510.894 181.493H395.888C386.116 181.493 378.194 189.421 378.194 199.2V252.32C378.194 262.099 386.116 270.026 395.888 270.026H510.894C520.666 270.026 528.587 262.099 528.587 252.32V199.2C528.587 189.421 520.666 181.493 510.894 181.493Z" fill="#EFF1F5"/>
<path d="M510.894 182.046H395.887C386.421 182.046 378.747 189.726 378.747 199.2V252.32C378.747 261.793 386.421 269.473 395.887 269.473H510.894C520.36 269.473 528.034 261.793 528.034 252.32V199.2C528.034 189.726 520.36 182.046 510.894 182.046Z" stroke="#707070" stroke-width="0.5"/>
<path d="M424.896 244.573H408.308C407.868 244.573 407.446 244.398 407.135 244.087C406.824 243.775 406.649 243.353 406.649 242.913C406.649 242.473 406.824 242.05 407.135 241.739C407.446 241.428 407.868 241.253 408.308 241.253H424.896C425.336 241.253 425.757 241.428 426.069 241.739C426.38 242.05 426.554 242.473 426.554 242.913C426.554 243.353 426.38 243.775 426.069 244.087C425.757 244.398 425.336 244.573 424.896 244.573Z" fill="black"/>
<path d="M396.104 215.441C395.789 215.44 395.48 215.349 395.215 215.179C394.949 215.009 394.738 214.767 394.605 214.481C394.471 214.195 394.422 213.877 394.463 213.564C394.504 213.251 394.633 212.957 394.835 212.714L400.881 205.51C401.022 205.343 401.194 205.206 401.387 205.106C401.581 205.006 401.792 204.944 402.009 204.926C402.226 204.907 402.445 204.932 402.652 204.998C402.86 205.064 403.052 205.17 403.219 205.311C403.386 205.451 403.523 205.623 403.623 205.817C403.723 206.011 403.784 206.222 403.803 206.439C403.821 206.657 403.797 206.875 403.731 207.083C403.665 207.291 403.559 207.484 403.418 207.65L397.378 214.85C397.222 215.036 397.028 215.186 396.808 215.288C396.588 215.391 396.349 215.444 396.106 215.443L396.104 215.441Z" fill="black"/>
<path d="M417.8 233.465C417.485 233.463 417.177 233.372 416.911 233.202C416.646 233.032 416.434 232.79 416.301 232.504C416.168 232.218 416.119 231.9 416.159 231.588C416.2 231.275 416.329 230.98 416.531 230.738L422.573 223.531C422.856 223.194 423.261 222.983 423.7 222.945C424.138 222.907 424.574 223.044 424.911 223.327C425.248 223.611 425.459 224.016 425.497 224.455C425.535 224.894 425.397 225.33 425.114 225.667L419.072 232.882C418.917 233.068 418.722 233.218 418.502 233.321C418.282 233.423 418.043 233.476 417.8 233.476V233.465Z" fill="black"/>
<path d="M418.263 217.34L410.639 210.937C410.139 210.516 409.561 210.198 408.937 210.001C408.314 209.804 407.658 209.732 407.007 209.788C406.356 209.845 405.723 210.03 405.143 210.332C404.563 210.633 404.048 211.047 403.628 211.548L401.496 214.093C400.655 215.1 400.245 216.398 400.355 217.706C400.465 219.014 401.085 220.226 402.082 221.078C398.161 225.62 391.953 232.754 389.496 235.574L388.432 236.797C387.678 237.755 387.326 238.968 387.45 240.18C387.574 241.392 388.164 242.509 389.095 243.293C390.026 244.078 391.226 244.47 392.441 244.386C393.656 244.302 394.79 243.748 395.604 242.842L396.175 242.178C398.154 239.909 404.756 232.329 408.989 227.426C409.08 227.311 409.154 227.185 409.211 227.05L409.744 227.493C410.636 228.245 411.766 228.656 412.933 228.655C413.079 228.655 413.229 228.655 413.375 228.635C414.022 228.582 414.653 228.402 415.231 228.106C415.809 227.809 416.323 227.401 416.743 226.906L418.878 224.365C419.298 223.864 419.615 223.285 419.811 222.661C420.008 222.038 420.08 221.381 420.022 220.73C419.965 220.078 419.781 219.444 419.479 218.864C419.177 218.284 418.764 217.769 418.263 217.349V217.34ZM406.479 225.27C402.248 230.169 395.642 237.743 393.674 240.011L393.074 240.7C392.842 240.98 392.507 241.157 392.144 241.191C391.782 241.224 391.42 241.113 391.14 240.88C390.86 240.647 390.683 240.313 390.649 239.95C390.616 239.587 390.727 239.225 390.96 238.944L391.995 237.756C394.468 234.927 400.698 227.76 404.621 223.216L406.784 225.034C406.674 225.1 406.572 225.179 406.481 225.27H406.479ZM416.336 222.22L414.202 224.764C414.062 224.931 413.891 225.068 413.697 225.169C413.504 225.27 413.293 225.331 413.076 225.35C412.858 225.369 412.64 225.345 412.432 225.279C412.224 225.214 412.031 225.108 411.865 224.967L404.243 218.566C403.906 218.283 403.695 217.878 403.657 217.439C403.618 217 403.755 216.564 404.037 216.227L406.169 213.681C406.309 213.515 406.481 213.377 406.674 213.277C406.867 213.176 407.078 213.115 407.295 213.097C407.733 213.061 408.167 213.199 408.505 213.48L416.142 219.883C416.309 220.023 416.447 220.194 416.547 220.388C416.648 220.581 416.71 220.792 416.729 221.009C416.748 221.226 416.724 221.445 416.659 221.653C416.593 221.861 416.488 222.054 416.348 222.22H416.336Z" fill="black"/>
<path d="M470.521 244.573H453.933C453.493 244.573 453.071 244.398 452.76 244.087C452.449 243.775 452.274 243.353 452.274 242.913C452.274 242.473 452.449 242.05 452.76 241.739C453.071 241.428 453.493 241.253 453.933 241.253H470.521C470.961 241.253 471.382 241.428 471.694 241.739C472.005 242.05 472.179 242.473 472.179 242.913C472.179 243.353 472.005 243.775 471.694 244.087C471.382 244.398 470.961 244.573 470.521 244.573Z" fill="black"/>
<path d="M441.729 215.441C441.414 215.44 441.105 215.349 440.84 215.179C440.574 215.009 440.363 214.767 440.23 214.481C440.096 214.195 440.047 213.877 440.088 213.564C440.129 213.251 440.258 212.957 440.46 212.714L446.506 205.51C446.647 205.343 446.819 205.206 447.012 205.106C447.206 205.006 447.417 204.944 447.634 204.926C447.851 204.907 448.07 204.932 448.277 204.998C448.485 205.064 448.677 205.17 448.844 205.311C449.011 205.451 449.148 205.623 449.248 205.817C449.348 206.011 449.409 206.222 449.428 206.439C449.446 206.657 449.422 206.875 449.356 207.083C449.29 207.291 449.184 207.484 449.043 207.65L443.003 214.85C442.847 215.036 442.653 215.186 442.433 215.288C442.213 215.391 441.974 215.444 441.731 215.443L441.729 215.441Z" fill="black"/>
<path d="M463.425 233.465C463.11 233.463 462.802 233.372 462.536 233.202C462.271 233.032 462.059 232.79 461.926 232.504C461.793 232.218 461.744 231.9 461.784 231.588C461.825 231.275 461.954 230.98 462.156 230.738L468.198 223.531C468.481 223.194 468.886 222.983 469.325 222.945C469.763 222.907 470.199 223.044 470.536 223.327C470.873 223.611 471.084 224.016 471.122 224.455C471.16 224.894 471.022 225.33 470.739 225.667L464.697 232.882C464.542 233.068 464.347 233.218 464.127 233.321C463.907 233.423 463.668 233.476 463.425 233.476V233.465Z" fill="black"/>
<path d="M463.888 217.34L456.264 210.937C455.764 210.516 455.186 210.198 454.562 210.001C453.939 209.804 453.283 209.732 452.632 209.788C451.981 209.845 451.348 210.03 450.768 210.332C450.188 210.633 449.673 211.047 449.253 211.548L447.121 214.093C446.28 215.1 445.87 216.398 445.98 217.706C446.09 219.014 446.71 220.226 447.707 221.078C443.786 225.62 437.578 232.754 435.121 235.574L434.057 236.797C433.303 237.755 432.951 238.968 433.075 240.18C433.199 241.392 433.789 242.509 434.72 243.293C435.651 244.078 436.851 244.47 438.066 244.386C439.281 244.302 440.415 243.748 441.229 242.842L441.8 242.178C443.779 239.909 450.381 232.329 454.614 227.426C454.705 227.311 454.779 227.185 454.836 227.05L455.369 227.493C456.261 228.245 457.391 228.656 458.558 228.655C458.704 228.655 458.854 228.655 459 228.635C459.647 228.582 460.278 228.402 460.856 228.106C461.434 227.809 461.948 227.401 462.368 226.906L464.503 224.365C464.923 223.864 465.24 223.285 465.436 222.661C465.633 222.038 465.705 221.381 465.647 220.73C465.59 220.078 465.406 219.444 465.104 218.864C464.802 218.284 464.389 217.769 463.888 217.349V217.34ZM452.104 225.27C447.873 230.169 441.267 237.743 439.299 240.011L438.699 240.7C438.467 240.98 438.132 241.157 437.769 241.191C437.407 241.224 437.045 241.113 436.765 240.88C436.485 240.647 436.308 240.313 436.274 239.95C436.241 239.587 436.352 239.225 436.585 238.944L437.62 237.756C440.093 234.927 446.323 227.76 450.246 223.216L452.409 225.034C452.299 225.1 452.197 225.179 452.106 225.27H452.104ZM461.961 222.22L459.827 224.764C459.687 224.931 459.516 225.068 459.322 225.169C459.129 225.27 458.918 225.331 458.701 225.35C458.483 225.369 458.265 225.345 458.057 225.279C457.849 225.214 457.656 225.108 457.49 224.967L449.868 218.566C449.531 218.283 449.32 217.878 449.282 217.439C449.243 217 449.38 216.564 449.662 216.227L451.794 213.681C451.934 213.515 452.106 213.377 452.299 213.277C452.492 213.176 452.703 213.115 452.92 213.097C453.358 213.061 453.792 213.199 454.13 213.48L461.767 219.883C461.934 220.023 462.072 220.194 462.172 220.388C462.273 220.581 462.335 220.792 462.354 221.009C462.373 221.226 462.349 221.445 462.284 221.653C462.218 221.861 462.113 222.054 461.973 222.22H461.961Z" fill="black"/>
<path d="M514.753 244.573H498.166C497.726 244.573 497.304 244.398 496.993 244.087C496.682 243.775 496.507 243.353 496.507 242.913C496.507 242.473 496.682 242.05 496.993 241.739C497.304 241.428 497.726 241.253 498.166 241.253H514.753C515.193 241.253 515.615 241.428 515.926 241.739C516.237 242.05 516.412 242.473 516.412 242.913C516.412 243.353 516.237 243.775 515.926 244.087C515.615 244.398 515.193 244.573 514.753 244.573Z" fill="black"/>
<path d="M485.962 215.441C485.646 215.44 485.338 215.349 485.072 215.179C484.807 215.009 484.595 214.767 484.462 214.481C484.329 214.195 484.28 213.877 484.321 213.564C484.361 213.251 484.49 212.957 484.692 212.714L490.739 205.51C490.879 205.343 491.051 205.206 491.244 205.106C491.438 205.006 491.649 204.944 491.866 204.926C492.083 204.907 492.302 204.932 492.51 204.998C492.717 205.064 492.91 205.17 493.076 205.311C493.243 205.451 493.38 205.623 493.48 205.817C493.581 206.011 493.642 206.222 493.66 206.439C493.679 206.657 493.654 206.875 493.588 207.083C493.522 207.291 493.416 207.484 493.275 207.65L487.235 214.85C487.08 215.036 486.885 215.186 486.665 215.288C486.446 215.391 486.206 215.444 485.964 215.443L485.962 215.441Z" fill="black"/>
<path d="M507.658 233.465C507.343 233.463 507.034 233.372 506.769 233.202C506.503 233.032 506.291 232.79 506.158 232.504C506.025 232.218 505.976 231.9 506.017 231.588C506.058 231.275 506.186 230.98 506.388 230.738L512.431 223.531C512.714 223.194 513.119 222.983 513.557 222.945C513.996 222.907 514.431 223.044 514.768 223.327C515.105 223.611 515.316 224.016 515.354 224.455C515.392 224.894 515.255 225.33 514.972 225.667L508.93 232.882C508.774 233.068 508.579 233.218 508.36 233.321C508.14 233.423 507.9 233.476 507.658 233.476V233.465Z" fill="black"/>
<path d="M508.12 217.34L500.497 210.937C499.996 210.516 499.418 210.198 498.795 210.001C498.172 209.804 497.516 209.732 496.865 209.788C496.214 209.845 495.58 210.03 495 210.332C494.42 210.633 493.906 211.047 493.486 211.548L491.354 214.093C490.513 215.1 490.103 216.398 490.212 217.706C490.322 219.014 490.943 220.226 491.94 221.078C488.018 225.62 481.81 232.754 479.353 235.574L478.289 236.797C477.536 237.755 477.184 238.968 477.308 240.18C477.431 241.392 478.021 242.509 478.953 243.293C479.884 244.078 481.084 244.47 482.298 244.386C483.513 244.302 484.647 243.748 485.462 242.842L486.032 242.178C488.012 239.909 494.614 232.329 498.847 227.426C498.937 227.311 499.012 227.185 499.068 227.05L499.601 227.493C500.493 228.245 501.623 228.656 502.79 228.655C502.936 228.655 503.087 228.655 503.232 228.635C503.88 228.582 504.511 228.402 505.088 228.106C505.666 227.809 506.18 227.401 506.601 226.906L508.735 224.365C509.155 223.864 509.472 223.285 509.669 222.661C509.865 222.038 509.937 221.381 509.88 220.73C509.823 220.078 509.638 219.444 509.336 218.864C509.034 218.284 508.621 217.769 508.12 217.349V217.34ZM496.337 225.27C492.106 230.169 485.499 237.743 483.531 240.011L482.932 240.7C482.699 240.98 482.365 241.157 482.002 241.191C481.639 241.224 481.278 241.113 480.998 240.88C480.717 240.647 480.541 240.313 480.507 239.95C480.473 239.587 480.585 239.225 480.817 238.944L481.852 237.756C484.325 234.927 490.555 227.76 494.479 223.216L496.642 225.034C496.531 225.1 496.43 225.179 496.339 225.27H496.337ZM506.194 222.22L504.06 224.764C503.92 224.931 503.748 225.068 503.555 225.169C503.361 225.27 503.15 225.331 502.933 225.35C502.716 225.369 502.497 225.345 502.289 225.279C502.082 225.214 501.889 225.108 501.722 224.967L494.101 218.566C493.764 218.283 493.553 217.878 493.514 217.439C493.476 217 493.613 216.564 493.895 216.227L496.027 213.681C496.167 213.515 496.338 213.377 496.531 213.277C496.725 213.176 496.936 213.115 497.153 213.097C497.59 213.061 498.025 213.199 498.362 213.48L505.999 219.883C506.166 220.023 506.304 220.194 506.405 220.388C506.506 220.581 506.567 220.792 506.586 221.009C506.605 221.226 506.582 221.445 506.516 221.653C506.451 221.861 506.345 222.054 506.205 222.22H506.194Z" fill="black"/>
<path d="M347.783 208.053H351.101C352.42 208.052 353.685 207.526 354.618 206.593C355.55 205.659 356.075 204.394 356.077 203.073V199.753C356.075 198.433 355.55 197.168 354.618 196.234C353.685 195.3 352.42 194.775 351.101 194.773H347.783C346.47 194.775 345.211 195.294 344.279 196.22C343.347 197.146 342.818 198.402 342.807 199.716H333.96C333.949 198.402 333.42 197.146 332.488 196.22C331.556 195.294 330.297 194.775 328.984 194.773H325.667C324.347 194.775 323.083 195.3 322.15 196.234C321.217 197.168 320.692 198.433 320.69 199.753V203.073C320.694 204.295 321.147 205.472 321.963 206.381C322.779 207.289 323.901 207.865 325.114 207.998V220.227C325.116 221.547 325.64 222.813 326.573 223.746C327.506 224.68 328.771 225.205 330.09 225.207H342.807C342.809 226.527 343.334 227.793 344.267 228.726C345.199 229.66 346.464 230.185 347.783 230.187H351.101C352.42 230.185 353.685 229.66 354.618 228.726C355.55 227.793 356.075 226.527 356.077 225.207V221.887C356.075 220.567 355.55 219.301 354.618 218.367C353.685 217.434 352.42 216.909 351.101 216.907H347.783C346.464 216.909 345.199 217.434 344.267 218.367C343.334 219.301 342.809 220.567 342.807 221.887H330.09C329.65 221.886 329.229 221.711 328.918 221.4C328.607 221.089 328.432 220.667 328.431 220.227V208.053H328.984C330.303 208.052 331.568 207.526 332.501 206.593C333.434 205.659 333.959 204.394 333.96 203.073V203.036H342.807V203.073C342.809 204.394 343.334 205.659 344.267 206.593C345.199 207.526 346.464 208.052 347.783 208.053ZM346.125 221.887C346.125 221.447 346.3 221.025 346.611 220.714C346.922 220.402 347.344 220.227 347.783 220.227H351.101C351.541 220.227 351.962 220.402 352.273 220.714C352.584 221.025 352.759 221.447 352.76 221.887V225.207C352.759 225.647 352.584 226.069 352.273 226.38C351.962 226.691 351.541 226.866 351.101 226.867H347.783C347.344 226.866 346.922 226.691 346.611 226.38C346.3 226.069 346.125 225.647 346.125 225.207V221.887ZM346.125 199.753C346.125 199.313 346.3 198.891 346.611 198.58C346.922 198.269 347.344 198.094 347.783 198.093H351.101C351.541 198.094 351.962 198.269 352.273 198.58C352.584 198.891 352.759 199.313 352.76 199.753V203.073C352.759 203.514 352.584 203.935 352.273 204.247C351.962 204.558 351.541 204.733 351.101 204.733H347.783C347.344 204.733 346.922 204.558 346.611 204.247C346.3 203.935 346.125 203.514 346.125 203.073V199.753ZM330.643 203.073C330.642 203.514 330.467 203.935 330.156 204.247C329.845 204.558 329.424 204.733 328.984 204.733H325.667C325.227 204.733 324.805 204.558 324.494 204.247C324.183 203.935 324.009 203.514 324.008 203.073V199.753C324.009 199.313 324.183 198.891 324.494 198.58C324.805 198.269 325.227 198.094 325.667 198.093H328.984C329.424 198.094 329.845 198.269 330.156 198.58C330.467 198.891 330.642 199.313 330.643 199.753V203.073Z" fill="#222222"/>
<path opacity="0.2" d="M322.35 199.754V203.074C322.35 204.907 323.835 206.394 325.667 206.394H328.985C330.817 206.394 332.302 204.907 332.302 203.074V199.754C332.302 197.92 330.817 196.434 328.985 196.434H325.667C323.835 196.434 322.35 197.92 322.35 199.754Z" fill="#222222"/>
<path d="M359.395 234.613H321.797C315.689 234.613 310.738 239.568 310.738 245.68C310.738 251.792 315.689 256.747 321.797 256.747H359.395C365.502 256.747 370.453 251.792 370.453 245.68C370.453 239.568 365.502 234.613 359.395 234.613Z" fill="#EFF1F5"/>
<path d="M322.024 245.37C323.246 245.37 324.236 244.379 324.236 243.157C324.236 241.934 323.246 240.943 322.024 240.943C320.803 240.943 319.812 241.934 319.812 243.157C319.812 244.379 320.803 245.37 322.024 245.37Z" fill="black"/>
<path d="M332.472 239.04H313.706C313.571 239.03 313.436 239.073 313.333 239.162C313.229 239.25 313.165 239.376 313.153 239.512V251.756C313.165 251.891 313.229 252.017 313.333 252.105C313.436 252.194 313.571 252.238 313.706 252.227H332.472C332.608 252.238 332.742 252.194 332.846 252.105C332.949 252.017 333.014 251.891 333.025 251.756V239.512C333.014 239.376 332.949 239.25 332.846 239.162C332.742 239.073 332.608 239.03 332.472 239.04ZM315.365 240.924H324.192V246.9C323.591 246.604 322.94 246.424 322.272 246.371C321.359 246.371 320.945 247.406 320.036 247.406C319.127 247.406 318.415 245.357 317.504 245.357C316.674 245.357 315.361 247.431 315.361 247.431L315.365 240.924ZM330.816 250.344H315.365V249.401H330.816V250.344ZM330.816 247.517H326.392V246.565H330.816V247.517ZM330.816 244.691H326.392V243.75H330.816V244.691ZM330.816 241.864H326.392V240.924H330.816V241.864Z" fill="black"/>
<path d="M340.649 251.855C340.646 251.913 340.655 251.972 340.674 252.027C340.694 252.082 340.724 252.132 340.764 252.175C340.803 252.219 340.85 252.254 340.903 252.278C340.956 252.303 341.013 252.317 341.071 252.32H341.916C341.975 252.317 342.032 252.303 342.085 252.278C342.138 252.254 342.185 252.219 342.224 252.175C342.263 252.132 342.294 252.082 342.313 252.027C342.333 251.972 342.342 251.913 342.339 251.855V247.681H340.649V251.855Z" fill="black"/>
<path d="M346.384 241.718C346.281 241.719 346.178 241.725 346.076 241.738C346.248 241.077 346.249 240.382 346.078 239.72C345.908 239.059 345.571 238.451 345.101 237.956C344.66 237.49 344.091 237.167 343.465 237.027C342.84 236.888 342.187 236.938 341.591 237.172C340.977 237.435 340.445 237.857 340.05 238.396C339.656 238.935 339.413 239.57 339.348 240.235C338.852 240.093 338.325 240.094 337.829 240.24C337.334 240.385 336.889 240.668 336.548 241.057C336.183 241.469 335.924 241.964 335.793 242.5C335.662 243.035 335.663 243.594 335.796 244.129C335.493 244.076 335.18 244.113 334.898 244.237C334.616 244.361 334.377 244.566 334.211 244.826C334.03 245.099 333.922 245.414 333.897 245.741C333.871 246.068 333.929 246.396 334.065 246.694C334.187 246.98 334.389 247.226 334.646 247.4C334.904 247.575 335.207 247.672 335.518 247.679H340.649V244.899H338.831C338.789 244.898 338.749 244.888 338.711 244.871C338.673 244.854 338.639 244.83 338.611 244.8C338.583 244.769 338.561 244.734 338.547 244.695C338.532 244.656 338.526 244.615 338.528 244.574C338.529 244.491 338.561 244.413 338.616 244.352L341.356 241.709C341.393 241.674 341.442 241.654 341.494 241.654C341.545 241.654 341.594 241.674 341.631 241.709L344.362 244.346C344.418 244.406 344.449 244.485 344.451 244.567C344.454 244.649 344.425 244.73 344.369 244.791C344.314 244.852 344.237 244.888 344.154 244.892H342.338V247.681H346.384C347.138 247.644 347.847 247.31 348.356 246.751C348.865 246.193 349.133 245.455 349.099 244.7C349.133 243.944 348.865 243.207 348.356 242.648C347.847 242.089 347.138 241.755 346.384 241.718Z" fill="black"/>
<path d="M366.505 248.56H365.399C365.26 248.551 365.124 248.598 365.02 248.689C364.915 248.781 364.851 248.91 364.842 249.049V251.483H351.479V249.049C351.469 248.91 351.405 248.782 351.302 248.69C351.198 248.599 351.062 248.552 350.924 248.56H349.818C349.749 248.554 349.679 248.563 349.613 248.585C349.548 248.607 349.487 248.641 349.434 248.687C349.382 248.732 349.339 248.788 349.308 248.85C349.277 248.912 349.259 248.979 349.254 249.049V252.96C349.264 253.098 349.328 253.227 349.432 253.319C349.536 253.411 349.673 253.457 349.811 253.449H366.505C366.643 253.457 366.78 253.411 366.884 253.319C366.989 253.227 367.053 253.098 367.062 252.96V249.049C367.053 248.91 366.989 248.781 366.884 248.689C366.78 248.598 366.643 248.551 366.505 248.56Z" fill="black"/>
<path d="M357.959 249.956C358.014 250.001 358.083 250.025 358.154 250.025C358.225 250.025 358.294 250.001 358.349 249.956L362.495 246.277C362.53 246.244 362.558 246.204 362.577 246.16C362.596 246.116 362.606 246.069 362.606 246.021C362.599 245.91 362.548 245.807 362.465 245.734C362.382 245.66 362.274 245.623 362.164 245.629H359.269V238.294C359.259 238.155 359.195 238.026 359.091 237.934C358.986 237.843 358.85 237.796 358.711 237.805H357.605C357.467 237.796 357.331 237.843 357.226 237.934C357.122 238.026 357.058 238.155 357.048 238.294V245.627H354.146C354.036 245.621 353.928 245.658 353.845 245.732C353.762 245.805 353.712 245.908 353.704 246.018C353.704 246.066 353.714 246.114 353.733 246.158C353.752 246.202 353.78 246.242 353.815 246.275L357.959 249.956Z" fill="black"/>
<path d="M951.015 44.2666H747.542C737.77 44.2666 729.849 52.1941 729.849 61.9733V267.813C729.849 277.592 737.77 285.52 747.542 285.52H951.015C960.787 285.52 968.708 277.592 968.708 267.813V61.9733C968.708 52.1941 960.787 44.2666 951.015 44.2666Z" fill="#EFF1F5"/>
<path d="M951.015 44.8198H747.542C738.075 44.8198 730.401 52.4996 730.401 61.9732V267.813C730.401 277.287 738.075 284.966 747.542 284.966H951.015C960.481 284.966 968.155 277.287 968.155 267.813V61.9732C968.155 52.4996 960.481 44.8198 951.015 44.8198Z" stroke="#707070" stroke-width="0.5"/>
<path d="M942.168 57.5464H756.389C746.617 57.5464 738.695 65.4739 738.695 75.2531V157.146C738.695 166.926 746.617 174.853 756.389 174.853H942.168C951.94 174.853 959.862 166.926 959.862 157.146V75.2531C959.862 65.4739 951.94 57.5464 942.168 57.5464Z" fill="#EFF1F5"/>
<path d="M942.168 58.0996H756.388C746.922 58.0996 739.248 65.7794 739.248 75.2529V157.146C739.248 166.62 746.922 174.3 756.388 174.3H942.168C951.635 174.3 959.309 166.62 959.309 157.146V75.2529C959.309 65.7794 951.635 58.0996 942.168 58.0996Z" stroke="#707070" stroke-width="0.5"/>
<path d="M787.352 181.493H756.389C746.617 181.493 738.695 189.421 738.695 199.2V252.32C738.695 262.099 746.617 270.026 756.389 270.026H787.352C797.124 270.026 805.045 262.099 805.045 252.32V199.2C805.045 189.421 797.124 181.493 787.352 181.493Z" fill="#EFF1F5"/>
<path d="M787.352 182.046H756.388C746.922 182.046 739.248 189.726 739.248 199.2V252.32C739.248 261.793 746.922 269.473 756.388 269.473H787.352C796.818 269.473 804.492 261.793 804.492 252.32V199.2C804.492 189.726 796.818 182.046 787.352 182.046Z" stroke="#707070" stroke-width="0.5"/>
<path d="M787.916 79.6801C787.916 74.9569 779.016 72.4868 770.223 72.4868C761.429 72.4868 752.529 74.9569 752.529 79.6801C752.537 79.8286 752.554 79.9765 752.58 80.1228C752.557 80.2032 752.54 80.2854 752.529 80.3685V102.367C752.529 106.931 761.701 109.007 770.223 109.007C778.744 109.007 787.916 106.931 787.916 102.367V80.3685C787.906 80.2824 787.889 80.1973 787.865 80.114C787.891 79.9705 787.908 79.8257 787.916 79.6801ZM784.598 91.2891C784.395 92.2076 779.671 94.6202 770.223 94.6202C760.774 94.6202 756.046 92.2054 755.847 91.3002V84.0493C760.359 86.0817 765.278 87.048 770.223 86.8735C775.168 87.0482 780.086 86.0819 784.598 84.0493V91.2891ZM770.223 75.8068C779.708 75.8068 784.598 78.5226 784.598 79.6801C784.598 80.8377 779.708 83.5535 770.223 83.5535C760.737 83.5535 755.847 80.8377 755.847 79.6801C755.847 78.5226 760.737 75.8068 770.223 75.8068ZM770.223 105.687C760.772 105.687 756.046 103.272 755.847 102.367V95.386C760.406 97.2401 765.304 98.1105 770.223 97.9402C775.141 98.1106 780.039 97.2402 784.598 95.386V102.354C784.397 103.272 779.671 105.687 770.223 105.687Z" fill="black"/>
<path d="M787.916 121.733C787.916 117.01 779.016 114.54 770.223 114.54C761.429 114.54 752.529 117.01 752.529 121.733C752.537 121.882 752.554 122.03 752.58 122.176C752.557 122.256 752.54 122.339 752.529 122.422V144.42C752.529 148.984 761.701 151.06 770.223 151.06C778.744 151.06 787.916 148.984 787.916 144.42V122.422C787.906 122.336 787.889 122.25 787.865 122.167C787.891 122.024 787.908 121.879 787.916 121.733ZM784.598 133.342C784.395 134.261 779.671 136.673 770.223 136.673C760.774 136.673 756.046 134.259 755.847 133.353V126.102C760.359 128.135 765.278 129.101 770.223 128.927C775.168 129.101 780.086 128.135 784.598 126.102V133.342ZM770.223 117.86C779.708 117.86 784.598 120.576 784.598 121.733C784.598 122.891 779.708 125.607 770.223 125.607C760.737 125.607 755.847 122.891 755.847 121.733C755.847 120.576 760.737 117.86 770.223 117.86ZM770.223 147.74C760.772 147.74 756.046 145.325 755.847 144.42V137.439C760.406 139.293 765.304 140.164 770.223 139.993C775.141 140.164 780.039 139.293 784.598 137.439V144.407C784.397 145.325 779.671 147.74 770.223 147.74Z" fill="black"/>
<path d="M899.465 96.3244C901.918 93.3961 906.638 93.073 910.559 95.3461L929.506 71.4554C929.78 71.1102 930.179 70.8878 930.616 70.8372C931.053 70.7866 931.493 70.9118 931.838 71.1853C932.182 71.4589 932.405 71.8583 932.455 72.2958C932.506 72.7333 932.381 73.173 932.107 73.5182L930.867 75.083L935.757 79.191C935.925 79.3328 936.064 79.5069 936.165 79.703C936.266 79.8991 936.326 80.1134 936.343 80.3332C936.36 80.5531 936.334 80.7742 936.264 80.9835C936.195 81.1929 936.085 81.3863 935.94 81.5526L931.28 86.8956C930.994 87.2235 930.591 87.426 930.158 87.4595C929.724 87.4931 929.295 87.3549 928.962 87.0748L924.397 83.2391L923.022 84.9744L927.545 88.7725C927.719 88.9108 927.863 89.0827 927.97 89.278C928.076 89.4733 928.142 89.688 928.164 89.9094C928.186 90.1307 928.163 90.3543 928.097 90.5667C928.031 90.7791 927.923 90.976 927.779 91.1457C927.636 91.3155 927.459 91.4546 927.261 91.5548C927.062 91.6551 926.846 91.7143 926.624 91.7291C926.402 91.744 926.18 91.714 925.97 91.6411C925.76 91.5681 925.567 91.4537 925.402 91.3045L920.958 87.5773L913.16 97.4089C914.676 98.929 915.651 100.906 915.933 103.035C916.046 103.95 915.972 104.879 915.715 105.765C915.458 106.65 915.025 107.475 914.441 108.188C913.72 108.999 912.829 109.642 911.831 110.07C910.834 110.498 909.755 110.701 908.67 110.665C906.24 110.629 903.89 109.786 901.989 108.27C900.902 107.46 899.987 106.442 899.298 105.275C898.61 104.107 898.16 102.814 897.977 101.47C897.865 100.556 897.94 99.6292 898.196 98.7448C898.452 97.8604 898.883 97.037 899.465 96.3244ZM929.849 83.487L932.328 80.6451L928.803 77.6815L926.459 80.6385L929.849 83.487ZM901.275 101.127C901.562 102.941 902.552 104.568 904.03 105.656C906.717 107.752 910.32 107.938 911.897 106.056C912.193 105.684 912.411 105.255 912.537 104.796C912.664 104.337 912.696 103.857 912.631 103.385C912.343 101.572 911.352 99.9453 909.873 98.8586C908.55 97.7947 906.913 97.1959 905.216 97.1544C904.618 97.1233 904.022 97.224 903.467 97.4493C902.913 97.6745 902.415 98.0189 902.009 98.458C901.713 98.8305 901.496 99.259 901.37 99.7178C901.244 100.176 901.21 100.656 901.275 101.127Z" fill="#222222"/>
<path d="M899.465 138.378C901.918 135.449 906.638 135.126 910.559 137.399L929.506 113.509C929.78 113.163 930.179 112.941 930.616 112.89C931.053 112.84 931.493 112.965 931.838 113.239C932.182 113.512 932.405 113.912 932.455 114.349C932.506 114.787 932.381 115.226 932.107 115.571L930.867 117.136L935.757 121.244C935.925 121.386 936.064 121.56 936.165 121.756C936.266 121.952 936.326 122.167 936.343 122.386C936.36 122.606 936.334 122.827 936.264 123.037C936.195 123.246 936.085 123.44 935.94 123.606L931.28 128.949C930.994 129.277 930.591 129.479 930.158 129.513C929.724 129.546 929.295 129.408 928.962 129.128L924.397 125.292L923.022 127.028L927.545 130.826C927.719 130.964 927.863 131.136 927.97 131.331C928.076 131.526 928.142 131.741 928.164 131.963C928.186 132.184 928.163 132.407 928.097 132.62C928.031 132.832 927.923 133.029 927.779 133.199C927.636 133.369 927.459 133.508 927.261 133.608C927.062 133.708 926.846 133.768 926.624 133.782C926.402 133.797 926.18 133.767 925.97 133.694C925.76 133.621 925.567 133.507 925.402 133.358L920.958 129.63L913.16 139.462C914.676 140.982 915.651 142.959 915.933 145.088C916.046 146.004 915.972 146.932 915.715 147.818C915.458 148.704 915.025 149.528 914.441 150.241C913.72 151.053 912.829 151.695 911.831 152.123C910.834 152.552 909.755 152.754 908.67 152.718C906.24 152.682 903.89 151.839 901.989 150.323C900.902 149.514 899.987 148.495 899.298 147.328C898.61 146.16 898.16 144.867 897.977 143.524C897.865 142.61 897.94 141.682 898.196 140.798C898.452 139.914 898.883 139.09 899.465 138.378ZM929.849 125.54L932.328 122.698L928.803 119.735L926.459 122.692L929.849 125.54ZM901.275 143.181C901.562 144.994 902.552 146.621 904.03 147.709C906.717 149.805 910.32 149.991 911.897 148.11C912.193 147.737 912.411 147.308 912.537 146.849C912.664 146.39 912.696 145.91 912.631 145.438C912.343 143.625 911.352 141.998 909.873 140.912C908.55 139.848 906.913 139.249 905.216 139.208C904.618 139.177 904.022 139.277 903.467 139.502C902.913 139.728 902.415 140.072 902.009 140.511C901.713 140.884 901.496 141.312 901.37 141.771C901.244 142.23 901.21 142.709 901.275 143.181Z" fill="#222222"/>
<path d="M862.038 89.5715L855.392 82.9315C855.078 82.637 854.663 82.4757 854.233 82.4816C853.804 82.4875 853.393 82.6602 853.088 82.9632C852.783 83.2663 852.607 83.676 852.598 84.1061C852.589 84.5361 852.747 84.953 853.039 85.2688L856.821 89.0536H828.821C828.381 89.0536 827.959 89.2285 827.648 89.5398C827.337 89.8511 827.162 90.2733 827.162 90.7136C827.162 91.1538 827.337 91.576 827.648 91.8874C827.959 92.1987 828.381 92.3736 828.821 92.3736H856.893L853.039 96.2248C852.727 96.5362 852.553 96.9585 852.553 97.3989C852.553 97.8393 852.727 98.2617 853.039 98.5731C853.35 98.8845 853.772 99.0595 854.212 99.0595C854.652 99.0595 855.074 98.8845 855.385 98.5731L862.031 91.9198C862.185 91.7657 862.308 91.5826 862.391 91.3812C862.474 91.1797 862.517 90.9637 862.517 90.7457C862.517 90.5276 862.474 90.3116 862.391 90.1102C862.308 89.9087 862.185 89.7256 862.031 89.5715H862.038Z" fill="#222222"/>
<path d="M862.038 131.625L855.392 124.985C855.078 124.69 854.663 124.529 854.233 124.535C853.804 124.541 853.393 124.713 853.088 125.016C852.783 125.319 852.607 125.729 852.598 126.159C852.589 126.589 852.747 127.006 853.039 127.322L856.821 131.107H828.821C828.381 131.107 827.959 131.282 827.648 131.593C827.337 131.904 827.162 132.327 827.162 132.767C827.162 133.207 827.337 133.629 827.648 133.941C827.959 134.252 828.381 134.427 828.821 134.427H856.893L853.039 138.278C852.727 138.589 852.553 139.012 852.553 139.452C852.553 139.893 852.727 140.315 853.039 140.626C853.35 140.938 853.772 141.113 854.212 141.113C854.652 141.113 855.074 140.938 855.385 140.626L862.031 133.973C862.185 133.819 862.308 133.636 862.391 133.434C862.474 133.233 862.517 133.017 862.517 132.799C862.517 132.581 862.474 132.365 862.391 132.163C862.308 131.962 862.185 131.779 862.031 131.625H862.038Z" fill="#222222"/>
<path d="M942.169 181.493H827.162C817.39 181.493 809.469 189.421 809.469 199.2V252.32C809.469 262.099 817.39 270.026 827.162 270.026H942.169C951.94 270.026 959.862 262.099 959.862 252.32V199.2C959.862 189.421 951.94 181.493 942.169 181.493Z" fill="#EFF1F5"/>
<path d="M942.168 182.046H827.162C817.695 182.046 810.021 189.726 810.021 199.2V252.32C810.021 261.793 817.695 269.473 827.162 269.473H942.168C951.635 269.473 959.309 261.793 959.309 252.32V199.2C959.309 189.726 951.635 182.046 942.168 182.046Z" stroke="#707070" stroke-width="0.5"/>
<path d="M856.17 244.573H839.583C839.143 244.573 838.721 244.398 838.41 244.087C838.099 243.775 837.924 243.353 837.924 242.913C837.924 242.473 838.099 242.05 838.41 241.739C838.721 241.428 839.143 241.253 839.583 241.253H856.17C856.61 241.253 857.032 241.428 857.343 241.739C857.654 242.05 857.829 242.473 857.829 242.913C857.829 243.353 857.654 243.775 857.343 244.087C857.032 244.398 856.61 244.573 856.17 244.573Z" fill="black"/>
<path d="M827.379 215.441C827.063 215.44 826.755 215.349 826.489 215.179C826.224 215.009 826.012 214.767 825.879 214.481C825.746 214.195 825.697 213.877 825.738 213.564C825.778 213.251 825.907 212.957 826.109 212.714L832.156 205.51C832.296 205.343 832.468 205.206 832.661 205.106C832.855 205.006 833.066 204.944 833.283 204.926C833.5 204.907 833.719 204.932 833.927 204.998C834.134 205.064 834.327 205.17 834.493 205.311C834.66 205.451 834.797 205.623 834.897 205.817C834.998 206.011 835.059 206.222 835.077 206.439C835.096 206.657 835.071 206.875 835.005 207.083C834.939 207.291 834.833 207.484 834.692 207.65L828.652 214.85C828.497 215.036 828.302 215.186 828.082 215.288C827.863 215.391 827.623 215.444 827.381 215.443L827.379 215.441Z" fill="black"/>
<path d="M849.075 233.465C848.76 233.463 848.451 233.372 848.186 233.202C847.92 233.032 847.708 232.79 847.575 232.504C847.442 232.218 847.393 231.9 847.434 231.588C847.475 231.275 847.603 230.98 847.805 230.738L853.848 223.531C854.131 223.194 854.536 222.983 854.974 222.945C855.413 222.907 855.848 223.044 856.185 223.327C856.522 223.611 856.733 224.016 856.771 224.455C856.809 224.894 856.672 225.33 856.389 225.667L850.347 232.882C850.191 233.068 849.996 233.218 849.777 233.321C849.557 233.423 849.317 233.476 849.075 233.476V233.465Z" fill="black"/>
<path d="M849.537 217.34L841.914 210.937C841.413 210.516 840.835 210.198 840.212 210.001C839.589 209.804 838.933 209.732 838.282 209.788C837.631 209.845 836.997 210.03 836.417 210.332C835.837 210.633 835.323 211.047 834.903 211.548L832.771 214.093C831.93 215.1 831.52 216.398 831.629 217.706C831.739 219.014 832.36 220.226 833.357 221.078C829.435 225.62 823.227 232.754 820.77 235.574L819.706 236.797C818.953 237.755 818.601 238.968 818.724 240.18C818.848 241.392 819.438 242.509 820.37 243.293C821.301 244.078 822.501 244.47 823.715 244.386C824.93 244.302 826.064 243.748 826.879 242.842L827.449 242.178C829.429 239.909 836.031 232.329 840.264 227.426C840.354 227.311 840.429 227.185 840.485 227.05L841.018 227.493C841.91 228.245 843.04 228.656 844.207 228.655C844.353 228.655 844.504 228.655 844.649 228.635C845.297 228.582 845.928 228.402 846.505 228.106C847.083 227.809 847.597 227.401 848.018 226.906L850.152 224.365C850.572 223.864 850.889 223.285 851.086 222.661C851.282 222.038 851.354 221.381 851.297 220.73C851.24 220.078 851.055 219.444 850.753 218.864C850.451 218.284 850.038 217.769 849.537 217.349V217.34ZM837.754 225.27C833.523 230.169 826.916 237.743 824.948 240.011L824.349 240.7C824.116 240.98 823.782 241.157 823.419 241.191C823.056 241.224 822.695 241.113 822.415 240.88C822.134 240.647 821.958 240.313 821.924 239.95C821.89 239.587 822.002 239.225 822.234 238.944L823.269 237.756C825.742 234.927 831.972 227.76 835.896 223.216L838.059 225.034C837.948 225.1 837.847 225.179 837.756 225.27H837.754ZM847.611 222.22L845.477 224.764C845.337 224.931 845.165 225.068 844.972 225.169C844.778 225.27 844.567 225.331 844.35 225.35C844.133 225.369 843.914 225.345 843.706 225.279C843.499 225.214 843.306 225.108 843.139 224.967L835.518 218.566C835.181 218.283 834.97 217.878 834.931 217.439C834.893 217 835.03 216.564 835.312 216.227L837.444 213.681C837.584 213.515 837.755 213.377 837.948 213.277C838.142 213.176 838.353 213.115 838.57 213.097C839.007 213.061 839.442 213.199 839.779 213.48L847.416 219.883C847.583 220.023 847.721 220.194 847.822 220.388C847.923 220.581 847.984 220.792 848.003 221.009C848.022 221.226 847.999 221.445 847.933 221.653C847.868 221.861 847.762 222.054 847.622 222.22H847.611Z" fill="black"/>
<path d="M901.795 244.573H885.208C884.768 244.573 884.346 244.398 884.035 244.087C883.724 243.775 883.549 243.353 883.549 242.913C883.549 242.473 883.724 242.05 884.035 241.739C884.346 241.428 884.768 241.253 885.208 241.253H901.795C902.235 241.253 902.657 241.428 902.968 241.739C903.279 242.05 903.454 242.473 903.454 242.913C903.454 243.353 903.279 243.775 902.968 244.087C902.657 244.398 902.235 244.573 901.795 244.573Z" fill="black"/>
<path d="M873.004 215.441C872.688 215.44 872.38 215.349 872.114 215.179C871.849 215.009 871.637 214.767 871.504 214.481C871.371 214.195 871.322 213.877 871.363 213.564C871.403 213.251 871.532 212.957 871.734 212.714L877.781 205.51C877.921 205.343 878.093 205.206 878.286 205.106C878.48 205.006 878.691 204.944 878.908 204.926C879.125 204.907 879.344 204.932 879.552 204.998C879.759 205.064 879.952 205.17 880.118 205.311C880.285 205.451 880.422 205.623 880.522 205.817C880.623 206.011 880.684 206.222 880.702 206.439C880.721 206.657 880.696 206.875 880.63 207.083C880.564 207.291 880.458 207.484 880.317 207.65L874.277 214.85C874.122 215.036 873.927 215.186 873.707 215.288C873.488 215.391 873.248 215.444 873.006 215.443L873.004 215.441Z" fill="black"/>
<path d="M894.7 233.465C894.385 233.463 894.076 233.372 893.811 233.202C893.545 233.032 893.333 232.79 893.2 232.504C893.067 232.218 893.018 231.9 893.059 231.588C893.1 231.275 893.228 230.98 893.43 230.738L899.473 223.531C899.756 223.194 900.161 222.983 900.599 222.945C901.038 222.907 901.473 223.044 901.81 223.327C902.147 223.611 902.358 224.016 902.396 224.455C902.434 224.894 902.297 225.33 902.014 225.667L895.972 232.882C895.816 233.068 895.621 233.218 895.402 233.321C895.182 233.423 894.942 233.476 894.7 233.476V233.465Z" fill="black"/>
<path d="M895.162 217.34L887.539 210.937C887.038 210.516 886.46 210.198 885.837 210.001C885.214 209.804 884.558 209.732 883.907 209.788C883.256 209.845 882.622 210.03 882.042 210.332C881.462 210.633 880.948 211.047 880.528 211.548L878.396 214.093C877.555 215.1 877.145 216.398 877.254 217.706C877.364 219.014 877.985 220.226 878.982 221.078C875.06 225.62 868.852 232.754 866.395 235.574L865.331 236.797C864.578 237.755 864.226 238.968 864.349 240.18C864.473 241.392 865.063 242.509 865.995 243.293C866.926 244.078 868.126 244.47 869.34 244.386C870.555 244.302 871.689 243.748 872.504 242.842L873.074 242.178C875.054 239.909 881.656 232.329 885.889 227.426C885.979 227.311 886.054 227.185 886.11 227.05L886.643 227.493C887.535 228.245 888.665 228.656 889.832 228.655C889.978 228.655 890.129 228.655 890.274 228.635C890.922 228.582 891.553 228.402 892.13 228.106C892.708 227.809 893.222 227.401 893.643 226.906L895.777 224.365C896.197 223.864 896.514 223.285 896.711 222.661C896.907 222.038 896.979 221.381 896.922 220.73C896.865 220.078 896.68 219.444 896.378 218.864C896.076 218.284 895.663 217.769 895.162 217.349V217.34ZM883.379 225.27C879.148 230.169 872.541 237.743 870.573 240.011L869.974 240.7C869.741 240.98 869.407 241.157 869.044 241.191C868.681 241.224 868.32 241.113 868.04 240.88C867.759 240.647 867.583 240.313 867.549 239.95C867.515 239.587 867.627 239.225 867.859 238.944L868.894 237.756C871.367 234.927 877.597 227.76 881.521 223.216L883.684 225.034C883.573 225.1 883.472 225.179 883.381 225.27H883.379ZM893.236 222.22L891.102 224.764C890.962 224.931 890.79 225.068 890.597 225.169C890.403 225.27 890.192 225.331 889.975 225.35C889.758 225.369 889.539 225.345 889.331 225.279C889.124 225.214 888.931 225.108 888.764 224.967L881.143 218.566C880.806 218.283 880.595 217.878 880.556 217.439C880.518 217 880.655 216.564 880.937 216.227L883.069 213.681C883.209 213.515 883.38 213.377 883.573 213.277C883.767 213.176 883.978 213.115 884.195 213.097C884.632 213.061 885.067 213.199 885.404 213.48L893.041 219.883C893.208 220.023 893.346 220.194 893.447 220.388C893.548 220.581 893.609 220.792 893.628 221.009C893.647 221.226 893.624 221.445 893.558 221.653C893.493 221.861 893.387 222.054 893.247 222.22H893.236Z" fill="black"/>
<path d="M946.027 244.573H929.44C929 244.573 928.578 244.398 928.267 244.087C927.956 243.775 927.781 243.353 927.781 242.913C927.781 242.473 927.956 242.05 928.267 241.739C928.578 241.428 929 241.253 929.44 241.253H946.027C946.467 241.253 946.889 241.428 947.2 241.739C947.511 242.05 947.686 242.473 947.686 242.913C947.686 243.353 947.511 243.775 947.2 244.087C946.889 244.398 946.467 244.573 946.027 244.573Z" fill="black"/>
<path d="M917.236 215.441C916.921 215.44 916.612 215.349 916.347 215.179C916.081 215.009 915.87 214.767 915.736 214.481C915.603 214.195 915.554 213.877 915.595 213.564C915.636 213.251 915.765 212.957 915.966 212.714L922.013 205.51C922.154 205.343 922.325 205.206 922.519 205.106C922.712 205.006 922.924 204.944 923.141 204.926C923.358 204.907 923.576 204.932 923.784 204.998C923.992 205.064 924.184 205.17 924.351 205.311C924.517 205.451 924.655 205.623 924.755 205.817C924.855 206.011 924.916 206.222 924.935 206.439C924.953 206.657 924.929 206.875 924.863 207.083C924.797 207.291 924.69 207.484 924.55 207.65L918.51 214.85C918.354 215.036 918.16 215.186 917.94 215.288C917.72 215.391 917.481 215.444 917.238 215.443L917.236 215.441Z" fill="black"/>
<path d="M938.932 233.465C938.617 233.463 938.309 233.372 938.043 233.202C937.778 233.032 937.566 232.79 937.433 232.504C937.3 232.218 937.251 231.9 937.291 231.588C937.332 231.275 937.461 230.98 937.663 230.738L943.705 223.531C943.988 223.194 944.393 222.983 944.832 222.945C945.27 222.907 945.706 223.044 946.043 223.327C946.38 223.611 946.59 224.016 946.629 224.455C946.667 224.894 946.529 225.33 946.246 225.667L940.204 232.882C940.048 233.068 939.854 233.218 939.634 233.321C939.414 233.423 939.175 233.476 938.932 233.476V233.465Z" fill="black"/>
<path d="M939.395 217.34L931.771 210.937C931.271 210.516 930.692 210.198 930.069 210.001C929.446 209.804 928.79 209.732 928.139 209.788C927.488 209.845 926.854 210.03 926.275 210.332C925.695 210.633 925.18 211.047 924.76 211.548L922.628 214.093C921.787 215.1 921.377 216.398 921.487 217.706C921.597 219.014 922.217 220.226 923.214 221.078C919.293 225.62 913.085 232.754 910.628 235.574L909.564 236.797C908.81 237.755 908.458 238.968 908.582 240.18C908.706 241.392 909.296 242.509 910.227 243.293C911.158 244.078 912.358 244.47 913.573 244.386C914.788 244.302 915.922 243.748 916.736 242.842L917.307 242.178C919.286 239.909 925.888 232.329 930.121 227.426C930.212 227.311 930.286 227.185 930.342 227.05L930.875 227.493C931.768 228.245 932.898 228.656 934.065 228.655C934.211 228.655 934.361 228.655 934.507 228.635C935.154 228.582 935.785 228.402 936.363 228.106C936.941 227.809 937.455 227.401 937.875 226.906L940.01 224.365C940.43 223.864 940.747 223.285 940.943 222.661C941.14 222.038 941.211 221.381 941.154 220.73C941.097 220.078 940.912 219.444 940.61 218.864C940.309 218.284 939.895 217.769 939.395 217.349V217.34ZM927.611 225.27C923.38 230.169 916.774 237.743 914.805 240.011L914.206 240.7C913.973 240.98 913.639 241.157 913.276 241.191C912.914 241.224 912.552 241.113 912.272 240.88C911.992 240.647 911.815 240.313 911.781 239.95C911.747 239.587 911.859 239.225 912.092 238.944L913.127 237.756C915.599 234.927 921.83 227.76 925.753 223.216L927.916 225.034C927.806 225.1 927.704 225.179 927.613 225.27H927.611ZM937.468 222.22L935.334 224.764C935.194 224.931 935.022 225.068 934.829 225.169C934.636 225.27 934.424 225.331 934.207 225.35C933.99 225.369 933.772 225.345 933.564 225.279C933.356 225.214 933.163 225.108 932.996 224.967L925.375 218.566C925.038 218.283 924.827 217.878 924.789 217.439C924.75 217 924.887 216.564 925.169 216.227L927.301 213.681C927.441 213.515 927.613 213.377 927.806 213.277C927.999 213.176 928.21 213.115 928.427 213.097C928.865 213.061 929.299 213.199 929.637 213.48L937.274 219.883C937.441 220.023 937.579 220.194 937.679 220.388C937.78 220.581 937.842 220.792 937.861 221.009C937.88 221.226 937.856 221.445 937.791 221.653C937.725 221.861 937.619 222.054 937.479 222.22H937.468Z" fill="black"/>
<path d="M779.058 208.053H782.375C783.694 208.052 784.959 207.526 785.892 206.593C786.825 205.659 787.35 204.394 787.351 203.073V199.753C787.35 198.433 786.825 197.168 785.892 196.234C784.959 195.3 783.694 194.775 782.375 194.773H779.058C777.745 194.775 776.485 195.294 775.553 196.22C774.622 197.146 774.093 198.402 774.081 199.716H765.235C765.224 198.402 764.695 197.146 763.763 196.22C762.831 195.294 761.572 194.775 760.259 194.773H756.941C755.622 194.775 754.357 195.3 753.424 196.234C752.491 197.168 751.967 198.433 751.965 199.753V203.073C751.968 204.295 752.421 205.472 753.237 206.381C754.053 207.289 755.175 207.865 756.388 207.998V220.227C756.39 221.547 756.915 222.813 757.848 223.746C758.78 224.68 760.045 225.205 761.364 225.207H774.081C774.083 226.527 774.608 227.793 775.541 228.726C776.474 229.66 777.738 230.185 779.058 230.187H782.375C783.694 230.185 784.959 229.66 785.892 228.726C786.825 227.793 787.35 226.527 787.351 225.207V221.887C787.35 220.567 786.825 219.301 785.892 218.367C784.959 217.434 783.694 216.909 782.375 216.907H779.058C777.738 216.909 776.474 217.434 775.541 218.367C774.608 219.301 774.083 220.567 774.081 221.887H761.364C760.925 221.886 760.503 221.711 760.192 221.4C759.881 221.089 759.706 220.667 759.706 220.227V208.053H760.259C761.578 208.052 762.843 207.526 763.775 206.593C764.708 205.659 765.233 204.394 765.235 203.073V203.036H774.081V203.073C774.083 204.394 774.608 205.659 775.541 206.593C776.474 207.526 777.738 208.052 779.058 208.053ZM777.399 221.887C777.4 221.447 777.575 221.025 777.885 220.714C778.196 220.402 778.618 220.227 779.058 220.227H782.375C782.815 220.227 783.237 220.402 783.547 220.714C783.858 221.025 784.033 221.447 784.034 221.887V225.207C784.033 225.647 783.858 226.069 783.547 226.38C783.237 226.691 782.815 226.866 782.375 226.867H779.058C778.618 226.866 778.196 226.691 777.885 226.38C777.575 226.069 777.4 225.647 777.399 225.207V221.887ZM777.399 199.753C777.4 199.313 777.575 198.891 777.885 198.58C778.196 198.269 778.618 198.094 779.058 198.093H782.375C782.815 198.094 783.237 198.269 783.547 198.58C783.858 198.891 784.033 199.313 784.034 199.753V203.073C784.033 203.514 783.858 203.935 783.547 204.247C783.237 204.558 782.815 204.733 782.375 204.733H779.058C778.618 204.733 778.196 204.558 777.885 204.247C777.575 203.935 777.4 203.514 777.399 203.073V199.753ZM761.917 203.073C761.917 203.514 761.742 203.935 761.431 204.247C761.12 204.558 760.698 204.733 760.259 204.733H756.941C756.501 204.733 756.08 204.558 755.769 204.247C755.458 203.935 755.283 203.514 755.282 203.073V199.753C755.283 199.313 755.458 198.891 755.769 198.58C756.08 198.269 756.501 198.094 756.941 198.093H760.259C760.698 198.094 761.12 198.269 761.431 198.58C761.742 198.891 761.917 199.313 761.917 199.753V203.073Z" fill="#222222"/>
<path opacity="0.2" d="M753.624 199.754V203.074C753.624 204.907 755.109 206.394 756.942 206.394H760.259C762.091 206.394 763.577 204.907 763.577 203.074V199.754C763.577 197.92 762.091 196.434 760.259 196.434H756.942C755.109 196.434 753.624 197.92 753.624 199.754Z" fill="#222222"/>
<path d="M790.669 234.613H753.071C746.964 234.613 742.013 239.568 742.013 245.68C742.013 251.792 746.964 256.747 753.071 256.747H790.669C796.777 256.747 801.728 251.792 801.728 245.68C801.728 239.568 796.777 234.613 790.669 234.613Z" fill="#EFF1F5"/>
<path d="M753.299 245.37C754.52 245.37 755.51 244.379 755.51 243.157C755.51 241.934 754.52 240.943 753.299 240.943C752.077 240.943 751.087 241.934 751.087 243.157C751.087 244.379 752.077 245.37 753.299 245.37Z" fill="black"/>
<path d="M763.747 239.04H744.981C744.845 239.03 744.711 239.073 744.607 239.162C744.503 239.25 744.439 239.376 744.428 239.512V251.756C744.439 251.891 744.503 252.017 744.607 252.105C744.711 252.194 744.845 252.238 744.981 252.227H763.747C763.882 252.238 764.017 252.194 764.12 252.105C764.224 252.017 764.288 251.891 764.3 251.756V239.512C764.288 239.376 764.224 239.25 764.12 239.162C764.017 239.073 763.882 239.03 763.747 239.04ZM746.639 240.924H755.466V246.9C754.865 246.604 754.214 246.424 753.546 246.371C752.633 246.371 752.219 247.406 751.31 247.406C750.401 247.406 749.689 245.357 748.778 245.357C747.949 245.357 746.635 247.431 746.635 247.431L746.639 240.924ZM762.09 250.344H746.639V249.401H762.09V250.344ZM762.09 247.517H757.667V246.565H762.09V247.517ZM762.09 244.691H757.667V243.75H762.09V244.691ZM762.09 241.864H757.667V240.924H762.09V241.864Z" fill="black"/>
<path d="M771.923 251.855C771.92 251.913 771.929 251.972 771.949 252.027C771.968 252.082 771.999 252.132 772.038 252.175C772.077 252.219 772.125 252.254 772.177 252.278C772.23 252.303 772.288 252.317 772.346 252.32H773.191C773.249 252.317 773.306 252.303 773.359 252.278C773.412 252.254 773.459 252.219 773.499 252.175C773.538 252.132 773.568 252.082 773.588 252.027C773.608 251.972 773.616 251.913 773.613 251.855V247.681H771.923V251.855Z" fill="black"/>
<path d="M777.658 241.718C777.555 241.719 777.453 241.725 777.351 241.738C777.523 241.077 777.523 240.382 777.353 239.72C777.182 239.059 776.846 238.451 776.375 237.956C775.935 237.49 775.365 237.167 774.74 237.027C774.115 236.888 773.462 236.938 772.865 237.172C772.251 237.435 771.719 237.857 771.325 238.396C770.93 238.935 770.688 239.57 770.623 240.235C770.126 240.093 769.599 240.094 769.104 240.24C768.608 240.385 768.164 240.668 767.823 241.057C767.458 241.469 767.199 241.964 767.068 242.5C766.937 243.035 766.938 243.594 767.071 244.129C766.767 244.076 766.455 244.113 766.173 244.237C765.89 244.361 765.651 244.566 765.485 244.826C765.305 245.099 765.196 245.414 765.171 245.741C765.145 246.068 765.203 246.396 765.339 246.694C765.461 246.98 765.663 247.226 765.921 247.4C766.179 247.575 766.481 247.672 766.792 247.679H771.923V244.899H770.105C770.064 244.898 770.023 244.888 769.985 244.871C769.948 244.854 769.914 244.83 769.886 244.8C769.857 244.769 769.835 244.734 769.821 244.695C769.807 244.656 769.8 244.615 769.802 244.574C769.803 244.491 769.835 244.413 769.891 244.352L772.631 241.709C772.668 241.674 772.717 241.654 772.768 241.654C772.819 241.654 772.868 241.674 772.905 241.709L775.637 244.346C775.692 244.406 775.724 244.485 775.725 244.567C775.729 244.649 775.699 244.73 775.644 244.791C775.588 244.852 775.511 244.888 775.429 244.892H773.613V247.681H777.658C778.413 247.644 779.122 247.31 779.631 246.751C780.14 246.193 780.407 245.455 780.374 244.7C780.407 243.944 780.14 243.207 779.631 242.648C779.122 242.089 778.413 241.755 777.658 241.718Z" fill="black"/>
<path d="M797.78 248.56H796.674C796.536 248.551 796.4 248.598 796.295 248.689C796.191 248.781 796.127 248.91 796.117 249.049V251.483H782.754V249.049C782.745 248.91 782.681 248.782 782.577 248.69C782.473 248.599 782.337 248.552 782.199 248.56H781.093C781.024 248.554 780.955 248.563 780.889 248.585C780.823 248.607 780.762 248.641 780.71 248.687C780.657 248.732 780.614 248.788 780.583 248.85C780.552 248.912 780.534 248.979 780.529 249.049V252.96C780.539 253.098 780.603 253.227 780.707 253.319C780.812 253.411 780.948 253.457 781.087 253.449H797.78C797.919 253.457 798.055 253.411 798.16 253.319C798.264 253.227 798.328 253.098 798.338 252.96V249.049C798.328 248.91 798.264 248.781 798.16 248.689C798.055 248.598 797.919 248.551 797.78 248.56Z" fill="black"/>
<path d="M789.234 249.956C789.289 250.001 789.357 250.025 789.428 250.025C789.499 250.025 789.568 250.001 789.623 249.956L793.77 246.277C793.805 246.244 793.832 246.204 793.851 246.16C793.87 246.116 793.88 246.069 793.88 246.021C793.873 245.91 793.822 245.807 793.74 245.734C793.657 245.66 793.549 245.623 793.438 245.629H790.543V238.294C790.533 238.155 790.469 238.026 790.365 237.934C790.261 237.843 790.124 237.796 789.986 237.805H788.88C788.741 237.796 788.605 237.843 788.501 237.934C788.396 238.026 788.332 238.155 788.323 238.294V245.627H785.421C785.31 245.621 785.202 245.658 785.119 245.732C785.036 245.805 784.986 245.908 784.979 246.018C784.979 246.066 784.989 246.114 785.008 246.158C785.027 246.202 785.054 246.242 785.089 246.275L789.234 249.956Z" fill="black"/>
<path d="M635.969 172.267C634.049 172.267 632.729 171.007 632.729 168.967C632.729 167.107 634.049 165.727 635.969 165.727C637.889 165.727 639.209 167.107 639.209 168.967C639.209 170.947 637.949 172.267 635.969 172.267ZM603.809 172.267C601.949 172.267 600.629 171.007 600.629 168.967C600.629 167.107 601.889 165.727 603.809 165.727C605.789 165.727 607.049 167.107 607.049 168.967C607.049 170.947 605.849 172.267 603.809 172.267ZM620.009 172.267C618.089 172.267 616.769 171.007 616.769 168.967C616.769 167.107 618.089 165.727 620.009 165.727C621.929 165.727 623.249 167.107 623.249 168.967C623.249 170.947 622.049 172.267 620.009 172.267Z" fill="black"/>
</g>
</g>
<defs>
<clipPath id="clip0_81_1587">
<rect width="1024" height="332" fill="white"/>
</clipPath>
</defs>
</svg>
