<svg xmlns="http://www.w3.org/2000/svg" width="1024" height="566" fill="none" viewBox="0 0 1024 566"><g clip-path="url(#a)"><mask id="b" width="1024" height="566" x="0" y="0" maskUnits="userSpaceOnUse" style="mask-type:luminance"><path fill="#fff" d="M1024 0H0v566h1024z"/></mask><g mask="url(#b)"><path fill="#fff" d="M1024 0H0v566h1024z"/><path fill="#eff1f5" d="M291.94 181.297H61.927c-9.772 0-17.694 7.919-17.694 17.687v196.774c0 9.768 7.922 17.687 17.694 17.687H291.94c9.771 0 17.693-7.919 17.693-17.687V198.984c0-9.768-7.922-17.687-17.693-17.687"/><path stroke="#707070" stroke-width=".5" d="M291.939 181.85H61.926c-9.466 0-17.14 7.671-17.14 17.134v196.774c0 9.463 7.674 17.135 17.14 17.135H291.94c9.467 0 17.141-7.672 17.141-17.135V198.984c0-9.463-7.674-17.134-17.141-17.134Z"/><path fill="#000" d="M191.948 202.933c0-4.718-8.9-7.185-17.693-7.185s-17.693 2.467-17.693 7.185q.01.222.05.442-.035.121-.05.246v21.974c0 4.559 9.171 6.633 17.693 6.633 8.521 0 17.693-2.074 17.693-6.633v-21.974a1.6 1.6 0 0 0-.051-.255q.039-.215.051-.433m-3.317 11.596c-.204.918-4.928 3.328-14.376 3.328s-14.177-2.412-14.376-3.316v-7.244a32.26 32.26 0 0 0 14.376 2.822 32.26 32.26 0 0 0 14.376-2.822zm-14.376-15.465c9.486 0 14.376 2.713 14.376 3.869s-4.89 3.869-14.376 3.869-14.376-2.713-14.376-3.869 4.89-3.869 14.376-3.869m0 29.848c-9.451 0-14.177-2.413-14.376-3.317v-6.973a35 35 0 0 0 14.376 2.551 35 35 0 0 0 14.376-2.551v6.96c-.202.917-4.928 3.33-14.376 3.33"/><path fill="#eff1f5" d="M484.354 181.297H342.808c-9.772 0-17.694 7.919-17.694 17.687v196.774c0 9.768 7.922 17.687 17.694 17.687h141.546c9.772 0 17.693-7.919 17.693-17.687V198.984c0-9.768-7.921-17.687-17.693-17.687"/><path stroke="#707070" stroke-width=".5" d="M484.354 181.85H342.807c-9.466 0-17.14 7.671-17.14 17.134v196.774c0 9.463 7.674 17.135 17.14 17.135h141.547c9.466 0 17.14-7.672 17.14-17.135V198.984c0-9.463-7.674-17.134-17.14-17.134Z"/><path fill="#000" d="M429.627 202.933c0-4.718-8.9-7.185-17.693-7.185s-17.694 2.467-17.694 7.185q.012.222.051.442-.035.121-.051.246v21.974c0 4.559 9.172 6.633 17.694 6.633s17.693-2.074 17.693-6.633v-21.974a1.6 1.6 0 0 0-.051-.255q.039-.215.051-.433m-3.318 11.596c-.203.918-4.927 3.328-14.375 3.328s-14.177-2.412-14.376-3.316v-7.244a32.26 32.26 0 0 0 14.376 2.822 32.26 32.26 0 0 0 14.375-2.822zm-14.375-15.465c9.485 0 14.375 2.713 14.375 3.869s-4.89 3.869-14.375 3.869c-9.486 0-14.376-2.713-14.376-3.869s4.89-3.869 14.376-3.869m0 29.848c-9.451 0-14.177-2.413-14.376-3.317v-6.973a35 35 0 0 0 14.376 2.551 35 35 0 0 0 14.375-2.551v6.96c-.201.917-4.927 3.33-14.375 3.33"/><path fill="#eff1f5" d="M955.438 181.297H723.214c-9.772 0-17.693 7.919-17.693 17.687v196.774c0 9.768 7.921 17.687 17.693 17.687h232.224c9.772 0 17.694-7.919 17.694-17.687V198.984c0-9.768-7.922-17.687-17.694-17.687"/><path stroke="#707070" stroke-width=".5" d="M955.438 181.85H723.214c-9.467 0-17.141 7.671-17.141 17.134v196.774c0 9.463 7.674 17.135 17.141 17.135h232.224c9.467 0 17.141-7.672 17.141-17.135V198.984c0-9.463-7.674-17.134-17.141-17.134Z"/><path fill="#000" d="M854.317 202.933c0-4.718-8.899-7.185-17.693-7.185s-17.693 2.467-17.693 7.185q.01.222.051.442a1.5 1.5 0 0 0-.051.246v21.974c0 4.559 9.171 6.633 17.693 6.633s17.693-2.074 17.693-6.633v-21.974a1.6 1.6 0 0 0-.051-.255q.039-.215.051-.433M851 214.529c-.204.918-4.928 3.328-14.376 3.328s-14.177-2.412-14.376-3.316v-7.244a32.26 32.26 0 0 0 14.376 2.822A32.26 32.26 0 0 0 851 207.297zm-14.376-15.465c9.486 0 14.376 2.713 14.376 3.869s-4.89 3.869-14.376 3.869-14.376-2.713-14.376-3.869 4.89-3.869 14.376-3.869m0 29.848c-9.45 0-14.177-2.413-14.376-3.317v-6.973a35 35 0 0 0 14.376 2.551A35 35 0 0 0 851 218.622v6.96c-.201.917-4.928 3.33-14.376 3.33"/><path fill="#707070" d="M593.947 231.842c-1.92 0-3.24-1.26-3.24-3.3 0-1.86 1.32-3.24 3.24-3.24s3.24 1.38 3.24 3.24c0 1.98-1.26 3.3-3.24 3.3m-32.16 0c-1.86 0-3.18-1.26-3.18-3.3 0-1.86 1.26-3.24 3.18-3.24 1.98 0 3.24 1.38 3.24 3.24 0 1.98-1.2 3.3-3.24 3.3m16.2 0c-1.92 0-3.24-1.26-3.24-3.3 0-1.86 1.32-3.24 3.24-3.24s3.24 1.38 3.24 3.24c0 1.98-1.2 3.3-3.24 3.3"/><path fill="#000" d="M593.947 231.842c-1.92 0-3.24-1.26-3.24-3.3 0-1.86 1.32-3.24 3.24-3.24s3.24 1.38 3.24 3.24c0 1.98-1.26 3.3-3.24 3.3m-32.16 0c-1.86 0-3.18-1.26-3.18-3.3 0-1.86 1.26-3.24 3.18-3.24 1.98 0 3.24 1.38 3.24 3.24 0 1.98-1.2 3.3-3.24 3.3m16.2 0c-1.92 0-3.24-1.26-3.24-3.3 0-1.86 1.32-3.24 3.24-3.24s3.24 1.38 3.24 3.24c0 1.98-1.2 3.3-3.24 3.3"/><path stroke="#707070" stroke-width=".25" d="M406.946 155.871v26.531M754.177 413.445v26.532M455.603 413.445v26.532M367.136 413.445v26.532M263.188 413.445v26.532M174.722 413.445v26.532M86.255 413.445v26.532M840.432 413.445v26.532M928.898 413.445v26.532M371.56 259.785v22.11M260.977 259.785v22.11M926.687 259.785v22.11M174.722 259.785v22.11M840.432 259.785v22.11M90.678 259.785v22.11M756.389 259.785v22.11M455.603 259.785v22.11M172.51 155.871v26.531M291.939 131.551v24.32M411.369 235.465v24.32M174.722 235.465v24.32M840.432 235.465v24.32M171.404 155.871h236.648M370.453 259.785h86.255M89.572 259.785h172.51M755.283 259.785h172.51M840.432 131.551l1.105 50.851"/><path fill="#eff1f5" d="M345.02 44.219H201.262c-9.772 0-17.694 7.919-17.694 17.687v53.063c0 9.768 7.922 17.687 17.694 17.687H345.02c9.772 0 17.693-7.919 17.693-17.687V61.906c0-9.768-7.921-17.687-17.693-17.687"/><path stroke="#707070" stroke-width=".5" d="M345.02 44.772H201.261c-9.466 0-17.14 7.671-17.14 17.134v53.063c0 9.463 7.674 17.135 17.14 17.135H345.02c9.466 0 17.14-7.672 17.14-17.135V61.906c0-9.463-7.674-17.134-17.14-17.134Z"/><path fill="#000" d="M239.116 107.23h-16.587a1.658 1.658 0 1 1 0-3.316h16.587a1.66 1.66 0 0 1 0 3.316M210.325 78.13a1.66 1.66 0 0 1-1.27-2.724l6.047-7.196a1.65 1.65 0 0 1 1.128-.584 1.66 1.66 0 0 1 1.409 2.722l-6.04 7.192a1.67 1.67 0 0 1-1.272.592zM232.021 96.134a1.66 1.66 0 0 1-1.269-2.724l6.042-7.199a1.658 1.658 0 0 1 2.541 2.134l-6.042 7.207a1.66 1.66 0 0 1-1.272.593zM232.484 80.027l-7.624-6.396a4.975 4.975 0 0 0-7.011.61l-2.132 2.543a4.976 4.976 0 0 0 .586 6.977 4996 4996 0 0 1-12.587 14.48l-1.063 1.222a4.685 4.685 0 0 0 .663 6.489 4.69 4.69 0 0 0 6.509-.45l.571-.664c1.979-2.266 8.581-9.838 12.814-14.736q.137-.172.221-.375l.533.442a4.94 4.94 0 0 0 3.189 1.16c.146 0 .297 0 .443-.02a4.95 4.95 0 0 0 3.368-1.726l2.134-2.538a4.97 4.97 0 0 0 .601-5.495 5 5 0 0 0-1.215-1.514zM220.7 87.95c-4.231 4.893-10.837 12.459-12.806 14.725l-.599.687a1.373 1.373 0 1 1-2.114-1.753l1.035-1.187c2.472-2.826 8.703-9.985 12.626-14.524l2.163 1.815q-.166.1-.303.237zm9.857-3.047-2.134 2.54a1.66 1.66 0 0 1-2.338.204l-7.621-6.394a1.66 1.66 0 0 1-.206-2.337l2.132-2.543a1.656 1.656 0 0 1 2.336-.2l7.637 6.395a1.66 1.66 0 0 1 .205 2.335zM289.164 107.23h-16.587a1.658 1.658 0 1 1 0-3.316h16.587a1.66 1.66 0 0 1 0 3.316M260.373 78.13a1.658 1.658 0 0 1-1.641-1.875c.04-.312.169-.607.371-.849l6.047-7.196a1.65 1.65 0 0 1 1.127-.584 1.66 1.66 0 0 1 1.615.89 1.65 1.65 0 0 1 .107 1.265c-.066.207-.172.4-.312.567l-6.04 7.192a1.67 1.67 0 0 1-1.272.592zM282.069 96.134a1.66 1.66 0 0 1-1.27-2.724l6.043-7.199a1.658 1.658 0 1 1 2.541 2.134l-6.042 7.207a1.66 1.66 0 0 1-1.272.593zM282.531 80.027l-7.623-6.396a4.98 4.98 0 0 0-3.632-1.147 4.98 4.98 0 0 0-3.379 1.757l-2.132 2.543a4.976 4.976 0 0 0 .586 6.977 5155 5155 0 0 1-12.587 14.48l-1.064 1.222a4.689 4.689 0 0 0 4.01 7.581 4.7 4.7 0 0 0 3.163-1.542l.571-.664c1.979-2.266 8.581-9.838 12.814-14.736q.136-.172.221-.375l.533.442a4.94 4.94 0 0 0 3.189 1.16c.146 0 .297 0 .443-.02a4.95 4.95 0 0 0 3.368-1.726l2.134-2.538a4.97 4.97 0 0 0 .601-5.495 5 5 0 0 0-1.216-1.514zm-11.783 7.922c-4.231 4.893-10.837 12.459-12.806 14.725l-.599.687a1.373 1.373 0 1 1-2.115-1.753l1.035-1.187c2.473-2.826 8.703-9.985 12.627-14.524l2.163 1.815q-.166.1-.303.237zm9.857-3.047-2.134 2.54a1.66 1.66 0 0 1-2.338.204l-7.621-6.394a1.66 1.66 0 0 1-.206-2.337l2.132-2.543a1.64 1.64 0 0 1 1.126-.583 1.68 1.68 0 0 1 1.21.382l7.636 6.396a1.66 1.66 0 0 1 .588 1.125 1.65 1.65 0 0 1-.382 1.21zM338.294 107.23h-16.587a1.658 1.658 0 1 1 0-3.316h16.587a1.66 1.66 0 0 1 0 3.316M309.503 78.13a1.66 1.66 0 0 1-1.5-.96 1.66 1.66 0 0 1 .23-1.764l6.047-7.196a1.65 1.65 0 0 1 1.127-.584 1.67 1.67 0 0 1 1.21.385 1.65 1.65 0 0 1 .584 1.127 1.65 1.65 0 0 1-.384 1.21l-6.041 7.192a1.65 1.65 0 0 1-1.271.592zM331.199 96.134a1.66 1.66 0 0 1-1.27-2.724l6.043-7.199a1.658 1.658 0 1 1 2.541 2.134l-6.042 7.207a1.67 1.67 0 0 1-1.272.593zM331.661 80.027l-7.623-6.396a4.98 4.98 0 0 0-3.632-1.147 4.98 4.98 0 0 0-3.379 1.757l-2.132 2.543a4.98 4.98 0 0 0 .586 6.978 5325 5325 0 0 1-12.587 14.479l-1.064 1.222a4.689 4.689 0 0 0 4.009 7.581 4.7 4.7 0 0 0 3.164-1.542l.57-.664c1.98-2.266 8.582-9.838 12.815-14.736q.136-.172.221-.375l.533.442a4.94 4.94 0 0 0 3.189 1.16c.146 0 .297 0 .443-.02a4.95 4.95 0 0 0 3.368-1.726l2.134-2.538a4.99 4.99 0 0 0 1.145-3.632 4.97 4.97 0 0 0-1.76-3.377zm-11.783 7.922c-4.231 4.893-10.838 12.459-12.806 14.725l-.599.687a1.373 1.373 0 1 1-2.115-1.753l1.035-1.187c2.473-2.826 8.703-9.985 12.627-14.524l2.163 1.815q-.166.1-.303.237zm9.857-3.047-2.134 2.54a1.66 1.66 0 0 1-2.338.204l-7.621-6.394a1.66 1.66 0 0 1-.206-2.337l2.132-2.543a1.65 1.65 0 0 1 2.335-.2l7.637 6.395a1.66 1.66 0 0 1 .587 1.125 1.65 1.65 0 0 1-.381 1.21z"/><path fill="#eff1f5" d="M893.512 48.64H749.754c-9.772 0-17.693 7.92-17.693 17.688v53.063c0 9.768 7.921 17.687 17.693 17.687h143.758c9.772 0 17.693-7.919 17.693-17.687V66.328c0-9.768-7.921-17.687-17.693-17.687"/><path stroke="#707070" stroke-width=".5" d="M893.512 49.193H749.754c-9.467 0-17.141 7.672-17.141 17.135v53.063c0 9.463 7.674 17.134 17.141 17.134h143.758c9.466 0 17.14-7.671 17.14-17.134V66.328c0-9.463-7.674-17.135-17.14-17.135Z"/><path fill="#000" d="M787.609 111.652h-16.588a1.658 1.658 0 1 1 0-3.316h16.588a1.659 1.659 0 0 1 0 3.316M758.817 82.552a1.66 1.66 0 0 1-1.269-2.724l6.046-7.196a1.66 1.66 0 0 1 2.85 1.57c-.066.208-.173.4-.313.567l-6.04 7.193a1.66 1.66 0 0 1-1.272.592zM780.513 100.556a1.66 1.66 0 0 1-1.269-2.724l6.042-7.199a1.658 1.658 0 0 1 2.541 2.133l-6.042 7.208a1.65 1.65 0 0 1-1.272.593zM780.976 84.45l-7.624-6.397a4.97 4.97 0 0 0-3.632-1.147 4.97 4.97 0 0 0-3.379 1.757l-2.132 2.543a4.976 4.976 0 0 0 .586 6.977 5209 5209 0 0 1-12.586 14.48l-1.064 1.222a4.687 4.687 0 0 0 .663 6.489 4.693 4.693 0 0 0 6.509-.451l.571-.663c1.979-2.266 8.581-9.839 12.814-14.736q.137-.172.221-.376l.533.443a4.94 4.94 0 0 0 3.19 1.16c.146 0 .296 0 .442-.02a4.95 4.95 0 0 0 3.368-1.726l2.135-2.538a4.97 4.97 0 0 0 1.144-3.632 5 5 0 0 0-.543-1.863 5 5 0 0 0-1.216-1.514zm-11.784 7.92c-4.231 4.894-10.837 12.459-12.806 14.726l-.599.687a1.37 1.37 0 0 1-1.934.18 1.373 1.373 0 0 1-.18-1.933l1.035-1.187c2.472-2.826 8.703-9.985 12.626-14.524l2.163 1.815a1.6 1.6 0 0 0-.303.237zm9.857-3.046-2.134 2.54a1.66 1.66 0 0 1-2.338.204l-7.621-6.394a1.657 1.657 0 0 1-.206-2.337l2.132-2.543a1.656 1.656 0 0 1 2.336-.2l7.637 6.395a1.65 1.65 0 0 1 .205 2.335zM837.656 111.652h-16.587a1.658 1.658 0 1 1 0-3.316h16.587a1.66 1.66 0 0 1 0 3.316M808.865 82.552a1.66 1.66 0 0 1-1.27-2.724l6.047-7.196a1.65 1.65 0 0 1 1.128-.584 1.658 1.658 0 0 1 1.409 2.721l-6.04 7.193a1.66 1.66 0 0 1-1.272.592zM830.561 100.556a1.66 1.66 0 0 1-1.269-2.724l6.042-7.199a1.658 1.658 0 0 1 2.541 2.133l-6.042 7.208a1.65 1.65 0 0 1-1.272.593zM831.024 84.45l-7.624-6.397a4.975 4.975 0 0 0-7.011.61l-2.132 2.543a4.976 4.976 0 0 0 .586 6.977 5028 5028 0 0 1-12.587 14.48l-1.063 1.222a4.687 4.687 0 0 0 .663 6.489 4.693 4.693 0 0 0 6.509-.451l.571-.663c1.979-2.266 8.581-9.839 12.814-14.736q.137-.172.221-.376l.533.443a4.94 4.94 0 0 0 3.189 1.16c.146 0 .297 0 .443-.02a4.95 4.95 0 0 0 3.368-1.726l2.134-2.538a4.97 4.97 0 0 0 .601-5.495 5 5 0 0 0-1.215-1.514zm-11.784 7.92c-4.231 4.894-10.837 12.459-12.806 14.726l-.599.687a1.373 1.373 0 1 1-2.114-1.753l1.035-1.187c2.472-2.826 8.703-9.985 12.626-14.524l2.163 1.815a1.6 1.6 0 0 0-.303.237zm9.857-3.046-2.134 2.54a1.66 1.66 0 0 1-2.338.204l-7.621-6.394a1.66 1.66 0 0 1-.206-2.337l2.132-2.543a1.656 1.656 0 0 1 2.336-.2l7.637 6.395a1.66 1.66 0 0 1 .205 2.335zM886.786 111.652h-16.587a1.658 1.658 0 1 1 0-3.316h16.587a1.66 1.66 0 0 1 0 3.316M857.995 82.552a1.66 1.66 0 0 1-1.27-2.724l6.047-7.196a1.65 1.65 0 0 1 1.128-.584 1.658 1.658 0 0 1 1.409 2.721l-6.04 7.193a1.67 1.67 0 0 1-1.272.592zM879.691 100.556a1.66 1.66 0 0 1-1.499-.96 1.65 1.65 0 0 1 .23-1.764l6.042-7.199a1.658 1.658 0 0 1 2.541 2.133l-6.042 7.208a1.65 1.65 0 0 1-1.272.593zM880.153 84.45l-7.623-6.397a4.975 4.975 0 0 0-7.011.61l-2.132 2.543a4.976 4.976 0 0 0 .586 6.977 5028 5028 0 0 1-12.587 14.48l-1.063 1.222a4.687 4.687 0 0 0 .663 6.489 4.693 4.693 0 0 0 6.509-.451l.571-.663c1.979-2.266 8.581-9.839 12.814-14.736a1.6 1.6 0 0 0 .221-.376l.533.443a4.94 4.94 0 0 0 3.189 1.16c.146 0 .297 0 .443-.02a4.95 4.95 0 0 0 3.368-1.726l2.134-2.538a4.97 4.97 0 0 0 .601-5.495 5 5 0 0 0-1.216-1.514zm-11.783 7.92c-4.231 4.894-10.837 12.459-12.806 14.726l-.599.687a1.373 1.373 0 1 1-2.115-1.753l1.036-1.187c2.472-2.826 8.702-9.985 12.626-14.524l2.163 1.815a1.6 1.6 0 0 0-.303.237zm9.857-3.046-2.134 2.54a1.66 1.66 0 0 1-2.338.204l-7.621-6.394a1.66 1.66 0 0 1-.206-2.337l2.132-2.543a1.64 1.64 0 0 1 1.126-.583 1.68 1.68 0 0 1 1.21.382l7.636 6.396a1.66 1.66 0 0 1 .588 1.125 1.65 1.65 0 0 1-.382 1.21z"/><path fill="#eff1f5" d="M110.583 280.789h-39.81c-9.771 0-17.693 7.919-17.693 17.688v88.437c0 9.769 7.922 17.688 17.693 17.688h39.81c9.772 0 17.694-7.919 17.694-17.688v-88.437c0-9.769-7.922-17.688-17.694-17.688"/><path stroke="#707070" stroke-width=".5" d="M110.583 281.342h-39.81c-9.466 0-17.14 7.671-17.14 17.135v88.437c0 9.463 7.674 17.135 17.14 17.135h39.81c9.467 0 17.141-7.672 17.141-17.135v-88.437c0-9.464-7.674-17.135-17.141-17.135Z"/><path fill="#222" d="M72.304 321.736c2.453-2.925 7.173-3.248 11.094-.978l18.947-23.864a1.663 1.663 0 0 1 2.949.839c.051.437-.074.876-.348 1.221l-1.241 1.563 4.89 4.104a1.66 1.66 0 0 1 .587 1.141 1.66 1.66 0 0 1-.403 1.218l-4.66 5.337a1.656 1.656 0 0 1-2.318.179l-4.565-3.831-1.375 1.733 4.523 3.794a1.67 1.67 0 0 1 .619 1.136 1.655 1.655 0 0 1-1.54 1.817 1.65 1.65 0 0 1-1.223-.424l-4.443-3.723L86 322.819a9.78 9.78 0 0 1 2.773 5.62 6.8 6.8 0 0 1-1.493 5.147 7.39 7.39 0 0 1-5.77 2.474 10.98 10.98 0 0 1-6.681-2.392 10.18 10.18 0 0 1-4.012-6.792 6.8 6.8 0 0 1 1.488-5.14m30.384-12.824 2.479-2.839-3.525-2.96-2.344 2.954zm-28.575 17.621a6.97 6.97 0 0 0 2.756 4.524c2.687 2.094 6.29 2.28 7.867.4a3.52 3.52 0 0 0 .734-2.668 6.97 6.97 0 0 0-2.758-4.522 7.74 7.74 0 0 0-4.657-1.702 4.08 4.08 0 0 0-3.207 1.302 3.52 3.52 0 0 0-.735 2.666M95.654 367.016h3.318a4.982 4.982 0 0 0 4.976-4.975v-3.316a4.98 4.98 0 0 0-4.976-4.975h-3.318a4.98 4.98 0 0 0-4.976 4.937h-8.846a4.98 4.98 0 0 0-4.977-4.937h-3.317a4.983 4.983 0 0 0-4.977 4.975v3.316a4.965 4.965 0 0 0 4.424 4.919v12.216a4.978 4.978 0 0 0 4.976 4.974h12.717a4.98 4.98 0 0 0 4.976 4.975h3.318a4.984 4.984 0 0 0 4.976-4.975v-3.316a4.98 4.98 0 0 0-4.976-4.975h-3.318a4.982 4.982 0 0 0-4.976 4.975H77.961a1.66 1.66 0 0 1-1.659-1.658v-12.16h.553a4.982 4.982 0 0 0 4.976-4.975v-.038h8.847v.038a4.98 4.98 0 0 0 4.976 4.975m-1.658 13.818a1.66 1.66 0 0 1 1.658-1.658h3.318a1.657 1.657 0 0 1 1.659 1.658v3.316a1.66 1.66 0 0 1-1.66 1.659h-3.317a1.663 1.663 0 0 1-1.658-1.659zm0-22.109a1.66 1.66 0 0 1 1.658-1.659h3.318a1.66 1.66 0 0 1 1.659 1.659v3.316a1.66 1.66 0 0 1-1.66 1.658h-3.317a1.66 1.66 0 0 1-1.658-1.658zm-15.482 3.316a1.66 1.66 0 0 1-1.659 1.658h-3.317a1.66 1.66 0 0 1-1.659-1.658v-3.316a1.66 1.66 0 0 1 1.659-1.659h3.317a1.663 1.663 0 0 1 1.659 1.659z"/><path fill="#222" d="M70.22 358.725v3.316a3.316 3.316 0 0 0 3.318 3.316h3.318a3.316 3.316 0 0 0 3.317-3.316v-3.316a3.317 3.317 0 0 0-3.317-3.317h-3.318a3.317 3.317 0 0 0-3.317 3.317" opacity=".2"/><path fill="#eff1f5" d="M774.082 280.789h-39.81c-9.771 0-17.693 7.919-17.693 17.688v88.437c0 9.769 7.922 17.688 17.693 17.688h39.81c9.772 0 17.694-7.919 17.694-17.688v-88.437c0-9.769-7.922-17.688-17.694-17.688"/><path stroke="#707070" stroke-width=".5" d="M774.082 281.342h-39.81c-9.466 0-17.14 7.671-17.14 17.135v88.437c0 9.463 7.674 17.135 17.14 17.135h39.81c9.467 0 17.141-7.672 17.141-17.135v-88.437c0-9.464-7.674-17.135-17.141-17.135Z"/><path fill="#222" d="M735.803 321.736c2.453-2.925 7.173-3.248 11.094-.978l18.947-23.864a1.663 1.663 0 0 1 2.949.839c.051.437-.074.876-.348 1.221l-1.241 1.563 4.89 4.104a1.66 1.66 0 0 1 .587 1.141 1.66 1.66 0 0 1-.403 1.218l-4.66 5.337a1.656 1.656 0 0 1-2.318.179l-4.565-3.831-1.375 1.733 4.523 3.794a1.67 1.67 0 0 1 .619 1.136 1.655 1.655 0 0 1-1.54 1.817 1.65 1.65 0 0 1-1.223-.424l-4.443-3.723-7.798 9.821a9.77 9.77 0 0 1 2.773 5.62 6.8 6.8 0 0 1-1.493 5.147 7.38 7.38 0 0 1-5.77 2.474 10.98 10.98 0 0 1-6.681-2.392 10.18 10.18 0 0 1-4.012-6.792 6.813 6.813 0 0 1 1.488-5.14m30.384-12.824 2.479-2.839-3.525-2.96-2.344 2.954zm-28.575 17.621a6.97 6.97 0 0 0 2.756 4.524c2.687 2.094 6.29 2.28 7.867.4a3.52 3.52 0 0 0 .734-2.668 6.97 6.97 0 0 0-2.758-4.522 7.73 7.73 0 0 0-4.657-1.702 4.09 4.09 0 0 0-3.207 1.302 3.524 3.524 0 0 0-.735 2.666M759.153 367.016h3.318a4.982 4.982 0 0 0 4.976-4.975v-3.316a4.98 4.98 0 0 0-4.976-4.975h-3.318a4.98 4.98 0 0 0-4.976 4.937h-8.846a4.981 4.981 0 0 0-4.977-4.937h-3.317a4.984 4.984 0 0 0-4.976 4.975v3.316a4.96 4.96 0 0 0 4.423 4.919v12.216a4.98 4.98 0 0 0 4.976 4.974h12.717a4.983 4.983 0 0 0 4.976 4.975h3.318a4.984 4.984 0 0 0 4.976-4.975v-3.316a4.98 4.98 0 0 0-4.976-4.975h-3.318a4.984 4.984 0 0 0-4.976 4.975H741.46a1.66 1.66 0 0 1-1.659-1.658v-12.16h.553a4.986 4.986 0 0 0 4.977-4.975v-.038h8.846v.038a4.983 4.983 0 0 0 4.976 4.975m-1.658 13.818a1.657 1.657 0 0 1 1.658-1.658h3.318a1.657 1.657 0 0 1 1.659 1.658v3.316a1.66 1.66 0 0 1-1.659 1.659h-3.318a1.664 1.664 0 0 1-1.658-1.659zm0-22.109a1.657 1.657 0 0 1 1.658-1.659h3.318a1.66 1.66 0 0 1 1.659 1.659v3.316a1.66 1.66 0 0 1-1.659 1.658h-3.318a1.66 1.66 0 0 1-1.658-1.658zm-15.482 3.316a1.66 1.66 0 0 1-1.659 1.658h-3.317a1.662 1.662 0 0 1-1.659-1.658v-3.316a1.66 1.66 0 0 1 1.659-1.659h3.317a1.664 1.664 0 0 1 1.659 1.659z"/><path fill="#222" d="M733.72 358.725v3.316a3.316 3.316 0 0 0 3.317 3.316h3.318a3.316 3.316 0 0 0 3.317-3.316v-3.316a3.317 3.317 0 0 0-3.317-3.317h-3.318a3.317 3.317 0 0 0-3.317 3.317" opacity=".2"/><path fill="#eff1f5" d="M194.626 280.789h-39.81c-9.771 0-17.693 7.919-17.693 17.688v88.437c0 9.769 7.922 17.688 17.693 17.688h39.81c9.772 0 17.694-7.919 17.694-17.688v-88.437c0-9.769-7.922-17.688-17.694-17.688"/><path stroke="#707070" stroke-width=".5" d="M194.626 281.342h-39.81c-9.466 0-17.14 7.671-17.14 17.135v88.437c0 9.463 7.674 17.135 17.14 17.135h39.81c9.466 0 17.14-7.672 17.14-17.135v-88.437c0-9.464-7.674-17.135-17.14-17.135Z"/><path fill="#222" d="M156.347 321.736c2.453-2.925 7.173-3.248 11.094-.978l18.947-23.864a1.663 1.663 0 0 1 2.949.839c.051.437-.074.876-.348 1.221l-1.241 1.563 4.89 4.104a1.66 1.66 0 0 1 .587 1.141 1.66 1.66 0 0 1-.403 1.218l-4.66 5.337a1.656 1.656 0 0 1-2.318.179l-4.565-3.831-1.375 1.733 4.523 3.794a1.67 1.67 0 0 1 .619 1.136 1.655 1.655 0 0 1-1.54 1.817 1.65 1.65 0 0 1-1.223-.424l-4.443-3.723-7.798 9.821a9.77 9.77 0 0 1 2.773 5.62 6.8 6.8 0 0 1-1.493 5.147 7.38 7.38 0 0 1-5.77 2.474 10.98 10.98 0 0 1-6.681-2.392 10.18 10.18 0 0 1-4.012-6.792 6.813 6.813 0 0 1 1.488-5.14m30.384-12.824 2.479-2.839-3.525-2.96-2.344 2.954zm-28.575 17.621a6.97 6.97 0 0 0 2.756 4.524c2.687 2.094 6.29 2.28 7.867.4a3.52 3.52 0 0 0 .734-2.668 6.97 6.97 0 0 0-2.758-4.522 7.73 7.73 0 0 0-4.657-1.702 4.09 4.09 0 0 0-3.207 1.302 3.524 3.524 0 0 0-.735 2.666M179.697 367.016h3.318a5 5 0 0 0 3.517-1.459 4.99 4.99 0 0 0 1.459-3.516v-3.316a4.984 4.984 0 0 0-4.976-4.975h-3.318a4.98 4.98 0 0 0-4.976 4.937h-8.847a4.98 4.98 0 0 0-4.976-4.937h-3.317a4.98 4.98 0 0 0-4.977 4.975v3.316a4.967 4.967 0 0 0 4.424 4.919v12.216a4.98 4.98 0 0 0 4.976 4.974h12.717a4.983 4.983 0 0 0 4.976 4.975h3.318a4.984 4.984 0 0 0 4.976-4.975v-3.316a4.99 4.99 0 0 0-1.459-3.516 5 5 0 0 0-3.517-1.459h-3.318a4.984 4.984 0 0 0-4.976 4.975h-12.717a1.66 1.66 0 0 1-1.659-1.658v-12.16h.553a4.977 4.977 0 0 0 4.976-4.975v-.038h8.847v.038a4.983 4.983 0 0 0 4.976 4.975m-1.658 13.818a1.657 1.657 0 0 1 1.658-1.658h3.318a1.657 1.657 0 0 1 1.659 1.658v3.316a1.66 1.66 0 0 1-1.659 1.659h-3.318a1.664 1.664 0 0 1-1.658-1.659zm0-22.109a1.657 1.657 0 0 1 1.658-1.659h3.318a1.66 1.66 0 0 1 1.659 1.659v3.316a1.66 1.66 0 0 1-1.659 1.658h-3.318a1.66 1.66 0 0 1-1.658-1.658zm-15.482 3.316a1.66 1.66 0 0 1-1.659 1.658h-3.317a1.66 1.66 0 0 1-1.659-1.658v-3.316a1.665 1.665 0 0 1 1.659-1.659h3.317a1.66 1.66 0 0 1 1.659 1.659z"/><path fill="#222" d="M154.264 358.725v3.316a3.316 3.316 0 0 0 3.317 3.316h3.318a3.316 3.316 0 0 0 3.317-3.316v-3.316a3.317 3.317 0 0 0-3.317-3.317h-3.318a3.317 3.317 0 0 0-3.317 3.317" opacity=".2"/><path fill="#eff1f5" d="M858.125 280.789h-39.81c-9.771 0-17.693 7.919-17.693 17.688v88.437c0 9.769 7.922 17.688 17.693 17.688h39.81c9.772 0 17.694-7.919 17.694-17.688v-88.437c0-9.769-7.922-17.688-17.694-17.688"/><path stroke="#707070" stroke-width=".5" d="M858.125 281.342h-39.81c-9.466 0-17.14 7.671-17.14 17.135v88.437c0 9.463 7.674 17.135 17.14 17.135h39.81c9.466 0 17.141-7.672 17.141-17.135v-88.437c0-9.464-7.675-17.135-17.141-17.135Z"/><path fill="#222" d="M819.846 321.736c2.453-2.925 7.173-3.248 11.094-.978l18.947-23.864a1.663 1.663 0 0 1 2.949.839c.051.437-.074.876-.348 1.221l-1.241 1.563 4.89 4.104a1.66 1.66 0 0 1 .587 1.141 1.66 1.66 0 0 1-.403 1.218l-4.66 5.337a1.656 1.656 0 0 1-2.318.179l-4.565-3.831-1.375 1.733 4.523 3.794a1.67 1.67 0 0 1 .619 1.136 1.655 1.655 0 0 1-1.54 1.817 1.65 1.65 0 0 1-1.223-.424l-4.443-3.723-7.798 9.821a9.77 9.77 0 0 1 2.773 5.62 6.8 6.8 0 0 1-1.493 5.147 7.38 7.38 0 0 1-5.77 2.474 10.98 10.98 0 0 1-6.681-2.392 10.18 10.18 0 0 1-4.012-6.792 6.813 6.813 0 0 1 1.488-5.14m30.384-12.824 2.479-2.839-3.525-2.96-2.344 2.954zm-28.575 17.621a6.97 6.97 0 0 0 2.756 4.524c2.687 2.094 6.29 2.28 7.867.4a3.52 3.52 0 0 0 .734-2.668 6.97 6.97 0 0 0-2.758-4.522 7.73 7.73 0 0 0-4.657-1.702 4.09 4.09 0 0 0-3.207 1.302 3.524 3.524 0 0 0-.735 2.666M843.196 367.016h3.318a4.982 4.982 0 0 0 4.976-4.975v-3.316a4.98 4.98 0 0 0-4.976-4.975h-3.318a4.98 4.98 0 0 0-4.976 4.937h-8.847a4.98 4.98 0 0 0-4.976-4.937h-3.317a4.984 4.984 0 0 0-4.976 4.975v3.316a4.96 4.96 0 0 0 4.423 4.919v12.216a4.98 4.98 0 0 0 4.976 4.974h12.717a4.983 4.983 0 0 0 4.976 4.975h3.318a4.984 4.984 0 0 0 4.976-4.975v-3.316a4.98 4.98 0 0 0-4.976-4.975h-3.318a4.984 4.984 0 0 0-4.976 4.975h-12.717a1.66 1.66 0 0 1-1.659-1.658v-12.16h.553a4.977 4.977 0 0 0 4.976-4.975v-.038h8.847v.038a4.983 4.983 0 0 0 4.976 4.975m-1.658 13.818a1.657 1.657 0 0 1 1.658-1.658h3.318a1.657 1.657 0 0 1 1.659 1.658v3.316a1.66 1.66 0 0 1-1.659 1.659h-3.318a1.664 1.664 0 0 1-1.658-1.659zm0-22.109a1.657 1.657 0 0 1 1.658-1.659h3.318a1.66 1.66 0 0 1 1.659 1.659v3.316a1.66 1.66 0 0 1-1.659 1.658h-3.318a1.66 1.66 0 0 1-1.658-1.658zm-15.482 3.316a1.66 1.66 0 0 1-1.659 1.658h-3.317a1.66 1.66 0 0 1-1.659-1.658v-3.316a1.665 1.665 0 0 1 1.659-1.659h3.317a1.664 1.664 0 0 1 1.659 1.659z"/><path fill="#222" d="M817.763 358.725v3.316a3.316 3.316 0 0 0 3.317 3.316h3.318a3.316 3.316 0 0 0 3.317-3.316v-3.316a3.317 3.317 0 0 0-3.317-3.317h-3.318a3.317 3.317 0 0 0-3.317 3.317" opacity=".2"/><path fill="#eff1f5" d="M389.252 280.789h-39.81c-9.771 0-17.693 7.919-17.693 17.688v88.437c0 9.769 7.922 17.688 17.693 17.688h39.81c9.772 0 17.694-7.919 17.694-17.688v-88.437c0-9.769-7.922-17.688-17.694-17.688"/><path stroke="#707070" stroke-width=".5" d="M389.252 281.342h-39.81c-9.466 0-17.14 7.671-17.14 17.135v88.437c0 9.463 7.674 17.135 17.14 17.135h39.81c9.466 0 17.14-7.672 17.14-17.135v-88.437c0-9.464-7.674-17.135-17.14-17.135Z"/><path fill="#222" d="M350.973 321.736c2.453-2.925 7.173-3.248 11.094-.978l18.947-23.864a1.663 1.663 0 0 1 2.949.839c.051.437-.075.876-.348 1.221l-1.241 1.563 4.89 4.104a1.66 1.66 0 0 1 .587 1.141 1.66 1.66 0 0 1-.403 1.218l-4.66 5.337a1.656 1.656 0 0 1-2.318.179l-4.565-3.831-1.375 1.733 4.522 3.794a1.656 1.656 0 0 1-1.574 2.865 1.65 1.65 0 0 1-.569-.336l-4.443-3.723-7.798 9.821a9.77 9.77 0 0 1 2.773 5.62 6.8 6.8 0 0 1-1.493 5.147 7.38 7.38 0 0 1-5.77 2.474 10.98 10.98 0 0 1-6.681-2.392 10.18 10.18 0 0 1-4.012-6.792 6.813 6.813 0 0 1 1.488-5.14m30.384-12.824 2.479-2.839-3.525-2.96-2.344 2.954zm-28.575 17.621a6.97 6.97 0 0 0 2.756 4.524c2.687 2.094 6.29 2.28 7.867.4a3.52 3.52 0 0 0 .734-2.668 6.97 6.97 0 0 0-2.758-4.522 7.74 7.74 0 0 0-4.657-1.702 4.09 4.09 0 0 0-3.207 1.302 3.524 3.524 0 0 0-.735 2.666M374.323 367.016h3.318a5 5 0 0 0 3.517-1.459 4.99 4.99 0 0 0 1.459-3.516v-3.316a4.984 4.984 0 0 0-4.976-4.975h-3.318a4.98 4.98 0 0 0-4.976 4.937H360.5a4.98 4.98 0 0 0-4.976-4.937h-3.317a4.98 4.98 0 0 0-4.977 4.975v3.316a4.967 4.967 0 0 0 4.424 4.919v12.216a4.98 4.98 0 0 0 4.976 4.974h12.717a4.983 4.983 0 0 0 4.976 4.975h3.318a4.984 4.984 0 0 0 4.976-4.975v-3.316a4.99 4.99 0 0 0-1.459-3.516 5 5 0 0 0-3.517-1.459h-3.318a4.984 4.984 0 0 0-4.976 4.975H356.63a1.66 1.66 0 0 1-1.659-1.658v-12.16h.553a4.977 4.977 0 0 0 4.976-4.975v-.038h8.847v.038a4.983 4.983 0 0 0 4.976 4.975m-1.658 13.818a1.657 1.657 0 0 1 1.658-1.658h3.318a1.657 1.657 0 0 1 1.659 1.658v3.316a1.66 1.66 0 0 1-1.659 1.659h-3.318a1.664 1.664 0 0 1-1.658-1.659zm0-22.109a1.657 1.657 0 0 1 1.658-1.659h3.318a1.66 1.66 0 0 1 1.659 1.659v3.316a1.66 1.66 0 0 1-1.659 1.658h-3.318a1.66 1.66 0 0 1-1.658-1.658zm-15.482 3.316a1.66 1.66 0 0 1-1.659 1.658h-3.317a1.66 1.66 0 0 1-1.659-1.658v-3.316a1.66 1.66 0 0 1 1.659-1.659h3.317a1.66 1.66 0 0 1 1.659 1.659z"/><path fill="#222" d="M348.89 358.725v3.316a3.316 3.316 0 0 0 3.317 3.316h3.318a3.316 3.316 0 0 0 3.317-3.316v-3.316a3.317 3.317 0 0 0-3.317-3.317h-3.318a3.317 3.317 0 0 0-3.317 3.317" opacity=".2"/><path fill="#eff1f5" d="M278.669 280.789h-39.81c-9.771 0-17.693 7.919-17.693 17.688v88.437c0 9.769 7.922 17.688 17.693 17.688h39.81c9.772 0 17.694-7.919 17.694-17.688v-88.437c0-9.769-7.922-17.688-17.694-17.688"/><path stroke="#707070" stroke-width=".5" d="M278.669 281.342h-39.81c-9.466 0-17.14 7.671-17.14 17.135v88.437c0 9.463 7.674 17.135 17.14 17.135h39.81c9.466 0 17.14-7.672 17.14-17.135v-88.437c0-9.464-7.674-17.135-17.14-17.135Z"/><path fill="#222" d="M240.39 321.736c2.453-2.925 7.173-3.248 11.094-.978l18.947-23.864a1.663 1.663 0 0 1 2.949.839c.051.437-.075.876-.348 1.221l-1.241 1.563 4.89 4.104a1.66 1.66 0 0 1 .587 1.141 1.66 1.66 0 0 1-.403 1.218l-4.66 5.337a1.656 1.656 0 0 1-2.318.179l-4.565-3.831-1.375 1.733 4.522 3.794a1.656 1.656 0 0 1-1.574 2.865 1.65 1.65 0 0 1-.569-.336l-4.443-3.723-7.798 9.821a9.77 9.77 0 0 1 2.773 5.62 6.8 6.8 0 0 1-1.493 5.147 7.38 7.38 0 0 1-5.77 2.474 10.98 10.98 0 0 1-6.681-2.392 10.18 10.18 0 0 1-4.012-6.792 6.813 6.813 0 0 1 1.488-5.14m30.384-12.824 2.479-2.839-3.525-2.96-2.344 2.954zm-28.575 17.621a6.97 6.97 0 0 0 2.756 4.524c2.687 2.094 6.29 2.28 7.867.4a3.52 3.52 0 0 0 .734-2.668 6.97 6.97 0 0 0-2.758-4.522 7.74 7.74 0 0 0-4.657-1.702 4.09 4.09 0 0 0-3.207 1.302 3.524 3.524 0 0 0-.735 2.666M263.74 367.016h3.318a5 5 0 0 0 3.517-1.459 4.99 4.99 0 0 0 1.459-3.516v-3.316a4.984 4.984 0 0 0-4.976-4.975h-3.318a4.98 4.98 0 0 0-4.976 4.937h-8.847a4.98 4.98 0 0 0-4.976-4.937h-3.317a4.98 4.98 0 0 0-4.977 4.975v3.316a4.967 4.967 0 0 0 4.424 4.919v12.216a4.98 4.98 0 0 0 4.976 4.974h12.717a4.983 4.983 0 0 0 4.976 4.975h3.318a4.984 4.984 0 0 0 4.976-4.975v-3.316a4.99 4.99 0 0 0-1.459-3.516 5 5 0 0 0-3.517-1.459h-3.318a4.984 4.984 0 0 0-4.976 4.975h-12.717a1.66 1.66 0 0 1-1.659-1.658v-12.16h.553a4.977 4.977 0 0 0 4.976-4.975v-.038h8.847v.038a4.983 4.983 0 0 0 4.976 4.975m-1.658 13.818a1.657 1.657 0 0 1 1.658-1.658h3.318a1.657 1.657 0 0 1 1.659 1.658v3.316a1.66 1.66 0 0 1-1.659 1.659h-3.318a1.664 1.664 0 0 1-1.658-1.659zm0-22.109a1.657 1.657 0 0 1 1.658-1.659h3.318a1.66 1.66 0 0 1 1.659 1.659v3.316a1.66 1.66 0 0 1-1.659 1.658h-3.318a1.66 1.66 0 0 1-1.658-1.658zm-15.482 3.316a1.66 1.66 0 0 1-1.659 1.658h-3.317a1.66 1.66 0 0 1-1.659-1.658v-3.316a1.66 1.66 0 0 1 1.659-1.659h3.317a1.66 1.66 0 0 1 1.659 1.659z"/><path fill="#222" d="M238.307 358.725v3.316a3.316 3.316 0 0 0 3.317 3.316h3.318a3.316 3.316 0 0 0 3.317-3.316v-3.316a3.317 3.317 0 0 0-3.317-3.317h-3.318a3.317 3.317 0 0 0-3.317 3.317" opacity=".2"/><path fill="#eff1f5" d="M942.168 280.789h-39.81c-9.771 0-17.693 7.919-17.693 17.688v88.437c0 9.769 7.922 17.688 17.693 17.688h39.81c9.772 0 17.694-7.919 17.694-17.688v-88.437c0-9.769-7.922-17.688-17.694-17.688"/><path stroke="#707070" stroke-width=".5" d="M942.168 281.342h-39.81c-9.466 0-17.14 7.671-17.14 17.135v88.437c0 9.463 7.674 17.135 17.14 17.135h39.81c9.466 0 17.14-7.672 17.14-17.135v-88.437c0-9.464-7.674-17.135-17.14-17.135Z"/><path fill="#222" d="M903.889 321.736c2.453-2.925 7.173-3.248 11.094-.978l18.947-23.864a1.663 1.663 0 0 1 2.949.839c.051.437-.074.876-.348 1.221l-1.241 1.563 4.89 4.104a1.66 1.66 0 0 1 .587 1.141 1.66 1.66 0 0 1-.403 1.218l-4.66 5.337a1.656 1.656 0 0 1-2.318.179l-4.565-3.831-1.375 1.733 4.523 3.794a1.67 1.67 0 0 1 .619 1.136 1.655 1.655 0 0 1-1.54 1.817 1.65 1.65 0 0 1-1.223-.424l-4.443-3.723-7.798 9.821a9.77 9.77 0 0 1 2.773 5.62 6.8 6.8 0 0 1-1.493 5.147 7.38 7.38 0 0 1-5.77 2.474 10.98 10.98 0 0 1-6.681-2.392 10.18 10.18 0 0 1-4.012-6.792 6.813 6.813 0 0 1 1.488-5.14m30.384-12.824 2.479-2.839-3.525-2.96-2.344 2.954zm-28.575 17.621a6.97 6.97 0 0 0 2.756 4.524c2.687 2.094 6.29 2.28 7.867.4a3.52 3.52 0 0 0 .734-2.668 6.97 6.97 0 0 0-2.758-4.522 7.73 7.73 0 0 0-4.657-1.702 4.09 4.09 0 0 0-3.207 1.302 3.524 3.524 0 0 0-.735 2.666M927.239 367.016h3.318a5 5 0 0 0 3.517-1.459 4.99 4.99 0 0 0 1.459-3.516v-3.316a4.984 4.984 0 0 0-4.976-4.975h-3.318a4.98 4.98 0 0 0-4.976 4.937h-8.847a4.98 4.98 0 0 0-4.976-4.937h-3.317a4.98 4.98 0 0 0-4.977 4.975v3.316a4.967 4.967 0 0 0 4.424 4.919v12.216a4.98 4.98 0 0 0 4.976 4.974h12.717a4.983 4.983 0 0 0 4.976 4.975h3.318a4.984 4.984 0 0 0 4.976-4.975v-3.316a4.99 4.99 0 0 0-1.459-3.516 5 5 0 0 0-3.517-1.459h-3.318a4.984 4.984 0 0 0-4.976 4.975h-12.717a1.66 1.66 0 0 1-1.659-1.658v-12.16h.553a4.977 4.977 0 0 0 4.976-4.975v-.038h8.847v.038a4.983 4.983 0 0 0 4.976 4.975m-1.658 13.818a1.657 1.657 0 0 1 1.658-1.658h3.318a1.657 1.657 0 0 1 1.659 1.658v3.316a1.66 1.66 0 0 1-1.659 1.659h-3.318a1.664 1.664 0 0 1-1.658-1.659zm0-22.109a1.657 1.657 0 0 1 1.658-1.659h3.318a1.66 1.66 0 0 1 1.659 1.659v3.316a1.66 1.66 0 0 1-1.659 1.658h-3.318a1.66 1.66 0 0 1-1.658-1.658zm-15.482 3.316a1.66 1.66 0 0 1-1.659 1.658h-3.317a1.66 1.66 0 0 1-1.659-1.658v-3.316a1.665 1.665 0 0 1 1.659-1.659h3.317a1.66 1.66 0 0 1 1.659 1.659z"/><path fill="#222" d="M901.806 358.725v3.316a3.316 3.316 0 0 0 3.317 3.316h3.318a3.316 3.316 0 0 0 3.317-3.316v-3.316a3.317 3.317 0 0 0-3.317-3.317h-3.318a3.317 3.317 0 0 0-3.317 3.317" opacity=".2"/><path fill="#eff1f5" d="M473.296 280.789h-39.81c-9.771 0-17.693 7.919-17.693 17.688v88.437c0 9.769 7.922 17.688 17.693 17.688h39.81c9.772 0 17.694-7.919 17.694-17.688v-88.437c0-9.769-7.922-17.688-17.694-17.688"/><path stroke="#707070" stroke-width=".5" d="M473.296 281.342h-39.81c-9.466 0-17.14 7.671-17.14 17.135v88.437c0 9.463 7.674 17.135 17.14 17.135h39.81c9.466 0 17.14-7.672 17.14-17.135v-88.437c0-9.464-7.674-17.135-17.14-17.135Z"/><path fill="#222" d="M435.017 321.736c2.453-2.925 7.173-3.248 11.094-.978l18.947-23.864a1.663 1.663 0 0 1 2.949.839c.051.437-.075.876-.348 1.221l-1.241 1.563 4.89 4.104a1.66 1.66 0 0 1 .587 1.141 1.66 1.66 0 0 1-.403 1.218l-4.66 5.337a1.656 1.656 0 0 1-2.318.179l-4.565-3.831-1.375 1.733 4.522 3.794a1.656 1.656 0 0 1-1.575 2.865 1.65 1.65 0 0 1-.568-.336l-4.443-3.723-7.798 9.821a9.77 9.77 0 0 1 2.773 5.62 6.8 6.8 0 0 1-1.493 5.147 7.38 7.38 0 0 1-5.77 2.474 10.98 10.98 0 0 1-6.681-2.392 10.18 10.18 0 0 1-4.012-6.792 6.8 6.8 0 0 1 .219-2.722 6.8 6.8 0 0 1 1.269-2.418m30.384-12.824 2.479-2.839-3.525-2.96-2.344 2.954zm-28.575 17.621a6.97 6.97 0 0 0 2.756 4.524c2.687 2.094 6.29 2.28 7.867.4a3.52 3.52 0 0 0 .734-2.668 6.97 6.97 0 0 0-2.758-4.522 7.74 7.74 0 0 0-4.658-1.702 4.08 4.08 0 0 0-3.206 1.302 3.524 3.524 0 0 0-.735 2.666M458.367 367.016h3.318a5 5 0 0 0 3.517-1.459 4.99 4.99 0 0 0 1.459-3.516v-3.316a4.984 4.984 0 0 0-4.976-4.975h-3.318a4.98 4.98 0 0 0-4.976 4.937h-8.847a4.98 4.98 0 0 0-4.976-4.937h-3.317a4.98 4.98 0 0 0-4.977 4.975v3.316a4.967 4.967 0 0 0 4.424 4.919v12.216a4.98 4.98 0 0 0 4.976 4.974h12.717a4.984 4.984 0 0 0 4.976 4.975h3.318a4.984 4.984 0 0 0 4.976-4.975v-3.316a4.99 4.99 0 0 0-1.459-3.516 5 5 0 0 0-3.517-1.459h-3.318a5 5 0 0 0-3.517 1.459 4.99 4.99 0 0 0-1.459 3.516h-12.717a1.66 1.66 0 0 1-1.659-1.658v-12.16h.553a4.977 4.977 0 0 0 4.976-4.975v-.038h8.847v.038a4.99 4.99 0 0 0 1.459 3.516 5 5 0 0 0 3.517 1.459m-1.658 13.818a1.657 1.657 0 0 1 1.658-1.658h3.318a1.657 1.657 0 0 1 1.659 1.658v3.316a1.66 1.66 0 0 1-1.659 1.659h-3.318a1.664 1.664 0 0 1-1.658-1.659zm0-22.109a1.657 1.657 0 0 1 1.658-1.659h3.318a1.66 1.66 0 0 1 1.659 1.659v3.316a1.66 1.66 0 0 1-1.659 1.658h-3.318a1.66 1.66 0 0 1-1.658-1.658zm-15.482 3.316a1.66 1.66 0 0 1-1.659 1.658h-3.317a1.66 1.66 0 0 1-1.659-1.658v-3.316a1.657 1.657 0 0 1 1.659-1.659h3.317a1.66 1.66 0 0 1 1.659 1.659z"/><path fill="#222" d="M432.934 358.725v3.316a3.316 3.316 0 0 0 3.317 3.316h3.318a3.316 3.316 0 0 0 3.317-3.316v-3.316a3.317 3.317 0 0 0-3.317-3.317h-3.318a3.317 3.317 0 0 0-3.317 3.317" opacity=".2"/><path fill="#eff1f5" d="M962.073 439.977H66.35c-9.772 0-17.694 7.919-17.694 17.687v39.797c0 9.768 7.922 17.687 17.694 17.687h895.723c9.772 0 17.693-7.919 17.693-17.687v-39.797c0-9.768-7.921-17.687-17.693-17.687"/><path stroke="#707070" stroke-width=".5" d="M962.073 440.529H66.349c-9.466 0-17.14 7.672-17.14 17.135v39.797c0 9.463 7.674 17.135 17.14 17.135h895.724c9.466 0 17.14-7.672 17.14-17.135v-39.797c0-9.463-7.674-17.135-17.14-17.135Z"/><path fill="#464646" d="M444.385 474.799a2.211 2.211 0 1 0 0-4.422 2.211 2.211 0 0 0 0 4.422"/><path fill="#464646" d="M466.66 462.086h-37.598a1.103 1.103 0 0 0-1.106 1.105v28.743a1.105 1.105 0 0 0 1.106 1.105h37.598a1.103 1.103 0 0 0 1.106-1.105v-28.743a1.105 1.105 0 0 0-1.106-1.105m-34.281 4.422h17.694v14.033a9.45 9.45 0 0 0-3.846-1.243c-1.827 0-2.654 2.432-4.481 2.432s-3.247-4.813-5.074-4.813c-1.661-.005-4.293 4.868-4.293 4.868zm30.964 22.109h-30.964v-2.211h30.964zm0-6.633h-8.847v-2.211h8.847zm0-6.632h-8.847v-2.211h8.847zm0-6.633h-8.847v-2.211h8.847zM512.013 500.777a1.106 1.106 0 0 0 1.106 1.106h2.211a1.11 1.11 0 0 0 1.106-1.106v-9.949h-4.423zM527.021 476.614q-.404 0-.803.046a9 9 0 0 0-.998-7.113 9.011 9.011 0 0 0-12.913-2.624 9.01 9.01 0 0 0-3.696 6.16 7.593 7.593 0 0 0-9.287 5.362 7.6 7.6 0 0 0-.002 3.924 4.265 4.265 0 0 0-4.997 3.826 4.25 4.25 0 0 0 1.108 3.254 4.26 4.26 0 0 0 3.15 1.379h13.429v-6.633h-4.755a.773.773 0 0 1-.774-.774.77.77 0 0 1 .221-.552l7.16-6.273a.555.555 0 0 1 .718 0l7.162 6.273a.75.75 0 0 1 .221.541.773.773 0 0 1-.774.774h-4.755v6.633h10.585a7.11 7.11 0 0 0 7.109-7.107 7.11 7.11 0 0 0-7.109-7.107zM597.148 488.617h-2.212a1.11 1.11 0 0 0-1.106 1.106v5.527h-26.539v-5.527a1.106 1.106 0 0 0-1.106-1.106h-2.212a1.11 1.11 0 0 0-1.106 1.106v8.843a1.106 1.106 0 0 0 1.106 1.106h33.175a1.11 1.11 0 0 0 1.106-1.106v-8.843a1.106 1.106 0 0 0-1.106-1.106"/><path fill="#464646" d="M580.173 491.774a.553.553 0 0 0 .775 0l8.238-8.319a.885.885 0 0 0-.663-1.471h-5.751v-16.582c0-.293-.116-.574-.324-.781a1.1 1.1 0 0 0-.782-.324h-2.211c-.294 0-.575.116-.782.324a1.1 1.1 0 0 0-.324.781v16.582h-5.75a.885.885 0 0 0-.664 1.466z"/></g></g><defs><clipPath id="a"><path fill="#fff" d="M0 0h1024v566H0z"/></clipPath></defs></svg>