<svg xmlns="http://www.w3.org/2000/svg" width="1024" height="332" fill="none" viewBox="0 0 1024 332"><g clip-path="url(#a)"><mask id="b" width="1024" height="332" x="0" y="0" maskUnits="userSpaceOnUse" style="mask-type:luminance"><path fill="#fff" d="M1024 0H0v332h1024z"/></mask><g mask="url(#b)"><path fill="#fff" d="M1024 0H0v332h1024z"/><path fill="#eff1f5" d="M265.4 44.267H61.927c-9.772 0-17.694 7.927-17.694 17.706v205.84c0 9.779 7.922 17.707 17.694 17.707H265.4c9.771 0 17.693-7.928 17.693-17.707V61.973c0-9.779-7.922-17.706-17.693-17.706"/><path stroke="#707070" stroke-width=".5" d="M265.4 44.82H61.927c-9.467 0-17.14 7.68-17.14 17.153v205.84c0 9.474 7.673 17.153 17.14 17.153H265.4c9.466 0 17.14-7.679 17.14-17.153V61.973c0-9.473-7.674-17.153-17.14-17.153Z"/><path fill="#eff1f5" d="M256.553 57.546H70.773c-9.771 0-17.693 7.928-17.693 17.707v81.893c0 9.78 7.922 17.707 17.693 17.707h185.78c9.772 0 17.693-7.927 17.693-17.707V75.253c0-9.78-7.921-17.707-17.693-17.707"/><path stroke="#707070" stroke-width=".5" d="M256.553 58.1H70.773c-9.466 0-17.14 7.68-17.14 17.153v81.893c0 9.474 7.674 17.154 17.14 17.154h185.78c9.466 0 17.14-7.68 17.14-17.154V75.253c0-9.474-7.674-17.153-17.14-17.153Z"/><path fill="#eff1f5" d="M101.737 181.493H70.773c-9.771 0-17.693 7.928-17.693 17.707v53.12c0 9.779 7.922 17.706 17.693 17.706h30.964c9.771 0 17.693-7.927 17.693-17.706V199.2c0-9.779-7.922-17.707-17.693-17.707"/><path stroke="#707070" stroke-width=".5" d="M101.736 182.046H70.773c-9.466 0-17.14 7.68-17.14 17.154v53.12c0 9.473 7.674 17.153 17.14 17.153h30.963c9.467 0 17.141-7.68 17.141-17.153V199.2c0-9.474-7.674-17.154-17.141-17.154Z"/><path fill="#000" d="M102.301 79.68c0-4.723-8.9-7.193-17.694-7.193s-17.693 2.47-17.693 7.193q.012.223.05.443a1.6 1.6 0 0 0-.05.245v21.999c0 4.564 9.172 6.64 17.693 6.64s17.694-2.076 17.694-6.64V80.368a1.6 1.6 0 0 0-.051-.254q.039-.216.051-.434m-3.318 11.61c-.203.918-4.927 3.33-14.376 3.33s-14.176-2.415-14.375-3.32v-7.25a32.2 32.2 0 0 0 14.375 2.824 32.2 32.2 0 0 0 14.376-2.825zM84.607 75.806c9.486 0 14.376 2.716 14.376 3.873s-4.89 3.873-14.376 3.873-14.375-2.715-14.375-3.873c0-1.157 4.89-3.873 14.375-3.873m0 29.88c-9.45 0-14.176-2.415-14.375-3.32v-6.981a34.95 34.95 0 0 0 14.375 2.554c4.918.17 9.817-.7 14.376-2.554v6.968c-.201.918-4.927 3.333-14.376 3.333M102.301 121.733c0-4.723-8.9-7.193-17.694-7.193s-17.693 2.47-17.693 7.193q.012.224.05.443-.035.12-.05.246v21.998c0 4.564 9.172 6.64 17.693 6.64s17.694-2.076 17.694-6.64v-21.998a1.6 1.6 0 0 0-.051-.255q.039-.215.051-.434m-3.318 11.609c-.203.919-4.927 3.331-14.376 3.331s-14.176-2.414-14.375-3.32v-7.251a32.2 32.2 0 0 0 14.375 2.825 32.2 32.2 0 0 0 14.376-2.825zM84.607 117.86c9.486 0 14.376 2.716 14.376 3.873s-4.89 3.874-14.376 3.874-14.375-2.716-14.375-3.874 4.89-3.873 14.375-3.873m0 29.88c-9.45 0-14.176-2.415-14.375-3.32v-6.981a34.9 34.9 0 0 0 14.375 2.554c4.918.171 9.817-.7 14.376-2.554v6.968c-.201.918-4.927 3.333-14.376 3.333"/><path fill="#222" d="M213.85 96.324c2.453-2.928 7.173-3.251 11.094-.978l18.947-23.89a1.66 1.66 0 0 1 2.331-.27 1.663 1.663 0 0 1 .27 2.332l-1.241 1.565 4.89 4.108a1.66 1.66 0 0 1 .184 2.362l-4.66 5.343a1.66 1.66 0 0 1-2.318.179l-4.565-3.836-1.375 1.735 4.522 3.798a1.658 1.658 0 1 1-2.143 2.532l-4.443-3.727-7.798 9.832a9.8 9.8 0 0 1 2.773 5.626 6.82 6.82 0 0 1-1.493 5.153 7.39 7.39 0 0 1-5.77 2.477 10.97 10.97 0 0 1-6.681-2.395 10.194 10.194 0 0 1-4.012-6.8 6.8 6.8 0 0 1 .219-2.725 6.8 6.8 0 0 1 1.269-2.42m30.384-12.837 2.479-2.842-3.525-2.963-2.344 2.956zm-28.575 17.64a6.98 6.98 0 0 0 2.756 4.529c2.687 2.096 6.29 2.282 7.867.4a3.52 3.52 0 0 0 .734-2.671 6.98 6.98 0 0 0-2.758-4.526 7.74 7.74 0 0 0-4.658-1.705 4.08 4.08 0 0 0-3.206 1.304 3.528 3.528 0 0 0-.735 2.669M213.85 138.378c2.453-2.929 7.173-3.252 11.094-.979l18.947-23.89a1.66 1.66 0 1 1 2.601 2.062l-1.241 1.565 4.89 4.108a1.67 1.67 0 0 1 .587 1.142 1.67 1.67 0 0 1-.403 1.22l-4.66 5.343a1.66 1.66 0 0 1-2.318.179l-4.565-3.836-1.375 1.736 4.522 3.798a1.656 1.656 0 0 1 .235 2.373 1.66 1.66 0 0 1-2.378.159l-4.443-3.728-7.798 9.832a9.8 9.8 0 0 1 2.773 5.626 6.82 6.82 0 0 1-1.493 5.153 7.376 7.376 0 0 1-5.77 2.477 10.97 10.97 0 0 1-6.681-2.395 10.2 10.2 0 0 1-4.012-6.799 6.82 6.82 0 0 1 1.488-5.146m30.384-12.838 2.479-2.842-3.525-2.963-2.344 2.957zm-28.575 17.641a6.98 6.98 0 0 0 2.756 4.528c2.687 2.096 6.29 2.282 7.867.401a3.54 3.54 0 0 0 .734-2.672 6.97 6.97 0 0 0-2.758-4.526 7.73 7.73 0 0 0-4.658-1.704 4.08 4.08 0 0 0-3.206 1.303 3.532 3.532 0 0 0-.735 2.67M176.423 89.572l-6.646-6.64a1.66 1.66 0 0 0-2.305.031 1.66 1.66 0 0 0-.049 2.306l3.782 3.785h-27.999a1.66 1.66 0 0 0-1.659 1.66 1.66 1.66 0 0 0 1.659 1.66h28.072l-3.855 3.85a1.662 1.662 0 0 0 1.174 2.835c.44 0 .862-.174 1.173-.486l6.646-6.653a1.67 1.67 0 0 0 .486-1.174 1.67 1.67 0 0 0-.486-1.174zM176.423 131.625l-6.646-6.64a1.658 1.658 0 0 0-2.794 1.174c-.01.43.148.847.44 1.163l3.782 3.785h-27.999a1.66 1.66 0 0 0 0 3.32h28.072l-3.855 3.851a1.661 1.661 0 0 0 1.174 2.835c.44 0 .862-.175 1.173-.487l6.646-6.653a1.67 1.67 0 0 0 .36-1.81 1.7 1.7 0 0 0-.36-.538z"/><path fill="#eff1f5" d="M256.553 181.493H141.547c-9.772 0-17.693 7.928-17.693 17.707v53.12c0 9.779 7.921 17.706 17.693 17.706h115.006c9.772 0 17.694-7.927 17.694-17.706V199.2c0-9.779-7.922-17.707-17.694-17.707"/><path stroke="#707070" stroke-width=".5" d="M256.553 182.046H141.547c-9.467 0-17.141 7.68-17.141 17.154v53.12c0 9.473 7.674 17.153 17.141 17.153h115.006c9.467 0 17.141-7.68 17.141-17.153V199.2c0-9.474-7.674-17.154-17.141-17.154Z"/><path fill="#000" d="M170.555 244.573h-16.588a1.66 1.66 0 0 1 0-3.32h16.588a1.66 1.66 0 0 1 0 3.32M141.763 215.441a1.66 1.66 0 0 1-1.269-2.727l6.046-7.204a1.66 1.66 0 0 1 1.771-.512c.208.066.401.172.567.313a1.676 1.676 0 0 1 .584 1.128 1.67 1.67 0 0 1-.385 1.211l-6.04 7.2c-.155.186-.35.336-.57.438-.22.103-.459.156-.702.155zM163.46 233.465a1.67 1.67 0 0 1-1.5-.961 1.66 1.66 0 0 1 .23-1.766l6.042-7.207a1.66 1.66 0 1 1 2.542 2.136l-6.043 7.215a1.66 1.66 0 0 1-1.271.594zM163.922 217.34l-7.624-6.403a4.965 4.965 0 0 0-5.496-.605 5 5 0 0 0-1.515 1.216l-2.132 2.545a4.99 4.99 0 0 0 .587 6.985 5341 5341 0 0 1-12.587 14.496l-1.064 1.223a4.695 4.695 0 0 0 4.009 7.589 4.7 4.7 0 0 0 3.164-1.544l.57-.664c1.98-2.269 8.581-9.849 12.815-14.752a1.7 1.7 0 0 0 .221-.376l.533.443a4.94 4.94 0 0 0 3.189 1.162c.146 0 .296 0 .442-.02a4.96 4.96 0 0 0 3.369-1.729l2.134-2.541a5 5 0 0 0 1.145-3.635 4.974 4.974 0 0 0-1.76-3.381zm-11.784 7.93c-4.231 4.899-10.837 12.473-12.805 14.741l-.6.689a1.375 1.375 0 0 1-1.934.18 1.375 1.375 0 0 1-.18-1.936l1.035-1.188c2.473-2.829 8.703-9.996 12.626-14.54l2.163 1.818q-.166.1-.303.236zm9.858-3.05-2.135 2.544a1.65 1.65 0 0 1-1.77.515 1.6 1.6 0 0 1-.567-.312l-7.622-6.401a1.66 1.66 0 0 1-.586-1.127 1.66 1.66 0 0 1 .381-1.212l2.132-2.546a1.66 1.66 0 0 1 1.125-.584c.438-.036.872.102 1.21.383l7.637 6.403a1.657 1.657 0 0 1 .206 2.337zM216.18 244.573h-16.588a1.66 1.66 0 0 1 0-3.32h16.588a1.66 1.66 0 0 1 0 3.32M187.388 215.441a1.66 1.66 0 0 1-1.269-2.727l6.046-7.204a1.66 1.66 0 0 1 1.771-.512c.208.066.401.172.567.313a1.676 1.676 0 0 1 .584 1.128 1.67 1.67 0 0 1-.385 1.211l-6.04 7.2c-.155.186-.35.336-.57.438-.22.103-.459.156-.702.155zM209.085 233.465a1.67 1.67 0 0 1-1.5-.961 1.66 1.66 0 0 1 .23-1.766l6.042-7.207a1.66 1.66 0 1 1 2.542 2.136l-6.043 7.215a1.66 1.66 0 0 1-1.271.594zM209.547 217.34l-7.624-6.403a4.965 4.965 0 0 0-5.496-.605 5 5 0 0 0-1.515 1.216l-2.132 2.545a4.99 4.99 0 0 0 .587 6.985 5341 5341 0 0 1-12.587 14.496l-1.064 1.223a4.695 4.695 0 0 0 4.009 7.589 4.7 4.7 0 0 0 3.164-1.544l.57-.664c1.98-2.269 8.581-9.849 12.815-14.752a1.7 1.7 0 0 0 .221-.376l.533.443a4.94 4.94 0 0 0 3.189 1.162c.146 0 .296 0 .442-.02a4.96 4.96 0 0 0 3.369-1.729l2.134-2.541a5 5 0 0 0 1.145-3.635 4.974 4.974 0 0 0-1.76-3.381zm-11.784 7.93c-4.231 4.899-10.837 12.473-12.805 14.741l-.6.689a1.375 1.375 0 0 1-1.934.18 1.375 1.375 0 0 1-.18-1.936l1.035-1.188c2.473-2.829 8.703-9.996 12.626-14.54l2.163 1.818q-.166.1-.303.236zm9.858-3.05-2.135 2.544a1.65 1.65 0 0 1-1.77.515 1.6 1.6 0 0 1-.567-.312l-7.622-6.401a1.66 1.66 0 0 1-.586-1.127 1.66 1.66 0 0 1 .381-1.212l2.132-2.546a1.66 1.66 0 0 1 1.125-.584c.438-.036.872.102 1.21.383l7.637 6.403a1.657 1.657 0 0 1 .206 2.337zM260.412 244.573h-16.587a1.66 1.66 0 0 1 0-3.32h16.587a1.66 1.66 0 0 1 0 3.32M231.621 215.441a1.66 1.66 0 0 1-1.5-.96 1.66 1.66 0 0 1 .23-1.767l6.047-7.204a1.647 1.647 0 0 1 1.771-.512 1.66 1.66 0 0 1 .766 2.652l-6.04 7.2a1.66 1.66 0 0 1-1.272.593zM253.317 233.465a1.67 1.67 0 0 1-1.499-.961 1.65 1.65 0 0 1 .23-1.766l6.042-7.207a1.658 1.658 0 0 1 2.923.924c.039.439-.099.875-.382 1.212l-6.042 7.215c-.156.186-.35.336-.57.439a1.7 1.7 0 0 1-.702.155zM253.779 217.34l-7.623-6.403a4.97 4.97 0 0 0-7.011.611l-2.132 2.545a4.984 4.984 0 0 0 .586 6.985 5009 5009 0 0 1-12.587 14.496l-1.063 1.223a4.697 4.697 0 0 0 4.009 7.589 4.7 4.7 0 0 0 3.163-1.544l.571-.664c1.979-2.269 8.581-9.849 12.814-14.752q.136-.173.221-.376l.533.443a4.94 4.94 0 0 0 3.189 1.162c.146 0 .297 0 .443-.02a4.95 4.95 0 0 0 3.368-1.729l2.134-2.541a4.97 4.97 0 0 0 1.145-3.635 4.98 4.98 0 0 0-1.76-3.381zm-11.783 7.93c-4.231 4.899-10.837 12.473-12.806 14.741l-.599.689a1.374 1.374 0 1 1-2.115-1.756l1.036-1.188c2.472-2.829 8.702-9.996 12.626-14.54l2.163 1.818q-.166.1-.303.236zm9.857-3.05-2.134 2.544a1.67 1.67 0 0 1-1.127.586 1.65 1.65 0 0 1-1.211-.383l-7.621-6.401a1.663 1.663 0 0 1-.206-2.339l2.132-2.546a1.65 1.65 0 0 1 1.126-.584c.438-.036.872.102 1.21.383l7.636 6.403a1.657 1.657 0 0 1 .206 2.337z"/><path fill="#222" d="M93.443 208.053h3.317a4.98 4.98 0 0 0 4.976-4.98v-3.32a4.99 4.99 0 0 0-4.976-4.98h-3.318a4.98 4.98 0 0 0-4.976 4.943H79.62a4.987 4.987 0 0 0-4.977-4.943h-3.317a4.989 4.989 0 0 0-4.976 4.98v3.32a4.964 4.964 0 0 0 4.423 4.925v12.229a4.987 4.987 0 0 0 4.976 4.98h12.717a4.987 4.987 0 0 0 4.977 4.98h3.317a4.98 4.98 0 0 0 4.976-4.98v-3.32a4.985 4.985 0 0 0-4.976-4.98h-3.318a4.984 4.984 0 0 0-4.976 4.98H75.75a1.663 1.663 0 0 1-1.659-1.66v-12.174h.553a4.98 4.98 0 0 0 3.517-1.46 5 5 0 0 0 1.46-3.52v-.037h8.846v.037a5 5 0 0 0 1.46 3.52 4.98 4.98 0 0 0 3.516 1.46m-1.66 13.834a1.663 1.663 0 0 1 1.66-1.66h3.317a1.662 1.662 0 0 1 1.659 1.66v3.32a1.66 1.66 0 0 1-1.659 1.66h-3.318a1.663 1.663 0 0 1-1.658-1.66zm0-22.134a1.663 1.663 0 0 1 1.66-1.66h3.317a1.663 1.663 0 0 1 1.659 1.66v3.32a1.658 1.658 0 0 1-1.659 1.66h-3.318a1.66 1.66 0 0 1-1.658-1.66zm-15.48 3.32a1.658 1.658 0 0 1-1.659 1.66h-3.318a1.66 1.66 0 0 1-1.659-1.66v-3.32a1.66 1.66 0 0 1 1.659-1.66h3.317a1.663 1.663 0 0 1 1.66 1.66z"/><path fill="#222" d="M68.009 199.754v3.32a3.32 3.32 0 0 0 3.317 3.32h3.318a3.32 3.32 0 0 0 3.317-3.32v-3.32a3.32 3.32 0 0 0-3.317-3.32h-3.318a3.32 3.32 0 0 0-3.317 3.32" opacity=".2"/><path fill="#eff1f5" d="M105.054 234.613H67.456c-6.108 0-11.059 4.955-11.059 11.067s4.951 11.067 11.059 11.067h37.598c6.107 0 11.058-4.955 11.058-11.067s-4.951-11.067-11.058-11.067"/><path fill="#000" d="M67.683 245.37a2.213 2.213 0 1 0-.002-4.429 2.213 2.213 0 0 0 .002 4.429"/><path fill="#000" d="M78.131 239.04H59.365a.514.514 0 0 0-.553.472v12.244a.515.515 0 0 0 .553.471h18.766a.515.515 0 0 0 .553-.471v-12.244a.515.515 0 0 0-.553-.472m-17.107 1.884h8.827v5.976a5.3 5.3 0 0 0-1.92-.529c-.913 0-1.327 1.035-2.236 1.035s-1.621-2.049-2.532-2.049c-.83 0-2.143 2.074-2.143 2.074zm15.45 9.42h-15.45v-.943h15.45zm0-2.827h-4.422v-.952h4.423zm0-2.826h-4.422v-.941h4.423zm0-2.827h-4.422v-.94h4.423zM86.308 251.855a.444.444 0 0 0 .423.465h.845a.447.447 0 0 0 .422-.465v-4.174h-1.69zM92.043 241.718a3 3 0 0 0-.308.02 4.02 4.02 0 0 0-.975-3.782 3.22 3.22 0 0 0-3.51-.784 3.73 3.73 0 0 0-2.243 3.063 2.73 2.73 0 0 0-2.8.822 3.39 3.39 0 0 0-.751 3.072 1.56 1.56 0 0 0-1.586.697 1.93 1.93 0 0 0-.146 1.868 1.62 1.62 0 0 0 1.453.985h5.13v-2.78H84.49a.3.3 0 0 1-.22-.099.32.32 0 0 1-.083-.226.34.34 0 0 1 .088-.222l2.74-2.643a.2.2 0 0 1 .275 0l2.731 2.637c.056.06.088.139.089.221a.313.313 0 0 1-.297.325h-1.815v2.789h4.045a2.857 2.857 0 0 0 2.716-2.981 2.86 2.86 0 0 0-2.716-2.982M112.165 248.56h-1.106a.526.526 0 0 0-.557.489v2.434H97.139v-2.434a.527.527 0 0 0-.555-.489h-1.106a.52.52 0 0 0-.51.29.5.5 0 0 0-.054.199v3.911a.53.53 0 0 0 .557.489h16.694a.525.525 0 0 0 .557-.489v-3.911a.523.523 0 0 0-.557-.489"/><path fill="#000" d="M103.619 249.956a.308.308 0 0 0 .389 0l4.147-3.679a.37.37 0 0 0 .11-.256.417.417 0 0 0-.442-.392h-2.895v-7.335a.528.528 0 0 0-.558-.489h-1.105a.53.53 0 0 0-.558.489v7.333h-2.901a.417.417 0 0 0-.443.391.36.36 0 0 0 .11.257z"/><path fill="#eff1f5" d="M519.741 44.267H316.268c-9.772 0-17.694 7.927-17.694 17.706v205.84c0 9.779 7.922 17.707 17.694 17.707h203.473c9.771 0 17.693-7.928 17.693-17.707V61.973c0-9.779-7.922-17.706-17.693-17.706"/><path stroke="#707070" stroke-width=".5" d="M519.74 44.82H316.267c-9.466 0-17.14 7.68-17.14 17.153v205.84c0 9.474 7.674 17.153 17.14 17.153H519.74c9.467 0 17.141-7.679 17.141-17.153V61.973c0-9.473-7.674-17.153-17.141-17.153Z"/><path fill="#eff1f5" d="M510.894 57.546h-185.78c-9.772 0-17.693 7.928-17.693 17.707v81.893c0 9.78 7.921 17.707 17.693 17.707h185.78c9.772 0 17.693-7.927 17.693-17.707V75.253c0-9.78-7.921-17.707-17.693-17.707"/><path stroke="#707070" stroke-width=".5" d="M510.894 58.1h-185.78c-9.466 0-17.14 7.68-17.14 17.153v81.893c0 9.474 7.674 17.154 17.14 17.154h185.78c9.466 0 17.14-7.68 17.14-17.154V75.253c0-9.474-7.674-17.153-17.14-17.153Z"/><path fill="#eff1f5" d="M356.077 181.493h-30.963c-9.772 0-17.693 7.928-17.693 17.707v53.12c0 9.779 7.921 17.706 17.693 17.706h30.963c9.772 0 17.694-7.927 17.694-17.706V199.2c0-9.779-7.922-17.707-17.694-17.707"/><path stroke="#707070" stroke-width=".5" d="M356.077 182.046h-30.963c-9.466 0-17.14 7.68-17.14 17.154v53.12c0 9.473 7.674 17.153 17.14 17.153h30.963c9.467 0 17.141-7.68 17.141-17.153V199.2c0-9.474-7.674-17.154-17.141-17.154Z"/><path fill="#000" d="M356.641 79.68c0-4.723-8.899-7.193-17.693-7.193-8.793 0-17.693 2.47-17.693 7.193q.012.223.051.443-.036.12-.051.245v21.999c0 4.564 9.172 6.64 17.693 6.64s17.693-2.076 17.693-6.64V80.368a1.5 1.5 0 0 0-.05-.254q.038-.216.05-.434m-3.317 11.61c-.203.918-4.928 3.33-14.376 3.33s-14.177-2.415-14.376-3.32v-7.25a32.2 32.2 0 0 0 14.376 2.824 32.2 32.2 0 0 0 14.376-2.825zm-14.376-15.483c9.486 0 14.376 2.716 14.376 3.873s-4.89 3.873-14.376 3.873-14.376-2.715-14.376-3.873c0-1.157 4.89-3.873 14.376-3.873m0 29.88c-9.45 0-14.177-2.415-14.376-3.32v-6.981a34.95 34.95 0 0 0 14.376 2.554c4.918.17 9.817-.7 14.376-2.554v6.968c-.201.918-4.928 3.333-14.376 3.333M356.641 121.733c0-4.723-8.899-7.193-17.693-7.193-8.793 0-17.693 2.47-17.693 7.193q.012.224.051.443-.036.12-.051.246v21.998c0 4.564 9.172 6.64 17.693 6.64s17.693-2.076 17.693-6.64v-21.998a1.5 1.5 0 0 0-.05-.255q.038-.215.05-.434m-3.317 11.609c-.203.919-4.928 3.331-14.376 3.331s-14.177-2.414-14.376-3.32v-7.251a32.2 32.2 0 0 0 14.376 2.825 32.2 32.2 0 0 0 14.376-2.825zm-14.376-15.482c9.486 0 14.376 2.716 14.376 3.873s-4.89 3.874-14.376 3.874-14.376-2.716-14.376-3.874 4.89-3.873 14.376-3.873m0 29.88c-9.45 0-14.177-2.415-14.376-3.32v-6.981a34.9 34.9 0 0 0 14.376 2.554 34.9 34.9 0 0 0 14.376-2.554v6.968c-.201.918-4.928 3.333-14.376 3.333"/><path fill="#222" d="M468.191 96.324c2.453-2.928 7.172-3.251 11.094-.978l18.947-23.89a1.66 1.66 0 1 1 2.601 2.062l-1.241 1.565 4.89 4.108a1.656 1.656 0 0 1 .184 2.362l-4.66 5.343a1.66 1.66 0 0 1-2.318.179l-4.565-3.836-1.376 1.735 4.523 3.798a1.66 1.66 0 0 1 .62 1.137 1.66 1.66 0 0 1-1.54 1.82 1.66 1.66 0 0 1-1.223-.424l-4.443-3.728-7.798 9.832a9.8 9.8 0 0 1 2.773 5.626 6.8 6.8 0 0 1-.218 2.73 6.8 6.8 0 0 1-1.275 2.423 7.4 7.4 0 0 1-5.77 2.477 10.98 10.98 0 0 1-6.682-2.395 10.194 10.194 0 0 1-4.011-6.8 6.8 6.8 0 0 1 .219-2.725 6.8 6.8 0 0 1 1.269-2.42m30.384-12.837 2.479-2.842-3.525-2.963-2.345 2.956zM470 101.127a6.98 6.98 0 0 0 2.756 4.529c2.687 2.096 6.29 2.282 7.867.4a3.52 3.52 0 0 0 .734-2.671 6.98 6.98 0 0 0-2.758-4.526 7.74 7.74 0 0 0-4.658-1.705 4.08 4.08 0 0 0-3.207 1.304 3.5 3.5 0 0 0-.638 1.26c-.126.458-.16.938-.096 1.409M468.191 138.378c2.453-2.929 7.172-3.252 11.094-.979l18.947-23.89a1.659 1.659 0 1 1 2.601 2.062l-1.241 1.565 4.89 4.108a1.658 1.658 0 0 1 .184 2.362l-4.66 5.343a1.66 1.66 0 0 1-2.318.179l-4.565-3.836-1.376 1.736 4.523 3.798a1.65 1.65 0 0 1 .62 1.137 1.66 1.66 0 0 1-1.54 1.819 1.66 1.66 0 0 1-1.223-.424l-4.443-3.728-7.798 9.832a9.8 9.8 0 0 1 2.773 5.626 6.824 6.824 0 0 1-1.493 5.153 7.38 7.38 0 0 1-5.77 2.477 10.98 10.98 0 0 1-6.682-2.395 10.2 10.2 0 0 1-4.011-6.799 6.82 6.82 0 0 1 1.488-5.146m30.384-12.838 2.479-2.842-3.525-2.963-2.345 2.957zM470 143.181a6.98 6.98 0 0 0 2.756 4.528c2.687 2.096 6.29 2.282 7.867.401a3.54 3.54 0 0 0 .734-2.672 6.97 6.97 0 0 0-2.758-4.526 7.73 7.73 0 0 0-4.658-1.704 4.08 4.08 0 0 0-3.207 1.303 3.5 3.5 0 0 0-.638 1.26c-.126.459-.16.938-.096 1.41M430.763 89.572l-6.646-6.64a1.656 1.656 0 0 0-2.304.031 1.661 1.661 0 0 0-.049 2.306l3.782 3.785h-28a1.66 1.66 0 0 0-1.658 1.66 1.657 1.657 0 0 0 1.658 1.66h28.073l-3.855 3.85a1.662 1.662 0 0 0 1.173 2.835c.441 0 .863-.174 1.174-.486l6.646-6.653a1.67 1.67 0 0 0 .486-1.174 1.67 1.67 0 0 0-.486-1.174zM430.763 131.625l-6.646-6.64a1.658 1.658 0 0 0-2.353 2.337l3.782 3.785h-28a1.659 1.659 0 0 0-1.172 2.834c.311.311.733.486 1.172.486h28.073l-3.855 3.851a1.661 1.661 0 0 0 1.173 2.835c.441 0 .863-.175 1.174-.487l6.646-6.653a1.67 1.67 0 0 0 .36-1.81 1.7 1.7 0 0 0-.36-.538z"/><path fill="#eff1f5" d="M510.894 181.493H395.888c-9.772 0-17.694 7.928-17.694 17.707v53.12c0 9.779 7.922 17.706 17.694 17.706h115.006c9.772 0 17.693-7.927 17.693-17.706V199.2c0-9.779-7.921-17.707-17.693-17.707"/><path stroke="#707070" stroke-width=".5" d="M510.894 182.046H395.887c-9.466 0-17.14 7.68-17.14 17.154v53.12c0 9.473 7.674 17.153 17.14 17.153h115.007c9.466 0 17.14-7.68 17.14-17.153V199.2c0-9.474-7.674-17.154-17.14-17.154Z"/><path fill="#000" d="M424.896 244.573h-16.588a1.66 1.66 0 0 1 0-3.32h16.588a1.66 1.66 0 0 1 0 3.32M396.104 215.441a1.66 1.66 0 0 1-1.499-.96 1.65 1.65 0 0 1 .23-1.767l6.046-7.204a1.66 1.66 0 0 1 1.771-.512 1.65 1.65 0 0 1 .971.819 1.67 1.67 0 0 1-.205 1.833l-6.04 7.2a1.65 1.65 0 0 1-1.272.593zM417.8 233.465a1.67 1.67 0 0 1-1.499-.961 1.664 1.664 0 0 1 .23-1.766l6.042-7.207a1.658 1.658 0 0 1 2.924.924c.038.439-.1.875-.383 1.212l-6.042 7.215a1.66 1.66 0 0 1-1.272.594zM418.263 217.34l-7.624-6.403a4.96 4.96 0 0 0-3.632-1.149 4.97 4.97 0 0 0-3.379 1.76l-2.132 2.545a4.984 4.984 0 0 0 .586 6.985 5189 5189 0 0 1-12.586 14.496l-1.064 1.223a4.697 4.697 0 0 0 4.009 7.589 4.69 4.69 0 0 0 3.163-1.544l.571-.664c1.979-2.269 8.581-9.849 12.814-14.752q.137-.173.222-.376l.533.443a4.94 4.94 0 0 0 3.189 1.162c.146 0 .296 0 .442-.02a4.95 4.95 0 0 0 3.368-1.729l2.135-2.541a4.97 4.97 0 0 0 1.144-3.635 4.98 4.98 0 0 0-1.759-3.381zm-11.784 7.93c-4.231 4.899-10.837 12.473-12.805 14.741l-.6.689a1.375 1.375 0 0 1-2.425-.75 1.38 1.38 0 0 1 .311-1.006l1.035-1.188c2.473-2.829 8.703-9.996 12.626-14.54l2.163 1.818q-.166.1-.303.236zm9.857-3.05-2.134 2.544a1.65 1.65 0 0 1-1.77.515 1.6 1.6 0 0 1-.567-.312l-7.622-6.401a1.66 1.66 0 0 1-.206-2.339l2.132-2.546a1.66 1.66 0 0 1 1.126-.584c.438-.036.872.102 1.21.383l7.637 6.403c.167.14.305.311.405.505a1.65 1.65 0 0 1 .112 1.265 1.7 1.7 0 0 1-.311.567zM470.521 244.573h-16.588a1.66 1.66 0 0 1 0-3.32h16.588a1.66 1.66 0 0 1 0 3.32M441.729 215.441a1.66 1.66 0 0 1-1.499-.96 1.65 1.65 0 0 1 .23-1.767l6.046-7.204a1.66 1.66 0 0 1 1.771-.512 1.65 1.65 0 0 1 .971.819 1.67 1.67 0 0 1-.205 1.833l-6.04 7.2a1.65 1.65 0 0 1-1.272.593zM463.425 233.465a1.67 1.67 0 0 1-1.499-.961 1.664 1.664 0 0 1 .23-1.766l6.042-7.207a1.658 1.658 0 0 1 2.924.924c.038.439-.1.875-.383 1.212l-6.042 7.215a1.66 1.66 0 0 1-1.272.594zM463.888 217.34l-7.624-6.403a4.96 4.96 0 0 0-3.632-1.149 4.97 4.97 0 0 0-3.379 1.76l-2.132 2.545a4.984 4.984 0 0 0 .586 6.985 5189 5189 0 0 1-12.586 14.496l-1.064 1.223a4.697 4.697 0 0 0 4.009 7.589 4.69 4.69 0 0 0 3.163-1.544l.571-.664c1.979-2.269 8.581-9.849 12.814-14.752q.137-.173.222-.376l.533.443a4.94 4.94 0 0 0 3.189 1.162c.146 0 .296 0 .442-.02a4.95 4.95 0 0 0 3.368-1.729l2.135-2.541a4.97 4.97 0 0 0 1.144-3.635 4.98 4.98 0 0 0-1.759-3.381zm-11.784 7.93c-4.231 4.899-10.837 12.473-12.805 14.741l-.6.689a1.375 1.375 0 0 1-2.425-.75 1.38 1.38 0 0 1 .311-1.006l1.035-1.188c2.473-2.829 8.703-9.996 12.626-14.54l2.163 1.818q-.166.1-.303.236zm9.857-3.05-2.134 2.544a1.65 1.65 0 0 1-1.77.515 1.6 1.6 0 0 1-.567-.312l-7.622-6.401a1.66 1.66 0 0 1-.206-2.339l2.132-2.546a1.66 1.66 0 0 1 1.126-.584c.438-.036.872.102 1.21.383l7.637 6.403c.167.14.305.311.405.505a1.65 1.65 0 0 1 .112 1.265 1.7 1.7 0 0 1-.311.567zM514.753 244.573h-16.587a1.66 1.66 0 0 1 0-3.32h16.587a1.66 1.66 0 0 1 0 3.32M485.962 215.441a1.661 1.661 0 0 1-1.27-2.727l6.047-7.204a1.65 1.65 0 0 1 1.127-.584 1.65 1.65 0 0 1 1.614.891 1.652 1.652 0 0 1-.205 1.833l-6.04 7.2c-.155.186-.35.336-.57.438a1.6 1.6 0 0 1-.701.155zM507.658 233.465a1.67 1.67 0 0 1-1.5-.961 1.66 1.66 0 0 1 .23-1.766l6.043-7.207a1.658 1.658 0 0 1 2.923.924c.038.439-.099.875-.382 1.212l-6.042 7.215a1.7 1.7 0 0 1-.57.439 1.7 1.7 0 0 1-.702.155zM508.12 217.34l-7.623-6.403a4.98 4.98 0 0 0-3.632-1.149 4.98 4.98 0 0 0-3.379 1.76l-2.132 2.545a4.985 4.985 0 0 0 .586 6.985 5341 5341 0 0 1-12.587 14.496l-1.064 1.223a4.7 4.7 0 0 0 .664 6.496 4.69 4.69 0 0 0 6.509-.451l.57-.664c1.98-2.269 8.582-9.849 12.815-14.752q.136-.173.221-.376l.533.443a4.94 4.94 0 0 0 3.189 1.162c.146 0 .297 0 .442-.02a4.95 4.95 0 0 0 3.369-1.729l2.134-2.541a5 5 0 0 0 1.145-3.635 4.98 4.98 0 0 0-1.76-3.381zm-11.783 7.93c-4.231 4.899-10.838 12.473-12.806 14.741l-.599.689a1.374 1.374 0 1 1-2.115-1.756l1.035-1.188c2.473-2.829 8.703-9.996 12.627-14.54l2.163 1.818a1.5 1.5 0 0 0-.303.236zm9.857-3.05-2.134 2.544a1.67 1.67 0 0 1-1.127.586 1.65 1.65 0 0 1-1.211-.383l-7.621-6.401a1.663 1.663 0 0 1-.206-2.339l2.132-2.546a1.66 1.66 0 0 1 1.126-.584c.437-.036.872.102 1.209.383l7.637 6.403a1.657 1.657 0 0 1 .206 2.337z"/><path fill="#222" d="M347.783 208.053h3.318a4.98 4.98 0 0 0 4.976-4.98v-3.32a4.982 4.982 0 0 0-4.976-4.98h-3.318a4.98 4.98 0 0 0-4.976 4.943h-8.847a4.987 4.987 0 0 0-4.976-4.943h-3.317a4.99 4.99 0 0 0-4.977 4.98v3.32a4.965 4.965 0 0 0 4.424 4.925v12.229a4.987 4.987 0 0 0 4.976 4.98h12.717a4.99 4.99 0 0 0 4.976 4.98h3.318a4.98 4.98 0 0 0 4.976-4.98v-3.32a4.985 4.985 0 0 0-4.976-4.98h-3.318a4.98 4.98 0 0 0-4.976 4.98H330.09a1.66 1.66 0 0 1-1.659-1.66v-12.174h.553a4.98 4.98 0 0 0 4.976-4.98v-.037h8.847v.037a5 5 0 0 0 1.46 3.52 4.98 4.98 0 0 0 3.516 1.46m-1.658 13.834a1.66 1.66 0 0 1 1.658-1.66h3.318a1.664 1.664 0 0 1 1.659 1.66v3.32a1.664 1.664 0 0 1-1.659 1.66h-3.318a1.664 1.664 0 0 1-1.658-1.66zm0-22.134a1.66 1.66 0 0 1 1.658-1.66h3.318a1.66 1.66 0 0 1 1.659 1.66v3.32a1.657 1.657 0 0 1-1.659 1.66h-3.318a1.66 1.66 0 0 1-1.658-1.66zm-15.482 3.32a1.657 1.657 0 0 1-1.659 1.66h-3.317a1.66 1.66 0 0 1-1.659-1.66v-3.32a1.663 1.663 0 0 1 1.659-1.66h3.317a1.66 1.66 0 0 1 1.659 1.66z"/><path fill="#222" d="M322.35 199.754v3.32a3.32 3.32 0 0 0 3.317 3.32h3.318a3.32 3.32 0 0 0 3.317-3.32v-3.32a3.32 3.32 0 0 0-3.317-3.32h-3.318a3.32 3.32 0 0 0-3.317 3.32" opacity=".2"/><path fill="#eff1f5" d="M359.395 234.613h-37.598c-6.108 0-11.059 4.955-11.059 11.067s4.951 11.067 11.059 11.067h37.598c6.107 0 11.058-4.955 11.058-11.067s-4.951-11.067-11.058-11.067"/><path fill="#000" d="M322.024 245.37a2.213 2.213 0 1 0-.001-4.429 2.213 2.213 0 0 0 .001 4.429"/><path fill="#000" d="M332.472 239.04h-18.766a.513.513 0 0 0-.553.472v12.244a.517.517 0 0 0 .553.471h18.766a.516.516 0 0 0 .553-.471v-12.244a.516.516 0 0 0-.553-.472m-17.107 1.884h8.827v5.976a5.3 5.3 0 0 0-1.92-.529c-.913 0-1.327 1.035-2.236 1.035s-1.621-2.049-2.532-2.049c-.83 0-2.143 2.074-2.143 2.074zm15.451 9.42h-15.451v-.943h15.451zm0-2.827h-4.424v-.952h4.424zm0-2.826h-4.424v-.941h4.424zm0-2.827h-4.424v-.94h4.424zM340.649 251.855a.433.433 0 0 0 .115.32.447.447 0 0 0 .307.145h.845a.45.45 0 0 0 .397-.293.4.4 0 0 0 .026-.172v-4.174h-1.69zM346.384 241.718a3 3 0 0 0-.308.02 4.02 4.02 0 0 0-.975-3.782 3.22 3.22 0 0 0-3.51-.784 3.73 3.73 0 0 0-2.243 3.063 2.73 2.73 0 0 0-2.8.822 3.4 3.4 0 0 0-.752 3.072 1.56 1.56 0 0 0-1.585.697 1.928 1.928 0 0 0-.146 1.868 1.62 1.62 0 0 0 1.453.985h5.131v-2.78h-1.818a.3.3 0 0 1-.22-.099.32.32 0 0 1-.083-.226.34.34 0 0 1 .088-.222l2.74-2.643a.2.2 0 0 1 .275 0l2.731 2.637a.335.335 0 0 1 .007.445.3.3 0 0 1-.215.101h-1.816v2.789h4.046a2.856 2.856 0 0 0 2.715-2.981 2.857 2.857 0 0 0-2.715-2.982M366.505 248.56h-1.106a.524.524 0 0 0-.557.489v2.434h-13.363v-2.434a.528.528 0 0 0-.555-.489h-1.106a.5.5 0 0 0-.384.127.53.53 0 0 0-.18.362v3.911a.53.53 0 0 0 .557.489h16.694a.526.526 0 0 0 .557-.489v-3.911a.523.523 0 0 0-.557-.489"/><path fill="#000" d="M357.959 249.956a.31.31 0 0 0 .39 0l4.146-3.679a.35.35 0 0 0 .111-.256.417.417 0 0 0-.442-.392h-2.895v-7.335a.528.528 0 0 0-.558-.489h-1.106a.527.527 0 0 0-.557.489v7.333h-2.902a.42.42 0 0 0-.442.391.36.36 0 0 0 .111.257z"/><path fill="#eff1f5" d="M951.015 44.267H747.542c-9.772 0-17.693 7.927-17.693 17.706v205.84c0 9.779 7.921 17.707 17.693 17.707h203.473c9.772 0 17.693-7.928 17.693-17.707V61.973c0-9.779-7.921-17.706-17.693-17.706"/><path stroke="#707070" stroke-width=".5" d="M951.015 44.82H747.542c-9.467 0-17.141 7.68-17.141 17.153v205.84c0 9.474 7.674 17.153 17.141 17.153h203.473c9.466 0 17.14-7.679 17.14-17.153V61.973c0-9.473-7.674-17.153-17.14-17.153Z"/><path fill="#eff1f5" d="M942.168 57.546H756.389c-9.772 0-17.694 7.928-17.694 17.707v81.893c0 9.78 7.922 17.707 17.694 17.707h185.779c9.772 0 17.694-7.927 17.694-17.707V75.253c0-9.78-7.922-17.707-17.694-17.707"/><path stroke="#707070" stroke-width=".5" d="M942.168 58.1h-185.78c-9.466 0-17.14 7.68-17.14 17.153v81.893c0 9.474 7.674 17.154 17.14 17.154h185.78c9.467 0 17.141-7.68 17.141-17.154V75.253c0-9.474-7.674-17.153-17.141-17.153Z"/><path fill="#eff1f5" d="M787.352 181.493h-30.963c-9.772 0-17.694 7.928-17.694 17.707v53.12c0 9.779 7.922 17.706 17.694 17.706h30.963c9.772 0 17.693-7.927 17.693-17.706V199.2c0-9.779-7.921-17.707-17.693-17.707"/><path stroke="#707070" stroke-width=".5" d="M787.352 182.046h-30.964c-9.466 0-17.14 7.68-17.14 17.154v53.12c0 9.473 7.674 17.153 17.14 17.153h30.964c9.466 0 17.14-7.68 17.14-17.153V199.2c0-9.474-7.674-17.154-17.14-17.154Z"/><path fill="#000" d="M787.916 79.68c0-4.723-8.9-7.193-17.693-7.193s-17.694 2.47-17.694 7.193q.012.223.051.443-.034.12-.051.245v21.999c0 4.564 9.172 6.64 17.694 6.64s17.693-2.076 17.693-6.64V80.368a1.6 1.6 0 0 0-.051-.254q.039-.216.051-.434m-3.318 11.61c-.203.918-4.927 3.33-14.375 3.33s-14.177-2.415-14.376-3.32v-7.25a32.2 32.2 0 0 0 14.376 2.824 32.2 32.2 0 0 0 14.375-2.825zm-14.375-15.483c9.485 0 14.375 2.716 14.375 3.873s-4.89 3.873-14.375 3.873c-9.486 0-14.376-2.715-14.376-3.873 0-1.157 4.89-3.873 14.376-3.873m0 29.88c-9.451 0-14.177-2.415-14.376-3.32v-6.981a34.95 34.95 0 0 0 14.376 2.554c4.918.17 9.816-.7 14.375-2.554v6.968c-.201.918-4.927 3.333-14.375 3.333M787.916 121.733c0-4.723-8.9-7.193-17.693-7.193s-17.694 2.47-17.694 7.193q.012.224.051.443-.034.12-.051.246v21.998c0 4.564 9.172 6.64 17.694 6.64s17.693-2.076 17.693-6.64v-21.998a1.6 1.6 0 0 0-.051-.255q.039-.215.051-.434m-3.318 11.609c-.203.919-4.927 3.331-14.375 3.331s-14.177-2.414-14.376-3.32v-7.251a32.2 32.2 0 0 0 14.376 2.825 32.2 32.2 0 0 0 14.375-2.825zm-14.375-15.482c9.485 0 14.375 2.716 14.375 3.873s-4.89 3.874-14.375 3.874c-9.486 0-14.376-2.716-14.376-3.874s4.89-3.873 14.376-3.873m0 29.88c-9.451 0-14.177-2.415-14.376-3.32v-6.981a34.9 34.9 0 0 0 14.376 2.554c4.918.171 9.816-.7 14.375-2.554v6.968c-.201.918-4.927 3.333-14.375 3.333"/><path fill="#222" d="M899.465 96.324c2.453-2.928 7.173-3.251 11.094-.978l18.947-23.89a1.66 1.66 0 0 1 2.332-.27 1.66 1.66 0 0 1 .269 2.332l-1.24 1.565 4.89 4.108a1.67 1.67 0 0 1 .586 1.142 1.65 1.65 0 0 1-.403 1.22l-4.66 5.343a1.66 1.66 0 0 1-2.318.179l-4.565-3.836-1.375 1.735 4.523 3.798a1.67 1.67 0 0 1 .619 1.137 1.66 1.66 0 0 1-1.54 1.82 1.66 1.66 0 0 1-1.222-.424l-4.444-3.728-7.798 9.832a9.8 9.8 0 0 1 2.773 5.626 6.8 6.8 0 0 1-1.492 5.153 7.39 7.39 0 0 1-5.771 2.477 10.98 10.98 0 0 1-6.681-2.395 10.2 10.2 0 0 1-2.691-2.995 10.2 10.2 0 0 1-1.321-3.805 6.825 6.825 0 0 1 1.488-5.146m30.384-12.837 2.479-2.842-3.525-2.963-2.344 2.956zm-28.574 17.64a6.98 6.98 0 0 0 2.755 4.529c2.687 2.096 6.29 2.282 7.867.4a3.52 3.52 0 0 0 .734-2.671 6.98 6.98 0 0 0-2.758-4.526 7.73 7.73 0 0 0-4.657-1.705 4.08 4.08 0 0 0-3.207 1.304 3.53 3.53 0 0 0-.734 2.669M899.465 138.378c2.453-2.929 7.173-3.252 11.094-.979l18.947-23.89a1.66 1.66 0 0 1 2.332-.27 1.66 1.66 0 0 1 .269 2.332l-1.24 1.565 4.89 4.108a1.657 1.657 0 0 1 .507 1.793 1.7 1.7 0 0 1-.324.569l-4.66 5.343a1.66 1.66 0 0 1-2.318.179l-4.565-3.836-1.375 1.736 4.523 3.798a1.67 1.67 0 0 1 .619 1.137 1.66 1.66 0 0 1-1.54 1.819 1.65 1.65 0 0 1-1.222-.424l-4.444-3.728-7.798 9.832a9.8 9.8 0 0 1 2.773 5.626 6.8 6.8 0 0 1-1.492 5.153 7.4 7.4 0 0 1-2.61 1.882 7.4 7.4 0 0 1-3.161.595 10.98 10.98 0 0 1-6.681-2.395 10.2 10.2 0 0 1-4.012-6.799 6.82 6.82 0 0 1 1.488-5.146m30.384-12.838 2.479-2.842-3.525-2.963-2.344 2.957zm-28.574 17.641a6.98 6.98 0 0 0 2.755 4.528c2.687 2.096 6.29 2.282 7.867.401a3.54 3.54 0 0 0 .734-2.672 6.97 6.97 0 0 0-2.758-4.526 7.73 7.73 0 0 0-4.657-1.704 4.1 4.1 0 0 0-1.749.294 4.1 4.1 0 0 0-1.458 1.009 3.53 3.53 0 0 0-.734 2.67M862.038 89.572l-6.646-6.64a1.66 1.66 0 0 0-2.304.031 1.66 1.66 0 0 0-.049 2.306l3.782 3.785h-28a1.66 1.66 0 0 0-1.659 1.66 1.66 1.66 0 0 0 1.659 1.66h28.072l-3.854 3.85a1.66 1.66 0 0 0 0 2.35 1.66 1.66 0 0 0 2.346 0l6.646-6.654a1.66 1.66 0 0 0 .36-1.81 1.7 1.7 0 0 0-.36-.538zM862.038 131.625l-6.646-6.64a1.658 1.658 0 0 0-2.794 1.174c-.009.43.149.847.441 1.163l3.782 3.785h-28a1.66 1.66 0 0 0 0 3.32h28.072l-3.854 3.851a1.657 1.657 0 0 0 0 2.348 1.656 1.656 0 0 0 2.346 0l6.646-6.653a1.65 1.65 0 0 0 .486-1.174 1.656 1.656 0 0 0-.486-1.174z"/><path fill="#eff1f5" d="M942.169 181.493H827.162c-9.772 0-17.693 7.928-17.693 17.707v53.12c0 9.779 7.921 17.706 17.693 17.706h115.007c9.771 0 17.693-7.927 17.693-17.706V199.2c0-9.779-7.922-17.707-17.693-17.707"/><path stroke="#707070" stroke-width=".5" d="M942.168 182.046H827.162c-9.467 0-17.141 7.68-17.141 17.154v53.12c0 9.473 7.674 17.153 17.141 17.153h115.006c9.467 0 17.141-7.68 17.141-17.153V199.2c0-9.474-7.674-17.154-17.141-17.154Z"/><path fill="#000" d="M856.17 244.573h-16.587a1.66 1.66 0 0 1 0-3.32h16.587a1.66 1.66 0 0 1 0 3.32M827.379 215.441a1.661 1.661 0 0 1-1.27-2.727l6.047-7.204a1.65 1.65 0 0 1 1.127-.584 1.65 1.65 0 0 1 1.614.891 1.652 1.652 0 0 1-.205 1.833l-6.04 7.2c-.155.186-.35.336-.57.438a1.6 1.6 0 0 1-.701.155zM849.075 233.465a1.67 1.67 0 0 1-1.5-.961 1.66 1.66 0 0 1 .23-1.766l6.043-7.207a1.658 1.658 0 0 1 2.923.924c.038.439-.099.875-.382 1.212l-6.042 7.215a1.7 1.7 0 0 1-.57.439 1.7 1.7 0 0 1-.702.155zM849.537 217.34l-7.623-6.403a4.98 4.98 0 0 0-3.632-1.149 4.98 4.98 0 0 0-3.379 1.76l-2.132 2.545a4.985 4.985 0 0 0 .586 6.985 5341 5341 0 0 1-12.587 14.496l-1.064 1.223a4.692 4.692 0 0 0 7.173 6.045l.57-.664c1.98-2.269 8.582-9.849 12.815-14.752q.136-.173.221-.376l.533.443a4.94 4.94 0 0 0 3.189 1.162c.146 0 .297 0 .442-.02a4.95 4.95 0 0 0 3.369-1.729l2.134-2.541a5 5 0 0 0 1.145-3.635 4.98 4.98 0 0 0-1.76-3.381zm-11.783 7.93c-4.231 4.899-10.838 12.473-12.806 14.741l-.599.689a1.374 1.374 0 1 1-2.115-1.756l1.035-1.188c2.473-2.829 8.703-9.996 12.627-14.54l2.163 1.818a1.5 1.5 0 0 0-.303.236zm9.857-3.05-2.134 2.544a1.67 1.67 0 0 1-1.127.586 1.65 1.65 0 0 1-1.211-.383l-7.621-6.401a1.663 1.663 0 0 1-.206-2.339l2.132-2.546a1.66 1.66 0 0 1 1.126-.584c.437-.036.872.102 1.209.383l7.637 6.403a1.657 1.657 0 0 1 .206 2.337zM901.795 244.573h-16.587a1.66 1.66 0 0 1 0-3.32h16.587a1.66 1.66 0 0 1 0 3.32M873.004 215.441a1.661 1.661 0 0 1-1.27-2.727l6.047-7.204a1.65 1.65 0 0 1 1.127-.584 1.65 1.65 0 0 1 1.614.891 1.652 1.652 0 0 1-.205 1.833l-6.04 7.2c-.155.186-.35.336-.57.438a1.6 1.6 0 0 1-.701.155zM894.7 233.465a1.67 1.67 0 0 1-1.5-.961 1.66 1.66 0 0 1 .23-1.766l6.043-7.207a1.658 1.658 0 0 1 2.923.924c.038.439-.099.875-.382 1.212l-6.042 7.215a1.7 1.7 0 0 1-.57.439 1.7 1.7 0 0 1-.702.155zM895.162 217.34l-7.623-6.403a4.98 4.98 0 0 0-3.632-1.149 4.98 4.98 0 0 0-3.379 1.76l-2.132 2.545a4.985 4.985 0 0 0 .586 6.985 5341 5341 0 0 1-12.587 14.496l-1.064 1.223a4.692 4.692 0 0 0 7.173 6.045l.57-.664c1.98-2.269 8.582-9.849 12.815-14.752q.136-.173.221-.376l.533.443a4.94 4.94 0 0 0 3.189 1.162c.146 0 .297 0 .442-.02a4.95 4.95 0 0 0 3.369-1.729l2.134-2.541a5 5 0 0 0 1.145-3.635 4.98 4.98 0 0 0-1.76-3.381zm-11.783 7.93c-4.231 4.899-10.838 12.473-12.806 14.741l-.599.689a1.374 1.374 0 1 1-2.115-1.756l1.035-1.188c2.473-2.829 8.703-9.996 12.627-14.54l2.163 1.818a1.5 1.5 0 0 0-.303.236zm9.857-3.05-2.134 2.544a1.67 1.67 0 0 1-1.127.586 1.65 1.65 0 0 1-1.211-.383l-7.621-6.401a1.663 1.663 0 0 1-.206-2.339l2.132-2.546a1.66 1.66 0 0 1 1.126-.584c.437-.036.872.102 1.209.383l7.637 6.403a1.657 1.657 0 0 1 .206 2.337zM946.027 244.573H929.44a1.66 1.66 0 0 1 0-3.32h16.587a1.66 1.66 0 0 1 0 3.32M917.236 215.441a1.66 1.66 0 0 1-1.5-.96 1.66 1.66 0 0 1 .23-1.767l6.047-7.204a1.65 1.65 0 0 1 1.128-.584 1.65 1.65 0 0 1 1.21.385 1.66 1.66 0 0 1 .584 1.128 1.67 1.67 0 0 1-.385 1.211l-6.04 7.2a1.65 1.65 0 0 1-1.272.593zM938.932 233.465a1.67 1.67 0 0 1-1.499-.961 1.664 1.664 0 0 1 .23-1.766l6.042-7.207a1.658 1.658 0 0 1 2.924.924c.038.439-.1.875-.383 1.212l-6.042 7.215c-.156.186-.35.336-.57.439s-.459.155-.702.155zM939.395 217.34l-7.624-6.403a4.97 4.97 0 0 0-7.011.611l-2.132 2.545a4.984 4.984 0 0 0 .586 6.985 5189 5189 0 0 1-12.586 14.496l-1.064 1.223a4.697 4.697 0 0 0 4.009 7.589 4.69 4.69 0 0 0 3.163-1.544l.571-.664c1.979-2.269 8.581-9.849 12.814-14.752a1.6 1.6 0 0 0 .221-.376l.533.443a4.95 4.95 0 0 0 3.19 1.162c.146 0 .296 0 .442-.02a4.95 4.95 0 0 0 3.368-1.729l2.135-2.541a4.97 4.97 0 0 0 1.144-3.635 4.98 4.98 0 0 0-1.759-3.381zm-11.784 7.93c-4.231 4.899-10.837 12.473-12.806 14.741l-.599.689a1.375 1.375 0 0 1-2.114-1.756l1.035-1.188a4248 4248 0 0 0 12.626-14.54l2.163 1.818q-.166.1-.303.236zm9.857-3.05-2.134 2.544a1.67 1.67 0 0 1-1.127.586 1.65 1.65 0 0 1-1.211-.383l-7.621-6.401a1.66 1.66 0 0 1-.206-2.339l2.132-2.546a1.66 1.66 0 0 1 1.126-.584c.438-.036.872.102 1.21.383l7.637 6.403c.167.14.305.311.405.505a1.65 1.65 0 0 1-.2 1.832z"/><path fill="#222" d="M779.058 208.053h3.317a4.98 4.98 0 0 0 4.976-4.98v-3.32a4.984 4.984 0 0 0-4.976-4.98h-3.317a4.983 4.983 0 0 0-4.977 4.943h-8.846a4.987 4.987 0 0 0-4.976-4.943h-3.318a4.98 4.98 0 0 0-4.976 4.98v3.32a4.97 4.97 0 0 0 4.423 4.925v12.229a4.99 4.99 0 0 0 4.976 4.98h12.717a4.99 4.99 0 0 0 4.977 4.98h3.317a4.98 4.98 0 0 0 4.976-4.98v-3.32a4.987 4.987 0 0 0-4.976-4.98h-3.317a4.983 4.983 0 0 0-4.977 4.98h-12.717a1.664 1.664 0 0 1-1.658-1.66v-12.174h.553a4.98 4.98 0 0 0 3.516-1.46 5 5 0 0 0 1.46-3.52v-.037h8.846v.037a5 5 0 0 0 1.46 3.52 4.98 4.98 0 0 0 3.517 1.46m-1.659 13.834c.001-.44.176-.862.486-1.173a1.66 1.66 0 0 1 1.173-.487h3.317a1.664 1.664 0 0 1 1.659 1.66v3.32a1.664 1.664 0 0 1-1.659 1.66h-3.317a1.664 1.664 0 0 1-1.659-1.66zm0-22.134a1.664 1.664 0 0 1 1.659-1.66h3.317a1.66 1.66 0 0 1 1.659 1.66v3.32a1.67 1.67 0 0 1-.487 1.174c-.31.311-.732.486-1.172.486h-3.317a1.66 1.66 0 0 1-1.659-1.66zm-15.482 3.32a1.66 1.66 0 0 1-1.658 1.66h-3.318a1.657 1.657 0 0 1-1.659-1.66v-3.32a1.664 1.664 0 0 1 1.659-1.66h3.318a1.664 1.664 0 0 1 1.658 1.66z"/><path fill="#222" d="M753.624 199.754v3.32a3.32 3.32 0 0 0 3.318 3.32h3.317a3.32 3.32 0 0 0 3.318-3.32v-3.32a3.32 3.32 0 0 0-3.318-3.32h-3.317a3.32 3.32 0 0 0-3.318 3.32" opacity=".2"/><path fill="#eff1f5" d="M790.669 234.613h-37.598c-6.107 0-11.058 4.955-11.058 11.067s4.951 11.067 11.058 11.067h37.598c6.108 0 11.059-4.955 11.059-11.067s-4.951-11.067-11.059-11.067"/><path fill="#000" d="M753.299 245.37a2.21 2.21 0 0 0 2.211-2.213 2.212 2.212 0 1 0-2.211 2.213"/><path fill="#000" d="M763.747 239.04h-18.766a.515.515 0 0 0-.553.472v12.244a.51.51 0 0 0 .553.471h18.766a.517.517 0 0 0 .553-.471v-12.244a.517.517 0 0 0-.553-.472m-17.108 1.884h8.827v5.976a5.3 5.3 0 0 0-1.92-.529c-.913 0-1.327 1.035-2.236 1.035s-1.621-2.049-2.532-2.049c-.829 0-2.143 2.074-2.143 2.074zm15.451 9.42h-15.451v-.943h15.451zm0-2.827h-4.423v-.952h4.423zm0-2.826h-4.423v-.941h4.423zm0-2.827h-4.423v-.94h4.423zM771.923 251.855a.44.44 0 0 0 .115.32.452.452 0 0 0 .308.145h.845a.45.45 0 0 0 .397-.293.4.4 0 0 0 .025-.172v-4.174h-1.69zM777.658 241.718a3 3 0 0 0-.307.02 4.02 4.02 0 0 0-.976-3.782 3.215 3.215 0 0 0-3.51-.784 3.72 3.72 0 0 0-2.242 3.063 2.73 2.73 0 0 0-2.8.822 3.4 3.4 0 0 0-.752 3.072 1.56 1.56 0 0 0-1.586.697 1.93 1.93 0 0 0-.146 1.868 1.62 1.62 0 0 0 1.453.985h5.131v-2.78h-1.818a.314.314 0 0 1-.303-.325.33.33 0 0 1 .089-.222l2.74-2.643a.2.2 0 0 1 .274 0l2.732 2.637c.055.06.087.139.088.221a.314.314 0 0 1-.296.325h-1.816v2.789h4.045a2.856 2.856 0 0 0 2.716-2.981 2.86 2.86 0 0 0-2.716-2.982M797.78 248.56h-1.106a.527.527 0 0 0-.557.489v2.434h-13.363v-2.434a.524.524 0 0 0-.555-.489h-1.106a.514.514 0 0 0-.383.127.52.52 0 0 0-.181.362v3.911a.53.53 0 0 0 .558.489h16.693a.53.53 0 0 0 .558-.489v-3.911a.528.528 0 0 0-.558-.489"/><path fill="#000" d="M789.234 249.956a.308.308 0 0 0 .389 0l4.147-3.679a.35.35 0 0 0 .11-.256.42.42 0 0 0-.442-.392h-2.895v-7.335a.526.526 0 0 0-.557-.489h-1.106a.524.524 0 0 0-.557.489v7.333h-2.902a.42.42 0 0 0-.442.391.36.36 0 0 0 .11.257zM635.969 172.267c-1.92 0-3.24-1.26-3.24-3.3 0-1.86 1.32-3.24 3.24-3.24s3.24 1.38 3.24 3.24c0 1.98-1.26 3.3-3.24 3.3m-32.16 0c-1.86 0-3.18-1.26-3.18-3.3 0-1.86 1.26-3.24 3.18-3.24 1.98 0 3.24 1.38 3.24 3.24 0 1.98-1.2 3.3-3.24 3.3m16.2 0c-1.92 0-3.24-1.26-3.24-3.3 0-1.86 1.32-3.24 3.24-3.24s3.24 1.38 3.24 3.24c0 1.98-1.2 3.3-3.24 3.3"/></g></g><defs><clipPath id="a"><path fill="#fff" d="M0 0h1024v332H0z"/></clipPath></defs></svg>