<?xml version="1.0" encoding="UTF-8"?>
<svg   xmlns="http://www.w3.org/2000/svg" width="20" height="20" viewBox="0 0 20 20">
  <path d="M17.78027,12.71977l-1.76758-1.76758c-.29297-.29297-.76758-.29297-1.06055,0s-.29297.76758,0,1.06055l.4873.4873h-7.93945v-7.93945l.4873.4873c.14648.14648.33838.21973.53027.21973s.38379-.07324.53027-.21973c.29297-.29297.29297-.76758,0-1.06055l-1.76758-1.76758c-.29297-.29297-.76758-.29297-1.06055,0l-1.76758,1.76758c-.29297.29297-.29297.76758,0,1.06055s.76758.29297,1.06055,0l.4873-.4873v8.37891l-2.5,2.5v-.68945c0-.41406-.33594-.75-.75-.75s-.75.33594-.75.75v2.5c0,.41406.33594.75.75.75h2.5c.41406,0,.75-.33594.75-.75s-.33594-.75-.75-.75h-.68945l2.5-2.5h8.37891l-.4873.4873c-.29297.29297-.29297.76758,0,1.06055.14648.14648.33838.21973.53027.21973s.38379-.07324.53027-.21973l1.76758-1.76758c.29297-.29297.29297-.76758,0-1.06055Z" fill="var(--iconPrimary, #222)"/>
</svg>