<?xml version="1.0" encoding="UTF-8"?>
<svg   xmlns="http://www.w3.org/2000/svg" width="20" height="20" viewBox="0 0 20 20">
  <path d="M10,19.00004c-3.99072,0-7-3.22852-7-7.50879C3,6.63969,6.05762,1.00004,10,1.00004s7,5.63965,7,10.49121c0,4.28027-3.00928,7.50879-7,7.50879ZM10,2.50004c-3.04688,0-5.5,4.91895-5.5,8.99121,0,3.42578,2.36426,6.00879,5.5,6.00879,3.18701,0,5.5-2.52734,5.5-6.00879,0-4.07227-2.45312-8.99121-5.5-8.99121Z" fill="var(--iconPrimary, #222)"/>
  <path d="M10,16.00004c-.41406,0-.75-.33594-.75-.75s.33594-.75.75-.75c1.37549,0,2.49414-1.34961,2.49414-3.00879,0-.41406.33594-.75.75-.75s.75.33594.75.75c0,2.48633-1.79199,4.50879-3.99414,4.50879Z" fill="var(--iconPrimary, #222)"/>
</svg>