<?xml version="1.0" encoding="UTF-8"?>
<svg   xmlns="http://www.w3.org/2000/svg" width="20" height="20" viewBox="0 0 20 20">
  <path d="M18.73828,6.00488c-.08789-.17871-.24219-.31641-.43066-.38086l-3.78125-1.30469c-.38574-.13574-.81738.07422-.95312.46387-.13477.3916.07324.81934.46484.9541l2.01221.69421-3.97583,1.82397c-.17896-.13049-.37769-.23767-.59497-.31213l-4.33594-1.4873c-.46777-.16016-.98438-.15918-1.4541-.00098l-2.16602.73828c-.91113.31055-1.52344,1.16699-1.52344,2.12988v5.19824c0,.89062.52734,1.69922,1.34375,2.05957l4.73535,2.08301c.28906.12695.59766.19043.90625.19043.32227,0,.64453-.06934.94336-.20703l1.76465-.81445c.79395-.36621,1.30664-1.16797,1.30664-2.04297v-5.71875c0-.19116-.03052-.37598-.07642-.55542l3.85815-1.7699-.73291,2.12317c-.13477.3916.07227.81934.46387.9541.08105.02832.16406.04102.24512.04102.31055,0,.60156-.19434.70898-.50488l1.30566-3.78125c.06445-.18848.05273-.39453-.03418-.57324ZM8.25,17.10059l-4.30176-1.89258c-.27246-.12012-.44824-.38965-.44824-.68652v-5.18811l4.75,1.69495v6.07227ZM8.96362,9.69104l-3.96631-1.41528,1.17456-.40076c.15723-.05273.3291-.05273.48633,0l3.58032,1.22754-1.2749.5885ZM11.5,15.79004c0,.29199-.1709.55957-.43555.68164l-1.31445.6062v-6.09827l1.75-.80774v5.61816Z" fill="var(--iconPrimary, #222)"/>
</svg>