<?xml version="1.0" encoding="UTF-8"?>
<svg   xmlns="http://www.w3.org/2000/svg" width="20" height="20" viewBox="0 0 20 20">
  <path d="M11.76758,3.77148c-.19189,0-.38379-.07324-.53027-.21973l-1.2373-1.2373-1.2373,1.2373c-.29297.29297-.76758.29297-1.06055,0s-.29297-.76758,0-1.06055l1.76758-1.76758c.29297-.29297.76758-.29297,1.06055,0l1.76758,1.76758c.29297.29297.29297.76758,0,1.06055-.14648.14648-.33838.21973-.53027.21973Z" fill="var(--iconPrimary, #222)"/>
  <path d="M12.87549,8.60938c-.26318,0-.51904-.13867-.65625-.38574-.20117-.3623-.07031-.81836.2915-1.01953.07812-.04395.13428-.08203.17334-.11328-.28662-.22461-1.20996-.59082-2.68408-.59082s-2.39746.36621-2.68408.59082c.03906.03125.09521.06934.17334.11328.36182.20117.49268.65723.2915,1.01953-.20166.3623-.66064.49219-1.02002.29102-.83545-.46387-1.01074-1.02832-1.01074-1.41992,0-1.43945,2.20312-2.09473,4.25-2.09473s4.25.65527,4.25,2.09473c0,.3916-.17529.95605-1.01074,1.41992-.11523.06445-.24023.09473-.36377.09473Z" fill="var(--iconPrimary, #222)" opacity=".5"/>
  <path d="M7.68896,18.49902c-.34814,0-.7876-.10449-1.33008-.40723-.69727-.3877-1.44238-1.03516-2.09863-1.82227-1.31152-1.57031-2.22021-3.68164-1.11572-4.60449.30225-.25195.84814-.47852,1.73926-.13379.38623.14941.57812.58398.42822.96973-.14941.3877-.5835.5752-.97021.42871-.08301-.03223-.14746-.0498-.19629-.06055.01123.36426.32129,1.30762,1.26611,2.43945s1.81738,1.60645,2.17383,1.68164c-.00146-.0498-.00781-.11719-.0249-.2041-.07764-.40723.18896-.7998.5957-.87793.4043-.08691.79932.18848.87793.59473.18018.94043-.14209,1.43652-.44336,1.6875-.1709.14258-.46387.30859-.90186.30859Z" fill="var(--iconPrimary, #222)" opacity=".5"/>
  <path d="M12.37646,18.5c-.44287,0-.73975-.16895-.91553-.31836-.29785-.25195-.61523-.75098-.42773-1.68945.08154-.40625.48145-.66699.88232-.58789.40625.08105.66992.47656.58838.88281-.01758.08691-.02441.1543-.02637.2041.35693-.07324,1.23389-.53906,2.18799-1.66309.9541-1.12305,1.27295-2.06348,1.28711-2.42871-.04834.00977-.11328.02734-.19678.05957-.38574.14258-.82031-.0498-.96631-.4375-.14648-.3877.04932-.82031.43701-.9668.89258-.33398,1.43701-.10547,1.73682.14844.30566.25977.74854.89258.28369,2.21777-.26416.75293-.7749,1.59766-1.43848,2.37793-1.08398,1.27734-2.34229,2.11816-3.28369,2.19531-.05127.00391-.10059.00586-.14844.00586ZM12.48584,17.1084h.01025-.01025Z" fill="var(--iconPrimary, #222)" opacity=".5"/>
  <path d="M13.47998,13.42383l-2.72998-2.2749v-2.39893c0-.41406-.33594-.75-.75-.75s-.75.33594-.75.75v2.39893l-2.72998,2.2749c-.31836.26562-.36133.73828-.09619,1.05664.14844.17773.36182.26953.57666.26953.16895,0,.33936-.05664.47949-.17383l2.52002-2.1001,2.52002,2.1001c.14014.11719.31006.17383.47949.17383.21484,0,.42822-.0918.57666-.26953.26514-.31836.22217-.79102-.09619-1.05664Z" fill="var(--iconPrimary, #222)"/>
  <path d="M18.75,19.5h-2.5c-.41406,0-.75-.33594-.75-.75s.33594-.75.75-.75h1.75v-1.75c0-.41406.33594-.75.75-.75s.75.33594.75.75v2.5c0,.41406-.33594.75-.75.75Z" fill="var(--iconPrimary, #222)"/>
  <path d="M3.75,19.5H1.25c-.41406,0-.75-.33594-.75-.75v-2.5c0-.41406.33594-.75.75-.75s.75.33594.75.75v1.75h1.75c.41406,0,.75.33594.75.75s-.33594.75-.75.75Z" fill="var(--iconPrimary, #222)"/>
</svg>