<?xml version="1.0" encoding="UTF-8"?>
<svg   xmlns="http://www.w3.org/2000/svg" width="20" height="20" viewBox="0 0 20 20">
  <path d="M17.125,11h-.7666v-.00586c0-.99414-.77246-1.83691-1.72168-1.87793-.5-.02539-.96875.1543-1.32812.49805-.35449.33789-.55762.81348-.55762,1.30273v.08301h-.87598c-1.03418,0-1.875.84082-1.875,1.875v4.25c0,1.03418.84082,1.875,1.875,1.875h5.25c1.03418,0,1.875-.84082,1.875-1.875v-4.25c0-1.03418-.84082-1.875-1.875-1.875ZM13.37598,12.25c.34473,0,.625-.28027.625-.625v-.70801c0-.15234.06055-.29395.1709-.39941.11133-.10547.24707-.15723.40918-.15332.28613.0127.52734.30078.52734.62988v.63086c0,.34473.28027.625.625.625h.0166v.75h-2.5v-.75h.12598ZM17.75,17.125c0,.34473-.28027.625-.625.625h-5.25c-.34473,0-.625-.28027-.625-.625v-4.25c0-.34473.28027-.625.625-.625h.125v1.375c0,.34473.28027.625.625.625h3.75c.34473,0,.625-.28027.625-.625v-1.375h.125c.34473,0,.625.28027.625.625v4.25Z" fill="var(--iconPrimary, #222)"/>
  <path d="M7.82031,18.44922c-.06641,0-.13379-.00879-.20215-.02734-.11914-.03418-.23926-.07031-.35645-.10938-3.5957-1.18359-6.01172-4.52441-6.01172-8.3125C1.25,5.1748,5.1748,1.25,10,1.25c4.16406,0,7.77344,2.96094,8.58203,7.04004.02539.12598.04883.25488.06836.38574.06055.41016-.22168.79102-.63184.85254-.40234.05469-.79102-.22168-.85254-.63184-.01562-.10547-.0332-.20898-.05469-.3125-.66992-3.38184-3.66113-5.83398-7.11133-5.83398-3.99805,0-7.25,3.25195-7.25,7.25,0,3.13965,2.00195,5.90723,4.98145,6.88867.09668.03125.19336.06152.29102.08789.39844.11133.63184.52539.52051.9248-.09277.33105-.39453.54785-.72266.54785Z" fill="var(--iconPrimary, #222)"/>
  <path d="M6.86035,10.40527c-.49805,0-.93848-.16504-1.25488-.48242-.43555-.43555-.58496-1.10645-.40918-1.8418.15234-.6377.53418-1.28711,1.07617-1.8291,1.2168-1.21484,2.83008-1.50781,3.6709-.66699l.00098.00098c.8418.84277.54883,2.45605-.66797,3.6709-.54102.54199-1.19043.92383-1.82812,1.07617-.20215.04883-.39941.07227-.58789.07227ZM8.69336,6.35449c-.39062,0-.98438.23047-1.53711.78223-.375.375-.64648.8252-.74414,1.23535-.07129.29785-.04297.54688.07715.66699.12012.12109.37012.15137.66797.07812.41016-.09766.86035-.36914,1.23535-.74512.78516-.7832.91895-1.64941.66699-1.90234-.07422-.07422-.20215-.11523-.36621-.11523Z" fill="var(--iconPrimary, #222)"/>
</svg>