<?xml version="1.0" encoding="UTF-8"?>
<svg   xmlns="http://www.w3.org/2000/svg" width="20" height="20" viewBox="0 0 20 20">
  <path d="M10,18.75c-4.8252,0-8.75-3.9248-8.75-8.75S5.1748,1.25,10,1.25s8.75,3.9248,8.75,8.75c0,.2168-.00781.43066-.02344.64258-.03125.41406-.39062.71191-.80469.69141-.41309-.03125-.72266-.3916-.69141-.80469.01367-.1748.01953-.35156.01953-.5293,0-3.99805-3.25195-7.25-7.25-7.25s-7.25,3.25195-7.25,7.25,3.25195,7.25,7.25,7.25c.41406,0,.75.33594.75.75s-.33594.75-.75.75Z" fill="var(--iconPrimary, #222)"/>
  <path d="M6.86035,10.40527c-.49805,0-.93848-.16504-1.25488-.48242-.43555-.43555-.58496-1.10645-.40918-1.8418.15234-.6377.53418-1.28711,1.07617-1.8291,1.2168-1.21484,2.8291-1.50781,3.6709-.66699l.00098.00098c.8418.84277.54883,2.45605-.66797,3.6709-.54102.54199-1.19043.92383-1.82812,1.07617-.20215.04883-.39941.07227-.58789.07227ZM8.69336,6.35449c-.39062,0-.98438.23047-1.53711.78223-.375.375-.64648.8252-.74414,1.23535-.07129.29785-.04297.54688.07715.66699.12012.12109.37012.15137.66797.07812.41016-.09766.86035-.36914,1.23535-.74512.78516-.7832.91895-1.64941.66699-1.90234-.07422-.07422-.20215-.11523-.36621-.11523Z" fill="var(--iconPrimary, #222)"/>
  <path d="M18.78028,14.71971l-2-2c-.29297-.29297-.76758-.29297-1.06055,0s-.29297.76758,0,1.06055l.71973.71973h-4.93945c-.41406,0-.75.33594-.75.75s.33594.75.75.75h4.93945l-.71973.71973c-.29297.29297-.29297.76758,0,1.06055.14648.14648.33789.21973.53027.21973s.38379-.07324.53027-.21973l2-2c.29297-.29297.29297-.76758,0-1.06055h.00001Z" fill="var(--iconPrimary, #222)"/>
</svg>