<?xml version="1.0" encoding="UTF-8"?>
<svg   xmlns="http://www.w3.org/2000/svg" width="20" height="20" viewBox="0 0 20 20">
  <path d="M14.125,19h-3.25c-1.03418,0-1.875-.84082-1.875-1.875v-3.25c0-1.03418.84082-1.875,1.875-1.875.34473,0,.625.28027.625.625s-.28027.625-.625.625-.625.28027-.625.625v3.25c0,.34473.28027.625.625.625h3.25c.34473,0,.625-.28027.625-.625s.28027-.625.625-.625.625.28027.625.625c0,1.03418-.84082,1.875-1.875,1.875Z" fill="var(--iconPrimary, #222)"/>
  <path d="M15.875,10.25h-.75c-.34473,0-.625-.28027-.625-.625s.28027-.625.625-.625h.75c.34473,0,.625.28027.625.625s-.28027.625-.625.625Z" fill="var(--iconPrimary, #222)"/>
  <path d="M18.375,13.5c-.34473,0-.625-.28027-.625-.625v-.75c0-.34473.28027-.625.625-.625s.625.28027.625.625v.75c0,.34473-.28027.625-.625.625Z" fill="var(--iconPrimary, #222)"/>
  <path d="M12.625,13.5c-.34473,0-.625-.28027-.625-.625v-.75c0-.34473.28027-.625.625-.625s.625.28027.625.625v.75c0,.34473-.28027.625-.625.625Z" fill="var(--iconPrimary, #222)"/>
  <path d="M15.875,16h-.75c-.34473,0-.625-.28027-.625-.625s.28027-.625.625-.625h.75c.34473,0,.625.28027.625.625s-.28027.625-.625.625Z" fill="var(--iconPrimary, #222)"/>
  <path d="M17.68066,15.83594c-.23926,0-.46875-.13867-.57129-.37207-.13965-.31543.00293-.68457.31836-.82422.09473-.04199.16992-.11719.21191-.21191.13867-.31543.51074-.45996.82422-.31836.31543.13965.45801.50879.31836.82422-.16797.37988-.46875.68066-.84863.84863-.08203.03711-.16797.05371-.25293.05371Z" fill="var(--iconPrimary, #222)"/>
  <path d="M13.30469,15.82031c-.08398,0-.16895-.0166-.25098-.05273-.36816-.16113-.66016-.45312-.82129-.82129-.13867-.31641.00488-.68457.32129-.82324.31543-.1416.68457.00391.82324.32129.03516.0791.09961.14355.17871.17871.31641.13867.45996.50684.32129.82324-.10254.23438-.33203.37402-.57227.37402Z" fill="var(--iconPrimary, #222)"/>
  <path d="M12.80469,10.92969c-.08398,0-.16895-.0166-.25098-.05273-.31641-.13867-.45996-.50684-.32129-.82324.16113-.36816.45312-.66016.82129-.82129.31543-.14062.68457.00488.82324.32129s-.00488.68457-.32129.82324c-.0791.03516-.14355.09961-.17871.17871-.10254.23438-.33203.37402-.57227.37402Z" fill="var(--iconPrimary, #222)"/>
  <path d="M18.19531,10.92969c-.24023,0-.46973-.13965-.57227-.37402-.03516-.0791-.09961-.14355-.17871-.17871-.31641-.13867-.45996-.50684-.32129-.82324.1377-.31641.50586-.46191.82324-.32129.36816.16113.66016.45312.82129.82129.13867.31641-.00488.68457-.32129.82324-.08203.03613-.16699.05273-.25098.05273Z" fill="var(--iconPrimary, #222)"/>
  <path d="M6.73242,18.05469c-.10254,0-.20703-.02051-.30664-.06543-3.14453-1.40918-5.17578-4.54492-5.17578-7.98926C1.25,5.1748,5.1748,1.25,10,1.25c3.57812,0,6.75977,2.1416,8.10742,5.45508.15625.38379-.02832.82129-.41211.97656-.37891.15723-.82031-.02637-.97656-.41211-1.11719-2.74512-3.75391-4.51953-6.71875-4.51953-3.99805,0-7.25,3.25195-7.25,7.25,0,2.85352,1.68359,5.45215,4.28906,6.62012.37793.16992.54688.61328.37793.99121-.125.27832-.39844.44336-.68457.44336Z" fill="var(--iconPrimary, #222)"/>
  <path d="M6.86035,10.40527c-.49805,0-.93848-.16504-1.25488-.48242-.43555-.43555-.58496-1.10645-.40918-1.8418.15234-.6377.53418-1.28711,1.07617-1.8291,1.2168-1.21484,2.83008-1.50781,3.6709-.66699l.00098.00098c.8418.84277.54883,2.45605-.66797,3.6709-.54102.54199-1.19043.92383-1.82812,1.07617-.20215.04883-.39941.07227-.58789.07227ZM8.69336,6.35449c-.39062,0-.98438.23047-1.53711.78223-.375.375-.64648.8252-.74414,1.23535-.07129.29785-.04297.54688.07715.66699.12012.12109.37012.15137.66797.07812.41016-.09766.86035-.36914,1.23535-.74512.78516-.7832.91895-1.64941.66699-1.90234-.07422-.07422-.20215-.11523-.36621-.11523Z" fill="var(--iconPrimary, #222)"/>
</svg>