<?xml version="1.0" encoding="UTF-8"?>
<svg   xmlns="http://www.w3.org/2000/svg" width="20" height="20" viewBox="0 0 20 20">
  <g>
    <path d="M8.55664,18.62012c-.04492,0-.08984-.00391-.13574-.01172-4.15527-.75879-7.1709-4.37891-7.1709-8.6084C1.25,5.1748,5.1748,1.25,10,1.25c3.7373,0,7.06445,2.37402,8.27734,5.9082.13477.3916-.07324.81836-.46582.95215-.38672.13965-.81738-.07324-.95215-.46582-1.00586-2.92773-3.76172-4.89453-6.85938-4.89453-3.99805,0-7.25,3.25195-7.25,7.25,0,3.50488,2.49805,6.50391,5.94043,7.13184.40723.0752.67773.46582.60352.87305-.06641.3623-.38184.61523-.7373.61523Z" fill="var(--iconPrimary, #222)"/>
    <path d="M6.86035,10.40527c-.49805,0-.93848-.16504-1.25488-.48242-.43555-.43555-.58496-1.10645-.40918-1.8418.15234-.6377.53418-1.28711,1.07617-1.8291,1.2168-1.21484,2.83008-1.50781,3.6709-.66699l.00098.00098c.8418.84277.54883,2.45605-.66797,3.6709-.54102.54199-1.19043.92383-1.82812,1.07617-.20215.04883-.39941.07227-.58789.07227ZM8.69336,6.35449c-.39062,0-.98438.23047-1.53711.78223-.375.375-.64648.8252-.74414,1.23535-.07129.29785-.04297.54688.07715.66699.12012.12109.37012.15137.66797.07812.41016-.09766.86035-.36914,1.23535-.74512.78516-.7832.91895-1.64941.66699-1.90234-.07422-.07422-.20215-.11523-.36621-.11523Z" fill="var(--iconPrimary, #222)"/>
  </g>
  <g>
    <path d="M18.73438,12.88495l-.69092-.06055c-.08691-.18359-.1875-.36035-.30078-.52734l.29834-.62598c.30566-.64258.07275-1.39844-.54297-1.75977l-.48047-.28027c-.60596-.35352-1.39648-.17969-1.79834.39551l-.39697.56543c-.10059-.00879-.20215-.0127-.30469-.01367-.10449-.00781-.20459.00293-.30518.01172l-.39111-.56934c-.39893-.58105-1.18701-.76074-1.79492-.41113l-.48389.27539c-.60986.34863-.85449,1.12012-.55762,1.75488l.29248.62891c-.11523.16602-.21729.3418-.30566.52441l-.69141.05469c-.69922.05566-1.24951.64844-1.25293,1.34961l-.00244.55762c-.00293.71094.53027,1.2959,1.24072,1.36035l.69092.06055c.08691.18359.1875.36035.30078.52734l-.29834.62598c-.30566.64258-.07275,1.39844.54297,1.75977l.48047.28027c.60596.35352,1.39648.17969,1.79834-.39551l.39697-.56543c.10059.00879.20215.0127.30469.01367.10254-.00391.20361-.00391.30518-.01172l.39111.56934c.26123.38086.69043.58887,1.12598.58887.229,0,.45947-.05762.66895-.17773l.48389-.27539c.60986-.34863.85449-1.12012.55762-1.75488l-.29248-.62891c.11523-.16602.21729-.3418.30566-.52441l.69141-.05469c.69922-.05566,1.24951-.64844,1.25293-1.34961l.00244-.55762c.00293-.71094-.53027-1.2959-1.24073-1.36036ZM18.72266,14.79706c-.00049.05664-.04492.10449-.10107.10938l-1.06982.08398c-.24512.01953-.45605.17969-.53906.41113-.1123.31152-.27734.59473-.49023.8418-.16064.18652-.19727.44922-.09326.67188l.45312.97363c.02393.05078.00439.11328-.04443.14062l-.48535.27637c-.04785.02832-.11084.01367-.14307-.03418l-.60791-.88379c-.11816-.1709-.31152-.27051-.51514-.27051-.03662,0-.07373.00293-.11084.00977-.15479.02832-.31348.04492-.47607.04492-.18848-.00879-.33594-.01758-.49756-.04883-.24463-.04199-.48779.05469-.62891.25586l-.61621.87793c-.03271.04785-.0957.06348-.14453.03223l-.47949-.2793c-.05029-.03027-.06982-.0918-.04541-.14355l.46191-.96875c.10596-.22168.07178-.48535-.0874-.67285-.21045-.24805-.37256-.53223-.48242-.8457-.08105-.23145-.29053-.39453-.53516-.41602l-1.06787-.09277c-.05713-.00586-.10156-.05371-.10156-.11035l.00244-.55664c.00049-.05664.04492-.10449.10107-.10938l1.06982-.08398c.24512-.01953.45605-.17969.53906-.41113.1123-.31152.27734-.59473.49023-.8418.16064-.18652.19727-.44922.09326-.67188l-.45312-.97363c-.02393-.05078-.00439-.11328.04443-.14062l.48535-.27637c.04834-.02832.11084-.0127.14307.03418l.60791.88379c.13916.20117.38086.30273.62598.26074.15479-.02832.31348-.04492.47607-.04492.15137.00879.33594.01758.49756.04883.24316.04199.48779-.05469.62891-.25586l.61621-.87793c.03271-.04883.0957-.06348.14453-.03223l.47949.2793c.05029.03027.06982.0918.04541.14355l-.46191.96875c-.10596.22168-.07178.48535.0874.67285.21045.24805.37256.53223.48242.8457.08105.23145.29053.39453.53516.41602l1.06787.09277c.05713.00586.10156.05371.10156.11035,0,0-.00244.55664-.00244.55664Z" fill="var(--iconPrimary, #222)"/>
    <path d="M14.50494,13.38922c-.61359-.00281-1.11316.49255-1.11591,1.10608-.00269.61353.49249,1.11304,1.10602,1.11584.61359.00269,1.11316-.49255,1.11591-1.10608.00269-.61353-.49249-1.11316-1.10602-1.11584Z" fill="var(--iconPrimary, #222)"/>
  </g>
</svg>