<?xml version="1.0" encoding="UTF-8"?>
<svg   xmlns="http://www.w3.org/2000/svg" width="20" height="20" viewBox="0 0 20 20">
  <path d="M17.45117,4.36528l-.69678-2.40137c-.05518-.19141-.18457-.35254-.35889-.44824-.17432-.09668-.37939-.11816-.57031-.06348l-2.40088.69727c-.39795.11621-.62695.53223-.51123.92969.11523.39746.53076.62305.9292.51172l.66162-.19214-2.01953,3.66968c-.19971.3623-.06738.81836.29541,1.01855.11475.0625.23877.09277.36133.09277.26465,0,.521-.14062.65771-.38867l2.01971-3.67017.1922.66235c.09521.32812.39453.54102.71973.54102.06934,0,.13965-.00977.20947-.0293.39795-.11621.62695-.53223.51123-.92969Z" fill="var(--iconPrimary, #222)"/>
  <path d="M8.44727,9.23344h-4.18945l.4873-.4873c.29297-.29297.29297-.76758,0-1.06055s-.76758-.29297-1.06055,0l-1.76758,1.76758c-.29297.29297-.29297.76758,0,1.06055l1.76758,1.76758c.14648.14648.33838.21973.53027.21973s.38379-.07324.53027-.21973c.29297-.29297.29297-.76758,0-1.06055l-.4873-.4873h4.18945c.41406,0,.75-.33594.75-.75s-.33594-.75-.75-.75Z" fill="var(--iconPrimary, #222)"/>
  <path d="M17.41406,14.65629c-.40527-.0918-.80566.16406-.896.56738l-.1507.67236-2.24237-3.53857c-.22217-.35156-.68604-.45508-1.03467-.23242-.3501.22168-.4541.68555-.23193,1.03516l2.24323,3.53979-.67389-.15112c-.40527-.09375-.80566.16309-.896.56738s.16357.80566.56787.89551l2.43945.54688c.05518.0127.11035.01855.16455.01855.34326,0,.65332-.2373.73145-.58594l.54688-2.43945c.09033-.4043-.16357-.80566-.56787-.89551Z" fill="var(--iconPrimary, #222)"/>
  <path d="M17.08984,9.20414l-.78906-1.31836c-.17773-.29785-.56152-.39453-.85742-.21582-.29639.17676-.39258.56055-.21582.85742l.49731.83081-3.64722-.00073-1.94818-3.07715.96967-.02539c.34521-.00879.61768-.2959.60889-.6416-.00928-.34473-.31738-.59961-.64111-.6084l-1.5376.04004c-.54688.01465-1.05078.32129-1.31494.80078l-.646,1.17383c-.1665.30273-.05615.68262.24609.84961.0957.05273.19873.07715.30078.07715.22021,0,.43408-.11719.54785-.32324l.38947-.70776,1.9577,3.09253-1.81696,3.30225-.57855-.97314c-.17627-.29688-.56201-.39355-.85645-.21777-.29688.17676-.39453.55957-.21777.85645l.86963,1.46191c.27979.45898.78418.74121,1.32861.74121h.02344l1.68945-.04785c.34521-.00977.6167-.29785.60693-.64258-.00977-.3457-.33301-.62402-.64209-.60742l-1.1283.03223,1.81873-3.30566,3.65857.00073-.39099.71021c-.1665.30273-.05664.68262.24609.84961.09521.05273.19873.07715.30078.07715.22021,0,.43408-.11719.54785-.32324l.64844-1.17773c.26318-.47949.25293-1.06934-.02783-1.54004Z" fill="var(--iconPrimary, #222)"/>
</svg>