<?xml version="1.0" encoding="UTF-8"?>
<svg   xmlns="http://www.w3.org/2000/svg" width="20" height="20" viewBox="0 0 20 20">
  <path d="M19.03027,10.71977l-1.76758-1.76758c-.29297-.29297-.76758-.29297-1.06055,0s-.29297.76758,0,1.06055l.4873.4873h-2.43945c-.41406,0-.75.33594-.75.75s.33594.75.75.75h2.43945l-.4873.4873c-.29297.29297-.29297.76758,0,1.06055.14648.14648.33838.21973.53027.21973s.38379-.07324.53027-.21973l1.76758-1.76758c.29297-.29297.29297-.76758,0-1.06055Z" fill="var(--iconPrimary, #222)"/>
  <path d="M5.39111,14.60844c-.29297-.29297-.76758-.29297-1.06055,0l-1.79785,1.79834v-.68896c0-.41406-.33594-.75-.75-.75s-.75.33594-.75.75v2.5c0,.41406.33594.75.75.75h2.5c.41406,0,.75-.33594.75-.75s-.33594-.75-.75-.75h-.68988l1.79828-1.79883c.29297-.29297.29297-.76758,0-1.06055Z" fill="var(--iconPrimary, #222)"/>
  <path d="M8.75,14.52543c-1.80566,0-3.2749-1.46973-3.2749-3.27539s1.46924-3.27539,3.2749-3.27539,3.2749,1.46973,3.2749,3.27539-1.46924,3.27539-3.2749,3.27539ZM8.75,9.52543c-.95117,0-1.7251.77344-1.7251,1.72461s.77393,1.72461,1.7251,1.72461,1.7251-.77344,1.7251-1.72461-.77393-1.72461-1.7251-1.72461Z" fill="var(--iconPrimary, #222)"/>
  <path d="M11.04785,2.73735l-1.76758-1.76758c-.29297-.29297-.76758-.29297-1.06055,0l-1.76758,1.76758c-.29297.29297-.29297.76758,0,1.06055s.76758.29297,1.06055,0l.4873-.4873v2.43945c0,.41406.33594.75.75.75s.75-.33594.75-.75v-2.43945l.4873.4873c.14648.14648.33838.21973.53027.21973s.38379-.07324.53027-.21973c.29297-.29297.29297-.76758,0-1.06055Z" fill="var(--iconPrimary, #222)"/>
</svg>