<?xml version="1.0" encoding="UTF-8"?>
<svg   xmlns="http://www.w3.org/2000/svg" width="20" height="20" viewBox="0 0 20 20">
  <path d="m8.79395,18h-4.54395c-1.24023,0-2.25-1.00977-2.25-2.25v-4.54395c0-1.1875.93945-2.17383,2.1377-2.24414,4.26172-.24707,4.88672-1.67676,5.16016-3.12012.55957-2.93848,2.27832-4.625,4.71582-4.62695h.00488c1.28125,0,2.47754.49023,3.36914,1.38184s1.38184,2.08887,1.38086,3.37109c-.00098,2.45117-1.68164,4.17676-4.61035,4.7334-1.44336.27441-2.87305.89941-3.12012,5.16016-.07031,1.2002-1.05664,2.13867-2.24414,2.13867ZM14.01855,2.71484h-.00293c-2.14551.00195-2.94824,1.85352-3.24414,3.40723-.53223,2.80469-2.49023,4.10254-6.54688,4.33789-.40625.02344-.72461.35156-.72461.74609v4.54395c0,.41309.33691.75.75.75h4.54395c.39453,0,.72266-.31836.74609-.72559.23535-4.05566,1.5332-6.01367,4.33887-6.54688,1.5459-.29395,3.38867-1.09766,3.38965-3.26074.00098-.88184-.33398-1.70117-.94141-2.30957-.6084-.60742-1.42773-.94238-2.30859-.94238Z" fill="var(--iconPrimary, #222)" stroke-width="0"/>
</svg>