<?xml version="1.0" encoding="UTF-8"?>
<svg   xmlns="http://www.w3.org/2000/svg" width="20" height="20" viewBox="0 0 20 20">
  <path d="m8.79102,4.51367c-.16211,0-.32617-.05273-.46387-.16211-.3252-.25684-.37988-.72852-.12305-1.05273.17676-.22461.37012-.43652.57617-.63184.29883-.28711.77344-.27539,1.05957.02637.28613.2998.27441.77441-.02637,1.05957-.15527.14844-.2998.30762-.43359.47559-.14746.1875-.36719.28516-.58887.28516Z" fill="var(--iconPrimary, #222)" opacity=".35" stroke-width="0"/>
  <path d="m17.35938,10.74121c-.14258,0-.28809-.04102-.41602-.12598-.34375-.23047-.43652-.69629-.20703-1.04102.23828-.35547.42285-.74121.55176-1.14648.125-.39453.55078-.61426.94141-.48828.39453.125.61328.5459.48828.94141-.1709.54004-.41797,1.05371-.7334,1.52734-.14551.21582-.38281.33301-.625.33301Zm.83887-3.68945c-.36621,0-.6875-.26953-.74121-.64258-.06152-.4248-.18066-.83691-.35449-1.22363-.16992-.37793-.00195-.82227.37598-.99121.375-.16895.82227-.00293.99121.37598.23145.51465.39062,1.06152.47168,1.62402.05957.41016-.22461.79004-.63477.84961-.03613.00488-.07227.00781-.1084.00781Zm-1.83594-3.30762c-.1709,0-.3418-.05762-.48242-.17578-.3291-.27637-.69238-.50391-1.07812-.67578-.37891-.16895-.54883-.6123-.38086-.99023.16992-.37891.61621-.54785.99023-.38086.51465.22949.99707.53125,1.43359.89844.31738.2666.3584.73926.0918,1.05664-.14844.17676-.36035.26758-.57422.26758Zm-5.0332-.99219c-.31836,0-.61328-.20312-.71484-.52246-.12598-.39453.09277-.81641.4873-.94238.53906-.17188,1.09961-.26758,1.66602-.28516.4209-.00879.75977.3125.77344.72656.0127.41406-.3125.76074-.72656.77344-.42773.0127-.85156.08496-1.25781.21484-.0752.02344-.15234.03516-.22754.03516Z" fill="var(--iconPrimary, #222)" opacity=".35" stroke-width="0"/>
  <path d="m14.9541,12.70801c-.29492,0-.5752-.17578-.69434-.46582-.15625-.38379.02734-.82129.41016-.97852.19922-.08105.39062-.17578.57422-.2832.3584-.20996.81641-.08789,1.02637.26855.20898.3584.08887.81738-.26855,1.02637-.24414.14258-.5.26855-.76367.37695-.09277.03809-.18945.05566-.28418.05566Z" fill="var(--iconPrimary, #222)" opacity=".35" stroke-width="0"/>
  <path d="m13.26562,11.59766c-.01562,0-.12305.00098-.13867-.00098l-.17676.00293c-2.50879,0-4.5498-2.04102-4.5498-4.5498,0-.44336.0625-.87891.18652-1.29395.06934-.18359.06348-.3877-.0166-.56836-.08496-.19141-.24609-.33789-.44336-.40527-.49219-.16797-1.01855-.13281-1.48535.0957l-4.55957,2.24805c-.66797.33008-1.08203.99707-1.08203,1.74023v5.76367c0,.73828.41016,1.40234,1.07031,1.73438l4.55957,2.28613c.27246.13672.57129.20605.87012.20605s.59766-.06836.86914-.20508l4.56152-2.28809c.65918-.33105,1.06934-.99512,1.06934-1.7334v-2.28223c0-.4082-.32617-.74121-.73438-.75Zm-6.33203-5.19141c-.02148.21289-.0332.42773-.0332.64355,0,1.05493.27612,2.04468.75269,2.90894-.11182.04126-.23364.04248-.34253-.00854l-3.84668-1.83264,3.46973-1.7113ZM2.74316,15.02344c-.15039-.0752-.24316-.22656-.24316-.39355v-5.31104l4.16602,1.98486c.0271.01294.0564.01758.08398.02905v5.69971l-4.00684-2.00903Zm9.75684-.39355c0,.16699-.09277.31836-.24219.39258l-4.00781,2.01025v-5.69849c.02832-.01172.05811-.01636.08594-.02954l.21875-.10474c1.00708,1.06592,2.39551,1.76831,3.94531,1.88306v1.54688Z" fill="var(--iconPrimary, #222)" stroke-width="0"/>
</svg>