<?xml version="1.0" encoding="UTF-8"?>
<svg   xmlns="http://www.w3.org/2000/svg" width="20" height="20" viewBox="0 0 20 20">
  <path d="m12.9502,1c-2.49951,0-4.64941,1.5238-5.5708,3.69104-.25317.01233-.50439.07251-.73779.18689l-4.55957,2.24805c-.66797.33008-1.08203.99707-1.08203,1.74023v5.76367c0,.73828.41016,1.40234,1.07031,1.73438l4.55957,2.28613c.27246.13672.57129.20605.87012.20605s.59766-.06836.86914-.20508l4.56152-2.28809c.65918-.33105,1.06934-.99512,1.06934-1.7334v-1.62769c2.83643-.49927,5-2.9751,5-5.95239,0-3.33594-2.71387-6.0498-6.0498-6.0498Zm-6.2002,16.03247l-4.00684-2.00903c-.15039-.0752-.24316-.22656-.24316-.39355v-5.31104l4.16602,1.98486c.0271.01294.0564.01758.08398.02917v5.69958Zm7.25-5.56714v.85498c0,.40039-.31445.72949-.71387.74902-.15625.02051-.24414.03027-.33594.03027-.15186,0-.30103-.01172-.4502-.02283v1.5531c0,.16699-.09277.31836-.24219.39258l-4.00781,2.01025v-5.69897c.02759-.01172.05664-.01611.08398-.02905l.22412-.10669c.00024.00024.00049.00049.00073.00061-.35229-.37268-.66089-.78711-.9104-1.23962.00024.00024.00049.00049.00049.00073-.1106.03967-.23071.04077-.33838-.00952l-3.84644-1.83252,3.47168-1.71216c-.02246.21191.05542-.47388.25073-1.11548.05957-.19629.19727-.36035.38086-.45215.18262-.0918.39648-.10645.58887-.03613.07715.02246.1416.04688.20508.07812l.48486.23901c.72925-1.54211,2.28809-2.6189,4.104-2.6189,2.50879,0,4.5498,2.04102,4.5498,4.5498,0,2.146-1.49805,3.93872-3.5,4.41553Z" fill="var(--iconPrimary, #222)" opacity=".35" stroke-width="0"/>
  <path d="m12.9502,13.09961c-3.33594,0-6.0498-2.71387-6.0498-6.0498,0-.55859.09082-1.11816.28613-1.75977.05957-.19629.19727-.36035.38086-.45215.18262-.0918.39648-.10645.58887-.03613.07715.02246.1416.04688.20508.07812l4.55664,2.24609s0,.00098.00098.00098c.66699.33008,1.08105.99609,1.08105,1.73926v3.4541c0,.40039-.31445.72949-.71387.74902-.15625.02051-.24414.03027-.33594.03027Zm-4.51953-6.51367c-.02051.15918-.03027.3125-.03027.46387,0,2.35645,1.80176,4.30078,4.09961,4.52734v-2.71094c0-.16797-.09473-.32031-.24707-.39551l-3.82227-1.88477Z" fill="var(--iconPrimary, #222)" stroke-width="0"/>
</svg>