<?xml version="1.0" encoding="UTF-8"?>
<svg   xmlns="http://www.w3.org/2000/svg" width="20" height="20" viewBox="0 0 20 20">
  <path d="m19,7.0498c0-3.33594-2.71387-6.0498-6.0498-6.0498-2.49951,0-4.64941,1.5238-5.5708,3.69104-.25317.01233-.50439.07251-.73779.18689l-4.55957,2.24805c-.66797.33008-1.08203.99707-1.08203,1.74023v5.76367c0,.73828.41016,1.40234,1.07031,1.73438l4.55957,2.28613c.27246.13672.57129.20605.87012.20605s.59766-.06836.86914-.20508l4.56152-2.28809c.65918-.33105,1.06934-.99512,1.06934-1.7334v-1.62769c2.83643-.49927,5-2.9751,5-5.95239Zm-12.25,9.98267l-4.00684-2.00903c-.15039-.0752-.24316-.22656-.24316-.39355v-5.31104l4.16602,1.98486c.0271.01294.0564.01758.08398.02917v5.69958Zm.56055-7.08228l-3.84644-1.83252,3.47168-1.71216c-.02246.21191-.0354.42651-.0354.64429,0,1.05444.27246,2.0459.74854,2.90991-.1106.03967-.23071.04077-.33838-.00952Zm4.94727,5.07227l-4.00781,2.01025v-5.69897c.02759-.01172.05664-.01611.08398-.02905l.22412-.10669c1.00684,1.06531,2.39282,1.76392,3.94189,1.87878v1.5531c0,.16699-.09277.31836-.24219.39258Zm.69238-3.42285c-2.50879,0-4.5498-2.04102-4.5498-4.5498s2.04102-4.5498,4.5498-4.5498,4.5498,2.04102,4.5498,4.5498-2.04102,4.5498-4.5498,4.5498Z" fill="var(--iconPrimary, #222)" stroke-width="0"/>
</svg>