<?xml version="1.0" encoding="UTF-8"?>
<svg   xmlns="http://www.w3.org/2000/svg" width="20" height="20" viewBox="0 0 20 20">
  <path d="M8.36572,17.00004H1.24854c-.41406,0-.75-.33594-.75-.75s.33594-.75.75-.75h7.11719c.41406,0,.75.33594.75.75s-.33594.75-.75.75Z" fill="var(--iconPrimary, #222)"/>
  <path d="M15,10.50048c-2.48529,0-4.5,2.01471-4.5,4.5s2.01471,4.5,4.5,4.5,4.5-2.01471,4.5-4.5-2.01471-4.5-4.5-4.5ZM17.5,15.62548h-1.875v1.875c0,.34473-.28027.625-.625.625s-.625-.28027-.625-.625v-1.875h-1.875c-.34473,0-.625-.28027-.625-.625s.28027-.625.625-.625h1.875v-1.875c0-.34473.28027-.625.625-.625s.625.28027.625.625v1.875h1.875c.34473,0,.625.28027.625.625s-.28027.625-.625.625Z" fill="var(--iconPrimary, #222)"/>
  <path d="M11.86963,3.09379L7.87012.79887c-.69141-.39648-1.54932-.39648-2.23975,0L1.63086,3.09282c-.69775.39941-1.13086,1.14746-1.13086,1.95215v4.57324c0,.80273.43311,1.55078,1.13037,1.95117l3.99951,2.29492c.3457.19824.73291.29785,1.12012.29785s.77441-.09961,1.11963-.29785l1.23779-.70996c.35938-.20605.4834-.66406.27734-1.02344-.20557-.36035-.66504-.48242-1.02344-.27734l-.86133.4939v-4.72559l4-2.29443v3.51538c0,.41406.33594.75.75.75s.75-.33594.75-.75v-3.79785c0-.80469-.43311-1.55273-1.13037-1.95117ZM6.37695,2.09965c.23047-.13281.51611-.13281.74658,0l3.49396,2.00513-3.99255,2.29028-3.86835-2.21851,3.62036-2.0769ZM2.37695,10.2686c-.23242-.13379-.37695-.38281-.37695-.65039v-4.14746l4,2.29492v4.58179l-3.62305-2.07886Z" fill="var(--iconPrimary, #222)"/>
</svg>