<?xml version="1.0" encoding="UTF-8"?>
<svg   xmlns="http://www.w3.org/2000/svg" width="20" height="20" viewBox="0 0 20 20">
  <path d="M18.75049,15.50004h-2.25c-.03217,0-.05963.0144-.09076.01831-.3338-1.43945-1.62024-2.51831-3.15973-2.51831-1.53278,0-2.81342,1.06982-3.15405,2.5H1.24951c-.41406,0-.75.33594-.75.75s.33594.75.75.75h8.84644c.34064,1.43018,1.62128,2.5,3.15405,2.5,1.53949,0,2.82593-1.07886,3.15973-2.51831.03113.00391.05859.01831.09076.01831h2.25c.41406,0,.75-.33594.75-.75s-.33594-.75-.75-.75ZM13.25,18.00004c-.96484,0-1.75-.78516-1.75-1.75s.78516-1.75,1.75-1.75,1.75.78516,1.75,1.75-.78516,1.75-1.75,1.75Z" fill="var(--iconPrimary, #222)"/>
  <path d="M11.86963,3.09379L7.87012.79887c-.69141-.39648-1.54932-.39648-2.23975,0L1.63086,3.09282c-.69775.39941-1.13086,1.14746-1.13086,1.95215v4.57324c0,.80273.43311,1.55078,1.13037,1.95117l3.99951,2.29492c.3457.19824.73291.29785,1.12012.29785s.77441-.09961,1.11963-.29785l4.00049-2.29492c.69678-.40039,1.12988-1.14844,1.12988-1.95117v-4.57324c0-.80469-.43311-1.55176-1.13037-1.95117ZM6.37695,2.09965c.11523-.06641.24414-.09961.37305-.09961s.2583.0332.37354.09961l3.61951,2.07666-3.9931,2.29053-3.99335-2.29028,3.62036-2.0769ZM2.37695,10.2686c-.23242-.13379-.37695-.38281-.37695-.65039v-4.14746l4,2.29492v4.58179l-3.62305-2.07886ZM11.12354,10.2686l-3.62354,2.07861v-4.58203l4-2.29443v4.14746c0,.26758-.14453.5166-.37646.65039Z" fill="var(--iconPrimary, #222)"/>
</svg>