<?xml version="1.0" encoding="UTF-8"?>
<svg xmlns="http://www.w3.org/2000/svg" width="20" height="20" viewBox="0 0 20 20">
  <g id="f" >
    <path d="m12.60328,7.79932l-4.5603-2.24854c-.03906-.01917-.08081-.02844-.12134-.04321-.15015.49121-.25488,1.00208-.25488,1.54248,0,2.927,2.37305,5.29993,5.30005,5.29993.10278,0,.19873-.02441.30005-.03015v-3.45361c0-.45288-.25732-.8667-.66357-1.06689Z" fill="var(--iconPrimary, #222)" opacity=".3" stroke-width="0"/>
    <path d="m12.9668,13.09961c-3.33594,0-6.0498-2.71387-6.0498-6.0498,0-.55273.09375-1.12891.28809-1.76172.05957-.19629.19824-.36035.38281-.45215.18359-.09082.39746-.10156.5918-.03223.07227.02148.13574.04492.19824.07617l4.55762,2.24609s0,.00098.00098.00098c.66602.33008,1.08008.99609,1.08008,1.73926v3.4541c0,.40039-.31445.72949-.71387.74902-.15527.02051-.24414.03027-.33594.03027Zm-4.51953-6.51367c-.02051.1582-.03027.3125-.03027.46387,0,2.35645,1.80176,4.30078,4.09961,4.52734v-2.71094c0-.16895-.09375-.32031-.24609-.39551l-3.82324-1.88477Z" fill="var(--iconPrimary, #222)" stroke-width="0"/>
  </g>
  <g id="g" >
    <path d="m8.79102,4.51367c-.16211,0-.32617-.05273-.46387-.16211-.3252-.25684-.37988-.72852-.12305-1.05273.17676-.22461.37012-.43652.57617-.63184.29785-.28711.77344-.27539,1.05957.02637.28613.2998.27441.77441-.02637,1.05957-.15527.14844-.2998.30762-.43359.47559-.14746.1875-.36719.28516-.58887.28516Z" fill="var(--iconPrimary, #222)" opacity=".35" stroke-width="0"/>
    <path d="m17.35938,10.74121c-.14258,0-.28809-.04102-.41602-.12598-.34375-.23047-.43652-.69629-.20703-1.04102.23828-.35547.42285-.74121.55176-1.14648.12402-.39453.54883-.61426.94141-.48828.39453.125.61328.5459.48828.94141-.1709.54004-.41797,1.05371-.7334,1.52734-.14551.21582-.38281.33301-.625.33301Zm.83887-3.68945c-.36621,0-.6875-.26953-.74121-.64258-.06152-.4248-.18066-.83691-.35449-1.22363-.16992-.37793-.00195-.82227.37598-.99121.37598-.16895.82227-.00293.99121.37598.23145.51465.39062,1.06152.47168,1.62402.05957.41016-.22461.79004-.63477.84961-.03613.00488-.07227.00781-.1084.00781Zm-1.83594-3.30762c-.1709,0-.3418-.05762-.48242-.17578-.3291-.27637-.69238-.50391-1.07812-.67578-.37891-.16895-.54883-.6123-.38086-.99023.16992-.37891.61523-.54785.99023-.38086.51465.22949.99707.53125,1.43359.89844.31738.2666.3584.73926.0918,1.05664-.14844.17676-.36035.26758-.57422.26758Zm-5.0332-.99219c-.31836,0-.61328-.20312-.71484-.52246-.12598-.39453.09277-.81641.4873-.94238.53906-.17188,1.09961-.26758,1.66602-.28516.39648-.00879.76074.3125.77344.72656s-.3125.76074-.72656.77344c-.42773.0127-.85156.08496-1.25781.21484-.0752.02344-.15234.03516-.22754.03516Z" fill="var(--iconPrimary, #222)" opacity=".35" stroke-width="0"/>
    <path d="m14.9541,12.70801c-.29492,0-.5752-.17578-.69434-.46582-.15625-.38379.02734-.82129.41016-.97852.19922-.08105.39062-.17578.57422-.2832.3584-.20996.81641-.08789,1.02637.26855.20898.3584.08887.81738-.26855,1.02637-.24414.14258-.5.26855-.76367.37695-.09277.03809-.18945.05566-.28418.05566Z" fill="var(--iconPrimary, #222)" opacity=".35" stroke-width="0"/>
    <path d="m13.30273,13.06934c-.15527.02051-.24414.03027-.33594.03027-.15771,0-.31226-.01172-.4668-.02368v1.55396c0,.16699-.09277.31836-.24219.39258l-4.00781,2.01025v-5.70459c.0415-.01685.08398-.02441.125-.04395l.18506-.10254c-.34644-.36926-.65063-.77844-.89648-1.22522-.11426.04553-.24072.04626-.35303-.00623l-3.84644-1.83252,3.5083-1.72974c.04517-.35193.11401-.71313.23267-1.09985.05957-.19629.19824-.36035.38281-.45215.15186-.07507.32275-.08179.48779-.04749-.04004-.01758-.07373-.04431-.11768-.05505-.44043-.1084-.90625-.05566-1.31641.14453l-4.55957,2.24805c-.66797.33008-1.08203.99707-1.08203,1.74023v5.76367c0,.73828.41016,1.40234,1.07031,1.73438l4.55957,2.28613c.27246.13672.57129.20605.87012.20605s.59766-.06836.86914-.20508l4.56152-2.28809c.65918-.33105,1.06934-.99512,1.06934-1.7334v-2.22461c-.04248.35913-.32788.646-.69727.66406Zm-6.55273,3.96313l-4.00684-2.00903c-.15039-.0752-.24316-.22656-.24316-.39355v-5.31104l4.16602,1.98486c.0271.01294.0564.01758.08398.0293v5.69946Z" fill="var(--iconPrimary, #222)" opacity=".35" stroke-width="0"/>
  </g>
</svg>