<?xml version="1.0" encoding="UTF-8"?>
<svg xmlns="http://www.w3.org/2000/svg" width="20" height="20" viewBox="0 0 20 20">
  <path d="m18.41016,7.76953l-2.15332-3.49316c-.08838-.14343-.20044-.2688-.3175-.38867-.01086-.01465-.02197-.02783-.03381-.0415-.03528-.03442-.07446-.06287-.11182-.09497-.03687-.02869-.07056-.05945-.1123-.08057-.09644-.07324-.18701-.15405-.29468-.21167l-3.42969-1.82812c-.52539-.28027-1.12988-.3457-1.70215-.18066l-5.07715,1.44922c-.67188.19238-1.21191.67285-1.48047,1.31641l-2.27148,5.44141c-.28418.68262-.21973,1.46387.17188,2.09082l2.51172,4.0166c.21191.33789.50977.61621.8623.80371l3.36133,1.79199c.21143.11353.43823.17798.66882.21985.07507.02441.14819.0575.22766.0575.03784,0,.07556-.01001.11353-.01587.02197.00073.04321.00806.06519.00806.27734,0,.55566-.05078.82129-.15234l4.82812-1.86133c.58691-.22754,1.05859-.69238,1.29395-1.27441l2.23145-5.5166c.27246-.67188.20703-1.44141-.17285-2.05566Zm-7.74316-4.87793c.07129-.01953.14355-.03027.21484-.03027.12793,0,.25391.03223.37012.09375l2.15869,1.15039-3.88818,1.10938c-.12817.0365-.24646.09265-.36401.14917l-2.48047-1.3335,3.98901-1.13892Zm-5.61255,1.96851l3.01416,1.62061c-.00806.01807-.02087.03308-.02856.05151l-2.25903,5.41211-2.98853-1.59448c.0094-.03784.00269-.07788.01807-.1145l2.2439-5.37524Zm.32642,10.10864l-1.44336-2.30762,1.79529.95776c.05505.15454.1217.30591.21057.44751l1.24658,1.98462-1.51318-.80688c-.12109-.06445-.22363-.16016-.2959-.27539Zm11.81152-5.70605l-2.23145,5.5166c-.08105.2002-.24316.36035-.44434.4375l-4.82617,1.86035c-.02515.00964-.05249.00513-.07837.01196l-2.39819-3.8186c-.13574-.2168-.1582-.48633-.05957-.7207l2.27051-5.43945c.09277-.22168.27734-.38672.50879-.45215l5.12732-1.46265,2.07288,3.36206c.12988.21094.15234.47363.05859.70508Z" fill="var(--iconPrimary, #222)"/>
</svg>