<?xml version="1.0" encoding="UTF-8"?>
<svg   xmlns="http://www.w3.org/2000/svg" width="20" height="20" viewBox="0 0 20 20">
  <path d="M19.10059,5.98047c-.13818-2.06116-3.60303-3.00037-7.21436-3.0835l1.0415-1.32666c.25586-.3252.19922-.79688-.12695-1.05273-.32715-.25879-.79883-.19824-1.05273.12695l-2.28613,2.91211c-.12305.15625-.17871.35547-.1543.55273.02344.19727.125.37695.28125.5l2.70215,2.12109c.13672.1084.30078.16016.46191.16016.22266,0,.44336-.09863.59082-.28711.25586-.3252.19922-.79688-.12695-1.05273l-1.46924-1.15332c3.77734.06519,5.8147,1.06836,5.85693,1.68359.0354.53259-1.54541,1.77515-5.26904,2.39746-.23657-.2356-.52588-.42212-.85596-.53516l-4.33594-1.4873c-.46777-.16016-.98438-.15918-1.4541-.00098l-2.16602.73828c-.91113.31055-1.52344,1.16699-1.52344,2.12988v5.19824c0,.89062.52734,1.69922,1.34375,2.05957l4.73535,2.08301c.28906.12695.59766.19043.90625.19043.32227,0,.64453-.06934.94336-.20703l1.76465-.81445c.79395-.36621,1.30664-1.16797,1.30664-2.04297v-5.71875c0-.06006-.00928-.11841-.01416-.17749,3.09399-.58203,6.25171-1.88086,6.11475-3.91333ZM6.17188,7.875c.15723-.05273.3291-.05273.48633,0l3.58032,1.22754-1.2749.5885-3.96631-1.41528,1.17456-.40076ZM3.94824,15.20801c-.27246-.12012-.44824-.38965-.44824-.68652v-5.18811l4.75,1.69495v6.07227l-4.30176-1.89258ZM11.06445,16.47168l-1.31445.6062v-6.09814l1.75-.80774v5.61804c0,.29199-.1709.55957-.43555.68164Z" fill="var(--iconPrimary, #222)"/>
</svg>