<?xml version="1.0" encoding="UTF-8"?>
<svg   xmlns="http://www.w3.org/2000/svg" width="20" height="20" viewBox="0 0 20 20">
  <path d="m14.64697,16.5166c-.375,0-.69873-.28027-.74365-.66211-.04883-.41113.24561-.78418.65674-.83301.64209-.0752,1.24561-.17773,1.74609-.2959.22852-.05371.41357-.19922.52148-.41016.10986-.21484.11914-.46777.02539-.69238-1.33301-3.19727-4.62354-11.11328-4.62354-11.11328l-1.73682,4.0459c-.15918.38184-.59668.56348-.98047.4043-.38232-.15918-.56348-.59766-.4043-.98047l1.68359-4.0459c.25195-.58008.79102-.93359,1.41162-.93359.62109,0,1.15967.35352,1.40674.92285.00439.01074,3.29492,7.92676,4.62793,11.12305.26318.63184.23633,1.34375-.07422,1.95215-.30713.60059-.8584,1.0332-1.51318,1.1875-.55566.13086-1.21729.24316-1.91455.32617-.02979.00293-.05957.00488-.08887.00488Z" fill="var(--iconPrimary, #222)" stroke-width="0"/>
  <path d="m7.20312,19c-3.00684,0-5.45312-2.44629-5.45312-5.45312s2.44629-5.45312,5.45312-5.45312,5.45312,2.44629,5.45312,5.45312-2.44629,5.45312-5.45312,5.45312Zm0-9.40625c-2.17969,0-3.95312,1.77344-3.95312,3.95312s1.77344,3.95312,3.95312,3.95312,3.95312-1.77344,3.95312-3.95312-1.77344-3.95312-3.95312-3.95312Z" fill="var(--iconPrimary, #222)" stroke-width="0"/>
  <g>
    <path d="m7.20322,15.42807c1.03901,0,1.88129-.84228,1.88129-1.88129l-1.88129,1.88129Z" fill="var(--iconPrimary, #222)" stroke-width="0"/>
    <path d="m7.20312,16.17773c-.41406,0-.75-.33594-.75-.75s.33594-.75.75-.75c.62402,0,1.13135-.50684,1.13135-1.13086,0-.41406.33594-.75.75-.75s.75.33594.75.75c0,1.4502-1.18018,2.63086-2.63135,2.63086Z" fill="var(--iconPrimary, #222)" stroke-width="0"/>
  </g>
</svg>