<?xml version="1.0" encoding="UTF-8"?>
<svg   xmlns="http://www.w3.org/2000/svg" width="20" height="20" viewBox="0 0 20 20">
  <path d="m18.22461,7.95801c.30371-.32617.35645-.80371.13086-1.1875-.22363-.38281-.66797-.56543-1.09668-.4668l-2.60742.63086c-.12988.02637-.25977-.04395-.29785-.17188l-1.08105-3.63672c-.11108-.37183-.4209-.60718-.78662-.6814l-3.92334-1.76489-.18359.01074c-.43262.02539-.79785.32422-.90723.73926l-1.14648,4.24121c-.02246.08301-.08691.14941-.16895.1748l-3.94434,1.20703c-.40527.12402-.68848.49316-.70508.91699-.01562.39551.20508.76172.55469.93457l3.57617,2.16211c.05176.03125.10645.05212.16162.0697.03125.01648.05713.04016.09033.05334l3.0957,1.21777c.11816.0459.18262.1748.14941.29785l-1.13501,4.20312-2.38159-1.56152.625-2.31152c.1084-.40039-.12793-.8125-.52734-.91992-.40527-.11328-.8125.12891-.91992.52734l-.67285,2.48633c-.1416.52246.06641,1.07324.52051,1.37207l3.66504,2.38965c.14258.06934.29297.10254.44141.10254.30664,0,.60254-.14355.79688-.4082l2.7207-3.67578.00098-.00098c.05371-.07227.12695-.09277.16504-.09863.03906-.00488.11426-.00586.1875.0498l2.21777,1.69824c.35547.27051.83594.2793,1.19727.01562.36133-.26172.50391-.7207.35449-1.1416l-1.36328-3.8623c-.03125-.08887-.01074-.18652.05273-.25488l3.14453-3.35645Zm-11.62891-.67871c.5791-.17676,1.01855-.63184,1.17676-1.2168l.98633-3.64941,2.48779,1.11816-1.17236,4.38965c-.02246.08301-.08594.14941-.16797.1748l-3.94434,1.20703c-.06909.02112-.12891.05835-.19019.09277l-2.04614-1.2373,2.87012-.87891Zm7.38965,3.00977c-.44727.47852-.58984,1.16016-.37207,1.7793l.80273,2.27637-.88281-.67676c-.37695-.28711-.84082-.41113-1.30957-.34277-.46777.06543-.88086.31152-1.16113.69141l-1.14648,1.54883.66602-2.46973c.2334-.86133-.21777-1.75781-1.04785-2.08496l-1.7627-.69336,2.57324-.78711c.58105-.17773,1.02148-.63477,1.17871-1.22266l.81641-3.05566.57617,1.93848c.26562.89453,1.19043,1.4209,2.08789,1.20215l.98145-.2373-2,2.13379Z" fill="var(--iconPrimary, #222)" stroke-width="0"/>
</svg>