<?xml version="1.0" encoding="UTF-8"?>
<svg   xmlns="http://www.w3.org/2000/svg" width="20" height="20" viewBox="0 0 20 20">
  <path d="M15.78906,2.28125l-2.03809-.94043c-.49316-.22754-1.06543-.24316-1.57324-.0459l-7.66016,3.01855c-.77148.30469-1.26953,1.03516-1.26758,1.86328l.00293,2.55566c.00195.77539.45801,1.48633,1.16211,1.81152l2.08887.96484-.00391,4.10352c-.00195.6709.33105,1.29395.89062,1.66699l1.8418,1.22852c.33301.22168.72168.33496,1.11035.33496.30273,0,.60547-.06738.88379-.20508l2.15625-1.0625c.68848-.33887,1.11621-1.02637,1.11621-1.79395v-7.00488l1.24316-.53516c.7334-.31543,1.20801-1.03711,1.20801-1.83691v-2.30762c0-.77734-.45605-1.49023-1.16113-1.81543ZM12.72754,2.69141c.05957-.02344.12109-.03516.18359-.03516.07227,0,.14355.01562.20996.0459l1.18579.54688-7.03223,2.75928-1.3562-.63367,6.80908-2.68323ZM4.75293,8.72949l-.00256-2.24463,1.74939.81726.00342,2.55432-1.45923-.67383c-.17676-.08203-.29102-.25977-.29102-.45312ZM8.22266,16.03125c-.13965-.09277-.22266-.24805-.22266-.41602l.00439-4.09058,1.49561-.63892v5.99707l-1.27734-.85156ZM15.14844,6.86426l-1.69629.73047c-.27441.11816-.45312.38867-.45312.68848v7.49805c0,.19238-.10645.36328-.27832.44824l-1.7207.8479v-7.32739c0-.25195-.12695-.4873-.33691-.62598-.20898-.13867-.47559-.16406-.70801-.06348l-1.95215.83398-.00293-2.55957,7.4502-2.92273v1.99207c0,.2002-.11816.38086-.30176.45996Z" fill="var(--iconPrimary, #222)"/>
</svg>