<?xml version="1.0" encoding="UTF-8"?>
<svg   xmlns="http://www.w3.org/2000/svg" width="20" height="20" viewBox="0 0 20 20">
  <path d="M17.5,12.29741v-4.59473c.5896-.28149,1-.87817,1-1.5752,0-.96631-.78351-1.75-1.75-1.75-.37097,0-.71368.11719-.99683.31396l-4.01648-2.30444c.00336-.04443.01331-.08667.01331-.13208,0-.96631-.78351-1.75-1.75-1.75s-1.75.78369-1.75,1.75c0,.04541.00995.08765.01331.13208l-4.01648,2.30444c-.28314-.19678-.62585-.31396-.99683-.31396-.96649,0-1.75.78369-1.75,1.75,0,.69702.4104,1.2937,1,1.5752v4.59473c-.5896.28174-1,.87842-1,1.5752,0,.96655.78351,1.75,1.75,1.75.37079,0,.71332-.11694.99634-.31348l4.01697,2.3042c-.00336.04443-.01331.08667-.01331.13184,0,.96655.78351,1.75,1.75,1.75s1.75-.78345,1.75-1.75c0-.04517-.00995-.0874-.01331-.13184l4.01697-2.3042c.28302.19653.62555.31348.99634.31348.96649,0,1.75-.78345,1.75-1.75,0-.69678-.4104-1.29346-1-1.5752ZM15,13.8726c0,.04541.00995.08765.01331.13208l-4.01666,2.30444c-.07733-.05371-.16089-.09814-.24664-.13916v-5.73584l5.00366-2.87012c.07727.05347.16071.09766.24634.13867v4.59473c-.5896.28174-1,.87842-1,1.5752ZM4,12.29741v-4.59473c.08557-.04102.16907-.08496.24628-.13867l5.00372,2.87061v5.73535c-.08575.04102-.16931.08545-.24664.13916l-4.01666-2.30444c.00336-.04443.01331-.08667.01331-.13208,0-.69678-.4104-1.29346-1-1.5752ZM10,4.00493c.37091,0,.7135-.11694.99658-.31372l4.01666,2.30493c-.00336.04419-.01324.08643-.01324.13135,0,.04541.01001.08789.01337.13232l-5.01337,2.87598-5.01337-2.87598c.00336-.04443.01337-.08691.01337-.13232,0-.04492-.00989-.08716-.01324-.13135l4.01666-2.30493c.28308.19678.62567.31372.99658.31372Z" fill="var(--iconPrimary, #222)"/>
</svg>