<?xml version="1.0" encoding="UTF-8"?>
<svg xmlns="http://www.w3.org/2000/svg" width="20" height="20" viewBox="0 0 20 20">
  <path d="m18.35449,5.23633c-.40234-.28027-.91895-.3457-1.37988-.17188l-7.74023,2.89648c-.75977.2666-1.72266.41406-2.71094.41406-2.49609,0-4.02344-.89062-4.02344-1.375,0-.18384.31262-.5752,1.16943-.90625l7.33057-2.61133v1.58594c0,.41406.33594.75.75.75s.75-.33594.75-.75v-1.58594c0-.48633-.2373-.94434-.63477-1.22559-.39746-.2793-.90625-.34961-1.36914-.1875l-7.33887,2.61328c-.00354.00122-.00574.00427-.00928.00562-.00244.00098-.00488.00024-.00732.00122-1.38086.5293-2.14062,1.35059-2.14062,2.31055,0,.04895.00952.09473.01318.14258-.00195.02271-.01318.04224-.01318.06543v8.33398c0,.0127.00659.02319.0072.03564.07678,1.83594,2.80994,2.79736,5.51624,2.79736,1.17188,0,2.28125-.17285,3.22168-.50586l7.79395-2.91895c.87402-.32617,1.46094-1.17285,1.46094-2.10645v-6.375c0-.49121-.24121-.95215-.64551-1.23242Zm-.85449,7.60742c0,.31152-.19531.59277-.48633.70215l-7.7793,2.91504c-.75977.2666-1.72266.41406-2.71094.41406-2.49609,0-4.02344-.89062-4.02344-1.375v-6.47437c1.05859.56006,2.54382.84937,4.02344.84937,1.17188,0,2.28125-.17285,3.22168-.50586l7.75488-2.90039v6.375Z" fill="var(--iconPrimary, #222)"/>
</svg>