<?xml version="1.0" encoding="UTF-8"?>
<svg   xmlns="http://www.w3.org/2000/svg" width="20" height="20" viewBox="0 0 20 20">
  <path d="m17.72363,1.54199c-.1748-.1416-.4043-.19922-.62598-.15234L2.59766,4.38965c-.34766.07227-.59766.37891-.59766.73438v9.12598c0,.28418.16016.54297.41406.66992l7.25,3.63672c.10645.05371.22168.08008.33594.08008.19629,0,.39062-.07715.53516-.22461l7.25-7.38672c.1377-.14062.21484-.3291.21484-.52539V2.12402c0-.22559-.10156-.43945-.27637-.58203Zm-7.85059,6.15137l-4.79712-2.28491,9.58716-1.98352-4.79004,4.26843Zm-6.37305-1.375l5.75,2.7395v7.61401l-5.75-2.88477v-7.46875Zm7.25,9.73389v-7.13135l5.75-5.12427v6.39673l-5.75,5.85889Z" fill="var(--iconPrimary, #222)" stroke-width="0"/>
</svg>