<?xml version="1.0" encoding="UTF-8"?>
<svg   xmlns="http://www.w3.org/2000/svg" width="20" height="20" viewBox="0 0 20 20">
  <path d="M15.76416,3.82129l-5.42627-2.74072c-.21191-.10742-.46387-.10742-.67578,0l-5.42627,2.74072c-.76221.38428-1.23584,1.15381-1.23584,2.0083v5.50098c0,3.19287,2.37939,4.99268,3.65869,5.95996.98096.74023,1.90771,1.24316,2.37305,1.47705.29785.1499.6333.22998.97021.23242h.00488c.00085,0,.00159-.00049.00244-.00049s.00159.00049.00244.00049c.41406,0,.75-.33594.75-.75V2.9751l4.32666,2.18506c.25391.12842.41162.38477.41162.66943v3.00098c0,.41406.33594.75.75.75s.75-.33594.75-.75v-3.00098c0-.85449-.47363-1.62402-1.23584-2.0083ZM7.56299,16.09375c-1.5498-1.17188-3.06299-2.50537-3.06299-4.76318v-5.50098c0-.28467.15771-.54102.41162-.66943l4.3501-2.19702v14.22729c-.43433-.24011-1.05298-.6095-1.69873-1.09668Z" fill="var(--iconPrimary, #222)" stroke-width="0"/>
  <path d="M18,14v-.99023c0-1.1084-.89697-2.00977-2-2.00977s-2,.90137-2,2.00977v.99023c-.55225,0-1,.44775-1,1v3c0,.55225.44775,1,1,1h4c.55225,0,1-.44775,1-1v-3c0-.55225-.44775-1-1-1ZM15.25,13.00977c0-.41895.33643-.75977.75-.75977s.75.34082.75.75977v.99023h-1.5v-.99023Z" fill="var(--iconPrimary, #222)" stroke-width="0"/>
</svg>