<?xml version="1.0" encoding="UTF-8"?>
<svg   xmlns="http://www.w3.org/2000/svg" width="20" height="20" viewBox="0 0 20 20">
  <path d="M15.34131,5.28076l-3.62256-3.62256c-.42529-.42432-.98975-.6582-1.58984-.6582h-5.87891c-1.24072,0-2.25,1.00928-2.25,2.25v12.5c0,1.24072,1.00928,2.25,2.25,2.25.41406,0,.75-.33594.75-.75s-.33594-.75-.75-.75c-.41357,0-.75-.33643-.75-.75V3.25c0-.41357.33643-.75.75-.75h4.75v3.25c0,1.24072,1.00928,2.25,2.25,2.25h4c.41406,0,.75-.33594.75-.75v-.37891c0-.6001-.23389-1.16455-.65869-1.59033ZM10.5,5.75v-3.13623c.05518.03198.11316.06006.15869.10547l3.62158,3.62158c.04559.04578.07379.10388.10596.15918h-3.13623c-.41357,0-.75-.33643-.75-.75Z" fill="var(--iconPrimary, #222)"/>
  <path d="M19,12c.41406,0,.75-.33594.75-.75s-.33594-.75-.75-.75h-4.33099c-.21613-.72131-.87836-1.25195-1.66901-1.25195s-1.45288.53064-1.66901,1.25195h-4.33099c-.41406,0-.75.33594-.75.75s.33594.75.75.75h1.10303c-.59357,1.22314-1.76611,3.81445-1.76611,5.20654,0,1.5166,1.2334,2.75,2.75,2.75s2.75-1.2334,2.75-2.75c0-1.39209-1.17255-3.9834-1.76611-5.20654h1.49854c.31689.45093.83893.74805,1.43066.74805s1.11377-.29712,1.43066-.74805h1.49854c-.59357,1.22314-1.76611,3.81445-1.76611,5.20654,0,1.5166,1.2334,2.75,2.75,2.75s2.75-1.2334,2.75-2.75c0-1.39209-1.17255-3.9834-1.76611-5.20654h1.10303ZM9.08691,13.43408c.3844.84888.76709,1.78882,1.00604,2.56592h-2.01208c.23895-.7771.62164-1.71704,1.00604-2.56592ZM9.08691,18.45654c-.58539,0-1.0553-.4126-1.19061-.95654h2.38129c-.13531.54395-.60529.95654-1.19067.95654ZM16.91309,13.43408c.3844.84888.76709,1.78882,1.00604,2.56592h-2.01208c.23895-.7771.62164-1.71704,1.00604-2.56592ZM16.91309,18.45654c-.58539,0-1.0553-.4126-1.19061-.95654h2.38129c-.13531.54395-.60529.95654-1.19067.95654Z" fill="var(--iconPrimary, #222)"/>
</svg>