<?xml version="1.0" encoding="UTF-8"?>
<svg   xmlns="http://www.w3.org/2000/svg" width="20" height="20" viewBox="0 0 20 20">
  <path d="M4.75,16.75c-.41406,0-.75-.33594-.75-.75V5c0-.41406.33594-.75.75-.75s.75.33594.75.75v11c0,.41406-.33594.75-.75.75Z" fill="var(--iconPrimary, #222)" stroke-width="0"/>
  <path d="M1.75,15.25c-.41406,0-.75-.33594-.75-.75V6.5c0-.41406.33594-.75.75-.75s.75.33594.75.75v8c0,.41406-.33594.75-.75.75Z" fill="var(--iconPrimary, #222)" stroke-width="0"/>
  <path d="M16.02539,15.00391h0l-6.02539-.00391c-.41504-.00049-.75-.33643-.75-.75049s.33594-.74951.75-.74951h0l6.02539.00391c.41504.00049.75.33643.75.75049s-.33594.74951-.75.74951Z" fill="var(--iconPrimary, #222)" stroke-width="0"/>
  <path d="M9.81348,12.47656c-.01465,0-.0293-.00049-.04395-.00146-.41406-.02393-.72949-.37842-.70605-.79199.06641-1.14893.92578-2.28516,2.29785-3.03955.29883-.18115.73633-.16162,1.03711.06445.24512.18311.38379.56445.30664.85986l-.03906.229c.33398-.19189.72266-.18018,1.01562.01074.18848.12256.32617.35645.36328.59131.36719-.11328.73828-.14307,1.10449-.09717.21191.01514.45508.05518.69922.09619.14941.02539.2998.05127.45215.06934.41113.04834.70508.4209.65723.83252-.04883.41113-.41797.71143-.83301.65674-.17773-.02051-.35254-.0498-.52637-.07959-.19824-.0332-.39648-.06787-.60059-.08301-.26465-.03418-.50391.00684-.69238.10596-.0166.01465-.08789.06885-.1543.12793-.48828.44629-.93945.55811-1.34082.32812-.12012-.06934-.27637-.19824-.36816-.4248l-.36914.31299c-.24121.20508-.58398.23535-.85547.0791-.27441-.15576-.4209-.4668-.36816-.77734l.11621-.68115c-.24414.30225-.3877.61523-.4043.90527-.02344.39844-.35352.70654-.74805.70654ZM12.11035,9.94238c-.0127.00732-.02539.01416-.03711.02148.0127-.00684.02539-.01367.03711-.02148Z" fill="var(--iconPrimary, #222)" stroke-width="0"/>
  <path d="M16.75,3h-.72461c-.02502,0-.04614.01184-.07056.01416-.19189-1.13879-1.078-1.65918-1.95581-1.65918-.85596,0-1.76538.52075-1.95776,1.64502h-3.04126c-.53516,0-1.03711.2085-1.41309.58545-.37891.37744-.58691.87988-.58691,1.41455v11c0,.53516.20801,1.0376.58496,1.41406.37695.37793.87988.58594,1.41504.58594h8c.53516,0,1.03809-.20801,1.41309-.58496.37891-.37744.58691-.87988.58691-1.41504V5.25c0-1.24072-1.00977-2.25-2.25-2.25ZM13.99902,2.85498c.34375,0,.49316.17969.49902.59375.00061.13574.00098.25256.00134.3667,0,.00439-.00244.00818-.00232.0127.0022.10571.00269.37195.00146.79016-.00012.01611-.00024.04163-.00049.05359,0,.00073.00037.00134.00037.00208-.00037.11511-.00073.23376-.00134.37097-.00586.42041-.1543.6001-.49805.6001-.34473,0-.49902-.18213-.49902-.58936l.00085-.36157c.00012-.00366.00208-.00684.00208-.0105l-.00098-.43335.00098-.43384c0-.00366-.00195-.00684-.00208-.0105l-.00085-.3606c0-.4082.1543-.59033.49902-.59033ZM17.5,16c0,.13379-.05176.25928-.14746.35449-.09375.09375-.21875.14551-.35254.14551h-8c-.13379,0-.25879-.05176-.35449-.14648-.09375-.09424-.14551-.21973-.14551-.35352V5c0-.13379.05176-.25879.14746-.354.09375-.09424.21875-.146.35254-.146h3.00122l-.00122.55469c0,1.43604,1.03613,2.09033,1.99902,2.09033.98047,0,1.97852-.64307,1.99805-2.08691.00061-.14551.00098-.27185.00146-.39331.00049-.0415.00098-.09717.00122-.16992.00903.00024.0166.00513.02563.00513h.72461c.41309,0,.75.33643.75.75v10.75Z" fill="var(--iconPrimary, #222)" stroke-width="0"/>
</svg>