<?xml version="1.0" encoding="UTF-8"?>
<svg   xmlns="http://www.w3.org/2000/svg" width="20" height="20" viewBox="0 0 20 20">
  <path d="M15.75,18h-5.43604c-4.22607,0-8.0249-3.4126-8.2959-7.45215-.15479-2.30811.69336-4.56885,2.32715-6.20215,1.63428-1.63428,3.89941-2.4751,6.20312-2.32764,4.17871.28076,7.45166,3.9248,7.45166,8.29639v5.43555c0,1.24072-1.00928,2.25-2.25,2.25ZM10.01025,3.50049c-1.72168,0-3.37988.68115-4.60449,1.90576-1.32764,1.32764-2.0166,3.16504-1.89062,5.04102.21582,3.22461,3.39307,6.05273,6.79883,6.05273h5.43604c.41357,0,.75-.33643.75-.75v-5.43555c0-3.58496-2.65869-6.57178-6.05225-6.79932-.146-.01025-.29199-.01465-.4375-.01465Z" fill="var(--iconPrimary, #222)" stroke-width="0"/>
  <path d="M14,9.5h-7c-.41406,0-.75-.33594-.75-.75s.33594-.75.75-.75h7c.41406,0,.75.33594.75.75s-.33594.75-.75.75Z" fill="var(--iconPrimary, #222)" stroke-width="0"/>
  <path d="M12,12.5h-5c-.41406,0-.75-.33594-.75-.75s.33594-.75.75-.75h5c.41406,0,.75.33594.75.75s-.33594.75-.75.75Z" fill="var(--iconPrimary, #222)" stroke-width="0"/>
</svg>