<?xml version="1.0" encoding="UTF-8"?>
<svg   xmlns="http://www.w3.org/2000/svg" width="20" height="20" viewBox="0 0 20 20">
  <path d="M6,10.5h-.86963c-.41406,0-.75-.33594-.75-.75s.33594-.75.75-.75h.86963c.41406,0,.75.33594.75.75s-.33594.75-.75.75Z" fill="var(--iconPrimary, #222)" stroke-width="0"/>
  <path d="M6,18h-.86963c-.41406,0-.75-.33594-.75-.75s.33594-.75.75-.75h.86963c.41406,0,.75.33594.75.75s-.33594.75-.75.75Z" fill="var(--iconPrimary, #222)" stroke-width="0"/>
  <path d="M1.75,14.66309c-.41406,0-.75-.33594-.75-.75v-.86963c0-.41406.33594-.75.75-.75s.75.33594.75.75v.86963c0,.41406-.33594.75-.75.75Z" fill="var(--iconPrimary, #222)" stroke-width="0"/>
  <path d="M2.79346,18c-.98877,0-1.79346-.80469-1.79346-1.79346,0-.41406.33594-.75.75-.75s.75.33594.75.75c0,.16162.13184.29346.29346.29346.41406,0,.75.33594.75.75s-.33594.75-.75.75Z" fill="var(--iconPrimary, #222)" stroke-width="0"/>
  <path d="M1.75,11.53418c-.41406,0-.75-.33594-.75-.75,0-.98877.80469-1.79346,1.79346-1.79346.41406,0,.75.33594.75.75s-.33594.75-.75.75c-.16162,0-.29346.13184-.29346.29346,0,.41406-.33594.75-.75.75Z" fill="var(--iconPrimary, #222)" stroke-width="0"/>
  <path d="M7.63135,1.86719c-2.14319-.52454-4.30365.76489-4.89093,2.87549l-.34686-.57031c-.21484-.354-.67676-.4668-1.03027-.25098-.354.21484-.46631.67627-.25098,1.03027l1.27704,2.10059c.06006.09888.14838.17603.24866.23877.03253.02026.06525.03198.10028.047.03888.01697.07166.04321.11426.05359.05957.01465.11963.02148.17822.02148.07526,0,.15033-.01453.224-.03772.02435-.00769.04584-.01978.06921-.02991.03204-.01367.06519-.02271.09595-.04126l2.10107-1.27686c.354-.21533.46631-.67676.25146-1.03076-.21533-.35352-.67773-.46582-1.03076-.25146l-.53418.32483c.40149-1.28931,1.73602-2.07019,3.06836-1.74573.40479.10156.80811-.14844.90625-.55078s-.14844-.80811-.55078-.90625Z" fill="var(--iconPrimary, #222)" stroke-width="0"/>
  <path d="M18.37695,6.89648l-2.25928-2.27637c-.39746-.3999-.92432-.62012-1.48389-.62012h-4.52686c-1.16162,0-2.10693.95947-2.10693,2.13867v9.72266c0,1.1792.94531,2.13867,2.10693,2.13867h6.78613c1.16162,0,2.10693-.95947,2.10693-2.13867v-7.44678c0-.56592-.22705-1.11914-.62305-1.51807ZM17.31248,7.95312c.08004.08069.12642.18579.15529.29688h-1.72266c-.54883,0-.99512-.46436-.99512-1.03564v-1.69092c.11237.02356.21918.06885.30371.15381l2.25877,2.27588ZM16.89307,16.5h-6.78613c-.33447,0-.60693-.28662-.60693-.63867V6.13867c0-.35205.27246-.63867.60693-.63867h3.14307v1.71436c0,1.39795,1.11914,2.53564,2.49512,2.53564h1.75488v6.11133c0,.35205-.27246.63867-.60693.63867Z" fill="var(--iconPrimary, #222)" stroke-width="0"/>
</svg>