<?xml version="1.0" encoding="UTF-8"?>
<svg   xmlns="http://www.w3.org/2000/svg" width="20" height="20" viewBox="0 0 20 20">
  <path d="M18.43555,16.23535c-.24609-.33105-.71582-.40137-1.04883-.15234-.49121.3667-.87012.60938-1.15625.77002l.99219-2.86914c.01367-.04004.02441-.08154.03125-.12354.06152-.37744-.0918-.74658-.40137-.96387-.30859-.21582-.7041-.23389-1.03809-.04785-.28809.16211-.4248.41064-.50684.55811-.58984,1.06494-1.2002,1.86035-1.86621,2.43066-.57422.4917-1.2627.74072-2.04492.74072h-.00195c-.41406,0-.75.33545-.75.74951,0,.41455.33496.75049.75.75049h.00195c1.15039,0,2.16602-.37061,3.02051-1.10156.08984-.07666.17871-.15674.2666-.24023l-.25.72363c-.12793.35693.00391.75732.32715.99609.19434.14355.42285.2168.69043.2168.66602,0,1.5791-.45215,2.83203-1.3877.33203-.24756.40039-.71777.15234-1.0498Z" fill="var(--iconPrimary, #222)" stroke-width="0"/>
  <path d="M14.12207,13.04688l2.04688-4.09277.98242-.98242c.4248-.4248.65918-.99023.65918-1.59082,0-.60107-.23438-1.1665-.65918-1.59082l-2.71777-2.71924c-.87793-.87646-2.30664-.87598-3.18262.00049l-1.13672,1.1377c-.00586.00586-.00757.01392-.01318.01978l-4.39502,2.39771c-.46973.25586-.83496.67285-1.02734,1.17578L1.46582,15.24756c-.26953.71045-.09668,1.5166.44043,2.05469.37109.37012.86426.56641,1.36719.56641.24316,0,.48828-.0459.72266-.14014l8.95312-3.6001c.50977-.20557.92676-.58936,1.17285-1.08154ZM13.37305,3.13184l2.71777,2.71924c.1416.14111.21973.32959.21973.52979s-.07812.38867-.21973.53027l-.49829.49829-3.77917-3.77881.49817-.49829c.29199-.29199.76758-.29346,1.06152-.00049ZM12.38867,12.73682l-8.01562,3.22314,3.95312-3.95312c.03735.00366.06982.02197.10815.02197.65771,0,1.19067-.5332,1.19067-1.1908s-.53296-1.1908-1.19067-1.1908-1.19067.5332-1.19067,1.1908c0,.03845.01831.07092.02185.1084l-4.12952,4.12952,2.94409-7.73901c.06445-.16797.18652-.30713.34375-.39307l4.25781-2.32324,3.98438,3.98389-1.88574,3.77148c-.08203.16406-.2207.29248-.3916.36084Z" fill="var(--iconPrimary, #222)" stroke-width="0"/>
</svg>