<?xml version="1.0" encoding="UTF-8"?>
<svg   xmlns="http://www.w3.org/2000/svg" width="20" height="20" viewBox="0 0 20 20">
  <path d="M18.32861,5.36426l-1.74512-1.71777c-.42383-.41699-.98438-.64648-1.57861-.64648h-3.50488c-.57831,0-1.10101.22534-1.5.58521-.39899-.35986-.92169-.58521-1.5-.58521h-3.50488c-.59424,0-1.15479.22949-1.57812.64648l-1.74512,1.71777c-.42676.41943-.67188,1.00391-.67188,1.60352v7.78223c0,1.24072,1.00928,2.25,2.25,2.25h5.25c.57843,0,1.10291-.22363,1.50195-.58362.39874.35876.92059.58362,1.49805.58362h5.25c1.24072,0,2.25-1.00928,2.25-2.25v-7.78223c0-.59961-.24512-1.18408-.67139-1.60352ZM15.53076,4.71582l1.74561,1.71777c.14209.13965.22363.33447.22363.53418v.03223h-1.75c-.41357,0-.75-.33643-.75-.75v-1.75h.00488c.19775,0,.38477.07666.52588.21582ZM2.72412,6.43359l1.74512-1.71777c.14111-.13916.32812-.21582.52588-.21582h.00488v1.75c0,.41357-.33643.75-.75.75h-1.75v-.03223c0-.19971.08154-.39453.22412-.53418ZM16.75,15.5h-5.25c-.41357,0-.75-.33643-.75-.75v-.71387c0-.41406-.33594-.75-.75-.75s-.75.33594-.75.75v.71387c0,.41357-.33643.75-.75.75H3.25c-.41357,0-.75-.33643-.75-.75v-6.25h1.75c1.24072,0,2.25-1.00928,2.25-2.25v-1.75h2c.41357,0,.75.33643.75.75v3.25c0,.41406.33594.75.75.75s.75-.33594.75-.75v-3.25c0-.41357.33643-.75.75-.75h2v1.75c0,1.24072,1.00928,2.25,2.25,2.25h1.75v6.25c0,.41357-.33643.75-.75.75Z" fill="var(--iconPrimary, #222)"/>
  <path d="M15.28027,10.71973l-1.75-1.75c-.29297-.29297-.76758-.29297-1.06055,0s-.29297.76758,0,1.06055l.46973.46973h-5.87891l.46973-.46973c.29297-.29297.29297-.76758,0-1.06055s-.76758-.29297-1.06055,0l-1.75,1.75c-.29297.29297-.29297.76758,0,1.06055l1.75,1.75c.14648.14648.33838.21973.53027.21973s.38379-.07324.53027-.21973c.29297-.29297.29297-.76758,0-1.06055l-.46973-.46973h5.87891l-.46973.46973c-.29297.29297-.29297.76758,0,1.06055.14648.14648.33838.21973.53027.21973s.38379-.07324.53027-.21973l1.75-1.75c.29297-.29297.29297-.76758,0-1.06055Z" fill="var(--iconPrimary, #222)"/>
</svg>