<?xml version="1.0" encoding="UTF-8"?>
<svg id="e" data-name="icons" xmlns="http://www.w3.org/2000/svg" width="20" height="20" viewBox="0 0 20 20">
  <g>
    <path d="M15.8125,1H4.1875c-1.76038,0-3.1875,1.42297-3.1875,3.17841v11.14313c0,1.75543,1.42712,3.17847,3.1875,3.17847h11.625c1.76038,0,3.1875-1.42303,3.1875-3.17847V4.17841c0-1.75543-1.42712-3.17841-3.1875-3.17841ZM15.9046,11.57715c-.23755.5498-.81421.87207-1.4068.78613-1.11255-.04395-2.17328-.48193-2.99268-1.23584-.40759.07617-.84265.17529-1.29529.29492-.41913.11084-.83936.23682-1.25079.37451-1.1684,2.04688-2.28845,3.08447-3.33002,3.08447-.36151.00879-.71301-.11914-.98383-.35889-.28809-.26172-.41956-.65381-.34717-1.03613.19995-1.06787,2.0127-1.9668,3.13989-2.42871.28436-.52344.54138-1.06104.77014-1.61084.26532-.63721.48669-1.21973.69269-1.82568-.60156-1.0874-.72052-2.37646-.32794-3.55566.20599-.35254.58093-.57227.98932-.58008.90802,0,1.49469.76562,1.49469,1.9502-.04144.89307-.21088,1.77539-.50317,2.62061.15765.26953.33124.53564.51752.79346.24707.34619.5213.67188.82013.97461,1.86163-.27344,3.19043-.09277,3.77985.54004.29626.33008.38611.79639.23346,1.21289Z" fill="#6e6e6e"/>
    <path d="M9.89948,4.94781c0-.28827-.06238-.63269-.34796-.63269-.11084.00562-.21027.06989-.2608.16864-.23383.82184-.15015,1.7016.23438,2.46466.21045-.64801.33624-1.32043.37439-2.00061Z" fill="#6e6e6e"/>
    <path d="M14.21161,10.58502c-.26654-.04578-.5368-.06659-.80725-.06219-.40552.00085-.81042.03204-1.21136.09338.47809.39325,1.03711.67621,1.63708.82861.08459.02118.17133.03204.25848.03241.30603,0,.52966-.14008.57147-.35651.06818-.35156-.20563-.48541-.44843-.53571Z" fill="#6e6e6e"/>
    <path d="M9.97473,8.92651c-.11963.32751-.24994.66248-.38861.99725-.10522.25354-.22607.5202-.3576.78925.2475-.07538.49518-.146.73907-.21051.33948-.08954.67444-.16852.99854-.23676l.02649-.00623c-.24713-.27094-.47839-.55591-.69269-.85345-.11127-.15436-.21967-.31421-.3252-.47955Z" fill="#6e6e6e"/>
    <path d="M5.11462,13.63934c-.02136.10382.01703.21088.09949.2774.05292.04761.1225.07251.1936.06934.43408,0,1.17676-.76776,1.9314-1.98273-1.2821.57281-2.14172,1.20068-2.22449,1.63599Z" fill="#6e6e6e"/>
  </g>
  <g>
    <path d="M15.8125,1H4.1875c-1.76038,0-3.1875,1.42297-3.1875,3.17841v11.14313c0,1.75543,1.42712,3.17847,3.1875,3.17847h11.625c1.76038,0,3.1875-1.42303,3.1875-3.17847V4.17841c0-1.75543-1.42712-3.17841-3.1875-3.17841ZM15.9046,11.57715c-.23755.5498-.81421.87207-1.4068.78613-1.11255-.04395-2.17328-.48193-2.99268-1.23584-.40759.07617-.84265.17529-1.29529.29492-.41913.11084-.83936.23682-1.25079.37451-1.1684,2.04688-2.28845,3.08447-3.33002,3.08447-.36151.00879-.71301-.11914-.98383-.35889-.28809-.26172-.41956-.65381-.34717-1.03613.19995-1.06787,2.0127-1.9668,3.13989-2.42871.28436-.52344.54138-1.06104.77014-1.61084.26532-.63721.48669-1.21973.69269-1.82568-.60156-1.0874-.72052-2.37646-.32794-3.55566.20599-.35254.58093-.57227.98932-.58008.90802,0,1.49469.76562,1.49469,1.9502-.04144.89307-.21088,1.77539-.50317,2.62061.15765.26953.33124.53564.51752.79346.24707.34619.5213.67188.82013.97461,1.86163-.27344,3.19043-.09277,3.77985.54004.29626.33008.38611.79639.23346,1.21289Z" fill="var(--iconPrimary, #222)"/>
    <path d="M9.89948,4.94781c0-.28827-.06238-.63269-.34796-.63269-.11084.00562-.21027.06989-.2608.16864-.23383.82184-.15015,1.7016.23438,2.46466.21045-.64801.33624-1.32043.37439-2.00061Z" fill="var(--iconPrimary, #222)"/>
    <path d="M14.21161,10.58502c-.26654-.04578-.5368-.06659-.80725-.06219-.40552.00085-.81042.03204-1.21136.09338.47809.39325,1.03711.67621,1.63708.82861.08459.02118.17133.03204.25848.03241.30603,0,.52966-.14008.57147-.35651.06818-.35156-.20563-.48541-.44843-.53571Z" fill="var(--iconPrimary, #222)"/>
    <path d="M9.97473,8.92651c-.11963.32751-.24994.66248-.38861.99725-.10522.25354-.22607.5202-.3576.78925.2475-.07538.49518-.146.73907-.21051.33948-.08954.67444-.16852.99854-.23676l.02649-.00623c-.24713-.27094-.47839-.55591-.69269-.85345-.11127-.15436-.21967-.31421-.3252-.47955Z" fill="var(--iconPrimary, #222)"/>
    <path d="M5.11462,13.63934c-.02136.10382.01703.21088.09949.2774.05292.04761.1225.07251.1936.06934.43408,0,1.17676-.76776,1.9314-1.98273-1.2821.57281-2.14172,1.20068-2.22449,1.63599Z" fill="var(--iconPrimary, #222)"/>
  </g>
</svg>