<?xml version="1.0" encoding="UTF-8"?>
<svg   xmlns="http://www.w3.org/2000/svg" width="20" height="20" viewBox="0 0 20 20">
  <path d="M14.75,18H5.25c-1.24023,0-2.25-1.00928-2.25-2.25V3.25c0-1.24072,1.00977-2.25,2.25-2.25h.87891c.41406,0,.75.33594.75.75s-.33594.75-.75.75h-.87891c-.41309,0-.75.33643-.75.75v12.5c0,.41357.33691.75.75.75h9.5c.41309,0,.75-.33643.75-.75v-4.87891c0-.41406.33594-.75.75-.75s.75.33594.75.75v4.87891c0,1.24072-1.00977,2.25-2.25,2.25Z" fill="var(--iconPrimary, #222)" stroke-width="0"/>
  <path d="M13,15.5h-.00098l-6-.00391c-.41406-.00049-.74902-.33643-.74902-.75049s.33594-.74951.75-.74951h.00098l6,.00391c.41406.00049.74902.33643.74902.75049s-.33594.74951-.75.74951Z" fill="var(--iconPrimary, #222)" stroke-width="0"/>
  <path d="M6.58691,13.48926c-.0166,0-.0332-.00049-.0498-.00146-.41406-.02734-.72656-.38428-.69922-.79785.07227-1.10986.99219-2.19678,2.45898-2.90723.31641-.17139.75977-.13184,1.05371.10889.23438.19238.35254.56543.26465.85547l-.03516.18359.00391-.00293c.36719-.2373.8252-.22803,1.13574-.0083.1709.12061.29297.33105.33105.54736.39941-.12207.80957-.15918,1.21191-.11279.22754.01416.48242.05127.7373.08936.16211.02441.3252.04883.49121.06592.41211.04248.71191.41113.66895.82324-.04199.41162-.40039.70898-.82324.66895-.18848-.01953-.37402-.04688-.55859-.07471-.21484-.03174-.42871-.06445-.64941-.0791-.30078-.03516-.58496.00781-.80566.11084-.02734.01855-.10449.07031-.17578.12646-.19043.15332-.78711.63623-1.37402.26318-.11523-.07324-.26465-.20557-.34863-.42969l-.49414.37012c-.24805.18555-.58594.19873-.84766.03516-.2627-.16455-.39648-.47363-.33789-.77783l.13184-.68652c-.32715.3125-.52344.63916-.54297.9292-.02539.39648-.35547.70068-.74707.70068ZM8.97852,11.11865c-.01367.00635-.02734.0127-.04004.01953.0127-.00586.02637-.01221.04004-.01953Z" fill="var(--iconPrimary, #222)" stroke-width="0"/>
  <path d="M16,7h-.00195l-1-.00293c-.41406-.00098-.74902-.33789-.74805-.75195.00098-.41357.33691-.74805.75-.74805h.00195l1,.00293c.41406.00098.74902.33789.74805.75195-.00098.41357-.33691.74805-.75.74805Z" fill="var(--iconPrimary, #222)" stroke-width="0"/>
  <path d="M17.59473,1h-8.18945c-.77441,0-1.40527.61426-1.40527,1.36914v5.26172c0,.75488.63086,1.36914,1.40527,1.36914h8.18945c.77441,0,1.40527-.61426,1.40527-1.36914V2.36914c0-.75488-.63086-1.36914-1.40527-1.36914ZM17.5,2.5v1.12476l-8-.00244v-1.12231h8ZM9.5,7.5v-2.62769l8,.00244v2.62524h-8Z" fill="var(--iconPrimary, #222)" stroke-width="0"/>
</svg>