<?xml version="1.0" encoding="UTF-8"?>
<svg   xmlns="http://www.w3.org/2000/svg" width="20" height="20" viewBox="0 0 20 20">
  <path d="M16.23438,18.09326c-.30664,0-.57861-.12695-.76611-.35742-.24707-.3042-.28125-.69434-.23438-1.12744-.64355.66797-1.56934,1.38525-3.05908,1.38525-.20752,0-.39307-.021-.56641-.06445-.25879-.06494-.48682-.17725-.67773-.33301-.53076.23145-1.10938.39746-1.70557.39746H2.42236c-.12061,0-.24023-.01709-.35498-.05127-.32275-.09619-.58643-.31104-.74512-.60498-.15869-.29346-.19287-.63184-.09766-.95166l1.17578-3.93408c.10352-.34619.29199-.66699.54541-.92676L12.06738,2.18066c.5498-.55176,1.23584-.83643,1.96729-.83643h.00928c.73486.00244,1.42285.29199,1.93701.81494l.07715.07861c1.05518,1.07324,1.06055,2.76074.0127,3.84131L7.35889,15.06396c-.2876.29785-.76318.30518-1.06055.0166s-.30469-.76318-.0166-1.06055L14.99365,5.03516c.47656-.49121.47412-1.2583-.00537-1.74609l-.07715-.07861c-.23096-.23486-.54102-.36523-.87256-.36621h-.00391c-.32959,0-.63818.12793-.87012.36035L4.01953,12.57227c-.08447.08643-.14746.19336-.18164.30859l-1.08301,3.62305,6.47021-.01025c.34961,0,.71777-.10498,1.0752-.2583-.02441-.44824.06445-.87598.14307-1.15479.20117-.71338.97803-3.04346,2.52197-3.09766.6123-.0376,1.20996.30518,1.49902.83496.22607.41553.25732.93506.08594,1.42627-.27588.79053-1.02295,1.6001-1.68408,2.15771.75928-.21436,1.24023-.76514,1.67578-1.26416.4502-.5166.96094-1.09668,1.72461-.95264.19678.03857.44141.20312.55225.37012.26611.40088.16016.90918.02588,1.55322-.01465.07227-.03271.1582-.05029.24756.11865-.07617.25244-.17383.3999-.29834.16406-.13818.31494-.28516.44336-.42725.27783-.30811.75244-.33057,1.05957-.05273.30713.27832.33057.75244.05273,1.05957-.17041.18799-.37109.38379-.58789.56641-.47949.40576-1.2041.88965-1.92773.88965ZM13.02393,13.48193h-.00537c-.20801.00732-.70068.68066-1.04102,1.70947.51318-.4458,1.00879-1.01855,1.15674-1.44189.03467-.09961.02832-.18555.0127-.21436-.01025-.01855-.06543-.05322-.12305-.05322Z" fill="var(--iconPrimary, #222)" stroke-width="0"/>
</svg>