<?xml version="1.0" encoding="UTF-8"?>
<svg   xmlns="http://www.w3.org/2000/svg" width="20" height="20" viewBox="0 0 20 20">
  <path d="M4.4973,9.64133c-.37329.59879-.73903.97551-.95352.97551-.033,0-.07013-.011-.09625-.03299-.04056-.03369-.05911-.08525-.04742-.13681.04399-.21449.46541-.52454,1.0972-.80571M5.79456,8.9023c-.12238.03299-.24405.06668-.36574.10312.06599-.13269.12512-.26193.17737-.38774.06599-.16637.13268-.32861.1918-.49153.05156.08112.10381.1588.1588.23648.10725.14781.21794.28806.3403.42142,0-.00343-.33617.07356-.50253.11826M5.45838,5.93518c.02544-.04813.07356-.08113.12924-.08113.14024,0,.16982.16982.16982.31006,0,.22548-.06668.58778-.18494.98651-.23236-.62834-.19936-1.06421-.11412-1.21544M8.10376,9.20546c-.022.10725-.12924.17737-.28049.17737-.04469,0-.08525-.00412-.12581-.01512-.27705-.06668-.54311-.19937-.80571-.4063.19592-.02956.39529-.04468.59879-.04468.13268-.00345.26605.00755.39873.02956.11481.01855.2475.08525.21449.25917M8.50662,8.92429c-.17737-.18837-.51355-.28461-1.00165-.28461-.26949.00412-.54311.02612-.80916.07011-.1698-.16568-.3286-.34717-.46541-.54309-.10724-.14368-.20349-.29561-.29218-.45442.17393-.54309.25917-.97896.25917-1.30826,0-.39873-.15948-.82771-.60291-.82771-.15468.00414-.29561.08868-.3726.21863-.18906.32516-.11481.99751.18837,1.67741-.10725.31418-.22206.61667-.3623.95695-.12167.28806-.25505.57266-.4063.84628-.45511.1808-1.41893.62422-1.51173,1.11575-.02957.14438.02199.29218.13336.39186.10724.09625.24748.14436.39117.14024.58022,0,1.16045-.80571,1.55231-1.49661.22205-.07356.44685-.14369.67233-.2028.2475-.06668.48398-.11824.70947-.1595.61391.53622,1.16045.61736,1.4375.61736.37672,0,.51767-.16225.56923-.29906.05568-.15536.02199-.33273-.08868-.45854" fill="var(--iconPrimary, #222)" fill-rule="evenodd" stroke-width="0"/>
  <path d="M18.32861,5.36426l-1.74512-1.71777c-.42383-.41699-.98438-.64648-1.57861-.64648h-3.50488c-.90149,0-1.67529.53613-2.03406,1.30347l-1.01282-.8103c-.39746-.31787-.89697-.49316-1.40576-.49316h-3.79736c-1.24072,0-2.25,1.00928-2.25,2.25v7.5c0,1.24072,1.00928,2.25,2.25,2.25h3c.41406,0,.75-.33594.75-.75s-.33594-.75-.75-.75h-3c-.41357,0-.75-.33643-.75-.75v-7.5c0-.41357.33643-.75.75-.75h3.79736c.16992,0,.33594.05811.46826.16406l1.45312,1.1626c.17871.14258.28125.35645.28125.58545v2.58789c0,.41406.33594.75.75.75s.75-.33594.75-.75v-3.75c0-.41357.33643-.75.75-.75h2.5v1.25c0,1.24072,1.00928,2.25,2.25,2.25h1.25v4.75c0,.41357-.33643.75-.75.75h-3c-.41406,0-.75.33594-.75.75s.33594.75.75.75h3c1.24072,0,2.25-1.00928,2.25-2.25v-5.78223c0-.59961-.24512-1.18408-.67139-1.60352ZM15.5,5.75v-1.05457c.00934.00842.02179.0116.03076.02039l1.74561,1.71777c.01929.01904.02777.04553.0448.06641h-1.07117c-.41357,0-.75-.33643-.75-.75Z" fill="var(--iconPrimary, #222)" stroke-width="0"/>
  <path d="M12.53027,15.71973c-.29297-.29297-.76758-.29297-1.06055,0l-.71973.71973v-4.43945c0-.41406-.33594-.75-.75-.75s-.75.33594-.75.75v4.43945l-.71973-.71973c-.29297-.29297-.76758-.29297-1.06055,0s-.29297.76758,0,1.06055l2,2c.14648.14648.33838.21973.53027.21973s.38379-.07324.53027-.21973l2-2c.29297-.29297.29297-.76758,0-1.06055Z" fill="var(--iconPrimary, #222)" stroke-width="0"/>
</svg>