<?xml version="1.0" encoding="UTF-8"?>
<svg   xmlns="http://www.w3.org/2000/svg" width="20" height="20" viewBox="0 0 20 20">
  <path d="M16.34131,5.28076l-3.62256-3.62256c-.42529-.42432-.98975-.6582-1.58984-.6582h-5.87891c-1.24072,0-2.25,1.00928-2.25,2.25v12.5c0,1.24072,1.00928,2.25,2.25,2.25h9.5c1.24072,0,2.25-1.00928,2.25-2.25V6.87109c0-.6001-.23389-1.16455-.65869-1.59033ZM15.28027,6.34082c.04565.04578.07373.10388.10596.15918h-3.13623c-.41357,0-.75-.33643-.75-.75v-3.13623c.05518.03198.11316.06006.15869.10547l3.62158,3.62158ZM14.75,16.5H5.25c-.41357,0-.75-.33643-.75-.75V3.25c0-.41357.33643-.75.75-.75h4.75v3.25c0,1.24072,1.00928,2.25,2.25,2.25h3.25v7.75c0,.41357-.33643.75-.75.75Z" fill="var(--iconPrimary, #222)" stroke-width="0"/>
  <path d="M12.50146,9.94824c-.33545-.24609-.80469-.17236-1.04834.16162l-2.26428,3.0918-.65466-.84277c-.25439-.32715-.7251-.38623-1.05225-.13232s-.38623.7251-.13232,1.05225l1.26465,1.62793c.01746.02246.04395.03125.06335.05115.02966.03076.04993.06775.08557.09387.02612.01917.05591.02734.0835.04272.02441.01355.04712.02637.07275.03711.09302.03882.18896.06519.28662.06519.00024,0,.00024-.00012.00049-.00012s.00024.00012.00049.00012c.10083,0,.19983-.02795.29517-.06934.0271-.01172.05054-.02612.07617-.04102.02905-.01685.06079-.02612.08813-.04736.0354-.02759.05518-.06567.08423-.09778.01843-.02002.04431-.02869.06079-.05115l2.85156-3.89355c.24463-.33447.17236-.80371-.16162-1.04834Z" fill="var(--iconPrimary, #222)" stroke-width="0"/>
</svg>