<?xml version="1.0" encoding="UTF-8"?>
<svg   xmlns="http://www.w3.org/2000/svg" width="20" height="20" viewBox="0 0 20 20">
  <path d="M16.34082,5.28076l-3.62109-3.62256c-.41895-.41846-.99902-.6582-1.59082-.6582h-5.87891c-1.24023,0-2.25,1.00928-2.25,2.25v12.5c0,1.24072,1.00977,2.25,2.25,2.25h9.5c1.24023,0,2.25-1.00928,2.25-2.25V6.87109c0-.60059-.23438-1.16553-.65918-1.59033ZM15.28027,6.34131c.04553.04553.07349.10352.10571.15869h-3.13599c-.41309,0-.75-.33643-.75-.75v-3.13647c.05542.0321.11353.0603.15918.10571l3.62109,3.62207ZM14.75,16.5H5.25c-.41309,0-.75-.33643-.75-.75V3.25c0-.41357.33691-.75.75-.75h4.75v3.25c0,1.24072,1.00977,2.25,2.25,2.25h3.25v7.75c0,.41357-.33691.75-.75.75Z" fill="var(--iconPrimary, #222)" stroke-width="0"/>
  <path d="M6.50847,10h1.98305c.28082,0,.50847.22765.50847.50847v2.62939c0,.10862-.03478.21438-.09925.3018l-.99153,1.34444c-.20323.27556-.61521.27556-.81844,0l-.99153-1.34444c-.06447-.08742-.09925-.19318-.09925-.3018v-2.62939c0-.28082.22765-.50847.50847-.50847Z" fill="var(--iconPrimary, #222)" stroke-width="0"/>
  <path d="M13.56055,12.5l.71973-.71973c.29297-.29297.29297-.76758,0-1.06055s-.76758-.29297-1.06055,0l-.71973.71973-.71973-.71973c-.29297-.29297-.76758-.29297-1.06055,0s-.29297.76758,0,1.06055l.71973.71973-.71973.71973c-.29297.29297-.29297.76758,0,1.06055.14648.14648.33789.21973.53027.21973s.38379-.07324.53027-.21973l.71973-.71973.71973.71973c.14648.14648.33789.21973.53027.21973s.38379-.07324.53027-.21973c.29297-.29297.29297-.76758,0-1.06055l-.71973-.71973Z" fill="var(--iconPrimary, #222)" stroke-width="0"/>
</svg>