<?xml version="1.0" encoding="UTF-8"?>
<svg   xmlns="http://www.w3.org/2000/svg" width="20" height="20" viewBox="0 0 20 20">
  <g id="b" >
    <path id="c"  d="M13.5827,9.63727c-.258-.27413-.74714-.41388-1.45665-.41388-.39238.00538-.79014.03763-1.17715.10213-.24725-.24188-.47838-.50526-.67726-.79014-.15588-.20963-.29563-.43001-.42463-.66114.25263-.79014.37626-1.4244.37626-1.90278,0-.58051-.23113-1.20402-.87614-1.20402-.22575.00538-.43001.129-.54288.31713-.27413.47301-.16663,1.45128.27413,2.44029-.15588.45688-.32251.89764-.52676,1.39215-.17738.41926-.37088.83314-.59126,1.2309-.66114.26338-2.06404.90839-2.19842,1.62328-.043.20963.03225.42463.1935.56976.15588.13975.36013.20963.56976.20425.84389,0,1.68778-1.17177,2.25754-2.17691.32251-.1075.65039-.20963.97827-.29563.36013-.09675.70414-.172,1.03202-.23113.89227.77939,1.68778.89764,2.09091.89764.54826,0,.75251-.2365.82776-.43538.08063-.22575.03225-.48376-.129-.66651ZM12.99681,10.04578c-.03225.15588-.18813.258-.40851.258-.0645,0-.12363-.00538-.18275-.0215-.40313-.09675-.79014-.29025-1.17177-.59126.28488-.043.57514-.0645.87077-.0645.1935-.00538.38701.01075.58051.043.16663.02687.36013.12363.31176.37626ZM9.14824,5.28881c.03763-.06988.1075-.11825.18813-.11825.20425,0,.24725.24725.24725.45151,0,.32788-.09675.85464-.26875,1.43515-.33863-.91377-.29025-1.54803-.16663-1.76841ZM9.63737,9.60502c-.17738.04838-.35476.09675-.53213.1505.09675-.1935.18275-.38163.258-.56439.09675-.24188.1935-.47838.2795-.71489.07525.11825.1505.23113.23113.34401.15588.215.31713.41926.49451.61276,0-.00537-.48913.1075-.73101.172ZM7.75072,10.68004c-.54288.87077-1.07502,1.41903-1.38678,1.41903-.04838,0-.10213-.01613-.13975-.04838-.05913-.04838-.086-.12363-.06988-.19888.0645-.31176.67726-.76326,1.5964-1.17177Z" fill="var(--iconPrimary, #222)" stroke-width="0"/>
  </g>
  <path d="M3.75,6.75c-.41406,0-.75-.33594-.75-.75v-2.729c0-1.24072,1.00928-2.25,2.25-2.25h5.87891c.59229,0,1.17188.24023,1.59082.65918l3.62109,3.62158c.07227.07178.13916.14844.2002.22852.25146.3291.18799.7998-.14111,1.05127-.3291.25098-.7998.18799-1.05127-.14111-.021-.02734-.04395-.05322-.06836-.07812l-3.62109-3.62158c-.13965-.13965-.33301-.21973-.53027-.21973h-5.87891c-.41357,0-.75.33643-.75.75v2.729c0,.41406-.33594.75-.75.75Z" fill="var(--iconPrimary, #222)" stroke-width="0"/>
  <path d="M14.75,18.021H5.25c-1.24072,0-2.25-1.00928-2.25-2.25v-1.021c0-.41406.33594-.75.75-.75s.75.33594.75.75v1.021c0,.41357.33643.75.75.75h9.5c.41357,0,.75-.33643.75-.75v-1.021c0-.41406.33594-.75.75-.75s.75.33594.75.75v1.021c0,1.24072-1.00928,2.25-2.25,2.25Z" fill="var(--iconPrimary, #222)" stroke-width="0"/>
  <path d="M17.75,13c-.19189,0-.38379-.07324-.53027-.21973l-2-2c-.29297-.29297-.29297-.76758,0-1.06055l2-2c.29297-.29297.76758-.29297,1.06055,0s.29297.76758,0,1.06055l-1.46973,1.46973,1.46973,1.46973c.29297.29297.29297.76758,0,1.06055-.14648.14648-.33838.21973-.53027.21973Z" fill="var(--iconPrimary, #222)" stroke-width="0"/>
  <path d="M2.25,13c-.19189,0-.38379-.07324-.53027-.21973-.29297-.29297-.29297-.76758,0-1.06055l1.46973-1.46973-1.46973-1.46973c-.29297-.29297-.29297-.76758,0-1.06055s.76758-.29297,1.06055,0l2,2c.29297.29297.29297.76758,0,1.06055l-2,2c-.14648.14648-.33838.21973-.53027.21973Z" fill="var(--iconPrimary, #222)" stroke-width="0"/>
</svg>