<?xml version="1.0" encoding="UTF-8"?>
<svg   xmlns="http://www.w3.org/2000/svg" width="20" height="20" viewBox="0 0 20 20">
  <g>
    <path d="M18.66992,20h-3.86816c-2.57471,0-5.07666-2.01514-5.46289-4.40039-.27002-1.66748.25977-3.31152,1.4541-4.51123,1.23779-1.24219,2.9585-1.79785,4.72217-1.51904,2.55664.40186,4.48486,2.69238,4.48486,5.32861v3.78174c0,.72803-.59668,1.32031-1.33008,1.32031ZM14.63086,10.99951c-1.04736,0-2.0332.40186-2.7749,1.14697-.85107.85498-1.22852,2.02588-1.03662,3.21289.271,1.67334,2.13184,3.14062,3.98242,3.14062h3.69824v-3.60205c0-1.90479-1.3833-3.55859-3.21777-3.84717-.21875-.03418-.43652-.05127-.65137-.05127Z" fill="var(--iconPrimary, #222)"/>
    <path d="M16.5,14.5h-3c-.41406,0-.75-.33594-.75-.75s.33594-.75.75-.75h3c.41406,0,.75.33594.75.75s-.33594.75-.75.75Z" fill="var(--iconPrimary, #222)"/>
    <path d="M15.5,17h-2c-.41406,0-.75-.33594-.75-.75s.33594-.75.75-.75h2c.41406,0,.75.33594.75.75s-.33594.75-.75.75Z" fill="var(--iconPrimary, #222)"/>
  </g>
  <path d="M16.34131,5.28076l-3.62256-3.62256c-.42529-.42432-.98975-.6582-1.58984-.6582h-5.87891c-1.24072,0-2.25,1.00928-2.25,2.25v12.5c0,1.24072,1.00928,2.25,2.25,2.25h2.25c.41406,0,.75-.33594.75-.75s-.33594-.75-.75-.75h-2.25c-.41357,0-.75-.33643-.75-.75V3.25c0-.41357.33643-.75.75-.75h4.75v3.25c0,1.24072,1.00928,2.25,2.25,2.25h4c.41406,0,.75-.33594.75-.75v-.37891c0-.6001-.23389-1.16455-.65869-1.59033ZM11.5,5.75v-3.13623c.05518.03198.11316.06006.15869.10547l3.62158,3.62158c.04559.04578.07379.10388.10596.15918h-3.13623c-.41357,0-.75-.33643-.75-.75Z" fill="var(--iconPrimary, #222)"/>
</svg>