<?xml version="1.0" encoding="UTF-8"?>
<svg   xmlns="http://www.w3.org/2000/svg" width="20" height="20" viewBox="0 0 20 20">
  <path d="M15.74658,17.99805H3.24658c-1.24072,0-2.25-1.00928-2.25-2.25V5.24805c0-1.24072,1.00928-2.25,2.25-2.25h6c.41406,0,.75.33594.75.75s-.33594.75-.75.75H3.24658c-.41357,0-.75.33643-.75.75v10.5c0,.41357.33643.75.75.75h12.5c.41357,0,.75-.33643.75-.75v-6c0-.41406.33594-.75.75-.75s.75.33594.75.75v6c0,1.24072-1.00928,2.25-2.25,2.25Z" fill="var(--iconPrimary, #222)" stroke-width="0"/>
  <path d="M13.71875,8.7251c-.18506,0-.37109-.04736-.54004-.14502-.40771-.23486-.61475-.70215-.51611-1.16211l.42871-1.98193-1.36133-1.50146c-.31641-.34863-.37061-.85693-.13525-1.26514.23535-.40771.70068-.6167,1.16357-.51465l1.98047.42773,1.50146-1.36133c.34961-.31592.85742-.37012,1.26465-.13525.40723.23535.61426.70215.51562,1.16211l-.42822,1.98242,1.36133,1.50098c.31641.34961.37012.85791.13428,1.26562-.23486.40723-.70264.61377-1.1626.51416l-1.98047-.42773-1.50244,1.36133c-.20361.18506-.4624.28027-.72363.28027ZM13.72119,3.89746l.62646.69092c.2334.25928.32861.61523.25537.95312v.00049l-.19727.91162.69189-.62646c.25732-.2334.61182-.32959.95312-.25537l.91162.19678-.62695-.69092c-.2334-.25732-.32861-.61377-.25488-.95361l.19678-.91162-.69141.62695c-.25732.23291-.61182.33008-.95264.25488l-.91211-.19678ZM13.13721,5.2251c-.00049.00049-.00049.00098-.00049.00146l.00049-.00146Z" fill="var(--iconPrimary, #222)" stroke-width="0"/>
  <path d="M12.07471,10.45752l-.56299-.62158.17676-.81982c.06885-.31836-.07568-.64502-.35791-.80762-.28223-.16309-.6377-.12598-.87842.09375l-.62158.56299-.81982-.17676c-.31787-.06982-.64453.07568-.80762.35791s-.125.63721.09375.87891l.56348.62109-.17725.81934c-.06885.31885.07568.64502.35791.80811.1167.06738.24609.10059.375.10059.18164,0,.3623-.06592.50342-.19434l.62158-.56299.81982.17676c.31885.07129.64551-.07617.80762-.35791.16309-.28223.125-.63721-.09375-.87842Z" fill="var(--iconPrimary, #222)" stroke-width="0"/>
  <path d="M8.49707,7.73096h-3.50049c-.41406,0-.75-.33594-.75-.75s.33594-.75.75-.75h3.50049c.41406,0,.75.33594.75.75s-.33594.75-.75.75Z" fill="var(--iconPrimary, #222)" stroke-width="0"/>
  <path d="M6.49707,11.27441h-1.50049c-.41406,0-.75-.33594-.75-.75s.33594-.75.75-.75h1.50049c.41406,0,.75.33594.75.75s-.33594.75-.75.75Z" fill="var(--iconPrimary, #222)" stroke-width="0"/>
  <path d="M8.99707,14.81787h-4.00049c-.41406,0-.75-.33594-.75-.75s.33594-.75.75-.75h4.00049c.41406,0,.75.33594.75.75s-.33594.75-.75.75Z" fill="var(--iconPrimary, #222)" stroke-width="0"/>
</svg>