<?xml version="1.0" encoding="UTF-8"?>
<svg xmlns="http://www.w3.org/2000/svg" width="20" height="20" viewBox="0 0 20 20">
    <path d="m5.50145,14.67556c-1.21706,2.01443-2.41488,3.28757-3.11504,3.28757-.12919,0-.23528-.0398-.31246-.11503-.14081-.13493-.19282-.28166-.16004-.46011.13306-.72176,1.51984-1.76273,3.58754-2.71243h0Zm5.85013-2.88105c-.5227.11291-1.06282.24386-1.61057.39246-.39351.10719-.7927.22409-1.19202.34906.21218-.44606.40694-.88827.57665-1.30871.22379-.55512.43403-1.11037.62698-1.65355.16972.27358.34524.53933.52452.795.35492.50563.73718.98912,1.11714,1.41541l-.0427.01032Zm-2.7023-9.58702c.09835-.17447.25657-.27955.42048-.27955.46101,0,.56129.57104.56129,1.04893.00387.76143-.21992,1.975-.60375,3.31729-.77347-2.10583-.66544-3.58105-.37802-4.08668h0Zm8.66045,11.00466c-.06762.35889-.42823.59081-.92202.59081-.13512,0-.27581-.01778-.41661-.05347-.90653-.22197-1.7746-.67226-2.64061-1.37412.81206-.12697,1.49674-.15457,1.95399-.15457.52077,0,.99714.03768,1.30186.10309.39157.08332.83323.30529.72339.88827h0Zm1.31153-.9497c-.57677-.63645-1.68-.95977-3.27896-.95977-.78702,0-1.67613.07946-2.64835.23603-.52657-.52142-1.0396-1.13611-1.52565-1.83013-.34718-.49369-.66738-1.00528-.95468-1.52484.56311-1.82217.84859-3.30137.84859-4.39794,0-1.34627-.51883-2.7858-1.97504-2.7858-.47843,0-.96835.29746-1.21911.73966-.62105,1.09644-.37222,3.35286.61923,5.64895-.34524,1.0549-.72145,2.08207-1.18246,3.22005-.38758.96164-.84859,1.94516-1.33657,2.85332-1.48512.61481-4.64275,2.10583-4.94359,3.75353-.08879.49381.06363.95965.4321,1.31257.11371.11105.54774.47193,1.28649.47193,1.90174,0,3.79779-2.70659,5.07472-5.03637.7252-.25381,1.46589-.48374,2.2027-.68408.80819-.21998,1.5894-.40042,2.32609-.53535,2.01375,1.80638,3.80371,2.07996,4.70057,2.07996,1.23254,0,1.69343-.54928,1.86133-1.01125.22185-.60262.00569-1.22726-.28742-1.55046h0Z" fill="var(--iconPrimary, #222)"/>
    <path d="m5.50145,14.67556c-1.21706,2.01443-2.41488,3.28757-3.11504,3.28757-.12919,0-.23528-.0398-.31246-.11503-.14081-.13493-.19282-.28166-.16004-.46011.13306-.72176,1.51984-1.76273,3.58754-2.71243h0Zm5.85013-2.88105c-.5227.11291-1.06282.24386-1.61057.39246-.39351.10719-.7927.22409-1.19202.34906.21218-.44606.40694-.88827.57665-1.30871.22379-.55512.43403-1.11037.62698-1.65355.16972.27358.34524.53933.52452.795.35492.50563.73718.98912,1.11714,1.41541l-.0427.01032Zm-2.7023-9.58702c.09835-.17447.25657-.27955.42048-.27955.46101,0,.56129.57104.56129,1.04893.00387.76143-.21992,1.975-.60375,3.31729-.77347-2.10583-.66544-3.58105-.37802-4.08668h0Zm8.66045,11.00466c-.06762.35889-.42823.59081-.92202.59081-.13512,0-.27581-.01778-.41661-.05347-.90653-.22197-1.7746-.67226-2.64061-1.37412.81206-.12697,1.49674-.15457,1.95399-.15457.52077,0,.99714.03768,1.30186.10309.39157.08332.83323.30529.72339.88827h0Zm1.31153-.9497c-.57677-.63645-1.68-.95977-3.27896-.95977-.78702,0-1.67613.07946-2.64835.23603-.52657-.52142-1.0396-1.13611-1.52565-1.83013-.34718-.49369-.66738-1.00528-.95468-1.52484.56311-1.82217.84859-3.30137.84859-4.39794,0-1.34627-.51883-2.7858-1.97504-2.7858-.47843,0-.96835.29746-1.21911.73966-.62105,1.09644-.37222,3.35286.61923,5.64895-.34524,1.0549-.72145,2.08207-1.18246,3.22005-.38758.96164-.84859,1.94516-1.33657,2.85332-1.48512.61481-4.64275,2.10583-4.94359,3.75353-.08879.49381.06363.95965.4321,1.31257.11371.11105.54774.47193,1.28649.47193,1.90174,0,3.79779-2.70659,5.07472-5.03637.7252-.25381,1.46589-.48374,2.2027-.68408.80819-.21998,1.5894-.40042,2.32609-.53535,2.01375,1.80638,3.80371,2.07996,4.70057,2.07996,1.23254,0,1.69343-.54928,1.86133-1.01125.22185-.60262.00569-1.22726-.28742-1.55046h0Z" fill="var(--iconPrimary, #222)"/>
</svg>