<?xml version="1.0" encoding="UTF-8"?>
<svg   xmlns="http://www.w3.org/2000/svg" width="20" height="20" viewBox="0 0 20 20">
  <path d="M8.25,14c-1.24023,0-2.25-1.00977-2.25-2.25V3.25c0-1.24023,1.00977-2.25,2.25-2.25h5.5c1.24023,0,2.25,1.00977,2.25,2.25v4.75c0,.41406-.33594.75-.75.75s-.75-.33594-.75-.75V3.25c0-.41309-.33691-.75-.75-.75h-5.5c-.41309,0-.75.33691-.75.75v8.5c0,.41309.33691.75.75.75.41406,0,.75.33594.75.75s-.33594.75-.75.75Z" fill="var(--iconPrimary, #222)"/>
  <path d="M8.25,18H3.25c-1.24023,0-2.25-1.00977-2.25-2.25v-5.5c0-1.24023,1.00977-2.25,2.25-2.25h.69434c.41406,0,.75.33594.75.75s-.33594.75-.75.75h-.69434c-.41309,0-.75.33691-.75.75v5.5c0,.41309.33691.75.75.75h5c.41406,0,.75.33594.75.75s-.33594.75-.75.75Z" fill="var(--iconPrimary, #222)"/>
  <path d="M12.12598,19c-.20898,0-.41895-.04102-.62109-.12402-.61035-.25195-1.00488-.84082-1.00488-1.50098v-7.68066c0-.6582.39258-1.24707,1.00098-1.5.60938-.25293,1.30176-.11621,1.76953.34961l5.25,5.23535c.46777.46582.60645,1.16016.35449,1.77051-.25195.60938-.84082,1.00391-1.50098,1.00391h-2.09766l-1.99805,1.96484c-.3125.31445-.72852.48145-1.15234.48145ZM12.12988,9.56836c-.01562,0-.0332.00293-.05371.01172-.07617.03125-.07617.0918-.07617.11426v7.68066c0,.02246,0,.08301.07617.11426.07617.0293.12012-.01172.13672-.02734l1.90918-1.92773c.30176-.30469.72266-.48047,1.1543-.48047h2.09766c.02246,0,.08301,0,.11426-.07715.03223-.07617-.01074-.11914-.02637-.13477l-5.25-5.23535c-.01172-.01172-.03809-.03809-.08203-.03809Z" fill="var(--iconPrimary, #222)"/>
</svg>