<?xml version="1.0" encoding="UTF-8"?>
<svg xmlns="http://www.w3.org/2000/svg" width="20" height="20" viewBox="0 0 20 20">
  <path d="M10,1.2793C5.1748,1.2793,1.25,5.2041,1.25,10.0293s3.9248,8.75,8.75,8.75,8.75-3.9248,8.75-8.75S14.8252,1.2793,10,1.2793ZM13.65625,10.84375h-2.8125v2.8125c0,.46582-.37793.84375-.84375.84375s-.84375-.37793-.84375-.84375v-2.8125h-2.8125c-.46582,0-.84375-.37793-.84375-.84375s.37793-.84375.84375-.84375h2.8125v-2.8125c0-.46582.37793-.84375.84375-.84375s.84375.37793.84375.84375v2.8125h2.8125c.46582,0,.84375.37793.84375.84375s-.37793.84375-.84375.84375Z" fill="var(--iconPrimary, #222)"/>
</svg>