<?xml version="1.0" encoding="UTF-8"?>
<svg xmlns="http://www.w3.org/2000/svg" width="20" height="20" viewBox="0 0 20 20">
  <path d="m15.75,18.02148h-6.5c-1.24023,0-2.25-1.00977-2.25-2.25v-2.75h-2.75c-1.24023,0-2.25-1.00977-2.25-2.25v-6.5c0-1.24023,1.00977-2.25,2.25-2.25h6.5c1.24023,0,2.25,1.00977,2.25,2.25v2.75h2.75c1.24023,0,2.25,1.00977,2.25,2.25v6.5c0,1.24023-1.00977,2.25-2.25,2.25ZM4.25,3.52148c-.41309,0-.75.33691-.75.75v6.5c0,.41309.33691.75.75.75h4.25v4.25c0,.41309.33691.75.75.75h6.5c.41309,0,.75-.33691.75-.75v-6.5c0-.41309-.33691-.75-.75-.75h-4.25v-4.25c0-.41309-.33691-.75-.75-.75h-6.5Z" fill="var(--iconPrimary, #222)"/>
</svg>