<?xml version="1.0" encoding="UTF-8"?>
<svg xmlns="http://www.w3.org/2000/svg" width="20" height="20" viewBox="0 0 20 20">
  <path d="M9.4436,17.25488c-3.85547-.16211-6.9436-3.33984-6.9436-7.23438,0-3.99805,3.25195-7.25,7.25-7.25,3.76746,0,6.86975,2.88818,7.21533,6.56689.55066.19165,1.06421.46021,1.52905.79492.00049-.0376.00562-.07422.00562-.11182,0-4.8252-3.9248-8.75-8.75-8.75S1,5.19531,1,10.02051s3.9248,8.75,8.75,8.75c.19153,0,.37891-.0166.56738-.02881-.35864-.448-.6543-.94751-.87378-1.48682Z" fill="var(--iconPrimary, #222)"/>
  <path d="M9,15c0-3.30859,2.69141-6,6-6,.15015,0,.29749.01172.44495.02246-.20496-1.49634-1.01013-2.7998-2.16699-3.66113L5.09094,13.54834c.91833,1.23291,2.33923,2.06274,3.96008,2.19507-.0304-.24414-.05103-.49121-.05103-.74341Z" fill="var(--iconPrimary, #222)"/>
  <path d="M15,10.5c-2.48529,0-4.5,2.01471-4.5,4.5s2.01471,4.5,4.5,4.5,4.5-2.01471,4.5-4.5-2.01471-4.5-4.5-4.5ZM17.5,15.625h-1.875v1.875c0,.34473-.28027.625-.625.625s-.625-.28027-.625-.625v-1.875h-1.875c-.34473,0-.625-.28027-.625-.625s.28027-.625.625-.625h1.875v-1.875c0-.34473.28027-.625.625-.625s.625.28027.625.625v1.875h1.875c.34473,0,.625.28027.625.625s-.28027.625-.625.625Z" fill="var(--iconPrimary, #222)"/>
</svg>