<?xml version="1.0" encoding="UTF-8"?>
<svg xmlns="http://www.w3.org/2000/svg" width="20" height="20" viewBox="0 0 20 20">
  <path d="M15.8689,6.87817c-.06567-3.18262-2.67065-5.75317-5.8689-5.75317s-5.80322,2.57056-5.8689,5.75317c-1.79126,1.00757-3.0061,2.92456-3.0061,5.12183,0,3.23926,2.63574,5.875,5.875,5.875,1.09668,0,2.12061-.30762,3-.83301.87939.52539,1.90332.83301,3,.83301,3.23926,0,5.875-2.63574,5.875-5.875,0-2.19727-1.21484-4.11426-3.0061-5.12183ZM12.72876,10.71436c-.25342-1.12964-.8313-2.13672-1.63281-2.91772.58228-.26514,1.22363-.42163,1.90405-.42163.54907,0,1.06885.11279,1.55786.28931-.18213,1.24902-.85571,2.33276-1.8291,3.05005ZM10,15.49048c-.82739-.71216-1.39502-1.7019-1.55835-2.83203.49731.13721,1.01831.21655,1.55835.21655s1.06104-.07935,1.55835-.21655c-.16333,1.13013-.73096,2.11987-1.55835,2.83203ZM5.44214,7.66431c.48901-.17651,1.00879-.28931,1.55786-.28931.68042,0,1.32178.15649,1.90405.42163-.80151.78101-1.37939,1.78809-1.63281,2.91772-.97339-.71729-1.64697-1.80103-1.8291-3.05005ZM10,11.625c-.54907,0-1.06885-.11279-1.55786-.28931.16455-1.12769.73193-2.11523,1.55786-2.82617.82593.71094,1.39331,1.69849,1.55786,2.82617-.48901.17651-1.00879.28931-1.55786.28931ZM10,2.375c2.32422,0,4.23511,1.73022,4.55835,3.96655-.49731-.13721-1.01831-.21655-1.55835-.21655-1.09668,0-2.12061.30762-3,.83301-.87939-.52539-1.90332-.83301-3-.83301-.54004,0-1.06104.07935-1.55835.21655.32324-2.23633,2.23413-3.96655,4.55835-3.96655ZM7,16.625c-2.5498,0-4.625-2.0752-4.625-4.625,0-1.52612.75244-2.87134,1.89624-3.71436.36938,1.64551,1.42896,3.03125,2.85986,3.83618.03296,1.5979.70483,3.04053,1.77295,4.08154-.58228.26514-1.22363.42163-1.90405.42163ZM13,16.625c-.68042,0-1.32178-.15649-1.90405-.42163,1.06812-1.04102,1.73999-2.48364,1.77295-4.08154,1.43091-.80493,2.49048-2.19067,2.85986-3.83618,1.1438.84302,1.89624,2.18823,1.89624,3.71436,0,2.5498-2.0752,4.625-4.625,4.625Z" fill="var(--iconPrimary, #222)"/>
  <path d="M7,16.625c-2.5498,0-4.625-2.0752-4.625-4.625,0-1.52612.75244-2.87134,1.89624-3.71436.36938,1.64551,1.42896,3.03125,2.85986,3.83618.03296,1.5979.70483,3.04053,1.77295,4.08154-.58228.26514-1.22363.42163-1.90405.42163Z" fill="var(--iconPrimary, #222)" opacity=".5"/>
  <path d="M13,16.625c-.68042,0-1.32178-.15649-1.90405-.42163,1.06812-1.04102,1.73999-2.48364,1.77295-4.08154,1.43091-.80493,2.49048-2.19067,2.85986-3.83618,1.1438.84302,1.89624,2.18823,1.89624,3.71436,0,2.5498-2.0752,4.625-4.625,4.625Z" fill="var(--iconPrimary, #222)" opacity=".2"/>
  <path d="M12.72876,10.71436c-.25342-1.12964-.8313-2.13672-1.63281-2.91772.58228-.26514,1.22363-.42163,1.90405-.42163.54907,0,1.06885.11279,1.55786.28931-.18213,1.24902-.85571,2.33276-1.8291,3.05005Z" fill="var(--iconPrimary, #222)" opacity=".2"/>
  <path d="M7,7.375c.68042,0,1.32178.15649,1.90405.42163-.80151.78101-1.37939,1.78809-1.63281,2.91772-.97339-.71729-1.64697-1.80103-1.8291-3.05005.48901-.17651,1.00879-.28931,1.55786-.28931" fill="var(--iconPrimary, #222)" opacity=".2"/>
  <path d="M10,15.49048c-.82739-.71216-1.39502-1.7019-1.55835-2.83203.49731.13721,1.01831.21655,1.55835.21655s1.06104-.07935,1.55835-.21655c-.16333,1.13013-.73096,2.11987-1.55835,2.83203Z" fill="var(--iconPrimary, #222)" opacity=".2"/>
</svg>