<?xml version="1.0" encoding="UTF-8"?>
<svg xmlns="http://www.w3.org/2000/svg" width="20" height="20" viewBox="0 0 20 20">
  <path d="M15.75,3.5H4.25c-.41309,0-.75.33691-.75.75v11.5c0,.41309.33691.75.75.75h11.5c.41309,0,.75-.33691.75-.75V4.25c0-.41309-.33691-.75-.75-.75ZM15,13h-3v1h-4v1h-3v-2h2v-1h2v-1h2v-2h3v-1h1v5ZM15,6h-2v1h-3v1h-2v1h-2v2h-1v-6h10v1Z" fill="none"/>
  <path d="M15.75,2H4.25c-1.24023,0-2.25,1.00977-2.25,2.25v11.5c0,1.24023,1.00977,2.25,2.25,2.25h11.5c1.24023,0,2.25-1.00977,2.25-2.25V4.25c0-1.24023-1.00977-2.25-2.25-2.25ZM16.5,15.75c0,.41309-.33691.75-.75.75H4.25c-.41309,0-.75-.33691-.75-.75V4.25c0-.41309.33691-.75.75-.75h11.5c.41309,0,.75.33691.75.75v11.5Z" fill="var(--iconPrimary, #222)"/>
  <polygon points="5 13 5 15 8 15 8 14 12 14 12 13 15 13 15 8 14 8 14 9 11 9 11 11 9 11 9 12 7 12 7 13 5 13" fill="var(--iconPrimary, #222)"/>
  <polygon points="5 11 6 11 6 9 8 9 8 8 10 8 10 7 13 7 13 6 15 6 15 5 5 5 5 11" fill="var(--iconPrimary, #222)"/>
</svg>