<?xml version="1.0" encoding="UTF-8"?>
<svg xmlns="http://www.w3.org/2000/svg" width="20" height="20" viewBox="0 0 20 20">
  <path d="M12.63135,15h2.36865v-6.88599c-1.01245-.77954-2.27686-1.24829-3.65381-1.24829-3.31348,0-6,2.68628-6,6,0,.75293.14478,1.47021.39795,2.13428h4.31714c-.72534-.4375-1.21509-1.22534-1.21509-2.13428,0-1.38062,1.11938-2.5,2.5-2.5,1.38086,0,2.5,1.11938,2.5,2.5,0,.90894-.48975,1.69678-1.21484,2.13428Z" fill="var(--iconPrimary, #222)" opacity=".35"/>
  <path d="M5,15h.75659c-.25586-.66455-.4104-1.37939-.4104-2.13428,0-3.31372,2.68652-6,6-6,1.37769,0,2.6416.47046,3.65381,1.25122v-3.11694H5v10Z" fill="var(--iconPrimary, #222)"/>
  <path d="M15.75,18H4.25c-1.24023,0-2.25-1.00977-2.25-2.25V4.25c0-1.24023,1.00977-2.25,2.25-2.25h11.5c1.24023,0,2.25,1.00977,2.25,2.25v11.5c0,1.24023-1.00977,2.25-2.25,2.25ZM4.25,3.5c-.41309,0-.75.33691-.75.75v11.5c0,.41309.33691.75.75.75h11.5c.41309,0,.75-.33691.75-.75V4.25c0-.41309-.33691-.75-.75-.75H4.25Z" fill="var(--iconPrimary, #222)"/>
</svg>