<?xml version="1.0" encoding="UTF-8"?>
<svg xmlns="http://www.w3.org/2000/svg" width="20" height="20" viewBox="0 0 20 20">
  <path d="M15.75,2H4.25c-1.24023,0-2.25,1.00977-2.25,2.25v11.5c0,1.24023,1.00977,2.25,2.25,2.25h11.5c1.24023,0,2.25-1.00977,2.25-2.25V4.25c0-1.24023-1.00977-2.25-2.25-2.25ZM16.5,4.25v2.02539c0,.41421-.33579.75-.75.75h-2.02539c-.41421,0-.75-.33579-.75-.75v-2.02539c0-.41421.33579-.75.75-.75h2.02539c.4125,0,.75.3375.75.75ZM8.27539,10.97461v-1.94922c0-.41421.33579-.75.75-.75h1.94922c.41421,0,.75.33579.75.75v1.94922c0,.41421-.33579.75-.75.75h-1.94922c-.41421,0-.75-.33579-.75-.75ZM11.72461,13.72461v2.02539c0,.41421-.33579.75-.75.75h-1.94922c-.41421,0-.75-.33579-.75-.75v-2.02539c0-.41421.33579-.75.75-.75h1.94922c.41421,0,.75.33579.75.75ZM6.27539,11.72461h-2.02539c-.41421,0-.75-.33579-.75-.75v-1.94922c0-.41421.33579-.75.75-.75h2.02539c.41421,0,.75.33579.75.75v1.94922c0,.41421-.33579.75-.75.75ZM8.27539,6.27539v-2.02539c0-.41421.33579-.75.75-.75h1.94922c.41421,0,.75.33579.75.75v2.02539c0,.41421-.33579.75-.75.75h-1.94922c-.41421,0-.75-.33579-.75-.75ZM13.72461,8.27539h2.02539c.41421,0,.75.33579.75.75v1.94922c0,.41421-.33579.75-.75.75h-2.02539c-.41421,0-.75-.33579-.75-.75v-1.94922c0-.41421.33579-.75.75-.75ZM4.25,3.5h2.02539c.41421,0,.75.33579.75.75v2.02539c0,.41421-.33579.75-.75.75h-2.02539c-.41421,0-.75-.33579-.75-.75v-2.02539c0-.4125.3375-.75.75-.75ZM3.5,15.75v-2.02539c0-.41421.33579-.75.75-.75h2.02539c.41421,0,.75.33579.75.75v2.02539c0,.41421-.33579.75-.75.75h-2.02539c-.4125,0-.75-.3375-.75-.75ZM15.75,16.5h-2.02539c-.41421,0-.75-.33579-.75-.75v-2.02539c0-.41421.33579-.75.75-.75h2.02539c.41421,0,.75.33579.75.75v2.02539c0,.4125-.3375.75-.75.75Z" fill="var(--iconPrimary, #222)"/>
  <rect x="12.5" y="12.5" width="4.5" height="4.5" fill="var(--iconPrimary, #222)" opacity=".5"/>
  <rect x="12.5" y="7.75" width="4.5" height="4.5" fill="var(--iconPrimary, #222)" opacity=".35"/>
  <rect x="12.5" y="3" width="4.5" height="4.5" fill="var(--iconPrimary, #222)" opacity=".2"/>
  <rect x="7.75" y="12.5" width="4.5" height="4.5" fill="var(--iconPrimary, #222)" opacity=".35"/>
  <rect x="7.75" y="7.75" width="4.5" height="4.5" fill="var(--iconPrimary, #222)" opacity=".2"/>
  <rect x="3" y="12.5" width="4.5" height="4.5" fill="var(--iconPrimary, #222)" opacity=".2"/>
</svg>