<?xml version="1.0" encoding="UTF-8"?>
<svg xmlns="http://www.w3.org/2000/svg" width="20" height="20" viewBox="0 0 20 20">
  <path d="m9.97949,18.77051c-4.82471,0-8.75-3.9248-8.75-8.75S5.15479,1.27051,9.97949,1.27051s8.75,3.9248,8.75,8.75-3.92529,8.75-8.75,8.75Zm0-16c-3.99756,0-7.25,3.25195-7.25,7.25s3.25244,7.25,7.25,7.25,7.25-3.25195,7.25-7.25-3.25244-7.25-7.25-7.25Z" fill="var(--iconPrimary, #222)"/>
  <path d="m5.59841,13.69449c.1066.1268.21635.252.33573.37138,2.24544,2.24544,5.8862,2.24553,8.13173,0s2.24544-5.88628,0-8.13173c-.11938-.11938-.24458-.22913-.37138-.33573L5.59841,13.69449Z" fill="var(--iconPrimary, #222)"/>
</svg>