<?xml version="1.0" encoding="UTF-8"?>
<svg xmlns="http://www.w3.org/2000/svg" width="20" height="20" viewBox="0 0 20 20">
  <path d="M14,19.25c-2.89453,0-5.25-2.35547-5.25-5.25s2.35547-5.25,5.25-5.25,5.25,2.35547,5.25,5.25-2.35547,5.25-5.25,5.25ZM14,10.25c-2.06738,0-3.75,1.68262-3.75,3.75s1.68262,3.75,3.75,3.75,3.75-1.68262,3.75-3.75-1.68262-3.75-3.75-3.75Z" fill="var(--iconPrimary, #222)"/>
  <path d="M6.51855,15h-3.26855c-1.24023,0-2.25-1.00977-2.25-2.25v-6.5c0-1.24023,1.00977-2.25,2.25-2.25h1c.23535,0,.45898-.1123.60059-.2998l.59863-.7998c.42383-.56445,1.09668-.90039,1.80078-.90039h3.5c.7041,0,1.37695.33594,1.7998.89941l.60059.80176c.14062.18652.36426.29883.59961.29883h1c1.24023,0,2.25,1.00977,2.25,2.25v.58496c0,.41406-.33594.75-.75.75s-.75-.33594-.75-.75v-.58496c0-.41309-.33691-.75-.75-.75h-1c-.7041,0-1.37695-.33594-1.7998-.89941l-.60059-.80176c-.14062-.18652-.36426-.29883-.59961-.29883h-3.5c-.23535,0-.45898.1123-.60059.2998l-.59863.7998c-.42383.56445-1.09668.90039-1.80078.90039h-1c-.41309,0-.75.33691-.75.75v6.5c0,.41309.33691.75.75.75h3.26855c.41406,0,.75.33594.75.75s-.33594.75-.75.75Z" fill="var(--iconPrimary, #222)"/>
  <path d="M14.83789,14.98047h-5.25v-1.25h5.25c.48242,0,.875-.39258.875-.875v-2.66211h1.25v2.66211c0,1.17188-.95312,2.125-2.125,2.125Z" fill="var(--iconPrimary, #222)" opacity=".5"/>
  <path d="M7.11719,11.75391c-.18359,0-.36816-.06738-.5127-.20312-.70215-.6582-1.10449-1.58789-1.10449-2.55078,0-1.92969,1.57031-3.5,3.5-3.5.95605,0,1.88184.39844,2.54004,1.09277.28516.2998.27246.77441-.02832,1.05957-.2998.28418-.77441.27344-1.05957-.02832-.38184-.40234-.89746-.62402-1.45215-.62402-1.10254,0-2,.89746-2,2,0,.55859.22363,1.07617.62988,1.45703.30273.2832.31738.75781.03418,1.05957-.14746.1582-.34668.2373-.54688.2373Z" fill="var(--iconPrimary, #222)"/>
  <path d="M14,10.25c.62012,0,1.19702.16602,1.71289.43359v2.17188c0,.48242-.39258.875-.875.875h-4.56055c.14111-1.93994,1.74756-3.48047,3.72266-3.48047Z" fill="var(--iconPrimary, #222)" opacity=".12"/>
</svg>