<?xml version="1.0" encoding="UTF-8"?>
<svg xmlns="http://www.w3.org/2000/svg" width="20" height="20" viewBox="0 0 20 20">
  <path d="M9.3479,13.30908l.76221-.76221c-.36108-.39307-.56421-.89648-.56323-1.43359.00098-.56641.22168-1.09961.62305-1.5.39648-.40039.93164-.62305,1.50195-.62305s1.10547.22363,1.50684.62793l.00439.00439c.2417-.14014.49731-.24365.7627-.30542.00049-.02466.00415-.04883.00415-.07373v-.44995c0-1.62695-.78821-3.06616-1.99976-3.96826l-7.36841,7.36816c.90234,1.21167,2.34155,2,3.96826,2h.20972c.13147-.32178.32715-.62329.58813-.88428Z" fill="var(--iconPrimary, #222)"/>
  <path d="M7.88672,16.91406c-.03027,0-.06152-.00195-.09277-.00586-3.97266-.48926-6.96875-3.88184-6.96875-7.88965C.8252,4.63477,4.3916,1.06836,8.77539,1.06836c4.26953,0,7.75781,3.33984,7.94141,7.60254.01855.41406-.30273.76367-.7168.78125-.37402.00977-.76465-.30176-.78125-.7168-.14941-3.45801-2.97949-6.16699-6.44336-6.16699-3.55664,0-6.4502,2.89355-6.4502,6.4502,0,3.25195,2.42969,6.00391,5.65234,6.40137.41113.05078.70312.4248.65234.83594-.04688.37988-.37012.6582-.74316.6582Z" fill="var(--iconPrimary, #222)"/>
  <path d="M18.77368,14.03467c-.23877-.29248-.55103-.55981-.80127-.73022l-2.30933-2.30835c-.56152-.5625-1.47559-.55957-2.03516.00098l-.59595.5957-.91772-.91797c-.24414-.24609-.6416-.24512-.88379-.00098-.24414.24414-.24512.63965-.00098.88379l.91846.91895-1.78076,1.78027h-.00098c-.56152.5625-.56152,1.47559,0,2.03809l2.52539,2.52539c.27246.27148.63379.42188,1.01855.42188h.00195c.38379-.00098.74512-.15039,1.0166-.42188l3.26172-3.26172c.12061-.12085.20264-.26343.27148-.40991.11597,1.1062-.45483,1.62549-.55347,2.18237-.06934.42847.22205.83228.65076.90161.08679.01392.17542.01343.26208-.00171.45337-.04199.75513-.34033.73047-1.05322-.02466-.71265-.32532-2.58838-.77808-3.14307ZM17.30566,14.67383l-3.26172,3.2627c-.04688.04785-.11426.06836-.13379.05566-.0293,0-.08594-.00781-.13379-.05664l-2.52539-2.52539c-.0752-.07422-.0752-.19434,0-.26855l1.78125-1.78076.71484.71533c.12207.12207.28223.18359.44238.18359s.32031-.06055.44141-.18262c.24414-.24414.24512-.63965.00098-.88379l-.71582-.71606.5957-.59546c.07422-.07422.19434-.0752.26855-.00098l2.52539,2.52539c.07422.07324.07422.19434,0,.26758Z" fill="var(--iconPrimary, #222)"/>
</svg>