<?xml version="1.0" encoding="UTF-8"?>
<svg xmlns="http://www.w3.org/2000/svg" width="20" height="20" viewBox="0 0 20 20">
  <rect x="3.5" y="3.5" width="13" height="8.25" rx=".75" ry=".75" fill="var(--iconPrimary, #222)" opacity=".12"/>
  <path d="M15.75,16.5h-2.77539v-3.25h3.52539v2.5c0,.41309-.33691.75-.75.75Z" fill="var(--iconPrimary, #222)" opacity=".12"/>
  <rect x="8.27539" y="13.25" width="3.44922" height="3.25" fill="var(--iconPrimary, #222)" opacity=".35" stroke-width="0"/>
  <path d="M3.5,15.75v-2.5h3.52539v3.25h-2.77539c-.41309,0-.75-.33691-.75-.75Z" fill="var(--iconPrimary, #222)" opacity=".7"/>
  <path d="M15.75,2H4.25c-1.24023,0-2.25,1.00977-2.25,2.25v11.5c0,1.24023,1.00977,2.25,2.25,2.25h11.5c1.24023,0,2.25-1.00977,2.25-2.25V4.25c0-1.24023-1.00977-2.25-2.25-2.25ZM4.25,3.5h11.5c.4125,0,.75.3375.75.75v6.75c0,.41421-.33579.75-.75.75H4.25c-.41421,0-.75-.33579-.75-.75v-6.75c0-.4125.3375-.75.75-.75ZM11.72461,14v1.75c0,.41421-.33579.75-.75.75h-1.94922c-.41421,0-.75-.33579-.75-.75v-1.75c0-.41421.33579-.75.75-.75h1.94922c.41421,0,.75.33579.75.75ZM3.5,15.75v-1.75c0-.41421.33579-.75.75-.75h2.02539c.41421,0,.75.33579.75.75v1.75c0,.41421-.33579.75-.75.75h-2.02539c-.4125,0-.75-.3375-.75-.75ZM15.75,16.5h-2.02539c-.41421,0-.75-.33579-.75-.75v-1.75c0-.41421.33579-.75.75-.75h2.02539c.41421,0,.75.33579.75.75v1.75c0,.4125-.3375.75-.75.75Z" fill="var(--iconPrimary, #222)"/>
</svg>