<?xml version="1.0" encoding="UTF-8"?>
<svg xmlns="http://www.w3.org/2000/svg" width="28.00005" height="28" viewBox="0 0 28.00005 28">
  <g id="circles">
    <circle id="Ellipse_10213" data-name="Ellipse 10213" cx="14.00002" cy="14" r="14.00001" fill="#7155fa"/>
  </g>
  <g id="ICONS">
    <rect id="S2_Icon_SettingsUser_20_N" x="5" y="5" width="18" height="18" fill="none" opacity=".1"/>
    <path d="M13.23096,16.13926c-.10723,0-.21533-.02549-.31729-.0791-.38145-.20391-.69785-.50977-.91494-.88506-.30937-.53437-.39111-1.15752-.23115-1.7543s.54229-1.09512,1.07666-1.40361c1.10566-.63633,2.52158-.25664,3.15703.84639.18633.32256.08965.75674-.23115.94395-.32168.18809-.7207.10107-.90879-.21885-.29443-.50889-.8833-.66973-1.34209-.40254-.22236.12832-.38145.33574-.44824.58359-.06592.24873-.03164.50801.09668.73037.09053.15557.22236.28389.38232.36826.32871.17578.45264.58447.27773.91406-.12217.22764-.35508.35684-.59678.35684Z" fill="#fff"/>
    <path d="M11.22705,21.49268c-.30674,0-.61787-.0791-.90439-.24434l-.7374-.42539c-.80508-.46318-1.125-1.48447-.72949-2.32559l.52207-1.10918c-.23906-.32695-.44121-.67588-.60557-1.04502l-1.21992-.10107c-.94043-.07734-1.65059-.84727-1.65234-1.79121v-.85342c-.00176-.929.72334-1.71738,1.65059-1.79385l1.21816-.10283c.08174-.18809.17227-.36738.27158-.54053.09932-.17051.21006-.34014.33223-.50713l-.52207-1.10654c-.39727-.84023-.07734-1.8624.72686-2.32646l.7374-.42627c.8042-.46406,1.84922-.23291,2.3792.53086l.69873,1.00635c.40078-.04395.8042-.04131,1.20674,0l.69873-1.00811c.5291-.76289,1.57148-.99756,2.37832-.5335l.7374.42539c.80508.46406,1.125,1.48535.73037,2.32559l-.52295,1.10918c.23906.32783.44121.67676.60469,1.04502l1.22168.10107c.6416.05273,1.20938.44824,1.48271,1.03184.15732.3375.0123.73916-.32607.89736-.33926.15732-.73916.01143-.89736-.32607-.06768-.1459-.21006-.24521-.37002-.2584l-1.6374-.13535c-.26455-.02197-.49219-.19687-.58096-.44648-.17842-.50449-.44736-.96855-.79893-1.37988-.17227-.20215-.21006-.48604-.09756-.72598l.70049-1.48711c.1002-.21357.02197-.46318-.18281-.58184l-.7374-.42539c-.20303-.11514-.4623-.05713-.59502.13359l-.93691,1.35176c-.15117.21709-.41748.32871-.67676.27861-.53174-.09844-1.06875-.09844-1.59346,0-.25928.05186-.52734-.06064-.67852-.27861l-.93691-1.34912c-.13184-.18984-.39199-.25049-.59414-.13271l-.73828.42715c-.20391.11777-.28213.36738-.18105.58096l.70049,1.48535c.11338.23994.07559.52383-.0958.72598-.18457.21709-.3375.43066-.46582.65303-.12832.22324-.23643.46143-.33135.72861-.08877.25049-.31553.42539-.5792.44736l-1.63652.13799c-.23291.01934-.41309.21621-.41309.44824v.85342c0,.23467.17842.42715.41309.44736l1.63652.13535c.26455.02197.49219.19688.58096.44648.1793.50537.44736.96943.79893,1.37988.17227.20127.21094.48604.09756.72598l-.69961,1.48711c-.10107.21357-.02285.46318.18193.58096l.73828.42627c.20479.11865.46055.05889.59502-.13359l.40254-.58008c.2127-.30674.63369-.38408.93867-.17051.30674.21182.3832.63281.17051.93867l-.40254.58096c-.3498.50449-.90527.77783-1.4748.77783Z" fill="#fff"/>
    <path d="M18.5,14.45c-2.23676,0-4.05,1.81323-4.05,4.05s1.81324,4.05,4.05,4.05,4.05-1.81323,4.05-4.05-1.81323-4.05-4.05-4.05ZM16.29296,20.40017c.53394-.62343,1.32567-.99135,2.17194-.96957.87066-.03348,1.68741.34281,2.22867.98577-.53613.61326-1.31499,1.00863-2.19357,1.00863-.88614,0-1.67067-.40239-2.20704-1.02483ZM18.3308,15.68534c.79092-.0468,1.46997.55656,1.51668,1.34748.00171.02817.00252.05652.00252.08478.02169.76779-.58221,1.40841-1.35,1.4319-.79092.04671-1.46997-.55656-1.51668-1.34757-.04671-.79083.55656-1.46997,1.34748-1.51659Z" fill="#fff"/>
  </g>
</svg>