<?xml version="1.0" encoding="UTF-8"?>
<svg xmlns="http://www.w3.org/2000/svg" width="28.00005" height="28" viewBox="0 0 28.00005 28">
  <g id="circles">
    <circle id="Ellipse_10213" data-name="Ellipse 10213" cx="14.00002" cy="14" r="14.00001" fill="#7155fa"/>
  </g>
  <g id="ICONS">
    <rect id="S2_Icon_Launch_20_N" x="5" y="4" width="18" height="18" fill="none" opacity=".1"/>
    <circle cx="17.8475" cy="17.21204" r=".99986" fill="#fff"/>
    <path d="M19.47207,21.77324c-.39243,0-.77871-.18721-1.01338-.52822l-.352-.51328c-.09141.00791-.18193.00879-.2751.01055-.09229-.00088-.18413-.00527-.27422-.01318l-.35728.50977c-.36255.5168-1.07358.67061-1.61851.35508l-.43242-.25225c-.5458-.31816-.76025-1.01426-.48779-1.58467l.26807-.56162c-.10283-.15117-.19336-.31025-.27158-.47549l-.62139-.05449c-.62842-.05537-1.11885-.59326-1.11665-1.22432l.0022-.50186c.00308-.6416.48779-1.16279,1.12764-1.21377l.62183-.04922c.07954-.16523.17183-.32344.27554-.47285l-.26323-.56514c-.26631-.57305-.0457-1.2665.50186-1.57939l.43506-.24873c.54844-.31201,1.25815-.15117,1.61587.37002l.352.5124c.09053-.00791.18149-.01494.27466-.01055.09229.00088.18369.00527.27422.0123l.35728-.50889c.36167-.51855,1.07314-.67324,1.61851-.35508l.43242.25225c.5458.31816.76025,1.01338.48823,1.58379l-.26851.5625c.10283.15117.19336.31025.27158.47549l.62139.05449c.62842.05537,1.11885.59238,1.11665,1.22344l-.0022.50186c-.00308.6416-.48779,1.16367-1.1272,1.21465l-.62227.04922c-.07954.16436-.17139.32256-.27554.47285l.26323.56514c.26675.57217.04658,1.26562-.50186,1.57939l-.43418.24785c-.18896.10811-.39683.15996-.60293.15996ZM18.37563,19.56807c.18325,0,.35728.08965.46362.24346l.54668.79629c.02944.04219.08745.05537.13096.029l.43374-.24785c.04526-.02637.06284-.08086.04087-.12832l-.40781-.87539c-.0936-.20039-.06064-.4377.08438-.60557.1916-.22148.3397-.47637.44033-.75586.07515-.2083.26499-.35332.4856-.3709l.96328-.07559c.05098-.00439.09009-.04658.09053-.09844l.0022-.50098c0-.05098-.03823-.09316-.08965-.09756l-.96284-.08437c-.22017-.01934-.40869-.16611-.48164-.37529-.09844-.28037-.24434-.53701-.43462-.76113-.14282-.16963-.17358-.40605-.07822-.60557l.41572-.87188c.02197-.04658.00527-.10195-.03955-.12744l-.43242-.25225c-.0457-.02725-.10151-.01406-.13052.02812l-.55459.79014c-.12612.18018-.34717.27598-.56294.23027-.14678-.02725-.30103-.03955-.45088-.04395-.14634,0-.28916.01494-.42847.04043-.22148.04043-.43813-.05361-.56338-.23467l-.54712-.79541c-.029-.04307-.08394-.05449-.13008-.02988l-.43506.24873c-.04482.02549-.06196.07998-.03999.12744l.40737.87451c.0936.20039.06064.43682-.08394.60469-.1916.22236-.34014.47725-.44121.75762-.07471.20742-.26411.35244-.48472.37002l-.96284.07646c-.05186.00439-.09097.04658-.09141.09756l-.0022.50098c0,.05186.03823.09404.08965.09844l.96284.08438c.22017.01934.40869.16611.48164.37529.09844.28037.24434.53701.43462.76113.14282.16963.17358.40605.07822.60557l-.41528.871c-.02197.04658-.00483.10283.03955.12832l.43242.25225c.04351.02461.10063.01318.13052-.029l.55415-.79014c.12656-.18105.34849-.26807.56602-.23027.14502.02725.28125.03867.4478.04482.14634,0,.2896-.01494.42891-.04043.0334-.00615.0668-.00879.09976-.00879Z" fill="#fff"/>
    <path d="M12.58584,14.08633c-.03384,0-.06812-.00264-.10239-.00791-2.08564-.31729-3.65845-2.23154-3.65845-4.45342,0-2.48115,1.91777-4.5,4.275-4.5s4.275,2.01885,4.275,4.5c0,.42979-.05757.85518-.17095,1.26387-.09976.35859-.47065.57041-.83101.47021-.35903-.09932-.56953-.47197-.46978-.83057.08086-.2918.12173-.59502.12173-.90352,0-1.73672-1.31221-3.15-2.925-3.15s-2.925,1.41328-2.925,3.15c0,1.56006,1.07974,2.90127,2.51147,3.11924.3687.05625.62183.3999.56602.76904-.05098.33398-.33882.57305-.66665.57305Z" fill="#fff"/>
    <path d="M6.57588,20.875c-.02153,0-.04351-.00088-.06548-.00352-.3709-.03516-.64292-.36475-.60732-.73564.21533-2.23945,2.1564-4.13789,4.94561-4.83662.36167-.09053.72773.13008.8187.49043.09053.36211-.1292.72861-.49087.81914-2.19287.54932-3.77227,2.01885-3.92959,3.65537-.0334.3498-.32739.61084-.67104.61084Z" fill="#fff"/>
  </g>
</svg>