<?xml version="1.0" encoding="UTF-8"?>
<svg   xmlns="http://www.w3.org/2000/svg" width="20" height="20" viewBox="0 0 20 20">
  <path id="c"  d="m11.57137,7.46269c-.60173,2.01707-1.10647,3.95504-1.7082,5.85628-.26092.96911-.66089,1.8953-1.18745,2.74969-.61368.87123-1.60251,1.40177-2.66777,1.43135-.82962,0-1.64322-.38985-1.64322-1.25243.04106-.53763.45625-.97136.99158-1.03584.18903-.00723.36561.09404.45483.26084.4068.73168.7976,1.15449.97652,1.15449s.32582-.24389.61774-1.30139l2.13195-7.86299h-1.52928c-.1077-.30561-.00978-.64589.24389-.84751h1.53022c.27533-.95734.65127-1.88283,1.12153-2.76099.63912-1.3801,1.99486-2.28828,3.51433-2.35419,1.22418,0,1.72421.58572,1.72421,1.33435-.00345.60289-.44535,1.1135-1.04149,1.20346-.2599,0-.38985-.19493-.47084-.47084-.27591-1.04055-.63469-1.34942-.84751-1.34942s-.53675.38985-.89459,1.20346c-.4452,1.03602-.80456,2.10685-1.07445,3.2017h1.8551c.1159.30874.00916.65682-.2599.84751l-1.83721-.00753Z" fill="var(--iconPrimary, #222)"/>
</svg>