<?xml version="1.0" encoding="UTF-8"?>
<svg   xmlns="http://www.w3.org/2000/svg" width="20" height="20" viewBox="0 0 20 20">
  <path d="M15.8125,1.00003H4.1875c-1.76041,0-3.1875,1.42709-3.1875,3.1875v11.175c0,1.76041,1.42709,3.1875,3.1875,3.1875h11.625c1.76041,0,3.1875-1.42709,3.1875-3.1875V4.18753c0-1.76041-1.42709-3.1875-3.1875-3.1875ZM13.42449,14.19553c-.44377-.00121-.94752-.19736-1.212-.79875l-1.92675-4.5045c-.1035-.2445-.43875-.243-.5415.0015l-.94425,2.25c-.08325.198.0615.41625.276.41625,0,0,.47625-.00375.50625-.00375.729,0,1.32.59175,1.32,1.32s-.58875,1.3185-1.31625,1.32h-2.9625c-.939,0-1.5735-.957-1.209-1.8225l2.66025-6.33525c.3285-.78075,1.098-1.2885,1.944-1.2885s1.608.50625,1.93725,1.28475l2.6775,6.336c.36675.86625-.26775,1.82475-1.209,1.82475Z" fill="var(--iconPrimary, #222)" stroke-width="0"/>
</svg>