<?xml version="1.0" encoding="UTF-8"?>
<svg xmlns="http://www.w3.org/2000/svg" width="28.00005" height="28" viewBox="0 0 28.00005 28">
  <g id="circles">
    <circle id="Ellipse_10213" data-name="Ellipse 10213" cx="14.00002" cy="14" r="14.00001" fill="#e434a3"/>
  </g>
  <g id="ICONS">
    <rect id="S2_Icon_RTCDPCollaboration_20_N" x="5" y="5" width="18" height="18" fill="none" opacity=".1"/>
    <path d="M14,11.32486c-1.98823,0-3.6,1.61177-3.6,3.6s1.61177,3.6,3.6,3.6,3.6-1.61177,3.6-3.6-1.61177-3.6-3.6-3.6ZM12.03818,16.61388c.47461-.55415,1.17837-.88115,1.93062-.86182.77393-.02979,1.49995.30474,1.98105.87627-.47661.54507-1.1689.89653-1.94985.89653-.7877,0-1.48501-.35771-1.96182-.91099ZM13.84961,12.42291c.70303-.04155,1.30664.49473,1.34819,1.19775.00146.0251.0022.05024.0022.07539.01929.68252-.51753,1.2519-1.2,1.2728-.70303.0415-1.30664-.49473-1.34819-1.1978-.0415-.70303.49473-1.30664,1.1978-1.34814Z" fill="#fff"/>
    <path d="M14,9.97461c-1.24102,0-2.25-1.00898-2.25-2.25s1.00898-2.25,2.25-2.25,2.25,1.00898,2.25,2.25-1.00898,2.25-2.25,2.25ZM14,6.82461c-.49658,0-.9.40342-.9.9s.40342.9.9.9.9-.40342.9-.9-.40342-.9-.9-.9Z" fill="#fff"/>
    <path d="M20.3,20.77461c-1.24102,0-2.25-1.00898-2.25-2.25s1.00898-2.25,2.25-2.25,2.25,1.00898,2.25,2.25-1.00898,2.25-2.25,2.25ZM20.3,17.62461c-.49658,0-.9.40342-.9.9s.40342.9.9.9.9-.40342.9-.9-.40342-.9-.9-.9Z" fill="#fff"/>
    <path d="M7.7,20.77461c-1.24102,0-2.25-1.00898-2.25-2.25s1.00898-2.25,2.25-2.25,2.25,1.00898,2.25,2.25-1.00898,2.25-2.25,2.25ZM7.7,17.62461c-.49658,0-.9.40342-.9.9s.40342.9.9.9.9-.40342.9-.9-.40342-.9-.9-.9Z" fill="#fff"/>
    <path d="M21.16924,15.01514c-.34805,0-.64336-.26719-.67236-.62051-.1582-1.96787-1.18389-3.73711-2.81426-4.85508-.30762-.21006-.38584-.63018-.1749-.93779.20918-.30674.62842-.38672.93779-.1749,1.96787,1.34824,3.20625,3.48398,3.39785,5.85879.02988.37178-.24785.69697-.61875.72773-.01846.00088-.03691.00176-.05537.00176Z" fill="#fff"/>
    <path d="M14,22.79961c-1.19795,0-2.35723-.26982-3.44707-.80156-.33486-.16348-.47373-.56777-.31025-.90264s.56602-.47373.90264-.31025c1.80703.88242,3.90234.88242,5.70937,0,.33574-.16523.73916-.02549.90264.31025.16348.33486.02461.73916-.31025.90264-1.08984.53174-2.24912.80156-3.44707.80156Z" fill="#fff"/>
    <path d="M6.83076,15.01514c-.01846,0-.03691-.00088-.05537-.00176-.3709-.03076-.64863-.35596-.61875-.72773.1916-2.3748,1.42998-4.51055,3.39785-5.85879.30674-.21182.72861-.13184.93779.1749.21094.30762.13271.72773-.1749.93779-1.63037,1.11797-2.65605,2.88721-2.81426,4.85508-.029.35244-.32432.62051-.67236.62051Z" fill="#fff"/>
  </g>
</svg>