<?xml version="1.0" encoding="UTF-8"?>
<svg xmlns="http://www.w3.org/2000/svg" width="20" height="20" viewBox="0 0 20 20">
  <path id="b" data-name="Path 215" d="M13.059,7.752c-.04388.07599-.10699.1391-.18298.18298-.23914.13808-.54494.05616-.68302-.18298l-3.3017-5.71869c-.18678-.32351.03516-.71976.40734-.75178,2.13566-.18373,4.27445.43589,5.98836,1.75447.19862.15499.2509.43354.122.65l-2.35,4.066Z" fill="var(--iconPrimary, #222)"/>
  <path id="c" data-name="Path 216" d="M13.491,11.5c-.08776,0-.17398-.02311-.24999-.06699-.23915-.13807-.32108-.44387-.18301-.68301l3.288-5.688c.03816-.06501.09039-.12065.15286-.16284.23112-.1561.54504-.09528.70114.13584,1.01088,1.45822,1.55172,3.19066,1.55,4.965.00032.35912-.02273.71788-.069,1.074-.03694.24692-.25035.42875-.5.426h-4.69Z" fill="var(--iconPrimary, #222)"/>
  <path id="d" data-name="Path 217" d="M9.00853,5.23617l-1.77353-3.07117c-.12522-.21964-.39335-.31315-.628-.219-1.99559.84537-3.60827,2.39857-4.528,4.361-.10659.25474.01351.54766.26825.65425.06136.02568.12723.03885.19375.03875h6.62c.27614,0,.49999-.22387.49999-.50001,0-.08776-.0231-.17398-.06699-.24999l-.58547-1.01383Z" fill="var(--iconPrimary, #222)"/>
  <path id="e" data-name="Path 218" d="M6.511,8.496c.08776,0,.17398.02311.24999.06699.23915.13807.32108.44387.18301.68301l-3.284,5.7c-.03915.06912-.09421.12791-.16061.17151-.23083.15157-.54082.08732-.69239-.14351-1.01552-1.45973-1.55895-3.19578-1.557-4.974-.00032-.35912.02273-.71788.069-1.074.03694-.24692.25035-.42875.5-.426l4.692-.004Z" fill="var(--iconPrimary, #222)"/>
  <path id="f" data-name="Path 219" d="M10.404,13.75c-.04388-.07601-.06699-.16222-.06699-.24999,0-.27614.22384-.50001.49999-.50001h6.621c.06518.00042.12964.01359.18977.03874.25474.1066.37483.39952.26823.65426-.91998,1.96378-2.53388,3.51783-4.531,4.363-.2349.09398-.5031.00002-.628-.22l-2.353-4.086Z" fill="var(--iconPrimary, #222)"/>
  <path id="g" data-name="Path 220" d="M6.944,12.254c.04388-.07599.10699-.1391.18298-.18298.23914-.13808.54494-.05616.68302.18298l3.29402,5.7109c.18229.31604-.02393.71909-.38736.75119-.23822.02104-.47731.03236-.71667.03392-1.90652.0009-3.76055-.62449-5.277-1.78-.19785-.1545-.25048-.43175-.123-.648l2.344-4.068Z" fill="var(--iconPrimary, #222)"/>
</svg>