<?xml version="1.0" encoding="UTF-8"?>
<svg id="f" data-name="ICONS" xmlns="http://www.w3.org/2000/svg" width="20" height="20" viewBox="0 0 20 20">
  <path d="M9.57812,13.5c-.28857,0-.55322-.16602-.67773-.42871l-.94922-2.00195-.2627.50781c-.12891.24902-.38574.40527-.66602.40527h-1.27246c-.41406,0-.75-.33594-.75-.75s.33594-.75.75-.75h.81592l.74854-1.44629c.13086-.25293.36523-.40723.6792-.40527.28467.00488.54248.1709.66455.42871l.80859,1.70508,1.27686-3.7207c.104-.30371.38916-.50684.70947-.50684h.00049c.3208,0,.60547.2041.70898.50781l1.1748,3.4375h.9126c.41406,0,.75.33594.75.75s-.33594.75-.75.75h-1.44873c-.3208,0-.60596-.2041-.70947-.50781l-.64014-1.87305-1.16406,3.3916c-.09912.28906-.36279.48828-.66748.50586-.01416.00098-.02832.00098-.04199.00098Z" fill="var(--iconPrimary, #222)"/>
  <path d="M15.75,18H4.25c-1.24072,0-2.25-1.00977-2.25-2.25V4.25c0-1.24023,1.00928-2.25,2.25-2.25h11.5c1.24072,0,2.25,1.00977,2.25,2.25v11.5c0,1.24023-1.00928,2.25-2.25,2.25ZM4.25,3.5c-.41357,0-.75.33691-.75.75v11.5c0,.41309.33643.75.75.75h11.5c.41357,0,.75-.33691.75-.75V4.25c0-.41309-.33643-.75-.75-.75H4.25Z" fill="var(--iconPrimary, #222)"/>
</svg>