<?xml version="1.0" encoding="UTF-8"?>
<svg xmlns="http://www.w3.org/2000/svg" width="28.00005" height="28" viewBox="0 0 28.00005 28">
  <g id="circles">
    <circle id="Ellipse_10213" data-name="Ellipse 10213" cx="14.00002" cy="14" r="14.00001" fill="#fff"/>
    <rect id="S_ExperiencePlatformSolid_24_N" x="6" y="6" width="16" height="16" fill="#fff" opacity="0"/>
  </g>
  <g id="ICONS">
    <path d="M20.68245,20h-2.86686c-.26595,0-.49316-.15186-.58789-.37907l-3.1123-7.27706c-.05599-.13131-.20557-.13245-.2627-.00342l-1.93953,4.62036c-.04565.1084.03394.22823.15153.22823h2.13192c.13208,0,.2513.07898.30282.20056l.93343,2.07719c.10734.25346-.07878.5332-.35278.5332h-7.76147c-.24772,0-.41789-.24662-.32308-.49325l4.93685-11.75671c.09595-.24658.34253-.41671.62679-.41671h2.84741c.28434,0,.53206.17013.62687.41671l4.97111,11.75671c.09473.24662-.07544.49325-.3221.49325Z" fill="#eb1000"/>
  </g>
</svg>