<?xml version="1.0" encoding="UTF-8"?>
<svg xmlns="http://www.w3.org/2000/svg" width="28.00005" height="28" viewBox="0 0 28.00005 28">
  <g id="circles">
    <circle id="Ellipse_10213" data-name="Ellipse 10213" cx="14.00002" cy="14" r="14.00001" fill="#b539c8"/>
  </g>
  <g id="ICONS">
    <rect id="S2_Icon_AssetProcessing_20_N" x="5" y="5" width="18" height="18" fill="none" opacity=".1"/>
    <g>
      <path d="M16.90171,13.28237l-.74421-.05823c-.09404-.26213-.23665-.50669-.42209-.7218l.31509-.6772c.11206-.24104.02087-.52778-.21006-.65962l-.3364-.19204c-.23093-.13162-.52427-.06438-.67478.15469l-.42275.61589c-.27949-.05032-.5625-.04856-.83606.00374l-.42869-.61106c-.15271-.21775-.4467-.28191-.67632-.14788l-.33442.19534c-.22961.13403-.31794.42166-.20347.6616l.32168.67368c-.08899.10547-.17095.21929-.24192.34343s-.127.25247-.17249.38298l-.74355.0657c-.26499.02329-.46758.24587-.46626.51174l.00198.38716c.00132.26587.20632.48647.47131.50713l.74421.05823c.09404.26213.23665.50669.42209.7218l-.31509.6772c-.11206.24104-.02087.52778.21006.65962l.3364.19182c.23093.13184.52427.0646.67478-.15447l.42275-.61589c.27949.05032.5625.04856.83606-.00374l.42869.61106c.15271.21775.4467.28191.67632.14788l.33442-.19534c.22961-.13403.31794-.42188.20347-.6616l-.32168-.67368c.08899-.10547.17095-.21929.24192-.34343s.127-.25247.17249-.38298l.74355-.0657c.26499-.02351.46758-.24587.46626-.51174l-.00198-.38716c-.00132-.26587-.20632-.48647-.47131-.50713ZM14.42583,14.73784c-.40737.23511-.92834.09558-1.16367-.31201-.23511-.40737-.09558-.92834.31201-1.16367.40737-.23511.92834-.09558,1.16367.31201.23511.40737.09558.92834-.31201,1.16367Z" fill="#fff"/>
      <path d="M20.525,15.59016v-3.18384c.7207-.27422,1.23662-.96713,1.23662-1.78308,0-1.05469-.85781-1.9125-1.9125-1.9125-.46846,0-.89231.17578-1.2252.45626l-2.74043-1.52732c.01362-.0913.02812-.18226.02812-.27719,0-1.05469-.85781-1.9125-1.9125-1.9125s-1.9125.85781-1.9125,1.9125c0,.09525.0145.18655.02812.27806l-2.73999,1.52677c-.33289-.2807-.75696-.45659-1.22563-.45659-1.05469,0-1.9125.85781-1.9125,1.9125,0,.81661.51658,1.50985,1.23838,1.78363v3.18274c-.7218.27378-1.23838.96702-1.23838,1.78363,0,1.05469.85781,1.9125,1.9125,1.9125.46846,0,.89231-.17578,1.2252-.45615l2.74109,1.52952c-.0134.09097-.02791.18193-.02791.27664,0,1.05469.85781,1.9125,1.9125,1.9125s1.9125-.85781,1.9125-1.9125c0-.09459-.0145-.18523-.02791-.2762l2.74021-1.5293c.33267.27993.7563.45549,1.22432.45549,1.05469,0,1.9125-.85781,1.9125-1.9125,0-.81595-.51592-1.50886-1.23662-1.78308ZM17.93662,17.37324c0,.09558.01472.1871.02813.27883l-2.73823,1.52842c-.33311-.28103-.75762-.45725-1.22651-.45725s-.89297.176-1.22607.45692l-2.74043-1.52897c.01362-.09152.02812-.18281.02812-.27795,0-.81595-.51592-1.50886-1.23662-1.78308v-3.18384c.7207-.27422,1.23662-.96713,1.23662-1.78308,0-.09492-.0145-.18589-.02812-.27719l2.74065-1.5271c.33289.28037.75674.45604,1.22498.45604.46868,0,.89275-.17589,1.22563-.45659l2.73999,1.5271c-.01362.09141-.02813.18259-.02813.27773,0,.81661.51658,1.50985,1.23838,1.78363v3.18274c-.7218.27378-1.23838.96702-1.23838,1.78363ZM19.84912,9.83574c.43418,0,.7875.35332.7875.7875s-.35332.7875-.7875.7875-.7875-.35332-.7875-.7875.35332-.7875.7875-.7875ZM13.99912,6.575c.43418,0,.7875.35332.7875.7875s-.35332.7875-.7875.7875-.7875-.35332-.7875-.7875.35332-.7875.7875-.7875ZM8.14912,9.83574c.43418,0,.7875.35332.7875.7875s-.35332.7875-.7875.7875-.7875-.35332-.7875-.7875.35332-.7875.7875-.7875ZM8.14912,18.16074c-.43418,0-.7875-.35332-.7875-.7875s.35332-.7875.7875-.7875.7875.35332.7875.7875-.35332.7875-.7875.7875ZM14,21.42324c-.43418,0-.7875-.35332-.7875-.7875s.35332-.7875.7875-.7875.7875.35332.7875.7875-.35332.7875-.7875.7875ZM19.84912,18.16074c-.43418,0-.7875-.35332-.7875-.7875s.35332-.7875.7875-.7875.7875.35332.7875.7875-.35332.7875-.7875.7875Z" fill="#fff"/>
    </g>
  </g>
</svg>