<?xml version="1.0" encoding="UTF-8"?>
<svg xmlns="http://www.w3.org/2000/svg" width="28.00005" height="28" viewBox="0 0 28.00005 28">
  <g id="circles">
    <circle id="Ellipse_10213" data-name="Ellipse 10213" cx="14.00002" cy="14" r="14.00001" fill="#5db41f"/>
  </g>
  <g id="ICONS">
    <rect id="S2_Icon_Asset_20_N" x="5.09281" y="5.00404" width="18" height="18" fill="none" opacity=".1"/>
    <path id="Path_1005062" data-name="Path 1005062" d="M15.59051,9.43307c0,.62629-.52069,1.134-1.163,1.134-.64231,0-1.163-.50771-1.163-1.134,0-.62629.52069-1.134,1.163-1.134s1.163.50771,1.163,1.134h0" fill="#fff"/>
    <path d="M20.16774,22.10376h-5.85c-1.11665,0-2.025-.90879-2.025-2.025v-5.85c0-1.11621.90835-2.025,2.025-2.025h5.85c1.11665,0,2.025.90879,2.025,2.025v5.85c0,1.11621-.90835,2.025-2.025,2.025ZM14.31774,13.55376c-.37222,0-.675.30322-.675.675v5.85c0,.37178.30278.675.675.675h5.85c.37222,0,.675-.30322.675-.675v-5.85c0-.37178-.30278-.675-.675-.675h-5.85Z" fill="#fff"/>
    <path d="M15.89281,18.62243v-2.61602c0-.38581.3726-.62102.65984-.41654l2.11562,1.30801c.27026.19239.27026.64069,0,.83308l-2.11562,1.30801c-.28725.20448-.65984-.03073-.65984-.41654Z" fill="#fff"/>
    <path d="M16.81339,5.90376H7.77253c-.9813,0-1.77979.81211-1.77979,1.80967v7.18154c0,.99756.79849,1.80879,1.77979,1.80879h2.49565c.37266,0,.675-.30234.675-.675s-.30234-.675-.675-.675h-2.49565c-.23687,0-.42979-.20566-.42979-.45879v-.69521l2.33701-2.27812c.14766-.14678.39902-.14414.54229-.00615l.42979.42979c.26367.26367.69082.26367.95449,0s.26367-.69082,0-.95449l-.4355-.43594c-.67104-.65391-1.76265-.65391-2.43369,0l-1.39438,1.35945v-4.60085c0-.25312.19292-.45967.42979-.45967h9.04087c.23687,0,.42935.20654.42935.45967v2.42139c0,.37266.30234.675.675.675s.675-.30234.675-.675v-2.42139c0-.99756-.79805-1.80967-1.77935-1.80967Z" fill="#fff"/>
  </g>
</svg>