<?xml version="1.0" encoding="UTF-8"?>
<svg xmlns="http://www.w3.org/2000/svg" width="28.00005" height="28" viewBox="0 0 28.00005 28">
  <g id="circles">
    <circle id="Ellipse_10213" data-name="Ellipse 10213" cx="14.00002" cy="14" r="14.00001" fill="#5db41f"/>
  </g>
  <g id="ICONS">
    <rect id="S2_Icon_ImageCheckmark_20_N" x="5.09281" y="5.00404" width="18" height="18" fill="none" opacity=".1"/>
    <path id="Path_1005062" data-name="Path 1005062" d="M18.14281,11.77307c0,.74558-.60442,1.35-1.35,1.35-.74558,0-1.35-.60442-1.35-1.35,0-.74558.60442-1.35,1.35-1.35s1.35.60442,1.35,1.35h0" fill="#fff"/>
    <path d="M20.16781,7.70404h-12.15c-1.11621,0-2.025.90879-2.025,2.025v8.55c0,1.11621.90879,2.025,2.025,2.025h4.51318c.37266,0,.675-.30234.675-.675s-.30234-.675-.675-.675h-4.51318c-.37178,0-.675-.30322-.675-.675v-1.05117l2.67275-2.67275c.25488-.25488.69961-.25488.95449,0l1.82549,1.82461c.26367.26367.69082.26367.95449,0s.26367-.69082,0-.95449l-1.82549-1.82461c-.78926-.78926-2.07422-.78926-2.86348,0l-1.71826,1.71826v-5.58984c0-.37178.30322-.675.675-.675h12.15c.37178,0,.675.30322.675.675v3.37588c0,.37266.30234.675.675.675s.675-.30234.675-.675v-3.37588c0-1.11621-.90879-2.025-2.025-2.025Z" fill="#fff"/>
    <path d="M18.59281,14.45404c-2.23682,0-4.05,1.81318-4.05,4.05s1.81318,4.05,4.05,4.05,4.05-1.81318,4.05-4.05-1.81318-4.05-4.05-4.05ZM20.75228,17.46869l-2.07861,2.83447c-.1002.13711-.25664.22148-.42539.22939-.00967.00088-.01846.00088-.02812.00088-.15908,0-.31113-.06768-.41836-.18633l-1.29375-1.43877c-.20742-.23115-.18896-.58711.04219-.79453.22939-.2083.58711-.18896.79453.04219l.83057.92461,1.66992-2.27637c.18281-.25049.53437-.30674.78574-.12129.25137.18369.30498.53525.12129.78574Z" fill="#fff"/>
  </g>
</svg>