<?xml version="1.0" encoding="UTF-8"?>
<svg xmlns="http://www.w3.org/2000/svg" width="28.00005" height="28" viewBox="0 0 28.00005 28">
  <g id="circles">
    <circle id="Ellipse_10213" data-name="Ellipse 10213" cx="14.00002" cy="14" r="14.00001" fill="#5db41f"/>
  </g>
  <g id="ICONS">
    <rect id="S2_Icon_AIGenConversionRate_20_N" x="5.09281" y="5.00404" width="18" height="18" fill="none" opacity=".1"/>
    <path d="M6.66868,18.50404c-.37266,0-.675-.30234-.675-.675v-9c0-1.11621.90879-2.025,2.025-2.025h5.85c.37266,0,.675.30234.675.675s-.30234.675-.675.675h-5.85c-.37178,0-.675.30322-.675.675v9c0,.37266-.30234.675-.675.675Z" fill="#fff"/>
    <path d="M14.09281,19.40404c-.31025,0-.5625-.25225-.5625-.5625v-2.025c0-.31025.25225-.5625.5625-.5625s.5625.25225.5625.5625v2.025c0,.31025-.25225.5625-.5625.5625Z" fill="#fff"/>
    <path d="M11.95531,19.40404c-.31025,0-.5625-.25225-.5625-.5625v-.9c0-.31025.25225-.5625.5625-.5625s.5625.25225.5625.5625v.9c0,.31025-.25225.5625-.5625.5625Z" fill="#fff"/>
    <path d="M16.23031,19.40404c-.31025,0-.5625-.25225-.5625-.5625v-3.35215c0-.31025.25225-.5625.5625-.5625s.5625.25225.5625.5625v3.35215c0,.31025-.25225.5625-.5625.5625Z" fill="#fff"/>
    <path d="M17.46868,22.10404h-6.75c-1.11621,0-2.025-.90879-2.025-2.025v-8.55c0-1.11621.90879-2.025,2.025-2.025h.81738c.37266,0,.675.30234.675.675s-.30234.675-.675.675h-.81738c-.37178,0-.675.30322-.675.675v8.55c0,.37178.30322.675.675.675h6.75c.37178,0,.675-.30322.675-.675v-6.27451c0-.37266.30234-.675.675-.675s.675.30234.675.675v6.27451c0,1.11621-.90879,2.025-2.025,2.025Z" fill="#fff"/>
    <path d="M14.33328,13.75737c-.11602,0-.23291-.02988-.3375-.09053-.254-.14678-.38408-.44033-.32256-.72773l.18369-.84551-.58096-.63984c-.19687-.21709-.23115-.53701-.08437-.79102s.44297-.37969.72686-.32256l.84551.18281.64072-.58096c.21709-.19687.53877-.23115.79102-.08437.254.14678.38408.44121.32256.72773l-.18369.84463.58096.64072c.19687.21797.23115.53701.08438.79102s-.44121.37969-.72686.32256l-.84551-.18281-.64072.58096c-.12744.11514-.29004.1749-.45352.1749Z" fill="#fff"/>
    <path d="M18.09851,10.85347c-.15381,0-.3085-.03955-.44824-.12041-.33926-.19512-.51152-.58359-.42803-.96592l.29531-1.36934-.94131-1.03711c-.26279-.2918-.30674-.71279-.11162-1.05029.19424-.33838.58359-.50889.96328-.42891l1.37109.29707,1.03799-.94131c.29004-.26279.71191-.3085,1.05117-.11162.33838.196.50977.58359.42627.96504l-.29531,1.36934.94131,1.03799c.26191.28916.30674.71104.1125,1.04854-.19424.33838-.58535.50889-.96416.42979l-1.37109-.29707-1.03799.94131c-.16875.15381-.38408.23291-.60117.23291ZM18.52566,7.50044l.07207.0791c0,.00088.00088.00088.00176.00176.24082.26807.33926.63721.26191.98789l-.02197.10283.07998-.07295c.26543-.2417.63633-.33926.98525-.26455l.10635.02285-.07207-.0791c-.24258-.26719-.34189-.63721-.26367-.98965l.02197-.10283-.07998.07295c-.26455.24258-.63545.34014-.98525.26455l-.10635-.02285ZM20.99451,7.57427v.00264-.00264Z" fill="#fff"/>
  </g>
</svg>