<?xml version="1.0" encoding="UTF-8"?>
<svg id="g" data-name="ICONS" xmlns="http://www.w3.org/2000/svg" width="20" height="20" viewBox="0 0 20 20">
  <path d="M6.25,18.99805c-.09961,0-.19922-.01953-.29395-.05957-.27637-.11816-.45605-.38965-.45605-.69043v-3.25h-.75c-2.06738,0-3.75-1.68262-3.75-3.75v-5.5c0-2.06738,1.68262-3.75,3.75-3.75h3.95312c.41406,0,.75.33594.75.75s-.33594.75-.75.75h-3.95312c-1.24023,0-2.25,1.00977-2.25,2.25v5.5c0,1.24023,1.00977,2.25,2.25,2.25h1.5c.41406,0,.75.33594.75.75v2.23633l2.88379-2.77637c.13965-.13477.32617-.20996.52051-.20996h4.8457c1.24023,0,2.25-1.00977,2.25-2.25v-1.27148c0-.41406.33594-.75.75-.75s.75.33594.75.75v1.27148c0,2.06738-1.68262,3.75-3.75,3.75h-4.54297l-3.93652,3.79004c-.14258.1377-.33008.20996-.52051.20996Z" fill="var(--iconPrimary, #222)"/>
  <path d="M13.27832,9.08301c-.18848,0-.37793-.04883-.54883-.14746-.41602-.23926-.62695-.71484-.52637-1.18359l.45996-2.125-1.45996-1.61035c-.32227-.35547-.37793-.87207-.13867-1.28711.24023-.41504.7207-.62598,1.18359-.52637l2.125.45996,1.61035-1.45996c.35547-.32129.875-.37598,1.28711-.13867.41602.23926.62695.71484.52637,1.18359l-.45996,2.125,1.45996,1.61035c.32227.35547.37793.87207.13867,1.28711-.24023.41602-.7168.62891-1.18359.52637l-2.125-.45996-1.61035,1.45996c-.20801.18848-.47168.28613-.73828.28613ZM13.15234,3.93359l.75977.83789c.23633.25781.33496.62109.26074.96875v.00098l-.23926,1.10645.83789-.75977c.25879-.23633.62598-.33398.96875-.26074l1.10742.23926-.75977-.83789c-.23633-.25781-.33496-.62109-.26074-.96875l.23926-1.10742-.83789.75977c-.25781.2373-.62305.33691-.96875.26074l-1.10742-.23926Z" fill="var(--iconPrimary, #222)"/>
  <path d="M7.93262,11.50391c-.12891,0-.25781-.0332-.375-.10059-.28223-.16309-.42676-.48926-.3584-.80762l.17773-.82031-.56348-.62109c-.21875-.24121-.25684-.59668-.09375-.87891s.49121-.4209.80762-.3584l.82031.17773.62109-.56348c.24219-.21875.5957-.25684.87891-.09375.28223.16309.42676.48926.3584.80762l-.17773.82031.56348.62109c.21875.24121.25684.59668.09375.87891s-.49219.42383-.80762.3584l-.82031-.17773-.62109.56348c-.1416.12793-.32227.19434-.50391.19434Z" fill="var(--iconPrimary, #222)"/>
</svg>