<?xml version="1.0" encoding="UTF-8"?>
<svg xmlns="http://www.w3.org/2000/svg" width="20" height="20" viewBox="0 0 20 20">
  <path d="M10,19c-.07422,0-.14844-.01074-.2207-.0332-.74512-.22949-7.2793-2.44043-7.2793-9.36328v-4.33984c0-.94824.60059-1.7998,1.49316-2.11914l5.23926-1.91211c.49316-.17969,1.03809-.17969,1.5332-.00391l5.2793,1.90137c.87695.33789,1.45508,1.18066,1.45508,2.10449v4.36914c0,6.7959-7.18457,9.33105-7.25684,9.35645-.0791.02637-.16113.04004-.24316.04004ZM10.00293,2.5957c-.08691,0-.17383.01562-.25684.0459l-5.24316,1.91309c-.30273.1084-.50293.39258-.50293.70898v4.33984c0,5.3877,4.74219,7.41309,5.98438,7.85156,1.14062-.4541,6.01562-2.69629,6.01562-7.85156v-4.36914c0-.30762-.19238-.58789-.47852-.69824l-5.26367-1.89551c-.08203-.03027-.16797-.04492-.25488-.04492Z" fill="var(--iconPrimary, #222)"/>
  <path d="M9.36914,12.69629c-.21191,0-.41504-.08984-.55762-.24805l-2.30273-2.55957c-.27734-.30859-.25195-.78223.05566-1.05957s.78125-.25195,1.05957.05566l1.68555,1.87402,3.15234-4.29883c.24316-.33398.71094-.41016,1.04785-.16113.33398.24414.40625.71387.16113,1.04785l-3.69727,5.04297c-.13281.18262-.3418.29395-.56738.30566-.01172.00098-.02441.00098-.03711.00098Z" fill="var(--iconPrimary, #222)"/>
</svg>