<?xml version="1.0" encoding="UTF-8"?>
<svg xmlns="http://www.w3.org/2000/svg" width="20" height="20" viewBox="0 0 20 20">
  <path d="M14.25,19H6c-.41406,0-.75-.33594-.75-.75s.33594-.75.75-.75h8.25c1.24072,0,2.25-1.00928,2.25-2.25v-4.87305c0-.41406.33594-.75.75-.75s.75.33594.75.75v4.87305c0,2.06787-1.68213,3.75-3.75,3.75Z" fill="var(--iconPrimary, #222)"/>
  <path d="M10.63965,9.05859c-.19434,0-.39014-.05029-.56787-.15283-.42871-.24756-.64648-.73877-.5415-1.22266l.5127-2.37402-1.63135-1.79932c-.33203-.36621-.38965-.8999-.14209-1.32861.24805-.42822.7373-.64648,1.22266-.5415l2.37402.5127,1.79883-1.63135c.3667-.33203.90137-.38965,1.32861-.14209.42871.24707.64648.73828.54248,1.22168l-.51318,2.375,1.63135,1.79932c.33203.3667.38916.90088.1416,1.3291-.24756.42871-.74072.64551-1.22217.54102l-2.37402-.5127-1.79932,1.63135c-.21436.19434-.48633.29492-.76074.29492ZM11.54883,5.44238l-.31201,1.44482,1.09473-.99268c.27246-.24512.646-.34326,1.00293-.26807l1.44336.31201-.99268-1.09473c-.24561-.27002-.3457-.64502-.26807-1.00293l.31201-1.44336-1.09473.99268c-.27197.24561-.64307.34521-1.00293.26807l-1.44336-.31201.99268,1.09473c.24561.27148.34521.64551.26807,1.00146ZM10.08301,5.12451c0,.00049,0,.00146-.00049.00195l.00049-.00049v-.00146Z" fill="var(--iconPrimary, #222)"/>
  <path d="M5.81934,12.72559c-.12891,0-.2583-.0332-.375-.10059-.28223-.16309-.42676-.48926-.35791-.80811l.20312-.93896-.64551-.71191c-.21875-.2417-.25684-.59668-.09375-.87891.16309-.28174.48633-.4292.80811-.35791l.93896.20312.71191-.64551c.2417-.22021.59668-.25635.87891-.09375.28223.16309.42676.48926.35791.80811l-.20312.93896.64551.71191c.21875.2417.25684.59668.09375.87891-.1626.28223-.48389.43018-.80811.35791l-.93896-.20312-.71191.64551c-.1416.12842-.32227.19434-.50391.19434Z" fill="var(--iconPrimary, #222)"/>
  <path d="M11.25,16h-6.5c-2.06787,0-3.75-1.68213-3.75-3.75v-6.5c0-2.06787,1.68213-3.75,3.75-3.75h.46436c.41406,0,.75.33594.75.75s-.33594.75-.75.75h-.46436c-1.24072,0-2.25,1.00928-2.25,2.25v6.5c0,1.24072,1.00928,2.25,2.25,2.25h6.5c1.24072,0,2.25-1.00928,2.25-2.25v-2.3501c0-.41406.33594-.75.75-.75s.75.33594.75.75v2.3501c0,2.06787-1.68213,3.75-3.75,3.75Z" fill="var(--iconPrimary, #222)"/>
</svg>