<?xml version="1.0" encoding="UTF-8"?>
<svg id="g" data-name="ICONS" xmlns="http://www.w3.org/2000/svg" width="20" height="20" viewBox="0 0 20 20">
  <path d="M16.91602,18.02051H7.08398c-1.14893,0-2.08398-.96777-2.08398-2.1582v-6.68359c0-1.19043.93506-2.1582,2.08398-2.1582h4.13281c.41406,0,.75.33594.75.75s-.33594.75-.75.75h-4.13281c-.32178,0-.58398.29492-.58398.6582v6.68359c0,.36328.26221.6582.58398.6582h9.83203c.32178,0,.58398-.29492.58398-.6582v-4.91504c0-.41406.33594-.75.75-.75s.75.33594.75.75v4.91504c0,1.19043-.93506,2.1582-2.08398,2.1582Z" fill="var(--iconPrimary, #222)"/>
  <path d="M12.27153,12.80753c-.10742,0-.21484-.02734-.3125-.0835-.23535-.13574-.35596-.4082-.29834-.67334l.12598-.58398-.40088-.44238c-.18213-.20117-.21387-.49707-.07764-.73193.13477-.23535.40625-.35889.67285-.29834l.5835.12598.44238-.40088c.20068-.18262.49756-.21533.73193-.07764.23535.13574.35596.40771.29834.67285l-.12598.58301.40088.44238c.18262.20117.21436.49707.07861.73242-.13623.23486-.40723.35596-.67334.29834l-.5835-.12598-.44238.40088c-.11816.10693-.26855.16211-.41991.16211Z" fill="var(--iconPrimary, #222)"/>
  <path d="M15.37993,9.59318c-.10742,0-.21484-.02734-.3125-.0835-.23535-.13574-.35596-.4082-.29834-.67334l.30127-1.39551-.9585-1.05762c-.18262-.20117-.21436-.49707-.07812-.73242.13525-.23535.40479-.35889.67334-.29834l1.39502.30176,1.05762-.95898c.20166-.18311.49756-.21533.73242-.07812.23535.13574.35596.40771.29834.67334l-.30176,1.39502.95898,1.05762c.18262.20117.21436.49707.07861.73242-.13574.23486-.40674.35596-.67334.29834l-1.39551-.30127-1.05762.9585c-.11816.10693-.26855.16211-.41992.16211h0Z" fill="var(--iconPrimary, #222)"/>
  <path d="M9.61963.93457c-.41406,0-.75.33594-.75.75v.6712c-.89136-.62775-1.95593-.97687-3.08594-.97687C2.81689,1.37891.40332,3.79297.40332,6.75977c0,1.79102.88672,3.45801,2.37158,4.46094.12891.08691.2749.12891.41943.12891.24072,0,.47705-.11523.62207-.33008.23193-.34375.1416-.80957-.20166-1.04102-1.07178-.72461-1.71143-1.92773-1.71143-3.21875,0-2.13965,1.74072-3.88086,3.88037-3.88086.76587,0,1.47943.2406,2.09772.64258h-.84918c-.41406,0-.75.33594-.75.75s.33594.75.75.75h2.5874c.41406,0,.75-.33594.75-.75V1.68457c0-.41406-.33594-.75-.75-.75Z" fill="var(--iconPrimary, #222)"/>
</svg>