<?xml version="1.0" encoding="UTF-8"?>
<svg id="a" data-name="ICONS" xmlns="http://www.w3.org/2000/svg" width="16" height="16" viewBox="0 0 16 16">
  <path id="b" data-name="Path 343" d="m14.78,13.72l-3.86-3.86c.069-.08.132-.154.17-.2.25377-.32861.19311-.80072-.1355-1.0545-.32861-.25377-.80073-.19311-1.0545.1355-.115.148-.483.553-.482.553-.75842.80233-1.81395,1.25667-2.918,1.256-2.2328-.0195-4.02704-1.84534-4.00755-4.07815.0195-2.2328,1.84534-4.02704,4.07815-4.00755.14653.00128.29288.01052.4384.02769.412.05274.78876-.2385.8415-.6505.05274-.412-.2385-.78876-.6505-.8415h0c-.50612-.06118-1.01826-.05243-1.522.026C2.6492,1.45945.54526,4.26617.97871,7.29496c.3925,2.74264,2.75077,4.77362,5.52129,4.75504,1.21135.00051,2.38859-.40117,3.347-1.142l3.872,3.873c.29299.29299.76801.29299,1.061,0s.29299-.76801,0-1.061h0Z" fill="var(--iconPrimary, #222)"/>
  <path id="c" data-name="Path 345" d="m10.876,6.6c-.41035-.00123-.742-.33487-.74077-.74522.00016-.05204.00578-.10392.01677-.15478l.319-1.474-1.014-1.113c-.27421-.30454-.24962-.7737.05492-1.04791.17686-.15925.41938-.224.65208-.17409l1.474.319,1.117-1.01c.30311-.27496.77173-.25214,1.04669.05097.16077.17723.22606.42119.17531.65503l-.319,1.474,1.014,1.117c.27511.30298.25252.77161-.05045,1.04672-.17758.16125-.42223.22656-.65655.17528l-1.474-.319-1.117,1.01c-.1367.12455-.31507.1934-.5.193l.002-.003Zm1.484-1.231-1.86-1.269,1.268-1.865h0Z" fill="var(--iconPrimary, #222)"/>
  <path id="d" data-name="Path 344" d="m6.185,9.03c-.27614-.0005-.4996-.22476-.4991-.5009.00006-.03329.00344-.06649.0101-.0991l.218-1.006-.691-.762c-.18872-.2016-.17827-.51801.02332-.70672.12146-.1137.29153-.15954.45368-.12228l1,.217.762-.691c.20493-.18509.5211-.16901.70619.03592.1077.11924.15153.28298.11781.44008l-.213,1.006.691.761c.18509.20493.16901.5211-.03592.70619-.11924.1077-.28298.15153-.44008.11781l-1.005-.216-.762.69c-.09195.08358-.21174.12992-.336.13h0Z" fill="var(--iconPrimary, #222)"/>
</svg>