<?xml version="1.0" encoding="UTF-8"?>
<svg xmlns="http://www.w3.org/2000/svg" width="20" height="20" viewBox="0 0 20 20">
  <path d="M7.25,12.021H3c-.41406,0-.75.33594-.75.75s.33594.75.75.75h2.43945l-4.09424,4.09424c-.29297.29297-.29297.76758,0,1.06055.14648.14648.33838.21973.53027.21973s.38379-.07324.53027-.21973l4.09424-4.09424v2.43945c0,.41406.33594.75.75.75s.75-.33594.75-.75v-4.25c0-.41406-.33594-.75-.75-.75Z" fill="var(--iconPrimary, #222)"/>
  <path d="M15.75,2H4.25c-1.24072,0-2.25,1.00928-2.25,2.25v5.5c0,.41406.33594.75.75.75s.75-.33594.75-.75v-5.5c0-.41357.33643-.75.75-.75h11.5c.41357,0,.75.33643.75.75v7.24872l-1.88818-1.84149c-.7666-.74707-2.01465-.74707-2.78027,0l-1.00732.98193c-.02734.02637-.07959.02686-.10791-.00049l-2.64014-2.57471c-.7666-.74707-2.01416-.74707-2.76025-.01904l-1.26904,1.14893c-.30713.27832-.33057.75244-.05273,1.05957.2793.30859.75342.33105,1.05957.05273l1.28955-1.16846c.18555-.18066.49951-.18115.68604.00049l2.64014,2.57471c.60693.59131,1.59521.59229,2.20215,0l1.00732-.98193c.18604-.18115.49951-.18066.68555.00049l2.70508,2.6377c.05408.0528.11859.08551.18237.11865-.10065.29565-.37262.51221-.7019.51221h-5.51807c-.41406,0-.75.33594-.75.75s.33594.75.75.75h5.51807c1.24072,0,2.25-1.00928,2.25-2.25V4.25c0-1.24072-1.00928-2.25-2.25-2.25Z" fill="var(--iconPrimary, #222)"/>
  <circle cx="13" cy="6" r="1.1" fill="var(--iconPrimary, #222)"/>
</svg>