<?xml version="1.0" encoding="UTF-8"?>
<svg id="d" data-name="ICONS" xmlns="http://www.w3.org/2000/svg" width="20" height="20" viewBox="0 0 20 20">
  <path d="M10.91406,10.01807c-.12891,0-.25781-.0332-.375-.10059-.28223-.1626-.42676-.48926-.3584-.80762l.20312-.93945-.64551-.71191c-.21875-.2417-.25684-.59668-.09375-.87891.16309-.28271.49121-.42725.80762-.35791l.93945.20264.71191-.64551c.24219-.21924.5957-.25732.87891-.09375.28223.1626.42676.48926.3584.80762l-.20312.93945.64551.71191c.21875.2417.25684.59668.09375.87891s-.49219.42822-.80762.35791l-.93945-.20264-.71191.64551c-.1416.12842-.32227.19434-.50391.19434Z" fill="var(--iconPrimary, #222)"/>
  <path d="M15.09668,6.79199c-.1709,0-.34375-.04443-.49902-.13477-.37598-.21777-.56641-.64893-.47363-1.07324l.32812-1.52051-1.0459-1.15283c-.29199-.32324-.3418-.79199-.12402-1.16797.2168-.37598.64453-.56641,1.07129-.4751l1.52246.3291,1.15332-1.04541c.32129-.29199.78711-.3418,1.16504-.12549.37598.21631.56836.64697.47754,1.07178l-.33008,1.52344,1.0459,1.15332c.29102.31982.34277.78857.12598,1.16553-.21777.37646-.64844.56494-1.07324.47705l-1.52246-.3291-1.15234,1.04541c-.18945.1709-.42773.25879-.66896.25879ZM15.58984,5.90039v.00146-.00146ZM18.27637,5.18164c0,.00049.00098.00098.00098.00195l-.00098-.00195ZM15.57129,3.06543l.08105.08887c.26758.29639.37793.70557.29395,1.09522l-.02539.11768.08789-.08008c.29688-.26758.7041-.37842,1.0957-.29395l.11719.02539-.08008-.08838c-.26758-.29492-.37793-.7041-.29395-1.09473l.02539-.11816-.08789.08008c-.29785.26953-.70508.37842-1.09766.29346,0,0-.11621-.02539-.1162-.0254ZM14.53906,4.16016c.00098.00049.00098.00098.00098.00098l-.00098-.00098ZM16.00488,1.62451l.00098.00049c0-.00049-.00098-.00049-.00098-.00049Z" fill="var(--iconPrimary, #222)"/>
  <path d="M16.69824,8.84863c-.11523-.39746-.53125-.62402-.92969-.51172-.39746.11621-.62695.53223-.51172.92969.16699.5752.25195,1.1748.25195,1.7832,0,3.35693-2.6001,6.12012-5.9071,6.42017.01013-.14917.02917-.29736.02917-.44751,0-3.63867-2.98047-6.59961-6.64453-6.59961-.15234,0-.30371.01831-.45581.02881.30579-3.27612,3.09119-5.85107,6.47437-5.85107.40918,0,.81543.03711,1.20801.11133.4082.07715.79883-.19141.87598-.59863.07617-.40723-.19141-.79883-.59863-.87598-.4834-.09082-.9834-.13672-1.48535-.13672C4.59082,3.10059,1,6.66699,1,11.0498c0,.29492.01953.58594.0498.87305.01855.1709.0957.33008.21777.45117l6.41113,6.3623c.12109.12012.27832.19531.44824.21387.28906.03027.58008.0498.87793.0498,4.41309,0,8.00391-3.56641,8.00391-7.9502,0-.74902-.10449-1.49023-.31055-2.20117ZM2.94531,11.92554c2.87793-.00269,5.18555,2.2854,5.18555,5.09692-.00305.04688-5.18555-5.09692-5.18555-5.09692Z" fill="var(--iconPrimary, #222)"/>
</svg>