<?xml version="1.0" encoding="UTF-8"?>
<svg xmlns="http://www.w3.org/2000/svg" width="20" height="20" viewBox="0 0 20 20">
  <path d="M17.75,4.40918c-.41406,0-.75-.33594-.75-.75,0-.36328-.2959-.65918-.65918-.65918-.41406,0-.75-.33594-.75-.75s.33594-.75.75-.75c1.19043,0,2.15918.96875,2.15918,2.15918,0,.41406-.33594.75-.75.75Z" fill="var(--iconPrimary, #222)" stroke-width="0"/>
  <path d="M17.75,8.98828c-.41406,0-.75-.33594-.75-.75v-1.17383c0-.41406.33594-.75.75-.75s.75.33594.75.75v1.17383c0,.41406-.33594.75-.75.75Z" fill="var(--iconPrimary, #222)" stroke-width="0"/>
  <path d="M2.25,8.98828c-.41406,0-.75-.33594-.75-.75v-1.17383c0-.41406.33594-.75.75-.75s.75.33594.75.75v1.17383c0,.41406-.33594.75-.75.75Z" fill="var(--iconPrimary, #222)" stroke-width="0"/>
  <path d="M2.25,13.6748c-.41406,0-.75-.33594-.75-.75v-1.17383c0-.41406.33594-.75.75-.75s.75.33594.75.75v1.17383c0,.41406-.33594.75-.75.75Z" fill="var(--iconPrimary, #222)" stroke-width="0"/>
  <path d="M8.23828,18.5h-1.17383c-.41406,0-.75-.33594-.75-.75s.33594-.75.75-.75h1.17383c.41406,0,.75.33594.75.75s-.33594.75-.75.75Z" fill="var(--iconPrimary, #222)" stroke-width="0"/>
  <path d="M3.65918,18.5c-1.19043,0-2.15918-.96875-2.15918-2.15918,0-.41406.33594-.75.75-.75s.75.33594.75.75c0,.36328.2959.65918.65918.65918.41406,0,.75.33594.75.75s-.33594.75-.75.75Z" fill="var(--iconPrimary, #222)" stroke-width="0"/>
  <path d="M2.25,4.40918c-.41406,0-.75-.33594-.75-.75,0-1.19043.96875-2.15918,2.15918-2.15918.41406,0,.75.33594.75.75s-.33594.75-.75.75c-.36328,0-.65918.2959-.65918.65918,0,.41406-.33594.75-.75.75Z" fill="var(--iconPrimary, #222)" stroke-width="0"/>
  <path d="M9.375,6.58301c-.17285,0-.34766-.04492-.50586-.13574-.38184-.2207-.57617-.6582-.4834-1.08984l.32422-1.5-1.03027-1.13574c-.2959-.32715-.34668-.80273-.12695-1.18457.22168-.38281.66016-.57617,1.09082-.48438l1.49805.32422,1.13672-1.03027c.32715-.29688.80371-.3457,1.1875-.12598.38184.22168.5752.66113.48047,1.09277l-.32324,1.49512,1.03027,1.13672c.2959.32715.34766.80371.12695,1.18555-.2207.38281-.65625.57715-1.08984.4834l-1.49902-.32422-1.13672,1.03027c-.19141.17383-.43457.2627-.67969.2627ZM9.8125,2.83984l.17773.19629c.21777.24023.30664.57324.23926.89062v.00293l-.05664.25879.19629-.17773c.24121-.21777.5752-.30664.89062-.24023l.26172.05664-.17773-.19629c-.21875-.24121-.30859-.57422-.24023-.8916l.05664-.26074-.19629.17773c-.23633.21777-.56934.30859-.8916.24023l-.25977-.05664Z" fill="var(--iconPrimary, #222)" stroke-width="0"/>
  <g>
    <polygon points="5.6825 8.27314 5.39812 9.58912 6.39559 8.68484 7.71156 8.96923 6.80729 7.97176 7.09168 6.65578 6.0942 7.56005 4.77823 7.27567 5.6825 8.27314" fill="var(--iconPrimary, #222)" stroke-width="0"/>
    <path d="M5.39844,10.33887c-.12891,0-.25781-.0332-.375-.10059-.28223-.16309-.42676-.48926-.3584-.80762l.20312-.93945-.64551-.71191c-.21875-.24219-.25684-.59668-.09375-.87891s.49023-.42383.80762-.3584l.93945.20312.71289-.64453c.24023-.21875.59766-.25684.87793-.09375.28223.16309.42676.48926.3584.80762l-.20312.93848.64551.71191c.21875.24121.25684.59668.09375.87891s-.49023.42285-.80762.3584l-.93945-.20312-.71191.64551c-.1416.12793-.32227.19434-.50391.19434Z" fill="var(--iconPrimary, #222)" stroke-width="0"/>
  </g>
  <path d="M19.41309,13.53125l-1.62988-1.43555c-.25977-.22754-.65527-.20508-.88184.05566-.22852.25879-.20312.6543.05566.88184l.38806.3418h-2.72009v-2.69971l.32617.37646c.12402.14258.29785.21582.47266.21582.14551,0,.29102-.0498.40918-.15234.26074-.22656.28906-.62109.06348-.88184l-1.42383-1.64258c-.23828-.27344-.70703-.27344-.94531,0l-1.42383,1.64258c-.22559.26074-.19727.65527.06348.88184.25977.22559.6543.19727.88184-.06348l.32617-.37646v2.69971h-2.72009l.38806-.3418c.25879-.22754.28418-.62305.05566-.88184-.22656-.25977-.62109-.28223-.88184-.05566l-1.62988,1.43555c-.13477.11816-.21191.28906-.21191.46875s.07715.35059.21191.46875l1.62988,1.43555c.11914.10449.26562.15625.41309.15625.17285,0,.3457-.07129.46875-.21191.22852-.25879.20312-.6543-.05566-.88184l-.38806-.3418h2.72009v2.69971l-.32617-.37646c-.22754-.26172-.62207-.29004-.88184-.06348-.26074.22656-.28906.62109-.06348.88184l1.42383,1.64258c.11914.13672.29102.21582.47266.21582s.35352-.0791.47266-.21582l1.42383-1.64258c.22559-.26074.19727-.65527-.06348-.88184-.25977-.22559-.6543-.19727-.88184.06348l-.32617.37646v-2.69971h2.72009l-.38806.3418c-.25879.22754-.28418.62305-.05566.88184.12305.14062.2959.21191.46875.21191.14648,0,.29395-.05176.41309-.15625l1.62988-1.43555c.13477-.11816.21191-.28906.21191-.46875s-.07715-.35059-.21191-.46875Z" fill="var(--iconPrimary, #222)" stroke-width="0"/>
</svg>