<?xml version="1.0" encoding="UTF-8"?>
<svg id="f" data-name="ICONS" xmlns="http://www.w3.org/2000/svg" width="20" height="20" viewBox="0 0 20 20">
  <circle cx="9.75002" cy="11.5" r=".75" fill="var(--iconPrimary, #222)"/>
  <circle cx="7.25002" cy="11.5" r=".75" fill="var(--iconPrimary, #222)"/>
  <circle cx="4.75002" cy="11.5" r=".75" fill="var(--iconPrimary, #222)"/>
  <path d="M10.54932,4.38281l-1.04541-1.15332.3291-1.52148c.09131-.42383-.1001-.85547-.47559-1.07227-.37451-.21484-.84424-.16797-1.16748.12402l-1.15283,1.0459-1.52051-.32812c-.42627-.09277-.85645.09766-1.07373.47461-.21777.37695-.16748.8457.12451,1.16699l1.04541,1.15332-.3291,1.52148c-.09131.4248.1001.85547.47607,1.07227.15576.09082.32764.13477.49854.13477.24072,0,.47949-.08789.66797-.25879l1.15332-1.0459,1.52051.32812c.42773.09473.85645-.09766,1.07373-.47461.21777-.37695.16699-.8457-.12451-1.16699ZM8.26953,4.20312c-.39111-.08691-.80225.02344-1.09912.29297l-.08887.08008.02588-.11816c.0835-.39062-.02637-.7998-.29395-1.09473l-.08105-.08887.11426.02441c.38916.08496.80029-.02344,1.09961-.29297l.08887-.08105-.02539.11719c-.08496.39062.0249.80078.29346,1.09668l.08105.08887-.11475-.02441Z" fill="var(--iconPrimary, #222)"/>
  <path d="M4.09326,7.52734l.20264-.93945c.06885-.31836-.07568-.64453-.35791-.80762-.28125-.16309-.63721-.125-.87891.09375l-.71191.64551-.93896-.2041c-.31738-.06348-.64551.07617-.80811.3584-.16309.28223-.125.63672.09375.87891l.64551.71191-.20264.93945c-.06885.31836.07568.64453.35791.80762.1167.06738.24609.10059.375.10059.18164,0,.3623-.06641.50391-.19434l.71191-.64551.93896.2041c.31543.06543.64551-.07617.80811-.3584.16309-.28223.125-.63672-.09375-.87891l-.64551-.71191Z" fill="var(--iconPrimary, #222)"/>
  <path d="M17.00439,12.88574c-.13184,0-.26318-.03418-.38086-.10352l-1.26172-.74316c-.35645-.21094-.47559-.66992-.26514-1.02734.20996-.35645.66992-.47461,1.02686-.26562l.13086.07715v-1.20801c0-.38574.29248-.70801.67627-.74609.60547-.06055,1.0625-.56641,1.0625-1.17676v-2.51074c0-.65137-.53027-1.18164-1.18164-1.18164h-4.30371c-.41406,0-.75-.33594-.75-.75s.33594-.75.75-.75h4.30371c1.47852,0,2.68164,1.20312,2.68164,2.68164v2.51074c0,1.14746-.71191,2.13184-1.73877,2.51367v1.92969c0,.26953-.14404.51758-.37793.65137-.11523.06543-.24365.09863-.37207.09863Z" fill="var(--iconPrimary, #222)"/>
  <path d="M3.99268,19.5c-.09668,0-.19434-.01855-.28711-.05664-.28027-.11621-.46289-.38965-.46289-.69336v-2.65527c-1.32031-.42188-2.25-1.65234-2.25-3.09473v-.6543c0-.41406.33594-.75.75-.75s.75.33594.75.75v.6543c0,.90332.67676,1.65234,1.57373,1.74121.38379.03809.67627.36035.67627.74609v1.45215l1.96973-1.96973c.14062-.14062.33154-.21973.53027-.21973h3c.96484,0,1.75-.78516,1.75-1.75v-3.25c0-.56836-.28076-1.10449-.75098-1.43359-.33936-.2373-.42236-.70508-.18506-1.04395.2373-.33984.70508-.42383,1.04443-.18457.87158.60938,1.3916,1.60449,1.3916,2.66211v3.25c0,1.79199-1.45801,3.25-3.25,3.25h-2.68945l-3.03027,3.03027c-.14355.14355-.33545.21973-.53027.21973Z" fill="var(--iconPrimary, #222)"/>
</svg>