<?xml version="1.0" encoding="UTF-8"?>
<svg id="g" data-name="ICONS" xmlns="http://www.w3.org/2000/svg" width="20" height="20" viewBox="0 0 20 20">
  <path d="M8.21593,7h-.13292c-.41406,0-.75-.33594-.75-.75s.33594-.75.75-.75h.13292c.41406,0,.75.33594.75.75s-.33594.75-.75.75Z" fill="var(--iconPrimary, #222)"/>
  <path d="M5.25,7h-.5c-.41406,0-.75-.33594-.75-.75s.33594-.75.75-.75h.5c.41406,0,.75.33594.75.75s-.33594.75-.75.75Z" fill="var(--iconPrimary, #222)"/>
  <path d="M15.25,14.5h-.5c-.41406,0-.75-.33594-.75-.75s.33594-.75.75-.75h.5c.41406,0,.75.33594.75.75s-.33594.75-.75.75Z" fill="var(--iconPrimary, #222)"/>
  <path d="M11.91699,14.5h-.5c-.41406,0-.75-.33594-.75-.75s.33594-.75.75-.75h.5c.41406,0,.75.33594.75.75s-.33594.75-.75.75Z" fill="var(--iconPrimary, #222)"/>
  <path d="M8.58301,14.5h-.5c-.41406,0-.75-.33594-.75-.75s.33594-.75.75-.75h.5c.41406,0,.75.33594.75.75s-.33594.75-.75.75Z" fill="var(--iconPrimary, #222)"/>
  <path d="M5.25,14.5h-.5c-.41406,0-.75-.33594-.75-.75s.33594-.75.75-.75h.5c.41406,0,.75.33594.75.75s-.33594.75-.75.75Z" fill="var(--iconPrimary, #222)"/>
  <path d="M16.75,17H3.25c-1.24023,0-2.25-1.00928-2.25-2.25V5.25c0-1.24072,1.00977-2.25,2.25-2.25h8.52246c.41406,0,.75.33594.75.75s-.33594.75-.75.75H3.25c-.41309,0-.75.33643-.75.75v9.5c0,.41357.33691.75.75.75h13.5c.41309,0,.75-.33643.75-.75v-7.06641c0-.41406.33594-.75.75-.75s.75.33594.75.75v7.06641c0,1.24072-1.00977,2.25-2.25,2.25Z" fill="var(--iconPrimary, #222)"/>
  <path d="M11.16406,10.01807c-.12891,0-.25781-.0332-.375-.10059-.28223-.1626-.42676-.48926-.3584-.80762l.20312-.93945-.64551-.71191c-.21875-.2417-.25684-.59668-.09375-.87891.16309-.28271.49121-.42725.80762-.35791l.93945.20264.71191-.64551c.24219-.21924.5957-.25732.87891-.09375.28223.1626.42676.48926.3584.80762l-.20312.93945.64551.71191c.21875.2417.25684.59668.09375.87891s-.49219.42822-.80762.35791l-.93945-.20264-.71191.64551c-.1416.12842-.32227.19434-.50391.19434Z" fill="var(--iconPrimary, #222)"/>
  <path d="M15.34668,6.79199c-.1709,0-.34375-.04443-.49902-.13477-.37598-.21777-.56641-.64893-.47363-1.07324l.32812-1.52051-1.0459-1.15283c-.29199-.32324-.3418-.79199-.12402-1.16797.2168-.37598.64453-.56641,1.07129-.4751l1.52246.3291,1.15332-1.04541c.32129-.29199.78711-.3418,1.16504-.12549.37598.21631.56836.64697.47754,1.07178l-.33008,1.52344,1.0459,1.15332c.29102.31982.34277.78857.12598,1.16553-.21777.37646-.64844.56494-1.07324.47705l-1.52246-.3291-1.15234,1.04541c-.18945.1709-.42773.25879-.66895.25879ZM15.82129,3.06543l.08105.08887q0,.00049.00098.00098c.2666.29541.37695.70459.29297,1.09424l-.02539.11768.08789-.08008c.29688-.26758.7041-.37842,1.0957-.29395l.11719.02539-.08008-.08838c-.26758-.29492-.37793-.7041-.29395-1.09473l.02539-.11816-.08789.08008c-.29785.26953-.70508.37842-1.09766.29346l-.11621-.02539ZM14.78906,4.16016c.00098.00049.00098.00098.00098.00098l-.00098-.00098ZM16.25488,1.62451l.00098.00049c0-.00049-.00098-.00049-.00098-.00049Z" fill="var(--iconPrimary, #222)"/>
</svg>