<?xml version="1.0" encoding="UTF-8"?>
<svg xmlns="http://www.w3.org/2000/svg" width="20" height="20" viewBox="0 0 20 20">
  <path d="M12.52153,8.80753c-.10742,0-.21484-.02734-.3125-.0835-.23535-.13574-.35596-.4082-.29834-.67334l.12598-.58398-.40088-.44238c-.18213-.20117-.21387-.49707-.07764-.73193.13477-.23535.40625-.35889.67285-.29834l.5835.12598.44238-.40088c.20068-.18262.49756-.21533.73193-.07764.23535.13574.35596.40771.29834.67285l-.12598.58301.40088.44238c.18262.20117.21436.49707.07861.73242-.13623.23486-.40723.35596-.67334.29834l-.5835-.12598-.44238.40088c-.11816.10693-.26855.16211-.41991.16211Z" fill="var(--iconPrimary, #222)"/>
  <path d="M15.62993,5.59318c-.10742,0-.21484-.02734-.3125-.0835-.23535-.13574-.35596-.4082-.29834-.67334l.30127-1.39551-.9585-1.05762c-.18262-.20117-.21436-.49707-.07812-.73242.13525-.23535.40479-.35889.67334-.29834l1.39502.30176,1.05762-.95898c.20166-.18311.49756-.21533.73242-.07812.23535.13574.35596.40771.29834.67334l-.30176,1.39502.95898,1.05762c.18262.20117.21436.49707.07861.73242-.13574.23486-.40674.35596-.67334.29834l-1.39551-.30127-1.05762.9585c-.11816.10693-.26855.16211-.41992.16211h0Z" fill="var(--iconPrimary, #222)"/>
  <path d="M13.75,18H3.25c-1.24023,0-2.25-1.00977-2.25-2.25V3.25c0-1.24023,1.00977-2.25,2.25-2.25h8.86914c.41406,0,.75.33594.75.75s-.33594.75-.75.75H3.25c-.41309,0-.75.33691-.75.75v12.5c0,.41309.33691.75.75.75h10.5c.41309,0,.75-.33691.75-.75v-5.82422c0-.41406.33594-.75.75-.75s.75.33594.75.75v5.82422c0,1.24023-1.00977,2.25-2.25,2.25Z" fill="var(--iconPrimary, #222)"/>
  <path d="M8.11816,15.1416c-.15234,0-.30859-.03125-.45996-.09668-.52246-.22559-.78711-.7666-.64355-1.31641l.63086-2.375h-2.29688c-.40625,0-.7832-.2207-.98145-.57617-.19922-.35449-.19043-.79004.02148-1.13672l3.46582-5.34375c.28809-.47266.86426-.65625,1.38574-.43652.52539.2207.79492.76074.65625,1.3125l-.63867,2.43066h.8916c.34473,0,.625.28027.625.625s-.28027.625-.625.625h-1.05273c-.34863,0-.67188-.1582-.88672-.43359s-.29004-.62695-.20508-.96582l.48242-1.83594-2.90918,4.48535h2.23047c.35156,0,.67578.15918.89062.4375.21387.27734.28613.63184.19727.97168l-.47656,1.79199,2.21094-3.34961c.18945-.28906.57812-.36816.86523-.17773.28906.18945.36816.57715.17773.86523l-2.62598,3.97949c-.20898.33301-.55859.51953-.92969.51953ZM7.99902,13.94336c-.00098.00098-.00098.00195-.00195.00293l.00195-.00293ZM8.91211,4.96289l-.00195.00293c.00098-.00098.00098-.00195.00195-.00293Z" fill="var(--iconPrimary, #222)"/>
</svg>