<?xml version="1.0" encoding="UTF-8"?>
<svg xmlns="http://www.w3.org/2000/svg" width="20" height="20" viewBox="0 0 20 20">
  <path d="M15.75,18H4.25c-1.24023,0-2.25-1.00977-2.25-2.25v-1c0-.41406.33594-.75.75-.75s.75.33594.75.75v1c0,.41309.33691.75.75.75h11.5c.41309,0,.75-.33691.75-.75v-1c0-.41406.33594-.75.75-.75s.75.33594.75.75v1c0,1.24023-1.00977,2.25-2.25,2.25Z" fill="var(--iconPrimary, #222)"/>
  <path d="M2.75,14v1.75c0,.82843.67157,1.5,1.5,1.5h11.5c.82843,0,1.5-.67157,1.5-1.5v-1.75" fill="var(--iconPrimary, #222)" opacity=".35"/>
  <path d="M19.2002,11.25h-1.2002v-3.91797c0-.41406-.33594-.75-.75-.75s-.75.33594-.75.75v3.91797h-3.83203c-.00085-.00098-.0011-.00195-.00195-.00293l-3.03125-3.03223c-.87695-.875-2.30469-.87598-3.18164.00098l-2.95312,2.9541v-5.91992c0-.41309.33691-.75.75-.75h7.52246c.41406,0,.75-.33594.75-.75s-.33594-.75-.75-.75h-7.52246c-1.24023,0-2.25,1.00977-2.25,2.25v6H.7998c-.41406,0-.75.33594-.75.75s.33594.75.75.75h18.40039c.41406,0,.75-.33594.75-.75s-.33594-.75-.75-.75ZM7.51367,9.27734c.29102-.29297.76758-.29199,1.06055-.00098l1.97363,1.97363h-5.00684l1.97266-1.97266Z" fill="var(--iconPrimary, #222)"/>
  <path d="M12.52153,8.80753c-.10742,0-.21484-.02734-.3125-.0835-.23535-.13574-.35596-.4082-.29834-.67334l.12598-.58398-.40088-.44238c-.18213-.20117-.21387-.49707-.07764-.73193.13477-.23535.40625-.35889.67285-.29834l.5835.12598.44238-.40088c.20068-.18262.49756-.21533.73193-.07764.23535.13574.35596.40771.29834.67285l-.12598.58301.40088.44238c.18262.20117.21436.49707.07861.73242-.13623.23486-.40723.35596-.67334.29834l-.5835-.12598-.44238.40088c-.11816.10693-.26855.16211-.41991.16211Z" fill="var(--iconPrimary, #222)"/>
  <path d="M15.62993,5.59318c-.10742,0-.21484-.02734-.3125-.0835-.23535-.13574-.35596-.4082-.29834-.67334l.30127-1.39551-.9585-1.05762c-.18262-.20117-.21436-.49707-.07812-.73242.13525-.23535.40479-.35889.67334-.29834l1.39502.30176,1.05762-.95898c.20166-.18311.49756-.21533.73242-.07812.23535.13574.35596.40771.29834.67334l-.30176,1.39502.95898,1.05762c.18262.20117.21436.49707.07861.73242-.13574.23486-.40674.35596-.67334.29834l-1.39551-.30127-1.05762.9585c-.11816.10693-.26855.16211-.41992.16211h0Z" fill="var(--iconPrimary, #222)"/>
</svg>