<?xml version="1.0" encoding="UTF-8"?>
<svg id="d" data-name="ICONS" xmlns="http://www.w3.org/2000/svg" width="20" height="20" viewBox="0 0 20 20">
  <path d="M10.70854,9.9043c-.12891,0-.2583-.0332-.375-.10059-.28223-.16309-.42676-.48926-.35791-.80762l.20264-.93945-.64551-.71191c-.21875-.24121-.25684-.59668-.09375-.87891.1626-.28125.48779-.42285.80762-.3584l.93945.20312.71191-.64551c.2417-.21875.59766-.25586.87891-.09375.28223.16309.42676.48926.35791.80762l-.20264.93945.64551.71191c.21875.24121.25684.59668.09375.87891-.16211.28223-.48877.4248-.80762.3584l-.93945-.20312-.71191.64551c-.1416.12793-.32227.19434-.50391.19434Z" fill="var(--iconPrimary, #222)"/>
  <path d="M15.09672,6.79199c-.1709,0-.34277-.04395-.49854-.13379-.37549-.2168-.56689-.64746-.47559-1.07227l.3291-1.52246-1.04541-1.15332c-.29102-.32031-.3418-.78906-.12549-1.16504.21631-.37695.64551-.56738,1.07178-.47754l1.52344.33008,1.15283-1.0459c.32129-.29102.79053-.33984,1.1665-.12598.37646.21777.56787.64844.47656,1.07324l-.3291,1.52246,1.04541,1.15234c.29199.32324.3418.79297.12402,1.16797-.21826.37598-.64795.56543-1.07324.47363l-1.52051-.32812-1.15332,1.0459c-.18848.1709-.42725.25879-.66844.2588ZM15.65238,3.1543c.26904.29688.37842.70703.29346,1.09766l-.02539.11523.08887-.08008c.2959-.26758.70557-.37793,1.09473-.29395l.11816.02539-.08008-.08789c-.26904-.29883-.37793-.70801-.29346-1.09766l.0249-.11523-.08838.08008c-.2959.26855-.7041.37891-1.09521.29395l-.11768-.02539.08008.08789Z" fill="var(--iconPrimary, #222)"/>
  <path d="M15,10.5c-2.48535,0-4.5,2.01465-4.5,4.5s2.01465,4.5,4.5,4.5,4.5-2.01465,4.5-4.5-2.01465-4.5-4.5-4.5ZM17.33594,15.44043l-3.59961,1.93457c-.07324.04004-.15527.05957-.23633.05957-.08887,0-.17773-.02344-.25684-.07129-.15039-.08984-.24316-.25293-.24316-.42871v-3.86914c0-.17578.09277-.33887.24316-.42871.15137-.09082.33984-.0957.49316-.01172l3.59961,1.93457c.16211.08691.26367.25684.26367.44043s-.10156.35352-.26367.44043Z" fill="var(--iconPrimary, #222)"/>
  <path d="M9,17.5H3.25c-.41309,0-.75-.33691-.75-.75v-1.87695l2.38965-2.38965c.08984-.08984.20996-.13965.33789-.13965.12695,0,.24707.0498.33691.13965l2.19824,2.19727c.29395.29395.76855.29199,1.06055,0,.29297-.29297.29297-.76758,0-1.06055l-2.19727-2.19727c-.37305-.37305-.86914-.5791-1.39746-.5791-.5293,0-1.02637.20508-1.39941.5791l-1.3291,1.3291v-4.50195c0-.41309.33691-.75.75-.75h3.75c.41406,0,.75-.33594.75-.75s-.33594-.75-.75-.75h-3.75c-1.24023,0-2.25,1.00977-2.25,2.25v8.5c0,1.24023,1.00977,2.25,2.25,2.25h5.75c.41406,0,.75-.33594.75-.75s-.33594-.75-.75-.75Z" fill="var(--iconPrimary, #222)"/>
</svg>