<?xml version="1.0" encoding="UTF-8"?>
<svg xmlns="http://www.w3.org/2000/svg" width="20" height="20" viewBox="0 0 20 20">
  <path d="M3.02393,8.82324c-.06689,0-.13428-.00879-.20166-.02734-.39893-.11133-.63232-.52441-.52148-.92383.85156-3.05762,3.42578-5.32227,6.55859-5.76953.40625-.06934.78955.22559.84863.63574.05859.41016-.22656.79004-.63672.84863-2.54346.36426-4.63379,2.2041-5.3252,4.6875-.09229.33203-.39404.54883-.72217.54883Z" fill="var(--iconPrimary, #222)"/>
  <path d="M17.21094,11.03223c-.39844-.09766-.80762.14648-.90771.54883-.71826,2.90918-3.31006,4.94043-6.30322,4.94043-2.69135,0-5.06348-1.62183-6.04578-4.13232l1.68396.69482c.38379.15723.82129-.02441.97949-.40723.15771-.38281-.02441-.82129-.40723-.97949l-3.12646-1.29004c-.18408-.07617-.39014-.0752-.57422.00098-.18359.07617-.32959.22266-.40527.40625l-1.42139,3.44727c-.15771.38281.02441.82129.40723.97949.09375.03906.19043.05664.28564.05664.29492,0,.57471-.1748.69385-.46387l.64526-1.56519c1.28516,2.89355,4.09589,4.75269,7.28491,4.75269,3.68457,0,6.87549-2.50098,7.75928-6.08105.09961-.40234-.146-.80859-.54834-.9082Z" fill="var(--iconPrimary, #222)"/>
  <path d="M13.53271,9.77734c-.19434,0-.38965-.0498-.56738-.15234-.42822-.24707-.646-.73828-.54199-1.22168l.51367-2.37402-1.63135-1.7998c-.33252-.36719-.38916-.90234-.1416-1.33008.24707-.42773.73633-.64746,1.22168-.54102l2.37402.51367,1.79932-1.63184c.36719-.33301.90088-.38867,1.3291-.1416s.646.73828.54102,1.22266l-.5127,2.37305,1.63135,1.7998c.33203.36621.38965.89941.14209,1.32812-.24658.42871-.7373.64941-1.22217.54199l-2.37402-.51367-1.79932,1.63184c-.21484.19434-.48682.29492-.76172.29492ZM13.18164,4.06543l.99268,1.09473c.24463.26855.34521.64258.26904,1,0,0,0,.00098-.00049.00098l-.31201,1.44531,1.09473-.99316c.26904-.24316.63916-.34082.99658-.26953l1.44873.31348-.99219-1.09473c-.24463-.27051-.34473-.64355-.26855-1l.3125-1.44531-1.09473.99219c-.27148.24512-.64355.34668-1.00293.26758l-1.44336-.31152Z" fill="var(--iconPrimary, #222)"/>
  <path d="M8.896,13.20508c-.12891,0-.25781-.0332-.375-.10059-.28223-.16309-.42676-.48926-.35791-.80762l.20264-.93945-.64551-.71191c-.21875-.24121-.25684-.59668-.09375-.87891.1626-.28125.48877-.42285.80762-.3584l.93945.20312.71191-.64551c.2417-.21973.59766-.25586.87891-.09375.28223.16309.42676.48926.35791.80762l-.20264.93945.64551.71191c.21875.24219.25684.59668.09375.87891-.1626.28125-.48779.4248-.80762.3584l-.93994-.20312-.71143.64551c-.1416.12793-.32227.19434-.50391.19434Z" fill="var(--iconPrimary, #222)"/>
</svg>