<?xml version="1.0" encoding="UTF-8"?>
<svg xmlns="http://www.w3.org/2000/svg" width="20" height="20" viewBox="0 0 20 20">
  <path d="M1.84082,10.01807c-.12891,0-.25781-.0332-.375-.10059-.28223-.1626-.42676-.48926-.35791-.80762l.20264-.93945-.64551-.71191c-.21875-.2417-.25684-.59668-.09375-.87891.1626-.28174.48926-.42822.80762-.35791l.93945.20264.71191-.64551c.2417-.22021.59766-.25635.87891-.09375.28223.1626.42676.48926.35791.80762l-.20264.93945.64551.71191c.21875.2417.25684.59668.09375.87891-.1626.28223-.4873.42871-.80762.35791l-.93994-.20264-.71143.64551c-.1416.12842-.32227.19434-.50391.19434Z" fill="var(--iconPrimary, #222)"/>
  <path d="M6.02344,6.79199c-.17041,0-.34229-.04395-.49805-.13379-.37646-.2168-.56787-.64795-.47656-1.07275l.3291-1.52197-1.04541-1.15283c-.2915-.32178-.3418-.79102-.125-1.16699.21777-.37646.65039-.56445,1.07275-.47607l1.52197.3291,1.15332-1.04541c.3208-.29053.79102-.3418,1.16602-.125.37646.2168.56787.64795.47656,1.07275l-.3291,1.52197,1.04541,1.15332c.2915.3208.3418.78955.125,1.16602-.21729.37646-.65088.56592-1.07275.47656l-1.52197-.3291-1.15332,1.04541c-.18799.1709-.42676.25879-.66797.25879ZM9.20312,5.18164c0,.00049.00049.00049.00049.00098l-.00049-.00098ZM6.49805,3.06592l.08057.08838c0,.00049.00049.00049.00049.00098.26855.29639.37793.70654.29297,1.09668l-.0249.11572.08838-.08057c.29639-.26709.70654-.37695,1.09473-.29395l.11865.02539-.08057-.08838c-.26855-.2959-.37842-.70605-.29346-1.09717l.02539-.11621-.08887.08057c-.2959.26807-.70752.37988-1.09717.29346l-.11621-.0249ZM5.46533,4.16016c.00049.00049.00098.00098.00146.00098l-.00146-.00098Z" fill="var(--iconPrimary, #222)"/>
  <path d="M18.74951,13c-.12549,0-.25244-.03125-.36914-.09717l-3.73242-2.11279c-.32568-.18799-.71924-.17383-1.0293.03369l-1.01318.67529c-.67188.44727-1.53906.44824-2.21094,0l-1.01318-.67529c-.30908-.20557-.70215-.21973-1.02686-.03564l-3.73486,2.11475c-.36035.20312-.81787.07715-1.02246-.2832-.2041-.36084-.07715-.81836.2832-1.02246l3.73242-2.11279c.81738-.46777,1.81396-.43359,2.60059.09131l1.01318.67529c.16602.11035.38086.11035.54688,0l1.01318-.67529c.78613-.52393,1.78369-.55859,2.60303-.08936l3.72998,2.11084c.36035.2041.4873.66162.2832,1.02246-.13818.24365-.39209.38037-.65332.38037Z" fill="var(--iconPrimary, #222)"/>
  <path d="M11.50049,18.66553c-4.27148,0-6.97266-3.30566-7.08545-3.44629-.25879-.32227-.20703-.79297.11475-1.05225.32275-.26172.79297-.20947,1.0542.1123.02344.02881,2.37842,2.88623,5.9165,2.88623s5.89355-2.85742,5.91699-2.88623c.26074-.3208.73242-.37158,1.0542-.1123s.37354.72998.11475,1.05225c-.11279.14062-2.81445,3.44629-7.08594,3.44629Z" fill="var(--iconPrimary, #222)"/>
</svg>