<?xml version="1.0" encoding="UTF-8"?>
<svg id="f" data-name="ICONS" xmlns="http://www.w3.org/2000/svg" width="20" height="20" viewBox="0 0 20 20">
  <path d="M8.25,8.5c-.41406,0-.75.33594-.75.75v4.95508c0,.41406.33594.75.75.75s.75-.33594.75-.75v-4.95508c0-.41406-.33594-.75-.75-.75Z" fill="var(--iconPrimary, #222)"/>
  <path d="M10.5,9.25v.85449c0,.41406.33594.75.75.75s.75-.33594.75-.75v-.85449c0-.41406-.33594-.75-.75-.75s-.75.33594-.75.75Z" fill="var(--iconPrimary, #222)"/>
  <path d="M5.25,7c-.41406,0-.75.33594-.75.75v8c0,.41406.33594.75.75.75s.75-.33594.75-.75V7.75c0-.41406-.33594-.75-.75-.75Z" fill="var(--iconPrimary, #222)"/>
  <path d="M14.25,6c-.41406,0-.75.33594-.75.75v1.8584c0,.41406.33594.75.75.75s.75-.33594.75-.75v-1.8584c0-.41406-.33594-.75-.75-.75Z" fill="var(--iconPrimary, #222)"/>
  <path d="M5.19531,4.65332c.08594-.0918.22656-.10547.32715-.03125l3.13184,2.2627c.66504.47949,1.58984.42871,2.19922-.12109l4.13257-3.73535-.00562.70996c-.00293.41406.33008.75293.74414.75586h.00586c.41113,0,.74707-.33203.75-.74414l.01953-2.47461c.00293-.41406-.33008-.75293-.74414-.75586l-2.47461-.01953h-.00586c-.41113,0-.74707.33203-.75.74414-.00293.41406.33008.75293.74414.75586l.61133.00488-4.0332,3.64551c-.08691.08008-.2207.08496-.31445.01758l-3.13281-2.2627c-.70898-.51367-1.7002-.41992-2.29785.2207L.7041,7.23633c-.28418.30078-.26953.77637.03223,1.05957.14453.13672.3291.2041.51367.2041.19922,0,.39844-.0791.5459-.23633l3.39941-3.61035Z" fill="var(--iconPrimary, #222)"/>
  <path d="M12.99023,17.02832l.2041-.93848c.06836-.31836-.07617-.64551-.3584-.80859-.28125-.16309-.6377-.12598-.87891.09375l-.71191.64551-.93945-.20312c-.31738-.06445-.64453.07617-.80762.3584s-.125.6377.09375.87891l.64551.71094-.2041.93945c-.06836.31934.07617.64551.3584.80859.11621.06738.24609.10059.375.10059.18164,0,.3623-.06641.50391-.19434l.71191-.64551.93945.20312c.31543.06543.64453-.07617.80762-.3584s.125-.63672-.09375-.87891l-.64551-.71191Z" fill="var(--iconPrimary, #222)"/>
  <path d="M19.24121,13.77051l-1.0459-1.15332.32812-1.52148c.09277-.42383-.09766-.85449-.47363-1.07227-.37695-.21875-.8457-.16797-1.16797.12402l-1.15332,1.0459-1.52344-.33008c-.41992-.08984-.85449.10059-1.07031.47656-.2168.375-.16797.84277.12402,1.16699l1.0459,1.15234-.32812,1.52148c-.09277.4248.09863.85645.47559,1.07324.15527.08984.32715.13379.49805.13379.24121,0,.48047-.08789.66797-.25879l1.15332-1.0459,1.52344.33008c.42188.08887.85449-.10156,1.07129-.47754.21582-.375.16602-.84375-.125-1.16504ZM16.95703,13.58887c-.3877-.08301-.7998.02539-1.09473.29395l-.08887.08105.02441-.11426c.08594-.38965-.02344-.7998-.29102-1.09766-.00098-.00098-.00195-.00098-.00195-.00195l-.08008-.08789.11816.02539c.38867.08594.80078-.02539,1.09473-.29395l.08887-.08105-.02441.11426c-.08691.3916.02344.80273.29297,1.09961l.08008.08789-.11816-.02539Z" fill="var(--iconPrimary, #222)"/>
  <path d="M2.25,9.5c-.41406,0-.75.33594-.75.75v5.5c0,.41406.33594.75.75.75s.75-.33594.75-.75v-5.5c0-.41406-.33594-.75-.75-.75Z" fill="var(--iconPrimary, #222)"/>
</svg>