<?xml version="1.0" encoding="UTF-8"?>
<svg id="e" data-name="ICONS" xmlns="http://www.w3.org/2000/svg" width="20" height="20" viewBox="0 0 20 20">
  <path d="M10.7085,19.6543c-.12891,0-.2583-.0332-.375-.10059-.28223-.16309-.42676-.48926-.35791-.80762l.20264-.93945-.64551-.71191c-.21875-.24121-.25684-.59668-.09375-.87891.16309-.28125.49023-.4209.80762-.3584l.93945.20312.71191-.64551c.2417-.21973.59766-.25781.87891-.09375.28223.16309.42676.48926.35791.80762l-.20264.93945.64551.71191c.21875.24121.25684.59668.09375.87891-.16211.28223-.48633.4248-.80762.3584l-.93945-.20312-.71191.64551c-.1416.12793-.32227.19434-.50391.19434Z" fill="var(--iconPrimary, #222)"/>
  <path d="M15.09668,16.54199c-.1709,0-.34277-.04395-.49854-.13379-.37549-.2168-.56689-.64746-.47559-1.07227l.3291-1.52246-1.04541-1.15332c-.29102-.32031-.3418-.78906-.12549-1.16504.21631-.37695.64648-.56836,1.07178-.47754l1.52344.33008,1.15283-1.0459c.3208-.29102.79053-.33984,1.1665-.12598.37646.21777.56787.64844.47656,1.07324l-.3291,1.52246,1.04541,1.15234c.29199.32324.3418.79297.12402,1.16797-.21826.37598-.64795.56738-1.07324.47363l-1.52051-.32812-1.15332,1.0459c-.18848.1709-.42725.25879-.66846.25879ZM15.65234,12.9043c.26904.29688.37842.70703.29346,1.09766l-.02539.11523.08887-.08008c.29541-.26758.70557-.37695,1.09473-.29395l.11816.02539-.08008-.08789c-.26904-.29883-.37793-.70801-.29346-1.09766l.0249-.11523-.08838.08008c-.29639.26855-.70361.38184-1.09521.29395l-.11768-.02539.08008.08789ZM18.75537,14.09961h.00146-.00146ZM14.54053,13.91113q.00049.00098.00098.00098h-.00049l-.00049-.00098ZM14.47998,13.68359c-.00049,0-.00049.00098-.00049.00098l.00049-.00098ZM14.51709,11.65137l.00049.00098s-.00049,0-.00049-.00098Z" fill="var(--iconPrimary, #222)"/>
  <path d="M11.39551,1H3.10449c-1.16064,0-2.10449.95312-2.10449,2.125v1.01758c0,.41406.33594.75.75.75s.75-.33594.75-.75v-1.01758c0-.34473.271-.625.60449-.625h3.39551v10h-1.56982c-.41406,0-.75.33594-.75.75s.33594.75.75.75h4.63965c.41406,0,.75-.33594.75-.75s-.33594-.75-.75-.75h-1.56982V2.5h3.39551c.3335,0,.60449.28027.60449.625v1.01758c0,.41406.33594.75.75.75s.75-.33594.75-.75v-1.01758c0-1.17188-.94385-2.125-2.10449-2.125Z" fill="var(--iconPrimary, #222)"/>
</svg>