<?xml version="1.0" encoding="UTF-8"?>
<svg id="f" data-name="ICONS" xmlns="http://www.w3.org/2000/svg" width="20" height="20" viewBox="0 0 20 20">
  <path d="M11.86377,18.99805c-.55127,0-1.10303-.20703-1.52295-.62109l-7.63281-7.46777c-.44971-.43945-.70801-1.05371-.70801-1.68262v-4.67871c0-1.29785,1.05566-2.35352,2.35352-2.35352h4.7793c.62744,0,1.21777.24414,1.66162.68652l.78857.78613c.29346.29297.29443.76758.00195,1.06055-.29248.29492-.76807.29297-1.06055.00195l-.78857-.78613c-.16113-.16016-.37549-.24902-.60303-.24902h-4.7793c-.4707,0-.85352.38281-.85352.85352v4.67871c0,.22852.09375.4502.25684.61035l7.63525,7.46973c.26221.25781.68408.25879.94141.00195l4.97705-4.91406c.12207-.12012.18945-.28027.18945-.4502s-.06738-.3291-.18945-.44922l-1.75195-1.74707c-.29346-.29297-.29443-.76758-.00195-1.06055.29248-.29395.76807-.29395,1.06055-.00195l1.74951,1.74414c.40723.40137.6333.94043.6333,1.51367.00049.57422-.2251,1.11328-.63525,1.51855l-4.97754,4.91504c-.41992.41406-.97168.62109-1.52344.62109Z" fill="var(--iconPrimary, #222)"/>
  <circle cx="6" cy="6.19421" r="1" fill="var(--iconPrimary, #222)"/>
  <path d="M14.84668,7.23633c-.17041,0-.34229-.04395-.49805-.13379-.37549-.2168-.56689-.64746-.47607-1.07227l.3291-1.52246-1.04541-1.15332c-.29199-.32129-.34229-.79004-.12451-1.16699s.64941-.56543,1.07373-.47461l1.51953.32812,1.15381-1.0459c.32324-.29199.79297-.33984,1.16748-.12402.37549.2168.56689.64844.47559,1.07227l-.3291,1.52246,1.04541,1.15234c.29199.32324.3418.79297.12402,1.16797-.21826.37598-.64844.56445-1.07324.47363l-1.52051-.32812-1.15332,1.0459c-.18848.1709-.42725.25879-.66846.25879ZM15.40234,3.59863c.26904.29688.37842.70703.29346,1.09766l-.02539.11523.08887-.08008c.29541-.26758.70605-.37695,1.09473-.29395l.11816.02539-.08008-.08789c-.26904-.29883-.37793-.70801-.29346-1.09766l.02539-.11719-.08887.08105c-.29395.26758-.70557.37891-1.09521.29492l-.11768-.02539.08008.08789ZM18.50537,4.79395h.00146-.00146ZM14.29053,4.60547q.00049.00098.00098.00098h-.00049l-.00049-.00098ZM14.22998,4.37793s-.00049,0-.00049.00098l.00049-.00098ZM14.26709,2.3457l.00049.00098s-.00049,0-.00049-.00098ZM15.52686,2.13086c-.00049,0-.00098,0-.00146.00098l.00146-.00098Z" fill="var(--iconPrimary, #222)"/>
  <path d="M10.4585,10.34863c-.12891,0-.2583-.0332-.375-.10059-.28223-.16309-.42676-.48926-.35791-.80762l.20264-.93945-.64551-.71191c-.21875-.24121-.25684-.59668-.09375-.87891.1626-.28125.48828-.42285.80762-.3584l.93945.20312.71191-.64551c.2417-.21973.59766-.25586.87891-.09375.28223.16309.42676.48926.35791.80762l-.20264.93945.64551.71191c.21875.24219.25684.59668.09375.87891-.16211.28223-.48877.4248-.80762.3584l-.93945-.20312-.71191.64551c-.1416.12793-.32227.19434-.50391.19434Z" fill="var(--iconPrimary, #222)"/>
</svg>