<?xml version="1.0" encoding="UTF-8"?>
<svg xmlns="http://www.w3.org/2000/svg" width="20" height="20" viewBox="0 0 20 20">
  <path d="M6.75,18h-2.5c-1.24023,0-2.25-1.00977-2.25-2.25v-2.5c0-1.24023,1.00977-2.25,2.25-2.25h2.5c1.24023,0,2.25,1.00977,2.25,2.25v2.5c0,1.24023-1.00977,2.25-2.25,2.25ZM4.25,12.5c-.41309,0-.75.33691-.75.75v2.5c0,.41309.33691.75.75.75h2.5c.41309,0,.75-.33691.75-.75v-2.5c0-.41309-.33691-.75-.75-.75h-2.5Z" fill="var(--iconPrimary, #222)"/>
  <path d="M6.75,9h-2.5c-1.24023,0-2.25-1.00977-2.25-2.25v-2.5c0-1.24023,1.00977-2.25,2.25-2.25h2.5c1.24023,0,2.25,1.00977,2.25,2.25v2.5c0,1.24023-1.00977,2.25-2.25,2.25ZM4.25,3.5c-.41309,0-.75.33691-.75.75v2.5c0,.41309.33691.75.75.75h2.5c.41309,0,.75-.33691.75-.75v-2.5c0-.41309-.33691-.75-.75-.75h-2.5Z" fill="var(--iconPrimary, #222)"/>
  <path d="M5.5,13.5h0c.55228,0,1,.44771,1,1h0c0,.55229-.44772,1-1,1h0c-.55228,0-1-.44771-1-1h0c0-.55229.44772-1,1-1Z" fill="var(--iconPrimary, #222)"/>
  <path d="M12.5,2h.8v2.3h-2.3v-.8c0-.82787.67213-1.5,1.5-1.5Z" fill="var(--iconPrimary, #222)"/>
  <rect x="13.375" y="4.375" width="2.25" height="2.25" fill="var(--iconPrimary, #222)"/>
  <path d="M15.7,2h.8c.82787,0,1.5.67213,1.5,1.5v.8h-2.3v-2.3h0Z" fill="var(--iconPrimary, #222)"/>
  <path d="M11,6.7h2.3v2.3h-.8c-.82787,0-1.5-.67213-1.5-1.5v-.8h0Z" fill="var(--iconPrimary, #222)"/>
  <path d="M15.7,6.7h2.3v.8c0,.82787-.67213,1.5-1.5,1.5h-.8v-2.3h0Z" fill="var(--iconPrimary, #222)"/>
  <circle cx="15" cy="15" r="4.5" fill="var(--iconBluePrimary, #0063e4)" stroke-width="0"/>
  <polyline points="13.14798 15.03123 14.58628 16.63028 16.89573 13.48028" fill="none" stroke="#fff" stroke-linecap="round" stroke-linejoin="round"/>
</svg>