<?xml version="1.0" encoding="UTF-8"?>
<svg  xmlns="http://www.w3.org/2000/svg" width="20" height="20" viewBox="0 0 20 20">
  <path d="m10.27051,10.9209c-.12891,0-.25781-.0332-.375-.10059-.28223-.16309-.42676-.48926-.3584-.80762l.20312-.93945-.64551-.71191c-.21875-.24219-.25684-.59668-.09375-.87891s.48633-.4209.80859-.3584l.93848.2041.71191-.64551c.24121-.21973.5957-.25684.87891-.09375.28223.16309.42676.48926.3584.80762l-.20312.93945.64551.71191c.21875.24219.25684.59668.09375.87891s-.48535.42188-.80859.3584l-.93945-.2041-.71094.64551c-.1416.12793-.32227.19434-.50391.19434Z" fill="var(--iconPrimary, #222)"/>
  <path d="m14.4375,7.68652c-.17871,0-.35938-.0459-.52344-.14062-.39453-.22754-.59473-.67969-.49902-1.125l.41113-1.90234-1.30566-1.44043c-.30664-.33691-.35938-.8291-.13184-1.22461s.68066-.5918,1.12598-.49902l1.90137.41211,1.44141-1.30762c.33691-.30469.83008-.35938,1.22363-.13086.39551.22754.5957.68066.5,1.12598l-.41113,1.90137,1.30664,1.44043c.30664.33984.3584.83203.12891,1.22754-.22852.39355-.68164.5918-1.12695.49512l-1.89844-.40918-1.44141,1.30566c-.19727.17969-.44824.27148-.70117.27148Zm.55566-4.11426c.29004.31934.4082.76074.31738,1.18262l-.12988.59766.45312-.41016c.31738-.28906.75684-.4082,1.18164-.31738l.59766.12891-.41016-.45215c-.28906-.31836-.4082-.76074-.31738-1.18262l.12891-.59668-.45117.41016c-.32422.29004-.77051.4043-1.18262.31738l-.59668-.12891.40918.45117Zm3.80176,1.48047h.00293-.00293Z" fill="var(--iconPrimary, #222)"/>
  <path d="m13.18848,18h-1.03223c-.41406,0-.75-.33594-.75-.75s.33594-.75.75-.75h1.03223c.41406,0,.75.33594.75.75s-.33594.75-.75.75Z" fill="var(--iconPrimary, #222)"/>
  <path d="m17.25,10.01074c-.41406,0-.75-.33594-.75-.75v-1.01074c0-.41406.33594-.75.75-.75s.75.33594.75.75v1.01074c0,.41406-.33594.75-.75.75Z" fill="var(--iconPrimary, #222)"/>
  <path d="m17.25,13.95312c-.41406,0-.75-.33594-.75-.75v-1.25c0-.41406.33594-.75.75-.75s.75.33594.75.75v1.25c0,.41406-.33594.75-.75.75Z" fill="var(--iconPrimary, #222)"/>
  <path d="m16.25,18h-.36328c-.41406,0-.75-.33594-.75-.75s.33594-.75.75-.75h.36328c.1377,0,.25-.1123.25-.25v-.39258c0-.41406.33594-.75.75-.75s.75.33594.75.75v.39258c0,.96484-.78516,1.75-1.75,1.75Z" fill="var(--iconPrimary, #222)"/>
  <path d="m10.25,5.75c.41406,0,.75-.33594.75-.75v-.75c0-1.24023-1.00977-2.25-2.25-2.25H3.25c-1.24023,0-2.25,1.00977-2.25,2.25v11.5c0,1.24023,1.00977,2.25,2.25,2.25h5.5c.60547,0,1.17383-.2373,1.60059-.66895.42578-.43066.65625-1.00195.64941-1.59863v-3.03125c0-.41406-.33594-.75-.75-.75s-.75.33594-.75.75v1.47559l-3.14844-2.87207c-.7666-.7666-2.10254-.76758-2.86914,0l-.98242.98242V4.25c0-.41309.33691-.75.75-.75h5.5c.41309,0,.75.33691.75.75v.75c0,.41406.33594.75.75.75Zm-5.70605,6.61523c.2002-.20117.52246-.22266.77051.02344l4.0791,3.72144c-.03247.05835-.06201.11841-.11035.16724-.1416.14355-.33105.22266-.5332.22266H3.25c-.41309,0-.75-.33691-.75-.75v-1.34155l2.04395-2.04321Z" fill="var(--iconPrimary, #222)"/>
  <circle cx="5.5" cy="6.5" r="1.5" fill="var(--iconPrimary, #222)"/>
</svg>