<?xml version="1.0" encoding="UTF-8"?>
<svg xmlns="http://www.w3.org/2000/svg" width="20" height="20" viewBox="0 0 20 20">
  <rect x="2" y="4" width="4" height="4" fill="var(--iconPrimary, #222)" opacity=".45"/>
  <polygon points="10 12 9.30741 12 6 9 6 8 10 8 10 12" fill="var(--iconPrimary, #222)" opacity=".45"/>
  <polygon points="14 12.28454 10 13.45999 10 12 14 12 14 12.28454" fill="var(--iconPrimary, #222)" opacity=".45"/>
  <path d="M18.25,6.31348c-.41406,0-.75.33594-.75.75v6.39746l-1.90918-1.90918c-.87695-.87695-2.30469-.87695-3.18164,0l-1.23145,1.23145c-.09961.09766-.25684.09668-.35449.00098l-3.23242-3.23242c-.84961-.84961-2.33203-.84961-3.18164,0l-1.90918,1.90918v-6.21094c0-.41309.33691-.75.75-.75h9.12305c.41406,0,.75-.33594.75-.75s-.33594-.75-.75-.75H3.25c-1.24023,0-2.25,1.00977-2.25,2.25v9.5c0,1.24023,1.00977,2.25,2.25,2.25h13.5c1.24023,0,2.25-1.00977,2.25-2.25v-7.68652c0-.41406-.33594-.75-.75-.75ZM3.25,15.5c-.41309,0-.75-.33691-.75-.75v-1.16797l2.96973-2.96973c.29297-.29297.76758-.29297,1.06055,0l3.2334,3.2334c.68164.67969,1.79199.68066,2.47363-.00098l1.23242-1.23242c.29297-.29297.76758-.29297,1.06055,0l2.70068,2.70068c-.1311.11206-.29565.18701-.48096.18701H3.25Z" fill="var(--iconPrimary, #222)"/>
  <path d="M10.41602,7.90137c-.24048-.31189-.37207-.677-.41602-1.05103v1.14966h.41724c.00293-.0332-.00562-.06531-.00122-.09863Z" fill="var(--iconPrimary, #222)" opacity=".45"/>
  <path d="M10.26172,5.53809c.37207-.65039,1.07715-1.05957,1.83398-1.05957.09473,0-2.0957-.47852-2.0957-.47852v2.46631c.02124-.31909.09253-.63708.26172-.92822Z" fill="var(--iconPrimary, #222)" opacity=".45"/>
  <path d="M16.19092,8c-.03271.28271-.10132.56274-.25049.82129-.38086.65723-1.08496,1.06348-1.83984,1.06348-.03369,0-.06689-.00525-.10059-.00696v2.12219h4v-4h-1.80908Z" fill="var(--iconPrimary, #222)" opacity=".45"/>
  <path d="M12.52153,8.80753c-.10742,0-.21484-.02734-.3125-.0835-.23535-.13574-.35596-.4082-.29834-.67334l.12598-.58398-.40088-.44238c-.18213-.20117-.21387-.49707-.07764-.73193.13477-.23535.40625-.35889.67285-.29834l.5835.12598.44238-.40088c.20068-.18262.49756-.21533.73193-.07764.23535.13574.35596.40771.29834.67285l-.12598.58301.40088.44238c.18262.20117.21436.49707.07861.73242-.13623.23486-.40723.35596-.67334.29834l-.5835-.12598-.44238.40088c-.11816.10693-.26855.16211-.41991.16211Z" fill="var(--iconPrimary, #222)"/>
  <path d="M15.62993,5.59318c-.10742,0-.21484-.02734-.3125-.0835-.23535-.13574-.35596-.4082-.29834-.67334l.30127-1.39551-.9585-1.05762c-.18262-.20117-.21436-.49707-.07812-.73242.13525-.23535.40479-.35889.67334-.29834l1.39502.30176,1.05762-.95898c.20166-.18311.49756-.21533.73242-.07812.23535.13574.35596.40771.29834.67334l-.30176,1.39502.95898,1.05762c.18262.20117.21436.49707.07861.73242-.13574.23486-.40674.35596-.67334.29834l-1.39551-.30127-1.05762.9585c-.11816.10693-.26855.16211-.41992.16211h0Z" fill="var(--iconPrimary, #222)"/>
</svg>