<?xml version="1.0" encoding="UTF-8"?>
<svg id="g" data-name="ICONS" xmlns="http://www.w3.org/2000/svg" width="20" height="20" viewBox="0 0 20 20">
  <path d="M8.28223,3.15918c-.10742,0-.2168-.02344-.32031-.07227-.10059-.04785-.20215-.09277-.30371-.13477-.38379-.15527-.56836-.59277-.41211-.97656.15527-.38379.59668-.57031.97656-.41211.12891.05176.25586.1084.38184.16797.37402.17773.53418.625.35645.99902-.12793.27051-.39746.42871-.67871.42871Z" fill="var(--iconPrimary, #222)"/>
  <path d="M11.37988,18.55664c-.21582,0-.43652-.01074-.6582-.03027-.41211-.03711-.7168-.40039-.68066-.81348s.39844-.71973.81348-.68066c.18457.0166.36523.02246.55273.02441h.00391c.40918,0,.78906.32715.79688.73633.00684.41016-.26953.74902-.67969.7627-.00781,0-.10938.00098-.11719.00098h-.03125ZM14.23242,17.79199c-.24805,0-.49023-.12207-.63379-.34668-.22266-.34961-.11914-.81348.22949-1.03613.16797-.10645.32812-.22754.48242-.36133.30957-.27344.78516-.24414,1.05762.06934.27344.31152.24219.78516-.06934,1.05762-.21094.18652-.43359.35254-.66406.5-.125.0791-.26465.11719-.40234.11719ZM8.0293,17.78711c-.10254,0-.20508-.02051-.30469-.06445-.23242-.10352-.46191-.21387-.68945-.33203-.36719-.19238-.50879-.64551-.31738-1.0127.19336-.36719.64355-.50879,1.0127-.31738.19824.10449.40039.20117.60352.29102.37793.16797.54883.61133.38086.99023-.12402.2793-.39844.44531-.68555.44531ZM5.03906,15.83398c-.18164,0-.36426-.06543-.50879-.19824-.18652-.17188-.36816-.34961-.54395-.53125-.28809-.29883-.28027-.77344.01758-1.06055s.77441-.2793,1.06055.01758c.15625.16211.31836.31836.4834.4707.30371.28125.32324.75586.04297,1.06055-.14844.16016-.34961.24121-.55176.24121ZM16.34082,14.98242c-.07129,0-.14355-.00977-.21582-.03223-.39648-.11914-.62207-.53711-.50195-.93359.05859-.19531.10156-.39258.13086-.5918.05859-.40918.44824-.68652.84961-.63477.41016.05957.69434.43945.63477.84961-.03906.27344-.09961.54297-.17969.80859-.09766.3252-.39551.53418-.71777.53418ZM2.89941,12.9873c-.28516,0-.55859-.16406-.68359-.44238-.10645-.23438-.20312-.47461-.29102-.71973-.13965-.39062.06348-.81934.45312-.95898.3916-.1416.81934.0625.95898.45312.07422.20801.15723.41113.24609.61035.16992.37695.00195.82129-.37598.99121-.09961.04492-.2041.06641-.30762.06641ZM2.05957,9.51953c-.39062,0-.71973-.30273-.74707-.69824-.01758-.25684-.02734-.51172-.02832-.76562-.00195-.41406.33301-.75098.74707-.75293h.00293c.41309,0,.74805.33398.75.74707.00098.2207.00879.44434.02441.66797.02832.41309-.2832.77148-.69629.7998-.01758.00098-.03516.00195-.05273.00195ZM2.4209,5.96973c-.07129,0-.14453-.00977-.21777-.03223-.39648-.12012-.62012-.53906-.5-.93555.07812-.25879.16699-.50781.26465-.74512.16016-.38184.59863-.56055.98047-.40625.38184.1582.56445.59766.40625.98047-.08008.19238-.15137.39453-.21582.60645-.09766.32324-.39551.53223-.71777.53223ZM4.48047,3.15918c-.27246,0-.53516-.14844-.66797-.40723-.18945-.36914-.04395-.82129.32422-1.00977.2627-.13477.51758-.24219.76367-.32422.39355-.12891.81836.08008.94922.47266.13184.39258-.08008.81836-.47266.94922-.17969.06055-.36426.13867-.55469.23633-.11035.05664-.22656.08301-.3418.08301Z" fill="var(--iconPrimary, #222)"/>
  <path d="M16.02441,11.46387c-.26953,0-.53027-.14551-.66406-.40039-.0498-.09277-.10156-.18457-.15918-.27637-.21973-.35059-.11328-.81348.2373-1.03418.35254-.21875.81348-.11426,1.03418.2373.07715.12305.14844.24805.21387.37402.19336.36621.05273.82031-.31348,1.0127-.11133.05957-.23145.08691-.34863.08691Z" fill="var(--iconPrimary, #222)"/>
  <path d="M12.94043,9.58301c-.19531,0-.39062-.05078-.56836-.15332-.42871-.24707-.64648-.73828-.54199-1.22168l.51367-2.37402-1.63184-1.7998c-.33203-.36621-.38965-.89941-.14258-1.32812.24805-.42969.74512-.64258,1.22363-.54199l2.37305.51367,1.7998-1.63184c.36523-.33203.90137-.38965,1.32715-.14258.42871.24707.64746.7373.54395,1.2207l-.51367,2.37598,1.63184,1.7998c.33203.36719.38867.90137.14062,1.3291s-.73828.64453-1.22168.54102l-2.37402-.51367-1.79883,1.63184c-.21387.19434-.48633.29492-.76074.29492ZM13.84961,5.9668l-.3125,1.44531,1.09473-.99316c.27148-.24512.64844-.3457,1.00293-.26758l1.44336.31152-.99219-1.09473c-.24512-.26758-.3457-.64355-.26758-1.00195l.31152-1.44434-1.0957.99316c-.27148.24512-.65039.34473-1.00195.26758l-1.44336-.31152.99219,1.09473c.24512.27148.3457.64551.26855,1.00098Z" fill="var(--iconPrimary, #222)"/>
  <path d="M8.39844,13.33887c-.12891,0-.25781-.0332-.375-.10059-.28223-.16309-.42676-.48926-.3584-.80762l.20312-.93945-.64551-.71191c-.21875-.24219-.25684-.59668-.09375-.87891.16309-.2832.49219-.4248.80762-.3584l.93945.20312.71289-.64453c.23926-.21973.59668-.25684.87793-.09375.28223.16309.42676.48926.3584.80762l-.20312.93848.64551.71191c.21875.24121.25684.59668.09375.87891-.16309.2832-.49121.4248-.80762.3584l-.93945-.20312-.71191.64551c-.1416.12793-.32227.19434-.50391.19434Z" fill="var(--iconPrimary, #222)"/>
</svg>