<?xml version="1.0" encoding="UTF-8"?>
<svg   xmlns="http://www.w3.org/2000/svg" width="20" height="20" viewBox="0 0 20 20">
  <path d="m6.75,18h-2.5c-1.24023,0-2.25-1.00977-2.25-2.25v-2.5c0-1.24023,1.00977-2.25,2.25-2.25h2.5c1.24023,0,2.25,1.00977,2.25,2.25v2.5c0,1.24023-1.00977,2.25-2.25,2.25Zm-2.5-5.5c-.41309,0-.75.33691-.75.75v2.5c0,.41309.33691.75.75.75h2.5c.41309,0,.75-.33691.75-.75v-2.5c0-.41309-.33691-.75-.75-.75h-2.5Z" fill="var(--iconPrimary, #222)" stroke-width="0"/>
  <path d="m6.75,9h-2.5c-1.24023,0-2.25-1.00977-2.25-2.25v-2.5c0-1.24023,1.00977-2.25,2.25-2.25h2.5c1.24023,0,2.25,1.00977,2.25,2.25v2.5c0,1.24023-1.00977,2.25-2.25,2.25Zm-2.5-5.5c-.41309,0-.75.33691-.75.75v2.5c0,.41309.33691.75.75.75h2.5c.41309,0,.75-.33691.75-.75v-2.5c0-.41309-.33691-.75-.75-.75h-2.5Z" fill="var(--iconPrimary, #222)" stroke-width="0"/>
  <rect x="4.5" y="13.5" width="2" height="2" rx="1" ry="1" fill="var(--iconPrimary, #222)" stroke-width="0"/>
  <path d="m12.5,2h.8v2.3h-2.3v-.8c0-.82787.67213-1.5,1.5-1.5Z" fill="var(--iconPrimary, #222)" stroke-width="0"/>
  <rect x="13.375" y="4.375" width="2.25" height="2.25" fill="var(--iconPrimary, #222)" stroke-width="0"/>
  <path d="m15.7,2h.8c.82787,0,1.5.67213,1.5,1.5v.8h-2.3V2h0Z" fill="var(--iconPrimary, #222)" stroke-width="0"/>
  <path d="m11,6.7h2.3v2.3h-.8c-.82787,0-1.5-.67213-1.5-1.5v-.8h0Z" fill="var(--iconPrimary, #222)" stroke-width="0"/>
  <path d="m15.7,6.7h2.3v.8c0,.82787-.67213,1.5-1.5,1.5h-.8v-2.3h0Z" fill="var(--iconPrimary, #222)" stroke-width="0"/>
  <path d="m15.75,11h-2.5c-1.24023,0-2.25,1.00977-2.25,2.25v2.5c0,1.24023,1.00977,2.25,2.25,2.25h2.5c1.24023,0,2.25-1.00977,2.25-2.25v-2.5c0-1.24023-1.00977-2.25-2.25-2.25Zm-2.5,1.5h2.5c.41309,0,.75.33691.75.75v1.75h-4v-1.75c0-.41309.33691-.75.75-.75Z" fill="var(--iconPrimary, #222)" stroke-width="0"/>
</svg>