<?xml version="1.0" encoding="UTF-8"?>
<svg   xmlns="http://www.w3.org/2000/svg" width="20" height="20" viewBox="0 0 20 20">
  <path d="m18.78,17.72l-5.333-5.333s-.002-.001-.003-.002c.137-.17.274-.34.396-.524.229-.346.134-.811-.211-1.039-.345-.229-.81-.135-1.04.211-1.023,1.545-2.739,2.468-4.589,2.468-3.033,0-5.5-2.468-5.5-5.5S4.967,2.501,8,2.501c.149,0,.297.006.443.018.418.033.775-.273.809-.686s-.273-.775-.686-.809c-.187-.016-.375-.023-.566-.023-3.86,0-7,3.141-7,7s3.14,7,7,7c1.623,0,3.156-.568,4.384-1.557.001.001.002.003.003.005l5.333,5.333c.146.146.338.22.53.22s.384-.073.53-.22c.293-.293.293-.768,0-1.061v-.001Z" fill="var(--iconPrimary, #222)"/>
  <path d="m12.94,9.583c-.194,0-.39-.051-.568-.153-.428-.247-.646-.737-.542-1.221l.513-2.375-1.631-1.8c-.332-.366-.389-.9-.142-1.329.248-.428.737-.646,1.222-.541l2.374.514,1.799-1.632c.367-.332.901-.39,1.33-.142.428.247.646.738.541,1.222l-.513,2.374,1.631,1.8c.332.366.39.899.142,1.328-.247.429-.736.646-1.222.542l-2.374-.514-1.799,1.632c-.215.194-.487.295-.761.295Zm.909-3.616l-.312,1.445,1.095-.993c.272-.245.644-.347,1.002-.268l1.443.312-.992-1.095c-.245-.271-.345-.644-.269-1l.312-1.445-1.095.992c-.271.245-.644.348-1.003.268l-1.443-.312.992,1.095c.245.27.346.645.268,1.001h.002Z" fill="var(--iconPrimary, #222)"/>
  <path d="m7.399,11.812c-.129,0-.258-.033-.375-.101-.282-.163-.426-.489-.357-.808l.203-.939-.646-.711c-.219-.241-.257-.597-.094-.879s.49-.422.808-.358l.939.203.712-.646c.242-.22.597-.257.879-.094s.427.489.358.808l-.203.939.646.712c.219.242.257.597.094.879-.162.282-.486.426-.808.358l-.939-.203-.712.645c-.142.128-.322.194-.503.194l-.002.001Z" fill="var(--iconPrimary, #222)"/>
</svg>