<?xml version="1.0" encoding="UTF-8"?>
<svg xmlns="http://www.w3.org/2000/svg" width="20" height="20" viewBox="0 0 20 20">
  <path d="m13.25,18h-7.5c-2.06787,0-3.75-1.68262-3.75-3.75v-7.5c0-2.06738,1.68213-3.75,3.75-3.75h2.25c.41406,0,.75.33594.75.75s-.33594.75-.75.75h-2.25c-1.24072,0-2.25,1.00977-2.25,2.25v7.5c0,1.24023,1.00928,2.25,2.25,2.25h7.5c1.24072,0,2.25-1.00977,2.25-2.25v-3.75195c0-.41406.33594-.75.75-.75s.75.33594.75.75v3.75195c0,2.06738-1.68213,3.75-3.75,3.75Z" fill="var(--iconPrimary, #222)"/>
  <path d="m12.93994,9.58301c-.19434,0-.39014-.05078-.56787-.15332-.42822-.24707-.646-.7373-.5415-1.2207l.5127-2.375-1.63135-1.7998c-.33203-.36621-.38916-.90039-.1416-1.3291.24805-.42773.7373-.64551,1.22217-.54102l2.37402.51367,1.79932-1.63184c.3667-.33301.90137-.38965,1.32959-.1416.42822.24707.64551.73828.54053,1.22168l-.5127,2.37402,1.63135,1.7998c.33203.36621.38965.89941.14209,1.32812-.24707.42969-.73535.64746-1.22217.54199l-2.37402-.51367-1.79932,1.63184c-.21484.19434-.48682.29492-.76123.29492Zm.90918-3.61621l-.31201,1.44531,1.09521-.99316c.27197-.24609.64453-.34863,1.00244-.26758l1.44287.31152-.99219-1.09473c-.24463-.27051-.34473-.64355-.26855-1l.3125-1.44531-1.09473.99219c-.27148.24512-.64258.34863-1.00293.26758l-1.44287-.31152.99219,1.09473c.24512.26953.3457.64453.26807,1.00098Z" fill="var(--iconPrimary, #222)"/>
  <path d="m8.12012,13.25c-.12891,0-.2583-.0332-.375-.10059-.28223-.16309-.42676-.48926-.35791-.80762l.20264-.93945-.64551-.71191c-.21875-.24219-.25684-.59668-.09375-.87891s.49219-.42188.80811-.3584l.93896.2041.71191-.64551c.2417-.21973.59717-.25684.87891-.09375.28223.16309.42676.48926.35791.80762l-.20264.93945.64551.71191c.21875.24219.25684.59668.09375.87891s-.49121.4209-.80811.3584l-.93945-.2041-.71143.64551c-.1416.12793-.32227.19434-.50391.19434Z" fill="var(--iconPrimary, #222)"/>
</svg>