<?xml version="1.0" encoding="UTF-8"?>
<svg xmlns="http://www.w3.org/2000/svg" width="20" height="20" viewBox="0 0 20 20">
  <path d="M16.77783,15.46533l-2.24805-2.24805c-.29297-.29297-.76758-.29297-1.06055,0s-.29297.76758,0,1.06055l.97217.97217h-4.69141v-3.19971c0-.41406-.33594-.75-.75-.75s-.75.33594-.75.75v6.19971c0,.41406.33594.75.75.75s.75-.33594.75-.75v-1.5h4.68488l-.96613.96777c-.29248.29297-.29248.76807.00098,1.06055.14648.146.33789.21924.52979.21924.19238,0,.38428-.07324.53076-.22021l2.24805-2.25195c.29248-.29297.29248-.76758-.00049-1.06006Z" fill="var(--iconPrimary, #222)"/>
  <path d="M9,1c-.41406,0-.75.33594-.75.75v1.5H3.56268l.96613-.96777c.29248-.29297.29248-.76807-.00098-1.06055s-.76807-.29346-1.06055.00098L1.21924,3.47461c-.29248.29297-.29248.76758.00049,1.06006l2.24805,2.24805c.14648.14648.33838.21973.53027.21973s.38379-.07324.53027-.21973c.29297-.29297.29297-.76758,0-1.06055l-.97217-.97217h4.69385v.59277c0,.41406.33594.75.75.75s.75-.33594.75-.75V1.75c0-.41406-.33594-.75-.75-.75Z" fill="var(--iconPrimary, #222)"/>
  <path d="M10.75586,10.84424c-.12891,0-.2583-.0332-.375-.10059-.28223-.16309-.42676-.48926-.35791-.80811l.20312-.93896-.64551-.71191c-.21875-.2417-.25684-.59668-.09375-.87891.16309-.28174.4873-.4292.80811-.35791l.93896.20312.71191-.64551c.2417-.21924.59766-.25635.87891-.09375.28223.16309.42676.48926.35791.80811l-.20312.93896.64551.71191c.21875.2417.25684.59668.09375.87891-.1626.28223-.48633.42969-.80811.35791l-.93896-.20312-.71191.64551c-.1416.12842-.32227.19434-.50391.19434Z" fill="var(--iconPrimary, #222)"/>
  <path d="M14.93896,7.61865c-.17041,0-.34229-.04395-.49805-.13379-.37646-.2168-.56787-.64795-.47656-1.07275l.3291-1.52197-1.04541-1.15332c-.2915-.3208-.3418-.78955-.125-1.16602s.646-.56982,1.07275-.47656l1.52197.3291,1.15332-1.04541c.32129-.29053.79053-.34131,1.16602-.125.37646.2168.56787.64795.47656,1.07275l-.3291,1.52197,1.04541,1.15283c.2915.32178.3418.79102.125,1.16699-.21729.37646-.64844.56738-1.07275.47607l-1.52197-.3291-1.15332,1.04541c-.18799.1709-.42676.25879-.66797.25879ZM15.49414,3.98096c.26855.29639.37842.70654.29346,1.09717l-.02539.11621.08887-.08057c.2959-.26807.70605-.37939,1.09717-.29346l.11621.0249-.08057-.08838c-.26904-.29736-.37842-.70752-.29346-1.09766l.0249-.11572-.08838.08057c-.29443.26807-.7041.37793-1.09473.29395l-.11865-.02539.08057.08838ZM14.38232,4.98779c.00049.00049.00049.00098.00098.00146,0-.00049-.00049-.00049-.00049-.00049l-.00049-.00098ZM14.35889,2.72852l.00049.00098c0-.00049-.00049-.00049-.00049-.00098Z" fill="var(--iconPrimary, #222)"/>
</svg>