<?xml version="1.0" encoding="UTF-8"?>
<svg id="e" data-name="ICONS" xmlns="http://www.w3.org/2000/svg" width="20" height="20" viewBox="0 0 20 20">
  <circle cx="6.10885" cy="8.02114" r="1.5" fill="var(--iconPrimary, #222)"/>
  <circle cx="6.10885" cy="13.02114" r="1.5" fill="var(--iconPrimary, #222)"/>
  <circle cx="10.10885" cy="15.02114" r="1.5" fill="var(--iconPrimary, #222)"/>
  <path d="M10.25342,19.27148c-2.59619-.01855-4.93604-.91016-6.66211-2.50879-1.76172-1.62988-2.73242-3.8125-2.73242-6.14355s.9707-4.51367,2.73291-6.14453c1.85059-1.71777,4.33984-2.70312,6.82861-2.70312l.21924.00195c.41406.00586.74512.34668.73926.76074-.00586.41016-.34033.73926-.75.73926h-.01074l-.19775-.00195c-2.11426,0-4.23193.83984-5.80908,2.30371-1.45264,1.34473-2.25244,3.13574-2.25244,5.04395s.7998,3.69922,2.25146,5.04297c1.43018,1.3252,3.46436,2.09375,5.58105,2.10938,2.14697,0,4.11914-.72266,5.47217-1.98242.13281-.12305.15479-.30957.15625-.40918.00293-.22461-.0835-.41309-.16504-.49219-.08936-.08691-.35156-.13281-.56201-.16992-.61035-.10547-.92285-.25293-1.30566-.6123-.42725-.39746-.66357-.91602-.66357-1.45996,0-.54297.23633-1.06152.66602-1.46094l1.20654-1.12109c.47852-.44336.8252-.99316,1.00391-1.59277.11865-.39746.54053-.62402.93311-.50391.39697.11816.62256.53613.50439.93359-.25537.85547-.74707,1.6377-1.42138,2.2627l-1.20557,1.12012c-.08496.0791-.18701.20703-.18701.3623,0,.15625.10205.28418.1875.36426.146.13672.18018.16895.5166.22656.41406.07227.9502.16602,1.37354.57617.39648.38672.62695.97949.61865,1.58789-.0083.58887-.23438,1.11719-.63623,1.48828-1.62549,1.51367-3.97021,2.38281-6.43018,2.38281Z" fill="var(--iconPrimary, #222)"/>
  <path d="M10.4585,10.1543c-.12891,0-.2583-.0332-.375-.10059-.28223-.16309-.42676-.48926-.35791-.80762l.20264-.93945-.64551-.71191c-.21875-.24121-.25684-.59668-.09375-.87891s.49023-.4248.80762-.3584l.93945.20312.71191-.64551c.2417-.21973.59717-.25684.87891-.09375.28223.16309.42676.48926.35791.80762l-.20264.93945.64551.71191c.21875.24121.25684.59668.09375.87891-.16211.28223-.48633.42676-.80762.3584l-.93945-.20312-.71191.64551c-.1416.12793-.32227.19434-.50391.19434Z" fill="var(--iconPrimary, #222)"/>
  <path d="M14.84668,7.04199c-.1709,0-.34277-.04395-.49854-.13379-.37549-.2168-.56689-.64746-.47559-1.07227l.3291-1.52246-1.04541-1.15332c-.29102-.32031-.3418-.78906-.12549-1.16504.21631-.37695.64648-.56641,1.07178-.47754l1.52344.33008,1.15283-1.0459c.3208-.29102.79102-.33984,1.1665-.12598.37646.21777.56787.64844.47656,1.07324l-.3291,1.52246,1.04541,1.15234c.29199.32324.3418.79297.12402,1.16797-.21826.375-.64648.56348-1.07324.47363l-1.52051-.32812-1.15332,1.0459c-.18848.1709-.42725.25879-.66846.25879ZM15.40234,3.4043c.26904.29688.37842.70703.29346,1.09766l-.02539.11523.08887-.08008c.29541-.26758.70654-.375,1.09473-.29395l.11816.02539-.08008-.08789c-.26904-.29883-.37793-.70801-.29346-1.09766l.0249-.11523-.08838.08008c-.2959.26758-.70508.37891-1.09521.29395l-.11768-.02539.08008.08789ZM18.50537,4.59961h.00146-.00146ZM14.29053,4.41113q.00049.00098.00098.00098h-.00049l-.00049-.00098ZM14.22998,4.18359c-.00049,0-.00049.00098-.00049.00098l.00049-.00098ZM14.26709,2.15137l.00049.00098s-.00049,0-.00049-.00098Z" fill="var(--iconPrimary, #222)"/>
</svg>