<?xml version="1.0" encoding="UTF-8"?>
<svg xmlns="http://www.w3.org/2000/svg" width="20" height="20" viewBox="0 0 20 20">
  <path d="M10.27051,12.4209c-.39258,0-.78125-.10352-1.12305-.2998-.14819-.08569-.27844-.19043-.3999-.30249l-2.89429,4.99243,7.9831.18431-2.7353-4.73534c-.26245.10449-.54321.16089-.83057.16089Z" fill="var(--iconPrimary, #222)" opacity=".2"/>
  <path d="M8.0304,10H2.00635l3.84692,6.81104,2.89429-4.99243c-.50317-.4646-.77026-1.12964-.71716-1.8186Z" fill="var(--iconPrimary, #222)" opacity=".4"/>
  <path d="M8.07031,9.69824l.04102-.18848-.12793-.14062c-.65918-.73047-.77148-1.78906-.28125-2.6377.03369-.05835.08313-.10303.12158-.15747l-1.92761-3.33862-3.88977,6.76465h6.02405c.00769-.10034.01843-.20117.03992-.30176Z" fill="var(--iconPrimary, #222)" opacity=".7"/>
  <path d="M17.99219,8.4082c-.08301-.40723-.48535-.66699-.88379-.58691-.40625.08203-.66895.47754-.58691.88379.08984.44531.13574.89844.13574,1.34766,0,3.72168-3.02832,6.75-6.75,6.75s-6.75-3.02832-6.75-6.75c0-2.46826,1.33569-4.625,3.3208-5.80176l1.34314,2.32642c.41809-.59448,1.09583-.96802,1.83411-.96802.14648,0,.29492.01367.44336.04297l.21387.0459.13965-.12695c.41406-.37598.95117-.58301,1.51074-.58301.07471,0,.14673.02148.22095.02905l.01343-.06226-.78809-.86914c-.76011-.80556-.68066-1.18288-.68066-1.54907s-.32556-.70508-.71484-.73022l-.10645-.00391C5.3584,1.80273,1.65723,5.50391,1.65723,10.05273s3.70117,8.25,8.25,8.25,8.25-3.70117,8.25-8.25c0-.54883-.05566-1.10156-.16504-1.64453Z" fill="var(--iconPrimary, #222)"/>
  <path d="M10.27051,10.9209c-.12891,0-.25781-.0332-.375-.10059-.28223-.16309-.42676-.48926-.3584-.80762l.20312-.93945-.64551-.71191c-.21875-.24219-.25684-.59668-.09375-.87891s.48535-.42188.80859-.3584l.93848.2041.71191-.64551c.24219-.21973.5957-.25586.87891-.09375.28223.16309.42676.48926.3584.80762l-.20312.93945.64551.71191c.21875.24219.25684.59668.09375.87891s-.48633.42383-.80859.3584l-.93945-.2041-.71094.64551c-.1416.12793-.32227.19434-.50391.19434Z" fill="var(--iconPrimary, #222)"/>
  <path d="M14.4375,7.68652c-.17871,0-.35938-.0459-.52344-.14062-.39453-.22754-.59473-.67969-.49902-1.125l.41113-1.90234-1.30566-1.44043c-.30664-.33691-.35938-.8291-.13184-1.22461.22754-.39453.68262-.59277,1.12598-.49902l1.90137.41211,1.44141-1.30762c.33691-.30469.8291-.35938,1.22363-.13086.39551.22754.5957.68066.5,1.12598l-.41113,1.90137,1.30664,1.44043c.30664.33984.3584.83203.12891,1.22754-.22852.39355-.68262.5918-1.12695.49512l-1.89844-.40918-1.44141,1.30566c-.19727.17969-.44824.27148-.70117.27148ZM14.99316,3.57227c.29004.31934.4082.76074.31738,1.18262l-.12988.59766.45312-.41016c.31738-.28906.75781-.4082,1.18164-.31738l.59766.12891-.41016-.45215c-.28906-.31836-.4082-.76074-.31738-1.18262l.12891-.59668-.45117.41016c-.32422.29004-.77051.40527-1.18262.31738l-.59668-.12891.40918.45117ZM18.79492,5.05273h.00293-.00293Z" fill="var(--iconPrimary, #222)"/>
  <path d="M14.4375,7.68652c-.17871,0-.35938-.0459-.52344-.14062-.39453-.22754-.59473-.67969-.49902-1.125l.41113-1.90234-1.30566-1.44043c-.30664-.33691-.35938-.8291-.13184-1.22461.22754-.39453.68262-.59277,1.12598-.49902l1.90137.41211,1.44141-1.30762c.33691-.30469.8291-.35938,1.22363-.13086.39551.22754.5957.68066.5,1.12598l-.41113,1.90137,1.30664,1.44043c.30664.33984.3584.83203.12891,1.22754-.22852.39355-.68262.5918-1.12695.49512l-1.89844-.40918-1.44141,1.30566c-.19727.17969-.44824.27148-.70117.27148ZM14.99316,3.57227c.29004.31934.4082.76074.31738,1.18262l-.12988.59766.45312-.41016c.31738-.28906.75781-.4082,1.18164-.31738l.59766.12891-.41016-.45215c-.28906-.31836-.4082-.76074-.31738-1.18262l.12891-.59668-.45117.41016c-.32422.29004-.77051.40527-1.18262.31738l-.59668-.12891.40918.45117ZM18.79492,5.05273h.00293-.00293Z" fill="var(--iconPrimary, #222)"/>
  <path d="M14.78833,10c-.04785.2334-.13171.4624-.2561.67773-.40039.69238-1.14844,1.12305-1.95117,1.12305-.15039,0-.30273-.01465-.45508-.0459l-.2041-.04395-.13867.12598c-.20288.18359-.43433.32446-.68213.4231l2.72393,4.71458,4.22701-6.97459h-3.26368Z" fill="var(--iconPrimary, #222)" opacity=".1"/>
</svg>