<?xml version="1.0" encoding="UTF-8"?>
<svg xmlns="http://www.w3.org/2000/svg" width="20" height="20" viewBox="0 0 20 20">
  <path d="M16.75,8h-.4082c-.41406,0-.75.33594-.75.75s.33594.75.75.75h.4082c.41309,0,.75.33691.75.75v4.28735l-.8916-.86938c-.68164-.66406-1.78809-.66406-2.46777,0l-.93164.85645-2.30469-2.24707c-.68066-.66504-1.78906-.66113-2.46777,0l-.93652.91357v-3.18115c0-.28125.21387-.50977.47754-.50977h1.96191c.41406,0,.75-.33594.75-.75s-.33594-.75-.75-.75h-1.96191c-1.09082,0-1.97754.90137-1.97754,2.00977v5.98047c0,1.1084.88672,2.00977,1.97754,2.00977h9.04492c1.09082,0,1.97754-.90137,1.97754-2.00977v-5.74023c0-1.24023-1.00977-2.25-2.25-2.25ZM17.02246,16.5H7.97754c-.26367,0-.47754-.22852-.47754-.50977v-.88721l1.8916-1.84521c.15137-.14648.4043-.14844.55762,0l2.30371,2.24707c.54297.52734,1.42285.52734,1.96387,0l.87988-.85645c.15039-.14844.40527-.14844.55566,0l1.72192,1.67969c-.0874.10376-.21094.17188-.35181.17188Z" fill="var(--iconPrimary, #222)"/>
  <path d="M12.52153,8.80753c-.10742,0-.21484-.02734-.3125-.0835-.23535-.13574-.35596-.4082-.29834-.67334l.12598-.58398-.40088-.44238c-.18213-.20117-.21387-.49707-.07764-.73193.13477-.23535.40625-.35889.67285-.29834l.5835.12598.44238-.40088c.20068-.18262.49756-.21533.73193-.07764.23535.13574.35596.40771.29834.67285l-.12598.58301.40088.44238c.18262.20117.21436.49707.07861.73242-.13623.23486-.40723.35596-.67334.29834l-.5835-.12598-.44238.40088c-.11816.10693-.26855.16211-.41991.16211Z" fill="var(--iconPrimary, #222)"/>
  <path d="M15.62993,5.59318c-.10742,0-.21484-.02734-.3125-.0835-.23535-.13574-.35596-.4082-.29834-.67334l.30127-1.39551-.9585-1.05762c-.18262-.20117-.21436-.49707-.07812-.73242.13525-.23535.40479-.35889.67334-.29834l1.39502.30176,1.05762-.95898c.20166-.18311.49756-.21533.73242-.07812.23535.13574.35596.40771.29834.67334l-.30176,1.39502.95898,1.05762c.18262.20117.21436.49707.07861.73242-.13574.23486-.40674.35596-.67334.29834l-1.39551-.30127-1.05762.9585c-.11816.10693-.26855.16211-.41992.16211h0Z" fill="var(--iconPrimary, #222)"/>
  <path d="M10.69824,3.90527c-1.00293-1.48438-2.6709-2.37109-4.46094-2.37109C3.27051,1.53418.85742,3.94727.85742,6.91406c0,1.12988.34912,2.19458.97656,3.08594h-.4209c-.41406,0-.75.33594-.75.75s.33594.75.75.75h2.33691c.41406,0,.75-.33594.75-.75v-2.33691c0-.41406-.33594-.75-.75-.75s-.75.33594-.75.75v.59863c-.40186-.61841-.64258-1.33203-.64258-2.09766,0-2.13965,1.74023-3.87988,3.87988-3.87988,1.29102,0,2.49414.63965,3.21875,1.71094.23145.34277.69727.43359,1.04102.20117.34277-.23145.43359-.69824.20117-1.04102Z" fill="var(--iconPrimary, #222)"/>
  <circle cx="15.01477" cy="11.17494" r="1" fill="var(--iconPrimary, #222)"/>
</svg>