<?xml version="1.0" encoding="UTF-8"?>
<svg id="f" data-name="ICONS" xmlns="http://www.w3.org/2000/svg" width="20" height="20" viewBox="0 0 20 20">
  <path d="M5.625,5c-.41406,0-.75.33594-.75.75s.33594.75.75.75h4.23828c.41406,0,.75-.33594.75-.75s-.33594-.75-.75-.75h-4.23828Z" fill="var(--iconPrimary, #222)"/>
  <circle cx="11.36346" cy="11.19141" r="1" fill="var(--iconPrimary, #222)"/>
  <path d="M19.58771,3.21057l-.95898-1.05762.30176-1.39502c.05762-.26562-.06299-.5376-.29834-.67334-.23486-.13721-.53076-.10498-.73242.07812l-1.05762.95898-1.39502-.30176c-.26855-.06055-.53809.06299-.67334.29834-.13623.23535-.10449.53125.07812.73242l.9585,1.05762-.30127,1.39551c-.05762.26514.06299.5376.29834.67334.09766.05615.20508.0835.3125.0835.15137,0,.30176-.05518.41992-.16211l1.05762-.9585,1.39551.30127c.2666.05762.5376-.06348.67334-.29834.13574-.23535.104-.53125-.07861-.73242Z" fill="var(--iconPrimary, #222)"/>
  <path d="M12.72101,5.46155c-.2666-.06055-.53809.06299-.67285.29834-.13623.23486-.10449.53076.07764.73193l.40088.44238-.12598.58398c-.05762.26514.06299.5376.29834.67334.09766.05615.20508.0835.3125.0835.15137,0,.30176-.05518.41992-.16211l.44238-.40088.5835.12598c.26611.05762.53711-.06348.67334-.29834.13574-.23535.104-.53125-.07861-.73242l-.40088-.44238.12598-.58301c.05762-.26514-.06299-.53711-.29834-.67285-.23438-.1377-.53125-.10498-.73193.07764l-.44238.40088-.5835-.12598Z" fill="var(--iconPrimary, #222)"/>
  <path d="M17.98877,6.74902c-.00049-.41406-.33594-.74902-.75-.74902h-.00098c-.41406,0-.74951.33691-.74902.75098l.01123,8.42407-2.06299-1.81763c-.74219-.63477-1.90533-.63281-2.64941,0l-.97168.83008c-.02783.02539-.11572.02441-.14349.00098l-2.5528-2.17871c-.74268-.63477-1.90625-.63379-2.65674.00684l-1.96289,1.72461v-4.24121h7.0083c.41406,0,.75-.33594.75-.75s-.33594-.75-.75-.75H3.5v-3.75c0-.41309.33643-.75.75-.75h8.62988c.41406,0,.75-.33594.75-.75s-.33594-.75-.75-.75H4.25c-1.24072,0-2.25,1.00977-2.25,2.25v11.5c0,1.24023,1.00928,2.25,2.25,2.25h11.5c1.24072,0,2.25-1.00977,2.25-2.25l-.01123-9.00098ZM4.25,16.5c-.41357,0-.75-.33691-.75-.75v-.01172l2.94434-2.58691c.18408-.1582.51807-.15723.70215-.00098l2.55225,2.17871c.586.5,1.50299.49902,2.09088,0l.97162-.83105c.18408-.15527.51855-.15625.69336-.00781l2.28119,2.00977H4.25Z" fill="var(--iconPrimary, #222)"/>
</svg>