<?xml version="1.0" encoding="UTF-8"?>
<svg id="f" data-name="ICONS" xmlns="http://www.w3.org/2000/svg" width="20" height="20" viewBox="0 0 20 20">
  <path d="M1.75098,15c-.41406,0-.75-.33594-.75-.75V4.25c0-1.24023,1.00977-2.25,2.25-2.25h6.5c.41406,0,.75.33594.75.75s-.33594.75-.75.75H3.25098c-.41309,0-.75.33691-.75.75v10c0,.41406-.33594.75-.75.75Z" fill="var(--iconPrimary, #222)"/>
  <path d="M10,16c-.34473,0-.625-.28027-.625-.625v-2.25c0-.34473.28027-.625.625-.625s.625.28027.625.625v2.25c0,.34473-.28027.625-.625.625Z" fill="var(--iconPrimary, #222)"/>
  <path d="M7.625,16c-.34473,0-.625-.28027-.625-.625v-1c0-.34473.28027-.625.625-.625s.625.28027.625.625v1c0,.34473-.28027.625-.625.625Z" fill="var(--iconPrimary, #222)"/>
  <path d="M12.375,16c-.34473,0-.625-.28027-.625-.625v-3.72461c0-.34473.28027-.625.625-.625s.625.28027.625.625v3.72461c0,.34473-.28027.625-.625.625Z" fill="var(--iconPrimary, #222)"/>
  <path d="M13.75098,19h-7.5c-1.24023,0-2.25-1.00977-2.25-2.25V7.25c0-1.24023,1.00977-2.25,2.25-2.25h.9082c.41406,0,.75.33594.75.75s-.33594.75-.75.75h-.9082c-.41309,0-.75.33691-.75.75v9.5c0,.41309.33691.75.75.75h7.5c.41309,0,.75-.33691.75-.75v-6.97168c0-.41406.33594-.75.75-.75s.75.33594.75.75v6.97168c0,1.24023-1.00977,2.25-2.25,2.25Z" fill="var(--iconPrimary, #222)"/>
  <path d="M10.26719,9.72593c-.12891,0-.25879-.0332-.375-.10059-.28223-.16309-.42676-.48926-.3584-.80859l.2041-.93945-.64551-.71094c-.21875-.24121-.25684-.59668-.09375-.87891s.49219-.42188.80762-.3584l.93945.20312.71191-.64551c.24121-.21875.59863-.25684.87891-.09375.28223.16309.42676.49023.3584.80859l-.2041.93848.64551.71191c.21875.24219.25684.59668.09375.87891s-.49023.42188-.80762.3584l-.93945-.20312-.71191.64551c-.1416.12793-.32227.19434-.50391.19434Z" fill="var(--iconPrimary, #222)"/>
  <path d="M14.45078,6.49937c-.1709,0-.34277-.04395-.49805-.13379-.37695-.2168-.56836-.64844-.47559-1.07324l.32812-1.52148-1.0459-1.15234c-.29199-.32422-.34082-.79199-.12402-1.16699.21582-.37598.64844-.56543,1.07031-.47656l1.52344.33008,1.15332-1.0459c.32227-.29199.79102-.34277,1.16797-.12402.37598.21777.56641.64844.47363,1.07227l-.32812,1.52148,1.0459,1.15332c.29102.32129.34082.79004.125,1.16504-.21582.37598-.65039.56543-1.07129.47754l-1.52344-.33008-1.15332,1.0459c-.1875.1709-.42676.25879-.66797.25879ZM14.92539,2.77378l.08008.08789c0,.00098.00098.00098.00195.00195.26758.29785.37695.70801.29102,1.09766l-.02441.11426.08887-.08105c.29492-.26855.70703-.37695,1.09473-.29395l.11816.02539-.08008-.08789c-.26953-.29688-.37988-.70801-.29297-1.09961l.02441-.11426-.08887.08105c-.29395.26953-.70605.37793-1.09473.29395l-.11816-.02539ZM17.66856,2.85581v.00293-.00293Z" fill="var(--iconPrimary, #222)"/>
</svg>