<?xml version="1.0" encoding="UTF-8"?>
<svg id="f" data-name="ICONS" xmlns="http://www.w3.org/2000/svg" width="20" height="20" viewBox="0 0 20 20">
  <path d="M12.65761,19.03021c-.10742,0-.21484-.02734-.3125-.0835-.23535-.13574-.35596-.4082-.29834-.67334l.12598-.58398-.40088-.44238c-.18213-.20117-.21387-.49707-.07764-.73193.13477-.23535.40625-.35889.67285-.29834l.5835.12598.44238-.40088c.20068-.18262.49756-.21533.73193-.07764.23535.13574.35596.40771.29834.67285l-.12598.58301.40088.44238c.18262.20117.21436.49707.07861.73242-.13623.23486-.40723.35596-.67334.29834l-.5835-.12598-.44238.40088c-.11816.10693-.26855.16211-.41992.16211Z" fill="var(--iconPrimary, #222)"/>
  <path d="M15.766,15.81586c-.10742,0-.21484-.02734-.3125-.0835-.23535-.13574-.35596-.4082-.29834-.67334l.30127-1.39551-.9585-1.05762c-.18262-.20117-.21436-.49707-.07812-.73242.13525-.23535.40479-.35889.67334-.29834l1.39502.30176,1.05762-.95898c.20166-.18311.49756-.21533.73242-.07812.23535.13574.35596.40771.29834.67334l-.30176,1.39502.95898,1.05762c.18262.20117.21436.49707.07861.73242-.13574.23486-.40674.35596-.67334.29834l-1.39551-.30127-1.05762.9585c-.11816.10693-.26855.16211-.41992.16211Z" fill="var(--iconPrimary, #222)"/>
  <path d="M12.47559,12.21973c-.12891,0-.25977-.0332-.37988-.10352l-2.47656-1.45801c-.22852-.13477-.36914-.38086-.36914-.64648v-5c0-.41406.33594-.75.75-.75s.75.33594.75.75v4.57129l2.10742,1.24023c.35645.21045.47559.66992.26562,1.02686-.13965.23779-.39062.36963-.64746.36963Z" fill="var(--iconPrimary, #222)"/>
  <path d="M17.6398,9.05963c-.27812-.05836-.51139-.27344-.57793-.56979-.10064-.44769-.24483-.88755-.42799-1.30815-.16583-.37954.00775-.82158.38777-.98731.37982-.16477.82168.00727.98731.38777.22094.50686.39481,1.03826.51679,1.57923.0908.40421-.16302.80547-.56724.89627-.10882.02406-.21646.02343-.31872.00197ZM15.45147,5.12253c-.13572-.02848-.26542-.09511-.37217-.19983-.32402-.31994-.68287-.61176-1.06715-.86801-.34211-.22894-.45867-.70541-.23372-1.04986.22695-.34453.6646-.45675,1.01108-.23438.00523.00359.0552.03653.06043.04012.45784.30511.89178.65759,1.28364,1.04415.29422.29074.29731.76585.00695,1.06065-.18622.18843-.44726.25789-.68906.20715Z" fill="var(--iconPrimary, #222)"/>
  <path d="M10,18.75c-4.8252,0-8.75-3.92529-8.75-8.75S5.1748,1.25,10,1.25c.62305,0,1.24414.06592,1.84668.19531.4043.0874.66211.48633.5752.8916-.08789.40576-.4834.66211-.8916.5752-.49805-.10742-1.01367-.16211-1.53027-.16211-3.99805,0-7.25,3.25244-7.25,7.25s3.25195,7.25,7.25,7.25c.41406,0,.75.33594.75.75s-.33594.75-.75.75Z" fill="var(--iconPrimary, #222)"/>
</svg>