<?xml version="1.0" encoding="UTF-8"?>
<svg xmlns="http://www.w3.org/2000/svg" width="20" height="20" viewBox="0 0 20 20">
  <path d="M12.33691,19.11328c-.10742,0-.21484-.02734-.3125-.0835-.23535-.13574-.35596-.4082-.29834-.67334l.12598-.58398-.40088-.44238c-.18213-.20117-.21387-.49707-.07764-.73193.13574-.23584.40869-.35693.67334-.29834l.58301.12646.44189-.40088c.20117-.18359.49805-.21484.73242-.07861.23535.13623.35596.4082.29834.67334l-.12598.58301.40088.44238c.18262.20117.21436.49707.07861.73242-.13574.23438-.40918.35645-.67334.29834l-.5835-.12598-.44238.40088c-.11816.10693-.26855.16211-.41992.16211Z" fill="var(--iconPrimary, #222)" stroke-width="0"/>
  <path d="M15.44531,15.89893c-.10742,0-.21533-.02734-.3125-.0835-.23535-.13623-.35596-.4082-.29834-.67334l.30127-1.39551-.95898-1.05811c-.18213-.20117-.21387-.49707-.07764-.73193.13525-.23584.40674-.35742.67334-.29834l1.39502.30176,1.05811-.95898c.20068-.18311.49756-.21436.73193-.07764.23535.13574.35596.40771.29834.67334l-.30176,1.39453.95898,1.05762c.18262.20117.21436.49707.07861.73242-.13574.23438-.40869.35645-.67334.29834l-1.39551-.30127-1.05762.9585c-.11816.10693-.26855.16211-.41992.16211Z" fill="var(--iconPrimary, #222)" stroke-width="0"/>
  <path d="M16.87683,6.97266c-.64789-.61719-1.49237-.90308-1.49237-.90308-.01166-.01172-.02728-.01562-.03949-.02637-.02417-.02661-.04187-.05701-.06763-.08276L10.98877,1.67432c-.83252-.83057-2.18555-.83057-3.01611.00098l-1.23077,1.23071-1.90009-1.90015c-.29297-.29297-.76758-.29297-1.06055,0s-.29297.76758,0,1.06055l1.90009,1.90015-3.66083,3.66089c-.83154.83105-.83154,2.18457,0,3.0166l4.28711,4.28662c.41602.41602.96191.62402,1.5083.62402s1.09229-.20801,1.5083-.62402l5.95312-5.95264c.17236-.17236.30029-.37036.40125-.57812.15961.13452.27008.28577.24182.57812-.03986.41211.31396.89502.72803.89502s.71503-.29065.87628-.70996c.30853-.80212-.04016-1.61169-.64789-2.19043ZM14.2168,7.91699l-5.95312,5.95312c-.24707.24707-.64844.24707-.89551,0l-4.28662-4.28662c-.24707-.24707-.24707-.64893-.00049-.89551l3.66077-3.66077,2.1449,2.14514c.14648.14648.33838.21973.53027.21973s.38379-.07324.53027-.21973c.29297-.29297.29297-.76758,0-1.06055l-2.1449-2.14514,1.23083-1.23083c.12354-.12354.28564-.18506.44775-.18506s.32422.06152.44727.18457l4.28809,4.28564c.24756.24707.24756.64893.00049.896Z" fill="var(--iconPrimary, #222)" stroke-width="0"/>
</svg>