<?xml version="1.0" encoding="UTF-8"?>
<svg id="e" data-name="ICONS" xmlns="http://www.w3.org/2000/svg" width="20" height="20" viewBox="0 0 20 20">
  <path d="M19.34082,14.43555l-.95898-1.05762.30127-1.39551c.05762-.26562-.06299-.53711-.29834-.67285-.23535-.1377-.53076-.10645-.73193.07812l-1.05762.95801-1.396-.30176c-.26709-.05566-.53809.06348-.67334.29883-.13574.23535-.104.53125.07861.73242l.95898,1.05762-.30176,1.39551c-.05762.26562.06299.53711.29834.67285.09717.05664.20508.08398.3125.08398.15137,0,.30176-.05469.41992-.16211l1.05713-.95898,1.39551.30273c.2666.05469.53711-.0625.67334-.29883.13623-.23535.10449-.53125-.07764-.73242Z" fill="var(--iconPrimary, #222)"/>
  <path d="M14.40381,17.58984l.12646-.58398c.05762-.26465-.06299-.53711-.29834-.67285-.23486-.1377-.53174-.10645-.73242.07812l-.44238.40137-.58301-.12695c-.26855-.05371-.53809.06348-.67383.29883s-.104.53125.07861.73242l.40088.44141-.12598.58398c-.05762.26562.06299.53711.29834.67285.09717.05664.20508.08398.3125.08398.15137,0,.30176-.05469.41943-.16211l.44287-.40039.58301.12598c.26562.04785.53711-.06445.67334-.29883.13574-.23535.104-.53125-.07861-.73242l-.40088-.44141Z" fill="var(--iconPrimary, #222)"/>
  <path d="M12.85059,8.5c-.24512,0-.48584-.12012-.62939-.3418-.22559-.34668-.12695-.81152.22021-1.03711.34473-.22363.55859-.65332.55859-1.12109s-.21387-.89746-.55859-1.12109c-.34717-.22559-.4458-.69043-.22021-1.03711.22559-.34863.69043-.44629,1.0376-.2207.76562.49707,1.24121,1.40918,1.24121,2.37891s-.47559,1.88184-1.24121,2.37891c-.12646.08203-.26807.12109-.4082.12109Z" fill="var(--iconPrimary, #222)"/>
  <path d="M15.75049,9.75c-.2417,0-.47949-.11719-.62402-.33301-.22998-.34473-.1377-.81055.20654-1.04004.71973-.48145,1.16699-1.39258,1.16699-2.37695,0-.98535-.44678-1.89648-1.1665-2.37598-.34424-.23047-.4375-.69629-.20752-1.04004.22949-.34473.6958-.43652,1.04053-.20801,1.13086.75488,1.8335,2.14355,1.8335,3.62402,0,1.47949-.70264,2.86719-1.83301,3.62305-.12842.08594-.27295.12695-.4165.12695Z" fill="var(--iconPrimary, #222)"/>
  <path d="M6.75,9.75c-1.99902,0-3.625-1.68262-3.625-3.75s1.62598-3.75,3.625-3.75,3.625,1.68262,3.625,3.75-1.62598,3.75-3.625,3.75ZM6.75,3.75c-1.17188,0-2.125,1.00977-2.125,2.25s.95312,2.25,2.125,2.25,2.125-1.00977,2.125-2.25-.95312-2.25-2.125-2.25Z" fill="var(--iconPrimary, #222)"/>
  <path d="M1.50098,16c-.0249,0-.0498-.00098-.0752-.00391-.41211-.04102-.71338-.4082-.67188-.82031.23291-2.3418,2.8667-4.17578,5.99609-4.17578,2.65088,0,4.9585,1.2793,5.74121,3.18262.15771.38281-.0249.82129-.4082.97852-.38428.16211-.82129-.02441-.97852-.4082-.5459-1.32617-2.33643-2.25293-4.35449-2.25293-2.32812,0-4.34863,1.2666-4.50391,2.82422-.03809.38672-.36426.67578-.74512.67578Z" fill="var(--iconPrimary, #222)"/>
</svg>