<?xml version="1.0" encoding="UTF-8"?>
<svg id="g" data-name="ICONS" xmlns="http://www.w3.org/2000/svg" width="20" height="20" viewBox="0 0 20 20">
  <path d="M10,18c-.43066,0-.86133-.12305-1.23633-.37012l-6.5752-4.31934c-.63477-.41797-1.01465-1.12109-1.01367-1.88184,0-.76074.37891-1.46289,1.01367-1.87988l6.5752-4.32031c.04883-.03223.11035-.0625.16504-.08203.36914-.18555.78418-.01953.96875.35156.18262.36523.00293.82324-.35645,1.01367l-6.52832,4.29102c-.21484.14062-.33789.36914-.33789.62598,0,.25781.12305.4873.33789.62793l6.5752,4.31934c.25.16602.57422.16602.82422,0l6.5752-4.31934c.21387-.13965.29004-.33008.31738-.46582.03906-.19922-.00293-.41016-.11719-.57812-.2334-.34277-.14453-.80957.19824-1.04199.34277-.23438.80859-.14355,1.04199.19824.33887.49805.46582,1.12305.34766,1.71484-.11621.58789-.45898,1.09473-.96387,1.42676l-6.5752,4.31934c-.37598.24707-.80566.37012-1.23633.37012Z" fill="var(--iconPrimary, #222)"/>
  <path d="M12.94043,9.72754c-.19531,0-.39062-.05078-.56836-.15332-.42871-.24707-.64648-.73828-.54199-1.22168l.51367-2.37402-1.63184-1.7998c-.33203-.36621-.38965-.89941-.14258-1.32812.24805-.42969.74512-.64258,1.22363-.54199l2.37305.51367,1.7998-1.63184c.36523-.33203.90137-.38965,1.32715-.14258.42871.24707.64746.7373.54395,1.2207l-.51367,2.37598,1.63184,1.7998c.33203.36719.38867.90137.14062,1.3291s-.73828.64453-1.22168.54102l-2.37402-.51367-1.79883,1.63184c-.21387.19434-.48633.29492-.76074.29492ZM13.84961,6.11133l-.3125,1.44531,1.09473-.99316c.27148-.24512.64746-.3457,1.00293-.26758l1.44336.31152-.99219-1.09473c-.24512-.26758-.3457-.64355-.26758-1.00195l.31152-1.44434-1.0957.99316c-.27246.24512-.64941.34473-1.00195.26758l-1.44336-.31152.99219,1.09473c.24512.27148.3457.64551.26855,1.00098Z" fill="var(--iconPrimary, #222)"/>
  <path d="M8.12012,13.39453c-.12891,0-.25781-.0332-.375-.10059-.28223-.16309-.42676-.48926-.3584-.80762l.20312-.93945-.64551-.71191c-.21875-.24219-.25684-.59668-.09375-.87891s.48633-.42383.80859-.3584l.93945.2041.71094-.64551c.24121-.21973.5957-.25684.87891-.09375.28223.16309.42676.48926.3584.80762l-.20312.93945.64551.71191c.21875.24219.25684.59668.09375.87891s-.48535.4248-.80859.3584l-.93945-.2041-.71094.64551c-.1416.12793-.32227.19434-.50391.19434Z" fill="var(--iconPrimary, #222)"/>
</svg>