<?xml version="1.0" encoding="UTF-8"?>
<svg xmlns="http://www.w3.org/2000/svg" width="20" height="20" viewBox="0 0 20 20">
  <path d="M1.88916,8.79785c-.10742,0-.21484-.02734-.3125-.0835-.23535-.13574-.35596-.4082-.29834-.67334l.12598-.58398-.40088-.44238c-.18213-.20117-.21387-.49707-.07764-.73193.13477-.23535.40625-.35889.67285-.29834l.5835.12598.44238-.40088c.20068-.18262.49756-.21533.73193-.07764.23535.13574.35596.40771.29834.67285l-.12598.58301.40088.44238c.18262.20117.21436.49707.07861.73242-.13623.23486-.40723.35596-.67334.29834l-.5835-.12598-.44238.40088c-.11816.10693-.26855.16211-.41992.16211Z" fill="var(--iconPrimary, #222)" stroke-width="0"/>
  <path d="M4.99756,5.5835c-.10742,0-.21484-.02734-.3125-.0835-.23535-.13574-.35596-.4082-.29834-.67334l.30127-1.39551-.9585-1.05762c-.18262-.20117-.21436-.49707-.07812-.73242.13525-.23535.40479-.35889.67334-.29834l1.39502.30176,1.05762-.95898c.20166-.18311.49756-.21533.73242-.07812.23535.13574.35596.40771.29834.67334l-.30176,1.39502.95898,1.05762c.18262.20117.21436.49707.07861.73242-.13574.23486-.40674.35596-.67334.29834l-1.39551-.30127-1.05762.9585c-.11816.10693-.26855.16211-.41992.16211Z" fill="var(--iconPrimary, #222)" stroke-width="0"/>
  <path d="M18.43066,6.87598l-3.64453-3.64453c-.84961-.84961-2.33252-.85156-3.18213,0L2.57275,12.26172c-.87549.87646-.87646,2.30322-.00195,3.18018l2.63965,2.64697h.00049c.42529.42627.99121.66113,1.59326.66113h2.00488c.59229,0,1.17236-.24023,1.59131-.65918l8.03027-8.03271c.4248-.4248.65918-.99023.65918-1.59131-.00049-.60059-.23438-1.16553-.65918-1.59082ZM9.33984,17.03027c-.13965.13965-.33301.21973-.53076.21973h-2.00488c-.20068,0-.38965-.07861-.53174-.2207l-2.63965-2.64697c-.2915-.29199-.29102-.76807.00098-1.06006l2.17267-2.17261,4.70697,4.70654-1.17358,1.17407ZM17.37012,8.99707l-5.79633,5.79846-4.70673-4.70642,5.79749-5.79712c.2832-.2832.77734-.2832,1.06055,0l3.64453,3.64453c.29248.29248.29297.76807.00049,1.06055Z" fill="var(--iconPrimary, #222)" stroke-width="0"/>
  <path d="M14.53125,18.75h-1.79102c-.41406,0-.75-.33594-.75-.75s.33594-.75.75-.75h1.79102c.41406,0,.75.33594.75.75s-.33594.75-.75.75Z" fill="var(--iconPrimary, #222)" stroke-width="0"/>
  <path d="M17.95557,18.73975h-.55029c-.41406,0-.75-.33594-.75-.75s.33594-.75.75-.75h.55029c.41406,0,.75.33594.75.75s-.33594.75-.75.75Z" fill="var(--iconPrimary, #222)" stroke-width="0"/>
</svg>