<?xml version="1.0" encoding="UTF-8"?>
<svg id="d" data-name="ICONS" xmlns="http://www.w3.org/2000/svg" width="20" height="20" viewBox="0 0 20 20">
  <path d="M11.16406,10.01807c-.12891,0-.25781-.0332-.375-.10059-.28223-.1626-.42676-.48926-.3584-.80762l.20312-.93945-.64551-.71191c-.21875-.2417-.25684-.59668-.09375-.87891.16309-.28271.49121-.42725.80762-.35791l.93945.20264.71191-.64551c.24219-.21924.5957-.25732.87891-.09375.28223.1626.42676.48926.3584.80762l-.20312.93945.64551.71191c.21875.2417.25684.59668.09375.87891s-.49219.42822-.80762.35791l-.93945-.20264-.71191.64551c-.1416.12842-.32227.19434-.50391.19434Z" fill="var(--iconPrimary, #222)"/>
  <path d="M15.34668,6.79199c-.1709,0-.34375-.04443-.49902-.13477-.37598-.21777-.56641-.64893-.47363-1.07324l.32812-1.52051-1.0459-1.15283c-.29199-.32324-.3418-.79199-.12402-1.16797.2168-.37598.64453-.56641,1.07129-.4751l1.52246.3291,1.15332-1.04541c.32129-.29199.78711-.3418,1.16504-.12549.37598.21631.56836.64697.47754,1.07178l-.33008,1.52344,1.0459,1.15332c.29102.31982.34277.78857.12598,1.16553-.21777.37646-.64844.56494-1.07324.47705l-1.52246-.3291-1.15234,1.04541c-.18945.1709-.42773.25879-.66895.25879h-.00001ZM15.83984,5.90039v.00146-.00146ZM18.52637,5.18164c0,.00049.00098.00098.00098.00195l-.00098-.00195ZM15.82129,3.06543l.08105.08887c0,.00033.00033.00065.00098.00098.2666.29541.37695.70459.29297,1.09424l-.02539.11768.08789-.08008c.29688-.26758.7041-.37842,1.0957-.29395l.11719.02539-.08008-.08838c-.26758-.29492-.37793-.7041-.29395-1.09473l.02539-.11816-.08789.08008c-.29785.26953-.70508.37842-1.09766.29346l-.11621-.02539h0ZM14.78906,4.16016c.00098.00049.00098.00098.00098.00098l-.00098-.00098ZM16.25488,1.62451l.00098.00049c0-.00049-.00098-.00049-.00098-.00049Z" fill="var(--iconPrimary, #222)"/>
  <path d="M11.93115,18.78125c-.37744,0-.72559-.21289-.896-.56836l-2.0625-4.29688-4.49023,2.65918c-.41504.24609-.92871.16699-1.25146-.19043-.32275-.35645-.34912-.87598-.06396-1.2627l2.53809-3.45117-3.95703-.94141c-.45703-.1084-.77295-.5127-.76855-.98242s.32812-.86816.78711-.96777l4.20459-.90918-1.96582-4.2207c-.2002-.43164-.07617-.93262.30176-1.21875.37744-.28809.89307-.27344,1.25439.03613l2.88281,2.45996c.31494.26855.35254.74219.08398,1.05664-.26807.31738-.74219.35547-1.05762.08398l-1.13574-.96875,1.78955,3.8418-3.8877.83984,4.01807.95508-2.42627,3.29883,3.7876-2.24316,1.74316,3.63086-.13037-3.99023,3.34668,1.29004-.71338-.69531c-.29639-.29004-.30225-.76465-.0127-1.06055.29004-.29688.76465-.30078,1.06055-.01367l2.4541,2.39551c.34326.33496.40234.85156.14355,1.25586-.25928.4043-.75488.56543-1.20117.39355l-3.50439-1.35059.13379,4.10059c.01562.47754-.29785.89062-.76221,1.00391-.08105.02051-.1626.03027-.24268.03027Z" fill="var(--iconPrimary, #222)"/>
</svg>