<?xml version="1.0" encoding="UTF-8"?>
<svg id="e" data-name="ICONS" xmlns="http://www.w3.org/2000/svg" width="20" height="20" viewBox="0 0 20 20">
  <path d="M17.53076,1.99805c-1.22803-1.00391-3.08887-.91406-4.32764.20801-.30664.27832-.33008.75293-.05176,1.05957.27832.30762.75391.33008,1.05957.05176.69287-.62891,1.71143-.69629,2.37061-.1582.3916.32129.62109.77344.646,1.27344.0249.49316-.16113.97656-.50977,1.32422l-1.33649,1.33643-.76849-.76807c-.29297-.29297-.76758-.29297-1.06055,0s-.29297.76758,0,1.06055l.76855.76807-6.85223,6.85254-2.47998-2.47021.38055-.38086c.29248-.29297.29248-.76855-.00098-1.06055-.29199-.29297-.76758-.29297-1.06055,0l-1.20215,1.2041c-.31982.31836-.55811.71582-.68896,1.15039l-1.38428,4.58398c-.08008.26465-.00781.55176.1875.74707.14258.14258.33447.21973.53027.21973.07227,0,.14551-.01074.2168-.03223l4.58447-1.38379c.43262-.13086.83008-.36914,1.14941-.68848l10.07715-10.07715c.64795-.64746.99365-1.54492.94824-2.46094-.0459-.91504-.48145-1.77539-1.19531-2.35938ZM2.87256,17.12793l.97949-3.24512c.02661-.08789.0661-.17139.11108-.25098l2.4118,2.40234c-.08179.04688-.1676.08691-.25775.11426l-3.24463.97949Z" fill="var(--iconPrimary, #222)"/>
  <path d="M2.92822,8.30664l-.20264.93945c-.06885.31836.07568.64453.35791.80762.1167.06738.24609.10059.375.10059.18164,0,.3623-.06641.50391-.19434l.71191-.64551.93945.20312c.31934.06836.64502-.07617.80762-.3584.16309-.28223.125-.6377-.09375-.87891l-.64551-.71191.20264-.93945c.06885-.31836-.07568-.64453-.35791-.80762-.28125-.16309-.63721-.12598-.87891.09375l-.71191.64551-.93945-.20312c-.31885-.06641-.64502.07617-.80762.3584-.16309.28223-.125.6377.09375.87891l.64551.71191Z" fill="var(--iconPrimary, #222)"/>
  <path d="M7.20166,4.31348l-.3291,1.52246c-.09131.4248.1001.85547.47559,1.07227.15576.08984.32764.13379.49854.13379.24121,0,.47998-.08789.66846-.25879l1.15332-1.0459,1.52051.32812c.42432.08984.85498-.09863,1.07324-.47363.21777-.375.16797-.84473-.12402-1.16797l-1.04541-1.15234.3291-1.52246c.09131-.4248-.1001-.85547-.47656-1.07324-.37549-.21387-.84473-.16504-1.1665.12598l-1.15283,1.0459-1.52344-.33008c-.42676-.08887-.85547.10059-1.07178.47754-.21631.37598-.16553.84473.12549,1.16504l1.04541,1.15332ZM8.43994,3.3418c.3916.08496.79883-.02637,1.09521-.29395l.08838-.08008-.0249.11523c-.08447.38965.02441.79883.29346,1.09766l.08008.08789-.11816-.02539c-.38867-.08105-.79932.02637-1.09473.29395l-.08887.08008.02539-.11523c.08496-.39062-.02441-.80078-.29346-1.09766l-.08008-.08789.11768.02539Z" fill="var(--iconPrimary, #222)"/>
</svg>