<?xml version="1.0" encoding="UTF-8"?>
<svg xmlns="http://www.w3.org/2000/svg" width="20" height="20" viewBox="0 0 20 20">
  <polygon points="9.5 16.39363 5.87691 14.21977 9.5 12.04592 13.12309 14.21977 9.5 16.39363" fill="var(--iconPrimary, #222)" opacity=".7"/>
  <polygon points="9.5 13.58221 5.87691 11.40836 9.5 9.2345 13.12309 11.40836 9.5 13.58221" fill="var(--iconPrimary, #222)" opacity=".4"/>
  <path d="M9.5,19.21875c-.3623,0-.72461-.09766-1.04688-.29297l-5.25195-3.1709c-.54883-.33203-.87598-.91211-.87598-1.55273.00098-.63965.32812-1.21973.87598-1.55078l1.76562-1.06543v-.17188l-1.76562-1.06641c-.54785-.33008-.875-.91016-.87598-1.5498,0-.64062.32715-1.2207.87598-1.55273l5.25195-3.1709c.64453-.39062,1.44922-.39062,2.09375,0,.35449.21387.46875.67578.25391,1.0293-.21387.35449-.6748.46777-1.0293.25391-.16797-.10156-.375-.10156-.54297,0l-5.25195,3.1709c-.13184.08008-.15137.20215-.15137.26855,0,.06543.01953.1875.15137.2666l1.76562,1.06738c.48438.29102.77344.80371.77344,1.36914s-.28906,1.07812-.77441,1.37012l-1.76465,1.06543c-.13184.08008-.15137.20215-.15137.26758,0,.06641.01953.18848.15137.26855l5.25195,3.1709c.16797.10156.375.10156.54297,0l5.25195-3.1709c.13184-.08008.15137-.20215.15137-.26855,0-.06543-.01953-.1875-.15137-.2666l-1.76562-1.06738c-.48438-.29102-.77344-.80371-.77344-1.36914s.28906-1.07812.77441-1.37012l1.76465-1.06543c.16211-.09863.1543-.26367.14746-.31152-.05371-.41113.23633-.78711.64648-.8418.41504-.05762.78711.23633.8418.64648.09277.71582-.24414,1.41797-.86035,1.79004l-1.76562,1.06641v.17188l1.76562,1.06641c.54785.33008.875.91016.87598,1.5498,0,.64062-.32715,1.2207-.87598,1.55273l-5.25195,3.1709c-.32227.19531-.68457.29297-1.04688.29297Z" fill="var(--iconPrimary, #222)"/>
  <path d="M9.99512,7.90137c-.32104-.41577-.44849-.92505-.41602-1.43066l-.0791-.04761-3.62305,2.17383,3.62305,2.17383,1.4126-.84766c-.66309-.45239-1.02539-1.2251-.91748-2.02173Z" fill="var(--iconPrimary, #222)" opacity=".2"/>
  <path d="M12.10144,8.80753c-.10742,0-.21484-.02734-.3125-.0835-.23535-.13574-.35596-.4082-.29834-.67334l.12598-.58398-.40088-.44238c-.18213-.20117-.21387-.49707-.07764-.73193.13477-.23535.40625-.35889.67285-.29834l.5835.12598.44238-.40088c.20068-.18262.49756-.21533.73193-.07764.23535.13574.35596.40771.29834.67285l-.12598.58301.40088.44238c.18262.20117.21436.49707.07861.73242-.13623.23486-.40723.35596-.67334.29834l-.5835-.12598-.44238.40088c-.11816.10693-.26855.16211-.41991.16211Z" fill="var(--iconPrimary, #222)"/>
  <path d="M15.20984,5.59318c-.10742,0-.21484-.02734-.3125-.0835-.23535-.13574-.35596-.4082-.29834-.67334l.30127-1.39551-.9585-1.05762c-.18262-.20117-.21436-.49707-.07812-.73242.13525-.23535.40479-.35889.67334-.29834l1.39502.30176,1.05762-.95898c.20166-.18311.49756-.21533.73242-.07812.23535.13574.35596.40771.29834.67334l-.30176,1.39502.95898,1.05762c.18262.20117.21436.49707.07861.73242-.13574.23486-.40674.35596-.67334.29834l-1.39551-.30127-1.05762.9585c-.11816.10693-.26855.16211-.41992.16211h0Z" fill="var(--iconPrimary, #222)"/>
</svg>