<?xml version="1.0" encoding="UTF-8"?>
<svg xmlns="http://www.w3.org/2000/svg" width="20" height="20" viewBox="0 0 20 20">
  <path d="M17,14.26843v-4.51843c0-.41406-.33594-.75-.75-.75s-.75.33594-.75.75v4.51849c-.56732.21552-1.01599.66418-1.23151,1.23151H5.73157c-.21552-.56732-.66425-1.01605-1.23157-1.23157v-7.53693c.56732-.21552,1.01599-.66418,1.23151-1.23151h3.01849c.41406,0,.75-.33594.75-.75s-.33594-.75-.75-.75h-3.01843c-.30444-.80139-1.07458-1.375-1.98157-1.375-1.17188,0-2.125.95312-2.125,2.125,0,.90698.57361,1.67706,1.375,1.98151v7.53699c-.80139.30444-1.375,1.07452-1.375,1.98151,0,1.17188.95312,2.125,2.125,2.125.90698,0,1.67706-.57361,1.98151-1.375h8.53699c.30444.80139,1.07452,1.375,1.98151,1.375,1.17188,0,2.125-.95312,2.125-2.125,0-.90698-.57361-1.67712-1.375-1.98157ZM3.75,3.875c.48242,0,.875.39258.875.875s-.39258.875-.875.875-.875-.39258-.875-.875.39258-.875.875-.875ZM3.75,17.125c-.48242,0-.875-.39258-.875-.875s.39258-.875.875-.875.875.39258.875.875-.39258.875-.875.875ZM16.25,17.125c-.48242,0-.875-.39258-.875-.875s.39258-.875.875-.875.875.39258.875.875-.39258.875-.875.875Z" fill="var(--iconPrimary, #222)"/>
  <path d="M10.27051,10.9209c-.12891,0-.25781-.0332-.375-.10059-.28223-.16309-.42676-.48926-.3584-.80762l.20312-.93945-.64551-.71191c-.21875-.24219-.25684-.59668-.09375-.87891s.48535-.42188.80859-.3584l.93848.2041.71191-.64551c.24219-.21973.5957-.25586.87891-.09375.28223.16309.42676.48926.3584.80762l-.20312.93945.64551.71191c.21875.24219.25684.59668.09375.87891s-.48633.42383-.80859.3584l-.93945-.2041-.71094.64551c-.1416.12793-.32227.19434-.50391.19434Z" fill="var(--iconPrimary, #222)"/>
  <path d="M14.43799,7.68701c-.1792,0-.35986-.04639-.52344-.14111-.39453-.22803-.59473-.68018-.49854-1.12549l.41064-1.90137-1.30664-1.44092c-.30615-.33789-.3584-.83008-.13037-1.22461.22705-.39453.67627-.5957,1.125-.49854l1.90137.41064,1.44141-1.30664c.33691-.30615.82959-.35938,1.22461-.13037.39453.22803.59521.68018.49854,1.12549l-.41064,1.90186,1.30615,1.44043c.30615.3374.35889.8291.13135,1.22412-.22803.39453-.68213.59521-1.12598.49902l-1.90137-.41064-1.44092,1.30664c-.19775.1792-.44824.27148-.70117.27148ZM14.58301,3.12012l.41016.45215h0c.28906.31934.40771.76123.31738,1.18262l-.12939.59766.45215-.41016c.31836-.28809.75928-.40674,1.18262-.31738l.59717.12939-.41016-.45215c-.29004-.32129-.4082-.76367-.31641-1.18457l.12891-.5957-.45264.41016c-.31836.28906-.76074.4082-1.18213.31738l-.59766-.12939ZM13.88135,4.57959s.00049,0,.00049.00049l-.00049-.00049Z" fill="var(--iconPrimary, #222)"/>
</svg>