<?xml version="1.0" encoding="UTF-8"?>
<svg xmlns="http://www.w3.org/2000/svg" width="20" height="20" viewBox="0 0 20 20">
  <path id="b" data-name="Path 1005062" d="M14.07955,5.85525c0,.60414-.49249,1.07257-1.1,1.07257-.60751,0-1.1-.48021-1.1-1.07257,0-.59236.49249-1.07257,1.1-1.07257s1.1.46843,1.1,1.07257Z" fill="var(--iconPrimary, #222)"/>
  <path d="M7.25,12.02148H3c-.41406,0-.75.33594-.75.75s.33594.75.75.75h2.43921l-4.09448,4.09375c-.29297.29297-.29297.76758,0,1.06055.14648.14648.33789.21973.53027.21973.19141,0,.38379-.07324.53027-.21973l4.09473-4.09399v2.4397c0,.41406.33594.75.75.75s.75-.33594.75-.75v-4.25c0-.41406-.33594-.75-.75-.75Z" fill="var(--iconPrimary, #222)"/>
  <path d="M2.75,10.5c-.41406,0-.75-.33594-.75-.75v-5.5c0-1.24023,1.00977-2.25,2.25-2.25h11.5c1.24023,0,2.25,1.00977,2.25,2.25v4.39355c0,.41406-.33594.75-.75.75s-.75-.33594-.75-.75v-4.39355c0-.41309-.33691-.75-.75-.75H4.25c-.41309,0-.75.33691-.75.75v5.5c0,.41406-.33594.75-.75.75Z" fill="var(--iconPrimary, #222)"/>
  <path d="M9.75977,11.50391c-.18848,0-.37793-.07129-.52344-.21289l-2.20703-2.15234c-.18555-.18164-.50098-.18164-.68652,0l-1.28906,1.16699c-.30566.27734-.78027.25586-1.05859-.05273-.27832-.30664-.25488-.78125.05273-1.05859l1.26855-1.14844c.74512-.72949,1.99414-.72754,2.75977.01855l2.20703,2.15234c.29688.28906.30273.76465.01367,1.06055-.14746.15137-.3418.22656-.53711.22656Z" fill="var(--iconPrimary, #222)"/>
  <circle cx="15" cy="15" r="4.5" fill="var(--iconBluePrimary, #0063e4)"/>
  <path d="M14.58594,17.25488c-.17676,0-.3457-.0752-.46484-.20703l-1.4375-1.59863c-.23047-.25684-.20996-.65234.04688-.88281.25488-.23047.65137-.20996.88281.04688l.92285,1.02734,1.85547-2.5293c.20312-.27832.59375-.33984.87305-.13477.2793.2041.33887.59473.13477.87305l-2.30957,3.14941c-.11133.15234-.28516.24609-.47266.25488-.01074.00098-.02051.00098-.03125.00098Z" fill="var(--iconGapColor, #fdfdfd)"/>
</svg>