<?xml version="1.0" encoding="UTF-8"?>
<svg xmlns="http://www.w3.org/2000/svg" width="20" height="20" viewBox="0 0 20 20">
  <path d="M15.75,18H4.25c-1.24023,0-2.25-1.00977-2.25-2.25v-3.03809c0-.41406.33594-.75.75-.75s.75.33594.75.75v3.03809c0,.41309.33691.75.75.75h11.5c.41309,0,.75-.33691.75-.75v-6.75c0-.41406.33594-.75.75-.75s.75.33594.75.75v6.75c0,1.24023-1.00977,2.25-2.25,2.25Z" fill="var(--iconPrimary, #222)"/>
  <path d="M17.25,2h-3.25c-.41406,0-.75.33594-.75.75s.33594.75.75.75h1.43945l-3.61719,3.61719c-.29297.29297-.29297.76758,0,1.06055.14648.14648.33789.21973.53027.21973s.38379-.07324.53027-.21973l3.61719-3.61719v1.43945c0,.41406.33594.75.75.75s.75-.33594.75-.75v-3.25c0-.41406-.33594-.75-.75-.75Z" fill="var(--iconPrimary, #222)"/>
  <circle cx="12.5" cy="14.82353" r=".75" fill="var(--iconPrimary, #222)"/>
  <circle cx="12.5" cy="12.48529" r=".75" fill="var(--iconPrimary, #222)"/>
  <circle cx="12.5" cy="10.14706" r=".75" fill="var(--iconPrimary, #222)"/>
  <circle cx="7.15407" cy="8.13235" r=".75" fill="var(--iconPrimary, #222)"/>
  <circle cx="9.54412" cy="8.13235" r=".75" fill="var(--iconPrimary, #222)"/>
  <path d="M2.05566,9.8125c-.12891,0-.25781-.0332-.375-.10059-.28223-.16309-.42676-.48926-.3584-.80762l.20312-.93945-.64551-.71191c-.21875-.24121-.25684-.59668-.09375-.87891s.49121-.42188.80762-.3584l.93945.20312.71191-.64551c.24121-.21875.59668-.25684.87891-.09375s.42676.48926.3584.80762l-.20312.93945.64551.71191c.21875.24219.25684.59668.09375.87891s-.49219.42188-.80762.3584l-.93945-.20312-.71191.64551c-.1416.12793-.32227.19434-.50391.19434Z" fill="var(--iconPrimary, #222)"/>
  <path d="M6.23828,6.58594c-.16992,0-.34082-.04297-.49609-.13281-.37695-.21582-.56934-.64648-.47852-1.07129l.33008-1.52441-1.0459-1.15332c-.29102-.31934-.34277-.78809-.12598-1.16406.21484-.37793.65039-.56738,1.07129-.47852l1.52441.33008,1.15332-1.0459c.31934-.29102.78809-.34277,1.16406-.12598.37695.21582.56934.64648.47852,1.07129l-.33008,1.52441,1.0459,1.15332c.29102.31934.34277.78809.12598,1.16406-.21582.37695-.65234.56348-1.07129.47852l-1.52441-.33008-1.15332,1.0459c-.1875.1709-.42676.25879-.66797.25879ZM5.89941,5.21582c-.00098,0-.00195.00098-.00195.00098l.00195-.00098ZM9.41797,4.97559c0,.00098.00098.00195.00098.00195l-.00098-.00195ZM6.79395,2.94824c.26758.29492.37793.7041.29395,1.0957l-.02539.11719.08789-.08008c.29395-.26758.69824-.37891,1.0957-.29395l.11719.02539-.08008-.08789c-.26758-.29492-.37793-.7041-.29395-1.0957l.02539-.11719-.08789.08008c-.29785.26758-.70508.37695-1.0957.29395l-.11719-.02539.08008.08789ZM5.68164,3.95508q.00098.00098.00195.00098h-.00098l-.00098-.00098ZM5.6582,1.69531l.00098.00195c0-.00098-.00098-.00195-.00098-.00195ZM9.17969,1.45605l-.00195.00098c.00098,0,.00195-.00098.00195-.00098Z" fill="var(--iconPrimary, #222)"/>
</svg>