<?xml version="1.0" encoding="UTF-8"?>
<svg id="a" data-name="outline / production" xmlns="http://www.w3.org/2000/svg" width="20" height="20" viewBox="0 0 20 20">
  <path d="M18.27637,6.59668c-.30371-.28125-.77783-.2627-1.06006.04199-.28125.30371-.2627.77832.0415,1.05957.15625.14453.24219.33984.24219.55176v7.21094l-1.90918-1.90918c-.8501-.84961-2.3335-.84961-3.18164,0l-1.23193,1.23145c-.09717.09766-.25684.09668-.354.00098l-3.23193-3.23242c-.84961-.84961-2.3335-.84961-3.18213,0l-1.90918,1.90918v-5.21094c0-.41309.33643-.75.75-.75h1.16455c.41406,0,.75-.33594.75-.75s-.33594-.75-.75-.75h-1.16455c-1.24072,0-2.25,1.00977-2.25,2.25v8.5c0,1.24023,1.00928,2.25,2.25,2.25h13.5c1.24072,0,2.25-1.00977,2.25-2.25v-8.5c0-.62598-.26367-1.22852-.72363-1.65332ZM3.25,17.5c-.41357,0-.75-.33691-.75-.75v-1.16797l2.97021-2.96973c.28223-.2832.77686-.2832,1.06006,0l3.23291,3.2334c.68164.67969,1.7915.68164,2.47412-.00098l1.23291-1.23242c.28223-.2832.77686-.2832,1.06006,0l2.70074,2.70068c-.1311.11206-.29553.18701-.48102.18701H3.25Z" fill="var(--iconPrimary, #222)"/>
  <path d="M7.7085,9.9043c-.12891,0-.2583-.0332-.375-.10059-.28223-.16309-.42676-.48926-.35791-.80762l.20264-.93945-.64551-.71191c-.21875-.24121-.25684-.59668-.09375-.87891.1626-.28125.48779-.42285.80762-.3584l.93945.20312.71191-.64551c.2417-.21875.59766-.25586.87891-.09375.28223.16309.42676.48926.35791.80762l-.20264.93945.64551.71191c.21875.24121.25684.59668.09375.87891-.16211.28223-.48877.4248-.80762.3584l-.93945-.20312-.71191.64551c-.1416.12793-.32227.19434-.50391.19434Z" fill="var(--iconPrimary, #222)"/>
  <path d="M12.09668,6.79199c-.1709,0-.34277-.04395-.49854-.13379-.37549-.2168-.56689-.64746-.47559-1.07227l.3291-1.52246-1.04541-1.15332c-.29102-.32031-.3418-.78906-.12549-1.16504.21631-.37695.64551-.56738,1.07178-.47754l1.52344.33008,1.15283-1.0459c.32129-.29102.79053-.33984,1.1665-.12598.37646.21777.56787.64844.47656,1.07324l-.3291,1.52246,1.04541,1.15234c.29199.32324.3418.79297.12402,1.16797-.21826.37598-.64795.56543-1.07324.47363l-1.52051-.32812-1.15332,1.0459c-.18848.1709-.42725.25879-.66846.25879ZM12.65234,3.1543c.26904.29688.37842.70703.29346,1.09766l-.02539.11523.08887-.08008c.2959-.26758.70557-.37793,1.09473-.29395l.11816.02539-.08008-.08789c-.26904-.29883-.37793-.70801-.29346-1.09766l.0249-.11523-.08838.08008c-.2959.26855-.7041.37891-1.09521.29395l-.11768-.02539.08008.08789Z" fill="var(--iconPrimary, #222)"/>
  <circle cx="13.73492" cy="10.18116" r="1.375" fill="var(--iconPrimary, #222)"/>
</svg>