<?xml version="1.0" encoding="UTF-8"?>
<svg   xmlns="http://www.w3.org/2000/svg" width="20" height="20" viewBox="0 0 20 20">
  <path d="M10.00064,5.26036c.23065-.00813.45538.07387.62661.22862.33033.36505.33033.92102,0,1.28607-.16935.15851-.39483.24308-.62664.23504-.23635.00948-.46589-.08035-.63302-.24775-.16207-.1679-.24916-.39432-.24137-.62755-.01238-.23497.06959-.46515.2277-.6394.17358-.16474.40786-.24988.64671-.23503Z" fill="var(--iconPrimary, #222)" stroke-width="0"/>
  <path d="M10,15.06445c-.41406,0-.75-.33594-.75-.75v-4.83496c0-.41406.33594-.75.75-.75s.75.33594.75.75v4.83496c0,.41406-.33594.75-.75.75Z" fill="var(--iconPrimary, #222)" stroke-width="0"/>
  <path d="M10,18.75c-4.33008,0-7.96484-3.09961-8.64258-7.37109-.0166-.1084-.03223-.21777-.04492-.32715-.04785-.41211.24609-.78418.65723-.83301.41602-.04297.78418.24512.83301.65723.01074.08984.02246.17969.03711.26855.56055,3.53809,3.57227,6.10547,7.16016,6.10547,3.99805,0,7.25-3.25195,7.25-7.25,0-3.94336-3.20703-7.19531-7.14746-7.24902l-.10254-.00098c-.18359,0-.36523.00684-.5459.01953-.40625.03516-.77051-.2832-.7998-.69629-.02832-.41309.2832-.77148.69629-.7998.21387-.01465.43066-.02344.64941-.02344l.13184.00098c4.74805.06543,8.61816,3.98926,8.61816,8.74902,0,4.8252-3.9248,8.75-8.75,8.75Z" fill="var(--iconPrimary, #222)" stroke-width="0"/>
  <path d="M1.04746,8.79785c-.10742,0-.21484-.02734-.3125-.0835-.23535-.13574-.35596-.4082-.29834-.67334l.12598-.58398-.40088-.44238c-.18213-.20117-.21387-.49707-.07764-.73193.13477-.23535.40625-.35889.67285-.29834l.5835.12598.44238-.40088c.20068-.18262.49756-.21533.73193-.07764.23535.13574.35596.40771.29834.67285l-.12598.58301.40088.44238c.18262.20117.21436.49707.07861.73242-.13623.23486-.40723.35596-.67334.29834l-.5835-.12598-.44238.40088c-.11816.10693-.26855.16211-.41992.16211Z" fill="var(--iconPrimary, #222)" stroke-width="0"/>
  <path d="M4.15586,5.5835c-.10742,0-.21484-.02734-.3125-.0835-.23535-.13574-.35596-.4082-.29834-.67334l.30127-1.39551-.9585-1.05762c-.18262-.20117-.21436-.49707-.07812-.73242.13525-.23535.40479-.35889.67334-.29834l1.39502.30176,1.05762-.95898c.20166-.18311.49756-.21533.73242-.07812.23535.13574.35596.40771.29834.67334l-.30176,1.39502.95898,1.05762c.18262.20117.21436.49707.07861.73242-.13574.23486-.40674.35596-.67334.29834l-1.39551-.30127-1.05762.9585c-.11816.10693-.26855.16211-.41992.16211Z" fill="var(--iconPrimary, #222)" stroke-width="0"/>
</svg>