<?xml version="1.0" encoding="UTF-8"?>
<svg   xmlns="http://www.w3.org/2000/svg" width="20" height="20" viewBox="0 0 20 20">
  <path d="M7.64502,17.99121c-.0376,0-.0752-.00293-.11279-.00879-.23584-.03613-.44043-.18164-.55127-.39258l-1.56592-2.9834c-.01904-.03613-.04932-.06641-.08545-.08594l-2.9834-1.56543c-.21094-.11035-.35693-.31543-.39258-.55078-.03613-.23633.04199-.47461.21045-.64355l.75391-.75488c.13721-.13672.32178-.21582.51562-.21973l2.14502-.04395c.05078-.00098.10254-.02246.13916-.05957l1.93164-1.92969-2.99902-.83203c-.59033-.16406-1.03564-.61523-1.19189-1.20801-.15576-.5918.00977-1.2041.44336-1.6377.34033-.34082.81885-.52734,1.29492-.49609l6.20557.3252c.06055-.00293.11377-.01855.15527-.05957l1.57324-1.57617c.95264-.95215,2.94336-1.9834,4.23047-.69434,1.32275,1.32324.07764,3.45801-.69336,4.22949l-1.57617,1.57617c-.04102.04102-.06201.09668-.05908.1543l.32568,6.20801c.02539.48145-.15576.95312-.49707,1.29395-.43213.43262-1.04297.59668-1.6377.44238-.59229-.15625-1.04395-.60156-1.20801-1.19141l-.83154-3-1.93066,1.93066c-.03662.03711-.05859.08789-.05957.14062l-.04443,2.14453c-.00439.19336-.08301.37793-.21973.51465l-.75439.75391c-.1416.1416-.33301.21973-.53027.21973ZM4.26758,12.26953l1.75879.92285c.30664.16113.55469.40918.7168.7168l.92285,1.75879.02783-1.3418c.00977-.44238.18701-.85742.49902-1.16895l2.2334-2.2334c.31885-.31836.76855-.44043,1.20215-.32422.43408.11426.76562.44043.88623.87305l.94629,3.41309c.02588.09277.09277.12793.14453.1416.05225.01562.12793.01562.1958-.05273.04102-.04102.06201-.09668.05908-.1543l-.32568-6.20801c-.02539-.48145.15576-.95312.49707-1.29395l1.57568-1.5752c.41553-.41602,1.12598-1.67578.69336-2.1084-.49072-.48926-1.72168.30762-2.10791.69336l-1.57422,1.57715c-.34229.3418-.81396.52441-1.2959.49707l-6.20557-.3252c-.06006.00098-.11377.01758-.15381.05762-.06934.06934-.06738.14551-.0542.19629.01367.05176.04932.11914.14258.14453l3.41162.94629c.43311.12012.76025.45215.87451.88672.11475.43555-.00684.88477-.32471,1.20215h0l-2.23486,2.23242c-.31104.31152-.72559.48828-1.1665.49902l-1.34424.02734Z"/>
</svg>