<?xml version="1.0" encoding="UTF-8"?>
<svg xmlns="http://www.w3.org/2000/svg" width="20" height="20" viewBox="0 0 20 20">
  <path d="m6.16406,18.3877c-1.00391,0-1.94629-.3916-2.65527-1.10254l-.77539-.77734c-1.4541-1.45703-1.45605-3.83105-.00488-5.29004L11.1748,2.71973c.70898-.71387,1.65234-1.10645,2.65723-1.10742h.00391c1.00391,0,1.94629.3916,2.65527,1.10254l.77539.77734c1.4541,1.45703,1.45605,3.83105.00488,5.29004l-8.44629,8.49805c-.70898.71387-1.65234,1.10645-2.65723,1.10742h-.00391ZM13.83594,3.1123h-.00195c-.60352,0-1.16992.23633-1.59473.66406L3.79297,12.27441c-.87109.87598-.86914,2.2998.00293,3.1748l.77539.77734h0c.4248.42676.99121.66113,1.59277.66113h.00195c.60352,0,1.16992-.23633,1.59473-.66406l8.44629-8.49805c.87109-.87598.86914-2.2998-.00293-3.1748l-.77539-.77734c-.4248-.42676-.99121-.66113-1.59277-.66113Z" fill="var(--iconPrimary, #222)"/>
  <circle cx="10" cy="8.12868" r=".75" fill="var(--iconPrimary, #222)"/>
  <circle cx="11.87132" cy="10" r=".75" fill="var(--iconPrimary, #222)"/>
  <circle cx="8.12868" cy="10" r=".75" fill="var(--iconPrimary, #222)"/>
  <circle cx="10" cy="11.87132" r=".75" fill="var(--iconPrimary, #222)"/>
  <path d="m1.88965,8.79785c-.10742,0-.21484-.02734-.3125-.08398-.23535-.13477-.35547-.40723-.29883-.67285l.12598-.58398-.40039-.44141c-.18262-.20117-.21387-.49707-.07812-.73242s.4082-.35254.67285-.29883l.58398.12598.44141-.40039c.20117-.18457.49609-.21582.73242-.07812.23535.13574.35547.40723.29883.67285l-.12598.58398.40039.44141c.18262.20117.21387.49707.07812.73242s-.40918.35254-.67285.29883l-.58398-.12695-.44141.40137c-.11816.10645-.26855.16211-.41992.16211Z" fill="var(--iconPrimary, #222)"/>
  <path d="m4.99707,5.58398c-.10742,0-.21484-.02734-.3125-.08398-.23535-.13574-.35547-.4082-.29883-.67285l.30273-1.39648-.95898-1.05664c-.18262-.20117-.21387-.49707-.07812-.73242s.41016-.35156.67285-.29883l1.39551.30176,1.05762-.95898c.20117-.18457.49707-.21484.73242-.07812.23535.13574.35547.40723.29883.67285l-.30176,1.39551.95801,1.05762c.18262.20117.21387.49707.07812.73242s-.40918.35156-.67285.29883l-1.39551-.30176-1.05762.95898c-.11816.10742-.26855.16211-.41992.16211Z" fill="var(--iconPrimary, #222)"/>
</svg>