<?xml version="1.0" encoding="UTF-8"?>
<svg id="e" data-name="icons" xmlns="http://www.w3.org/2000/svg" width="20" height="20" viewBox="0 0 20 20">
  <g>
    <path d="M8.90143,8.82129l-.21735-.68829c-.07245-.22943-.13885-.45081-.19922-.66412-.06042-.2132-.11475-.40839-.16302-.58563h-.01208c-.06799.32611-.15259.64856-.25354.966-.11285.36224-.2276.73254-.34418,1.1109-.11682.37848-.23151.72864-.34412,1.05054h1.90784c-.04834-.16095-.10468-.3421-.16907-.5434-.06451-.20111-.13293-.41644-.20526-.646Z" fill="#6e6e6e"/>
    <path d="M15.8125,1H4.1875c-1.76044,0-3.1875,1.42706-3.1875,3.1875v11.125c0,1.76038,1.42706,3.1875,3.1875,3.1875h11.625c1.76044,0,3.1875-1.42712,3.1875-3.1875V4.1875c0-1.76044-1.42706-3.1875-3.1875-3.1875ZM12.02887,13.40375h-1.56976c-.05579.00616-.10748-.03003-.12079-.08453l-.61578-1.78711h-2.78931l-.56757,1.76294c-.01593.06635-.07678.11194-.1449.1087h-1.41278c-.08057,0-.1087-.04431-.08447-.13281l2.41498-6.95526c.02417-.07239.04828-.15491.07245-.2475.03162-.16113.04773-.32489.04828-.48901-.0058-.04089.02258-.07874.06348-.08453.00696-.00104.0141-.00104.02106,0h1.91992c.05621,0,.08844.02008.09662.06036l2.74103,7.72797c.02411.08057,0,.12085-.07245.12079ZM14.57654,13.28296c0,.08057-.03223.12085-.09662.12079h-1.47314c-.07245,0-.10864-.04028-.1087-.12079v-5.77185c0-.07245.0321-.10864.09662-.10864h1.48523c.06433,0,.09656.03619.09662.10864v5.77185ZM14.4256,6.50891c-.1842.18158-.43597.27789-.69434.26562-.24908.01001-.4906-.08661-.66412-.26562-.17273-.18652-.26398-.43427-.2536-.68829-.00885-.25183.08997-.49554.27173-.67017.17975-.17255.42108-.26599.67017-.25958.28979,0,.51721.08655.68225.25958.16821.1817.25726.42279.2475.67017.01019.25513-.08344.50348-.25958.68829Z" fill="#6e6e6e"/>
  </g>
  <g>
    <path d="M8.90143,8.82129l-.21735-.68829c-.07245-.22943-.13885-.45081-.19922-.66412-.06042-.2132-.11475-.40839-.16302-.58563h-.01208c-.06799.32611-.15259.64856-.25354.966-.11285.36224-.2276.73254-.34418,1.1109-.11682.37848-.23151.72864-.34412,1.05054h1.90784c-.04834-.16095-.10468-.3421-.16907-.5434-.06451-.20111-.13293-.41644-.20526-.646Z" fill="var(--iconPrimary, #222)"/>
    <path d="M15.8125,1H4.1875c-1.76044,0-3.1875,1.42706-3.1875,3.1875v11.125c0,1.76038,1.42706,3.1875,3.1875,3.1875h11.625c1.76044,0,3.1875-1.42712,3.1875-3.1875V4.1875c0-1.76044-1.42706-3.1875-3.1875-3.1875ZM12.02887,13.40375h-1.56976c-.05579.00616-.10748-.03003-.12079-.08453l-.61578-1.78711h-2.78931l-.56757,1.76294c-.01593.06635-.07678.11194-.1449.1087h-1.41278c-.08057,0-.1087-.04431-.08447-.13281l2.41498-6.95526c.02417-.07239.04828-.15491.07245-.2475.03162-.16113.04773-.32489.04828-.48901-.0058-.04089.02258-.07874.06348-.08453.00696-.00104.0141-.00104.02106,0h1.91992c.05621,0,.08844.02008.09662.06036l2.74103,7.72797c.02411.08057,0,.12085-.07245.12079ZM14.57654,13.28296c0,.08057-.03223.12085-.09662.12079h-1.47314c-.07245,0-.10864-.04028-.1087-.12079v-5.77185c0-.07245.0321-.10864.09662-.10864h1.48523c.06433,0,.09656.03619.09662.10864v5.77185ZM14.4256,6.50891c-.1842.18158-.43597.27789-.69434.26562-.24908.01001-.4906-.08661-.66412-.26562-.17273-.18652-.26398-.43427-.2536-.68829-.00885-.25183.08997-.49554.27173-.67017.17975-.17255.42108-.26599.67017-.25958.28979,0,.51721.08655.68225.25958.16821.1817.25726.42279.2475.67017.01019.25513-.08344.50348-.25958.68829Z" fill="var(--iconPrimary, #222)"/>
  </g>
</svg>