<?xml version="1.0" encoding="UTF-8"?>
<svg xmlns="http://www.w3.org/2000/svg" width="20" height="20" viewBox="0 0 20 20">
  <path d="m9.91818,13.2491c-.21875,0-.43945-.05664-.63867-.17188-.48145-.27832-.72461-.83008-.60645-1.37305l.72754-3.37402-2.31836-2.55762c-.37305-.41211-.4375-1.01172-.15918-1.49316.27832-.48242.83496-.72559,1.37305-.60645l3.37402.72754,2.55762-2.31836c.41309-.375,1.0127-.43652,1.49316-.15918.48145.27832.72461.83008.60645,1.37305l-.72754,3.37402,2.31836,2.55762c.37305.41113.43652,1.01074.15918,1.49219-.27832.48047-.82812.72559-1.37207.6084l-3.37402-.72949-2.55859,2.31934c-.24121.21875-.54688.33105-.85449.33105Zm.97363-4.71582l-.60449,2.7998,2.12207-1.92383c.30273-.27441.7207-.3877,1.12207-.30176l2.80176.60547-1.92383-2.12207c-.27539-.30469-.3877-.72559-.2998-1.12598l.60352-2.79785-2.12207,1.92383c-.30469.27539-.72461.38672-1.12598.2998l-2.79785-.60352,1.92383,2.12207c.27539.30371.3877.72363.30078,1.12402Zm4.68359-1.75098v.00098-.00098Zm-3.79297-2.35742h.00098-.00098Z" fill="var(--iconPrimary, #222)"/>
  <path d="m3.3457,18.25195c-.12891,0-.25781-.0332-.375-.10059-.28223-.16309-.42676-.48926-.3584-.80762l.30664-1.41797-.97461-1.07422c-.21875-.24121-.25684-.59668-.09375-.87891s.49121-.42285.80762-.3584l1.41797.30664,1.07422-.97461c.24219-.21973.5957-.25684.87891-.09375.28223.16309.42676.48926.3584.80762l-.30664,1.41797.97461,1.07422c.21875.24121.25684.59668.09375.87891s-.49219.4209-.80762.3584l-1.41797-.30664-1.07422.97461c-.1416.12793-.32227.19434-.50391.19434Z" fill="var(--iconPrimary, #222)"/>
</svg>