<?xml version="1.0" encoding="UTF-8"?>
<svg id="f" data-name="ICONS" xmlns="http://www.w3.org/2000/svg" width="20" height="20" viewBox="0 0 20 20">
  <path d="M18.75,16h-1.86707c-.32886-1.15063-1.37805-2-2.63293-2s-2.30408.84937-2.63293,2H1.24902c-.41406,0-.75.33594-.75.75s.33594.75.75.75h10.36804c.32886,1.15063,1.37805,2,2.63293,2s2.30408-.84937,2.63293-2h1.86707c.41406,0,.75-.33594.75-.75s-.33594-.75-.75-.75ZM14.25,18c-.68945,0-1.25-.56055-1.25-1.25s.56055-1.25,1.25-1.25,1.25.56055,1.25,1.25-.56055,1.25-1.25,1.25Z" fill="var(--iconPrimary, #222)"/>
  <path d="M10.7168,11.69141c-.21094,0-.42285-.05371-.61523-.16504-.46484-.26855-.70117-.80078-.58789-1.32617l.66113-3.06152-2.10352-2.32031c-.36035-.39746-.42188-.97656-.1543-1.44043.26855-.46582.80664-.69629,1.3252-.58789l3.0625.66113,2.31934-2.10352c.39844-.36035.97852-.42188,1.44238-.15332s.7002.80078.58691,1.32422l-.66113,3.0625,2.10352,2.31934c.36035.39844.42188.97754.15332,1.44238-.26758.46387-.79102.70117-1.3252.58691l-3.06152-.66113-2.32031,2.10352c-.23242.21094-.52734.31934-.8252.31934ZM11.6709,7.32129l-.51367,2.375,1.80078-1.63281c.29297-.2666.69824-.37695,1.08887-.29004l2.37305.5127-1.63281-1.80078c-.2666-.29492-.375-.70117-.29004-1.08887l.5127-2.37305-1.80078,1.63281c-.29297.26367-.69531.37598-1.08398.29102l-2.37695-.51367,1.63184,1.80078c.2666.29395.375.7002.29102,1.08691ZM13.72754,9.23926h.00098-.00098ZM13.96777,9.17285l-.00098.00098.00098-.00098ZM15.96289,5.71484v.00098-.00098Z" fill="var(--iconPrimary, #222)"/>
  <path d="M7.9082,12.77246l-.87109-.96094.27441-1.26758c.06836-.31836-.07617-.64453-.3584-.80762-.28223-.16211-.6377-.12598-.87891.09375l-.96094.87109-1.26855-.27441c-.31543-.06543-.64453.07617-.80762.3584s-.125.6377.09375.87891l.87109.96094-.27441,1.26855c-.06836.31836.07617.64453.3584.80762.11719.06738.24609.10059.375.10059.18164,0,.3623-.06641.50391-.19434l.96191-.87207,1.26758.27441c.31641.06348.64453-.07617.80762-.3584s.125-.6377-.09375-.87891Z" fill="var(--iconPrimary, #222)"/>
</svg>