<?xml version="1.0" encoding="UTF-8"?>
<svg id="f" data-name="ICONS" xmlns="http://www.w3.org/2000/svg" width="20" height="20" viewBox="0 0 20 20">
  <path d="M17.7002,14.5c-.052,0-.10083.01196-.1521.01538l-1.91357-3.22925c.37891-.40283.61548-.94116.61548-1.53613,0-1.24023-1.00977-2.25-2.25-2.25-.19507,0-.3811.03284-.56177.07983l-1.71741-2.89807c.32532-.39026.52917-.88538.52917-1.43176,0-1.24023-1.00977-2.25-2.25-2.25s-2.25,1.00977-2.25,2.25c0,.54639.20386,1.0415.52917,1.43176l-1.71741,2.89807c-.18066-.047-.3667-.07983-.56177-.07983-1.24023,0-2.25,1.00977-2.25,2.25,0,.59497.23657,1.1333.61548,1.53613l-1.91357,3.22925c-.05127-.00342-.1001-.01538-.1521-.01538C1.05957,14.5.0498,15.50977.0498,16.75s1.00977,2.25,2.25,2.25c.97607,0,1.8009-.62915,2.11169-1.5h3.47693c.31079.87085,1.1355,1.5,2.11157,1.5s1.8009-.62915,2.11169-1.5h3.47693c.31079.87085,1.1355,1.5,2.11157,1.5,1.24023,0,2.25-1.00977,2.25-2.25s-1.00977-2.25-2.25-2.25ZM14,9c.41418,0,.75.33569.75.75,0,.41418-.33582.75-.75.75s-.75-.33582-.75-.75c0-.41431.33582-.75.75-.75ZM10,2.5c.41418,0,.75.33569.75.75,0,.41418-.33582.75-.75.75s-.75-.33582-.75-.75c0-.41431.33582-.75.75-.75ZM9.56433,5.45581c.14124.02783.2865.04419.43567.04419s.29443-.01636.43567-.04419l1.75769,2.96643c-.12915.17529-.23047.36914-.30493.57776h-3.77673c-.07446-.20862-.1759-.40247-.30505-.57776l1.75769-2.96643ZM6,9c.41418,0,.75.33569.75.75,0,.41418-.33582.75-.75.75s-.75-.33582-.75-.75c0-.41431.33582-.75.75-.75ZM2.30005,17.5c-.41431,0-.75-.33582-.75-.75,0-.41431.33569-.75.75-.75.41418,0,.75.33569.75.75,0,.41418-.33582.75-.75.75ZM7.88843,16h-3.47693c-.12085-.33862-.31592-.63989-.57239-.88208l1.86523-3.14783c.09766.01306.19434.02991.29565.02991.12683,0,.24927-.01721.37036-.03748l1.92554,3.33557c-.17603.20618-.3147.44165-.40747.7019ZM10,17.5c-.41418,0-.75-.33582-.75-.75,0-.41431.33582-.75.75-.75s.75.33569.75.75c0,.41418-.33582.75-.75.75ZM10.40906,14.5415c-.13306-.02466-.26892-.0415-.40906-.0415s-.276.01685-.40906.0415l-1.91101-3.3103c.18774-.21265.33447-.45886.43176-.7312h3.77673c.09717.27234.2439.51855.43164.7312l-1.91101,3.3103ZM15.58862,16h-3.47693c-.0929-.26025-.23157-.49573-.40759-.7019l1.92554-3.33557c.12109.02026.24353.03748.37036.03748.10132,0,.198-.01685.29565-.02991l1.86523,3.14783c-.25647.24219-.45142.54346-.57227.88208ZM17.69995,17.5c-.41418,0-.75-.33582-.75-.75,0-.41431.33582-.75.75-.75.41431,0,.75.33569.75.75,0,.41418-.33569.75-.75.75Z" fill="var(--iconPrimary, #222)"/>
</svg>