<?xml version="1.0" encoding="UTF-8"?>
<svg id="f" data-name="ICONS" xmlns="http://www.w3.org/2000/svg" width="20" height="20" viewBox="0 0 20 20">
  <path d="M13.75,14h-.5c-1.24072,0-2.25-1.00977-2.25-2.25v-3.5c0-1.24023,1.00928-2.25,2.25-2.25h.5c1.24072,0,2.25,1.00977,2.25,2.25v3.5c0,1.24023-1.00928,2.25-2.25,2.25ZM13.25,7.5c-.41357,0-.75.33691-.75.75v3.5c0,.41309.33643.75.75.75h.5c.41357,0,.75-.33691.75-.75v-3.5c0-.41309-.33643-.75-.75-.75h-.5Z" fill="var(--iconPrimary, #222)"/>
  <path d="M6.75,14h-.5c-1.24072,0-2.25-1.00977-2.25-2.25v-7.5c0-1.24023,1.00928-2.25,2.25-2.25h.5c1.24072,0,2.25,1.00977,2.25,2.25v7.5c0,1.24023-1.00928,2.25-2.25,2.25ZM6.25,3.5c-.41357,0-.75.33691-.75.75v7.5c0,.41309.33643.75.75.75h.5c.41357,0,.75-.33691.75-.75v-7.5c0-.41309-.33643-.75-.75-.75h-.5Z" fill="var(--iconPrimary, #222)"/>
  <path d="M10.00098,19.18164c-.30859,0-.61816-.06348-.90527-.19043l-7.9541-3.48535c-.37988-.16602-.55273-.6084-.38574-.9873.16504-.37988.60742-.55371.9873-.38574l7.95605,3.48535c.19238.08398.40918.08398.59961,0l7.95801-3.48535c.37402-.16797.82031.00586.9873.38574.16699.37891-.00586.82129-.38574.9873l-7.95605,3.48535c-.28613.12695-.59375.19043-.90137.19043Z" fill="var(--iconPrimary, #222)"/>
</svg>