<?xml version="1.0" encoding="UTF-8"?>
<svg id="e" data-name="ICONS" xmlns="http://www.w3.org/2000/svg" width="20" height="20" viewBox="0 0 20 20">
  <path d="M17,7h-2c-1.10303,0-2,.89746-2,2v2c0,.35547.10101.68506.26447.97461-.30646.01855-.60718.09912-.88019.25684l-1.73096,1c-.25775.14844-.46906.35156-.63464.58838-.16534-.23682-.37653-.43994-.63391-.58838l-1.73193-1c-.28412-.16504-.5979-.24512-.91681-.25781.16309-.28931.26398-.61841.26398-.97363v-2c0-1.10254-.89697-2-2-2h-2c-1.10303,0-2,.89746-2,2v2c0,1.10254.89697,2,2,2h1.89948l-.97858,1.69531c-.26709.46289-.33838,1.00098-.2002,1.51758.13867.5166.46973.94727.93213,1.21387l1.73145,1c.30811.17773.65039.26953.99756.26953.17334,0,.34814-.02344.52051-.06934.51611-.1377.94727-.46875,1.21436-.93164l.9021-1.56274.9021,1.56274c.26709.46289.69824.79395,1.21436.93164.17236.0459.34668.06934.52051.06934.34668,0,.68896-.0918.99707-.26953l1.73145-1c.46289-.2666.79395-.69824.93213-1.21387.13867-.5166.06738-1.05469-.19971-1.51758l-.97858-1.69531h1.86188c1.10303,0,2-.89746,2-2v-2c0-1.10254-.89697-2-2-2ZM2.5,11v-2c0-.27539.22412-.5.5-.5h2c.27588,0,.5.22461.5.5v2c0,.27539-.22412.5-.5.5h-2c-.27588,0-.5-.22461-.5-.5ZM8.81787,15.21289l-1,1.73242c-.06689.11523-.1748.19824-.30371.23242-.12744.03516-.26367.01758-.37939-.0498l-1.73242-1c-.11572-.06738-.19824-.1748-.23242-.30371-.03467-.12891-.01709-.26367.0498-.37891l1-1.73242c.06689-.11523.1748-.19824.30371-.23242.04297-.01172.08643-.01758.12988-.01758.08643,0,.17188.02246.24902.06738l1.73291,1c.11523.06641.19775.1748.23242.30371s.01709.26367-.0498.37891ZM14.86768,15.82422c-.03467.12891-.11719.2373-.23291.30371l-1.73242,1c-.1167.06641-.25195.08398-.37891.0498-.12891-.03418-.23682-.11719-.30371-.23242l-1-1.73242c-.06689-.11523-.08447-.25-.0498-.37891.03418-.12891.1167-.23633.23291-.30371l1.73193-1h.00049c.07715-.04492.16211-.06738.24902-.06738.04346,0,.08691.00586.12988.01758.12891.03418.23682.11719.30371.23242l1,1.73242c.06689.11523.08447.25.0498.37891ZM17.5,11c0,.27539-.22412.5-.5.5h-2c-.27588,0-.5-.22461-.5-.5v-2c0-.27539.22412-.5.5-.5h2c.27588,0,.5.22461.5.5v2Z" fill="var(--iconPrimary, #222)"/>
</svg>