<?xml version="1.0" encoding="UTF-8"?>
<svg id="e" data-name="ICONS" xmlns="http://www.w3.org/2000/svg" width="20" height="20" viewBox="0 0 20 20">
  <path d="M17.69482,10.88379l-1.56262-.90234,1.56213-.90234c.46289-.2666.79395-.69727.93262-1.21387.13818-.5166.06689-1.05469-.2002-1.51758l-1-1.73242c-.26709-.46289-.69824-.79395-1.21436-.93164-.5166-.1377-1.05518-.06641-1.51758.2002l-1.56201.9021v-1.80444c0-1.10254-.89697-2-2-2h-2c-1.10303,0-2,.89746-2,2v1.8042l-1.56152-.90186c-.46289-.2666-1.00293-.33691-1.51807-.2002-.51611.1377-.94727.46875-1.21436.93164l-1,1.73242c-.26709.46289-.33838,1.00098-.2002,1.51758.13867.5166.46973.94727.93213,1.21387l1.56262.90234-1.56213.90234c-.46289.2666-.79395.69727-.93262,1.21387-.13818.5166-.06689,1.05469.2002,1.51758l1,1.73242c.26709.46289.69824.79395,1.21436.93164.17236.0459.34668.06934.52051.06934.34668,0,.68896-.0918.99707-.26953l1.56201-.9021v1.80444c0,1.10254.89697,2,2,2h2c1.10303,0,2-.89746,2-2v-1.8042l1.56152.90186c.30859.17773.65088.26953.99756.26953.17383,0,.34863-.02344.52051-.06934.51611-.1377.94727-.46875,1.21436-.93164l1-1.73242c.26709-.46289.33838-1.00098.2002-1.51758-.13867-.5166-.46973-.94727-.93213-1.21387ZM13.47998,6.48633c.03467-.12891.11719-.2373.23291-.30371l1.73242-1c.07715-.04492.1626-.06738.24902-.06738.04346,0,.08691.00586.12988.01758.12891.03418.23682.11719.30371.23242l1,1.73242c.06689.11523.08447.25.0498.37891-.03418.12891-.1167.23633-.23291.30371l-1.73242,1c-.11621.06641-.25.08398-.37891.0498s-.23682-.11719-.30371-.23242l-1-1.73242c-.06689-.11523-.08447-.25-.0498-.37891ZM8.63281,2.98145c0-.27539.22412-.5.5-.5h2c.27588,0,.5.22461.5.5v2c0,.27539-.22412.5-.5.5h-2c-.27588,0-.5-.22461-.5-.5v-2ZM3.08789,7.47656c-.03467-.12891-.01709-.26367.0498-.37891l1-1.73242c.06689-.11523.1748-.19824.30371-.23242.04297-.01172.08643-.01758.12988-.01758.08643,0,.17236.02246.24951.06738l1.73242,1c.11523.06641.19775.1748.23242.30371s.01709.26367-.0498.37891l-1,1.73242c-.06689.11523-.1748.19824-.30371.23242-.12793.03613-.26318.01758-.37939-.0498l-1.73242-1c-.11572-.06738-.19824-.1748-.23242-.30371ZM6.78564,13.47656c-.03467.12891-.11719.2373-.23291.30371l-1.73242,1c-.1167.06738-.25195.08301-.37891.0498-.12891-.03418-.23682-.11719-.30371-.23242l-1-1.73242c-.06689-.11523-.08447-.25-.0498-.37891.03418-.12891.1167-.23633.23291-.30371l1.73242-1c.07715-.04492.16211-.06738.24902-.06738.04346,0,.08691.00586.12988.01758.12891.03418.23682.11719.30371.23242l1,1.73242c.06689.11523.08447.25.0498.37891ZM11.63281,16.98145c0,.27539-.22412.5-.5.5h-2c-.27588,0-.5-.22461-.5-.5v-2c0-.27539.22412-.5.5-.5h2c.27588,0,.5.22461.5.5v2ZM13.23096,10.61523l-1,1.73242c-.14868.25781-.23004.53931-.25488.8269-.25714-.12061-.54095-.19312-.84326-.19312h-2c-.30231,0-.58612.07251-.84326.19312-.02484-.2876-.1062-.56909-.25488-.8269l-1-1.73242c-.1485-.25732-.3515-.46851-.58789-.63379.23639-.16528.43939-.37646.58789-.63379l1-1.73242c.14868-.25781.23004-.53931.25488-.8269.25714.12061.54095.19312.84326.19312h2c.30231,0,.58612-.07251.84326-.19312.02484.2876.1062.56909.25488.8269l1,1.73242c.1485.25732.3515.46851.58789.63379-.23639.16528-.43939.37646-.58789.63379ZM17.12793,12.86523l-1,1.73242c-.06689.11523-.1748.19824-.30371.23242-.12793.03613-.26318.01758-.37939-.0498l-1.73242-1c-.11523-.06641-.19775-.1748-.23242-.30371s-.01709-.26367.0498-.37891l1-1.73242c.06689-.11523.1748-.19824.30371-.23242.04297-.01172.08643-.01758.12988-.01758.08643,0,.17236.02246.24951.06738l1.73242,1c.11572.06738.19824.1748.23242.30371.03467.12891.01709.26367-.0498.37891Z" fill="var(--iconPrimary, #222)"/>
</svg>