<?xml version="1.0" encoding="UTF-8"?>
<svg xmlns="http://www.w3.org/2000/svg" width="20" height="20" viewBox="0 0 20 20">
  <path d="m15.75,8h-1.5c-1.24072,0-2.25-1.00928-2.25-2.25v-1.5c0-1.24072,1.00928-2.25,2.25-2.25h1.5c1.24072,0,2.25,1.00928,2.25,2.25v1.5c0,1.24072-1.00928,2.25-2.25,2.25Zm-1.5-4.5c-.41357,0-.75.33643-.75.75v1.5c0,.41357.33643.75.75.75h1.5c.41357,0,.75-.33643.75-.75v-1.5c0-.41357-.33643-.75-.75-.75h-1.5Zm-8.5,4.5h-1.5c-1.24072,0-2.25-1.00928-2.25-2.25v-1.5c0-1.24072,1.00928-2.25,2.25-2.25h1.5c1.24072,0,2.25,1.00928,2.25,2.25v1.5c0,1.24072-1.00928,2.25-2.25,2.25Zm-1.5-4.5c-.41357,0-.75.33643-.75.75v1.5c0,.41357.33643.75.75.75h1.5c.41357,0,.75-.33643.75-.75v-1.5c0-.41357-.33643-.75-.75-.75h-1.5Zm11.5,14.5h-1.5c-1.24072,0-2.25-1.00928-2.25-2.25v-1.5c0-1.24072,1.00928-2.25,2.25-2.25h1.5c1.24072,0,2.25,1.00928,2.25,2.25v1.5c0,1.24072-1.00928,2.25-2.25,2.25Zm-1.5-4.5c-.41357,0-.75.33643-.75.75v1.5c0,.41357.33643.75.75.75h1.5c.41357,0,.75-.33643.75-.75v-1.5c0-.41357-.33643-.75-.75-.75h-1.5Zm-8.5,4.5h-1.5c-1.24072,0-2.25-1.00928-2.25-2.25v-1.5c0-1.24072,1.00928-2.25,2.25-2.25h1.5c1.24072,0,2.25,1.00928,2.25,2.25v1.5c0,1.24072-1.00928,2.25-2.25,2.25Zm-1.5-4.5c-.41357,0-.75.33643-.75.75v1.5c0,.41357.33643.75.75.75h1.5c.41357,0,.75-.33643.75-.75v-1.5c0-.41357-.33643-.75-.75-.75h-1.5Zm13.75-4h-7.5V2c0-.27637-.22363-.5-.5-.5s-.5.22363-.5.5v7.5H2c-.27637,0-.5.22363-.5.5s.22363.5.5.5h7.5v7.5c0,.27637.22363.5.5.5s.5-.22363.5-.5v-7.5h7.5c.27637,0,.5-.22363.5-.5s-.22363-.5-.5-.5Z" fill="var(--iconPrimary, #222)"/>
</svg>