<?xml version="1.0" encoding="UTF-8"?>
<svg id="c" data-name="canvas" xmlns="http://www.w3.org/2000/svg" width="20" height="20" viewBox="0 0 20 20">
  <path d="M1.07828,7.94878c-.0824.06505-.09975.17344-.05204.32522.04337.13447.14528.30141.30574.50088.64618.798,1.41596,1.46152,2.30933,1.99063.89338.52905,1.84963.91939,2.86878,1.17091,1.02351.25587,2.06866.38378,3.13547.38378,1.36608,0,2.66717-.19947,3.90313-.59847,1.23597-.39464,2.26811-.94971,3.09642-1.66528.29061-.25587.43588-.4597.43588-.61148,0-.0564-.02387-.11281-.07156-.16915-.06506-.06506-.14313-.08672-.23421-.06506-.09108.02167-.21899.07586-.38378.16264-.79364.41631-1.76072.7481-2.90131.99526-1.13623.25158-2.32236.37733-3.55833.37733-1.53087,0-3.00973-.20818-4.43653-.62449-1.4268-.41637-2.69097-1.06688-3.79252-1.9516-.16046-.12576-.29056-.20597-.39031-.24065-.09541-.03474-.17347-.02823-.23419.01952Z" fill="var(--iconPrimary, #222)"/>
  <path d="M15.53276,8.274c-.09108.08672-.11496.1778-.07156.27324.03038.06935.08893.10839.17566.1171.08672.01301.21033.0043.37076-.02602.26023-.0564.53126-.09544.81316-.1171.28189-.01737.5269-.01301.73509.01301.20818.03032.3383.08236.39034.15614.07801.11704.04984.36426-.08457.74159-.13011.37727-.30792.74374-.53347,1.09935-.08672.14313-.13877.25587-.15608.3383-.01737.08236.0043.15178.06506.20812.03897.03904.08236.05855.13005.05855.12582,0,.30792-.1106.54648-.33173.42932-.37297.73073-.81537.90417-1.32705.09544-.26459.15399-.54212.17565-.83267.02167-.29061-.01086-.49873-.09759-.62449-.08237-.12146-.26453-.2212-.54642-.29926-.27754-.07807-.55728-.1171-.83918-.1171-.55078,0-1.07332.13012-1.56776.39034-.1821.09973-.31872.19296-.4098.27968Z" fill="var(--iconPrimary, #222)"/>
</svg>