<?xml version="1.0" encoding="UTF-8"?>
<svg xmlns="http://www.w3.org/2000/svg" width="28.00005" height="28" viewBox="0 0 28.00005 28">
  <g id="circles">
    <circle id="Ellipse_10213" data-name="Ellipse 10213" cx="14.00002" cy="14" r="14.00001" fill="#9a47e2"/>
  </g>
  <g id="ICONS">
    <rect id="S2_Icon_MixModeler_20_N" x="5" y="5" width="18" height="18" fill="none" opacity=".1"/>
    <path d="M20.525,21.2H7.475c-.37266,0-.675-.30234-.675-.675s.30234-.675.675-.675h13.05c.37266,0,.675.30234.675.675s-.30234.675-.675.675Z" fill="#fff"/>
    <path d="M11.075,18.5c-.37266,0-.675-.30234-.675-.675v-3.825c0-.37266.30234-.675.675-.675s.675.30234.675.675v3.825c0,.37266-.30234.675-.675.675Z" fill="#fff"/>
    <path d="M8.375,18.5c-.37266,0-.675-.30234-.675-.675v-1.8c0-.37266.30234-.675.675-.675s.675.30234.675.675v1.8c0,.37266-.30234.675-.675.675Z" fill="#fff"/>
    <path d="M13.775,18.5c-.37266,0-.675-.30234-.675-.675v-6.075c0-.37266.30234-.675.675-.675s.675.30234.675.675v6.075c0,.37266-.30234.675-.675.675Z" fill="#fff"/>
    <path d="M16.475,18.5c-.37266,0-.675-.30234-.675-.675v-8.325c0-.37266.30234-.675.675-.675s.675.30234.675.675v8.325c0,.37266-.30234.675-.675.675Z" fill="#fff"/>
    <path d="M19.175,18.5c-.37266,0-.675-.30234-.675-.675V7.475c0-.37266.30234-.675.675-.675s.675.30234.675.675v10.35c0,.37266-.30234.675-.675.675Z" fill="#fff"/>
  </g>
</svg>