<?xml version="1.0" encoding="UTF-8"?>
<svg xmlns="http://www.w3.org/2000/svg" width="20" height="20" viewBox="0 0 20 20">
  <path d="M18.60645,16.55859l-6.52716-8.97485c.33734-.44165.54572-.98657.54572-1.58374,0-1.44727-1.17773-2.625-2.625-2.625s-2.625,1.17773-2.625,2.625c0,.59717.20837,1.14209.54572,1.58374L1.39355,16.55859c-.24365.33496-.16943.80469.16553,1.04785.33203.24219.80322.16895,1.04736-.16504l6.5274-8.9751c.27258.09619.5611.15869.86615.15869.30499,0,.59357-.0625.86615-.15869l6.5274,8.9751c.14648.20117.375.30859.60693.30859.15332,0,.30762-.04688.44043-.14355.33496-.24316.40918-.71289.16553-1.04785ZM8.625,6c0-.75781.6167-1.375,1.375-1.375s1.375.61719,1.375,1.375-.6167,1.375-1.375,1.375-1.375-.61719-1.375-1.375Z" fill="var(--iconPrimary, #222)"/>
</svg>