<?xml version="1.0" encoding="UTF-8"?>
<svg xmlns="http://www.w3.org/2000/svg" width="20" height="20" viewBox="0 0 20 20">
  <path d="M8,10.625c-1.44727,0-2.625-1.17773-2.625-2.625s1.17773-2.625,2.625-2.625,2.625,1.17773,2.625,2.625-1.17773,2.625-2.625,2.625ZM8,6.625c-.7583,0-1.375.61719-1.375,1.375s.6167,1.375,1.375,1.375,1.375-.61719,1.375-1.375-.6167-1.375-1.375-1.375Z" fill="var(--iconPrimary, #222)"/>
  <path d="M6.2265,8.90625c-1.82965,2.34131-2.9765,5.18066-2.9765,8.09375,0,.41406.33594.75.75.75s.75-.33594.75-.75c0-2.55884.9939-5.05347,2.58368-7.12231-.48279-.17163-.87598-.52026-1.10718-.97144Z" fill="var(--iconPrimary, #222)" opacity=".4"/>
  <path d="M17,3.25c-2.91321,0-5.7525,1.14697-8.09375,2.97656.45099.23096.79993.62427.97144,1.10718,2.06897-1.58984,4.56335-2.58374,7.12231-2.58374.41406,0,.75-.33594.75-.75s-.33594-.75-.75-.75Z" fill="var(--iconPrimary, #222)" opacity=".4"/>
  <path d="M18.78027,3.46973l-2.25-2.25c-.29297-.29297-.76758-.29297-1.06055,0s-.29297.76758,0,1.06055l.99323.99316c-1.14716.0542-2.30426.271-3.44879.66797-.3916.13574-.59863.56348-.46289.95508.10742.30957.39795.50391.7085.50391.08154,0,.16455-.01367.24561-.04102.96851-.33594,1.94366-.52612,2.9082-.5835l-.94385.94385c-.29297.29297-.29297.76758,0,1.06055.14648.14648.33838.21973.53027.21973s.38379-.07324.53027-.21973l2.25-2.25c.29297-.29297.29297-.76758,0-1.06055Z" fill="var(--iconPrimary, #222)"/>
  <path d="M5.71973,15.49512l-.94525.94531c.05481-.98071.24457-1.96436.58344-2.93262.13672-.3916-.06934-.81934-.46045-.95605-.39111-.13477-.81787.07031-.95557.45996-.40021,1.14453-.61768,2.31104-.66956,3.47559l-.99207-.99219c-.29297-.29297-.76758-.29297-1.06055,0s-.29297.76758,0,1.06055l2.25,2.25c.14648.14648.33838.21973.53027.21973s.38379-.07324.53027-.21973l2.25-2.25c.29297-.29297.29297-.76758,0-1.06055s-.76758-.29297-1.06055,0Z" fill="var(--iconPrimary, #222)"/>
</svg>