<?xml version="1.0" encoding="UTF-8"?>
<svg xmlns="http://www.w3.org/2000/svg" width="20" height="20" viewBox="0 0 20 20">
  <path d="M16.45801,4.25c.25983.44653.73816.75,1.29199.75.82843,0,1.5-.67163,1.5-1.5s-.67157-1.5-1.5-1.5c-.55383,0-1.03217.30347-1.29199.75h-1.95587c-.12024-.40405-.32764-.78711-.64618-1.10547-.99121-.99219-2.7207-.99121-3.71191-.00098-.31854.3186-.52594.70215-.64618,1.10645h-1.95587c-.25983-.44653-.73816-.75-1.29199-.75-.82843,0-1.5.67163-1.5,1.5s.67157,1.5,1.5,1.5c.55383,0,1.03217-.30347,1.29199-.75h1.95593c.03583.12036.07751.23804.13092.35303-1.2041.32104-2.2948.94092-3.17523,1.88525-.84558.90698-1.44806,1.96313-1.78717,3.10132-.133-.06665-.27185-.11987-.41644-.16357v-1.88403c.44647-.25977.75-.73828.75-1.29199,0-.82837-.67157-1.5-1.5-1.5s-1.5.67163-1.5,1.5c0,.55371.30353,1.03223.75,1.29199v1.88403c-1.08051.3252-1.875,1.31763-1.875,2.50269s.79449,2.17749,1.875,2.50244v2.02686c-.44647.25977-.75.73828-.75,1.29199,0,.82837.67157,1.5,1.5,1.5s1.5-.67163,1.5-1.5c0-.55371-.30353-1.03223-.75-1.29199v-2.02661c.16785-.05054.32739-.11621.47931-.19775.48505,1.57666,1.42352,3.06787,2.76093,4.31519.14502.13477.32812.20117.51172.20117.20068,0,.40088-.08008.54834-.23828.28271-.30273.26611-.77734-.03662-1.06055-1.40308-1.30737-2.29999-2.9104-2.57611-4.56348.11768-.29785.18744-.61987.18744-.95898,0-.36597-.07629-.71436-.21228-1.03125.18353-1.25391.74054-2.42358,1.63757-3.38574.90051-.96655,2.03369-1.52368,3.32611-1.64893.34784.16577.72687.26221,1.1236.26221.28577,0,.56073-.05664.82434-.14404,1.59827.33545,3.23157,1.23022,4.66589,2.56787.30371.28223.77783.26562,1.06006-.03711.28271-.30273.26611-.77734-.03662-1.06055-1.30896-1.22021-2.78052-2.09058-4.27325-2.59961.11505-.19092.1994-.39307.26154-.60156h1.95605ZM3.5,13.42871c-.82724,0-1.5-.6733-1.5-1.5s.67276-1.5,1.5-1.5,1.5.6733,1.5,1.5-.67276,1.5-1.5,1.5ZM10.93945,2.43949c.28338-.28338.65998-.43892,1.06055-.43892s.77717.15554,1.06055.43999c.28338.28338.43945.65945.43945,1.06001s-.15607.77663-.43945,1.06001v.00107c-.56676.56676-1.55433.56783-2.12109-.00107-.28338-.28338-.43945-.65945-.43945-1.06001s.15607-.77663.43945-1.06108Z" fill="var(--iconPrimary, #222)"/>
</svg>