<?xml version="1.0" encoding="UTF-8"?>
<svg   xmlns="http://www.w3.org/2000/svg" width="20" height="20" viewBox="0 0 20 20">
  <path d="M19.19287,15.23442l-1.14795-2.77148c-.07617-.18359-.22217-.33008-.40576-.40625s-.39062-.07617-.57422,0l-2.77197,1.14844c-.38281.15918-.56445.59766-.40576.98047s.59814.5625.97998.40625l1.00299-.41553c-1.11298,1.84375-2.98779,3.04175-5.12018,3.27148v-8.94775h1.25c.41406,0,.75-.33594.75-.75s-.33594-.75-.75-.75h-1.25v-.74634c.41199-.12305.79352-.33521,1.10596-.64722,1.02344-1.02344,1.02344-2.68848,0-3.71191-.99121-.99219-2.7207-.99121-3.71191-.00098-1.02344,1.02344-1.02344,2.68945,0,3.71191.31244.31274.69397.52515,1.10596.64819v.74634h-1.25c-.41406,0-.75.33594-.75.75s.33594.75.75.75h1.25v8.94775c-2.14362-.23096-4.02661-1.44067-5.13745-3.30127l1.02075.42285c.3833.15625.82129-.02344.97949-.40625.15869-.38281-.02344-.82129-.40625-.98047l-2.77197-1.14746c-.3833-.15527-.8208.02344-.97949.40625l-1.14795,2.77148c-.15869.38281.02295.82129.40576.98047.09375.03809.19092.05664.28662.05664.29443,0,.57373-.17383.69336-.46289l.4751-1.14746c1.47369,2.69238,4.24243,4.36035,7.33203,4.36035,3.08612,0,5.85168-1.66455,7.32672-4.35107l.48041,1.15967c.11963.28906.39893.46289.69336.46289.09521,0,.19287-.01855.28662-.05664.38281-.15918.56445-.59766.40576-.98047ZM8.625,3.75004c0-.36719.14307-.71191.40283-.97266.25977-.25977.60498-.40234.97217-.40234s.7124.14258.97217.40234v.00098c.25977.25977.40283.60449.40283.97168s-.14307.71191-.40283.97266c-.51953.51953-1.4248.52051-1.94434-.00098-.25977-.25977-.40283-.60449-.40283-.97168Z" fill="var(--iconPrimary, #222)"/>
</svg>