<?xml version="1.0" encoding="UTF-8"?>
<svg xmlns="http://www.w3.org/2000/svg" width="20" height="20" viewBox="0 0 20 20">
  <path d="M13.4892,6.25h2.71881c.25983.44653.73816.75,1.29199.75.82843,0,1.5-.67163,1.5-1.5s-.67157-1.5-1.5-1.5c-.55383,0-1.03217.30347-1.29199.75h-3.70587c-.12024-.40405-.32764-.78711-.64618-1.10547-.99121-.99219-2.7207-.99121-3.71191-.00098-.31854.3186-.52594.70215-.64618,1.10645h-3.70587c-.25983-.44653-.73816-.75-1.29199-.75-.82843,0-1.5.67163-1.5,1.5s.67157,1.5,1.5,1.5c.55383,0,1.03217-.30347,1.29199-.75h2.71881c-3.83777,2.96729-5.18079,10.2334-5.24908,10.61914-.07275.40723.19922.79688.60693.86914.40869.07227.79688-.19824.86963-.60645.0163-.09131,1.45142-7.81958,5.19836-10.03027.06683.08594.12836.17505.2074.25391.49561.49609,1.15479.76953,1.85596.76953s1.36035-.27344,1.85596-.76953c.07898-.0791.1405-.16797.20728-.25391,3.74695,2.21069,5.18219,9.93896,5.19849,10.03027.06494.36328.38086.61816.7373.61816.04395,0,.08789-.00391.13232-.01172.40771-.07227.67969-.46191.60693-.86914-.0683-.38574-1.41132-7.65186-5.24908-10.61914ZM11.06055,6.56058v.00107c-.56676.56676-1.55433.56783-2.12109-.00107-.28338-.28338-.43945-.65945-.43945-1.06001s.15607-.77663.43945-1.06108c.28338-.28338.65998-.43892,1.06055-.43892s.77717.15554,1.06055.43999c.28338.28338.43945.65945.43945,1.06001s-.15607.77663-.43945,1.06001Z" fill="var(--iconPrimary, #222)"/>
</svg>