<?xml version="1.0" encoding="UTF-8"?>
<svg xmlns="http://www.w3.org/2000/svg" width="20" height="20" viewBox="0 0 20 20">
  <path d="M18.41016,13.33008L10.58887,3.43115c-.28516-.36035-.89258-.36035-1.17773,0L1.58984,13.33008c-.25684.32471-.20117.79639.12402,1.05322.32617.25879.79688.20117,1.05371-.12354l1.88477-2.38556c1.57593,1.0462,3.44446,1.61603,5.34766,1.61603,1.90344,0,3.77222-.56989,5.34766-1.61603l1.88477,2.38556c.14844.1875.36816.28516.58984.28516.16211,0,.32617-.05273.46387-.16162.3252-.25684.38086-.72852.12402-1.05322ZM10,11.99023c-1.59229,0-3.10034-.44958-4.41284-1.29907l4.41284-5.58521,4.41321,5.58563c-1.31323.84912-2.8219,1.29865-4.41321,1.29865Z" fill="var(--iconPrimary, #222)"/>
</svg>