<?xml version="1.0" encoding="UTF-8"?>
<svg xmlns="http://www.w3.org/2000/svg" width="20" height="20" viewBox="0 0 20 20">
  <path d="M14.18359,15.3584l-2.85889-1.73279c.5166-1.1344.80225-2.36993.80225-3.62561s-.28564-2.49121-.80225-3.62561l2.85889-1.73279c.35449-.21484.46777-.67627.25293-1.03027-.21582-.35449-.67676-.46777-1.03027-.25293L3.50684,9.3584c-.22461.13623-.36133.37939-.36133.6416s.13672.50537.36133.6416l9.89941,6c.12109.07324.25586.1084.3877.1084.25391,0,.50098-.12842.64258-.36133.21484-.354.10156-.81543-.25293-1.03027ZM10.03833,7.15405c.38171.89563.58862,1.86407.58862,2.84595s-.20691,1.95032-.58862,2.84595l-4.69556-2.84595,4.69556-2.84595Z" fill="var(--iconPrimary, #222)"/>
</svg>