<?xml version="1.0" encoding="UTF-8"?>
<svg xmlns="http://www.w3.org/2000/svg" width="20.00001" height="20.00001" viewBox="0 0 20.00001 20.00001">
  <path d="M16.45313,13.72168l-3.01636.38977c-.39673-1.85034-1.33521-3.56372-2.69653-4.89319s-3.09619-2.22754-4.95581-2.58026l.31812-3.02374c.04297-.41211-.25586-.78125-.66797-.82471-.40137-.03662-.78027.25537-.82422.66748l-1.32031,12.54688c-.02344.22852.05762.45508.22168.61523.1416.1377.33008.21338.52441.21338.03223,0,.06445-.00195.0957-.00635l12.5127-1.61719c.41113-.05273.70117-.4292.64844-.83984-.05371-.41113-.43555-.70654-.83984-.64746ZM5.62671,8.13764c1.53345.30969,2.927,1.04181,4.0647,2.15387,1.13745,1.11053,1.88062,2.49207,2.22778,4.01599l-7.03735.9093.74487-7.07916Z" fill="var(--iconPrimary, #222)"/>
</svg>