<?xml version="1.0" encoding="UTF-8"?>
<svg xmlns="http://www.w3.org/2000/svg" width="20" height="20" viewBox="0 0 20 20">
  <path d="M18.98145,10.42432L10.48145,3.32031c-.2793-.23242-.68359-.23242-.96289,0L1.01855,10.42432c-.31738.26562-.35938.73877-.09375,1.05664.2666.31836.73828.3584,1.05664.09473l2.84644-2.37909c1.53894.97473,3.33789,1.50897,5.17212,1.50897s3.63318-.53424,5.17212-1.50897l2.84644,2.37909c.14062.11719.31152.17432.48145.17432.21387,0,.42676-.0918.5752-.26904.26562-.31787.22363-.79102-.09375-1.05664ZM10,9.20557c-1.41162,0-2.75854-.35022-3.96069-1.02155l3.96069-3.31049,3.96069,3.31049c-1.20203.67133-2.54907,1.02155-3.96069,1.02155Z" fill="var(--iconPrimary, #222)"/>
</svg>