<?xml version="1.0" encoding="UTF-8"?>
<svg xmlns="http://www.w3.org/2000/svg" width="20.00001" height="20.00001" viewBox="0 0 20.00001 20.00001">
  <path d="M16.64454,4.79102l-12.5127-1.61719c-.22168-.03223-.45508.0459-.62012.20703-.16406.16016-.24512.38672-.22168.61523l1.32031,12.54688c.04102.38525.36621.67139.74512.67139.02637,0,.05273-.00146.0791-.00391.41211-.04346.71094-.4126.66797-.82471l-.31812-3.02374c1.85962-.35272,3.59448-1.25079,4.95581-2.58026s2.2998-3.04285,2.69653-4.89319l3.01636.38977c.39941.05273.78711-.23633.83984-.64746.05273-.41064-.2373-.78711-.64844-.83984ZM9.69141,9.7085c-1.1377,1.11206-2.53125,1.84418-4.0647,2.15387l-.74487-7.07916,7.03735.9093c-.34717,1.52393-1.09033,2.90546-2.22778,4.01599Z" fill="var(--iconPrimary, #222)"/>
</svg>