<?xml version="1.0" encoding="UTF-8"?>
<svg id="e" data-name="ICONS" xmlns="http://www.w3.org/2000/svg" width="20" height="20" viewBox="0 0 20 20">
  <path d="M16.75,18H5.25c-1.24023,0-2.25-1.00977-2.25-2.25v-2.75c0-.41406.33594-.75.75-.75s.75.33594.75.75v2.75c0,.41309.33691.75.75.75h11.5c.41309,0,.75-.33691.75-.75V4.25c0-.41309-.33691-.75-.75-.75H5.25c-.41309,0-.75.33691-.75.75v2.75c0,.41406-.33594.75-.75.75s-.75-.33594-.75-.75v-2.75c0-1.24023,1.00977-2.25,2.25-2.25h11.5c1.24023,0,2.25,1.00977,2.25,2.25v11.5c0,1.24023-1.00977,2.25-2.25,2.25Z" fill="var(--iconPrimary, #222)"/>
  <path d="M14.78027,9.46973l-3-3c-.29297-.29297-.76758-.29297-1.06055,0s-.29297.76758,0,1.06055l1.71973,1.71973h-4.18945c-.41406,0-.75.33594-.75.75s.33594.75.75.75h4.18945l-1.71973,1.71973c-.29297.29297-.29297.76758,0,1.06055.14648.14648.33789.21973.53027.21973s.38379-.07324.53027-.21973l3-3c.29297-.29297.29297-.76758,0-1.06055Z" fill="var(--iconPrimary, #222)"/>
  <path d="M5.75,10.75h-1.5c-.41406,0-.75-.33594-.75-.75s.33594-.75.75-.75h1.5c.41406,0,.75.33594.75.75s-.33594.75-.75.75Z" fill="var(--iconPrimary, #222)"/>
  <path d="M1.75,10.75293c-.41406,0-.75-.33594-.75-.75s.33594-.75195.75-.75195.75.33496.75.74902v.00293c0,.41406-.33594.75-.75.75Z" fill="var(--iconPrimary, #222)"/>
</svg>