<?xml version="1.0" encoding="UTF-8"?>
<svg id="e" data-name="ICONS" xmlns="http://www.w3.org/2000/svg" width="20" height="20" viewBox="0 0 20 20">
  <path d="M4.25,12.5H1.25c-.41406,0-.75-.33594-.75-.75s.33594-.75.75-.75h3c.41406,0,.75.33594.75.75s-.33594.75-.75.75Z" fill="var(--iconPrimary, #222)"/>
  <path d="M5.25,9.5h-3c-.41406,0-.75-.33594-.75-.75s.33594-.75.75-.75h3c.41406,0,.75.33594.75.75s-.33594.75-.75.75Z" fill="var(--iconPrimary, #222)"/>
  <path d="M6.25,15.50098h-3c-.41406,0-.75-.33594-.75-.75s.33594-.75.75-.75h3c.41406,0,.75.33594.75.75s-.33594.75-.75.75Z" fill="var(--iconPrimary, #222)"/>
  <path d="M12.1416,19.00195c-.20605,0-.41699-.04297-.62158-.13184-.69873-.30371-1.05225-1.03027-.85938-1.76562l1.12402-4.29395-3.77002-.01172c-.54834,0-1.05518-.29688-1.32227-.77441-.26611-.47656-.25342-1.06152.03271-1.52637L12.13135,1.72266c.40039-.65039,1.17285-.89844,1.87988-.59863.70312.29688,1.06396,1.02051.87695,1.75879l-1.16309,4.60547,3.76025.01172c.55225,0,1.06104.2998,1.32666.7832.26465.48145.24658,1.06836-.04688,1.53223l-5.35986,8.47559c-.28906.45801-.7627.71094-1.26367.71094ZM13.43408,2.51562l-5.43164,8.76953,3.76904.01367c.47314,0,.91064.21484,1.19922.58887.2876.37207.38428.84668.26514,1.30176l-1.12402,4.29492,5.38574-8.4707-.01221-.01367h-3.74658c-.4707,0-.90625-.21289-1.19531-.58398-.2876-.36914-.38721-.8418-.27246-1.29492l1.16309-4.60547Z" fill="var(--iconPrimary, #222)"/>
</svg>