<?xml version="1.0" encoding="UTF-8"?>
<svg id="e" data-name="ICONS" xmlns="http://www.w3.org/2000/svg" width="20" height="20" viewBox="0 0 20 20">
  <path d="M6.24023,17h-2.99023c-1.24023,0-2.25-1.00977-2.25-2.25V5.25c0-1.24023,1.00977-2.25,2.25-2.25h13.5c1.24023,0,2.25,1.00977,2.25,2.25v4.64844c0,.41406-.33594.75-.75.75s-.75-.33594-.75-.75v-4.64844c0-.41309-.33691-.75-.75-.75H3.25c-.41309,0-.75.33691-.75.75v9.5c0,.41309.33691.75.75.75h2.99023c.41406,0,.75.33594.75.75s-.33594.75-.75.75Z" fill="var(--iconPrimary, #222)"/>
  <path d="M15.99023,20c-2.21191,0-4.01074-1.81152-4.01074-4.03906s1.79883-4.04004,4.01074-4.04004c2.21094,0,4.00977,1.8125,4.00977,4.04004s-1.79883,4.03906-4.00977,4.03906ZM15.99023,13.4209c-1.38477,0-2.51074,1.13965-2.51074,2.54004s1.12598,2.53906,2.51074,2.53906c1.38379,0,2.50977-1.13867,2.50977-2.53906s-1.12598-2.54004-2.50977-2.54004Z" fill="var(--iconPrimary, #222)"/>
  <path d="M10.06152,15.70898c-.04102,0-.08301-.00293-.125-.01074-1.47168-.24707-2.54004-1.51855-2.54004-3.02246,0-1.68945,1.36523-3.06445,3.04395-3.06445.92871,0,1.79395.41797,2.375,1.14746.25781.32324.2041.7959-.12012,1.05371-.32129.25684-.79395.20605-1.05371-.12012-.29395-.36914-.73145-.58105-1.20117-.58105-.85156,0-1.54395.70215-1.54395,1.56445,0,.76855.54199,1.41797,1.28809,1.54395.40918.06836.68457.45508.61523.86328-.06152.36719-.37891.62598-.73828.62598Z" fill="var(--iconPrimary, #222)"/>
  <path d="M6.89941,9.47656c-.34375,0-.6543-.23828-.73145-.58887-.03711-.16992-.05664-.34473-.05664-.51758,0-1.30664,1.05664-2.37012,2.35645-2.37012.73633,0,1.44043.35352,1.88281.94531.24805.33203.18066.80176-.15137,1.0498s-.80078.18066-1.0498-.15137c-.16309-.21875-.41211-.34375-.68164-.34375-.47266,0-.85645.39062-.85645.87012,0,.06445.00684.12988.02148.19531.08887.4043-.16699.80469-.57129.89355-.05371.01172-.1084.01758-.16211.01758Z" fill="var(--iconPrimary, #222)"/>
</svg>