<?xml version="1.0" encoding="UTF-8"?>
<svg id="e" data-name="ICONS" xmlns="http://www.w3.org/2000/svg" width="20" height="20" viewBox="0 0 20 20">
  <path d="M18,15.50293h-5.88818c-.31079-.87085-1.13574-1.5-2.11182-1.5s-1.80078.62915-2.11157,1.5H2c-.41406,0-.75.33594-.75.75s.33594.75.75.75h5.88843c.31079.87085,1.1355,1.5,2.11157,1.5s1.80078-.62915,2.11182-1.5h5.88818c.41406,0,.75-.33594.75-.75s-.33594-.75-.75-.75ZM10,17.00293c-.41309,0-.75-.33691-.75-.75s.33691-.75.75-.75.75.33691.75.75-.33691.75-.75.75Z" fill="var(--iconPrimary, #222)"/>
  <path d="M17.91211,1.50684c-.52734-.32129-1.16895-.34277-1.71484-.05957L2.19043,8.70312c-.72656.38184-1.08203,1.17285-.88574,1.96973.19727.79492.87988,1.33008,1.69922,1.33008h13.99902c.96484,0,1.75-.78516,1.75-1.75V3.00195c0-.61621-.31445-1.1748-.84082-1.49512ZM12.49902,5.05225v5.45068h-3v-3.89648l3-1.5542ZM2.76172,10.3125c-.02148-.08691-.01758-.20605.12207-.2793l5.11523-2.6499v3.11963H3.00391c-.16211,0-.2207-.10352-.24219-.19043ZM17.25293,10.25293c0,.1377-.1123.25-.25.25h-3.00391v-6.22778l2.8877-1.49585c.04102-.02148.08008-.0293.11523-.0293.05664,0,.10254.02051.13086.03809.04492.02734.12012.0918.12012.21387v7.25098Z" fill="var(--iconPrimary, #222)"/>
</svg>