<?xml version="1.0" encoding="UTF-8"?>
<svg id="e" data-name="ICONS" xmlns="http://www.w3.org/2000/svg" width="20" height="20" viewBox="0 0 20 20">
  <path d="M16.75,17H3.25c-1.24023,0-2.25-1.00977-2.25-2.25V5.25c0-1.24023,1.00977-2.25,2.25-2.25h13.5c1.24023,0,2.25,1.00977,2.25,2.25v9.5c0,1.24023-1.00977,2.25-2.25,2.25ZM3.25,4.5c-.41309,0-.75.33691-.75.75v9.5c0,.41309.33691.75.75.75h13.5c.41309,0,.75-.33691.75-.75V5.25c0-.41309-.33691-.75-.75-.75H3.25Z" fill="var(--iconPrimary, #222)"/>
  <path d="M8.74316,13.62695c-.30859,0-.61621-.08301-.89355-.24902-.53223-.31836-.84961-.87793-.84961-1.49805v-3.75977c0-.62012.31738-1.17969.84961-1.49805s1.17578-.33203,1.7207-.03809l3.49902,1.87891c.56641.30469.91895.89355.91895,1.53711s-.35254,1.23242-.91895,1.53711l-3.49902,1.87988c-.26074.13965-.54395.20996-.82715.20996ZM8.74414,7.86328c-.05664,0-.10254.02051-.13086.03711-.04688.02832-.125.09375-.125.21973v3.75977c0,.12598.07812.19141.125.21973.0459.02734.14062.06348.25195.00586l3.49902-1.88086c.11719-.0625.13477-.16797.13477-.22461s-.01758-.16211-.13477-.22461l-3.49902-1.87988c-.04297-.02344-.08398-.03223-.12109-.03223Z" fill="var(--iconPrimary, #222)"/>
</svg>