<?xml version="1.0" encoding="UTF-8"?>
<svg id="e" data-name="ICONS" xmlns="http://www.w3.org/2000/svg" width="20" height="20" viewBox="0 0 20 20">
  <path d="M11.75195,15.5H3.25c-1.24023,0-2.25-1.00977-2.25-2.25v-.5c0-1.24023,1.00977-2.25,2.25-2.25h10.25c.41406,0,.75.33594.75.75s-.33594.75-.75.75H3.25c-.41309,0-.75.33691-.75.75v.5c0,.41309.33691.75.75.75h8.50195c.41406,0,.75.33594.75.75s-.33594.75-.75.75Z" fill="var(--iconPrimary, #222)"/>
  <path d="M13.5,9H3.25c-1.24023,0-2.25-1.00977-2.25-2.25v-.5c0-1.24023,1.00977-2.25,2.25-2.25h8.5c.41406,0,.75.33594.75.75s-.33594.75-.75.75H3.25c-.41309,0-.75.33691-.75.75v.5c0,.41309.33691.75.75.75h10.25c.41406,0,.75.33594.75.75s-.33594.75-.75.75Z" fill="var(--iconPrimary, #222)"/>
  <path d="M18.78027,14.21973c-.29297-.29297-.76758-.29297-1.06055,0l-.46973.46973v-3.43945c0-.41406-.33594-.75-.75-.75s-.75.33594-.75.75v3.43945l-.46973-.46973c-.29297-.29297-.76758-.29297-1.06055,0s-.29297.76758,0,1.06055l1.75,1.75c.14648.14648.33789.21973.53027.21973s.38379-.07324.53027-.21973l1.75-1.75c.29297-.29297.29297-.76758,0-1.06055Z" fill="var(--iconPrimary, #222)"/>
  <path d="M18.78027,4.21973l-1.75-1.75c-.29297-.29297-.76758-.29297-1.06055,0l-1.75,1.75c-.29297.29297-.29297.76758,0,1.06055s.76758.29297,1.06055,0l.46973-.46973v3.43945c0,.41406.33594.75.75.75s.75-.33594.75-.75v-3.43945l.46973.46973c.14648.14648.33789.21973.53027.21973s.38379-.07324.53027-.21973c.29297-.29297.29297-.76758,0-1.06055Z" fill="var(--iconPrimary, #222)"/>
</svg>