<?xml version="1.0" encoding="UTF-8"?>
<svg id="e" data-name="ICONS" xmlns="http://www.w3.org/2000/svg" width="20" height="20" viewBox="0 0 20 20">
  <path d="M7.93302,11.04982l-2.80213-6.89976c-.10601-.26054-.35846-.43034-.63967-.43034s-.53365.1698-.63967.43034l-2.80303,6.89976c-.14285.35307.02695.75556.38003.89931.35218.14015.75376-.02695.89931-.38003l.85281-2.09958h2.62043l.85259,2.09958c.10961.26773.36745.43034.63967.43034.08625,0,.17429-.01617.25964-.05031.35307-.14375.52287-.54623.38003-.89931ZM3.74128,8.08957l.74994-1.84623.74972,1.84623h-1.49967Z" fill="var(--iconPrimary, #222)" opacity=".35"/>
  <path d="M10.92383,11.99902h-2.10449c-.41406,0-.75-.33594-.75-.75v-6.89941c0-.41406.33594-.75.75-.75h1.48242c1.36426,0,2.43359,1.06543,2.43359,2.4248,0,.52637-.14648,1.00293-.40137,1.3916.61914.45898,1.02344,1.20996,1.02344,2.05762,0,1.39258-1.0918,2.52539-2.43359,2.52539ZM9.56934,10.49902h1.35449c.51465,0,.93359-.45996.93359-1.02539,0-.56641-.41895-1.02637-.93359-1.02637h-1.35449v2.05176ZM9.56934,6.94727h.82227c.5127,0,.84375-.3623.84375-.92285,0-.53613-.39258-.9248-.93359-.9248h-.73242v1.84766Z" fill="var(--iconPrimary, #222)"/>
  <path d="M17.21777,11.99902c-2.12793,0-3.85938-1.88379-3.85938-4.19922,0-2.78418,2.49707-4.98535,5.16309-3.93945.38574.15137.57617.58594.4248.97168-.15039.38574-.58594.57617-.97168.4248-.27051-.10547-.51758-.15723-.75684-.15723-1.30078,0-2.35938,1.21094-2.35938,2.7002,0,1.48828,1.05859,2.69922,2.35938,2.69922.23926,0,.48633-.05176.75684-.15723.38574-.14941.82031.03906.97168.4248s-.03906.82031-.4248.97168c-.44824.17578-.87402.26074-1.30371.26074Z" fill="var(--iconPrimary, #222)" opacity=".5"/>
  <path d="M17.99805,15.49902h-5.88818c-.31079-.87085-1.13574-1.5-2.11182-1.5s-1.80078.62915-2.11157,1.5H1.99805c-.41406,0-.75.33594-.75.75s.33594.75.75.75h5.88843c.31079.87085,1.1355,1.5,2.11157,1.5s1.80078-.62915,2.11182-1.5h5.88818c.41406,0,.75-.33594.75-.75s-.33594-.75-.75-.75ZM9.99805,16.99902c-.41309,0-.75-.33691-.75-.75s.33691-.75.75-.75.75.33691.75.75-.33691.75-.75.75Z" fill="var(--iconPrimary, #222)"/>
</svg>