<?xml version="1.0" encoding="UTF-8"?>
<svg id="e" data-name="ICONS" xmlns="http://www.w3.org/2000/svg" width="20" height="20" viewBox="0 0 20 20">
  <g>
    <path d="M17.78223,9.47266l-3-3c-.29297-.29297-.76758-.29297-1.06055,0s-.29297.76758,0,1.06055l1.71973,1.71973h-5.18945c-.41406,0-.75.33594-.75.75s.33594.75.75.75h5.18945l-1.71973,1.71973c-.29297.29297-.29297.76758,0,1.06055.14648.14648.33789.21973.53027.21973s.38379-.07324.53027-.21973l3-3c.29297-.29297.29297-.76758,0-1.06055Z" fill="var(--iconPrimary, #222)"/>
    <path d="M7.25195,9.25293h-1.5c-.41406,0-.75.33594-.75.75s.33594.75.75.75h1.5c.41406,0,.75-.33594.75-.75s-.33594-.75-.75-.75Z" fill="var(--iconPrimary, #222)"/>
  </g>
  <path d="M2.75,10.75c-.10059,0-.19043-.00977-.28027-.0498-.09961-.04004-.17969-.10059-.25-.1709-.13965-.12988-.21973-.31934-.21973-.5293,0-.10059.01953-.19043.05957-.28027s.08984-.17969.16016-.25.15039-.12012.25-.16016c.27051-.10938.59961-.0498.81055.16016.06934.07031.12988.16016.15918.25.04004.08984.06055.17969.06055.28027,0,.2002-.08008.38965-.21973.5293-.07031.07031-.15039.13086-.24023.1709s-.19043.0498-.29004.0498Z" fill="var(--iconPrimary, #222)"/>
</svg>