<?xml version="1.0" encoding="UTF-8"?>
<svg id="e" data-name="ICONS" xmlns="http://www.w3.org/2000/svg" width="20" height="20" viewBox="0 0 20 20">
  <path d="M16.75,17H3.25c-1.24023,0-2.25-1.00977-2.25-2.25V5.25c0-1.24023,1.00977-2.25,2.25-2.25h13.5c1.24023,0,2.25,1.00977,2.25,2.25v9.5c0,1.24023-1.00977,2.25-2.25,2.25ZM3.25,4.5c-.41309,0-.75.33691-.75.75v9.5c0,.41309.33691.75.75.75h13.5c.41309,0,.75-.33691.75-.75V5.25c0-.41309-.33691-.75-.75-.75H3.25Z" fill="var(--iconPrimary, #222)"/>
  <path d="M12.5,9.25h-1.75v-1.75c0-.41406-.33594-.75-.75-.75s-.75.33594-.75.75v1.75h-1.75c-.41406,0-.75.33594-.75.75s.33594.75.75.75h1.75v1.75c0,.41406.33594.75.75.75s.75-.33594.75-.75v-1.75h1.75c.41406,0,.75-.33594.75-.75s-.33594-.75-.75-.75Z" fill="var(--iconPrimary, #222)"/>
</svg>