<?xml version="1.0" encoding="UTF-8"?>
<svg id="e" data-name="ICONS" xmlns="http://www.w3.org/2000/svg" width="20" height="20" viewBox="0 0 20 20">
  <path d="M17.75049,6.5c-1.14307,0-1.72168-.74609-2.14453-1.29004-.39941-.51562-.58545-.70996-.95898-.70996s-.55957.19434-.95898.70996c-.42285.54395-1.00146,1.29004-2.14453,1.29004-1.14258,0-1.72021-.74609-2.14209-1.29102-.39893-.51465-.58447-.70898-.95654-.70898-.37158,0-.55713.19434-.95605.70898-.42188.54492-.99951,1.29102-2.1416,1.29102s-1.71973-.74609-2.1416-1.29102c-.39893-.51465-.58447-.70898-.95605-.70898-.41406,0-.75-.33594-.75-.75s.33594-.75.75-.75c1.14209,0,1.71973.74609,2.1416,1.29102.39893.51465.58447.70898.95605.70898s.55713-.19434.95605-.70898c.42188-.54492.99951-1.29102,2.1416-1.29102,1.14258,0,1.72021.74609,2.14209,1.29102.39893.51465.58447.70898.95654.70898.37354,0,.55957-.19434.95898-.70996.42285-.54395,1.00146-1.29004,2.14453-1.29004s1.72168.74609,2.14453,1.29004c.39941.51562.58545.70996.95898.70996.41406,0,.75.33594.75.75s-.33594.75-.75.75Z" fill="var(--iconPrimary, #222)"/>
  <path d="M17.75049,11.5c-1.14307,0-1.72168-.74609-2.14453-1.29004-.39941-.51562-.58545-.70996-.95898-.70996s-.55957.19434-.95898.70996c-.42285.54395-1.00146,1.29004-2.14453,1.29004-1.14258,0-1.72021-.74609-2.14209-1.29102-.39893-.51465-.58447-.70898-.95654-.70898-.37158,0-.55713.19434-.95605.70898-.42188.54492-.99951,1.29102-2.1416,1.29102s-1.71973-.74609-2.1416-1.29102c-.39893-.51465-.58447-.70898-.95605-.70898-.41406,0-.75-.33594-.75-.75s.33594-.75.75-.75c1.14209,0,1.71973.74609,2.1416,1.29102.39893.51465.58447.70898.95605.70898s.55713-.19434.95605-.70898c.42188-.54492.99951-1.29102,2.1416-1.29102,1.14258,0,1.72021.74609,2.14209,1.29102.39893.51465.58447.70898.95654.70898.37354,0,.55957-.19434.95898-.70996.42285-.54395,1.00146-1.29004,2.14453-1.29004s1.72168.74609,2.14453,1.29004c.39941.51562.58545.70996.95898.70996.41406,0,.75.33594.75.75s-.33594.75-.75.75Z" fill="var(--iconPrimary, #222)"/>
  <path d="M17.75049,16.50098c-1.14307,0-1.72168-.74609-2.14453-1.29004-.39941-.51562-.58545-.70996-.95898-.70996s-.55957.19434-.95898.70996c-.42285.54395-1.00146,1.29004-2.14453,1.29004-1.14258,0-1.72021-.74609-2.14209-1.29102-.39893-.51465-.58447-.70898-.95654-.70898-.37158,0-.55713.19434-.95605.70898-.42188.54492-.99951,1.29102-2.1416,1.29102s-1.71973-.74609-2.1416-1.29102c-.39893-.51465-.58447-.70898-.95605-.70898-.41406,0-.75-.33594-.75-.75s.33594-.75.75-.75c1.14209,0,1.71973.74609,2.1416,1.29102.39893.51465.58447.70898.95605.70898s.55713-.19434.95605-.70898c.42188-.54492.99951-1.29102,2.1416-1.29102,1.14258,0,1.72021.74609,2.14209,1.29102.39893.51465.58447.70898.95654.70898.37354,0,.55957-.19434.95898-.70996.42285-.54395,1.00146-1.29004,2.14453-1.29004s1.72168.74609,2.14453,1.29004c.39941.51562.58545.70996.95898.70996.41406,0,.75.33594.75.75s-.33594.75-.75.75Z" fill="var(--iconPrimary, #222)"/>
</svg>