<?xml version="1.0" encoding="UTF-8"?>
<svg   xmlns="http://www.w3.org/2000/svg" width="20" height="20" viewBox="0 0 20 20">
  <path d="M8.28027,18h-1.53027c-2.61914,0-4.75-2.13086-4.75-4.75v-6.5c0-2.61914,2.13086-4.75,4.75-4.75h6.5c2.61914,0,4.75,2.13086,4.75,4.75v.75c0,.41406-.33594.75-.75.75s-.75-.33594-.75-.75v-.75c0-1.79199-1.45801-3.25-3.25-3.25h-6.5c-1.79199,0-3.25,1.45801-3.25,3.25v6.5c0,1.79199,1.45801,3.25,3.25,3.25h1.53027c.41406,0,.75.33594.75.75s-.33594.75-.75.75Z" fill="var(--iconPrimary, #222)"/>
  <path d="M13.57031,20c-.08594,0-.17188-.01465-.25586-.04492-.29688-.10742-.49414-.38965-.49414-.70508v-1.52539h-.06445c-1.38965,0-2.52051-1.15234-2.52051-2.56934v-2.57324c0-1.41602,1.13086-2.56836,2.52051-2.56836h4.72266c1.39062,0,2.52148,1.15234,2.52148,2.56836v2.57324c0,1.41699-1.13086,2.56934-2.52148,2.56934h-1.65918l-1.67285,2.00586c-.14551.17383-.3584.26953-.57617.26953ZM12.75586,11.51367c-.5625,0-1.02051.47949-1.02051,1.06836v2.57324c0,.58984.45801,1.06934,1.02051,1.06934h.81445c.41406,0,.75.33594.75.75v.20605l.57227-.68652c.14258-.1709.35352-.26953.57617-.26953h2.00977c.56348,0,1.02148-.47949,1.02148-1.06934v-2.57324c0-.58887-.45801-1.06836-1.02148-1.06836h-4.72266Z" fill="var(--iconPrimary, #222)"/>
</svg>