<?xml version="1.0" encoding="UTF-8"?>
<svg xmlns="http://www.w3.org/2000/svg" width="20" height="20" viewBox="0 0 20 20">
  <path d="M12.08398,13.08691c-.68652.68652-1.57031,1.04883-2.5166,1.04883-.98535,0-1.91504-.3877-2.61621-1.09082-1.42285-1.4248-1.45215-3.7168-.06348-5.11035.06836-.06763,2.54834-2.54736,3.64746-3.64661-.64758-.18372-1.32861-.28796-2.03516-.28796-4.14209,0-7.5,3.35791-7.5,7.5s3.35791,7.5,7.5,7.5,7.5-3.35791,7.5-7.5c0-.70825-.10461-1.39087-.28906-2.04004l-3.62695,3.62695Z" fill="var(--iconPrimary, #222)" opacity=".12"/>
  <path d="M19.03125,1.30176c-.46289-.54541-1.08984-.86133-1.76562-.88916-.68359-.01855-1.3584.24609-1.86035.74854l-.76465.75977c-.24512-.11133-.50977-.17383-.78223-.18262-.54492-.02051-1.05371.18066-1.43262.56055l-.26172.26172c-.37793.37793-.57715.88574-.55957,1.43164.0116.3667.12683.71802.3208,1.02783-1.26953,1.26868-3.89429,3.89429-3.9751,3.97314-.80566.80859-.77832,2.15039.0625,2.99219.43262.43359.99902.65039,1.55469.65039.52441,0,1.04004-.19336,1.42773-.58105.02051-.02051,1.36719-1.36621,2.61816-2.61816l1.3584-1.3584c.34094.21851.72839.33105,1.11328.33105.5,0,.99414-.18555,1.36914-.55957l.26172-.2627c.58594-.58594.70996-1.46582.38086-2.20508l.70117-.68848.00488-.00488c.97266-.97266,1.06934-2.39746.22852-3.38672ZM9.94336,10.98535c-.22266.22363-.61328.19531-.86914-.06055-.25781-.25684-.28516-.64844-.06836-.86523.04126-.04028,2.64087-2.63989,3.9375-3.93652l.93115.93115-3.93115,3.93115ZM17.74414,3.62598l-1.13965,1.11816c-.14258.13965-.22363.33105-.22461.53125s.07812.39258.21973.53418c.21289.21289.23828.53418.05469.71777l-.26074.26172c-.18359.18359-.50586.15527-.71777-.05566l-2.39453-2.39453c-.11035-.10938-.17285-.25-.17773-.39453-.00195-.07227.01074-.21191.12207-.32324l.26172-.2627c.10352-.10352.23145-.12109.30762-.12109h.01562c.14453.00488.28418.06738.39258.17773.29199.29199.76562.29395,1.05957.00195l1.20117-1.19336c.21289-.21191.49023-.30371.74023-.3125.25586.01074.49219.13574.68457.36133.38281.45117.20312,1.00391-.14453,1.35352Z" fill="var(--iconPrimary, #222)"/>
  <path d="M5.12012,18.27441c-.16211,0-.3252-.0625-.44727-.18848l-2.84863-2.91797c-.24121-.24707-.23633-.64258.01074-.88379.24609-.24023.64355-.2373.88379.01074l2.84863,2.91797c.24121.24707.23633.64258-.01074.88379-.12109.11816-.2793.17773-.43652.17773Z" fill="var(--iconPrimary, #222)"/>
  <path d="M9.50195,19.12012c-.16016,0-.31934-.06055-.44141-.18262L1.05859,10.94238c-.24414-.24414-.24512-.63965-.00098-.88379s.63965-.24512.88379-.00098l8.00195,7.99512c.24414.24414.24512.63965.00098.88379-.12207.12207-.28223.18359-.44238.18359Z" fill="var(--iconPrimary, #222)"/>
  <path d="M5.30566,11.43066c-.16016,0-.32031-.06055-.44238-.18262l-2.88281-2.88281c-.24316-.24414-.24316-.64062,0-.88477.24414-.24414.64062-.24414.88477,0l2.88281,2.88281c.24316.24414.24316.64062,0,.88477-.12207.12207-.28223.18262-.44238.18262Z" fill="var(--iconPrimary, #222)"/>
  <path d="M12.06152,18.18652c-.16016,0-.32031-.06055-.44238-.18262l-2.88379-2.88379c-.24316-.24414-.24316-.64062,0-.88477.24414-.24414.64062-.24414.88477,0l2.88379,2.88379c.24316.24414.24316.64062,0,.88477-.12207.12207-.28223.18262-.44238.18262Z" fill="var(--iconPrimary, #222)"/>
  <path d="M6.02539,8.67773c-.16406,0-.32715-.06348-.44922-.19141l-1.95703-2.02734c-.24023-.24805-.2334-.64355.01562-.88281.24805-.24023.64453-.23438.88281.01562l1.95703,2.02734c.24023.24805.2334.64355-.01562.88281-.12109.11719-.27734.17578-.43359.17578Z" fill="var(--iconPrimary, #222)"/>
  <path d="M15.17578,14.29102c-.15918,0-.31934-.06055-.44043-.18164l-1.46582-1.45898c-.24512-.24414-.24609-.63965-.00293-.88379.24414-.24512.6416-.24609.88379-.00293l1.46582,1.45898c.24512.24414.24609.63965.00293.88379-.12207.12305-.2832.18457-.44336.18457Z" fill="var(--iconPrimary, #222)"/>
  <path d="M7.76562,6.88086c-.15918,0-.31934-.06055-.44043-.18164l-1.46582-1.45898c-.24512-.24414-.24609-.63965-.00293-.88379.24414-.24512.6416-.24609.88379-.00293l1.46582,1.45898c.24512.24414.24609.63965.00293.88379-.12207.12305-.2832.18457-.44336.18457Z" fill="var(--iconPrimary, #222)"/>
  <path d="M9.58203,5.2041c-.16016,0-.32031-.06055-.44238-.18262-.24316-.24414-.27832-.6748-.03418-.91895s.60352-.28027.84961-.03516l.06934.06934c.24316.24414.24316.64062,0,.88477-.12207.12207-.28223.18262-.44238.18262Z" fill="var(--iconPrimary, #222)"/>
  <path d="M15.50195,11.12402c-.16016,0-.32031-.06055-.44238-.18262-.24316-.24414-.27832-.6748-.03418-.91895.24414-.24316.60254-.28027.84961-.03516l.06934.06934c.24316.24414.24316.64062,0,.88477-.12207.12207-.28223.18262-.44238.18262Z" fill="var(--iconPrimary, #222)"/>
  <path d="M13.9502,16.5752c-.16016,0-.32031-.06055-.44238-.18262l-2.01953-2.01953c-.24316-.24414-.24316-.64062,0-.88477.24414-.24414.64062-.24414.88477,0l2.01953,2.01953c.24316.24414.24316.64062,0,.88477-.12207.12207-.28223.18262-.44238.18262Z" fill="var(--iconPrimary, #222)"/>
</svg>