<?xml version="1.0" encoding="UTF-8"?>
<svg xmlns="http://www.w3.org/2000/svg" width="20" height="20" viewBox="0 0 20 20">
  <circle cx="9" cy="3.76667" r=".86207" fill="var(--iconPrimary, #222)"/>
  <path d="M13.75,3h-1.68652c-.2627-1.39941-1.38477-2.5083-2.76855-2.63623-.87402-.0835-1.75.20996-2.39746.80029-.53027.48438-.87598,1.13574-.98242,1.83789l-.57959.00098-1.08447-.00195c-1.24121,0-2.25098,1.00977-2.25098,2.25v8.47559c0,1.24023,1.00977,2.25,2.25,2.25h3.22656c.41406,0,.75-.33594.75-.75s-.33594-.75-.75-.75h-3.22656c-.41309,0-.75-.33691-.75-.75V5.25098c0-.41309.33691-.75.75-.75l.33594.00098v.24805c0,1.24023,1.00977,2.25,2.25,2.25h4.32812c1.24023,0,2.25-1.00977,2.25-2.25v-.25h.33594c.41309,0,.75.33691.75.75v2.45117c0,.41406.33594.75.75.75s.75-.33594.75-.75v-2.45117c0-1.24023-1.00977-2.25-2.25-2.25ZM11.91406,4.75c0,.41309-.33691.75-.75.75h-4.32812c-.41309,0-.75-.33691-.75-.75v-.24878l.54492-.00122c.41309-.00098.74805-.33691.74805-.75v-.2793c0-.45508.19336-.8916.5293-1.19824.34082-.31055.78906-.45605,1.24805-.41504.82129.07617,1.46484.85254,1.46484,1.76758v.125c0,.41406.33594.75.75.75h.54297v.25Z" fill="var(--iconPrimary, #222)"/>
  <rect x="9" y="9.95082" width="9" height="9" fill="var(--iconPrimary, #222)" opacity=".12"/>
  <path d="M10.5,19.1748c-.16504,0-.33008-.06543-.45215-.19434l-1-1.0498c-.23828-.25-.22852-.64551.02148-.88281.24805-.2373.64551-.22949.88281.02148l1,1.0498c.23828.25.22852.64551-.02148.88281-.12012.11523-.27539.17285-.43066.17285Z" fill="var(--iconPrimary, #222)"/>
  <path d="M13.96973,19.125c-.16113,0-.32324-.0625-.44531-.18652l-4.46973-4.54102c-.24219-.24609-.23926-.6416.00684-.88379.24707-.24316.64258-.23926.88379.00684l4.46973,4.54102c.24219.24609.23926.6416-.00684.88379-.12207.12012-.28027.17969-.43848.17969Z" fill="var(--iconPrimary, #222)"/>
  <path d="M17.50195,19.12012c-.16016,0-.31934-.06055-.44141-.18262l-8.00195-7.99512c-.24414-.24414-.24512-.63965-.00098-.88379s.63965-.24512.88379-.00098l8.00195,7.99512c.24414.24414.24512.63965.00098.88379-.12207.12207-.28223.18359-.44238.18359Z" fill="var(--iconPrimary, #222)"/>
  <path d="M17.5,15.625c-.16016,0-.32031-.06055-.44238-.18262l-4.5-4.5c-.24316-.24414-.24316-.64062,0-.88477.24414-.24414.64062-.24414.88477,0l4.5,4.5c.24316.24414.24316.64062,0,.88477-.12207.12207-.28223.18262-.44238.18262Z" fill="var(--iconPrimary, #222)"/>
  <path d="M17.5,12.125c-.16016,0-.32031-.06055-.44238-.18262l-1-1c-.24316-.24414-.24316-.64062,0-.88477.24414-.24414.64062-.24414.88477,0l1,1c.24316.24414.24316.64062,0,.88477-.12207.12207-.28223.18262-.44238.18262Z" fill="var(--iconPrimary, #222)"/>
</svg>