<?xml version="1.0" encoding="UTF-8"?>
<svg   xmlns="http://www.w3.org/2000/svg" width="20" height="20" viewBox="0 0 20 20">
  <path d="M8.71436,18h-.46436c-.68945,0-1.25-.56055-1.25-1.25v-8.5c0-.68945.56055-1.25,1.25-1.25h9.5c.68945,0,1.25.56055,1.25,1.25v.59668c0,.41406-.33594.75-.75.75s-.75-.33594-.75-.75v-.34668h-9v8h.21436c.41406,0,.75.33594.75.75s-.33594.75-.75.75Z" fill="var(--iconPrimary, #222)" stroke-width="0"/>
  <path d="M4.75,15c-.41406,0-.75-.33594-.75-.75V5.25c0-.68945.56055-1.25,1.25-1.25h10c.41406,0,.75.33594.75.75s-.33594.75-.75.75H5.5v8.75c0,.41406-.33594.75-.75.75Z" fill="var(--iconPrimary, #222)" stroke-width="0"/>
  <path d="M1.75,12c-.41406,0-.75-.33594-.75-.75V2.25c0-.68945.56055-1.25,1.25-1.25h10c.41406,0,.75.33594.75.75s-.33594.75-.75.75H2.5v8.75c0,.41406-.33594.75-.75.75Z" fill="var(--iconPrimary, #222)" stroke-width="0"/>
  <path d="M15,10.271c-2.48529,0-4.5,2.01489-4.5,4.5,0,2.48535,2.01471,4.5,4.5,4.5s4.5-2.01465,4.5-4.5c0-2.48511-2.01471-4.5-4.5-4.5ZM17.35791,13.77148l-2.59766,3.15918c-.1167.14258-.29004.22559-.47363.22852h-.00928c-.18018,0-.35205-.07812-.4707-.21387l-1.15234-1.32031c-.22705-.25977-.2002-.65527.05957-.88184.26123-.22754.65527-.2002.88184.05957l.66748.76465,2.12891-2.58887c.21826-.2666.61328-.30566.87988-.08594.2666.21875.30518.6123.08594.87891Z" fill="var(--iconPrimary, #222)" stroke-width="0"/>
</svg>