<?xml version="1.0" encoding="UTF-8"?>
<svg   xmlns="http://www.w3.org/2000/svg" width="20" height="20" viewBox="0 0 20 20">
  <path d="M16.83,5.5h-6.976c-.23139-.00079-.4573-.07041-.649-.2l-2.405-1.6c-.19306-.13065-.42089-.20032-.654-.2h-2.976c-.64617,0-1.17.52383-1.17,1.17h0v10.66c0,.64617.52383,1.17,1.17,1.17h13.66c.64617,0,1.17-.52383,1.17-1.17h0V6.67c0-.64617-.52383-1.17-1.17-1.17h0ZM3,7.25c0-.41421.33579-.75.75-.75h12.5c.41421,0,.75.33579.75.75v.25H3v-.25Z" fill="var(--iconPrimary, #222)" stroke-width="0"/>
</svg>