<?xml version="1.0" encoding="UTF-8"?>
<svg   xmlns="http://www.w3.org/2000/svg" width="20" height="20" viewBox="0 0 20 20">
  <path d="M16.75,3H3.25c-1.24023,0-2.25,1.00977-2.25,2.25v1c0,.77795.39771,1.4646,1,1.8689v4.1311c0,.41406.33594.75.75.75s.75-.33594.75-.75v-3.75h13v6.25c0,.41309-.33691.75-.75.75h-4.42578c-.41406,0-.75.33594-.75.75s.33594.75.75.75h4.42578c1.24023,0,2.25-1.00977,2.25-2.25v-6.6311c.60229-.4043,1-1.09094,1-1.8689v-1c0-1.24023-1.00977-2.25-2.25-2.25ZM2.5,5.25c0-.41309.33691-.75.75-.75h13.5c.41309,0,.75.33691.75.75v1c0,.41309-.33691.75-.75.75H3.25c-.41309,0-.75-.33691-.75-.75v-1Z" fill="var(--iconPrimary, #222)"/>
  <path d="M12.25,12h-3.75c-.41406,0-.75-.33594-.75-.75s.33594-.75.75-.75h3.75c.41406,0,.75.33594.75.75s-.33594.75-.75.75Z" fill="var(--iconPrimary, #222)"/>
  <path d="M8.90528,14.71972l-2-2c-.29297-.29297-.76758-.29297-1.06055,0s-.29297.76758,0,1.06055l.71973.71973H1.62501c-.41406,0-.75.33594-.75.75s.33594.75.75.75h4.93945l-.71973.71973c-.29297.29297-.29297.76758,0,1.06055.14648.14648.33789.21973.53027.21973s.38379-.07324.53027-.21973l2-2c.29297-.29297.29297-.76758,0-1.06055h.00001Z" fill="var(--iconPrimary, #222)"/>
</svg>