<?xml version="1.0" encoding="UTF-8"?>
<svg   xmlns="http://www.w3.org/2000/svg" width="20" height="20" viewBox="0 0 20 20">
  <path d="M15,10.50004c-2.48535,0-4.5,2.01465-4.5,4.5s2.01465,4.5,4.5,4.5,4.5-2.01465,4.5-4.5-2.01465-4.5-4.5-4.5ZM17.20947,16.32524c.24414.24414.24414.64062,0,.88477-.12207.12207-.28174.18262-.44189.18262s-.31982-.06055-.44189-.18262l-1.32568-1.32568-1.32568,1.32568c-.12207.12207-.28174.18262-.44189.18262s-.31982-.06055-.44189-.18262c-.24414-.24414-.24414-.64062,0-.88477l1.3252-1.3252-1.3252-1.3252c-.24414-.24414-.24414-.64062,0-.88477s.63965-.24414.88379,0l1.32568,1.32568,1.32568-1.32568c.24414-.24414.63965-.24414.88379,0s.24414.64062,0,.88477l-1.3252,1.3252,1.3252,1.3252Z" fill="var(--iconPrimary, #222)"/>
  <rect x="1.5" y="13.00004" width="5.5" height="5.5" rx="1.5" ry="1.5" transform="translate(-11.50004 20.00004) rotate(-90)" fill="var(--iconPrimary, #222)" opacity=".2"/>
  <path d="M17,7.75004h-2.5c-1.24072,0-2.25-1.00977-2.25-2.25v-2.5c0-1.24023,1.00928-2.25,2.25-2.25h2.5c1.24072,0,2.25,1.00977,2.25,2.25v2.5c0,1.24023-1.00928,2.25-2.25,2.25ZM14.5,2.25004c-.41357,0-.75.33691-.75.75v2.5c0,.41309.33643.75.75.75h2.5c.41357,0,.75-.33691.75-.75v-2.5c0-.41309-.33643-.75-.75-.75h-2.5Z" fill="var(--iconPrimary, #222)"/>
  <path d="M7.23193,11.28422c-.57617,0-1.15186-.21875-1.59033-.65625l-1.76807-1.76953c-.4248-.42383-.65918-.98926-.65918-1.59082,0-.60059.23389-1.16602.65918-1.59082l1.76758-1.76758c.87744-.87695,2.30566-.87695,3.18213,0l1.76758,1.76758c.42529.4248.65918.99023.65918,1.59082,0,.60156-.23438,1.16699-.65967,1.5918l-1.76709,1.76758c-.43848.43848-1.01514.65723-1.59131.65723ZM7.23242,4.75004c-.20068,0-.38916.07812-.53076.21973l-1.76758,1.76758c-.1416.1416-.21973.33008-.21973.53027s.07812.38867.21924.5293l1.76807,1.76953c.29248.29199.76904.29102,1.06152-.00098l1.76709-1.76758c.1416-.1416.21973-.33008.21973-.53027s-.07812-.38867-.21973-.53027l-1.76758-1.76758c-.1416-.1416-.33008-.21973-.53027-.21973Z" fill="var(--iconPrimary, #222)"/>
  <path d="M5.5,19.25004h-2.5c-1.24072,0-2.25-1.00977-2.25-2.25v-2.5c0-1.24023,1.00928-2.25,2.25-2.25h2.5c1.24072,0,2.25,1.00977,2.25,2.25v2.5c0,1.24023-1.00928,2.25-2.25,2.25ZM3,13.75004c-.41357,0-.75.33691-.75.75v2.5c0,.41309.33643.75.75.75h2.5c.41357,0,.75-.33691.75-.75v-2.5c0-.41309-.33643-.75-.75-.75h-2.5Z" fill="var(--iconPrimary, #222)"/>
</svg>