<?xml version="1.0" encoding="UTF-8"?>
<svg id="d" data-name="canvas" xmlns="http://www.w3.org/2000/svg" width="20" height="20" viewBox="0 0 20 20">
  <path d="M16.91455,10.3783c.10016-.24194.10016-.51477,0-.75671-.05017-.12085-.12256-.2301-.21375-.32129l-4.63037-4.63037c-.38574-.38672-1.0127-.38672-1.39844,0-.38623.38574-.38623,1.0127,0,1.39844l2.94238,2.94238H3.99913c-.5464,0-.9888.44336-.9888.98926s.4424.98926.9888.98926h9.61525l-2.94238,2.94243c-.38623.3857-.38623,1.0126,0,1.3984.19287.1933.44629.29.69922.29s.50635-.0967.69922-.29l4.63037-4.63038c.09125-.09119.16356-.20045.21374-.32142Z" fill="var(--iconPrimary, #222)"/>
</svg>