<?xml version="1.0" encoding="UTF-8"?>
<svg id="g" data-name="ICONS" xmlns="http://www.w3.org/2000/svg" width="20" height="20" viewBox="0 0 20 20">
  <path d="M14.74878,9.38372l-3.0752-3.125c-.33984-.3457-.89355-.34863-1.2373-.01074-.34473.33887-.34961.89355-.01074,1.2373l1.6106,1.63672h-6.16113c-.4834,0-.875.3916-.875.875s.3916.875.875.875h6.16113l-1.6106,1.63672c-.33887.34375-.33398.89844.01074,1.2373.16992.16699.3916.25098.61328.25098.22656,0,.45215-.08691.62402-.26172l3.0752-3.125c.33496-.33984.33496-.88672,0-1.22656Z" fill="var(--iconPrimary, #222)"/>
</svg>