<?xml version="1.0" encoding="UTF-8"?>
<svg   xmlns="http://www.w3.org/2000/svg" width="20" height="20" viewBox="0 0 20 20">
  <path d="M16.20422,10.74999l-1.73987,1.74023c-.29297.29297-.29297.76758,0,1.06055.14648.14649.33838.21973.53027.21973s.38379-.07325.53027-.21973l3.00537-3.00586c.14063-.14062.21973-.33105.21973-.53027s-.07911-.38965-.21973-.53027l-3.00537-3.00488c-.29297-.29297-.76758-.29297-1.06055,0s-.29297.76758,0,1.06055l1.71033,1.70996H3.83704s1.71033-1.70996,1.71033-1.70996c.29297-.29297.29297-.76758,0-1.06055s-.76758-.29297-1.06055,0l-3.00537,3.00488c-.14062.14062-.21973.33105-.21973.53027s.0791.38965.21973.53027l3.00537,3.00586c.14648.14648.33838.21973.53027.21973s.38379-.07324.53027-.21973c.29297-.29297.29297-.76758,0-1.06055l-1.73987-1.74023h12.39673Z" fill="var(--iconPrimary, #222)"/>
</svg>