<?xml version="1.0" encoding="UTF-8"?>
<svg   xmlns="http://www.w3.org/2000/svg" width="20" height="20" viewBox="0 0 20 20">
  <path d="M13.55029,5.2373l-3.00488-3.00586c-.14062-.14062-.33154-.21973-.53027-.21973s-.38965.0791-.53027.21973l-3.00537,3.00586c-.29297.29297-.29297.76758,0,1.06055s.76758.29297,1.06055,0l1.70996-1.71045v12.6626c0,.41406.33594.75.75.75s.75-.33594.75-.75V4.55737l1.73975,1.74048c.14648.14648.33838.21973.53027.21973s.38379-.07324.53027-.21973c.29297-.29297.29297-.76758,0-1.06055Z" fill="var(--iconPrimary, #222)" stroke-width="0"/>
</svg>