<?xml version="1.0" encoding="UTF-8"?>
<svg   xmlns="http://www.w3.org/2000/svg" width="20" height="20" viewBox="0 0 20 20">
  <path d="M17.76855,9.48438l-3.00537-3.00488c-.29297-.29297-.76758-.29297-1.06055,0s-.29297.76758,0,1.06055l1.71033,1.70996H2.75c-.41406,0-.75.33594-.75.75s.33594.75.75.75h12.6925l-1.73987,1.74023c-.29297.29297-.29297.76758,0,1.06055.14648.14648.33838.21973.53027.21973s.38379-.07324.53027-.21973l3.00537-3.00586c.14062-.14062.21973-.33105.21973-.53027s-.0791-.38965-.21973-.53027Z" fill="var(--iconPrimary, #222)" stroke-width="0"/>
</svg>