<?xml version="1.0" encoding="UTF-8"?>
<svg xmlns="http://www.w3.org/2000/svg" width="20" height="20" viewBox="0 0 20 20">
  <path d="M15,10.5c-2.48529,0-4.5,2.01471-4.5,4.5s2.01471,4.5,4.5,4.5,4.5-2.01471,4.5-4.5-2.01471-4.5-4.5-4.5ZM17.5,15.625h-1.875v1.875c0,.34473-.28027.625-.625.625s-.625-.28027-.625-.625v-1.875h-1.875c-.34473,0-.625-.28027-.625-.625s.28027-.625.625-.625h1.875v-1.875c0-.34473.28027-.625.625-.625s.625.28027.625.625v1.875h1.875c.34473,0,.625.28027.625.625s-.28027.625-.625.625Z" fill="var(--iconPrimary, #222)"/>
  <path d="M4.75,3.5c-.41406,0-.75-.33594-.75-.75v-1.75c0-.41406.33594-.75.75-.75s.75.33594.75.75v1.75c0,.41406-.33594.75-.75.75Z" fill="var(--iconPrimary, #222)"/>
  <path d="M2.75,5.5h-1.75c-.41406,0-.75-.33594-.75-.75s.33594-.75.75-.75h1.75c.41406,0,.75.33594.75.75s-.33594.75-.75.75Z" fill="var(--iconPrimary, #222)"/>
  <path d="M16.92773,7.86719l-3.20801-3.20801c-.41895-.41895-.99902-.65918-1.59082-.65918h-5.87891c-1.24023,0-2.25,1.00928-2.25,2.25v9.5c0,1.24072,1.00977,2.25,2.25,2.25h2.39355c.41406,0,.75-.33594.75-.75s-.33594-.75-.75-.75h-2.39355c-.41309,0-.75-.33643-.75-.75V6.25c0-.41357.33691-.75.75-.75h4.75v3.25c0,.15723.01758.31787.05273.47705.07617.35059.38672.58936.73145.58936.05371,0,.10742-.00537.16113-.01758.40527-.08838.66113-.48828.57227-.89307-.01172-.05469-.01758-.10547-.01758-.15576v-3.13623c.05542.0321.11353.0603.15918.10596l3.20801,3.20801c.29297.29297.76758.29297,1.06055,0s.29297-.76758,0-1.06055Z" fill="var(--iconPrimary, #222)"/>
</svg>