<?xml version="1.0" encoding="UTF-8"?>
<svg id="e" data-name="strokes" xmlns="http://www.w3.org/2000/svg" width="20" height="20" viewBox="0 0 20 20">
  <path d="M5.25,2.00003h-3.25c-.55228,0-1,.44772-1,1v3.25c0,.41421.33579.75.75.75h.84961c1.87798,0,3.40039-1.52241,3.40039-3.40039v-.84961c0-.41421-.33579-.75-.75-.75Z" fill="var(--iconPrimary, #222)" opacity=".35"/>
  <path d="M11.25,2.00003h-3.25c-.55228,0-1,.44772-1,1v3.25c0,.41421.33579.75.75.75h.84961c1.87798,0,3.40039-1.52241,3.40039-3.40039v-.84961c0-.41421-.33579-.75-.75-.75Z" fill="var(--iconPrimary, #222)" opacity=".35"/>
  <path d="M17.25,2.00003h-3.25c-.55228,0-1,.44772-1,1v3.25c0,.41421.33579.75.75.75h.84961c1.87798,0,3.40039-1.52241,3.40039-3.40039v-.84961c0-.41421-.33579-.75-.75-.75Z" fill="var(--iconPrimary, #222)" opacity=".35"/>
  <path d="M5.25,8.00003h-3.25c-.55228,0-1,.44772-1,1v3.25c0,.41421.33579.75.75.75h.84961c1.87798,0,3.40039-1.52241,3.40039-3.40039v-.84961c0-.41421-.33579-.75-.75-.75Z" fill="var(--iconPrimary, #222)"/>
  <path d="M11.25,8.00003h-3.25c-.55228,0-1,.44772-1,1v3.25c0,.41421.33579.75.75.75h.84961c1.87798,0,3.40039-1.52241,3.40039-3.40039v-.84961c0-.41421-.33579-.75-.75-.75Z" fill="var(--iconPrimary, #222)"/>
  <path d="M17.25,8.00003h-3.25c-.55228,0-1,.44772-1,1v3.25c0,.41421.33579.75.75.75h.84961c1.87798,0,3.40039-1.52241,3.40039-3.40039v-.84961c0-.41421-.33579-.75-.75-.75Z" fill="var(--iconPrimary, #222)"/>
</svg>