<?xml version="1.0" encoding="UTF-8"?>
<svg xmlns="http://www.w3.org/2000/svg" width="20" height="20" viewBox="0 0 20 20">
  <path d="M16.20459,8.4082c-.10986-.97949-.58057-1.76855-1.36084-2.28027-.27197-.17871-.57324-.31738-.89307-.42285-.07275-.25977-.2832-.47266-.56543-.5332-.29346-.06641-.58691.05566-.75732.28223-.77002-.05908-1.55994.0166-2.28223.15527-.02454-.54395-.0379-1.08936-.04059-1.61816.29083-.01367.56763-.02832.81012-.04395,1.31543-.08496,2.97119-.35254,3.04102-.36426.40869-.06641.68604-.45215.61963-.86035-.06689-.4082-.44824-.68945-.86084-.62012-.01611.00293-1.65283.26758-2.89648.34863-.20599.01318-.44043.02539-.68756.03711.00665-.15381.01373-.30664.02301-.45215.02637-.41309-.2876-.76953-.70068-.7959-.44092-.0498-.77002.28711-.79639.7002-.01184.18604-.02112.39209-.02905.60693-.97839.03271-1.81836.05127-1.83325.05127-.41406.00879-.74219.35254-.7334.7666.00928.4082.34326.7334.74951.7334h.01709c.05878-.00146.84595-.01904,1.77911-.0498.00348.62695.02148,1.2959.05579,1.97217-1.86041.69043-2.99042,1.8501-3.18353,3.31299-.08838.66699.04736,1.31445.38281,1.82422.49561.75195,1.39502,1.10547,2.35205.92773.55438-.10449,1.03314-.3584,1.44318-.61426.14398.18896.35095.31348.58075.31348.11719,0,.23584-.02734.34668-.08496.36719-.19141.50928-.64453.31787-1.01172-.01447-.02783-.02789-.06641-.04199-.09766,1.18939-.9873,2.06512-2.13721,2.56348-3.41113.14404.05664.27686.12305.39697.20215.41162.27051.63184.64941.69336,1.19434.15381,1.36621-1.46631,2.49414-2.64893,2.66992-.40967.06152-.69238.44336-.63135.85254.05518.37207.37549.63965.74072.63965.03662,0,.07373-.00293.11133-.00781,1.771-.26367,4.18506-1.95508,3.91846-4.32227ZM8.13672,10.61133c-.17139.03223-.59277.06934-.82178-.2793-.13477-.2041-.18896-.49609-.14844-.80176.12738-.96484.99664-1.5752,1.80646-1.94141.08289.88867.19965,1.72998.35547,2.43359-.03827.02588-.07977.06055-.11749.08496-.3208.20996-.69971.43359-1.07422.50391ZM10.65411,8.94189c-.08453-.5415-.15533-1.15576-.21045-1.80957.53033-.11426,1.08679-.19971,1.63641-.19971h.02002c-.36517.79883-.8877,1.45898-1.44598,2.00928Z" fill="var(--iconPrimary, #222)"/>
  <path d="M10.53027,16.21973l-1.75-1.75c-.29297-.29297-.76758-.29297-1.06055,0s-.29297.76758,0,1.06055l.46973.46973H2.75c-.41406,0-.75.33594-.75.75s.33594.75.75.75h5.43945l-.46973.46973c-.29297.29297-.29297.76758,0,1.06055.14648.14648.33838.21973.53027.21973s.38379-.07324.53027-.21973l1.75-1.75c.29297-.29297.29297-.76758,0-1.06055Z" fill="var(--iconPrimary, #222)"/>
  <path id="b" data-name="Path 1029751" d="M2.75,11.51606c0-.41421.33579-.75.75-.75s.75.33579.75.75-.33579.75-.75.75-.75-.33579-.75-.75Z" fill="var(--iconPrimary, #222)"/>
  <path id="c" data-name="Path 1029753" d="M2.75,8.51606c0-.41421.33579-.75.75-.75s.75.33579.75.75-.33579.75-.75.75-.75-.33579-.75-.75Z" fill="var(--iconPrimary, #222)"/>
  <path id="d" data-name="Path 1029755" d="M2.75,5.51606c0-.41421.33579-.75.75-.75s.75.33579.75.75-.33579.75-.75.75-.75-.33579-.75-.75Z" fill="var(--iconPrimary, #222)"/>
  <path id="e" data-name="Path 1029756" d="M2.75,2.51606c0-.41421.33579-.75.75-.75s.75.33579.75.75-.33579.75-.75.75-.75-.33579-.75-.75Z" fill="var(--iconPrimary, #222)"/>
  <path id="f" data-name="Path 1029751" d="M17.75,11.51606c0-.41421.33579-.75.75-.75s.75.33579.75.75-.33579.75-.75.75-.75-.33579-.75-.75Z" fill="var(--iconPrimary, #222)"/>
  <path id="g" data-name="Path 1029753" d="M17.75,8.51606c0-.41421.33579-.75.75-.75s.75.33579.75.75-.33579.75-.75.75-.75-.33579-.75-.75Z" fill="var(--iconPrimary, #222)"/>
  <path id="h" data-name="Path 1029755" d="M17.75,5.51606c0-.41421.33579-.75.75-.75s.75.33579.75.75-.33579.75-.75.75-.75-.33579-.75-.75Z" fill="var(--iconPrimary, #222)"/>
  <path id="i" data-name="Path 1029756" d="M17.75,2.51606c0-.41421.33579-.75.75-.75s.75.33579.75.75-.33579.75-.75.75-.75-.33579-.75-.75Z" fill="var(--iconPrimary, #222)"/>
</svg>