<?xml version="1.0" encoding="UTF-8"?>
<svg   xmlns="http://www.w3.org/2000/svg" width="20" height="20" viewBox="0 0 20 20">
  <path d="M15.75,18H4.25c-1.24072,0-2.25-1.00977-2.25-2.25V4.25c0-1.24023,1.00928-2.25,2.25-2.25l7.00753.00879c.41406.00098.74951.33691.74902.75098s-.33643.74902-.75.74902h-.00098l-7.00655-.00879c-.4126,0-.74902.33691-.74902.75v11.5c0,.41309.33643.75.75.75h11.5c.41357,0,.75-.33691.75-.75v-6.25c0-.41406.33594-.75.75-.75s.75.33594.75.75v6.25c0,1.24023-1.00928,2.25-2.25,2.25Z" fill="var(--iconPrimary, #222)" stroke-width="0"/>
  <path d="M19.00293,2.86133c-.0498-.55371-.31152-1.05469-.73779-1.41016-.42627-.35645-.96631-.5293-1.51904-.47559-.55322.0498-1.0542.31152-1.41064.73828l-4.81079,5.75854c-.23541.01733-.47321.05347-.71069.11938-1.5293.42383-2.06836,1.69824-2.54443,2.82129-.36523.8623-.68018,1.60742-1.36523,1.97754-.28613.15527-.43994.47754-.38037.79688.05957.32031.31836.56543.64111.60742.68701.08789,1.4502.15234,2.2207.15234,1.61426,0,3.26025-.28125,4.30078-1.20996.71973-.6416,1.07666-1.50293,1.06201-2.56055-.00031-.02246-.00781-.0437-.00873-.06616,1.24475-1.48926,4.75244-5.68872,4.78754-5.73071.35645-.42578.52539-.96582.47559-1.51855ZM11.68848,11.61816c-.66846.59473-1.99951.87402-3.74707.82129.2959-.46387.50928-.96777.70947-1.44141.4541-1.07227.77295-1.74121,1.56445-1.96094.57178-.16016,1.13281-.07812,1.53418.22363.31201.2334.49414.5752.49902.9375.00879.61133-.1748,1.07617-.56006,1.41992ZM17.37451,3.41992c-.05304.06421-2.75708,3.30078-4.25226,5.09058-.13806-.16479-.29492-.31714-.47333-.45093-.13861-.10352-.29382-.17822-.44727-.25537l4.28564-5.12939c.09912-.11816.23877-.19141.39258-.20508.1582-.01172.30469.03223.42334.13184s.19189.23926.20557.39355c.01416.1543-.03271.30371-.13428.4248Z" fill="var(--iconPrimary, #222)" stroke-width="0"/>
</svg>