<?xml version="1.0" encoding="UTF-8"?>
<svg id="f" data-name="ICONS" xmlns="http://www.w3.org/2000/svg" width="20" height="20" viewBox="0 0 20 20">
  <path d="M13.22412,9.20264l-.8269-.0647c-.10449-.29126-.26294-.56299-.46899-.802l.3501-.75244c.12451-.26782.02319-.58643-.2334-.73291l-.37378-.21338c-.25659-.14624-.58252-.07153-.74976.17188l-.46973.68433c-.31055-.05591-.625-.05396-.92896.00415l-.47632-.67896c-.16968-.24194-.49634-.31323-.75146-.16431l-.37158.21704c-.25513.14893-.35327.46851-.22607.73511l.35742.74854c-.09888.11719-.18994.24365-.2688.38159s-.14111.28052-.19165.42554l-.82617.073c-.29443.02588-.51953.27319-.51807.5686l.0022.43018c.00146.29541.22925.54053.52368.56348l.8269.0647c.10449.29126.26294.56299.46899.802l-.3501.75244c-.12451.26782-.02319.58643.2334.73291l.37378.21313c.25659.14648.58252.07178.74976-.17163l.46973-.68433c.31055.05591.625.05396.92896-.00415l.47632.67896c.16968.24194.49634.31323.75146.16431l.37158-.21704c.25513-.14893.35327-.46875.22607-.73511l-.35742-.74854c.09888-.11719.18994-.24365.2688-.38159s.14111-.28052.19165-.42554l.82617-.073c.29443-.02612.51953-.27319.51807-.5686l-.0022-.43018c-.00146-.29541-.22925-.54053-.52368-.56348ZM10.47314,10.81982c-.45264.26123-1.03149.1062-1.29297-.34668-.26123-.45264-.1062-1.03149.34668-1.29297.45264-.26123,1.03149-.1062,1.29297.34668.26123.45264.1062,1.03149-.34668,1.29297Z" fill="var(--iconPrimary, #222)"/>
  <path d="M17.25,11.76685v-3.5376c.80078-.30469,1.37402-1.07458,1.37402-1.9812,0-1.17188-.95312-2.125-2.125-2.125-.52051,0-.99146.19531-1.36133.50696l-3.04492-1.69702c.01514-.10144.03125-.20251.03125-.30798,0-1.17188-.95312-2.125-2.125-2.125s-2.125.95312-2.125,2.125c0,.10583.01611.20728.03125.30896l-3.04443,1.69641c-.36987-.31189-.84106-.50732-1.36182-.50732-1.17188,0-2.125.95312-2.125,2.125,0,.90735.57397,1.67761,1.37598,1.98181v3.53638c-.802.3042-1.37598,1.07446-1.37598,1.98181,0,1.17188.95312,2.125,2.125,2.125.52051,0,.99146-.19531,1.36133-.50684l3.04565,1.69946c-.01489.10107-.03101.20215-.03101.30737,0,1.17188.95312,2.125,2.125,2.125s2.125-.95312,2.125-2.125c0-.1051-.01611-.20581-.03101-.30688l3.04468-1.69922c.36963.31104.84033.5061,1.36035.5061,1.17188,0,2.125-.95312,2.125-2.125,0-.90662-.57324-1.67651-1.37402-1.9812ZM14.37402,13.74805c0,.1062.01636.20789.03125.30981l-3.04248,1.69824c-.37012-.31226-.8418-.50806-1.36279-.50806s-.99219.19556-1.3623.50769l-3.04492-1.69885c.01514-.10168.03125-.20312.03125-.30884,0-.90662-.57324-1.67651-1.37402-1.9812v-3.5376c.80078-.30469,1.37402-1.07458,1.37402-1.9812,0-.10547-.01611-.20654-.03125-.30798l3.04517-1.69678c.36987.31152.84082.50671,1.36108.50671.52075,0,.99194-.19543,1.36182-.50732l3.04443,1.69678c-.01514.10156-.03125.20288-.03125.30859,0,.90735.57397,1.67761,1.37598,1.98181v3.53638c-.802.3042-1.37598,1.07446-1.37598,1.98181ZM16.49902,5.37305c.48242,0,.875.39258.875.875s-.39258.875-.875.875-.875-.39258-.875-.875.39258-.875.875-.875ZM9.99902,1.75c.48242,0,.875.39258.875.875s-.39258.875-.875.875-.875-.39258-.875-.875.39258-.875.875-.875ZM3.49902,5.37305c.48242,0,.875.39258.875.875s-.39258.875-.875.875-.875-.39258-.875-.875.39258-.875.875-.875ZM3.49902,14.62305c-.48242,0-.875-.39258-.875-.875s.39258-.875.875-.875.875.39258.875.875-.39258.875-.875.875ZM10,18.24805c-.48242,0-.875-.39258-.875-.875s.39258-.875.875-.875.875.39258.875.875-.39258.875-.875.875ZM16.49902,14.62305c-.48242,0-.875-.39258-.875-.875s.39258-.875.875-.875.875.39258.875.875-.39258.875-.875.875Z" fill="var(--iconPrimary, #222)"/>
</svg>