<?xml version="1.0" encoding="UTF-8"?>
<svg id="e" data-name="ICONS" xmlns="http://www.w3.org/2000/svg" width="20" height="20" viewBox="0 0 20 20">
  <path d="M15.75,18H4.25c-1.24072,0-2.25-1.00977-2.25-2.25v-2c0-.41406.33594-.75.75-.75s.75.33594.75.75v2c0,.41309.33643.75.75.75h11.5c.41357,0,.75-.33691.75-.75v-2c0-.41406.33594-.75.75-.75s.75.33594.75.75v2c0,1.24023-1.00928,2.25-2.25,2.25Z" fill="var(--iconPrimary, #222)"/>
  <path d="M17.25,7c-.41406,0-.75-.33594-.75-.75v-2c0-.41309-.33643-.75-.75-.75H4.25c-.41357,0-.75.33691-.75.75v2c0,.41406-.33594.75-.75.75s-.75-.33594-.75-.75v-2c0-1.24023,1.00928-2.25,2.25-2.25h11.5c1.24072,0,2.25,1.00977,2.25,2.25v2c0,.41406-.33594.75-.75.75Z" fill="var(--iconPrimary, #222)"/>
  <path d="M16.78027,9.46973l-2.5-2.5c-.29297-.29297-.76758-.29297-1.06055,0s-.29297.76758,0,1.06055l1.21973,1.21973H5.56055l1.21973-1.21973c.29297-.29297.29297-.76758,0-1.06055s-.76758-.29297-1.06055,0l-2.5,2.5c-.29297.29297-.29297.76758,0,1.06055l2.5,2.5c.14648.14648.33838.21973.53027.21973s.38379-.07324.53027-.21973c.29297-.29297.29297-.76758,0-1.06055l-1.21973-1.21973h8.87891l-1.21973,1.21973c-.29297.29297-.29297.76758,0,1.06055.14648.14648.33838.21973.53027.21973s.38379-.07324.53027-.21973l2.5-2.5c.29297-.29297.29297-.76758,0-1.06055Z" fill="var(--iconPrimary, #222)"/>
</svg>