<?xml version="1.0" encoding="UTF-8"?>
<svg   xmlns="http://www.w3.org/2000/svg" width="20" height="20" viewBox="0 0 20 20">
  <path d="M2.75,11.75c-.41406,0-.75-.33594-.75-.75v-2.5c0-.41406.33594-.75.75-.75s.75.33594.75.75v2.5c0,.41406-.33594.75-.75.75Z" fill="var(--iconPrimary, #222)" stroke-width="0"/>
  <path d="M6.25,16.5c-.41406,0-.75-.33594-.75-.75V3.75c0-.41406.33594-.75.75-.75s.75.33594.75.75v12c0,.41406-.33594.75-.75.75Z" fill="var(--iconPrimary, #222)" stroke-width="0"/>
  <path d="M13.25,9.25586c-.41406,0-.75-.33594-.75-.75V1.75c0-.41406.33594-.75.75-.75s.75.33594.75.75v6.75586c0,.41406-.33594.75-.75.75Z" fill="var(--iconPrimary, #222)" stroke-width="0"/>
  <path d="M16.75,9.25586c-.41406,0-.75-.33594-.75-.75v-1.00586c0-.41406.33594-.75.75-.75s.75.33594.75.75v1.00586c0,.41406-.33594.75-.75.75Z" fill="var(--iconPrimary, #222)" stroke-width="0"/>
  <path d="M9.73877,11.55371c-.41406,0-.75-.33594-.75-.75v-5.08301c0-.41406.33594-.75.75-.75s.75.33594.75.75v5.08301c0,.41406-.33594.75-.75.75Z" fill="var(--iconPrimary, #222)" stroke-width="0"/>
  <path d="M15,10.521c-2.48535,0-4.5,2.01489-4.5,4.5,0,2.48535,2.01465,4.5,4.5,4.5s4.5-2.01465,4.5-4.5c0-2.48511-2.01465-4.5-4.5-4.5ZM17.5,15.64649h-1.875v1.875c0,.34473-.28027.625-.625.625s-.625-.28027-.625-.625v-1.875h-1.875c-.34473,0-.625-.28027-.625-.625s.28027-.625.625-.625h1.875v-1.875c0-.34473.28027-.625.625-.625s.625.28027.625.625v1.875h1.875c.34473,0,.625.28027.625.625s-.28027.625-.625.625Z" fill="var(--iconPrimary, #222)" stroke-width="0"/>
</svg>