<?xml version="1.0" encoding="UTF-8"?>
<svg   xmlns="http://www.w3.org/2000/svg" width="20" height="20" viewBox="0 0 20 20">
  <path d="M6.77637,9c-.21191,0-.41504-.08984-.55762-.24805l-1.15137-1.28027c-.27734-.30859-.25195-.78223.05566-1.05957s.78125-.25098,1.05957.05566l.53418.59473,1.30371-1.77734c.24316-.33301.71094-.40918,1.04785-.16113.33398.24414.40625.71387.16113,1.04785l-1.84863,2.52148c-.13281.18262-.3418.29492-.56738.30566-.01172.00098-.02441.00098-.03711.00098Z" fill="var(--iconPrimary, #222)"/>
  <path d="M7.55859,18h-3.30859c-1.24023,0-2.25-1.00977-2.25-2.25V4.25c0-1.24023,1.00977-2.25,2.25-2.25h11.5c1.24023,0,2.25,1.02051,2.25,2.27441v3.25098c0,.41406-.33594.75-.75.75s-.75-.33594-.75-.75v-3.25098c0-.43457-.3291-.77441-.75-.77441H4.25c-.41309,0-.75.33691-.75.75v11.5c0,.41309.33691.75.75.75h3.30859c.41406,0,.75.33594.75.75s-.33594.75-.75.75Z" fill="var(--iconPrimary, #222)"/>
  <path d="M14.25,8h-3.5c-.41406,0-.75-.33594-.75-.75s.33594-.75.75-.75h3.5c.41406,0,.75.33594.75.75s-.33594.75-.75.75Z" fill="var(--iconPrimary, #222)"/>
  <path d="M19.43066,18.37012l-2.59131-2.59131c.46973-.67651.74854-1.49451.74854-2.37842,0-2.30859-1.87891-4.1875-4.1875-4.1875s-4.1875,1.87891-4.1875,4.1875,1.87891,4.1875,4.1875,4.1875c.88379,0,1.7019-.27893,2.37842-.74854l2.59131,2.59131c.14648.14648.33789.21973.53027.21973s.38379-.07324.53027-.21973c.29297-.29297.29297-.76758,0-1.06055ZM10.71289,13.40039c0-1.48145,1.20605-2.6875,2.6875-2.6875s2.6875,1.20605,2.6875,2.6875-1.20605,2.6875-2.6875,2.6875-2.6875-1.20605-2.6875-2.6875Z" fill="var(--iconPrimary, #222)"/>
</svg>