<?xml version="1.0" encoding="UTF-8"?>
<svg id="e" data-name="ICONS" xmlns="http://www.w3.org/2000/svg" width="20" height="20" viewBox="0 0 20 20">
  <path d="M10,18c-.41406,0-.75-.33594-.75-.75V7.5c0-.41406.33594-.75.75-.75s.75.33594.75.75v9.75c0,.41406-.33594.75-.75.75Z" fill="var(--iconPrimary, #222)" opacity=".35"/>
  <path d="M6.5,18c-.41406,0-.75-.33594-.75-.75v-6.75c0-.41406.33594-.75.75-.75s.75.33594.75.75v6.75c0,.41406-.33594.75-.75.75Z" fill="var(--iconPrimary, #222)" opacity=".25"/>
  <path d="M3,18c-.41406,0-.75-.33594-.75-.75v-3.75c0-.41406.33594-.75.75-.75s.75.33594.75.75v3.75c0,.41406-.33594.75-.75.75Z" fill="var(--iconPrimary, #222)" opacity=".12"/>
  <path d="M13.5,18c-.41406,0-.75-.33594-.75-.75V4.5c0-.41406.33594-.75.75-.75s.75.33594.75.75v12.75c0,.41406-.33594.75-.75.75Z" fill="var(--iconPrimary, #222)" opacity=".5"/>
  <path d="M17,18c-.41406,0-.75-.33594-.75-.75V1.75c0-.41406.33594-.75.75-.75s.75.33594.75.75v15.5c0,.41406-.33594.75-.75.75Z" fill="var(--iconPrimary, #222)"/>
</svg>