<?xml version="1.0" encoding="UTF-8"?>
<svg xmlns="http://www.w3.org/2000/svg" width="28.00005" height="28" viewBox="0 0 28.00005 28">
  <g id="circles">
    <circle id="Ellipse_10213" data-name="Ellipse 10213" cx="14.00002" cy="14" r="14.00001" fill="#0ba45d"/>
  </g>
  <g id="ICONS">
    <rect id="S2_Icon_PeopleProperties_20_N" x="5.09281" y="5.00404" width="18" height="18" fill="none" opacity=".1"/>
    <g>
      <path d="M13.42747,17.15404h3.94958c.27971.78376,1.02195,1.35,1.90042,1.35s1.62081-.56624,1.90052-1.35h.79948c.37266,0,.675-.30234.675-.675s-.30234-.675-.675-.675h-.79948c-.2796-.78376-1.02206-1.35-1.90052-1.35s-1.62081.56624-1.90042,1.35h-3.94958c-.37266,0-.675.30234-.675.675s.30234.675.675.675ZM19.27747,15.80404c.37178,0,.675.30322.675.675s-.30322.675-.675.675-.675-.30322-.675-.675.30322-.675.675-.675Z" fill="#fff"/>
      <path d="M21.97747,19.85404h-3.94948c-.2796-.78376-1.02206-1.35-1.90052-1.35s-1.62081.56624-1.90042,1.35h-.79958c-.37266,0-.675.30234-.675.675s.30234.675.675.675h.79958c.27971.78376,1.02195,1.35,1.90042,1.35s1.62081-.56624,1.90052-1.35h3.94948c.37266,0,.675-.30234.675-.675s-.30234-.675-.675-.675ZM16.12747,21.20404c-.37178,0-.675-.30322-.675-.675s.30322-.675.675-.675.675.30322.675.675-.30322.675-.675.675Z" fill="#fff"/>
    </g>
    <g>
      <path d="M17.47747,5.90404h-9.45c-1.11621,0-2.025.90879-2.025,2.025v9.45c0,1.11621.90879,2.025,2.025,2.025h3.34951c.37266,0,.675-.30234.675-.675s-.30234-.675-.675-.675h-2.66001c.57118-.57634,1.3299-1.03184,2.20737-1.30254.35596-.10986.55547-.48779.44561-.84463-.10986-.35508-.48516-.55371-.84463-.44561-1.29155.39924-2.38315,1.13796-3.14033,2.07795-.0134-.05273-.03252-.10349-.03252-.16018V7.92904c0-.37178.30322-.675.675-.675h9.45c.37178,0,.675.30322.675.675v4.52373c0,.37266.30234.675.675.675s.675-.30234.675-.675v-4.52373c0-1.11621-.90879-2.025-2.025-2.025Z" fill="#fff"/>
      <path d="M12.75247,8.15404c-1.55039,0-2.8125,1.3623-2.8125,3.0375s1.26211,3.0375,2.8125,3.0375,2.8125-1.3623,2.8125-3.0375-1.26211-3.0375-2.8125-3.0375ZM12.75247,12.87904c-.80684,0-1.4625-.75674-1.4625-1.6875s.65566-1.6875,1.4625-1.6875,1.4625.75674,1.4625,1.6875-.65566,1.6875-1.4625,1.6875Z" fill="#fff"/>
    </g>
  </g>
</svg>