<?xml version="1.0" encoding="UTF-8"?>
<svg   xmlns="http://www.w3.org/2000/svg" width="20" height="20" viewBox="0 0 20 20">
  <path d="M2.75,11.75c-.41406,0-.75-.33594-.75-.75v-2.5c0-.41406.33594-.75.75-.75s.75.33594.75.75v2.5c0,.41406-.33594.75-.75.75Z" fill="var(--iconPrimary, #222)" stroke-width="0"/>
  <path d="M6.25,16.5c-.41406,0-.75-.33594-.75-.75V3.75c0-.41406.33594-.75.75-.75s.75.33594.75.75v12c0,.41406-.33594.75-.75.75Z" fill="var(--iconPrimary, #222)" stroke-width="0"/>
  <path d="M13.25,9.25586c-.41406,0-.75-.33594-.75-.75V1.75c0-.41406.33594-.75.75-.75s.75.33594.75.75v6.75586c0,.41406-.33594.75-.75.75Z" fill="var(--iconPrimary, #222)" stroke-width="0"/>
  <path d="M16.75,9.25586c-.41406,0-.75-.33594-.75-.75v-1.00586c0-.41406.33594-.75.75-.75s.75.33594.75.75v1.00586c0,.41406-.33594.75-.75.75Z" fill="var(--iconPrimary, #222)" stroke-width="0"/>
  <path d="M9.73877,11.55371c-.41406,0-.75-.33594-.75-.75v-5.08301c0-.41406.33594-.75.75-.75s.75.33594.75.75v5.08301c0,.41406-.33594.75-.75.75Z" fill="var(--iconPrimary, #222)" stroke-width="0"/>
  <path d="M15,10.52112c-2.48529,0-4.5,2.01477-4.5,4.5s2.01471,4.5,4.5,4.5,4.5-2.01477,4.5-4.5-2.01471-4.5-4.5-4.5ZM17.61133,15.44238l-2,2c-.12207.12207-.28174.18262-.44189.18262s-.31982-.06055-.44189-.18262c-.24414-.24414-.24414-.64062,0-.88477l.93292-.93262h-2.91046c-.34521,0-.625-.28027-.625-.625s.27979-.625.625-.625h2.91046l-.93292-.93262c-.24414-.24414-.24414-.64062,0-.88477s.63965-.24414.88379,0l2,2c.24414.24414.24414.64062,0,.88477Z" fill="var(--iconPrimary, #222)" stroke-width="0"/>
</svg>