<?xml version="1.0" encoding="UTF-8"?>
<svg xmlns="http://www.w3.org/2000/svg" width="20" height="20" viewBox="0 0 20 20">
  <g>
    <path d="M12.9873,8.41602c.34814,0,.66016-.24414.7334-.59863.08398-.40527-.17725-.80176-.58252-.88574-.10596-.02148-.20996-.04102-.31299-.05859-.02832-.08789-.05811-.17969-.08984-.27344-.13232-.39258-.55615-.60156-.9502-.4707-.39258.13281-.60352.55859-.4707.95117.0835.24805.15381.47656.20996.67773.08447.29883.34473.51563.6543.54395.20996.01855.42969.05176.65576.09863.05127.01074.10254.01563.15283.01563Z" fill="var(--iconPrimary, #222)"/>
    <path d="M9.92334,4.33984c-.31934-.41602-.6626-.75391-1.02051-1.00488-.33936-.2373-.42187-.70508-.18408-1.04492.2373-.33887.70557-.4209,1.04443-.18359.4834.33887.9375.78223,1.34961,1.31934.25244.3291.19043.7998-.13818,1.05176-.13623.10449-.29639.15527-.45605.15527-.2251,0-.44775-.10059-.59521-.29297Z" fill="var(--iconPrimary, #222)"/>
    <path d="M16.25342,10.28516c-.31836-.31348-.66064-.59668-1.01611-.8418-.34082-.23438-.42676-.70215-.19189-1.04297.23486-.33984.70166-.42578,1.04346-.19141.42627.29395.83545.63184,1.21631,1.00586.29541.29004.29932.76563.00928,1.06055-.14697.14941-.34082.22461-.53516.22461-.18994,0-.37988-.07129-.52588-.21484Z" fill="var(--iconPrimary, #222)"/>
  </g>
  <path d="M3.10924,13.46979c4.32539.02364,7.29201-2.15028,8.71017-2.15028,1.84361,0,5.19978.84081,5.0212,2.32192-.01022.08473.01865,1.77101-3.58303,1.48041-2.35399-.18993-4.72802,1.35884-6.09329,1.37314-4.09795.04291-4.05504-3.02519-4.05504-3.02519Z" fill="var(--iconPrimary, #222)" opacity=".2"/>
  <path d="M3.11035,13.41699c-.00537.41406.32617.75391.74023.75977,3.42432.03613,5.23486-.97754,6.56299-1.72266.71973-.4043,1.23975-.69629,1.77881-.69629,1.55078,0,2.71191,1.1123,3.23486,2.06543.13623.24805.39307.38867.65771.38867.12207,0,.24609-.0293.36035-.09277.36328-.19922.49609-.65527.29639-1.01855-.71973-1.31152-2.34326-2.84277-4.54932-2.84277-.93115,0-1.69971.43164-2.51318.88867-.54858.30811-1.16437.64575-1.9292.92773v-2.15039c1.06445-.1582,2.2998-.56641,2.2998-1.6084,0-1.18164-1.38525-4.31543-3.0498-4.31543s-3.0498,3.05078-3.0498,4.20215c0,1.0752,1.08643,1.59082,2.2998,1.74609v2.53345c-.68164.12744-1.45508.20728-2.37988.19507h-.00977c-.41016,0-.74463.3291-.75.74023ZM6.98389,8.49902c-.65869-.01758-1.41992-.19629-1.55566-.36914.02197-.74902,1.13184-2.54004,1.58691-2.63086.43408.11035,1.40381,1.80762,1.52246,2.65918-.26807.1416-.9502.29492-1.55371.34082Z" fill="var(--iconPrimary, #222)"/>
  <path d="M4.65479,3.56445c.14893,0,.29932-.04395.43018-.13574.39502-.27734.81543-.4707,1.25-.5752.40283-.09766.65039-.50293.55322-.90527-.09668-.40234-.50244-.64551-.90479-.55371-.61816.14941-1.21045.4209-1.75977.80566-.33936.23828-.42139.70605-.18311,1.04492.14551.20801.37842.31934.61426.31934Z" fill="var(--iconPrimary, #222)"/>
  <path d="M1.98633,7.68164c.32275,0,.62061-.20996.71826-.53516.15381-.51562.34033-1,.5542-1.44043.18066-.37207.02539-.82129-.34717-1.00195-.37305-.17773-.82129-.02441-1.00244.34766-.24854.51172-.46436,1.07227-.64209,1.66504-.11865.39648.10693.81445.50391.93359.07178.02148.14404.03125.21533.03125Z" fill="var(--iconPrimary, #222)"/>
  <path d="M2.08496,12.05176c.20459,0,.40869-.08301.55664-.24707.15234-.16895.31055-.32324.4502-.43359.30225-.24023.37354-.66992.16455-.99414-.12988-.20215-.25586-.4043-.37061-.60547-.20508-.36133-.66309-.48535-1.02246-.28125-.36035.20508-.48633.66309-.28125,1.02344.02637.04688.05371.09375.08154.14063-.04541.04687-.09033.09473-.13525.14453-.27734.30762-.25342.78223.05371,1.05957.14355.12988.32324.19336.50293.19336Z" fill="var(--iconPrimary, #222)"/>
  <path d="M1.75195,16.0332c.14209,0,.28564-.04004.4126-.12402.3457-.22852.44092-.69336.21289-1.03906-.22705-.34375-.37207-.69531-.43066-1.04492-.06885-.4082-.45508-.69336-.86426-.61426-.40869.06836-.68408.45508-.61523.86426.09424.55664.31543,1.10156.6582,1.62109.14404.21875.3833.33691.62646.33691Z" fill="var(--iconPrimary, #222)"/>
  <path d="M5.23535,18.49512c.3252,0,.625-.21289.71973-.54199.11523-.39746-.11377-.81348-.51172-.92871-.41406-.11914-.81348-.28418-1.18701-.48828-.36426-.19922-.81934-.06543-1.01807.29883-.19873.36328-.06494.81836.29834,1.01758.46973.25684.9707.46289,1.48975.61328.06982.01953.13965.0293.20898.0293Z" fill="var(--iconPrimary, #222)"/>
  <path d="M8.10645,18.68066c.03857,0,.07764-.00293.11719-.00879.49512-.07812.98535-.21094,1.54297-.41992.38818-.14453.58545-.57617.44043-.96484s-.57666-.58984-.96484-.43945c-.46094.17187-.8584.28027-1.25098.3418-.40918.06445-.68896.44824-.62451.85742.05762.37012.37695.63379.73975.63379Z" fill="var(--iconPrimary, #222)"/>
  <path d="M12.27051,17.46094c.03467,0,.06982-.00195.10547-.00684.29053-.04102.57275-.06152.8457-.06152l.47607.01367c.37891.00977.75879-.31543.77002-.72949.01172-.41406-.31494-.75879-.729-.77051l-.49658-.01367h-.00586c-.36182,0-.71436.02539-1.06934.0752-.41016.05859-.6958.4375-.63818.84766.05273.375.37402.64551.7417.64551Z" fill="var(--iconPrimary, #222)"/>
  <path d="M16.61572,17.44336c.03613,0,.07275-.00293.10986-.00781.64697-.09473,1.21533-.35937,1.68848-.78516.30762-.27734.33252-.75195.05518-1.05957-.27734-.30859-.75244-.33203-1.05908-.05566-.25293.22852-.54785.36426-.90234.41602-.40967.06055-.69336.44141-.6333.85059.05469.37305.375.6416.74121.6416Z" fill="var(--iconPrimary, #222)"/>
  <path d="M18.87305,14.2207c.02734,0,.05469-.00098.08252-.00488.41162-.04492.70898-.41504.66406-.82617-.05811-.53223-.20947-1.07617-.4502-1.61621-.16895-.37695-.61182-.55078-.99023-.37891-.37842.16797-.54834.61133-.37988.99023.1748.3916.28857.7959.3291,1.16699.04199.38477.36719.66895.74463.66895Z" fill="var(--iconPrimary, #222)"/>
  <path d="M8.5376,8.1582c-.26807.1416-.9502.29492-1.55371.34082-.65869-.01758-1.41992-.19629-1.55566-.36914.02197-.74902,1.13184-2.54004,1.58691-2.63086.43408.11035,1.40381,1.80762,1.52246,2.65918Z" fill="var(--iconPrimary, #222)" opacity=".12"/>
</svg>