<?xml version="1.0" encoding="UTF-8"?>
<svg xmlns="http://www.w3.org/2000/svg" width="20" height="20" viewBox="0 0 20 20">
  <path d="M7.75451,13.60093l-4.16714,3.28898s-1.58738-.50527-1.58738-1.13991V4.25c0-1.24264,1.00736-2.25,2.25-2.25h11.5c1.24264,0,2.25,1.00736,2.25,2.25v8.67016l-5.49919,4.74101-4.7463-4.06025Z" fill="var(--iconPrimary, #222)" opacity=".12"/>
  <path d="M12.49512,18.08496c-.6167,0-1.2334-.23438-1.70264-.7041l-2.5127-2.5127c-.35449-.35352-.93018-.35254-1.28467,0l-2.00781,2.00781c-.50244.50391-1.24854.65234-1.90723.37891-.65625-.27148-1.08008-.90625-1.08008-1.61621,0-.41406.33594-.75.75-.75s.75.33594.75.75c0,.14551.09668.20703.1543.23047.05762.02441.16992.04785.27246-.05371l2.00781-2.00781c.93945-.93945,2.46729-.93945,3.40576,0l2.5127,2.5127c.35449.35352.92969.35352,1.28418,0l3.28955-3.28906c.04639-.04688.07324-.11133.07324-.17676v-1.33301c0-.41406.33594-.75.75-.75s.75.33594.75.75v1.33301c0,.46094-.18701.91113-.5127,1.2373l-3.28955,3.28906c-.46924.46973-1.08594.7041-1.70264.7041Z" fill="var(--iconPrimary, #222)"/>
  <path d="M12.75,3.52148h-1.25c-.41406,0-.75-.33594-.75-.75s.33594-.75.75-.75h1.25c.41406,0,.75.33594.75.75s-.33594.75-.75.75Z" fill="var(--iconPrimary, #222)"/>
  <path d="M8.5,3.52148h-1.25c-.41406,0-.75-.33594-.75-.75s.33594-.75.75-.75h1.25c.41406,0,.75.33594.75.75s-.33594.75-.75.75Z" fill="var(--iconPrimary, #222)"/>
  <path d="M17.25,5.02148c-.41406,0-.75-.33594-.75-.75,0-.41309-.33643-.75-.75-.75-.41406,0-.75-.33594-.75-.75s.33594-.75.75-.75c1.24072,0,2.25,1.00977,2.25,2.25,0,.41406-.33594.75-.75.75Z" fill="var(--iconPrimary, #222)"/>
  <path d="M17.25,9.27148c-.41406,0-.75-.33594-.75-.75v-1.25c0-.41406.33594-.75.75-.75s.75.33594.75.75v1.25c0,.41406-.33594.75-.75.75Z" fill="var(--iconPrimary, #222)"/>
  <path d="M2.75,9.27148c-.41406,0-.75-.33594-.75-.75v-1.25c0-.41406.33594-.75.75-.75s.75.33594.75.75v1.25c0,.41406-.33594.75-.75.75Z" fill="var(--iconPrimary, #222)"/>
  <path d="M2.75,13.52148c-.41406,0-.75-.33594-.75-.75v-1.25c0-.41406.33594-.75.75-.75s.75.33594.75.75v1.25c0,.41406-.33594.75-.75.75Z" fill="var(--iconPrimary, #222)"/>
  <path d="M2.75,5.02148c-.41406,0-.75-.33594-.75-.75,0-1.24023,1.00928-2.25,2.25-2.25.41406,0,.75.33594.75.75s-.33594.75-.75.75c-.41357,0-.75.33691-.75.75,0,.41406-.33594.75-.75.75Z" fill="var(--iconPrimary, #222)"/>
  <circle cx="13" cy="7.5" r="1.5" fill="var(--iconPrimary, #222)"/>
</svg>