<?xml version="1.0" encoding="UTF-8"?>
<svg   xmlns="http://www.w3.org/2000/svg" width="20" height="20" viewBox="0 0 20 20">
  <path d="m12.75,3.5h-1.25c-.41406,0-.75-.33594-.75-.75s.33594-.75.75-.75h1.25c.41406,0,.75.33594.75.75s-.33594.75-.75.75Z" fill="var(--iconPrimary, #222)" stroke-width="0"/>
  <path d="m8.5,3.5h-1.25c-.41406,0-.75-.33594-.75-.75s.33594-.75.75-.75h1.25c.41406,0,.75.33594.75.75s-.33594.75-.75.75Z" fill="var(--iconPrimary, #222)" stroke-width="0"/>
  <path d="m17.25,5c-.41406,0-.75-.33594-.75-.75,0-.41309-.33643-.75-.75-.75-.41406,0-.75-.33594-.75-.75s.33594-.75.75-.75c1.24072,0,2.25,1.00977,2.25,2.25,0,.41406-.33594.75-.75.75Z" fill="var(--iconPrimary, #222)" stroke-width="0"/>
  <path d="m17.25,9.25c-.41406,0-.75-.33594-.75-.75v-1.25c0-.41406.33594-.75.75-.75s.75.33594.75.75v1.25c0,.41406-.33594.75-.75.75Z" fill="var(--iconPrimary, #222)" stroke-width="0"/>
  <path d="m2.75,9.25c-.41406,0-.75-.33594-.75-.75v-1.25c0-.41406.33594-.75.75-.75s.75.33594.75.75v1.25c0,.41406-.33594.75-.75.75Z" fill="var(--iconPrimary, #222)" stroke-width="0"/>
  <path d="m17.25,13.5c-.41406,0-.75-.33594-.75-.75v-1.25c0-.41406.33594-.75.75-.75s.75.33594.75.75v1.25c0,.41406-.33594.75-.75.75Z" fill="var(--iconPrimary, #222)" stroke-width="0"/>
  <path d="m2.75,13.5c-.41406,0-.75-.33594-.75-.75v-1.25c0-.41406.33594-.75.75-.75s.75.33594.75.75v1.25c0,.41406-.33594.75-.75.75Z" fill="var(--iconPrimary, #222)" stroke-width="0"/>
  <path d="m3.18945,17.56055c-.19189,0-.38379-.07324-.53027-.21973-.42529-.4248-.65918-.99023-.65918-1.59082,0-.41406.33594-.75.75-.75s.75.33594.75.75c0,.2002.07812.38867.21973.53027.29297.29297.29297.76758,0,1.06055-.14648.14648-.33838.21973-.53027.21973Z" fill="var(--iconPrimary, #222)" stroke-width="0"/>
  <path d="m2.75,5c-.41406,0-.75-.33594-.75-.75,0-1.24023,1.00928-2.25,2.25-2.25.41406,0,.75.33594.75.75s-.33594.75-.75.75c-.41357,0-.75.33691-.75.75,0,.41406-.33594.75-.75.75Z" fill="var(--iconPrimary, #222)" stroke-width="0"/>
  <path d="m16.77637,17.59375c-.19971,0-.39941-.0791-.54688-.2373-.28369-.30176-.26855-.77637.03369-1.05957.15283-.14355.23682-.33789.23682-.54688,0-.41406.33594-.75.75-.75s.75.33594.75.75c0,.61914-.25879,1.2168-.71045,1.64062-.14502.13574-.3291.20312-.51318.20312Z" fill="var(--iconPrimary, #222)" stroke-width="0"/>
  <path d="m15.72998,2H4.27002c-1.25372,0-2.27002,1.01636-2.27002,2.27002v11.45996c0,1.25366,1.0163,2.27002,2.27002,2.27002h1.40314c.10999-2.99219,2.07391-4.26196,4.32684-4.26196,2.25397,0,4.21906,1.20972,4.32715,4.26196h1.40283c1.25372,0,2.27002-1.01636,2.27002-2.27002V4.27002c0-1.25366-1.0163-2.27002-2.27002-2.27002Zm-5.72998,9.48853c-1.32471,0-2.39862-1.14111-2.39862-2.54858s1.07391-2.54858,2.39862-2.54858,2.39862,1.14111,2.39862,2.54858-1.07391,2.54858-2.39862,2.54858Z" fill="var(--iconPrimary, #222)" opacity=".12" stroke-width="0"/>
  <path d="m10,12.09668c-1.73584,0-3.14844-1.47949-3.14844-3.29785,0-1.81934,1.4126-3.29883,3.14844-3.29883s3.14844,1.47949,3.14844,3.29883c0,1.81836-1.4126,3.29785-3.14844,3.29785Zm0-5.09668c-.90918,0-1.64844.80664-1.64844,1.79883,0,.99121.73926,1.79785,1.64844,1.79785s1.64844-.80664,1.64844-1.79785c0-.99219-.73926-1.79883-1.64844-1.79883Z" fill="var(--iconPrimary, #222)" stroke-width="0"/>
  <path d="m14.34766,18c-.41406,0-.75-.33594-.75-.75,0-2.41016-2.25391-2.76953-3.59766-2.76953-1.08154,0-3.59766.26953-3.59766,2.76953,0,.41406-.33594.75-.75.75s-.75-.33594-.75-.75c0-2.63379,1.95312-4.26953,5.09766-4.26953s5.09766,1.63574,5.09766,4.26953c0,.41406-.33594.75-.75.75Z" fill="var(--iconPrimary, #222)" stroke-width="0"/>
</svg>