<?xml version="1.0" encoding="UTF-8"?>
<svg   xmlns="http://www.w3.org/2000/svg" width="20" height="20" viewBox="0 0 20 20">
  <path d="M15.75208,2H4.26257c-1.23914,0-2.24792,1.00977-2.24792,2.25v4.7041l-.01465.01465.01465.01465v5.27344l-.01465.01465.01465.01465v1.46387c0,1.24023,1.00879,2.25,2.24792,2.25h11.4895c1.23914,0,2.24792-1.00977,2.24792-2.25V4.25c0-1.24023-1.00879-2.25-2.24792-2.25ZM12.76172,3.5l-1.99829,2h-3.01343c-.06299,0-.12219.01343-.18384.01855l2.01672-2.01855h3.17883ZM13,12.25c0,.41309-.33691.75-.75.75h-4.5c-.41309,0-.75-.33691-.75-.75v-4.5c0-.41309.33691-.75.75-.75h4.5c.41309,0,.75.33691.75.75v4.5ZM3.51318,4.25c0-.41309.33667-.75.74939-.75h3.20117l-3.95056,3.9541v-3.2041ZM3.51318,9.5752l2.00525-2.00708c-.005.06104-.01843.11963-.01843.18188v3.01831l-1.98682,1.98853v-3.18164ZM4.26257,16.5c-.41272,0-.74939-.33691-.74939-.75v-.87207l2.06604-2.06787c.20715.79993.83936,1.42627,1.64404,1.62109l-2.06702,2.06885h-.89368ZM7.27539,16.5l1.99829-2h2.97632c.07739,0,.15039-.01514.22583-.02283l-2.02075,2.02283h-3.17969ZM16.50134,15.75c0,.41309-.33655.75-.74927.75h-3.1781l3.92737-3.9314v3.1814ZM16.50134,10.44727l-2.02405,2.02612c.00757-.07446.02271-.14697.02271-.22339v-2.9812l2.00134-2.00317v3.18164ZM16.50134,5.14453l-2.07178,2.07373c-.19666-.80408-.82397-1.4353-1.62451-1.64062l2.07581-2.07764h.87122c.41272,0,.74927.33691.74927.75v.89453Z" fill="var(--iconPrimary, #222)" stroke-width="0"/>
</svg>