<?xml version="1.0" encoding="UTF-8"?>
<svg   xmlns="http://www.w3.org/2000/svg" width="20" height="20" viewBox="0 0 20 20">
  <path d="M15.65038,19.07552c-1.90967,0-3.3501-1.39355-3.3501-3.24219,0-1.3623,1.04688-2.79102,1.9707-4.05176.27539-.37598.53857-.7334.74854-1.06055.27539-.42969.98633-.42969,1.26172,0,.20996.32617.47266.68457.74805,1.05957.92383,1.26074,1.9707,2.68945,1.9707,4.05273,0,1.84863-1.43994,3.24219-3.34961,3.2422ZM15.65038,12.43684c-.05566.07617-.1123.15332-.16943.23145-.74902,1.02148-1.68066,2.29297-1.68066,3.16504,0,1.02539.76074,1.74219,1.8501,1.74219,1.08887,0,1.84961-.7168,1.84961-1.74219,0-.87207-.93164-2.14355-1.68066-3.16602-.05713-.07715-.11328-.1543-.16895-.23047h-.00001Z" fill="var(--iconPrimary, #222)" stroke-width="0"/>
  <path d="M10.86707,16.5h-6.60449c-.41272,0-.74939-.33691-.74939-.75V4.25c0-.41309.33667-.75.74939-.75h11.4895c.41272,0,.74927.33691.74927.75v4.82666c.42297.16809.79285.44507,1.04114.83252.12793.19849.28979.42529.45752.65613v-6.31531c0-1.24023-1.00879-2.25-2.24792-2.25H4.26257c-1.23914,0-2.24792,1.00977-2.24792,2.25v4.7041l-.01465.01465.01465.01465v5.27344l-.01465.01465.01465.01465v1.46387c0,1.24023,1.00879,2.25,2.24792,2.25h7.07971c-.23828-.46069-.40015-.9624-.47522-1.5Z" fill="var(--iconPrimary, #222)" stroke-width="0"/>
  <path d="M11.65405,13h-3.90405c-.41309,0-.75-.33691-.75-.75v-4.5c0-.41309.33691-.75.75-.75h4.5c.41309,0,.75.33691.75.75v3.229c.02026-.02759.04077-.0564.06091-.08374l.03516-.0481c.24951-.34045.48511-.66199.66052-.93555.18884-.29468.44751-.5271.74341-.69897v-1.46265c0-1.24023-1.00977-2.25-2.25-2.25h-4.5c-1.24023,0-2.25,1.00977-2.25,2.25v4.5c0,1.24023,1.00977,2.25,2.25,2.25h3.25073c.15161-.5188.38379-1.01733.65332-1.5Z" fill="var(--iconPrimary, #222)" stroke-width="0"/>
  <path d="M5.57922,12.81006l-2.06604,2.06787v-2.12109l1.98682-1.98853v1.48169c0,.19446.03259.37988.07922.56006ZM7.22327,14.43115l-2.06702,2.06885h2.11914l1.99829-2h-1.52368c-.18213,0-.35693-.02771-.52673-.06885ZM14.5,7.75v1.46265c.04126-.02417.08179-.04736.12476-.0686l1.87659-1.87842v-2.12109l-2.07178,2.07373c.04187.17126.07043.34766.07043.53174ZM3.51318,7.4541v2.12109l2.00525-2.00708c.08936-1.09229.95557-1.95923,2.04773-2.04956l2.01672-2.01855h-2.11914l-3.95056,3.9541ZM12.80505,5.57764l2.07581-2.07764h-2.11914l-1.99829,2h1.48657c.19263,0,.37646.03186.55505.07764Z" fill="var(--iconPrimary, #222)" opacity=".35" stroke-width="0"/>
</svg>