<?xml version="1.0" encoding="UTF-8"?><svg xmlns="http://www.w3.org/2000/svg" width="20" height="20" viewBox="0 0 20 20"><circle cx="14.51842" cy="12.21716" r=".85884" fill="var(--iconPrimary,#222)"/><circle cx="12.7696" cy="14.40424" r="0.85884" fill="var(--iconPrimary,#222)"/><circle cx="14.59641" cy="16.4793" r="0.85884" fill="var(--iconPrimary,#222)"/><path d="M15.19922,19.75c-1.56836-.01172-2.98535-.55176-4.03223-1.52051-1.0752-.99512-1.66699-2.32812-1.66699-3.75391s.5918-2.75879,1.66699-3.75391c1.11914-1.03711,2.62402-1.63281,4.12793-1.63281,1.31543,0,2.53027.45215,3.4209,1.27246.66699.61719,1.03418,1.44531,1.03418,2.33105s-.36719,1.71387-1.03418,2.33008l-.68848.64062c.04883-.01758.08496-.01367.13379-.00391.24609.04297.63965.11133.95215.41406l.00195.00195c.28809.28125.45703.70801.45117,1.14258-.00586.42578-.17188.81055-.46777,1.08301-.9873.91992-2.41016,1.44922-3.89941,1.44922ZM15.29492,10.58887c-1.12988,0-2.2627.44922-3.1084,1.2334-.76562.70898-1.18652,1.65039-1.18652,2.65332s.4209,1.94434,1.18652,2.65234c.76074.7041,1.84668,1.11328,2.98047,1.12207,1.14648,0,2.19629-.38184,2.91211-1.04883l.03184-.0293c-.05313-.00937-.13828-.02344-.19687-.0332-.41211-.07227-.64746-.18555-.91211-.43457-.30762-.28613-.47949-.66602-.48047-1.06641,0-.40137.17188-.78223.48438-1.07324l.69043-.64258c.35742-.33008.55371-.7666.55371-1.22949s-.19629-.89941-.55176-1.22852c-.6123-.56445-1.46582-.875-2.40332-.875Z" fill="var(--iconPrimary,#222)"/><path d="M15.75,2H4.25c-1.24023,0-2.25,1.00977-2.25,2.25v11.5c0,1.24023,1.00977,2.25,2.25,2.25h3.5c.41406,0,.75-.33594.75-.75s-.33594-.75-.75-.75h-.46973l.7832-.7832c.29297-.29297.29297-.76758,0-1.06055s-.76758-.29297-1.06055,0l-1.84375,1.84375h-.90918c-.41309,0-.75-.33691-.75-.75v-.85742L14.89258,3.5h.85742c.41309,0,.75.33691.75.75v.90918l-1.30859,1.30859c-.29297.29297-.29297.76758,0,1.06055.14648.14648.33789.21973.53027.21973s.38379-.07324.53027-.21973l.24805-.24805v.00879c0,.41406.33594.75.75.75s.75-.33594.75-.75v-3.03906c0-1.24023-1.00977-2.25-2.25-2.25ZM3.5,4.25c0-.41309.33691-.75.75-.75h3.21802l-3.96802,3.96851v-3.21851ZM3.5,12.77148v-3.18164l6.08887-6.08984h3.18262L3.5,12.77148Z" fill="var(--iconPrimary,#222)"/></svg>