<?xml version="1.0" encoding="UTF-8"?>
<svg   xmlns="http://www.w3.org/2000/svg" width="20" height="20" viewBox="0 0 20 20">
  <path d="M15.75208,2H4.26257c-1.23914,0-2.24792,1.00977-2.24792,2.25v4.7041l-.01465.01465.01465.01465v5.27344l-.01465.01465.01465.01465v1.46387c0,1.24023,1.00879,2.25,2.24792,2.25h11.4895c1.23914,0,2.24792-1.00977,2.24792-2.25V4.25c0-1.24023-1.00879-2.25-2.24792-2.25ZM3.51318,4.25c0-.41309.33667-.75.74939-.75h11.4895c.41272,0,.74927.33691.74927.75v11.5c0,.41309-.33655.75-.74927.75H4.26257c-.41272,0-.74939-.33691-.74939-.75V4.25Z" fill="var(--iconPrimary, #222)" stroke-width="0"/>
  <path d="M12.76172,3.5l-1.99829,2h1.48657c.19263,0,.37646.03186.55505.07764l2.07581-2.07764h-2.11914ZM7.46375,3.5l-3.95056,3.9541v2.12109l2.00525-2.00708c.08936-1.09229.95557-1.95923,2.04773-2.04956l2.01672-2.01855h-2.11914ZM5.5,10.76831v1.48169c0,.19446.03259.37988.07922.56006l-2.06604,2.06787v-2.12109l1.98682-1.98853ZM7.27539,16.5l1.99829-2h-1.52368c-.18213,0-.35693-.02771-.52673-.06885l-2.06702,2.06885h2.11914ZM12.57397,16.5l3.92737-3.9314v-2.12134l-2.02405,2.02612c-.10645,1.05896-.94287,1.89612-2.00146,2.00378l-2.02075,2.02283h2.1189ZM16.50134,5.14453l-2.07178,2.07373c.04187.17126.07043.34766.07043.53174v1.5188l2.00134-2.00317v-2.12109Z" fill="var(--iconPrimary, #222)" opacity=".35" stroke-width="0"/>
  <path d="M12.25,14.5h-4.5c-1.24023,0-2.25-1.00977-2.25-2.25v-4.5c0-1.24023,1.00977-2.25,2.25-2.25h4.5c1.24023,0,2.25,1.00977,2.25,2.25v4.5c0,1.24023-1.00977,2.25-2.25,2.25ZM7.75,7c-.41309,0-.75.33691-.75.75v4.5c0,.41309.33691.75.75.75h4.5c.41309,0,.75-.33691.75-.75v-4.5c0-.41309-.33691-.75-.75-.75h-4.5Z" fill="var(--iconPrimary, #222)" stroke-width="0"/>
</svg>