<?xml version="1.0" encoding="UTF-8"?>
<svg xmlns="http://www.w3.org/2000/svg" width="20" height="20" viewBox="0 0 20 20">
  <path d="m18.55322,10.09375c-.96973-.79297-2.45361-.68652-3.37988.24023l-4.18311,4.18262q-.00049,0-.00098.00098c-.24609.24707-.43018.55371-.53174.88867l-.9541,3.16016c-.08008.26465-.00781.55176.1875.74707.14258.14258.33447.21973.53027.21973.07227,0,.14551-.01074.2168-.03223l3.15967-.9541c.3335-.10059.64111-.28418.89014-.53223,0,0,4.12256-4.12305,4.25293-4.25293.49365-.49316.75635-1.17676.72119-1.87305-.03467-.69629-.36572-1.35059-.90869-1.79492Zm-7.20996,7.56738l.5498-1.82031c.01727-.05713.05896-.10278.09186-.15332l1.33221,1.33228c-.05017.03271-.09552.07397-.15259.09155l-1.82129.5498Zm6.33789-4.96094c-.0932.09277-2.2536,2.25317-3.45764,3.45728l-1.37653-1.37646,3.3869-3.38647c.38916-.3877.99023-.4502,1.36963-.13965.21875.17871.34668.43066.36035.70801.01416.2793-.08691.54102-.28271.7373Z" fill="var(--iconPrimary, #222)"/>
  <path d="m16.75,3H3.25c-1.24072,0-2.25,1.00977-2.25,2.25v9.5c0,1.24023,1.00928,2.25,2.25,2.25h4.57812c.41406,0,.75-.33594.75-.75s-.33594-.75-.75-.75H3.25c-.41357,0-.75-.33691-.75-.75v-1.16846l2.97021-2.96924c.28223-.2832.77686-.2832,1.06006,0l2.5752,2.5752c.29297.29297.76758.29297,1.06055,0s.29297-.76758,0-1.06055l-2.57471-2.5752c-.84961-.84961-2.3335-.84961-3.18213,0l-1.90918,1.90894v-6.21069c0-.41309.33643-.75.75-.75h13.5c.41357,0,.75.33691.75.75v2.23438c0,.41406.33594.75.75.75s.75-.33594.75-.75v-2.23438c0-1.24023-1.00928-2.25-2.25-2.25Z" fill="var(--iconPrimary, #222)"/>
  <path d="m17.5,7.48438v-2.23438c0-.41309-.33643-.75-.75-.75H3.25c-.41357,0-.75.33691-.75.75v6.21069l1.90918-1.90894c.84863-.84961,2.33252-.84961,3.18213,0l2.57471,2.5752c.29297.29297.29297.76758,0,1.06055-.00433.00439-.01031.00562-.01477.00977l.01788.01904,3.94366-3.94287c.77148-.77148,1.83545-1.21484,2.91943-1.21484.35364,0,.69922.06079,1.0351.15234v-.01343c-.3233-.0835-.56732-.36401-.56732-.71313Z" fill="var(--iconPrimary, #222)" opacity=".2"/>
  <path  d="m14.5,7.52114c0,.82843-.67157,1.5-1.5,1.5-.82843,0-1.5-.67157-1.5-1.5,0-.82843.67157-1.5,1.5-1.5s1.5.67157,1.5,1.5h0" fill="var(--iconPrimary, #222)"/>
</svg>