<?xml version="1.0" encoding="UTF-8"?>
<svg id="f" data-name="ICONS" xmlns="http://www.w3.org/2000/svg" width="20" height="20" viewBox="0 0 20 20">
  <path d="M10.19336,16.5h-4.63574c-.37207,0-.70996-.17969-.90332-.48145-.1709-.26758-.2002-.58203-.08203-.87012l.77893-1.22192,8.30408-2.54565c.22363-.06836.40332-.2373.48438-.45703s.05469-.46484-.07129-.66211l-1.5791-2.48047v-2.28809h.5c.41406,0,.75-.33594.75-.75s-.33594-.75-.75-.75h-1.25c-.41406,0-.75.33594-.75.75v3.25684c0,.14258.04102.28223.11719.40234l1.16699,1.83301-5.67944,1.7417,2.27808-3.57373c.07617-.12109.11719-.26074.11719-.40332v-3.25684c0-.41406-.33594-.75-.75-.75h-1.25c-.41406,0-.75.33594-.75.75s.33594.75.75.75h.5v2.28809l-4.21387,6.60938c-.01758.0293-.03418.05859-.04883.08984-.35059.76172-.28906,1.63867.16504,2.34668.46973.73438,1.28027,1.17285,2.16602,1.17285h4.63574c.41406,0,.75-.33594.75-.75s-.33594-.75-.75-.75Z" fill="var(--iconPrimary, #222)"/>
  <path d="M7,2.5h6c.41406,0,.75-.33594.75-.75s-.33594-.75-.75-.75h-6c-.41406,0-.75.33594-.75.75s.33594.75.75.75Z" fill="var(--iconPrimary, #222)"/>
  <path d="M18.76562,12.18848h-3.25c-.41406,0-.75.33594-.75.75s.33594.75.75.75h1.43945l-4.46973,4.46973c-.29297.29297-.29297.76758,0,1.06055.14648.14648.33789.21973.53027.21973s.38379-.07324.53027-.21973l4.46973-4.46973v1.43945c0,.41406.33594.75.75.75s.75-.33594.75-.75v-3.25c0-.41406-.33594-.75-.75-.75Z" fill="var(--iconPrimary, #222)"/>
</svg>