<?xml version="1.0" encoding="UTF-8"?>
<svg id="f" data-name="ICONS" xmlns="http://www.w3.org/2000/svg" width="20" height="20" viewBox="0 0 20 20">
  <path d="M3.33203,12.65039c-.20264,0-.40527-.08203-.55322-.24316l-1.24512-1.35938c-.27979-.30566-.25879-.78027.04688-1.05957.3042-.27832.77979-.25879,1.05957.0459l1.24512,1.35938c.27979.30566.25879.78027-.04688,1.05957-.14355.13184-.3252.19727-.50635.19727Z" fill="var(--iconPrimary, #222)"/>
  <path d="M2.04297,14.90332h-.00049l-1.18945-.00098c-.41455,0-.75-.33594-.74951-.75098.00049-.41406.33594-.74902.75-.74902h.00049l1.18945.00098c.41455,0,.75.33594.74951.75098-.00049.41406-.33594.74902-.75.74902Z" fill="var(--iconPrimary, #222)"/>
  <path d="M5.66797,11.60449c-.02344,0-.04688-.00098-.0708-.00293-.4126-.03906-.71533-.4043-.67676-.81738l.11084-1.18457c.03857-.41211.40332-.71582.81641-.67676.4126.03906.71533.4043.67676.81738l-.11084,1.18457c-.03613.38867-.36279.67969-.74561.67969Z" fill="var(--iconPrimary, #222)"/>
  <path d="M19,3.31543c0-.67676-.30029-1.31055-.82373-1.74023-.52295-.42773-1.20264-.59375-1.85986-.46777l-6.05713,1.15039c-1.04834.20898-1.80957,1.13672-1.80957,2.20605v8.86133l-.07959-.07812c-.42383-.41602-.98291-.64551-1.57617-.64551-.00684,0-.01367,0-.021.00098-.60059.00488-1.16357.24414-1.58447.67285l-.94141.95703c-.4209.42871-.6499.99512-.64502,1.59668.00537.60059.24463,1.16406.67285,1.58496l.95703.94141h.00049c.4375.42969,1.00684.64355,1.57666.64355.58301,0,1.16553-.22461,1.60547-.67188l.94043-.95703c.54602-.55664.74261-1.32715.59473-2.03882v-7.3269l7.55029-1.4585v4.82886l-.12988-.12769c-.42383-.41602-.98291-.64551-1.57617-.64551-.00684,0-.01367,0-.021.00098-.60059.00488-1.16357.24414-1.58447.67285l-.94141.95703c-.4209.42871-.6499.99512-.64502,1.59668.00537.60059.24463,1.16406.67285,1.58496l.95703.94141h.00049c.4375.42969,1.00684.64355,1.57666.64355.58301,0,1.16553-.22461,1.60547-.67188l.94043-.95703c.46606-.4751.66992-1.10547.63013-1.72266h.01489V3.31543ZM8.28467,16.31934l-.93994.95605c-.29053.29395-.76562.2998-1.06104.00977l-.95752-.94141c-.14258-.13965-.22217-.32715-.22412-.52832-.00146-.2002.07471-.38867.21484-.53223l.94141-.95703c.14014-.14258.32812-.22266.52832-.22461.16943-.00293.38867.07422.53174.21582l.95703.94043c.29492.29004.29883.7666.00928,1.06152ZM9.94971,6.47681v-2.01294c0-.35645.25342-.66602.5957-.7334l6.05762-1.15039c.21924-.04395.44727.01172.62256.15527.17432.14355.27441.35449.27441.58008v1.70312l-7.55029,1.45825ZM17.28467,14.31934l-.93994.95605c-.29004.29395-.76514.30078-1.06104.00977l-.95752-.94141c-.14258-.13965-.22217-.32715-.22412-.52832-.00146-.2002.07471-.38867.21484-.53223l.94141-.95703c.14014-.14258.32812-.22266.52832-.22461h.00684c.19775,0,.38379.07617.5249.21582l.95703.94043c.29492.29004.29883.7666.00928,1.06152Z" fill="var(--iconPrimary, #222)"/>
  <rect x="4.63007" y="13.63007" width="4.34203" height="4.34203" rx="1.5" ry="1.5" transform="translate(13.02598 -.23574) rotate(44.50231)" fill="var(--iconPrimary, #222)" opacity=".35"/>
</svg>