<?xml version="1.0" encoding="UTF-8"?>
<svg   xmlns="http://www.w3.org/2000/svg" width="20" height="20" viewBox="0 0 20 20">
  <path d="M15.25,6h-4.5c-1.24072,0-2.25,1.00977-2.25,2.25v3H3v-7c0-.41406-.33594-.75-.75-.75s-.75.33594-.75.75v11.5c0,.41406.33594.75.75.75s.75-.33594.75-.75v-3h14.5v3c0,.41406.33594.75.75.75s.75-.33594.75-.75v-6c0-2.06738-1.68213-3.75-3.75-3.75ZM10,11.25v-3c0-.41309.33643-.75.75-.75h4.5c1.24072,0,2.25,1.00977,2.25,2.25v1.5h-7.5Z" fill="var(--iconPrimary, #222)" stroke-width="0"/>
  <path d="M5.75,10.375c-1.03369,0-1.875-.84082-1.875-1.875s.84131-1.875,1.875-1.875,1.875.84082,1.875,1.875-.84131,1.875-1.875,1.875ZM5.75,7.875c-.34473,0-.625.28027-.625.625s.28027.625.625.625.625-.28027.625-.625-.28027-.625-.625-.625Z" fill="var(--iconPrimary, #222)" stroke-width="0"/>
</svg>