<?xml version="1.0" encoding="UTF-8"?>
<svg xmlns="http://www.w3.org/2000/svg" width="20" height="20" viewBox="0 0 20 20">
  <path d="M7.75,16.75H3.25c-1.24023,0-2.25-1.00977-2.25-2.25V5.5c0-1.24023,1.00977-2.25,2.25-2.25h4.5c.41406,0,.75.33594.75.75s-.33594.75-.75.75H3.25c-.41309,0-.75.33691-.75.75v9c0,.41309.33691.75.75.75h4.5c.41406,0,.75.33594.75.75s-.33594.75-.75.75Z" fill="var(--iconPrimary, #222)"/>
  <path d="M10.52351,16h5.67649c.99411,0,1.8-.67157,1.8-1.5V5.5c0-.82843-.80589-1.5-1.8-1.5h-5.67649v12Z" fill="var(--iconPrimary, #222)" opacity=".2"/>
  <path d="M16.75,3.25h-5.71484c-.01245,0-.02295.00635-.03516.00708V1c0-.41406-.33594-.75-.75-.75s-.75.33594-.75.75v18c0,.41406.33594.75.75.75s.75-.33594.75-.75v-2.25708c.01221.00073.02271.00708.03516.00708h5.71484c1.24023,0,2.25-1.00977,2.25-2.25V5.5c0-1.24023-1.00977-2.25-2.25-2.25ZM17.5,14.5c0,.41309-.33691.75-.75.75h-5.71484c-.01245,0-.02295.00635-.03516.00708V4.74292c.01221.00073.02271.00708.03516.00708h5.71484c.41309,0,.75.33691.75.75v9Z" fill="var(--iconPrimary, #222)"/>
</svg>