<?xml version="1.0" encoding="UTF-8"?>
<svg xmlns="http://www.w3.org/2000/svg" width="14" height="14" viewBox="0 0 14 14">
  <path d="M12.37354,8.56934c-.11475-.20996-.23145-.41309-.34766-.61426-.55127-.95605-1.02734-1.78223-1.02734-3.06836,0-2.17578-1.77051-3.94629-3.94678-3.94629s-3.94678,1.77051-3.94678,3.94629c0,1.16406-.48242,1.97949-1.04102,2.92285-.1499.25293-.2998.50684-.44141.76953-.27441.50781-.26123,1.1084.03613,1.60645.30029.50391.82861.80469,1.41357.80469h1.9209c-.01556.19897-.01855.35522-.01855.3584,0,1.11719.90869,2.02539,2.02539,2.02539s2.0249-.9082,2.0249-2.02539c0-.00317-.00299-.15942-.01855-.3584h1.92334c.58545,0,1.11328-.30078,1.4126-.80566.29785-.50195.30957-1.10547.03125-1.61523ZM7.7749,11.34863c0,.42773-.34766.77539-.7749.77539-.42773,0-.77539-.34766-.77539-.77539,0-.08667.00995-.22803.02338-.3584h1.50385c.01331.13037.02307.27197.02307.3584ZM11.26758,9.54688c-.03467.05762-.13672.19336-.33789.19336H3.07227c-.20215,0-.30518-.13574-.33984-.19434-.03369-.05566-.10107-.2041-.01025-.37305.13379-.24805.27588-.4873.41748-.72656.59766-1.00879,1.21533-2.05273,1.21533-3.55957,0-1.46191,1.23486-2.69629,2.69678-2.69629s2.69678,1.23438,2.69678,2.69629c0,1.62109.60742,2.67383,1.19482,3.69238.11084.19238.22314.38672.33252.58887.09375.1709.02539.32129-.0083.37891Z" fill="var(--iconPrimary, #222)"/>
</svg>