<?xml version="1.0" encoding="UTF-8"?>
<svg   xmlns="http://www.w3.org/2000/svg" width="20" height="20" viewBox="0 0 20 20">
  <path d="M18.96973,10.19727c-.75098-.89551-2.0918-1.01465-2.97168-.27734l-3.39819,2.69592c-.01001-1.16833-.95459-2.11584-2.11743-2.11584h-4.33496c-.96582,0-1.84277.34473-2.46777.96973l-3.00391,3c-.29297.29199-.29297.76758,0,1.06055.14648.14648.33789.21973.53027.21973.19141,0,.38379-.07324.53027-.21973l3.00391-3c.43848-.43848,1.00684-.53027,1.40723-.53027h4.33496c.33594,0,.61914.29004.61914.63379,0,.33984-.27734.61621-.61914.61621h-2.48242c-.41406,0-.75.33594-.75.75s.33594.75.75.75h3.55371c.6377,0,1.16211-.31055,1.48828-.57031l3.90332-3.09668c.26367-.21875.65625-.18457.87402.07715.21973.26172.18457.6543-.07129.86816l-4.70801,3.86328c-.4668.39258-1.04785.6084-1.63672.6084h-5.1416c-.19922,0-.38965.0791-.53027.21973l-1.74707,1.74805c-.29297.29297-.29297.76758,0,1.06055.14648.14648.33887.21973.53027.21973.19238,0,.38379-.07324.53027-.21973l1.52734-1.52832h4.83105c.94141,0,1.86523-.34082,2.59473-.9541l4.70703-3.8623c.89648-.75,1.01465-2.08984.26465-2.98633Z" fill="var(--iconPrimary, #292929)" stroke-width="0"/>
  <path d="M7.83008,9.39648c-.25488,0-.50879-.0791-.72754-.23828-.4209-.30566-.60352-.82715-.4668-1.3291l.4668-1.70703-1.3877-1.12695c-.40625-.3252-.56348-.85449-.40332-1.34863s.59961-.83008,1.11816-.85449l1.77051-.08301.6416-1.66895c.18359-.48633.63867-.7998,1.1582-.7998s.97461.31348,1.1582.7998l.62598,1.65625,1.78516.0957c.51953.02441.95898.36035,1.11914.85449s.00293,1.02344-.40234,1.34863l-1.38281,1.10742.46094,1.72754c.13672.50098-.0459,1.02246-.4668,1.32812-.41895.30664-.97168.31934-1.4082.0332l-1.15234-.75684c-.19922-.13086-.47363-.13086-.6748,0l-1.15137.75684c-.20898.13672-.44531.20508-.68066.20508ZM9.75586,1.57129h0v.00098-.00098Z" fill="var(--iconPrimary, #292929)" stroke-width="0"/>
</svg>