<?xml version="1.0" encoding="UTF-8"?>
<svg xmlns="http://www.w3.org/2000/svg" width="14" height="14" viewBox="0 0 14 14">
  <path d="M9.22461,1.25h-4.44922c-.34473,0-.625-.28027-.625-.625s.28027-.625.625-.625h4.44922c.34473,0,.625.28027.625.625s-.28027.625-.625.625Z" fill="var(--iconPrimary, #222)"/>
  <path d="M12.04297,10.2168l-3.12891-4.88184v-1.70996h.30176c.34473,0,.625-.28027.625-.625s-.28027-.625-.625-.625h-.92676c-.34473,0-.625.28027-.625.625v2.51758c0,.11914.03418.23633.09863.33691l.82092,1.2782-3.94983,1.2113,1.58789-2.49048c.06348-.10059.09766-.2168.09766-.33594v-2.51758c0-.34473-.28027-.625-.625-.625h-.92676c-.34473,0-.625.28027-.625.625s.28027.625.625.625h.30176v1.71094l-3.1543,4.95703c-.26953.58691-.22168,1.26172.12695,1.80664.3623.56348.98438.90039,1.66504.90039h6.58594c.68066,0,1.30273-.33691,1.66504-.90039.34863-.54492.39648-1.21973.08496-1.88281ZM10.90527,11.4248c-.13281.20703-.35547.3252-.6123.3252H3.70703c-.25684,0-.47949-.11816-.6123-.3252-.12012-.18652-.13574-.40918-.08398-.53516l.58643-.9198,5.68823-1.74451,1.66284,2.58911c.09277.20117.07715.42383-.04297.61035Z" fill="var(--iconPrimary, #222)"/>
</svg>