<?xml version="1.0" encoding="UTF-8"?>
<svg xmlns="http://www.w3.org/2000/svg" width="28.00005" height="28" viewBox="0 0 28.00005 28">
  <g id="circles">
    <circle id="Ellipse_10213-5" data-name="Ellipse 10213-5" cx="14" cy="14" r="14" fill="#e9e9e9"/>
    <path d="M27.96366,14.7194c.0048-.0944.01139-.18831.01432-.2832h-5.39185v-7.93343h3.22355c-.05929-.09326-.11072-.19173-.17212-.28337h-3.05143v-3.26107c-.09306-.07259-.18848-.14193-.28337-.21191v3.47298h-8.21663V.00439c-.02905-.00016-.05705-.00439-.08614-.00439-.06657,0-.13086.00911-.19722.00993v6.20947H5.58626v-3.38997c-.09416.07096-.19104.13835-.28333.21175v3.17822h-2.94051c-.0614.09163-.11283.1901-.17212.28337h3.11263v7.93343H.02201c.00293.09489.00952.1888.01432.2832h5.2666v8.07503h-2.18892c.07792.09635.1593.18913.23966.28337h1.94926v1.88102c.09229.0734.18917.14079.28333.21175v-2.09277h8.21651v4.91227c.06637.00081.13066.00993.19722.00993.02909,0,.05709-.00423.08614-.00439v-4.91781h8.21663v2.17578c.09489-.07015.19031-.13932.28337-.21191v-1.96387h2.06022c.0804-.09424.16174-.18701.23966-.28337h-2.29989v-8.07503h5.37752ZM22.30278,6.50277v7.93343h-8.21663v-7.93343h8.21663ZM5.58626,6.50277h8.21651v7.93343H5.58626v-7.93343ZM5.58626,22.79443v-8.07503h8.21651v8.07503H5.58626ZM22.30278,22.79443h-8.21663v-8.07503h8.21663v8.07503Z" fill="#8eb9fc"/>
  </g>
  <g id="strokes">
    <rect id="S2_Icon_S_DynamicChat_20_N" x="4.75" y="5" width="18" height="18" fill="none" opacity=".1"/>
  </g>
  <g id="ICONS">
    <g>
      <path d="M20.07065,18.28242c-.01318-.02813-.02812-.05625-.04482-.08174l-3.8105-5.94844v-2.0584h.45c.37266,0,.675-.30234.675-.675s-.30234-.675-.675-.675h-1.125c-.37266,0-.675.30234-.675.675v2.93115c0,.1292.03691.25576.10679.36387l1.05441,1.64597-5.11749,1.56951,2.05038-3.21636c.06899-.10898.10591-.23467.10591-.36299v-2.93115c0-.37266-.30234-.675-.675-.675h-1.125c-.37266,0-.675.30234-.675.675s.30234.675.675.675h.45v2.05928l-3.79204,5.94844c-.0167.02637-.0312.05273-.04395.08086-.31597.68555-.2606,1.4748.14722,2.11201.42319.66094,1.15225,1.05557,1.95029,1.05557h7.99629c.79805,0,1.5271-.39463,1.95029-1.05557.40781-.63721.46318-1.42646.14722-2.11201ZM18.78657,19.6667c-.17402.27158-.47812.4333-.81343.4333h-7.99629c-.3353,0-.6394-.16172-.81343-.4333-.15381-.24082-.17974-.52383-.07383-.78311l.70098-1.09951,6.9917-2.14453,2.07812,3.24404c.10591.26016.07998.54316-.07383.78311Z" fill="#3b63fb"/>
      <path d="M11.275,7.5h5.4c.37266,0,.675-.30234.675-.675s-.30234-.675-.675-.675h-5.4c-.37266,0-.675.30234-.675.675s.30234.675.675.675Z" fill="#3b63fb"/>
    </g>
  </g>
</svg>