<?xml version="1.0" encoding="UTF-8"?>
<svg   xmlns="http://www.w3.org/2000/svg" width="20" height="20" viewBox="0 0 20 20">
  <path d="M13.7832,16.62797c-1.5332,0-3.02246-.65918-3.99609-1.77441-1.08398-1.19238-1.58496-2.56738-2.02637-3.78125-.16699-.45801-.33105-.91016-.52441-1.34473-.2207-.5625-.4668-.78223-.57324-.79492-.04199-.01855-.22461.07812-.41602.34668-1.14551,1.50391-2.88477,1.4502-4.01953.63086-1.13477-.82031-1.72949-2.45703-.67188-3.99805l.03027-.04004c1.5127-1.91406,3.73926-2.80664,5.95117-2.4043,2.20508.4082,3.94727,2.01074,4.66016,4.28906.22266.56055.3916,1.18262.55469,1.7832.22852.83984.44336,1.63184.80859,2.20605.18848.26562.71289.60547,1.22852.26758.3457-.22266.79004-.75293,1.08496-1.29297.22852-.39941.58594-.67578,1.01562-.79297.42773-.11426.87695-.05957,1.26465.16113.61816.35547.94238,1.06348.80664,1.7627-.2666,1.28027-.71777,2.2334-1.46484,3.10156-.85742,1.03906-2.1875,1.6543-3.6377,1.6748h-.0752ZM6.65527,7.43168c.07129,0,.13672.00488.19434.0127.43359.05371,1.24023.34766,1.77051,1.70605.19434.43359.37109.91797.5498,1.40918.43262,1.18848.8418,2.31152,1.73633,3.29688.71387.81641,1.8252,1.2832,2.93066,1.27148,1.02441-.01465,1.91699-.41992,2.5127-1.1416.58984-.68555.92773-1.40918,1.14062-2.43066.00977-.04688-.01172-.12402-.08203-.16504-.07812-.04395-.17969-.0166-.22461.0625-.32422.5918-.91406,1.3916-1.57715,1.81836-1.20215.78516-2.61621.26465-3.29102-.69043-.50781-.7959-.76367-1.7373-1.01074-2.64746-.15332-.5625-.31152-1.14355-.52148-1.67871-.56152-1.78809-1.87012-3.00684-3.51855-3.31152-1.64551-.30762-3.32422.38086-4.48633,1.83789-.55762.83301-.17383,1.5498.32812,1.91309.50586.36523,1.31641.50391,1.93359-.30566.56836-.7959,1.2002-.95703,1.61523-.95703Z" fill="var(--iconPrimary, #222)"/>
</svg>