<?xml version="1.0" encoding="UTF-8"?>
<svg   xmlns="http://www.w3.org/2000/svg" width="20" height="20" viewBox="0 0 20 20">
  <path d="M17.9585,18.98242h-7.5c-.41406,0-.75-.33594-.75-.75s.33594-.75.75-.75h7.5c.41406,0,.75.33594.75.75s-.33594.75-.75.75Z" fill="var(--iconPrimary, #222)"/>
  <path d="M4.94043,5.82031c-.16992,0-.34131-.05762-.48145-.17578-.31738-.26562-.35889-.73926-.09277-1.05664l2.73145-3.25488c.2666-.31641.74072-.35742,1.05664-.0918.31738.26562.35889.73926.09277,1.05664l-2.73145,3.25488c-.14844.17676-.36133.26758-.5752.26758Z" fill="var(--iconPrimary, #222)"/>
  <path d="M14.74951,13.96289c-.16992,0-.34131-.05762-.48145-.17578-.31738-.26562-.35889-.73926-.09277-1.05664l2.73193-3.25586c.26562-.31738.74023-.3584,1.05664-.0918.31738.26562.35889.73926.09277,1.05664l-2.73193,3.25586c-.14844.17676-.36084.26758-.5752.26758Z" fill="var(--iconPrimary, #222)"/>
  <path d="M14.95898,6.67773l-3.44678-2.89258c-.45947-.38672-1.0376-.57324-1.64209-.51855-.59863.05176-1.1416.33496-1.52783.79492l-.96436,1.14941c-.79272.94531-.67212,2.3562.26459,3.15625-1.77283,2.052-4.58044,5.27478-5.69086,6.54883-.29736.3418-.4751.5459-.48145.55273-.75146.89551-.63428,2.23633.26172,2.98926.39746.33301.88232.49512,1.36377.49512.60449,0,1.20361-.25586,1.61816-.75l.2583-.29688c.89453-1.02539,3.87988-4.4502,5.79395-6.66504.04431-.05127.06769-.11157.09576-.16968l.24066.2019v.00098c.40918.34277.91455.52539,1.44189.52539.06641,0,.13379-.00293.20068-.00879.59863-.05273,1.14111-.33496,1.52686-.79492l.96484-1.14844c.38623-.46094.57031-1.04395.51758-1.64258-.05225-.59961-.33496-1.1416-.79541-1.52734ZM9.63135,10.26074c-1.91309,2.21289-4.896,5.63477-5.78955,6.66016l-.271.31055c-.22021.2627-.61377.2959-.87451.07715-.26221-.2207-.29688-.61328-.08154-.87012l.46777-.53711c1.11389-1.27783,3.93469-4.51575,5.70819-6.56812l.97784.82068c-.04694.03381-.09778.06091-.13721.10681ZM14.08789,8.88281l-.96484,1.14941c-.12891.15332-.30957.24707-.50928.26465-.19238.01855-.39404-.04297-.54736-.17285l-3.44629-2.8916c-.31689-.2666-.3584-.74023-.09277-1.05664l.96436-1.15039c.12891-.15332.30957-.24707.50879-.26465.20166-.01465.39355.04492.54736.17285l3.44727,2.89355c.15332.12793.24756.30859.26514.50879.01758.19922-.04395.39355-.17236.54688Z" fill="var(--iconPrimary, #222)"/>
</svg>