<?xml version="1.0" encoding="UTF-8"?>
<svg xmlns="http://www.w3.org/2000/svg" width="20" height="20" viewBox="0 0 20 20">
  <rect x="1" y="11" width="3" height="3" rx="1" ry="1" fill="var(--iconPrimary, #222)"/>
  <rect x="1" y="6" width="3" height="3" rx="1" ry="1" fill="var(--iconPrimary, #222)"/>
  <rect x="6" y="16" width="3" height="3" rx="1" ry="1" fill="var(--iconPrimary, #222)"/>
  <rect x="5.99828" y="11" width="3" height="3" rx="1" ry="1" fill="var(--iconPrimary, #222)" opacity=".5"/>
  <rect x="5.99828" y="6" width="3" height="3" rx="1" ry="1" fill="var(--iconPrimary, #222)" opacity=".5"/>
  <rect x="6" y="1" width="3" height="3" rx="1" ry="1" fill="var(--iconPrimary, #222)"/>
  <path d="M17.98193,9.60889c-.25195-6.90869-6.98193-7.84741-6.98193-7.84741v7.875c.98645-.71191,2.19324-1.13647,3.5-1.13647,1.29541,0,2.4928.41675,3.47449,1.11743.00061-.00366.00745-.00464.00745-.00854h0Z" fill="var(--iconPrimary, #222)" opacity=".35"/>
  <path d="M14.5,10c-2.48529,0-4.5,2.01471-4.5,4.5s2.01471,4.5,4.5,4.5,4.5-2.01471,4.5-4.5-2.01471-4.5-4.5-4.5ZM16.89941,13.34961l-2.30957,3.14941c-.11133.15234-.28516.24609-.47266.25488-.01074.00098-.02051.00098-.03125.00098-.17676,0-.3457-.0752-.46484-.20703l-1.4375-1.59863c-.23047-.25684-.20996-.65234.04688-.88281.25488-.23047.65234-.20996.88281.04688l.92285,1.02734,1.85547-2.5293c.20312-.2793.59375-.34082.87305-.13477.2793.2041.33887.59473.13477.87305Z" fill="var(--iconPrimary, #222)"/>
  <path d="M18.22536,9.65445c-.37646,0-.6611-.28881-.74414-.66602-.07402-.33623-.11843-.47867-.18923-.7775-.66406-2.80566-2.9082-5.05664-5.71826-5.73535-.40234-.09766-.6499-.50293-.55273-.90527.09766-.40234.50195-.65234.90527-.55273,3.35352.81055,6.03271,3.49805,6.82568,6.84766.08447.35742.13816.51084.2195.95523.0745.40703-.24902.78223-.66064.8291-.02881.00293-.05713.00488-.08545.00488Z" fill="var(--iconPrimary, #222)"/>
</svg>