<?xml version="1.0" encoding="UTF-8"?>
<svg xmlns="http://www.w3.org/2000/svg" width="28.00005" height="28" viewBox="0 0 28.00005 28">
  <g id="circles">
    <circle id="Ellipse_10213" data-name="Ellipse 10213" cx="14.00002" cy="14" r="14.00001" fill="#9a47e2"/>
  </g>
  <g id="ICONS">
    <rect id="S2_Icon_RevenueMoney_20_N" x="5" y="5" width="18" height="18" fill="none" opacity=".1"/>
    <path d="M12.425,14.38496c-.37266,0-.675-.30234-.675-.675v-.38496c0-.37266.30234-.675.675-.675s.675.30234.675.675v.38496c0,.37266-.30234.675-.675.675Z" fill="#fff"/>
    <path d="M15.125,14.38496c-.37266,0-.675-.30234-.675-.675v-.38496c0-.37266.30234-.675.675-.675s.675.30234.675.675v.38496c0,.37266-.30234.675-.675.675Z" fill="#fff"/>
    <path d="M9.725,21.2c-.37266,0-.675-.30234-.675-.675v-8.55c0-.37266.30234-.675.675-.675s.675.30234.675.675v8.55c0,.37266-.30234.675-.675.675Z" fill="#fff"/>
    <path d="M7.025,21.2c-.37266,0-.675-.30234-.675-.675v-5.85c0-.37266.30234-.675.675-.675s.675.30234.675.675v5.85c0,.37266-.30234.675-.675.675Z" fill="#fff"/>
    <path d="M19.15742,5.46758l-2.22715-.01758h-.00527c-.37002,0-.67236.29883-.675.66973-.00264.37266.29707.67764.66973.68027l.50142.00396-3.55825,3.21636c-.07822.07207-.19951.07734-.28301.01582l-2.81953-2.03643c-.63896-.4623-1.5293-.37793-2.06807.19863l-3.05859,3.24932c-.25576.2707-.24258.69873.029.95361.13008.12305.29619.18369.4623.18369.1793,0,.35859-.07119.49131-.2127l3.05947-3.24932c.07734-.08262.20391-.09492.29443-.02812l2.81865,2.03643c.59854.43154,1.43086.38584,1.9793-.10898l3.6969-3.3416-.00549.68379c-.00264.37266.29707.67764.66973.68027h.00527c.37002,0,.67236-.29883.675-.66973l.01758-2.22715c.00264-.37266-.29707-.67764-.66973-.68027Z" fill="#fff"/>
    <path d="M21.425,22.55h-8.55c-.62051,0-1.125-.50449-1.125-1.125v-4.5c0-.62051.50449-1.125,1.125-1.125h8.55c.62051,0,1.125.50449,1.125,1.125v4.5c0,.62051-.50449,1.125-1.125,1.125ZM13.1,21.2h8.1v-4.05h-8.1v4.05Z" fill="#fff"/>
    <path d="M17.15,20.4125c-.68203,0-1.2375-.55547-1.2375-1.2375s.55547-1.2375,1.2375-1.2375,1.2375.55547,1.2375,1.2375-.55547,1.2375-1.2375,1.2375Z" fill="#fff"/>
    <circle cx="14.45" cy="19.175" r=".5625" fill="#fff"/>
    <path d="M17.825,14.38496c-.37266,0-.675-.30234-.675-.675v-2.63496c0-.37266.30234-.675.675-.675s.675.30234.675.675v2.63496c0,.37266-.30234.675-.675.675Z" fill="#fff"/>
    <circle cx="19.85" cy="19.175" r=".5625" fill="#fff"/>
  </g>
</svg>