<?xml version="1.0" encoding="UTF-8"?>
<svg   xmlns="http://www.w3.org/2000/svg" width="20" height="20" viewBox="0 0 20 20">
  <path d="M15,10.50001c-2.48529,0-4.5,2.01471-4.5,4.5s2.01471,4.5,4.5,4.5,4.5-2.01471,4.5-4.5-2.01471-4.5-4.5-4.5ZM17.5,15.62501h-1.875v1.875c0,.34473-.28027.625-.625.625s-.625-.28027-.625-.625v-1.875h-1.875c-.34473,0-.625-.28027-.625-.625s.28027-.625.625-.625h1.875v-1.875c0-.34473.28027-.625.625-.625s.625.28027.625.625v1.875h1.875c.34473,0,.625.28027.625.625s-.28027.625-.625.625Z" fill="var(--iconPrimary, #222)" stroke-width="0"/>
  <path d="M2.50001,5.25c0-.41309.33691-.75.75-.75h13.5c.41309,0,.75.33691.75.75v3.84668c0,.41406.33594.75.75.75s.75-.33594.75-.75v-3.84668c0-1.24023-1.00977-2.25-2.25-2.25h0s-13.5.00001-13.5.00001c-1.24023,0-2.25,1.00977-2.25,2.25v9.5c0,1.24023,1.00977,2.25,2.25,2.25h5.08984c.41406,0,.75-.33594.75-.75s-.33594-.75-.75-.75H3.25c-.41309,0-.75-.33691-.75-.75V5.25Z" fill="var(--iconPrimary, #222)" stroke-width="0"/>
</svg>