<?xml version="1.0" encoding="UTF-8"?>
<svg xmlns="http://www.w3.org/2000/svg" width="20" height="20" viewBox="0 0 20 20">
  <path d="M9.24505,5c.20416,0,.38977.0795.52756.20924.14909.14038.24219.33958.24219.56051,0,.21254-.08616.40498-.22546.54428s-.33174.22547-.54429.22547c-.21252,0-.40493-.08614-.54423-.22541-.13933-.1393-.22552-.33176-.22552-.54433,0-.21254.08616-.40498.22546-.54428s.33174-.22547.54429-.22547Z" fill="var(--iconPrimary, #222)"/>
  <path d="M8.63746,11.08878c0-.13806.05597-.26306.14645-.35354s.21549-.14646.35355-.14646.26306.05597.35354.14645.14646.21549.14646.35355c0,.13522-.05369.2579-.1409.34791-.09089.09379-.21819.15209-.3591.15209-.1321,0-.25223-.05124-.34162-.13492-.09746-.09124-.15838-.22105-.15838-.36508Z" fill="var(--iconPrimary, #222)"/>
  <path d="M13.68584,11.80537c-.17711,0-.33769-.07085-.45493-.18576-.12037-.11798-.19507-.28239-.19507-.46424,0-.17948.07276-.34198.19038-.4596s.28013-.1904.45962-.1904c.17471,0,.33333.06894.45014.18111.12319.11829.19986.28464.19986.46889,0,.17461-.06887.33316-.18092.44994-.1183.1233-.28473.20006-.46908.20006Z" fill="var(--iconPrimary, #222)"/>
  <path d="M10,18.75c-2.62939,0-5.87109-2.39844-6.78271-6.31348-.9126-.44727-1.15234-2.10254-1.21484-2.87598-.11377-1.40527.03418-2.21875.49561-2.71875.25293-.27441.58496-.42578.96338-.44141,1.03857-3.37305,3.2876-5.15039,6.53857-5.15039s5.5,1.77734,6.53857,5.15039c.37842.01562.71045.16699.96338.44141.46143.5.60938,1.31348.49561,2.71875-.0625.77344-.30225,2.42871-1.21484,2.87598-.91162,3.91504-4.15332,6.31348-6.78271,6.31348ZM3.875,11.03711c.125.00879.24854.0459.3501.11035.17822.11426.32568.29004.36182.49805.5957,3.46191,3.27344,5.60449,5.41309,5.60449s4.81738-2.14258,5.41309-5.60449c.03613-.20898.1582-.39258.33643-.50586.11621-.07324.24902-.11328.38379-.11719.12402-.22754.30469-.7832.36914-1.58301.09473-1.16797-.0498-1.49609-.09375-1.56738.00928.02734-.04736.04102-.08594.05078-.18701.08984-.40576.09863-.60254.02344-.22607-.08984-.39502-.28223-.45312-.51855-.77686-3.14746-2.49951-4.67773-5.26709-4.67773s-4.49023,1.53027-5.26709,4.67773c-.05811.23633-.22705.42871-.45312.51855-.19678.0752-.41504.06738-.60205-.02344-.04248-.00977-.11426-.02051-.15332-.02344.03369.02148-.125.33008-.02686,1.54004.06592.81738.25293,1.37988.37744,1.59766Z" fill="var(--iconPrimary, #222)"/>
  <path d="M9.98438,14.84766c-1.39795,0-2.36377-.7832-2.46924-.87305-.31592-.26758-.35498-.74121-.0874-1.05664.26807-.31738.74072-.35547,1.05713-.08789.00195.00195.64062.51758,1.49951.51758.86768,0,1.53857-.52441,1.54541-.5293.32373-.25781.79492-.20508,1.05225.11523.25879.32129.21143.78906-.10791,1.0498-.1084.08887-1.09912.86426-2.48975.86426Z" fill="var(--iconPrimary, #222)"/>
  <ellipse cx="7.25" cy="8.72753" rx="1.25" ry="1.1" fill="var(--iconPrimary, #222)"/>
  <ellipse cx="12.75" cy="8.72753" rx="1.25" ry="1.1" fill="var(--iconPrimary, #222)"/>
</svg>