<?xml version="1.0" encoding="UTF-8"?>
<svg xmlns="http://www.w3.org/2000/svg" width="20" height="20" viewBox="0 0 20 20">
  <path d="M14.83447,3.05695l-1.76758-1.76758c-.24414-.24414-.63965-.24414-.88379,0s-.24414.64062,0,.88477l.55103.55078h-5.45081l.55115-.55176c.24414-.24414.24414-.63965,0-.88379-.24463-.24512-.64014-.24219-.88379.00098l-1.76758,1.76855c-.24414.24414-.24414.63965,0,.88379l1.76758,1.76758c.12207.12207.28174.18262.44189.18262s.31982-.06055.44189-.18262c.24414-.24414.24414-.64062,0-.88477l-.55005-.5498h5.44885l-.55017.55078c-.24414.24414-.24414.63965,0,.88379.12207.12207.28223.18262.44189.18262.16016,0,.31982-.06152.44189-.18359l1.76758-1.76855c.24414-.24414.24414-.63965,0-.88379Z" fill="var(--iconPrimary, #222)"/>
  <path d="M5,18.99835c-.45312,0-.90576-.17188-1.25-.5166l-1.73193-1.73145c-.5542-.55469-.66455-1.42578-.26953-2.11816.20459-.36035.66211-.4873,1.02295-.28027.35986.20508.48535.66309.27979,1.02246-.04785.08496-.06982.21777.02783.31543l1.73145,1.73145c.10449.10352.27441.10254.37988,0l1.73096-1.73145c.09717-.09766.0752-.23047.02734-.31543-.20557-.35938-.08008-.81738.27979-1.02246.36035-.20605.81787-.08008,1.02295.28027.39551.69238.28467,1.56445-.26953,2.11816l-1.73145,1.73145c-.34473.34473-.79785.5166-1.25049.5166Z" fill="var(--iconPrimary, #222)"/>
  <path d="M7.98193,9.24933l-1.73193-1.73145c-.68848-.68848-1.81104-.69043-2.50049,0l-1.73193,1.73145c-.33398.33496-.51758.77832-.51758,1.25098s.18408.91602.51807,1.25l1.73145,1.73145h.00049c.34424.34473.79688.5166,1.25.5166.45264,0,.90576-.17188,1.25049-.5166l1.73096-1.73145c.33447-.33398.51855-.77734.51855-1.25s-.18359-.91602-.51807-1.25098Z" fill="var(--iconPrimary, #222)"/>
  <path d="M11.70703,11.93945l.48242-.48242c1.27344-1.27539,3.34766-1.27539,4.62109,0l.48242.48242.18945-.18945c.68945-.68945.68945-1.81055,0-2.5l-1.73242-1.73242c-.68945-.68945-1.81055-.68945-2.5,0l-1.73242,1.73242c-.68945.68945-.68945,1.81055,0,2.5l.18945.18945Z" fill="var(--iconPrimary, #222)"/>
  <path d="M14.5,18.99835c-.45312,0-.90576-.17188-1.25-.5166h-.00049l-1.73145-1.73145c-.33398-.33398-.51807-.77734-.51807-1.25s.18359-.91602.51758-1.25098l1.73193-1.73145c.68994-.68945,1.8125-.68945,2.50049,0l1.73193,1.73145c.33447.33496.51807.77832.51807,1.25098s-.18408.91602-.51855,1.25l-1.73096,1.73145c-.34473.34473-.79785.5166-1.25049.5166ZM14.31006,17.4212c.10449.10352.2749.10352.38037,0l1.73096-1.73145c.06836-.06836.07861-.14844.07861-.18945,0-.04199-.01025-.12207-.0791-.19043l-1.73096-1.73145c-.10449-.10352-.2749-.10352-.38037,0l-1.73096,1.73145c-.06836.06836-.07861.14844-.07861.19043,0,.04102.01025.12109.07812.18945l1.73193,1.73145Z" fill="var(--iconPrimary, #222)"/>
</svg>