<?xml version="1.0" encoding="UTF-8"?>
<svg xmlns="http://www.w3.org/2000/svg" width="20" height="20" viewBox="0 0 20 20">
  <path d="M12,6.14844v2.60156c0,1.79199-1.45801,3.25-3.25,3.25h-2.62161c0,.10812-.05633.54614-.01883.65447.27111.78313,1.01515,1.34553,1.89045,1.34553h4c1.10449,0,2-.89551,2-2v-3.85156c0-1.10449-.89551-2-2-2Z" fill="var(--iconPrimary, #222)" opacity=".35"/>
  <path d="M14.25,19.00031c-1.30713,0-2.52783-.52637-3.43652-1.4834-.28564-.2998-.27344-.77539.02686-1.06055.29932-.28613.77393-.27344,1.06006.02734.62305.65527,1.45752,1.0166,2.34961,1.0166,1.79199,0,3.25-1.45801,3.25-3.25,0-.89258-.36084-1.72656-1.0166-2.34961-.30029-.28516-.3125-.76074-.02686-1.06055.28516-.30078.75977-.3125,1.06006-.02734.95654.90918,1.4834,2.12988,1.4834,3.4375,0,2.61914-2.13086,4.75-4.75,4.75Z" fill="var(--iconPrimary, #222)"/>
  <path d="M12,14.75031h-4c-1.12402,0-2.12354-.6748-2.54688-1.71777-.15527-.38477.02979-.82129.41357-.97754.38428-.15332.82129.03027.97705.41406.19238.47461.646.78125,1.15625.78125h4c.68945,0,1.25-.56055,1.25-1.25v-4c0-.50977-.30664-.96387-.78174-1.15625-.38379-.15625-.56885-.59277-.41357-.97754.15625-.38281.59375-.56738.97705-.41309,1.04395.42285,1.71826,1.42285,1.71826,2.54688v4c0,1.5166-1.2334,2.75-2.75,2.75Z" fill="var(--iconPrimary, #222)"/>
  <rect x="1" y="1.00031" width="9.5" height="9.5" rx="1.75" ry="1.75" fill="var(--iconPrimary, #222)"/>
</svg>