<?xml version="1.0" encoding="UTF-8"?>
<svg xmlns="http://www.w3.org/2000/svg" width="20" height="20" viewBox="0 0 20 20">
  <path d="M2.75,15.00031c-.41406,0-.75-.33594-.75-.75v-7c0-.41406.33594-.75.75-.75s.75.33594.75.75v7c0,.41406-.33594.75-.75.75Z" fill="var(--iconPrimary, #222)"/>
  <path d="M6.23047,13.88898c-.41406,0-.75-.33594-.75-.75v-7c0-.41406.33594-.75.75-.75s.75.33594.75.75v7c0,.41406-.33594.75-.75.75Z" fill="var(--iconPrimary, #222)"/>
  <path d="M10,13.50031c-.41406,0-.75-.33594-.75-.75v-7c0-.41406.33594-.75.75-.75s.75.33594.75.75v7c0,.41406-.33594.75-.75.75Z" fill="var(--iconPrimary, #222)"/>
  <path d="M13.76953,13.88898c-.41406,0-.75-.33594-.75-.75v-7c0-.41406.33594-.75.75-.75s.75.33594.75.75v7c0,.41406-.33594.75-.75.75Z" fill="var(--iconPrimary, #222)"/>
  <path d="M17.25,15.00031c-.41406,0-.75-.33594-.75-.75v-7c0-.41406.33594-.75.75-.75s.75.33594.75.75v7c0,.41406-.33594.75-.75.75Z" fill="var(--iconPrimary, #222)"/>
  <path d="M16.9502,11.43781c-4.36719-1.9082-9.5332-1.9082-13.90039,0l-.59961-1.375c4.74609-2.07422,10.35352-2.07422,15.09961,0l-.59961,1.375Z" fill="var(--iconPrimary, #222)" opacity=".35"/>
</svg>