<?xml version="1.0" encoding="UTF-8"?>
<svg xmlns="http://www.w3.org/2000/svg" width="20" height="20" viewBox="0 0 20 20">
  <path d="M7.27002,14.60742c-.09131,0-.18408-.0166-.27441-.05176-1.02783-.4043-1.74561-1.49219-1.74561-2.64551v-3.91016c0-1.5166,1.2334-2.75,2.75-2.75l3.88818.00586c1.16748,0,2.26465.71484,2.66748,1.73926.15186.38574-.0376.82031-.42334.97266-.38477.14941-.82031-.03809-.97217-.42383-.17676-.44922-.72412-.78809-1.27295-.78809l-3.88818-.00586c-.68848,0-1.24902.56055-1.24902,1.25v3.91016c0,.53418.34131,1.07129.79443,1.24902.38525.15137.5752.58691.42334.97266-.11572.29492-.39893.47559-.69775.47559Z" fill="var(--iconPrimary, #222)"/>
  <path d="M14.25,19c-2.61914,0-4.75-2.13086-4.75-4.75s2.13086-4.75,4.75-4.75,4.75,2.13086,4.75,4.75-2.13086,4.75-4.75,4.75Z" fill="var(--iconPrimary, #222)"/>
  <path d="M3.01709,10.5h-.16699c-1.02002,0-1.8501-.83008-1.8501-1.84961V2.84961c0-1.01953.83008-1.84961,1.8501-1.84961h5.7998c1.02002,0,1.8501.83008,1.8501,1.84961v.1582c0,.41406-.33594.75-.75.75s-.75-.33594-.75-.75v-.1582c0-.19238-.15723-.34961-.3501-.34961H2.8501c-.19287,0-.3501.15723-.3501.34961v5.80078c0,.19238.15723.34961.3501.34961h.16699c.41406,0,.75.33594.75.75s-.33594.75-.75.75Z" fill="var(--iconPrimary, #222)"/>
</svg>