<?xml version="1.0" encoding="UTF-8"?>
<svg xmlns="http://www.w3.org/2000/svg" width="20" height="20" viewBox="0 0 20 20">
  <path d="M18.5,19.25c-.19238,0-.38379-.07324-.53027-.21973L.96973,2.03027c-.29297-.29297-.29297-.76758,0-1.06055s.76758-.29297,1.06055,0l17,17c.29297.29297.29297.76758,0,1.06055-.14648.14648-.33789.21973-.53027.21973Z" fill="var(--iconPrimary, #222)"/>
  <path d="M8.40527,11.59473c-.29297-.29297-.76758-.29297-1.06055,0l-1.60547,1.60547c-.37109-.20068-.78882-.3252-1.23926-.3252-1.44727,0-2.625,1.17773-2.625,2.625s1.17773,2.625,2.625,2.625,2.625-1.17773,2.625-2.625c0-.45044-.12451-.86816-.3252-1.23926l1.60547-1.60547c.29297-.29297.29297-.76758,0-1.06055ZM4.5,16.875c-.75781,0-1.375-.61719-1.375-1.375s.61719-1.375,1.375-1.375,1.375.61719,1.375,1.375-.61719,1.375-1.375,1.375Z" fill="var(--iconPrimary, #222)" opacity=".5"/>
  <path d="M15.5,1.875c-1.44727,0-2.625,1.17773-2.625,2.625,0,.45044.12451.86816.32544,1.23901l-1.6145,1.6145c-.29297.29297-.29297.76758,0,1.06055.14648.14648.33789.21973.53027.21973s.38379-.07324.53027-.21973l1.6145-1.6145c.37085.20093.78857.32544,1.23901.32544,1.44727,0,2.625-1.17773,2.625-2.625s-1.17773-2.625-2.625-2.625ZM15.5,5.875c-.75781,0-1.375-.61719-1.375-1.375s.61719-1.375,1.375-1.375,1.375.61719,1.375,1.375-.61719,1.375-1.375,1.375Z" fill="var(--iconPrimary, #222)" opacity=".5"/>
</svg>