<?xml version="1.0" encoding="UTF-8"?>
<svg xmlns="http://www.w3.org/2000/svg" width="20" height="20" viewBox="0 0 20 20">
  <path d="M3.94727,14.78906c-.30664,0-.59375-.18848-.70508-.49316L.84766,7.71777c-.1416-.38965.05957-.82031.44824-.96191.3916-.13965.82031.05957.96191.44824l2.39453,6.57812c.1416.38965-.05957.82031-.44824.96191-.08496.03027-.17188.04492-.25684.04492Z" fill="var(--iconPrimary, #222)"/>
  <path d="M6.82812,13.67773c-.35547,0-.6709-.25391-.7373-.61523l-1.19727-6.57812c-.07422-.4082.19629-.79883.60352-.87305.4082-.06738.79785.19629.87305.60352l1.19727,6.57812c.07422.4082-.19629.79883-.60352.87305-.0459.00781-.09082.01172-.13574.01172Z" fill="var(--iconPrimary, #222)"/>
  <path d="M10,13.28906c-.41406,0-.75-.33594-.75-.75v-6.57812c0-.41406.33594-.75.75-.75s.75.33594.75.75v6.57812c0,.41406-.33594.75-.75.75Z" fill="var(--iconPrimary, #222)"/>
  <path d="M13.17188,13.67773c-.04492,0-.08984-.00391-.13574-.01172-.40723-.07422-.67773-.46484-.60352-.87305l1.19727-6.57812c.0752-.40723.4668-.66992.87305-.60352.40723.07422.67773.46484.60352.87305l-1.19727,6.57812c-.06641.36133-.38184.61523-.7373.61523Z" fill="var(--iconPrimary, #222)"/>
  <path d="M16.05273,14.78906c-.08496,0-.17188-.01465-.25684-.04492-.38867-.1416-.58984-.57227-.44824-.96191l2.39453-6.57812c.1416-.38867.57031-.58789.96191-.44824.38867.1416.58984.57227.44824.96191l-2.39453,6.57812c-.11133.30469-.39844.49316-.70508.49316Z" fill="var(--iconPrimary, #222)"/>
  <path d="M16.9502,11.4375c-4.36719-1.9082-9.5332-1.9082-13.90039,0l-.59961-1.375c4.74609-2.07422,10.35352-2.07422,15.09961,0l-.59961,1.375Z" fill="var(--iconPrimary, #222)" opacity=".35"/>
</svg>