<?xml version="1.0" encoding="UTF-8"?>
<svg xmlns="http://www.w3.org/2000/svg" width="20" height="20" viewBox="0 0 20 20">
  <path d="M11.7537,6.0209c-.33777-.62427-.99447-1.04995-1.75443-1.04995h-3c-1.10449,0-2,.89551-2,2v3c0,.72189.38337,1.35201.95693,1.70302.09585.05866.30385-.11264.31499-.23236.25503-2.73994,2.44685-4.90275,5.18578-5.16089.13383-.01261.33776-.18397.29672-.25982Z" fill="var(--iconPrimary, #222)" opacity=".35"/>
  <path d="M2.74902,6.9707c0-2.34375,1.90625-4.25,4.25-4.25h2.49805c-.01611-.95117-.79224-1.7207-1.74707-1.7207H2.75c-.96484,0-1.75.78516-1.75,1.75v5c0,.9646.78467,1.74951,1.74902,1.75v-2.5293Z" fill="var(--iconPrimary, #222)"/>
  <path d="M18.55273,10.09473c-.9668-.79395-2.45312-.6875-3.37891.23926l-4.18359,4.18262c-.24707.24707-.43164.55469-.53223.88965l-.9541,3.16016c-.08008.26465-.00781.55176.1875.74707.14258.14258.33398.21973.53027.21973.07227,0,.14551-.01074.2168-.03223l3.1582-.95312c.33496-.10059.64258-.28516.89062-.5332l4.25293-4.25293c.49316-.49316.75684-1.17676.72168-1.87305s-.36621-1.35059-.90918-1.79395ZM11.34375,17.66113l.5498-1.82129c.01758-.05713.05859-.10205.09106-.1521l1.33228,1.33228c-.05029.03247-.09546.07373-.15283.09131l-1.82031.5498ZM17.67969,12.70117l-3.45605,3.45605-1.37646-1.37646,3.38721-3.38623c.3877-.3877.98828-.45117,1.36914-.13867.21875.17773.34668.42969.36035.70703.01367.2793-.08691.54102-.28418.73828Z" fill="var(--iconPrimary, #222)"/>
  <path d="M8.87793,14.33203c-.27441,0-.53809-.15039-.66992-.41113-.30371-.59863-.45801-1.24512-.45801-1.9209,0-2.34375,1.90625-4.25,4.25-4.25.62793,0,1.2334.13477,1.80078.39941.37598.17578.53711.62207.3623.99707-.17578.375-.62012.53906-.99707.3623-.36719-.17188-.75977-.25879-1.16602-.25879-1.5166,0-2.75,1.2334-2.75,2.75,0,.4375.09961.85547.2959,1.24316.1875.36914.04004.82031-.33008,1.00781-.1084.05469-.22461.08105-.33789.08105Z" fill="var(--iconPrimary, #222)"/>
  <path d="M5.52734,12.0752c-.20215,0-.4043-.08105-.55176-.24219-.46875-.50879-.72656-1.16992-.72656-1.8623v-3c0-1.5166,1.2334-2.75,2.75-2.75h3c.71777,0,1.39648.27539,1.91309.77441.29785.28809.30566.7627.01758,1.06055-.28711.29785-.76172.30664-1.06055.01758-.23535-.22754-.54395-.35254-.87012-.35254h-3c-.68945,0-1.25.56055-1.25,1.25v3c0,.31445.11719.61523.33008.84668.28027.30469.26074.7793-.04395,1.05957-.14355.13281-.32617.19824-.50781.19824Z" fill="var(--iconPrimary, #222)"/>
</svg>