<?xml version="1.0" encoding="UTF-8"?>
<svg xmlns="http://www.w3.org/2000/svg" width="20" height="20" viewBox="0 0 20 20">
  <path d="M16.5,11.87531c-1.44727,0-2.625,1.17773-2.625,2.625,0,.23267.04004.4541.09717.66895-5.06567,2.44727-6.68896.93799-7.76318-.06934-.13123-.12354-.24585-.22168-.36206-.32056.17236-.34937.27808-.73706.27808-1.1521,0-1.44727-1.17773-2.625-2.625-2.625s-2.625,1.17773-2.625,2.625,1.17773,2.625,2.625,2.625c.48706,0,.93811-.14233,1.32959-.37451.11072.08984.22449.19482.35254.31494.75635.71094,1.91602,1.7998,4.15479,1.7998,1.36023,0,3.12048-.40454,5.42761-1.53809.46375.41235,1.0675.6709,1.73547.6709,1.44727,0,2.625-1.17773,2.625-2.625s-1.17773-2.625-2.625-2.625ZM3.5,15.00226c-.7583,0-1.375-.61719-1.375-1.375s.6167-1.375,1.375-1.375,1.375.61719,1.375,1.375-.6167,1.375-1.375,1.375ZM16.5,15.87531c-.7583,0-1.375-.61719-1.375-1.375s.6167-1.375,1.375-1.375,1.375.61719,1.375,1.375-.6167,1.375-1.375,1.375Z" fill="var(--iconPrimary, #222)"/>
  <path d="M15.25.87531c-.99219,0-1.84729.56006-2.29346,1.37451-.0144-.00024-.02881-.00049-.04346-.00049-2.31299,0-3.50049,1.34277-4.45703,2.4248-.83301.94287-1.41089,1.51978-2.35791,1.56055-.13525-1.32104-1.24182-2.35938-2.59814-2.35938-1.44727,0-2.625,1.17773-2.625,2.625s1.17773,2.625,2.625,2.625c1.00757,0,1.87427-.57715,2.31421-1.4126.06079.01611.11987.0376.18579.0376,1.73926,0,2.71729-1.10645,3.58008-2.08203.85767-.97021,1.6156-1.80786,3.07202-1.90063.13599,1.32031,1.24219,2.35767,2.5979,2.35767,1.44727,0,2.625-1.17773,2.625-2.625s-1.17773-2.625-2.625-2.625ZM3.5,7.87531c-.7583,0-1.375-.61719-1.375-1.375s.6167-1.375,1.375-1.375,1.375.61719,1.375,1.375-.6167,1.375-1.375,1.375ZM15.25,4.87531c-.7583,0-1.375-.61719-1.375-1.375s.6167-1.375,1.375-1.375,1.375.61719,1.375,1.375-.6167,1.375-1.375,1.375Z" fill="var(--iconPrimary, #222)"/>
  <path d="M12.47021,11.21417c-.22754-.26074-.62256-.28711-.88184-.05957l-.83789.73364v-3.63794c0-.41406-.33594-.75-.75-.75s-.75.33594-.75.75v3.63867l-.83887-.73438c-.26074-.22754-.65576-.20117-.88184.05957-.22754.25977-.20117.6543.05859.88184l2,1.75c.11768.10254.26465.1543.41162.1543s.29395-.05176.41162-.1543l2-1.75c.25977-.22754.28613-.62207.05859-.88184Z" fill="var(--iconPrimary, #222)"/>
</svg>