<?xml version="1.0" encoding="UTF-8"?>
<svg xmlns="http://www.w3.org/2000/svg" width="20" height="20" viewBox="0 0 20 20">
  <path d="M15,19.00031c-2.34326,0-4.25-1.90625-4.25-4.25s1.90674-4.25,4.25-4.25,4.25,1.90625,4.25,4.25-1.90674,4.25-4.25,4.25ZM15,12.00031c-1.5166,0-2.75,1.2334-2.75,2.75s1.2334,2.75,2.75,2.75,2.75-1.2334,2.75-2.75-1.2334-2.75-2.75-2.75Z" fill="var(--iconPrimary, #222)"/>
  <path d="M18.375,4.25031c-.34521,0-.625.28027-.625.625v.81445l-3.43945-3.43945h.81445c.34521,0,.625-.28027.625-.625s-.27979-.625-.625-.625h-2.5c-.34521,0-.625.28027-.625.625v2.5c0,.34473.27979.625.625.625s.625-.28027.625-.625v-.81445l3.43945,3.43945h-.81445c-.34521,0-.625.28027-.625.625s.27979.625.625.625h2.5c.34521,0,.625-.28027.625-.625v-2.5c0-.34473-.27979-.625-.625-.625Z" fill="var(--iconPrimary, #222)"/>
  <path d="M4.25,9.5c0-2.34375,1.90625-4.25,4.25-4.25h1v-.5c0-.96484-.78516-1.75-1.75-1.75H2.75c-.96484,0-1.75.78516-1.75,1.75v5c0,.96484.78516,1.75,1.75,1.75h1.5v-2Z" fill="var(--iconPrimary, #222)"/>
  <path d="M8.5,15.25031c-1.51611,0-2.75-1.2334-2.75-2.75v-3c0-1.5166,1.23389-2.75,2.75-2.75h3c.66992,0,1.31396.24414,1.81348.68848.21631.19238.3999.41602.54639.66406.20996.35742.09082.81738-.26611,1.02734-.35547.20996-.81641.0918-1.02686-.26562-.06689-.11426-.15137-.2168-.25049-.30566-.22412-.19824-.51416-.30859-.81641-.30859h-3c-.68945,0-1.25.56055-1.25,1.25v3c0,.68945.56055,1.25,1.25,1.25.41406,0,.75.33594.75.75s-.33594.75-.75.75Z" fill="var(--iconPrimary, #222)"/>
  <path d="M13.44828,9.19565c-.14062-.9668-.94242-1.69565-1.94828-1.69565h-3c-1.10449,0-2,.89551-2,2v3c0,1.10449.89551,2,2,2l.74499.07545c.03652-2.57082,1.57372-4.77894,4.2033-5.3798Z" fill="var(--iconPrimary, #222)" opacity=".35"/>
</svg>