<?xml version="1.0" encoding="UTF-8"?>
<svg xmlns="http://www.w3.org/2000/svg" width="20" height="20" viewBox="0 0 20 20">
  <path d="M3.75,8c0-2.34375,1.90625-4.25,4.25-4.25h2.5v-1c0-.96484-.78516-1.75-1.75-1.75H2.75c-.96484,0-1.75.78516-1.75,1.75v6c0,.96484.78516,1.75,1.75,1.75h1v-2.5Z" fill="var(--iconPrimary, #222)"/>
  <path d="M8.01797,13.9102c.12939-3.24634,2.62306-5.76206,5.8694-5.89146v-.0127c0-1.10449-.78288-2.00604-1.88737-2.00604h-4c-1.10449,0-2,.89551-2,2v4c0,1.10449.89551,1.9102,2,1.9102h.01797Z" fill="var(--iconPrimary, #222)" opacity=".35"/>
  <path d="M7.26953,14.60773c-.0918,0-.18457-.0166-.27441-.05176-1.02734-.4043-1.74512-1.49219-1.74512-2.64551v-3.91016c0-1.5166,1.2334-2.75,2.75-2.75l3.88867.00586c1.16602,0,2.26367.71484,2.66699,1.73828.15234.38574-.03613.82129-.42188.97266-.38574.1543-.82129-.03613-.97266-.42188-.17773-.4502-.72559-.78906-1.27344-.78906l-3.88867-.00586c-.68848,0-1.24902.56055-1.24902,1.25v3.91016c0,.53418.3418,1.07129.79395,1.24902.38574.15234.5752.58691.42383.97266-.11621.2959-.39941.47559-.69824.47559Z" fill="var(--iconPrimary, #222)"/>
  <path d="M14.25,19.00031c-2.61914,0-4.75-2.13086-4.75-4.75s2.13086-4.75,4.75-4.75,4.75,2.13086,4.75,4.75-2.13086,4.75-4.75,4.75ZM14.25,11.00031c-1.79199,0-3.25,1.45801-3.25,3.25s1.45801,3.25,3.25,3.25,3.25-1.45801,3.25-3.25-1.45801-3.25-3.25-3.25Z" fill="var(--iconPrimary, #222)"/>
</svg>