<?xml version="1.0" encoding="UTF-8"?>
<svg id="e" data-name="ICONS" xmlns="http://www.w3.org/2000/svg" width="20" height="20" viewBox="0 0 20 20">
  <path d="M16.75,4H3.25c-1.24072,0-2.25,1.00977-2.25,2.25v7.5c0,1.24023,1.00928,2.25,2.25,2.25h13.5c1.24072,0,2.25-1.00977,2.25-2.25v-7.5c0-1.24023-1.00928-2.25-2.25-2.25ZM2.5,6.25c0-.41309.33643-.75.75-.75h13.5c.41357,0,.75.33691.75.75v6.46277l-2.08447-2.08386c-.80176-.80469-2.20312-.80371-3.00488-.00098l-3.23193,3.23242c-.14648.14648-.38525.14648-.53076,0l-1.23242-1.23145c-.80176-.80469-2.20312-.80371-3.00488-.00098l-1.66785,1.66748c-.14746-.13721-.2428-.32886-.2428-.54541v-7.5ZM7.51941,14.5h-3.21301l.98804-.98828c.33105-.33008.90625-.33105,1.2373.00098l.98767.9873ZM16.75,14.5h-6.44293l2.98737-2.98828c.33105-.33008.90625-.33105,1.2373.00098l2.75592,2.75586c-.13647.1416-.32599.23145-.53766.23145Z" fill="var(--iconPrimary, #222)"/>
  <path d="M4.75,8.5h2.5c.41406,0,.75-.33594.75-.75s-.33594-.75-.75-.75h-2.5c-.41406,0-.75.33594-.75.75s.33594.75.75.75Z" fill="var(--iconPrimary, #222)"/>
  <path d="M4.75,11h4.50684c.41406,0,.75-.33594.75-.75s-.33594-.75-.75-.75h-4.50684c-.41406,0-.75.33594-.75.75s.33594.75.75.75Z" fill="var(--iconPrimary, #222)"/>
  <circle cx="12" cy="8" r="1" fill="var(--iconPrimary, #222)"/>
</svg>