<?xml version="1.0" encoding="UTF-8"?>
<svg id="f" data-name="ICONS" xmlns="http://www.w3.org/2000/svg" width="20" height="20" viewBox="0 0 20 20">
  <path d="M9.03027,14.71972l-2-2c-.29297-.29297-.76758-.29297-1.06055,0s-.29297.76758,0,1.06055l.71973.71973H1.75c-.41406,0-.75.33594-.75.75s.33594.75.75.75h4.93945l-.71973.71973c-.29297.29297-.29297.76758,0,1.06055.14648.14648.33789.21973.53027.21973s.38379-.07324.53027-.21973l2-2c.29297-.29297.29297-.76758,0-1.06055h.00001Z" fill="var(--iconPrimary, #222)"/>
  <path d="M16.75,4H3.25c-1.24072,0-2.25,1.00977-2.25,2.25v6c0,.41406.33594.75.75.75s.75-.33594.75-.75v-6c0-.41309.33643-.75.75-.75h13.5c.41357,0,.75.33691.75.75v6.4624l-2.08447-2.0835c-.80176-.80469-2.20312-.80371-3.00488-.00098l-1.40137,1.40137c-.24414.24414-.24414.64062,0,.88477s.63965.24414.88379,0l1.40137-1.40234c.33105-.33008.90625-.33105,1.2373.00098l2.75616,2.75562c-.13647.14185-.32611.23169-.5379.23169h-5c-.41406,0-.75.33594-.75.75s.33594.75.75.75h5c1.24072,0,2.25-1.00977,2.25-2.25v-7.5c0-1.24023-1.00928-2.25-2.25-2.25Z" fill="var(--iconPrimary, #222)"/>
  <path d="M7.25,8.5h-2.5c-.41406,0-.75-.33594-.75-.75s.33594-.75.75-.75h2.5c.41406,0,.75.33594.75.75s-.33594.75-.75.75Z" fill="var(--iconPrimary, #222)"/>
  <path d="M9.25684,11h-4.50684c-.41406,0-.75-.33594-.75-.75s.33594-.75.75-.75h4.50684c.41406,0,.75.33594.75.75s-.33594.75-.75.75Z" fill="var(--iconPrimary, #222)"/>
  <circle cx="12" cy="8" r="1" fill="var(--iconPrimary, #222)"/>
</svg>