<?xml version="1.0" encoding="UTF-8"?>
<svg xmlns="http://www.w3.org/2000/svg" width="28.00005" height="28" viewBox="0 0 28.00005 28">
  <g id="circles">
    <circle id="Ellipse_10213" data-name="Ellipse 10213" cx="14.00002" cy="14" r="14.00001" fill="#e434a3"/>
  </g>
  <g id="ICONS">
    <path id="S2_Icon_UserAnalytics_20_N" d="M5,5v18h18V5H5Z" fill="none" opacity=".1"/>
    <path d="M14.67474,10.84987h-1.35c-.86836,0-1.575-.70664-1.575-1.575v-1.35c0-.86836.70664-1.575,1.575-1.575h1.35c.86836,0,1.575.70664,1.575,1.575v1.35c0,.86836-.70664,1.575-1.575,1.575ZM13.32474,7.69987c-.12393,0-.225.10107-.225.225v1.35c0,.12393.10107.225.225.225h1.35c.12393,0,.225-.10107.225-.225v-1.35c0-.12393-.10107-.225-.225-.225h-1.35Z" fill="#fff"/>
    <path d="M20.07474,10.84987h-1.35c-.86836,0-1.575-.70664-1.575-1.575v-1.35c0-.86836.70664-1.575,1.575-1.575h1.35c.86836,0,1.575.70664,1.575,1.575v1.35c0,.86836-.70664,1.575-1.575,1.575ZM18.72474,7.69987c-.12393,0-.225.10107-.225.225v1.35c0,.12393.10107.225.225.225h1.35c.12393,0,.225-.10107.225-.225v-1.35c0-.12393-.10107-.225-.225-.225h-1.35Z" fill="#fff"/>
    <path d="M9.27474,16.24987h-1.35c-.86836,0-1.575-.70664-1.575-1.575v-1.35c0-.86836.70664-1.575,1.575-1.575h1.35c.86836,0,1.575.70664,1.575,1.575v1.35c0,.86836-.70664,1.575-1.575,1.575ZM7.92474,13.09987c-.12393,0-.225.10107-.225.225v1.35c0,.12393.10107.225.225.225h1.35c.12393,0,.225-.10107.225-.225v-1.35c0-.12393-.10107-.225-.225-.225h-1.35Z" fill="#fff"/>
    <path d="M9.27474,10.84987h-1.35c-.86836,0-1.575-.70664-1.575-1.575v-1.35c0-.86836.70664-1.575,1.575-1.575h1.35c.86836,0,1.575.70664,1.575,1.575v1.35c0,.86836-.70664,1.575-1.575,1.575ZM7.92474,7.69987c-.12393,0-.225.10107-.225.225v1.35c0,.12393.10107.225.225.225h1.35c.12393,0,.225-.10107.225-.225v-1.35c0-.12393-.10107-.225-.225-.225h-1.35Z" fill="#fff"/>
    <path d="M9.27474,21.64987h-1.35c-.86836,0-1.575-.70664-1.575-1.575v-1.35c0-.86836.70664-1.575,1.575-1.575h1.35c.86836,0,1.575.70664,1.575,1.575v1.35c0,.86836-.70664,1.575-1.575,1.575ZM7.92474,18.49987c-.12393,0-.225.10107-.225.225v1.35c0,.12393.10107.225.225.225h1.35c.12393,0,.225-.10107.225-.225v-1.35c0-.12393-.10107-.225-.225-.225h-1.35Z" fill="#fff"/>
    <path d="M20.07474,16.24987h-1.35c-.86836,0-1.575-.70664-1.575-1.575v-1.35c0-.86836.70664-1.575,1.575-1.575h1.35c.86836,0,1.575.70664,1.575,1.575v1.35c0,.86836-.70664,1.575-1.575,1.575ZM18.72474,13.09987c-.12393,0-.225.10107-.225.225v1.35c0,.12393.10107.225.225.225h1.35c.12393,0,.225-.10107.225-.225v-1.35c0-.12393-.10107-.225-.225-.225h-1.35Z" fill="#fff"/>
  </g>
</svg>