<?xml version="1.0" encoding="UTF-8"?>
<svg   xmlns="http://www.w3.org/2000/svg" width="20" height="20" viewBox="0 0 20 20">
  <path d="M16.25,14h.00977c.41406,0,.75-.33594.75-.75V3.25c0-1.24023-1.00977-2.25-2.25-2.25H5.24902c-1.24023,0-2.25,1.00879-2.25,2.24805l-.00879,11.92578c0,.02051.01001.03772.01172.05786-.00024.00623-.00195.01196-.00195.01831,0,1.5166,1.2334,2.75,2.75,2.75h10.5c.41406,0,.75-.33594.75-.75s-.33594-.75-.75-.75c-.68945,0-1.25-.56055-1.25-1.25s.56055-1.25,1.25-1.25ZM8,2.5h6.75977c.41309,0,.75.33691.75.75v9.25h-7.50977V2.5ZM5.24902,2.5h1.25098v10h-.75c-.45557,0-.87939.12195-1.25806.31885l.00708-9.56982c0-.41309.33691-.74902.75-.74902ZM5.75,16.5c-.68945,0-1.25-.56055-1.25-1.25s.56055-1.25,1.25-1.25h1.25c.04443,0,.08276-.01782.125-.02527.04224.00745.08057.02527.125.02527h6.56445c-.19434.37671-.31445.79761-.31445,1.25,0,.4502.1084.875.30078,1.25H5.75Z" fill="var(--iconPrimary, #222)"/>
</svg>