<?xml version="1.0" encoding="UTF-8"?>
<svg id="e" data-name="ICONS" xmlns="http://www.w3.org/2000/svg" width="20" height="20" viewBox="0 0 20 20">
  <path d="M4.67188,6.2334c.19434-.36523.05566-.81934-.31055-1.01367-.40625-.21582-.83984-.39453-1.28809-.5293-.39551-.12207-.81543.10449-.93457.50098-.12012.39648.10449.81543.50098.93457.35547.10742.69824.24805,1.01855.41797.11133.05957.23242.08789.35059.08789.26855,0,.52832-.14453.66309-.39844Z" fill="var(--iconPrimary, #222)"/>
  <path d="M6.30859,9.23438c.13867.24121.3916.37598.65137.37598.12695,0,.25488-.03223.37305-.09961.35938-.20703.48242-.66504.27637-1.02441-.23047-.39941-.48242-.77734-.75098-1.12402-.25195-.32715-.72266-.38867-1.05176-.13379-.32715.25293-.3877.72461-.13379,1.05176.22656.29297.44043.61328.63574.9541Z" fill="var(--iconPrimary, #222)"/>
  <path d="M18.78027,3.51758l-2.29785-2.29785c-.29297-.29297-.76758-.29297-1.06055,0s-.29297.76758,0,1.06055l.89917.89917c-4.96338.46484-6.99292,4.17603-7.77319,7.81494-.01855-.01147-.03833-.01904-.05811-.02905-.03857-.02124-.08228-.02856-.12427-.04297-.03955-.01196-.07593-.03076-.11768-.03613-.1106-.01855-.22534-.02002-.34058.01318-.39551.12109-.61914.54004-.49902.93652.08984.2937.16138.58643.23291.87817.2334,1.08032.37427,2.1311.45654,3.02563.00488.6748.03442,1.25928.06738,1.70068.00146.02148.0127.03882.01611.05957h-3.04443c-.41406,0-.75.33594-.75.75s.33594.75.75.75h3.50439c.09326.04517.19556.07446.30615.07715h.01758c.11475,0,.22021-.03101.31763-.07715h3.35425c.41406,0,.75-.33594.75-.75s-.33594-.75-.75-.75h-2.92847c-.01245-.46606-.0415-1.0957-.1084-1.83716-.01831-3.75366.8147-10.50122,6.97656-11.00171l-1.15454,1.15527c-.29297.29297-.29297.76758,0,1.06055.14648.14648.33789.21973.53027.21973s.38379-.07324.53027-.21973l2.29785-2.29883c.29297-.29297.29297-.76758,0-1.06055Z" fill="var(--iconPrimary, #222)"/>
</svg>