<?xml version="1.0" encoding="UTF-8"?>
<svg id="f" data-name="ICONS" xmlns="http://www.w3.org/2000/svg" width="20" height="20" viewBox="0 0 20 20">
  <path d="M8.75,9.19971l5.25-3.01147v1.60278c0,.41406.33594.75.75.75s.75-.33594.75-.75v-2.0293c0-.80371-.43359-1.55176-1.13086-1.95117L9.12012.79883c-.69238-.39648-1.55078-.39551-2.23926,0L1.63086,3.81055c-.69727.39941-1.13086,1.14746-1.13086,1.95117v6.00781c0,.80371.43359,1.55176,1.13086,1.95117l5.25,3.0127c.33984.19531.73047.29785,1.12109.29785.08496,0,.16992-.00488.25391-.01465.41211-.04785.70703-.41992.65918-.83105-.0166-.14478-.08179-.26562-.16504-.37134v-6.6145ZM8,7.90125l-1.98633-1.1394,5.3186-2.9646,1.91089,1.09631-5.24316,3.00769ZM7.62793,2.09961c.22852-.13281.51465-.13281.74512,0l1.69385.97168-5.31885,2.9646-1.99121-1.14233,4.87109-2.79395ZM2.37695,12.41992c-.23242-.13379-.37695-.38281-.37695-.65039v-5.5813l5.25,3.01196v6.01611l-4.87305-2.79639Z" fill="var(--iconPrimary, #222)"/>
  <path d="M19.28027,18.21973l-1.97339-1.97339c.43652-.64087.69312-1.41382.69312-2.24634,0-2.20605-1.79395-4-4-4s-4,1.79395-4,4,1.79395,4,4,4c.83252,0,1.60547-.25659,2.24634-.69312l1.97339,1.97339c.14648.14648.33789.21973.53027.21973s.38379-.07324.53027-.21973c.29297-.29297.29297-.76758,0-1.06055ZM11.5,14c0-1.37891,1.12109-2.5,2.5-2.5s2.5,1.12109,2.5,2.5-1.12109,2.5-2.5,2.5-2.5-1.12109-2.5-2.5Z" fill="var(--iconPrimary, #222)"/>
</svg>