<?xml version="1.0" encoding="UTF-8"?>
<svg   xmlns="http://www.w3.org/2000/svg" width="20" height="20" viewBox="0 0 20 20">
  <path d="M10,18.7793c-4.8252,0-8.75-3.9248-8.75-8.75S5.1748,1.2793,10,1.2793s8.75,3.9248,8.75,8.75-3.9248,8.75-8.75,8.75ZM10,2.7793c-3.99805,0-7.25,3.25195-7.25,7.25s3.25195,7.25,7.25,7.25,7.25-3.25195,7.25-7.25-3.25195-7.25-7.25-7.25Z" fill="var(--iconPrimary, #222)"/>
  <path d="M12.5,12c-.31128,0-.60059.09497-.84009.25732l-3.8938-2.09814c.00586-.05298.01611-.10461.01611-.15918s-.01025-.1062-.01611-.15918l3.8938-2.09814c.2395.16235.52881.25732.84009.25732.82837,0,1.5-.67163,1.5-1.5s-.67163-1.5-1.5-1.5-1.5.67163-1.5,1.5c0,.05811.01074.11304.01709.16943l-3.88696,2.09448c-.24121-.16602-.53296-.26392-.8479-.26392-.82837,0-1.5.67163-1.5,1.5s.67163,1.5,1.5,1.5c.31494,0,.60669-.0979.8479-.26392l3.88696,2.09448c-.00635.0564-.01709.11133-.01709.16943,0,.82837.67163,1.5,1.5,1.5s1.5-.67163,1.5-1.5-.67163-1.5-1.5-1.5Z" fill="var(--iconPrimary, #222)"/>
</svg>