<?xml version="1.0" encoding="UTF-8"?>
<svg id="e" data-name="ICONS" xmlns="http://www.w3.org/2000/svg" width="20" height="20" viewBox="0 0 20 20">
  <circle cx="14.75" cy="14.75" r="4.5" fill="var(--iconPrimary, #222)"/>
  <path d="M17.25,14.125h-1.875v-1.875c0-.34473-.27979-.625-.625-.625s-.625.28027-.625.625v1.875h-1.875c-.34521,0-.625.28027-.625.625s.27979.625.625.625h1.875v1.875c0,.34473.27979.625.625.625s.625-.28027.625-.625v-1.875h1.875c.34521,0,.625-.28027.625-.625s-.27979-.625-.625-.625Z" fill="#fff"/>
  <path d="M4.74951,12c-.12158,0-.24463-.0293-.35889-.0918-.36377-.19824-.49756-.6543-.29883-1.01758l1.98145-3.62891c.19873-.36328.65381-.49805,1.01758-.29883.36377.19824.49756.6543.29883,1.01758l-1.98145,3.62891c-.13623.24902-.39355.39062-.65869.39062Z" fill="var(--iconPrimary, #222)"/>
  <path d="M8.98633,12h-1.23633c-.26465,0-.50977-.13965-.64502-.36719s-.14014-.50977-.01318-.74219l2.75098-5.03906c.13135-.24121.38379-.39062.6582-.39062h0c.27441,0,.52686.15039.6582.39062l1.33936,2.45508c.19873.36426.06445.81934-.29883,1.01758-.36328.2002-.81934.06445-1.01758-.29883l-.68115-1.24902-1.4873,2.72461c.40137.01367.72266.34375.72266.74902,0,.41406-.33594.75-.75.75Z" fill="var(--iconPrimary, #222)"/>
  <path d="M8.98877,19h-.00146c-4.4043-.00781-7.9873-3.59668-7.9873-8V3.25c0-1.24023,1.00928-2.25,2.25-2.25h11.5c1.24072,0,2.25,1.00977,2.25,2.25v4.92383c0,.41406-.33594.75-.75.75s-.75-.33594-.75-.75V3.25c0-.41309-.33643-.75-.75-.75H3.25c-.41357,0-.75.33691-.75.75v7.75c0,3.57812,2.91162,6.49414,6.49023,6.5.41406.00098.74902.33691.74854.75098s-.33643.74902-.75.74902Z" fill="var(--iconPrimary, #222)"/>
</svg>