<?xml version="1.0" encoding="UTF-8"?>
<svg   xmlns="http://www.w3.org/2000/svg" width="20.00001" height="20.00001" viewBox="0 0 20.00001 20.00001">
  <path d="M15.25,12.50001c-.84351,0-1.58984.38965-2.09473.98926l-5.73291-2.86646c.04688-.20093.07764-.40771.07764-.6228s-.03076-.42188-.07764-.6228l5.73291-2.86646c.50488.59961,1.25122.98926,2.09473.98926,1.5166,0,2.75-1.2334,2.75-2.75s-1.2334-2.75-2.75-2.75-2.75,1.2334-2.75,2.75c0,.13416.021.2627.03955.39185l-5.84082,2.92041c-.49854-.50122-1.1875-.81226-1.94873-.81226-1.5166,0-2.75,1.2334-2.75,2.75s1.2334,2.75,2.75,2.75c.76123,0,1.4502-.31104,1.94873-.81226l5.84082,2.92041c-.01855.12915-.03955.25769-.03955.39185,0,1.5166,1.2334,2.75,2.75,2.75s2.75-1.2334,2.75-2.75-1.2334-2.75-2.75-2.75ZM15.25,3.50001c.68945,0,1.25.56055,1.25,1.25s-.56055,1.25-1.25,1.25-1.25-.56055-1.25-1.25.56055-1.25,1.25-1.25ZM15.25,16.50001c-.68945,0-1.25-.56055-1.25-1.25s.56055-1.25,1.25-1.25,1.25.56055,1.25,1.25-.56055,1.25-1.25,1.25Z" fill="var(--iconPrimary, #222)"/>
</svg>