<?xml version="1.0" encoding="UTF-8"?>
<svg   xmlns="http://www.w3.org/2000/svg" width="20" height="20" viewBox="0 0 20 20">
  <path d="M15.25,12.5c-.13428,0-.2627.021-.39185.03955l-2.92041-5.84082c.50122-.49841.81226-1.18762.81226-1.94873,0-1.5166-1.2334-2.75-2.75-2.75s-2.75,1.2334-2.75,2.75c0,.76111.31104,1.45032.81226,1.94873l-2.92041,5.84082c-.12915-.01855-.25757-.03955-.39185-.03955-1.5166,0-2.75,1.2334-2.75,2.75s1.2334,2.75,2.75,2.75,2.75-1.2334,2.75-2.75c0-.84351-.38965-1.58997-.98926-2.09473l2.86646-5.73279c.20093.04688.40771.07751.6228.07751s.42188-.03064.6228-.07751l2.86646,5.73279c-.59961.50476-.98926,1.25122-.98926,2.09473,0,1.5166,1.2334,2.75,2.75,2.75s2.75-1.2334,2.75-2.75-1.2334-2.75-2.75-2.75ZM4.75,16.5c-.68945,0-1.25-.56055-1.25-1.25s.56055-1.25,1.25-1.25,1.25.56055,1.25,1.25-.56055,1.25-1.25,1.25ZM15.25,16.5c-.68945,0-1.25-.56055-1.25-1.25s.56055-1.25,1.25-1.25,1.25.56055,1.25,1.25-.56055,1.25-1.25,1.25Z" fill="var(--iconPrimary, #222)"/>
</svg>