<?xml version="1.0" encoding="UTF-8"?>
<svg id="e" data-name="ICONS" xmlns="http://www.w3.org/2000/svg" width="20" height="20" viewBox="0 0 20 20">
  <path d="M8.10498,11.63281c.13525.22754.38037.36719.64502.36719h5.5c.26465,0,.50977-.13965.64502-.36719s.14014-.50977.01318-.74219l-2.74902-5.03906c-.13135-.24023-.38379-.39062-.6582-.39062s-.52686.14941-.6582.39062l-2.75098,5.03906c-.12695.23242-.12207.51465.01318.74219ZM11.50098,7.77637l1.48535,2.72363h-2.97217l1.48682-2.72363Z" fill="var(--iconPrimary, #222)"/>
  <path d="M8.09082,6.96289c-.36426-.19922-.81885-.06445-1.01758.29883l-1.98145,3.62891c-.19873.36328-.06494.81934.29883,1.01758.11426.0625.2373.0918.35889.0918.26514,0,.52246-.1416.65869-.39062l1.98145-3.62891c.19873-.36328.06494-.81934-.29883-1.01758Z" fill="var(--iconPrimary, #222)"/>
  <path d="M15.75,1H4.25c-1.24072,0-2.25,1.00977-2.25,2.25v7.75c0,.83984.13379,1.6748.39746,2.48242.12793.39355.5498.6084.9458.48047.39355-.12891.6084-.55176.47998-.94531-.21436-.65723-.32324-1.33594-.32324-2.01758V3.25c0-.41309.33643-.75.75-.75h11.5c.41357,0,.75.33691.75.75v7.75c0,3.20605-2.39355,5.96777-5.56787,6.4248-.40967.05859-.69434.43848-.63525.84863.05371.37402.37451.64355.74121.64355.03564,0,.07178-.00195.10791-.00781,3.90723-.56152,6.854-3.96191,6.854-7.90918V3.25c0-1.24023-1.00928-2.25-2.25-2.25Z" fill="var(--iconPrimary, #222)"/>
  <path d="M7.28027,13.71973c-.29297-.29297-.76758-.29297-1.06055,0s-.29297.76758,0,1.06055l.71973.71973H1.75c-.41406,0-.75.33594-.75.75s.33594.75.75.75h5.18945l-.71973.71973c-.29297.29297-.29297.76758,0,1.06055.14648.14648.33838.21973.53027.21973s.38379-.07324.53027-.21973l2-2c.29297-.29297.29297-.76758,0-1.06055l-2-2Z" fill="var(--iconPrimary, #222)"/>
</svg>