<?xml version="1.0" encoding="UTF-8"?>
<svg   xmlns="http://www.w3.org/2000/svg" width="20" height="20" viewBox="0 0 20 20">
  <path d="M9.01416,19c-.08691,0-.17432-.00098-.26172-.00391-4.41992-.25098-7.81738-3.90234-7.75146-8.31152V3.25c0-1.24023,1.00928-2.25,2.25-2.25h11.49902c1.24072,0,2.25,1.00977,2.25,2.25v5.05273c0,.41406-.33594.75-.75.75s-.75-.33594-.75-.75V3.25c0-.41309-.33643-.75-.75-.75H3.25098c-.41357,0-.75.33691-.75.75v7.44531c-.05371,3.61426,2.72168,6.59766,6.31885,6.80176.19141.00586.40088.00293.60596-.00977.41309-.05273.77002.28613.79639.7002.02637.41309-.2876.76953-.70068.7959-.16797.01074-.33691.0166-.50732.0166Z" fill="var(--iconPrimary, #222)" stroke-width="0"/>
  <path d="M9.68506,12h-1.93506c-.26465,0-.50977-.13965-.64502-.36719s-.14014-.50977-.01318-.74219l2.75098-5.03906c.13135-.24121.38379-.39062.6582-.39062h0c.27441,0,.52686.15039.6582.39062l1.58203,2.90039c.19873.36426.06445.81934-.29883,1.01758-.36328.19922-.81934.06445-1.01758-.29883l-.92432-1.69434-1.48633,2.72363h.6709c.41406,0,.75.33594.75.75s-.33594.75-.75.75Z" fill="var(--iconPrimary, #222)" stroke-width="0"/>
  <path d="M4.74951,12c-.12158,0-.24463-.0293-.35889-.0918-.36377-.19824-.49756-.6543-.29883-1.01758l1.98145-3.62891c.19873-.36328.65381-.49707,1.01758-.29883s.49756.6543.29883,1.01758l-1.98145,3.62891c-.13623.24902-.39355.39062-.65869.39062Z" fill="var(--iconPrimary, #222)" stroke-width="0"/>
  <path d="M15,10.271c-2.48529,0-4.5,2.01489-4.5,4.5,0,2.48535,2.01471,4.5,4.5,4.5s4.5-2.01465,4.5-4.5c0-2.48511-2.01471-4.5-4.5-4.5ZM17.35791,13.77148l-2.59766,3.15918c-.1167.14258-.29004.22559-.47363.22852h-.00928c-.18018,0-.35205-.07812-.4707-.21387l-1.15234-1.32031c-.22705-.25977-.2002-.65527.05957-.88184.26123-.22754.65527-.2002.88184.05957l.66748.76465,2.12891-2.58887c.21826-.2666.61328-.30566.87988-.08594.2666.21875.30518.6123.08594.87891Z" fill="var(--iconPrimary, #222)" stroke-width="0"/>
</svg>