<?xml version="1.0" encoding="UTF-8"?>
<svg   xmlns="http://www.w3.org/2000/svg" width="20" height="20" viewBox="0 0 20 20">
  <path d="M15.25,10.5c-.71265,0-1.35669.2793-1.8457.72534l-6.02075-3.72705c.06812-.2395.11646-.48718.11646-.74829,0-1.5166-1.2334-2.75-2.75-2.75s-2.75,1.2334-2.75,2.75,1.2334,2.75,2.75,2.75c.71265,0,1.35693-.2793,1.8457-.72546l6.02075,3.72717c-.06812.2395-.11646.48718-.11646.74829,0,1.5166,1.2334,2.75,2.75,2.75s2.75-1.2334,2.75-2.75-1.2334-2.75-2.75-2.75ZM15.25,14.5c-.68945,0-1.25-.56055-1.25-1.25s.56055-1.25,1.25-1.25,1.25.56055,1.25,1.25-.56055,1.25-1.25,1.25Z" fill="var(--iconPrimary, #222)"/>
</svg>