<?xml version="1.0" encoding="UTF-8"?>
<svg id="f" data-name="ICONS" xmlns="http://www.w3.org/2000/svg" width="20" height="20" viewBox="0 0 20 20">
  <path d="M5.24902,10.6084l-3-.03711c.05273-4.30176,3.59668-7.80078,7.89941-7.80078.77637,0,1.5459.11328,2.28613.33789l-.86914,2.87109c-.45801-.13867-.93457-.20898-1.41699-.20898-2.66895,0-4.86621,2.16992-4.89941,4.83789Z" fill="var(--iconPrimary, #222)" opacity=".35"/>
  <path d="M18.17676,7.04004c-.95227-2.03223-2.65088-3.57007-4.66919-4.38611-.04883-.02979-.09253-.06604-.14917-.08459-.03735-.01221-.07471-.00696-.1123-.01306-.94873-.349-1.95557-.55627-2.99609-.55627C5.4248,2,1.5,5.9248,1.5,10.79395c0,.41406.33594.75.75.75h3.5c.41406,0,.75-.37988.75-.79395,0-2.06738,1.68262-3.75,3.75-3.75.84766,0,1.64844.27637,2.31445.79883.32715.25781.79883.19727,1.05273-.12695.25586-.32617.19922-.79688-.12695-1.05273-.17505-.13733-.36255-.25024-.55005-.36292l.63123-1.927c1.39514.72302,2.55872,1.87744,3.24792,3.34753.17383.375.62109.53711.99707.36035.375-.17578.53613-.62207.36035-.99707ZM11.55042,5.67969c-.42151-.10742-.85364-.17969-1.30042-.17969-2.64355,0-4.83789,1.96484-5.19824,4.54395h-2.01758c.35645-3.66797,3.45605-6.54395,7.21582-6.54395.66003,0,1.30566.09814,1.92578.27051l-.62537,1.90918Z" fill="var(--iconPrimary, #222)"/>
  <path d="M15,10.02112c-2.48535,0-4.5,2.01477-4.5,4.5s2.01465,4.5,4.5,4.5,4.5-2.01477,4.5-4.5-2.01465-4.5-4.5-4.5ZM17.35742,13.52148l-2.59766,3.15918c-.11621.14258-.28906.22559-.47363.22852h-.00879c-.18066,0-.35254-.07812-.4707-.21387l-1.15234-1.32031c-.22754-.25977-.2002-.65527.05957-.88184.25879-.22656.6543-.20117.88184.05957l.66699.76465,2.12988-2.58887c.21777-.26855.6123-.30566.87891-.08594.2666.21875.30566.6123.08594.87891Z" fill="var(--iconPrimary, #222)"/>
</svg>