<?xml version="1.0" encoding="UTF-8"?>
<svg xmlns="http://www.w3.org/2000/svg" width="28.00005" height="28" viewBox="0 0 28.00005 28">
  <g id="circles">
    <circle id="Ellipse_10213" data-name="Ellipse 10213" cx="14.00002" cy="14" r="14.00001" fill="#5db41f"/>
  </g>
  <g id="ICONS">
    <rect id="S2_Icon_CustomerExpAppDevelopment_20_N" x="5.09281" y="6.00404" width="18" height="18" transform="translate(29.09685 .91123) rotate(90)" fill="none" opacity=".1"/>
    <path d="M14.09852,23.10404c-.07559,0-.15117-.00176-.22676-.00352-3.97969-.22588-7.0374-3.51211-6.97808-7.48037v-6.69111c0-1.11621.90835-2.025,2.025-2.025h10.34912c1.11665,0,2.025.90879,2.025,2.025l-.00352,7.19648c-.05889,1.92041-.86265,3.70459-2.26362,5.02295-1.34604,1.26562-3.08804,1.95557-4.92715,1.95557ZM8.91868,8.25404c-.37222,0-.675.30322-.675.675v6.70078c-.04834,3.25283,2.44951,5.93789,5.68696,6.12158,1.54336.03076,3.03135-.51592,4.16997-1.58643,1.13818-1.07051,1.79165-2.5207,1.83955-4.0834l.00264-.17754v-6.975c0-.37178-.30278-.675-.675-.675h-10.34912Z" fill="#fff"/>
    <path d="M17.91781,16.80404h-4.95c-.23818,0-.45879-.12568-.58052-.33047s-.12612-.45879-.01187-.66797l2.47588-4.53516c.11821-.21709.34541-.35156.59238-.35156h0c.24697,0,.47417.13535.59238.35156l2.47412,4.53516c.11426.20918.10986.46318-.01187.66797s-.34233.33047-.58052.33047ZM14.10555,15.45404h2.67495l-1.33682-2.45127-1.33813,2.45127Z" fill="#fff"/>
    <path d="M10.26737,16.80404c-.10942,0-.22017-.02637-.323-.08262-.32739-.17842-.4478-.58887-.26895-.91582l1.7833-3.26602c.17842-.32695.58887-.44736.91582-.26895.32739.17842.4478.58887.26895.91582l-1.7833,3.26602c-.12261.22412-.3542.35156-.59282.35156Z" fill="#fff"/>
  </g>
</svg>