<?xml version="1.0" encoding="UTF-8"?>
<svg id="e" data-name="ICONS" xmlns="http://www.w3.org/2000/svg" width="20" height="20" viewBox="0 0 20 20">
  <path d="M6.07324,7.26172l-1.98145,3.62891c-.19873.36328-.06494.81934.29883,1.01758.11426.0625.2373.0918.35889.0918.26514,0,.52246-.1416.65869-.39062l1.98145-3.62891c.19873-.36328.06494-.81934-.29883-1.01758-.36377-.19922-.81885-.06445-1.01758.29883Z" fill="var(--iconPrimary, #222)"/>
  <path d="M17.03027,13.71973c-.29297-.29297-.76758-.29297-1.06055,0s-.29297.76758,0,1.06055l.71973.71973h-5.18945c-.41406,0-.75.33594-.75.75s.33594.75.75.75h5.18945l-.71973.71973c-.29297.29297-.29297.76758,0,1.06055.14648.14648.33838.21973.53027.21973s.38379-.07324.53027-.21973l2-2c.29297-.29297.29297-.76758,0-1.06055l-2-2Z" fill="var(--iconPrimary, #222)"/>
  <path d="M14.03027,10.28027c.29297-.29297.29297-.76758,0-1.06055s-.76758-.29297-1.06055,0l-2,2c-.29297.29297-.29297.76758,0,1.06055l2,2c.14648.14648.33838.21973.53027.21973s.38379-.07324.53027-.21973c.29297-.29297.29297-.76758,0-1.06055l-.71973-.71973h5.18945c.41406,0,.75-.33594.75-.75s-.33594-.75-.75-.75h-5.18945l.71973-.71973Z" fill="var(--iconPrimary, #222)"/>
  <path d="M11.66992,8.35449c.36377-.19824.49805-.65332.2998-1.01758l-.81055-1.48535c-.13135-.24023-.38379-.39062-.6582-.39062s-.52686.14941-.6582.39062l-2.75098,5.03906c-.12695.23242-.12207.51465.01318.74219s.38037.36719.64502.36719h.79883c.41406,0,.75-.33594.75-.75,0-.2666-.13916-.50098-.34863-.63379l1.55029-2.83984.15234.2793c.19824.36328.65479.49902,1.01709.29883Z" fill="var(--iconPrimary, #222)"/>
  <path d="M9.23633,17.4873l-.23633.0127c-3.58398,0-6.5-2.91602-6.5-6.5V3.25c0-.41309.33643-.75.75-.75h11.5c.41357,0,.75.33691.75.75v5.35645c0,.41406.33594.75.75.75s.75-.33594.75-.75V3.25c0-1.24023-1.00928-2.25-2.25-2.25H3.25c-1.24072,0-2.25,1.00977-2.25,2.25v7.75c0,4.41113,3.58887,8,8,8,.07422,0,.14697-.00488.30176-.01465.41357-.01758.73438-.36816.7168-.78125-.01855-.41504-.36523-.77246-.78223-.7168Z" fill="var(--iconPrimary, #222)"/>
</svg>