<?xml version="1.0" encoding="UTF-8"?>
<svg id="e" data-name="ICONS" xmlns="http://www.w3.org/2000/svg" width="20" height="20" viewBox="0 0 20 20">
  <path d="M7.09082,6.96289c-.36279-.19922-.81934-.06445-1.01758.29883l-1.98145,3.62891c-.19873.36328-.06494.81934.29883,1.01758.11426.0625.2373.0918.35889.0918.26514,0,.52246-.1416.65869-.39062l1.98145-3.62891c.19873-.36328.06494-.81934-.29883-1.01758Z" fill="var(--iconPrimary, #222)"/>
  <path d="M19.03027,17.96973l-1.97333-1.97375c.43658-.64075.69305-1.4137.69305-2.24597,0-2.20605-1.79443-4-4-4s-4,1.79395-4,4,1.79443,4,4,4c.83246,0,1.60547-.25659,2.2464-.69348l1.97333,1.97375c.14648.14648.33838.21973.53027.21973s.38379-.07324.53027-.21973c.29297-.29297.29297-.76758,0-1.06055ZM11.25,13.75c0-1.37891,1.12158-2.5,2.5-2.5s2.5,1.12109,2.5,2.5-1.12158,2.5-2.5,2.5-2.5-1.12109-2.5-2.5Z" fill="var(--iconPrimary, #222)"/>
  <path d="M10.78809,8.30273c.19873.36328.65479.49902,1.01758.29883.36328-.19824.49756-.6543.29883-1.01758l-.94531-1.73242c-.13135-.24121-.38379-.39062-.6582-.39062s-.52686.14941-.6582.39062l-2.75098,5.03906c-.12695.23242-.12207.51465.01318.74219s.38037.36719.64502.36719h.27344c.41405,0,.75-.33594.75-.75,0-.08301-.01367-.16406-.03857-.23828l1.76611-3.23535.28711.52637Z" fill="var(--iconPrimary, #222)"/>
  <path d="M9.35742,17.48047l-.11914.00781c-.0791.00586-.15771.01172-.23828.01172-3.58398,0-6.5-2.91602-6.5-6.5V3.25c0-.41309.33643-.75.75-.75h11.5c.41357,0,.75.33691.75.75v4.77539c0,.41406.33594.75.75.75s.75-.33594.75-.75V3.25c0-1.24023-1.00928-2.25-2.25-2.25H3.25c-1.24072,0-2.25,1.00977-2.25,2.25v7.75c0,4.41113,3.58887,8,8,8,.11523,0,.22803-.00684.34131-.01465l.104-.00684c.41309-.02441.729-.37891.70459-.79297-.02393-.41309-.37988-.7373-.79248-.70508Z" fill="var(--iconPrimary, #222)"/>
</svg>