<?xml version="1.0" encoding="UTF-8"?>
<svg id="e" data-name="ICONS" xmlns="http://www.w3.org/2000/svg" width="20" height="20" viewBox="0 0 20 20">
  <path d="M5,8.99023h-.5c-.34473,0-.625-.28027-.625-.625s.28027-.625.625-.625h.5c.34473,0,.625.28027.625.625s-.28027.625-.625.625Z" fill="var(--iconPrimary, #222)"/>
  <path d="M5,11.25h-.5c-.34473,0-.625-.28027-.625-.625s.28027-.625.625-.625h.5c.34473,0,.625.28027.625.625s-.28027.625-.625.625Z" fill="var(--iconPrimary, #222)"/>
  <path d="M15.25,5h-4.75c-.34473,0-.625-.28027-.625-.625s.28027-.625.625-.625h4.75c.34473,0,.625.28027.625.625s-.28027.625-.625.625Z" fill="var(--iconPrimary, #222)"/>
  <path d="M13.50977,7.25h-3c-.34473,0-.625-.28027-.625-.625s.28027-.625.625-.625h3c.34473,0,.625.28027.625.625s-.28027.625-.625.625Z" fill="var(--iconPrimary, #222)"/>
  <path id="f" data-name="Path 1005062" d="M16,8.25c0,.41421-.33579.75-.75.75-.41421,0-.75-.33579-.75-.75,0-.41421.33579-.75.75-.75s.75.33579.75.75h0Z" fill="var(--iconPrimary, #222)"/>
  <path d="M16.75,1h-7.5c-1.24023,0-2.25,1.00977-2.25,2.25v1.75h-3.75c-1.24023,0-2.25,1.00977-2.25,2.25v9.5c0,1.24023,1.00977,2.25,2.25,2.25h7.5c1.24023,0,2.25-1.00977,2.25-2.25v-1.75h3.75c1.24023,0,2.25-1.00977,2.25-2.25V3.25c0-1.24023-1.00977-2.25-2.25-2.25ZM8.5,5v-1.75c0-.41309.33691-.75.75-.75h7.5c.41309,0,.75.33691.75.75v7.37012l-.22754-.22754c-.63477-.63281-1.66504-.63281-2.29785,0l-.93652.93457c-.04688.04883-.12891.04883-.17578,0l-2.38281-2.38281c-.63477-.63281-1.66504-.63281-2.29785,0l-.68164.68115v-4.62549ZM3.25,17.5c-.41309,0-.75-.33691-.75-.75V7.25c0-.41309.33691-.75.75-.75h3.75v6.25c0,.52979.19177,1.01074.49939,1.39551.02112.03247.03162.06909.05823.09863l2.93262,3.25586H3.25ZM11.5,16.37891l-1.24207-1.37891h1.24207v1.37891ZM16.75,13.5h-7.5c-.41309,0-.75-.33691-.75-.75v-1.35742l1.56543-1.56348c.14453-.14648.38477-.14648.5293,0l2.38281,2.38281c.25977.25977.60547.40234.97266.40234s.71289-.14258.97168-.40234l.93652-.93457c.14453-.14648.38477-.14648.5293,0l1.1123,1.1123v.36035c0,.41309-.33691.75-.75.75Z" fill="var(--iconPrimary, #222)"/>
</svg>