<?xml version="1.0" encoding="UTF-8"?>
<svg xmlns="http://www.w3.org/2000/svg" width="20" height="20" viewBox="0 0 20 20">
  <path d="M6,16h-2c-1.10303,0-2-.89746-2-2v-2c0-1.10254.89697-2,2-2h2c1.10303,0,2,.89746,2,2v2c0,1.10254-.89697,2-2,2ZM4,11.5c-.27588,0-.5.22461-.5.5v2c0,.27539.22412.5.5.5h2c.27588,0,.5-.22461.5-.5v-2c0-.27539-.22412-.5-.5-.5h-2Z" fill="var(--iconPrimary, #222)"/>
  <path d="M6,8h-2c-1.10303,0-2-.89746-2-2v-2c0-1.10254.89697-2,2-2h2c1.10303,0,2,.89746,2,2v2c0,1.10254-.89697,2-2,2ZM4,3.5c-.27588,0-.5.22461-.5.5v2c0,.27539.22412.5.5.5h2c.27588,0,.5-.22461.5-.5v-2c0-.27539-.22412-.5-.5-.5h-2Z" fill="var(--iconPrimary, #222)"/>
  <path d="M14,8h-2c-1.10303,0-2-.89746-2-2v-2c0-1.10254.89697-2,2-2h2c1.10303,0,2,.89746,2,2v2c0,1.10254-.89697,2-2,2ZM12,3.5c-.27588,0-.5.22461-.5.5v2c0,.27539.22412.5.5.5h2c.27588,0,.5-.22461.5-.5v-2c0-.27539-.22412-.5-.5-.5h-2Z" fill="var(--iconPrimary, #222)"/>
  <path d="M18.77051,17.70996l-1.91406-1.91406c-.01733-.01733-.04004-.02368-.05859-.03906.44153-.64307.70215-1.41943.70215-2.25684,0-2.20605-1.79443-4-4-4s-4,1.79395-4,4,1.79443,4,4,4c.8374,0,1.61377-.26074,2.25696-.70215.01526.01855.02161.04126.03894.05859l1.91406,1.91406c.14648.14648.33838.21973.53027.21973s.38379-.07324.53027-.21973c.29297-.29297.29297-.76758,0-1.06055ZM13.5,16c-1.37842,0-2.5-1.12109-2.5-2.5s1.12158-2.5,2.5-2.5,2.5,1.12109,2.5,2.5-1.12158,2.5-2.5,2.5Z" fill="var(--iconPrimary, #222)"/>
</svg>