<?xml version="1.0" encoding="UTF-8"?>
<svg   xmlns="http://www.w3.org/2000/svg" width="20" height="20" viewBox="0 0 20 20">
  <path d="M8.75098,19.00004c-4.27344,0-7.75-3.47656-7.75-7.75s3.47656-7.75,7.75-7.75c.20215,0,.40234.00781.60059.02246.41309.03125.72266.3916.69141.80469s-.39258.71484-.80469.69141c-.16113-.0127-.32422-.01855-.4873-.01855-3.44629,0-6.25,2.80371-6.25,6.25s2.80371,6.25,6.25,6.25,6.25-2.80371,6.25-6.25c0-.17383-.00684-.34668-.02051-.5166-.03418-.41309.27246-.77539.68555-.80859.42773-.04102.77539.27344.80859.68555.01758.21094.02637.4248.02637.63965,0,4.27344-3.47656,7.75-7.75,7.75Z" fill="var(--iconPrimary, #222)"/>
  <path d="M8.75098,15.75004c-2.48145,0-4.5-2.01855-4.5-4.5,0-1.42578.68652-2.78223,1.83594-3.62793.33398-.24414.80273-.17383,1.04883.16016.24512.33301.17383.80273-.16016,1.04883-.7666.56348-1.22461,1.46875-1.22461,2.41895,0,1.6543,1.3457,3,3,3,.99805,0,1.92773-.49512,2.48828-1.32324.23047-.34277.69629-.43359,1.04102-.20117.34277.23145.43359.69824.20117,1.04102-.83887,1.24219-2.2334,1.9834-3.73047,1.9834Z" fill="var(--iconPrimary, #222)"/>
  <path d="M18.65625.99614c-.89453-.73145-2.26562-.63672-3.12305.21875l-6.13477,6.13477-.00195.00195c-.22949.23145-.40039.5166-.49316.8252l-.85059,2.81934c-.08008.26465-.00781.55176.1875.74707.14258.14258.33398.21973.53027.21973.07227,0,.14551-.01074.2168-.03223l2.81836-.85156c.31152-.09375.59863-.26465.82812-.49512l6.19629-6.19629c.45605-.45605.69922-1.08691.66699-1.73145s-.33789-1.24902-.84082-1.66016ZM10.25146,8.90043l.83301.83008-1.19189.36035.35889-1.19043ZM17.76953,3.32719l-5.4834,5.4834-1.11572-1.11182,5.42334-5.42236c.31152-.31348.81055-.36523,1.11328-.12012.17676.14551.28125.34961.29199.5752.01074.22461-.07031.43652-.22949.5957Z" fill="var(--iconPrimary, #222)"/>
</svg>