<?xml version="1.0" encoding="UTF-8"?>
<svg   xmlns="http://www.w3.org/2000/svg" width="20" height="20" viewBox="0 0 20 20">
  <path d="M5.71973,13.26758c-.55176,0-.99414-.02148-1.32715-.06445-1.3916-.18066-2.44629-1.17969-2.62598-2.48535-.05664-.41016.23047-.78809.6416-.84473.40527-.05664.78809.23047.84473.6416.08594.62598.62109,1.1084,1.33301,1.2002.54688.07324,1.81641.10742,4.75781-.13086.41016-.0127.77441.27441.80859.6875.0332.41309-.27539.77441-.6875.80859-1.55371.125-2.80664.1875-3.74512.1875Z" fill="var(--iconPrimary, #222)" opacity=".5"/>
  <path d="M2.50879,11.36621c-.36914,0-.69043-.27246-.74219-.64746-.17383-1.26074.52148-2.44629,1.8584-3.1709l5.12598-2.37695c.52344-.31152.6377-.90332.54883-1.3418s-.42578-.93848-1.10156-1.02832l-1.37402-.17871c-.41016-.05371-.7002-.43066-.64648-.8418.05371-.40918.42676-.69824.8418-.64648l1.37402.17969c1.20215.1582,2.13477,1.02832,2.37598,2.2168s-.27734,2.35352-1.32324,2.96777l-5.14844,2.38965c-.73535.40039-1.13184,1-1.04492,1.62598.05664.41016-.23047.78906-.64062.8457-.03516.00488-.06934.00684-.10352.00684Z" fill="var(--iconPrimary, #222)"/>
  <path d="M13.20117,19.48828c-.19824,0-.39844-.03809-.58984-.11719-.58203-.23926-.95703-.7998-.95703-1.42773v-6.98242c0-.62695.37402-1.18652.95312-1.42676.5791-.24121,1.23828-.10938,1.68262.33301l4.77246,4.75879c.44434.44336.57617,1.10449.33594,1.68457-.23926.5791-.7998.9541-1.42676.9541h-1.90723l-1.76758,1.76562c-.29688.2998-.69238.45801-1.0957.45801ZM13.23047,10.92969l-.07617,7.01367c0,.01758,0,.0293.02832.04102l1.78418-1.76172c.28906-.29199.68945-.45801,1.09766-.45801h1.90723l-4.74121-4.83496Z" fill="var(--iconPrimary, #222)"/>
</svg>