<?xml version="1.0" encoding="UTF-8"?>
<svg xmlns="http://www.w3.org/2000/svg" width="20" height="20" viewBox="0 0 20 20">
  <path d="m19.00293,3.86133c-.0498-.55371-.31152-1.05469-.73779-1.41016s-.96484-.52344-1.51904-.47559c-.55322.0498-1.0542.31152-1.41064.73828l-4.81079,5.75854c-.23547.01733-.47333.05334-.71069.11938-1.5293.42383-2.06836,1.69824-2.54443,2.82129-.36523.8623-.68018,1.60742-1.36523,1.97754-.28613.15527-.43994.47754-.38037.79688.05957.32031.31836.56543.64111.60742.68701.08789,1.4502.15234,2.2207.15234,1.61426,0,3.26025-.28125,4.30078-1.20996.71973-.6416,1.07666-1.50293,1.06201-2.56055-.00031-.02246-.00781-.0437-.00873-.06616,1.24475-1.48926,4.75244-5.6886,4.78754-5.73071.35645-.42578.52539-.96582.47559-1.51855Zm-7.31445,8.75684c-.66846.5957-2.00049.87207-3.74707.82129.2959-.46387.50928-.96777.70947-1.44141.4541-1.07227.77295-1.74121,1.56445-1.96094.57275-.15918,1.1333-.07715,1.53418.22363.31201.2334.49414.5752.49902.9375.00879.61133-.1748,1.07617-.56006,1.41992Zm5.68604-8.19824c-.05304.06421-2.75708,3.3009-4.25226,5.09058-.13806-.16479-.29492-.31726-.47333-.45093-.13849-.10352-.2937-.17822-.44714-.25549l4.28552-5.12927c.09912-.11816.23877-.19141.39258-.20508.1582-.0127.30518.0332.42334.13184.11865.09961.19189.23926.20557.39355.01416.1543-.03271.30371-.13428.4248Z" fill="var(--iconPrimary, #222)"/>
  <path d="m12.63086,16.5293c-.18457-.37012-.63672-.51953-1.00635-.33496-.01807.00879-1.82275.90137-3.66504.90137-1.58496,0-3.56543-.30078-4-1.73633-.70947-2.3418,2.36182-6.57227,5.47656-8.64941.34473-.22949.43799-.69531.20801-1.04004-.23047-.3457-.69678-.4375-1.04004-.20801-2.23688,1.49121-4.38049,3.90503-5.47717,6.2583.4823-2.72681,2.51587-5.85327,5.28918-7.97998.32861-.25195.39062-.72266.13867-1.05078-.25342-.33105-.72314-.3916-1.05176-.13867-2.03754,1.56238-3.69189,3.57837-4.74207,5.66064.3219-1.64258.95483-3.22778,1.90271-4.6499.22998-.34473.13672-.81055-.20801-1.04004-.34521-.22852-.81055-.13672-1.04004.20801-.90779,1.36362-1.57911,2.88076-1.97647,4.47008-.59256,2.37003-.71434,5.13964.15634,7.45644.47496,1.26384,1.36257,2.46754,2.56766,3.14923,1.13279.64079,2.51914.79046,3.79642.79046,2.19238,0,4.24951-1.0166,4.33594-1.05957.37061-.18555.52051-.63574.33545-1.00684Z" fill="var(--iconPrimary, #222)"/>
</svg>