<?xml version="1.0" encoding="UTF-8"?>
<svg xmlns="http://www.w3.org/2000/svg" width="20" height="20" viewBox="0 0 20 20">
  <path d="m15,10.521c-2.48535,0-4.5,2.01489-4.5,4.5,0,2.48535,2.01465,4.5,4.5,4.5s4.5-2.01465,4.5-4.5c0-2.48511-2.01465-4.5-4.5-4.5Zm2.5,5.12549h-5c-.34473,0-.625-.28027-.625-.625s.28027-.625.625-.625h5c.34473,0,.625.28027.625.625s-.28027.625-.625.625Z" fill="var(--iconPrimary, #222)"/>
  <path d="m18.0752,1.45703c-.52832-.44238-1.19336-.64941-1.88379-.58984-.68555.06152-1.30664.38672-1.74902.91699-.05664.06738-3.44043,4.11719-5.55762,6.65137l-1.13354,1.35742c-.34253.01758-.6897.06543-1.04028.16309-1.97266.54688-2.68652,2.23145-3.31543,3.71875-.50098,1.18262-.97461,2.30078-2.00293,2.85742-.28613.1543-.43945.47656-.37988.79688.05957.31934.31836.56445.6416.60645.89941.11523,1.94727.20605,3.02051.20605,1.51758,0,3.08398-.18164,4.34961-.73242.37988-.16504.55371-.60742.38867-.98633-.16504-.38184-.61133-.55371-.98633-.38867-1.36328.59375-3.2168.67871-4.8916.57422.55371-.72363.91016-1.56738,1.24121-2.34863.56934-1.34473,1.06055-2.50488,2.33496-2.8584.83984-.23242,1.64258-.13086,2.26465.28906.3457.23242.81055.13965,1.04102-.20312.23145-.34375.14062-.80957-.20312-1.04102-.23157-.15601-.47949-.2793-.73596-.38135l.55823-.66748c2.12695-2.5459,5.53125-6.62109,5.55957-6.6543.18359-.2207.44336-.35645.72949-.38184.29395-.02539.56641.06152.78809.24707.45605.37988.5166,1.06152.14355,1.50977-.01953.02246-.69531.83203-1.62695,1.94629l-1.65039,1.97656c-.26562.31738-.22363.79004.09473,1.05566.31641.26562.78906.22461,1.05566-.09473l1.65137-1.97559c.91113-1.08984,1.5752-1.88574,1.62012-1.93848.91016-1.0918.76367-2.7207-.32617-3.63086Z" fill="var(--iconPrimary, #222)"/>
</svg>