<?xml version="1.0" encoding="UTF-8"?>
<svg xmlns="http://www.w3.org/2000/svg" width="20" height="20" viewBox="0 0 20 20">
  <path d="M18.07471,1.59863c-1.0918-.91016-2.7207-.76562-3.62891.32422-.03638.04297-5.02875,6.01807-6.6936,8.01147-.34387.0166-.69238.06714-1.04126.16431-1.97314.54688-2.68652,2.23242-3.31592,3.71875-.50098,1.18359-.97412,2.30176-2.00195,2.8584-.28613.1543-.43994.47656-.38037.79688.05957.31934.31885.56445.6416.60645.93604.12012,1.97607.20801,3.02393.20801,2.15967,0,4.35107-.37207,5.72021-1.59375.92529-.8252,1.38477-1.9375,1.36572-3.30664-.00092-.06274-.0199-.12207-.02429-.18433l4.1698-4.99048c1.34326-1.60742,2.4585-2.94336,2.49023-2.98047.91211-1.09082.76611-2.71973-.3252-3.63281ZM9.3999,15.57324c-1.05176.93945-3.09961,1.34863-5.86523,1.17969.55322-.72461.91064-1.56836,1.2417-2.35059.56885-1.34375,1.06055-2.50488,2.33545-2.8584.87207-.24121,1.73096-.11328,2.35303.35254.5.375.79102.92578.79932,1.51172.01318.92676-.26953,1.63574-.86426,2.16504ZM17.25049,4.26758c-.02441.0293-1.14355,1.36914-2.4917,2.98242l-3.59821,4.30664c-.21735-.31934-.47211-.61768-.79633-.86035-.27283-.2041-.57416-.35986-.89001-.48389,2.01086-2.40698,6.05835-7.25146,6.12048-7.32568.38086-.45605,1.06201-.51758,1.51855-.13672.45605.38184.51709,1.0625.13721,1.51758Z" fill="var(--iconPrimary, #222)"/>
  <path d="M4.29248,9.25391c-1.90967,0-3.3501-1.39355-3.3501-3.24219,0-1.3623,1.04688-2.79102,1.9707-4.05176.27539-.37598.53857-.7334.74854-1.06055.27539-.42969.98633-.42969,1.26172,0,.20996.32617.47266.68457.74805,1.05957.92383,1.26074,1.9707,2.68945,1.9707,4.05273,0,1.84863-1.43994,3.24219-3.34961,3.24219ZM4.29248,2.61523c-.05566.07617-.1123.15332-.16943.23145-.74902,1.02148-1.68066,2.29297-1.68066,3.16504,0,1.02539.76074,1.74219,1.8501,1.74219,1.08887,0,1.84961-.7168,1.84961-1.74219,0-.87207-.93164-2.14355-1.68066-3.16602-.05713-.07715-.11328-.1543-.16895-.23047Z" fill="var(--iconPrimary, #222)"/>
</svg>