<?xml version="1.0" encoding="UTF-8"?>
<svg xmlns="http://www.w3.org/2000/svg" width="20" height="20" viewBox="0 0 20 20">
  <path d="M18.64258.87402c-.4043-.33887-.91504-.50684-1.4248-.48145-.53516.02832-1.01465.2666-1.35352.6709l-.11914.14844c-.52344.65137-2.73047,3.39648-3.60742,4.44727-.04102.04907-.06152.10669-.08789.16187-.1687.01978-.33789.03809-.50781.08521-1.375.38184-1.86426,1.53613-2.2959,2.55469-.32617.76953-.63379,1.49707-1.28223,1.84766-.23828.12891-.36621.39746-.31641.66406.0498.26758.26562.47168.53516.50586.01367.00195.53027.05762,1.27441.05762,1.37402,0,3.52344-.19043,4.71973-1.25781.56323-.50269.86084-1.16626.88525-1.91943.05518-.0376.11475-.06787.15967-.12158.46973-.5625,1.55371-1.90625,2.44336-3.00879.61133-.75781,1.12988-1.40039,1.28711-1.58984.68066-.81348.54199-2.05469-.30957-2.76465ZM13.35449,9.33691c-.78906.71484-2.39941.91504-3.61621.94434.27539-.42773.47363-.89453.65918-1.33301.4248-1.00293.72266-1.62793,1.47852-1.83691.18262-.05078.36328-.07617.53809-.07617.34766,0,.66992.09961.92676.29102.30176.22656.47852.55859.4834.91113.00684.4541-.14258.80273-.46973,1.09961ZM17.80176,2.67676c-.16016.19141-.68555.84277-1.30371,1.61035-.66577.82471-1.43994,1.78491-1.98145,2.44727-.12427-.14941-.26538-.28735-.42676-.4082-.11743-.08813-.24951-.15039-.37891-.21729,1.02686-1.25,2.74829-3.39087,3.20312-3.95654l.10352-.12988c.08496-.10156.19922-.12793.28027-.13184.13477-.01953.27051.04102.38379.13379.21582.18066.26953.47363.12012.65234Z" fill="var(--iconPrimary, #222)"/>
  <path d="M10,18.75c-4.8252,0-8.75-3.9248-8.75-8.75S5.1748,1.25,10,1.25c.73633,0,1.46875.0918,2.17773.27344.40039.10254.64258.51172.54004.91309-.10254.40234-.51465.63965-.91309.54004-.58691-.15039-1.19336-.22656-1.80469-.22656-3.99805,0-7.25,3.25195-7.25,7.25s3.25195,7.25,7.25,7.25c.41406,0,.75.33594.75.75s-.33594.75-.75.75Z" fill="var(--iconPrimary, #222)"/>
  <path d="M18,10.75c-.41406,0-.75-.33594-.75-.75,0-.41797-.03613-.83594-.10645-1.24316-.07031-.4082.20312-.7959.61133-.86719.40234-.06445.7959.20215.86719.61133.08496.49121.12793.99512.12793,1.49902,0,.41406-.33594.75-.75.75Z" fill="var(--iconPrimary, #222)"/>
  <path d="M17.99805,15h-3.5v-1c0-.6875.7666-1.18359,1.38965-.92188.37891.16504.82129-.01562.98242-.39844.16211-.38086-.0166-.82129-.39844-.98242-.30859-.13086-.63574-.19727-.97363-.19727-1.37891,0-2.5,1.12109-2.5,2.5v1c-.55225,0-1,.44775-1,1v3c0,.55225.44775,1,1,1h5c.55225,0,1-.44775,1-1v-3c0-.55225-.44775-1-1-1ZM17.74805,18.5c0,.13818-.11182.25-.25.25h-4c-.13818,0-.25-.11182-.25-.25v-2c0-.13818.11182-.25.25-.25h4c.13818,0,.25.11182.25.25v2Z" fill="var(--iconPrimary, #222)"/>
</svg>