<?xml version="1.0" encoding="UTF-8"?>
<svg id="e" data-name="ICONS" xmlns="http://www.w3.org/2000/svg" width="20" height="20" viewBox="0 0 20 20">
  <path d="M2.14941,11.86035c-.23633,0-.46924-.11133-.61523-.32031-.67676-.96777-1.03418-2.10547-1.03418-3.29004C.5,5.0791,3.07959,2.5,6.25,2.5c1.33252,0,2.63135.46582,3.65771,1.31348.31982.2627.36523.73535.10156,1.05566-.26465.31836-.73682.36523-1.05566.10059-.75879-.625-1.71875-.96973-2.70361-.96973-2.34326,0-4.25,1.90625-4.25,4.25,0,.875.26416,1.71582.76367,2.43066.2373.33984.1543.80762-.18506,1.04492-.13086.09082-.28076.13477-.4292.13477Z" fill="var(--iconPrimary, #222)"/>
  <path d="M18.07471,1.59863c-1.0918-.90918-2.72021-.76465-3.62891.32422-.03638.04297-5.02924,6.01855-6.69385,8.01172-.34369.0166-.69208.06738-1.04102.16406-1.97314.54688-2.68652,2.23242-3.31592,3.71875-.50098,1.18359-.97412,2.30176-2.00195,2.8584-.28613.1543-.43994.47656-.38037.79688.05957.31934.31885.56445.6416.60645.93604.12012,1.97607.20801,3.02393.20801,2.15967,0,4.35107-.37207,5.72021-1.59375.92529-.8252,1.38477-1.9375,1.36572-3.30664-.00092-.06274-.0199-.12207-.02429-.18433l4.1698-4.99048c1.34326-1.60742,2.4585-2.94336,2.49023-2.98047.91211-1.09082.76611-2.71973-.3252-3.63281ZM9.3999,15.57324c-1.05225.93945-3.09863,1.34375-5.86523,1.17969.55322-.72461.91064-1.56836,1.2417-2.35059.56885-1.34375,1.06055-2.50488,2.33545-2.8584.87109-.24023,1.73047-.11328,2.35303.35254.5.375.79102.92578.79932,1.51172.01318.92676-.26953,1.63574-.86426,2.16504ZM17.25049,4.26758c-.02441.0293-1.14355,1.36914-2.4917,2.98242l-3.59821,4.30664c-.21735-.31934-.47211-.61768-.79633-.86035-.27289-.20435-.5741-.36035-.88983-.48413,2.01093-2.40698,6.05817-7.25122,6.1203-7.32544.38086-.45605,1.06201-.51758,1.51855-.13672.45605.38184.51709,1.0625.13721,1.51758Z" fill="var(--iconPrimary, #222)"/>
  <path d="M2.76953,11.55176c.68311-1.22729,1.69653-2.42627,3.53027-2.93457.23438-.06494.46924-.1145.70361-.15186l2.95264-3.53369.01318-.02344c-.91528-1.01807-2.24268-1.6582-3.71924-1.6582-2.76147,0-5,2.23853-5,5,0,1.33228.521,2.54297,1.37061,3.43921l.14893-.13745Z" fill="var(--iconPrimary, #222)" opacity=".2"/>
</svg>