<?xml version="1.0" encoding="UTF-8"?>
<svg xmlns="http://www.w3.org/2000/svg" width="20" height="20" viewBox="0 0 20 20">
  <path d="M18.5,3h-3.86707c-.32886-1.15063-1.37805-2-2.63293-2s-2.30408.84937-2.63293,2H1.5c-.41406,0-.75.33594-.75.75s.33594.75.75.75h7.86707c.32886,1.15063,1.37805,2,2.63293,2s2.30408-.84937,2.63293-2h3.86707c.41406,0,.75-.33594.75-.75s-.33594-.75-.75-.75ZM12,5c-.68945,0-1.25-.56055-1.25-1.25s.56055-1.25,1.25-1.25,1.25.56055,1.25,1.25-.56055,1.25-1.25,1.25Z" fill="var(--iconPrimary, #222)"/>
  <path d="M10.36084,9h-2.71277c-.32886-1.15063-1.37805-2-2.63293-2s-2.30408.84937-2.63293,2h-.8822c-.41406,0-.75.33594-.75.75s.33594.75.75.75h.8822c.32886,1.15063,1.37805,2,2.63293,2s2.30408-.84937,2.63293-2h2.71277c.41406,0,.75-.33594.75-.75s-.33594-.75-.75-.75ZM5.01514,11c-.68945,0-1.25-.56055-1.25-1.25s.56055-1.25,1.25-1.25,1.25.56055,1.25,1.25-.56055,1.25-1.25,1.25Z" fill="var(--iconPrimary, #222)"/>
  <path d="M18.48877,6.74902c-.89795-.75-2.2373-.62891-2.98682.26758l-.19873.24316c-.69653.85815-3.10199,3.81738-4.17401,5.10669-.24445.01782-.4917.05591-.73907.12476-1.56641.43457-2.12012,1.74219-2.6084,2.89648-.36279.85645-.70508,1.66504-1.41846,2.05176-.28613.1543-.43994.47656-.38037.7959.05957.32031.31836.56543.64111.60742.70801.09082,1.49414.15723,2.2876.15723,1.65967,0,3.35107-.28906,4.41943-1.24219.73682-.65723,1.10254-1.53906,1.0874-2.62305-.00037-.02661-.00909-.05151-.01025-.07788,1.04852-1.26123,3.43884-4.20142,4.15234-5.07935l.19629-.24121c.74902-.89648.62891-2.23633-.26807-2.9873ZM12.33301,16.63867c-.69873.62207-2.08594.91699-3.92285.85156.31641-.4873.5415-1.01855.75244-1.51758.47119-1.11328.80225-1.80664,1.62842-2.03613.59814-.16602,1.18311-.08008,1.60352.23438.32764.24512.51855.60449.52393.98535.00879.6377-.18262,1.12305-.58545,1.48242ZM17.604,8.77734l-.20703.25391c-.6073.74683-2.43182,2.99048-3.60693,4.41895-.14447-.17529-.30786-.33813-.49658-.47949-.15094-.11328-.31897-.19678-.487-.2793,1.19818-1.45557,3.06085-3.74707,3.66083-4.48535l.18457-.22656c.21924-.26367.61279-.29883.87451-.08008.26318.21973.29883.61328.07764.87793Z" fill="var(--iconPrimary, #222)"/>
</svg>