<?xml version="1.0" encoding="UTF-8"?>
<svg xmlns="http://www.w3.org/2000/svg" width="20" height="20" viewBox="0 0 20 20">
  <path d="M17.08691,1.59277c-.52148-.43652-1.18652-.63818-1.8584-.58203-.67676.06055-1.29004.38086-1.71777.89355-.02344.02734-2.02441,2.42188-3.89941,4.66504l-2.67407,3.2019c-.33691.0166-.67847.06714-1.02026.16235-1.94336.53906-2.64551,2.19629-3.26367,3.65918-.49121,1.15918-.95508,2.25391-1.96094,2.79883-.28613.1543-.43945.47656-.37988.7959.05957.32031.31836.56543.6416.60742.9209.11816,1.94336.20508,2.97461.20508,2.12109,0,4.27344-.36621,5.62109-1.56836.91211-.8125,1.36426-1.9082,1.3457-3.25684-.00085-.06006-.01917-.1167-.02319-.17627l3.42065-4.09424c1.60156-1.91699,3.08789-3.69629,3.11426-3.72852.43652-.52148.64258-1.18164.58203-1.8584s-.38184-1.29004-.90234-1.72461ZM8.55176,15.3125c-1.02832.91699-3.02539,1.31738-5.72363,1.15527.53613-.70801.88379-1.5293,1.20605-2.29102.55762-1.31543,1.03809-2.45215,2.2832-2.79785.85645-.23535,1.69141-.11035,2.29883.34473.4873.36523.77148.90137.7793,1.47266.0127.90625-.2627,1.59863-.84375,2.11621ZM16.25488,4.21582c-.0332.04004-1.51562,1.81543-3.11328,3.72656l-2.85107,3.41406c-.21265-.30884-.46045-.59766-.7749-.83301-.26355-.19751-.55347-.35083-.85803-.47241l2.1051-2.51978c1.85059-2.21484,3.8252-4.57812,3.89062-4.65625.17969-.21387.43066-.3457.70898-.37012.2832-.02637.54883.05957.7627.23926.21387.17871.3457.42969.37012.70703.02539.27832-.05957.54883-.24023.76465Z" fill="var(--iconPrimary, #222)"/>
  <circle cx="16" cy="16" r="3.25" fill="var(--iconPrimary, #222)" opacity=".2"/>
  <path d="M16,20c-2.20605,0-4-1.79395-4-4s1.79395-4,4-4,4,1.79395,4,4-1.79395,4-4,4ZM16,13.5c-1.37891,0-2.5,1.12109-2.5,2.5s1.12109,2.5,2.5,2.5,2.5-1.12109,2.5-2.5-1.12109-2.5-2.5-2.5Z" fill="var(--iconPrimary, #222)"/>
</svg>