<?xml version="1.0" encoding="UTF-8"?>
<svg xmlns="http://www.w3.org/2000/svg" width="20" height="20" viewBox="0 0 20 20">
  <path d="m15,10.521c-2.48529,0-4.5,2.01489-4.5,4.5,0,2.48535,2.01471,4.5,4.5,4.5s4.5-2.01465,4.5-4.5c0-2.48511-2.01471-4.5-4.5-4.5Zm2.5,5.12549h-1.875v1.875c0,.34473-.27979.625-.625.625s-.625-.28027-.625-.625v-1.875h-1.875c-.34521,0-.625-.28027-.625-.625s.27979-.625.625-.625h1.875v-1.875c0-.34473.27979-.625.625-.625s.625.28027.625.625v1.875h1.875c.34521,0,.625.28027.625.625s-.27979.625-.625.625Z" fill="var(--iconPrimary, #222)"/>
  <path d="m18.0752,1.45703c-1.09082-.91113-2.71924-.76562-3.63379.32715-.06793.08228-5.03583,6.02832-6.69208,8.00928-.34167.01758-.68817.06543-1.03839.1626-1.97314.54688-2.68652,2.23242-3.31592,3.71875-.50098,1.18262-.97412,2.30078-2.00195,2.85742-.28613.1543-.43994.47656-.38037.79688.05957.31934.31885.56445.6416.60645.89893.11523,1.94727.20605,3.02051.20605,1.51709,0,3.08447-.18164,4.35059-.73242.37988-.16504.55371-.60645.38818-.98633-.16455-.37988-.604-.55566-.98682-.38867-1.3623.59375-3.21484.67676-4.8916.57422.55322-.72363.91016-1.56738,1.24121-2.34863.56885-1.34375,1.06055-2.50488,2.33545-2.8584.8374-.23242,1.6416-.13086,2.26416.28906.34229.23242.80859.14062,1.04102-.20312.23145-.34375.14062-.80957-.20312-1.04102-.23181-.15601-.47974-.2793-.73596-.38086,2.02014-2.41797,6.08612-7.28516,6.11633-7.32129.38232-.45703,1.06299-.51758,1.51904-.13672.45605.38184.5166,1.0625.13525,1.51953l-3.27002,3.91406c-.26562.31738-.22314.79004.09473,1.05566.31836.26562.79053.22266,1.05664-.09473l3.27051-3.91406c.91113-1.09082.76514-2.71973-.3252-3.63086Z" fill="var(--iconPrimary, #222)"/>
</svg>