<?xml version="1.0" encoding="UTF-8"?>
<svg id="i" data-name="Icons" xmlns="http://www.w3.org/2000/svg" width="20" height="20" viewBox="0 0 20 20">
  <path d="M9.88184,18.75879c-.29688,0-.59473-.01465-.89453-.0459-4.73047-.49023-8.18164-4.7373-7.69238-9.4668.42383-4.09766,3.70508-7.33789,7.80273-7.7041.40527-.03613.77637.2666.81348.68066.03711.41211-.26758.77637-.68066.81348-3.38281.30273-6.09277,2.97949-6.44336,6.36426-.4043,3.90723,2.44629,7.41504,6.35449,7.82031,2.62695.26953,5.18457-.92676,6.65918-3.12891.23047-.34473.69531-.4375,1.04004-.20605.34473.23047.43652.69629.20605,1.04004-1.61621,2.41504-4.30273,3.83301-7.16504,3.83301Z" fill="var(--iconPrimary, #222)"/>
  <path d="M18.44336,8.1875l-2.60352-4.50879c-.38379-.66504-1.07129-1.0625-1.83984-1.0625-.39551,0-.76746.10864-1.08984.30151-.00403.0022-.00854.00195-.0127.00415l-3.94531,2.21777c-.00146.00098-.0022.00244-.00366.00317-.32117.18262-.59399.44922-.78833.78589l-2.60352,4.50879c-.38379.66504-.38379,1.45996,0,2.125s1.07227,1.0625,1.84082,1.0625h5.20508c.38818,0,.75513-.10254,1.07336-.28857l3.95105-2.22217c.00391-.0022.0061-.00635.01001-.00854.32849-.18286.60876-.45068.8064-.79321.38379-.66504.38379-1.45996,0-2.125ZM13.36133,11.9375c-.1582.27344-.44238.4375-.75879.4375h-5.20508c-.31641,0-.60059-.16406-.75879-.4375-.1582-.27441-.1582-.60156,0-.875l2.60352-4.50879c.1582-.27441.44141-.4375.75781-.4375.23401,0,.4491.09009.60962.24756l-1.05298,1.82373c-.38379.66504-.38379,1.45996,0,2.125s1.07227,1.0625,1.84082,1.0625h2.06592c.02832.19067-.00098.38721-.10205.5625ZM12.82007,10.125h-1.42261c-.31641,0-.60059-.16406-.75879-.4375-.1582-.27441-.1582-.60156,0-.875l2.60352-4.50879c.1582-.27441.44141-.4375.75781-.4375s.59961.16309.75781.4375l2.60352,4.50879c.1582.27344.1582.60059,0,.875-.1582.27344-.44238.4375-.75879.4375h-3.78247Z" fill="var(--iconPrimary, #222)"/>
  <path d="M13.84863,10.65771h-2.45154c-1.15466,0-1.87634-1.25-1.29895-2.25l1.22559-2.12305-.02466-.04297c-.57739-1-2.02075-1-2.59814,0l-2.60278,4.5083c-.57739,1,.14429,2.25,1.29895,2.25h5.20581c1.15466,0,1.87634-1.25,1.29895-2.25l-.05322-.09229Z" fill="var(--iconPrimary, #222)" opacity=".5"/>
</svg>