<?xml version="1.0" encoding="UTF-8"?>
<svg id="f" data-name="ICONS" xmlns="http://www.w3.org/2000/svg" width="20" height="20" viewBox="0 0 20 20">
  <path d="M17.00488,2.75195v4.01953c0,.41406.33594.75.75.75s.75-.33594.75-.75V2.75195c0-1.24023-1.00977-2.25-2.25-2.25h-7.5c-1.24023,0-2.25,1.00977-2.25,2.25v11.5c0,.41406.33594.75.75.75s.75-.33594.75-.75V2.75195c0-.41309.33691-.75.75-.75h7.5c.41309,0,.75.33691.75.75Z" fill="var(--iconPrimary, #222)"/>
  <path d="M4.50488,15.00195h-1.75c-.41406,0-.75098-.33691-.75098-.75v-6.5c0-.41309.33691-.75.75098-.75h1.75c.41406,0,.75-.33594.75-.75s-.33594-.75-.75-.75h-1.75c-1.24121,0-2.25098,1.00977-2.25098,2.25v6.5c0,1.24023,1.00977,2.25,2.25098,2.25h1.75c.41406,0,.75-.33594.75-.75s-.33594-.75-.75-.75Z" fill="var(--iconPrimary, #222)"/>
  <circle cx="10.50452" cy="4.50171" r="1" fill="var(--iconPrimary, #222)"/>
  <circle cx="14.50452" cy="4.50171" r="1" fill="var(--iconPrimary, #222)"/>
  <circle cx="10.50452" cy="7.50171" r="1" fill="var(--iconPrimary, #222)"/>
  <circle cx="14.50452" cy="7.50171" r="1" fill="var(--iconPrimary, #222)"/>
  <circle cx="4.50452" cy="9.50195" r="1" fill="var(--iconPrimary, #222)"/>
  <circle cx="4.50452" cy="12.50171" r="1" fill="var(--iconPrimary, #222)"/>
  <path d="M9.50452,10.50171c0,.40332.2417.74634.58557.90454.28882-.09277.5907-.15625.90991-.15625.0448,0,.08655.01123.13086.01318.2229-.18335.37366-.4502.37366-.76147,0-.55225-.44763-1-1-1s-1,.44775-1,1Z" fill="var(--iconPrimary, #222)"/>
  <path d="M15,12.75v-1.34961c0-.08301.06738-.15039.15039-.15039h1.55762c.25977.44653.73816.75,1.29199.75.82837,0,1.5-.67163,1.5-1.5s-.67163-1.5-1.5-1.5c-.55383,0-1.03223.30347-1.29199.75h-1.55762c-.91016,0-1.65039.74023-1.65039,1.65039v1.34961c0,.41309-.33691.75-.75.75h-.45801c-.25977-.44653-.73816-.75-1.29199-.75-.82837,0-1.5.67163-1.5,1.5s.67163,1.5,1.5,1.5c.55383,0,1.03223-.30347,1.29199-.75h.45801c1.24023,0,2.25-1.00977,2.25-2.25Z" fill="var(--iconPrimary, #222)"/>
  <path d="M18,16.5c-.55383,0-1.03223.30347-1.29199.75h-1.55762c-.08301,0-.15039-.06738-.15039-.15039v-.59961c0-.41406-.33594-.75-.75-.75s-.75.33594-.75.75v.59961c0,.91016.74023,1.65039,1.65039,1.65039h1.55762c.25977.44653.73816.75,1.29199.75.82837,0,1.5-.67163,1.5-1.5s-.67163-1.5-1.5-1.5Z" fill="var(--iconPrimary, #222)"/>
</svg>