<?xml version="1.0" encoding="UTF-8"?>
<svg   xmlns="http://www.w3.org/2000/svg" width="20" height="20" viewBox="0 0 20 20">
  <path d="M4.25,19h-1.5c-.96484,0-1.75-.78516-1.75-1.75v-1.5c0-.96484.78516-1.75,1.75-1.75h1.5c.96484,0,1.75.78516,1.75,1.75v1.5c0,.96484-.78516,1.75-1.75,1.75ZM2.75,15.5c-.1377,0-.25.1123-.25.25v1.5c0,.1377.1123.25.25.25h1.5c.1377,0,.25-.1123.25-.25v-1.5c0-.1377-.1123-.25-.25-.25h-1.5Z" fill="var(--iconPrimary, #222)"/>
  <path d="M10.25,19h-1.5c-.96484,0-1.75-.78516-1.75-1.75v-1.5c0-.96484.78516-1.75,1.75-1.75h1.5c.96484,0,1.75.78516,1.75,1.75v1.5c0,.96484-.78516,1.75-1.75,1.75ZM8.75,15.5c-.1377,0-.25.1123-.25.25v1.5c0,.1377.1123.25.25.25h1.5c.1377,0,.25-.1123.25-.25v-1.5c0-.1377-.1123-.25-.25-.25h-1.5Z" fill="var(--iconPrimary, #222)"/>
  <path d="M16.25,19h-1.5c-.96484,0-1.75-.78516-1.75-1.75v-1.5c0-.96484.78516-1.75,1.75-1.75h1.5c.96484,0,1.75.78516,1.75,1.75v1.5c0,.96484-.78516,1.75-1.75,1.75ZM14.75,15.5c-.1377,0-.25.1123-.25.25v1.5c0,.1377.1123.25.25.25h1.5c.1377,0,.25-.1123.25-.25v-1.5c0-.1377-.1123-.25-.25-.25h-1.5Z" fill="var(--iconPrimary, #222)"/>
  <path d="M10.25,13h-1.5c-.96484,0-1.75-.78516-1.75-1.75v-1.5c0-.96484.78516-1.75,1.75-1.75h1.5c.96484,0,1.75.78516,1.75,1.75v1.5c0,.96484-.78516,1.75-1.75,1.75ZM8.75,9.5c-.1377,0-.25.1123-.25.25v1.5c0,.1377.1123.25.25.25h1.5c.1377,0,.25-.1123.25-.25v-1.5c0-.1377-.1123-.25-.25-.25h-1.5Z" fill="var(--iconPrimary, #222)"/>
  <path d="M16.25,13h-1.5c-.96484,0-1.75-.78516-1.75-1.75v-1.5c0-.96484.78516-1.75,1.75-1.75h1.5c.96484,0,1.75.78516,1.75,1.75v1.5c0,.96484-.78516,1.75-1.75,1.75ZM14.75,9.5c-.1377,0-.25.1123-.25.25v1.5c0,.1377.1123.25.25.25h1.5c.1377,0,.25-.1123.25-.25v-1.5c0-.1377-.1123-.25-.25-.25h-1.5Z" fill="var(--iconPrimary, #222)"/>
  <path d="M16.25,7h-1.5c-.96484,0-1.75-.78516-1.75-1.75v-1.5c0-.96484.78516-1.75,1.75-1.75h1.5c.96484,0,1.75.78516,1.75,1.75v1.5c0,.96484-.78516,1.75-1.75,1.75ZM14.75,3.5c-.1377,0-.25.1123-.25.25v1.5c0,.1377.1123.25.25.25h1.5c.1377,0,.25-.1123.25-.25v-1.5c0-.1377-.1123-.25-.25-.25h-1.5Z" fill="var(--iconPrimary, #222)"/>
</svg>