<?xml version="1.0" encoding="UTF-8"?>
<svg id="f" data-name="ICONS" xmlns="http://www.w3.org/2000/svg" width="20" height="20" viewBox="0 0 20 20">
  <path d="M11.24121,17h-1.99121c-1.24023,0-2.25-1.00977-2.25-2.25V3.25c0-1.24023,1.00977-2.25,2.25-2.25h7.5c1.24023,0,2.25,1.00977,2.25,2.25v4.75c0,.41406-.33594.75-.75.75s-.75-.33594-.75-.75V3.25c0-.41309-.33691-.75-.75-.75h-7.5c-.41309,0-.75.33691-.75.75v11.5c0,.41309.33691.75.75.75h1.99121c.41406,0,.75.33594.75.75s-.33594.75-.75.75Z" fill="var(--iconPrimary, #222)"/>
  <path d="M5,17h-1.75c-1.24023,0-2.25-1.00977-2.25-2.25v-6.5c0-1.24023,1.00977-2.25,2.25-2.25h1.75c.41406,0,.75.33594.75.75s-.33594.75-.75.75h-1.75c-.41309,0-.75.33691-.75.75v6.5c0,.41309.33691.75.75.75h1.75c.41406,0,.75.33594.75.75s-.33594.75-.75.75Z" fill="var(--iconPrimary, #222)"/>
  <circle cx="11" cy="5" r="1" fill="var(--iconPrimary, #222)"/>
  <circle cx="15" cy="5" r="1" fill="var(--iconPrimary, #222)"/>
  <circle cx="11" cy="8" r="1" fill="var(--iconPrimary, #222)"/>
  <circle cx="15" cy="8" r="1" fill="var(--iconPrimary, #222)"/>
  <circle cx="5" cy="10.00019" r="1" fill="var(--iconPrimary, #222)"/>
  <circle cx="5" cy="13" r="1" fill="var(--iconPrimary, #222)"/>
  <path d="M14.49954,20c-.25195,0-.50098-.07031-.72266-.20898-.40137-.25098-.64062-.68262-.64062-1.15625v-3.78711l-2.28613-2.62891c-.00879-.00977-.0166-.02051-.02539-.03125-.32422-.41504-.38086-.96875-.14844-1.44336.23145-.47168.7002-.76367,1.22363-.76367h6.73633c.52637.00098.99609.2959,1.22559.76953.22949.47461.16992,1.02637-.15527,1.44043l-2.30762,2.65723v3.04004c0,.51855-.30078,1-.7666,1.22656l-1.53516.74707c-.19043.09277-.39453.13867-.59766.13867ZM12.19681,11.48047l2.25586,2.59473c.11816.13672.18359.31152.18359.49219v3.85059l1.2627-.61523v-3.23535c0-.18066.06543-.35547.18359-.49219l2.25488-2.59473h-6.14062ZM11.90286,11.48047h.00098-.00098Z" fill="var(--iconPrimary, #222)"/>
</svg>