<?xml version="1.0" encoding="UTF-8"?>
<svg xmlns="http://www.w3.org/2000/svg" width="20" height="20" viewBox="0 0 20 20">
  <path d="M5.75,15c-.41406,0-.75-.33594-.75-.75V6.25c0-1.24072,1.00977-2.25,2.25-2.25h4c.41406,0,.75.33594.75.75s-.33594.75-.75.75h-4c-.41309,0-.75.33643-.75.75v8c0,.41406-.33594.75-.75.75Z" fill="var(--iconPrimary, #222)"/>
  <path d="M2.75,12c-.41406,0-.75-.33594-.75-.75V3.25c0-1.24072,1.00977-2.25,2.25-2.25h4c.41406,0,.75.33594.75.75s-.33594.75-.75.75h-4c-.41309,0-.75.33643-.75.75v8c0,.41406-.33594.75-.75.75Z" fill="var(--iconPrimary, #222)"/>
  <path d="M17.3623,11.21387l-2.68652-3.22412c-.52344-.62891-1.29395-.98975-2.1123-.98975h-2.31348c-1.24023,0-2.25,1.00928-2.25,2.25v7.5c0,1.24072,1.00977,2.25,2.25,2.25h5.5c1.24023,0,2.25-1.00928,2.25-2.25v-3.77588c0-.64209-.22656-1.26758-.6377-1.76025ZM15.64819,11.5h-1.39819c-.41309,0-.75-.33643-.75-.75v-1.82288c.00732.00824.01636.01416.02344.02258l2.12476,2.55029ZM15.75,17.5h-5.5c-.41309,0-.75-.33643-.75-.75v-7.5c0-.41357.33691-.75.75-.75h1.75v2.25c0,1.24072,1.00977,2.25,2.25,2.25h2.25v3.75c0,.41357-.33691.75-.75.75Z" fill="var(--iconPrimary, #222)"/>
</svg>