<?xml version="1.0" encoding="UTF-8"?>
<svg id="e" data-name="ICONS" xmlns="http://www.w3.org/2000/svg" width="20" height="20" viewBox="0 0 20 20">
  <path d="M14.24023,7.5h-1.74023c-.41406,0-.75-.33594-.75-.75s.33594-.75.75-.75h1.74023c.41406,0,.75.33594.75.75s-.33594.75-.75.75Z" fill="var(--iconPrimary, #222)"/>
  <path d="M15.24023,10.5h-2.74023c-.41406,0-.75-.33594-.75-.75s.33594-.75.75-.75h2.74023c.41406,0,.75.33594.75.75s-.33594.75-.75.75Z" fill="var(--iconPrimary, #222)"/>
  <path d="M15.24023,13.5h-2.74023c-.41406,0-.75-.33594-.75-.75s.33594-.75.75-.75h2.74023c.41406,0,.75.33594.75.75s-.33594.75-.75.75Z" fill="var(--iconPrimary, #222)"/>
  <path d="M7,10.375c-1.30957,0-2.375-1.06543-2.375-2.375s1.06543-2.375,2.375-2.375,2.375,1.06543,2.375,2.375-1.06543,2.375-2.375,2.375ZM7,6.875c-.62012,0-1.125.50488-1.125,1.125s.50488,1.125,1.125,1.125,1.125-.50488,1.125-1.125-.50488-1.125-1.125-1.125Z" fill="var(--iconPrimary, #222)"/>
  <path d="M16.75,17H3.25c-1.24023,0-2.25-1.00977-2.25-2.25V5.25c0-1.24023,1.00977-2.25,2.25-2.25h13.5c1.24023,0,2.25,1.00977,2.25,2.25v9.5c0,1.24023-1.00977,2.25-2.25,2.25ZM3.25,4.5c-.41309,0-.75.33691-.75.75v9.5c0,.41309.33691.75.75.75h13.5c.41309,0,.75-.33691.75-.75V5.25c0-.41309-.33691-.75-.75-.75H3.25Z" fill="var(--iconPrimary, #222)"/>
  <path d="M9.40039,14.11426c-.21973,0-.4375-.09668-.58496-.28125-.95508-1.18945-2.67578-1.18945-3.63086,0-.25781.32422-.73047.37598-1.05371.11621-.32324-.25879-.37598-.73047-.11621-1.05371.75586-.94434,1.84375-1.48535,2.98535-1.48535s2.22949.54102,2.98535,1.48535c.25977.32324.20703.79492-.11621,1.05371-.13867.11133-.30371.16504-.46875.16504Z" fill="var(--iconPrimary, #222)"/>
</svg>