<?xml version="1.0" encoding="UTF-8"?>
<svg id="e" data-name="ICONS" xmlns="http://www.w3.org/2000/svg" width="20" height="20" viewBox="0 0 20 20">
  <path d="M13.19385,19.49902c-.1958,0-.39307-.03711-.58252-.11426-.58203-.23633-.96045-.79492-.96338-1.42285l-.03613-6.98242c-.00293-.62695.36816-1.18848.9458-1.43164.57764-.24414,1.23877-.11523,1.68408.3252l4.79736,4.7334c.44678.44141.58203,1.10156.34521,1.68262s-.79492.95801-1.42236.96191l-1.90723.00977-1.75977,1.77441c-.29688.30273-.69482.46387-1.10107.46387ZM13.18799,10.94043l-.04004,7.01367h0c0,.01758,0,.03027.02734.04102l1.77686-1.77148c.28662-.29199.68555-.46094,1.09521-.46289l1.90674-.00977-4.76611-4.81055Z" fill="var(--iconPrimary, #222)"/>
  <path d="M9.37598,14.5h-3.62598c-2.61914,0-4.75-2.13086-4.75-4.75s2.13086-4.75,4.75-4.75h8.5c2.61914,0,4.75,2.13086,4.75,4.75,0,.30664-.03516.61719-.11133.97754-.08545.40625-.48438.66406-.88867.58008-.40527-.08594-.66455-.4834-.5791-.88867.0542-.25684.0791-.46875.0791-.66895,0-1.79199-1.45801-3.25-3.25-3.25H5.75c-1.79199,0-3.25,1.45801-3.25,3.25s1.45801,3.25,3.25,3.25h3.62598c.41406,0,.75.33594.75.75s-.33594.75-.75.75Z" fill="var(--iconPrimary, #222)"/>
</svg>