<?xml version="1.0" encoding="UTF-8"?>
<svg   xmlns="http://www.w3.org/2000/svg" width="20" height="20" viewBox="0 0 20 20">
  <rect x="6" y="14" width="1.5" height="1.5" rx=".75" ry=".75" fill="var(--iconPrimary, #222)" stroke-width="0"/>
  <rect x="9.25" y="14" width="1.5" height="1.5" rx=".75" ry=".75" fill="var(--iconPrimary, #222)" stroke-width="0"/>
  <rect x="12.5" y="14" width="1.5" height="1.5" rx=".75" ry=".75" fill="var(--iconPrimary, #222)" stroke-width="0"/>
  <rect x="6" y="11.75" width="1.5" height="1.5" rx=".75" ry=".75" fill="var(--iconPrimary, #222)" stroke-width="0"/>
  <rect x="9.25" y="11.75" width="1.5" height="1.5" rx=".75" ry=".75" fill="var(--iconPrimary, #222)" stroke-width="0"/>
  <rect x="12.5" y="11.75" width="1.5" height="1.5" rx=".75" ry=".75" fill="var(--iconPrimary, #222)" stroke-width="0"/>
  <rect x="6" y="9.5" width="1.5" height="1.5" rx=".75" ry=".75" fill="var(--iconPrimary, #222)" stroke-width="0"/>
  <rect x="9.25" y="9.5" width="1.5" height="1.5" rx=".75" ry=".75" fill="var(--iconPrimary, #222)" stroke-width="0"/>
  <rect x="12.5" y="9.5" width="1.5" height="1.5" rx=".75" ry=".75" fill="var(--iconPrimary, #222)" stroke-width="0"/>
  <path d="M14.75,18H5.25c-1.24023,0-2.25-1.00977-2.25-2.25V3.25c0-1.24023,1.00977-2.25,2.25-2.25h9.5c1.24023,0,2.25,1.00977,2.25,2.25v12.5c0,1.24023-1.00977,2.25-2.25,2.25ZM5.25,2.5c-.41309,0-.75.33691-.75.75v12.5c0,.41309.33691.75.75.75h9.5c.41309,0,.75-.33691.75-.75V3.25c0-.41309-.33691-.75-.75-.75H5.25Z" fill="var(--iconPrimary, #222)" stroke-width="0"/>
  <path d="M12.75,8.5h-5.5c-.96484,0-1.75-.78516-1.75-1.75v-1.5c0-.96484.78516-1.75,1.75-1.75h5.5c.96484,0,1.75.78516,1.75,1.75v1.5c0,.96484-.78516,1.75-1.75,1.75ZM7.25,5c-.1377,0-.25.1123-.25.25v1.5c0,.1377.1123.25.25.25h5.5c.1377,0,.25-.1123.25-.25v-1.5c0-.1377-.1123-.25-.25-.25h-5.5Z" fill="var(--iconPrimary, #222)" stroke-width="0"/>
</svg>