<?xml version="1.0" encoding="UTF-8"?>
<svg id="e" data-name="ICONS" xmlns="http://www.w3.org/2000/svg" width="20" height="20" viewBox="0 0 20 20">
  <path d="M15.75,3h-2v-1.02148c0-.41406-.33594-.75-.75-.75s-.75.33594-.75.75v1.02148h-4.5v-1.02148c0-.41406-.33594-.75-.75-.75s-.75.33594-.75.75v1.02148h-2c-1.24072,0-2.25,1.00977-2.25,2.25v10.5c0,1.24023,1.00928,2.25,2.25,2.25h4.39355c.41406,0,.75-.33594.75-.75s-.33594-.75-.75-.75h-4.39355c-.41357,0-.75-.33691-.75-.75v-7.25h13v.14355c0,.41406.33594.75.75.75s.75-.33594.75-.75v-3.39355c0-1.24023-1.00928-2.25-2.25-2.25ZM3.5,7v-1.75c0-.41309.33643-.75.75-.75h2v.47852c0,.41406.33594.75.75.75s.75-.33594.75-.75v-.47852h4.5v.47852c0,.41406.33594.75.75.75s.75-.33594.75-.75v-.47852h2c.41357,0,.75.33691.75.75v1.75H3.5Z" fill="var(--iconPrimary, #222)"/>
  <path d="M15,10.5c-2.48529,0-4.5,2.01465-4.5,4.5s2.01471,4.5,4.5,4.5,4.5-2.01465,4.5-4.5-2.01471-4.5-4.5-4.5ZM17.20947,16.3252c.24414.24414.24414.64062,0,.88477-.12207.12207-.28174.18262-.44189.18262s-.31982-.06055-.44189-.18262l-1.32568-1.32568-1.32568,1.32568c-.12207.12207-.28174.18262-.44189.18262s-.31982-.06055-.44189-.18262c-.24414-.24414-.24414-.64062,0-.88477l1.3252-1.3252-1.3252-1.3252c-.24414-.24414-.24414-.64062,0-.88477s.63965-.24414.88379,0l1.32568,1.32568,1.32568-1.32568c.24414-.24414.63965-.24414.88379,0s.24414.64062,0,.88477l-1.3252,1.3252,1.3252,1.3252Z" fill="var(--iconPrimary, #222)"/>
</svg>