<?xml version="1.0" encoding="UTF-8"?>
<svg id="f" data-name="ICONS" xmlns="http://www.w3.org/2000/svg" width="20" height="20" viewBox="0 0 20 20">
  <path d="M15.75,3h-2v-1c0-.41406-.33594-.75-.75-.75s-.75.33594-.75.75v1h-4.5v-1c0-.41406-.33594-.75-.75-.75s-.75.33594-.75.75v1h-2c-1.24023,0-2.25,1.00977-2.25,2.25v10.5c0,1.24023,1.00977,2.25,2.25,2.25h11.5c1.24023,0,2.25-1.00977,2.25-2.25V5.25c0-1.24023-1.00977-2.25-2.25-2.25ZM4.25,4.5h2v.5c0,.41406.33594.75.75.75s.75-.33594.75-.75v-.5h4.5v.5c0,.41406.33594.75.75.75s.75-.33594.75-.75v-.5h2c.41309,0,.75.33691.75.75v1.75H3.5v-1.75c0-.41309.33691-.75.75-.75ZM15.75,16.5H4.25c-.41309,0-.75-.33691-.75-.75v-7.25h13v7.25c0,.41309-.33691.75-.75.75Z" fill="var(--iconPrimary, #222)"/>
</svg>