<?xml version="1.0" encoding="UTF-8"?>
<svg   xmlns="http://www.w3.org/2000/svg" width="20" height="20" viewBox="0 0 20 20">
  <path d="M18,5.25c0-1.24023-1.00928-2.25-2.25-2.25h-2v-1c0-.41406-.33594-.75-.75-.75s-.75.33594-.75.75v1h-4.5v-1c0-.41406-.33594-.75-.75-.75s-.75.33594-.75.75v1h-2c-1.24072,0-2.25,1.00977-2.25,2.25v10.5c0,1.24023,1.00928,2.25,2.25,2.25h4.15527c.41406,0,.75-.33594.75-.75s-.33594-.75-.75-.75h-4.15527c-.41357,0-.75-.33691-.75-.75v-7.25h13.75c.41406,0,.75-.33594.75-.75,0-.01147-.00604-.021-.00653-.03223.00049-.01123.00653-.02075.00653-.03223v-2.43555ZM3.5,5.25c0-.41309.33643-.75.75-.75h2v.5c0,.41406.33594.75.75.75s.75-.33594.75-.75v-.5h4.5v.5c0,.41406.33594.75.75.75s.75-.33594.75-.75v-.5h2c.41357,0,.75.33691.75.75v1.75H3.5v-1.75Z" fill="var(--iconPrimary, #222)" stroke-width="0"/>
  <rect x="5" y="10" width="2" height="2" rx="1" ry="1" fill="var(--iconPrimary, #222)" stroke-width="0"/>
  <rect x="5" y="13" width="2" height="2" rx="1" ry="1" fill="var(--iconPrimary, #222)" stroke-width="0"/>
  <path d="M14.75,10.125c-2.55029,0-4.625,2.0752-4.625,4.625s2.07471,4.625,4.625,4.625,4.625-2.0752,4.625-4.625-2.07471-4.625-4.625-4.625ZM18.06177,14.125h-1.05756c-.0835-.85156-.33514-1.66309-.72717-2.3678.91302.46814,1.58893,1.32898,1.78473,2.3678ZM13.77594,14.125c.11151-.90149.45111-1.72168.97711-2.35547.52362.63232.86127,1.45239.97162,2.35547h-1.94873ZM15.72491,15.375c-.11017.90527-.44897,1.72705-.97443,2.36011-.52588-.63525-.86517-1.45728-.97546-2.36011h1.94989ZM13.22913,11.75391c-.39502.7063-.64862,1.51904-.73303,2.37109h-1.05786c.19623-1.04114.87469-1.90381,1.79089-2.37109ZM11.43823,15.375h1.05737c.08331.8501.3349,1.66187.72742,2.3678-.91309-.46814-1.58899-1.32898-1.78479-2.3678ZM16.27838,17.74194c.3916-.70471.6427-1.51587.72595-2.36694h1.05743c-.19568,1.03833-.87103,1.89868-1.78339,2.36694Z" fill="var(--iconPrimary, #222)" stroke-width="0"/>
  <path d="M9.39478,11.77576c.32214-.57947.73828-1.09778,1.22345-1.54285-.17157-.13831-.38068-.23291-.61823-.23291-.55231,0-1,.44775-1,1,0,.32031.1604.59277.39478.77576Z" fill="var(--iconPrimary, #222)" stroke-width="0"/>
</svg>