<?xml version="1.0" encoding="UTF-8"?>
<svg id="e" data-name="ICONS" xmlns="http://www.w3.org/2000/svg" width="20" height="20" viewBox="0 0 20 20">
  <path d="M18,7.74268v-2.49268c0-1.24023-1.00928-2.25-2.25-2.25h-2v-1c0-.41406-.33594-.75-.75-.75s-.75.33594-.75.75v1h-4.5v-1c0-.41406-.33594-.75-.75-.75s-.75.33594-.75.75v1h-2c-1.24072,0-2.25,1.00977-2.25,2.25v10.5c0,1.24023,1.00928,2.25,2.25,2.25h1.67383c.41406,0,.75-.33594.75-.75s-.33594-.75-.75-.75h-1.67383c-.41357,0-.75-.33691-.75-.75v-7.25h13.75146c.41406,0,.75-.33594.75-.75,0-.00244-.00146-.00488-.00146-.00732ZM3.5,5.25c0-.41309.33643-.75.75-.75h2v.5c0,.41406.33594.75.75.75s.75-.33594.75-.75v-.5h4.5v.5c0,.41406.33594.75.75.75s.75-.33594.75-.75v-.5h2c.41357,0,.75.33691.75.75v1.75H3.5v-1.75Z" fill="var(--iconPrimary, #222)"/>
  <rect x="5" y="10" width="2" height="2" rx="1" ry="1" fill="var(--iconPrimary, #222)"/>
  <rect x="5" y="13" width="2" height="2" rx="1" ry="1" fill="var(--iconPrimary, #222)"/>
  <path d="M11.94727,14.55762c-.0376,0-.07568-.00293-.11377-.00879-1.12695-.1709-1.97656-1.19629-1.97656-2.38477,0-1.3291,1.0376-2.41016,2.3125-2.41016.1709,0,.34229.01953.50928.05859.40381.09375.65479.49609.56104.90039-.09326.40332-.49805.65332-.8999.56055-.50391-.11719-.9834.32422-.98291.89062,0,.45312.30176.84082.70215.90234.40967.0625.69092.44434.62891.85449-.05664.37109-.37646.63672-.74072.63672Z" fill="var(--iconPrimary, #222)"/>
  <path d="M9.08838,18.75c-.02686,0-.0542-.00098-.08154-.00391-.41211-.04492-.70947-.41504-.66504-.82715.13721-1.2666,1.2666-2.29492,2.81055-2.55762.40869-.07129.79639.20605.86523.61328.06982.4082-.20508.7959-.61328.86523-.86182.14648-1.50781.65723-1.57129,1.24121-.0415.38379-.3667.66895-.74463.66895Z" fill="var(--iconPrimary, #222)"/>
  <path d="M15.91992,15.32422c-1.2749,0-2.3125-1.08105-2.3125-2.41016s1.0376-2.41016,2.3125-2.41016,2.3125,1.08105,2.3125,2.41016-1.0376,2.41016-2.3125,2.41016ZM15.91992,12.00391c-.44824,0-.8125.4082-.8125.91016s.36426.91016.8125.91016.8125-.4082.8125-.91016-.36426-.91016-.8125-.91016Z" fill="var(--iconPrimary, #222)"/>
  <path d="M13.08887,19.5c-.02686,0-.0542-.00098-.08154-.00391-.41211-.04492-.70947-.41504-.66504-.82715.16162-1.49512,1.69971-2.62207,3.57764-2.62207,1.89551,0,3.43408,1.13086,3.57861,2.63086.03955.41309-.26221.7793-.6748.81836-.41211.04492-.77881-.2627-.81836-.67383-.05908-.61621-.91162-1.27539-2.08545-1.27539-1.07373,0-2.00977.57617-2.08643,1.28418-.0415.38379-.3667.66895-.74463.66895Z" fill="var(--iconPrimary, #222)"/>
</svg>