<?xml version="1.0" encoding="UTF-8"?>
<svg id="e" data-name="ICONS" xmlns="http://www.w3.org/2000/svg" width="20" height="20" viewBox="0 0 20 20">
  <path d="M15.75,3h-2v-1c0-.41406-.33594-.75-.75-.75s-.75.33594-.75.75v1h-4.5v-1c0-.41406-.33594-.75-.75-.75s-.75.33594-.75.75v1h-2c-1.24072,0-2.25,1.00977-2.25,2.25v10.5c0,1.24023,1.00928,2.25,2.25,2.25h11.5c1.24072,0,2.25-1.00977,2.25-2.25V5.25c0-1.24023-1.00928-2.25-2.25-2.25ZM4.25,4.5h2v.5c0,.41406.33594.75.75.75s.75-.33594.75-.75v-.5h4.5v.5c0,.41406.33594.75.75.75s.75-.33594.75-.75v-.5h2c.41357,0,.75.33691.75.75v1.74805H3.5v-1.74805c0-.41309.33643-.75.75-.75ZM15.75,16.5H4.25c-.41357,0-.75-.33691-.75-.75v-7.25195h13v7.25195c0,.41309-.33643.75-.75.75Z" fill="var(--iconPrimary, #222)"/>
  <path d="M12.53851,11.56348l-1.27069-.06006c-.21954-.01025-.41199-.15039-.48969-.35596l-.44989-1.18994c-.11432-.30225-.54218-.30225-.65649,0l-.44989,1.18994c-.07776.20557-.27014.3457-.48969.35596l-1.27069.06006c-.32294.01514-.45514.42236-.20288.62451l.99261.79541c.17151.1377.24506.36377.18707.57568l-.33539,1.22705c-.08527.31201.26086.56348.53113.38574l.82806-.54346c.16022-.10547.34625-.16113.5379-.16113.19171,0,.37775.05566.53796.16113l.828.54346c.27032.17773.61639-.07373.53113-.38574l-.33539-1.22705c-.05798-.21191.01556-.43799.18707-.57568l.99261-.79541c.25226-.20215.12006-.60938-.20288-.62451Z" fill="var(--iconPrimary, #222)"/>
</svg>