<?xml version="1.0" encoding="UTF-8"?>
<svg   xmlns="http://www.w3.org/2000/svg" width="20" height="20" viewBox="0 0 20 20">
  <path d="m14.75195,6.00098l-9.50586.00391c-2.20312,0-3.99609,1.79297-3.99609,3.99707,0,1.06836.41602,2.07227,1.17188,2.82715.75488.75488,1.75781,1.16992,2.8252,1.16992h.00195l9.50488-.00293c2.2041-.00098,3.99609-1.79492,3.99609-3.99805,0-2.2041-1.79395-3.99707-3.99805-3.99707Zm.00195,6.49512l-9.50488.00293h-.00195c-.66699,0-1.29395-.25977-1.76465-.73047-.47266-.47266-.73242-1.09961-.73242-1.7666,0-1.37695,1.12012-2.49707,2.49609-2.49707h.00391v2.99512c0,.41406.33594.75.75.75s.75-.33594.75-.75v-2.99573l2.5-.0011v1.99683c0,.41406.33594.75.75.75s.75-.33594.75-.75v-1.99731l2.5-.0011v2.99841c0,.41406.33594.75.75.75s.75-.33594.75-.75v-2.99902h.00195c1.37695,0,2.49805,1.12012,2.49805,2.49707s-1.12012,2.49707-2.49609,2.49805Z" fill="var(--iconPrimary, #222)" stroke-width="0"/>
</svg>