<?xml version="1.0" encoding="UTF-8"?>
<svg id="f" data-name="ICONS" xmlns="http://www.w3.org/2000/svg" width="20" height="20" viewBox="0 0 20 20">
  <path d="M8.00098,18.46582c-.0625,0-.12598-.00781-.18848-.02344-3.06738-.79395-5.46484-3.19043-6.25879-6.25488-.10352-.40039.1377-.80957.53906-.91406.39258-.10156.80957.13672.91406.53906.65625,2.53613,2.6416,4.52051,5.18066,5.17676.40137.10449.64258.51367.53906.91406-.08789.33789-.39258.5625-.72559.5625Z" fill="var(--iconPrimary, #222)"/>
  <path d="M2.28125,8.71582c-.0625,0-.12598-.00781-.18848-.02344-.40137-.10449-.64258-.51367-.53906-.91406.79297-3.06445,3.19141-5.46094,6.25879-6.25488.39258-.10059.80957.1377.91406.53906.10352.40039-.1377.80957-.53906.91406-2.53906.65625-4.52441,2.64062-5.18066,5.17676-.08789.33789-.39258.5625-.72559.5625Z" fill="var(--iconPrimary, #222)"/>
  <path d="M17.74902,8.71582c-.33301,0-.6377-.22363-.72559-.5625-.65625-2.53613-2.6416-4.52051-5.18066-5.17676-.40137-.10449-.64258-.51367-.53906-.91406.10352-.40137.51758-.63867.91406-.53906,3.06738.79395,5.46582,3.19043,6.25879,6.25488.10352.40039-.1377.80957-.53906.91406-.0625.01562-.12598.02344-.18848.02344Z" fill="var(--iconPrimary, #222)"/>
  <path d="M8.3457,12.5625c-.18066,0-.36133-.06445-.50586-.19629-.67285-.61426-1.05957-1.48926-1.05957-2.40039,0-1.79199,1.45801-3.25,3.25-3.25.69922,0,1.36523.21875,1.92578.63184.33398.24512.40527.71484.15918,1.04785-.24414.33398-.71387.40527-1.04785.15918-.30176-.22168-.66016-.33887-1.03711-.33887-.96484,0-1.75.78516-1.75,1.75,0,.49023.20801.96191.57129,1.29297.30566.27832.32715.75293.04785,1.05957-.14746.16211-.35059.24414-.55371.24414Z" fill="var(--iconPrimary, #222)"/>
  <circle cx="14.275" cy="14.68005" r="1.11096" fill="var(--iconPrimary, #222)"/>
  <path d="M16.08008,19.74805c-.43652,0-.86523-.20801-1.12598-.58789l-.3916-.56934c-.09961.00781-.19336.00781-.30469.01172-.10254-.00098-.2041-.00586-.30469-.01465l-.39746.56641c-.40234.57422-1.19336.74805-1.79785.39453l-.48047-.28027c-.60742-.35352-.8457-1.12793-.54199-1.76074l.29785-.62402c-.11426-.16797-.21484-.34473-.30176-.52832l-.69043-.06055c-.69922-.06152-1.24512-.65918-1.24121-1.36133l.00293-.55664c.00195-.7002.55176-1.29297,1.25195-1.34863l.69141-.05469c.08887-.18359.19043-.35938.30566-.52539l-.29199-.62793c-.2959-.63672-.05078-1.40723.55859-1.75488l.48145-.27539c.62012-.35449,1.3916-.17773,1.7959.40918l.3916.57031c.10059-.00781.17676-.02539.30566-.01172.10254.00098.2041.00586.30469.01367l.39648-.56543c.40137-.57715,1.19336-.74805,1.79785-.39453l.48047.28027c.60742.35352.8457,1.12695.54199,1.75977l-.29688.625c.11426.16895.21484.34473.30078.52832l.69043.06055c.69922.06152,1.24512.65918,1.24121,1.36035l-.00293.55664c-.00195.7002-.55176,1.29395-1.25195,1.34961l-.69141.05469c-.08887.18262-.19043.3584-.30566.52539l.29199.62793c.2959.63672.05078,1.40723-.55859,1.75488l-.48145.27539c-.20996.12012-.44141.17773-.66992.17773ZM14.86133,17.29785c.20312,0,.39648.09961.51465.27051l.6084.88379c.0332.04785.09473.06152.14551.0332l.48145-.27539c.05078-.0293.07031-.09082.0459-.14258l-.45312-.97266c-.10449-.22266-.06738-.48633.09375-.67285.21289-.24609.37793-.52832.48828-.83984.08301-.23145.29492-.39258.54004-.41211l1.07031-.08398c.05664-.00488.10059-.05078.10059-.1084l.00293-.55762c0-.05664-.04395-.10352-.10059-.1084l-1.06934-.09375c-.24512-.02148-.45508-.18555-.53613-.41797-.10645-.30957-.26953-.59375-.48145-.8457-.1582-.1875-.19238-.4502-.08691-.67188l.46094-.96875c.02539-.05273.00586-.1123-.04297-.1416l-.48047-.28027c-.0498-.0293-.1123-.01465-.14453.03027l-.61621.87891c-.13965.20117-.38965.30566-.625.25586-.16016-.0293-.32324-.04785-.49023-.04883h-.01074c-.16406,0-.32227.0166-.47754.04492-.23633.04297-.48633-.05859-.625-.26074l-.60742-.88379c-.03223-.04785-.09473-.06055-.14648-.0332l-.48145.27539c-.05078.0293-.07031.09082-.0459.14258l.45312.97168c.10449.22266.06738.48633-.09375.67285-.21289.24512-.37695.52832-.48926.83984-.08301.23145-.29297.39258-.53809.41211l-1.07031.08496c-.05664.00488-.10156.05176-.10156.10742l-.00293.55762c0,.05762.04297.10449.10059.10938l1.06934.09375c.24512.02148.4541.18457.53516.41699.10938.31152.27148.59668.48242.8457.15918.18848.19336.45117.08789.67383l-.46191.96777c-.02539.05078-.00586.11328.04297.1416l.48047.28027c.0498.02734.1123.0166.14551-.03125l.61621-.87891c.14062-.20117.38867-.2959.62891-.25586.15723.03027.31934.04883.48633.0498h0c.21777-.00684.3291-.01562.4873-.04492.03613-.00684.07324-.00977.11035-.00977Z" fill="var(--iconPrimary, #222)"/>
</svg>