<?xml version="1.0" encoding="UTF-8"?>
<svg xmlns="http://www.w3.org/2000/svg" width="28.00005" height="28" viewBox="0 0 28.00005 28">
  <g id="circles">
    <circle id="Ellipse_10213" data-name="Ellipse 10213" cx="14.00002" cy="14" r="14.00001" fill="#e434a3"/>
  </g>
  <g id="ICONS">
    <rect id="S2_Icon_JourneyOptimizerB2B_20_N" x="5" y="5" width="18" height="18" transform="translate(28 0) rotate(90)" fill="none" opacity=".1"/>
    <path d="M12.20044,21.61924c-.05581,0-.11294-.00703-.16963-.02109-2.76021-.71455-4.91836-2.87139-5.63203-5.62939-.0936-.36035.12349-.72861.48428-.82266.36167-.08877.72905.12393.82266.48516.59106,2.28252,2.37788,4.06846,4.66348,4.65908.36079.09404.57788.4623.48428.82266-.07866.3041-.35288.50625-.65303.50625Z" fill="#fff"/>
    <path d="M15.82681,21.61924c-.30015,0-.57437-.20215-.65303-.50625-.0936-.36035.12349-.72861.48428-.82266,2.2856-.59063,4.07241-2.37656,4.66348-4.65908.0936-.36123.46099-.57393.82266-.48516.36079.09404.57788.4623.48428.82266-.71367,2.75801-2.87183,4.91484-5.63203,5.62939-.05669.01406-.11382.02109-.16963.02109Z" fill="#fff"/>
    <path d="M7.05269,12.84424c-.05581,0-.11294-.00703-.16963-.02109-.36079-.09404-.57788-.4623-.48428-.82266.71367-2.75801,2.87139-4.91484,5.63203-5.62939.36299-.08613.72949.1248.82266.48516.0936.36035-.12349.72861-.48428.82266-2.28604.59063-4.07285,2.37656-4.66348,4.65908-.07866.3041-.35288.50625-.65303.50625Z" fill="#fff"/>
    <path d="M20.97456,12.84424c-.30015,0-.57437-.20127-.65303-.50625-.59063-2.28252-2.37744-4.06846-4.66348-4.65908-.36079-.09404-.57788-.4623-.48428-.82266.09316-.36035.46274-.57129.82266-.48516,2.76064.71455,4.91836,2.87139,5.63203,5.62939.0936.36035-.12349.72861-.48428.82266-.05669.01406-.11382.02109-.16963.02109Z" fill="#fff"/>
    <path d="M14.02725,16.89424c-1.61279,0-2.925-1.31221-2.925-2.925s1.31221-2.925,2.925-2.925,2.925,1.31221,2.925,2.925-1.31221,2.925-2.925,2.925ZM14.02725,12.39424c-.86836,0-1.575.70664-1.575,1.575s.70664,1.575,1.575,1.575,1.575-.70664,1.575-1.575-.70664-1.575-1.575-1.575Z" fill="#fff"/>
  </g>
</svg>