<?xml version="1.0" encoding="UTF-8"?>
<svg xmlns="http://www.w3.org/2000/svg" width="28.00005" height="28" viewBox="0 0 28.00005 28">
  <g id="circles">
    <circle id="Ellipse_10213" data-name="Ellipse 10213" cx="14.00002" cy="14" r="14.00001" fill="#7155fa"/>
  </g>
  <g id="ICONS">
    <path id="S2_Icon_CampaignGear_20_N" d="M5,5v18h18V5H5Z" fill="none" opacity=".1"/>
    <path d="M12.20088,21.61924c-.05625,0-.11338-.00703-.16963-.02109-2.76064-.71455-4.91836-2.87139-5.63291-5.62939-.09316-.36035.12393-.72861.48516-.82266.35332-.09141.72861.12305.82266.48516.59063,2.28252,2.37744,4.06846,4.6626,4.65908.36123.09404.57832.4623.48516.82266-.0791.3041-.35332.50625-.65303.50625Z" fill="#fff"/>
    <path d="M7.05312,12.84424c-.05625,0-.11338-.00703-.16963-.02109-.36123-.09404-.57832-.4623-.48516-.82266.71367-2.75801,2.87227-4.91484,5.63291-5.62939.35332-.09053.72861.12393.82266.48516.09316.36035-.12393.72861-.48516.82266-2.28516.59063-4.07197,2.37656-4.6626,4.65908-.0791.3041-.35332.50625-.65303.50625Z" fill="#fff"/>
    <path d="M20.97412,12.84424c-.29971,0-.57393-.20127-.65303-.50625-.59063-2.28252-2.37744-4.06846-4.6626-4.65908-.36123-.09404-.57832-.4623-.48516-.82266.09316-.36123.46582-.5748.82266-.48516,2.76064.71455,4.91924,2.87139,5.63291,5.62939.09316.36035-.12393.72861-.48516.82266-.05625.01406-.11338.02109-.16963.02109Z" fill="#fff"/>
    <path d="M12.51113,16.30625c-.1626,0-.3252-.05801-.45527-.17666-.60557-.55283-.95361-1.34033-.95361-2.16035,0-1.61279,1.31221-2.925,2.925-2.925.6293,0,1.22871.19687,1.7332.56865.30059.22061.36475.64336.14326.94307-.21973.30059-.64248.36475-.94307.14326-.27158-.19951-.59414-.30498-.9334-.30498-.86836,0-1.575.70664-1.575,1.575,0,.44121.18721.86572.51416,1.16367.2751.25049.29443.67764.04307.95361-.13271.1459-.31553.21973-.49834.21973Z" fill="#fff"/>
    <circle cx="17.8475" cy="18.21204" r=".99986" fill="#fff"/>
    <path d="M19.47207,22.77324c-.39287,0-.77871-.18721-1.01338-.5291l-.35244-.5124c-.08965.00703-.17402.00703-.27422.01055-.09229-.00088-.18369-.00527-.27422-.01318l-.35771.50977c-.36211.5168-1.07402.67324-1.61807.35508l-.43242-.25225c-.54668-.31816-.76113-1.01514-.48779-1.58467l.26807-.56162c-.10283-.15117-.19336-.31025-.27158-.47549l-.62139-.05449c-.6293-.05537-1.12061-.59326-1.11709-1.2252l.00264-.50098c.00176-.63018.49658-1.16367,1.12676-1.21377l.62227-.04922c.07998-.16523.17139-.32344.2751-.47285l-.26279-.56514c-.26631-.57305-.0457-1.2665.50273-1.57939l.4333-.24785c.55811-.31904,1.25244-.15996,1.61631.36826l.35244.51328c.09053-.00703.15908-.02285.2751-.01055.09229.00088.18369.00527.27422.0123l.35684-.50889c.36123-.51943,1.07402-.67324,1.61807-.35508l.43242.25225c.54668.31816.76113,1.01426.48779,1.58379l-.26719.5625c.10283.15205.19336.31025.2707.47549l.62139.05449c.6293.05537,1.12061.59326,1.11709,1.22432l-.00264.50098c-.00176.63018-.49658,1.16455-1.12676,1.21465l-.62227.04922c-.07998.16436-.17139.32256-.2751.47285l.26279.56514c.26631.57305.0457,1.2665-.50273,1.57939l-.4333.24785c-.18896.10811-.39727.15996-.60293.15996ZM18.3752,20.56807c.18281,0,.35684.08965.46318.24346l.54756.79541c.02988.04307.08525.05537.13096.02988l.4333-.24785c.0457-.02637.06328-.08174.04131-.12832l-.40781-.87539c-.09404-.20039-.06064-.4377.08438-.60557.1916-.22148.34014-.47549.43945-.75586.07471-.2083.26543-.35332.48604-.3709l.96328-.07559c.05098-.00439.09053-.0457.09053-.09756l.00264-.50186c0-.05098-.03955-.09316-.09053-.09756l-.9624-.08437c-.22061-.01934-.40957-.16699-.48252-.37617-.0958-.27861-.24258-.53437-.4333-.76113-.14238-.16875-.17314-.40518-.07822-.60469l.41484-.87188c.02285-.04746.00527-.10107-.03867-.12744l-.43242-.25225c-.04482-.02637-.10107-.01318-.13008.02725l-.55459.79102c-.12568.18105-.35068.2751-.5625.23027-.14414-.02637-.29092-.04307-.44121-.04395h-.00967c-.14766,0-.29004.01494-.42979.04043-.2127.03867-.4377-.05273-.5625-.23467l-.54668-.79541c-.029-.04307-.08525-.05449-.13184-.02988l-.4333.24785c-.0457.02637-.06328.08174-.04131.12832l.40781.87451c.09404.20039.06064.4377-.08438.60557-.1916.22061-.33926.47549-.44033.75586-.07471.2083-.26367.35332-.48428.3709l-.96328.07646c-.05098.00439-.09141.04658-.09141.09668l-.00264.50186c0,.05186.03867.09404.09053.09844l.9624.08437c.22061.01934.40869.16611.48164.37529.09844.28037.24434.53701.43418.76113.14326.16963.17402.40605.0791.60645l-.41572.871c-.02285.0457-.00527.10195.03867.12744l.43242.25225c.04482.02461.10107.01494.13096-.02813l.55459-.79102c.12656-.18105.3498-.26631.56602-.23027.1415.02725.2874.04395.4377.04482h0c.196-.00615.29619-.01406.43857-.04043.03252-.00615.06592-.00879.09932-.00879Z" fill="#fff"/>
  </g>
</svg>