<?xml version="1.0" encoding="UTF-8"?>
<svg id="g" data-name="ICONS" xmlns="http://www.w3.org/2000/svg" width="20" height="20" viewBox="0 0 20 20">
  <path d="M16.75002,3H3.25002c-1.24023,0-2.25,1.00928-2.25,2.25v9.5c0,1.24072,1.00977,2.25,2.25,2.25h13.5c1.24023,0,2.25-1.00928,2.25-2.25V5.25c0-1.24072-1.00977-2.25-2.25-2.25ZM17.50002,6.1167v3.86475l-5.51855,5.51855h-3.86475l9.3833-9.3833ZM2.50002,13.47363v-3.4126l5.56055-5.56104h3.41309L2.50002,13.47363ZM3.25002,4.5h2.68958l-3.43958,3.43982v-2.68982c0-.41357.33691-.75.75-.75ZM2.77663,15.31818L13.59475,4.5h3.15527c.07239,0,.13794.02209.20422.04138L5.99562,15.5h-2.74561c-.18213,0-.34326-.0733-.47339-.18182ZM16.75002,15.5h-2.64746l3.39746-3.39746v2.64746c0,.41357-.33691.75-.75.75Z" fill="var(--iconPrimary, #222)"/>
</svg>