<?xml version="1.0" encoding="UTF-8"?>
<svg xmlns="http://www.w3.org/2000/svg" width="20" height="20" viewBox="0 0 20 20">
  <path d="m6.06641,18.74512c-1.27246,0-2.46582-.49219-3.35938-1.38672-.95996-.95898-1.45215-2.15234-1.45215-3.4248,0-1.27148.49219-2.46484,1.38672-3.3584l7.93359-7.93359c.89355-.89453,2.08691-1.38672,3.3584-1.38672,1.27246,0,2.46582.49219,3.35938,1.38672.95996.95898,1.45215,2.15234,1.45215,3.4248,0,1.27148-.49219,2.46484-1.38672,3.3584l-7.93359,7.93359c-.89355.89453-2.08691,1.38672-3.3584,1.38672ZM13.91016,2.75977c-.8291,0-1.64844.31641-2.27441.94238l-7.93359,7.93359c-1.26758,1.26758-1.26758,3.3291,0,4.59668,1.33203,1.33203,3.39355,1.33398,4.66211.06543l7.93359-7.93359c1.26758-1.26758,1.26758-3.3291,0-4.59668-.6748-.6748-1.53613-1.00781-2.3877-1.00781Z" fill="var(--iconPrimary, #222)" stroke-width="0"/>
  <path d="m5.8418,15.70508c-.32617,0-.64941-.07129-.96387-.2168-.37598-.17383-.54004-.61914-.36621-.99512.17285-.37598.62109-.53906.99512-.36621.4082.1875.88184.01562,1.41016-.51367l5.21094-5.21094c.29297-.29297.76758-.29297,1.06055,0s.29297.76758,0,1.06055l-5.21094,5.21094c-.68164.68164-1.41602,1.03125-2.13574,1.03125Z" fill="var(--iconPrimary, #222)" stroke-width="0"/>
</svg>