<?xml version="1.0" encoding="UTF-8"?>
<svg   xmlns="http://www.w3.org/2000/svg" width="20" height="20" viewBox="0 0 20 20">
  <circle cx="5.75" cy="11.25" r="1.25" fill="var(--iconPrimary, #222)"/>
  <circle cx="14.25" cy="11.25" r="1.25" fill="var(--iconPrimary, #222)"/>
  <path d="M18,11c0-1.23157-.6048-2.31702-1.5246-3.00122-.00061-.00244.00031-.005-.00031-.00757l-.93506-3.8877c-.2876-.95898-1.15381-1.60352-2.15479-1.60352h-6.76807c-1.00195,0-1.86768.64453-2.16553,1.64453l-.92596,3.85339c-.92041.68396-1.5257,1.77002-1.5257,3.00208v2c0,.53003.19202,1.01147.5,1.39648v1.85352c0,.96484.78516,1.75,1.75,1.75h1c.96484,0,1.75-.78516,1.75-1.75v-1h6v1c0,.96484.78516,1.75,1.75,1.75h1c.96484,0,1.75-.78516,1.75-1.75v-1.85352c.30798-.38501.5-.86646.5-1.39648v-2ZM5.89941,4.53418c.09521-.31934.38379-.53418.71777-.53418h6.76807c.3335,0,.62207.21484.70752.49414l.6748,2.80823c-.17078-.02393-.34033-.05237-.51758-.05237H5.75c-.17645,0-.34521.02844-.51526.05212l.66467-2.76794ZM3.5,11c0-1.24023,1.00928-2.25,2.25-2.25h8.5c1.24072,0,2.25,1.00977,2.25,2.25v2c0,.41309-.33643.75-.75.75H4.25c-.41357,0-.75-.33691-.75-.75v-2ZM5.5,16.25c0,.1377-.1123.25-.25.25h-1c-.1377,0-.25-.1123-.25-.25v-1.02539c.08313.0094.16437.02539.25.02539h1.25v1ZM15.75,16.5h-1c-.1377,0-.25-.1123-.25-.25v-1h1.25c.08563,0,.16687-.01599.25-.02539v1.02539c0,.1377-.1123.25-.25.25Z" fill="var(--iconPrimary, #222)"/>
</svg>