<?xml version="1.0" encoding="UTF-8"?>
<svg id="e" data-name="ICONS" xmlns="http://www.w3.org/2000/svg" width="20" height="20" viewBox="0 0 20 20">
  <path d="M14.75098,1H5.25098c-1.24023,0-2.25,1.00977-2.25,2.25v12.5c0,1.24023,1.00879,2.25,2.24902,2.25h9.50098c1.24023,0,2.25-1.00977,2.25-2.25V3.25c0-1.24023-1.00977-2.25-2.25-2.25ZM15.50098,15.75c0,.41309-.33691.75-.75.75h-6.54004c1.14673-1.13965,2.12866-1.64722,2.71875-1.34668.37598.1875.82129.03516,1.00684-.33496.18555-.37109.03516-.82129-.33496-1.00684-.9375-.4707-2.01367-.28223-3.21484.5625l.53906-1.63965c.12891-.39355-.08496-.81738-.47852-.94727-.39648-.13086-.81738.08594-.94727.47852l-1.39124,4.23438h-.85876c-.41309,0-.74902-.33691-.74902-.75V3.25c0-.41309.33691-.75.75-.75h9.5c.41309,0,.75.33691.75.75v12.5Z" fill="var(--iconPrimary, #222)"/>
  <path d="M10.37219,5.23193l.2229.2373c.28406.30249.67993.47314,1.09326.47314.01709,0,.03418-.00024.05127-.00098l.3252-.01099-.01038.32568c-.01367.43213.15979.84937.47595,1.14429l.23767.22192-.2373.22266c-.31494.2959-.48706.71289-.47229,1.14478l.01111.3252-.32556-.0105c-.01599-.00049-.03186-.00073-.04773-.00073-.41516,0-.8125.17212-1.09668.47656l-.22156.23755-.22229-.2373c-.28418-.30298-.68042-.47388-1.09424-.47388-.01758,0-.03528.00024-.05298.00098l-.32336.01172.01038-.32544c.01367-.43213-.15979-.84937-.47595-1.14429l-.2373-.22144.23706-.22241c.31592-.29614.48828-.71436.47302-1.14722l-.01135-.32324.32495.01025c.01599.00049.03186.00073.04773.00073.41516,0,.8125-.17212,1.09668-.47656l.2218-.23779h0ZM12.69604,5.90576h.005-.005ZM10.37109,3.5h-.00195c-.27637,0-.54102.11523-.72949.31836l-.58594.62793-.85938-.02734c-.02771-.00317-.05542-.00464-.08301-.00464-.24536,0-.48169.12109-.65723.29761-.19531.19629-.30078.46484-.29102.74219l.03027.85742-.62695.58789c-.20215.18945-.31641.4541-.31641.73047,0,.27734.11523.54199.31836.73047l.62793.58594-.02734.85938c-.00977.27637.09668.54492.29297.74023.17981.18066.40344.29346.67188.29346.02307,0,.04651-.00073.07031-.00244l.85742-.03027.58789.62695c.18848.20215.45312.31641.72949.31641h.00098c.27734,0,.54199-.11523.73047-.31836l.58594-.62793.85938.02734c.01453.00073.02917.00122.04382.00122.25049,0,.51099-.10962.69641-.29419.19531-.19629.30078-.46387.29102-.74121l-.0293-.8584.62598-.58789c.20215-.18945.31641-.4541.31641-.73145,0-.27637-.11523-.54102-.31836-.72949l-.62793-.58594.02734-.85938c.00977-.27637-.09668-.54492-.29297-.74023-.17834-.17822-.42676-.29468-.66846-.29468-.02441,0-.04858.00122-.07275.00366l-.8584.0293-.58789-.62598c-.18945-.20215-.45312-.31641-.72949-.31641h0Z" fill="var(--iconPrimary, #222)"/>
</svg>