<?xml version="1.0" encoding="UTF-8"?>
<svg   xmlns="http://www.w3.org/2000/svg" width="20" height="20" viewBox="0 0 20 20">
  <path d="M10,18.75004c-4.82471,0-8.75-3.9248-8.75-8.75S5.17529,1.25004,10,1.25004s8.75,3.9248,8.75,8.75-3.92529,8.75-8.75,8.75ZM10,2.75004c-3.99756,0-7.25,3.25195-7.25,7.25s3.25244,7.25,7.25,7.25,7.25-3.25195,7.25-7.25-3.25244-7.25-7.25-7.25Z" fill="var(--iconPrimary, #222)"/>
  <path d="M14.44336,10.43754l-2.60303-4.50879c-.38428-.66504-1.07227-1.0625-1.84033-1.0625s-1.45605.39746-1.84033,1.0625l-2.60254,4.50879c-.38428.66504-.38477,1.45996-.00049,2.125.38379.66504,1.07178,1.0625,1.84033,1.0625h5.20605c.76855,0,1.45654-.39746,1.84033-1.0625.38428-.66504.38379-1.45996,0-2.125ZM9.9248,11.97953c-.04102.07129-.16357.23633-.41016.23633h-2.42822c-.24707,0-.36914-.16602-.41064-.2373-.04102-.07031-.12305-.25879.00049-.47266l1.21436-2.10352c.12305-.21387.32764-.23633.40967-.23633.08252,0,.28711.02246.41016.23633l1.21387,2.10352c.12354.21387.0415.40234.00049.47363ZM13.36084,11.93754c-.1582.27441-.44141.4375-.75781.4375h-1.50024c.19574-.48755.17365-1.02759-.09546-1.49414l-1.21387-2.10352c-.28699-.49683-.7854-.7959-1.34814-.84253l.79736-1.3811c.15771-.27441.44092-.4375.75732-.4375s.59961.16309.75732.4375l2.60352,4.50879c.1582.27441.1582.60059,0,.875Z" fill="var(--iconPrimary, #222)"/>
  <path d="M12.60303,12.37504c.31641,0,.59961-.16309.75781-.4375s.1582-.60059,0-.875l-2.60352-4.50879c-.15771-.27441-.44092-.4375-.75732-.4375s-.59961.16309-.75732.4375l-.79736,1.3811c.56274.04663,1.06116.3457,1.34814.84253l1.21387,2.10352c.2691.46655.2912,1.00659.09546,1.49414h1.50024Z" fill="var(--iconPrimary, #222)" opacity=".5"/>
</svg>