<?xml version="1.0" encoding="UTF-8"?>
<svg id="e" data-name="ICONS" xmlns="http://www.w3.org/2000/svg" width="20" height="20" viewBox="0 0 20 20">
  <path d="M19.03027,17.96973l-1.97333-1.97375c.43658-.64075.69305-1.4137.69305-2.24597,0-2.20605-1.79443-4-4-4s-4,1.79395-4,4,1.79443,4,4,4c.83246,0,1.60547-.25659,2.2464-.69348l1.97333,1.97375c.14648.14648.33838.21973.53027.21973s.38379-.07324.53027-.21973c.29297-.29297.29297-.76758,0-1.06055ZM11.25,13.75c0-1.37891,1.12158-2.5,2.5-2.5s2.5,1.12109,2.5,2.5-1.12158,2.5-2.5,2.5-2.5-1.12109-2.5-2.5Z" fill="var(--iconPrimary, #222)"/>
  <path d="M8.57129,16.5h-4.32129c-.41357,0-.75-.33691-.75-.75V3.24219c0-.41309.33643-.75.75-.75h5.75v5.10693c0,.35645.43085.53491.68286.28296l1.0343-1.03442c.15619-.15613.40948-.15613.56567,0l1.0343,1.03442c.25201.25195.68286.07349.68286-.28296V2.49219h1.75c.41357,0,.75.33691.75.75v5.32227c0,.41406.33594.75.75.75s.75-.33594.75-.75V3.24219c0-1.24023-1.00928-2.25-2.25-2.25H4.25c-1.24072,0-2.25,1.00977-2.25,2.25v12.50781c0,1.24023,1.00928,2.25,2.25,2.25h4.32129c.41406,0,.75-.33594.75-.75s-.33594-.75-.75-.75Z" fill="var(--iconPrimary, #222)"/>
</svg>