<?xml version="1.0" encoding="UTF-8"?>
<svg id="e" data-name="ICONS" xmlns="http://www.w3.org/2000/svg" width="20" height="20" viewBox="0 0 20 20">
  <path d="M15.75,1H4.25c-1.24072,0-2.25,1.00977-2.25,2.25v9.5c0,.41406.33594.75.75.75s.75-.33594.75-.75V3.25c0-.41309.33643-.75.75-.75h5.75v5.09912c0,.35645.43085.53491.68286.28296l1.0343-1.03442c.15619-.15613.40948-.15613.56567,0l1.0343,1.03442c.25201.25195.68286.07349.68286-.28296V2.5h1.75c.41357,0,.75.33691.75.75v12.50781c0,.40918-.33643.74219-.75.74219h-4.90088c-.41406,0-.75.33594-.75.75s.33594.75.75.75h4.90088c1.24072,0,2.25-1.00586,2.25-2.24219V3.25c0-1.24023-1.00928-2.25-2.25-2.25Z" fill="var(--iconPrimary, #222)"/>
  <path d="M6.78027,13.21973c-.29297-.29297-.76758-.29297-1.06055,0s-.29297.76758,0,1.06055l.71973.71973H1.25c-.41406,0-.75.33594-.75.75s.33594.75.75.75h5.18945l-.71973.71973c-.29297.29297-.29297.76758,0,1.06055.14648.14648.33838.21973.53027.21973s.38379-.07324.53027-.21973l2-2c.29297-.29297.29297-.76758,0-1.06055l-2-2Z" fill="var(--iconPrimary, #222)"/>
</svg>