<?xml version="1.0" encoding="UTF-8"?>
<svg id="e" data-name="ICONS" xmlns="http://www.w3.org/2000/svg" width="20" height="20" viewBox="0 0 20 20">
  <circle cx="14.75" cy="15" r="4.5" fill="var(--iconPrimary, #222)"/>
  <path d="M17.25,14.375h-1.875v-1.875c0-.34473-.27979-.625-.625-.625s-.625.28027-.625.625v1.875h-1.875c-.34521,0-.625.28027-.625.625s.27979.625.625.625h1.875v1.875c0,.34473.27979.625.625.625s.625-.28027.625-.625v-1.875h1.875c.34521,0,.625-.28027.625-.625s-.27979-.625-.625-.625Z" fill="#fff"/>
  <path d="M15.75.99219H4.25c-1.24072,0-2.25,1.00977-2.25,2.25v12.50781c0,1.24023,1.00928,2.25,2.25,2.25h4.14355c.41406,0,.75-.33594.75-.75s-.33594-.75-.75-.75h-4.14355c-.41357,0-.75-.33691-.75-.75V3.24219c0-.41309.33643-.75.75-.75h5.75v5.10693c0,.35645.43085.53491.68286.28296l1.0343-1.03442c.15619-.15613.40948-.15613.56567,0l1.0343,1.03442c.25201.25195.68286.07349.68286-.28296V2.49219h1.75c.41357,0,.75.33691.75.75v5.49316c0,.41406.33594.75.75.75s.75-.33594.75-.75V3.24219c0-1.24023-1.00928-2.25-2.25-2.25Z" fill="var(--iconPrimary, #222)"/>
</svg>