<?xml version="1.0" encoding="UTF-8"?>
<svg id="e" data-name="ICONS" xmlns="http://www.w3.org/2000/svg" width="20" height="20" viewBox="0 0 20 20">
  <path d="M4.25,9.50001h-.5c-1.24023,0-2.25-1.00977-2.25-2.25v-3c0-1.24023,1.00977-2.25,2.25-2.25h.5c1.24023,0,2.25,1.00977,2.25,2.25v3c0,1.24023-1.00977,2.25-2.25,2.25ZM3.75,3.50001c-.41309,0-.75.33691-.75.75v3c0,.41309.33691.75.75.75h.5c.41309,0,.75-.33691.75-.75v-3c0-.41309-.33691-.75-.75-.75h-.5Z" fill="var(--iconPrimary, #222)"/>
  <path d="M10.25,9.50001h-.5c-1.24023,0-2.25-1.00977-2.25-2.25v-3c0-1.24023,1.00977-2.25,2.25-2.25h.5c1.24023,0,2.25,1.00977,2.25,2.25v3c0,1.24023-1.00977,2.25-2.25,2.25ZM9.75,3.50001c-.41309,0-.75.33691-.75.75v3c0,.41309.33691.75.75.75h.5c.41309,0,.75-.33691.75-.75v-3c0-.41309-.33691-.75-.75-.75h-.5Z" fill="var(--iconPrimary, #222)"/>
  <path d="M16.25,9.50001h-.5c-1.24023,0-2.25-1.00977-2.25-2.25v-3c0-1.24023,1.00977-2.25,2.25-2.25h.5c1.24023,0,2.25,1.00977,2.25,2.25v3c0,1.24023-1.00977,2.25-2.25,2.25ZM15.75,3.50001c-.41309,0-.75.33691-.75.75v3c0,.41309.33691.75.75.75h.5c.41309,0,.75-.33691.75-.75v-3c0-.41309-.33691-.75-.75-.75h-.5Z" fill="var(--iconPrimary, #222)"/>
  <path d="M4.25,18.00001h-.5c-1.24023,0-2.25-1.00977-2.25-2.25v-3c0-1.24023,1.00977-2.25,2.25-2.25h.5c1.24023,0,2.25,1.00977,2.25,2.25v3c0,1.24023-1.00977,2.25-2.25,2.25ZM3.75,12.00001c-.41309,0-.75.33691-.75.75v3c0,.41309.33691.75.75.75h.5c.41309,0,.75-.33691.75-.75v-3c0-.41309-.33691-.75-.75-.75h-.5Z" fill="var(--iconPrimary, #222)"/>
  <path d="M10.25,18.00001h-.5c-1.24023,0-2.25-1.00977-2.25-2.25v-3c0-1.24023,1.00977-2.25,2.25-2.25h.5c1.24023,0,2.25,1.00977,2.25,2.25v3c0,1.24023-1.00977,2.25-2.25,2.25ZM9.75,12.00001c-.41309,0-.75.33691-.75.75v3c0,.41309.33691.75.75.75h.5c.41309,0,.75-.33691.75-.75v-3c0-.41309-.33691-.75-.75-.75h-.5Z" fill="var(--iconPrimary, #222)"/>
  <path d="M16.25,18.00001h-.5c-1.24023,0-2.25-1.00977-2.25-2.25v-3c0-1.24023,1.00977-2.25,2.25-2.25h.5c1.24023,0,2.25,1.00977,2.25,2.25v3c0,1.24023-1.00977,2.25-2.25,2.25ZM15.75,12.00001c-.41309,0-.75.33691-.75.75v3c0,.41309.33691.75.75.75h.5c.41309,0,.75-.33691.75-.75v-3c0-.41309-.33691-.75-.75-.75h-.5Z" fill="var(--iconPrimary, #222)"/>
</svg>