<?xml version="1.0" encoding="UTF-8"?>
<svg id="e" data-name="ICONS" xmlns="http://www.w3.org/2000/svg" width="20" height="20" viewBox="0 0 20 20">
  <path d="M18.6416,16.93262l-2.44116-2.44214c.02466-.16113.04956-.32251.04956-.49048,0-1.79199-1.45801-3.25-3.25-3.25s-3.25,1.45801-3.25,3.25c0,.16748.0249.32812.04932.48877l-2.44287,2.44385c-.17871.17871-.23145.44727-.13477.68066s.32422.38574.57715.38574h1.2002v1.2002c0,.25293.15234.48047.38574.57715.07715.03223.1582.04785.23926.04785.16211,0,.32227-.06348.44141-.18262l2.44214-2.44141c.16187.0249.32397.0498.49243.0498.16797,0,.32935-.0249.49072-.04956l2.44189,2.44116c.11914.11914.2793.18262.44141.18262.08105,0,.16211-.01562.23926-.04785.2334-.09668.38574-.32422.38574-.57715v-1.2002h1.2002c.25293,0,.48047-.15234.57715-.38574s.04395-.50195-.13477-.68066ZM10.24902,17.69043v-.31641c0-.34473-.28027-.625-.625-.625h-.31641l.9751-.97559c.24609.37549.56616.69629.94141.94238l-.9751.97461ZM11.25,14c0-.96484.78516-1.75,1.75-1.75s1.75.78516,1.75,1.75-.78516,1.75-1.75,1.75-1.75-.78516-1.75-1.75ZM16.37402,16.74902c-.34473,0-.625.28027-.625.625v.31641l-.97437-.97388c.37549-.24609.6958-.56641.94189-.94189l.97388.97437h-.31641Z" fill="var(--iconPrimary, #222)"/>
  <path d="M5.06934,19h-.81934c-1.24023,0-2.25-1.00977-2.25-2.25V3.25c0-1.24023,1.00977-2.25,2.25-2.25h11.5c1.24023,0,2.25,1.00977,2.25,2.25v7.29004c0,.41406-.33594.75-.75.75s-.75-.33594-.75-.75V3.25c0-.41309-.33691-.75-.75-.75H4.25c-.41309,0-.75.33691-.75.75v13.5c0,.41309.33691.75.75.75h.81934c.41406,0,.75.33594.75.75s-.33594.75-.75.75Z" fill="var(--iconPrimary, #222)"/>
  <path d="M12,9h-4c-.41406,0-.75-.33594-.75-.75s.33594-.75.75-.75h4c.41406,0,.75.33594.75.75s-.33594.75-.75.75Z" fill="var(--iconPrimary, #222)"/>
  <path d="M13.25,6h-6.5c-.41406,0-.75-.33594-.75-.75s.33594-.75.75-.75h6.5c.41406,0,.75.33594.75.75s-.33594.75-.75.75Z" fill="var(--iconPrimary, #222)"/>
</svg>