<?xml version="1.0" encoding="UTF-8"?>
<svg   xmlns="http://www.w3.org/2000/svg" width="20" height="20" viewBox="0 0 20 20">
  <path d="M16.74219,17.92871c-.19727,0-.39551-.07812-.54297-.23242l-1.64062-1.71875c-.47949-.50195-1.32812-.54199-1.85156-.08301l-1.2666,1.10547c-1.12793.98633-2.8877.90625-3.92188-.18066l-1.36523-1.43164c-.82227-.79102-1.91797-1.04297-2.90234-.65332-.38672.15332-.82227-.03613-.97363-.4209-.15234-.38574.03613-.82129.4209-.97363,1.52832-.60742,3.25684-.22461,4.51855.99023l1.3877,1.4541c.47949.50488,1.3252.54395,1.84961.08594l1.2666-1.10645c1.12988-.98535,2.88965-.90527,3.92383.17871l1.64062,1.71875c.28516.2998.27441.77441-.02539,1.06055-.14453.13867-.33105.20703-.51758.20703Z" fill="var(--iconPrimary, #292929)" stroke-width="0"/>
  <path d="M16.77246,13.09863c-.0791,0-.16016-.0127-.24023-.03906l-1.47168-.49902c-.66309-.22266-2.0293-.17969-2.92285.09473l-.54492.16602c-1.20312.36914-3.0791.32227-4.26562-.10449l-.76465-.27539c-.76172-.21191-2.09961-.37793-3.42871-.16113-.40039.06836-.79395-.21094-.86035-.62012-.06641-.4082.21094-.79395.62012-.86035,1.32617-.21484,2.87109-.13672,4.125.21289l.81641.29199c.87793.31738,2.42871.35352,3.32031.08203l.54492-.16602c1.19824-.36719,2.88672-.40234,3.8418-.08105l1.4707.49805c.39258.13281.60254.55859.4707.95117-.10645.3125-.39844.50977-.71094.50977Z" fill="var(--iconPrimary, #292929)" stroke-width="0"/>
  <path d="M3.85938,9.81543c-.31934,0-.60742-.00977-.8457-.02246-.41309-.02148-.73047-.375-.70898-.78906.02246-.41309.38379-.75488.78906-.70898,1.46094.07617,2.76465-.06543,3.55859-.38965l.69727-.26562c1.16797-.44531,3.03711-.56641,4.25488-.27637l.56348.13477c1.01172.24121,2.34863.14746,2.91797-.08594l1.43262-.58691c.38184-.15625.82129.02734.97852.41016.15625.38379-.02734.82129-.41016.97852l-1.43164.58594c-.92773.38086-2.6123.4502-3.83594.15723l-.56348-.13477c-.91797-.2207-2.49219-.11621-3.37207.21875l-.68066.25977c-1.01758.41699-2.33594.51465-3.34375.51465Z" fill="var(--iconPrimary, #292929)" stroke-width="0"/>
  <path d="M4.21484,7.44238c-.42773,0-.86621-.05566-1.30664-.16797-.40137-.10254-.64355-.51074-.54102-.91211s.50977-.64062.91211-.54102c1.23926.31543,2.44434-.00488,3.2207-.86035l1.14258-1.35156c.96582-1.1416,2.71777-1.33301,3.90918-.42676l1.3623,1.04102c.55176.41992,1.39355.32617,1.83789-.20801l1.50488-1.80664c.26562-.31934.7373-.3623,1.05664-.0957.31738.26465.36133.73828.0957,1.05664l-1.50488,1.80664c-.95898,1.15137-2.70898,1.34668-3.90039.43945l-1.3623-1.04102c-.55273-.4209-1.40137-.32812-1.85449.20312l-1.15918,1.37109c-.88379.97559-2.10059,1.49316-3.41309,1.49316Z" fill="var(--iconPrimary, #292929)" stroke-width="0"/>
</svg>