<?xml version="1.0" encoding="UTF-8"?>
<svg   xmlns="http://www.w3.org/2000/svg" width="20" height="20" viewBox="0 0 20 20">
  <path d="M8.17188,7.75c.3291,0,.65137.13379.88379.36621l1.82812,1.82812c.51953.51953,1.20996.80566,1.94434.80566h1.0603c.31079.87085,1.1355,1.5,2.11157,1.5,1.24023,0,2.25-1.00977,2.25-2.25s-1.00977-2.25-2.25-2.25c-.97607,0-1.8009.62915-2.11157,1.5h-1.0603c-.3291,0-.65137-.13379-.88379-.36621l-1.82812-1.82812c-.51953-.51953-1.20996-.80566-1.94434-.80566h-1.67188v-1.5h7.38843c.31079.87085,1.1355,1.5,2.11157,1.5,1.24023,0,2.25-1.00977,2.25-2.25s-1.00977-2.25-2.25-2.25c-.97607,0-1.8009.62915-2.11157,1.5h-7.38843c-.07837,0-.1499.02222-.22095.04468-.36084-.76233-1.13159-1.29468-2.02905-1.29468-1.24023,0-2.25,1.00977-2.25,2.25v5.5c0,1.24023,1.00977,2.25,2.25,2.25.87891,0,1.63428-.51208,2.00427-1.24902h.51233c.47461,0,.90234.26465,1.11523.69141l1.89453,3.78711c.46875.93848,1.41113,1.52051,2.45996,1.52051h1.66541c.32227.84888,1.13806,1.45703,2.09827,1.45703,1.24023,0,2.25-1.00977,2.25-2.25s-1.00977-2.25-2.25-2.25c-.99182,0-1.82666.65002-2.125,1.54297h-1.63867c-.47656,0-.90527-.26465-1.11816-.69141l-1.89453-3.78711c-.46875-.93848-1.41016-1.52051-2.45605-1.52051h-.26758v-1.50098h1.67188ZM16,9.25c.41309,0,.75.33691.75.75s-.33691.75-.75.75-.75-.33691-.75-.75.33691-.75.75-.75ZM16,3.25c.41309,0,.75.33691.75.75s-.33691.75-.75.75-.75-.33691-.75-.75.33691-.75.75-.75ZM16,15.20703c.41309,0,.75.33691.75.75s-.33691.75-.75.75-.75-.33691-.75-.75.33691-.75.75-.75ZM4.25,10.5c-.41309,0-.75-.33691-.75-.75v-5.5c0-.41309.33691-.75.75-.75s.75.33691.75.75v5.5c0,.41309-.33691.75-.75.75Z" fill="var(--iconPrimary, #222)" stroke-width="0"/>
</svg>