<?xml version="1.0" encoding="UTF-8"?>
<svg   xmlns="http://www.w3.org/2000/svg" width="20" height="20" viewBox="0 0 20 20">
  <path d="M2.75,18c-.41406,0-.75-.33594-.75-.75V2.75c0-.41406.33594-.75.75-.75s.75.33594.75.75v14.5c0,.41406-.33594.75-.75.75Z" fill="var(--iconPrimary, #292929)" stroke-width="0"/>
  <path d="M6,9h6.25v-.00684h-6.28375c.0119.00049.02179.00684.03375.00684Z" fill="var(--iconPrimary, #292929)" opacity=".5" stroke-width="0"/>
  <path d="M5.75,7.49316h5.25v-2h-5.25c-.36847,0-.66101-.271-.72406-.62146-.00592.04382-.02594.08289-.02594.1283v3c0,.04309.01929.07983.0246.12146.06024-.35388.35449-.6283.7254-.6283Z" fill="var(--iconPrimary, #292929)" opacity=".5" stroke-width="0"/>
  <path d="M15.5,3.99316H5.75c-.41406,0-.75.33594-.75.75,0,.04565.01813.08521.02594.12854.06305.35046.35559.62146.72406.62146h5.25v2h-5.25c-.37091,0-.66516.27441-.7254.6283-.00702.04114-.0246.07849-.0246.1217,0,.41406.33594.75.75.75h9.75c1.37842,0,2.5-1.12109,2.5-2.5s-1.12158-2.5-2.5-2.5ZM15.5,7.49316h-3v-2h3c.55127,0,1,.44824,1,1s-.44873,1-1,1Z" fill="var(--iconPrimary, #292929)" stroke-width="0"/>
  <path d="M5.75,14.5h3.25v-2h-3.25c-.36969,0-.66302-.27271-.72473-.62488-.00562.04285-.02527.08069-.02527.12488v3c0,.04419.01965.08203.02527.12488.06171-.35217.35504-.62488.72473-.62488Z" fill="var(--iconPrimary, #292929)" opacity=".5" stroke-width="0"/>
  <path d="M11.5,11h-5.75c-.41406,0-.75.33594-.75.75,0,.04443.01788.08276.02527.12512.06171.35217.35504.62488.72473.62488h3.25v2h-3.25c-.36969,0-.66302.27271-.72473.62488-.00739.04236-.02527.08069-.02527.12512,0,.41406.33594.75.75.75h5.75c1.37842,0,2.5-1.12109,2.5-2.5s-1.12158-2.5-2.5-2.5ZM11.5,14.5h-1v-2h1c.55127,0,1,.44824,1,1s-.44873,1-1,1Z" fill="var(--iconPrimary, #292929)" stroke-width="0"/>
</svg>