<?xml version="1.0" encoding="UTF-8"?>
<svg   xmlns="http://www.w3.org/2000/svg" width="20" height="20" viewBox="0 0 20 20">
  <path d="M2.75,18c-.41406,0-.75-.33594-.75-.75V2.75c0-.41406.33594-.75.75-.75s.75.33594.75.75v14.5c0,.41406-.33594.75-.75.75Z" fill="var(--iconPrimary, #292929)" stroke-width="0"/>
  <path d="M10.25,14h-.75c-.41406,0-.75-.33594-.75-.75s.33594-.75.75-.75h.75c.41406,0,.75.33594.75.75s-.33594.75-.75.75Z" fill="var(--iconPrimary, #292929)" stroke-width="0"/>
  <path d="M8.5,17h-.25c-.41406,0-.75-.33594-.75-.75s.33594-.75.75-.75h.25c.41406,0,.75.33594.75.75s-.33594.75-.75.75Z" fill="var(--iconPrimary, #292929)" stroke-width="0"/>
  <path d="M12.75,11h-3.5c-.41406,0-.75-.33594-.75-.75s.33594-.75.75-.75h3.5c.41406,0,.75.33594.75.75s-.33594.75-.75.75Z" fill="var(--iconPrimary, #292929)" stroke-width="0"/>
  <path d="M15,8h-2.25c-.41406,0-.75-.33594-.75-.75s.33594-.75.75-.75h2.25c.41406,0,.75.33594.75.75s-.33594.75-.75.75Z" fill="var(--iconPrimary, #292929)" stroke-width="0"/>
  <path d="M17.25,5h-6c-.41406,0-.75-.33594-.75-.75s.33594-.75.75-.75h6c.41406,0,.75.33594.75.75s-.33594.75-.75.75Z" fill="var(--iconPrimary, #292929)" stroke-width="0"/>
  <path d="M8.75,5h-3c-.41406,0-.75-.33594-.75-.75s.33594-.75.75-.75h3c.41406,0,.75.33594.75.75s-.33594.75-.75.75Z" fill="var(--iconPrimary, #292929)" stroke-width="0"/>
  <path d="M10.25,8h-4.5c-.41406,0-.75-.33594-.75-.75s.33594-.75.75-.75h4.5c.41406,0,.75.33594.75.75s-.33594.75-.75.75Z" fill="var(--iconPrimary, #292929)" stroke-width="0"/>
  <path d="M6.75,11h-1c-.41406,0-.75-.33594-.75-.75s.33594-.75.75-.75h1c.41406,0,.75.33594.75.75s-.33594.75-.75.75Z" fill="var(--iconPrimary, #292929)" stroke-width="0"/>
  <path d="M7,14h-1.25c-.41406,0-.75-.33594-.75-.75s.33594-.75.75-.75h1.25c.41406,0,.75.33594.75.75s-.33594.75-.75.75Z" fill="var(--iconPrimary, #292929)" stroke-width="0"/>
  <path d="M5.75,17c-.18994,0-.39014-.08008-.53027-.21973-.14014-.14062-.21973-.33008-.21973-.53027,0-.10059.02002-.19043.06006-.29004.03955-.08984.08984-.16992.15967-.24023.28027-.28027.78027-.28027,1.06006,0,.06982.07031.12012.15039.16016.24023.04004.09961.06006.18945.06006.29004,0,.2002-.08008.38965-.22021.53027-.14014.13965-.33008.21973-.52979.21973Z" fill="var(--iconPrimary, #292929)" stroke-width="0"/>
</svg>