<?xml version="1.0" encoding="UTF-8"?>
<svg   xmlns="http://www.w3.org/2000/svg" width="20" height="20" viewBox="0 0 20 20">
  <path d="M2.75,18c-.41406,0-.75-.33594-.75-.75V2.75c0-.41406.33594-.75.75-.75s.75.33594.75.75v14.5c0,.41406-.33594.75-.75.75Z" fill="var(--iconPrimary, #292929)" stroke-width="0"/>
  <path d="M15.5,8.99316H5.75c-.41406,0-.75-.33594-.75-.75s.33594-.75.75-.75h9.75c.55127,0,1-.44824,1-1s-.44873-1-1-1H5.75c-.41406,0-.75-.33594-.75-.75s.33594-.75.75-.75h9.75c1.37842,0,2.5,1.12109,2.5,2.5s-1.12158,2.5-2.5,2.5Z" fill="var(--iconPrimary, #292929)" stroke-width="0"/>
  <path d="M11.5,16h-5.75c-.41406,0-.75-.33594-.75-.75s.33594-.75.75-.75h5.75c.55127,0,1-.44824,1-1s-.44873-1-1-1h-5.75c-.41406,0-.75-.33594-.75-.75s.33594-.75.75-.75h5.75c1.37842,0,2.5,1.12109,2.5,2.5s-1.12158,2.5-2.5,2.5Z" fill="var(--iconPrimary, #292929)" stroke-width="0"/>
</svg>