<?xml version="1.0" encoding="UTF-8"?>
<svg   xmlns="http://www.w3.org/2000/svg" width="20" height="20" viewBox="0 0 20 20">
  <path d="M12.75,3.75c-.98755,0-1.91882.23645-2.75.646-.83118-.40955-1.76245-.646-2.75-.646-3.44629,0-6.25,2.80371-6.25,6.25s2.80371,6.25,6.25,6.25c.98755,0,1.91882-.23645,2.75-.646.83118.40955,1.76245.646,2.75.646,3.44629,0,6.25-2.80371,6.25-6.25s-2.80371-6.25-6.25-6.25ZM7.25,14.75c-2.61914,0-4.75-2.13086-4.75-4.75s2.13086-4.75,4.75-4.75c.43311,0,.84473.07703,1.24377.18616-1.22327,1.1416-1.99377,2.76257-1.99377,4.56384s.77039,3.42224,1.99365,4.56384c-.39893.10901-.81055.18616-1.24365.18616ZM12,10c0,1.59229-.79407,2.99609-2,3.8584-1.20593-.8623-2-2.26611-2-3.8584s.79407-2.99609,2-3.8584c1.20593.8623,2,2.26611,2,3.8584ZM12.75,14.75c-.43311,0-.84473-.07703-1.24365-.18616,1.22327-1.1416,1.99365-2.76257,1.99365-4.56384s-.77051-3.42224-1.99377-4.56384c.39905-.10913.81067-.18616,1.24377-.18616,2.61914,0,4.75,2.13086,4.75,4.75s-2.13086,4.75-4.75,4.75Z" fill="var(--iconPrimary, #292929)" stroke-width="0"/>
</svg>