<?xml version="1.0" encoding="UTF-8"?>
<svg   xmlns="http://www.w3.org/2000/svg" width="20" height="20" viewBox="0 0 20 20">
  <path d="M14.99997,10.50195c-2.48529,0-4.5,2.01465-4.5,4.5s2.01471,4.5,4.5,4.5,4.5-2.01465,4.5-4.5-2.01471-4.5-4.5-4.5ZM17.49997,15.625h-1.875v1.875c0,.34473-.27979.625-.625.625s-.625-.28027-.625-.625v-1.875h-1.875c-.34521,0-.625-.28027-.625-.625s.27979-.625.625-.625h1.875v-1.875c0-.34473.27979-.625.625-.625s.625.28027.625.625v1.875h1.875c.34521,0,.625.28027.625.625s-.27979.625-.625.625Z" fill="var(--iconPrimary, #292929)" stroke-width="0"/>
  <path d="M10,1.25C5.17529,1.25,1.25,5.1748,1.25,10c0,2.36523.96326,4.53979,2.52893,6.13208.0141.01685.01978.03784.03552.05347.01233.01221.02881.01636.04175.02783,1.30798,1.29688,3.02191,2.19263,4.9519,2.45557.03418.00488.06836.00684.10205.00684.36914,0,.69092-.27246.74219-.64844.05566-.41113-.23145-.78906-.64209-.84473-1.35034-.18408-2.57404-.74146-3.57489-1.55737l2.49725-2.49731c.15161.10059.31104.19116.47852.26953.10303.04883.21143.07129.31787.07129.28174,0,.55225-.15918.67969-.43164.17578-.375.01416-.82227-.36084-.99707-.78857-.37012-1.29785-1.16992-1.29785-2.04004,0-1.24023,1.00928-2.25,2.25-2.25.8667,0,1.66602.50684,2.03613,1.29102.17676.375.62354.5332.99854.35742.37451-.17676.53467-.62305.35791-.99805-.50757-1.07544-1.50226-1.82861-2.64258-2.06445v-3.5437c3.27661.34277,5.97906,2.89844,6.43262,6.21558.05566.40918.42871.69336.84473.6416.41064-.05664.69775-.43457.6416-.84473-.58887-4.30664-4.31543-7.55469-8.66895-7.55469ZM7.9353,6.87476l-2.50049-2.5c1.06482-.86572,2.37769-1.43726,3.81519-1.58569v3.53687c-.47791.09741-.92133.28809-1.3147.54883ZM4.37433,5.4353l2.50043,2.5c-.39301.59302-.62476,1.30176-.62476,2.0647,0,.74658.22833,1.46045.62616,2.06323l-2.49622,2.49634c-1.01849-1.25562-1.62994-2.84668-1.62994-4.55957,0-1.72925.61035-3.31738,1.62433-4.5647Z" fill="var(--iconPrimary, #292929)" stroke-width="0"/>
</svg>