<?xml version="1.0" encoding="UTF-8"?>
<svg   xmlns="http://www.w3.org/2000/svg" width="20" height="20" viewBox="0 0 20 20">
  <path d="M17.25,18H2.75c-.41406,0-.75-.33594-.75-.75s.33594-.75.75-.75h14.5c.41406,0,.75.33594.75.75s-.33594.75-.75.75Z" fill="var(--iconPrimary, #292929)" stroke-width="0"/>
  <path d="M6.75,10.75c-.41406,0-.75-.33594-.75-.75v-.5c0-.41406.33594-.75.75-.75s.75.33594.75.75v.5c0,.41406-.33594.75-.75.75Z" fill="var(--iconPrimary, #292929)" stroke-width="0"/>
  <path d="M3.75,12.25c-.18994,0-.39014-.08008-.53027-.21973-.06982-.07031-.12012-.15039-.15967-.24023-.04004-.08984-.06006-.19043-.06006-.29004,0-.10059.02002-.19043.06006-.29004.03955-.08984.08984-.16992.15967-.24023.20996-.20996.54004-.28027.82031-.16016.08984.04004.16992.08984.23975.16016.14014.13965.22021.33008.22021.53027,0,.09961-.02002.2002-.06006.29004-.03027.08984-.09033.16992-.16016.24023-.06982.06934-.1499.12988-.23975.15918-.1001.04004-.19043.06055-.29004.06055Z" fill="var(--iconPrimary, #292929)" stroke-width="0"/>
  <path d="M9.75,11.5c-.41406,0-.75-.33594-.75-.75v-3.25c0-.41406.33594-.75.75-.75s.75.33594.75.75v3.25c0,.41406-.33594.75-.75.75Z" fill="var(--iconPrimary, #292929)" stroke-width="0"/>
  <path d="M12.75,8c-.41406,0-.75-.33594-.75-.75v-2c0-.41406.33594-.75.75-.75s.75.33594.75.75v2c0,.41406-.33594.75-.75.75Z" fill="var(--iconPrimary, #292929)" stroke-width="0"/>
  <path d="M15.75,9.5c-.41406,0-.75-.33594-.75-.75V2.75c0-.41406.33594-.75.75-.75s.75.33594.75.75v6c0,.41406-.33594.75-.75.75Z" fill="var(--iconPrimary, #292929)" stroke-width="0"/>
  <path d="M15.75,15c-.41406,0-.75-.33594-.75-.75v-3c0-.41406.33594-.75.75-.75s.75.33594.75.75v3c0,.41406-.33594.75-.75.75Z" fill="var(--iconPrimary, #292929)" stroke-width="0"/>
  <path d="M12.75,15c-.41406,0-.75-.33594-.75-.75v-4.5c0-.41406.33594-.75.75-.75s.75.33594.75.75v4.5c0,.41406-.33594.75-.75.75Z" fill="var(--iconPrimary, #292929)" stroke-width="0"/>
  <path d="M9.75,15c-.41406,0-.75-.33594-.75-.75v-1c0-.41406.33594-.75.75-.75s.75.33594.75.75v1c0,.41406-.33594.75-.75.75Z" fill="var(--iconPrimary, #292929)" stroke-width="0"/>
  <path d="M6.75,15c-.41406,0-.75-.33594-.75-.75v-1.75c0-.41406.33594-.75.75-.75s.75.33594.75.75v1.75c0,.41406-.33594.75-.75.75Z" fill="var(--iconPrimary, #292929)" stroke-width="0"/>
  <path d="M3.75,15c-.41406,0-.75-.33594-.75-.75v-.5c0-.41406.33594-.75.75-.75s.75.33594.75.75v.5c0,.41406-.33594.75-.75.75Z" fill="var(--iconPrimary, #292929)" stroke-width="0"/>
</svg>