<?xml version="1.0" encoding="UTF-8"?>
<svg   xmlns="http://www.w3.org/2000/svg" width="20" height="20" viewBox="0 0 20 20">
  <path d="M17.25,18H2.75c-.41406,0-.75-.33594-.75-.75s.33594-.75.75-.75h14.5c.41406,0,.75.33594.75.75s-.33594.75-.75.75Z" fill="var(--iconPrimary, #292929)" stroke-width="0"/>
  <path d="M15.25684,15c-.41406,0-.75-.33594-.75-.75V4.5c0-.55176-.44873-1-1-1s-1,.44824-1,1v9.75c0,.41406-.33594.75-.75.75s-.75-.33594-.75-.75V4.5c0-1.37891,1.12158-2.5,2.5-2.5s2.5,1.12109,2.5,2.5v9.75c0,.41406-.33594.75-.75.75Z" fill="var(--iconPrimary, #292929)" stroke-width="0"/>
  <path d="M8.25,15c-.41406,0-.75-.33594-.75-.75v-5.75c0-.55176-.44873-1-1-1s-1,.44824-1,1v5.75c0,.41406-.33594.75-.75.75s-.75-.33594-.75-.75v-5.75c0-1.37891,1.12158-2.5,2.5-2.5s2.5,1.12109,2.5,2.5v5.75c0,.41406-.33594.75-.75.75Z" fill="var(--iconPrimary, #292929)" stroke-width="0"/>
</svg>