<?xml version="1.0" encoding="UTF-8"?>
<svg   xmlns="http://www.w3.org/2000/svg" width="20" height="20" viewBox="0 0 20 20">
  <path d="M15.75,18H4.25c-1.24072,0-2.25-1.00977-2.25-2.25v-5.35742c0-.61621.25684-1.21191.70459-1.63477l2.33545-2.20605c.1958-.18652.46387-.28711.7373-.27246.27295.01367.53076.14062.7085.34863l1.77832,2.06348,2.29834-3.54004c.1709-.26465.44971-.42969.76465-.45312.31201-.01855.61426.09863.82324.33594l1.65918,1.87012,1.84766-3.32715c.28076-.50586.84766-.74707,1.40625-.60352.56006.14551.93652.63184.93652,1.20996v11.56641c0,1.24023-1.00928,2.25-2.25,2.25ZM5.68945,8.00098l-1.95459,1.84668c-.14941.1416-.23486.33984-.23486.54492v5.35742c0,.41309.33643.75.75.75h11.5c.41357,0,.75-.33691.75-.75V5.14941l-1.72217,3.10059c-.15723.28223-.44287.47266-.76465.50781-.32569.03711-.64258-.08691-.85742-.33105l-1.69287-1.90723-2.30371,3.54785c-.16699.26074-.45459.43164-.76709.45312-.31738.02832-.62305-.10645-.82812-.34375l-1.87451-2.17578Z" fill="var(--iconPrimary, #292929)" stroke-width="0"/>
</svg>