<?xml version="1.0" encoding="UTF-8"?>
<svg   xmlns="http://www.w3.org/2000/svg" width="20.00001" height="20.00001" viewBox="0 0 20.00001 20.00001">
  <path d="M15.75,2H4.25c-1.24023,0-2.25,1.00977-2.25,2.25v11.5c0,1.24023,1.00977,2.25,2.25,2.25h11.5c1.24023,0,2.25-1.00977,2.25-2.25V4.25c0-1.24023-1.00977-2.25-2.25-2.25ZM14.5,11.5h2v1.5h-2v-1.5ZM16.5,4.25v5.75h-6V3.5h5.25c.41309,0,.75.33691.75.75ZM3.5,15.75V4.25c0-.41309.33691-.75.75-.75h4.75v13h-4.75c-.41309,0-.75-.33691-.75-.75ZM10.5,16.5v-5h2.5v5h-2.5ZM15.75,16.5h-1.25v-2h2v1.25c0,.41309-.33691.75-.75.75Z" fill="var(--iconPrimary, #292929)" stroke-width="0"/>
</svg>