<?xml version="1.0" encoding="UTF-8"?>
<svg   xmlns="http://www.w3.org/2000/svg" width="20" height="20" viewBox="0 0 20 20">
  <path d="M11.75,1.25003c-.41406,0-.75.33594-.75.75v6.25c0,.41406.33594.75.75.75h6.25c.41406,0,.75-.33594.75-.75,0-3.85938-3.14014-7-7-7ZM12.5,7.50003V2.80081c2.43408.33301,4.36572,2.26562,4.69922,4.69922h-4.69922Z" fill="var(--iconPrimary, #222)"/>
  <path d="M16,10.25003h-3.5c-.41406,0-.75.33594-.75.75,0,1.5166-1.2334,2.75-2.75,2.75s-2.75-1.2334-2.75-2.75,1.2334-2.75,2.75-2.75c.41406,0,.75-.33594.75-.75v-3.5c0-.41406-.33594-.75-.75-.75-4.27344,0-7.75,3.47656-7.75,7.75s3.47656,7.75,7.75,7.75,7.75-3.47656,7.75-7.75c0-.41406-.33594-.75-.75-.75ZM8.25,4.79495v2.02148c-1.74323.31201-3.12061,1.69019-3.43243,3.43359h-1.99731c.34503-2.84473,2.58386-5.11377,5.42975-5.45508ZM2.79944,11.75003h2.02637c.31244,1.74121,1.68304,3.11182,3.42419,3.42432v2.02637c-2.84686-.34277-5.10797-2.60376-5.45056-5.45068ZM9.75,17.17972v-1.99731c1.74323-.31177,3.12213-1.68872,3.43359-3.43237h2.02148c-.34174,2.84546-2.61047,5.08472-5.45508,5.42969Z" fill="var(--iconPrimary, #222)"/>
</svg>