<?xml version="1.0" encoding="UTF-8"?>
<svg   xmlns="http://www.w3.org/2000/svg" width="20" height="20" viewBox="0 0 20 20">
  <path d="M15.16052,4.38184l-1.75039,2.20018c-.14674.18445-.40322.24095-.61436.13619-.44713-.22184-.83582-.41474-.83582-.41474-.88586-.54736-2.07861-.37122-2.68433.5293l-2.531,3.7198c-.12349.18149-.35092.26121-.5607.19653l-3.89011-1.19941c-.69653-.21216-1.46082.13098-1.74927.81665-.30786.73218.03601,1.5752.76819,1.88306l5.34241,2.24646c.68347.29663,1.50293.05151,1.95459-.56909l2.38713-2.75782c.1653-.19097.44707-.22867.65676-.08788l.99615.66883c.84241.56677,1.99548.4585,2.71509-.30432l.1665-.17651,3.40747-3.6123c2.2821-2.57495-1.56067-5.89526-3.77832-3.2749Z" fill="var(--iconPrimary, #292929)" opacity=".3" stroke-width="0"/>
  <path d="M7.55469,13.53418c-.14062,0-.28418-.04004-.41016-.12305-.34668-.22754-.44336-.69238-.21582-1.03809l.27441-.41797c.22656-.34668.69238-.44434,1.03809-.21582.34668.22754.44336.69238.21582,1.03906l-.27441.41797c-.14355.21875-.38379.33789-.62793.33789ZM5.25684,12.79004c-.08789,0-.17676-.01562-.26367-.04785l-.46777-.17578c-.3877-.14551-.58398-.57812-.43848-.96582.14648-.3877.58008-.58105.96582-.43848l.46777.17578c.3877.14551.58398.57812.43848.96582-.11328.30078-.39844.48633-.70215.48633ZM2.44727,11.73828c-.08789,0-.17676-.01562-.26367-.04785l-.46875-.17578c-.3877-.14551-.58398-.57812-.43848-.96582.14648-.3877.58008-.58301.96582-.43848l.46875.17578c.3877.14551.58398.57812.43848.96582-.11328.30078-.39844.48633-.70215.48633ZM9.20312,11.02734c-.14062,0-.28418-.04004-.41113-.12305-.3457-.22754-.44238-.69238-.21484-1.03809l.27441-.41895c.22559-.3457.69141-.44238,1.03906-.21484.3457.22754.44238.69238.21484,1.03809l-.27441.41797c-.14355.21973-.38379.33887-.62793.33887ZM13.91699,10.44141c-.12793,0-.25684-.03223-.375-.10156l-.43262-.25098c-.3584-.20801-.48047-.66699-.27246-1.02441.20703-.3584.66797-.48145,1.02441-.27246l.43262.25098c.3584.20801.48047.66699.27246,1.02441-.13867.24023-.39062.37402-.64941.37402ZM11.32227,8.93555c-.12793,0-.25684-.03223-.375-.10156l-.43262-.25098c-.3584-.20801-.48047-.66699-.27246-1.02441.20703-.3584.66797-.48047,1.02441-.27246l.43262.25098c.3584.20801.48047.66602.27246,1.02441-.13867.24023-.39062.37402-.64941.37402ZM15.58691,8.74512c-.1748,0-.34961-.06055-.49121-.18359-.31348-.27148-.34668-.74512-.0752-1.05762l.32812-.37793c.27246-.31445.74707-.3457,1.05762-.0752.31348.27148.34668.74512.0752,1.05762l-.32812.37793c-.14844.1709-.35742.25879-.56641.25879ZM17.55273,6.47852c-.17383,0-.34863-.06055-.49121-.18262-.3125-.27148-.34668-.74512-.07617-1.05859l.32715-.37793c.27148-.3125.74414-.3457,1.05859-.07617.3125.27148.34668.74512.07617,1.05859l-.32715.37793c-.14844.1709-.35742.25879-.56738.25879Z" fill="var(--iconPrimary, #292929)" stroke-width="0"/>
  <path d="M7.55469,13.53418c-.14062,0-.28418-.04004-.41016-.12305-.34668-.22754-.44336-.69238-.21582-1.03809l.27441-.41797c.22656-.34668.69238-.44434,1.03809-.21582.34668.22754.44336.69238.21582,1.03906l-.27441.41797c-.14355.21875-.38379.33789-.62793.33789ZM5.25684,12.79004c-.08789,0-.17676-.01562-.26367-.04785l-.46777-.17578c-.3877-.14551-.58398-.57812-.43848-.96582.14648-.3877.58008-.58105.96582-.43848l.46777.17578c.3877.14551.58398.57812.43848.96582-.11328.30078-.39844.48633-.70215.48633ZM2.44727,11.73828c-.08789,0-.17676-.01562-.26367-.04785l-.46875-.17578c-.3877-.14551-.58398-.57812-.43848-.96582.14648-.3877.58008-.58301.96582-.43848l.46875.17578c.3877.14551.58398.57812.43848.96582-.11328.30078-.39844.48633-.70215.48633ZM9.20312,11.02734c-.14062,0-.28418-.04004-.41113-.12305-.3457-.22754-.44238-.69238-.21484-1.03809l.27441-.41895c.22559-.3457.69141-.44238,1.03906-.21484.3457.22754.44238.69238.21484,1.03809l-.27441.41797c-.14355.21973-.38379.33887-.62793.33887ZM13.91699,10.44141c-.12793,0-.25684-.03223-.375-.10156l-.43262-.25098c-.3584-.20801-.48047-.66699-.27246-1.02441.20703-.3584.66797-.48145,1.02441-.27246l.43262.25098c.3584.20801.48047.66699.27246,1.02441-.13867.24023-.39062.37402-.64941.37402ZM11.32227,8.93555c-.12793,0-.25684-.03223-.375-.10156l-.43262-.25098c-.3584-.20801-.48047-.66699-.27246-1.02441.20703-.3584.66797-.48047,1.02441-.27246l.43262.25098c.3584.20801.48047.66602.27246,1.02441-.13867.24023-.39062.37402-.64941.37402ZM15.58691,8.74512c-.1748,0-.34961-.06055-.49121-.18359-.31348-.27148-.34668-.74512-.0752-1.05762l.32812-.37793c.27246-.31445.74707-.3457,1.05762-.0752.31348.27148.34668.74512.0752,1.05762l-.32812.37793c-.14844.1709-.35742.25879-.56641.25879ZM17.55273,6.47852c-.17383,0-.34863-.06055-.49121-.18262-.3125-.27148-.34668-.74512-.07617-1.05859l.32715-.37793c.27148-.3125.74414-.3457,1.05859-.07617.3125.27148.34668.74512.07617,1.05859l-.32715.37793c-.14844.1709-.35742.25879-.56738.25879Z" fill="var(--iconPrimary, #292929)" stroke-width="0"/>
</svg>