<?xml version="1.0" encoding="UTF-8"?>
<svg   xmlns="http://www.w3.org/2000/svg" width="20" height="20" viewBox="0 0 20 20">
  <path d="M14.99997,10.50195c-2.48529,0-4.5,2.01465-4.5,4.5s2.01471,4.5,4.5,4.5,4.5-2.01465,4.5-4.5-2.01471-4.5-4.5-4.5ZM17.49997,15.625h-1.875v1.875c0,.34473-.27979.625-.625.625s-.625-.28027-.625-.625v-1.875h-1.875c-.34521,0-.625-.28027-.625-.625s.27979-.625.625-.625h1.875v-1.875c0-.34473.27979-.625.625-.625s.625.28027.625.625v1.875h1.875c.34521,0,.625.28027.625.625s-.27979.625-.625.625Z" fill="var(--iconPrimary, #292929)" stroke-width="0"/>
  <path d="M2.08447,12.49902c-.39551,0-.72656-.30957-.74854-.70898-.02246-.41309.29443-.76758.70801-.79004.91309-.0498,1.79199-.73828,2.54053-1.98926l2.09082-3.74219c.44238-.79102,1.28369-1.23047,2.15381-1.25195.90674.00781,1.70459.48828,2.13428,1.28711l1.14111,2.12012c.32959.61035,1.09668.84961,1.71436.52637l2.14014-1.11523c.36768-.19238.8208-.04883,1.01172.31836.19141.36719.04883.82031-.31836,1.01172l-2.14014,1.11523c-1.33984.69727-3.01172.18359-3.72852-1.14551l-1.1416-2.12012c-.16602-.30859-.47461-.49512-.8252-.49805h-.00781c-.34717,0-.65479.18066-.82422.48438l-2.10205,3.76074c-1.29541,2.16504-2.75684,2.68066-3.75684,2.73633-.01367.00098-.02783.00098-.0415.00098Z" fill="var(--iconPrimary, #292929)" stroke-width="0"/>
  <path d="M1.96387,17.37988c-.41406,0-.75-.33594-.75-.75s.33594-.75.75-.75c.78223,0,1.52051-.30176,2.07959-.84961l2.15918-2.11523c.73486-.71973,1.74072-1.09863,2.7749-1.02734.41309.02637.72607.38379.69922.79688-.02734.41309-.37354.70801-.79785.69922-.59961-.04492-1.19629.18066-1.62646.60254l-2.15918,2.11523c-.84131.82422-1.95264,1.27832-3.12939,1.27832Z" fill="var(--iconPrimary, #292929)" stroke-width="0"/>
  <path d="M16.27637,5.5752c-.08252,0-.16602-.0166-.24658-.05078-.01123-.00488-1.40723-.57715-3.04834-.12793-.33691.09375-.67676-.10352-.76807-.4375-.09131-.33203.104-.67676.43701-.76758,2.07861-.57129,3.80176.15332,3.87354.18457.31738.13672.46338.50488.32715.82129-.10205.23633-.33252.37793-.57471.37793Z" fill="var(--iconPrimary, #292929)" stroke-width="0"/>
  <path d="M8.15137,8.97754c-.21338,0-.42139-.10938-.53809-.30664-.17627-.29688-.07812-.67969.21875-.85547.17334-.10352.34375-.22168.50977-.35742.26807-.21582.66162-.17578.87939.09082.21777.26758.17725.66113-.09033.87988-.21582.1748-.43604.32812-.66113.46094-.1001.05957-.20996.08789-.31836.08789Z" fill="var(--iconPrimary, #292929)" stroke-width="0"/>
  <path d="M2.72705,9.17676c-.06982,0-.14014-.01172-.20947-.03613-.62695-.22266-1.02393-.43457-1.04053-.44336-.30371-.16211-.41846-.54004-.25635-.84473s.54053-.41895.84521-.25781c.00342.00195.33887.17871.87061.36816.3252.11621.49512.47363.37939.79883-.09131.25586-.33203.41504-.58887.41504Z" fill="var(--iconPrimary, #292929)" stroke-width="0"/>
  <path d="M11.33643,3.67578c-.18555,0-.36963-.08203-.49268-.24023-.21289-.27148-.16455-.66406.10693-.87695,2.89453-2.26172,5.9458-.9873,6.07324-.93262.31738.13672.46338.50391.32715.82129-.13721.31641-.50537.45996-.82129.32715-.09912-.04297-2.51465-1.02637-4.80859.76855-.11426.08984-.25.13281-.38477.13281Z" fill="var(--iconPrimary, #292929)" stroke-width="0"/>
  <path d="M4.37061,6.84375c-.03125,0-.06299-.00195-.09473-.00684-1.57031-.23828-2.74951-.86328-2.79883-.88965-.3042-.16309-.41846-.54102-.25586-.84473.16211-.30371.54004-.41992.84521-.25781.01025.00586,1.04834.55176,2.39697.75586.34131.05176.57568.37012.52441.71191-.04736.30957-.31348.53125-.61719.53125Z" fill="var(--iconPrimary, #292929)" stroke-width="0"/>
</svg>