<?xml version="1.0" encoding="UTF-8"?>
<svg   xmlns="http://www.w3.org/2000/svg" width="20" height="20" viewBox="0 0 20 20">
  <path d="M14.17188,8.95703c-.12354,0-.24805-.03027-.36377-.09473-.36182-.2002-.49268-.65723-.2915-1.01953l3.38623-6.09961c.20166-.3623.6582-.49316,1.02002-.29102.36182.2002.49268.65723.2915,1.01953l-3.38623,6.09961c-.13721.24707-.39258.38574-.65625.38574Z" fill="var(--iconPrimary, #292929)" stroke-width="0"/>
  <path d="M2.44092,15.64258c-.17529,0-.35107-.06152-.49365-.18555-.31152-.27344-.34277-.74707-.07031-1.05859l2.54883-2.91113c.26416-.30273.71875-.34375,1.03369-.09082l1.92676,1.54492,2.19775-6.82422c.09375-.29199.35645-.49805.66211-.51855.3125-.0166.59424.14648.72705.42188l1.46533,3.03711c.18018.37305.02344.82129-.34961,1.00195-.37256.17871-.82178.02246-1.00098-.34961l-.65088-1.34863-1.95654,6.07617c-.07568.23535-.26172.41797-.49805.48926-.23584.06836-.49219.02051-.68506-.13379l-2.21582-1.77734-2.07568,2.37109c-.14844.16895-.35596.25586-.56494.25586Z" fill="var(--iconPrimary, #292929)" stroke-width="0"/>
  <path d="M15,10.5c-2.48529,0-4.5,2.01465-4.5,4.5s2.01471,4.5,4.5,4.5,4.5-2.01465,4.5-4.5-2.01471-4.5-4.5-4.5ZM17.5,15.62305h-1.875v1.875c0,.34473-.27979.625-.625.625s-.625-.28027-.625-.625v-1.875h-1.875c-.34521,0-.625-.28027-.625-.625s.27979-.625.625-.625h1.875v-1.875c0-.34473.27979-.625.625-.625s.625.28027.625.625v1.875h1.875c.34521,0,.625.28027.625.625s-.27979.625-.625.625Z" fill="var(--iconPrimary, #292929)" stroke-width="0"/>
</svg>