<?xml version="1.0" encoding="UTF-8"?>
<svg   xmlns="http://www.w3.org/2000/svg" width="20" height="20" viewBox="0 0 20 20">
  <path d="M2.83398,13.74902c-.39453,0-.72559-.30957-.74805-.70898-.02246-.41309.29395-.76758.70801-.79004.91309-.0498,1.79199-.73828,2.54102-1.98926l2.09082-3.74219c.43848-.78418,1.23438-1.25195,2.13184-1.25195h.02051c.90625.00781,1.70508.48828,2.13477,1.28711l1.14062,2.12012c.3291.61035,1.09961.84863,1.71484.52637l2.14062-1.11523c.37207-.19238.82031-.04883,1.01172.31836s.04883.82031-.31836,1.01172l-2.14062,1.11523c-1.3418.7002-3.01367.18359-3.72852-1.14551l-1.14062-2.12012c-.16699-.30859-.47559-.49512-.82617-.49805-.33789-.03906-.66113.17871-.83105.4834l-2.10254,3.76172c-1.29492,2.16504-2.75684,2.68066-3.75684,2.73633-.01367.00098-.02734.00098-.04199.00098Z" fill="var(--iconPrimary, #292929)" stroke-width="0"/>
  <path d="M2.71387,17.62988c-.41406,0-.75-.33594-.75-.75s.33594-.75.75-.75c.78223,0,1.52051-.30176,2.0791-.84863l2.15918-2.11621c1.39746-1.36914,3.67188-1.37012,5.06934-.00195.78809.77051,1.96191,1.00977,2.9873.60449l1.77246-.69727c.38379-.15039.82031.03711.97266.42383.15137.38574-.03809.82031-.42383.97266l-1.77246.69727c-1.57422.61914-3.375.25488-4.58496-.92871-.81934-.80371-2.15234-.80078-2.96973.00098l-2.15918,2.11523c-.84082.82422-1.95215,1.27832-3.12988,1.27832Z" fill="var(--iconPrimary, #292929)" stroke-width="0"/>
  <path d="M17.02734,6.8252c-.08301,0-.16699-.0166-.24707-.05078-.01172-.00488-1.40332-.57617-3.0498-.12793-.3291.09375-.67676-.10352-.76758-.4375-.0918-.33203.10449-.67676.4375-.76758,2.08105-.57031,3.80176.15332,3.87402.18457.31738.13672.46387.50391.32715.82129-.10156.23633-.33203.37793-.57422.37793Z" fill="var(--iconPrimary, #292929)" stroke-width="0"/>
  <path d="M8.90234,10.22754c-.21289,0-.4209-.1084-.53809-.30469-.17676-.29688-.0791-.68066.2168-.85742.17285-.10254.34473-.2207.51074-.35645.26465-.21777.65918-.18066.87891.08984.21777.2666.17773.66113-.08984.87891-.21484.1748-.43555.32812-.65918.46191-.10059.05957-.21094.08789-.31934.08789Z" fill="var(--iconPrimary, #292929)" stroke-width="0"/>
  <path d="M3.47656,10.42676c-.06934,0-.14062-.01172-.20996-.03613-.62695-.22363-1.02246-.43457-1.03906-.44336-.30469-.16309-.41797-.54102-.25586-.84473.16211-.30566.54297-.41895.84473-.25781.00391.00195.33789.17871.87012.36816.3252.11621.49414.47363.37891.79883-.09082.25586-.33203.41504-.58887.41504Z" fill="var(--iconPrimary, #292929)" stroke-width="0"/>
  <path d="M11.83594,4.92578c-.18555,0-.36914-.08203-.49219-.24023-.21289-.27148-.16504-.66406.10742-.87695,2.8916-2.26172,5.94629-.9873,6.07324-.93262.31738.13672.46387.50391.32715.82129s-.50684.46094-.82129.32715c-.10059-.04297-2.51465-1.02734-4.80957.76855-.11426.08984-.25.13281-.38477.13281Z" fill="var(--iconPrimary, #292929)" stroke-width="0"/>
  <path d="M5.12109,8.09375c-.03125,0-.0625-.00195-.09473-.00684-1.57129-.23828-2.75-.86328-2.79883-.88965-.30371-.16309-.41797-.54102-.25586-.84473.16211-.30469.54297-.41992.84473-.25781.01074.00586,1.04883.55176,2.39746.75586.34082.05176.57617.37012.52441.71191-.04688.30957-.31348.53125-.61719.53125Z" fill="var(--iconPrimary, #292929)" stroke-width="0"/>
</svg>