<?xml version="1.0" encoding="UTF-8"?>
<svg   xmlns="http://www.w3.org/2000/svg" width="20" height="20" viewBox="0 0 20 20">
  <path d="M17.25,18H2.75c-.41406,0-.75-.33594-.75-.75s.33594-.75.75-.75h14.5c.41406,0,.75.33594.75.75s-.33594.75-.75.75Z" fill="var(--iconPrimary, #292929)" stroke-width="0"/>
  <path d="M15.25,15c-.41406,0-.75-.33594-.75-.75v-3.97266c0-.41406.33594-.75.75-.75s.75.33594.75.75v3.97266c0,.41406-.33594.75-.75.75Z" fill="var(--iconPrimary, #292929)" stroke-width="0"/>
  <path d="M11.75,6.36719c-.41406,0-.75-.33594-.75-.75v-1.11719c0-1.37891,1.12109-2.5,2.5-2.5s2.5,1.12109,2.5,2.5v.30762c0,.41406-.33594.75-.75.75s-.75-.33594-.75-.75v-.30762c0-.55176-.44824-1-1-1s-1,.44824-1,1v1.11719c0,.41406-.33594.75-.75.75Z" fill="var(--iconPrimary, #292929)" stroke-width="0"/>
  <path d="M11.75,15c-.41406,0-.75-.33594-.75-.75v-2.28125c0-.41406.33594-.75.75-.75s.75.33594.75.75v2.28125c0,.41406-.33594.75-.75.75Z" fill="var(--iconPrimary, #292929)" stroke-width="0"/>
  <path d="M8.25,15.00195c-.41406,0-.75-.33594-.75-.75v-.25195c0-.41406.33594-.75.75-.75s.75.33594.75.75v.25195c0,.41406-.33594.75-.75.75Z" fill="var(--iconPrimary, #292929)" stroke-width="0"/>
  <path d="M4.75,9.5c-.41406,0-.75-.33594-.75-.75v-.25c0-1.37891,1.12109-2.5,2.5-2.5s2.5,1.12109,2.5,2.5v.12012c0,.41406-.33594.75-.75.75s-.75-.33594-.75-.75v-.12012c0-.55176-.44824-1-1-1s-1,.44824-1,1v.25c0,.41406-.33594.75-.75.75Z" fill="var(--iconPrimary, #292929)" stroke-width="0"/>
  <path d="M4.75,15c-.41406,0-.75-.33594-.75-.75v-.25977c0-.41406.33594-.75.75-.75s.75.33594.75.75v.25977c0,.41406-.33594.75-.75.75Z" fill="var(--iconPrimary, #292929)" stroke-width="0"/>
  <path d="M6.61426,12.59863c-.66016,0-1.32617-.12012-1.9668-.36719l-2.24512-.86426c-.38672-.14941-.5791-.58301-.43066-.96973.14941-.38672.58301-.58008.96973-.43066l2.24512.86426c1.39258.53809,2.94434.25195,4.05566-.74219l2.16113-1.93457c1.70996-1.53125,4.21094-1.8252,6.23242-.73145.36426.19727.49902.65234.30176,1.0166-.19727.3623-.65137.49902-1.0166.30176-1.46387-.79199-3.2793-.57812-4.51758.53027l-2.16113,1.93457c-1.02051.91309-2.3125,1.39258-3.62793,1.39258Z" fill="var(--iconPrimary, #292929)" stroke-width="0"/>
</svg>