<?xml version="1.0" encoding="UTF-8"?>
<svg   xmlns="http://www.w3.org/2000/svg" width="20" height="20" viewBox="0 0 20 20">
  <path d="M17.25,18H2.75c-.41406,0-.75-.33594-.75-.75s.33594-.75.75-.75h14.5c.41406,0,.75.33594.75.75s-.33594.75-.75.75Z" fill="var(--iconPrimary, #292929)" stroke-width="0"/>
  <path d="M14.50684,14.25v-5.25h-2v5.25c0,.37085-.27448.66516-.6283.72534.04163.00537.07837.02466.12146.02466h3c.04547,0,.08441-.02002.1283-.02588-.3504-.06299-.62146-.35571-.62146-.72412Z" fill="var(--iconPrimary, #292929)" opacity=".5" stroke-width="0"/>
  <path d="M11,7.75v6.25c0,.01196.00641.02185.00684.03369v-6.28369h-.00684Z" fill="var(--iconPrimary, #292929)" opacity=".5" stroke-width="0"/>
  <path d="M13.50684,2c-1.37842,0-2.5,1.12109-2.5,2.5v9.75c0,.41406.33594.75.75.75.04315,0,.08051-.01758.1217-.02466.35382-.06018.6283-.35449.6283-.72534v-5.25h2v5.25c0,.36841.27106.66113.62146.72412.04333.00781.08295.02588.12854.02588.41406,0,.75-.33594.75-.75V4.5c0-1.37891-1.12158-2.5-2.5-2.5ZM12.50684,4.5c0-.55176.44873-1,1-1s1,.44824,1,1v3h-2v-3Z" fill="var(--iconPrimary, #292929)" stroke-width="0"/>
  <path d="M7.5,14.25v-3.25h-2v3.25c0,.36963-.27271.66309-.62488.72473.04279.00562.08063.02527.12488.02527h3c.04425,0,.08209-.01965.12488-.02527-.35217-.06165-.62488-.3551-.62488-.72473Z" fill="var(--iconPrimary, #292929)" opacity=".5" stroke-width="0"/>
  <path d="M6.5,6c-1.37842,0-2.5,1.12109-2.5,2.5v5.75c0,.41406.33594.75.75.75.04437,0,.08289-.01782.12512-.02527.35217-.06165.62488-.3551.62488-.72473v-3.25h2v3.25c0,.36963.27271.66309.62488.72473.04224.00745.08075.02527.12512.02527.41406,0,.75-.33594.75-.75v-5.75c0-1.37891-1.12158-2.5-2.5-2.5ZM5.5,8.5c0-.55176.44873-1,1-1s1,.44824,1,1v1h-2v-1Z" fill="var(--iconPrimary, #292929)" stroke-width="0"/>
</svg>