<?xml version="1.0" encoding="UTF-8"?>
<svg   xmlns="http://www.w3.org/2000/svg" width="20" height="20" viewBox="0 0 20 20">
  <path d="M18.53271,17.47266l-5.40314-5.45605c.91443-1.15454,1.46515-2.60986,1.46515-4.19336,0-3.73438-3.03809-6.77246-6.77197-6.77246S1.05078,4.08887,1.05078,7.82324c0,3.7334,3.03809,6.77148,6.77197,6.77148,1.6109,0,3.09052-.56763,4.25433-1.51038l5.3902,5.44299c.14648.14844.33936.22266.53271.22266.19092,0,.38135-.07227.52783-.2168.29443-.29199.29639-.7666.00488-1.06055ZM2.55078,7.82324c0-2.90723,2.36523-5.27246,5.27197-5.27246s5.27197,2.36523,5.27197,5.27246c0,2.90625-2.36523,5.27148-5.27197,5.27148s-5.27197-2.36523-5.27197-5.27148ZM1.41211,14.88184c-.14453,0-.29102-.04199-.41943-.12891-.34326-.23145-.43359-.69824-.20166-1.04102l.38818-.57422c.23145-.34473.69873-.43262,1.0415-.20117.34326.23145.43359.69824.20166,1.04102l-.38867.57422c-.14453.21484-.38135.33008-.62158.33008ZM6.7876,11.30957c-.23486,0-.45801-.11035-.60059-.30078l-.96924-1.2959c-.24268.14648-.55811.14746-.80762-.01953-.34375-.23242-.43408-.69824-.20215-1.04199l.40088-.59375c.13574-.20117.36084-.32422.60352-.33008.22998-.02441.47363.10645.61865.30078l.80762,1.08008,1.82959-3.91016c.10547-.22656.31641-.38477.56299-.42383.24463-.03809.49561.04785.66553.23047l1.8999,2.04492c.28223.30371.26465.77832-.03906,1.06055-.30322.28027-.77832.26367-1.05957-.03906l-1.14258-1.23047-1.88867,4.03613c-.11182.23926-.34033.40137-.60254.42871-.02588.00293-.05127.00391-.07666.00391ZM14.76172,3.69141c-.16504,0-.33105-.05371-.46973-.16602-.32275-.25879-.37402-.73145-.11426-1.05371l.91748-1.14062c.26025-.32324.73291-.375,1.05469-.11426.32275.25879.37402.73145.11426,1.05371l-.91748,1.14062c-.14844.18457-.36572.28027-.58496.28027Z" fill="var(--iconPrimary, #292929)" stroke-width="0"/>
</svg>