<?xml version="1.0" encoding="UTF-8"?>
<svg   xmlns="http://www.w3.org/2000/svg" width="20" height="20" viewBox="0 0 20 20">
  <path d="M18,4.19043c0-.5791-.37695-1.06641-.93799-1.21191-.5625-.13965-1.12646.09766-1.4082.60449l-1.84424,3.32129-1.65918-1.87012c-.20898-.2373-.5127-.35449-.82324-.33594-.31494.02344-.59375.18848-.76466.45312l-2.29833,3.54004-1.77832-2.06348c-.17773-.20801-.43555-.33496-.7085-.34863-.26953-.01465-.54199.08594-.7373.27246l-2.33545,2.20605c-.44775.42285-.70459,1.01855-.70459,1.63477v5.35742c0,1.24023,1.00928,2.25,2.25,2.25h11.5c1.24072,0,2.25-1.00977,2.25-2.25V4.19043ZM3.73486,9.84766l1.95459-1.84668,1.87451,2.17578c.20508.2373.50928.37207.82812.34375.3125-.02148.6001-.19238.76709-.45312l2.30371-3.54785,1.69287,1.90723c.21484.24414.53223.36816.85742.33105.32178-.03516.60742-.22559.76465-.50781l1.72217-3.10059v6.41943l-1.479.64014-1.88867-1.92871c-.19629-.2002-.47559-.33496-.75049-.29883-.28027.00977-.54541.13867-.72852.35449l-2.62158,3.11133-2.11377-1.67969c-.34277-.27051-.81641-.28809-1.17773-.04492l-2.24023,1.50562v-2.83569c0-.20508.08545-.40332.23486-.54492ZM15.75,16.5H4.25c-.41357,0-.75-.33691-.75-.75v-.71509l2.77344-1.86401,2.20605,1.75391c.42578.33789,1.03467.27637,1.38672-.13965l2.57959-3.06152,1.74365,1.78125c.29248.2959.72803.38184,1.11182.21777l1.19873-.51904v2.54639c0,.41309-.33643.75-.75.75Z" fill="var(--iconPrimary, #292929)" stroke-width="0"/>
</svg>