<?xml version="1.0" encoding="UTF-8"?>
<svg   xmlns="http://www.w3.org/2000/svg" width="20" height="20" viewBox="0 0 20 20">
  <path d="M2.75,9.25c-.41406,0-.75-.33594-.75-.75V2.5c0-.41406.33594-.75.75-.75s.75.33594.75.75v6c0,.41406-.33594.75-.75.75Z" fill="var(--iconPrimary, #292929)" stroke-width="0"/>
  <path d="M2.75,18.25c-.41406,0-.75-.33594-.75-.75v-6c0-.41406.33594-.75.75-.75s.75.33594.75.75v6c0,.41406-.33594.75-.75.75Z" fill="var(--iconPrimary, #292929)" stroke-width="0"/>
  <path d="M13,15.25h-7.25c-.41406,0-.75-.33594-.75-.75s.33594-.75.75-.75h7.25c.41406,0,.75.33594.75.75s-.33594.75-.75.75Z" fill="var(--iconPrimary, #292929)" stroke-width="0"/>
  <path d="M9.25,18h-3.5c-.41406,0-.75-.33594-.75-.75s.33594-.75.75-.75h3.5c.41406,0,.75.33594.75.75s-.33594.75-.75.75Z" fill="var(--iconPrimary, #292929)" stroke-width="0"/>
  <path d="M16.75,12.5H5.75c-.41406,0-.75-.33594-.75-.75s.33594-.75.75-.75h11c.41406,0,.75.33594.75.75s-.33594.75-.75.75Z" fill="var(--iconPrimary, #292929)" stroke-width="0"/>
  <path d="M8.75,9h-3c-.41406,0-.75-.33594-.75-.75s.33594-.75.75-.75h3c.41406,0,.75.33594.75.75s-.33594.75-.75.75Z" fill="var(--iconPrimary, #292929)" stroke-width="0"/>
  <path d="M12.25,6.25h-6.5c-.41406,0-.75-.33594-.75-.75s.33594-.75.75-.75h6.5c.41406,0,.75.33594.75.75s-.33594.75-.75.75Z" fill="var(--iconPrimary, #292929)" stroke-width="0"/>
  <path d="M15.75,3.5H5.75c-.41406,0-.75-.33594-.75-.75s.33594-.75.75-.75h10c.41406,0,.75.33594.75.75s-.33594.75-.75.75Z" fill="var(--iconPrimary, #292929)" stroke-width="0"/>
</svg>