<?xml version="1.0" encoding="UTF-8"?>
<svg   xmlns="http://www.w3.org/2000/svg" width="20" height="20" viewBox="0 0 20 20">
  <path d="M19.33008,16.74707l-3.4873-6.44629c-.2666-.49414-.78125-.80078-1.34277-.80078s-1.07617.30664-1.34277.80078l-3.4873,6.44629c-.2583.47754-.24658,1.04102.03174,1.50781.27783.4668.76807.74512,1.31152.74512h6.97363c.54346,0,1.03369-.27832,1.31152-.74512.27832-.4668.29004-1.03027.03174-1.50781ZM13.75,12.25c0-.41406.33594-.75.75-.75s.75.33594.75.75v2c0,.41406-.33594.75-.75.75s-.75-.33594-.75-.75v-2ZM15.14606,17.76355c-.17358.16455-.40784.24963-.64667.23474-.23071.00818-.45538-.07373-.62665-.22827-.33032-.36475-.33032-.91992,0-1.28467.16937-.1582.39484-.24268.62665-.23462.23633-.00952.46588.0802.633.24731.16211.16772.24921.39392.24139.62695.01239.23462-.06958.4646-.22772.63855Z" fill="var(--iconPrimary, #292929)" stroke-width="0"/>
  <path d="M14.62695,8.1377c-.12354,0-.24805-.03027-.36328-.09473-.3623-.2002-.49316-.65723-.29199-1.01953l2.93115-5.28027c.20166-.36328.6582-.49219,1.01953-.29102.3623.2002.49316.65723.29199,1.01953l-2.93115,5.28027c-.13721.24707-.39258.38574-.65625.38574Z" fill="var(--iconPrimary, #292929)" stroke-width="0"/>
  <path d="M2.19092,15.89258c-.17676,0-.354-.0625-.49658-.18848-.31006-.27441-.33887-.74902-.06445-1.05859l2.79883-3.16113c.26562-.29883.71875-.33887,1.03076-.08789l1.92676,1.54492,2.19775-6.82422c.09375-.29199.35645-.49805.66211-.51855.31396-.02148.59424.14648.72705.42188l1.23438,2.55859c.18018.37305.02344.82129-.34961,1.00195-.37354.17871-.82178.02246-1.00098-.34961l-.41992-.87012-1.95654,6.07617c-.07568.23535-.26172.41797-.49805.48926-.23633.06738-.49219.02148-.68506-.13379l-2.21924-1.7793-2.3252,2.62598c-.14844.16797-.35449.25293-.56201.25293Z" fill="var(--iconPrimary, #292929)" stroke-width="0"/>
</svg>