<?xml version="1.0" encoding="UTF-8"?>
<svg   xmlns="http://www.w3.org/2000/svg" width="20" height="20" viewBox="0 0 20 20">
  <path d="M15,10.50195c-2.48529,0-4.5,2.01465-4.5,4.5s2.01471,4.5,4.5,4.5,4.5-2.01465,4.5-4.5-2.01471-4.5-4.5-4.5ZM17.5,15.625h-1.875v1.875c0,.34473-.27979.625-.625.625s-.625-.28027-.625-.625v-1.875h-1.875c-.34521,0-.625-.28027-.625-.625s.27979-.625.625-.625h1.875v-1.875c0-.34473.27979-.625.625-.625s.625.28027.625.625v1.875h1.875c.34521,0,.625.28027.625.625s-.27979.625-.625.625Z" fill="var(--iconPrimary, #292929)" stroke-width="0"/>
  <path d="M2.75,18c-.41406,0-.75-.33594-.75-.75V2.75c0-.41406.33594-.75.75-.75s.75.33594.75.75v14.5c0,.41406-.33594.75-.75.75Z" fill="var(--iconPrimary, #292929)" stroke-width="0"/>
  <g>
    <path d="M8.5,14h-2.75c-.41406,0-.75-.33594-.75-.75s.33594-.75.75-.75h2.75c.41406,0,.75.33594.75.75s-.33594.75-.75.75Z" fill="var(--iconPrimary, #292929)" stroke-width="0"/>
    <path d="M6.75,17h-1c-.41406,0-.75-.33594-.75-.75s.33594-.75.75-.75h1c.41406,0,.75.33594.75.75s-.33594.75-.75.75Z" fill="var(--iconPrimary, #292929)" stroke-width="0"/>
    <path d="M10.5,11h-4.75c-.41406,0-.75-.33594-.75-.75s.33594-.75.75-.75h4.75c.41406,0,.75.33594.75.75s-.33594.75-.75.75Z" fill="var(--iconPrimary, #292929)" stroke-width="0"/>
    <path d="M14.25,8H5.75c-.41406,0-.75-.33594-.75-.75s.33594-.75.75-.75h8.5c.41406,0,.75.33594.75.75s-.33594.75-.75.75Z" fill="var(--iconPrimary, #292929)" stroke-width="0"/>
    <path d="M17.25,5H5.75c-.41406,0-.75-.33594-.75-.75s.33594-.75.75-.75h11.5c.41406,0,.75.33594.75.75s-.33594.75-.75.75Z" fill="var(--iconPrimary, #292929)" stroke-width="0"/>
  </g>
</svg>