<?xml version="1.0" encoding="UTF-8"?>
<svg   xmlns="http://www.w3.org/2000/svg" width="20" height="20" viewBox="0 0 20 20">
  <path d="M8.58551,9.83848c-.55228,0-1,.44772-1,1s.44772,1,1,1,1-.44772,1-1-.44772-1-1-1Z" fill="var(--iconPrimary, #292929)" stroke-width="0"/>
  <path d="M13.11196,10.41746c-.55228,0-1,.44772-1,1s.44772,1,1,1,1-.44772,1-1-.44772-1-1-1Z" fill="var(--iconPrimary, #292929)" stroke-width="0"/>
  <path d="M13.58432,5.69491c-.55228,0-1,.44772-1,1s.44772,1,1,1,1-.44772,1-1-.44772-1-1-1Z" fill="var(--iconPrimary, #292929)" stroke-width="0"/>
  <path d="M8.08551,13.56494c-.55228,0-1,.44772-1,1s.44772,1,1,1,1-.44772,1-1-.44772-1-1-1Z" fill="var(--iconPrimary, #292929)" stroke-width="0"/>
  <path d="M3.09502,15.90419c-.55228,0-1,.44772-1,1s.44772,1,1,1,1-.44772,1-1-.44772-1-1-1Z" fill="var(--iconPrimary, #292929)" stroke-width="0"/>
  <path d="M5.58551,8.83848c-.55228,0-1,.44772-1,1s.44772,1,1,1,1-.44772,1-1-.44772-1-1-1Z" fill="var(--iconPrimary, #292929)" stroke-width="0"/>
  <path d="M5.58551,12.04632c-.55228,0-1,.44772-1,1s.44772,1,1,1,1-.44772,1-1-.44772-1-1-1Z" fill="var(--iconPrimary, #292929)" stroke-width="0"/>
  <path d="M10.5,6.83848c-.55228,0-1,.44772-1,1s.44772,1,1,1,1-.44772,1-1-.44772-1-1-1Z" fill="var(--iconPrimary, #292929)" stroke-width="0"/>
  <path d="M10.5,2.61178c-.55228,0-1,.44772-1,1s.44772,1,1,1,1-.44772,1-1-.44772-1-1-1Z" fill="var(--iconPrimary, #292929)" stroke-width="0"/>
  <path d="M17.08432,5.19491c-.55228,0-1,.44772-1,1s.44772,1,1,1,1-.44772,1-1-.44772-1-1-1Z" fill="var(--iconPrimary, #292929)" stroke-width="0"/>
  <path d="M15.58432,2.05134c-.55228,0-1,.44772-1,1s.44772,1,1,1,1-.44772,1-1-.44772-1-1-1Z" fill="var(--iconPrimary, #292929)" stroke-width="0"/>
  <path d="M7.08551,6.19491c-.55228,0-1,.44772-1,1s.44772,1,1,1,1-.44772,1-1-.44772-1-1-1Z" fill="var(--iconPrimary, #292929)" stroke-width="0"/>
</svg>