<?xml version="1.0" encoding="UTF-8"?>
<svg   xmlns="http://www.w3.org/2000/svg" width="20" height="20" viewBox="0 0 20 20">
  <path d="M6.75,17.75c-.41406,0-.75-.33594-.75-.75v-5.25c0-.41406.33594-.75.75-.75s.75.33594.75.75v5.25c0,.41406-.33594.75-.75.75Z" fill="var(--iconPrimary, #292929)" stroke-width="0"/>
  <path d="M3.75,17.75c-.41406,0-.75-.33594-.75-.75v-3.75c0-.41406.33594-.75.75-.75s.75.33594.75.75v3.75c0,.41406-.33594.75-.75.75Z" fill="var(--iconPrimary, #292929)" stroke-width="0"/>
  <path d="M9.75,17.75c-.41406,0-.75-.33594-.75-.75v-7.75c0-.41406.33594-.75.75-.75s.75.33594.75.75v7.75c0,.41406-.33594.75-.75.75Z" fill="var(--iconPrimary, #292929)" stroke-width="0"/>
  <path d="M12.75,17.75c-.41406,0-.75-.33594-.75-.75V6.25c0-.41406.33594-.75.75-.75s.75.33594.75.75v10.75c0,.41406-.33594.75-.75.75Z" fill="var(--iconPrimary, #292929)" stroke-width="0"/>
  <path d="M15.75,17.75c-.41406,0-.75-.33594-.75-.75V5.5c0-.41406.33594-.75.75-.75s.75.33594.75.75v11.5c0,.41406-.33594.75-.75.75Z" fill="var(--iconPrimary, #292929)" stroke-width="0"/>
  <path d="M3.12012,10.62891c-.41406,0-.75-.33594-.75-.75s.33594-.75.75-.75c1.08398,0,2.10352-.42285,2.87109-1.18945l4.31055-4.31055c1.05078-1.05078,2.44629-1.62891,3.93164-1.62891h2.2666c.41406,0,.75.33594.75.75s-.33594.75-.75.75h-2.2666c-1.08398,0-2.10352.42285-2.87109,1.18945l-4.31055,4.31055c-1.05078,1.05078-2.44629,1.62891-3.93164,1.62891Z" fill="var(--iconPrimary, #292929)" stroke-width="0"/>
</svg>