<?xml version="1.0" encoding="UTF-8"?>
<svg   xmlns="http://www.w3.org/2000/svg" width="20" height="20" viewBox="0 0 20 20">
  <path d="M16.1875,3.8125c-.14062-.14062-.33105-.21973-.53027-.21973s-.38965.0791-.53027.21973l-1.45361,1.45361c-.82959-.64502-1.83008-1.0769-2.92334-1.21411v-2.052c0-.41406-.33594-.75-.75-.75C5.1748,1.25,1.25,5.1748,1.25,10c0,.41406.33594.75.75.75h2.052c.34009,2.70874,2.48926,4.85791,5.198,5.198v2.052c0,.41406.33594.75.75.75,2.33691,0,4.53418-.91016,6.18652-2.5625.06934-.06934.125-.15234.16309-.24316.14551-.35242.17529-.44189-1.61975-2.26575.64734-.83044,1.08057-1.83313,1.21814-2.92859h2.052c.41406,0,.75-.33594.75-.75,0-2.33691-.91016-4.53418-2.5625-6.1875ZM13.02368,9.25c-.07617-.30615-.198-.59265-.35718-.85596l.99731-.99731c.38599.5415.65332,1.17114.76855,1.85327h-1.40869ZM6.97632,9.25h-1.40869c.3175-1.88037,1.802-3.36487,3.68237-3.68237v1.40869c-1.11829.2782-1.99548,1.1554-2.27368,2.27368ZM10,8.375c.89648,0,1.625.72852,1.625,1.625s-.72852,1.625-1.625,1.625-1.625-.72852-1.625-1.625.72852-1.625,1.625-1.625ZM10.75,13.02368c.30615-.07617.59265-.198.85596-.35718l.99731.99731c-.5415.38599-1.17114.65332-1.85327.76855v-1.40869ZM12.60327,6.33618l-.99731.99731c-.26331-.15918-.5498-.28101-.85596-.35718v-1.40869c.68213.11523,1.31177.38257,1.85327.76855ZM9.25,2.78809v1.26392c-2.70874.34009-4.85791,2.48926-5.198,5.198h-1.26392c.35156-3.39941,3.0625-6.11035,6.46191-6.46191ZM5.56763,10.75h1.40869c.2782,1.11829,1.1554,1.99548,2.27368,2.27368v1.40869c-1.88037-.3175-3.36487-1.802-3.68237-3.68237ZM10.75,17.21191v-1.26392c1.09326-.13721,2.09399-.56909,2.92334-1.21411.33228.33215.64624.64624.896.896-1.0957.89258-2.41406,1.43848-3.81934,1.58203ZM13.66333,12.604c-.29871-.29956-.63232-.63354-.99683-.99805.15918-.26331.28101-.5498.35718-.85596h1.40869c-.11523.68237-.38281,1.31213-.76904,1.854ZM15.948,9.25c-.13721-1.09326-.56909-2.09375-1.21411-2.92334l.896-.896c.89258,1.0957,1.43848,2.41406,1.58203,3.81934h-1.26392Z" fill="var(--iconPrimary, #222)" stroke-width="0"/>
</svg>