<?xml version="1.0" encoding="UTF-8"?>
<svg   xmlns="http://www.w3.org/2000/svg" width="20" height="20" viewBox="0 0 20 20">
  <path d="M5.00391,17.97266c-1.24023,0-2.25-1.00977-2.25-2.25s1.00977-2.25,2.25-2.25,2.25,1.00977,2.25,2.25-1.00977,2.25-2.25,2.25ZM5.00391,14.97266c-.41309,0-.75.33691-.75.75s.33691.75.75.75.75-.33691.75-.75-.33691-.75-.75-.75Z" fill="var(--iconPrimary, #292929)" stroke-width="0"/>
  <path d="M12.875,1.75c-2.57434,0-4.72693,1.82104-5.24951,4.24133-.50842-.40735-1.14453-.66125-1.84521-.66125-1.6377,0-2.9707,1.33203-2.9707,2.96973s1.33301,2.9707,2.9707,2.9707c1.05542,0,1.97778-.55762,2.50464-1.38953.94141,1.56177,2.63733,2.61902,4.59009,2.61902,2.96387,0,5.375-2.41113,5.375-5.375S15.83887,1.75,12.875,1.75ZM5.78027,9.77051c-.81055,0-1.4707-.66016-1.4707-1.4707s.66016-1.46973,1.4707-1.46973,1.46973.65918,1.46973,1.46973-.65918,1.4707-1.46973,1.4707ZM12.875,11c-2.13672,0-3.875-1.73828-3.875-3.875s1.73828-3.875,3.875-3.875,3.875,1.73828,3.875,3.875-1.73828,3.875-3.875,3.875Z" fill="var(--iconPrimary, #292929)" stroke-width="0"/>
  <path d="M14.31348,17.47266c-.58301,0-1.16113-.25293-1.55664-.74023v-.00098c-.33691-.41602-.49121-.9375-.43457-1.46875s.31641-1.00879.73242-1.34473c.85254-.69336,2.11523-.56152,2.81152.2959.33594.41504.49023.93652.43457,1.46875-.05664.53125-.31543,1.00879-.73145,1.34473-.36914.29883-.81348.44531-1.25586.44531ZM13.92285,15.78711c.17383.21484.48926.24902.70215.07422.10449-.08398.16992-.2041.18359-.33691.01465-.13184-.02441-.26172-.1084-.36523-.17285-.21484-.48926-.24805-.70215-.07422-.10547.08398-.16992.20312-.18359.33594-.01465.13184.02441.2627.1084.36621Z" fill="var(--iconPrimary, #292929)" stroke-width="0"/>
</svg>