<?xml version="1.0" encoding="UTF-8"?>
<svg   xmlns="http://www.w3.org/2000/svg" width="20" height="20" viewBox="0 0 20 20">
  <path d="M10,1.25c-2.53351,0-4.81201,1.08887-6.41138,2.81543-.01752.01587-.03967.02319-.05591.04102-.01648.01807-.02179.04102-.03613.06018-1.39166,1.54993-2.24658,3.59106-2.24658,5.83337,0,2.40869.97845,4.59253,2.55829,6.17627.00269.00269.00342.00659.00616.00928s.00653.00342.00928.0061c1.5838,1.57996,3.76776,2.55835,6.17627,2.55835,4.82471,0,8.75-3.9248,8.75-8.75S14.82471,1.25,10,1.25ZM7.79889,6.97876l-2.61499-2.38306c1.10657-.98718,2.51166-1.64624,4.0661-1.80664v3.53687c-.53613.10913-1.02435.34094-1.45111.65283ZM7.75,10c0-1.24023,1.00928-2.25,2.25-2.25s2.25,1.00977,2.25,2.25-1.00928,2.25-2.25,2.25-2.25-1.00977-2.25-2.25ZM4.17273,5.70483l2.61786,2.3855c-.33545.5614-.54059,1.20959-.54059,1.90967,0,.76294.23181,1.47168.62482,2.0647l-2.50031,2.50024c-1.0141-1.24731-1.62451-2.83569-1.62451-4.56494,0-1.60864.53296-3.09143,1.42273-4.29517ZM10,17.25c-1.72925,0-3.3175-.61035-4.56494-1.62451l2.50024-2.50024c.59283.39307,1.30164.62476,2.0647.62476,2.06787,0,3.75-1.68262,3.75-3.75,0-1.81055-1.29034-3.32568-3-3.67407v-3.53687c3.64648.37646,6.5,3.46619,6.5,7.21094,0,3.99805-3.25244,7.25-7.25,7.25Z" fill="var(--iconPrimary, #292929)" stroke-width="0"/>
</svg>