<?xml version="1.0" encoding="UTF-8"?>
<svg   xmlns="http://www.w3.org/2000/svg" width="20" height="20" viewBox="0 0 20 20">
  <path d="M6.75,18c-.41406,0-.75-.33594-.75-.75V7.75c0-.41406.33594-.75.75-.75s.75.33594.75.75v9.5c0,.41406-.33594.75-.75.75Z" fill="var(--iconPrimary, #292929)" stroke-width="0"/>
  <path d="M3.75,18c-.41406,0-.75-.33594-.75-.75v-4.625c0-.41406.33594-.75.75-.75s.75.33594.75.75v4.625c0,.41406-.33594.75-.75.75Z" fill="var(--iconPrimary, #292929)" stroke-width="0"/>
  <path d="M9.75,18c-.41406,0-.75-.33594-.75-.75V2.75c0-.41406.33594-.75.75-.75s.75.33594.75.75v14.5c0,.41406-.33594.75-.75.75Z" fill="var(--iconPrimary, #292929)" stroke-width="0"/>
  <path d="M12.75,18c-.41406,0-.75-.33594-.75-.75V7.75c0-.41406.33594-.75.75-.75s.75.33594.75.75v9.5c0,.41406-.33594.75-.75.75Z" fill="var(--iconPrimary, #292929)" stroke-width="0"/>
  <path d="M15.75,18c-.41406,0-.75-.33594-.75-.75v-5.5c0-.41406.33594-.75.75-.75s.75.33594.75.75v5.5c0,.41406-.33594.75-.75.75Z" fill="var(--iconPrimary, #292929)" stroke-width="0"/>
</svg>