<?xml version="1.0" encoding="UTF-8"?>
<svg   xmlns="http://www.w3.org/2000/svg" width="20" height="20" viewBox="0 0 20 20">
  <path d="M2.75,18c-.41406,0-.75-.33594-.75-.75V2.75c0-.41406.33594-.75.75-.75s.75.33594.75.75v14.5c0,.41406-.33594.75-.75.75Z" fill="var(--iconPrimary, #292929)" stroke-width="0"/>
  <path d="M15.5,8.99316H5.75c-.41406,0-.75-.33594-.75-.75s.33594-.75.75-.75h9.75c.55127,0,1-.44824,1-1s-.44873-1-1-1H5.75c-.41406,0-.75-.33594-.75-.75s.33594-.75.75-.75h9.75c1.37842,0,2.5,1.12109,2.5,2.5s-1.12158,2.5-2.5,2.5Z" fill="var(--iconPrimary, #292929)" stroke-width="0"/>
  <path d="M15,10.50195c-2.48529,0-4.5,2.01465-4.5,4.5s2.01471,4.5,4.5,4.5,4.5-2.01465,4.5-4.5-2.01471-4.5-4.5-4.5ZM17.5,15.625h-1.875v1.875c0,.34473-.27979.625-.625.625s-.625-.28027-.625-.625v-1.875h-1.875c-.34521,0-.625-.28027-.625-.625s.27979-.625.625-.625h1.875v-1.875c0-.34473.27979-.625.625-.625s.625.28027.625.625v1.875h1.875c.34521,0,.625.28027.625.625s-.27979.625-.625.625Z" fill="var(--iconPrimary, #292929)" stroke-width="0"/>
  <path d="M8.25,16h-2.5c-.41406,0-.75-.33594-.75-.75s.33594-.75.75-.75h2.5c.41406,0,.75.33594.75.75s-.33594.75-.75.75Z" fill="var(--iconPrimary, #292929)" stroke-width="0"/>
  <path d="M9.5,12.5h-3.75c-.41406,0-.75-.33594-.75-.75s.33594-.75.75-.75h3.75c.41406,0,.75.33594.75.75s-.33594.75-.75.75Z" fill="var(--iconPrimary, #292929)" stroke-width="0"/>
</svg>