<?xml version="1.0" encoding="UTF-8"?>
<svg   xmlns="http://www.w3.org/2000/svg" width="20" height="20" viewBox="0 0 20 20">
  <path d="M10,1.24988C5.1748,1.24988,1.25,5.17469,1.25,9.99988s3.9248,8.75,8.75,8.75,8.75-3.9248,8.75-8.75S14.8252,1.24988,10,1.24988ZM14.03223,7.84656l-4.24512,5.79004c-.13281.18262-.3418.29492-.56738.30566-.01172.00098-.02441.00098-.03711.00098-.21191,0-.41504-.08984-.55762-.24805l-2.64355-2.93945c-.27734-.30859-.25195-.78223.05566-1.05957s.78125-.25195,1.05957.05566l2.02637,2.25391,3.7002-5.0459c.24316-.33301.71191-.40918,1.04785-.16113.33398.24414.40625.71387.16113,1.04785Z" fill="var(--iconPrimary, #222)" stroke-width="0"/>
</svg>