<?xml version="1.0" encoding="UTF-8"?>
<svg   xmlns="http://www.w3.org/2000/svg" width="20" height="20" viewBox="0 0 20 20">
  <path d="M8.24951,14.45117c-.31006,0-.61963-.08398-.89844-.25098-.53271-.31836-.85107-.87988-.85107-1.50098v-5.39844c0-.62109.31836-1.18262.85107-1.50098.53271-.31934,1.17773-.33398,1.72705-.04102l5.02197,2.7002c.56836.30469.92139.89551.92139,1.54102s-.35303,1.23633-.92139,1.54199l-5.02148,2.69824c-.26172.14062-.5459.21094-.8291.21094ZM8.25098,7.0498c-.05615,0-.10156.02051-.12939.03711-.04541.02734-.12158.09082-.12158.21387v5.39844c0,.12305.07617.18652.12158.21387.04541.02637.1377.06543.24756.00586l5.021-2.69824c.11426-.06152.13135-.16504.13135-.2207s-.01709-.15918-.13135-.21973v-.00098l-5.02148-2.69922c-.04248-.02246-.08203-.03027-.11768-.03027ZM10,18.75c-4.82471,0-8.75-3.9248-8.75-8.75S5.17529,1.25,10,1.25s8.75,3.9248,8.75,8.75-3.92529,8.75-8.75,8.75ZM10,2.75c-3.99756,0-7.25,3.25195-7.25,7.25s3.25244,7.25,7.25,7.25,7.25-3.25195,7.25-7.25-3.25244-7.25-7.25-7.25Z" fill="var(--iconPrimary, #222)" stroke-width="0"/>
</svg>