<?xml version="1.0" encoding="UTF-8"?>
<svg xmlns="http://www.w3.org/2000/svg" width="20" height="20" viewBox="0 0 20 20">
  <path d="M15.5,16.25V3.75c0-.41406.33594-.75.75-.75s.75.33594.75.75v12.5c0,.41406-.33594.75-.75.75s-.75-.33594-.75-.75Z" fill="var(--iconPrimary, #222)"/>
  <path d="M11.5,13.75V3.75c0-.41406.33594-.75.75-.75s.75.33594.75.75v10c0,.41406-.33594.75-.75.75s-.75-.33594-.75-.75Z" fill="var(--iconPrimary, #222)"/>
  <path d="M7.5,16.25V3.75c0-.41406.33594-.75.75-.75s.75.33594.75.75v12.5c0,.41406-.33594.75-.75.75s-.75-.33594-.75-.75Z" fill="var(--iconPrimary, #222)"/>
  <path d="M3.5,13.75V3.75c0-.41406.33594-.75.75-.75s.75.33594.75.75v10c0,.41406-.33594.75-.75.75s-.75-.33594-.75-.75Z" fill="var(--iconPrimary, #222)"/>
</svg>