<?xml version="1.0" encoding="UTF-8"?>
<svg xmlns="http://www.w3.org/2000/svg" width="20" height="20" viewBox="0 0 20 20">
  <path d="M18,4.25v11.5c0,1.24072-1.00977,2.25-2.25,2.25H4.25c-1.24023,0-2.25-1.00928-2.25-2.25V4.25c0-1.24072,1.00977-2.25,2.25-2.25h11.5c1.24023,0,2.25,1.00928,2.25,2.25ZM3.5,15.75c0,.41357.33691.75.75.75h11.5c.41309,0,.75-.33643.75-.75V4.25c0-.41357-.33691-.75-.75-.75H4.25c-.41309,0-.75.33643-.75.75v11.5Z" fill="var(--iconPrimary, #222)"/>
  <polygon points="7.24138 12.75862 7.24138 7.24138 12.75862 12.75862 7.24138 12.75862" fill="var(--iconPrimary, #222)" opacity=".5"/>
  <polygon points="5 5 5 15 15 15 12.75862 12.75862 7.24138 12.75862 7.24138 7.24138 5 5" fill="var(--iconPrimary, #222)"/>
  <polygon points="7.24138 7.24138 12.75862 7.24138 12.75862 12.75862 15 15 15 5 5 5 7.24138 7.24138" fill="var(--iconPrimary, #222)" opacity=".35"/>
</svg>