<?xml version="1.0" encoding="UTF-8"?>
<svg id="e" data-name="ICONS" xmlns="http://www.w3.org/2000/svg" width="20" height="20" viewBox="0 0 20 20">
  <path d="M10.55078,7.00195h-5.79834c-.41406,0-.75-.33594-.75-.75s.33594-.75.75-.75h5.79834c.41406,0,.75.33594.75.75s-.33594.75-.75.75Z" fill="var(--iconPrimary, #222)"/>
  <path d="M7.75244,10.00195h-.00146l-.98242-.00195-2.01562.00195h-.00049c-.41406,0-.74951-.33496-.75-.74902s.33496-.75098.74951-.75098l2.01758-.00195.98438.00195c.41406.00098.74951.33691.74854.75195-.00098.41309-.33643.74805-.75.74805Z" fill="var(--iconPrimary, #222)"/>
  <path d="M14.25244,14.00195c-1.79199,0-3.25-1.57031-3.25-3.5s1.45801-3.5,3.25-3.5,3.25,1.57031,3.25,3.5-1.45801,3.5-3.25,3.5ZM14.25244,8.50195c-.96484,0-1.75.89746-1.75,2s.78516,2,1.75,2,1.75-.89746,1.75-2-.78516-2-1.75-2Z" fill="var(--iconPrimary, #222)"/>
  <path d="M18.75146,19.50195c-.37988,0-.70557-.28711-.74512-.67383-.15039-1.46875-1.76416-2.57617-3.75391-2.57617-1.97314,0-3.62207,1.12793-3.75293,2.56836-.0376.41113-.41016.71484-.81494.67871-.4126-.03809-.7168-.40234-.6792-.81543.20459-2.24121,2.45996-3.93164,5.24707-3.93164,2.76172,0,5.01709,1.68652,5.24609,3.92383.04199.41211-.25781.78027-.66992.82227-.02588.00293-.05176.00391-.07715.00391Z" fill="var(--iconPrimary, #222)"/>
  <path d="M16.45264,2.00195h-5.70233l.00214-.74805c.00098-.41406-.3335-.75098-.74805-.75195h-.00195c-.41309,0-.74902.33398-.75.74805l-.00214.75195H3.45264c-1.35498,0-2.5,1.14453-2.5,2.5v8.5c0,1.35547,1.14502,2.5,2.5,2.5h5.09082c.41406,0,.75-.33594.75-.75s-.33594-.75-.75-.75H3.45264c-.53271,0-1-.46777-1-1V4.50195c0-.53223.46729-1,1-1h13c.53271,0,1,.46777,1,1v2c0,.41406.33594.75.75.75s.75-.33594.75-.75v-2c0-1.35547-1.14502-2.5-2.5-2.5Z" fill="var(--iconPrimary, #222)"/>
</svg>