<?xml version="1.0" encoding="UTF-8"?>
<svg id="e" data-name="ICONS" xmlns="http://www.w3.org/2000/svg" width="20" height="20" viewBox="0 0 20 20">
  <path d="M15,10.5c-2.48529,0-4.5,2.01465-4.5,4.5s2.01471,4.5,4.5,4.5,4.5-2.01465,4.5-4.5-2.01471-4.5-4.5-4.5ZM17.5,15.625h-1.875v1.875c0,.34473-.27979.625-.625.625s-.625-.28027-.625-.625v-1.875h-1.875c-.34521,0-.625-.28027-.625-.625s.27979-.625.625-.625h1.875v-1.875c0-.34473.27979-.625.625-.625s.625.28027.625.625v1.875h1.875c.34521,0,.625.28027.625.625s-.27979.625-.625.625Z" fill="var(--iconPrimary, #222)"/>
  <path d="M10.75,7h-6c-.41406,0-.75-.33594-.75-.75s.33594-.75.75-.75h6c.41406,0,.75.33594.75.75s-.33594.75-.75.75Z" fill="var(--iconPrimary, #222)"/>
  <path d="M7.75,10h-3c-.41406,0-.75-.33594-.75-.75s.33594-.75.75-.75h3c.41406,0,.75.33594.75.75s-.33594.75-.75.75Z" fill="var(--iconPrimary, #222)"/>
  <path d="M16.5,2h-5.74744l-.00256-.75293c-.00146-.41309-.33691-.74707-.75-.74707h-.00244c-.41455.00098-.74902.33789-.74756.75293l.00256.74707H3.5c-1.35498,0-2.5,1.14453-2.5,2.5v8.5c0,1.35547,1.14502,2.5,2.5,2.5h4.75195c.41406,0,.75-.33594.75-.75s-.33594-.75-.75-.75H3.5c-.53271,0-1-.46777-1-1V4.5c0-.53223.46729-1,1-1h13c.53271,0,1,.46777,1,1v4.58398c0,.41406.33594.75.75.75s.75-.33594.75-.75v-4.58398c0-1.35547-1.14502-2.5-2.5-2.5Z" fill="var(--iconPrimary, #222)"/>
</svg>