<?xml version="1.0" encoding="UTF-8"?>
<svg   xmlns="http://www.w3.org/2000/svg" width="20" height="20" viewBox="0 0 20 20">
  <path d="M7.61084,17.99711c-1.51562,0-2.94336-.56543-3.99707-1.62207-1.39453-1.39844-1.92773-3.45215-1.42627-5.49121.54102-2.20117,2.31348-4.01953,4.51465-4.63281.75146-.20898,1.50537-.28027,2.24512-.20605.39404.03613.66992-.28613.76416-.60449.10205-.34375.25098-.68848.44238-1.02539.60205-1.06152,1.58105-1.86621,2.68604-2.20605h0c1.51465-.46582,3.03174-.13672,4.05664.88379,1.02441,1.01953,1.36133,2.53418.90137,4.0498-.32861,1.08301-1.10693,2.05273-2.13574,2.65918-.36914.21777-.75146.38574-1.13574.49707-.31348.09082-.61182.36133-.57568.70117.08057.75977.01172,1.53613-.20459,2.30859-.61768,2.20312-2.44092,3.97266-4.64502,4.50781-.49951.12109-.99951.18066-1.49023.18066ZM8.38135,7.51762c-.42041,0-.84814.05957-1.27734.17871-1.6875.46973-3.0459,1.86133-3.45947,3.54492-.38135,1.5498-.00537,3.03516,1.03125,4.07422,1.03711,1.04004,2.521,1.41895,4.0708,1.04395,1.68604-.41016,3.08154-1.7666,3.55518-3.45508.16504-.58887.21777-1.17578.15771-1.74512-.10938-1.02441.58398-1.99219,1.64941-2.30176.26318-.07617.52881-.19238.79004-.34766.70996-.41797,1.24268-1.0752,1.46338-1.80273.2959-.97559.1001-1.92969-.52441-2.55176s-1.5791-.81543-2.55664-.51367c-.00049,0-.00049.00098-.00049.00098-.74268.22852-1.40674.7793-1.82275,1.51367-.13525.2373-.23877.47754-.30908.71289-.32422,1.08594-1.29688,1.76855-2.34668,1.66797-.13916-.0127-.27979-.01953-.4209-.01953ZM13.06055,2.92582h.00977-.00977Z" fill="var(--iconPrimary, #222)"/>
</svg>