<?xml version="1.0" encoding="UTF-8"?>
<svg xmlns="http://www.w3.org/2000/svg" width="20" height="20" viewBox="0 0 20 20">
  <path d="M17.24023.83398c-.34277-.2334-.80859-.13965-1.04102.20312l-5.73047,8.4978-3.65234-2.46265c-.34375-.23242-.80859-.13965-1.04102.20312-.21265.31494-.14258.72705.1355.97241l-4.073,2.26196c-.22852.12598-.375.3623-.38574.62305-.01172.26074.11328.50879.33008.65527l6.37793,4.30078c.16406.11133.36621.14941.5625.11426.19531-.03809.36719-.15234.47852-.31738l.28809-.42676-.00195,1.125c0,.25.12402.4834.33105.62305l3.0625,2.06445c.12598.08496.27148.12793.41895.12793.10547,0,.21191-.02246.31152-.06738.2373-.1084.40137-.33301.43262-.5918l.5708-4.61865c.10522.05225.21655.08545.32861.08545.24121,0,.47754-.11621.62305-.33105.23145-.34277.14062-.80957-.20312-1.04102l-3.65088-2.46143L17.44336,1.875c.23145-.34277.14062-.80957-.20312-1.04102ZM12.70312,17.34277l-1.71484-1.15625.00391-3.18555c0-.33008-.21484-.62109-.53027-.71777-.31543-.09863-.65625.02344-.8418.29785l-1.24316,1.84473-4.74121-3.19629,3.6521-2.03027,5.93018,3.99829-.51489,4.14526Z" fill="var(--iconPrimary, #222)"/>
</svg>