<?xml version="1.0" encoding="UTF-8"?>
<svg id="f" data-name="ICONS" xmlns="http://www.w3.org/2000/svg" width="20" height="20" viewBox="0 0 20 20">
  <path d="M9,11.25c-2.61914,0-4.75-2.24316-4.75-5S6.38086,1.25,9,1.25s4.75,2.24316,4.75,5-2.13086,5-4.75,5ZM9,2.75c-1.79199,0-3.25,1.57031-3.25,3.5s1.45801,3.5,3.25,3.5,3.25-1.57031,3.25-3.5-1.45801-3.5-3.25-3.5Z" fill="var(--iconPrimary, #222)"/>
  <path d="M1.75098,18.75c-.02393,0-.04834-.00098-.07275-.00391-.4126-.03906-.71436-.40527-.6748-.81836.28271-2.93457,3.26025-5.30566,7.08008-5.6377.40674-.04297.77637.26953.81201.68262.03613.41211-.26953.77539-.68213.81152-3.04932.26465-5.50684,2.1084-5.7168,4.28809-.0376.3877-.36377.67773-.74561.67773Z" fill="var(--iconPrimary, #222)"/>
  <g>
    <path d="M12.55349,17.82031l-1.00781,1.00781c-.24414.24414-.24414.64062,0,.88477.12207.12207.28174.18262.44189.18262s.31982-.06055.44189-.18262l1.00781-1.00781c.24414-.24414.24414-.64062,0-.88477s-.63965-.24414-.88379,0Z" fill="var(--iconPrimary, #222)"/>
    <path d="M12.01785,16.39062c-.24512-.24316-.64062-.24219-.88379.00293l-1.03564,1.04297c-.24316.24512-.24219.64062.00293.88379.12207.12109.28125.18164.44043.18164.16064,0,.32129-.06152.44336-.18457l1.03564-1.04297c.24316-.24512.24219-.64062-.00293-.88379Z" fill="var(--iconPrimary, #222)"/>
    <path d="M19.47341,10.0957c-.39844-.36523-.97314-.49707-1.70557-.38965-1.29974.19263-2.33197.88245-3.16284,1.65918-.17108-.01489-.3399-.03271-.5188-.03906-1.71631.0166-3.30664.94434-4.25439,2.48438-.2085.33887-.21729.7627-.02344,1.10742.19043.33691.54932.5459.93262.5459h1.39185c.07458.25586.19495.49988.39136.69727l.98438.9834c.1994.19995.44135.33057.69727.40479v1.36475c-.00391.3916.20557.75488.54639.94727.16504.09277.34863.13867.53223.13867.19922,0,.39893-.05469.57471-.16309,1.53906-.94727,2.46777-2.53711,2.48389-4.25488.00159-.177-.02167-.34741-.03949-.51904.02081-.02222.0459-.04468.06635-.06689.88232-.95605,1.39941-1.94141,1.58154-3.01074.17676-1.03809-.1626-1.60059-.47803-1.88965ZM12.33913,14.08105c-.0293.04248-.052.08813-.0766.13281h-1.19928c.58612-.8175,1.42273-1.35254,2.34247-1.54492-.34747.42505-.70361.89062-1.06659,1.41211ZM15.45583,18.60449v-1.21045c.04407-.02502.09247-.03638.13477-.06592.52466-.36572.98755-.71802,1.40942-1.06372-.19257.91919-.72675,1.75464-1.54419,2.34009ZM18.71902,11.77539c-.14209.83496-.54492,1.58984-1.26758,2.37305-.62695.67871-1.46924,1.38379-2.5752,2.1543-.14893.10352-.35693.08594-.4834-.04199l-.98389-.9834c-.11279-.11328-.14111-.28711-.0708-.43359,0,0,.82715-1.14844,1.20508-1.59668.86084-1.01758,1.93896-2.08691,3.40674-2.30469.32764-.04785.5752-.02051.6792.0752.1167.10742.15137.39746.08984.75781Z" fill="var(--iconPrimary, #222)"/>
  </g>
</svg>