<?xml version="1.0" encoding="UTF-8"?><svg id="e" xmlns="http://www.w3.org/2000/svg" width="20" height="20" viewBox="0 0 20 20"><path d="M8.5,15.2793V1.75c0-.41406-.33594-.75-.75-.75s-.75.33594-.75.75v11.1792l-.57568-.56592c-.42871-.4209-.97705-.68164-1.59717-.64453-.60059.00488-1.16357.24414-1.58496.67285l-1.37891,1.40332c-.86914.88379-.85645,2.31152.02783,3.18164l1.40283,1.37891h.00049c.4375.42969,1.00732.64355,1.57666.64355.58252,0,1.16504-.22461,1.60498-.67188l1.37891-1.40332c.44153-.44897.65729-1.05908.64502-1.64453ZM6.78467,15.87305l-1.37891,1.40332c-.29004.29297-.76562.2998-1.06055.00879l-1.40234-1.37891c-.29492-.29004-.29932-.76562-.00928-1.06055l1.37891-1.40332c.14014-.14258.32812-.22266.52832-.22461.19531-.02734.38916.07422.53174.21582l1.40283,1.37891c.29492.29004.29932.76562.00928,1.06055Z" fill="var(--iconPrimary,#222)"/><path d="M16.75,6h-4.5c-1.24072,0-2.25-1.00977-2.25-2.25v-.5c0-1.24023,1.00928-2.25,2.25-2.25h4.5c1.24072,0,2.25,1.00977,2.25,2.25v.5c0,1.24023-1.00928,2.25-2.25,2.25ZM12.25,2.5c-.41357,0-.75.33691-.75.75v.5c0,.41309.33643.75.75.75h4.5c.41357,0,.75-.33691.75-.75v-.5c0-.41309-.33643-.75-.75-.75h-4.5Z" fill="var(--iconPrimary,#222)"/></svg>