<?xml version="1.0" encoding="UTF-8"?>
<svg xmlns="http://www.w3.org/2000/svg" width="20" height="20" viewBox="0 0 20 20">
  <rect x="10.75" y="2.75" width="7.5" height="7.5" rx="1.5" ry="1.5" fill="var(--iconPrimary, #222)" opacity=".2"/>
  <path d="M16.75,11h-4.5c-1.24023,0-2.25-1.00977-2.25-2.25v-4.5c0-1.24023,1.00977-2.25,2.25-2.25h4.5c1.24023,0,2.25,1.00977,2.25,2.25v4.5c0,1.24023-1.00977,2.25-2.25,2.25ZM12.25,3.5c-.41309,0-.75.33691-.75.75v4.5c0,.41309.33691.75.75.75h4.5c.41309,0,.75-.33691.75-.75v-4.5c0-.41309-.33691-.75-.75-.75h-4.5Z" fill="var(--iconPrimary, #222)"/>
  <path d="M8,7h-2.5c-1.24023,0-2.25,1.00977-2.25,2.25v5.9209l-1.72266-1.72266c-.29297-.29297-.76758-.29297-1.06055,0s-.29297.76758,0,1.06055l2.99805,2.99805c.14648.14648.33789.21973.53027.21973.19141,0,.38379-.07324.53027-.21973l3.00195-2.99805c.29297-.29199.29297-.76758,0-1.06055-.29199-.29199-.7666-.29395-1.06055,0l-1.7168,1.71411v-5.91235c0-.41309.33691-.75.75-.75h2.5c.41406,0,.75-.33594.75-.75s-.33594-.75-.75-.75Z" fill="var(--iconPrimary, #222)"/>
</svg>