<?xml version="1.0" encoding="UTF-8"?>
<svg id="d" data-name="ICONS" xmlns="http://www.w3.org/2000/svg" width="22" height="20" viewBox="0 0 22 20">
  <path d="M17.49023,18.02148c-2.48145,0-4.5-2.01855-4.5-4.5s2.01855-4.5,4.5-4.5v1.5c-1.6543,0-3,1.3457-3,3s1.3457,3,3,3,3-1.3457,3-3c0-1.29492-.83594-2.43555-2.08057-2.83789l.46191-1.42773c1.86523.60449,3.11865,2.31836,3.11865,4.26562,0,2.48145-2.01855,4.5-4.5,4.5Z" fill="var(--iconPrimary, #222)" opacity=".35" stroke-width="0"/>
  <path d="M18.40967,10.68359c-.33594-.10938-.63672-.16211-.91943-.16211v-1.5c.44189,0,.89404.07715,1.38135.23438l-.46191,1.42773Z" fill="var(--iconBluePrimary, #0265dc)" stroke-width="0"/>
</svg>