<?xml version="1.0" encoding="UTF-8"?>
<svg id="d" data-name="ICONS" xmlns="http://www.w3.org/2000/svg" width="22" height="20" viewBox="0 0 22 20">
  <path d="M17.49023,18.02148c-2.48145,0-4.5-2.01855-4.5-4.5s2.01855-4.5,4.5-4.5v1.5c-1.6543,0-3,1.3457-3,3s1.3457,3,3,3c.62891,0,1.23926-.20312,1.7627-.58691l.88672,1.21094c-.7832.57324-1.69922.87598-2.64941.87598Z" fill="var(--iconPrimary, #222)" opacity=".35" stroke-width="0"/>
  <path d="M20.13965,17.14551l-.88672-1.21094c.78613-.5752,1.2373-1.45508,1.2373-2.41309,0-1.6543-1.3457-3-3-3v-1.5c2.48145,0,4.5,2.01855,4.5,4.5,0,1.44141-.6748,2.76172-1.85059,3.62402Z" fill="var(--iconBluePrimary, #0265dc)" stroke-width="0"/>
</svg>