<?xml version="1.0" encoding="UTF-8"?>
<svg xmlns="http://www.w3.org/2000/svg" width="14" height="14" viewBox="0 0 14 14">
  <path d="M5.8584,12h-3.25586C1.21484,12,.08594,10.87109.08594,9.4834c0-1.05859.66699-1.97656,1.61426-2.34082-.02148-.14062-.03223-.28223-.03223-.42578,0-1.58105,1.31152-2.86719,2.92285-2.86719.17383,0,.3457.01562.5166.04688.48242-1.36719,1.78516-2.32812,3.27734-2.32812,1.79883,0,3.29102,1.34766,3.47266,3.13477.03418.34375-.21582.65039-.55859.68555-.33984.02246-.65039-.21582-.68555-.55859-.11621-1.14746-1.07422-2.01172-2.22852-2.01172-1.11328,0-2.06348.83887-2.20801,1.95117-.02637.19629-.14355.36914-.31641.46484-.17285.09668-.38184.10449-.56152.02344-1.12988-.51465-2.38086.33691-2.38086,1.45898,0,.21777.0459.43164.13574.63574.08203.18652.06836.40137-.03809.57617-.10547.1748-.29004.28613-.49414.2998-.66504.04199-1.18555.59375-1.18555,1.25488,0,.69824.56836,1.2666,1.2666,1.2666h3.25586c.34473,0,.625.28027.625.625s-.28027.625-.625.625Z" fill="var(--iconPrimary, #222)"/>
  <path d="M10.50702,6.34998c-1.73975,0-3.15002,1.41028-3.15002,3.1499,0,1.73975,1.41028,3.15015,3.15002,3.15015,1.73962,0,3.13599-1.4104,3.13599-3.15015,0-1.73962-1.39636-3.1499-3.13599-3.1499ZM12.20544,10.3423c.23529.23624.23529.61988,0,.85612-.11812.11812-.27309.1767-.42806.1767s-.30994-.05859-.42806-.1767l-.84194-.84194-.84194.84194c-.11812.11812-.27309.1767-.42806.1767s-.30994-.05859-.42806-.1767c-.23529-.23624-.23529-.61988,0-.85612l.84194-.84194-.84194-.84194c-.23529-.23624-.23529-.61988,0-.85612.23624-.23624.61988-.23624.85612,0l.84194.84194.84194-.84194c.23624-.23624.61988-.23624.85612,0,.23529.23624.23529.61988,0,.85612l-.84194.84194.84194.84194Z" fill="var(--iconPrimary, #222)"/>
</svg>