<?xml version="1.0" encoding="UTF-8"?>
<svg xmlns="http://www.w3.org/2000/svg" width="14" height="14" viewBox="0 0 14 14">
  <path d="M6.47461,12h-3.87207C1.21484,12,.08594,10.87109.08594,9.4834c0-1.05859.66699-1.97656,1.61426-2.34082-.02148-.14062-.03223-.28223-.03223-.42578,0-1.58105,1.31152-2.86719,2.92285-2.86719.17285,0,.3457.01562.5166.04688.48242-1.36719,1.78516-2.32812,3.27734-2.32812,1.9248,0,3.49121,1.56641,3.49121,3.49121,0,.22754-.02344.44824-.06738.66211-.06836.33789-.39258.5625-.73633.48828-.33789-.06836-.55664-.39746-.48828-.73633.02637-.13379.04199-.27246.04199-.41406,0-1.23535-1.00586-2.24121-2.24121-2.24121-1.11328,0-2.06348.83887-2.20801,1.95117-.02637.19629-.14355.36914-.31641.46484-.17188.09668-.38184.10449-.56152.02344-1.12988-.51562-2.38086.33691-2.38086,1.45898,0,.21777.0459.43164.13574.63574.08203.18652.06836.40137-.03809.57617-.10547.1748-.29004.28613-.49414.2998-.66504.04199-1.18555.59375-1.18555,1.25488,0,.69824.56836,1.2666,1.2666,1.2666h3.87207c.34473,0,.625.28027.625.625s-.28027.625-.625.625Z" fill="var(--iconPrimary, #222)"/>
  <path d="M12.95215,9.50293c-.16016,0-.32031-.06055-.44238-.18262-1.30176-1.30273-3.41895-1.30566-4.71484-.00586-.24414.24414-.64062.24414-.88477,0-.24316-.24414-.24316-.64062,0-.88477,1.78809-1.78613,4.69434-1.78223,6.48438.00586.24316.24414.24316.64062,0,.88477-.12207.12207-.28223.18262-.44238.18262Z" fill="var(--iconPrimary, #222)"/>
  <path d="M11.46875,10.98047c-.16016,0-.32031-.06055-.44238-.18262-.48438-.48633-1.27051-.48633-1.75098-.00293-.24414.24414-.64062.24414-.88477,0-.24316-.24414-.24316-.64062,0-.88477.96973-.96777,2.54883-.9668,3.52051.00293.24316.24414.24316.64062,0,.88477-.12207.12207-.28223.18262-.44238.18262Z" fill="var(--iconPrimary, #222)"/>
  <path id="j" data-name="Path 1027855" d="M10.59553,12.34793c-.24595.24595-.64317.24749-.88967.00099s-.24694-.64571-.00099-.89165.64516-.24551.89165.00099.24496.64372-.00099.88967Z" fill="var(--iconPrimary, #222)"/>
</svg>