<?xml version="1.0" encoding="UTF-8"?>
<svg xmlns="http://www.w3.org/2000/svg" width="14" height="14" viewBox="0 0 14 14">
  <path d="M10.78418,11.99811H2.60254C1.21484,11.99811.08594,10.8692.08594,9.48151c0-1.05859.66699-1.97656,1.61426-2.34082-.02148-.14062-.03223-.28223-.03223-.42578,0-1.58105,1.31152-2.86719,2.92285-2.86719.17285,0,.3457.01562.5166.04688.48242-1.36719,1.78516-2.32812,3.27734-2.32812,1.9248,0,3.49121,1.56641,3.49121,3.49121,0,.28418-.03613.56543-.1084.84277,1.25391.41211,2.14941,1.58887,2.14941,2.96484,0,1.72754-1.40527,3.13281-3.13281,3.13281ZM4.59082,5.09772c-.92285,0-1.67285.72559-1.67285,1.61719,0,.21777.0459.43164.13574.63574.08203.18652.06836.40137-.03809.57617-.10547.1748-.29004.28613-.49414.2998-.66504.04199-1.18555.59375-1.18555,1.25488,0,.69824.56836,1.2666,1.2666,1.2666h8.18164c1.03809,0,1.88281-.84473,1.88281-1.88281,0-.99512-.7832-1.81641-1.78223-1.87012-.21289-.01172-.4043-.12988-.50977-.31445s-.10938-.40918-.01172-.59766c.1748-.33496.2627-.68066.2627-1.02539,0-1.23535-1.00586-2.24121-2.24121-2.24121-1.11328,0-2.06348.83887-2.20801,1.95117-.02637.19629-.14355.36914-.31641.46484-.17285.09668-.38184.10449-.56152.02344-.23145-.10547-.46973-.1582-.70801-.1582Z" fill="var(--iconPrimary, #222)"/>
</svg>