<?xml version="1.0" encoding="UTF-8"?>
<svg id="d" data-name="ICONS" xmlns="http://www.w3.org/2000/svg" width="22" height="20" viewBox="0 0 22 20">
  <path d="M17.49023,18.02148c-2.48145,0-4.5-2.01855-4.5-4.5s2.01855-4.5,4.5-4.5v1.5c-1.6543,0-3,1.3457-3,3s1.3457,3,3,3c.28223,0,.58496-.05371.9248-.16406l.46484,1.42578c-.49219.16016-.94727.23828-1.38965.23828Z" fill="var(--iconPrimary, #222)" opacity=".35" stroke-width="0"/>
  <path d="M18.87988,17.7832l-.46484-1.42578c1.24121-.40527,2.0752-1.54492,2.0752-2.83594,0-1.6543-1.3457-3-3-3v-1.5c2.48145,0,4.5,2.01855,4.5,4.5,0,1.94141-1.25,3.6543-3.11035,4.26172Z" fill="var(--iconBluePrimary, #0265dc)" stroke-width="0"/>
</svg>