<?xml version="1.0" encoding="UTF-8"?>
<svg xmlns="http://www.w3.org/2000/svg" width="14" height="14" viewBox="0 0 14 14">
  <path d="M10.50732,6.21472c-1.79504,0-3.25,1.4552-3.25,3.25012,0,1.7948,1.45496,3.24988,3.25,3.24988,1.79468,0,3.23535-1.45508,3.23535-3.24988,0-1.79492-1.44067-3.25012-3.23535-3.25012ZM10.03613,11.125c0,.34473-.28027.625-.625.625s-.625-.28027-.625-.625v-3.25c0-.34473.28027-.625.625-.625s.625.28027.625.625v3.25ZM12.25977,11.125c0,.34473-.28027.625-.625.625s-.625-.28027-.625-.625v-3.25c0-.34473.28027-.625.625-.625s.625.28027.625.625v3.25Z" fill="var(--iconPrimary, #222)"/>
  <path d="M6,12h-3.39746C1.21484,12,.08594,10.87109.08594,9.4834c0-1.05859.66699-1.97656,1.61426-2.34082-.02148-.14062-.03223-.28223-.03223-.42578,0-1.58105,1.31152-2.86719,2.92285-2.86719.17383,0,.3457.01562.5166.04688.48242-1.36719,1.78516-2.32812,3.27734-2.32812,1.79883,0,3.29102,1.34766,3.47266,3.13477.03418.34375-.21582.65039-.55859.68555-.33398.03027-.65039-.21582-.68555-.55859-.11621-1.14746-1.07422-2.01172-2.22852-2.01172-1.11328,0-2.06348.83887-2.20801,1.95117-.02637.19629-.14355.36914-.31641.46484-.17285.09766-.38184.10449-.56152.02344-1.12891-.51465-2.38086.33691-2.38086,1.45898,0,.21777.0459.43164.13574.63574.08203.18652.06836.40137-.03809.57617-.10547.1748-.29004.28613-.49414.2998-.66504.04199-1.18555.59375-1.18555,1.25488,0,.69824.56836,1.2666,1.2666,1.2666h3.39746c.34473,0,.625.28027.625.625s-.28027.625-.625.625Z" fill="var(--iconPrimary, #222)"/>
</svg>