<?xml version="1.0" encoding="UTF-8"?>
<svg id="d" data-name="ICONS" xmlns="http://www.w3.org/2000/svg" width="22" height="20" viewBox="0 0 22 20">
  <path d="M15.74219,11.09375l-.87891-1.21484c.77637-.56152,1.68457-.85742,2.62695-.85742v1.5c-.625,0-1.22949.19824-1.74805.57227Z" fill="var(--iconPrimary, #222)" opacity=".35" stroke-width="0"/>
  <path d="M17.49023,18.02148c-2.48145,0-4.5-2.01855-4.5-4.5,0-1.43359.7002-2.7959,1.87305-3.64355l.87891,1.21582c-.7959.5752-1.25195,1.45996-1.25195,2.42773,0,1.6543,1.3457,3,3,3s3-1.3457,3-3-1.3457-3-3-3v-1.5c2.48145,0,4.5,2.01855,4.5,4.5s-2.01855,4.5-4.5,4.5Z" fill="var(--iconBluePrimary, #0265dc)" stroke-width="0"/>
</svg>