<?xml version="1.0" encoding="UTF-8"?>
<svg id="d" data-name="ICONS" xmlns="http://www.w3.org/2000/svg" width="22" height="20" viewBox="0 0 22 20">
  <path d="M17.49023,18.02148c-2.48145,0-4.5-2.01855-4.5-4.5s2.01855-4.5,4.5-4.5v1.5c-1.6543,0-3,1.3457-3,3s1.3457,3,3,3,3-1.3457,3-3c0-.63184-.20361-1.24219-.58838-1.76562l1.20898-.88867c.5752.7832.87939,1.70117.87939,2.6543,0,2.48145-2.01855,4.5-4.5,4.5Z" fill="var(--iconPrimary, #222)" opacity=".35" stroke-width="0"/>
  <path d="M19.90186,11.75586c-.57568-.78418-1.45459-1.23438-2.41162-1.23438v-1.5c1.43945,0,2.75928.67285,3.62061,1.8457l-1.20898.88867Z" fill="var(--iconBluePrimary, #0265dc)" stroke-width="0"/>
</svg>