<?xml version="1.0" encoding="UTF-8"?>
<svg xmlns="http://www.w3.org/2000/svg" width="20" height="20" viewBox="0 0 20 20">
  <path d="M10,18.75c-4.82471,0-8.75-3.9248-8.75-8.75S5.17529,1.25,10,1.25s8.75,3.9248,8.75,8.75-3.92529,8.75-8.75,8.75ZM10,2.75c-3.99756,0-7.25,3.25195-7.25,7.25s3.25244,7.25,7.25,7.25,7.25-3.25195,7.25-7.25-3.25244-7.25-7.25-7.25Z" fill="var(--iconPrimary, #222)"/>
  <path d="M9.18262,13.94336c-.21191,0-.41504-.08984-.55762-.24805l-2.64355-2.93945c-.27686-.30859-.25195-.78223.05615-1.05957s.7832-.25,1.05908.05566l2.02686,2.25391,3.69922-5.0459c.24463-.33398.71582-.4082,1.04834-.16113.33398.24414.40625.71387.16162,1.04785l-4.24512,5.79004c-.13379.18262-.34229.29492-.56738.30566-.0127.00098-.02539.00098-.0376.00098Z" fill="var(--iconPrimary, #222)"/>
</svg>