<?xml version="1.0" encoding="UTF-8"?>
<svg id="d" data-name="ICONS" xmlns="http://www.w3.org/2000/svg" width="22" height="20" viewBox="0 0 22 20">
  <path d="M17.49023,18.02148c-2.48145,0-4.5-2.01855-4.5-4.5s2.01855-4.5,4.5-4.5v1.5c-1.6543,0-3,1.3457-3,3s1.3457,3,3,3,3-1.3457,3-3c0-.94727-.44385-1.82227-1.21826-2.39844l.89648-1.20312c1.15771.86328,1.82178,2.17578,1.82178,3.60156,0,2.48145-2.01855,4.5-4.5,4.5Z" fill="var(--iconPrimary, #222)" opacity=".35" stroke-width="0"/>
  <path d="M19.27246,11.12305c-.52881-.39355-1.14502-.60156-1.78223-.60156v-1.5c.9624,0,1.88818.31055,2.67773.89844l-.89551,1.20312Z" fill="var(--iconBluePrimary, #0265dc)" stroke-width="0"/>
</svg>