<?xml version="1.0" encoding="UTF-8"?>
<svg xmlns="http://www.w3.org/2000/svg" width="14" height="14" viewBox="0 0 14 14">
  <path d="M11.36523,10.31445c-.0752,0-.15137-.0166-.22363-.05273l-.86523-.43164c-.16895-.08398-.27637-.25781-.27637-.44727v-1.34082c0-.27637.22363-.5.5-.5s.5.22363.5.5v1.03125l.58887.29395c.24707.12305.34668.42383.22363.6709-.08691.1748-.26367.27637-.44727.27637Z" fill="var(--iconPrimary, #222)"/>
  <path d="M10.5,12.81152c-1.88867,0-3.4248-1.53711-3.4248-3.42578,0-1.33008.78027-2.55078,1.9873-3.10938.3125-.14355.68555-.00977.83008.30469.14453.31348.00879.68457-.30469.83008-.76758.35449-1.2627,1.12988-1.2627,1.97461,0,1.2002.97559,2.17578,2.1748,2.17578.59668,0,1.15332-.2373,1.56836-.66797.24121-.24707.63672-.25586.88379-.0166.24902.23926.25586.63477.0166.88379-.65234.67773-1.5293,1.05078-2.46875,1.05078Z" fill="var(--iconPrimary, #222)"/>
  <path d="M6.2998,12h-3.69727C1.21484,12,.08594,10.87109.08594,9.4834c0-1.05859.66699-1.97656,1.61426-2.34082-.02148-.14062-.03223-.28223-.03223-.42578,0-1.58105,1.31152-2.86719,2.92285-2.86719.17383,0,.3457.01562.5166.04688.48242-1.36719,1.78516-2.32812,3.27734-2.32812,1.79883,0,3.29102,1.34766,3.47266,3.13477.03418.34375-.21582.65039-.55859.68555-.33594.03125-.65039-.21582-.68555-.55859-.11621-1.14746-1.07422-2.01172-2.22852-2.01172-1.11328,0-2.06348.83887-2.20801,1.95117-.02637.19629-.14355.36914-.31641.46484-.17285.09668-.38184.10449-.56152.02344-1.12891-.51562-2.38086.33691-2.38086,1.45898,0,.21777.0459.43164.13574.63574.08203.18652.06836.40137-.03809.57617-.10547.1748-.29004.28613-.49414.2998-.66504.04199-1.18555.59375-1.18555,1.25488,0,.69824.56836,1.2666,1.2666,1.2666h3.69727c.34473,0,.625.28027.625.625s-.28027.625-.625.625Z" fill="var(--iconPrimary, #222)"/>
  <circle cx="11.22333" cy="6.68452" r=".625" fill="var(--iconPrimary, #222)"/>
  <circle cx="12.79523" cy="7.78579" r=".625" fill="var(--iconPrimary, #222)"/>
  <circle cx="13.2941" cy="9.63066" r=".625" fill="var(--iconPrimary, #222)"/>
</svg>