<?xml version="1.0" encoding="UTF-8"?>
<svg id="d" data-name="ICONS" xmlns="http://www.w3.org/2000/svg" width="22" height="20" viewBox="0 0 22 20">
  <path d="M15.08008,11.75391l-1.20898-.88867c.86133-1.17188,2.18066-1.84375,3.61914-1.84375v1.5c-.95605,0-1.83496.44922-2.41016,1.23242Z" fill="var(--iconPrimary, #222)" opacity=".35" stroke-width="0"/>
  <path d="M17.49023,18.02148c-2.48145,0-4.5-2.01855-4.5-4.5,0-.9541.30469-1.87305.88086-2.65625l1.20898.88867c-.38574.52441-.58984,1.13574-.58984,1.76758,0,1.6543,1.3457,3,3,3s3-1.3457,3-3-1.3457-3-3-3v-1.5c2.48145,0,4.5,2.01855,4.5,4.5s-2.01855,4.5-4.5,4.5Z" fill="var(--iconBluePrimary, #0265dc)" stroke-width="0"/>
</svg>