<?xml version="1.0" encoding="UTF-8"?>
<svg id="d" data-name="ICONS" xmlns="http://www.w3.org/2000/svg" width="22" height="20" viewBox="0 0 22 20">
  <path d="M17.49023,18.02148c-2.48145,0-4.5-2.01855-4.5-4.5s2.01855-4.5,4.5-4.5v1.5c-1.6543,0-3,1.3457-3,3s1.3457,3,3,3c1.29883,0,2.44043-.84082,2.84131-2.09277l1.42871.45703c-.60059,1.87598-2.31641,3.13574-4.27002,3.13574Z" fill="var(--iconPrimary, #222)" opacity=".35" stroke-width="0"/>
  <path d="M21.76025,14.88574l-1.42871-.45703c.1084-.33887.15869-.62695.15869-.90723,0-1.6543-1.3457-3-3-3v-1.5c2.48145,0,4.5,2.01855,4.5,4.5,0,.43359-.0752.87988-.22998,1.36426Z" fill="var(--iconBluePrimary, #0265dc)" stroke-width="0"/>
</svg>