<?xml version="1.0" encoding="UTF-8"?>
<svg xmlns="http://www.w3.org/2000/svg" width="14" height="14" viewBox="0 0 14 14">
  <path d="M5.45996,11.99811h-2.85742C1.21484,11.99811.08594,10.8692.08594,9.48151c0-1.05859.66699-1.97656,1.61426-2.34082-.02148-.14062-.03223-.28223-.03223-.42578,0-1.58105,1.31152-2.86719,2.92285-2.86719.17285,0,.3457.01562.51562.04688.4834-1.36719,1.78613-2.32812,3.27832-2.32812,1.62109,0,3.05371,1.14648,3.40723,2.72559.0752.33691-.13672.6709-.47363.74707-.33301.06836-.6709-.13672-.74707-.47363-.22559-1.01367-1.14551-1.74902-2.18652-1.74902-1.11426,0-2.06348.83887-2.20801,1.95117-.02637.19629-.14355.36914-.31641.46484-.17285.09766-.38184.10449-.56152.02344-1.12891-.51465-2.38086.33691-2.38086,1.45898,0,.21777.0459.43164.13574.63574.08203.18652.06836.40137-.03809.57617-.10547.1748-.29004.28613-.49414.2998-.66504.04199-1.18555.59375-1.18555,1.25488,0,.69824.56836,1.2666,1.2666,1.2666h2.85742c.34473,0,.625.28027.625.625s-.28027.625-.625.625Z" fill="var(--iconPrimary, #222)"/>
  <path d="M13.25586,6.53327c-.27148-.03906-.52344.16016-.55762.43457l-.0072.05737c-.68445-.61499-1.60706-.93774-2.56116-.82983-1.18359.13379-2.20508.90137-2.66406,2.00293-.13281.31836.01855.68457.33691.81738.07812.03223.16016.04785.24023.04785.24414,0,.47656-.14453.57715-.38477.28418-.68262.91699-1.1582,1.65039-1.24121.53101-.0603,1.0387.11145,1.44788.42236l-.14417-.01807c-.26953-.03711-.52441.1582-.55859.43359-.03418.27441.16016.52441.43359.55859l1.49609.1875c.02148.00293.04199.00391.0625.00391.11035,0,.21875-.03711.30664-.10547.10547-.08105.17285-.20117.18945-.33301l.18652-1.49609c.03418-.27344-.16016-.52344-.43457-.55762Z" fill="var(--iconPrimary, #222)"/>
  <path d="M13.18164,9.9942c-.31152-.14355-.68457-.00293-.82715.31152-.29883.66016-.90723,1.10352-1.62402,1.18457-.5354.06006-1.04993-.10889-1.46082-.4248l.15613.01953c.26758.03418.52441-.15918.55859-.43359s-.16016-.52441-.43359-.55859l-1.49609-.1875c-.1377-.01953-.26465.02051-.36914.10156-.10547.08105-.17285.20117-.18945.33301l-.18652,1.49609c-.03418.27344.16016.52344.43457.55762.02051.00293.04199.00391.0625.00391.24805,0,.46387-.18555.49512-.43848l.00684-.05396c.59839.53711,1.37732.8479,2.19531.8479.12109,0,.24414-.00684.36621-.02051,1.14258-.12988,2.14746-.86133,2.62305-1.91113.14258-.31445.00293-.68457-.31152-.82715Z" fill="var(--iconPrimary, #222)"/>
</svg>