<?xml version="1.0" encoding="UTF-8"?>
<svg id="d" data-name="ICONS" xmlns="http://www.w3.org/2000/svg" width="22" height="20" viewBox="0 0 22 20">
  <path d="M17.49023,18.02148c-2.48145,0-4.5-2.01855-4.5-4.5s2.01855-4.5,4.5-4.5v1.5c-1.6543,0-3,1.3457-3,3s1.3457,3,3,3,3-1.3457,3-3c0-.29004-.05469-.5957-.16699-.93555l1.42383-.4707c.16357.49316.24316.9541.24316,1.40625,0,2.48145-2.01855,4.5-4.5,4.5Z" fill="var(--iconPrimary, #222)" opacity=".35" stroke-width="0"/>
  <path d="M20.32324,12.58594c-.40869-1.23438-1.54688-2.06445-2.83301-2.06445v-1.5c1.93408,0,3.64502,1.24316,4.25684,3.09375l-1.42383.4707Z" fill="var(--iconBluePrimary, #0265dc)" stroke-width="0"/>
</svg>