<?xml version="1.0" encoding="UTF-8"?>
<svg id="d" data-name="ICONS" xmlns="http://www.w3.org/2000/svg" width="22" height="20" viewBox="0 0 22 20">
  <path d="M16.09473,17.78125c-1.85645-.60742-3.10449-2.31934-3.10449-4.25977,0-2.48145,2.01855-4.5,4.5-4.5v1.5c-1.6543,0-3,1.3457-3,3,0,1.29004.83203,2.42871,2.07129,2.83398l-.4668,1.42578Z" fill="var(--iconPrimary, #222)" opacity=".35" stroke-width="0"/>
  <path d="M17.49023,18.02148c-.44727,0-.9043-.0791-1.39648-.24023l.46875-1.42578c.33887.1123.64258.16602.92773.16602,1.6543,0,3-1.3457,3-3s-1.3457-3-3-3v-1.5c2.48145,0,4.5,2.01855,4.5,4.5s-2.01855,4.5-4.5,4.5Z" fill="var(--iconBluePrimary, #0265dc)" stroke-width="0"/>
</svg>