<?xml version="1.0" encoding="UTF-8"?>
<svg id="d" data-name="ICONS" xmlns="http://www.w3.org/2000/svg" width="22" height="20" viewBox="0 0 22 20">
  <path d="M14.65723,12.58496l-1.42383-.4707c.61133-1.84961,2.32227-3.09277,4.25684-3.09277v1.5c-1.28613,0-2.4248.8291-2.83301,2.06348Z" fill="var(--iconPrimary, #222)" opacity=".35" stroke-width="0"/>
  <path d="M17.49023,18.02148c-2.48145,0-4.5-2.01855-4.5-4.5,0-.4541.0791-.91406.24316-1.4082l1.42383.47266c-.1123.33887-.16699.64453-.16699.93555,0,1.6543,1.3457,3,3,3s3-1.3457,3-3-1.3457-3-3-3v-1.5c2.48145,0,4.5,2.01855,4.5,4.5s-2.01855,4.5-4.5,4.5Z" fill="var(--iconBluePrimary, #0265dc)" stroke-width="0"/>
</svg>