<?xml version="1.0" encoding="UTF-8"?>
<svg id="d" data-name="ICONS" xmlns="http://www.w3.org/2000/svg" width="22" height="20" viewBox="0 0 22 20">
  <path d="M13.84375,16.14355c-.55859-.77441-.85352-1.68066-.85352-2.62207,0-2.48145,2.01855-4.5,4.5-4.5v1.5c-1.6543,0-3,1.3457-3,3,0,.62402.19727,1.22754.57031,1.74512l-1.2168.87695Z" fill="var(--iconPrimary, #222)" opacity=".35" stroke-width="0"/>
  <path d="M17.49023,18.02148c-1.43652,0-2.7998-.70215-3.64648-1.87793l1.2168-.87695c.56641.78613,1.47461,1.25488,2.42969,1.25488,1.6543,0,3-1.3457,3-3s-1.3457-3-3-3v-1.5c2.48145,0,4.5,2.01855,4.5,4.5s-2.01855,4.5-4.5,4.5Z" fill="var(--iconBluePrimary, #0265dc)" stroke-width="0"/>
</svg>