<?xml version="1.0" encoding="UTF-8"?>
<svg id="d" data-name="ICONS" xmlns="http://www.w3.org/2000/svg" width="22" height="20" viewBox="0 0 22 20">
  <polygon points="20.49805 13.62598 20.48828 13.50195 21.23828 13.50195 21.98047 13.39746 21.99023 13.52148 20.49023 13.52148 21.24023 13.52148 20.49805 13.62598" stroke-width="0"/>
  <path d="M17.49023,18.02148c-2.48145,0-4.5-2.01855-4.5-4.5s2.01855-4.5,4.5-4.5v1.5c-1.6543,0-3,1.3457-3,3s1.3457,3,3,3,3-1.3457,3-3h1.5c0,2.48145-2.01855,4.5-4.5,4.5Z" fill="var(--iconPrimary, #222)" opacity=".35" stroke-width="0"/>
  <path d="M20.48828,13.50586c-.00879-1.64551-1.35352-2.98438-2.99805-2.98438v-1.5c2.46729,0,4.48535,2.00781,4.49805,4.47656l-1.5.00781Z" fill="var(--iconBluePrimary, #0265dc)" stroke-width="0"/>
</svg>