<?xml version="1.0" encoding="UTF-8"?>
<svg id="d" data-name="ICONS" xmlns="http://www.w3.org/2000/svg" width="22" height="20" viewBox="0 0 22 20">
  <path d="M17.49023,18.02148c-2.48145,0-4.5-2.01855-4.5-4.5s2.01855-4.5,4.5-4.5v1.5c-1.6543,0-3,1.3457-3,3s1.3457,3,3,3c.96777,0,1.85254-.45605,2.42725-1.25293l1.21582.87891c-.84717,1.17285-2.20947,1.87402-3.64307,1.87402Z" fill="var(--iconPrimary, #222)" opacity=".35" stroke-width="0"/>
  <path d="M21.1333,16.14746l-1.21582-.87891c.37451-.51855.57275-1.12207.57275-1.74707,0-1.6543-1.3457-3-3-3v-1.5c2.48145,0,4.5,2.01855,4.5,4.5,0,.94238-.29639,1.84961-.85693,2.62598Z" fill="var(--iconBluePrimary, #0265dc)" stroke-width="0"/>
</svg>