<?xml version="1.0" encoding="UTF-8"?>
<svg id="d" data-name="ICONS" xmlns="http://www.w3.org/2000/svg" width="22" height="20" viewBox="0 0 22 20">
  <path d="M14.83691,17.1416c-1.15625-.84766-1.84668-2.20117-1.84668-3.62012,0-2.48145,2.01855-4.5,4.5-4.5v1.5c-1.6543,0-3,1.3457-3,3,0,.95703.44922,1.83594,1.2334,2.41113l-.88672,1.20898Z" fill="var(--iconPrimary, #222)" opacity=".35" stroke-width="0"/>
  <path d="M17.49023,18.02148c-.95215,0-1.87012-.30469-2.6543-.87988l.88867-1.20898c.52441.38477,1.13477.58887,1.76562.58887,1.6543,0,3-1.3457,3-3s-1.3457-3-3-3v-1.5c2.48145,0,4.5,2.01855,4.5,4.5s-2.01855,4.5-4.5,4.5Z" fill="var(--iconBluePrimary, #0265dc)" stroke-width="0"/>
</svg>