<?xml version="1.0" encoding="UTF-8"?>
<svg id="d" data-name="ICONS" xmlns="http://www.w3.org/2000/svg" width="22" height="20" viewBox="0 0 22 20">
  <path d="M13.22168,14.88965c-.15625-.4834-.23145-.93164-.23145-1.36816,0-2.48145,2.01855-4.5,4.5-4.5v1.5c-1.6543,0-3,1.3457-3,3,0,.27832.05176.57617.15918.90918l-1.42773.45898Z" fill="var(--iconPrimary, #222)" opacity=".35" stroke-width="0"/>
  <path d="M17.49023,18.02148c-1.95312,0-3.66895-1.25879-4.26855-3.13281l1.42773-.45703c.40039,1.25,1.54199,2.08984,2.84082,2.08984,1.6543,0,3-1.3457,3-3s-1.3457-3-3-3v-1.5c2.48145,0,4.5,2.01855,4.5,4.5s-2.01855,4.5-4.5,4.5Z" fill="var(--iconBluePrimary, #0265dc)" stroke-width="0"/>
</svg>