<?xml version="1.0" encoding="UTF-8"?>
<svg id="e" data-name="ICONS" xmlns="http://www.w3.org/2000/svg" width="20" height="20" viewBox="0 0 20 20">
  <path d="M7.25,18h-3c-1.24023,0-2.25-1.00977-2.25-2.25V4.25c0-1.24023,1.00977-2.25,2.25-2.25h3c1.24023,0,2.25,1.00977,2.25,2.25v11.5c0,1.24023-1.00977,2.25-2.25,2.25ZM4.25,3.5c-.41309,0-.75.33691-.75.75v11.5c0,.41309.33691.75.75.75h3c.41309,0,.75-.33691.75-.75V4.25c0-.41309-.33691-.75-.75-.75h-3Z" fill="var(--iconPrimary, #222)"/>
  <path d="M15.75,8.5h-2.5c-1.24023,0-2.25-1.00977-2.25-2.25v-2c0-1.24023,1.00977-2.25,2.25-2.25h2.5c1.24023,0,2.25,1.00977,2.25,2.25v2c0,1.24023-1.00977,2.25-2.25,2.25ZM13.25,3.5c-.41309,0-.75.33691-.75.75v2c0,.41309.33691.75.75.75h2.5c.41309,0,.75-.33691.75-.75v-2c0-.41309-.33691-.75-.75-.75h-2.5Z" fill="var(--iconPrimary, #222)"/>
  <path d="M15.75,18h-2.5c-1.24023,0-2.25-1.00977-2.25-2.25v-3.5c0-1.24023,1.00977-2.25,2.25-2.25h2.5c1.24023,0,2.25,1.00977,2.25,2.25v3.5c0,1.24023-1.00977,2.25-2.25,2.25ZM13.25,11.5c-.41309,0-.75.33691-.75.75v3.5c0,.41309.33691.75.75.75h2.5c.41309,0,.75-.33691.75-.75v-3.5c0-.41309-.33691-.75-.75-.75h-2.5Z" fill="var(--iconPrimary, #222)"/>
</svg>