<?xml version="1.0" encoding="UTF-8"?>
<svg   xmlns="http://www.w3.org/2000/svg" width="20" height="20" viewBox="0 0 20 20">
  <path d="M10,6.93457c-1.5166,0-2.75-1.2334-2.75-2.75s1.2334-2.75,2.75-2.75,2.75,1.2334,2.75,2.75-1.2334,2.75-2.75,2.75ZM10,2.93457c-.68945,0-1.25.56055-1.25,1.25s.56055,1.25,1.25,1.25,1.25-.56055,1.25-1.25-.56055-1.25-1.25-1.25Z" fill="var(--iconPrimary, #222)" stroke-width="0"/>
  <path d="M15.97021,17.20898c-1.5166,0-2.75-1.2334-2.75-2.75s1.2334-2.75,2.75-2.75,2.75,1.2334,2.75,2.75-1.2334,2.75-2.75,2.75ZM15.97021,13.20898c-.68945,0-1.25.56055-1.25,1.25s.56055,1.25,1.25,1.25,1.25-.56055,1.25-1.25-.56055-1.25-1.25-1.25Z" fill="var(--iconPrimary, #222)" stroke-width="0"/>
  <path d="M16.55713,10.26855c-.34424,0-.6543-.23828-.73193-.58789-.25732-1.16113-.854-2.20996-1.7251-3.03418-.30127-.28516-.31445-.75977-.02979-1.06055.28467-.2998.76025-.3125,1.06006-.0293,1.09033,1.03125,1.83691,2.34473,2.15967,3.7998.08936.4043-.16553.80469-.56982.89453-.05469.01172-.10938.01758-.16309.01758Z" fill="var(--iconPrimary, #222)" stroke-width="0"/>
  <path d="M10,18.44922c-.73682,0-1.46777-.1084-2.17285-.32324-.396-.12109-.61963-.54004-.49854-.93652.12012-.39648.54004-.61719.93604-.49902,1.12598.34375,2.34473.34375,3.4707,0,.39404-.11719.81543.10254.93604.49902.12109.39648-.10254.81543-.49854.93652-.70508.21484-1.43604.32324-2.17285.32324Z" fill="var(--iconPrimary, #222)" stroke-width="0"/>
  <path d="M3.44287,10.26855c-.05371,0-.1084-.00586-.16309-.01758-.4043-.08984-.65918-.49023-.56982-.89453.32275-1.45508,1.06934-2.76855,2.15967-3.7998.2998-.2832.7749-.27051,1.06006.0293.28467.30078.27148.77539-.02979,1.06055-.87109.82422-1.46777,1.87305-1.7251,3.03418-.07764.34961-.3877.58789-.73193.58789Z" fill="var(--iconPrimary, #222)" stroke-width="0"/>
  <path d="M4.02979,17.20898c-1.5166,0-2.75-1.2334-2.75-2.75s1.2334-2.75,2.75-2.75,2.75,1.2334,2.75,2.75-1.2334,2.75-2.75,2.75ZM4.02979,13.20898c-.68945,0-1.25.56055-1.25,1.25s.56055,1.25,1.25,1.25,1.25-.56055,1.25-1.25-.56055-1.25-1.25-1.25Z" fill="var(--iconPrimary, #222)" stroke-width="0"/>
</svg>