<?xml version="1.0" encoding="UTF-8"?>
<svg   xmlns="http://www.w3.org/2000/svg" width="20" height="20" viewBox="0 0 20 20">
  <path d="M12.7998,19.5c-.8813,0-1.71-.3437-2.333-.9668-.62354-.623-.9668-1.4512-.9668-2.333s.34326-1.71.9668-2.333l.1016-.1025c.2924-.294.7675-.294,1.061-.002s.2944.7666.0024,1.0606l-.103.1035c-.3418.3408-.5288.7929-.5288,1.2734s.187.9326.5273,1.2725c.6807.6806,1.8667.6797,2.5454,0l.104-.1035c.2935-.2911.7686-.293,1.0611.0019.292.294.291.7686-.0025,1.0606l-.103.1025c-.6221.6221-1.4507.9658-2.3325.9658Z" fill="var(--iconPrimary, #222)" stroke-width="0"/>
  <path d="M17.8999,15.4561c-.1914,0-.3828-.0733-.5293-.2188-.2935-.292-.2944-.7666-.0024-1.0605l.103-.1036c.3418-.3408.5288-.7929.5288-1.2734s-.187-.9326-.5273-1.2725c-.6797-.6796-1.8658-.6787-2.5454,0l-.104.1036c-.294.292-.7691.292-1.0611-.002-.292-.2939-.291-.7685.0025-1.0605l.103-.1026c1.2436-1.24412,3.4189-1.2451,4.6655.001.6236.6231.9668,1.4512.9668,2.333,0,.8819-.3432,1.71-.9668,2.333l-.1015.1026c-.1465.1474-.3394.2207-.5318.2207Z" fill="var(--iconPrimary, #222)" stroke-width="0"/>
  <path d="M13.3667,16.3838c-.1919,0-.3838-.0732-.5303-.2197-.2929-.293-.2929-.7676,0-1.0606l2.2666-2.2676c.293-.2929.7676-.2929,1.0606,0,.2929.293.2929.7676,0,1.0606l-2.2666,2.2676c-.1465.1464-.3384.2197-.5303.2197Z" fill="var(--iconPrimary, #222)" stroke-width="0"/>
  <path d="M16.75,3H3.25c-1.24072,0-2.25,1.00977-2.25,2.25v9.5c0,1.24023,1.00928,2.25,2.25,2.25h4c.41406,0,.75-.33594.75-.75,0-.0686-.02179-.13025-.03906-.19336h.03906v-5.30664h3.25c.41406,0,.75-.33594.75-.75s-.33594-.75-.75-.75h-3.25v-4.75h4v3.75781c0,.41406.33594.75.75.75s.75-.33594.75-.75v-3.75781h3.25c.41357,0,.75.33691.75.75v2.19629c0,.41406.33594.75.75.75s.75-.33594.75-.75v-2.19629c0-1.24023-1.00928-2.25-2.25-2.25ZM6.5,15.5h-3.25c-.41357,0-.75-.33691-.75-.75v-4h4v4.75ZM6.5,9.25H2.5v-4c0-.41309.33643-.75.75-.75h3.25v4.75Z" fill="var(--iconPrimary, #222)" stroke-width="0"/>
</svg>