<?xml version="1.0" encoding="UTF-8"?>
<svg   xmlns="http://www.w3.org/2000/svg" width="20" height="20" viewBox="0 0 20 20">
  <path d="M16.75,3H3.25c-1.24072,0-2.25,1.00977-2.25,2.25v9.5c0,1.24023,1.00928,2.25,2.25,2.25h3.84375c.03802,0,.07062-.01611.10712-.02173.01715.00122.03174.01001.04913.01001.41406,0,.75-.33594.75-.75v-5.48828h1.5c.41406,0,.75-.33594.75-.75s-.33594-.75-.75-.75h-1.5v-4.75h4v3.75c0,.41406.33594.75.75.75s.75-.33594.75-.75v-3.75h3.25c.41357,0,.75.33691.75.75v3c0,.41406.33594.75.75.75s.75-.33594.75-.75v-3c0-1.24023-1.00928-2.25-2.25-2.25ZM6.5,15.5h-3.25c-.41357,0-.75-.33691-.75-.75v-4h4v4.75ZM6.5,9.25H2.5v-4c0-.41309.33643-.75.75-.75h3.25v4.75Z" fill="var(--iconPrimary, #222)" stroke-width="0"/>
  <path d="M15,10.521c-2.48529,0-4.5,2.01489-4.5,4.5,0,2.48535,2.01471,4.5,4.5,4.5s4.5-2.01465,4.5-4.5c0-2.48511-2.01471-4.5-4.5-4.5ZM17.5,15.64648h-1.875v1.875c0,.34473-.27979.625-.625.625s-.625-.28027-.625-.625v-1.875h-1.875c-.34521,0-.625-.28027-.625-.625s.27979-.625.625-.625h1.875v-1.875c0-.34473.27979-.625.625-.625s.625.28027.625.625v1.875h1.875c.34521,0,.625.28027.625.625s-.27979.625-.625.625Z" fill="var(--iconPrimary, #222)" stroke-width="0"/>
</svg>