<?xml version="1.0" encoding="UTF-8"?>
<svg   xmlns="http://www.w3.org/2000/svg" width="20" height="20" viewBox="0 0 20 20">
  <path d="M8,10.75h3.25c.41406,0,.75-.33594.75-.75s-.33594-.75-.75-.75h-3.25v-4.75h4v3.75781c0,.41406.33594.75.75.75s.75-.33594.75-.75v-3.75781h3.25c.41309,0,.75.33691.75.75v2.19629c0,.41406.33594.75.75.75s.75-.33594.75-.75v-2.19629c0-1.24023-1.00977-2.25-2.25-2.25H3.25c-1.24023,0-2.25,1.00977-2.25,2.25v9.5c0,1.24023,1.00977,2.25,2.25,2.25h4c.41406,0,.75-.33594.75-.75,0-.0686-.02173-.13025-.03906-.19336h.03906v-5.30664ZM3.25,4.5h3.25v4.75H2.5v-4c0-.41309.33691-.75.75-.75ZM2.5,14.75v-4h4v4.75h-3.25c-.41309,0-.75-.33691-.75-.75Z" fill="var(--iconPrimary, #222)"/>
  <path d="M18.55273,10.09473c-.9668-.79395-2.45312-.6875-3.37891.23926l-4.18359,4.18262c-.24707.24707-.43164.55469-.53223.88965l-.9541,3.16016c-.08008.26465-.00781.55176.1875.74707.14258.14258.33398.21973.53027.21973.07227,0,.14551-.01074.2168-.03223l3.1582-.95312c.33496-.10059.64258-.28516.89062-.5332l4.25293-4.25293c.49316-.49316.75684-1.17676.72168-1.87305s-.36621-1.35059-.90918-1.79395ZM11.34375,17.66113l.5498-1.82129c.01758-.05713.05859-.10205.09106-.1521l1.33215,1.33215c-.05017.03259-.09534.07385-.15271.09143l-1.82031.5498ZM17.67969,12.70117l-3.45605,3.45605-1.37634-1.37634,3.38708-3.38635c.3877-.3877.98828-.45117,1.36914-.13867.21875.17773.34668.42969.36035.70703.01367.2793-.08691.54102-.28418.73828Z" fill="var(--iconPrimary, #222)"/>
</svg>