<?xml version="1.0" encoding="UTF-8"?>
<svg id="e" data-name="ICONS" xmlns="http://www.w3.org/2000/svg" width="20" height="20" viewBox="0 0 20 20">
  <path d="M15.75,18H4.25c-1.24023,0-2.25-1.00977-2.25-2.25v-7c0-.41406.33594-.75.75-.75s.75.33594.75.75v7c0,.41309.33691.75.75.75h11.5c.41309,0,.75-.33691.75-.75V4.25c0-.41309-.33691-.75-.75-.75h-3c-.41406,0-.75-.33594-.75-.75s.33594-.75.75-.75h3c1.24023,0,2.25,1.00977,2.25,2.25v11.5c0,1.24023-1.00977,2.25-2.25,2.25Z" fill="var(--iconPrimary, #222)"/>
  <path d="M8.75,7h-4.5c-1.24023,0-2.25-1.00977-2.25-2.25v-.5c0-1.24023,1.00977-2.25,2.25-2.25h4.5c1.24023,0,2.25,1.00977,2.25,2.25v.5c0,1.24023-1.00977,2.25-2.25,2.25ZM4.25,3.5c-.41309,0-.75.33691-.75.75v.5c0,.41309.33691.75.75.75h4.5c.41309,0,.75-.33691.75-.75v-.5c0-.41309-.33691-.75-.75-.75h-4.5Z" fill="var(--iconPrimary, #222)"/>
</svg>