<?xml version="1.0" encoding="UTF-8"?>
<svg xmlns="http://www.w3.org/2000/svg" width="20" height="20" viewBox="0 0 20 20">
  <path d="M10,3.5V0c-2.76147,0-5.11841.97632-7.07104,2.92896l2.47485,2.47485c1.17627-1.17627,2.80127-1.90381,4.59619-1.90381Z" fill="#fe00fe"/>
  <path d="M5.40381,5.40381l-2.47485-2.47485C.97632,4.88159,0,7.23853,0,10h3.5c0-1.79492.72754-3.41992,1.90381-4.59619Z" fill="#a600fe"/>
  <path d="M0,10c0,2.76147.97632,5.11841,2.92896,7.07104l2.47485-2.47485c-1.17627-1.17627-1.90381-2.80127-1.90381-4.59619H0Z" fill="#2c7be6"/>
  <path d="M2.92896,17.07104c1.95264,1.95264,4.30957,2.92896,7.07104,2.92896v-3.5c-1.79492,0-3.41992-.72754-4.59619-1.90381l-2.47485,2.47485Z" fill="#00d7ec"/>
  <path d="M14.59619,14.59619c-1.17627,1.17627-2.80127,1.90381-4.59619,1.90381v3.5c2.76147,0,5.11841-.97632,7.07104-2.92896l-2.47485-2.47485Z" fill="#3cc13d"/>
  <path d="M16.5,10c0,1.79492-.72754,3.41992-1.90381,4.59619l2.47485,2.47485c1.95264-1.95264,2.92896-4.30957,2.92896-7.07104h-3.5Z" fill="#f2ca22"/>
  <path d="M17.07104,2.92896l-2.47485,2.47485c1.17627,1.17627,1.90381,2.80127,1.90381,4.59619h3.5c0-2.76147-.97632-5.11841-2.92896-7.07104Z" fill="#fc892b"/>
  <path d="M17.07104,2.92896c-1.95264-1.95264-4.30957-2.92896-7.07104-2.92896v3.5c1.79492,0,3.41992.72754,4.59619,1.90381l2.47485-2.47485Z" fill="#ec1d24"/>
</svg>