<?xml version="1.0" encoding="UTF-8"?>
<svg id="f" data-name="ICONS" xmlns="http://www.w3.org/2000/svg" width="20" height="20" viewBox="0 0 20 20">
  <path d="M5.50006,5.49814c0-.27614-.22386-.5-.5-.5s-.5.22386-.5.5v2c0,.27614.22386.5.5.5s.5-.22386.5-.5v-2Z" fill="var(--iconPrimary, #222)" opacity=".5"/>
  <path d="M13.00006,6.49814c0-.27614-.2239-.5-.5-.5s-.5.22386-.5.5v1.5c0,.27614.2239.5.5.5s.5-.22386.5-.5v-1.5Z" fill="var(--iconPrimary, #222)"/>
  <path d="M7.25,11.99814c.27614,0,.5-.2239.5-.5s-.22386-.5-.5-.5h-1.5c-.27614,0-.5.2239-.5.5s.22386.5.5.5h1.5Z" fill="var(--iconPrimary, #222)" opacity=".5"/>
  <path d="M14.5,9.99812c0,.27614.2239.5.5.5s.5-.22386.5-.5v-.74995c0-.27614-.2239-.5-.5-.5s-.5.22386-.5.5v.74995Z" fill="var(--iconPrimary, #222)"/>
  <path d="M8.25009,6.99814h-.75c-.27614,0-.5.22386-.5.5v1.75c0,.27614.22386.5.5.5h.75c.27614,0,.5-.22386.5-.5v-1.75c0-.27614-.22386-.5-.5-.5Z" fill="var(--iconPrimary, #222)"/>
  <path d="M15.75,17.99805H4.25c-1.24072,0-2.25-1.00977-2.25-2.25V4.24805c0-1.24023,1.00928-2.25,2.25-2.25h11.5c1.24072,0,2.25,1.00977,2.25,2.25v11.5c0,1.24023-1.00928,2.25-2.25,2.25ZM4.25,3.49805c-.41357,0-.75.33691-.75.75v11.5c0,.41309.33643.75.75.75h11.5c.41357,0,.75-.33691.75-.75V4.24805c0-.41309-.33643-.75-.75-.75H4.25Z" fill="var(--iconPrimary, #222)"/>
  <path d="M6.12506,13.49817h-.25c-.27614,0-.5.2239-.5.5v1c0,.2761.22386.5.5.5h.25c.27614,0,.5-.2239.5-.5v-1c0-.2761-.22386-.5-.5-.5Z" fill="var(--iconPrimary, #222)"/>
  <path d="M10.5,5.24814v-.25c0-.27614-.2239-.5-.5-.5h-1c-.2761,0-.5.22386-.5.5v.25c0,.27614.2239.5.5.5h1c.2761,0,.5-.22386.5-.5Z" fill="var(--iconPrimary, #222)"/>
  <path d="M14.25,15.00005v-.25c0-.27614-.2239-.5-.5-.5h-.25c-.2761,0-.5.22386-.5.5v.25c0,.27614.2239.5.5.5h.25c.2761,0,.5-.22386.5-.5Z" fill="var(--iconPrimary, #222)"/>
  <path d="M15.00006,3.99814h-.5c-.2761,0-.5.22386-.5.5v1.25c0,.27614.2239.5.5.5h.5c.2761,0,.5-.22386.5-.5v-1.25c0-.27614-.2239-.5-.5-.5Z" fill="var(--iconPrimary, #222)" opacity=".5"/>
  <path d="M12.375,12.59814v-.7c0-.2209.199-.4.4444-.4h2.1111c.2455,0,.4445.1791.4445.4v.7c0,.2209-.199.4-.4445.4h-2.1111c-.2454,0-.4444-.1791-.4444-.4Z" fill="var(--iconPrimary, #222)"/>
  <path d="M10.25,10.50005h-.5c-.27614,0-.5.22386-.5.5v3.5c0,.2761.22386.5.5.5h.5c.27614,0,.5-.2239.5-.5v-3.5c0-.27614-.22386-.5-.5-.5Z" fill="var(--iconPrimary, #222)" opacity=".5"/>
</svg>