<?xml version="1.0" encoding="UTF-8"?>
<svg xmlns="http://www.w3.org/2000/svg" width="20" height="20" viewBox="0 0 20 20">
  <path d="m5,17.75c-2.06787,0-3.75-1.68262-3.75-3.75s1.68213-3.75,3.75-3.75,3.75,1.68262,3.75,3.75-1.68213,3.75-3.75,3.75Zm0-6c-1.24072,0-2.25,1.00977-2.25,2.25s1.00928,2.25,2.25,2.25,2.25-1.00977,2.25-2.25-1.00928-2.25-2.25-2.25Z" fill="var(--iconPrimary, #222)"/>
  <circle cx="5" cy="14" r="2.25" fill="var(--iconPrimary, #222)" opacity=".6"/>
  <path d="m15,17.75c-2.06787,0-3.75-1.68262-3.75-3.75s1.68213-3.75,3.75-3.75,3.75,1.68262,3.75,3.75-1.68213,3.75-3.75,3.75Zm0-6c-1.24072,0-2.25,1.00977-2.25,2.25s1.00928,2.25,2.25,2.25,2.25-1.00977,2.25-2.25-1.00928-2.25-2.25-2.25Z" fill="var(--iconPrimary, #222)"/>
  <circle cx="15" cy="14" r="2.25" fill="var(--iconPrimary, #222)" opacity=".3"/>
  <path d="m10,8.75c-2.06787,0-3.75-1.68262-3.75-3.75s1.68213-3.75,3.75-3.75,3.75,1.68262,3.75,3.75-1.68213,3.75-3.75,3.75Zm0-6c-1.24072,0-2.25,1.00977-2.25,2.25s1.00928,2.25,2.25,2.25,2.25-1.00977,2.25-2.25-1.00928-2.25-2.25-2.25Z" fill="var(--iconPrimary, #222)"/>
</svg>