<?xml version="1.0" encoding="UTF-8"?>
<svg xmlns="http://www.w3.org/2000/svg" width="20" height="20" viewBox="0 0 20 20">
  <path d="M15,10.5c-2.48529,0-4.5,2.01471-4.5,4.5s2.01471,4.5,4.5,4.5,4.5-2.01471,4.5-4.5-2.01471-4.5-4.5-4.5ZM17.5,15.625h-1.875v1.875c0,.34473-.28027.625-.625.625s-.625-.28027-.625-.625v-1.875h-1.875c-.34473,0-.625-.28027-.625-.625s.28027-.625.625-.625h1.875v-1.875c0-.34473.28027-.625.625-.625s.625.28027.625.625v1.875h1.875c.34473,0,.625.28027.625.625s-.28027.625-.625.625Z" fill="var(--iconPrimary, #222)"/>
  <path d="M17.01758,6.81738l-3.19043-3.19043,2.0625-2.0625c.29297-.29297.29297-.76758,0-1.06055s-.76758-.29297-1.06055,0l-2.0625,2.0625-1.2627-1.2627c-.83203-.83203-2.18457-.83398-3.0166,0l-4.28906,4.28516c-.07947.07959-.146.16821-.21118.25732-.26306.22974-.52686.48901-.75146.76416-.76843.94141-1.27869,4.125-1.32056,5.33472-.04199,1.20972.47021,1.71606,1.23975,1.78735.14722.02588.29749.02686.44482.00293.72766-.11768,1.22217-.80273,1.10449-1.53027-.17798-1.00635-1.24561-1.95605-.86597-4.09814.09741.17969.21216.35107.36108.49951l4.37109,4.37109c.14648.14648.33789.21973.53027.21973s.38379-.07324.53027-.21973c.29297-.29297.29297-.76758,0-1.06055l-4.37109-4.37207c-.12012-.11914-.18555-.27734-.18555-.44629,0-.16992.06641-.3291.18555-.44922l4.28809-4.28516c.24512-.24512.64844-.24707.89551,0l1.2627,1.2627-2.37695,2.37695c-.29297.29297-.29297.76758,0,1.06055.14648.14648.33789.21973.53027.21973s.38379-.07324.53027-.21973l2.37695-2.37695,3.18945,3.18945c.19922.2002.27051.49121.18555.76074-.125.39551.09473.81641.48926.94141.39648.12207.81641-.0957.94043-.49023.25391-.80469.04199-1.6748-.55371-2.27148Z" fill="var(--iconPrimary, #222)"/>
</svg>