<?xml version="1.0" encoding="UTF-8"?>
<svg id="e" data-name="ICONS" xmlns="http://www.w3.org/2000/svg" width="20" height="20" viewBox="0 0 20 20">
  <path d="M10,1.75C5.45117,1.75,1.75,5.45117,1.75,10s3.70117,8.25,8.25,8.25,8.25-3.70117,8.25-8.25S14.54883,1.75,10,1.75ZM9.99927,9.99976l-.00745-6.74927c.00275,0,.00543-.00049.00818-.00049,2.4848,0,4.65454,1.35327,5.82623,3.35791.5835.99805.92377,2.15479.92377,3.39209,0,1.22852-.33521,2.37793-.91107,3.37134-1.16876,2.01611-3.3454,3.37866-5.83893,3.37866-.00824,0-.01624-.00122-.02448-.00122-2.492-.00903-4.66534-1.37744-5.82721-3.39868-.56824-.98853-.89832-2.13037-.89832-3.3501,0-1.22852.33514-2.37769.91095-3.37109l5.83832,3.37085Z" fill="var(--iconPrimary, #222)"/>
  <path d="M4.16095,6.62891c-.57581.99341-.91095,2.14258-.91095,3.37109,0,1.21973.33008,2.36157.89832,3.3501l5.85095-3.35034-5.83832-3.37085Z" fill="var(--iconPrimary, #222)" opacity=".7"/>
  <path d="M4.14832,13.3501c1.16187,2.02124,3.33521,3.38965,5.82721,3.39868l.02374-6.74902-5.85095,3.35034Z" fill="var(--iconPrimary, #222)" opacity=".5"/>
  <path d="M9.99927,9.99976l-.02374,6.74902c.00824,0,.01624.00122.02448.00122,2.49353,0,4.67017-1.36255,5.83893-3.37866l-5.83966-3.37158Z" fill="var(--iconPrimary, #222)" opacity=".35"/>
  <path d="M9.99927,9.99976l5.83966,3.37158c.57587-.99341.91107-2.14282.91107-3.37134,0-1.2373-.34027-2.39404-.92377-3.39209l-5.82697,3.39185h0Z" fill="var(--iconPrimary, #222)" opacity=".12"/>
</svg>