<?xml version="1.0" encoding="UTF-8"?>
<svg id="e" data-name="ICONS" xmlns="http://www.w3.org/2000/svg" width="20" height="20" viewBox="0 0 20 20">
  <circle cx="10.85885" cy="5.52114" r="1.5" fill="var(--iconPrimary, #222)"/>
  <circle cx="6.85885" cy="7.52114" r="1.5" fill="var(--iconPrimary, #222)"/>
  <circle cx="14.025" cy="14.43005" r="1.11096" fill="var(--iconPrimary, #222)"/>
  <path d="M8.25171,11.97168c-.21948-.55566-.75879-.95068-1.39282-.95068-.82849,0-1.5.67188-1.5,1.5,0,.82861.67151,1.5,1.5,1.5.11401,0,.22412-.01514.33081-.03906.04541-.81104.44849-1.53613,1.06201-2.01025Z" fill="var(--iconPrimary, #222)"/>
  <path d="M15.83008,19.49805c-.43652,0-.86523-.20801-1.12598-.58789l-.3916-.56934c-.10059.00781-.19531,0-.30469.01172-.10254-.00098-.2041-.00586-.30469-.01465l-.39746.56641c-.40137.57324-1.19336.74707-1.79785.39453l-.48047-.28027c-.60742-.35352-.8457-1.12793-.54199-1.76074l.29785-.62402c-.11426-.16797-.21484-.34473-.30176-.52832l-.69043-.06055c-.69922-.06152-1.24512-.65918-1.24121-1.36133l.00293-.55664c.00195-.7002.55176-1.29297,1.25195-1.34863l.69141-.05469c.08887-.18359.19043-.35938.30566-.52539l-.29199-.62793c-.2959-.63672-.05078-1.40723.55859-1.75488l.48145-.27539c.62109-.35547,1.39062-.17773,1.7959.40918l.3916.57031c.10059-.00879.1748-.0127.30566-.01172.10254.00098.2041.00586.30469.01367l.39648-.56543c.40137-.57617,1.19336-.74805,1.79785-.39453l.48047.28027c.60742.35352.8457,1.12695.54199,1.75977l-.29688.625c.11426.16895.21484.34473.30078.52832l.69043.06055c.69922.06152,1.24512.65918,1.24121,1.36035l-.00293.55664c-.00195.7002-.55176,1.29395-1.25195,1.34961l-.69141.05469c-.08887.18262-.19043.3584-.30566.52539l.29199.62793c.2959.63672.05078,1.40723-.55859,1.75488l-.48145.27539c-.20996.12012-.44141.17773-.66992.17773ZM14.61133,17.04785c.20312,0,.39648.09961.51465.27051l.6084.88379c.0332.04883.09473.06152.14551.0332l.48145-.27539c.05078-.0293.07031-.09082.0459-.14258l-.45312-.97266c-.10449-.22266-.06738-.48633.09375-.67285.21289-.24609.37793-.52832.48828-.83984.08301-.23145.29492-.39258.54004-.41211l1.07031-.08398c.05664-.00488.10059-.05078.10059-.1084l.00293-.55762c0-.05664-.04395-.10352-.10059-.1084l-1.06934-.09375c-.24512-.02148-.45508-.18555-.53613-.41797-.10645-.30957-.26953-.59375-.48145-.8457-.1582-.1875-.19238-.4502-.08691-.67188l.46094-.96875c.02539-.05273.00586-.1123-.04297-.1416l-.48047-.28027c-.04883-.0293-.1123-.01465-.14453.03027l-.61621.87891c-.14062.20117-.3916.30762-.625.25586-.16016-.0293-.32324-.04785-.49023-.04883h-.01074c-.16406,0-.32227.0166-.47754.04492-.23535.04199-.4873-.05859-.625-.26074l-.60742-.88379c-.0332-.04688-.0957-.06055-.14648-.0332l-.48145.27539c-.05078.0293-.07031.09082-.0459.14258l.45312.97168c.10449.22266.06738.48633-.09375.67285-.21289.24512-.37695.52832-.48926.83984-.08301.23145-.29297.39258-.53809.41211l-1.07031.08496c-.05664.00488-.10156.05176-.10156.10742l-.00293.55762c0,.05762.04297.10449.10059.10938l1.06934.09375c.24512.02148.4541.18457.53516.41699.10938.31152.27148.59668.48242.8457.15918.18848.19336.45117.08789.67383l-.46191.96777c-.02539.05078-.00586.11328.04297.1416l.48047.28027c.04883.02734.1123.0166.14551-.03125l.61621-.87891c.1416-.20215.38965-.29785.62891-.25586.15723.03027.31934.04883.48633.0498h.01074c.16309,0,.32129-.0166.47656-.04492.03613-.00684.07324-.00977.11035-.00977Z" fill="var(--iconPrimary, #222)"/>
  <path d="M7.48438,18.10645c-.0918,0-.18555-.0166-.27637-.05273-1.08203-.42969-2.04688-1.03125-2.86719-1.79004-1.76172-1.63086-2.73145-3.81348-2.73145-6.14453s.96973-4.51367,2.73145-6.14453c1.85156-1.71777,4.3418-2.70312,6.83008-2.70312,2.15723,0,4.14355.73633,5.59375,2.07324,1.21191,1.12012,1.80176,2.74023,1.58008,4.33398-.05762.40918-.43164.69531-.84668.63965-.41016-.05762-.69629-.43652-.63965-.84668.15723-1.12402-.24805-2.22656-1.11133-3.02441-1.17188-1.08008-2.79688-1.67578-4.57617-1.67578-2.11426,0-4.23242.83984-5.81055,2.30371-1.45215,1.34473-2.25098,3.13574-2.25098,5.04395s.79883,3.69922,2.25098,5.04297c.68359.63281,1.49121,1.13672,2.40039,1.49707.38477.15234.57324.58887.4209.97363-.11719.29395-.39941.47363-.69727.47363Z" fill="var(--iconPrimary, #222)"/>
</svg>