<?xml version="1.0" encoding="UTF-8"?>
<svg xmlns="http://www.w3.org/2000/svg" width="20" height="20" viewBox="0 0 20 20">
  <path d="m15.96094,4.75h2.03906c.41406,0,.75-.33594.75-.75s-.33594-.75-.75-.75h-5.62756c-.32068-1.01074-1.25647-1.75-2.37244-1.75s-2.05176.73926-2.37244,1.75H2c-.41406,0-.75.33594-.75.75s.33594.75.75.75h2.03906C3.02612,6.93359.75,11.95801.75,13c0,2.1377,1.71973,3.75,4,3.75s4-1.6123,4-3.75c0-1.04199-2.27612-6.06641-3.28906-8.25h2.16663c.32068,1.01074,1.25647,1.75,2.37244,1.75s2.05176-.73926,2.37244-1.75h2.16663c-1.01294,2.18359-3.28906,7.20801-3.28906,8.25,0,2.1377,1.71973,3.75,4,3.75s4-1.6123,4-3.75c0-1.04199-2.27612-6.06641-3.28906-8.25ZM2.25256,13c.05066-.55737,1.2146-3.3584,2.49744-6.19824,1.28101,2.83765,2.44543,5.63696,2.49829,6.19824H2.25256Zm7.74744-8c-.55176,0-1-.44824-1-1s.44824-1,1-1,1,.44824,1,1-.44824,1-1,1Zm2.75171,8c.05286-.5603,1.21729-3.3606,2.49829-6.19824,1.28906,2.85352,2.45996,5.66992,2.5,6.19824h-4.99829Z" fill="var(--iconPrimary, #222)"/>
</svg>