<?xml version="1.0" encoding="UTF-8"?>
<svg id="f" data-name="ICONS" xmlns="http://www.w3.org/2000/svg" width="20" height="20" viewBox="0 0 20 20">
  <circle cx="13.95138" cy="14.53859" r="1.24979" fill="var(--iconPrimary, #222)"/>
  <path d="M12.15967,19.66113c-.23096,0-.46436-.05762-.67578-.17871l-.49365-.28125c-.61621-.35254-.86426-1.13184-.56494-1.77441l.30127-.64746c-.12109-.1748-.22803-.35742-.31982-.54785l-.7124-.05566c-.70752-.05469-1.26465-.6543-1.26807-1.36426l-.00244-.56738c-.00342-.70996.54736-1.31445,1.25391-1.37695l.71045-.0625c.04541-.09863.09424-.19238.146-.2832s.10791-.17969.16895-.26855l-.30762-.64355c-.30615-.64062-.06543-1.42285.54834-1.78027l.48877-.28613c.62256-.36621,1.40527-.19141,1.81982.39746l.41016.58496c.20996-.01855.42139-.02051.63428-.00293l.40479-.58887c.40186-.58496,1.19824-.76855,1.81445-.41602l.49365.28125c.61621.35254.86426,1.13184.56494,1.77441l-.30127.64746c.12109.1748.22803.35742.31982.54785l.7124.05566c.70752.05469,1.26465.6543,1.26807,1.36426l.00244.56738c.00342.70996-.54736,1.31445-1.25391,1.37695l-.71045.0625c-.04541.09766-.09375.19238-.14551.28223-.05176.09082-.1084.18066-.16943.26953l.30762.64355c.30615.64062.06543,1.42285-.54834,1.78027l-.48877.28613c-.62402.36426-1.40527.19141-1.81982-.39746l-.41016-.58496c-.21094.01855-.42236.01953-.63428.00293l-.40479.58887c-.26367.38379-.69727.59473-1.13867.59473ZM12.12646,10.60449c-.02148,0-.04346.00586-.06348.01758l-.48877.28613c-.05664.0332-.07861.10449-.05078.16211l.47217.98828c.10596.22266.07178.48633-.0874.67383-.10596.125-.2041.26074-.28857.40918-.08545.14844-.15186.30273-.20654.45801-.08105.23242-.29004.39453-.53467.41602l-1.09082.09668c-.06543.00586-.11426.06055-.11377.12598l.00244.56738c.00049.06543.0498.11914.11523.12402l1.09229.08594c.24512.01953.45654.18066.53955.41211.11279.31543.28271.60449.50391.86133.16064.18555.19727.44922.09326.67188l-.4624.99316c-.02686.05859-.00439.12891.05176.16113l.49316.28125c.05811.0332.12842.0166.16504-.03711l.62061-.90332c.13916-.20215.38525-.30371.62646-.26172.33301.06055.66895.05957.99707-.00391.24365-.04688.48828.05371.62988.25391l.62891.89648c.03711.05371.10889.07031.16602.03711l.48877-.28613c.05664-.0332.07861-.10449.05078-.16211l-.47217-.98828c-.10596-.22266-.07178-.48633.0874-.67383.10596-.125.2041-.26074.28857-.40918l.00049-.00098c.08496-.14746.15137-.30176.20605-.45703.08105-.23242.29004-.39453.53467-.41602l1.09082-.09668c.06543-.00586.11426-.06055.11377-.12598l-.00244-.56738c-.00049-.06543-.0498-.11914-.11523-.12402l-1.09229-.08594c-.24512-.01953-.45654-.18066-.53955-.41211-.11279-.31543-.28271-.60449-.50391-.86133-.16064-.18555-.19727-.44922-.09326-.67188l.4624-.99316c.02686-.05859.00439-.12891-.05176-.16113l-.49316-.28125c-.05811-.03418-.12891-.0166-.16504.03711l-.62061.90332c-.13867.20312-.37988.30762-.62646.26172-.33301-.05957-.66846-.05957-.99707.00391-.24219.04883-.48779-.05273-.62988-.25391l-.62891-.89648c-.02441-.03516-.06299-.05469-.10254-.05469Z" fill="var(--iconPrimary, #222)"/>
  <path d="M8.25,11.89258c-.41406,0-.75-.33594-.75-.75V3.25c0-1.24023,1.00928-2.25,2.25-2.25h.5c1.24072,0,2.25,1.00977,2.25,2.25v4c0,.41406-.33594.75-.75.75s-.75-.33594-.75-.75V3.25c0-.41309-.33643-.75-.75-.75h-.5c-.41357,0-.75.33691-.75.75v7.89258c0,.41406-.33594.75-.75.75Z" fill="var(--iconPrimary, #222)"/>
  <path d="M3.75,19h-.5c-1.24072,0-2.25-1.00977-2.25-2.25V3.25c0-1.24023,1.00928-2.25,2.25-2.25h.5c1.24072,0,2.25,1.00977,2.25,2.25v13.5c0,1.24023-1.00928,2.25-2.25,2.25ZM3.25,2.5c-.41357,0-.75.33691-.75.75v13.5c0,.41309.33643.75.75.75h.5c.41357,0,.75-.33691.75-.75V3.25c0-.41309-.33643-.75-.75-.75h-.5Z" fill="var(--iconPrimary, #222)"/>
  <path d="M18.25,8.32031c-.41406,0-.75-.33594-.75-.75V3.25c0-.41309-.33643-.75-.75-.75h-.5c-.41357,0-.75.33691-.75.75v4c0,.41406-.33594.75-.75.75s-.75-.33594-.75-.75V3.25c0-1.24023,1.00928-2.25,2.25-2.25h.5c1.24072,0,2.25,1.00977,2.25,2.25v4.32031c0,.41406-.33594.75-.75.75Z" fill="var(--iconPrimary, #222)"/>
</svg>