<?xml version="1.0" encoding="UTF-8"?>
<svg id="e" data-name="ICONS" xmlns="http://www.w3.org/2000/svg" width="20" height="20" viewBox="0 0 20 20">
  <path d="M8.91016,18.74414c-.14453,0-.29004-.04199-.41895-.12891-.62109-.41992-.99121-1.11719-.99121-1.86523V3.25c0-1.24023,1.00977-2.25,2.25-2.25h.5c1.24023,0,2.25,1.00977,2.25,2.25v5.77051c0,.41406-.33594.75-.75.75s-.75-.33594-.75-.75V3.25c0-.41309-.33691-.75-.75-.75h-.5c-.41309,0-.75.33691-.75.75v13.5c0,.25.12402.48242.33105.62305.34375.23242.43359.69824.20117,1.04102-.14453.21484-.38086.33008-.62207.33008Z" fill="var(--iconPrimary, #222)"/>
  <path d="M3.75,19h-.5c-1.24023,0-2.25-1.00977-2.25-2.25V3.25c0-1.24023,1.00977-2.25,2.25-2.25h.5c1.24023,0,2.25,1.00977,2.25,2.25v13.5c0,1.24023-1.00977,2.25-2.25,2.25ZM3.25,2.5c-.41309,0-.75.33691-.75.75v13.5c0,.41309.33691.75.75.75h.5c.41309,0,.75-.33691.75-.75V3.25c0-.41309-.33691-.75-.75-.75h-.5Z" fill="var(--iconPrimary, #222)"/>
  <path d="M14.75,9.70065c-.41406,0-.75-.33594-.75-.75V3.25c0-1.24023,1.00977-2.25,2.25-2.25h.5c1.24023,0,2.25,1.00977,2.25,2.25v5.07031c0,.41406-.33594.75-.75.75s-.75-.33594-.75-.75V3.25c0-.41309-.33691-.75-.75-.75h-.5c-.41309,0-.75.33691-.75.75v5.70065c0,.41406-.33594.75-.75.75Z" fill="var(--iconPrimary, #222)"/>
  <path d="M15.05066,10.5c-2.48523,0-4.5,2.01465-4.5,4.5s2.01477,4.5,4.5,4.5,4.5-2.01465,4.5-4.5-2.01477-4.5-4.5-4.5ZM17.55078,15.625h-5c-.34473,0-.625-.28027-.625-.625s.28027-.625.625-.625h5c.34473,0,.625.28027.625.625s-.28027.625-.625.625Z" fill="var(--iconPrimary, #222)"/>
</svg>