<?xml version="1.0" encoding="UTF-8"?>
<svg id="e" data-name="ICONS" xmlns="http://www.w3.org/2000/svg" width="20" height="20" viewBox="0 0 20 20">
  <path d="M10.00081,13.37335c-.23065.00812-.45538-.07378-.62661-.22835-.33033-.36462-.33033-.91993,0-1.28455.16935-.15832.39483-.24279.62664-.23476.23635-.00947.46589.08026.63302.24745.16207.1677.24916.39386.24137.62681.01238.23469-.06959.4646-.2277.63864-.17358.16455-.40786.24959-.64671.23475Z" fill="var(--iconPrimary, #222)"/>
  <path d="M10.00098,10c-.41406,0-.75-.33594-.75-.75v-2.75c0-.41406.33594-.75.75-.75s.75.33594.75.75v2.75c0,.41406-.33594.75-.75.75Z" fill="var(--iconPrimary, #222)"/>
  <path d="M1.75,19c-.19531,0-.38672-.07617-.53125-.2207-.2207-.2207-.28125-.55566-.15137-.83984l2.80273-6.16211-1.8125-2.07324c-.23047-.2627-.33984-.61328-.30176-.96094.03906-.34766.22363-.66602.50684-.87207l2.37207-1.73047.52246-2.89062c.06348-.34473.26855-.64844.56445-.83496s.65918-.24023.99512-.14844l2.83398.77637,2.58594-1.39355c.30859-.16504.67676-.19531,1.00684-.0791.3291.11621.59766.36621.73438.6875l1.15918,2.69727,2.70215,1.15332c.32129.13672.57227.40527.68848.73535s.08789.69629-.07715,1.00488l-1.38672,2.58789.78223,2.83105c.09375.33887.04004.70215-.14551.99805-.18652.29688-.49023.50195-.83398.56543l-2.88867.5293-1.72461,2.37695c-.2041.28223-.52148.46777-.86914.50781-.3457.04492-.69922-.06836-.96387-.29883l-2.07812-1.80957-6.18359,2.79688c-.09863.04492-.2041.06641-.30859.06641ZM10.93848,16.85742s-.00098,0-.00098.00098l.00098-.00098ZM3.36719,8.92285l1.73828,1.9873c.32227.36816.39941.89453.19727,1.33984l-2.04395,4.49414,4.51172-2.04004c.44141-.2002.96777-.12305,1.33398.19531l1.99512,1.73633,1.62305-2.2373c.19043-.26074.46875-.43652.78613-.49512l2.71875-.49902-.73633-2.66406c-.08594-.31055-.0498-.6377.10254-.92285l1.30566-2.43652-2.54297-1.08594c-.29492-.12402-.5293-.35742-.6582-.65625l-1.09082-2.53906-2.43359,1.31152s-.00098.00098-.00195.00098c-.28516.15332-.6123.19043-.92188.10352l-2.66504-.72949-.49121,2.71973c-.05859.31738-.2334.5957-.49121.78613l-2.23535,1.63086ZM14.94238,4.91406l.00195.00098s-.00098,0-.00195-.00098ZM9.81836,3.75098h.00977-.00977ZM9.46484,3.08887v.00098-.00098Z" fill="var(--iconPrimary, #222)"/>
</svg>