<?xml version="1.0" encoding="UTF-8"?>
<svg id="f" data-name="ICONS" xmlns="http://www.w3.org/2000/svg" width="20" height="20" viewBox="0 0 20 20">
  <path d="M10.05873,10.99805c-2.08887,0-3.78809-1.78418-3.78809-3.97754s1.69922-3.97852,3.78809-3.97852,3.78809,1.78516,3.78809,3.97852-1.69922,3.97754-3.78809,3.97754ZM10.05873,4.54199c-1.26172,0-2.28809,1.1123-2.28809,2.47852s1.02637,2.47754,2.28809,2.47754,2.28809-1.11133,2.28809-2.47754-1.02637-2.47852-2.28809-2.47852Z" fill="var(--iconPrimary, #222)"/>
  <path d="M4.55336,16.99805c-.02686,0-.0542-.00098-.08154-.00391-.41211-.04492-.70947-.41504-.66504-.82715.23584-2.18066,2.32275-3.9834,5.07422-4.38184.40869-.0498.79004.22461.84961.63477s-.22461.79004-.63477.84961c-2.07373.30078-3.63525,1.55859-3.79785,3.05957-.0415.38379-.3667.66895-.74463.66895Z" fill="var(--iconPrimary, #222)"/>
  <path d="M.74965,14c-.13672,0-.27539-.03711-.39941-.11523-.35059-.2207-.45557-.68457-.23438-1.03516.85596-1.35742,2.43994-2.31152,4.34521-2.61426.41016-.07227.79346.21387.85889.62207.06494.40918-.21387.79395-.62256.8584-1.45752.23242-2.6958.95508-3.31299,1.93457-.14258.22559-.38623.34961-.63477.34961Z" fill="var(--iconPrimary, #222)"/>
  <path d="M4.18666,8.99805c-.05273,0-.10596-.00586-.15967-.01758-1.74756-.37891-3.01611-2.01758-3.01611-3.89453,0-2.19336,1.69922-3.97754,3.7876-3.97754.68457,0,1.35547.19336,1.93994.55957.35107.21973.45752.68262.23779,1.03418-.22021.34961-.68457.45508-1.03369.2373-.3457-.2168-.74121-.33105-1.14404-.33105-1.26123,0-2.2876,1.11133-2.2876,2.47754,0,1.17676.77148,2.19824,1.83447,2.42969.40479.08789.66162.4873.57373.8916-.07617.35156-.38721.59082-.73242.59082Z" fill="var(--iconPrimary, #222)"/>
  <path d="M15.81361,8.99805c-.3457,0-.65625-.23926-.73242-.59082-.08789-.4043.16895-.80371.57373-.8916,1.06299-.23145,1.83447-1.25293,1.83447-2.42969,0-1.36621-1.02637-2.47754-2.2876-2.47754-.40283,0-.79834.11426-1.14404.33105-.34961.21777-.81396.1123-1.03369-.2373-.21973-.35156-.11328-.81445.23779-1.03418.58447-.36621,1.25537-.55957,1.93994-.55957,2.08838,0,3.7876,1.78418,3.7876,3.97754,0,1.87695-1.26855,3.51562-3.01611,3.89453-.05371.01172-.10693.01758-.15967.01758Z" fill="var(--iconPrimary, #222)"/>
  <path d="M15.00013,10.521c-2.48529,0-4.5,2.01489-4.5,4.5,0,2.48535,2.01471,4.5,4.5,4.5s4.5-2.01465,4.5-4.5c0-2.48511-2.01471-4.5-4.5-4.5ZM17.50013,15.64648h-1.875v1.875c0,.34473-.27979.625-.625.625s-.625-.28027-.625-.625v-1.875h-1.875c-.34521,0-.625-.28027-.625-.625s.27979-.625.625-.625h1.875v-1.875c0-.34473.27979-.625.625-.625s.625.28027.625.625v1.875h1.875c.34521,0,.625.28027.625.625s-.27979.625-.625.625Z" fill="var(--iconPrimary, #222)"/>
</svg>