<?xml version="1.0" encoding="UTF-8"?>
<svg xmlns="http://www.w3.org/2000/svg" width="28.00005" height="28" viewBox="0 0 28.00005 28">
  <g id="circles">
    <circle id="Ellipse_10213" data-name="Ellipse 10213" cx="14.00002" cy="14" r="14.00001" fill="#0ba45d"/>
  </g>
  <g id="ICONS">
    <rect id="S2_Icon_LocationService_20_N" x="5.09281" y="5.00404" width="18" height="18" fill="none" opacity=".1"/>
    <g>
      <path d="M20.16781,14.67904c-.37266,0-.675.30234-.675.675v1.35h-5.83066c-.00489,0-.0089.00264-.01379.00286l.00236-1.35198c.00044-.37266-.30103-.675-.67368-.67588h-.00132c-.37222,0-.67456.30146-.675.67412l-.00791,4.5c0,.00044.00016.00044.00016.00088h-2.92516c-.37222,0-.675-.30322-.675-.675v-3.825c0-.37266-.30234-.675-.675-.675s-.675.30234-.675.675v3.825c0,1.11621.90835,2.025,2.025,2.025h9.45c1.11665,0,2.025-.90879,2.025-2.025v-3.825c0-.37266-.30234-.675-.675-.675ZM18.81781,19.85404h-5.175l.00319-1.8033c.00571.00022.01044.0033.01615.0033h5.83066v1.125c0,.37178-.30278.675-.675.675Z" fill="#fff"/>
      <path d="M22.10008,9.89515l-1.26914-2.65342c-.3208-.81211-1.09204-1.3377-1.96567-1.3377h-9.54492c-.87275,0-1.64443.52471-1.94458,1.29023l-1.30254,2.67627c-.02505.0457-.60381,1.14697-.0958,2.43369.36079.9167,1.31089,1.53193,2.3647,1.53193.75894,0,1.44229-.32783,1.91689-.84902.47461.52119,1.15796.84902,1.91689.84902s1.44272-.32783,1.91733-.84902c.47417.52119,1.15796.84902,1.91689.84902s1.44272-.32783,1.91689-.84902c.47461.52119,1.1584.84902,1.91733.84902,1.06128,0,2.01182-.61699,2.36602-1.53457.40342-1.04941.1292-1.98809-.1103-2.40645ZM20.95047,11.81644c-.15205.39463-.60688.66973-1.1061.66973-.68511,0-1.24233-.55723-1.24233-1.24189,0-.37266-.30234-.675-.675-.675s-.675.30234-.675.675c0,.68467-.55723,1.24189-1.24189,1.24189s-1.24189-.55723-1.24189-1.24189c0-.37266-.30234-.675-.675-.675s-.675.30234-.675.675c0,.68467-.55723,1.24189-1.24233,1.24189-.68467,0-1.24189-.55723-1.24189-1.24189,0-.37266-.30234-.675-.675-.675s-.675.30234-.675.675c0,.68467-.55723,1.24189-1.24189,1.24189-.50361,0-.94922-.27158-1.10874-.67676-.2729-.69082.01934-1.28145.04087-1.32363l1.33594-2.74834c.11646-.29355.39507-.4834.71016-.4834h9.54492c.31553,0,.59414.18984.72861.52646l1.30078,2.72285c.00659.01406.01978.03867.02769.05186.0123.02197.30234.54844.02813,1.26123Z" fill="#fff"/>
    </g>
  </g>
</svg>