<?xml version="1.0" encoding="UTF-8"?>
<svg id="e" data-name="ICONS" xmlns="http://www.w3.org/2000/svg" width="20" height="20" viewBox="0 0 20 20">
  <path d="M9.36914,11.69629c-.21191,0-.41504-.08984-.55762-.24805l-2.30273-2.55957c-.27734-.30859-.25195-.78223.05566-1.05957s.78125-.25195,1.05957.05566l1.68555,1.87402,3.15234-4.29883c.24316-.33301.71191-.40918,1.04785-.16113.33398.24414.40625.71387.16113,1.04785l-3.69727,5.04297c-.13281.18262-.3418.29395-.56738.30566-.01172.00098-.02441.00098-.03711.00098Z" fill="var(--iconPrimary, #222)"/>
  <path d="M6.25,19c-.09961,0-.19922-.01953-.29395-.05957-.27637-.11816-.45605-.38965-.45605-.69043v-3.25h-.75c-2.06738,0-3.75-1.68262-3.75-3.75v-5.5c0-2.06738,1.68262-3.75,3.75-3.75h10.5c2.06738,0,3.75,1.68262,3.75,3.75v5.5c0,2.06738-1.68262,3.75-3.75,3.75h-4.54297l-3.93652,3.79004c-.14258.1377-.33008.20996-.52051.20996ZM4.75,3.5c-1.24023,0-2.25,1.00977-2.25,2.25v5.5c0,1.24023,1.00977,2.25,2.25,2.25h1.5c.41406,0,.75.33594.75.75v2.23633l2.88379-2.77637c.13965-.13477.32617-.20996.52051-.20996h4.8457c1.24023,0,2.25-1.00977,2.25-2.25v-5.5c0-1.24023-1.00977-2.25-2.25-2.25H4.75Z" fill="var(--iconPrimary, #222)"/>
</svg>