<?xml version="1.0" encoding="UTF-8"?>
<svg   xmlns="http://www.w3.org/2000/svg" width="20" height="20" viewBox="0 0 20 20">
  <path d="M6.25,19c-.09863,0-.19922-.01953-.29395-.05957-.27637-.11816-.45605-.38965-.45605-.69043v-3.25h-.75c-2.06738,0-3.75-1.68262-3.75-3.75v-5.5c0-2.06738,1.68262-3.75,3.75-3.75h10.5c2.06738,0,3.75,1.68262,3.75,3.75v2.13086c0,.41406-.33594.75-.75.75s-.75-.33594-.75-.75v-2.13086c0-1.24023-1.00977-2.25-2.25-2.25H4.75c-1.24023,0-2.25,1.00977-2.25,2.25v5.5c0,1.24023,1.00977,2.25,2.25,2.25h1.5c.41406,0,.75.33594.75.75v2.23828c.29883-.25391.74902-.23535,1.02637.05273.28711.29785.27734.77344-.02148,1.06055l-1.23438,1.18848c-.14258.1377-.33008.20996-.52051.20996Z" fill="var(--iconPrimary, #222)"/>
  <circle cx="13.95138" cy="14.53859" r="1.24979" fill="var(--iconPrimary, #222)"/>
  <path d="M12.15918,19.66113c-.23047,0-.46387-.05762-.67578-.17871l-.49316-.28125c-.61719-.35156-.86426-1.13184-.56445-1.77539l.30078-.64648c-.12109-.17383-.22852-.35645-.32031-.54785l-.71191-.05566c-.70703-.05469-1.26367-.6543-1.26758-1.36426l-.00293-.56738c-.00391-.72168.53516-1.31348,1.25391-1.37695l.70996-.0625c.04492-.0957.09277-.18945.14551-.28223.05176-.09082.10938-.18164.16992-.26953l-.30762-.64355c-.30664-.63965-.06641-1.42188.54785-1.78027l.49023-.28711c.6123-.35645,1.41113-.18066,1.81836.39844l.41113.58496c.21191-.01855.4248-.01953.63379-.00293l.4043-.58887c.40137-.58398,1.19824-.76855,1.81543-.41602l.49316.28125c.61719.35156.86426,1.13184.56445,1.77539l-.30078.64648c.12109.17383.22852.35645.32031.54785l.71191.05566c.70703.05469,1.26367.6543,1.26758,1.36426l.00293.56738c.00391.72168-.53516,1.31348-1.25391,1.37695l-.70996.0625c-.04492.0957-.09277.18945-.14551.28223,0,0,0,.00098-.00098.00098-.05176.09082-.1084.18066-.16895.26855l.30762.64355c.30664.63965.06641,1.42188-.54785,1.78027l-.49023.28711c-.60938.35742-1.41113.18262-1.81836-.39844l-.41113-.58496c-.21191.01855-.4248.01855-.63379.00293l-.4043.58887c-.26367.38379-.69824.59473-1.13965.59473ZM12.12598,10.60547c-.02148,0-.04297.00488-.06152.0166l-.49121.28711c-.05566.03223-.07715.10254-.0498.16016l.47266.98926c.10547.22266.07129.48633-.08789.67383-.10645.12598-.2041.26172-.29004.41016-.08398.14746-.15039.30176-.20508.45898-.08203.23047-.29102.39258-.53418.41406l-1.09082.09668c-.06543.00586-.11426.06055-.11426.12598l.00293.56738c0,.06543.0498.11914.11523.12402l1.0918.08594c.24512.01953.45605.18066.53906.41211.11328.31543.2832.60449.50391.86133.16113.18555.19727.44922.09375.67188l-.46191.99316c-.02734.05859-.00488.12988.05078.16113l.49316.28125c.05762.03125.12891.01367.16504-.03711l.62012-.90332c.13965-.20312.38672-.30566.62695-.26172.33105.05957.66797.05957.99707-.00391.24219-.04785.48926.05371.62988.25391l.62891.89648c.03711.05371.11133.07031.16504.03711l.49121-.28711c.05566-.03223.07715-.10254.0498-.16016l-.47266-.98926c-.10547-.22266-.07129-.48633.08789-.67383.10645-.12598.2041-.26172.29004-.41016.08398-.14844.15039-.30273.20508-.45898.08203-.23047.29102-.39258.53418-.41406l1.09082-.09668c.06543-.00586.11426-.06055.11426-.12598l-.00293-.56738c0-.06543-.0498-.11914-.11523-.12402l-1.0918-.08594c-.24512-.01953-.45605-.18066-.53906-.41211-.11328-.31543-.2832-.60449-.50391-.86133-.16113-.18555-.19727-.44922-.09375-.67188l.46191-.99316c.02734-.05859.00488-.12988-.05078-.16113l-.49316-.28125c-.05957-.0332-.13086-.01465-.16504.03711l-.62012.90332c-.13965.20312-.38672.30664-.62695.26172-.33105-.06055-.66797-.05957-.99707.00391-.23926.04785-.48828-.05273-.62988-.25391l-.62891-.89648c-.02441-.03516-.06348-.05371-.10352-.05371ZM16.92383,16.16797h.00977-.00977Z" fill="var(--iconPrimary, #222)"/>
</svg>