<?xml version="1.0" encoding="UTF-8"?>
<svg id="f" data-name="ICONS" xmlns="http://www.w3.org/2000/svg" width="20" height="20" viewBox="0 0 20 20">
  <path d="M6.25,19c-.09863,0-.19727-.01953-.29199-.05859-.27734-.11816-.45801-.38965-.45801-.69141v-3.25h-.75c-2.06738,0-3.75-1.68262-3.75-3.75v-5.5c0-2.06738,1.68262-3.75,3.75-3.75h10.5c2.06738,0,3.75,1.68262,3.75,3.75v.5c0,.41406-.33594.75-.75.75s-.75-.33594-.75-.75v-.5c0-1.24023-1.00977-2.25-2.25-2.25H4.75c-1.24023,0-2.25,1.00977-2.25,2.25v5.5c0,1.24023,1.00977,2.25,2.25,2.25h1.5c.41406,0,.75.33594.75.75v2.22363l1.93359-1.88184c.29883-.29004.77344-.28125,1.06055.01367.28906.29688.2832.77246-.01367,1.06055l-3.20703,3.12109c-.14355.13965-.33203.21289-.52344.21289Z" fill="var(--iconPrimary, #222)"/>
  <path d="M15.25356,20c-.16895,0-.3418-.03418-.50879-.10645-.58008-.25-.87402-.85156-.71484-1.46289l.6543-2.51367h-2.13574c-.45215,0-.87012-.24512-1.09082-.63867s-.21191-.87793.02441-1.26367l3.54004-5.77539c.33008-.53906.96582-.74609,1.55176-.49902.58203.24512.88086.84375.72656,1.45703l-.68359,2.71973h2.13281c.45508,0,.87402.24707,1.09375.64551.2207.39746.20703.88477-.03418,1.26953l-3.51172,5.5791c-.23828.37891-.62988.58887-1.04395.58887ZM12.9938,14.41699h2.01465c.39062,0,.75098.17773.98926.48633.23828.30957.31836.70312.21973,1.08008l-.3291,1.26172,2.40918-3.82812h-2.00098c-.3877,0-.74707-.1748-.98535-.48047-.23926-.30566-.32129-.69727-.22754-1.07324l.36328-1.44727-2.45312,4.00098Z" fill="var(--iconPrimary, #222)"/>
</svg>