<?xml version="1.0" encoding="UTF-8"?>
<svg xmlns="http://www.w3.org/2000/svg" width="14" height="14" viewBox="0 0 14 14">
  <path d="M3.63006,13.74121c-.08312,0-.16674-.0166-.24595-.0498-.2303-.09863-.37992-.3252-.37992-.5752v-2.16992c-1.70453-.29688-3.00419-1.78516-3.00419-3.57129v-2.75C0,2.62598,1.62825,1,3.63006,1h6.73987c2.00182,0,3.63006,1.62598,3.63006,3.625v2.75c0,1.99902-1.62825,3.625-3.63006,3.625h-3.62028l-2.68685,2.56738c-.11882.11426-.2748.17383-.43273.17383ZM3.63006,2.25c-1.3114,0-2.37832,1.06543-2.37832,2.375v2.75c0,1.30957,1.06692,2.375,2.37832,2.375.3457,0,.62587.28027.62587.625v1.27832l1.80965-1.72949c.11637-.11133.27137-.17383.43273-.17383h3.87161c1.3114,0,2.37832-1.06543,2.37832-2.375v-2.75c0-1.30957-1.06692-2.375-2.37832-2.375H3.63006Z" fill="var(--iconPrimary, #222)"/>
</svg>