<?xml version="1.0" encoding="UTF-8"?>
<svg   xmlns="http://www.w3.org/2000/svg" width="20" height="20" viewBox="0 0 20 20">
  <path d="M10,18.64453c-.60107,0-1.16602-.23438-1.59082-.65918l-6.39502-6.39453c-.87646-.87695-.87646-2.30469-.00049-3.18164l6.39551-6.39453c.84863-.84961,2.33252-.84961,3.18213,0l6.39453,6.39453c.87646.87695.87646,2.30469.00049,3.18164l-6.39551,6.39453c-.42432.4248-.98975.65918-1.59082.65918ZM10,2.85547c-.2002,0-.38867.07812-.52979.21973l-6.39551,6.39453c-.29199.29199-.29199.76855.00049,1.06055l6.39502,6.39453c.28223.2832.77734.2832,1.05957,0l6.39551-6.39453c.29199-.29199.29199-.76855-.00049-1.06055l-6.39453-6.39453c-.1416-.1416-.33008-.21973-.53027-.21973Z" fill="var(--iconPrimary, #222)"/>
</svg>