<?xml version="1.0" encoding="UTF-8"?>
<svg id="e" data-name="ICONS" xmlns="http://www.w3.org/2000/svg" width="20" height="20" viewBox="0 0 20 20">
  <path d="M10.01758,18.78223c-.60352,0-1.21191-.0625-1.81641-.18945C3.47949,17.59961.44531,12.95117,1.43652,8.22949c.48047-2.28711,1.82324-4.25,3.78027-5.52734,1.95703-1.27832,4.29395-1.7168,6.58203-1.23633.69629.14648,1.37012.375,2.00391.68066.37305.18066.5293.62891.34961,1.00195-.18066.37305-.62695.53125-1.00195.34961-.52344-.25293-1.08203-.44336-1.65918-.56348-1.89453-.39648-3.83203-.03516-5.4541,1.02344s-2.73438,2.68457-3.13184,4.58008c-.82227,3.91211,1.69238,7.76367,5.60449,8.58594,1.89453.39941,3.83105.03418,5.45312-1.02344,1.62207-1.05859,2.73438-2.68555,3.13184-4.58105.11523-.5459.16699-1.10449.15527-1.65918-.00879-.41406.32031-.75684.73438-.76562.37695-.03613.75684.32031.76562.73438.01367.66895-.04883,1.34082-.18652,1.99902-.48047,2.28711-1.82324,4.25098-3.78027,5.52832-1.44043.93945-3.08594,1.42578-4.76562,1.42578Z" fill="var(--iconPrimary, #222)"/>
  <path d="M18.41895,3.46777c-.30176-.28418-.77734-.26953-1.05957.03418l-7.4292,7.9209-2.46924-2.70898c-.28027-.30762-.75391-.32715-1.05957-.0498-.30664.2793-.32812.75391-.0498,1.05957l3.01562,3.30859c.00708.00781.01709.01025.02466.01758.00708.00732.00977.01733.01733.02441.04224.03979.09326.06116.1416.08923.03003.01758.05591.04236.08789.05554.09082.03735.18677.05835.2832.05835.09521,0,.18945-.02051.2793-.05652.02905-.0116.05298-.03406.08081-.04968.04932-.02759.10132-.04932.14478-.08911.0083-.00757.01123-.01807.01904-.02588.00684-.00684.01611-.00891.02295-.01611l7.98438-8.5127c.2832-.30176.26855-.77637-.03418-1.05957Z" fill="var(--iconPrimary, #222)"/>
</svg>