<?xml version="1.0" encoding="UTF-8"?>
<svg xmlns="http://www.w3.org/2000/svg" width="20" height="20" viewBox="0 0 20 20">
  <path d="M12,18.25c-2.91895,0-5.42041-1.98633-6.08252-4.83008l-.21436-.91992h6.04688c.41357,0,.75-.33691.75-.75v-6.0459l.91992.21387c2.84375.66113,4.83008,3.16309,4.83008,6.08203,0,3.44629-2.80371,6.25-6.25,6.25ZM7.69287,14c.76221,1.65723,2.41992,2.75,4.30713,2.75,2.61914,0,4.75-2.13086,4.75-4.75,0-1.8877-1.09277-3.54492-2.75-4.30664v4.05664c0,1.24023-1.00928,2.25-2.25,2.25h-4.05713Z" fill="var(--iconPrimary, #222)"/>
  <path d="M7.5918,14h-3.3418c-1.24072,0-2.25-1.00977-2.25-2.25v-7.47852c0-1.24023,1.00928-2.25,2.25-2.25h7.5c1.24072,0,2.25,1.00977,2.25,2.25v3.32227l-.92041-.21484c-3.1123-.73047-5.82959,1.65234-5.82959,4.62109,0,.34863.04346.71289.12842,1.08105l.21338.91895ZM4.25,3.52148c-.41357,0-.75.33691-.75.75v7.47852c0,.41309.33643.75.75.75h1.52148c-.01416-.16797-.02148-.33496-.02148-.5-.00049-3.61133,3.0708-6.56055,6.75-6.22852v-1.5c0-.41309-.33643-.75-.75-.75h-7.5Z" fill="var(--iconPrimary, #222)"/>
  <path d="M12.5,5.77148v-1.5c0-.41309-.33643-.75-.75-.75h-7.5c-.41357,0-.75.33691-.75.75v7.47852c0,.41309.33643.75.75.75h1.52148c-.01416-.16797-.02148-.33496-.02148-.5-.00049-3.61133,3.0708-6.56055,6.75-6.22852Z" fill="var(--iconPrimary, #222)" opacity=".3"/>
  <path d="M14,7.69336v4.05664c0,1.24023-1.00928,2.25-2.25,2.25h-4.05713c.76221,1.65723,2.41992,2.75,4.30713,2.75,2.61914,0,4.75-2.13086,4.75-4.75,0-1.8877-1.09277-3.54492-2.75-4.30664Z" fill="var(--iconPrimary, #222)" opacity=".3"/>
</svg>