<?xml version="1.0" encoding="UTF-8"?>
<svg   xmlns="http://www.w3.org/2000/svg" width="20" height="20" viewBox="0 0 20 20">
  <path d="m10,9.75c-2.34326,0-4.25-1.90674-4.25-4.25S7.65674,1.25,10,1.25s4.25,1.90674,4.25,4.25-1.90674,4.25-4.25,4.25Zm0-7c-1.5166,0-2.75,1.2334-2.75,2.75s1.2334,2.75,2.75,2.75,2.75-1.2334,2.75-2.75-1.2334-2.75-2.75-2.75Z" fill="var(--iconPrimary, #222)"/>
  <path d="m18.71973,15.31055l-1.49365-7.49854c-.06348-.3208-.19287-.61816-.38525-.88281-.24268-.33545-.71289-.40967-1.04736-.1665-.33545.24316-.40967.7124-.1665,1.04736.06348.08789.10645.18604.12793.29346l.2533,1.27148h-1.32312c-.34521,0-.625.27979-.625.625s.27979.625.625.625h1.57214l.44824,2.25h-3.63782l-.10181-1.35156c-.02539-.34424-.32227-.61182-.66992-.57617-.34424.02588-.60254.32568-.57617.66992l.09473,1.25781h-3.62903l.09583-1.27148c.02588-.34424-.23193-.64404-.57617-.66992-.34863-.03076-.64453.23242-.66992.57617l-.10291,1.36523h-3.6377l.44824-2.25h1.55457c.34521,0,.625-.27979.625-.625s-.27979-.625-.625-.625h-1.30554l.2533-1.27148c.02197-.10986.06689-.21094.13281-.30029.24658-.33252.17676-.80225-.15625-1.04883-.33301-.24609-.80273-.17725-1.04883.15625-.19922.26855-.33301.57129-.39844.8999l-1.49414,7.5c-.13232.66357.03809,1.34375.46729,1.8667s1.06299.82275,1.73926.82275h13.02637c.67627,0,1.31006-.2998,1.73926-.82275s.59961-1.20312.46729-1.8667Zm-6.81104-1.18555l.17896,2.375h-4.17529l.17896-2.375h3.81738Zm-9.00146,2.10107c-.14307-.1748-.2002-.40137-.15625-.62256l.29456-1.47852h3.7926l-.17896,2.375h-3.17236c-.22559,0-.43652-.1001-.57959-.27393Zm14.18555,0c-.14307.17383-.354.27393-.57959.27393h-3.17236l-.17896-2.375h3.7926l.29456,1.47852c.04395.22119-.01318.44775-.15625.62256Z" fill="var(--iconPrimary, #222)"/>
</svg>