<?xml version="1.0" encoding="UTF-8"?>
<svg xmlns="http://www.w3.org/2000/svg" width="20" height="20" viewBox="0 0 20 20">
  <path d="M18.25,19.02148c-.19189,0-.38379-.07324-.53027-.21973L1.21973,2.30176c-.29297-.29297-.29297-.76758,0-1.06055s.76758-.29297,1.06055,0l16.5,16.5c.29297.29297.29297.76758,0,1.06055-.14648.14648-.33838.21973-.53027.21973Z" fill="var(--iconPrimary, #222)"/>
  <path d="M18.25,19.02148c-.19189,0-.38379-.07324-.53027-.21973L1.21973,2.30176c-.29297-.29297-.29297-.76758,0-1.06055s.76758-.29297,1.06055,0l16.5,16.5c.29297.29297.29297.76758,0,1.06055-.14648.14648-.33838.21973-.53027.21973Z" fill="var(--iconPrimary, #222)"/>
  <path d="M12.99414,16.65723c-.28857.05176-.72559.09277-.99414.09277-1.88721,0-3.54492-1.09277-4.30713-2.75h1.33838c.41406,0,.75-.33594.75-.75s-.33594-.75-.75-.75h-1.75092c-.01886-.16919-.03033-.33643-.03033-.5,0-.28906.04346-.64648.11084-.91016.10254-.40137-.13916-.80957-.54053-.91211-.40381-.10254-.80957.13965-.9126.54102-.09863.38574-.15771.86426-.15771,1.28125,0,.16504.00732.33203.02148.5h-1.52148c-.41357,0-.75-.33691-.75-.75v-4.73535c0-.41406-.33594-.75-.75-.75s-.75.33594-.75.75v4.73535c0,1.24023,1.00928,2.25,2.25,2.25h1.85541c.85065,2.52417,3.18231,4.25,5.89459,4.25.36084,0,.87891-.04785,1.25977-.11621.40771-.07324.67871-.46289.60547-.87109-.07373-.40723-.46143-.67383-.87109-.60547Z" fill="var(--iconPrimary, #222)"/>
  <path d="M16.6499,12.97363c.06641-.31836.1001-.64551.1001-.97363,0-1.8877-1.09277-3.54492-2.75-4.30664v1.30664c0,.41406-.33594.75-.75.75-.20337,0-.38678-.08252-.52191-.21411l4.11133,4.11914.0235-.00806c-.17175-.17285-.26642-.4165-.21301-.67334Z" fill="var(--iconPrimary, #222)" opacity=".3"/>
  <path d="M14,6.10571v-1.83423c0-1.24023-1.00928-2.25-2.25-2.25h-4.75c-.41406,0-.75.33594-.75.75s.33594.75.75.75h4.75c.41357,0,.75.33691.75.75v1.5c-.67578-.06055-1.37598.0332-1.79785.11914-.40625.08301-.66846.47852-.58594.88477.08203.40625.48193.66211.88379.58594.55121-.11304,1.02856-.13257,1.5-.08008v1.71875c0,.41406.33594.75.75.75s.75-.33594.75-.75v-1.30664c1.65723.76172,2.75,2.41895,2.75,4.30664,0,.32812-.03369.65527-.1001.97363-.08447.40625.17578.80273.58154.8877.05127.01074.10303.01562.15381.01562.34766,0,.65967-.24316.7334-.59668.08691-.41895.13135-.84961.13135-1.28027,0-2.7124-1.72577-5.04443-4.25-5.89429Z" fill="var(--iconPrimary, #222)"/>
  <path d="M10.11621,6.77539c-.08252-.40625.17969-.80176.58594-.88477.42188-.08594,1.12207-.17969,1.79785-.11914v-1.5c0-.41309-.33643-.75-.75-.75h-4.75c-.20465,0-.3894-.08301-.52478-.21606l-.00067.00903,3.87482,3.87451c.00653-.00244.01141-.0061.01788-.00879-.12042-.10376-.2171-.23682-.25104-.40479Z" fill="var(--iconPrimary, #222)" opacity=".3"/>
  <path d="M3.5,7.01465v4.73535c0,.41309.33643.75.75.75h1.52148c-.01416-.16797-.02148-.33496-.02148-.5,0-.41699.05908-.89551.15771-1.28125.10303-.40137.50879-.64355.9126-.54102.15558.03979.27643.13403.37329.24756.00269-.00708.00696-.01196.00958-.01904l-3.9187-3.9187-.00128.00122c.13361.13525.2168.3208.2168.52588Z" fill="var(--iconPrimary, #222)" opacity=".3"/>
  <path d="M9.78125,13.25c0,.41406-.33594.75-.75.75h-1.33838c.76221,1.65723,2.41992,2.75,4.30713,2.75.26855,0,.70557-.04102.99414-.09277.27075-.04517.52301.06494.69025.25635-.00635-.01929-.01294-.03906-.01294-.03906l-4.01691-4.01685c.07324.11597.12671.24512.12671.39233Z" fill="var(--iconPrimary, #222)" opacity=".3"/>
</svg>