<?xml version="1.0" encoding="UTF-8"?>
<svg   xmlns="http://www.w3.org/2000/svg" width="20" height="20" viewBox="0 0 20 20">
  <path d="M15.5,16.1875c-.44824,0-.89648-.1709-1.2373-.51172l-.93848-.93848c-.68262-.68262-.68262-1.79199,0-2.47461l.93848-.93848c.68164-.68164,1.79297-.68164,2.47461,0l.93848.93848c.68262.68262.68262,1.79199,0,2.47461l-.93848.93848c-.34082.34082-.78906.51172-1.2373.51172ZM15.5,12.31152c-.06445,0-.12793.02441-.17676.07324l-.93848.93848c-.09766.09766-.09766.25586,0,.35352l.93848.93848c.09766.09766.25586.09766.35352,0l.93848-.93848c.09766-.09766.09766-.25586,0-.35352l-.93848-.93848c-.04883-.04883-.1123-.07324-.17676-.07324ZM15.5,9.1875c-.44824,0-.89648-.1709-1.2373-.51172l-.93848-.93848c-.68262-.68262-.68262-1.79199,0-2.47461l.93848-.93848c.68164-.68164,1.79297-.68164,2.47461,0l.93848.93848c.68262.68262.68262,1.79199,0,2.47461l-.93848.93848c-.34082.34082-.78906.51172-1.2373.51172ZM15.5,5.31152c-.06445,0-.12793.02441-.17676.07324l-.93848.93848c-.09766.09766-.09766.25586,0,.35352l.93848.93848c.09766.09766.25586.09766.35352,0l.93848-.93848c.09766-.09766.09766-.25586,0-.35352l-.93848-.93848c-.04883-.04883-.1123-.07324-.17676-.07324ZM10.25586,16.56348l1.25-1.24902c.29297-.29297.29297-.76758,0-1.06055-.29199-.29199-.7666-.29395-1.06055,0l-1.25,1.24902c-.29297.29297-.76758.29297-1.06055,0l-4.97266-4.97266c-.29199-.29199-.29199-.76855,0-1.06055l4.97266-4.97266c.29297-.29297.76758-.29297,1.06055,0l1.30762,1.30762c.29297.29297.76758.29297,1.06055,0s.29297-.76758,0-1.06055l-1.30762-1.30762c-.87695-.87695-2.30469-.87695-3.18164,0l-4.97266,4.97266c-.87695.87695-.87695,2.30469,0,3.18164l4.97266,4.97266c.43848.43848,1.01465.6582,1.59082.6582s1.15234-.21973,1.59082-.6582Z" fill="var(--iconPrimary, #292929)" stroke-width="0"/>
</svg>