<?xml version="1.0" encoding="UTF-8"?>
<svg   xmlns="http://www.w3.org/2000/svg" width="20" height="20" viewBox="0 0 20 20">
  <path d="m10,19.00781c-2.26562,0-4.375-.37402-5.6416-1.00098-1.02051-.50293-1.48535-1.74512-1.05859-2.82715L8.60742,1.92773c.22949-.57227.77637-.94141,1.39258-.94141s1.16309.36914,1.39258.94141l5.30664,13.24805c0,.00195.00098.00293.00098.00391.42676,1.08203-.03809,2.32422-1.05859,2.82812-1.2666.62598-3.37598,1-5.6416,1Zm0-16.52148l-5.30664,13.24805c-.1416.35742.00293.7666.3291.92773,1.05469.52148,2.96191.8457,4.97754.8457s3.92285-.32422,4.97754-.84473c.32617-.16113.46973-.57031.32812-.93164L10,2.48633Z" fill="var(--iconPrimary, #222)" stroke-width="0"/>
  <path d="m10.91992,16.31348c-.34082,0-.68066-.02051-1.01172-.06152-.41113-.05078-.70312-.4248-.65234-.83594s.42578-.69824.83594-.65234c.91113.10938,1.93945.02832,2.74707-.22363.3916-.125.81543.0957.93945.49219.12402.39551-.09668.81641-.49219.93945-.71875.22461-1.54492.3418-2.36621.3418Z" fill="var(--iconPrimary, #222)" stroke-width="0"/>
</svg>