<?xml version="1.0" encoding="UTF-8"?>
<svg   xmlns="http://www.w3.org/2000/svg" width="20" height="20" viewBox="0 0 20 20">
  <path d="m16.00195,9H3.99805c-.41406,0-.75-.33594-.75-.75s.33594-.75.75-.75h10.19336l-3.35156-3.35059c-.29297-.29297-.29297-.76758,0-1.06055s.76758-.29297,1.06055,0l4.63184,4.63086c.21484.21436.27832.53711.16309.81738-.11621.28027-.38965.46289-.69336.46289Z" fill="var(--iconPrimary, #222)"/>
  <path d="m8.62988,16.63086c-.19238,0-.38379-.07324-.53027-.21973l-4.63184-4.63086c-.21484-.21436-.27832-.53711-.16309-.81738.11621-.28027.38965-.46289.69336-.46289h12.00391c.41406,0,.75.33594.75.75s-.33594.75-.75.75H5.80859l3.35156,3.35059c.29297.29297.29297.76758,0,1.06055-.14648.14648-.33789.21973-.53027.21973Z" fill="var(--iconPrimary, #222)"/>
</svg>