<?xml version="1.0" encoding="UTF-8"?>
<svg   xmlns="http://www.w3.org/2000/svg" width="20" height="20" viewBox="0 0 20 20">
  <path d="M16.79518,19h-7.5c-1.24072,0-2.25-1.00977-2.25-2.25v-7.5c0-1.24023,1.00928-2.25,2.25-2.25h7.5c1.24072,0,2.25,1.00977,2.25,2.25v7.5c0,1.24023-1.00928,2.25-2.25,2.25ZM9.29518,8.5c-.41357,0-.75.33691-.75.75v7.5c0,.41309.33643.75.75.75h7.5c.41357,0,.75-.33691.75-.75v-7.5c0-.41309-.33643-.75-.75-.75h-7.5Z" fill="var(--iconPrimary, #222)"/>
  <path d="M4.79518,14.5c-.41406,0-.75-.33594-.75-.75v-7.5c0-1.24023,1.00928-2.25,2.25-2.25h7.5c.41406,0,.75.33594.75.75s-.33594.75-.75.75h-7.5c-.41357,0-.75.33691-.75.75v7.5c0,.41406-.33594.75-.75.75Z" fill="var(--iconPrimary, #222)"/>
  <path d="M1.79518,11.5c-.41406,0-.75-.33594-.75-.75V3.25c0-1.24023,1.00928-2.25,2.25-2.25h7.5c.41406,0,.75.33594.75.75s-.33594.75-.75.75H3.29518c-.41357,0-.75.33691-.75.75v7.5c0,.41406-.33594.75-.75.75Z" fill="var(--iconPrimary, #222)"/>
</svg>