<?xml version="1.0" encoding="UTF-8"?>
<svg id="f" data-name="ICONS" xmlns="http://www.w3.org/2000/svg" width="20" height="20" viewBox="0 0 20 20">
  <path id="g" data-name="Path 1005062" d="M15.00003,6.25c0,.82843-.67157,1.5-1.5,1.5-.82843,0-1.5-.67157-1.5-1.5,0-.82843.67157-1.5,1.5-1.5s1.5.67157,1.5,1.5h0" fill="var(--iconPrimary, #222)"/>
  <path d="M14.99994,10.49994c-2.48529,0-4.5,2.01471-4.5,4.5s2.01471,4.5,4.5,4.5,4.5-2.01471,4.5-4.5-2.01471-4.5-4.5-4.5ZM12.54767,17.1112c.59326-.69269,1.47296-1.10144,2.41327-1.07727.96741-.03723,1.87494.38092,2.47632,1.09534-.59576.68134-1.46112,1.12067-2.43732,1.12067-.98462,0-1.85626-.44714-2.45227-1.13873ZM14.81195,11.8725c.87878-.05194,1.6333.61841,1.68524,1.49719.00183.03137.00275.06281.00275.09424.02411.85315-.64691,1.56488-1.5,1.591-.87878.05188-1.6333-.61841-1.68524-1.49725-.05188-.87878.61841-1.6333,1.49725-1.68518Z" fill="var(--iconPrimary, #222)"/>
  <g>
    <path d="M5.75,13.5c-.41406,0-.75.33594-.75.75s.33594.75.75.75h2.5498c.41406,0,.75-.33594.75-.75s-.33594-.75-.75-.75h-2.5498Z" fill="var(--iconPrimary, #222)"/>
    <path d="M15.75,2H4.25c-1.24072,0-2.25,1.00977-2.25,2.25v11.5c0,1.24023,1.00928,2.25,2.25,2.25h4.39697c.41406,0,.75-.33594.75-.75s-.33594-.75-.75-.75h-4.39697c-.41357,0-.75-.33691-.75-.75v-3.75h5.89111c.41406,0,.75-.33594.75-.75s-.33594-.75-.75-.75h-4.75537l2.78027-2.78027c.28369-.28223.77832-.2832,1.06104,0l2.21777,2.21777c.29297.29297.76758.29297,1.06055,0s.29297-.76758,0-1.06055l-2.21777-2.21777c-.87646-.87695-2.30469-.87695-3.18213,0l-2.85547,2.85547v-5.26465c0-.41309.33643-.75.75-.75h11.5c.41357,0,.75.33691.75.75v4.39062c0,.41406.33594.75.75.75s.75-.33594.75-.75v-4.39062c0-1.24023-1.00928-2.25-2.25-2.25Z" fill="var(--iconPrimary, #222)"/>
  </g>
</svg>