<?xml version="1.0" encoding="UTF-8"?>
<svg xmlns="http://www.w3.org/2000/svg" width="20" height="20" viewBox="0 0 20 20">
  <path id="c" data-name="Path 1005062" d="M11.66411,5.92114c0-.73059,0,0,0,0,0-.69588-.57855-1.26-1.29222-1.26s-1.29222.56412-1.29222,1.26c0,.69588.57855,1.26,1.29222,1.26.71368,0,1.29222-.52941,1.29222-1.26Z" fill="var(--iconPrimary, #222)"/>
  <path d="M18.75781,12.12305l-2.8252-4.94434c-.34668-.60645-.9707-.96875-1.66943-.96875h-.00049c-.69824,0-1.32275.36182-1.66992.96875l-1.30042,2.27588c-.4198-.11938-.849-.20068-1.29236-.20068-2.61914,0-4.75,2.13086-4.75,4.75s2.13086,4.75,4.75,4.75c2.25653,0,4.16364-1.60571,4.62714-3.75391h2.46075c.69336,0,1.31543-.35791,1.66357-.95801.34766-.59961.3501-1.31689.00635-1.91895ZM10,17.25391c-1.79199,0-3.25-1.45801-3.25-3.25s1.45801-3.25,3.25-3.25c.17688,0,.34985.02222.52142.0498l-.75385,1.31934c-.34375.60205-.34131,1.31934.00635,1.91895.34814.6001.97021.95801,1.66356.95801h1.64478c-.42523,1.30835-1.6507,2.25391-3.08228,2.25391ZM17.45361,13.28906c-.03662.06348-.146.21094-.36572.21094h-5.6504c-.21972,0-.32909-.14746-.36571-.21094-.03711-.06299-.11084-.23096-.00146-.42188l2.82471-4.94385c.11035-.19287.29395-.21338.36768-.21338h.00049c.07373,0,.25684.02051.3667.21289l2.8252,4.94434c.10938.19092.03564.35889-.00146.42188Z" fill="var(--iconPrimary, #222)"/>
  <path d="M13.02295,2H2.97705c-1.09033,0-1.97705.90137-1.97705,2.00977v7.98047c0,1.1084.88672,2.00977,1.97705,2.00977.41406,0,.75-.33594.75-.75s-.33594-.75-.75-.75c-.26318,0-.47705-.22852-.47705-.50977v-.77295l2.59668-2.53125c.16504-.16211.44385-.16113.60889,0,.29688.28906.77197.28369,1.06104-.01318s.2832-.77148-.01318-1.06104c-.74609-.72607-1.95898-.72705-2.7041,0l-1.54932,1.5105v-5.11255c0-.28125.21387-.50977.47705-.50977h10.0459c.26318,0,.47705.22852.47705.50977,0,.41406.33594.75.75.75s.75-.33594.75-.75c0-1.1084-.88672-2.00977-1.97705-2.00977Z" fill="var(--iconPrimary, #222)"/>
</svg>