<?xml version="1.0" encoding="UTF-8"?>
<svg   xmlns="http://www.w3.org/2000/svg" width="20" height="20" viewBox="0 0 20 20">
  <path d="M11.75,16.5h-7.5c-.39404,0-.71021-.30957-.73914-.69629l3.08777-3.08594c.28125-.2832.77637-.2832,1.05957,0l1.07422,1.07422c.29297.29297.76758.29297,1.06055,0s.29297-.76758,0-1.06055l-1.07422-1.07422c-.84961-.85059-2.33398-.84863-3.18164,0l-2.03711,2.03638v-4.1936h8.25c.41406,0,.75-.33594.75-.75s-.33594-.75-.75-.75H3.5v-3.75c0-.41309.33691-.75.75-.75h11.5c.41309,0,.75.33691.75.75v1.28906c0,.41406.33594.75.75.75s.75-.33594.75-.75v-1.28906c0-1.24023-1.00977-2.25-2.25-2.25H4.25c-1.24023,0-2.25,1.00977-2.25,2.25v11.5c0,1.24023,1.00977,2.25,2.25,2.25h7.5c.41406,0,.75-.33594.75-.75s-.33594-.75-.75-.75Z" fill="var(--iconPrimary, #222)"/>
  <path d="M5.75,5c-.41406,0-.75.33594-.75.75s.33594.75.75.75h8.5c.41406,0,.75-.33594.75-.75s-.33594-.75-.75-.75H5.75Z" fill="var(--iconPrimary, #222)"/>
  <path d="M19.45898,12.39844c-.21875-.39648-.63477-.64355-1.08691-.64453h-2.08984l.67188-2.66602c.15332-.60938-.14355-1.20508-.72266-1.44922-.58008-.24121-1.21289-.04004-1.54199.49512l-3.49023,5.68945c-.23438.38184-.24414.86328-.02539,1.25488.21875.39258.63379.63672,1.08496.6377h2.09082l-.64258,2.46289c-.1582.60645.13379,1.2041.70898,1.45312.16699.07227.33887.10742.50684.10742.41211,0,.80078-.20801,1.03809-.58496l3.45996-5.49414c.24121-.38281.25586-.86621.03809-1.26172ZM15.57812,16.94629l.30664-1.1748c.09766-.37402.01758-.76465-.21875-1.07129s-.59375-.4834-.9834-.48438h-1.96484l2.37109-3.86328-.3418,1.35547c-.09375.37305-.01172.76172.22461,1.06543.23633.30469.59277.47949.98047.48047h1.95117l-2.3252,3.69238Z" fill="var(--iconPrimary, #222)"/>
</svg>