<?xml version="1.0" encoding="UTF-8"?>
<svg xmlns="http://www.w3.org/2000/svg" width="20" height="20" viewBox="0 0 20 20">
  <path d="m15.28027,16.96973l-1.5-1.5c-.29297-.29297-.76758-.29297-1.06055,0s-.29297.76758,0,1.06055l.21973.21973h-7.44727c-.41406,0-.75.33594-.75.75s.33594.75.75.75h7.44727l-.21973.21973c-.29297.29297-.29297.76758,0,1.06055.14648.14648.33838.21973.53027.21973s.38379-.07324.53027-.21973l1.5-1.5c.29297-.29297.29297-.76758,0-1.06055Z" fill="var(--iconPrimary, #222)"/>
  <circle cx="6.5" cy="5.5" r="1.5" fill="var(--iconPrimary, #222)"/>
  <path d="m16.79395,1h-5.33789c-.56018,0-1.06653.25928-1.45605.67261-.38953-.41333-.89587-.67261-1.45605-.67261H3.20605c-1.21631,0-2.20605,1.18457-2.20605,2.6416v7.7168c0,1.45703.98975,2.6416,2.20605,2.6416h5.33789c.52344,0,1.02979-.21973,1.42529-.61914.01398-.01416.02362-.03247.03729-.04688.38873.40918.8924.66602,1.44952.66602h5.33789c.52344,0,1.02979-.21973,1.42529-.61914.50244-.50684.78711-1.25293.78076-2.04688V3.6416c0-1.45703-.98975-2.6416-2.20605-2.6416Zm-5.33789,1.5h5.33789c.33398,0,.70605.46875.70605,1.1416v4.7915c-.05505.03174-.11255.05884-.15967.10596l-1.62842,1.62891-1.63428-1.63379c-.66113-.66211-1.81445-.65918-2.47461,0l-.85303.85278V3.6416c0-.67285.37207-1.1416.70605-1.1416Zm-8.25,0h5.33789c.33398,0,.70605.46875.70605,1.1416v4.73584c-.08826.03662-.17139.08984-.24316.16162l-1.62842,1.62891-1.63428-1.63379c-.68262-.68164-1.79199-.68164-2.47461,0l-.76953.76929V3.6416c0-.67285.37207-1.1416.70605-1.1416Zm5.33789,10H3.20605c-.32349,0-.6759-.44458-.69812-1.0835l1.82214-1.82178c.09766-.09766.25586-.09766.35352,0l2.16455,2.16406c.14062.14062.33154.21973.53027.21973.19922,0,.38965-.0791.53027-.21973l1.34131-1.34155v.92651c.00342.39258-.12598.75977-.34619.98145-.0791.08008-.20557.1748-.35986.1748Zm8.95605-1.15625c.00342.39258-.12598.75977-.34619.98145-.0791.08008-.20557.1748-.35986.1748h-5.33789c-.31177,0-.64465-.41699-.68921-1.01855.00854-.00781.01978-.01025.02808-.01855l1.86914-1.86816c.12695-.12695.2251-.12695.35303,0l2.16455,2.16406c.14062.14062.33154.21973.53027.21973.19922,0,.38965-.0791.53027-.21973l1.25781-1.25806v.84302Z" fill="var(--iconPrimary, #222)"/>
</svg>