<?xml version="1.0" encoding="UTF-8"?>
<svg   xmlns="http://www.w3.org/2000/svg" width="20" height="20" viewBox="0 0 20 20">
  <path d="M12.94727,15.99125c-.02539,0-.39209-.01367-.58154-.03809l-.00195-.00098c-2.14258-.2832-3.79102-2.00586-4.90039-5.11914-.5083-1.42578-.79248-1.88965-.91113-2.03809-.05518.03613-.13818.10254-.24023.22363-.06885.0791-.39941.45117-.75977.67578-.53076.33008-1.16406.29688-1.28613.28906h-.00391c-1.38281,0-2.55518-1.17383-2.55518-2.61523,0-.64258.23438-1.25977.66064-1.73926,1.40186-1.64453,3.23633-2.40332,5.0249-2.08105,2.18213.39746,3.81836,2.20508,5.00195,5.52832.11719.3291.45557,1.2793.64697,1.52637.06982-.05859.18457-.17578.33887-.39844.39697-.5752.99463-.96094,1.68213-1.08594.6875-.12598,1.38525.02539,1.96094.4248.57471.39746.95996.99512,1.08545,1.68359.125.6875-.02539,1.38281-.42383,1.95801-.32617.46973-2.0835,2.80664-4.73779,2.80664ZM12.55957,14.46586c.13965.01758.40771.02539.41309.02539,1.92236,0,3.32617-1.94043,3.47949-2.16113.16992-.24512.23438-.54199.18066-.83594-.05322-.29297-.21777-.54883-.46338-.71777-.24658-.17188-.54297-.23828-.83838-.18262-.29248.05273-.54736.21777-.7168.46289-.5918.85449-1.21533,1.2041-1.85156,1.05664-.91699-.21777-1.2417-1.01855-1.78125-2.5332-.98779-2.77344-2.24951-4.26367-3.85742-4.55566-1.24902-.23242-2.56934.35156-3.625,1.58887-.19189.2168-.29199.48047-.29199.75488,0,.6377.51025,1.12695,1.18457,1.11914.14062,0,.29541-.02148.36816-.06641.12549-.07812.31738-.26855.41357-.37891.47168-.55762,1.06885-.84766,1.58008-.76953.84912.13184,1.32471.81738,2.12305,3.05664.90479,2.54004,2.14404,3.93164,3.68311,4.13672Z" fill="var(--iconPrimary, #222)"/>
</svg>