<?xml version="1.0" encoding="UTF-8"?>
<svg xmlns="http://www.w3.org/2000/svg" width="20" height="20" viewBox="0 0 20 20">
  <path d="M18.25,15.27124h-7.6687c-.34064-1.43005-1.62128-2.5-3.15405-2.5s-2.81342,1.06995-3.15405,2.5H1.75c-.41406,0-.75.33594-.75.75s.33594.75.75.75h2.52319c.34064,1.43005,1.62128,2.5,3.15405,2.5s2.81342-1.06995,3.15405-2.5h7.6687c.41406,0,.75-.33594.75-.75s-.33594-.75-.75-.75ZM7.42725,17.77124c-.96484,0-1.75-.78516-1.75-1.75s.78516-1.75,1.75-1.75,1.75.78516,1.75,1.75-.78516,1.75-1.75,1.75Z" fill="var(--iconPrimary, #222)"/>
  <path d="M10.12207,10.00024h-5.76172c-.72314,0-1.37109-.37402-1.73242-1.00049s-.36133-1.37402.00049-2l2.88086-4.98975h0c.36133-.62598,1.0083-.99951,1.73145-1h.00049c.72266,0,1.37012.37402,1.73193.99951l2.88086,4.99072c.36182.62598.36182,1.37354,0,2-.36133.62598-1.00879,1-1.73193,1ZM6.80811,2.76l-2.88086,4.99023c-.13037.22559-.04346.4248,0,.5s.17236.25.43311.25h5.76172c.26025,0,.38965-.1748.43311-.25s.13037-.27441,0-.5l-2.88086-4.99023c-.13037-.22559-.34668-.25-.43359-.25-.08643.00049-.30225.02441-.43262.25h0Z" fill="var(--iconPrimary, #222)"/>
  <path d="M13.1499,12.71948c-.15918,0-.31885-.0083-.47949-.0249-.45312-.04785-.89404-.1626-1.31006-.3418-.38037-.16406-.55566-.60547-.39209-.98584.16406-.38086.604-.55664.98584-.39209.27686.11963.57031.1958.87305.22754.79834.0874,1.57959-.14697,2.20166-.65186.62305-.50391,1.01221-1.2207,1.0957-2.01758.08398-.79688-.14746-1.57861-.65137-2.20166-.50439-.62305-1.2207-1.01221-2.01758-1.0957-.20264-.02148-.40771-.02197-.60938-.00293-.41504.04346-.77832-.26221-.81836-.6748-.03955-.41211.26221-.77832.6748-.81836.2998-.02832.60693-.02783.90918.00391,1.19629.12598,2.271.70996,3.02734,1.64404.75586.93457,1.10303,2.10742.97754,3.30273-.12598,1.19531-.70996,2.27002-1.64404,3.02637-.80859.65479-1.79639,1.00293-2.82275,1.00293Z" fill="var(--iconPrimary, #222)"/>
</svg>