<?xml version="1.0" encoding="UTF-8"?>
<svg   xmlns="http://www.w3.org/2000/svg" width="20" height="20" viewBox="0 0 20 20">
  <g>
    <path d="M10,2.00003C5.58179,2.00003,2,5.58176,2,10.00003s3.58179,8,8,8h8v-8c0-4.41827-3.58179-8-8-8ZM16.6134,16.6134h-6.6134c-3.65247,0-6.61328-2.96094-6.61328-6.61337s2.96082-6.61334,6.61328-6.61334,6.6134,2.96091,6.6134,6.61334v6.61337Z" fill="var(--iconPrimary, #222)" stroke-width="0"/>
    <path d="M8.85571,11.91904c-.21509.16898-.4762.25345-.78345.25345-.30713,0-.57214-.07297-.7948-.21887-.22278-.15363-.39941-.36481-.52991-.63361-.12292-.2688-.18433-.57986-.18433-.93314s.0614-.66434.18433-.93314c.13049-.2688.30713-.47614.52991-.62207.22266-.15359.48767-.23038.7948-.23038.29187,0,.54541.08063.76038.24191.21509.15359.37634.36862.48389.64511h1.47449c-.13818-.64511-.44922-1.1712-.93311-1.57825-.48389-.4147-1.07898-.62207-1.78564-.62207-.59131,0-1.10974.14209-1.55518.42624-.43774.27649-.77954.6528-1.02527,1.12897-.23804.46848-.35706.98303-.35706,1.54367s.11902,1.07904.35706,1.55521c.24573.46848.58752.84479,1.02527,1.12897.44543.27646.96387.4147,1.55518.4147.4762,0,.90625-.09601,1.29028-.28799.38403-.19968.69885-.46848.94458-.8064.24585-.34561.41089-.73346.49536-1.16351h-1.46289c-.09985.29184-.26123.52222-.48389.6912Z" fill="var(--iconPrimary, #222)" stroke-width="0"/>
    <path d="M12.76758,8.08289v-.63361h-1.38245v5.87518h1.44006v-3.0643c0-.54529.14587-.94083.43774-1.18655.1228-.1152.2688-.19971.43774-.25345.17664-.05377.3916-.08066.64502-.08066h.36865v-1.35934h-.35706c-.70654,0-1.23645.23425-1.58972.70273h.00002Z" fill="var(--iconPrimary, #222)" stroke-width="0"/>
  </g>
  <g>
    <path d="M10,2.00003C5.58179,2.00003,2,5.58176,2,10.00003s3.58179,8,8,8h8v-8c0-4.41827-3.58179-8-8-8ZM16.6134,16.6134h-6.6134c-3.65247,0-6.61328-2.96094-6.61328-6.61337s2.96082-6.61334,6.61328-6.61334,6.6134,2.96091,6.6134,6.61334v6.61337Z" fill="var(--iconPrimary, #222)" stroke-width="0"/>
    <path d="M8.85571,11.91904c-.21509.16898-.4762.25345-.78345.25345-.30713,0-.57214-.07297-.7948-.21887-.22278-.15363-.39941-.36481-.52991-.63361-.12292-.2688-.18433-.57986-.18433-.93314s.0614-.66434.18433-.93314c.13049-.2688.30713-.47614.52991-.62207.22266-.15359.48767-.23038.7948-.23038.29187,0,.54541.08063.76038.24191.21509.15359.37634.36862.48389.64511h1.47449c-.13818-.64511-.44922-1.1712-.93311-1.57825-.48389-.4147-1.07898-.62207-1.78564-.62207-.59131,0-1.10974.14209-1.55518.42624-.43774.27649-.77954.6528-1.02527,1.12897-.23804.46848-.35706.98303-.35706,1.54367s.11902,1.07904.35706,1.55521c.24573.46848.58752.84479,1.02527,1.12897.44543.27646.96387.4147,1.55518.4147.4762,0,.90625-.09601,1.29028-.28799.38403-.19968.69885-.46848.94458-.8064.24585-.34561.41089-.73346.49536-1.16351h-1.46289c-.09985.29184-.26123.52222-.48389.6912Z" fill="var(--iconPrimary, #222)" stroke-width="0"/>
    <path d="M12.76758,8.08289v-.63361h-1.38245v5.87518h1.44006v-3.0643c0-.54529.14587-.94083.43774-1.18655.1228-.1152.2688-.19971.43774-.25345.17664-.05377.3916-.08066.64502-.08066h.36865v-1.35934h-.35706c-.70654,0-1.23645.23425-1.58972.70273h.00002Z" fill="var(--iconPrimary, #222)" stroke-width="0"/>
  </g>
</svg>