<?xml version="1.0" encoding="UTF-8"?>
<svg id="e" data-name="ICONS" xmlns="http://www.w3.org/2000/svg" width="20" height="20" viewBox="0 0 20 20">
  <path d="M15.95703,3H7.53906c-.41406,0-.75.33594-.75.75s.33594.75.75.75h8.41797c.29932,0,.54297.24316.54297.54297v9.91406c0,.2998-.24365.54297-.54297.54297H6.04297c-.29932,0-.54297-.24316-.54297-.54297v-2.8252c0-.41406-.33594-.75-.75-.75s-.75.33594-.75.75v2.8252c0,1.12695.9165,2.04297,2.04297,2.04297h9.91406c1.12646,0,2.04297-.91602,2.04297-2.04297V5.04297c0-1.12695-.9165-2.04297-2.04297-2.04297Z" fill="var(--iconPrimary, #222)"/>
  <path d="M4.36963,7.92383h.54541l-.68164.68164c-.29297.29297-.29297.76758,0,1.06055.14648.14648.33838.21973.53027.21973s.38379-.07324.53027-.21973l1.94434-1.94434c.29297-.29297.29297-.76758,0-1.06055l-1.94434-1.94434c-.29297-.29297-.76758-.29297-1.06055,0s-.29297.76758,0,1.06055l.64673.64673-.55298.00073c-.64844.0498-1.25732-.22754-1.67383-.72363-.72168-.85938-.60938-2.14648.25049-2.86816.31689-.2666.3584-.73926.0918-1.05664-.26562-.31738-.73926-.35938-1.05664-.0918-1.49268,1.25293-1.68799,3.48828-.43457,4.98145.67139.7998,1.67432,1.26367,2.67871,1.2627.06201,0,.12451-.00098.18652-.00488Z" fill="var(--iconPrimary, #222)"/>
</svg>