<?xml version="1.0" encoding="UTF-8"?>
<svg xmlns="http://www.w3.org/2000/svg" width="20" height="20" viewBox="0 0 20 20">
  <path d="M13.24805,19.25098c-3.25098,0-5.87988-2.55176-5.98535-5.80859-.00781-.24023.10059-.46973.29004-.61621.18848-.14746.43652-.19434.66797-.12891.30176.08691.55078.12793.78516.12793,1.54883,0,2.80957-1.26074,2.80957-2.80957,0-.50781-.14746-1.01562-.42676-1.46777-.12598-.20508-.14648-.45801-.05469-.67969.0918-.22266.28516-.3877.51953-.44336.50195-.12012.95801-.17773,1.39453-.17773,3.30957,0,6.00195,2.69238,6.00195,6.00195s-2.69238,6.00195-6.00195,6.00195ZM8.8877,14.32324c.47754,1.98242,2.24316,3.42773,4.36035,3.42773,2.48242,0,4.50195-2.01953,4.50195-4.50195,0-2.52539-2.10059-4.55859-4.63086-4.5.12988.41113.19629.83789.19629,1.2666,0,2.41504-1.98633,4.33691-4.42773,4.30762Z" fill="var(--iconPrimary, #222)"/>
  <path d="M18.5,3h-3.86707c-.32886-1.15063-1.37805-2-2.63293-2s-2.30408.84937-2.63293,2H1.5c-.41406,0-.75.33594-.75.75s.33594.75.75.75h7.86707c.32886,1.15063,1.37805,2,2.63293,2s2.30408-.84937,2.63293-2h3.86707c.41406,0,.75-.33594.75-.75s-.33594-.75-.75-.75ZM12,5c-.68945,0-1.25-.56055-1.25-1.25s.56055-1.25,1.25-1.25,1.25.56055,1.25,1.25-.56055,1.25-1.25,1.25Z" fill="var(--iconPrimary, #222)"/>
  <path d="M9,9h-1.36707c-.32886-1.15063-1.37805-2-2.63293-2s-2.30408.84937-2.63293,2h-.86707c-.41406,0-.75.33594-.75.75s.33594.75.75.75h.86707c.32886,1.15063,1.37805,2,2.63293,2s2.30408-.84937,2.63293-2h1.36707c.41406,0,.75-.33594.75-.75s-.33594-.75-.75-.75ZM5,11c-.68945,0-1.25-.56055-1.25-1.25s.56055-1.25,1.25-1.25,1.25.56055,1.25,1.25-.56055,1.25-1.25,1.25Z" fill="var(--iconPrimary, #222)"/>
  <path d="M11.42903,16.04953c.34518,0,.625-.27982.625-.625s-.27982-.625-.625-.625-.625.27982-.625.625.27982.625.625.625h0" fill="var(--iconPrimary, #222)"/>
  <path d="M14.3229,16.49953c.46944,0,.85-.38055.85-.85s-.38055-.85-.85-.85-.85.38055-.85.85.38055.85.85.85h0" fill="var(--iconPrimary, #222)"/>
  <path d="M14.05421,13.72001c.33517,0,.60687-.2717.60687-.60687s-.2717-.60687-.60687-.60687-.60687.2717-.60687.60687.2717.60687.60687.60687h0" fill="var(--iconPrimary, #222)"/>
  <path d="M15.1729,11.46301c.26813,0,.4855-.21736.4855-.4855s-.21736-.4855-.4855-.4855-.4855.21736-.4855.4855.21736.4855.4855.4855h0" fill="var(--iconPrimary, #222)"/>
  <path d="M16.02425,14.30276c.26813,0,.4855-.21736.4855-.4855s-.21736-.4855-.4855-.4855-.4855.21736-.4855.4855.21736.4855.4855.4855h0" fill="var(--iconPrimary, #222)"/>
</svg>