<?xml version="1.0" encoding="UTF-8"?>
<svg id="f" data-name="ICONS" xmlns="http://www.w3.org/2000/svg" width="20" height="20" viewBox="0 0 20 20">
  <path d="M7.86726,14.0718c.41421,0,.75-.33579.75-.75s-.33579-.75-.75-.75-.75.33579-.75.75.33579.75.75.75h0Z" fill="var(--iconPrimary, #222)"/>
  <path d="M11.77967,14.91486c.69036,0,1.25-.55964,1.25-1.25s-.55964-1.25-1.25-1.25-1.25.55964-1.25,1.25.55964,1.25,1.25,1.25h0Z" fill="var(--iconPrimary, #222)"/>
  <path d="M9.61999,10.22285c.51104,0,.92532-.41428.92532-.92532,0-.51104-.41428-.92532-.92532-.92532s-.92532.41428-.92532.92532.41428.92532.92532.92532h0Z" fill="var(--iconPrimary, #222)"/>
  <path d="M12.8257,6.78151c.40883,0,.74026-.33142.74026-.74025s-.33142-.74026-.74025-.74026-.74026.33142-.74026.74025.33142.74026.74025.74026h0Z" fill="var(--iconPrimary, #222)"/>
  <path d="M14.37378,11.11139c.40883,0,.74026-.33142.74026-.74025s-.33142-.74026-.74025-.74026-.74026.33142-.74026.74025.33142.74026.74025.74026h0Z" fill="var(--iconPrimary, #222)"/>
  <path d="M10,18.75c-4.56055,0-8.30566-3.42383-8.71094-7.96484-.01758-.19922.04492-.39844.1748-.55078.12891-.15332.31445-.24805.51465-.26367,1.38965-.10645,2.47852-1.27051,2.48633-2.65332-.00391-.0332-.01758-.15137-.01855-.16113-.0127-.21875.07031-.43164.22754-.58398.1582-.15234.36719-.22852.59277-.20801l.14355.01758c.04004.00488.08105.0127.12305.0127,1.48438,0,2.69141-1.20703,2.69141-2.69141,0-.41309-.10449-.8252-.31152-1.22656-.10938-.21094-.1123-.46289-.00586-.67578.10547-.21387.30566-.36426.54102-.40625.54688-.09766,1.05469-.14453,1.55176-.14453,4.8252,0,8.75,3.9248,8.75,8.75s-3.9248,8.75-8.75,8.75ZM2.875,11.33105c.62598,3.41895,3.57715,5.91895,7.125,5.91895,3.99805,0,7.25-3.25195,7.25-7.25s-3.25195-7.25-7.25-7.25c-.12793,0-.25684.00391-.38867.01172.0752.30957.11328.62402.11328.94141,0,2.17871-1.67188,3.97559-3.7998,4.17285-.23145,1.64941-1.44824,3.01562-3.0498,3.45508Z" fill="var(--iconPrimary, #222)"/>
</svg>