<?xml version="1.0" encoding="UTF-8"?>
<svg id="f" data-name="ICONS" xmlns="http://www.w3.org/2000/svg" width="20" height="20" viewBox="0 0 20 20">
  <path d="M18.55273,10.03775c-.96582-.7915-2.45312-.68848-3.37891.23926l-4.18262,4.18262c-.24805.24756-.43262.55566-.5332.89062l-.9541,3.15967c-.08008.26465-.00781.55176.1875.74707.14258.14258.33398.21973.53027.21973.07227,0,.14551-.01025.2168-.03223l3.1582-.95361c.33594-.10107.64453-.28516.89062-.53271,0,0,4.125-4.12451,4.25293-4.25293.49316-.49268.75684-1.17529.72168-1.87207-.03418-.69678-.36621-1.35107-.90918-1.79541h0ZM11.34375,17.60416l.55078-1.82129c.01709-.05737.05786-.10181.09033-.15161l1.33228,1.33215c-.05005.03284-.09473.07373-.15308.09143l-1.82031.54932ZM17.67871,12.64566c-.09277.09326-2.25122,2.25146-3.45581,3.45581l-1.37646-1.37598,3.38794-3.38794c.22168-.22168.5127-.33691.79297-.33691.20996,0,.41309.06494.57617.19824.21875.17871.34668.43066.36035.7085.01367.27832-.08691.54004-.28516.73828Z" fill="var(--iconPrimary, #222)"/>
  <circle cx="13.5" cy="5.65" r="1.25" fill="var(--iconPrimary, #222)"/>
  <path d="M16.75,2H3.25c-1.24023,0-2.25,1.00977-2.25,2.25v5.5c0,1.24023,1.00977,2.25,2.25,2.25h7.75c.41406,0,.75-.33594.75-.75s-.33594-.75-.75-.75H3.25c-.41309,0-.75-.33691-.75-.75v-1.67188l1.78809-.91895c.50195-.25684,1.41504-.25781,1.91699,0l3.96582,2.03809c.34473.17773.77734.26562,1.20996.26562s.86523-.08789,1.21094-.26562c.36816-.18848.51367-.64062.32422-1.00977-.18848-.36914-.63965-.51465-1.00977-.32422-.26562.13477-.78613.13672-1.0498,0l-3.96582-2.03809c-.93848-.4834-2.35156-.48145-3.28809,0l-1.10254.56665v-2.14185c0-.41309.33691-.75.75-.75h13.5c.41309,0,.75.33691.75.75v3c0,.41406.33594.75.75.75s.75-.33594.75-.75v-3c0-1.24023-1.00977-2.25-2.25-2.25Z" fill="var(--iconPrimary, #222)"/>
</svg>