<?xml version="1.0" encoding="UTF-8"?>
<svg   xmlns="http://www.w3.org/2000/svg" width="20" height="20" viewBox="0 0 20 20">
  <path d="M15,10.521c-2.48535,0-4.5,2.01489-4.5,4.5,0,2.48535,2.01465,4.5,4.5,4.5s4.5-2.01465,4.5-4.5c0-2.48511-2.01465-4.5-4.5-4.5ZM17.5,15.64648h-1.875v1.875c0,.34473-.28027.625-.625.625s-.625-.28027-.625-.625v-1.875h-1.875c-.34473,0-.625-.28027-.625-.625s.28027-.625.625-.625h1.875v-1.875c0-.34473.28027-.625.625-.625s.625.28027.625.625v1.875h1.875c.34473,0,.625.28027.625.625s-.28027.625-.625.625Z" fill="var(--iconPrimary, #222)" stroke-width="0"/>
  <circle cx="12.25" cy="5.4" r="1.25" fill="var(--iconPrimary, #222)" stroke-width="0"/>
  <path d="M9.14941,12H3.25c-1.24023,0-2.25-1.00977-2.25-2.25v-5.5c0-1.24023,1.00977-2.25,2.25-2.25h13.5c1.24023,0,2.25,1.00977,2.25,2.25v4.40332c0,.26172-.13672.54688-.36133.68262-.22266.13574-.50293.1875-.73535.06543l-1.88672-.98242c-.49805-.25684-1.41211-.25684-1.91211.00195l-1.5127.77637c-.69141.35547-1.73145.35547-2.4209,0l-3.96582-2.03809c-.50293-.25684-1.41602-.25684-1.91699,0l-1.78809.91895v1.67188c0,.41309.33691.75.75.75h5.89941c.41406,0,.75.33594.75.75s-.33594.75-.75.75ZM5.24707,5.46387c.58691,0,1.1748.12012,1.64355.36133l3.96582,2.03809c.26367.13672.78418.13477,1.0498,0l1.51172-.77637c.9375-.48242,2.34961-.48242,3.28906,0l.79297.41309v-3.25c0-.41309-.33691-.75-.75-.75H3.25c-.41309,0-.75.33691-.75.75v2.1416l1.10254-.56641c.46875-.24121,1.05664-.36133,1.64453-.36133Z" fill="var(--iconPrimary, #222)" stroke-width="0"/>
</svg>