<?xml version="1.0" encoding="UTF-8"?>
<svg id="e" data-name="ICONS" xmlns="http://www.w3.org/2000/svg" width="20" height="20" viewBox="0 0 20 20">
  <path d="M18.86328,9.90137c-.4043-.33398-.93066-.46973-1.42773-.37109l-3.53809.58887c-.82129.16016-1.41699.88379-1.41504,1.7207l.00488,3.64746c-.5625-.02246-1.17676.05859-1.5957.25879-.62012.29688-1.08984.80176-1.29102,1.38477-.16016.46484-.13477.94824.06934,1.36133.32129.65039,1.00391,1.01172,1.76855,1.01172.37695,0,.77344-.08789,1.15625-.27148.83789-.40039,1.38574-1.1748,1.39551-1.98242l-.00098-.79688c.00195-.03027.00195-.06055,0-.08984l-.00684-4.52637c0-.11914.08496-.22266.18164-.24121l3.53711-.58887c.10352-.01855.17383.02441.20801.05273.03418.02734.09082.08984.09082.19238v3.16797c-.56641-.02148-1.17773.05762-1.59863.25879-.61914.29688-1.08984.80176-1.29102,1.38379-.16016.46484-.13574.94824.06934,1.36328.47949.96973,1.76172,1.2959,2.92383.73926.83887-.40039,1.38672-1.1748,1.39648-1.98145v-4.93164c0-.52441-.23242-1.0166-.63672-1.35059ZM12.49023,17.24219c-.00195.18848-.18945.46777-.54297.63672-.44043.21387-.85156.11035-.93262-.05176-.0332-.06641-.01562-.14941.00391-.20801.05469-.15723.21973-.37598.52051-.52051.17285-.08301.46973-.11719.74512-.11719.07031,0,.14062.00195.20605.00684v.25391ZM18,16.1748c-.00195.18359-.19336.46973-.54395.6377-.43945.21191-.85254.10938-.93164-.05176-.0332-.06641-.0166-.15039.00391-.20898.05469-.15723.21973-.37598.52148-.52051.17188-.08301.4707-.11816.74609-.11816.07031,0,.13965.00293.2041.00684v.25488Z" fill="var(--iconPrimary, #222)"/>
  <path d="M10.31824,5.06396c0,.72803.59021,1.31812,1.31824,1.31812s1.31812-.59009,1.31812-1.31812-.59009-1.31812-1.31812-1.31812-1.31824.59009-1.31824,1.31812Z" fill="var(--iconPrimary, #222)"/>
  <path d="M11,12.75c0-.41406-.33594-.75-.75-.75H3.25c-.41309,0-.75-.33691-.75-.75v-1.07422l2.45703-2.45605c.29297-.29297.76758-.29297,1.06055,0l2.62402,2.62402c.33008.33105.76953.5127,1.2373.5127s.90723-.18164,1.23535-.51074l.125-.12402c.29395-.29199.2959-.7666.00391-1.06055-.29102-.29297-.76562-.29688-1.06055-.00391l-.12695.12598c-.09766.09766-.25586.09766-.35352,0l-2.62402-2.62402c-.84961-.84961-2.33203-.84961-3.18164,0l-1.39648,1.396V3.25c0-.41309.33691-.75.75-.75h11.5c.41309,0,.75.33691.75.75v4.25c0,.41406.33594.75.75.75s.75-.33594.75-.75V3.25c0-1.24023-1.00977-2.25-2.25-2.25H3.25c-1.24023,0-2.25,1.00977-2.25,2.25v8c0,1.24023,1.00977,2.25,2.25,2.25h7c.41406,0,.75-.33594.75-.75Z" fill="var(--iconPrimary, #222)"/>
</svg>