<?xml version="1.0" encoding="UTF-8"?>
<svg id="e" data-name="ICONS" xmlns="http://www.w3.org/2000/svg" width="20" height="20" viewBox="0 0 20 20">
  <path d="M16.75,4h-.25v-1.15039c0-.76465-.36719-1.4834-.98242-1.92188-.60693-.43555-1.36182-.54395-2.04932-.30859L2.77197,4.03516c-.02844.00903-.04846.02979-.07501.04175-.9726.24829-1.69696,1.12476-1.69696,2.1731v10.5c0,1.24023,1.00928,2.25,2.25,2.25h13.5c1.24072,0,2.25-1.00977,2.25-2.25V6.25c0-1.24023-1.00928-2.25-2.25-2.25ZM13.93994,2.04297c.23975-.08203.49805-.04395.70605.10547.2251.16016.354.41602.354.70117v1.15039h-7.1864l6.12634-1.95703ZM17.5,16.75c0,.41309-.33643.75-.75.75H3.25c-.41357,0-.75-.33691-.75-.75V6.25c0-.41309.33643-.75.75-.75h13.5c.41357,0,.75.33691.75.75v10.5Z" fill="var(--iconPrimary, #222)"/>
  <path d="M8.25,11.5h-3.5c-.41406,0-.75-.33594-.75-.75s.33594-.75.75-.75h3.5c.41406,0,.75.33594.75.75s-.33594.75-.75.75Z" fill="var(--iconPrimary, #222)"/>
  <path d="M8.25,8.5h-3.5c-.41406,0-.75-.33594-.75-.75s.33594-.75.75-.75h3.5c.41406,0,.75.33594.75.75s-.33594.75-.75.75Z" fill="var(--iconPrimary, #222)"/>
  <path d="M15.25,16h-3.5c-.41406,0-.75-.33594-.75-.75s.33594-.75.75-.75h3.5c.41406,0,.75.33594.75.75s-.33594.75-.75.75Z" fill="var(--iconPrimary, #222)"/>
  <path id="f" data-name="Path 1005062" d="M7,14.5c0,.82843-.67157,1.5-1.5,1.5-.82843,0-1.5-.67157-1.5-1.5,0-.82843.67157-1.5,1.5-1.5s1.5.67157,1.5,1.5h0Z" fill="var(--iconPrimary, #222)"/>
  <path d="M14.25,7h-1.5c-.96484,0-1.75.78516-1.75,1.75v2.5c0,.96484.78516,1.75,1.75,1.75h1.5c.96484,0,1.75-.78516,1.75-1.75v-2.5c0-.96484-.78516-1.75-1.75-1.75ZM14.5,11.25c0,.1377-.1123.25-.25.25h-1.5c-.1377,0-.25-.1123-.25-.25v-2.5c0-.1377.1123-.25.25-.25h1.5c.1377,0,.25.1123.25.25v2.5Z" fill="var(--iconPrimary, #222)"/>
</svg>