<?xml version="1.0" encoding="UTF-8"?>
<svg id="e" data-name="ICONS" xmlns="http://www.w3.org/2000/svg" width="20" height="20" viewBox="0 0 20 20">
  <path d="M15.25,18H4.75c-1.5166,0-2.75-1.2334-2.75-2.75V4.75c0-1.5166,1.2334-2.75,2.75-2.75h10.5c1.5166,0,2.75,1.2334,2.75,2.75v10.5c0,1.5166-1.2334,2.75-2.75,2.75ZM4.75,3.5c-.68945,0-1.25.56055-1.25,1.25v10.5c0,.68945.56055,1.25,1.25,1.25h10.5c.68945,0,1.25-.56055,1.25-1.25V4.75c0-.68945-.56055-1.25-1.25-1.25H4.75Z" fill="var(--iconPrimary, #222)"/>
  <path d="M7.9502,15.00391c-.83008,0-1.57031-.38867-1.91699-1.08984-.2207-.44727-.24707-.96973-.07324-1.47168.21875-.63574.73438-1.1875,1.41309-1.5127.49121-.23535,1.21875-.3252,1.87305-.27832v-4.90137c0-.30371.18262-.57715.46289-.69336.28125-.11426.60254-.05078.81738.16309l.49902.49902c.62598.62598,1.49316.98535,2.37891.98535.41406,0,.75.33594.75.75s-.33594.75-.75.75c-.94336,0-1.87207-.28223-2.6582-.79297v5.13672c0,.86621-.59863,1.71289-1.52539,2.1582-.42188.20215-.85742.29785-1.27051.29785ZM8.91113,12.13867c-.32617,0-.67871.04297-.88965.14453-.31543.15039-.55566.39355-.64453.64844-.04199.12402-.04199.23047.00098.31738.12793.25586.66406.35742,1.19336.10449.44238-.21191.6748-.56641.6748-.80566v-.39258c-.10254-.01074-.2168-.0166-.33496-.0166Z" fill="var(--iconPrimary, #222)"/>
</svg>