<?xml version="1.0" encoding="UTF-8"?>
<svg id="e" data-name="ICONS" xmlns="http://www.w3.org/2000/svg" width="20" height="20" viewBox="0 0 20 20">
  <path d="M17.25,15h.00977c.41406,0,.75-.33594.75-.75V3.25c0-1.24023-1.00977-2.25-2.25-2.25H3.75c-1.5166,0-2.75,1.2334-2.75,2.74902l-.00977,12.4248c0,.02051.01001.0376.0116.05786-.00012.0061-.00183.01196-.00183.01831,0,1.5166,1.2334,2.75,2.75,2.75h13.5c.41406,0,.75-.33594.75-.75s-.33594-.75-.75-.75c-.68945,0-1.25-.56055-1.25-1.25s.56055-1.25,1.25-1.25ZM5.75,10.60254l2.2666-2.26562c.09766-.09766.25586-.09766.35352,0l2.30664,2.30664c.56641.56641,1.55469.56641,2.12109,0l.88867-.88965c.09668-.09766.25586-.09766.35449,0l2.46875,2.46973v1.27637H5.75v-2.89746ZM15.75977,2.5c.41309,0,.75.33691.75.75v6.85205l-1.4082-1.40869c-.68164-.68359-1.79395-.68164-2.47559,0l-.88867.88965-2.30664-2.30664c-.66016-.66211-1.81445-.66211-2.47461,0l-1.20605,1.20557V2.5h10.00977ZM3.75,2.5h.5v11h-.5c-.45557,0-.87915.12183-1.25793.31885l.00793-10.06885c0-.68945.56055-1.25,1.25-1.25ZM3.75,17.5c-.68945,0-1.25-.56055-1.25-1.25s.56055-1.25,1.25-1.25h11.06445c-.19421.37671-.31445.79761-.31445,1.25,0,.4502.1084.875.30078,1.25H3.75Z" fill="var(--iconPrimary, #222)"/>
  <path d="M13.15894,7.09082c.58716,0,1.06323-.47607,1.06323-1.06348,0-.58716-.47607-1.06299-1.06323-1.06299-.58728,0-1.06323.47583-1.06323,1.06299,0,.5874.47595,1.06348,1.06323,1.06348Z" fill="var(--iconPrimary, #222)"/>
</svg>