<?xml version="1.0" encoding="UTF-8"?>
<svg id="e" data-name="ICONS" xmlns="http://www.w3.org/2000/svg" width="20" height="20" viewBox="0 0 20 20">
  <path d="M16.75,4h-.25v-1.15039c0-.76465-.36719-1.4834-.98242-1.92188-.60791-.43555-1.36133-.54395-2.04932-.30859L2.77197,4.03516c-.02844.00903-.04846.02979-.07501.04175-.9726.24829-1.69696,1.12476-1.69696,2.1731v10.5c0,1.24023,1.00928,2.25,2.25,2.25h13.5c1.24072,0,2.25-1.00977,2.25-2.25V6.25c0-1.24023-1.00928-2.25-2.25-2.25ZM13.93994,2.04297c.23975-.08203.49707-.04395.70605.10547.2251.16016.354.41602.354.70117v1.15039h-7.1864l6.12634-1.95703ZM17.5,16.75c0,.41309-.33643.75-.75.75H3.25c-.41357,0-.75-.33691-.75-.75V6.25c0-.41309.33643-.75.75-.75h13.5c.41357,0,.75.33691.75.75v10.5Z" fill="var(--iconPrimary, #222)"/>
  <path d="M14.88184,8.95117c-.42334-.44531-1.01807-.70117-1.63184-.70117h-.49512c-.36969-.73755-1.12512-1.25-2.00488-1.25h-3c-1.24072,0-2.25,1.00977-2.25,2.25v1.75c0,1.58154,1.04486,2.96069,2.46411,3.5h-1.21411c-.41406,0-.75.33594-.75.75s.33594.75.75.75h5c.41406,0,.75-.33594.75-.75s-.33594-.75-.75-.75h-1.1311c.86377-.32007,1.54718-.94141,1.95709-1.75h.58905c1.24512,0,2.26953-.93555,2.33203-2.12988.03223-.62402-.18604-1.2168-.61523-1.66895ZM9.25,13.25c-1.21973,0-2.25-1.03027-2.25-2.25v-1.75c0-.41309.33643-.75.75-.75h3c.41357,0,.75.33691.75.75v1.75c0,1.30371-.94629,2.25-2.25,2.25ZM13.16504,11.25h-.18872c.00519-.08447.02368-.16382.02368-.25v-1.25h.25c.20752,0,.40088.08301.54395.2334.14307.15137.21582.34961.20508.55859-.02051.39062-.39453.70801-.83398.70801Z" fill="var(--iconPrimary, #222)"/>
</svg>