<?xml version="1.0" encoding="UTF-8"?>
<svg id="e" data-name="ICONS" xmlns="http://www.w3.org/2000/svg" width="20" height="20" viewBox="0 0 20 20">
  <path d="M16.75,3H3.25c-1.24072,0-2.25,1.00977-2.25,2.25v9.5c0,1.24023,1.00928,2.25,2.25,2.25h13.5c1.24072,0,2.25-1.00977,2.25-2.25V5.25c0-1.24023-1.00928-2.25-2.25-2.25ZM17.5,14.75c0,.41309-.33643.75-.75.75h-1.25v-4.75c0-.41406-.33594-.75-.75-.75s-.75.33594-.75.75v4.75h-1.5v-2.25c0-.41406-.33594-.75-.75-.75s-.75.33594-.75.75v2.25h-1.5v-3.5c0-.41406-.33594-.75-.75-.75s-.75.33594-.75.75v3.5h-1.5v-1.25c0-.41406-.33594-.75-.75-.75s-.75.33594-.75.75v1.25h-1.75c-.41357,0-.75-.33691-.75-.75V5.25c0-.41309.33643-.75.75-.75h13.5c.41357,0,.75.33691.75.75v9.5Z" fill="var(--iconPrimary, #222)"/>
  <path d="M14.21973,6.71973l-2.38623,2.38672c-.08691.08691-.22803.09863-.32764.02344l-1.5835-1.1875c-.72168-.54102-1.72559-.44922-2.33594.21191l-2.3877,2.58691c-.28076.30469-.26172.7793.04248,1.05957.14453.13379.32666.19922.50879.19922.20166,0,.40332-.08105.55127-.24121l2.3877-2.58691c.08691-.09277.22998-.10645.3335-.03027l1.5835,1.1875c.69141.51953,1.67432.44922,2.2876-.16211l2.38672-2.38672c.29297-.29297.29297-.76758,0-1.06055s-.76758-.29297-1.06055,0Z" fill="var(--iconPrimary, #222)"/>
</svg>