<?xml version="1.0" encoding="UTF-8"?>
<svg id="e" data-name="ICONS" xmlns="http://www.w3.org/2000/svg" width="20" height="20" viewBox="0 0 20 20">
  <path d="M15.125,15.11523c1.21777,0,2.20898-.99121,2.20898-2.20996v-1.69629c0-1.21777-.99121-2.20898-2.20898-2.20898s-2.20898.99121-2.20898,2.20898v1.69629c0,1.21875.99121,2.20996,2.20898,2.20996ZM14.41602,11.20898c0-.39062.31836-.70898.70898-.70898s.70898.31836.70898.70898v1.69629c0,.3916-.31836.70996-.70898.70996s-.70898-.31836-.70898-.70996v-1.69629Z" fill="var(--iconPrimary, #222)"/>
  <path d="M19.69824,13.61426c.06348-.40918-.21777-.79297-.62695-.85547-.40625-.06348-.79199.21875-.85547.62695-.2373,1.54297-1.53711,2.66211-3.09082,2.66211s-2.85352-1.11914-3.09082-2.66211c-.0625-.40918-.44043-.68555-.85547-.62695-.40918.0625-.69043.44629-.62695.85547.31152,2.02563,1.86768,3.55029,3.82324,3.86621v.51953h-.38477c-.41406,0-.75.33594-.75.75s.33594.75.75.75h2.26953c.41406,0,.75-.33594.75-.75s-.33594-.75-.75-.75h-.38477v-.51953c1.95557-.31592,3.51172-1.84058,3.82324-3.86621Z" fill="var(--iconPrimary, #222)"/>
  <path d="M11.63647,3.74585c-.72803,0-1.31824.59009-1.31824,1.31812s.59021,1.31812,1.31824,1.31812,1.31812-.59009,1.31812-1.31812-.59009-1.31812-1.31812-1.31812Z" fill="var(--iconPrimary, #222)"/>
  <path d="M4.95703,7.71973c.29297-.29297.76758-.29297,1.06055,0l2.62402,2.62402c.34082.34082.78906.51172,1.2373.51172s.89648-.1709,1.2373-.51172l.37109-.37109c.29297-.29297.29297-.76758,0-1.06055s-.76758-.29297-1.06055,0l-.37109.37109c-.09766.09766-.25586.09766-.35352,0l-2.62402-2.62402c-.87695-.87695-2.30469-.87695-3.18164,0l-1.39648,1.396V3.25c0-.41309.33691-.75.75-.75h11.5c.41309,0,.75.33691.75.75v3.625c0,.41406.33594.75.75.75s.75-.33594.75-.75v-3.625c0-1.24023-1.00977-2.25-2.25-2.25H3.25c-1.24023,0-2.25,1.00977-2.25,2.25v8c0,1.24023,1.00977,2.25,2.25,2.25h5.125c.41406,0,.75-.33594.75-.75s-.33594-.75-.75-.75H3.25c-.41309,0-.75-.33691-.75-.75v-1.07422l2.45703-2.45605Z" fill="var(--iconPrimary, #222)"/>
</svg>