<?xml version="1.0" encoding="UTF-8"?>
<svg id="f" data-name="ICONS" xmlns="http://www.w3.org/2000/svg" width="20" height="20" viewBox="0 0 20 20">
  <circle cx="12.25" cy="8.4" r="1.25" fill="var(--iconPrimary, #222)"/>
  <path d="M16.75,5H3.25c-1.24023,0-2.25,1.00977-2.25,2.25v5.5c0,1.24023,1.00977,2.25,2.25,2.25h13.5c1.24023,0,2.25-1.00977,2.25-2.25v-5.5c0-1.24023-1.00977-2.25-2.25-2.25ZM3.25,6.5h13.5c.41309,0,.75.33691.75.75v3.24463l-.79297-.40771c-.93945-.48242-2.35156-.48242-3.28906,0l-1.51172.77637c-.26562.13477-.78613.13672-1.0498,0l-3.96582-2.03809c-.93848-.4834-2.35156-.48145-3.28809,0l-1.10254.56665v-2.14185c0-.41309.33691-.75.75-.75ZM16.75,13.5H3.25c-.41309,0-.75-.33691-.75-.75v-1.67188l1.78809-.91895c.50098-.25684,1.41406-.25781,1.91699,0l3.96582,2.03809c.34473.17773.77734.26562,1.20996.26562s.86523-.08789,1.21094-.26562l1.5127-.77637c.5-.25879,1.41406-.25781,1.91602,0l1.47949.76025v.56885c0,.41309-.33691.75-.75.75Z" fill="var(--iconPrimary, #222)"/>
</svg>