<?xml version="1.0" encoding="UTF-8"?>
<svg id="e" data-name="ICONS" xmlns="http://www.w3.org/2000/svg" width="20" height="20" viewBox="0 0 20 20">
  <path id="f" data-name=" 256" d="M17.14717,5.61133c-1.26763-1.35657-3.04431-2.12192-4.90093-2.11121-1.81832.00381-3.5603.73139-4.84116,2.02201-.21915-.0198-.4383-.03965-.64749-.03965-3.16918-.00119-5.74302,2.55988-5.75759,5.72903.01282,1.4907.58933,2.92131,1.6137,4.00437,1.07628,1.14054,2.57571,1.78611,4.1439,1.78412h5.48865c3.72524.00476,6.749-3.0113,6.75375-6.73654.00221-1.73101-.66116-3.39661-1.85282-4.65213ZM6.65798,16.03855c-2.62485.00469-4.75651-2.11937-4.7612-4.74422-.00469-2.62485,2.11937-4.75651,4.74422-4.7612,1.16634-.00208,2.29272.42478,3.16474,1.19934l.01993.0198,1.98228,2.02201c.32574.33317.31973.86732-.01344,1.19306-.00215.0021-.00431.00419-.00648.00627-.33862.32656-.8776.31771-1.20531-.0198l-1.96237-2.00219c-1.27514-1.09192-3.19246-.95028-4.2933.31718-.4766.54644-.73854,1.24737-.7371,1.97245.03258,1.69701,1.41064,3.05943,3.10791,3.07266h.38848v.0099c.61928.67259,1.33419,1.25036,2.12175,1.71475h-2.55011ZM16.42996,14.32381c-1.0699,1.10921-2.54301,1.73843-4.08411,1.74448-1.54798-.03827-3.02012-.67825-4.10399-1.78412l-2.60989-2.60681c-.32598-.33493-.32154-.86986.00996-1.19933.33933-.32477.87683-.31594,1.20531.0198l2.59988,2.58698c.76052.79211,1.80114,1.25468,2.89872,1.28854,1.08626.00048,2.12444-.44788,2.86883-1.23898.76552-.78081,1.19464-1.83048,1.19535-2.92395-.01218-2.24724-1.83683-4.06284-4.08411-4.06384-.80475-.03308-1.59842.19654-2.2612.65418-.00996-.0099-.19922-.12885-.40841-.25771-.12949-.0793-.26896-.15859-.38848-.21806-.11954-.06938-.47814-.23789-.68733-.32709-.04981-.0198-.11954-.04956-.1494-.05947h.00996c1.05355-.98001,2.44624-1.51301,3.88488-1.4868,3.18731-.00525,5.77688,2.57149,5.78747,5.75878.00217,1.53927-.60273,3.01731-1.68345,4.1134Z" fill="var(--iconPrimary, #222)"/>
</svg>