<?xml version="1.0" encoding="UTF-8"?>
<svg id="i" data-name="Icons" xmlns="http://www.w3.org/2000/svg" width="20" height="20" viewBox="0 0 20 20">
  <path d="M10.00439,17.75004h-.05811c-2.0918-.01562-4.04688-.85059-5.50537-2.35254-2.87549-2.95801-2.84863-7.93262.05957-10.8623,2.21631-2.23242,5.5332-2.90039,8.44727-1.70215.62451.25684.93359.95703.70361,1.59473-.12646.34961-.39893.7666-.71388,1.24902-.40379.61719-1.34862,2.06348-1.01317,2.39941.34033.3418,1.79053-.60645,2.40869-1.0127.47754-.31348.88965-.58398,1.23633-.71094.63721-.2373,1.34033.07324,1.59814.69922,0,.00098.00049.00098.00049.00098,1.19238,2.9043.53174,6.21191-1.68311,8.42676-1.46582,1.46582-3.41016,2.27051-5.48047,2.27051ZM9.98877,3.74614c-1.63037,0-3.22656.63965-4.42383,1.8457-2.34521,2.3623-2.36719,6.37402-.04834,8.76074,1.17676,1.21094,2.75391,1.88477,4.44043,1.89746h.04736c1.66992,0,3.23779-.64941,4.41992-1.83105,1.72461-1.72461,2.27979-4.27246,1.44971-6.55469-.19775.11133-.46094.28418-.71777.45312-1.229.80664-3.08545,2.02539-4.29248.81934-1.19678-1.19727-.03223-2.97949.81787-4.28027.1709-.26172.3457-.5293.45703-.72852-.70215-.25684-1.42969-.38184-2.1499-.38184ZM15.78076,7.62407h0Z" fill="var(--iconPrimary, #222)"/>
</svg>