<?xml version="1.0" encoding="UTF-8"?>
<svg 
     xmlns="http://www.w3.org/2000/svg" width="20" height="20" viewBox="0 0 20 20">
  <path d="M7,18h-1.75c-1.24023,0-2.25-1.00977-2.25-2.25v-1.25c0-.41406.33594-.75.75-.75s.75.33594.75.75v1.25c0,.41309.33691.75.75.75h1.75c.41406,0,.75.33594.75.75s-.33594.75-.75.75Z" fill="var(--iconPrimary, #222)"/>
  <path d="M15.75,18h-1.75c-.41406,0-.75-.33594-.75-.75s.33594-.75.75-.75h1.75c.41309,0,.75-.33691.75-.75v-1.25c0-.41406.33594-.75.75-.75s.75.33594.75.75v1.25c0,1.24023-1.00977,2.25-2.25,2.25Z" fill="var(--iconPrimary, #222)"/>
  <path d="M3.75,11.25c-.41406,0-.75-.33594-.75-.75v-1.25c0-1.24023,1.00977-2.25,2.25-2.25h1.75c.41406,0,.75.33594.75.75s-.33594.75-.75.75h-1.75c-.41309,0-.75.33691-.75.75v1.25c0,.41406-.33594.75-.75.75Z" fill="var(--iconPrimary, #222)"/>
  <path d="M17.25,11.25c-.41406,0-.75-.33594-.75-.75v-1.25c0-.41309-.33691-.75-.75-.75h-1.75c-.41406,0-.75-.33594-.75-.75s.33594-.75.75-.75h1.75c1.24023,0,2.25,1.00977,2.25,2.25v1.25c0,.41406-.33594.75-.75.75Z" fill="var(--iconPrimary, #222)"/>
  <path d="M8.40137,2.46973l-1.75-1.75c-.29297-.29297-.76758-.29297-1.06055,0s-.29297.76758,0,1.06055l.46973.46973h-1.31055C2.13086,2.25,0,4.38086,0,7v2c0,.41406.33594.75.75.75s.75-.33594.75-.75v-2c0-1.79199,1.45801-3.25,3.25-3.25h1.31055l-.46973.46973c-.29297.29297-.29297.76758,0,1.06055.14648.14648.33789.21973.53027.21973s.38379-.07324.53027-.21973l1.75-1.75c.29297-.29297.29297-.76758,0-1.06055Z" fill="var(--iconPrimary, #222)"/>
</svg>