<?xml version="1.0" encoding="UTF-8"?>
<svg xmlns="http://www.w3.org/2000/svg" width="20" height="20" viewBox="0 0 20 20">
  <path d="M2,7v-1.75c0-1.24023,1.00977-2.25,2.25-2.25h1.25c.41406,0,.75.33594.75.75s-.33594.75-.75.75h-1.25c-.41309,0-.75.33691-.75.75v1.75c0,.41406-.33594.75-.75.75s-.75-.33594-.75-.75Z" fill="var(--iconPrimary, #222)"/>
  <path d="M2,15.75v-1.75c0-.41406.33594-.75.75-.75s.75.33594.75.75v1.75c0,.41309.33691.75.75.75h1.25c.41406,0,.75.33594.75.75s-.33594.75-.75.75h-1.25c-1.24023,0-2.25-1.00977-2.25-2.25Z" fill="var(--iconPrimary, #222)"/>
  <path d="M8.75,3.75c0-.41406.33594-.75.75-.75h1.25c1.24023,0,2.25,1.00977,2.25,2.25v1.75c0,.41406-.33594.75-.75.75s-.75-.33594-.75-.75v-1.75c0-.41309-.33691-.75-.75-.75h-1.25c-.41406,0-.75-.33594-.75-.75Z" fill="var(--iconPrimary, #222)"/>
  <path d="M8.75,17.25c0-.41406.33594-.75.75-.75h1.25c.41309,0,.75-.33691.75-.75v-1.75c0-.41406.33594-.75.75-.75s.75.33594.75.75v1.75c0,1.24023-1.00977,2.25-2.25,2.25h-1.25c-.41406,0-.75-.33594-.75-.75Z" fill="var(--iconPrimary, #222)"/>
  <path d="M17.53027,8.40137l1.75-1.75c.29297-.29297.29297-.76758,0-1.06055s-.76758-.29297-1.06055,0l-.46973.46973v-1.31055c0-2.61914-2.13086-4.75-4.75-4.75h-2c-.41406,0-.75.33594-.75.75s.33594.75.75.75h2c1.79199,0,3.25,1.45801,3.25,3.25v1.31055l-.46973-.46973c-.29297-.29297-.76758-.29297-1.06055,0-.14648.14648-.21973.33789-.21973.53027s.07324.38379.21973.53027l1.75,1.75c.29297.29297.76758.29297,1.06055,0Z" fill="var(--iconPrimary, #222)"/>
</svg>