<?xml version="1.0" encoding="UTF-8"?>
<svg id="f" data-name="ICONS" xmlns="http://www.w3.org/2000/svg" width="20" height="20" viewBox="0 0 20 20">
  <path d="M15.25,8.57031c-.41406,0-.75-.33594-.75-.75v-1.57031c0-.41309-.33691-.75-.75-.75h-6.2373c-.41406,0-.75-.33594-.75-.75s.33594-.75.75-.75h6.2373c1.24023,0,2.25,1.00977,2.25,2.25v1.57031c0,.41406-.33594.75-.75.75Z" fill="var(--iconPrimary, #222)"/>
  <path d="M9.5791,14.5h-3.3291c-.41309,0-.75-.33691-.75-.75V1.39844c0-.41406-.33594-.75-.75-.75s-.75.33594-.75.75v2.60156H1.39844c-.41406,0-.75.33594-.75.75s.33594.75.75.75h2.60156v8.25c0,1.24023,1.00977,2.25,2.25,2.25h3.3291c.41406,0,.75-.33594.75-.75s-.33594-.75-.75-.75Z" fill="var(--iconPrimary, #222)"/>
  <path d="M18,14h-3.47949v-1.13281c0-.71289.5791-1.29199,1.29199-1.29199.31836,0,.625.11719.8623.33105.30859.27539.78223.25195,1.05957-.05762.27637-.30859.25098-.78223-.05762-1.05957-.51367-.45996-1.17578-.71387-1.86426-.71387-1.53906,0-2.79199,1.25293-2.79199,2.79199v1.13281h-.02051c-.55225,0-1,.44775-1,1v3c0,.55225.44775,1,1,1h5c.55225,0,1-.44775,1-1v-3c0-.55225-.44775-1-1-1Z" fill="var(--iconPrimary, #222)"/>
</svg>