<?xml version="1.0" encoding="UTF-8"?>
<svg id="f" data-name="ICONS" xmlns="http://www.w3.org/2000/svg" width="20" height="20" viewBox="0 0 20 20">
  <path d="M18,14v-1c0-1.37891-1.12109-2.5-2.5-2.5s-2.5,1.12109-2.5,2.5v1c-.55225,0-1,.44775-1,1v3c0,.55225.44775,1,1,1h5c.55225,0,1-.44775,1-1v-3c0-.55225-.44775-1-1-1ZM14.5,13c0-.55176.44824-1,1-1s1,.44824,1,1v1h-2v-1Z" fill="var(--iconPrimary, #222)"/>
  <path d="M15.25,9.07031c-.41406,0-.75-.33594-.75-.75v-2.07031c0-.41309-.33691-.75-.75-.75h-6.2373c-.41406,0-.75-.33594-.75-.75s.33594-.75.75-.75h6.2373c1.24023,0,2.25,1.00977,2.25,2.25v2.07031c0,.41406-.33594.75-.75.75Z" fill="var(--iconPrimary, #222)"/>
  <path d="M9.5791,14.5h-3.3291c-.41309,0-.75-.33691-.75-.75V1.39844c0-.41406-.33594-.75-.75-.75s-.75.33594-.75.75v2.60156H1.39844c-.41406,0-.75.33594-.75.75s.33594.75.75.75h2.60156v8.25c0,1.24023,1.00977,2.25,2.25,2.25h3.3291c.41406,0,.75-.33594.75-.75s-.33594-.75-.75-.75Z" fill="var(--iconPrimary, #222)"/>
</svg>