<?xml version="1.0" encoding="UTF-8"?>
<svg xmlns="http://www.w3.org/2000/svg" width="20" height="20" viewBox="0 0 20 20">
  <path d="M19,9.25h-2c-.0144,0-.02625.00732-.04028.0083-.34619-3.26807-2.94995-5.87183-6.2179-6.21802.00085-.01392.00818-.02588.00818-.04028V1c0-.41406-.33594-.75-.75-.75s-.75.33594-.75.75v2c0,.0144.00732.02637.00818.04028-3.26794.34619-5.8717,2.94995-6.2179,6.21802-.01404-.00098-.02588-.0083-.04028-.0083H1c-.41406,0-.75.33594-.75.75s.33594.75.75.75h2c.0144,0,.02625-.00732.04028-.0083.34619,3.26807,2.94995,5.87183,6.2179,6.21802-.00085.01392-.00818.02588-.00818.04028v2c0,.41406.33594.75.75.75s.75-.33594.75-.75v-2c0-.0144-.00732-.02637-.00818-.04028,3.26794-.34619,5.8717-2.94995,6.2179-6.21802.01404.00098.02588.0083.04028.0083h2c.41406,0,.75-.33594.75-.75s-.33594-.75-.75-.75ZM10,15.5c-3.03223,0-5.5-2.46777-5.5-5.5s2.46777-5.5,5.5-5.5,5.5,2.46777,5.5,5.5-2.46777,5.5-5.5,5.5Z" fill="var(--iconPrimary, #222)"/>
  <circle cx="10" cy="10" r="1" fill="var(--iconPrimary, #222)"/>
</svg>