<?xml version="1.0" encoding="UTF-8"?>
<svg xmlns="http://www.w3.org/2000/svg" width="20" height="20" viewBox="0 0 20 20">
  <path d="M11.39844,10l3.93166-3.93164c.3862-.38574.3862-1.0127,0-1.39844-.3858-.38672-1.0127-.38672-1.39846,0l-3.93164,3.93164-3.93164-3.93164c-.38574-.38672-1.0127-.38672-1.39844,0-.38623.38574-.38623,1.0127,0,1.39844l3.93164,3.93164-3.93164,3.93164c-.38623.38576-.38623,1.01266,0,1.39846.19287.1933.44629.29.69922.29s.50635-.0967.69922-.29l3.93164-3.93166,3.93164,3.93166c.19286.1933.44626.29.69926.29.2529,0,.5063-.0967.6992-.29.3862-.3858.3862-1.0127,0-1.39846l-3.93166-3.93164Z" fill="var(--iconPrimary, #222)"/>
</svg>