<?xml version="1.0" encoding="UTF-8"?>
<svg xmlns="http://www.w3.org/2000/svg" width="20" height="20" viewBox="0 0 20 20">
  <path d="m16.74463,4.28906l-5.75-2.83496c-.62305-.30664-1.36621-.30664-1.98926,0l-5.75,2.83496h-.00049c-.77393.38184-1.25488,1.15527-1.25488,2.01855v7.2666c0,.85547.47559,1.62598,1.24121,2.01074l5.74902,2.88379c.31641.15918.66309.23828,1.01025.23828.34619,0,.69287-.0791,1.0083-.23828l5.75049-2.88379c.76514-.38477,1.24072-1.15527,1.24072-2.01074v-7.2666c0-.86328-.48096-1.63672-1.25537-2.01855Zm-7.07617-1.48926c.20801-.10352.45508-.10352.66309,0l5.20648,2.56714-5.21527,2.48462c-.20508.0957-.43896.09668-.64502-.00098l-5.21497-2.48413,5.20569-2.56665ZM3.91455,14.24512c-.25586-.12891-.41455-.38574-.41455-.6709v-7.00537l5.53125,2.63525c.07074.03394.14587.05005.21875.07617v7.64001l-5.33545-2.67517Zm12.17139-.00098l-5.33594,2.67651v-7.64014c.07251-.02588.14728-.04187.21777-.07544l5.53223-2.63525v7.00439c0,.28516-.15869.54199-.41406.66992Z" fill="var(--iconPrimary, #222)" stroke-width="0"/>
</svg>