<?xml version="1.0" encoding="UTF-8"?>
<svg xmlns="http://www.w3.org/2000/svg" width="20" height="20" viewBox="0 0 20 20">
  <path d="m16.75,12H3.25c-.68945,0-1.25-.56055-1.25-1.25V3.25c0-.68945.56055-1.25,1.25-1.25h13.5c.68945,0,1.25.56055,1.25,1.25v7.5c0,.68945-.56055,1.25-1.25,1.25Zm-13.25-1.5h13V3.5H3.5v7Z" fill="var(--iconPrimary, #222)" stroke-width="0"/>
  <path d="m17.25,15H2.75c-.41406,0-.75-.33594-.75-.75s.33594-.75.75-.75h14.5c.41406,0,.75.33594.75.75s-.33594.75-.75.75Z" fill="var(--iconPrimary, #222)" stroke-width="0"/>
  <path d="m17.25,18H2.75c-.41406,0-.75-.33594-.75-.75s.33594-.75.75-.75h14.5c.41406,0,.75.33594.75.75s-.33594.75-.75.75Z" fill="var(--iconPrimary, #222)" stroke-width="0"/>
  <path d="m10,9.75c-1.5166,0-2.75-1.2334-2.75-2.75s1.2334-2.75,2.75-2.75,2.75,1.2334,2.75,2.75-1.2334,2.75-2.75,2.75Zm0-4c-.68945,0-1.25.56055-1.25,1.25s.56055,1.25,1.25,1.25,1.25-.56055,1.25-1.25-.56055-1.25-1.25-1.25Z" fill="var(--iconPrimary, #222)" stroke-width="0"/>
  <path d="m14.51758,8c-.55176,0-1-.44824-1-1s.44824-1,1-1,1,.44824,1,1-.44824,1-1,1Z" fill="var(--iconPrimary, #222)" stroke-width="0"/>
  <path d="m5.51758,8c-.55176,0-1-.44824-1-1s.44824-1,1-1,1,.44824,1,1-.44824,1-1,1Z" fill="var(--iconPrimary, #222)" stroke-width="0"/>
</svg>