<?xml version="1.0" encoding="UTF-8"?>
<svg xmlns="http://www.w3.org/2000/svg" width="20" height="20" viewBox="0 0 20 20">
  <path d="M18.88867,3.68816c-1.25879.00488-2.2067.26674-3.08513.73257-1.94076,1.02962-3.18022,2.93998-4.26814,4.77801-1.16045,1.96056-2.2959,4.00358-3.90085,5.64471-.3877.39644-.80482.76549-1.25776,1.08606-1.67645,1.18652-3.77017,1.55308-5.25906,1.65562-.008.06201.01782.13184.09338.15186.14081.03723,1.17261.24268,2.31195.26184,1.66168.02795,4.19873-.36829,6.26147-2.26184,2.74036-2.51489,3.42444-6.2334,5.67133-9.06567.89215-1.12463,2.20117-1.96167,3.44946-2.7356.07275-.04688.11029-.15576.07068-.24585l-.08734-.00171Z" fill="var(--iconPrimary, #222)"/>
  <path d="M5.26176,14.88723c4.09468-2.78445,4.9844-9.16113,9.5603-11.58818.98273-.52124,2.44589-.7559,3.79397-.79606.03894-.09753-.0094-.21533-.24359-.2865-.43146-.1311-4.44666-1.00488-7.75574,2.03174-1.23059,1.12915-2.22638,2.43738-3.02368,3.86743-.95337,1.70996-1.48615,3.69678-2.72375,5.25244-.85248,1.07153-2.09106,1.8938-3.28992,2.61682-.16968.10229-.34576.19287-.51807.29065-.04197.02379-.05584.06917-.05522.11495.0046.09572,2.32502-.55903,2.59128-.65462.61153-.21954,1.1621-.50707,1.66443-.84867Z" fill="var(--iconPrimary, #222)"/>
  <path d="M2.44141,13.40643c-.31055,0-.60059-.19434-.7085-.50391-.81201-2.33691-.57861-5.0127.62402-7.1582,1.04297-1.86035,2.7998-3.31934,4.82129-4.00293.90527-.30762,1.85498-.46289,2.82178-.46289.41406,0,.75.33594.75.75s-.33594.75-.75.75c-.80273,0-1.59033.12891-2.34082.38281-1.67432.56738-3.12988,1.77637-3.99365,3.31641-.99658,1.77734-1.18896,3.99414-.51562,5.93262.13574.3916-.07129.81836-.4624.9541-.08154.02832-.16455.04199-.24609.04199Z" fill="var(--iconPrimary, #222)" opacity=".5"/>
  <path d="M10,18.72088c-.41406,0-.75-.33594-.75-.75s.33594-.75.75-.75c.80225,0,1.58984-.12891,2.3418-.38281,1.67334-.56641,3.12891-1.77539,3.99268-3.31641.99609-1.77637,1.18896-3.99414.51562-5.93164-.13574-.3916.07129-.81836.4624-.9541.39062-.1377.81836.07129.95459.46191.81201,2.33691.57861,5.0127-.62402,7.1582-1.04297,1.86035-2.7998,3.31934-4.82129,4.00293-.90674.30664-1.85596.46191-2.82178.46191Z" fill="var(--iconPrimary, #222)" opacity=".5"/>
</svg>