<?xml version="1.0" encoding="UTF-8"?>
<svg xmlns="http://www.w3.org/2000/svg" width="20" height="20" viewBox="0 0 20 20">
  <path d="M19.25,5c0-1.24023-1.00977-2.25-2.25-2.25s-2.25,1.00977-2.25,2.25c0,.94971.59424,1.75977,1.42847,2.08936-.10034,2.45093-.4978,5.25879-1.39014,6.56055-.41138-.54297-1.0564-.8999-1.78833-.8999-.52734,0-1.00635.18994-1.39038.49512-.83081-.96655-.96704-2.35791-1.0979-3.9043-.11963-1.42383-.27246-3.07275-1.28491-4.11108.00781-.07666.02319-.15112.02319-.22974,0-1.24023-1.00977-2.25-2.25-2.25s-2.25,1.00977-2.25,2.25c0,.01367.00391.02637.00391.04004-1.56763,1.47339-2.17236,4.83105-2.38818,7.81226-.93018.27612-1.61572,1.12915-1.61572,2.14771,0,1.24023,1.00977,2.25,2.25,2.25s2.25-1.00977,2.25-2.25c0-.93408-.573-1.73633-1.3855-2.07617.21655-2.95874.74951-5.20166,1.53442-6.34692.40845.41455.97485.6731,1.60107.6731.55908,0,1.0647-.2124,1.45874-.55127.3418.61914.45459,1.52979.55884,2.76807.14502,1.72217.33032,3.74951,1.77515,5.11133-.02612.13696-.04272.27734-.04272.42188,0,1.24023,1.00977,2.25,2.25,2.25,1.11768,0,2.04102-.82251,2.21387-1.89233.01343-.01001.02856-.01538.04199-.02563,1.8562-1.41406,2.32202-5.51904,2.4231-8.19824.90747-.29004,1.57104-1.13159,1.57104-2.13379ZM3,16.05c-.57935,0-1.05-.47065-1.05-1.05s.47065-1.05,1.05-1.05,1.05.47065,1.05,1.05-.47065,1.05-1.05,1.05ZM7,6.05c-.57935,0-1.05-.47065-1.05-1.05s.47065-1.05,1.05-1.05,1.05.47065,1.05,1.05-.47065,1.05-1.05,1.05ZM13,16.05c-.57935,0-1.05-.47065-1.05-1.05s.47065-1.05,1.05-1.05,1.05.47065,1.05,1.05-.47065,1.05-1.05,1.05ZM17,6.05c-.57935,0-1.05-.47065-1.05-1.05s.47065-1.05,1.05-1.05,1.05.47065,1.05,1.05-.47065,1.05-1.05,1.05Z" fill="var(--iconPrimary, #222)"/>
</svg>