<?xml version="1.0" encoding="UTF-8"?>
<svg   xmlns="http://www.w3.org/2000/svg" width="20" height="20" viewBox="0 0 20 20">
  <path d="M17.5,17.75004H2.57129c-.38232,0-.70312-.28711-.74561-.66699-.04199-.37988.2085-.73145.58105-.81445.87207-.19629,1.81787-3.75977,2.44336-6.11816C6.01123,5.77446,7.21191,1.25004,10.03564,1.25004c2.82422,0,4.0249,4.52539,5.18604,8.90137.62549,2.35742,1.5708,5.9209,2.44287,6.11719.37256.08301.62305.43457.58105.81445-.04248.37988-.36328.66699-.74561.66699ZM4.38965,16.25004h11.29199c-.7417-1.31152-1.28516-3.35938-1.91016-5.71387-.87158-3.28613-2.06592-7.78613-3.73584-7.78613s-2.86377,4.5-3.73535,7.78516c-.625,2.35547-1.16846,4.40332-1.91064,5.71484Z" fill="var(--iconPrimary, #222)"/>
</svg>