<?xml version="1.0" encoding="UTF-8"?>
<svg   xmlns="http://www.w3.org/2000/svg" width="20" height="20" viewBox="0 0 20 20">
  <path d="M17.5,17.75004H2.57715c-.39697,0-.72559-.30957-.74854-.70605-.02344-.39648.26611-.74219.66064-.78906,1.36768-.16113,2.45312-4.26172,3.24609-7.25586,1.09814-4.14941,2.04639-7.7334,4.2915-7.74902h.02344c2.24512.01562,3.19336,3.59961,4.2915,7.74902.79297,2.99414,1.87842,7.09473,3.24609,7.25586.39453.04688.68408.39258.66064.78906-.02295.39648-.35156.70605-.74854.70605ZM4.73682,16.25004h10.60352c-1.0459-1.56934-1.73438-4.16992-2.44824-6.86719-.69873-2.63867-1.75391-6.62598-2.85352-6.63281-1.09961.00684-2.15479,3.99414-2.85352,6.63281-.71387,2.69727-1.40234,5.29785-2.44824,6.86719Z" fill="var(--iconPrimary, #222)"/>
</svg>