<?xml version="1.0" encoding="UTF-8"?>
<svg xmlns="http://www.w3.org/2000/svg" width="20" height="20" viewBox="0 0 20 20">
  <path d="M11.62598,18.79443c-.2085,0-.41895-.04004-.62012-.12305-.61084-.25146-1.00586-.84131-1.00586-1.50195v-7.68018c0-.65869.39307-1.24756,1.00146-1.5.6084-.25293,1.30176-.11572,1.76953.34961l5.25,5.23486c.4668.46582.60596,1.16064.354,1.77051s-.84082,1.00391-1.50098,1.00391h-2.09766l-1.99854,1.96436c-.31201.31494-.72754.48193-1.15186.48193ZM11.62939,9.36279c-.01514,0-.03271.00342-.05273.01172-.07666.03174-.07666.09229-.07666.11475v7.68018c0,.02295,0,.08301.07666.11475.07861.03271.12061-.01123.13574-.02734l1.91016-1.92773c.30273-.30566.72363-.48096,1.15381-.48096h2.09766c.02295,0,.08301,0,.11475-.07666s-.01074-.11914-.02686-.13525l-5.25049-5.23486c-.01172-.01221-.03809-.03857-.08203-.03857Z" fill="var(--iconPrimary, #222)"/>
  <path d="M17.91113,1.38086c-2.22412.31787-4.52539,1.31396-6.68677,2.73291-.52612-.38721-1.16699-.61377-1.84937-.61377-1.72266,0-3.125,1.40234-3.125,3.125,0,.5083.12769.99365.35303,1.43018-2.729,2.9541-4.7417,6.49316-5.22217,9.85596-.04883.3418.18945.65918.53027.70801.03027.00391.06055.00586.08984.00586.30566,0,.57324-.22461.61816-.53613.43335-3.03662,2.28784-6.28687,4.79346-9.03638.01025.00854.01733.01929.02783.02759.11523.09082.25195.13477.3877.13477.18457,0,.36719-.08105.49023-.2373.21387-.27148.16797-.66406-.10254-.87793-.45508-.35938-.71582-.89648-.71582-1.47461,0-1.03418.84082-1.875,1.875-1.875.75293,0,1.42969.44727,1.72559,1.13965.13574.31934.50293.46582.82031.33008.31836-.13574.46484-.50293.33008-.82031-.05054-.11841-.11182-.22949-.17529-.33887,1.96484-1.271,4.0354-2.15918,6.01318-2.44141.34082-.04883.5791-.36621.53027-.70801-.04883-.34082-.36328-.57422-.70801-.53027Z" fill="var(--iconPrimary, #222)"/>
</svg>