<?xml version="1.0" encoding="UTF-8"?>
<svg   xmlns="http://www.w3.org/2000/svg" width="20" height="20" viewBox="0 0 20 20">
  <path d="M17.5,17.75004H2.57129c-.37891,0-.69775-.28223-.74414-.6582-.04492-.36035.17529-.69824.51758-.80664.39258-.35449.771-2.51953,1.04785-4.10645.80566-4.6123,1.90869-10.92871,6.64307-10.92871s5.8374,6.31641,6.64307,10.92871c.28076,1.60742.66504,3.80859,1.06348,4.11914.36719.09277.57861.43066.53223.80664-.04688.37598-.39551.64551-.77441.64551ZM4.03369,16.25004h12.00391c-.32812-.90332-.55322-2.18945-.83643-3.81348-.71436-4.08789-1.69189-9.68652-5.16553-9.68652s-4.45117,5.59863-5.16553,9.68652c-.2832,1.62402-.5083,2.91016-.83643,3.81348Z" fill="var(--iconPrimary, #222)"/>
</svg>