<?xml version="1.0" encoding="UTF-8"?>
<svg xmlns="http://www.w3.org/2000/svg" width="20" height="20" viewBox="0 0 20 20">
  <g id="i" >
    <path d="M17.5,17.75004H2.57715c-.34229,0-.64111-.23145-.72656-.56348-.08496-.33105.06494-.67871.36475-.84375,3.41846-1.88086,5.73193-6.58398,7.07129-14.37695.00732-.16309.06836-.32227.17578-.44922.07568-.08984.1709-.16016.27588-.20508.08984-.03906.18799-.06055.29199-.06152h.01074c.08301.00098.16309.01465.23828.04004.12793.04395.24365.12109.33252.22656.10693.12598.16943.2832.17822.44629.98975,5.77637,2.60986,11.98047,7.06543,14.37695.30225.16211.45557.50977.37158.84375-.0835.33301-.3833.56641-.72705.56641ZM4.8667,16.25004h10.28906c-2.72559-2.47168-4.19092-6.36914-5.13086-10.43066-1.18701,4.86621-2.89209,8.31445-5.1582,10.43066Z" fill="var(--iconPrimary, #222)"/>
  </g>
</svg>