<?xml version="1.0" encoding="UTF-8"?>
<svg xmlns="http://www.w3.org/2000/svg" width="28.00005" height="28" viewBox="0 0 28.00005 28">
  <g id="circles">
    <circle id="Ellipse_10213" data-name="Ellipse 10213" cx="14.00002" cy="14" r="14.00001" fill="#9a47e2"/>
  </g>
  <g id="ICONS">
    <rect id="S2_Icon_UserAvatarDNA_20_N" x="5" y="5" width="18" height="18" fill="none" opacity=".1"/>
    <g>
      <path d="M13.91299,17.85225c-.48252.13184-.98262.19863-1.48799.19863-1.17356,0-2.2634-.36233-3.16604-.97943,1.18213-.70961,2.93379-1.01722,4.50901-.67994.36387.0791.72246-.15469.80068-.51943.07822-.36387-.15469-.72334-.51943-.80068-2.06851-.44066-4.34905.01868-5.83594,1.07051-.87649-.99229-1.41328-2.29109-1.41328-3.71602,0-3.10166,2.52334-5.625,5.625-5.625,2.46973,0,4.68633,1.65059,5.39121,4.01396.10547.35771.47988.56338.83936.45439.35771-.10635.56074-.48252.45439-.83936-.87363-2.93203-3.62285-4.979-6.68496-4.979-3.84609,0-6.975,3.12891-6.975,6.975s3.12891,6.975,6.975,6.975c.6249,0,1.24541-.08262,1.84307-.24609.36035-.09844.57217-.46934.47373-.82881-.09756-.36035-.47373-.57041-.82881-.47373Z" fill="#fff"/>
      <path d="M12.425,7.925c-1.55039,0-2.8125,1.3623-2.8125,3.0375s1.26211,3.0375,2.8125,3.0375c.53525,0,1.05645-.16348,1.50645-.47197.30762-.21006.38584-.63018.1749-.93779-.20918-.30762-.62842-.38584-.93779-.1749-.22412.15381-.48164.23467-.74355.23467-.80684,0-1.4625-.75674-1.4625-1.6875s.65566-1.6875,1.4625-1.6875c.75498,0,1.39482.67939,1.45723,1.54688.02637.37178.35244.6416.72158.6249.37178-.02637.65127-.3498.6249-.72158-.1125-1.56973-1.34385-2.8002-2.80371-2.8002Z" fill="#fff"/>
      <path d="M22.55,12.875c0-.37266-.30234-.675-.675-.675s-.675.30234-.675.675c0,1.35703,0,2.89512-2.4126,3.87422-3.2124,1.3043-3.2124,3.58594-3.2124,5.0959l.675.02988.675-.02988c0-1.4168,0-2.88281,2.37041-3.84434,3.25459-1.32188,3.25459-3.70283,3.25459-5.12578Z" fill="#fff"/>
      <path d="M16.25,12.2c-.37266,0-.675.30234-.675.675,0,.94834,0,2.24648.87363,3.41455.13271.17754.33574.2707.54141.2707.14062,0,.28213-.04395.40342-.13447.20193-.15084.28477-.39243.25488-.62578h.65479c.31025,0,.5625-.25225.5625-.5625s-.25225-.5625-.5625-.5625h-1.18081c-.09536-.2963-.14656-.59897-.17095-.9h2.67363c.31025,0,.5625-.25225.5625-.5625s-.25225-.5625-.5625-.5625h-2.74548c-.09338-.26082-.33662-.45-.62952-.45Z" fill="#fff"/>
      <path d="M20.73418,18.29346c-.20918.15842-.29312.41462-.25049.65654h-.75938c-.31025,0-.5625.25225-.5625.5625s.25225.5625.5625.5625h1.29639c.08965.29344.13557.59513.15688.9h-2.67759c-.31025,0-.5625.25225-.5625.5625s.25225.5625.5625.5625h2.74592c.09382.25587.33684.43506.62908.43506.37266,0,.675-.31641.675-.68906,0-.95713,0-2.26758-.87012-3.4207-.225-.29795-.64775-.35771-.9457-.13184Z" fill="#fff"/>
    </g>
  </g>
</svg>