<?xml version="1.0" encoding="UTF-8"?>
<svg id="f" data-name="ICONS" xmlns="http://www.w3.org/2000/svg" width="20" height="20" viewBox="0 0 20 20">
  <path d="M13.25,9h3.5c1.24023,0,2.25-1.00977,2.25-2.25v-3.5c0-1.24023-1.00977-2.25-2.25-2.25h-3.5c-1.24023,0-2.25,1.00977-2.25,2.25v1h-2v-1c0-1.24023-1.00977-2.25-2.25-2.25h-3.5c-1.24023,0-2.25,1.00977-2.25,2.25v3.5c0,1.24023,1.00977,2.25,2.25,2.25h1v4.5c0,1.24023,1.00977,2.25,2.25,2.25h4.5v1c0,1.24023,1.00977,2.25,2.25,2.25h3.5c1.24023,0,2.25-1.00977,2.25-2.25v-3.5c0-1.24023-1.00977-2.25-2.25-2.25h-3.5c-1.24023,0-2.25,1.00977-2.25,2.25v1h-4.5c-.41309,0-.75-.33691-.75-.75v-4.5h1c1.24023,0,2.25-1.00977,2.25-2.25v-1h2v1c0,1.24023,1.00977,2.25,2.25,2.25ZM12.5,13.25c0-.41309.33691-.75.75-.75h3.5c.41309,0,.75.33691.75.75v3.5c0,.41309-.33691.75-.75.75h-3.5c-.41309,0-.75-.33691-.75-.75v-1h1.34961c.24548.37573.66821.625,1.15039.625.7594,0,1.375-.6156,1.375-1.375s-.6156-1.375-1.375-1.375c-.48218,0-.90491.24927-1.15039.625h-1.34961v-1ZM7.5,6.75c0,.41309-.33691.75-.75.75h-1v-1.34961c.37573-.24548.625-.66821.625-1.15039,0-.7594-.6156-1.375-1.375-1.375s-1.375.6156-1.375,1.375c0,.48218.24927.90491.625,1.15039v1.34961h-1c-.41309,0-.75-.33691-.75-.75v-3.5c0-.41309.33691-.75.75-.75h3.5c.41309,0,.75.33691.75.75v3.5ZM12.5,3.25c0-.41309.33691-.75.75-.75h3.5c.41309,0,.75.33691.75.75v3.5c0,.41309-.33691.75-.75.75h-3.5c-.41309,0-.75-.33691-.75-.75v-1h1.34961c.24548.37573.66821.625,1.15039.625.7594,0,1.375-.6156,1.375-1.375s-.6156-1.375-1.375-1.375c-.48218,0-.90491.24927-1.15039.625h-1.34961v-1Z" fill="var(--iconPrimary, #222)"/>
</svg>