<?xml version="1.0" encoding="UTF-8"?>
<svg xmlns="http://www.w3.org/2000/svg" width="28.00005" height="28" viewBox="0 0 28.00005 28">
  <g id="circles">
    <circle id="Ellipse_10213" data-name="Ellipse 10213" cx="14.00002" cy="14" r="14.00001" fill="#9a47e2"/>
  </g>
  <g id="ICONS">
    <polyline points="5 5 5 23 23 23 23 5" fill="none" opacity=".1"/>
    <path d="M12.425,6.80088c3.06914,0,5.53887,2.40117,5.62236,5.4668.01055.37266.32783.66357.69346.65654.37266-.01055.66621-.3208.65654-.69346-.10459-3.80215-3.1667-6.77988-6.97236-6.77988" fill="#fff"/>
    <path d="M12.425,5.45088c-3.84609,0-6.975,3.12891-6.975,6.975,0,3.43125,2.45391,6.32461,5.83418,6.88184.03691.00615.07383.00879.11074.00879.32432,0,.61084-.23467.66533-.56514.06064-.36826-.18896-.71543-.55635-.77607-.8376-.13777-1.59148-.47032-2.2522-.92219.84781-.50317,1.98127-.8031,3.13989-.8031.37266,0,.675-.30234.675-.675s-.30234-.675-.675-.675c-1.58225,0-3.10199.45352-4.20029,1.23091-.86946-.99426-1.39131-2.29076-1.39131-3.70503,0-3.10166,2.52334-5.625,5.625-5.625" fill="#fff"/>
    <path d="M21.34426,14.21644l-1.20852,1.36318c-.0756.08438-.20655.09492-.29448.02021l-1.44314-1.23486c-.63018-.47285-1.52227-.40781-2.07773.14854l-2.82305,2.82305c-.26982.26895-.26982.70664,0,.97558.13447.13447.31113.20215.48779.20215s.35332-.06768.48779-.20215l2.82305-2.82305c.07207-.07207.19072-.08262.23906-.04834l1.408,1.20674c.65654.56162,1.65324.49131,2.22456-.15206l1.20843-1.36318c.25317-.28564.2268-.72158-.05796-.97383-.28566-.25313-.72072-.22763-.9738.05801Z" fill="#fff"/>
    <path d="M14.9,22.55c-.37266,0-.675-.30234-.675-.675v-1.8c0-.37266.30234-.675.675-.675s.675.30234.675.675v1.8c0,.37266-.30234.675-.675.675Z" fill="#fff"/>
    <path d="M20.75,22.55c-.37266,0-.675-.30234-.675-.675v-2.7c0-.37266.30234-.675.675-.675s.675.30234.675.675v2.7c0,.37266-.30234.675-.675.675Z" fill="#fff"/>
    <path d="M17.825,22.55c-.37266,0-.675-.30234-.675-.675v-3.825c0-.37266.30234-.675.675-.675s.675.30234.675.675v3.825c0,.37266-.30234.675-.675.675Z" fill="#fff"/>
    <path d="M12.425,7.92509c-1.55039,0-2.8125,1.3623-2.8125,3.0375s1.26211,3.0375,2.8125,3.0375,2.8125-1.3623,2.8125-3.0375-1.26211-3.0375-2.8125-3.0375ZM12.425,12.65009c-.80684,0-1.4625-.75674-1.4625-1.6875s.65566-1.6875,1.4625-1.6875,1.4625.75674,1.4625,1.6875-.65566,1.6875-1.4625,1.6875Z" fill="#fff"/>
  </g>
</svg>