<?xml version="1.0" encoding="UTF-8"?>
<svg xmlns="http://www.w3.org/2000/svg" width="20" height="20" viewBox="0 0 20 20">
  <path d="m10,1.75c-3.48438,0-7,.84082-7,2.71875v10.8125c0,1.83203,3.55908,2.92676,7,2.92676,3.38721,0,6.88916-1.06055,6.99756-2.8418.00146-.02051.00244-.04102.00244-.0625V4.46875c0-1.87793-3.51562-2.71875-7-2.71875Zm0,1.5c3.52539,0,5.36572.89355,5.50439,1.18848-.13867.35547-1.979,1.24902-5.50439,1.24902-3.51068,0-5.34772-.88525-5.5-1.18396v-.00964c.15228-.35852,1.98932-1.2439,5.5-1.2439Zm0,13.45801c-3.33643,0-5.36914-1.01562-5.5-1.42676V6.25012c1.34821.63684,3.42657.93738,5.5.93738s4.15179-.30054,5.5-.93738v9.01648c-.15381.4375-2.18262,1.44141-5.5,1.44141Z" fill="var(--iconPrimary, #222)" stroke-width="0"/>
  <path d="m13.25,15.06445c-.41406,0-.75-.33594-.75-.75v-5.13965c0-.41406.33594-.75.75-.75s.75.33594.75.75v5.13965c0,.41406-.33594.75-.75.75Z" fill="var(--iconPrimary, #222)" stroke-width="0"/>
</svg>