<?xml version="1.0" encoding="UTF-8"?>
<svg id="f" data-name="ICONS" xmlns="http://www.w3.org/2000/svg" width="20" height="20" viewBox="0 0 20 20">
  <path d="M13.99994,18H5.99994c-.41406,0-.75-.3359-.75-.75s.33594-.75.75-.75h8c.4141,0,.75.3359.75.75s-.3359.75-.75.75Z" fill="var(--iconPrimary, #222)"/>
  <path d="M16.74994,15.5H3.24994c-1.24072,0-2.25-1.0098-2.25-2.25V4.75c0-1.24023,1.00928-2.25,2.25-2.25h13.5c1.2407,0,2.25,1.00977,2.25,2.25v8.5c0,1.2402-1.0093,2.25-2.25,2.25ZM3.24994,4c-.41357,0-.75.33691-.75.75v8.5c0,.4131.33643.75.75.75h13.5c.4136,0,.75-.3369.75-.75V4.75c0-.41309-.3364-.75-.75-.75H3.24994Z" fill="var(--iconPrimary, #222)"/>
  <path d="M13.99994,18H5.99994c-.41406,0-.75-.3359-.75-.75s.33594-.75.75-.75h8c.4141,0,.75.3359.75.75s-.3359.75-.75.75Z" fill="var(--iconPrimary, #222)"/>
  <path d="M16.74994,15.5H3.24994c-1.24072,0-2.25-1.0098-2.25-2.25V4.75c0-1.24023,1.00928-2.25,2.25-2.25h13.5c1.2407,0,2.25,1.00977,2.25,2.25v8.5c0,1.2402-1.0093,2.25-2.25,2.25ZM3.24994,4c-.41357,0-.75.33691-.75.75v8.5c0,.4131.33643.75.75.75h13.5c.4136,0,.75-.3369.75-.75V4.75c0-.41309-.3364-.75-.75-.75H3.24994Z" fill="var(--iconPrimary, #222)"/>
  <path d="M5.61426,12.10059c-.31738,0-.65186-.01562-.99854-.0459-.4126-.03613-.71729-.40039-.68115-.8125.03613-.41309.39795-.7168.81299-.68164,1.00244.08887,1.90625.02637,2.41406-.16895l1.20215-.42578c.68945-.24414,1.74414-.27539,2.45264-.0752l1.06934.30371c.50342.10742.73047.15527,1.52344.08691.5376-.0459,1.05859-.1748,1.54932-.38184.3833-.16113.82178.01855.98242.40039.16113.38184-.01807.82129-.39941.98242-.63623.26758-1.31006.43359-2.00293.49316-.97266.08496-1.36035.01465-2.01562-.12598l-1.11621-.31543c-.41016-.11621-1.14502-.09375-1.54248.0459l-1.18506.41992c-.51709.19727-1.2334.30078-2.06494.30078Z" fill="var(--iconPrimary, #222)"/>
  <path d="M5.59277,9.57031c-.34375,0-.69434-.04492-1.04688-.13477-.40137-.10254-.64355-.51074-.54102-.91211.10205-.40137.5127-.6416.91211-.54102.88721.22559,1.74609,0,2.29785-.60742l.5708-.67578c.96484-1.14355,2.7168-1.33496,3.9082-.42676l.30371.23145c.60791.46387,1.40332.50977,1.68262.23926l1.06689-1.03223c.29688-.28809.77197-.28223,1.06055.01758.28809.29785.28027.77246-.01758,1.06055l-1.06738,1.03223c-.85889.83008-2.45459.77637-3.63477-.125l-.30273-.23047c-.55566-.42383-1.40381-.33008-1.85352.20117l-.58887.69629c-.71582.78906-1.6958,1.20703-2.75,1.20703Z" fill="var(--iconPrimary, #222)"/>
</svg>