<?xml version="1.0" encoding="UTF-8"?>
<svg   xmlns="http://www.w3.org/2000/svg" width="20" height="20" viewBox="0 0 20 20">
  <path d="M12.75,3.75c-.98755,0-1.91882.23645-2.75.646-.83118-.40955-1.76245-.646-2.75-.646-3.44629,0-6.25,2.80371-6.25,6.25s2.80371,6.25,6.25,6.25c.98755,0,1.91882-.23645,2.75-.646.83118.40955,1.76245.646,2.75.646,3.44629,0,6.25-2.80371,6.25-6.25s-2.80371-6.25-6.25-6.25ZM7.25,14.75c-2.61914,0-4.75-2.13086-4.75-4.75s2.13086-4.75,4.75-4.75c.43311,0,.84473.07703,1.24377.18616-1.22327,1.1416-1.99377,2.76257-1.99377,4.56384s.77039,3.42224,1.99365,4.56384c-.39893.10901-.81055.18616-1.24365.18616ZM11.27136,7.5h-2.54272c.33228-.53247.76208-.99414,1.27136-1.3584.50928.36426.93909.82593,1.27136,1.3584ZM10,13.8584c-.50928-.36426-.93896-.82593-1.27124-1.3584h2.5426c-.33228.53247-.76208.99414-1.27136,1.3584ZM12,10c0,.34351-.04077.677-.11035,1h-3.7793c-.06958-.323-.11035-.65649-.11035-1s.04077-.677.11035-1h3.7793c.06958.323.11035.65649.11035,1ZM12.75,14.75c-.43311,0-.84473-.07703-1.24365-.18616,1.22327-1.1416,1.99365-2.76257,1.99365-4.56384s-.77051-3.42224-1.99377-4.56384c.39905-.10913.81067-.18616,1.24377-.18616,2.61914,0,4.75,2.13086,4.75,4.75s-2.13086,4.75-4.75,4.75Z" fill="var(--iconPrimary, #292929)" stroke-width="0"/>
</svg>