<?xml version="1.0" encoding="UTF-8"?>
<svg   xmlns="http://www.w3.org/2000/svg" width="20" height="20" viewBox="0 0 20 20">
  <path d="M18,5.25c0-2.13379-4.02441-3.25-8-3.25S2,3.11621,2,5.25c0,.06714.01538.13037.02325.19556-.00629.03906-.02325.07422-.02325.11499v9.93945c0,.64844.42432,1.56445,2.44434,2.24023.0791.02637.15967.03906.23828.03906.31396,0,.60596-.19824.71143-.51172.13135-.39258-.08057-.81836-.47314-.94922-1.1123-.37207-1.4043-.74414-1.4209-.81836v-3.15283c1.12646.56445,2.61469.83691,3.46387.95361.03467.00488.06885.00684.10303.00684.36865,0,.69043-.27246.74219-.64746.05615-.41113-.23047-.78906-.64111-.8457-2.65967-.36523-3.61963-1.0957-3.66797-1.31445v-3.27539c1.52985.84204,4.02393,1.27539,6.5,1.27539s4.97015-.43335,6.50006-1.27563l.00018,3.27026c-.05029.22778-1.02252.9646-3.7146,1.32666-.41064.05469-.69824.43262-.64307.84277.05078.37695.37256.65039.74219.65039.0332,0,.06689-.00195.10107-.00684.86182-.11621,2.37476-.38916,3.51447-.96021l.00018,3.14673c-.01758.08008-.31201.45508-1.43652.8291-.39307.13086-.60547.55566-.47461.94922.10449.31445.39697.5127.71143.5127.07861,0,.1582-.0127.23682-.03809,2.03516-.67773,2.4624-1.5957,2.4624-2.24707V5.56055c0-.04077-.01697-.07593-.02325-.11499.00787-.06519.02325-.12842.02325-.19556ZM10,7c-4.28857,0-6.5-1.22656-6.5-1.75s2.21143-1.75,6.5-1.75,6.5,1.22656,6.5,1.75-2.21143,1.75-6.5,1.75Z" fill="var(--iconPrimary, #222)"/>
  <path d="M11.94482,15.7373l-1.19482,1.19458v-6.67407c0-.41406-.33594-.75-.75-.75s-.75.33594-.75.75v6.67407l-1.19482-1.19458c-.29297-.29297-.76758-.29297-1.06055,0s-.29297.76758,0,1.06055l2.4751,2.47461c.14648.14648.33838.21973.53027.21973s.38379-.07324.53027-.21973l2.4751-2.47461c.29297-.29297.29297-.76758,0-1.06055s-.76758-.29297-1.06055,0Z" fill="var(--iconPrimary, #222)"/>
</svg>