<?xml version="1.0" encoding="UTF-8"?>
<svg xmlns="http://www.w3.org/2000/svg" width="28.00005" height="28" viewBox="0 0 28.00005 28">
  <g id="circles">
    <circle id="Ellipse_10213" data-name="Ellipse 10213" cx="14.00002" cy="14" r="14.00001" fill="#0a8d99"/>
  </g>
  <g id="ICONS">
    <rect id="S2_Icon_Launch_20_N" x="5.09281" y="5.00404" width="18" height="18" fill="none" opacity=".1"/>
    <g>
      <path d="M17.69281,21.20404h-7.2c-.37265,0-.675-.30231-.675-.675s.30235-.675.675-.675h7.2c.37269,0,.675.30231.675.675s-.30231.675-.675.675Z" fill="#fff"/>
      <path d="M20.16781,18.95404h-12.15c-1.11665,0-2.025-.90882-2.025-2.025v-7.65c0-1.11621.90835-2.025,2.025-2.025h12.15c1.11663,0,2.025.90879,2.025,2.025v7.65c0,1.11618-.90837,2.025-2.025,2.025ZM8.01781,8.60404c-.37221,0-.675.30322-.675.675v7.65c0,.37179.30279.675.675.675h12.15c.37224,0,.675-.30321.675-.675v-7.65c0-.37178-.30276-.675-.675-.675h-12.15Z" fill="#fff"/>
      <path d="M13.96009,16.25431c-.25576,0-.49087-.14502-.60512-.37617l-.93164-1.88613-.31289.62754c-.11381.22852-.34805.37354-.60381.37354h-1.94194c-.37265,0-.675-.30235-.675-.675s.30235-.675.675-.675h1.52447l.733-1.47041c.11426-.22852.34849-.37354.60425-.37354h.00131c.2562.00088.49043.1459.60381.37617l.83496,1.69014,1.25943-3.45674c.09711-.26719.33093-.46846.6381-.44384.28476.00176.53838.18194.63279.45088l1.13562,3.22735h1.15263c.37269,0,.675.30235.675.675s-.30231.675-.675.675h-1.6308c-.28656,0-.5418-.18105-.63675-.45088l-.66843-1.9002-1.15487,3.16846c-.09229.25401-.32739.42803-.59721.44297-.0123.00086-.02459.00086-.0369.00086Z" fill="#fff"/>
    </g>
  </g>
</svg>