<?xml version="1.0" encoding="UTF-8"?>
<svg   xmlns="http://www.w3.org/2000/svg" width="20" height="20" viewBox="0 0 20 20">
  <path d="M18.16211,10h-2.49805c-.42285,0-.82031.16406-1.12109.46289l-3.9541,3.94238c-.28418.2793-.44043.65137-.44043,1.04785-.00098.39648.15527.76953.43848,1.0498l2.60156,2.56738c.28906.28613.66895.42969,1.04883.42969.37891,0,.75684-.14258,1.04395-.42676l3.99023-3.90332c.30469-.29688.47852-.71094.47852-1.13574v-2.44629c0-.87598-.71191-1.58789-1.58789-1.58789ZM18.22363,14.09668l-3.98047,3.90625-2.59961-2.53125,3.95703-3.94531c.0166-.0166.04004-.02637.06348-.02637h2.49805c.04883,0,.08789.03906.08789.08789l-.02637,2.50879Z" fill="var(--iconPrimary, #222)"/>
  <circle cx="17.30127" cy="12.44873" r=".52271" fill="var(--iconPrimary, #222)"/>
  <path d="M10,12.5c.41406,0,.75-.33594.75-.75s-.33594-.75-.75-.75c-4.27344,0-6.40918-1.09082-6.5-1.5v-3.27551c1.52979.84216,4.02393,1.27551,6.5,1.27551s4.97021-.43335,6.5-1.27551v1.43372c0,.41406.33594.75.75.75s.75-.33594.75-.75v-3.09766c0-.04077-.01709-.07593-.02319-.11499.00781-.06519.02319-.12842.02319-.19556,0-2.13379-4.02441-3.25-8-3.25S2,2.11621,2,4.25c0,.06714.01538.13037.02319.19556-.0061.03906-.02319.07422-.02319.11499v9.93945c0,2.21582,4.55664,2.78906,5.95312,2.91211.02246.00195.04395.00293.06641.00293.38477,0,.71191-.29395.74609-.68457.03613-.41211-.26855-.77637-.68164-.8125-3.28418-.28906-4.52637-1.15723-4.58398-1.41797v-3.15332c1.55225.78369,4.08301,1.15332,6.5,1.15332ZM10,2.5c4.28809,0,6.5,1.22656,6.5,1.75s-2.21191,1.75-6.5,1.75-6.5-1.22656-6.5-1.75,2.21191-1.75,6.5-1.75Z" fill="var(--iconPrimary, #222)"/>
</svg>