<?xml version="1.0" encoding="UTF-8"?>
<svg   xmlns="http://www.w3.org/2000/svg" width="20" height="20" viewBox="0 0 20 20">
  <path d="M18,4.25c0-2.13379-4.02441-3.25-8-3.25S2,2.11621,2,4.25c0,.06714.01538.13037.02325.19556-.00629.03906-.02325.07422-.02325.11499v9.93945c0,1.98438,3.6792,2.64648,5.25732,2.83887l.24463.02832c.02832.00293.05664.00488.08447.00488.37695,0,.70166-.2832.74414-.66699.04639-.41113-.25-.78223-.66162-.82812l-.22656-.02637c-2.82324-.34375-3.89209-1.12598-3.94238-1.35059v-3.14697c1.4375.71582,3.51172.97302,4.37158,1.05225.02295.00195.04639.00293.06934.00293.3833,0,.70996-.29199.74609-.68164.0376-.41211-.26611-.77734-.67871-.81543-3.23047-.2959-4.45166-1.1543-4.5083-1.41113v-3.27551c1.52985.84216,4.02393,1.27551,6.5,1.27551s4.97015-.43335,6.5-1.27551v1.1925c0,.41406.33594.75.75.75s.75-.33594.75-.75v-2.85645c0-.04077-.01697-.07593-.02325-.11499.00787-.06519.02325-.12842.02325-.19556ZM10,6c-4.28857,0-6.5-1.22656-6.5-1.75s2.21143-1.75,6.5-1.75,6.5,1.22656,6.5,1.75-2.21143,1.75-6.5,1.75Z" fill="var(--iconPrimary, #222)"/>
  <path d="M15,10.27112c-2.48529,0-4.5,2.01477-4.5,4.5s2.01471,4.5,4.5,4.5,4.5-2.01477,4.5-4.5-2.01471-4.5-4.5-4.5ZM17.35791,13.77148l-2.59766,3.15918c-.1167.14258-.29004.22559-.47363.22852h-.00928c-.18018,0-.35205-.07812-.4707-.21387l-1.15234-1.32031c-.22705-.25977-.2002-.65527.05957-.88184.26074-.22754.65576-.2002.88184.05957l.66748.76465,2.12891-2.58887c.21875-.2666.61328-.30566.87988-.08594.2666.21875.30518.6123.08594.87891Z" fill="var(--iconPrimary, #222)"/>
</svg>