<?xml version="1.0" encoding="UTF-8"?>
<svg   xmlns="http://www.w3.org/2000/svg" width="20" height="20" viewBox="0 0 20 20">
  <path d="M18,10.77051c0-2-4.08594-2.53418-6.5-2.53418s-6.5.53418-6.5,2.53418c0,.06348.01556.12134.02362.18201-.00647.03967-.02362.07532-.02362.11682v4.66504c0,1.99707,4.08594,2.5293,6.5,2.5293s6.5-.53223,6.5-2.5293v-4.66504c0-.0415-.01715-.07715-.02362-.11682.00806-.06067.02362-.11853.02362-.18201ZM11.5,9.73633c2.99316,0,4.65137.68652,4.96826,1.03418-.31641.34863-1.97461,1.03516-4.96826,1.03516s-4.65186-.68652-4.96826-1.03516c.31689-.34766,1.9751-1.03418,4.96826-1.03418ZM11.5,16.76367c-3.16992,0-4.84668-.77051-5-1.0293v-3.24988c1.41003.61804,3.51837.82117,5,.82117,1.48285,0,3.59357-.20337,5.0036-.82263l.00812,3.18884c-.16504.32129-1.8418,1.0918-5.01172,1.0918Z" fill="var(--iconPrimary, #292929)" stroke-width="0"/>
  <path d="M15,4.27051c0-2-4.08594-2.53418-6.5-2.53418s-6.5.53418-6.5,2.53418c0,.06348.01556.12134.02362.18201-.00647.03967-.02362.07532-.02362.11682v4.66504c0,.23535.06641.59277.38135.95605.15186.17383.36377.26562.57617.26562.16846,0,.33691-.05762.4751-.17773.3125-.27148.33887-.73145.06738-1.04395v-3.24988c1.41003.61804,3.51837.82117,5,.82117s3.58997-.20312,5-.82117v.2157c0,.41406.33594.75.75.75s.75-.33594.75-.75v-1.63086c0-.0415-.01715-.07715-.02362-.11682.00806-.06067.02362-.11853.02362-.18201ZM8.5,5.30566c-2.99365,0-4.65186-.68652-4.96826-1.03516.31689-.34766,1.9751-1.03418,4.96826-1.03418s4.65137.68652,4.96826,1.03418c-.31641.34863-1.97461,1.03516-4.96826,1.03516Z" fill="var(--iconPrimary, #292929)" stroke-width="0"/>
</svg>