<?xml version="1.0" encoding="UTF-8"?>
<svg id="f" data-name="ICONS" xmlns="http://www.w3.org/2000/svg" width="20" height="20" viewBox="0 0 20 20">
  <path d="M18.53027,13.71973l-3-3c-.29297-.29297-.76758-.29297-1.06055,0s-.29297.76758,0,1.06055l1.71973,1.71973H6.10657c-.30444-.80139-1.07458-1.375-1.98157-1.375-1.17188,0-2.125.95312-2.125,2.125s.95312,2.125,2.125,2.125c.90698,0,1.677-.57361,1.98145-1.375h10.08301l-1.71973,1.71973c-.29297.29297-.29297.76758,0,1.06055.14648.14648.33789.21973.53027.21973s.38379-.07324.53027-.21973l3-3c.29297-.29297.29297-.76758,0-1.06055ZM4.125,15.125c-.48242,0-.875-.39258-.875-.875s.39258-.875.875-.875.875.39258.875.875-.39258.875-.875.875Z" fill="var(--iconPrimary, #222)"/>
  <path d="M15.875,4.125c-.90698,0-1.677.57361-1.98145,1.375H3.81055l1.71973-1.71973c.29297-.29297.29297-.76758,0-1.06055s-.76758-.29297-1.06055,0l-3,3c-.29297.29297-.29297.76758,0,1.06055l3,3c.14648.14648.33789.21973.53027.21973s.38379-.07324.53027-.21973c.29297-.29297.29297-.76758,0-1.06055l-1.71973-1.71973h10.08301c.30444.80139,1.07446,1.375,1.98145,1.375,1.17188,0,2.125-.95312,2.125-2.125s-.95312-2.125-2.125-2.125ZM15.875,7.125c-.48242,0-.875-.39258-.875-.875s.39258-.875.875-.875.875.39258.875.875-.39258.875-.875.875Z" fill="var(--iconPrimary, #222)"/>
</svg>