<?xml version="1.0" encoding="UTF-8"?>
<svg xmlns="http://www.w3.org/2000/svg" width="28.00005" height="28" viewBox="0 0 28.00005 28">
  <g id="circles">
    <circle id="Ellipse_10213" data-name="Ellipse 10213" cx="14.00002" cy="14" r="14.00001" fill="#0a8d99"/>
  </g>
  <g id="ICONS">
    <rect id="S2_Icon_DataStreams_20_N" x="4.09281" y="4.75404" width="18" height="18" fill="none" opacity=".1"/>
    <path d="M7.56627,13.5879c-.2871,0-.5463-.009-.7614-.0198-.3717-.0198-.657-.3375-.6381-.711.0207-.3717.3456-.6786.7101-.6381,1.3149.0693,2.4885-.0585,3.2031-.3501l.6273-.2394c1.0512-.4005,2.7333-.5094,3.8295-.2484l.5076.1215c.9099.2169,2.1132.1323,2.6262-.0774l1.2888-.5283c.3438-.1404.7389.0243.8811.369.1404.3456-.0252.7389-.369.8802l-1.2888.5274c-.8352.3429-2.3508.4059-3.4524.1422l-.5076-.1215c-.8253-.1989-2.2428-.1044-3.0348.1971l-.612.2331c-.9162.3753-2.1024.4635-3.0096.4635" fill="#fff"/>
    <path d="M7.88613,11.4522c-.3852,0-.7794-.0504-1.1763-.1512-.3609-.0927-.5787-.4599-.4869-.8208.0927-.3609.459-.5769.8208-.4869,1.116.2835,2.2005-.0045,2.8989-.774l1.0287-1.2168c.8694-1.0278,2.4462-1.1997,3.5181-.3843l1.2258.9369c.4968.378,1.2546.2934,1.6542-.1872l1.3545-1.6254c.2394-.288.6633-.3267.9513-.0864.2853.2385.3249.6642.0855.9513l-1.3545,1.6254c-.8631,1.0368-2.4381,1.2123-3.51.396l-1.2258-.9369c-.4977-.3789-1.2618-.2961-1.6695.1827l-1.0431,1.2339c-.7956.8775-1.8909,1.3437-3.0717,1.3437" fill="#fff"/>
    <path d="M11.11483,19.7974c-.17798,0-.35596-.07031-.48867-.20918l-1.00503-1.05381c-.74048-.71279-1.72485-.94043-2.61343-.58887-.34541.13975-.73828-.03252-.87583-.37969-.13667-.34629.0334-.73916.38013-.87539,1.37417-.54316,2.93159-.20039,4.06582.89209l1.02568,1.07402c.25708.26982.24697.69697-.02285.95449-.13052.1248-.29839.18633-.46582.18633Z" fill="#fff"/>
    <path d="M11.14295,16.32132c-.07207,0-.1459-.01143-.21797-.03604l-.97075-.33135c-.85781-.26982-2.02896-.33574-3.04321-.16875-.3665.06064-.71455-.18809-.7752-.55723-.06021-.36738.18896-.71455.55723-.7752,1.2252-.20303,2.60156-.12041,3.68086.21797l.98701.33662c.35288.12041.54141.50449.421.85693-.0958.28037-.35815.45703-.63896.45703Z" fill="#fff"/>
    <path d="M22.07105,15.71708c-.00472-.02615-.00912-.05229-.01566-.07756-.01137-.03889-.02131-.07668-.03911-.11228-.40732-1.06545-2.49175-1.45767-4.30834-1.45767-1.81099,0-3.8885.38979-4.30488,1.44778-.02313.0446-.03642.09185-.04927.14128-.0022.00923-.00357.01846-.00555.02769-.00983.0457-.0278.08877-.0278.13755v4.94473c0,.00813.00434.01494.00461.02285.02148,1.22849,2.23786,1.9626,4.38289,1.9626,2.15552,0,4.38486-.74092,4.38486-1.98018,0-.00132-.00082-.00264-.00082-.00396s.00082-.00264.00082-.00396v-4.94121c0-.03823-.01566-.07119-.02175-.10767ZM20.74281,18.15297c-.23599.2373-1.34132.73301-3.03486.73301-1.69805,0-2.80558-.49878-3.0375-.73521v-.83672c.85435.31377,1.99012.44517,3.0375.44517,1.04634,0,2.1809-.13096,3.03486-.44429v.83804ZM17.70794,15.41957c1.47173,0,2.47588.27686,2.88501.49482-.40913.21797-1.41328.49482-2.88501.49482s-2.47588-.27686-2.88545-.49482c.40957-.21797,1.41372-.49482,2.88545-.49482ZM14.67044,20.66883v-.97493c.83106.35024,1.94304.54207,3.0375.54207,1.09325,0,2.20413-.19138,3.03486-.54097v.97603c-.23599.2373-1.34132.73301-3.03486.73301-1.69805,0-2.80558-.49878-3.0375-.73521Z" fill="#fff"/>
  </g>
</svg>