<?xml version="1.0" encoding="UTF-8"?>
<svg   xmlns="http://www.w3.org/2000/svg" width="20" height="20" viewBox="0 0 20 20">
  <path d="M15,8.06934c0-1.52734-2.69336-2.06934-5-2.06934s-5,.54199-5,2.06934c0,.03748.00891.07166.01208.10791-.00171.02087-.01208.03882-.01208.06006v3.69727c0,1.52441,2.69336,2.06543,5,2.06543s5-.54102,5-2.06543v-3.69727c0-.02124-.01038-.03918-.01208-.06006.00317-.03625.01208-.07043.01208-.10791ZM10,7.5c1.70996,0,2.87012.32031,3.33496.56934-.46582.24902-1.625.56836-3.33496.56836s-2.86914-.31934-3.33496-.56836c.46484-.24902,1.625-.56934,3.33496-.56934ZM10,12.5c-1.96973,0-3.21191-.4248-3.5-.67578v-2.19946c.97803.36182,2.29053.51294,3.5.51294s2.52197-.15112,3.5-.51294v2.19946c-.28809.25098-1.53027.67578-3.5.67578ZM2.75,7c-.41406,0-.75-.33594-.75-.75v-2c0-1.24023,1.00977-2.25,2.25-2.25h2c.41406,0,.75.33594.75.75s-.33594.75-.75.75h-2c-.41309,0-.75.33691-.75.75v2c0,.41406-.33594.75-.75.75ZM6.25,18h-2c-1.24023,0-2.25-1.00977-2.25-2.25v-2c0-.41406.33594-.75.75-.75s.75.33594.75.75v2c0,.41309.33691.75.75.75h2c.41406,0,.75.33594.75.75s-.33594.75-.75.75ZM15.75,18h-2c-.41406,0-.75-.33594-.75-.75s.33594-.75.75-.75h2c.41309,0,.75-.33691.75-.75v-2c0-.41406.33594-.75.75-.75s.75.33594.75.75v2c0,1.24023-1.00977,2.25-2.25,2.25ZM17.25,7c-.41406,0-.75-.33594-.75-.75v-2c0-.41309-.33691-.75-.75-.75h-2c-.41406,0-.75-.33594-.75-.75s.33594-.75.75-.75h2c1.24023,0,2.25,1.00977,2.25,2.25v2c0,.41406-.33594.75-.75.75Z" fill="var(--iconPrimary, #292929)" stroke-width="0"/>
</svg>