<?xml version="1.0" encoding="UTF-8"?>
<svg   xmlns="http://www.w3.org/2000/svg" width="20" height="20" viewBox="0 0 20 20">
  <path d="M19.57812,18.10254c-.39868-.29919-.66516-.7146-.85498-1.13965l.03955.01074c.05469.01562.11035.02246.16504.02246.27539,0,.52637-.18262.60254-.45996.0918-.33301-.10449-.67676-.4375-.76758l-2.86426-.78503,3.50684-6.48938c.16406-.30371.05078-.68262-.25293-.84668s-.68262-.0498-.84668.25293l-3.64429,6.74414-2.93579-.80469c-.33105-.09473-.67676.10449-.76758.4375-.0918.33301.10449.67676.4375.76758l.27124.07434c-.60376,1.7688-.53735,3.7738-.53394,3.86707.02246.56836.48438,1.01367,1.05371,1.01367h1.4873c.1748,0,.3418-.07324.45996-.20215.0459-.0498.08398-.10742.11035-.16797.09961.22266.32227.37012.57129.37012h1.40137c.18848,0,.36719-.08496.48633-.23242.00977-.0127.01953-.02539.0293-.03906.02246.02539.04199.04785.05762.06543.11816.13086.28711.20605.46387.20605h1.3623c.58105,0,1.05371-.47266,1.05371-1.05371,0-.33105-.1582-.64648-.42188-.84375ZM17.87402,18.75c-.19824-.25-.31348-.45605-.33203-.51855-.04688-.19727-.18555-.35938-.37402-.43555-.18848-.07812-.40234-.05762-.57129.05273-.22266.14258-.52637.4541-.64746.90137h-.34668c-.12598-.40918-.23242-.8291-.25684-1.40137-.00879-.2207-.13477-.4209-.33008-.52539-.19531-.10352-.43262-.09668-.62109.01953-.3623.22266-.91211.84863-1.01172,1.90723h-.67383c-.00171-.52136.03979-2.02625.495-3.2998l4.06555,1.11426c.23413.8927.62109,1.6416,1.15625,2.18555h-.55176Z" fill="var(--iconPrimary, #222)"/>
  <path d="M14.7041,11.23535c-.08301-.4082-.4873-.66992-.88379-.58691-1.00293.20312-2.16699.32324-3.36426.34668l-.45605.00488c-4.27344,0-6.40918-1.09082-6.5-1.5v-3.27551c1.52979.84216,4.02393,1.27551,6.5,1.27551,2.54285,0,5.10022-.45898,6.61719-1.34644.1311.21826.35974.37183.63281.37183.41406,0,.75-.33594.75-.75v-1.21484c0-.04077-.01697-.07593-.02319-.11499.00781-.06519.02319-.12842.02319-.19556,0-2.13379-4.02441-3.25-8-3.25S2,2.11621,2,4.25c0,.06714.01538.13037.02319.19556-.00623.03906-.02319.07422-.02319.11499v9.93945c0,2.01367,3.8418,2.86621,7.13086,2.98535h.02734c.40234,0,.73535-.31836.75-.72266.01465-.41406-.30859-.76172-.72266-.77734-3.7959-.13574-5.60547-1.12207-5.68555-1.48535v-3.15332c1.55212.78369,4.08313,1.15332,6.5,1.15332l.48438-.00488c1.28711-.02539,2.54395-.15527,3.63281-.37598.40625-.08203.66895-.47852.58691-.88379ZM10,2.5c4.28809,0,6.5,1.22656,6.5,1.75s-2.21191,1.75-6.5,1.75-6.5-1.22656-6.5-1.75,2.21191-1.75,6.5-1.75Z" fill="var(--iconPrimary, #222)"/>
</svg>