<?xml version="1.0" encoding="UTF-8"?>
<svg   xmlns="http://www.w3.org/2000/svg" width="20" height="20" viewBox="0 0 20 20">
  <path d="M19.43066,18.37012l-2.59131-2.59131c.4696-.67651.74854-1.49451.74854-2.37842,0-2.30859-1.87891-4.1875-4.1875-4.1875s-4.1875,1.87891-4.1875,4.1875,1.87891,4.1875,4.1875,4.1875c.88391,0,1.7019-.27893,2.37842-.74854l2.59131,2.59131c.14648.14648.33789.21973.53027.21973s.38379-.07324.53027-.21973c.29297-.29297.29297-.76758,0-1.06055ZM10.71289,13.40039c0-1.48145,1.20605-2.6875,2.6875-2.6875s2.6875,1.20605,2.6875,2.6875-1.20605,2.6875-2.6875,2.6875-2.6875-1.20605-2.6875-2.6875Z" fill="var(--iconPrimary, #222)"/>
  <path d="M7.62207,15.87207c-2.9541-.33203-4.07031-1.1377-4.12207-1.37207v-3.14209c1.03027.51392,2.38354.78931,3.37402.93018.03516.00586.07129.00781.10645.00781.36719,0,.68848-.27051.74121-.64453.05859-.41016-.22656-.79004-.63672-.84766-2.59863-.37012-3.53711-1.08887-3.58496-1.30371v-3.27551c1.52979.84216,4.02393,1.27551,6.5,1.27551s4.97021-.43335,6.5-1.27551v1.78528c0,.41406.33594.75.75.75s.75-.33594.75-.75v-3.44922c0-.04077-.01697-.07593-.02319-.11499.00781-.06519.02319-.12842.02319-.19556,0-2.13379-4.02441-3.25-8-3.25S2,2.11621,2,4.25c0,.06714.01538.13037.02319.19556-.00623.03906-.02319.07422-.02319.11499v9.93945c0,2.03125,3.81445,2.67871,5.4541,2.8623.02832.00293.05664.00488.08496.00488.37695,0,.70117-.2832.74414-.66602.04688-.41211-.25-.7832-.66113-.8291ZM10,2.5c4.28809,0,6.5,1.22656,6.5,1.75s-2.21191,1.75-6.5,1.75-6.5-1.22656-6.5-1.75,2.21191-1.75,6.5-1.75Z" fill="var(--iconPrimary, #222)"/>
</svg>