<?xml version="1.0" encoding="UTF-8"?>
<svg   xmlns="http://www.w3.org/2000/svg" width="20" height="20" viewBox="0 0 20 20">
  <path d="M19,3.06934c0-1.42969-2.26025-2.06934-4.5-2.06934s-4.5.63965-4.5,2.06934c0,.03003.01508.05444.01703.08374-.00342.02905-.01703.05444-.01703.08423v3.19727c0,1.42676,2.26025,2.06543,4.5,2.06543s4.5-.63867,4.5-2.06543v-3.19727c0-.02979-.01361-.05518-.01703-.08423.00195-.0293.01703-.05371.01703-.08374ZM14.5,2.5c1.52637,0,2.5376.3291,2.89893.56934-.36182.23926-1.37305.56836-2.89893.56836s-2.53711-.3291-2.89893-.56836c.36133-.24023,1.37256-.56934,2.89893-.56934ZM14.5,7c-1.70459,0-2.76807-.41016-3-.64844v-1.68311c.83472.31592,1.91705.46924,3,.46924s2.16528-.15332,3-.46924v1.68311c-.23193.23828-1.29541.64844-3,.64844Z" fill="var(--iconPrimary, #222)"/>
  <path d="M15.20007,10.6001c-2.48523,0-4.5,2.01465-4.5,4.5,0,2.48511,2.01477,4.5,4.5,4.5s4.5-2.01489,4.5-4.5c0-2.48535-2.01471-4.5-4.5-4.5ZM17.70007,15.72461h-1.875v1.875c0,.34473-.27979.625-.625.625s-.625-.28027-.625-.625v-1.875h-1.875c-.34521,0-.625-.28027-.625-.625s.27979-.625.625-.625h1.875v-1.875c0-.34473.27979-.625.625-.625s.625.28027.625.625v1.875h1.875c.34521,0,.625.28027.625.625s-.27979.625-.625.625Z" fill="var(--iconPrimary, #222)"/>
  <path d="M5.5,15.6377c2.23975,0,4.5-.63965,4.5-2.06836,0-1.42969-2.26025-2.06934-4.5-2.06934s-4.5.63965-4.5,2.06934c0,.03003.01508.05444.01703.08374-.00342.02905-.01703.05444-.01703.08423v3.19727c0,1.42676,2.26025,2.06543,4.5,2.06543,1.15479,0,2.23389-.16992,3.0376-.47852.38672-.14844.58008-.58203.43164-.96875-.14844-.3877-.58252-.58203-.96875-.43164-.62744.24121-1.53906.37891-2.50049.37891-1.70459,0-2.76807-.41016-3-.64844v-1.68311c.83472.31592,1.91705.46924,3,.46924ZM5.5,13c1.52637,0,2.5376.3291,2.89893.56934-.36182.23926-1.37305.56836-2.89893.56836s-2.53711-.3291-2.89893-.56836c.36133-.24023,1.37256-.56934,2.89893-.56934Z" fill="var(--iconPrimary, #222)"/>
  <path d="M7.19238,2h-.00293l-2.93262.00977c-.58203-.00098-1.19629.23047-1.63184.65723-.43555.42578-.67773.98828-.68262,1.59082v3.19141l-.46973-.46973c-.29297-.29297-.76758-.29297-1.06055,0s-.29297.76758,0,1.06055l1.75,1.75c.14648.14648.33789.21973.53027.21973s.38379-.07324.53027-.21973l1.75-1.75c.29297-.29297.29297-.76758,0-1.06055s-.76758-.29297-1.06055,0l-.46973.46973v-3.18555c.00195-.19336.08398-.37988.23047-.52441.15332-.14941.37305-.19824.57617-.22949l2.94629-.00977c.41406-.00098.74805-.33789.74707-.75293-.00098-.41309-.33691-.74707-.75-.74707Z" fill="var(--iconPrimary, #222)"/>
</svg>