<?xml version="1.0" encoding="UTF-8"?>
<svg id="f" data-name="ICONS" xmlns="http://www.w3.org/2000/svg" width="20" height="20" viewBox="0 0 20 20">
  <path d="M2.625,18c-.896,0-1.625-.72852-1.625-1.625v-2.25c0-.89648.729-1.625,1.625-1.625s1.625.72852,1.625,1.625v2.25c0,.89648-.729,1.625-1.625,1.625ZM2.625,13.75c-.20654,0-.375.16797-.375.375v2.25c0,.20703.16846.375.375.375s.375-.16797.375-.375v-2.25c0-.20703-.16846-.375-.375-.375Z" fill="var(--iconPrimary, #222)"/>
  <path d="M7.625,18c-.896,0-1.625-.72852-1.625-1.625v-6c0-.89648.729-1.625,1.625-1.625s1.625.72852,1.625,1.625v6c0,.89648-.729,1.625-1.625,1.625ZM7.625,10c-.20654,0-.375.16797-.375.375v6c0,.20703.16846.375.375.375s.375-.16797.375-.375v-6c0-.20703-.16846-.375-.375-.375Z" fill="var(--iconPrimary, #222)"/>
  <path d="M17.625,18c-.896,0-1.625-.72852-1.625-1.625v-8c0-.89648.729-1.625,1.625-1.625s1.625.72852,1.625,1.625v8c0,.89648-.729,1.625-1.625,1.625ZM17.625,8c-.20654,0-.375.16797-.375.375v8c0,.20703.16846.375.375.375s.375-.16797.375-.375v-8c0-.20703-.16846-.375-.375-.375Z" fill="var(--iconPrimary, #222)"/>
  <path d="M12.625,18c-.896,0-1.625-.72852-1.625-1.625v-4.75c0-.89648.729-1.625,1.625-1.625s1.625.72852,1.625,1.625v4.75c0,.89648-.729,1.625-1.625,1.625ZM12.625,11.25c-.20654,0-.375.16797-.375.375v4.75c0,.20703.16846.375.375.375s.375-.16797.375-.375v-4.75c0-.20703-.16846-.375-.375-.375Z" fill="var(--iconPrimary, #222)"/>
  <path d="M1.75049,11c-.20996,0-.41895-.08789-.56738-.25879-.271-.31348-.2373-.78711.07568-1.05762l5.38574-4.66602c.54688-.47559,1.34375-.5625,1.97949-.2168l3.32666,1.80273c.08887.04883.19775.03809.27637-.02539l6.05029-4.91016c.32178-.2627.79297-.21289,1.05518.10938.26074.32129.21191.79395-.10986,1.05469l-6.05029,4.91016c-.55078.44824-1.31055.51953-1.93604.17969l-3.32666-1.80273c-.08936-.04785-.20459-.03613-.28271.03125l-5.38574,4.66602c-.14209.12305-.31689.18359-.49072.18359Z" fill="var(--iconPrimary, #222)"/>
</svg>