<?xml version="1.0" encoding="UTF-8"?>
<svg   xmlns="http://www.w3.org/2000/svg" width="20" height="20" viewBox="0 0 20 20">
  <path d="M19,3.06934c0-1.42969-2.25977-2.06934-4.5-2.06934s-4.5.63965-4.5,2.06934c0,.03003.01514.05444.01709.08374-.00342.02893-.01709.05432-.01709.08423v3.19727c0,1.42676,2.25977,2.06543,4.5,2.06543s4.5-.63867,4.5-2.06543v-3.19727c0-.02991-.01367-.0553-.01709-.08423.00195-.0293.01709-.05371.01709-.08374ZM14.5,2.5c1.52637,0,2.53711.3291,2.89844.56934-.36133.23926-1.37207.56836-2.89844.56836s-2.53711-.3291-2.89844-.56836c.36133-.24023,1.37207-.56934,2.89844-.56934ZM14.5,7c-1.7041,0-2.76855-.41016-3-.64844v-1.68311c.83472.31592,1.91687.46924,3,.46924s2.16528-.15332,3-.46924v1.68311c-.23145.23828-1.2959.64844-3,.64844Z" fill="var(--iconPrimary, #222)"/>
  <path d="M10,13.56934c0-1.42969-2.25977-2.06934-4.5-2.06934s-4.5.63965-4.5,2.06934c0,.03003.01514.05444.01709.08374-.00342.02893-.01709.05432-.01709.08423v3.19727c0,1.42676,2.25977,2.06543,4.5,2.06543s4.5-.63867,4.5-2.06543v-3.19727c0-.02991-.01367-.0553-.01709-.08423.00195-.0293.01709-.05371.01709-.08374ZM5.5,13c1.52637,0,2.53711.3291,2.89844.56934-.36133.23926-1.37207.56836-2.89844.56836s-2.53711-.3291-2.89844-.56836c.36133-.24023,1.37207-.56934,2.89844-.56934ZM5.5,17.5c-1.7041,0-2.76855-.41016-3-.64844v-1.68311c.83472.31592,1.91687.46924,3,.46924s2.16528-.15332,3-.46924v1.68311c-.23145.23828-1.2959.64844-3,.64844Z" fill="var(--iconPrimary, #222)"/>
  <path d="M7.25,1.99023h-.00293l-2.93262.00977c-.58203-.00098-1.19629.23047-1.63184.65723-.43555.42578-.67773.98828-.68262,1.59082v3.19141l-.46973-.46973c-.29297-.29297-.76758-.29297-1.06055,0s-.29297.76758,0,1.06055l1.75,1.75c.14648.14648.33789.21973.53027.21973s.38379-.07324.53027-.21973l1.75-1.75c.29297-.29297.29297-.76758,0-1.06055s-.76758-.29297-1.06055,0l-.46973.46973v-3.18555c.00195-.19336.08398-.37988.23047-.52441.15332-.14941.37305-.19824.57617-.22949l2.94629-.00977c.41406-.00098.74805-.33789.74707-.75293-.00098-.41309-.33691-.74707-.75-.74707Z" fill="var(--iconPrimary, #222)"/>
  <path d="M19.51465,11.96973l-1.75-1.75c-.29297-.29297-.76758-.29297-1.06055,0l-1.75,1.75c-.29297.29297-.29297.76758,0,1.06055s.76758.29297,1.06055,0l.4646-.4646-.0271,3.21265c-.00195.19434-.07812.37402-.21484.50879-.14355.14062-.32031.20215-.55664.21289h-2.93066c-.41406,0-.75.33594-.75.75s.33594.75.75.75h2.95312c.59863,0,1.15918-.22656,1.58301-.64062.4248-.41504.66113-.97266.66602-1.56934l.02734-3.23438.47461.47461c.14648.14648.33789.21973.53027.21973s.38379-.07324.53027-.21973c.29297-.29297.29297-.76758,0-1.06055Z" fill="var(--iconPrimary, #222)"/>
</svg>