<?xml version="1.0" encoding="UTF-8"?>
<svg   xmlns="http://www.w3.org/2000/svg" width="20" height="20" viewBox="0 0 20 20">
  <path d="M9.25537,16.2373l-2.4751-2.47461c-.29297-.29297-.76758-.29297-1.06055,0s-.29297.76758,0,1.06055l1.17706,1.17676H.75c-.41406,0-.75.33594-.75.75s.33594.75.75.75h6.18195l-1.21222,1.21191c-.29297.29297-.29297.76758,0,1.06055.14648.14648.33838.21973.53027.21973s.38379-.07324.53027-.21973l2.4751-2.47461c.14062-.14062.21973-.33105.21973-.53027s-.0791-.38965-.21973-.53027Z" fill="var(--iconPrimary, #222)"/>
  <path d="M18,4.25c0-2.13379-4.02441-3.25-8-3.25S2,2.11621,2,4.25c0,.06714.01538.13037.02325.19556-.00629.03906-.02325.07422-.02325.11499v7.38086c0,.41406.33594.75.75.75s.75-.33594.75-.75v-.59058c.03625.01831.06506.03735.10303.05542,1.38818.66016,3.59766,1.05762,6.06445,1.0918l.33252.00195c2.41681,0,4.94818-.36963,6.50031-1.15369l.00018,3.14783c-.05176.23828-1.15381,1.03613-4.06738,1.37109-.41162.04688-.70703.41895-.65967.83105.04395.38184.36816.66406.74414.66406.02881,0,.05762-.00195.08643-.00488,1.62256-.18652,5.396-.83789,5.396-2.85547V4.56055c0-.04077-.01697-.07593-.02325-.11499.00787-.06519.02325-.12842.02325-.19556ZM10,2.5c4.28857,0,6.5,1.22656,6.5,1.75s-2.21143,1.75-6.5,1.75-6.5-1.22656-6.5-1.75,2.21143-1.75,6.5-1.75ZM10,11l-.31543-.00195c-2.22217-.03027-4.25488-.38477-5.4375-.94629-.56982-.27148-.73486-.49902-.74707-.55176v-3.27551c1.52985.84216,4.02393,1.27551,6.5,1.27551s4.97015-.43335,6.50006-1.27563l.00018,3.27014c-.0918.41516-2.22833,1.50549-6.50024,1.50549Z" fill="var(--iconPrimary, #222)"/>
</svg>