<?xml version="1.0" encoding="UTF-8"?>
<svg id="f" data-name="ICONS" xmlns="http://www.w3.org/2000/svg" width="20" height="20" viewBox="0 0 20 20">
  <path d="M10.25,18.00003h-6c-1.24023,0-2.25-1.00488-2.25-2.23926V4.23929c0-1.23438,1.00977-2.23926,2.25-2.23926h11.5c1.24023,0,2.25,1.00488,2.25,2.23926v2.01074c0,.41406-.33594.75-.75.75s-.75-.33594-.75-.75v-2.01074c0-.40723-.33691-.73926-.75-.73926H4.25c-.41309,0-.75.33203-.75.73926v11.52148c0,.40723.33691.73926.75.73926h6c.41406,0,.75.33594.75.75s-.33594.75-.75.75Z" fill="var(--iconPrimary, #222)"/>
  <rect x="5.5" y="11.00003" width="3.5" height="3.5" rx="1" ry="1" fill="var(--iconPrimary, #222)"/>
  <rect x="5.5" y="5.50003" width="3.5" height="3.5" rx="1" ry="1" fill="var(--iconPrimary, #222)"/>
  <path d="M19.84415,12.56253c-.22021-.39844-.63916-.64551-1.09424-.64551h-2.13232l.68359-2.7207c.15381-.61328-.146-1.21191-.72852-1.45703-.58398-.24316-1.22021-.03906-1.55029.5l-3.54053,5.77539c-.23535.38574-.24463.87012-.02393,1.26367.22119.39355.63867.63867,1.09033.63867h2.13721l-.65527,2.51367c-.15869.61035.13477,1.21191.71338,1.46191.16797.07227.34082.10742.50977.10742.41406,0,.80566-.20996,1.04492-.58887l3.50977-5.57812c.24219-.38477.25635-.87207.03613-1.27051ZM15.88956,17.24417l.32861-1.26172c.09863-.37793.01807-.77051-.22021-1.0791-.23877-.30957-.59912-.48633-.98926-.48633h-2.01416l2.45361-4.00293-.36377,1.44824c-.09473.37598-.01221.76758.22656,1.07324.23828.30566.59766.48145.98584.48145h2.00098l-2.4082,3.82715Z" fill="var(--iconPrimary, #222)"/>
  <path d="M12,9.00003h.79688l.94727-1.54492c.19751-.32251.46313-.57617.75586-.7876v-.16748c0-.55225-.44775-1-1-1h-1.5c-.55225,0-1,.44775-1,1v1.5c0,.55225.44775,1,1,1Z" fill="var(--iconPrimary, #222)"/>
</svg>