<?xml version="1.0" encoding="UTF-8"?>
<svg id="f" data-name="ICONS" xmlns="http://www.w3.org/2000/svg" width="20" height="20" viewBox="0 0 20 20">
  <path d="M7.23942,18h-2.98942c-1.24023,0-2.25-1.00488-2.25-2.23926V4.23926c0-1.23438,1.00977-2.23926,2.25-2.23926h11.5c1.24023,0,2.25,1.00488,2.25,2.23926v3.63178c0,.41406-.33594.75-.75.75s-.75-.33594-.75-.75v-3.63178c0-.40723-.33691-.73926-.75-.73926H4.25c-.41309,0-.75.33203-.75.73926v11.52148c0,.40723.33691.73926.75.73926h2.98942c.41406,0,.75.33594.75.75s-.33594.75-.75.75Z" fill="var(--iconPrimary, #222)"/>
  <circle cx="14.42406" cy="14.83343" r="1.24979" fill="var(--iconPrimary, #222)"/>
  <path d="M12.59275,20c-.23145,0-.46777-.05957-.68457-.18359l-.49414-.28125c-.61719-.35254-.86426-1.13281-.56445-1.77539l.30078-.64746c-.12109-.17383-.22852-.35645-.32031-.54688l-.71191-.05566c-.71973-.05762-1.26367-.64453-1.26758-1.36426l-.00293-.56836c-.00391-.70996.54688-1.31445,1.25391-1.37695l.71094-.0625c.04395-.0957.09277-.18945.14648-.2832.05176-.09277.1084-.18164.16797-.26855l-.30762-.64355c-.30469-.63965-.06445-1.4209.54785-1.7793l.49023-.28711c.61816-.36426,1.40332-.19434,1.81836.39746l.41113.58496c.20898-.01758.41992-.01953.63379-.00195l.4043-.58984c.40137-.58398,1.19727-.76953,1.81543-.41602l.49316.28125c.61621.35156.86426,1.13086.56641,1.77344l-.30273.64941c.12109.1748.22852.35645.32031.54688l.71191.05566c.70801.05469,1.26465.6543,1.26855,1.36426l.00195.56934c.00391.71875-.53516,1.31055-1.25195,1.375l-.71191.0625c-.04395.0957-.0918.18945-.14453.28223-.00098.00098-.00195.00195-.00195.00293-.05273.0918-.10938.18066-.16895.26758l.30762.64258c.31055.65137.0752,1.41602-.54688,1.78027l-.49023.28711c-.61523.35742-1.41406.18164-1.81934-.39844l-.41016-.58496c-.21094.01758-.42285.01855-.63379.00293l-.40625.59082c-.26562.3877-.69141.59863-1.12891.59863ZM12.55076,10.93848c-.02051,0-.04199.00488-.0625.0166l-.49023.28711c-.05664.03223-.07812.10254-.05078.16113l.47266.98828c.10547.22168.07129.48438-.08691.67188-.10645.12695-.20508.2627-.28906.41113-.08594.15039-.15234.30469-.20801.45996-.08105.23145-.29004.39258-.5332.41504l-1.09082.09668c-.06445.00488-.11426.06055-.11426.125l.00293.56836c0,.06445.05176.11914.11621.12402l1.09082.08496c.24512.01855.45703.18066.54004.41211.1123.31445.28125.60449.50293.86133.16113.18555.19727.44824.09375.67188l-.46191.99414c-.02734.05859-.00488.12988.05176.16211l.49316.28027c.05566.0293.12793.01562.16406-.03711l.62207-.9043c.13867-.20117.37988-.30469.625-.26074.33203.06055.66797.05762,1-.00488.24121-.04102.4873.05469.62793.25488l.62891.89648c.03613.05176.11035.06836.16602.03613l.48926-.28613c.05664-.0332.07812-.10352.0498-.16309l-.47168-.98633c-.10645-.22168-.07324-.48438.08594-.67188.10645-.12793.20508-.26367.29102-.41211.08398-.14844.15039-.30176.2041-.45703.08105-.23242.29102-.39648.53613-.41797l1.09082-.0957c.06445-.00488.11328-.05957.11328-.125l-.00195-.56934c0-.06348-.05078-.11816-.11621-.12305l-1.0918-.08496c-.24512-.01855-.45703-.18066-.54004-.41211-.1123-.31445-.28125-.60449-.50293-.86133-.16113-.18555-.19824-.44922-.09375-.67188l.46289-.99414c.02637-.05859.00391-.12891-.05176-.16113l-.49316-.28125c-.05957-.0332-.12988-.01465-.16504.03711l-.62012.90332c-.13867.20312-.37695.31055-.62598.26172-.33398-.05957-.67188-.05762-.99805.00391-.24609.04785-.48828-.05371-.62988-.25391l-.62891-.89648c-.02441-.03516-.0625-.05371-.10254-.05371Z" fill="var(--iconPrimary, #222)"/>
  <rect x="5.5" y="5.5" width="3.5" height="3.5" rx="1" ry="1" fill="var(--iconPrimary, #222)"/>
  <path d="M12.55273,8.18457c.59595,0,1.16357.19604,1.64075.53174.18787-.18188.30652-.43433.30652-.71631v-1.5c0-.55225-.44775-1-1-1h-1.5c-.55225,0-1,.44775-1,1v1.5c0,.2063.07739.38696.18433.54614.41919-.22925.88867-.36157,1.36841-.36157Z" fill="var(--iconPrimary, #222)"/>
  <path d="M8.99622,11.9812c-.01062-.54297-.45056-.9812-.99622-.9812h-1.5c-.55225,0-1,.44775-1,1v1.5c0,.55225.44775,1,1,1h.854c.02722-1.09961.6886-2.06152,1.64221-2.5188Z" fill="var(--iconPrimary, #222)"/>
</svg>