<?xml version="1.0" encoding="UTF-8"?>
<svg id="f" data-name="ICONS" xmlns="http://www.w3.org/2000/svg" width="20" height="20" viewBox="0 0 20 20">
  <path d="M14.24414,13.00195h-5.5c-.41406,0-.75-.33594-.75-.75s.33594-.75.75-.75h5.5c.41406,0,.75.33594.75.75s-.33594.75-.75.75Z" fill="#212222"/>
  <path d="M14.24414,19.00195h-5.5c-.41406,0-.75-.33594-.75-.75s.33594-.75.75-.75h5.5c.41406,0,.75.33594.75.75s-.33594.75-.75.75Z" fill="#212222"/>
  <path d="M18.74414,13.00195h-1.5c-.41406,0-.75-.33594-.75-.75s.33594-.75.75-.75h1.5c.41406,0,.75.33594.75.75s-.33594.75-.75.75Z" fill="#212222"/>
  <path d="M17.74414,16.00195h-6.5c-.41406,0-.75-.33594-.75-.75s.33594-.75.75-.75h6.5c.41406,0,.75.33594.75.75s-.33594.75-.75.75Z" fill="#212222"/>
  <path d="M6.74414,16.00195c-.41357,0-.74951-.33496-.75-.74902s.33496-.75.74902-.75098l1.50586-.00195h.00098c.41357,0,.74951.33496.75.74902s-.33496.75-.74902.75098l-1.50586.00195h-.00098Z" fill="#212222"/>
  <path d="M3.80176,16.00195c-.02051,0-.04053-.00098-.06104-.00195-1.8208-.14746-3.24658-1.68945-3.24658-3.51074,0-1.53613.99658-2.85938,2.39258-3.33496-.0459-.24316-.06934-.49023-.06934-.74023,0-2.23438,1.85107-4.05176,4.12646-4.05176.29248,0,.58301.03125.86865.09375.646-2.01953,2.53467-3.4541,4.7041-3.4541,2.73486,0,4.95996,2.22949,4.95996,4.9707,0,.45703-.06641.91113-.19824,1.35547.76514.22266,1.45996.65039,2.01611,1.25098.28125.30469.26318.77832-.04102,1.06055-.30273.2793-.77832.2627-1.05957-.04102-.52441-.56641-1.23291-.90137-1.99609-.94141-.25439-.01367-.48438-.15527-.61084-.37598-.12646-.22168-.13232-.49121-.01514-.71777.26855-.51855.40479-1.05469.40479-1.59082,0-1.91406-1.55225-3.4707-3.45996-3.4707-1.72021,0-3.18701,1.29883-3.41162,3.02148-.03076.23633-.17188.44336-.37988.55957-.20703.11621-.4585.125-.67529.02637-.3584-.16406-.73047-.24707-1.10596-.24707-1.44824,0-2.62646,1.14453-2.62646,2.55176,0,.3457.07227.68359.21387,1.00391.09961.22461.08301.48242-.04443.69238-.12695.20996-.34863.34375-.59326.35938-1.06494.06836-1.89941.95508-1.89941,2.01953,0,1.0625.80273,1.92969,1.8667,2.01465.41309.03418.7207.39551.6875.80859-.03174.39258-.35986.68945-.74658.68945Z" fill="#222"/>
</svg>