<?xml version="1.0" encoding="UTF-8"?>
<svg id="e" data-name="ICONS" xmlns="http://www.w3.org/2000/svg" width="20" height="20" viewBox="0 0 20 20">
  <path d="M18.25,10.2998c-.41406,0-.75-.33594-.75-.75v-5.2998c0-.41309-.33643-.75-.75-.75h-2.25c-.41406,0-.75-.33594-.75-.75s.33594-.75.75-.75h2.25c1.24072,0,2.25,1.00977,2.25,2.25v5.2998c0,.41406-.33594.75-.75.75Z" fill="var(--iconPrimary, #222)"/>
  <path d="M5.5,15h-2.25c-1.24072,0-2.25-1.00977-2.25-2.25V4.25c0-1.24023,1.00928-2.25,2.25-2.25h2.25c.41406,0,.75.33594.75.75s-.33594.75-.75.75h-2.25c-.41357,0-.75.33691-.75.75v8.5c0,.41309.33643.75.75.75h2.25c.41406,0,.75.33594.75.75s-.33594.75-.75.75Z" fill="var(--iconPrimary, #222)"/>
  <circle cx="10" cy="8" r="1.5" fill="var(--iconPrimary, #222)"/>
  <circle cx="5.5" cy="8" r="1.5" fill="var(--iconPrimary, #222)"/>
  <circle cx="14.5" cy="8" r="1.5" fill="var(--iconPrimary, #222)"/>
  <path d="M14.51807,18.5918c-2.55078,0-5.14307-2.34082-5.14307-3.64941,0-.48926.45264-1.00586.72266-1.27051.24658-.24121.64111-.23828.88281.00879.2417.24609.23828.6416-.00732.88281-.1543.15234-.32861.375-.3584.45898.05908.40039,1.84814,2.31934,3.90332,2.31934.34521,0,.625.28027.625.625s-.27979.625-.625.625Z" fill="var(--iconPrimary, #222)"/>
  <path d="M18.19031,17.12939c.72089-.60547,1.43469-1.45508,1.43469-2.18701,0-1.23633-2.4248-3.85352-5.13232-3.85352-.659.00781-1.31512.15796-1.92004.4231l-1.04236-1.04224c-.29297-.29297-.76758-.29297-1.06055,0s-.29297.76758,0,1.06055l7.29932,7.29883c.14648.14648.33838.21973.53027.21973s.38379-.07324.53027-.21973c.29297-.29297.29297-.76758,0-1.06055l-.63928-.63916ZM14.5,12.33887c2.15576,0,3.82861,2.16309,3.875,2.59766-.01611.17383-.37213.72803-1.07904,1.29834l-3.74463-3.74414c.31134-.08838.62933-.14795.94867-.15186Z" fill="var(--iconPrimary, #222)"/>
</svg>