<?xml version="1.0" encoding="UTF-8"?>
<svg id="d" data-name="strokes" xmlns="http://www.w3.org/2000/svg" width="20" height="20" viewBox="0 0 20 20">
  <path d="M10.93359,16.29102c-.39844,0-.72949-.31348-.74805-.71582l-.1875-4.06934c-.01953-.41309.30078-.76465.71484-.7832.41602-.04199.76367.30078.7832.71484l.1875,4.06934c.01953.41309-.30078.76465-.71484.7832-.01172.00098-.02344.00098-.03516.00098Z" fill="var(--iconPrimary, #222)"/>
  <path d="M13.56641,16.29102c-.01172,0-.02344,0-.03613-.00098-.41309-.01855-.7334-.37012-.71387-.78418l.18848-4.06934c.01953-.41309.33594-.74316.78418-.71387.41309.01855.7334.37012.71387.78418l-.18848,4.06934c-.01855.40137-.35059.71484-.74805.71484Z" fill="var(--iconPrimary, #222)"/>
  <path d="M17.51172,8h-2.44434v-.1123c0-1.02734-.84277-1.8623-1.87793-1.8623h-1.87891c-1.03516,0-1.87695.83496-1.87695,1.8623v.1123h-2.44531c-.41406,0-.75.33594-.75.75s.33594.75.75.75h.20288l.31958,7.71387c.04102,1.00195.86523,1.78613,1.87598,1.78613h5.72754c1.01074,0,1.83398-.78418,1.875-1.78516l.31958-7.71484h.20288c.41406,0,.75-.33594.75-.75s-.33594-.75-.75-.75ZM10.93359,7.8877c0-.2002.16895-.3623.37695-.3623h1.87891c.20801,0,.37793.16211.37793.3623v.1123h-2.63379v-.1123ZM15.49121,17.15332c-.00879.19434-.17383.34668-.37695.34668h-5.72754c-.2041,0-.36914-.15234-.37793-.34766l-.31689-7.65234h7.11621l-.31689,7.65332Z" fill="var(--iconPrimary, #222)"/>
  <path d="M13.01172,3.5h-2.44434v-.1123c0-1.02734-.84277-1.8623-1.87793-1.8623h-1.87891c-1.03516,0-1.87695.83496-1.87695,1.8623v.1123h-2.44531c-.41406,0-.75.33594-.75.75s.33594.75.75.75h.20288l.31958,7.71387c.04102,1.00195.86523,1.78613,1.87598,1.78613.41406,0,.75-.33594.75-.75s-.33594-.75-.75-.75c-.2041,0-.36914-.15234-.37793-.34766l-.31689-7.65234h8.81982c.41406,0,.75-.33594.75-.75s-.33594-.75-.75-.75ZM6.43359,3.3877c0-.2002.16895-.3623.37695-.3623h1.87891c.20801,0,.37793.16211.37793.3623v.1123h-2.63379v-.1123Z" fill="var(--iconPrimary, #222)"/>
</svg>