<?xml version="1.0" encoding="UTF-8"?>
<svg xmlns="http://www.w3.org/2000/svg" width="20" height="20" viewBox="0 0 20 20">
  <path d="M15.75,17H7.4082c-.62695,0-1.23047-.26465-1.65576-.72656L1.38281,11.52344c-.78613-.85449-.78613-2.19238,0-3.04688L5.75244,3.72656c.42529-.46191,1.02881-.72656,1.65576-.72656h8.3418c1.24072,0,2.25,1.00977,2.25,2.25v9.5c0,1.24023-1.00928,2.25-2.25,2.25ZM7.4082,4.5c-.20898,0-.41064.08789-.55225.24219l-4.36963,4.75c-.26611.28906-.26611.72656,0,1.01562l4.36963,4.75c.1416.1543.34326.24219.55225.24219h8.3418c.41357,0,.75-.33691.75-.75V5.25c0-.41309-.33643-.75-.75-.75H7.4082Z" fill="var(--iconPrimary, #222)"/>
  <path d="M12.06055,10l2.46973-2.46973c.29297-.29297.29297-.76758,0-1.06055s-.76758-.29297-1.06055,0l-2.46973,2.46973-2.46973-2.46973c-.29297-.29297-.76758-.29297-1.06055,0s-.29297.76758,0,1.06055l2.46973,2.46973-2.46973,2.46973c-.29297.29297-.29297.76758,0,1.06055.14648.14648.33838.21973.53027.21973s.38379-.07324.53027-.21973l2.46973-2.46973,2.46973,2.46973c.14648.14648.33838.21973.53027.21973s.38379-.07324.53027-.21973c.29297-.29297.29297-.76758,0-1.06055l-2.46973-2.46973Z" fill="var(--iconPrimary, #222)"/>
</svg>