<?xml version="1.0" encoding="UTF-8"?>
<svg xmlns="http://www.w3.org/2000/svg" width="20" height="20" viewBox="0 0 20 20">
  <path d="M18.55664,14.24414l-2.30762-10c-.2373-1.02734-1.13867-1.74414-2.19238-1.74414H5.94336c-1.05371,0-1.95508.7168-2.19238,1.74414L1.44336,14.24414c-.15527.67188.00195,1.36719.43164,1.90625.42871.54004,1.07129.84961,1.76074.84961h12.72852c.68945,0,1.33203-.30957,1.76074-.84961.42969-.53906.58691-1.23438.43164-1.90625ZM16.29785,11.125h-3.20312l-.1875-3.25h2.64062l.75,3.25ZM8.15723,11.125l.1875-3.25h3.31055l.1875,3.25h-3.68555ZM11.91479,12.375l.18018,3.125h-4.18994l.18018-3.125h3.82959ZM8.41699,6.625l.15137-2.625h2.86328l.15137,2.625h-3.16602ZM14.78809,4.58203l.47144,2.04297h-2.42432l-.15137-2.625h1.3728c.35156,0,.65234.23926.73145.58203ZM5.94336,4h1.3728l-.15137,2.625h-2.42432l.47144-2.04297c.0791-.34277.37988-.58203.73145-.58203ZM4.45203,7.875h2.64062l-.1875,3.25h-3.20312l.75-3.25ZM3.04883,15.2168c-.14355-.17969-.19629-.41113-.14453-.63477l.50928-2.20703h3.41943l-.1803,3.125h-3.01697c-.23047,0-.44434-.10352-.58691-.2832ZM16.95117,15.2168c-.14258.17969-.35645.2832-.58691.2832h-3.01709l-.18018-3.125h3.41943l.50928,2.20703c.05176.22363-.00098.45508-.14453.63477Z" fill="var(--iconPrimary, #222)"/>
</svg>