<?xml version="1.0" encoding="UTF-8"?>
<svg id="f" data-name="ICONS" xmlns="http://www.w3.org/2000/svg" width="20" height="20" viewBox="0 0 20 20">
  <path d="M6.34961,17.5h-.84961c-.41406,0-.75-.33594-.75-.75s.33594-.75.75-.75h.84961c.41406,0,.75.33594.75.75s-.33594.75-.75.75Z" fill="var(--iconPrimary, #222)"/>
  <path d="M13.75,19.5c-3.17041,0-5.75-2.5791-5.75-5.75s2.57959-5.75,5.75-5.75,5.75,2.5791,5.75,5.75-2.57959,5.75-5.75,5.75ZM13.75,9.5c-2.34326,0-4.25,1.90625-4.25,4.25s1.90674,4.25,4.25,4.25,4.25-1.90625,4.25-4.25-1.90674-4.25-4.25-4.25Z" fill="var(--iconPrimary, #222)"/>
  <path d="M5.77539,15h-2.52539c-1.24072,0-2.25-1.00977-2.25-2.25V4.25c0-1.24023,1.00928-2.25,2.25-2.25h12.5c1.24072,0,2.25,1.00977,2.25,2.25v2.64062c0,.41406-.33594.75-.75.75s-.75-.33594-.75-.75v-2.64062c0-.41309-.33643-.75-.75-.75H3.25c-.41357,0-.75.33691-.75.75v8.5c0,.41309.33643.75.75.75h2.52539c.41406,0,.75.33594.75.75s-.33594.75-.75.75Z" fill="var(--iconPrimary, #222)"/>
  <path d="M12.5,15.38155v-2.90669c0-.42868.414-.69002.73316-.46282l2.35068,1.45334c.30029.21377.30029.71188,0,.92565l-2.35068,1.45334c-.31916.2272-.73316-.03415-.73316-.46282Z" fill="var(--iconPrimary, #222)"/>
</svg>