<?xml version="1.0" encoding="UTF-8"?>
<svg xmlns="http://www.w3.org/2000/svg" width="20" height="20" viewBox="0 0 20 20">
  <path d="m14,18.5H6c-.41406,0-.75-.33594-.75-.75s.33594-.75.75-.75h8c.41406,0,.75.33594.75.75s-.33594.75-.75.75Z" fill="var(--iconPrimary, #222)"/>
  <path d="m16.75,16H3.25c-1.24023,0-2.25-1.00977-2.25-2.25V5.25c0-1.24023,1.00977-2.25,2.25-2.25h7.5127c.41406,0,.75.33594.75.75s-.33594.75-.75.75H3.25c-.41309,0-.75.33691-.75.75v8.5c0,.41309.33691.75.75.75h13.5c.41309,0,.75-.33691.75-.75v-3.60156c0-.41406.33594-.75.75-.75s.75.33594.75.75v3.60156c0,1.24023-1.00977,2.25-2.25,2.25Z" fill="var(--iconPrimary, #222)"/>
  <path d="m19,3v-.5c0-1.38074-1.11926-2.5-2.5-2.5s-2.5,1.11926-2.5,2.5v.5c-.55225,0-1,.44769-1,1v3c0,.55225.44775,1,1,1h5c.55231,0,1-.44775,1-1v-3c0-.55231-.44769-1-1-1Zm-1.00513,0h-2.98975s-.00513-.31458-.00513-.5c0-.82843.67157-1.5,1.5-1.5s1.5.67157,1.5,1.5c0,.18542-.00513.5-.00513.5Z" fill="var(--iconBluePrimary, #0265dc)"/>
</svg>