<?xml version="1.0" encoding="UTF-8"?>
<svg xmlns="http://www.w3.org/2000/svg" width="20" height="20" viewBox="0 0 20 20">
    <path d="m14,18.5H6c-.41406,0-.75-.33594-.75-.75s.33594-.75.75-.75h8c.41406,0,.75.33594.75.75s-.33594.75-.75.75Z" fill="var(--iconPrimary, #222)"/>
    <path d="m16.75,16H3.25c-1.24023,0-2.25-1.00977-2.25-2.25V5.25c0-1.24023,1.00977-2.25,2.25-2.25h7.5127c.41406,0,.75.33594.75.75s-.33594.75-.75.75H3.25c-.41309,0-.75.33691-.75.75v8.5c0,.41309.33691.75.75.75h13.5c.41309,0,.75-.33691.75-.75v-4.77441c0-.41406.33594-.75.75-.75s.75.33594.75.75v4.77441c0,1.24023-1.00977,2.25-2.25,2.25Z" fill="var(--iconPrimary, #222)" stroke-width="0"/>
    <circle id="d"  cx="16.5" cy="3.5" r="3.5" fill="var(--iconOrangePrimary, #e46f00)"/>
</svg>