<?xml version="1.0" encoding="UTF-8"?>
<svg   xmlns="http://www.w3.org/2000/svg" width="20" height="20" viewBox="0 0 20 20">
  <path d="M9.99512,18.25c-4.54883,0-8.25-3.70117-8.25-8.25S5.44629,1.75,9.99512,1.75c1.71973,0,3.36768.52344,4.76562,1.51465.33789.24023.41797.70801.17822,1.0459-.23926.33789-.70947.41602-1.04541.17871-1.14307-.81055-2.49121-1.23926-3.89844-1.23926-3.72217,0-6.75,3.02832-6.75,6.75s3.02783,6.75,6.75,6.75c1.21729,0,2.41064-.32812,3.45068-.94824.35596-.21094.81689-.0957,1.02832.26074.2124.35547.0957.81543-.25977,1.02832-1.27246.75781-2.73145,1.15918-4.21924,1.15918Z" fill="var(--iconPrimary, #222)" stroke-width="0"/>
  <path d="M18.78027,9.46973l-2.4751-2.47461c-.29297-.29297-.76758-.29297-1.06055,0s-.29297.76758,0,1.06055l1.19464,1.19434h-6.67462c-.41406,0-.75.33594-.75.75s.33594.75.75.75h6.67462l-1.19464,1.19434c-.29297.29297-.29297.76758,0,1.06055.14648.14648.33838.21973.53027.21973s.38379-.07324.53027-.21973l2.4751-2.47461c.14062-.14062.21973-.33105.21973-.53027s-.0791-.38965-.21973-.53027Z" fill="var(--iconPrimary, #222)" stroke-width="0"/>
</svg>