<?xml version="1.0" encoding="UTF-8"?>
<svg id="f" data-name="ICONS" xmlns="http://www.w3.org/2000/svg" width="20" height="20" viewBox="0 0 20 20">
  <path d="M8.75,17.5h-2.75c-.41406,0-.75-.33594-.75-.75s.33594-.75.75-.75h2.75c.41406,0,.75.33594.75.75s-.33594.75-.75.75Z" fill="var(--iconPrimary, #222)"/>
  <path d="M8.5,15H3.25c-1.24023,0-2.25-1.00977-2.25-2.25V4.25c0-1.24023,1.00977-2.25,2.25-2.25h13.5c1.24023,0,2.25,1.00977,2.25,2.25v5c0,.41406-.33594.75-.75.75s-.75-.33594-.75-.75v-5c0-.41309-.33691-.75-.75-.75H3.25c-.41309,0-.75.33691-.75.75v8.5c0,.41309.33691.75.75.75h5.25c.41406,0,.75.33594.75.75s-.33594.75-.75.75Z" fill="var(--iconPrimary, #222)"/>
  <circle cx="15" cy="15" r="4.5" fill="var(--iconPositive, #0ba45d)"/>
  <path d="M14.58594,17.25488c-.17676,0-.3457-.0752-.46484-.20703l-1.4375-1.59863c-.23047-.25684-.20996-.65234.04688-.88281.25488-.23145.65137-.20996.88281.04688l.92285,1.02734,1.85547-2.5293c.20312-.27832.59375-.34082.87305-.13477.2793.2041.33887.59473.13477.87305l-2.30957,3.14941c-.11133.15234-.28516.24609-.47266.25488-.01074.00098-.02051.00098-.03125.00098Z" fill="#fff"/>
</svg>