<?xml version="1.0" encoding="UTF-8"?>
<svg xmlns="http://www.w3.org/2000/svg" width="14" height="14" viewBox="0 0 14 14">
  <circle cx="7" cy="10.25" r=".875" fill="var(--iconPrimary, #222)"/>
  <path d="M9.38477,12.99023h-4.76953c-1.03418,0-1.875-.84082-1.875-1.875V1.88477C2.74023.85059,3.58105.00977,4.61523.00977h4.76953c1.03418,0,1.875.84082,1.875,1.875v9.23047c0,1.03418-.84082,1.875-1.875,1.875ZM4.61523,1.25977c-.34473,0-.625.28027-.625.625v9.23047c0,.34473.28027.625.625.625h4.76953c.34473,0,.625-.28027.625-.625V1.88477c0-.34473-.28027-.625-.625-.625h-4.76953Z" fill="var(--iconPrimary, #222)"/>
</svg>