<?xml version="1.0" encoding="UTF-8"?>
<svg xmlns="http://www.w3.org/2000/svg" width="20" height="20" viewBox="0 0 20 20">
  <path d="M18.06641,5.86621l-3.24902-3.20215c-.43359-.42773-1.00879-.66406-1.61914-.66406h-6.39648c-.61426,0-1.19238.23828-1.625.66992l-3.24121,3.21582c-.82812.82129-.91211,2.13477-.19531,3.05469l6.84961,8.78809c.34082.4375.85449.68945,1.41016.68945s1.06934-.25195,1.41016-.68945l6.85645-8.80176c.71875-.92285.63281-2.23926-.2002-3.06055ZM13.76465,3.73242l3.04297,2.99902h-3.21094l-1.61523-3.23145h1.2168c.21289,0,.41406.08203.56641.23242ZM7.80029,6.73145l1.61475-3.23145h1.16992l1.61475,3.23145h-4.39941ZM12.2146,7.98145l-2.2146,7.38232-2.2146-7.38232h4.4292ZM6.23438,3.7334c.15137-.15039.35254-.2334.56738-.2334h1.2168l-1.61523,3.23145h-3.19067l3.02173-2.99805ZM2.92383,8.01855c-.00879-.01123-.01123-.02539-.01929-.03711h3.57568l2.24341,7.47852-5.7998-7.44141ZM11.27661,15.4585l2.24316-7.47705h3.57544c-.00537.00732-.00659.01611-.01221.02344l-5.8064,7.45361Z" fill="var(--iconPrimary, #292929)"/>
</svg>