<?xml version="1.0" encoding="UTF-8"?>
<svg id="e" data-name="ICONS" xmlns="http://www.w3.org/2000/svg" width="20" height="20" viewBox="0 0 20 20">
  <path d="M6.71777,6.74316c-.06836,0-.1377-.00879-.20605-.0293l-2.01172-.5752c-.39844-.11328-.62891-.52832-.51465-.92676.11328-.39844.52832-.63574.92676-.51465l2.01172.5752c.39844.11328.62891.52832.51465.92676-.09375.3291-.39355.54395-.7207.54395Z" fill="var(--iconPrimary, #222)"/>
  <path d="M6.71777,10.05566c-.06836,0-.1377-.00879-.20605-.0293l-2.01172-.5752c-.39844-.11328-.62891-.52832-.51465-.92676.11328-.39844.52832-.6377.92676-.51465l2.01172.5752c.39844.11328.62891.52832.51465.92676-.09375.3291-.39355.54395-.7207.54395Z" fill="var(--iconPrimary, #222)"/>
  <path d="M7.45215,14.73438c-.06934,0-.14062-.00977-.21094-.03027l-4.61426-1.35547c-.95605-.27246-1.62695-1.16211-1.62695-2.16113V3.25098c0-.71191.32617-1.36719.89453-1.7959.56934-.42969,1.28613-.56445,1.97363-.36816l4.78809,1.36914c.22363.06152.46191.06445.6875-.00098l4.78809-1.36719c.68555-.19824,1.4043-.0625,1.97363.36719.56836.42871.89453,1.08398.89453,1.7959v4.35449c0,.41406-.33594.75-.75.75s-.75-.33594-.75-.75V3.25098c0-.2373-.1084-.45605-.29785-.59863-.19043-.14258-.43262-.19043-.6582-.12207l-4.78809,1.36719c-.49414.14258-1.01758.1416-1.51172.00098l-4.78809-1.36914c-.22656-.06445-.46777-.01953-.6582.12305-.18945.14258-.29785.36133-.29785.59863v7.93652c0,.33301.22363.62891.54395.71973l4.61914,1.35742c.39746.11719.625.5332.50879.93066-.0957.32715-.39551.53906-.71973.53906Z" fill="var(--iconPrimary, #222)"/>
  <path d="M11.20605,6.74316c-.32715,0-.62695-.21484-.7207-.54395-.11426-.39844.11621-.81348.51465-.92676l2.01172-.5752c.39746-.11621.81348.11621.92676.51465.11426.39844-.11621.81348-.51465.92676l-2.01172.5752c-.06836.02051-.1377.0293-.20605.0293Z" fill="var(--iconPrimary, #222)"/>
  <path d="M11.20605,10.05566c-.32715,0-.62695-.21484-.7207-.54395-.11426-.39844.11621-.81348.51465-.92676l2.01172-.5752c.39746-.11816.81348.11719.92676.51465.11426.39844-.11621.81348-.51465.92676l-2.01172.5752c-.06836.02051-.1377.0293-.20605.0293Z" fill="var(--iconPrimary, #222)"/>
  <path d="M15.00189,10.50009c-2.48529,0-4.5,2.01471-4.5,4.5s2.01471,4.5,4.5,4.5,4.5-2.01471,4.5-4.5-2.01471-4.5-4.5-4.5ZM17.50189,15.62509h-1.875v1.875c0,.34473-.28027.625-.625.625s-.625-.28027-.625-.625v-1.875h-1.875c-.34473,0-.625-.28027-.625-.625s.28027-.625.625-.625h1.875v-1.875c0-.34473.28027-.625.625-.625s.625.28027.625.625v1.875h1.875c.34473,0,.625.28027.625.625s-.28027.625-.625.625Z" fill="var(--iconPrimary, #222)"/>
</svg>