<?xml version="1.0" encoding="UTF-8"?>
<svg xmlns="http://www.w3.org/2000/svg" width="20" height="20" viewBox="0 0 20 20">
  <path d="M15.90062,4.57907c-1.11692-.51135-2.29603-.87412-3.50723-1.07904-.16574.29629-.31571.60113-.44927.91324-1.29016-.19441-2.60216-.19441-3.89232,0-.13363-.31208-.2836-.61692-.44927-.91324-1.21197.20665-2.39186.57028-3.5099,1.08172C1.87304,7.86568,1.27134,11.06805,1.57219,14.22496h0c1.29985.96039,2.75475,1.69078,4.30147,2.15943.34827-.46842.65645-.96535.92127-1.48552-.50297-.18786-.98843-.41962-1.45076-.69262.12168-.08825.24068-.17917.35567-.26742,2.72368,1.28088,5.87659,1.28088,8.60027,0,.11633.09493.23533.18586.35567.26742-.46322.27344-.94957.50565-1.45343.69396.26449.51993.57269,1.01645.92127,1.48419,1.54804-.46677,3.00406-1.19681,4.30414-2.15809h0c.353-3.661-.60304-6.83395-2.52713-9.64722ZM7.0711,12.28348c-.83837,0-1.53099-.76081-1.53099-1.69679s.66855-1.70347,1.52831-1.70347,1.54703.7675,1.53232,1.70347-.67524,1.69679-1.52965,1.69679ZM12.92885,12.28348c-.8397,0-1.52965-.76081-1.52965-1.69679s.66855-1.70347,1.52965-1.70347,1.54302.7675,1.52831,1.70347-.6739,1.69679-1.52831,1.69679Z" fill="var(--iconPrimary, #222)"/>
</svg>