<?xml version="1.0" encoding="UTF-8"?>
<svg xmlns="http://www.w3.org/2000/svg" width="14" height="14" viewBox="0 0 14 14">
  <path d="M9.9585,9.32324l-1.42529-3.56348c-.00079-.00195-.00256-.00317-.00336-.00513-.0174-.04199-.0462-.07739-.07446-.11353-.01227-.01538-.01959-.03528-.03345-.04907-.01251-.01245-.03064-.01904-.04456-.03015-.03723-.02966-.07446-.0592-.11816-.07727-.00183-.00073-.00299-.00244-.00482-.00317l-3.56299-1.42578c-.18408-.0752-.39746-.03125-.53906.11035s-.18506.35352-.11084.53906l1.42529,3.56348c.00061.00159.00238.0022.00305.00378.03314.08069.09186.14636.16315.20081.01843.01416.03534.0249.05542.03638s.0351.02856.05719.03735l3.56299,1.42578c.06006.02441.12305.03613.18555.03613.12988,0,.25781-.05078.35352-.14648.1416-.1416.18506-.35352.11084-.53906ZM6.3161,7.69897l-.00024-.00073,1.36829-1.36816.91254,2.28125-2.28058-.91235Z" fill="var(--iconPrimary, #222)"/>
  <path d="M7,13.1748c-3.40479,0-6.1748-2.76953-6.1748-6.1748S3.59521.8252,7,.8252s6.1748,2.76953,6.1748,6.1748-2.77002,6.1748-6.1748,6.1748ZM7,2.0752c-2.71533,0-4.9248,2.20898-4.9248,4.9248s2.20947,4.9248,4.9248,4.9248,4.9248-2.20898,4.9248-4.9248-2.20947-4.9248-4.9248-4.9248Z" fill="var(--iconPrimary, #222)"/>
</svg>