<?xml version="1.0" encoding="UTF-8"?>
<svg   xmlns="http://www.w3.org/2000/svg" width="20" height="20" viewBox="0 0 20 20">
  <path d="M4.75,19c-.41406,0-.75-.33594-.75-.75,0-2.79785,0-6.63086,5.70215-8.94531,4.80273-1.94922,4.80273-4.92676,4.80273-7.55469,0-.41406.33594-.75.75-.75s.75.33594.75.75c0,2.63477,0,6.61621-5.73828,8.94531-4.7666,1.93359-4.7666,4.91992-4.7666,7.55469,0,.41406-.33594.75-.75.75Z" fill="var(--iconPrimary, #222)"/>
  <path d="M12.25,2.5h-6.74542c-.00446-.25049-.00458-.50073-.00458-.75,0-.41406-.33594-.75-.75-.75s-.75.33594-.75.75c0,2.07422,0,4.91504,3.05225,7.13965.1333.09668.28809.14355.44141.14355.23145,0,.45996-.10645.60645-.30859.24414-.33398.17041-.80371-.16406-1.04785-.3028-.2207-.56763-.44653-.7998-.67676h3.11377c.41406,0,.75-.33594.75-.75s-.33594-.75-.75-.75h-4c-.05902,0-.11139.02075-.1665.03369-.23883-.50171-.37952-1.01514-.46265-1.53369h6.62915c.41406,0,.75-.33594.75-.75s-.33594-.75-.75-.75Z" fill="var(--iconPrimary, #222)"/>
  <path d="M12.94775,11.11035c-.33496-.24316-.80469-.17188-1.04785.16504-.24414.33398-.17041.80371.16406,1.04785.3028.2207.56763.44653.7998.67676h-3.11377c-.41406,0-.75.33594-.75.75s.33594.75.75.75h4.06738c.03705,0,.06891-.01587.10455-.02112.23523.49768.37476,1.00684.45721,1.52112h-6.62915c-.41406,0-.75.33594-.75.75s.33594.75.75.75h6.74542c.00446.25049.00458.50073.00458.75,0,.41406.33594.75.75.75s.75-.33594.75-.75c0-2.07422,0-4.91504-3.05225-7.13965Z" fill="var(--iconPrimary, #222)"/>
</svg>