<?xml version="1.0" encoding="UTF-8"?>
<svg   xmlns="http://www.w3.org/2000/svg" width="20" height="20" viewBox="0 0 20 20">
  <path d="M10,18.99707c-.17139,0-.34229-.05859-.48193-.1748l-6.5625-5.5c-.2417-.20312-.33057-.53516-.22314-.83105.10791-.29688.38965-.49414.70508-.49414h3.13525l.90234-5.99414h-1.65137c-.31543,0-.59717-.19727-.70508-.49414-.10742-.2959-.01855-.62793.22314-.83105l4.17627-3.5c.2793-.23242.68457-.23242.96387,0l4.17627,3.5c.2417.20312.33057.53516.22314.83105-.10791.29688-.38965.49414-.70508.49414h-1.65137l.90234,5.99414h3.13525c.31543,0,.59717.19727.70508.49414.10742.2959.01855.62793-.22314.83105l-6.5625,5.5c-.13965.11621-.31055.1748-.48193.1748ZM5.5,13.49707l4.5,3.77148,4.5-3.77148h-1.71826c-.37109,0-.68652-.27148-.7417-.63867l-1.12842-7.49414c-.03223-.21582.03076-.43457.17334-.60059s.3501-.26074.56836-.26074h.46045l-2.11377-1.77148-2.11377,1.77148h.46045c.21826,0,.42578.09473.56836.26074s.20557.38477.17334.60059l-1.12842,7.49414c-.05518.36719-.37061.63867-.7417.63867h-1.71826Z" fill="var(--iconPrimary, #222)"/>
</svg>