<?xml version="1.0" encoding="UTF-8"?>
<svg id="f" data-name="ICONS" xmlns="http://www.w3.org/2000/svg" width="20" height="20" viewBox="0 0 20 20">
  <path d="M7,11.50003h-3.5v-.18945c0-4.07227.9248-6.02344,3.19238-6.73633.39502-.125.61475-.5459.49023-.94043-.12354-.39453-.5415-.61719-.94043-.49121-3.75977,1.18262-4.24219,4.98633-4.24219,8.16797v5.18945c0,.82837.67157,1.5,1.5,1.5h3.5c.82843,0,1.5-.67163,1.5-1.5v-3.5c0-.82837-.67157-1.5-1.5-1.5Z" fill="var(--iconPrimary, #222)"/>
  <path d="M16,11.50003h-3.5v-.18945c0-4.07227.9248-6.02344,3.19238-6.73633.39502-.125.61475-.5459.49023-.94043-.12402-.39453-.54248-.61719-.94043-.49121-3.75977,1.18262-4.24219,4.98633-4.24219,8.16797v5.18945c0,.82837.67157,1.5,1.5,1.5h3.5c.82843,0,1.5-.67163,1.5-1.5v-3.5c0-.82837-.67157-1.5-1.5-1.5Z" fill="var(--iconPrimary, #222)"/>
</svg>