<?xml version="1.0" encoding="UTF-8"?>
<svg   xmlns="http://www.w3.org/2000/svg" width="20" height="20" viewBox="0 0 20 20">
  <path d="M15,10.50004c-2.48529,0-4.5,2.01465-4.5,4.5s2.01471,4.5,4.5,4.5,4.5-2.01465,4.5-4.5-2.01471-4.5-4.5-4.5ZM17.20947,16.32524c.24414.24414.24414.64062,0,.88477-.12207.12207-.28174.18262-.44189.18262s-.31982-.06055-.44189-.18262l-1.32568-1.32568-1.32568,1.32568c-.12207.12207-.28174.18262-.44189.18262s-.31982-.06055-.44189-.18262c-.24414-.24414-.24414-.64062,0-.88477l1.3252-1.3252-1.3252-1.3252c-.24414-.24414-.24414-.64062,0-.88477s.63965-.24414.88379,0l1.32568,1.32568,1.32568-1.32568c.24414-.24414.63965-.24414.88379,0s.24414.64062,0,.88477l-1.3252,1.3252,1.3252,1.3252Z" fill="var(--iconPrimary, #222)"/>
  <path id="i"  d="M9.25,11.50004c0-.41421.33579-.75.75-.75s.75.33579.75.75-.33579.75-.75.75-.75-.33579-.75-.75h0Z" fill="var(--iconPrimary, #222)"/>
  <path id="j"  d="M9.25,8.50004c0-.41421.33579-.75.75-.75s.75.33579.75.75-.33579.75-.75.75-.75-.33579-.75-.75h0Z" fill="var(--iconPrimary, #222)"/>
  <path id="k"  d="M9.25,5.50004c0-.41421.33579-.75.75-.75s.75.33579.75.75-.33579.75-.75.75-.75-.33579-.75-.75h0Z" fill="var(--iconPrimary, #222)"/>
  <path id="l"  d="M9.25,2.50004c0-.41421.33579-.75.75-.75s.75.33579.75.75-.33579.75-.75.75-.75-.33579-.75-.75h0Z" fill="var(--iconPrimary, #222)"/>
  <rect x="1.75" y="5.75004" width="5.5" height="8.5" rx="1.5" ry="1.5" fill="var(--iconPrimary, #222)" opacity=".2"/>
  <path d="M5.75,15.00004h-2.5c-1.24072,0-2.25-1.00977-2.25-2.25v-5.5c0-1.24023,1.00928-2.25,2.25-2.25h2.5c1.24072,0,2.25,1.00977,2.25,2.25v5.5c0,1.24023-1.00928,2.25-2.25,2.25ZM3.25,6.50004c-.41357,0-.75.33691-.75.75v5.5c0,.41309.33643.75.75.75h2.5c.41357,0,.75-.33691.75-.75v-5.5c0-.41309-.33643-.75-.75-.75h-2.5Z" fill="var(--iconPrimary, #222)"/>
  <path d="M18.25,9.83793c-.41406,0-.75-.33594-.75-.75v-1.83789c0-.41309-.33643-.75-.75-.75h-2.5c-.41357,0-.75.33691-.75.75v1.39355c0,.41406-.33594.75-.75.75s-.75-.33594-.75-.75v-1.39355c0-1.24023,1.00928-2.25,2.25-2.25h2.5c1.24072,0,2.25,1.00977,2.25,2.25v1.83789c0,.41406-.33594.75-.75.75Z" fill="var(--iconPrimary, #222)"/>
</svg>