<?xml version="1.0" encoding="UTF-8"?>
<svg   xmlns="http://www.w3.org/2000/svg" width="20" height="20" viewBox="0 0 20 20">
  <rect x="7.75" y="1.75004" width="4.5" height="4.5" rx="1.25" ry="1.25" transform="translate(-.76502 3.66143) rotate(-20)" fill="var(--iconPrimary, #222)" opacity=".3"/>
  <path d="M17.89062,5.34477l-1.53174-1.28516c-.40918-.34375-.92871-.50684-1.46045-.46094-.53223.04688-1.01465.29785-1.35742.70703l-.26587.31665c.00342-.2356-.02905-.47485-.11401-.70923l-.68408-1.87891c-.18262-.50195-.5498-.90332-1.03418-1.12891-.48389-.22461-1.02783-.24707-1.5293-.06641l-1.87988.68359c-1.03516.37793-1.57129,1.52734-1.19482,2.56445l.14111.3877c-.20215-.12012-.42542-.21167-.67041-.25488l-1.96924-.34766c-.52637-.0957-1.05713.02441-1.49463.33105-.43799.30664-.72998.76465-.82275,1.29102l-.34717,1.96973c-.19141,1.08496.53613,2.125,1.62207,2.31641l.40454.07129c-.20703.1167-.39624.2666-.55347.4541l-1.28613,1.53223c-.7085.84375-.59814,2.1084.24658,2.81738l1.53174,1.28516c.36328.30566.81299.46875,1.28223.46875.05908,0,.11865-.00293.17822-.00781.53223-.04688,1.01465-.29785,1.35742-.70703l.26587-.31665c-.00342.2356.02905.47485.11401.70923l.68408,1.87891c.18262.50195.5498.90332,1.03418,1.12891.26904.125.55566.1875.84375.1875.23096,0,.4624-.04004.68604-.12109.38916-.14258.58984-.57227.44775-.96191-.1416-.38965-.5708-.58789-.96143-.44824-.125.04688-.26172.04102-.38232-.0166-.12109-.05566-.21289-.15625-.25879-.28223l-.68359-1.87793c-.09424-.25977.03955-.54785.29004-.63867l.29541-.10352c.39111-.13672.59668-.56543.45996-.95605-.13721-.39062-.56592-.5957-.95605-.45996l-.22656.07935c.24377-.75269.02881-1.61157-.61279-2.15063l-1.4856-1.24609c.2644-.0542.52124-.14209.74927-.30176.4375-.30566.72949-.76465.82275-1.29102l.33228-1.88477c.17712.19653.3927.3584.63989.47363.26904.125.55566.1875.84375.1875.23096,0,.4624-.04004.68555-.12109l1.80176-.65527c-.24304.75195-.02783,1.6106.61377,2.14941l.896.75195c.31641.2666.79053.22559,1.05664-.0918s.22461-.79102-.09277-1.05664l-.89551-.75195c-.21143-.17773-.23926-.49414-.0625-.70508l1.28613-1.53223c.08594-.10156.20654-.16504.33936-.17676.13672-.00879.2627.0293.36523.11523l1.53174,1.28516c.21143.17773.23877.49414.06201.70508l-.98047,1.16797c-.2666.31738-.2251.79102.0918,1.05664.14062.11816.31201.17578.48193.17578.21387,0,.42676-.09082.57471-.26758l.98096-1.16895c.7085-.84375.59814-2.1084-.24658-2.81738ZM6.59619,13.19828l-1.28613,1.53223c-.08594.10156-.20654.16504-.33936.17676-.13623.00781-.2627-.0293-.36523-.11523l-1.53174-1.28516c-.21143-.17773-.23877-.49414-.06201-.70508l1.28613-1.53223c.08594-.10156.20654-.16504.33936-.17676.01465-.00098.02979-.00195.04443-.00195.1167,0,.229.04102.32031.11719l1.53223,1.28516c.21094.17773.23828.49414.06201.70508ZM6.10742,8.24516c-.04736.27148-.30713.45215-.5791.40625l-1.96973-.34766c-.27148-.04785-.45312-.30859-.40527-.58008l.34717-1.96973c.02295-.13086.0957-.24609.20508-.32227.08496-.05957.18408-.09082.28564-.09082.0293,0,.05908.00293.08838.00781l1.96924.34766c.27148.04785.45361.30859.40576.58008l-.34717,1.96875ZM11.45264,5.06743l-1.87939.68359c-.125.04688-.26172.04199-.38232-.0166-.12109-.05566-.21289-.15625-.25879-.28223l-.68359-1.87793c-.09424-.25977.03955-.54785.29834-.6416l1.87988-.68359c.05566-.02051.11377-.03125.17139-.03125.07227,0,.14404.01562.21094.04785.12109.05566.21289.15625.25879.28223l.68359,1.87793c.09424.25977-.03955.54785-.29883.6416Z" fill="var(--iconPrimary, #222)"/>
  <path d="M15,10.50004c-2.48535,0-4.5,2.01465-4.5,4.5s2.01465,4.5,4.5,4.5,4.5-2.01465,4.5-4.5-2.01465-4.5-4.5-4.5ZM17.20947,16.32524c.24414.24414.24414.64062,0,.88477-.12207.12207-.28174.18262-.44189.18262s-.31982-.06055-.44189-.18262l-1.32568-1.32568-1.32568,1.32568c-.12207.12207-.28174.18262-.44189.18262s-.31982-.06055-.44189-.18262c-.24414-.24414-.24414-.64062,0-.88477l1.3252-1.3252-1.3252-1.3252c-.24414-.24414-.24414-.64062,0-.88477s.63965-.24414.88379,0l1.32568,1.32568,1.32568-1.32568c.24414-.24414.63965-.24414.88379,0s.24414.64062,0,.88477l-1.3252,1.3252,1.3252,1.3252Z" fill="var(--iconPrimary, #222)"/>
</svg>