<?xml version="1.0" encoding="UTF-8"?>
<svg   xmlns="http://www.w3.org/2000/svg" width="20" height="20" viewBox="0 0 20 20">
  <rect x="5" y="2" width="4.5" height="4.5" rx="1.25" ry="1.25" transform="translate(7.19439 12.65368) rotate(-120)" fill="var(--iconPrimary, #222)" opacity=".3"/>
  <path d="M16.04785,3.36621c-.13818-.51562-.46924-.94727-.93164-1.21387l-1.73193-1c-.4624-.2666-1.00098-.33887-1.51807-.2002-.51611.1377-.94727.46875-1.21436.93164l-.65186,1.12939-.65186-1.12939c-.26709-.46289-.69824-.79395-1.21436-.93164-.51562-.1377-1.05518-.06641-1.51758.2002l-1.73193,1c-.46289.2666-.79395.69824-.93213,1.21387-.13867.5166-.06738,1.05469.19971,1.51758l1,1.73242c.26709.46289.69824.79395,1.21436.93164.17236.0459.34717.06934.521.06934.34668,0,.68848-.0918.99658-.26953l1.73193-1c.14294-.08252.26813-.18506.38416-.29639.11597.11133.24109.21387.38391.29639l1.73193,1c.30811.17773.65039.26953.99756.26953.17334,0,.34814-.02344.52051-.06934.51611-.1377.94727-.46875,1.21436-.93164l1-1.73242c.26709-.46289.33838-1.00098.19971-1.51758ZM9.09912,4.74512c-.03467.12891-.11719.2373-.23291.30371l-1.73291,1c-.11621.06738-.25.08496-.37891.0498-.12891-.03418-.23682-.11719-.30371-.23242l-1-1.73242c-.06689-.11523-.08447-.25-.0498-.37891s.11719-.2373.23291-.30371l1.73291-1c.07715-.04492.16211-.06738.24902-.06738.04346,0,.08691.00586.12988.01758.12891.03418.23682.11719.30371.23242l1,1.73242c.06689.11523.08447.25.0498.37891ZM14.54932,4.13379l-1,1.73242c-.06689.11523-.1748.19824-.30371.23242-.12744.03516-.26318.01758-.37939-.0498l-1.73291-1c-.11523-.06641-.19775-.1748-.23242-.30371s-.01709-.26367.0498-.37891l1-1.73242c.06689-.11523.1748-.19824.30371-.23242.04297-.01172.08643-.01758.12988-.01758.08643,0,.17236.02246.24951.06738l1.73291,1c.11523.06641.19775.1748.23242.30371s.01709.26367-.0498.37891Z" fill="var(--iconPrimary, #222)"/>
  <path d="M8.54492,13.5332l-1.73242-1c-.14429-.0835-.29547-.14062-.44879-.18457.03851-.15479.065-.31396.065-.48047v-2c0-1.10254-.89697-2-2-2h-2c-1.10303,0-2,.89746-2,2v2c0,1.10254.89697,2,2,2h1.30432l-.65198,1.12891h-.00049c-.2666.46289-.33789,1.00195-.19971,1.51855.13818.51562.46973.94727.93213,1.21387l1.73242,1c.30811.17773.6499.26855.99609.26855.17383,0,.34863-.02246.521-.06836.51611-.13867.94775-.46973,1.21436-.93262l1-1.73145c.55127-.9541.22314-2.17969-.73193-2.73242ZM1.92871,11.86816v-2c0-.27539.22412-.5.5-.5h2c.27588,0,.5.22461.5.5v2c0,.27539-.22412.5-.5.5h-2c-.27588,0-.5-.22461-.5-.5ZM7.97803,15.51562l-1.00049,1.73145c-.06641.11621-.17432.19922-.30322.2334-.12744.03613-.2627.0166-.37939-.0498l-1.73242-1c-.11523-.06738-.19824-.1748-.23242-.30371-.03467-.12891-.01709-.26367.05029-.37988l.99951-1.73145c.13818-.23828.44385-.32129.68311-.18359l1.73145,1c.23926.1377.32129.44434.18359.68359Z" fill="var(--iconPrimary, #222)"/>
  <path d="M17.57129,7.86816h-2c-1.10303,0-2,.89746-2,2v2c0,.16699.02661.32666.06531.48145-.15363.04395-.30511.10059-.44958.18359l-1.73242,1c-.95459.55273-1.28271,1.77832-.73145,2.73242l.99951,1.73145c.26709.46289.69873.79395,1.21484.93262.17236.0459.34717.06836.521.06836.34619,0,.68848-.09082.99658-.26855l1.73145-1c.46289-.2666.79443-.69824.93262-1.21387.13818-.5166.06689-1.05566-.2002-1.51855l-.65198-1.12891h1.30432c1.10303,0,2-.89746,2-2v-2c0-1.10254-.89697-2-2-2ZM15.66992,16.12695c-.03418.12891-.11719.23633-.23291.30371l-1.73145,1c-.1167.06543-.25146.08301-.37988.0498-.12891-.03418-.23682-.11719-.30371-.2334l-1-1.73145c-.1377-.23926-.05566-.5459.18311-.68359l1.73145-1c.07861-.04492.16455-.06641.24902-.06641.17334,0,.3418.08984.43457.25l.99951,1.73145c.06738.11621.08496.25098.05029.37988ZM18.07129,11.86816c0,.27539-.22412.5-.5.5h-2c-.27588,0-.5-.22461-.5-.5v-2c0-.27539.22412-.5.5-.5h2c.27588,0,.5.22461.5.5v2Z" fill="var(--iconPrimary, #222)"/>
</svg>