<?xml version="1.0" encoding="UTF-8"?>
<svg xmlns="http://www.w3.org/2000/svg" width="20" height="20" viewBox="0 0 20 20">
  <path d="M10.74999,2.5c0,.41421-.33579.75-.75.75s-.75-.33579-.75-.75.33579-.75.75-.75.75.33579.75.75Z" fill="var(--iconPrimary, #222)"/>
  <path d="M10.74999,5.5c0,.41421-.33579.75-.75.75s-.75-.33579-.75-.75.33579-.75.75-.75.75.33579.75.75Z" fill="var(--iconPrimary, #222)"/>
  <path d="M10.74999,8.5c0,.41421-.33579.75-.75.75s-.75-.33579-.75-.75.33579-.75.75-.75.75.33579.75.75Z" fill="var(--iconPrimary, #222)"/>
  <path d="M10.74999,11.5c0,.41421-.33579.75-.75.75s-.75-.33579-.75-.75.33579-.75.75-.75.75.33579.75.75Z" fill="var(--iconPrimary, #222)"/>
  <path d="M10.74999,14.5c0,.41421-.33579.75-.75.75s-.75-.33579-.75-.75.33579-.75.75-.75.75.33579.75.75Z" fill="var(--iconPrimary, #222)"/>
  <path d="M10.74999,17.5c0,.41421-.33579.75-.75.75s-.75-.33579-.75-.75.33579-.75.75-.75.75.33579.75.75Z" fill="var(--iconPrimary, #222)"/>
  <rect x="1.75" y="5.75" width="5.5" height="8.5" rx="1.5" ry="1.5" fill="var(--iconPrimary, #222)" opacity=".2" stroke="#000" stroke-miterlimit="10" stroke-width="1.5"/>
  <path d="M16.75,15h-2.5c-1.24023,0-2.25-1.00977-2.25-2.25v-5.5c0-1.24023,1.00977-2.25,2.25-2.25h2.5c1.24023,0,2.25,1.00977,2.25,2.25v5.5c0,1.24023-1.00977,2.25-2.25,2.25ZM14.25,6.5c-.41309,0-.75.33691-.75.75v5.5c0,.41309.33691.75.75.75h2.5c.41309,0,.75-.33691.75-.75v-5.5c0-.41309-.33691-.75-.75-.75h-2.5Z" fill="var(--iconPrimary, #222)"/>
  <path d="M5.75,15h-2.5c-1.24023,0-2.25-1.00977-2.25-2.25v-5.5c0-1.24023,1.00977-2.25,2.25-2.25h2.5c1.24023,0,2.25,1.00977,2.25,2.25v5.5c0,1.24023-1.00977,2.25-2.25,2.25ZM3.25,6.5c-.41309,0-.75.33691-.75.75v5.5c0,.41309.33691.75.75.75h2.5c.41309,0,.75-.33691.75-.75v-5.5c0-.41309-.33691-.75-.75-.75h-2.5Z" fill="var(--iconPrimary, #222)"/>
</svg>