<?xml version="1.0" encoding="UTF-8"?>
<svg xmlns="http://www.w3.org/2000/svg" width="20" height="20" viewBox="0 0 20 20">
  <path d="M15.83362,5.22702c-.29289.29289-.76777.29289-1.06066,0s-.29289-.76777,0-1.06066.76777-.29289,1.06066,0,.29289.76777,0,1.06066Z" fill="var(--iconPrimary, #222)"/>
  <path d="M13.7123,7.34834c-.29289.29289-.76777.29289-1.06066,0s-.29289-.76777,0-1.06066.76777-.29289,1.06066,0,.29289.76777,0,1.06066Z" fill="var(--iconPrimary, #222)"/>
  <path d="M11.59098,9.46966c-.29289.29289-.76777.29289-1.06066,0s-.29289-.76777,0-1.06066.76777-.29289,1.06066,0,.29289.76777,0,1.06066Z" fill="var(--iconPrimary, #222)"/>
  <path d="M9.46966,11.59098c-.29289.29289-.76777.29289-1.06066,0s-.29289-.76777,0-1.06066.76777-.29289,1.06066,0,.29289.76777,0,1.06066Z" fill="var(--iconPrimary, #222)"/>
  <path d="M7.34834,13.7123c-.29289.29289-.76777.29289-1.06066,0s-.29289-.76777,0-1.06066.76777-.29289,1.06066,0,.29289.76777,0,1.06066Z" fill="var(--iconPrimary, #222)"/>
  <path d="M5.22702,15.83362c-.29289.29289-.76777.29289-1.06066,0s-.29289-.76777,0-1.06066.76777-.29289,1.06066,0,.29289.76777,0,1.06066" fill="var(--iconPrimary, #222)"/>
  <path d="M12.82812,18.96777c-.60059,0-1.16602-.23438-1.59082-.65918l-1.76758-1.76758c-.87793-.87695-.87793-2.30566,0-3.18262l3.88867-3.88867c.87695-.87793,2.30566-.87598,3.18262,0l1.76758,1.76758c.4248.4248.65918.99023.65918,1.59082,0,.60156-.23438,1.16699-.65918,1.5918l-3.88965,3.88867c-.42383.4248-.98926.65918-1.59082.65918ZM14.94922,10.31055c-.19141,0-.38379.07324-.53027.21973l-3.88867,3.88867c-.29297.29297-.29297.76855,0,1.06152l1.76758,1.76758c.2832.2832.77832.2832,1.05957,0l3.89062-3.88965c.1416-.1416.21973-.33008.21973-.53027s-.07812-.38867-.21973-.53027l-1.76758-1.76758c-.14648-.14648-.33887-.21973-.53125-.21973Z" fill="var(--iconPrimary, #222)"/>
  <path d="M5.05078,11.18848c-.57715,0-1.15332-.21973-1.5918-.6582l-1.76758-1.76758c-.4248-.4248-.65918-.99023-.65918-1.59082,0-.60156.23438-1.16699.65918-1.5918l3.88965-3.88867c.84668-.84961,2.33105-.84961,3.18164,0l1.76758,1.76758c.87793.87695.87793,2.30566,0,3.18262l-3.88867,3.88867c-.43848.43848-1.01465.6582-1.59082.6582ZM7.17188,2.53223c-.2002,0-.38867.07812-.5293.21973l-3.89062,3.88965c-.1416.1416-.21973.33008-.21973.53027s.07812.38867.21973.53027l1.76758,1.76758c.29199.29199.76758.29395,1.06152,0l3.88867-3.88867c.29297-.29297.29297-.76855,0-1.06152l-1.76758-1.76758c-.1416-.1416-.33008-.21973-.53027-.21973Z" fill="var(--iconPrimary, #222)"/>
  <rect x="3.36091" y="1.86091" width="5.5" height="8.5" rx="1.5" ry="1.5" transform="translate(6.11091 -2.53122) rotate(45)" fill="var(--iconPrimary, #222)" opacity=".2"/>
</svg>