<?xml version="1.0" encoding="UTF-8"?>
<svg   xmlns="http://www.w3.org/2000/svg" width="20" height="20" viewBox="0 0 20 20">
  <rect x="7.75" y="1.75004" width="4.5" height="4.5" rx="1.25" ry="1.25" transform="translate(-.76502 3.66143) rotate(-20)" fill="var(--iconPrimary, #222)" opacity=".3"/>
  <path d="M16.70215,10.21977l-.40454-.07129c.20709-.1167.3963-.2666.55347-.4541l1.28613-1.53223c.7085-.84375.59814-2.1084-.24658-2.81738l-1.53174-1.28516c-.40869-.34375-.92725-.50684-1.46045-.46094-.53223.04688-1.01465.29785-1.35742.70703l-.26581.31665c.0033-.2356-.02905-.47485-.11407-.70923l-.68408-1.87891c-.18262-.50195-.5498-.90332-1.03418-1.12891-.48486-.22461-1.02734-.24707-1.5293-.06641l-1.87988.68359c-1.03516.37793-1.57129,1.52734-1.19482,2.56445l.14117.3877c-.20215-.12012-.42548-.21167-.67047-.25488l-1.96924-.34766c-.52734-.0957-1.05713.02441-1.49463.33105-.43799.30664-.72998.76465-.82275,1.29102l-.34717,1.96973c-.19141,1.08496.53613,2.125,1.62207,2.31641l.40454.07129c-.20709.1167-.3963.2666-.55347.4541l-1.28613,1.53223c-.7085.84375-.59814,2.1084.24658,2.81738l1.53174,1.28516c.36328.30566.81299.46875,1.28223.46875.05908,0,.11865-.00293.17822-.00781.53223-.04688,1.01465-.29785,1.35742-.70703l.26581-.31665c-.0033.2356.02905.47485.11407.70923l.68408,1.87891c.18262.50195.5498.90332,1.03418,1.12891.26904.125.55566.1875.84375.1875.23096,0,.4624-.04004.68555-.12109l1.87988-.68359c1.03516-.37793,1.57129-1.52734,1.19482-2.56445l-.14117-.3877c.20215.12012.42548.21167.67047.25488l1.96924.34766c.11768.02148.23535.03125.35205.03125.40674,0,.80273-.12402,1.14258-.3623.43799-.30664.72998-.76465.82275-1.29102l.34717-1.96973c.19141-1.08496-.53613-2.125-1.62207-2.31641ZM13.40381,6.8018l1.28613-1.53223c.08594-.10156.20654-.16504.33936-.17676.13525-.00879.2627.0293.36523.11523l1.53174,1.28516c.21143.17773.23877.49414.06201.70508l-1.28613,1.53223c-.08594.10156-.20654.16504-.33936.17676-.13232.00977-.26221-.0293-.36475-.11523l-1.53223-1.28516c-.21094-.17773-.23828-.49414-.06201-.70508ZM8.54688,2.93266l1.87988-.68359c.05566-.02051.11377-.03125.17139-.03125.07227,0,.14404.01562.21094.04785.12109.05566.21289.15625.25879.28223l.68359,1.87793c.09424.25977-.03955.54785-.29883.6416l-1.87939.68359c-.12451.04688-.26172.04199-.38232-.0166-.12109-.05566-.21289-.15625-.25879-.28223l-.68359-1.87793c-.09424-.25977.03955-.54785.29834-.6416ZM3.15332,7.72368l.34717-1.96973c.02295-.13086.0957-.24609.20508-.32227.08496-.05957.18408-.09082.28564-.09082.0293,0,.05908.00293.08838.00781l1.96924.34766c.27148.04785.45361.30859.40576.58008l-.34717,1.96875c-.04736.27148-.30469.45215-.5791.40625l-1.96973-.34766c-.27148-.04785-.45312-.30859-.40527-.58008ZM6.59619,13.19828l-1.28613,1.53223c-.08594.10156-.20654.16504-.33936.17676-.1377.00781-.26221-.0293-.36523-.11523l-1.53174-1.28516c-.21143-.17773-.23877-.49414-.06201-.70508l1.28613-1.53223c.08594-.10156.20654-.16504.33936-.17676.01465-.00098.02979-.00195.04443-.00195.1167,0,.229.04102.32031.11719l1.53223,1.28516c.21094.17773.23828.49414.06201.70508ZM11.45312,17.06743l-1.87988.68359c-.12451.04688-.26172.04102-.38232-.0166-.12109-.05566-.21289-.15625-.25879-.28223l-.68359-1.87793c-.09424-.25977.03955-.54785.29883-.6416l1.87939-.68359c.12598-.0459.26221-.04102.38232.0166.12109.05566.21289.15625.25879.28223l.68359,1.87793c.09424.25977-.03955.54785-.29834.6416ZM12.41504,11.49418l-.33221,1.88477c-.17719-.19653-.39276-.3584-.63995-.47363-.48486-.22461-1.02734-.24805-1.5293-.06641l-1.80176.65527c.24316-.75195.02795-1.6106-.61328-2.14941l-1.48566-1.24609c.2644-.0542.52124-.14209.74933-.30176.4375-.30566.72949-.76465.82275-1.29102l.33221-1.88477c.17719.19653.39276.3584.63995.47363.26904.125.55566.1875.84375.1875.23096,0,.4624-.04004.68555-.12109l1.80182-.65527c-.24316.75195-.02802,1.6106.61322,2.14941l1.46527,1.229c-.25824.05566-.50574.1626-.72894.31885-.4375.30566-.72949.76465-.82275,1.29102ZM16.49951,14.24614c-.02295.13086-.0957.24609-.20508.32227-.10986.07617-.24414.10449-.37402.08301l-1.96924-.34766c-.27148-.04785-.45361-.30859-.40576-.58008l.34717-1.96875c.04785-.27148.31006-.4502.5791-.40625l1.96973.34766c.27148.04785.45312.30859.40527.58008l-.34717,1.96973Z" fill="var(--iconPrimary, #222)"/>
</svg>