<?xml version="1.0" encoding="UTF-8"?>
<svg   xmlns="http://www.w3.org/2000/svg" width="20" height="20" viewBox="0 0 20 20">
  <path d="M15.75,18.02153H7.25c-1.24072,0-2.25-1.00977-2.25-2.25V7.27153c0-1.24023,1.00928-2.25,2.25-2.25h8.5c1.24072,0,2.25,1.00977,2.25,2.25v8.5c0,1.24023-1.00928,2.25-2.25,2.25ZM7.25,6.52153c-.41357,0-.75.33691-.75.75v8.5c0,.41309.33643.75.75.75h8.5c.41357,0,.75-.33691.75-.75V7.27153c0-.41309-.33643-.75-.75-.75H7.25Z" fill="var(--iconPrimary, #222)"/>
  <path d="M2.75,13.77153c-.41406,0-.75-.33594-.75-.75V4.27153c0-1.24023,1.00928-2.25,2.25-2.25h8.75c.41406,0,.75.33594.75.75s-.33594.75-.75.75H4.25c-.41357,0-.75.33691-.75.75v8.75c0,.41406-.33594.75-.75.75Z" fill="var(--iconPrimary, #222)"/>
  <path d="M10.79297,12.83207c-.16016,0-.31982-.06055-.44189-.18262-.24414-.24414-.24414-.64062,0-.88477l1.41406-1.41406c.24414-.24414.63965-.24414.88379,0s.24414.64062,0,.88477l-1.41406,1.41406c-.12207.12207-.28174.18262-.44189.18262Z" fill="var(--iconPrimary, #222)"/>
  <path d="M10.61621,15.25883c-.76807,0-1.49023-.29883-2.0332-.8418s-.8418-1.26465-.8418-2.0332c0-.76758.29883-1.48926.8418-2.03223.24365-.24414.63916-.24512.88379-.00098.24414.24414.24414.63965,0,.88379-.30664.30762-.47559.71582-.47559,1.14941,0,.43457.16895.8418.47559,1.14844.61426.61523,1.68408.61426,2.29834.00098.24365-.24414.63916-.24512.88379-.00098.24414.24414.24414.63965,0,.88379-.54297.54395-1.26465.84277-2.03271.84277Z" fill="var(--iconPrimary, #222)"/>
  <path d="M13.9751,12.83207c-.15967,0-.31982-.06055-.44189-.18262-.24414-.24414-.24414-.63965,0-.88379.30664-.30762.47559-.71582.47559-1.14941,0-.43457-.16895-.8418-.47559-1.14844-.61426-.61523-1.68408-.61426-2.29834-.00098-.24365.24414-.63916.24512-.88379.00098-.24414-.24414-.24414-.63965,0-.88379,1.08594-1.08789,2.97998-1.08691,4.06592-.00098.54297.54297.8418,1.26465.8418,2.0332,0,.76758-.29883,1.48926-.8418,2.03223-.12207.12207-.28174.18359-.44189.18359Z" fill="var(--iconPrimary, #222)"/>
</svg>