<?xml version="1.0" encoding="UTF-8"?>
<svg   xmlns="http://www.w3.org/2000/svg" width="20" height="20" viewBox="0 0 20 20">
  <rect x="8.5" y="1.75" width="3.5" height="3.5" rx="1.5" ry="1.5" fill="var(--iconPrimary, #222)" opacity=".2" stroke="#000" stroke-miterlimit="10" stroke-width="1.5"/>
  <path d="m10.5,6h-.5c-1.24023,0-2.25-1.00977-2.25-2.25v-.5c0-1.24023,1.00977-2.25,2.25-2.25h.5c1.24023,0,2.25,1.00977,2.25,2.25v.5c0,1.24023-1.00977,2.25-2.25,2.25Zm-.5-3.5c-.41309,0-.75.33691-.75.75v.5c0,.41309.33691.75.75.75h.5c.41309,0,.75-.33691.75-.75v-.5c0-.41309-.33691-.75-.75-.75h-.5Z" fill="var(--iconPrimary, #222)" stroke-width="0"/>
  <path d="m10.5,6h-.5c-1.24023,0-2.25-1.00977-2.25-2.25v-.5c0-1.24023,1.00977-2.25,2.25-2.25h.5c1.24023,0,2.25,1.00977,2.25,2.25v.5c0,1.24023-1.00977,2.25-2.25,2.25Zm-.5-3.5c-.41309,0-.75.33691-.75.75v.5c0,.41309.33691.75.75.75h.5c.41309,0,.75-.33691.75-.75v-.5c0-.41309-.33691-.75-.75-.75h-.5Z" fill="var(--iconPrimary, #222)" stroke-width="0"/>
  <path d="m15.66797,9.55762c-.7793,0-1.53711-.40332-1.9541-1.125l-.25-.43262c-.62012-1.0752-.25-2.45312.82422-3.07324l.43262-.25c.52051-.30078,1.12695-.38086,1.70703-.22559.58105.15625,1.06641.52832,1.36621,1.04883l.25.43262c.62012,1.07422.25098,2.45312-.82324,3.07422l-.43262.25c-.35254.2041-.73926.30078-1.12012.30078Zm-.65527-1.875c.20801.3584.66797.48047,1.02539.27539l.43262-.25c.35742-.20703.48145-.66699.27441-1.02539l-.25-.43262c-.20605-.35742-.66504-.47852-1.02441-.27441l-.43262.25c-.17383.10059-.29785.26172-.34961.45508-.05273.19336-.02539.39551.07422.56934l.25.43262Z" fill="var(--iconPrimary, #222)" stroke-width="0"/>
  <path d="m15.66797,9.55762c-.7793,0-1.53711-.40332-1.9541-1.125l-.25-.43262c-.62012-1.0752-.25-2.45312.82422-3.07324l.43262-.25c.52051-.30078,1.12695-.38086,1.70703-.22559.58105.15625,1.06641.52832,1.36621,1.04883l.25.43262c.62012,1.07422.25098,2.45312-.82324,3.07422l-.43262.25c-.35254.2041-.73926.30078-1.12012.30078Zm-.65527-1.875c.20801.3584.66797.48047,1.02539.27539l.43262-.25c.35742-.20703.48145-.66699.27441-1.02539l-.25-.43262c-.20605-.35742-.66504-.47852-1.02441-.27441l-.43262.25c-.17383.10059-.29785.26172-.34961.45508-.05273.19336-.02539.39551.07422.56934l.25.43262Z" fill="var(--iconPrimary, #222)" stroke-width="0"/>
  <path d="m15.5918,16.05762c-.38184,0-.76758-.09668-1.12109-.30078l-.43262-.25c-1.07422-.62109-1.44434-2-.82422-3.07422l.25-.43262c.62207-1.07422,2-1.44336,3.07422-.82324l.43262.25c.52051.2998.89258.78516,1.04883,1.36621.15527.58008.0752,1.18652-.22559,1.70703l-.25.43262c-.41602.72168-1.17383,1.125-1.95215,1.125Zm-1.0791-2.875c-.20605.3584-.08301.81836.27539,1.02539l.43262.25c.17285.09961.37402.12695.56934.07422.19336-.05176.35449-.17578.45508-.34961l.25-.43262c.20605-.3584.08398-.81738-.27441-1.02441l-.43262-.25c-.35938-.20801-.81934-.08398-1.02539.27441l-.25.43262Z" fill="var(--iconPrimary, #222)" stroke-width="0"/>
  <path d="m15.5918,16.05762c-.38184,0-.76758-.09668-1.12109-.30078l-.43262-.25c-1.07422-.62109-1.44434-2-.82422-3.07422l.25-.43262c.62207-1.07422,2-1.44336,3.07422-.82324l.43262.25c.52051.2998.89258.78516,1.04883,1.36621.15527.58008.0752,1.18652-.22559,1.70703l-.25.43262c-.41602.72168-1.17383,1.125-1.95215,1.125Zm-1.0791-2.875c-.20605.3584-.08301.81836.27539,1.02539l.43262.25c.17285.09961.37402.12695.56934.07422.19336-.05176.35449-.17578.45508-.34961l.25-.43262c.20605-.3584.08398-.81738-.27441-1.02441l-.43262-.25c-.35938-.20801-.81934-.08398-1.02539.27441l-.25.43262Z" fill="var(--iconPrimary, #222)" stroke-width="0"/>
  <path d="m10,19h-.5c-1.24023,0-2.25-1.00977-2.25-2.25v-.5c0-1.24023,1.00977-2.25,2.25-2.25h.5c1.24023,0,2.25,1.00977,2.25,2.25v.5c0,1.24023-1.00977,2.25-2.25,2.25Zm-.5-3.5c-.41309,0-.75.33691-.75.75v.5c0,.41309.33691.75.75.75h.5c.41309,0,.75-.33691.75-.75v-.5c0-.41309-.33691-.75-.75-.75h-.5Z" fill="var(--iconPrimary, #222)" stroke-width="0"/>
  <path d="m10,19h-.5c-1.24023,0-2.25-1.00977-2.25-2.25v-.5c0-1.24023,1.00977-2.25,2.25-2.25h.5c1.24023,0,2.25,1.00977,2.25,2.25v.5c0,1.24023-1.00977,2.25-2.25,2.25Zm-.5-3.5c-.41309,0-.75.33691-.75.75v.5c0,.41309.33691.75.75.75h.5c.41309,0,.75-.33691.75-.75v-.5c0-.41309-.33691-.75-.75-.75h-.5Z" fill="var(--iconPrimary, #222)" stroke-width="0"/>
  <path d="m4.15723,15.62598c-.19531,0-.3916-.02539-.58496-.07715-.58105-.15625-1.06641-.52832-1.36621-1.04883l-.25-.43262c-.62012-1.07422-.25098-2.45312.82324-3.07422l.43262-.25c1.07422-.62207,2.4541-.25,3.07422.82422l.25.43262c.62012,1.0752.25,2.45312-.82422,3.07324l-.43262.25c-.34668.2002-.73242.30273-1.12207.30273Zm.17773-3.68359c-.12695,0-.25586.03223-.37305.09961l-.43262.25c-.35742.20703-.48145.66699-.27441,1.02539l.25.43262c.20703.3584.66602.48047,1.02441.27441l.43262-.25c.17383-.10059.29785-.26172.34961-.45508.05273-.19336.02539-.39551-.07422-.56934l-.25-.43262c-.13965-.24023-.39258-.375-.65234-.375Z" fill="var(--iconPrimary, #222)" stroke-width="0"/>
  <path d="m4.15723,15.62598c-.19531,0-.3916-.02539-.58496-.07715-.58105-.15625-1.06641-.52832-1.36621-1.04883l-.25-.43262c-.62012-1.07422-.25098-2.45312.82324-3.07422l.43262-.25c1.07422-.62207,2.4541-.25,3.07422.82422l.25.43262c.62012,1.0752.25,2.45312-.82422,3.07324l-.43262.25c-.34668.2002-.73242.30273-1.12207.30273Zm.17773-3.68359c-.12695,0-.25586.03223-.37305.09961l-.43262.25c-.35742.20703-.48145.66699-.27441,1.02539l.25.43262c.20703.3584.66602.48047,1.02441.27441l.43262-.25c.17383-.10059.29785-.26172.34961-.45508.05273-.19336.02539-.39551-.07422-.56934l-.25-.43262c-.13965-.24023-.39258-.375-.65234-.375Z" fill="var(--iconPrimary, #222)" stroke-width="0"/>
  <path d="m4.58301,9.12402c-.38184,0-.76758-.09668-1.12109-.30078l-.43262-.25c-.52051-.2998-.89258-.78516-1.04883-1.36621-.15527-.58008-.0752-1.18652.22559-1.70703l.25-.43262c.62012-1.07617,1.99902-1.44531,3.07324-.82422l.43262.25c1.07422.62109,1.44434,2,.82422,3.07422l-.25.43262c-.41699.7207-1.1748,1.12402-1.95312,1.12402Zm-.17676-3.68262c-.06543,0-.13086.00879-.19629.02637-.19336.05176-.35449.17578-.45508.34961l-.25.43262c-.20605.3584-.08398.81738.27441,1.02441l.43262.25c.36035.20801.81836.08301,1.02539-.27441l.25-.43262c.20605-.3584.08301-.81836-.27539-1.02539l-.43262-.25c-.11523-.06641-.24316-.10059-.37305-.10059Z" fill="var(--iconPrimary, #222)" stroke-width="0"/>
  <path d="m4.58301,9.12402c-.38184,0-.76758-.09668-1.12109-.30078l-.43262-.25c-.52051-.2998-.89258-.78516-1.04883-1.36621-.15527-.58008-.0752-1.18652.22559-1.70703l.25-.43262c.62012-1.07617,1.99902-1.44531,3.07324-.82422l.43262.25c1.07422.62109,1.44434,2,.82422,3.07422l-.25.43262c-.41699.7207-1.1748,1.12402-1.95312,1.12402Zm-.17676-3.68262c-.06543,0-.13086.00879-.19629.02637-.19336.05176-.35449.17578-.45508.34961l-.25.43262c-.20605.3584-.08398.81738.27441,1.02441l.43262.25c.36035.20801.81836.08301,1.02539-.27441l.25-.43262c.20605-.3584.08301-.81836-.27539-1.02539l-.43262-.25c-.11523-.06641-.24316-.10059-.37305-.10059Z" fill="var(--iconPrimary, #222)" stroke-width="0"/>
</svg>