<?xml version="1.0" encoding="UTF-8"?>
<svg   xmlns="http://www.w3.org/2000/svg" width="20" height="20" viewBox="0 0 20 20">
  <rect x="1.75" y="4.75" width="3.5" height="3.5" rx="1.5" ry="1.5" opacity=".2" stroke-width="0"/>
  <path d="m16.75,9h-.5c-1.24023,0-2.25-1.00977-2.25-2.25v-.5c0-1.24023,1.00977-2.25,2.25-2.25h.5c1.24023,0,2.25,1.00977,2.25,2.25v.5c0,1.24023-1.00977,2.25-2.25,2.25Zm-.5-3.5c-.41309,0-.75.33691-.75.75v.5c0,.41309.33691.75.75.75h.5c.41309,0,.75-.33691.75-.75v-.5c0-.41309-.33691-.75-.75-.75h-.5Z" fill="var(--iconPrimary, #222)" stroke-width="0"/>
  <path d="m10.25,9h-.5c-1.24023,0-2.25-1.00977-2.25-2.25v-.5c0-1.24023,1.00977-2.25,2.25-2.25h.5c1.24023,0,2.25,1.00977,2.25,2.25v.5c0,1.24023-1.00977,2.25-2.25,2.25Zm-.5-3.5c-.41309,0-.75.33691-.75.75v.5c0,.41309.33691.75.75.75h.5c.41309,0,.75-.33691.75-.75v-.5c0-.41309-.33691-.75-.75-.75h-.5Z" fill="var(--iconPrimary, #222)" stroke-width="0"/>
  <path d="m3.75,9h-.5c-1.24023,0-2.25-1.00977-2.25-2.25v-.5c0-1.24023,1.00977-2.25,2.25-2.25h.5c1.24023,0,2.25,1.00977,2.25,2.25v.5c0,1.24023-1.00977,2.25-2.25,2.25Zm-.5-3.5c-.41309,0-.75.33691-.75.75v.5c0,.41309.33691.75.75.75h.5c.41309,0,.75-.33691.75-.75v-.5c0-.41309-.33691-.75-.75-.75h-.5Z" fill="var(--iconPrimary, #222)" stroke-width="0"/>
  <path d="m16.75,16h-.5c-1.24023,0-2.25-1.00977-2.25-2.25v-.5c0-1.24023,1.00977-2.25,2.25-2.25h.5c1.24023,0,2.25,1.00977,2.25,2.25v.5c0,1.24023-1.00977,2.25-2.25,2.25Zm-.5-3.5c-.41309,0-.75.33691-.75.75v.5c0,.41309.33691.75.75.75h.5c.41309,0,.75-.33691.75-.75v-.5c0-.41309-.33691-.75-.75-.75h-.5Z" fill="var(--iconPrimary, #222)" stroke-width="0"/>
  <path d="m10.25,16h-.5c-1.24023,0-2.25-1.00977-2.25-2.25v-.5c0-1.24023,1.00977-2.25,2.25-2.25h.5c1.24023,0,2.25,1.00977,2.25,2.25v.5c0,1.24023-1.00977,2.25-2.25,2.25Zm-.5-3.5c-.41309,0-.75.33691-.75.75v.5c0,.41309.33691.75.75.75h.5c.41309,0,.75-.33691.75-.75v-.5c0-.41309-.33691-.75-.75-.75h-.5Z" fill="var(--iconPrimary, #222)" stroke-width="0"/>
  <path d="m3.75,16h-.5c-1.24023,0-2.25-1.00977-2.25-2.25v-.5c0-1.24023,1.00977-2.25,2.25-2.25h.5c1.24023,0,2.25,1.00977,2.25,2.25v.5c0,1.24023-1.00977,2.25-2.25,2.25Zm-.5-3.5c-.41309,0-.75.33691-.75.75v.5c0,.41309.33691.75.75.75h.5c.41309,0,.75-.33691.75-.75v-.5c0-.41309-.33691-.75-.75-.75h-.5Z" fill="var(--iconPrimary, #222)" stroke-width="0"/>
</svg>