<?xml version="1.0" encoding="UTF-8"?>
<svg xmlns="http://www.w3.org/2000/svg" width="28.00005" height="28" viewBox="0 0 28.00005 28">
  <g id="circles">
    <circle id="Ellipse_10213" data-name="Ellipse 10213" cx="14.00002" cy="14" r="14.00001" fill="#e434a3"/>
  </g>
  <g id="ICONS">
    <rect id="S2_Icon_AIGenChat_20_N" x="5" y="5" width="18" height="18" fill="none" opacity=".1"/>
    <circle cx="13.77501" cy="15.35" r=".675" fill="#fff"/>
    <circle cx="11.52501" cy="15.35" r=".675" fill="#fff"/>
    <circle cx="9.27501" cy="15.35" r=".675" fill="#fff"/>
    <path d="M14.49438,8.94453l-.94087-1.03799.29619-1.36934c.08218-.38145-.09009-.76992-.42803-.96504-.33706-.19336-.75981-.15117-1.05073.11162l-1.03755.94131-1.36846-.29531c-.38364-.0835-.7708.08789-.96636.42715-.196.33926-.15073.76113.11206,1.05029l.94087,1.03799-.29619,1.36934c-.08218.38232.09009.76992.42847.96504.14019.08174.29487.12129.44868.12129.21665,0,.43154-.0791.60117-.23291l1.03799-.94131,1.36846.29531c.38496.08525.7708-.08789.96636-.42715.196-.33926.15029-.76113-.11206-1.05029ZM12.44258,8.78281c-.352-.07822-.72202.02109-.98921.26367l-.07998.07207.02329-.10635c.07515-.35156-.02373-.71982-.26455-.98525l-.07295-.07998.10283.02197c.35024.07646.72026-.02109.98965-.26367l.07998-.07295-.02285.10547c-.07646.35156.02241.7207.26411.98701l.07295.07998-.10327-.02197Z" fill="#fff"/>
    <path d="M8.68394,11.77461l.18237-.84551c.06196-.28652-.06812-.58008-.32212-.72686-.25312-.14678-.57349-.1125-.79102.08437l-.64072.58096-.84507-.18369c-.28564-.05713-.58096.06855-.72729.32256-.14678.254-.1125.57305.08437.79102l.58096.64072-.18237.84551c-.06196.28652.06812.58008.32212.72686.10503.06064.22148.09053.3375.09053.16348,0,.32607-.05977.45352-.1749l.64072-.58096.84507.18369c.28389.05889.58096-.06855.72729-.32256.14678-.254.1125-.57305-.08438-.79102l-.58096-.64072Z" fill="#fff"/>
    <path d="M20.30396,16.59717c-.11865,0-.23687-.03076-.34277-.09316l-1.13555-.66885c-.3208-.18984-.42803-.60293-.23862-.92461.18896-.3208.60293-.42715.92417-.23906l.11777.06943v-1.08721c0-.34717.26323-.63721.60864-.67148.54492-.05449.95625-.50977.95625-1.05908v-2.25967c0-.58623-.47725-1.06348-1.06348-1.06348h-3.87334c-.37266,0-.675-.30234-.675-.675s.30234-.675.675-.675h3.87334c1.33066,0,2.41348,1.08281,2.41348,2.41348v2.25967c0,1.03271-.64072,1.91865-1.56489,2.2623v1.73672c0,.24258-.12964.46582-.34014.58623-.10371.05889-.21929.08877-.33486.08877Z" fill="#fff"/>
    <path d="M8.59341,22.55c-.08701,0-.1749-.0167-.2584-.05098-.25225-.10459-.4166-.35068-.4166-.62402v-2.38975c-1.18828-.37969-2.025-1.48711-2.025-2.78525v-.58887c0-.37266.30234-.675.675-.675s.675.30234.675.675v.58887c0,.81299.60908,1.48711,1.41636,1.56709.34541.03428.60864.32432.60864.67148v1.30693l1.77275-1.77275c.12656-.12656.29839-.19775.47725-.19775h2.7c.86836,0,1.575-.70664,1.575-1.575v-2.925c0-.51152-.25269-.99404-.67588-1.29023-.30542-.21357-.38013-.63457-.16655-.93955.21357-.30586.63457-.38145.93999-.16611.78442.54844,1.25244,1.44404,1.25244,2.3959v2.925c0,1.61279-1.31221,2.925-2.925,2.925h-2.42051l-2.72725,2.72725c-.1292.1292-.30191.19775-.47725.19775Z" fill="#fff"/>
  </g>
</svg>