<?xml version="1.0" encoding="UTF-8"?>
<svg id="e" data-name="ICONS" xmlns="http://www.w3.org/2000/svg" width="20" height="20" viewBox="0 0 20 20">
  <path d="M16.5,15.50195c-.41406,0-.75-.33594-.75-.75s.33594-.75.75-.75c.53271,0,1-.46777,1-1V4.50195c0-.53223-.46729-1-1-1H3.5c-.53271,0-1,.46777-1,1v8.5c0,.53223.46729,1,1,1,.41406,0,.75.33594.75.75s-.33594.75-.75.75c-1.35498,0-2.5-1.14453-2.5-2.5V4.50195c0-1.35547,1.14502-2.5,2.5-2.5h13c1.35498,0,2.5,1.14453,2.5,2.5v8.5c0,1.35547-1.14502,2.5-2.5,2.5Z" fill="var(--iconPrimary, #222)"/>
  <path d="M10,12.56738c-1.93457,0-3.50879-1.65137-3.50879-3.68066,0-2.03027,1.57422-3.68164,3.50879-3.68164s3.50879,1.65137,3.50879,3.68164c0,2.0293-1.57422,3.68066-3.50879,3.68066ZM10,6.70508c-1.10742,0-2.00879.97852-2.00879,2.18164,0,1.20215.90137,2.18066,2.00879,2.18066s2.00879-.97852,2.00879-2.18066c0-1.20312-.90137-2.18164-2.00879-2.18164Z" fill="var(--iconPrimary, #222)"/>
  <path d="M14.99902,18.98926c-.37793,0-.70312-.28516-.74463-.66895-.16895-1.55859-2.0376-2.7793-4.25439-2.7793-2.19824,0-4.10645,1.24219-4.25342,2.77051-.04004.41211-.40381.71484-.81836.67383-.4126-.03906-.71436-.40527-.6748-.81836.22266-2.31348,2.74707-4.12598,5.74658-4.12598,3.021,0,5.49121,1.77051,5.74561,4.11719.04443.41211-.25293.78223-.66455.82715-.02783.00293-.05518.00391-.08203.00391Z" fill="var(--iconPrimary, #222)"/>
</svg>