<?xml version="1.0" encoding="UTF-8"?>
<svg   xmlns="http://www.w3.org/2000/svg" width="20" height="20" viewBox="0 0 20 20">
  <path d="M18.5186,6.74901c-.43359-.36328-.97656-.53711-1.54883-.48535-.56445.05078-1.07617.31738-1.44824.76367-.05566.06982-3.11377,3.83691-4.36475,5.34033-.24365.0177-.48975.0553-.73584.12354-1.56738.43457-2.12109,1.74316-2.60938,2.89648-.36328.85645-.70508,1.66504-1.41895,2.05176-.28613.1543-.43945.47656-.37988.79688.05957.31934.31836.56445.6416.60645.70703.09082,1.49316.15723,2.28711.15723,1.65918,0,3.35156-.28906,4.41992-1.24219.73633-.65723,1.10156-1.53906,1.08691-2.62305-.00049-.02673-.00928-.05176-.01025-.07837.95996-1.15503,3.0354-3.70667,3.93311-4.80933l.41504-.51074c.36328-.43457.53613-.98438.48535-1.54883s-.31738-1.07617-.75293-1.43848h.00001ZM12.36235,16.63866c-.69922.62207-2.08984.91797-3.92188.85156.31543-.4873.54102-1.01855.75195-1.51758.47168-1.11328.80273-1.80664,1.62891-2.03613.60059-.16602,1.18262-.0791,1.60352.23438.32715.24609.51855.60449.52344.98535.00879.6377-.18262,1.12305-.58594,1.48242ZM17.64165,8.76757c-.00879.01074-.17188.21094-.43457.5332-.75049.92261-2.33057,2.86401-3.38672,4.14893-.14453-.17505-.30762-.33777-.49609-.479-.15137-.11328-.31958-.19678-.48804-.27942,1.44067-1.7489,3.83545-4.70044,3.84546-4.71375.10645-.12695.25586-.20508.42188-.21973.1543-.01758.3252.03613.4541.1416.12695.10645.20508.25586.21973.42188.01465.16504-.03516.32617-.13575.44629Z" fill="var(--iconPrimary, #222)" stroke-width="0"/>
  <circle cx="7.20498" cy="4.10381" r="1.00676" fill="var(--iconPrimary, #222)" stroke-width="0"/>
  <circle cx="4.52028" cy="5.44616" r="1.00676" fill="var(--iconPrimary, #222)" stroke-width="0"/>
  <circle cx="4.52028" cy="8.80203" r="1.00676" fill="var(--iconPrimary, #222)" stroke-width="0"/>
  <circle cx="7.20498" cy="10.14437" r="1.00676" fill="var(--iconPrimary, #222)" stroke-width="0"/>
  <path d="M7.25684,13.24316h-.00586c-1.75391-.0127-3.38379-.63379-4.58789-1.74805-1.2334-1.14258-1.91309-2.67188-1.91309-4.30664,0-1.63379.67969-3.16211,1.91309-4.30371,1.28711-1.19434,3.01855-1.87988,4.75098-1.87988,1.50977,0,2.90234.51758,3.92188,1.45605.75586.7002,1.17188,1.63672,1.1709,2.63965,0,1.00195-.41602,1.9375-1.1709,2.63574l-.80664.75.00098.00195.00195.12793c.06152.05176.09277.06543.2168.08691.4082.07031.68262.45801.6123.86621s-.4541.67578-.86621.6123c-.44629-.07617-.69629-.19531-.99023-.47168-.33594-.31348-.52246-.72559-.52246-1.15918,0-.43457.18652-.84668.52539-1.16211l.80859-.75195c.44629-.41309.69043-.95801.69043-1.53711.00098-.5791-.24414-1.125-.68945-1.53613-.73926-.68262-1.77148-1.05859-2.90332-1.05859-1.35742,0-2.71777.54004-3.73047,1.48047-.9248.85547-1.43359,1.99219-1.43359,3.2041,0,1.21094.50879,2.34961,1.43262,3.2041.91504.84766,2.21973,1.33984,3.58008,1.34961.41406.00293.74707.34082.74414.75586-.00293.41211-.33789.74414-.75.74414Z" fill="var(--iconPrimary, #222)" stroke-width="0"/>
</svg>