<?xml version="1.0" encoding="UTF-8"?>
<svg xmlns="http://www.w3.org/2000/svg" width="20" height="20" viewBox="0 0 20 20">
  <path d="M14.75,17H4.25c-1.24023,0-2.25-1.00977-2.25-2.25V4.25c0-1.24023,1.00977-2.25,2.25-2.25h10.5c1.24023,0,2.25,1.00977,2.25,2.25v10.5c0,1.24023-1.00977,2.25-2.25,2.25ZM4.25,3.5c-.41309,0-.75.33691-.75.75v10.5c0,.41309.33691.75.75.75h10.5c.41309,0,.75-.33691.75-.75V4.25c0-.41309-.33691-.75-.75-.75H4.25Z" fill="var(--iconPrimary, #222)"/>
  <path d="M16.84045,3.43164c.09998.25439.15955.52905.15955.81836v10.5c0,1.24023-1.00977,2.25-2.25,2.25H4.25c-.28333,0-.552-.05835-.802-.15454.65894,1.83276,2.39746,3.15454,4.45435,3.15454h6.89746c2.86719,0,5.2002-2.33301,5.2002-5.2002v-6.91211c0-2.05859-1.32422-3.79834-3.15955-4.45605Z" fill="var(--iconPrimary, #222)" opacity=".05"/>
  <path d="M16.97583,4.01172c.00854.07959.02417.15674.02417.23828v10.5c0,1.24023-1.00977,2.25-2.25,2.25H4.25c-.07617,0-.14844-.01514-.22266-.02246.66406,1.48291,2.14746,2.52246,3.875,2.52246h6.89746c2.5918,0,4.7002-2.1084,4.7002-4.7002v-6.91211c0-1.72803-1.04004-3.21216-2.52417-3.87598Z" fill="var(--iconPrimary, #222)" opacity=".05"/>
  <path d="M17,4.59155v10.15845c0,1.24023-1.00977,2.25-2.25,2.25H4.6062c.63135,1.18335,1.86401,2,3.29614,2h6.89746c2.31641,0,4.2002-1.88379,4.2002-4.2002v-6.91211c0-1.43213-.81665-2.66479-2-3.29614Z" fill="var(--iconPrimary, #222)" opacity=".05"/>
  <path d="M17,5.15771v9.59229c0,1.24023-1.00977,2.25-2.25,2.25H5.17236c.57874.89941,1.58325,1.5,2.72998,1.5h6.89746c2.04004,0,3.7002-1.66016,3.7002-3.7002v-6.91211c0-1.14673-.60059-2.15137-1.5-2.72998Z" fill="var(--iconPrimary, #222)" opacity=".1"/>
  <path d="M17,5.78418v8.96582c0,1.24023-1.00977,2.25-2.25,2.25H5.79871c.50476.60571,1.25513,1,2.10364,1h6.89746c1.76465,0,3.2002-1.43555,3.2002-3.2002v-6.91211c0-.84863-.39429-1.59888-1-2.10352Z" fill="var(--iconPrimary, #222)" opacity=".15"/>
  <path d="M17,6.48926v8.26074c0,1.24023-1.00977,2.25-2.25,2.25H6.50439c.38501.30811.86682.5,1.39819.5h6.89746c1.49121,0,2.69995-1.20898,2.69995-2.69995v-6.9126c0-.53125-.19189-1.01318-.5-1.39819Z" fill="var(--iconPrimary, #222)" opacity=".2"/>
</svg>