<?xml version="1.0" encoding="UTF-8"?>
<svg   xmlns="http://www.w3.org/2000/svg" width="20" height="20" viewBox="0 0 20 20">
  <path d="M13.97424,9.11499l.83435-.83472c.29297-.29297.29297-.76758,0-1.06055h0c-.29395-.29395-.76855-.29199-1.06055,0l-3.00342,3.00464-1.55811-2.83569c-.13184-.23926-.38379-.38867-.65723-.38867h-3.05493l.5686-1.84473c.00293-.01758.36426-1.71191,1.50488-2.38184.54688-.32129,1.19336-.35742,1.97363-.11035.39648.12207.81641-.09668.94141-.49023.12402-.39551-.0957-.81641-.49023-.94141-1.19629-.375-2.27148-.29004-3.19336.25391-1.71777,1.01562-2.1875,3.27734-2.18848,3.2998l-.68335,2.21484H1.71484c-.41406,0-.75.33594-.75.75s.33594.75.75.75h1.72998L.50488,18.0293c-.12207.39551.09961.81543.49609.9375.07324.02246.14746.0332.2207.0332.32031,0,.61719-.20703.7168-.5293l3.07349-9.9707h3.07397l1.55444,2.8291-3.3894,3.39062c-.29297.29297-.29297.76758,0,1.06055.14648.14648.33887.21973.53027.21973.19238,0,.38379-.07324.53027-.21973l1.78198-1.78271c.4292-2.49121,2.39001-4.45264,4.88074-4.88257Z" fill="var(--iconPrimary, #222)" stroke-width="0"/>
  <path d="M15,10.521c-2.48535,0-4.5,2.01489-4.5,4.5,0,2.48535,2.01465,4.5,4.5,4.5s4.5-2.01465,4.5-4.5c0-2.48511-2.01465-4.5-4.5-4.5ZM17.5,15.64649h-1.875v1.875c0,.34473-.28027.625-.625.625s-.625-.28027-.625-.625v-1.875h-1.875c-.34473,0-.625-.28027-.625-.625s.28027-.625.625-.625h1.875v-1.875c0-.34473.28027-.625.625-.625s.625.28027.625.625v1.875h1.875c.34473,0,.625.28027.625.625s-.28027.625-.625.625Z" fill="var(--iconPrimary, #222)" stroke-width="0"/>
</svg>