<?xml version="1.0" encoding="UTF-8"?>
<svg   xmlns="http://www.w3.org/2000/svg" width="20" height="20" viewBox="0 0 20 20">
  <path d="M16.25,1.5H3.75c-1.24072,0-2.25,1.00977-2.25,2.25195v8.49609c0,1.24219,1.00928,2.25195,2.25,2.25195h2.5c.41406,0,.75-.33594.75-.75s-.33594-.75-.75-.75h-2.5c-.41357,0-.75-.33691-.75-.75195V3.75195c0-.02881.01318-.05322.01636-.08118l5.51294,4.8009c.40186.35059.90625.52539,1.41016.52539.50439,0,1.00879-.17578,1.41113-.52539l5.61493-4.89062c.01355.0564.03448.11035.03448.1709v3.75391c0,.41406.33594.75.75.75s.75-.33594.75-.75v-3.75391c0-1.24219-1.00928-2.25195-2.25-2.25195ZM10.36572,7.34082c-.24268.21094-.60889.21094-.85156,0L4.53003,3h10.81885l-4.98315,4.34082Z" fill="var(--iconPrimary, #222)"/>
  <circle cx="13.95138" cy="14.53859" r="1.24979" fill="var(--iconPrimary, #222)"/>
  <path d="M12.15967,19.66113c-.23096,0-.46436-.05762-.67578-.17871l-.49365-.28125c-.61621-.35254-.86426-1.13184-.56494-1.77441l.30127-.64746c-.12109-.1748-.22803-.35742-.31982-.54785l-.7124-.05566c-.70752-.05469-1.26465-.6543-1.26807-1.36426l-.00244-.56738c-.00342-.70996.54736-1.31445,1.25391-1.37695l.71045-.0625c.04541-.09863.09424-.19238.146-.2832s.10791-.17969.16895-.26855l-.30762-.64355c-.30615-.64062-.06543-1.42285.54834-1.78027l.48877-.28613c.62207-.36523,1.40479-.19238,1.81982.39746l.41016.58496c.21045-.01855.42139-.02051.63428-.00293l.40479-.58887c.40186-.58398,1.19824-.76758,1.81445-.41602l.49365.28125c.61621.35254.86426,1.13184.56494,1.77441l-.30127.64746c.12109.1748.22803.35742.31982.54785l.7124.05566c.70752.05469,1.26465.6543,1.26807,1.36426l.00244.56738c.00342.70996-.54736,1.31445-1.25391,1.37695l-.71045.0625c-.04541.09766-.09375.19238-.14551.28223-.05176.09082-.1084.18066-.16943.26953l.30762.64355c.30615.64062.06543,1.42285-.54834,1.78027l-.48877.28613c-.62305.36328-1.40527.19141-1.81982-.39746l-.41016-.58496c-.21143.01758-.42236.01953-.63428.00293l-.40479.58887c-.26367.38379-.69727.59473-1.13867.59473ZM12.12646,10.60449c-.02148,0-.04346.00586-.06348.01758l-.48877.28613c-.05664.0332-.07861.10449-.05078.16211l.47217.98828c.10596.22266.07178.48633-.0874.67383-.10596.125-.2041.26074-.28857.40918-.08545.14844-.15186.30273-.20654.45801-.08105.23242-.29004.39453-.53467.41602l-1.09082.09668c-.06543.00586-.11426.06055-.11377.12598l.00244.56738c.00049.06543.0498.11914.11523.12402l1.09229.08594c.24512.01953.45654.18066.53955.41211.11279.31543.28271.60449.50391.86133.16064.18555.19727.44922.09326.67188l-.4624.99316c-.02686.05859-.00439.12891.05176.16113l.49316.28125c.05762.03223.12793.01562.16504-.03711l.62061-.90332c.13916-.20215.38428-.30469.62646-.26172.33301.06055.66895.05859.99707-.00391.24414-.04785.48877.05371.62988.25391l.62891.89648c.0376.05469.10938.07031.16602.03711l.48877-.28613c.05664-.0332.07861-.10449.05078-.16211l-.47217-.98828c-.10596-.22266-.07178-.48633.0874-.67383.10596-.125.2041-.26074.28857-.40918l.00049-.00098c.08496-.14746.15137-.30176.20605-.45703.08105-.23242.29004-.39453.53467-.41602l1.09082-.09668c.06543-.00586.11426-.06055.11377-.12598l-.00244-.56738c-.00049-.06543-.0498-.11914-.11523-.12402l-1.09229-.08594c-.24512-.01953-.45654-.18066-.53955-.41211-.11279-.31543-.28271-.60449-.50391-.86133-.16064-.18555-.19727-.44922-.09326-.67188l.4624-.99316c.02686-.05859.00439-.12891-.05176-.16113l-.49316-.28125c-.05859-.03516-.12891-.0166-.16504.03711l-.62061.90332c-.13867.20312-.38086.30957-.62646.26172-.33301-.06055-.66797-.05859-.99707.00391-.24219.04785-.48779-.05273-.62988-.25391l-.62891-.89648c-.02441-.03516-.06299-.05469-.10254-.05469Z" fill="var(--iconPrimary, #222)"/>
</svg>