<?xml version="1.0" encoding="UTF-8"?>
<svg id="f" data-name="ICONS" xmlns="http://www.w3.org/2000/svg" width="20" height="20" viewBox="0 0 20 20">
  <path d="M19.82249,15.85742c-.08105-.15137-.16406-.29785-.24609-.44238-.38086-.66797-.68066-1.19629-.68066-2.03027,0-1.71484-1.38086-3.10938-3.07812-3.10938-1.69629,0-3.07715,1.39453-3.07715,3.10938,0,.74512-.31836,1.29102-.6875,1.92285-.10742.18359-.21484.36719-.31641.55762-.24414.45996-.22949,1.00098.03906,1.44824.26758.44531.73633.71191,1.25391.71191h.79663c0,.00586-.00171.01172-.00171.01758,0,1.0791.87793,1.95703,1.95703,1.95703s1.95703-.87793,1.95703-1.95703c0-.00586-.00171-.01172-.00171-.01758h.79858c.51758,0,.98633-.26758,1.25391-.71484.26855-.4502.28125-.99316.0332-1.45312ZM13.06077,16.57031c.0918-.17285.18945-.33984.28711-.50684.41797-.71582.89258-1.52734.89258-2.67871,0-.87207.72266-1.60938,1.57715-1.60938.85547,0,1.57812.7373,1.57812,1.60938,0,1.23047.44531,2.01367.87598,2.77246.07715.13379.1543.27051.26367.36816l-5.47461.04492Z" fill="var(--iconPrimary, #222)"/>
  <path d="M16.75,3H3.25c-1.24023,0-2.25,1.00977-2.25,2.25v9.5c0,1.24023,1.00977,2.25,2.25,2.25h6.25c.41406,0,.75-.33594.75-.75s-.33594-.75-.75-.75H3.25c-.41309,0-.75-.33691-.75-.75V5.46875l6.02148,5.24512c.42188.36719.9502.55078,1.47852.55078s1.05664-.18359,1.47754-.55078l6.02246-5.24512v3.28125c0,.41406.33594.75.75.75s.75-.33594.75-.75v-3.5c0-1.24023-1.00977-2.25-2.25-2.25ZM10.49219,9.58301c-.2793.24414-.7041.24414-.98535,0L3.67065,4.5h12.65869l-5.83716,5.08301Z" fill="var(--iconPrimary, #222)"/>
</svg>