<?xml version="1.0" encoding="UTF-8"?>
<svg xmlns="http://www.w3.org/2000/svg" width="20" height="20" viewBox="0 0 20 20">
  <path d="M12.99951,14.25c-.16602,0-.33252-.05469-.47168-.16699-.02588-.02051-1.11963-.87598-2.55127-.87598-1.43213,0-2.48438.85938-2.49463.86719-.31738.26465-.78955.22266-1.05518-.09375-.26514-.31641-.22656-.78613.08838-1.05273.05908-.0498,1.46436-1.2207,3.46143-1.2207,1.98975,0,3.43701,1.16211,3.49756,1.21191.3208.26172.36865.73438.10693,1.05566-.14844.18164-.36377.27539-.58154.27539Z" fill="var(--iconPrimary, #222)"/>
  <circle cx="7.25" cy="8.02303" r="1.25" fill="var(--iconPrimary, #222)"/>
  <circle cx="12.75" cy="8.02303" r="1.25" fill="var(--iconPrimary, #222)"/>
  <path d="M10,18.75c-4.82471,0-8.75-3.9248-8.75-8.75S5.17529,1.25,10,1.25s8.75,3.9248,8.75,8.75-3.92529,8.75-8.75,8.75ZM10,2.75c-3.99756,0-7.25,3.25195-7.25,7.25s3.25244,7.25,7.25,7.25,7.25-3.25195,7.25-7.25-3.25244-7.25-7.25-7.25Z" fill="var(--iconPrimary, #222)"/>
</svg>