<?xml version="1.0" encoding="UTF-8"?>
<svg xmlns="http://www.w3.org/2000/svg" width="20" height="20" viewBox="0 0 20 20">
  <circle cx="7.25" cy="8.02303" r="1.25" fill="var(--iconPrimary, #222)"/>
  <circle cx="12.75" cy="8.02303" r="1.25" fill="var(--iconPrimary, #222)"/>
  <path d="M10,18.75c-4.8252,0-8.75-3.9248-8.75-8.75S5.1748,1.25,10,1.25s8.75,3.9248,8.75,8.75-3.9248,8.75-8.75,8.75ZM10,2.75c-3.99805,0-7.25,3.25195-7.25,7.25s3.25195,7.25,7.25,7.25,7.25-3.25195,7.25-7.25-3.25195-7.25-7.25-7.25Z" fill="var(--iconPrimary, #222)"/>
  <path d="M14.39246,11.38787c-.10846-.16452-.29228-.26287-.48989-.26287h-7.80515c-.19761,0-.38143.09835-.48989.26287-.10938.16452-.12868.37224-.05239.55423.66912,1.58456,2.30331,3.1829,4.44485,3.1829s3.77574-1.59835,4.44485-3.1829c.07629-.18199.05699-.38971-.05239-.55423Z" fill="var(--iconPrimary, #222)"/>
</svg>