<?xml version="1.0" encoding="UTF-8"?>
<svg   xmlns="http://www.w3.org/2000/svg" width="20" height="20" viewBox="0 0 20 20">
  <path d="M7.75,18h-3.5c-1.24072,0-2.25-1.00977-2.25-2.25v-3.5c0-1.24023,1.00928-2.25,2.25-2.25h3.5c1.24072,0,2.25,1.00977,2.25,2.25v3.5c0,1.24023-1.00928,2.25-2.25,2.25ZM4.25,11.5c-.41357,0-.75.33691-.75.75v3.5c0,.41309.33643.75.75.75h3.5c.41357,0,.75-.33691.75-.75v-3.5c0-.41309-.33643-.75-.75-.75h-3.5Z" fill="var(--iconPrimary, #222)"/>
  <path d="M12.45703,12.22363c-.58936,0-1.17822-.22949-1.61914-.68555v-.00098l-2.43115-2.51855c-.86133-.8916-.83643-2.31836.05566-3.17969l2.51807-2.43164c.89209-.8623,2.31934-.83789,3.18164.05469l2.43115,2.51953c.86133.8916.83643,2.31836-.05566,3.17969l-2.51807,2.43164c-.43604.4209-.99951.63086-1.5625.63086ZM11.91699,10.49512c.28809.29883.76416.30664,1.06104.01855l2.51758-2.43066c.29736-.28711.30566-.7627.01855-1.06055l-2.43115-2.51855c-.28711-.29492-.76318-.30469-1.06104-.01758l-2.51758,2.43066c-.29736.28711-.30566.7627-.01855,1.06055l2.43115,2.51758Z" fill="var(--iconPrimary, #222)"/>
  <g>
    <path d="M7.75,4.25c-.41406,0-.75-.33594-.75-.75V1.5c0-.41406.33594-.75.75-.75s.75.33594.75.75v2c0,.41406-.33594.75-.75.75Z" fill="var(--iconPrimary, #222)"/>
    <path d="M3.5,8.5H1.5c-.41406,0-.75-.33594-.75-.75s.33594-.75.75-.75h2c.41406,0,.75.33594.75.75s-.33594.75-.75.75Z" fill="var(--iconPrimary, #222)"/>
    <path d="M4.67041,5.4209c-.19189,0-.38379-.07324-.53027-.21973L1.79932,2.85938c-.29297-.29297-.29297-.76758,0-1.06055s.76758-.29297,1.06055,0l2.34082,2.3418c.29297.29297.29297.76758,0,1.06055-.14648.14648-.33838.21973-.53027.21973Z" fill="var(--iconPrimary, #222)"/>
  </g>
  <g>
    <path d="M12.25,19.25c-.41406,0-.75-.33594-.75-.75v-2c0-.41406.33594-.75.75-.75s.75.33594.75.75v2c0,.41406-.33594.75-.75.75Z" fill="var(--iconPrimary, #222)"/>
    <path d="M18.5,13h-2c-.41406,0-.75-.33594-.75-.75s.33594-.75.75-.75h2c.41406,0,.75.33594.75.75s-.33594.75-.75.75Z" fill="var(--iconPrimary, #222)"/>
    <path d="M17.67041,18.4209c-.19189,0-.38379-.07324-.53027-.21973l-2.34082-2.3418c-.29297-.29297-.29297-.76758,0-1.06055s.76758-.29297,1.06055,0l2.34082,2.3418c.29297.29297.29297.76758,0,1.06055-.14648.14648-.33838.21973-.53027.21973Z" fill="var(--iconPrimary, #222)"/>
  </g>
</svg>