<?xml version="1.0" encoding="UTF-8"?>
<svg id="f" data-name="ICONS" xmlns="http://www.w3.org/2000/svg" width="20" height="20" viewBox="0 0 20 20">
  <rect x="7.97824" y="7.83828" width="4.17878" height="4.17878" rx="1.5" ry="1.5" transform="translate(10.1666 24.06648) rotate(-135)" fill="var(--iconPrimary, #222)" opacity=".2"/>
  <path d="M16.46973,13.77832c-1.1051,0-2.0343.72534-2.36359,1.72168h-1.63428c-.13446-.83228-.85229-1.47168-1.72186-1.47168h-.00146v-1.39355c.17603-.0835.34344-.19116.48889-.33667l1.06067-1.06067c.68225-.68225.68225-1.7926,0-2.47485l-1.06067-1.06067c-.15131-.15137-.32574-.26343-.50977-.34766.00507-.03516.02087-.06665.02087-.10327v-1.22266h.00146c.87927,0,1.60217-.65405,1.72473-1.5h1.62262c.32074,1.01086,1.2569,1.75,2.37238,1.75,1.37842,0,2.5-1.12109,2.5-2.5s-1.12158-2.5-2.5-2.5c-1.11548,0-2.05164.73914-2.37238,1.75h-1.59735v-.25c0-.96484-.78516-1.75-1.75-1.75h-1.5c-.96484,0-1.75.78516-1.75,1.75v.25h-1.633c-.32074-1.01086-1.2569-1.75-2.37238-1.75C2.11621,1.27832.99463,2.39941.99463,3.77832s1.12158,2.5,2.5,2.5c1.11548,0,2.05164-.73914,2.37238-1.75h1.65826c.1225.84546.8446,1.49902,1.72327,1.49988v1.22278c0,.03711.01587.06897.02112.10474-.18304.08398-.35657.19568-.50708.34619l-1.06067,1.06067c-.68225.68225-.68225,1.7926,0,2.47485l1.06067,1.06067c.14459.14453.31104.25183.48596.33521v1.39514c-.86896.00085-1.586.63977-1.7204,1.47156h-1.66992c-.32928-.99634-1.25848-1.72168-2.36359-1.72168-1.37842,0-2.5,1.12109-2.5,2.5s1.12158,2.5,2.5,2.5c1.12592,0,2.06921-.75281,2.38116-1.77832h1.62421v.27832c0,.96484.78516,1.75,1.75,1.75h1.5c.96484,0,1.75-.78516,1.75-1.75v-.27832h1.58856c.31195,1.02551,1.25525,1.77832,2.38116,1.77832,1.37842,0,2.5-1.12109,2.5-2.5s-1.12158-2.5-2.5-2.5ZM16.46973,2.77832c.55127,0,1,.44824,1,1s-.44873,1-1,1-1-.44824-1-1,.44873-1,1-1ZM3.49463,4.77832c-.55127,0-1-.44824-1-1s.44873-1,1-1,1,.44824,1,1-.44873,1-1,1ZM9,4.27832v-1.5c0-.1377.1123-.25.25-.25h1.5c.1377,0,.25.1123.25.25v1.5c0,.1377-.1123.25-.25.25h-1.5c-.1377,0-.25-.1123-.25-.25ZM8.76257,9.82324l1.06067-1.06067c.09735-.09741.25616-.09741.35352,0l1.06067,1.06067c.09735.09741.09735.2561,0,.35352l-1.06067,1.06067c-.02002.02002-.04852.01819-.07263.02991-.03595-.00525-.06812-.02124-.10559-.02124-.03674,0-.0683.01587-.10364.021-.02374-.01172-.05194-.01001-.07166-.02966l-1.06067-1.06067c-.09735-.09741-.09735-.2561,0-.35352ZM3.49463,17.27832c-.55127,0-1-.44824-1-1s.44873-1,1-1,1,.44824,1,1-.44873,1-1,1ZM11,17.27832c0,.1377-.1123.25-.25.25h-1.5c-.1377,0-.25-.1123-.25-.25v-1.5c0-.1377.1123-.25.25-.25h1.5c.1377,0,.25.1123.25.25v1.5ZM16.46973,17.27832c-.55127,0-1-.44824-1-1s.44873-1,1-1,1,.44824,1,1-.44873,1-1,1Z" fill="var(--iconPrimary, #222)"/>
</svg>