<?xml version="1.0" encoding="UTF-8"?>
<svg id="e" data-name="ICONS" xmlns="http://www.w3.org/2000/svg" width="20" height="20" viewBox="0 0 20 20">
  <path d="M8.00946,4.4265c0-.1899.01899-.30429.34227-.30429h4.35997c.76095,0,1.17963.64656,1.48392,1.86416l.24732.97029h.74151c.13564-2.75804.24732-3.95666.24732-3.95666,0,0-1.86417.20934-2.96738.20934h-5.57577l-2.98411-.0954v.79893l1.00827.19035c.70398.13338.87489.2853.93231.93186,0,0,.05697,1.9026.05697,5.04089s-.05697,5.0219-.05697,5.0219c0,.5706-.22607.77994-.93231.91287l-1.00827.19035v.79893l2.98637-.09495h4.98166c1.12221,0,3.72833.09495,3.72833.09495.05697-.68454.43767-3.7853.49464-4.12757h-.70398l-.74196,1.69416c-.58778,1.33155-1.44684,1.42649-2.39633,1.42649h-2.83445c-.94949,0-1.4075-.38025-1.4075-1.19817v-4.33826s2.11103,0,2.79602.05697c.53262.03798.8559.19035,1.02726.93186l.22833.98928h.81792l-.05697-2.49173.11394-2.51117h-.81792l-.26721,1.10367c-.17136.72342-.2853.8559-1.02726.93186-.97029.09495-2.81501.07596-2.81501.07596l-.0009-5.11684Z" fill="var(--iconPrimary, #222)"/>
</svg>