<?xml version="1.0" encoding="UTF-8"?>
<svg xmlns="http://www.w3.org/2000/svg" width="20" height="20" viewBox="0 0 20 20">
  <path d="M13.25,2H4.73145c-.3042-.80127-1.07446-1.375-1.98145-1.375C1.57812.625.625,1.57812.625,2.75c0,.90698.57373,1.677,1.375,1.98145v8.51855c0,.41406.33594.75.75.75s.75-.33594.75-.75V4.73145c.56738-.21533,1.01611-.66406,1.23145-1.23145h8.51855c.41406,0,.75-.33594.75-.75s-.33594-.75-.75-.75ZM2.75,3.625c-.48242,0-.875-.39258-.875-.875s.39258-.875.875-.875.875.39258.875.875-.39258.875-.875.875Z" fill="var(--iconPrimary, #222)"/>
  <path d="M18,15.26855V6.75c0-.41406-.33594-.75-.75-.75s-.75.33594-.75.75v8.51855c-.56738.21533-1.01611.66406-1.23145,1.23145H6.75c-.41406,0-.75.33594-.75.75s.33594.75.75.75h8.51855c.30444.80127,1.07446,1.375,1.98145,1.375,1.17188,0,2.125-.95312,2.125-2.125,0-.90698-.57373-1.67725-1.375-1.98145ZM17.25,18.125c-.48242,0-.875-.39258-.875-.875s.39258-.875.875-.875.875.39258.875.875-.39258.875-.875.875Z" fill="var(--iconPrimary, #222)"/>
  <path d="M1.75,19.02148c-.19238,0-.38379-.07324-.53027-.21973-.29297-.29297-.29297-.76758,0-1.06055L17.71973,1.24121c.29297-.29297.76758-.29297,1.06055,0s.29297.76758,0,1.06055L2.28027,18.80176c-.14648.14648-.33789.21973-.53027.21973Z" fill="var(--iconPrimary, #222)"/>
  <path d="M10.83984,6h-3.63989c-.6626,0-1.19995.53735-1.19995,1.19995v3.63989l4.83984-4.83984Z" fill="var(--iconPrimary, #222)"/>
  <path d="M9.16016,14h3.63989c.6626,0,1.19995-.53735,1.19995-1.19995v-3.63989l-4.83984,4.83984Z" fill="var(--iconPrimary, #222)"/>
</svg>