<?xml version="1.0" encoding="UTF-8"?>
<svg xmlns="http://www.w3.org/2000/svg" width="28.00005" height="28" viewBox="0 0 28.00005 28">
  <g id="circles">
    <circle id="Ellipse_10213" data-name="Ellipse 10213" cx="14.00002" cy="14" r="14.00001" fill="#5db41f"/>
  </g>
  <g id="ICONS">
    <rect id="S2_Icon_PostSocial_20_N" x="5.09281" y="5.00404" width="18" height="18" fill="none" opacity=".1"/>
    <path d="M19.26781,6.80404h-10.35c-1.11665,0-2.025.90879-2.025,2.025v10.35c0,1.11618.90835,2.025,2.025,2.025h10.35c1.11663,0,2.025-.90882,2.025-2.025v-10.35c0-1.11621-.90837-2.025-2.025-2.025ZM18.08611,17.0257c-.66798-.57132-1.71477-.56952-2.38446,0l-.87453.74709c-.02502.02286-.10413.02196-.12915.0009l-2.29748-1.96083c-.66841-.57132-1.71563-.57042-2.39107.00612l-1.7666,1.55214v-3.81707h11.69999v5.10758l-1.8567-1.63593ZM8.91781,8.15404h10.35c.37224,0,.675.30322.675.675v3.375h-11.7v-3.375c0-.37178.30279-.675.675-.675ZM8.24281,19.17904v-.01053l2.64991-2.32821c.16567-.14238.46626-.14157.63193-.0009l2.29702,1.96083c.52736.45,1.35266.4491,1.88177,0l.87444-.74799c.16569-.13968.46674-.14058.62406-.00702l2.05308,1.80882h-10.33722c-.37221,0-.675-.30321-.675-.675Z" fill="#fff"/>
    <path d="M10.1118,10.85404h8.10004c.3726,0,.675-.30235.675-.675s-.3024-.675-.675-.675h-8.10004c-.37265,0-.675.30235-.675.675s.30235.675.675.675Z" fill="#fff"/>
    <path d="M15.42274,15.9763c.49698,0,.9-.40293.9-.9s-.40302-.9-.9-.9c-.49707,0-.9.40293-.9.9s.40293.9.9.9Z" fill="#fff"/>
  </g>
</svg>