<?xml version="1.0" encoding="UTF-8"?>
<svg   xmlns="http://www.w3.org/2000/svg" width="20" height="20" viewBox="0 0 20 20">
  <path d="m11.93115,18.28125c-.37744,0-.72559-.21289-.896-.56836l-2.0625-4.29688-4.49023,2.65918c-.41504.24609-.9292.16602-1.25146-.19043-.32275-.35645-.34912-.87598-.06396-1.2627l2.53809-3.45117-3.95703-.94141c-.45703-.1084-.77295-.5127-.76855-.98242s.32812-.86816.78711-.96777l4.20459-.90918-1.96582-4.2207c-.2002-.43164-.07617-.93262.30176-1.21875.37744-.28809.89355-.27344,1.25439.03613l4.26758,3.64062,2.95703-3.25391c.30664-.33789.80371-.42383,1.20898-.21094.40479.21484.61182.67578.50293,1.12109l-.88135,3.60742,4.41162.02148c.48438.00391.88525.33691.97705.81055.09131.47363-.15674.93262-.60303,1.11523l-3.63525,1.49512,2.59717,2.53418c.34326.33496.40234.85156.14355,1.25586-.25977.40332-.75439.56445-1.20117.39355l-3.50439-1.35059.13379,4.10059c.01562.47754-.29785.89062-.76221,1.00391-.08105.02051-.1626.03027-.24268.03027Zm-2.31494-6.99023l1.74316,3.63086-.13037-3.99023,3.34619,1.29004-2.48779-2.42773,3.43652-1.41406-3.81543-.01855.86621-3.54492-2.61377,2.875-3.62646-3.09375,1.79004,3.84277-3.8877.83984,4.01807.95508-2.42627,3.29883,3.7876-2.24316Zm8.2168-3.86035h-.00146.00146Z" fill="var(--iconPrimary, #222)" stroke-width="0"/>
</svg>