<?xml version="1.0" encoding="UTF-8"?>
<svg   xmlns="http://www.w3.org/2000/svg" width="20" height="20" viewBox="0 0 20 20">
  <path d="M18.78027,14.71973l-2.12109-2.12109c-.29297-.29297-.76758-.29297-1.06055,0s-.29297.76758,0,1.06055l.84082.84082h-4.93945c-.41406,0-.75.33594-.75.75s.33594.75.75.75h4.93945l-.84082.84082c-.29297.29297-.29297.76758,0,1.06055.14648.14648.33838.21973.53027.21973s.38379-.07324.53027-.21973l2.12109-2.12109c.29297-.29297.29297-.76758,0-1.06055Z" fill="var(--iconPrimary, #222)"/>
  <path d="M16.34082,5.28027l-3.62109-3.62109c-.41895-.41895-.99854-.65918-1.59082-.65918h-5.87891c-1.24072,0-2.25,1.00977-2.25,2.25v12.5c0,1.24023,1.00928,2.25,2.25,2.25h3.5c.41406,0,.75-.33594.75-.75s-.33594-.75-.75-.75h-3.5c-.41357,0-.75-.33691-.75-.75V3.25c0-.41309.33643-.75.75-.75h4.75v3.25c0,1.24023,1.00928,2.25,2.25,2.25h3.25v2.25c0,.41406.33594.75.75.75s.75-.33594.75-.75v-3.37891c0-.5918-.24023-1.17188-.65918-1.59082ZM11.5,5.75v-3.13623c.05536.03223.11353.0603.15918.10596l3.62109,3.62109c.04565.04565.07385.10376.10602.15918h-3.13629c-.41357,0-.75-.33691-.75-.75Z" fill="var(--iconPrimary, #222)"/>
</svg>