<?xml version="1.0" encoding="UTF-8"?>
<svg xmlns="http://www.w3.org/2000/svg" width="20" height="20" viewBox="0 0 20 20">
  <path d="M18.25,1h-4.24219c-.41406,0-.75.33594-.75.75s.33594.75.75.75h2.43164l-4.46973,4.46973c-.29297.29297-.29297.76758,0,1.06055.14648.14648.33789.21973.53027.21973s.38379-.07324.53027-.21973l4.46973-4.46973v2.43164c0,.41406.33594.75.75.75s.75-.33594.75-.75V1.75c0-.41406-.33594-.75-.75-.75Z" fill="var(--iconPrimary, #222)"/>
  <path d="M15.75,14h-7.5c-1.24023,0-2.25-1.00977-2.25-2.25v-7.5c0-1.24023,1.00977-2.25,2.25-2.25h1.81055c.41406,0,.75.33594.75.75s-.33594.75-.75.75h-1.81055c-.41309,0-.75.33691-.75.75v7.5c0,.41309.33691.75.75.75h7.5c.41309,0,.75-.33691.75-.75v-1.71875c0-.41406.33594-.75.75-.75s.75.33594.75.75v1.71875c0,1.24023-1.00977,2.25-2.25,2.25Z" fill="var(--iconPrimary, #222)"/>
  <path d="M11.75,18h-7.5c-1.24023,0-2.25-1.00977-2.25-2.25v-7.5c0-.95117.60156-1.80371,1.49707-2.12109.3916-.1377.81934.06543.95801.45605s-.06641.81934-.45605.95801c-.29883.10547-.49902.38965-.49902.70703v7.5c0,.41309.33691.75.75.75h7.5c.31641,0,.60059-.2002.70703-.49805.14062-.38867.56641-.5957.95996-.45215.38965.14062.5918.56934.45215.95996-.32031.8916-1.17188,1.49023-2.11914,1.49023Z" fill="var(--iconPrimary, #222)"/>
</svg>