<?xml version="1.0" encoding="UTF-8"?>
<svg   xmlns="http://www.w3.org/2000/svg" width="20" height="20" viewBox="0 0 20 20">
  <path d="M17,4h-1.5V1.75c0-.41406-.33594-.75-.75-.75s-.75.33594-.75.75v2.25h-4V1.75c0-.41406-.33594-.75-.75-.75s-.75.33594-.75.75v2.25h-1.5c-.96484,0-1.75.78516-1.75,1.75v1.00293c0,1.25781.84668,2.32129,2,2.64844v1.84863c0,1.24023,1.00977,2.25,2.25,2.25h1.75v.66699c0,1.86914-1.48535,3.33301-3.38184,3.33301-1.86523,0-3.38281-1.5166-3.38281-3.39648l-.02637-1.09277c-.07812-.95508-.76855-2.76074-2.81934-2.76074-.41406,0-.75.33594-.75.75s.33594.75.75.75c1.13379,0,1.30273,1.15723,1.32227,1.33887l.02344,1.03125c0,2.69043,2.19043,4.87988,4.88281,4.87988,2.69141,0,4.88184-2.16797,4.88184-4.83301v-.66699h1.75391c.60059,0,1.16504-.23438,1.58887-.66016.42676-.42969.66113-1.00098.6582-1.6084l-.00098-1.83496c1.15332-.32715,2-1.38867,2-2.64355v-1.00293c0-.96484-.78516-1.75-1.75-1.75ZM17.25,6.75293c0,.6875-.56055,1.24707-1.25,1.24707-.19922,0-.38965.0791-.53027.21973s-.21973.33203-.21973.53125l.00098,2.4873c.00098.20508-.07812.39844-.22168.54297-.14062.14062-.32715.21875-.52539.21875h-5.00391c-.41309,0-.75-.33691-.75-.75v-2.49414c0-.41406-.33594-.75-.75-.75-.68945,0-1.25-.5625-1.25-1.25293v-1.00293c0-.1377.1123-.25.25-.25h10c.1377,0,.25.1123.25.25v1.00293Z" fill="var(--iconPrimary, #222)"/>
</svg>