<?xml version="1.0" encoding="UTF-8"?>
<svg id="e" data-name="ICONS" xmlns="http://www.w3.org/2000/svg" width="20" height="20" viewBox="0 0 20 20">
  <g id="f" data-name="Path 1027855">
    <path d="M19.50142,15c0,2.48528-2.01472,4.5-4.5,4.5s-4.5-2.01472-4.5-4.5,2.01472-4.5,4.5-4.5,4.5,2.01472,4.5,4.5h0Z" fill="var(--iconPrimary, #222)"/>
  </g>
  <path d="M17.65332,14.55762l-2-2c-.24414-.24414-.64062-.24414-.88477,0-.24316.24414-.24316.64062,0,.88477l.93311.93262h-2.90967c-.34473,0-.625.28027-.625.625s.28027.625.625.625h2.90967l-.93311.93262c-.24316.24414-.24316.64062,0,.88477.12207.12207.28223.18262.44238.18262s.32031-.06055.44238-.18262l2-2c.24316-.24414.24316-.64062,0-.88477Z" fill="#fff"/>
  <path d="M16.34277,5.28027l-3.62207-3.62109c-.4248-.4248-.98926-.65918-1.58984-.65918h-5.87988c-1.24023,0-2.25,1.00977-2.25,2.25v12.5c0,1.24023,1.00977,2.25,2.25,2.25h3.4209c.41406,0,.75-.33594.75-.75s-.33594-.75-.75-.75h-3.4209c-.41309,0-.75-.33691-.75-.75V3.25c0-.41309.33691-.75.75-.75h4.75v3.25c0,1.24023,1.00977,2.25,2.25,2.25h3.25v.37695c0,.41406.33594.75.75.75s.75-.33594.75-.75v-1.50586c0-.60156-.2334-1.16602-.6582-1.59082ZM11.50098,5.75v-3.13696c.05518.03223.11279.0603.15918.10669l3.62207,3.62109c.04541.04541.07373.10376.10571.15918h-3.13696c-.41309,0-.75-.33691-.75-.75Z" fill="var(--iconPrimary, #222)"/>
</svg>