<?xml version="1.0" encoding="UTF-8"?>
<svg xmlns="http://www.w3.org/2000/svg" width="20" height="20" viewBox="0 0 20 20">
  <path d="m15,10.521c-2.48535,0-4.5,2.01489-4.5,4.5,0,2.48535,2.01465,4.5,4.5,4.5s4.5-2.01465,4.5-4.5c0-2.48511-2.01465-4.5-4.5-4.5Zm2.5,5.12549h-5c-.34473,0-.625-.28027-.625-.625s.28027-.625.625-.625h5c.34473,0,.625.28027.625.625s-.28027.625-.625.625Z" fill="var(--iconPrimary, #222)"/>
  <path d="m18.27051,2.16211c-.56152-.66895-1.33203-1.05762-2.16895-1.09473-.89844-.01465-1.81348.33496-2.50391,1.02539l-1.29883,1.29102c-.95312-.50195-2.16309-.35156-2.96387.44922l-.38477.38477c-.91919.91821-.96948,2.36914-.17358,3.35962-2.06262,2.0625-6.97046,6.97021-7.02124,7.02222-.48682.4873-.75537,1.13379-.75537,1.82227,0,.68945.26807,1.33691.75537,1.82324.50244.50293,1.1626.75391,1.82275.75391s1.32031-.25098,1.82275-.75391l3.42212-3.42212c.29297-.29297.29297-.76758,0-1.06055s-.76758-.29297-1.06055,0l-3.42212,3.42212c-.41992.41992-1.10449.41992-1.52441,0-.20361-.2041-.31592-.47461-.31592-.76172,0-.28809.1123-.55859.31934-.76562.09082-.09229,4.93445-4.93555,6.99829-6.99976l1.12476,1.12476c.14648.14648.33789.21973.53027.21973s.38379-.07324.53027-.21973c.29297-.29297.29297-.76758,0-1.06055l-1.99219-1.99219c-.40039-.40039-.40039-1.05078,0-1.45117l.38477-.38477c.38672-.38672,1.06445-.38672,1.45117,0,.29199.29297.7666.29297,1.05859.00195l1.75098-1.74023c.39551-.39551.89258-.61816,1.37988-.58887.41797.01855.79297.21191,1.08594.56055.63477.75488.27441,1.74805-.32324,2.3457l-1.66602,1.63672c-.14258.14062-.22363.33203-.22461.53223-.00098.19922.07812.3916.21973.5332.11914.11914.20508.26074.25488.41992.12305.39551.54004.62109.93848.49316.39551-.12305.61621-.54297.49316-.93848-.04492-.14453-.10254-.28516-.17285-.41895l1.21289-1.19238c1.28906-1.28906,1.46387-3.12988.41602-4.37598Z" fill="var(--iconPrimary, #222)"/>
</svg>