<?xml version="1.0" encoding="UTF-8"?>
<svg   xmlns="http://www.w3.org/2000/svg" width="20" height="20" viewBox="0 0 20 20">
  <path d="M5.74707,10.5918c-.16016,0-.32031-.06055-.44238-.18262-.41797-.41895-.56152-1.0625-.39355-1.76465.14453-.60449.50684-1.21973,1.01953-1.7334.50781-.50684,1.11621-.86719,1.71387-1.01367.33594-.08496.67383.12012.75586.45703.08301.33496-.12207.67383-.45703.75586-.37402.09277-.78516.3418-1.12793.68555-.70801.70801-.8457,1.50977-.62598,1.72852.24316.24414.24316.64062,0,.88477-.12207.12207-.28223.18262-.44238.18262Z" fill="var(--iconPrimary, #222)"/>
  <path d="M19.07471,1.2334c-.42725-.50391-1.00684-.7959-1.63184-.82129-.63281-.01074-1.25439.22656-1.71777.69043l-.64258.6377c-.67773-.28125-1.4751-.15918-2.00928.37402l-.23584.23633c-.60992.61133-.67737,1.5647-.22186,2.29272l-1.57306,1.57349c-1.23828,1.23828-2.51611,2.51562-2.53076,2.53125-.72705.72754-.7041,1.93359.05078,2.6875.37549.37695.86963.58496,1.39111.58496h.00098c.49414,0,.95459-.18945,1.29248-.52734.0127-.01172.89746-.89648,1.91064-1.91016l2.19373-2.19336c.30939.19971.66541.30957,1.03674.30957.48584,0,.93896-.18555,1.27539-.52246l.23584-.23633c.53125-.53223.65479-1.3252.37695-2.00195l.58447-.57324c.00146-.00098.00293-.00293.00488-.00488.89795-.89746.98584-2.21191.20898-3.12695h.00002ZM10.1919,10.42774c-.07666.07617-.17139.09277-.2373.09277-.11865,0-.23926-.05273-.33105-.14453-.08887-.08887-.14014-.20215-.14355-.31836-.00195-.06934.01221-.16895.09668-.25293.0498-.05078,1.30762-1.30859,2.52637-2.52734l1.53442-1.53467.61993.62012-4.06549,4.06494h-.00001ZM17.80713,3.29786l-1.01416.99512c-.14258.13965-.22363.33105-.22461.53125s.07812.39258.21973.53418c.15771.1582.18018.39258.05078.52148l-.23584.23535c-.19482.19629-.38965.08203-.52148-.0498l-2.13232-2.13281c-.15771-.1582-.18018-.39258-.05127-.52148l.23486-.23535c.05615-.05566.1333-.08301.21484-.08301.10596,0,.22021.0459.30762.13281.29199.29102.76562.29297,1.05859.00195l1.06982-1.0625c.17285-.17188.38867-.25.59766-.25391.2041.00879.39404.10938.5498.29297.30713.36133.15918.80957-.12402,1.09375Z" fill="var(--iconPrimary, #222)"/>
  <path d="M9.5,18.75c-4.54883,0-8.25-3.70117-8.25-8.25S4.95117,2.25,9.5,2.25c.14697,0,.29395.00391.43945.01172.41357.02148.73193.37402.71045.78711-.02148.41406-.35742.72656-.7876.71094-.12012-.00586-.24072-.00977-.3623-.00977-3.72217,0-6.75,3.02832-6.75,6.75s3.02783,6.75,6.75,6.75,6.75-3.02832,6.75-6.75c0-.13672-.00391-.27246-.01172-.40723-.02441-.41309.29102-.76855.70459-.79297.40625-.0293.76807.29199.79248.70508.00977.16406.01465.3291.01465.49512,0,4.54883-3.70117,8.25-8.25,8.25Z" fill="var(--iconPrimary, #222)"/>
</svg>