<?xml version="1.0" encoding="UTF-8"?>
<svg   xmlns="http://www.w3.org/2000/svg" width="20" height="20" viewBox="0 0 20 20">
  <path d="M10,1.0622C5.02935,1.0622,1,5.09166,1,10.0622c0,4.22078,2.90566,7.76234,6.82581,8.73495v-5.98469h-1.85603v-2.75026h1.85603v-1.1851c0-3.06326,1.38625-4.48314,4.39365-4.48314.57019,0,1.55413.11179,1.95645.22357v2.49318c-.21248-.02241-.5814-.03356-1.03975-.03356-1.47568,0-2.04587.55898-2.04587,2.01237v.97267h2.93972l-.50515,2.75026h-2.43457v6.18387c4.45627-.53833,7.90972-4.33268,7.90972-8.93414,0-4.97054-4.02957-9-9-9Z" fill="var(--iconPrimary, #222)"/>
</svg>