<?xml version="1.0" encoding="UTF-8"?>
<svg id="e" data-name="ICONS" xmlns="http://www.w3.org/2000/svg" width="20" height="20" viewBox="0 0 20 20">
  <path d="M15.75146,2H4.25146c-1.24072,0-2.25,1.00977-2.25,2.25v11.5c0,1.24023,1.00928,2.25,2.25,2.25h11.5c1.24072,0,2.25-1.00977,2.25-2.25V4.25c0-1.24023-1.00928-2.25-2.25-2.25ZM16.50146,15.75c0,.41309-.33643.75-.75.75h-5.75146v-3h-3.49994v-3.5h3.49994v-3.5h-3.49994v-3h3.49994v3h3.5v-3h2.25146c.41357,0,.75.33691.75.75v11.5Z" fill="var(--iconPrimary, #222)"/>
  <rect x="10" y="10" width="3.5" height="3.5" fill="var(--iconPrimary, #222)"/>
</svg>