<?xml version="1.0" encoding="UTF-8"?><svg id="f" xmlns="http://www.w3.org/2000/svg" width="20" height="20" viewBox="0 0 20 20"><path d="M12.66162,13.12695c-.51221,0-.96875-.12598-1.3667-.37598-.7207-.45508-1.06592-1.23926-1.14844-1.82227-.13281-.93945.20703-2.1377,1.26514-2.69824.71387-.37891,1.50684-.45508,2.35645-.22559.3335.08984.53076.43262.44092.7666s-.43652.53223-.76611.44043c-.19922-.05469-.80518-.21777-1.44531.12207-.59912.31836-.66309,1.06738-.61377,1.41895.00928.06543.10352.6416.57764.94043.28223.17676.65527.22461,1.11426.14355v-.62793h-.39258c-.34521,0-.625-.28027-.625-.625s.27979-.625.625-.625h1.01758c.34521,0,.625.28027.625.625v1.73926c0,.27246-.17676.51367-.43701.5957-.43799.13867-.84766.20801-1.22705.20801Z" fill="var(--iconPrimary,#222)"/><path d="M8.67285,13.05273c-.19873,0-.39014-.09473-.50977-.2627l-1.58936-2.23926v1.87695c0,.34473-.27979.625-.625.625s-.625-.28027-.625-.625v-3.83691c0-.27246.17578-.5127.43506-.5957.25732-.08105.54199.01172.69971.23438l1.58936,2.23828v-1.87695c0-.34473.27979-.625.625-.625s.625.28027.625.625v3.83691c0,.27246-.17578.5127-.43506.5957-.0625.01953-.12646.0293-.18994.0293Z" fill="var(--iconPrimary,#222)"/><path d="M1.625,13.05273c-.34521,0-.625-.28027-.625-.625v-3.83691c0-.33496.26465-.61133.59961-.62402l.15088-.00684c.81348-.03711,1.73438-.0752,2.31396.63281.2876.35449.42383.87109.36475,1.38281-.05518.47559-.27441.88379-.61719,1.14746-.43213.33301-1.01025.42969-1.56201.44141v.86328c0,.34473-.27979.625-.625.625ZM2.25,9.19434v1.11914c.38818-.00977.65625-.07031.79932-.18066.07178-.05566.12207-.16504.13818-.30078.02197-.19141-.03125-.37402-.09229-.44922-.13135-.16113-.4541-.20508-.84521-.18848Z" fill="var(--iconPrimary,#222)"/><path d="M16.75,18H7.25c-1.24072,0-2.25-1.00977-2.25-2.25v-.37988c0-.41406.33594-.75.75-.75s.75.33594.75.75v.37988c0,.41309.33643.75.75.75h9.5c.41357,0,.75-.33691.75-.75V6.87109c0-.19727-.08008-.39062-.21924-.53027l-3.62207-3.62109c-.1416-.1416-.32959-.21973-.5293-.21973h-5.87939c-.41357,0-.75.33691-.75.75v2.5c0,.41406-.33594.75-.75.75s-.75-.33594-.75-.75v-2.5c0-1.24023,1.00928-2.25,2.25-2.25h5.87939c.6001,0,1.16504.23438,1.58984.65918l3.62207,3.62109c.41846.41895.65869.99805.65869,1.59082v8.87891c0,1.24023-1.00928,2.25-2.25,2.25Z" fill="var(--iconPrimary,#222)"/></svg>