<?xml version="1.0" encoding="UTF-8"?>
<svg id="e" data-name="ICONS" xmlns="http://www.w3.org/2000/svg" width="20" height="20" viewBox="0 0 20 20">
  <path d="M16.33789,5.28125l-3.62207-3.62109c-.4248-.4248-.98926-.65918-1.58984-.65918h-5.87891c-1.24023,0-2.25,1.00977-2.25,2.25v9.34277c0,.41406.33594.75.75.75s.75-.33594.75-.75V3.25098c0-.41309.33691-.75.75-.75h4.75293v3.24902c0,1.24023,1.00977,2.25,2.25,2.25h3.24707v7.75098c0,.41406-.33691.75098-.75.75098h-3.67383c-.41406,0-.75.33594-.75.75s.33594.75.75.75h3.67383c1.24023,0,2.25-1.00977,2.25-2.25098V6.87207c0-.5918-.24023-1.17188-.65918-1.59082ZM11.5,5.75v-3.13342c.05371.03186.11011.05896.15527.10413l3.62207,3.62109c.04541.04541.07324.10327.10547.1582h-3.13281c-.41309,0-.75-.33691-.75-.75Z" fill="var(--iconPrimary, #222)"/>
  <path d="M6.24573,13.50211c.19189,0,.38379.07324.53027.21973l2,2h-.00006c.29297.29297.29297.76758,0,1.06055l-2,2c-.14642.14648-.33789.21973-.53021.21973-.19238,0-.38379-.07324-.53027-.21973-.29297-.29297-.29297-.76758,0-1.06055l.71973-.71973H1.49573c-.41406,0-.75-.33594-.75-.75s.33594-.75.75-.75h4.93945l-.71973-.71973c-.29297-.29297-.29297-.76758,0-1.06055.14648-.14648.33838-.21973.53027-.21973h0Z" fill="var(--iconPrimary, #222)"/>
  <path d="M8.77599,15.7217l-2-2c-.29297-.29297-.76758-.29297-1.06055,0s-.29297.76758,0,1.06055l.71973.71973H1.49572c-.41406,0-.75.33594-.75.75s.33594.75.75.75h4.93945l-.71973.71973c-.29297.29297-.29297.76758,0,1.06055.14648.14648.33789.21973.53027.21973s.38379-.07324.53027-.21973l2-2c.29297-.29297.29297-.76758,0-1.06055h.00001Z" fill="var(--iconPrimary, #222)"/>
</svg>