<?xml version="1.0" encoding="UTF-8"?>
<svg id="e" data-name="ICONS" xmlns="http://www.w3.org/2000/svg" width="20" height="20" viewBox="0 0 20 20">
  <path d="M1.75,14c-.41406,0-.75-.33594-.75-.75V3.25c0-1.24023,1.00977-2.25,2.25-2.25h6c.41406,0,.75.33594.75.75s-.33594.75-.75.75H3.25c-.41309,0-.75.33691-.75.75v10c0,.41406-.33594.75-.75.75Z" fill="var(--iconPrimary, #222)"/>
  <path d="M14.08496,19.58008c-.17871,0-.3584-.0459-.52246-.13965-.39453-.22754-.59473-.68066-.49902-1.12598l.41113-1.90137-1.30664-1.44141c-.30566-.33691-.3584-.8291-.13086-1.22461.22754-.39453.68359-.59277,1.125-.49902l1.90234.41113,1.44043-1.30664c.33789-.30566.83008-.35938,1.22461-.12988.39453.22754.59473.67969.49902,1.125l-.41113,1.90137,1.30664,1.44141c.30566.33691.3584.8291.13086,1.22363-.22852.39551-.68262.59277-1.12598.5l-1.90137-.41113-1.44043,1.30566c-.19824.17969-.44824.27148-.70215.27148ZM14.23145,15.01465l.40918.45117c0,.00098.00098.00098.00098.00098.28809.31934.40625.76074.31641,1.18164l-.12891.59766.45215-.41016c.31934-.29004.76074-.40625,1.18262-.31738l.59668.12988-.41016-.45312c-.28906-.32031-.40723-.76172-.31738-1.18164l.12891-.59766-.45117.41016c-.31934.29102-.76367.4043-1.18262.31738l-.59668-.12891Z" fill="var(--iconPrimary, #222)"/>
  <path d="M15.3623,8.21289l-2.68652-3.22363c-.52344-.62891-1.29395-.98926-2.1123-.98926h-4.31348c-1.24023,0-2.25,1.00977-2.25,2.25v9.5c0,1.24023,1.00977,2.25,2.25,2.25h3.83789c.41406,0,.75-.33594.75-.75s-.33594-.75-.75-.75h-3.83789c-.41309,0-.75-.33691-.75-.75V6.25c0-.41309.33691-.75.75-.75h3.75v2.25c0,1.24023,1.00977,2.25,2.25,2.25h2.25537c.01465.40112.33984.72363.74463.72363.41406,0,.75-.33594.75-.75,0-.64258-.22656-1.26758-.6377-1.76074ZM11.5,7.75v-1.82239c.00732.00818.01636.01404.02344.02258l2.125,2.5498h-1.39844c-.41309,0-.75-.33691-.75-.75Z" fill="var(--iconPrimary, #222)"/>
</svg>