<?xml version="1.0" encoding="UTF-8"?>
<svg id="e" data-name="ICONS" xmlns="http://www.w3.org/2000/svg" width="20" height="20" viewBox="0 0 20 20">
  <path d="M14.75195,18H5.25195c-1.24072,0-2.25-1.00977-2.25-2.25098V3.25195c0-1.24219,1.00928-2.25195,2.25-2.25195h5.87842c.60156,0,1.16699.23438,1.5918.66113l3.62109,3.62402c.41846.41895.65869.99902.65869,1.5918v8.87207c0,1.24121-1.00928,2.25098-2.25,2.25098ZM5.25195,2.5c-.41357,0-.75.33691-.75.75195v12.49707c0,.41406.33643.75098.75.75098h9.5c.41357,0,.75-.33691.75-.75098V6.87695c0-.19824-.08008-.3916-.21973-.53125l-3.62207-3.625c-.1416-.14258-.32959-.2207-.52979-.2207h-5.87842Z" fill="var(--iconPrimary, #222)"/>
  <path d="M11.50195,7.5c.41406,0,.75-.33594.75-.75s-.33594-.75-.75-.75h-.875v-1.25c0-.00049-.00018-.00049-.00018-.00098s.00018-.00049.00018-.00098c0-.41406-.33594-.75-.75-.75h-1.37939c-.41406,0-.75.33594-.75.75s.33594.75.75.75h.87939v2.50195h-.875c-.41406,0-.75.33594-.75.75s.33594.75.75.75h.875v2h-.42285c-.41406,0-.75.33594-.75.75v2c0,.41406.33594.75.75.75h2c.41406,0,.75-.33594.75-.75v-2c0-.41406-.33594-.75-.75-.75h-.32715v-4h.875Z" fill="var(--iconPrimary, #222)"/>
</svg>