<?xml version="1.0" encoding="UTF-8"?><svg id="f" xmlns="http://www.w3.org/2000/svg" width="20" height="20" viewBox="0 0 20 20"><path d="M4.93262,13.05273c-.34521,0-.625-.28027-.625-.625v-3.83691c0-.33496.26465-.61133.59961-.62402l.15088-.00684c.8125-.03711,1.73486-.0752,2.31396.63281.28809.35449.42383.87109.36426,1.38281-.05518.47656-.27441.88379-.61719,1.14746-.43164.33301-1.00977.42969-1.56152.44141v.86328c0,.34473-.27979.625-.625.625ZM5.55762,9.19434v1.11914c.38818-.00977.65576-.07031.79834-.18066.07275-.05566.12305-.16504.13916-.30176.02197-.19043-.03125-.37305-.09229-.44824-.13135-.16113-.45996-.20508-.84521-.18848Z" fill="var(--iconPrimary,#222)"/><path d="M11.16162,13.12695c-.51221,0-.96875-.12598-1.3667-.37598-.7207-.45508-1.06592-1.23926-1.14844-1.82227-.13281-.93945.20703-2.1377,1.26514-2.69824.71387-.37891,1.50684-.45508,2.35645-.22559.3335.08984.53076.43262.44092.7666-.09033.33398-.43555.53223-.76611.44043-.19922-.05469-.80518-.21777-1.44531.12207-.59912.31836-.66309,1.06738-.61377,1.41895.00928.06543.10352.6416.57764.94043.28174.17676.65625.22461,1.11426.14355v-.62793h-.39258c-.34521,0-.625-.28027-.625-.625s.27979-.625.625-.625h1.01758c.34521,0,.625.28027.625.625v1.73926c0,.27246-.17676.51367-.43701.5957-.43799.13867-.84766.20801-1.22705.20801Z" fill="var(--iconPrimary,#222)"/><path d="M16.75,18H7.25c-1.24072,0-2.25-1.00977-2.25-2.25v-.37988c0-.41406.33594-.75.75-.75s.75.33594.75.75v.37988c0,.41309.33643.75.75.75h9.5c.41357,0,.75-.33691.75-.75V6.87109c0-.19727-.08008-.39062-.21924-.53027l-3.62207-3.62109c-.1416-.1416-.32959-.21973-.5293-.21973h-5.87939c-.41357,0-.75.33691-.75.75v2.5c0,.41406-.33594.75-.75.75s-.75-.33594-.75-.75v-2.5c0-1.24023,1.00928-2.25,2.25-2.25h5.87939c.6001,0,1.16504.23438,1.58984.65918l3.62207,3.62109c.41846.41895.65869.99805.65869,1.59082v8.87891c0,1.24023-1.00928,2.25-2.25,2.25Z" fill="var(--iconPrimary,#222)"/><path d="M1.49902,13.20801c-.04492,0-.09131-.00195-.13965-.00586-.34424-.02441-.60303-.32422-.57812-.66797.0249-.34473.32227-.60449.66895-.57812.05176.00293.15283.00293.19336-.03418.0752-.07324.11035-.2832.10596-.40039l-.00049-3.05762c0-.34473.27979-.625.625-.625s.625.28027.625.625v3.02832c.00391.0498.03223.81738-.47754,1.31934-.18848.18555-.51465.39648-1.02246.39648Z" fill="var(--iconPrimary,#222)"/></svg>