<?xml version="1.0" encoding="UTF-8"?>
<svg   xmlns="http://www.w3.org/2000/svg" width="20" height="20" viewBox="0 0 20 20">
  <path d="M17,6.87109c0-.5918-.24023-1.17188-.65918-1.59082l-3.62109-3.62109c-.41895-.41895-.99902-.65918-1.59082-.65918h-5.87891c-1.24023,0-2.25,1.00977-2.25,2.25v12.5c0,1.24023,1.00977,2.25,2.25,2.25h2.5c.41406,0,.75-.33594.75-.75s-.33594-.75-.75-.75h-2.5c-.41309,0-.75-.33691-.75-.75V3.25c0-.41309.33691-.75.75-.75h4.75v3.25c0,1.24023,1.00977,2.25,2.25,2.25h3.30469c.104.28992.37378.5.69922.5h.00293c.41504-.00195.74902-.33887.74707-.75293l-.00391-.87598ZM11.5,5.75v-3.13623c.05542.0321.11353.0603.15918.10596l3.62109,3.62109c.04565.04565.07373.10376.10596.15918h-3.13623c-.41309,0-.75-.33691-.75-.75Z" fill="var(--iconPrimary, #222)"/>
  <path d="M14.28125,19.77734c-.44531,0-.88965-.16699-1.22852-.50098l-.49219-.48633c-.04492-.04395-.10938-.07129-.1748-.07129l-.68945-.00488c-.95312-.00488-1.7334-.78516-1.73828-1.73926l-.00488-.68945c0-.06445-.02734-.12891-.07227-.1748l-.48438-.49023c-.66992-.67871-.66992-1.78125,0-2.45996l.48535-.49121c.04395-.04492.07129-.10938.07129-.1748l.00488-.68945c.00488-.95312.78516-1.7334,1.73926-1.73828l.68945-.00488c.06543,0,.12793-.02539.17383-.07129l.49121-.48535c.67969-.66992,1.78125-.66895,2.45898-.00098l.00098.00098.49121.48535c.0459.0459.1084.07129.1748.07129l.68945.00488c.95117.00488,1.73145.78516,1.73828,1.73828l.00488.69043c0,.06641.02539.12793.07129.17383l.48535.49121c.66895.67871.66895,1.78125.00098,2.45898l-.48633.49219c-.0459.0459-.07129.10742-.07129.17188l-.00488.69238c-.00684.95312-.78711,1.7334-1.73926,1.73828l-.68945.00488c-.06445,0-.12891.02734-.1748.07227l-.49023.48438c-.33984.33496-.78516.50195-1.23047.50195ZM14.28125,10.50098c-.06348,0-.12695.02344-.17578.07129l-.49023.48438c-.3252.32227-.75781.50098-1.21777.50488l-.69141.00488c-.13672.00098-.24707.11133-.24805.24707l-.00488.69141c-.00391.45898-.18262.89062-.50391,1.21777l-.48633.49219c-.09473.09668-.09473.25391,0,.35059l.48535.49121c.32227.32812.50098.75977.50488,1.21777l.00488.69141c.00098.13672.11133.24707.24707.24805l.69141.00488c.45898.00391.89062.18262,1.21777.50391l.49219.48633c.0957.09375.25391.09473.35156-.00098l.49023-.48438c.32812-.32227.75977-.50098,1.21777-.50488l.69141-.00488c.13574-.00098.24707-.1123.24805-.24805l.00488-.69043c.00195-.45801.18066-.8916.50488-1.21875l.48535-.49121c.09473-.0957.09473-.25488-.00098-.35156l-.48438-.49023c-.32422-.32715-.50293-.76074-.50488-1.2207l-.00488-.68848c-.00098-.13574-.1123-.24707-.24707-.24805l-.69141-.00488c-.46094-.00391-.89355-.18262-1.21875-.50488l-.49023-.48438c-.04883-.04785-.1123-.07129-.17676-.07129Z" fill="var(--iconPrimary, #222)"/>
  <path d="M14.00098,16.55371c-.17676,0-.3457-.0752-.46484-.20703l-1.15137-1.2793c-.23047-.25684-.20996-.65137.04688-.88281.25391-.23047.65039-.21191.88281.04688l.63672.70801,1.39453-1.90137c.20215-.27832.59375-.34082.87305-.13477.27832.2041.33887.59473.13477.87305l-1.84863,2.52148c-.11133.15234-.28516.24609-.47266.25488-.01074.00098-.02051.00098-.03125.00098Z" fill="var(--iconPrimary, #222)"/>
</svg>