<?xml version="1.0" encoding="UTF-8"?><svg id="e" xmlns="http://www.w3.org/2000/svg" width="20" height="20" viewBox="0 0 20 20"><path d="M16.75,18H7.25c-1.24072,0-2.25-1.00977-2.25-2.25v-.37988c0-.41406.33594-.75.75-.75s.75.33594.75.75v.37988c0,.41309.33643.75.75.75h9.5c.41357,0,.75-.33691.75-.75V6.87109c0-.19727-.08008-.39062-.21924-.53027l-3.62207-3.62109c-.1416-.1416-.32959-.21973-.5293-.21973h-5.87939c-.41357,0-.75.33691-.75.75v2.5c0,.41406-.33594.75-.75.75s-.75-.33594-.75-.75v-2.5c0-1.24023,1.00928-2.25,2.25-2.25h5.87939c.6001,0,1.16504.23438,1.58984.65918l3.62207,3.62109c.41846.41895.65869.99805.65869,1.59082v8.87891c0,1.24023-1.00928,2.25-2.25,2.25Z" fill="var(--iconPrimary,#222)"/><path d="M2.4502,13.1123c-.31982,0-.69922-.05566-1.14258-.20508-.32715-.11035-.50342-.46484-.39307-.79199.11035-.32617.46631-.49902.7915-.39355.7876.2666,1.12646.08789,1.21191.02734.06885-.0498.09326-.10254.09326-.13281,0-.16113,0-.28906-.50049-.50195-.64844-.27539-1.85205-.78613-1.50244-2.12402.10352-.39746.36377-.70508.75244-.8916.70703-.33691,1.69629-.17871,2.04541-.02148.31494.1416.45557.51172.31445.82617-.1416.31348-.50781.45508-.82031.31641-.17285-.0625-.74219-.125-1.01074.01172-.06055.03223-.06641.05371-.07227.0752-.05273.20312-.04443.30566.71191.62695.61279.26172,1.33203.68359,1.33203,1.68262,0,.44922-.22363.86719-.61377,1.14746-.21436.1543-.60303.34863-1.19727.34863Z" fill="var(--iconPrimary,#222)"/><path d="M6.81641,13.11328c-.25781,0-.48926-.1582-.58252-.39941l-1.49609-3.85742c-.125-.32129.03467-.68359.35645-.80859.32129-.12207.68359.03516.80859.35742l.91357,2.35449.91357-2.35449c.12402-.32227.4873-.47949.80859-.35742.32178.125.48145.4873.35645.80859l-1.49609,3.85742c-.09326.24121-.32471.39941-.58252.39941Z" fill="var(--iconPrimary,#222)"/><path d="M11.89795,13.12695c-.51221,0-.96875-.12598-1.3667-.37598-.7207-.45508-1.06592-1.23926-1.14844-1.82227-.1333-.93848.20605-2.13672,1.26514-2.69824.71387-.37891,1.50684-.45312,2.35645-.22559.3335.08984.53076.43262.44092.76562-.09033.33398-.43262.53027-.76611.44141-.19922-.05371-.80615-.2168-1.44531.12207-.59961.31836-.66357,1.06738-.61377,1.41895.00928.06543.10352.6416.57764.94043.28223.17676.65527.22461,1.11426.14355v-.62793h-.39307c-.34521,0-.625-.28027-.625-.625s.27979-.625.625-.625h1.01807c.34521,0,.625.28027.625.625v1.73926c0,.27246-.17676.51367-.43701.5957-.43799.13867-.84766.20801-1.22705.20801Z" fill="var(--iconPrimary,#222)"/></svg>