<?xml version="1.0" encoding="UTF-8"?>
<svg id="e" data-name="ICONS" xmlns="http://www.w3.org/2000/svg" width="20" height="20" viewBox="0 0 20 20">
  <path d="M16.34131,5.28027l-3.62207-3.62207c-.4248-.4248-.98975-.65918-1.59033-.65918h-5.87891c-1.24072,0-2.25,1.00977-2.25,2.25v12.5c0,1.24023,1.00928,2.25,2.25,2.25h1.75c.41406,0,.75-.33594.75-.75s-.33594-.75-.75-.75h-1.75c-.41357,0-.75-.33691-.75-.75V3.24902c0-.41309.33643-.75.75-.75h4.75v3.25c0,1.24023,1.00928,2.25,2.25,2.25h3.25v7.75c0,.41309-.33643.75-.75.75h-1.75c-.41406,0-.75.33594-.75.75s.33594.75.75.75h1.75c1.24072,0,2.25-1.00977,2.25-2.25V6.87012c0-.59961-.23389-1.16406-.65869-1.58984ZM11.5,5.74902v-3.13672c.05499.03223.11249.06006.15869.10645l3.62158,3.62207c.04608.0459.07391.10352.10608.1582h-3.13635c-.41357,0-.75-.33691-.75-.75Z" fill="var(--iconPrimary, #222)"/>
  <path d="M8.125,7.25h-1.75c-.34521,0-.625-.28027-.625-.625s.27979-.625.625-.625h1.75c.34521,0,.625.28027.625.625s-.27979.625-.625.625Z" fill="var(--iconPrimary, #222)"/>
  <path d="M8.125,5h-1.75c-.34521,0-.625-.28027-.625-.625s.27979-.625.625-.625h1.75c.34521,0,.625.28027.625.625s-.27979.625-.625.625Z" fill="var(--iconPrimary, #222)"/>
  <path d="M13.53027,13.21875l-3-3c-.29297-.29297-.76758-.29297-1.06055,0l-3,3c-.29297.29297-.29297.76758,0,1.06055s.76758.29297,1.06055,0l1.71973-1.71973v6.18945c0,.41406.33594.75.75.75s.75-.33594.75-.75v-6.18945l1.71973,1.71973c.14648.14648.33838.21973.53027.21973s.38379-.07324.53027-.21973c.29297-.29297.29297-.76758,0-1.06055Z" fill="var(--iconPrimary, #222)"/>
</svg>