<?xml version="1.0" encoding="UTF-8"?>
<svg   xmlns="http://www.w3.org/2000/svg" width="20" height="20" viewBox="0 0 20 20">
  <path d="M16.34082,5.28027l-3.62109-3.62109c-.41895-.41895-.99902-.65918-1.59082-.65918h-5.87891c-1.24023,0-2.25,1.00977-2.25,2.25v12.5c0,1.24023,1.00977,2.25,2.25,2.25h9.5c1.24023,0,2.25-1.00977,2.25-2.25V6.87109c0-.5918-.24023-1.17188-.65918-1.59082ZM15.28027,6.34082c.04565.04565.07373.10376.10596.15918h-3.13623c-.41309,0-.75-.33691-.75-.75v-3.13623c.05542.0321.11353.0603.15918.10596l3.62109,3.62109ZM14.75,16.5H5.25c-.41309,0-.75-.33691-.75-.75V3.25c0-.41309.33691-.75.75-.75h4.75v3.25c0,1.24023,1.00977,2.25,2.25,2.25h3.25v7.75c0,.41309-.33691.75-.75.75Z" fill="var(--iconPrimary, #222)"/>
  <path d="M9.79102,15c-.41406,0-.75-.33594-.75-.75v-2.25c0-.41406.33594-.75.75-.75s.75.33594.75.75v2.25c0,.41406-.33594.75-.75.75Z" fill="var(--iconPrimary, #222)"/>
  <path d="M6.79102,15c-.41406,0-.75-.33594-.75-.75v-1c0-.41406.33594-.75.75-.75s.75.33594.75.75v1c0,.41406-.33594.75-.75.75Z" fill="var(--iconPrimary, #222)"/>
  <path d="M12.79102,15c-.41406,0-.75-.33594-.75-.75v-4.25c0-.41406.33594-.75.75-.75s.75.33594.75.75v4.25c0,.41406-.33594.75-.75.75Z" fill="var(--iconPrimary, #222)"/>
</svg>