<?xml version="1.0" encoding="UTF-8"?><svg id="f" xmlns="http://www.w3.org/2000/svg" width="20" height="20" viewBox="0 0 20 20"><path d="M16.75,17H3.25c-1.24072,0-2.25-1.00977-2.25-2.25V5.25c0-1.24023,1.00928-2.25,2.25-2.25h13.5c1.24072,0,2.25,1.00977,2.25,2.25v9.5c0,1.24023-1.00928,2.25-2.25,2.25ZM3.25,4.5c-.41357,0-.75.33691-.75.75v9.5c0,.41309.33643.75.75.75h13.5c.41357,0,.75-.33691.75-.75V5.25c0-.41309-.33643-.75-.75-.75H3.25Z" fill="var(--iconPrimary,#222)"/><path d="M14.53613,12.31738c-.4624,0-.87598-.11426-1.2373-.3418-.65283-.41113-.96533-1.12109-1.04004-1.64844-.12061-.84766.18799-1.93164,1.14795-2.44141.64307-.34082,1.35547-.40918,2.11865-.2041.33301.08984.53076.43262.44092.76562-.08984.33398-.43115.53027-.76611.44141-.16602-.04395-.6748-.18262-1.20801.10156-.48584.25781-.53711.87207-.49609,1.16113.00781.05273.08447.52441.46924.7666.21729.1377.50488.17969.85547.12598v-.40527h-.26514c-.34521,0-.625-.28027-.625-.625s.27979-.625.625-.625h.89014c.34521,0,.625.28027.625.625v1.52246c0,.27246-.17676.51367-.43701.5957-.39111.12402-.75781.18555-1.09766.18555Z" fill="var(--iconPrimary,#222)"/><path d="M11.04639,12.25195c-.19873,0-.39014-.09473-.50977-.2627l-1.24854-1.75879v1.39648c0,.34473-.27979.625-.625.625s-.625-.28027-.625-.625v-3.35645c0-.27246.17578-.5127.43506-.5957.25781-.08105.5415.01172.69971.2334l1.24854,1.75879v-1.39648c0-.34473.27979-.625.625-.625s.625.28027.625.625v3.35645c0,.27246-.17578.5127-.43506.5957-.0625.01953-.12646.0293-.18994.0293Z" fill="var(--iconPrimary,#222)"/><path d="M4.87988,12.25195c-.34521,0-.625-.28027-.625-.625v-3.35645c0-.33496.26465-.61133.59961-.62402l.13477-.00586c.69238-.0332,1.55566-.06934,2.08594.58301.26416.32422.39014.79785.33545,1.2666-.05029.4375-.25293.81348-.56982,1.05762-.37451.28809-.86328.38281-1.33594.39941v.67969c0,.34473-.27979.625-.625.625ZM5.50488,8.87598v.82031c.33496-.0166.49609-.0791.57324-.13867.0459-.03516.08008-.11426.09082-.21094.01807-.15332-.02734-.28906-.06299-.33398-.08691-.10645-.32568-.13477-.60107-.13672Z" fill="var(--iconPrimary,#222)"/></svg>