<?xml version="1.0" encoding="UTF-8"?><svg id="f" xmlns="http://www.w3.org/2000/svg" width="20" height="20" viewBox="0 0 20 20"><path d="M16.75,17H3.25c-1.24072,0-2.25-1.00977-2.25-2.25V5.25c0-1.24023,1.00928-2.25,2.25-2.25h13.5c1.24072,0,2.25,1.00977,2.25,2.25v9.5c0,1.24023-1.00928,2.25-2.25,2.25ZM3.25,4.5c-.41357,0-.75.33691-.75.75v9.5c0,.41309.33643.75.75.75h13.5c.41357,0,.75-.33691.75-.75V5.25c0-.41309-.33643-.75-.75-.75H3.25Z" fill="var(--iconPrimary,#222)"/><path d="M5.54639,12.30469c-.2876,0-.62793-.05078-1.0249-.18359-.32715-.11035-.50293-.46484-.39258-.79199.11084-.32617.46436-.49805.79199-.39355.61572.20801.896.08984.96631.04883.0542-.03125.0708-.0625.07227-.07031,0-.11328,0-.19824-.39062-.36523-.54688-.23145-1.68262-.71387-1.35938-1.94922.09668-.37012.33887-.65723.69971-.83008.64258-.30762,1.53955-.16211,1.85596-.02051.31494.1416.45557.51172.31445.82617-.14014.31152-.50342.45117-.81738.31836-.22412-.07812-.74707-.07812-.8457.02344-.02979.12207-.04785.18945.57861.45508.55859.23828,1.21436.625,1.21436,1.54492,0,.41895-.20752.80762-.56982,1.06836-.19629.14062-.55176.31934-1.09326.31934Z" fill="var(--iconPrimary,#222)"/><path d="M9.36719,12.30566c-.25781,0-.48926-.1582-.58252-.39941l-1.30908-3.37598c-.125-.32129.03467-.68359.35645-.80859.3208-.12109.68408.03516.80859.35742l.72656,1.87305.72656-1.87305c.12402-.32227.48633-.47949.80859-.35742.32178.125.48145.4873.35645.80859l-1.30908,3.37598c-.09326.24121-.32471.39941-.58252.39941Z" fill="var(--iconPrimary,#222)"/><path d="M13.8125,12.31738c-.4624,0-.87598-.11426-1.2373-.3418-.65283-.41113-.96533-1.12109-1.04004-1.64844-.12061-.84766.18799-1.93164,1.14795-2.44141.64355-.3418,1.35742-.41016,2.11865-.2041.3335.08984.53076.43262.44092.7666-.08984.33301-.43604.52832-.76611.44043-.16748-.04492-.67285-.18359-1.20801.10156-.48584.25781-.53711.87207-.49609,1.16113.00781.05273.08447.52441.46924.7666.21777.1377.50439.17969.85596.12598v-.40527h-.26562c-.34521,0-.625-.28027-.625-.625s.27979-.625.625-.625h.89062c.34521,0,.625.28027.625.625v1.52246c0,.27246-.17676.51367-.43701.5957-.39111.12402-.75781.18555-1.09814.18555Z" fill="var(--iconPrimary,#222)"/></svg>