<?xml version="1.0" encoding="UTF-8"?>
<svg id="e" data-name="ICONS" xmlns="http://www.w3.org/2000/svg" width="20" height="20" viewBox="0 0 20 20">
  <path d="M10.25,16.5h-5c-.41357,0-.75-.33691-.75-.75V3.25c0-.41309.33643-.75.75-.75h4.75v3.25c0,1.24023,1.00928,2.25,2.25,2.25h3.25v.25c0,.41406.33594.75.75.75s.75-.33594.75-.75v-1.37891c0-.5918-.23975-1.17188-.65869-1.59082l-3.62207-3.62109c-.4248-.4248-.98975-.65918-1.59033-.65918h-5.87891c-1.24072,0-2.25,1.00977-2.25,2.25v12.5c0,1.24023,1.00928,2.25,2.25,2.25h5c.41406,0,.75-.33594.75-.75s-.33594-.75-.75-.75ZM15.28027,6.34082c.04565.04565.07385.10376.10602.15918h-3.13629c-.41357,0-.75-.33691-.75-.75v-3.13599c.05518.03223.11316.0603.15869.10571l3.62158,3.62109Z" fill="var(--iconPrimary, #222)"/>
  <path d="M13.27979,12.58594c0,1.42578,1.11182,2.58594,2.47803,2.58594s2.47754-1.16016,2.47754-2.58594-1.11133-2.58594-2.47754-2.58594-2.47803,1.16016-2.47803,2.58594ZM16.73535,12.58594c0,.59863-.43848,1.08594-.97754,1.08594s-.97803-.4873-.97803-1.08594.43896-1.08594.97803-1.08594.97754.4873.97754,1.08594Z" fill="var(--iconPrimary, #222)"/>
  <path d="M19.45361,18.46484c-.48438-1.31055-1.96973-2.19141-3.69629-2.19141-1.72705,0-3.25391.91699-3.71289,2.22852-.13672.3916.06934.81934.46045.95605.08203.02832.16553.04199.24756.04199.31004,0,.6001-.19336.70801-.50195.21289-.6084,1.06982-1.22461,2.29688-1.22461,1.20898,0,2.06689.60938,2.28906,1.21094.14355.38867.57471.58789.96338.44336.38867-.14355.5874-.57422.44385-.96289Z" fill="var(--iconPrimary, #222)"/>
  <path d="M10.25,13h-3.5c-.41406,0-.75.33594-.75.75s.33594.75.75.75h3.5c.41406,0,.75-.33594.75-.75s-.33594-.75-.75-.75Z" fill="var(--iconPrimary, #222)"/>
  <path d="M10.25,10h-3.5c-.41406,0-.75.33594-.75.75s.33594.75.75.75h3.5c.41406,0,.75-.33594.75-.75s-.33594-.75-.75-.75Z" fill="var(--iconPrimary, #222)"/>
  <path d="M6.75,7c-.41406,0-.75.33594-.75.75s.33594.75.75.75h1.5c.41406,0,.75-.33594.75-.75s-.33594-.75-.75-.75h-1.5Z" fill="var(--iconPrimary, #222)"/>
</svg>