<?xml version="1.0" encoding="UTF-8"?>
<svg   xmlns="http://www.w3.org/2000/svg" width="20" height="20" viewBox="0 0 20 20">
  <path d="M16.34082,5.28027l-3.62109-3.62109c-.41895-.41895-.99902-.65918-1.59082-.65918h-5.87891c-1.24023,0-2.25,1.00977-2.25,2.25v12.5c0,1.24023,1.00977,2.25,2.25,2.25h3.38574c.41406,0,.75-.33594.75-.75s-.33594-.75-.75-.75h-3.38574c-.41309,0-.75-.33691-.75-.75V3.25c0-.41309.33691-.75.75-.75h4.75v3.25c0,1.24023,1.00977,2.25,2.25,2.25h3.25v.59863c0,.41406.33594.75.75.75s.75-.33594.75-.75v-1.72754c0-.5918-.24023-1.17188-.65918-1.59082ZM11.5,5.75v-3.13623c.05542.0321.11353.0603.15918.10596l3.62109,3.62109c.04565.04565.07385.10376.10596.15918h-3.13623c-.41309,0-.75-.33691-.75-.75Z" fill="var(--iconPrimary, #222)" stroke-width="0"/>
  <path d="M19.19092,12.11743c-.29395-1.08887-2.37158-1.49243-4.19092-1.49243s-3.89697.40356-4.19092,1.49243c-.03625.07898-.05908.16504-.05908.25757v5.16211c0,.01562.00781.02856.00891.04395-.0011.01538-.00891.02832-.00891.04395,0,1.29199,2.28906,1.75,4.25,1.75,1.81934,0,3.89697-.40356,4.19092-1.49243.03625-.07898.05908-.16504.05908-.25757v-5.25c0-.09253-.02283-.17859-.05908-.25757ZM18,14.91211c-.23279.21655-1.29419.58789-3,.58789s-2.76721-.37134-3-.58789v-1.23682c.83447.3147,1.95862.44971,3,.44971s2.16553-.13501,3-.44971v1.23682ZM15,11.875c1.49219,0,2.49219.28418,2.875.5-.38281.21582-1.38281.5-2.875.5s-2.49219-.28418-2.875-.5c.38281-.21582,1.38281-.5,2.875-.5ZM12,17.53711v-1.23682c.83447.3147,1.95862.44971,3,.44971s2.16553-.13501,3-.44971v1.23682c-.23279.21655-1.29419.58789-3,.58789s-2.76721-.37134-3-.58789Z" fill="var(--iconPrimary, #222)" stroke-width="0"/>
</svg>