<?xml version="1.0" encoding="UTF-8"?>
<svg id="e" data-name="ICONS" xmlns="http://www.w3.org/2000/svg" width="20" height="20" viewBox="0 0 20 20">
  <path d="M16.34131,5.28027l-3.62207-3.62109c-.4248-.4248-.98975-.65918-1.59033-.65918h-5.87891c-1.24072,0-2.25,1.00977-2.25,2.25v12.5c0,1.24023,1.00928,2.25,2.25,2.25h3.42041c.41406,0,.75-.33594.75-.75s-.33594-.75-.75-.75h-3.42041c-.41357,0-.75-.33691-.75-.75V3.25c0-.41309.33643-.75.75-.75h4.75v3.25c0,1.24023,1.00928,2.25,2.25,2.25h3.25v.37695c0,.41406.33594.75.75.75s.75-.33594.75-.75v-1.50586c0-.5918-.23975-1.17188-.65869-1.59082ZM11.5,5.75v-3.13599c.05518.03223.11316.06018.15869.10571l3.62158,3.62109c.04565.04565.07385.10376.10602.15918h-3.13629c-.41357,0-.75-.33691-.75-.75Z" fill="var(--iconPrimary, #222)"/>
  <circle cx="15" cy="15" r="4.5" fill="var(--iconPrimary, #222)"/>
  <path d="M16.67725,15.85938l-1.05225-1.08911v-1.74683c0-.34473-.27979-.625-.625-.625s-.625.28027-.625.625v2c0,.02576.0116.04773.01465.07263.00647.05505.0116.10974.03271.16187.01776.04358.04797.07874.07471.11682.01898.02734.02936.05859.05322.08325l1.22754,1.27051c.12305.12695.28613.19043.44971.19043.15625,0,.31299-.05859.43408-.17578.24854-.23926.25537-.63477.01562-.88379Z" fill="#fff"/>
</svg>