<?xml version="1.0" encoding="UTF-8"?>
<svg id="e" data-name="ICONS" xmlns="http://www.w3.org/2000/svg" width="20" height="20" viewBox="0 0 20 20">
  <path d="M16.34082,5.28027l-3.62109-3.62109c-.41895-.41895-.99902-.65918-1.59082-.65918h-5.87891c-1.24023,0-2.25,1.00977-2.25,2.25v12.5c0,1.24023,1.00977,2.25,2.25,2.25h9.5c1.24023,0,2.25-1.00977,2.25-2.25V6.87109c0-.5918-.24023-1.17188-.65918-1.59082ZM15.28027,6.34082c.04565.04565.07373.10376.10596.15918h-3.13623c-.41309,0-.75-.33691-.75-.75v-3.13623c.05542.0321.11353.0603.15918.10596l3.62109,3.62109ZM14.75,16.5H5.25c-.41309,0-.75-.33691-.75-.75V3.25c0-.41309.33691-.75.75-.75h4.75v3.25c0,1.24023,1.00977,2.25,2.25,2.25h3.25v7.75c0,.41309-.33691.75-.75.75Z" fill="var(--iconPrimary, #222)"/>
  <path d="M13.62793,11.62207c-.67358-.67212-1.68311-.78906-2.48486-.37024l-3.95166-3.94421c-.24414-.24414-.63965-.24316-.88379.00098s-.24316.63965.00098.88379l.18237.18188-.55835.55835c-.24316.24414-.24316.64062,0,.88477.12207.12207.28223.18262.44238.18262s.32031-.06055.44238-.18262l.55908-.55908.61572.61462-.55957.55969c-.24316.24414-.24316.64062,0,.88477.12207.12207.28223.18262.44238.18262s.32031-.06055.44238-.18262l.56055-.56055,1.37842,1.37573c-.16162.30347-.25635.63916-.25635.99243,0,.56738.2207,1.10059.62207,1.50293.41504.41406.95898.62109,1.50293.62109s1.08789-.20703,1.50293-.62109c.40137-.40234.62207-.93555.62207-1.50293s-.2207-1.10059-.62207-1.50293ZM12.74316,13.74316c-.33984.3418-.89648.3418-1.23633,0-.16602-.16504-.25684-.38477-.25684-.61816s.09082-.45312.25684-.61816c.16992-.1709.39453-.25586.61816-.25586s.44824.08496.61816.25586c.16602.16504.25684.38477.25684.61816s-.09082.45312-.25684.61816Z" fill="var(--iconPrimary, #222)"/>
</svg>