<?xml version="1.0" encoding="UTF-8"?>
<svg id="e" data-name="ICONS" xmlns="http://www.w3.org/2000/svg" width="20" height="20" viewBox="0 0 20 20">
  <path d="M8.47852,17.5h-2.73047c-1.24023,0-2.25-1.00977-2.25-2.25V5.75c0-1.24023,1.00977-2.25,2.25-2.25h4.31348c.81836,0,1.58887.36035,2.1123.98926l2.6875,3.22363c.19141.23242.3418.48828.44922.76465.09082.23047.06055.49121-.0791.69531-.13965.20508-.37109.32715-.61914.32715h-2.86426c-1.24023,0-2.25-1.00977-2.25-2.25v-2.25h-3.75c-.41309,0-.75.33691-.75.75v9.5c0,.41309.33691.75.75.75h2.73047c.41406,0,.75.33594.75.75s-.33594.75-.75.75ZM10.99805,5.42285v1.82715c0,.41309.33691.75.75.75h1.39941l-2.12598-2.5498c-.00781-.00977-.01562-.01855-.02344-.02734Z" fill="var(--iconPrimary, #222)"/>
  <path d="M1.24805,13.5c-.41406,0-.75-.33594-.75-.75V2.75C.49805,1.50977,1.50781.5,2.74805.5h6c.41406,0,.75.33594.75.75s-.33594.75-.75.75H2.74805c-.41309,0-.75.33691-.75.75v10c0,.41406-.33594.75-.75.75Z" fill="var(--iconPrimary, #222)"/>
  <circle cx="15" cy="15" r="4.5" fill="var(--iconPrimary, #222)"/>
  <path d="M16.67676,15.85938l-1.05176-1.08862v-1.74731c0-.34473-.28027-.625-.625-.625s-.625.28027-.625.625v2c0,.02661.01196.04956.01526.07532.00671.05383.01147.10754.0321.15869.01904.04675.0509.08484.08008.12512.0177.02454.02661.05298.04834.07544l1.22754,1.27051c.12207.12695.28613.19043.44922.19043.15625,0,.3125-.05859.43457-.17578.24805-.23926.25488-.63477.01465-.88379Z" fill="#fff"/>
</svg>