<?xml version="1.0" encoding="UTF-8"?>
<svg   xmlns="http://www.w3.org/2000/svg" width="20" height="20" viewBox="0 0 20 20">
  <path d="M11.06445,13.93457c-.09766,0-.19629-.01855-.29199-.05957-.38184-.16113-.56055-.60059-.39844-.98242.23926-.56738.58203-1.0752,1.01855-1.51074.43359-.43457.94141-.77734,1.50879-1.0166.38281-.16406.82227.0166.98242.39844.16211.38184-.0166.82129-.39844.98242-.3877.16406-.73535.39844-1.03223.69629-.2998.29883-.53418.64648-.69824,1.03418-.12012.28613-.39844.45801-.69043.45801Z" fill="var(--iconPrimary, #222)" stroke-width="0"/>
  <path d="M13.19336,19.17676c-.09766,0-.19629-.01855-.29199-.05957-.56738-.23926-1.0752-.58203-1.51074-1.01855-.43457-.43359-.77734-.94141-1.0166-1.50879-.16211-.38184.0166-.82129.39844-.98242.38184-.16309.82129.0166.98242.39844.16406.3877.39844.73535.69629,1.03223.29883.2998.64648.53418,1.03418.69824.38184.16113.56055.60059.39844.98242-.12012.28613-.39844.45801-.69043.45801Z" fill="var(--iconPrimary, #222)" stroke-width="0"/>
  <path d="M16.30664,19.17676c-.29199,0-.57031-.17188-.69043-.45801-.16211-.38184.0166-.82129.39844-.98242.3877-.16406.73535-.39844,1.03223-.69629.2998-.29883.53418-.64648.69824-1.03418.16016-.38184.60156-.56055.98242-.39844.38184.16113.56055.60059.39844.98242-.23926.56738-.58203,1.0752-1.01855,1.51074-.43359.43457-.94141.77734-1.50879,1.0166-.0957.04102-.19434.05957-.29199.05957Z" fill="var(--iconPrimary, #222)" stroke-width="0"/>
  <path d="M18.43555,13.93457c-.29199,0-.57031-.17188-.69043-.45801-.16406-.3877-.39844-.73535-.69629-1.03223-.29883-.2998-.64648-.53418-1.03418-.69824-.38184-.16113-.56055-.60059-.39844-.98242.16113-.38184.60059-.56152.98242-.39844.56738.23926,1.0752.58203,1.51074,1.01855.43457.43359.77734.94141,1.0166,1.50879.16211.38184-.0166.82129-.39844.98242-.0957.04102-.19434.05957-.29199.05957Z" fill="var(--iconPrimary, #222)" stroke-width="0"/>
  <path d="M16.34082,5.28027l-3.62109-3.62109c-.41895-.41895-.99902-.65918-1.59082-.65918h-5.87891c-1.24023,0-2.25,1.00977-2.25,2.25v12.5c0,1.24023,1.00977,2.25,2.25,2.25h3.38574c.41406,0,.75-.33594.75-.75s-.33594-.75-.75-.75h-3.38574c-.41309,0-.75-.33691-.75-.75V3.25c0-.41309.33691-.75.75-.75h4.75v3.25c0,1.24023,1.00977,2.25,2.25,2.25h3.25v.34863c0,.41406.33594.75.75.75s.75-.33594.75-.75v-1.47754c0-.5918-.24023-1.17188-.65918-1.59082ZM11.5,5.75v-3.13623c.05542.0321.11353.0603.15918.10596l3.62109,3.62109c.04565.04565.07385.10376.10596.15918h-3.13623c-.41309,0-.75-.33691-.75-.75Z" fill="var(--iconPrimary, #222)" stroke-width="0"/>
  <path d="M14.75,16.625c-1.03418,0-1.875-.84082-1.875-1.875s.84082-1.875,1.875-1.875,1.875.84082,1.875,1.875-.84082,1.875-1.875,1.875ZM14.75,14.125c-.34473,0-.625.28027-.625.625s.28027.625.625.625.625-.28027.625-.625-.28027-.625-.625-.625Z" fill="var(--iconPrimary, #222)" stroke-width="0"/>
</svg>