<?xml version="1.0" encoding="UTF-8"?><svg id="f" xmlns="http://www.w3.org/2000/svg" width="20" height="20" viewBox="0 0 20 20"><path d="M16.75,17H3.25c-1.24072,0-2.25-1.00977-2.25-2.25V5.25c0-1.24023,1.00928-2.25,2.25-2.25h13.5c1.24072,0,2.25,1.00977,2.25,2.25v9.5c0,1.24023-1.00928,2.25-2.25,2.25ZM3.25,4.5c-.41357,0-.75.33691-.75.75v9.5c0,.41309.33643.75.75.75h13.5c.41357,0,.75-.33691.75-.75V5.25c0-.41309-.33643-.75-.75-.75H3.25Z" fill="var(--iconPrimary,#222)"/><path d="M8.37598,12.28809c-.34473,0-.625-.28027-.625-.625v-3.35645c0-.33496.26465-.61133.59961-.62402l.13477-.00586c.69043-.0293,1.55469-.06934,2.08594.58301.26465.3252.39062.79883.33594,1.26758-.05078.4375-.25293.8125-.57031,1.05664-.37402.28906-.86328.38281-1.33594.39941v.67969c0,.34473-.28027.625-.625.625ZM9.00098,8.91211v.82031c.33496-.0166.49609-.0791.57324-.13867.04688-.03516.08008-.11426.0918-.21094.01758-.15234-.02734-.28906-.06348-.33398-.08691-.10645-.32617-.13477-.60156-.13672Z" fill="var(--iconPrimary,#222)"/><path d="M13.8252,12.35352c-.46191,0-.875-.11426-1.23535-.34082-.65332-.41113-.9668-1.12207-1.04199-1.64941-.12012-.84766.18848-1.93164,1.14844-2.44141.6416-.34082,1.35449-.41016,2.11816-.2041.33398.08984.53125.43262.44141.76562-.08887.33398-.43359.53223-.76562.44141-.16602-.04395-.67188-.18262-1.20898.10156-.48535.25781-.53613.87207-.49512,1.16113.00684.05273.08496.52441.46973.76758.21582.13672.50391.17676.85449.125v-.40527h-.26465c-.34473,0-.625-.28027-.625-.625s.28027-.625.625-.625h.88965c.34473,0,.625.28027.625.625v1.52246c0,.27246-.17676.51367-.4375.5957-.39062.12402-.75684.18555-1.09766.18555Z" fill="var(--iconPrimary,#222)"/><path d="M5.05859,12.38477c-.04102,0-.08301-.00098-.12598-.00488-.34473-.02441-.60352-.32422-.57812-.66797.02441-.34473.33398-.60449.66895-.57812.125-.0332.16113-.16797.1582-.27734l-.00098-2.61621c0-.34473.28027-.625.625-.625s.625.28027.625.625v2.58789c.00586.09082.01953.74512-.43555,1.19238-.17285.1709-.47266.36426-.93652.36426Z" fill="var(--iconPrimary,#222)"/></svg>