<?xml version="1.0" encoding="UTF-8"?>
<svg id="f" data-name="ICONS" xmlns="http://www.w3.org/2000/svg" width="20" height="20" viewBox="0 0 20 20">
  <path d="M11.00195,10.75h2.61707c.32886,1.15063,1.37805,2,2.63293,2,1.5166,0,2.75-1.2334,2.75-2.75s-1.2334-2.75-2.75-2.75c-1.25488,0-2.30408.84937-2.63293,2h-2.61707v-1.32617c0-.11255-.0163-.22192-.03241-.3313l2.81842-2.81812c.29333.14038.61768.22559.96399.22559,1.24072,0,2.25-1.00977,2.25-2.25s-1.00928-2.25-2.25-2.25-2.25,1.00977-2.25,2.25c0,.34619.08514.67053.22552.96387l-2.50226,2.50195-2.06506-2.05957c-.42432-.42285-.98877-.65625-1.58838-.65625h-3.31982c-1.24072,0-2.25,1.00977-2.25,2.25v7.5c0,1.24023,1.00928,2.25,2.25,2.25h5.5c.86304,0,1.60522-.49402,1.98254-1.20886l1.99365,1.99365c-.14075.29358-.2262.61853-.2262.96521,0,1.24023,1.00928,2.25,2.25,2.25s2.25-1.00977,2.25-2.25-1.00928-2.25-2.25-2.25c-.34576,0-.66974.08472-.96271.22485l-2.78729-2.78735v-1.6875ZM16.25195,8.75c.68945,0,1.25.56055,1.25,1.25s-.56055,1.25-1.25,1.25-1.25-.56055-1.25-1.25.56055-1.25,1.25-1.25ZM14.75195,2c.41357,0,.75.33691.75.75s-.33643.75-.75.75-.75-.33691-.75-.75.33643-.75.75-.75ZM8.88715,7h-1.01215c-.48242,0-.875-.39258-.875-.875v-.97388c.0332.0238.07166.03833.10107.06763l1.78607,1.78125ZM8.75195,14H3.25195c-.41357,0-.75-.33691-.75-.75v-7.5c0-.41309.33643-.75.75-.75h2.49805v1.125c0,1.17188.95312,2.125,2.125,2.125h1.62695v5c0,.41309-.33643.75-.75.75ZM15.50195,17.25c0,.41309-.33643.75-.75.75s-.75-.33691-.75-.75.33643-.75.75-.75.75.33691.75.75Z" fill="var(--iconPrimary, #222)"/>
  <path d="M8.00195,11.75h-4c-.34521,0-.625.28027-.625.625s.27979.625.625.625h4c.34521,0,.625-.28027.625-.625s-.27979-.625-.625-.625Z" fill="var(--iconPrimary, #222)"/>
  <path d="M8.00195,9.75h-4c-.34521,0-.625.28027-.625.625s.27979.625.625.625h4c.34521,0,.625-.28027.625-.625s-.27979-.625-.625-.625Z" fill="var(--iconPrimary, #222)"/>
</svg>