<?xml version="1.0" encoding="UTF-8"?>
<svg xmlns="http://www.w3.org/2000/svg" width="20" height="20" viewBox="0 0 20 20">
  <path d="m12.02979,7.10083c-.04059-.04956-.08582-.09717-.12946-.14551-.08264-.27759-.22565-.53467-.43597-.74438l-3.14502-3.14355c-.6875-.6875-1.80664-.68848-2.49414.00098l-.47186.47168-1.83722-1.83691c-.29297-.29297-.76758-.29297-1.06055,0s-.29297.76758,0,1.06055l1.8371,1.83691-2.52606,2.52539h-.00049c-.33301.33398-.51611.77637-.51611,1.24805s.18359.91406.5166,1.24707l3.14355,3.14355c.3335.33301.77637.5166,1.24805.5166.47119,0,.91406-.18359,1.24756-.5166l4.05957-4.05859c.06641-.06665.12213-.14062.17639-.21509.1427,1.37427-.56628,2.02026-.68878,2.71265-.0863.53345.27631,1.03589.80988,1.12231.10809.01733.21838.0166.32623-.00244.56433-.05225.93994-.42358.90918-1.31055-.0307-.88696-.40491-3.22168-.96844-3.91211Zm-1.62549.54468l-4.05908,4.05859c-.13672.13477-.24023.13477-.37402,0l-3.14453-3.14355c-.06689-.06738-.07666-.14551-.07666-.18652s.00977-.12012.07764-.1875l2.52588-2.52539,1.63379,1.63379c.14648.14648.33838.21973.53027.21973s.38379-.07324.53027-.21973c.29297-.29297.29297-.76758,0-1.06055l-1.63367-1.63354.47205-.47192c.10156-.10352.26953-.10352.37305-.00098l3.14502,3.14453c.06738.06641.07715.14551.07715.18555,0,.04102-.00977.12012-.07715.1875Z" fill="var(--iconPrimary, #222)"/>
  <path d="m12.68311,4.2334c-.05957,0-.12061-.00684-.18115-.02246-.18164-.04492-.36572-.08398-.55371-.11426-.40869-.06738-.68506-.45312-.61816-.8623s.45166-.69141.8623-.61816c.22705.03809.45117.08496.6709.13965.40186.09961.64697.50586.54736.9082-.08496.3418-.39111.56934-.72754.56934Z" fill="var(--iconPrimary, #222)"/>
  <path d="m12.58301,17.27539c-.35547.09473-.72217.16113-1.09033.19531-.4126.03906-.71533.40527-.67627.81738.03662.38867.36328.67969.74561.67969.02393,0,.04736-.00098.07129-.00293.45117-.04297.90137-.12402,1.3374-.24023.3999-.10742.6377-.51855.53076-.91797-.10742-.40039-.51855-.6416-.91846-.53125Z" fill="var(--iconPrimary, #222)"/>
  <path d="m15.72559,6.08789c.14746.15332.34424.23047.5415.23047.18652,0,.37354-.06934.51904-.20898.29883-.28613.30908-.76074.02246-1.06055-.31348-.32617-.65479-.62891-1.01416-.89844-.33154-.24805-.80176-.18164-1.05029.14941s-.18115.80176.1499,1.0498c.29443.22168.57422.46973.83154.73828Z" fill="var(--iconPrimary, #222)"/>
  <path d="m8.85547,17.19824c-.35303-.1084-.69971-.24805-1.03076-.41309-.36768-.18359-.82031-.03418-1.00586.33594-.18506.37012-.03467.82129.33594,1.00586.40381.20215.82715.37207,1.2583.50488.07373.02246.14795.0332.22119.0332.32031,0,.61719-.20703.7168-.52832.12207-.39648-.09961-.81641-.49561-.93848Z" fill="var(--iconPrimary, #222)"/>
  <path d="m17.46191,9.38867c.07324.35449.38574.59766.7334.59766.05078,0,.10205-.00488.15332-.01562.40527-.08398.66602-.48145.58203-.88672-.0918-.44141-.2207-.87988-.38428-1.30078-.1499-.3877-.5874-.57812-.97021-.42871-.38623.14941-.57812.58398-.42822.96973.1333.34473.23926.70312.31396,1.06445Z" fill="var(--iconPrimary, #222)"/>
  <path d="m18.35352,11.44336c-.40527-.08301-.80029.1875-.87842.59473-.07031.3623-.1709.72266-.29883,1.06836-.14404.38867.0542.82031.44238.96387.08594.03223.17432.04688.26074.04688.30469,0,.59131-.18652.70312-.48926.15674-.42383.27979-.8623.36523-1.30664.07861-.40625-.1875-.7998-.59424-.87793Z" fill="var(--iconPrimary, #222)"/>
  <path d="m15.78369,15.35938c-.25439.27148-.53076.52246-.82275.74512-.32861.25195-.39111.72266-.13965,1.05176.14795.19238.37061.29395.59619.29395.15918,0,.31934-.05078.45557-.1543.35645-.27344.69482-.58008,1.00537-.91113.2832-.30273.26758-.77734-.03467-1.06055-.30176-.28125-.77686-.2666-1.06006.03516Z" fill="var(--iconPrimary, #222)"/>
  <path d="m5.14648,16.36426c-.21191,0-.42236-.08887-.57031-.2627-.14941-.1748-.29102-.35645-.42432-.54297-.2417-.33594-.16406-.80469.17236-1.0459.33691-.24023.80566-.16504,1.04639.17285.10889.15137.22412.2998.34521.44141.26953.31445.23242.78809-.08252,1.05762-.14111.12012-.31445.17969-.48682.17969Z" fill="var(--iconPrimary, #222)"/>
</svg>