<?xml version="1.0" encoding="UTF-8"?>
<svg   xmlns="http://www.w3.org/2000/svg" width="20" height="20" viewBox="0 0 20 20">
  <path d="M15.75,18.00004H4.25c-1.24023,0-2.25-1.00977-2.25-2.25V4.25004c0-1.24023,1.00977-2.25,2.25-2.25h11.5c1.24023,0,2.25,1.00977,2.25,2.25v11.5c0,1.24023-1.00977,2.25-2.25,2.25ZM4.25,3.50004c-.41309,0-.75.33691-.75.75v11.5c0,.41309.33691.75.75.75h11.5c.41309,0,.75-.33691.75-.75V4.25004c0-.41309-.33691-.75-.75-.75H4.25Z" fill="var(--iconPrimary, #222)"/>
  <path d="M14.375,5.00004H5.625c-.34473,0-.625.28027-.625.625v8.75c0,.34473.28027.625.625.625h8.75c.34473,0,.625-.28027.625-.625V5.62504c0-.34473-.28027-.625-.625-.625ZM7.13477,13.75004l6.61523-6.61523v2.23047l-4.38477,4.38477h-2.23047ZM6.25,10.63481l4.38477-4.38477h2.23047l-6.61523,6.61523v-2.23047ZM8.86523,6.25004l-2.61523,2.61523v-2.61523h2.61523ZM11.13477,13.75004l2.61523-2.61523v2.61523h-2.61523Z" fill="var(--iconPrimary, #222)"/>
</svg>