<?xml version="1.0" encoding="UTF-8"?>
<svg   xmlns="http://www.w3.org/2000/svg" width="20" height="20" viewBox="0 0 20 20">
  <path d="M19.04773,12.84033l-2.13928-2.13867c-.40436-.40405-1.09674-.16675-1.16803.40039l-.05371.42749-1.38318,1.38306c-.22003.22021-.52765.3291-.8371.29639l-1.164-.12256-.00085.00195c-.10907-.0188-.21704.00513-.29083.07935-.13806.13794-.10974.38965.06329.56226l1.45807,1.45776c-.02802.02124-.06079.03198-.0863.05737l-2.72607,2.72461c-.29297.29297-.29297.76758,0,1.06055.14648.14648.33838.21973.53027.21973s.38379-.07324.53027-.21973l2.72607-2.72461c.02545-.02539.03625-.05835.05731-.08643l1.45618,1.45654c.17297.17261.42505.20093.56207.06348.07422-.07446.09821-.18115.08002-.29126l.00214.00024-.1236-1.16504c-.0329-.31006.07611-.61816.29651-.83838l1.38367-1.38281.42657-.05347c.56757-.07104.80505-.76392.40051-1.16821Z" fill="var(--iconPrimary, #222)" stroke-width="0"/>
  <path d="M9.5,17H3.25c-1.24072,0-2.25-1.00977-2.25-2.25V5.25c0-1.24023,1.00928-2.25,2.25-2.25h13.5c1.24072,0,2.25,1.00977,2.25,2.25v3.75c0,.41406-.33594.75-.75.75s-.75-.33594-.75-.75v-3.75c0-.41309-.33643-.75-.75-.75H3.25c-.41357,0-.75.33691-.75.75v9.5c0,.41309.33643.75.75.75h6.25c.41406,0,.75.33594.75.75s-.33594.75-.75.75Z" fill="var(--iconPrimary, #222)" stroke-width="0"/>
  <path d="M15.25,7h-.5c-.41406,0-.75-.33594-.75-.75s.33594-.75.75-.75h.5c.41406,0,.75.33594.75.75s-.33594.75-.75.75Z" fill="var(--iconPrimary, #222)" stroke-width="0"/>
  <path d="M11.9165,7h-.5c-.41406,0-.75-.33594-.75-.75s.33594-.75.75-.75h.5c.41406,0,.75.33594.75.75s-.33594.75-.75.75Z" fill="var(--iconPrimary, #222)" stroke-width="0"/>
  <path d="M8.5835,7h-.5c-.41406,0-.75-.33594-.75-.75s.33594-.75.75-.75h.5c.41406,0,.75.33594.75.75s-.33594.75-.75.75Z" fill="var(--iconPrimary, #222)" stroke-width="0"/>
  <path d="M5.25,7h-.5c-.41406,0-.75-.33594-.75-.75s.33594-.75.75-.75h.5c.41406,0,.75.33594.75.75s-.33594.75-.75.75Z" fill="var(--iconPrimary, #222)" stroke-width="0"/>
  <path d="M8.5835,14.5h-.5c-.41406,0-.75-.33594-.75-.75s.33594-.75.75-.75h.5c.41406,0,.75.33594.75.75s-.33594.75-.75.75Z" fill="var(--iconPrimary, #222)" stroke-width="0"/>
  <path d="M5.25,14.5h-.5c-.41406,0-.75-.33594-.75-.75s.33594-.75.75-.75h.5c.41406,0,.75.33594.75.75s-.33594.75-.75.75Z" fill="var(--iconPrimary, #222)" stroke-width="0"/>
</svg>