<?xml version="1.0" encoding="UTF-8"?>
<svg xmlns="http://www.w3.org/2000/svg" width="20" height="20" viewBox="0 0 20 20">
  <path d="m10,10.3374c-.17578,0-.35254-.06201-.49414-.18555l-2.5-2.1875c-.31152-.27295-.34277-.74658-.07031-1.05811.27344-.31299.74707-.34277,1.05859-.0708l2.00586,1.75537,2.00586-1.75537c.31152-.27197.78418-.24219,1.05859.0708.27246.31152.24121.78516-.07031,1.05811l-2.5,2.1875c-.1416.12354-.31836.18555-.49414.18555Z" fill="var(--iconPrimary, #222)"/>
  <path d="m15.75,2H4.25c-1.24023,0-2.25,1.00928-2.25,2.25v11.5c0,1.24072,1.00977,2.25,2.25,2.25h11.5c1.24023,0,2.25-1.00928,2.25-2.25V4.25c0-1.24072-1.00977-2.25-2.25-2.25Zm-11.5,1.5h11.5c.41309,0,.75.33643.75.75v8H3.5V4.25c0-.41357.33691-.75.75-.75Zm7.5,10.25v2.75h-3.5v-2.75h3.5Zm-8.25,2v-2h3.25v2.75h-2.5c-.41309,0-.75-.33643-.75-.75Zm12.25.75h-2.5v-2.75h3.25v2c0,.41357-.33691.75-.75.75Z" fill="var(--iconPrimary, #222)"/>
</svg>