<?xml version="1.0" encoding="UTF-8"?>
<svg id="f" data-name="strokes" xmlns="http://www.w3.org/2000/svg" width="20" height="20" viewBox="0 0 20 20">
  <path d="M11.5,14.5h-3c-.41406,0-.75-.33594-.75-.75s.33594-.75.75-.75h3c.41406,0,.75.33594.75.75s-.33594.75-.75.75Z" fill="var(--iconPrimary, #222222)"/>
  <path d="M12.5,11.5h-5c-.41406,0-.75-.33594-.75-.75s.33594-.75.75-.75h5c.41406,0,.75.33594.75.75s-.33594.75-.75.75Z" fill="var(--iconPrimary, #222222)"/>
  <path d="M13.5,8.5h-7c-.41406,0-.75-.33594-.75-.75s.33594-.75.75-.75h7c.41406,0,.75.33594.75.75s-.33594.75-.75.75Z" fill="var(--iconPrimary, #222222)"/>
  <path d="M10,18.75c-4.8252,0-8.75-3.9248-8.75-8.75S5.1748,1.25,10,1.25s8.75,3.9248,8.75,8.75-3.9248,8.75-8.75,8.75ZM10,2.75c-3.99805,0-7.25,3.25195-7.25,7.25s3.25195,7.25,7.25,7.25,7.25-3.25195,7.25-7.25-3.25195-7.25-7.25-7.25Z" fill="var(--iconPrimary, #222222)"/>
</svg>