<?xml version="1.0" encoding="UTF-8"?>
<svg id="f" data-name="ICONS" xmlns="http://www.w3.org/2000/svg" width="20" height="20" viewBox="0 0 20 20">
  <path d="M7.24805,17.57715c-.32129,0-.6416-.08984-.92578-.26758-.51465-.32129-.82227-.87598-.82227-1.4834v-6.5459L1.66211,4.86426c-.44141-.5625-.51562-1.27246-.2168-1.88184.2959-.60645.89746-.98242,1.57031-.98242h10.9707c.67773.00195,1.2793.38184,1.57227.99023.29395.6084.2168,1.31543-.20117,1.8457l-3.85742,4.44434v1.96973c0,.41406-.33594.75-.75.75s-.75-.33594-.75-.75v-2.25c0-.18066.06543-.35547.18359-.49219l4.01855-4.62793c.0625-.08008.03223-.18457.00586-.23828-.02539-.05273-.08789-.1416-.22461-.1416H3.01855c-.13672,0-.2002.08887-.22656.1416-.02637.05371-.05762.16016.02734.26855l3.99707,4.59766c.11816.13672.18359.31152.18359.49219v6.82617c0,.12012.07324.18457.11719.21191.04492.02734.13477.06445.24219.0127l1.93066-.94727c.37402-.18164.82129-.02734,1.00391.34375.18164.37207.02832.82129-.34375,1.00391l-1.93164.94727c-.24512.11914-.50879.17871-.77051.17871Z" fill="var(--iconPrimary, #222)"/>
  <path d="M15.25356,20c-.16895,0-.3418-.03418-.50879-.10645-.58008-.25-.87402-.85156-.71484-1.46289l.6543-2.51367h-2.13574c-.45215,0-.86914-.24512-1.09082-.63867-.2207-.39453-.21191-.87891.02441-1.26367l3.54004-5.77539c.33008-.53906.96582-.74609,1.55176-.49902.58203.24512.88086.84375.72656,1.45703l-.68359,2.71973h2.13281c.45508,0,.87402.24707,1.09375.64551.2207.39746.20703.88477-.03418,1.26953l-3.51172,5.5791c-.23828.37891-.62988.58887-1.04395.58887ZM12.9938,14.41699h2.01465c.39062,0,.75098.17773.98926.48633.23828.30957.31836.70312.21973,1.08008l-.3291,1.26172,2.40918-3.82812h-2.00098c-.3877,0-.74707-.1748-.98535-.48047-.23926-.30566-.32129-.69727-.22754-1.07324l.36328-1.44727-2.45312,4.00098Z" fill="var(--iconPrimary, #222)"/>
</svg>