<?xml version="1.0" encoding="UTF-8"?>
<svg id="e" data-name="ICONS" xmlns="http://www.w3.org/2000/svg" width="20" height="20" viewBox="0 0 20 20">
  <path d="M10,19.09473c-3.22559,0-5.84961-2.625-5.84961-5.85059,0-.66895.12988-1.41309.34668-1.99023.41504-1.10156,1.09375-2.11816,1.54297-2.79102.10938-.16504.20312-.30469.26953-.41406.6123-.99316.92188-2.03711.92188-3.10254,0-1.01562-.2793-2.02051-.80664-2.90723-.18262-.30664-.12402-.69824.13965-.93848s.6582-.26074.94727-.05176c2.29395,1.67383,3.60938,4.22559,3.60938,7.00293,0,.20898-.00781.41699-.02246.62305.45996-.86914.70996-1.84082.70996-2.83789,0-.42676-.04492-.85547-.13477-1.27441-.0752-.35059.10938-.70508.43945-.8457.33008-.14355.71289-.02832.91504.26855,1.95117,2.87988,2.82129,5.73535,2.82129,9.25879,0,3.22559-2.62402,5.85059-5.84961,5.85059ZM8.72363,4.60449c.00488.11426.00781.22754.00781.3418,0,1.34766-.38477,2.65527-1.14355,3.88867-.07422.12012-.17773.27637-.30078.45996-.41113.61621-1.03223,1.54688-1.38574,2.4873-.15234.40527-.25098.97852-.25098,1.46191,0,2.39844,1.95117,4.35059,4.34961,4.35059s4.34961-1.95215,4.34961-4.35059c0-2.2041-.37402-4.12012-1.18359-5.95215-.38281,1.93066-1.51562,3.67676-3.18945,4.84473-.2793.19531-.65723.17676-.91895-.04688-.25879-.22461-.33398-.5957-.18164-.90234.49414-.99414.74512-2.04883.74512-3.13574,0-1.22949-.31348-2.40625-.89746-3.44727Z" fill="var(--iconPrimary, #222)"/>
</svg>