<?xml version="1.0" encoding="UTF-8"?>
<svg xmlns="http://www.w3.org/2000/svg" width="20" height="20" viewBox="0 0 20 20">
  <path d="M15.8125,1H4.1875c-1.76038,0-3.1875,1.42291-3.1875,3.17841v11.14313c0,1.75543,1.42712,3.17847,3.1875,3.17847h11.625c1.76038,0,3.1875-1.42303,3.1875-3.17847V4.17841c0-1.75543-1.42712-3.17841-3.1875-3.17841ZM11.23468,6.92084h-3.31848v1.82129h2.99121c.06805,0,.10046.02264.10046.09393v1.30927c0,.07135-.03564.09399-.09399.09399h-2.99768v2.9361c0,.07135-.03241.1037-.1037.1037h-1.48102c-.05835,0-.08105-.04211-.08105-.1037v-7.65784c0-.06805.02271-.09399.09076-.09399h4.74768c.08099,0,.10046.02271.1134.10046l.13287,1.29303c.013.07135-.02264.10376-.10046.10376ZM13.89856,13.16571c0,.07776-.02264.11017-.11017.11017h-1.44537c-.08099,0-.11987-.03564-.11987-.1134v-5.74261c0-.06805.03241-.10046.10046-.10046h1.47449c.07782,0,.10046.01947.10046.09723v5.74908ZM14.1546,6.18842l-.73242-.16528c-.09393-.02271-.19769.00323-.26898.07129l-.5509.50879c-.21716.20093-.5639.00323-.49908-.28516l.16528-.73242c.02271-.09723-.00323-.19769-.07129-.26898l-.50879-.5509c-.20093-.21716,0-.56067.28839-.49585l.73242.16528c.09399.02264.19769-.00323.26898-.07129l.5509-.50885c.21716-.20087.5639-.00323.49908.28522l-.16528.73242c-.02264.09723.0033.19769.07135.26898l.50879.5509c.20093.21716,0,.56067-.28845.49585Z" fill="#6e6e6e"/>
  <path d="M15.8125,1H4.1875c-1.76038,0-3.1875,1.42291-3.1875,3.17841v11.14313c0,1.75543,1.42712,3.17847,3.1875,3.17847h11.625c1.76038,0,3.1875-1.42303,3.1875-3.17847V4.17841c0-1.75543-1.42712-3.17841-3.1875-3.17841ZM11.23468,6.92084h-3.31848v1.82129h2.99121c.06805,0,.10046.02264.10046.09393v1.30927c0,.07135-.03564.09399-.09399.09399h-2.99768v2.9361c0,.07135-.03241.1037-.1037.1037h-1.48102c-.05835,0-.08105-.04211-.08105-.1037v-7.65784c0-.06805.02271-.09399.09076-.09399h4.74768c.08099,0,.10046.02271.1134.10046l.13287,1.29303c.013.07135-.02264.10376-.10046.10376ZM13.89856,13.16571c0,.07776-.02264.11017-.11017.11017h-1.44537c-.08099,0-.11987-.03564-.11987-.1134v-5.74261c0-.06805.03241-.10046.10046-.10046h1.47449c.07782,0,.10046.01947.10046.09723v5.74908ZM14.1546,6.18842l-.73242-.16528c-.09393-.02271-.19769.00323-.26898.07129l-.5509.50879c-.21716.20093-.5639.00323-.49908-.28516l.16528-.73242c.02271-.09723-.00323-.19769-.07129-.26898l-.50879-.5509c-.20093-.21716,0-.56067.28839-.49585l.73242.16528c.09399.02264.19769-.00323.26898-.07129l.5509-.50885c.21716-.20087.5639-.00323.49908.28522l-.16528.73242c-.02264.09723.0033.19769.07135.26898l.50879.5509c.20093.21716,0,.56067-.28845.49585Z" fill="var(--iconPrimary, #222)"/>
</svg>