<?xml version="1.0" encoding="UTF-8"?>
<svg   xmlns="http://www.w3.org/2000/svg" width="20" height="20" viewBox="0 0 20 20">
  <path d="M12.41591,8.88019l.69546,1.83942,1.9643.09301c.40921.01938.57671.5349.25705.79111l-1.53448,1.22984.51854,1.8969c.10802.39517-.33051.71378-.67295.48893l-1.64383-1.07934-1.64383,1.07934c-.34244.22485-.78098-.09376-.67295-.48893l.51854-1.8969-1.53448-1.22984c-.31967-.2562-.15216-.77173.25705-.79111l1.9643-.09301.69546-1.83942c.14488-.38319.68694-.38319.83182,0Z" fill="var(--iconPrimary, #222)" stroke-width="0"/>
  <path d="M16.3418,18.5H7.6582c-1.18994,0-2.1582-.96777-2.1582-2.1582V7.6582c0-1.19043.96826-2.1582,2.1582-2.1582h8.68359c1.18994,0,2.1582.96777,2.1582,2.1582v8.68359c0,1.19043-.96826,2.1582-2.1582,2.1582ZM7.6582,7c-.36279,0-.6582.29492-.6582.6582v8.68359c0,.36328.29541.6582.6582.6582h8.68359c.36279,0,.6582-.29492.6582-.6582V7.6582c0-.36328-.29541-.6582-.6582-.6582H7.6582Z" fill="var(--iconPrimary, #222)" stroke-width="0"/>
  <path d="M3.75,14.68066c-1.24072,0-2.25-1.00977-2.25-2.25V3.75c0-1.24023,1.00928-2.25,2.25-2.25h8.75c1.24072,0,2.25,1.00977,2.25,2.25,0,.41406-.33594.75-.75.75s-.75-.33594-.75-.75c0-.41309-.33643-.75-.75-.75H3.75c-.41357,0-.75.33691-.75.75v8.68066c0,.41309.33643.75.75.75.41406,0,.75.33594.75.75s-.33594.75-.75.75Z" fill="var(--iconPrimary, #222)" stroke-width="0"/>
</svg>