<?xml version="1.0" encoding="UTF-8"?>
<svg id="g" data-name="ICONS" xmlns="http://www.w3.org/2000/svg" width="20" height="20" viewBox="0 0 20 20">
  <path d="M6.75,8h-2.5c-1.24072,0-2.25-1.00977-2.25-2.25v-1.5c0-1.24023,1.00928-2.25,2.25-2.25h2.5c1.24072,0,2.25,1.00977,2.25,2.25v1.5c0,1.24023-1.00928,2.25-2.25,2.25ZM4.25,3.5c-.41357,0-.75.33691-.75.75v1.5c0,.41309.33643.75.75.75h2.5c.41357,0,.75-.33691.75-.75v-1.5c0-.41309-.33643-.75-.75-.75h-2.5Z" fill="var(--iconPrimary, #222)"/>
  <path d="M15.75,18h-2c-.41406,0-.75-.33594-.75-.75s.33594-.75.75-.75h2c.41357,0,.75-.33691.75-.75V4.25c0-.41309-.33643-.75-.75-.75h-3.5c-.41357,0-.75.33691-.75.75v2.75c0,.41406-.33594.75-.75.75s-.75-.33594-.75-.75v-2.75c0-1.24023,1.00928-2.25,2.25-2.25h3.5c1.24072,0,2.25,1.00977,2.25,2.25v11.5c0,1.24023-1.00928,2.25-2.25,2.25Z" fill="var(--iconPrimary, #222)"/>
  <path d="M9.75,9h-5.5c-1.24072,0-2.25,1.00977-2.25,2.25v4.5c0,1.24023,1.00928,2.25,2.25,2.25h5.5c1.24072,0,2.25-1.00977,2.25-2.25v-4.5c0-1.24023-1.00928-2.25-2.25-2.25ZM10.5,11.25v1.5h-2.75v-2.25h2c.41357,0,.75.33691.75.75ZM4.25,10.5h2v2.25h-2.75v-1.5c0-.41309.33643-.75.75-.75ZM3.5,15.75v-1.5h2.75v2.25h-2c-.41357,0-.75-.33691-.75-.75ZM9.75,16.5h-2v-2.25h2.75v1.5c0,.41309-.33643.75-.75.75Z" fill="var(--iconPrimary, #222)"/>
</svg>