<?xml version="1.0" encoding="UTF-8"?>
<svg id="g" data-name="ICONS" xmlns="http://www.w3.org/2000/svg" width="20" height="20" viewBox="0 0 20 20">
  <path d="M15,10.52112c-2.48535,0-4.5,2.01477-4.5,4.5s2.01465,4.5,4.5,4.5,4.5-2.01477,4.5-4.5-2.01465-4.5-4.5-4.5ZM17.5,15.64648h-1.875v1.875c0,.34473-.28027.625-.625.625s-.625-.28027-.625-.625v-1.875h-1.875c-.34473,0-.625-.28027-.625-.625s.28027-.625.625-.625h1.875v-1.875c0-.34473.28027-.625.625-.625s.625.28027.625.625v1.875h1.875c.34473,0,.625.28027.625.625s-.28027.625-.625.625Z" fill="var(--iconPrimary, #222)"/>
  <path d="M6.75,8h-2.5c-1.24023,0-2.25-1.00977-2.25-2.25v-1.5c0-1.24023,1.00977-2.25,2.25-2.25h2.5c1.24023,0,2.25,1.00977,2.25,2.25v1.5c0,1.24023-1.00977,2.25-2.25,2.25ZM4.25,3.5c-.41309,0-.75.33691-.75.75v1.5c0,.41309.33691.75.75.75h2.5c.41309,0,.75-.33691.75-.75v-1.5c0-.41309-.33691-.75-.75-.75h-2.5Z" fill="var(--iconPrimary, #222)"/>
  <path d="M17.25,9.86719c-.41406,0-.75-.33594-.75-.75v-4.86719c0-.41309-.33691-.75-.75-.75h-3.5c-.41309,0-.75.33691-.75.75v3c0,.41406-.33594.75-.75.75s-.75-.33594-.75-.75v-3c0-1.24023,1.00977-2.25,2.25-2.25h3.5c1.24023,0,2.25,1.00977,2.25,2.25v4.86719c0,.41406-.33594.75-.75.75Z" fill="var(--iconPrimary, #222)"/>
  <path d="M11.34082,9.65918c-.4248-.4248-.99023-.65918-1.59082-.65918h-5.5c-1.24023,0-2.25,1.00977-2.25,2.25v4.5c0,1.24023,1.00977,2.25,2.25,2.25h5c.41406,0,.75-.33594.75-.75s-.33594-.75-.75-.75h-1.5v-2.25h1.25c.41406,0,.75-.33594.75-.75s-.33594-.75-.75-.75h-1.25v-2.25h2c.2002,0,.38867.07812.53027.21973.29297.29297.76758.29297,1.06055,0s.29297-.76758,0-1.06055ZM6.25,16.5h-2c-.41309,0-.75-.33691-.75-.75v-1.5h2.75v2.25ZM6.25,12.75h-2.75v-1.5c0-.41309.33691-.75.75-.75h2v2.25Z" fill="var(--iconPrimary, #222)"/>
</svg>