<?xml version="1.0" encoding="UTF-8"?>
<svg   xmlns="http://www.w3.org/2000/svg" width="20" height="20" viewBox="0 0 20 20">
  <path d="m15.75,2H4.5v-.25c0-.41406-.33594-.75-.75-.75s-.75.33594-.75.75v16.5c0,.41406.33594.75.75.75s.75-.33594.75-.75v-4.25h11.25c1.24023,0,2.25-1.00928,2.25-2.25v-7.5c0-1.24072-1.00977-2.25-2.25-2.25Zm.75,9.75c0,.41357-.33691.75-.75.75H4.5V3.5h11.25c.41309,0,.75.33643.75.75v7.5Z" fill="var(--iconPrimary, #222)"/>
  <path d="m11.56042,8l1.56946-1.56982c.29297-.29297.29297-.76758,0-1.06055s-.76758-.29297-1.06055,0l-1.56934,1.5697-1.56934-1.5697c-.29297-.29297-.76758-.29297-1.06055,0s-.29297.76758,0,1.06055l1.56946,1.56982-1.56946,1.56982c-.29297.29297-.29297.76758,0,1.06055.14648.14648.33789.21973.53027.21973s.38379-.07324.53027-.21973l1.56934-1.5697,1.56934,1.5697c.14648.14648.33789.21973.53027.21973s.38379-.07324.53027-.21973c.29297-.29297.29297-.76758,0-1.06055l-1.56946-1.56982Z" fill="var(--iconPrimary, #222)"/>
</svg>