<?xml version="1.0" encoding="UTF-8"?>
<svg xmlns="http://www.w3.org/2000/svg" width="16" height="16" viewBox="0 0 16 16">
  <path d="M12.6001,1.4502H3.75v-.05029c0-.41406-.33594-.75-.75-.75s-.75.33594-.75.75v13.2002c0,.41406.33594.75.75.75s.75-.33594.75-.75v-3.25h8.8501c1.0752,0,1.94971-.875,1.94971-1.9502V3.3999c0-1.0752-.87451-1.94971-1.94971-1.94971ZM11.1416,5.05127l-2.46484,3.36182c-.13379.18213-.3418.29443-.56738.30566-.0127.00049-.02539.00098-.0376.00098-.21191,0-.41504-.08984-.55762-.24854l-1.53516-1.70654c-.27686-.30762-.25195-.78223.05615-1.05908.30664-.27734.78125-.25244,1.05908.05615l.91797,1.02051,1.91943-2.61768c.24512-.33447.71484-.40527,1.04834-.16162.33398.24512.40625.71436.16162,1.04834Z" fill="var(--iconPrimary, #222)"/>
</svg>