<?xml version="1.0" encoding="UTF-8"?>
<svg xmlns="http://www.w3.org/2000/svg" width="16" height="16" viewBox="0 0 16 16">
  <path d="m12.59961,1.4502H3.75v-.05029c0-.41406-.33594-.75-.75-.75s-.75.33594-.75.75v13.2002c0,.41406.33594.75.75.75s.75-.33594.75-.75v-3.25h8.84961c1.0752,0,1.9502-.875,1.9502-1.9502V3.3999c0-1.0752-.875-1.94971-1.9502-1.94971Zm.4502,7.94971c0,.24805-.20215.4502-.4502.4502H3.75V2.9502h8.84961c.24805,0,.4502.20166.4502.44971v6Z" fill="var(--iconPrimary, #222)" stroke-width="0"/>
  <path d="m9.46045,6.40015l1.1499-1.14966c.29297-.29297.29297-.76758,0-1.06055s-.76758-.29297-1.06055,0l-1.1499,1.14966-1.1499-1.14966c-.29297-.29297-.76758-.29297-1.06055,0s-.29297.76758,0,1.06055l1.1499,1.14966-1.1499,1.14966c-.29297.29297-.29297.76758,0,1.06055.14648.14648.33789.21973.53027.21973s.38379-.07324.53027-.21973l1.1499-1.14966,1.1499,1.14966c.14648.14648.33789.21973.53027.21973s.38379-.07324.53027-.21973c.29297-.29297.29297-.76758,0-1.06055l-1.1499-1.14966Z" fill="var(--iconPrimary, #222)" stroke-width="0"/>
</svg>