<?xml version="1.0" encoding="UTF-8"?>
<svg   xmlns="http://www.w3.org/2000/svg" width="20" height="20" viewBox="0 0 20 20">
  <path d="m15.75,2H4.5v-.25c0-.41406-.33594-.75-.75-.75s-.75.33594-.75.75v16.5c0,.41406.33594.75.75.75s.75-.33594.75-.75v-4.25h11.25c1.24072,0,2.25-1.00928,2.25-2.25v-7.5c0-1.24072-1.00928-2.25-2.25-2.25Zm.75,9.75c0,.41357-.33643.75-.75.75H4.5V3.5h11.25c.41357,0,.75.33643.75.75v7.5Z" fill="var(--iconPrimary, #222)"/>
  <path d="m10.08984,10.71191c-.21191,0-.41504-.08984-.55762-.24854l-1.91895-2.1333c-.27686-.30762-.25195-.78223.05615-1.05908.30859-.27783.78271-.25146,1.05908.05615l1.30176,1.44727,2.53564-3.45801c.24512-.33447.71484-.40625,1.04834-.16162.33398.24512.40625.71436.16162,1.04834l-3.08105,4.20215c-.13379.18213-.34229.29443-.56738.30566-.0127.00049-.02539.00098-.0376.00098Z" fill="var(--iconPrimary, #222)"/>
</svg>