<?xml version="1.0" encoding="UTF-8"?>
<svg   xmlns="http://www.w3.org/2000/svg" width="20" height="20" viewBox="0 0 20 20">
  <path d="M10,18.75c-4.8252,0-8.75-3.9248-8.75-8.75S5.1748,1.25,10,1.25s8.75,3.9248,8.75,8.75-3.9248,8.75-8.75,8.75ZM10,2.75c-3.99805,0-7.25,3.25195-7.25,7.25s3.25195,7.25,7.25,7.25,7.25-3.25195,7.25-7.25-3.25195-7.25-7.25-7.25Z"/>
  <path d="M9.5957,15.99902c-.1748,0-.35156-.03613-.52148-.11133-.56738-.25391-.85156-.84668-.69043-1.44141l.64355-2.39258h-2.12793c-.45898,0-.87988-.24707-1.09863-.64551-.21484-.38965-.2002-.86621.03809-1.24219l3.54004-5.58398c.33496-.52539.99414-.72656,1.56543-.47363.57031.24805.86035.83789.70508,1.43457l-.67383,2.59277h2.125c.46191,0,.88379.25,1.10254.65137.21387.39453.19434.87305-.0498,1.24902l-3.51074,5.39453c-.2373.36523-.63379.56836-1.04688.56836ZM7.36914,10.55371h1.99023c.39551,0,.75879.17871.99707.49023.2334.30469.31055.69141.20996,1.06152l-.31641,1.17871,2.37402-3.64844h-1.97656c-.39355,0-.75586-.17676-.99414-.48535-.2334-.30176-.3125-.68555-.2168-1.05371l.35352-1.36133-2.4209,3.81836Z"/>
</svg>