<?xml version="1.0" encoding="UTF-8"?>
<svg   xmlns="http://www.w3.org/2000/svg" width="20" height="20" viewBox="0 0 20 20">
  <path d="M9.20215,18.76367c-.18262,0-.37012-.03711-.55078-.11621-.62598-.27051-.94238-.91992-.77051-1.5791l1.17383-4.50586-3.34863.06348c-.52441,0-1.00879-.28418-1.26465-.74121-.25684-.45801-.24512-1.01953.02832-1.4668L9.7002,1.88574c.35547-.58203,1.04297-.80664,1.67383-.53906.62988.26465.95312.91211.78613,1.57422l-1.20508,4.7959,3.33887-.06152c.52734,0,1.01465.28711,1.26953.74902s.23926,1.02637-.04199,1.47266l-5.19141,8.25098c-.25781.40918-.68066.63574-1.12793.63574ZM9.10254,11.12598c.45215,0,.87109.20508,1.14746.5625.27637.3584.37012.81445.25586,1.25195l-.92969,3.56836,4.62695-7.35352h-3.29688c-.4502,0-.86719-.20312-1.14355-.55859-.27637-.35449-.37207-.80859-.2627-1.24512l.96582-3.84473-4.7168,7.69434,3.35352-.0752Z" fill="var(--iconPrimary, #222)" stroke-width="0"/>
</svg>