<?xml version="1.0" encoding="UTF-8"?>
<svg id="e" data-name="ICONS" xmlns="http://www.w3.org/2000/svg" width="20" height="20" viewBox="0 0 20 20">
  <path d="M14.75,1H5.25c-1.24072,0-2.25,1.00977-2.25,2.25v13.5c0,1.24023,1.00928,2.25,2.25,2.25h9.5c1.24072,0,2.25-1.00977,2.25-2.25V3.25c0-1.24023-1.00928-2.25-2.25-2.25ZM15.5,16.75c0,.41309-.33643.75-.75.75H5.25c-.41357,0-.75-.33691-.75-.75V3.25c0-.41309.33643-.75.75-.75h9.5c.41357,0,.75.33691.75.75v13.5Z" fill="var(--iconPrimary, #222)"/>
  <path d="M13.25,13.5h-6.5c-.41406,0-.75.33594-.75.75s.33594.75.75.75h6.5c.41406,0,.75-.33594.75-.75s-.33594-.75-.75-.75Z" fill="var(--iconPrimary, #222)"/>
  <path d="M6.75,11h6.5c.26953,0,.51807-.14453.65137-.37793.1333-.23438.13135-.52148-.00586-.75391l-3.25-5.5c-.26953-.45703-1.02148-.45703-1.29102,0l-3.25,5.5c-.13721.23242-.13916.51953-.00586.75391.1333.2334.38184.37793.65137.37793ZM10,6.22461l1.93555,3.27539h-3.87109l1.93555-3.27539Z" fill="var(--iconPrimary, #222)"/>
</svg>