<?xml version="1.0" encoding="UTF-8"?>
<svg id="e" data-name="ICONS" xmlns="http://www.w3.org/2000/svg" width="20" height="20" viewBox="0 0 20 20">
  <path d="M17.25,4.5h-4.5c-.41406,0-.75-.33594-.75-.75s.33594-.75.75-.75h4.5c.41406,0,.75.33594.75.75s-.33594.75-.75.75Z" fill="var(--iconPrimary, #222)"/>
  <path d="M9.25,4.5h-2.5c-.41406,0-.75-.33594-.75-.75s.33594-.75.75-.75h2.5c.41406,0,.75.33594.75.75s-.33594.75-.75.75Z" fill="var(--iconPrimary, #222)"/>
  <path d="M17.25,10.75h-4.5c-.41406,0-.75-.33594-.75-.75s.33594-.75.75-.75h4.5c.41406,0,.75.33594.75.75s-.33594.75-.75.75Z" fill="var(--iconPrimary, #222)"/>
  <path d="M9.25,10.75h-2.5c-.41406,0-.75-.33594-.75-.75s.33594-.75.75-.75h2.5c.41406,0,.75.33594.75.75s-.33594.75-.75.75Z" fill="var(--iconPrimary, #222)"/>
  <path d="M17.25,17h-4.5c-.41406,0-.75-.33594-.75-.75s.33594-.75.75-.75h4.5c.41406,0,.75.33594.75.75s-.33594.75-.75.75Z" fill="var(--iconPrimary, #222)"/>
  <path d="M9.25,17h-2.5c-.41406,0-.75-.33594-.75-.75s.33594-.75.75-.75h2.5c.41406,0,.75.33594.75.75s-.33594.75-.75.75Z" fill="var(--iconPrimary, #222)"/>
  <circle cx="3" cy="3.75" r="1" fill="var(--iconPrimary, #222)"/>
  <circle cx="3" cy="10" r="1" fill="var(--iconPrimary, #222)"/>
  <circle cx="3" cy="16.25" r="1" fill="var(--iconPrimary, #222)"/>
</svg>