<?xml version="1.0" encoding="UTF-8"?>
<svg xmlns="http://www.w3.org/2000/svg" width="20" height="20" viewBox="0 0 20 20">
  <path id="b" data-name="Path 1029747" d="M9.25,17.5c0-.41421.33579-.75.75-.75s.75.33579.75.75-.33579.75-.75.75-.75-.33579-.75-.75Z" fill="var(--iconPrimary, #222)"/>
  <path id="c" data-name="Path 1029749" d="M9.25,14.5c0-.41421.33579-.75.75-.75s.75.33579.75.75c0,.41421-.33579.75-.75.75s-.75-.33579-.75-.75Z" fill="var(--iconPrimary, #222)"/>
  <path id="d" data-name="Path 1029751" d="M9.25,11.5c0-.41421.33579-.75.75-.75s.75.33579.75.75c0,.41421-.33579.75-.75.75s-.75-.33579-.75-.75Z" fill="var(--iconPrimary, #222)"/>
  <path id="e" data-name="Path 1029753" d="M9.25,8.5c0-.41421.33579-.75.75-.75s.75.33579.75.75c0,.41421-.33579.75-.75.75s-.75-.33579-.75-.75Z" fill="var(--iconPrimary, #222)"/>
  <path id="f" data-name="Path 1029755" d="M9.25,5.5c0-.41421.33579-.75.75-.75s.75.33579.75.75c0,.41421-.33579.75-.75.75s-.75-.33579-.75-.75Z" fill="var(--iconPrimary, #222)"/>
  <path id="g" data-name="Path 1029756" d="M9.25,2.5c0-.41421.33579-.75.75-.75s.75.33579.75.75-.33579.75-.75.75-.75-.33579-.75-.75Z" fill="var(--iconPrimary, #222)"/>
  <path d="M16.75,15h-2.5c-1.24023,0-2.25-1.00977-2.25-2.25v-5.5c0-1.24023,1.00977-2.25,2.25-2.25h2.5c1.24023,0,2.25,1.00977,2.25,2.25v5.5c0,1.24023-1.00977,2.25-2.25,2.25ZM14.25,6.5c-.41309,0-.75.33691-.75.75v5.5c0,.41309.33691.75.75.75h2.5c.41309,0,.75-.33691.75-.75v-5.5c0-.41309-.33691-.75-.75-.75h-2.5Z" fill="var(--iconPrimary, #222)"/>
  <rect x="1.75" y="5.75" width="5.5" height="8.5" rx="1.5" ry="1.5" fill="var(--iconPrimary, #222)" opacity=".2"/>
  <path d="M5.75,15h-2.5c-1.24023,0-2.25-1.00977-2.25-2.25v-5.5c0-1.24023,1.00977-2.25,2.25-2.25h2.5c1.24023,0,2.25,1.00977,2.25,2.25v5.5c0,1.24023-1.00977,2.25-2.25,2.25ZM3.25,6.5c-.41309,0-.75.33691-.75.75v5.5c0,.41309.33691.75.75.75h2.5c.41309,0,.75-.33691.75-.75v-5.5c0-.41309-.33691-.75-.75-.75h-2.5Z" fill="var(--iconPrimary, #222)"/>
</svg>