<?xml version="1.0" encoding="UTF-8"?>
<svg xmlns="http://www.w3.org/2000/svg" width="20" height="20" viewBox="0 0 20 20">
  <path id="b" data-name="Path 1029747" d="M2.5,9.25c.41421,0,.75.33579.75.75s-.33579.75-.75.75-.75-.33579-.75-.75.33579-.75.75-.75Z" fill="var(--iconPrimary, #222)"/>
  <path id="c" data-name="Path 1029749" d="M5.5,9.25c.41421,0,.75.33579.75.75s-.33579.75-.75.75-.75-.33579-.75-.75.33579-.75.75-.75Z" fill="var(--iconPrimary, #222)"/>
  <path id="d" data-name="Path 1029751" d="M8.5,9.25c.41421,0,.75.33579.75.75s-.33579.75-.75.75-.75-.33579-.75-.75.33579-.75.75-.75Z" fill="var(--iconPrimary, #222)"/>
  <path id="e" data-name="Path 1029753" d="M11.5,9.25c.41421,0,.75.33579.75.75s-.33579.75-.75.75-.75-.33579-.75-.75.33579-.75.75-.75Z" fill="var(--iconPrimary, #222)"/>
  <path id="f" data-name="Path 1029755" d="M14.5,9.25c.41421,0,.75.33579.75.75s-.33579.75-.75.75-.75-.33579-.75-.75.33579-.75.75-.75Z" fill="var(--iconPrimary, #222)"/>
  <path id="g" data-name="Path 1029756" d="M17.5,9.25c.41421,0,.75.33579.75.75s-.33579.75-.75.75-.75-.33579-.75-.75.33579-.75.75-.75Z" fill="var(--iconPrimary, #222)"/>
  <rect x="7.25" y=".25" width="5.5" height="8.5" rx="1.5" ry="1.5" transform="translate(14.5 -5.5) rotate(90)" fill="var(--iconPrimary, #222)" opacity=".2"/>
  <path d="M12.75,8h-5.5c-1.24023,0-2.25-1.00977-2.25-2.25v-2.5c0-1.24023,1.00977-2.25,2.25-2.25h5.5c1.24023,0,2.25,1.00977,2.25,2.25v2.5c0,1.24023-1.00977,2.25-2.25,2.25ZM7.25,2.5c-.41309,0-.75.33691-.75.75v2.5c0,.41309.33691.75.75.75h5.5c.41309,0,.75-.33691.75-.75v-2.5c0-.41309-.33691-.75-.75-.75h-5.5Z" fill="var(--iconPrimary, #222)"/>
  <path d="M12.75,19h-5.5c-1.24023,0-2.25-1.00977-2.25-2.25v-2.5c0-1.24023,1.00977-2.25,2.25-2.25h5.5c1.24023,0,2.25,1.00977,2.25,2.25v2.5c0,1.24023-1.00977,2.25-2.25,2.25ZM7.25,13.5c-.41309,0-.75.33691-.75.75v2.5c0,.41309.33691.75.75.75h5.5c.41309,0,.75-.33691.75-.75v-2.5c0-.41309-.33691-.75-.75-.75h-5.5Z" fill="var(--iconPrimary, #222)"/>
</svg>