<?xml version="1.0" encoding="UTF-8"?>
<svg   xmlns="http://www.w3.org/2000/svg" width="20" height="20" viewBox="0 0 20 20">
  <path d="M10.75,15.25004h-1.5c-1.10254,0-2-.89746-2-2v-1.5c0-1.10254.89746-2,2-2h1.5c1.10254,0,2,.89746,2,2v1.5c0,1.10254-.89746,2-2,2ZM9.25,11.25004c-.27539,0-.5.22461-.5.5v1.5c0,.27539.22461.5.5.5h1.5c.27539,0,.5-.22461.5-.5v-1.5c0-.27539-.22461-.5-.5-.5h-1.5Z" fill="var(--iconPrimary, #222)"/>
  <path d="M10.75,8.50004h-1.5c-1.10254,0-2-.89746-2-2v-1.5c0-1.10254.89746-2,2-2h1.5c1.10254,0,2,.89746,2,2v1.5c0,1.10254-.89746,2-2,2ZM9.25,4.50004c-.27539,0-.5.22461-.5.5v1.5c0,.27539.22461.5.5.5h1.5c.27539,0,.5-.22461.5-.5v-1.5c0-.27539-.22461-.5-.5-.5h-1.5Z" fill="var(--iconPrimary, #222)"/>
  <path d="M4,15.25004h-1.5c-1.10254,0-2-.89746-2-2v-1.5c0-1.10254.89746-2,2-2h1.5c1.10254,0,2,.89746,2,2v1.5c0,1.10254-.89746,2-2,2ZM2.5,11.25004c-.27539,0-.5.22461-.5.5v1.5c0,.27539.22461.5.5.5h1.5c.27539,0,.5-.22461.5-.5v-1.5c0-.27539-.22461-.5-.5-.5h-1.5Z" fill="var(--iconPrimary, #222)"/>
  <path d="M17.5,15.25004h-1.5c-1.10254,0-2-.89746-2-2v-1.5c0-1.10254.89746-2,2-2h1.5c1.10254,0,2,.89746,2,2v1.5c0,1.10254-.89746,2-2,2ZM16,11.25004c-.27539,0-.5.22461-.5.5v1.5c0,.27539.22461.5.5.5h1.5c.27539,0,.5-.22461.5-.5v-1.5c0-.27539-.22461-.5-.5-.5h-1.5Z" fill="var(--iconPrimary, #222)"/>
</svg>