<?xml version="1.0" encoding="UTF-8"?>
<svg id="e" data-name="ICONS" xmlns="http://www.w3.org/2000/svg" width="20" height="20" viewBox="0 0 20 20">
  <path d="M14.75,19H5.25c-1.24023,0-2.25-1.00977-2.25-2.25V3.25c0-1.24023,1.00977-2.25,2.25-2.25h9.5c1.24023,0,2.25,1.00977,2.25,2.25v13.5c0,1.24023-1.00977,2.25-2.25,2.25ZM5.25,2.5c-.41309,0-.75.33691-.75.75v13.5c0,.41309.33691.75.75.75h9.5c.41309,0,.75-.33691.75-.75V3.25c0-.41309-.33691-.75-.75-.75H5.25Z" fill="var(--iconPrimary, #222)"/>
  <path d="M11.25,13h-4.5c-.41406,0-.75-.33594-.75-.75s.33594-.75.75-.75h4.5c.41406,0,.75.33594.75.75s-.33594.75-.75.75Z" fill="var(--iconPrimary, #222)"/>
  <path d="M13.25,16h-6.5c-.41406,0-.75-.33594-.75-.75s.33594-.75.75-.75h6.5c.41406,0,.75.33594.75.75s-.33594.75-.75.75Z" fill="var(--iconPrimary, #222)"/>
  <path d="M11.53516,5.11426c-.49463,0-.95264.14673-1.34644.38843l-.90356-1.56519c-.22266-.38672-.85938-.38672-1.08203,0l-1.99414,3.4541c-.1123.19336-.1123.43164,0,.625.11133.19336.31738.3125.54102.3125h2.28027c.28174,1.12524,1.2937,1.96484,2.50488,1.96484,1.42773,0,2.58984-1.16211,2.58984-2.58984s-1.16211-2.58984-2.58984-2.58984ZM7.83203,7.0791l.91211-1.5791.54395.94165.36816.63745h-1.82422ZM11.53516,9.04395c-.50928,0-.93799-.29565-1.16455-.71484h.36768c.22363,0,.42969-.11914.54102-.3125.1123-.19336.1123-.43164,0-.625l-.45752-.79248c.20972-.13574.44531-.23486.71338-.23486.73926,0,1.33984.60059,1.33984,1.33984s-.60059,1.33984-1.33984,1.33984Z" fill="var(--iconPrimary, #222)"/>
</svg>