<?xml version="1.0" encoding="UTF-8"?>
<svg id="f" data-name="ICONS" xmlns="http://www.w3.org/2000/svg" width="20" height="20" viewBox="0 0 20 20">
  <path d="M16.75,5h-5.96387c-.21777,0-.42383-.09473-.56689-.25879l-1.70361-1.96484c-.42773-.49316-1.04736-.77637-1.7002-.77637h-3.56543c-1.24072,0-2.25,1.00977-2.25,2.25v10.5c0,1.24023,1.00928,2.25,2.25,2.25h4.93213c.41406,0,.75-.33594.75-.75s-.33594-.75-.75-.75H3.25c-.41357,0-.75-.33691-.75-.75V6.5h14.25c.41357,0,.75.33691.75.75v.93945c0,.41406.33594.75.75.75s.75-.33594.75-.75v-.93945c0-1.24023-1.00928-2.25-2.25-2.25ZM2.5,4.25c0-.41309.33643-.75.75-.75h3.56543c.21777,0,.42383.09473.56689.25879l1.07617,1.24121H2.5v-.75Z" fill="var(--iconPrimary, #222)"/>
  <g>
    <path d="M15.72021,15.25h-2.47461c-.41406,0-.75.33594-.75.75s.33594.75.75.75h2.47461c.41406,0,.75-.33594.75-.75s-.33594-.75-.75-.75Z" fill="var(--iconPrimary, #222)"/>
    <path d="M20,11.95703c0-1.0791-.87793-1.95703-1.95703-1.95703h-7.08545c-1.07959,0-1.95752.87793-1.95752,2.04297,0,.72266.39838,1.34814.98291,1.68701v3.52002c0,1.24023,1.00928,2.25,2.25,2.25h4.5c1.24072,0,2.25-1.00977,2.25-2.25v-3.50439c.60309-.3396,1.01709-.99316,1.01709-1.78857ZM10.95752,11.5h7.08545c.25195,0,.45703.20508.45703.54297,0,.25195-.20508.45703-.45703.45703h-7.08545c-.25244,0-.45752-.20508-.45752-.54297,0-.25195.20508-.45703.45752-.45703ZM16.73291,18h-4.5c-.41357,0-.75-.33691-.75-.75v-3.25h6v3.25c0,.41309-.33643.75-.75.75Z" fill="var(--iconPrimary, #222)"/>
  </g>
</svg>