<?xml version="1.0" encoding="UTF-8"?>
<svg xmlns="http://www.w3.org/2000/svg" width="14" height="14" viewBox="0 0 14 14">
  <path d="M11.5249,3h-3.88867c-.17969,0-.35107-.07715-.47852-.22266l-1.08252-1.1748c-.35449-.38281-.85693-.60254-1.37793-.60254h-2.22217c-1.03369,0-1.875.84082-1.875,1.875v7.25c0,1.03418.84131,1.875,1.875,1.875h9.0498c1.03369,0,1.875-.84082,1.875-1.875v-5.25c0-1.03418-.84131-1.875-1.875-1.875ZM2.4751,2.25h2.22217c.17383,0,.3418.07324.45947.20117l.73615.79883H1.8501v-.375c0-.34473.28027-.625.625-.625ZM12.1499,10.125c0,.34473-.28027.625-.625.625H2.4751c-.34473,0-.625-.28027-.625-.625v-5.875h9.6748c.34473,0,.625.28027.625.625v5.25Z" fill="var(--iconPrimary, #222)"/>
</svg>