<?xml version="1.0" encoding="UTF-8"?>
<svg xmlns="http://www.w3.org/2000/svg" width="14" height="14" viewBox="0 0 14 14">
  <path d="M2.5,12h-.0249c-1.03369,0-1.875-.84082-1.875-1.875V2.875c0-1.03418.84131-1.875,1.875-1.875h2.22217c.521,0,1.02344.21973,1.37793.60254l1.08252,1.1748c.12744.14551.29883.22266.47852.22266h3.88867c.34521,0,.625.28027.625.625s-.27979.625-.625.625h-3.88867c-.53857,0-1.05176-.23145-1.40771-.63574l-1.07178-1.16309c-.11768-.12793-.28564-.20117-.45947-.20117h-2.22217c-.34473,0-.625.28027-.625.625v7.25c0,.2002.09473.37891.2417.49316l1.30664-3.95605c.25342-.76953.96924-1.28711,1.78027-1.28711h6.76416c.52734,0,1.00732.24512,1.31689.67285.30469.42188.38916.96777.22656,1.46191l-1.05859,3.20312c-.25342.76953-.96924,1.28711-1.78027,1.28711H2.5ZM3.36475,10.75h7.28271c.27051,0,.50879-.17285.59326-.42871l1.05859-3.2041c.05371-.16406-.01904-.29004-.05273-.33691-.04199-.05762-.13721-.15527-.30371-.15527h-6.76416c-.27051,0-.50879.17285-.59326.42871l-1.2207,3.69629Z" fill="var(--iconPrimary, #222)"/>
</svg>