<?xml version="1.0" encoding="UTF-8"?>
<svg id="f" data-name="ICONS" xmlns="http://www.w3.org/2000/svg" width="20" height="20" viewBox="0 0 20 20">
  <path d="M15.95703,1H4.04297c-1.12646,0-2.04297,1.00977-2.04297,2.25v.5c0,1.22412.89374,2.21936,2,2.24524v9.75476c0,1.24023,1.00928,2.25,2.25,2.25h10c.41406,0,.75-.33594.75-.75s-.33594-.75-.75-.75H6.25c-.41357,0-.75-.33691-.75-.75v-1.75h10.75c.41406,0,.75-.33594.75-.75s-.33594-.75-.75-.75H5.5v-2.5h10.75c.41406,0,.75-.33594.75-.75s-.33594-.75-.75-.75H5.5v-2.5h10.45703c1.12646,0,2.04297-1.00977,2.04297-2.25v-.5c0-1.24023-.9165-2.25-2.04297-2.25ZM16.5,3.75c0,.40625-.24854.75-.54297.75H4.04297c-.29443,0-.54297-.34375-.54297-.75v-.5c0-.40625.24854-.75.54297-.75h11.91406c.29443,0,.54297.34375.54297.75v.5Z" fill="var(--iconPrimary, #222)"/>
</svg>