<?xml version="1.0" encoding="UTF-8"?>
<svg xmlns="http://www.w3.org/2000/svg" width="22" height="22" viewBox="0 0 22 22">
  <path d="M8.25,17.18652c-1.92969,0-3.5-1.57031-3.5-3.5v-5.5c0-1.92969,1.57031-3.5,3.5-3.5h5.5c1.92969,0,3.5,1.57031,3.5,3.5v5.5c0,1.92969-1.57031,3.5-3.5,3.5h-5.5ZM13.25,13.18652v-4.5h-4.5v4.5h4.5Z" fill="#000" opacity=".6"/>
  <path d="M13.75,15.93652h-5.5c-1.24072,0-2.25-1.00928-2.25-2.25v-5.5c0-1.24072,1.00928-2.25,2.25-2.25h5.5c1.24072,0,2.25,1.00928,2.25,2.25v5.5c0,1.24072-1.00928,2.25-2.25,2.25ZM8.25,7.43652c-.41357,0-.75.33643-.75.75v5.5c0,.41357.33643.75.75.75h5.5c.41357,0,.75-.33643.75-.75v-5.5c0-.41357-.33643-.75-.75-.75h-5.5Z" fill="#fff"/>
  <path d="M3.25,21.25c-1.37842,0-2.5-1.12158-2.5-2.5v-2.25c0-1.10303.89697-2,2-2s2,.89697,2,2v.75h.75c1.10303,0,2,.89697,2,2s-.89697,2-2,2h-2.25Z" fill="#000" opacity=".6"/>
  <path d="M5.5,20h-2.25c-.68945,0-1.25-.56055-1.25-1.25v-2.25c0-.41406.33594-.75.75-.75s.75.33594.75.75v2h2c.41406,0,.75.33594.75.75s-.33594.75-.75.75Z" fill="#fff" stroke-width="0"/>
  <path d="M16.5,21.25c-1.10303,0-2-.89697-2-2s.89697-2,2-2h.75v-.75c0-1.10303.89697-2,2-2s2,.89697,2,2v2.25c0,1.37842-1.12158,2.5-2.5,2.5h-2.25Z" fill="#000" opacity=".6"/>
  <path d="M18.75,20h-2.25c-.41406,0-.75-.33594-.75-.75s.33594-.75.75-.75h2v-2c0-.41406.33594-.75.75-.75s.75.33594.75.75v2.25c0,.68945-.56055,1.25-1.25,1.25Z" fill="#fff"/>
  <path d="M19.25,7.5c-1.10303,0-2-.89697-2-2v-.75h-.75c-1.10303,0-2-.89697-2-2s.89697-2,2-2h2.25c1.37842,0,2.5,1.12158,2.5,2.5v2.25c0,1.10303-.89697,2-2,2Z" fill="#000" opacity=".6"/>
  <path d="M19.25,6.25c-.41406,0-.75-.33594-.75-.75v-2h-2c-.41406,0-.75-.33594-.75-.75s.33594-.75.75-.75h2.25c.68945,0,1.25.56055,1.25,1.25v2.25c0,.41406-.33594.75-.75.75ZM18.75,3.5h.00977-.00977Z" fill="#fff"/>
  <path d="M2.75,7.5c-1.10303,0-2-.89697-2-2v-2.25C.75,1.87158,1.87158.75,3.25.75h2.25c1.10303,0,2,.89697,2,2s-.89697,2-2,2h-.75v.75c0,1.10303-.89697,2-2,2Z" fill="#000" opacity=".6"/>
  <path d="M2.75,6.25c-.41406,0-.75-.33594-.75-.75v-2.25c0-.68945.56055-1.25,1.25-1.25h2.25c.41406,0,.75.33594.75.75s-.33594.75-.75.75h-2v2c0,.41406-.33594.75-.75.75Z" fill="#fff"/>
</svg>