<?xml version="1.0" encoding="UTF-8"?>
<svg xmlns="http://www.w3.org/2000/svg" width="22" height="22" viewBox="0 0 22 22">
  <path d="M20,15.25h-2.25c-.33838,0-.66052.06909-.95514.19147.28113-.50366.45514-1.07495.45514-1.69147v-5.5c0-.61652-.17401-1.18781-.45514-1.69147.29462.12238.61676.19147.95514.19147h2.25c1.10303,0,2-.89697,2-2s-.89697-2-2-2h-.75v-.75c0-1.10303-.89697-2-2-2s-2,.89697-2,2v2.25c0,.33838.06909.66052.19147.95514-.50366-.28113-1.07495-.45514-1.69147-.45514h-5.5c-.61652,0-1.18781.17401-1.69147.45514.12238-.29462.19147-.61676.19147-.95514v-2.25c0-1.10303-.89697-2-2-2s-2,.89697-2,2v.75h-.75c-1.10303,0-2,.89697-2,2s.89697,2,2,2h2.25c.33838,0,.66052-.06909.95514-.19147-.28113.50366-.45514,1.07495-.45514,1.69147v5.5c0,.61652.17401,1.18781.45514,1.69147-.29462-.12238-.61676-.19147-.95514-.19147h-2.25c-1.10303,0-2,.89697-2,2s.89697,2,2,2h.75v.75c0,1.10303.89697,2,2,2s2-.89697,2-2v-2.25c0-.33838-.06909-.66052-.19147-.95514.50366.28113,1.07495.45514,1.69147.45514h5.5c.61652,0,1.18781-.17401,1.69147-.45514-.12238.29462-.19147.61676-.19147.95514v2.25c0,1.10303.89697,2,2,2s2-.89697,2-2v-.75h.75c1.10303,0,2-.89697,2-2s-.89697-2-2-2ZM13.25,13.25h-4.5v-4.5h4.5v4.5Z" fill="#000" opacity=".6"/>
  <path d="M13.75,16h-5.5c-1.24072,0-2.25-1.00928-2.25-2.25v-5.5c0-1.24072,1.00928-2.25,2.25-2.25h5.5c1.24072,0,2.25,1.00928,2.25,2.25v5.5c0,1.24072-1.00928,2.25-2.25,2.25ZM8.25,7.5c-.41357,0-.75.33643-.75.75v5.5c0,.41357.33643.75.75.75h5.5c.41357,0,.75-.33643.75-.75v-5.5c0-.41357-.33643-.75-.75-.75h-5.5Z" fill="#fff"/>
  <path d="M20,5.5h-2.25c-.68945,0-1.25-.56055-1.25-1.25v-2.25c0-.41406.33594-.75.75-.75s.75.33594.75.75v2h2c.41406,0,.75.33594.75.75s-.33594.75-.75.75Z" fill="#fff"/>
  <path d="M4.25,5.5h-2.25c-.41406,0-.75-.33594-.75-.75s.33594-.75.75-.75h2v-2c0-.41406.33594-.75.75-.75s.75.33594.75.75v2.25c0,.68945-.56055,1.25-1.25,1.25Z" fill="#fff"/>
  <path d="M4.75,20.75c-.41406,0-.75-.33594-.75-.75v-2h-2c-.41406,0-.75-.33594-.75-.75s.33594-.75.75-.75h2.25c.68945,0,1.25.56055,1.25,1.25v2.25c0,.41406-.33594.75-.75.75ZM4.25,18h.00977-.00977Z" fill="#fff"/>
  <path d="M17.25,20.75c-.41406,0-.75-.33594-.75-.75v-2.25c0-.68945.56055-1.25,1.25-1.25h2.25c.41406,0,.75.33594.75.75s-.33594.75-.75.75h-2v2c0,.41406-.33594.75-.75.75Z" fill="#fff"/>
</svg>