<?xml version="1.0" encoding="UTF-8"?>
<svg xmlns="http://www.w3.org/2000/svg" width="28.00005" height="28" viewBox="0 0 28.00005 28">
  <g id="circles">
    <circle id="Ellipse_10213" data-name="Ellipse 10213" cx="14.00002" cy="14" r="14.00001" fill="#0a8d99"/>
  </g>
  <g id="ICONS">
    <rect id="S2_Icon_ProcessAutomation_20_N" x="5.09281" y="5.00404" width="18" height="18" transform="translate(28.09685 -.08877) rotate(90)" fill="none" opacity=".1"/>
    <path d="M18.37044,19.4058c-.15205,0-.30762-.03076-.45791-.0958-.52207-.225-.78662-.76641-.64336-1.3166l.58887-2.2623h-1.92217c-.40693,0-.78223-.22061-.98174-.5748-.19863-.35508-.19072-.79102.02197-1.1373l3.18604-5.19785c.29707-.48516.86924-.67148,1.39658-.44912.52383.22061.79277.75937.65391,1.31133l-.61523,2.44775h1.91953c.40957,0,.78662.22236.98438.58096.19863.35771.18633.79629-.03076,1.14258l-3.16055,5.02119c-.21445.34102-.56689.52998-.93955.52998ZM16.33665,14.38109h1.81318c.35156,0,.67588.15996.89033.4377.21445.27861.28652.63281.19775.97207l-.29619,1.13555,2.16826-3.44531h-1.80088c-.34893,0-.67236-.15732-.88682-.43242-.21533-.2751-.28916-.62754-.20479-.96592l.32695-1.30254-2.20781,3.60088Z" fill="#fff"/>
    <path d="M14.50501,11.20912l-2.86458-2.8637c.12601-.26367.20237-.55525.20237-.86638,0-1.11621-.90879-2.025-2.025-2.025s-2.025.90879-2.025,2.025.90879,2.025,2.025,2.025c.31201,0,.60436-.0769.86858-.20369l2.86414,2.86326c.13184.13184.3041.19775.47725.19775s.34541-.06592.47725-.19775c.26367-.26367.26367-.69082,0-.95449ZM9.81781,8.15404c-.37178,0-.675-.30322-.675-.675s.30322-.675.675-.675.675.30322.675.675-.30322.675-.675.675Z" fill="#fff"/>
    <path d="M14.50501,16.79896l-2.86458,2.8637c.12601.26367.20237.55525.20237.86638,0,1.11621-.90879,2.025-2.025,2.025s-2.025-.90879-2.025-2.025.90879-2.025,2.025-2.025c.31201,0,.60436.0769.86858.20369l2.86414-2.86326c.13184-.13184.3041-.19775.47725-.19775s.34541.06592.47725.19775c.26367.26367.26367.69082,0,.95449ZM9.81781,19.85404c-.37178,0-.675.30322-.675.675s.30322.675.675.675.675-.30322.675-.675-.30322-.675-.675-.675Z" fill="#fff"/>
    <path d="M12.83949,13.32904h-2.00204c-.29597-1.03557-1.24025-1.8-2.36964-1.8-1.36494,0-2.475,1.11006-2.475,2.475s1.11006,2.475,2.475,2.475c1.12939,0,2.07367-.76443,2.36964-1.8h2.00204c.37266,0,.675-.30234.675-.675s-.30234-.675-.675-.675ZM8.46781,15.12904c-.62051,0-1.125-.50449-1.125-1.125s.50449-1.125,1.125-1.125,1.125.50449,1.125,1.125-.50449,1.125-1.125,1.125Z" fill="#fff"/>
  </g>
</svg>