<?xml version="1.0" encoding="UTF-8"?>
<svg xmlns="http://www.w3.org/2000/svg" width="20" height="20" viewBox="0 0 20 20">
  <path d="M1.5,4.75v4.19814c0,1.38086,1.11914,2.5,2.5,2.5s2.5-1.11914,2.5-2.5v-3.19814h7v3.19814c0,1.38086,1.11914,2.5,2.5,2.5s2.5-1.11914,2.5-2.5v-4.19814c0-2.20605-1.79395-4-4-4H5.5C3.29395.75,1.5,2.54395,1.5,4.75ZM14.5,2.5c1.24023,0,2.25,1.00977,2.25,2.25v4.19814c0,.41406-.33594.75-.75.75s-.75-.33594-.75-.75v-4.19814c0-.41309-.33691-.75-.75-.75H5.5c-.41309,0-.75.33691-.75.75v4.19814c0,.41406-.33594.75-.75.75s-.75-.33594-.75-.75v-4.19814c0-1.24023,1.00977-2.25,2.25-2.25h9Z" fill="var(--iconPrimary, #222)" opacity=".1"/>
  <path d="M1.75,4.75v4.19814c0,1.24219,1.00781,2.25,2.25,2.25s2.25-1.00781,2.25-2.25v-3.44814h7.5v3.44814c0,1.24219,1.00781,2.25,2.25,2.25s2.25-1.00781,2.25-2.25v-4.19814c0-2.06738-1.68262-3.75-3.75-3.75H5.5c-2.06738,0-3.75,1.68262-3.75,3.75ZM14.5,2.5c1.24023,0,2.25,1.00977,2.25,2.25v4.19814c0,.41406-.33594.75-.75.75s-.75-.33594-.75-.75v-4.19814c0-.41309-.33691-.75-.75-.75H5.5c-.41309,0-.75.33691-.75.75v4.19814c0,.41406-.33594.75-.75.75s-.75-.33594-.75-.75v-4.19814c0-1.24023,1.00977-2.25,2.25-2.25h9Z" fill="var(--iconPrimary, #222)" opacity=".1"/>
  <path d="M2,4.75v4.19814c0,1.10449.89551,2,2,2s2-.89551,2-2v-3.69814h8v3.69814c0,1.10449.89551,2,2,2s2-.89551,2-2v-4.19814c0-1.92969-1.57031-3.5-3.5-3.5H5.5c-1.92969,0-3.5,1.57031-3.5,3.5ZM14.5,2.5c1.24023,0,2.25,1.00977,2.25,2.25v4.19814c0,.41406-.33594.75-.75.75s-.75-.33594-.75-.75v-4.19814c0-.41309-.33691-.75-.75-.75H5.5c-.41309,0-.75.33691-.75.75v4.19814c0,.41406-.33594.75-.75.75s-.75-.33594-.75-.75v-4.19814c0-1.24023,1.00977-2.25,2.25-2.25h9Z" fill="var(--iconPrimary, #222)" opacity=".1"/>
  <path d="M2.25,4.75v4.19814c0,.9668.7832,1.75,1.75,1.75s1.75-.7832,1.75-1.75v-3.94814h8.5v3.94814c0,.9668.7832,1.75,1.75,1.75s1.75-.7832,1.75-1.75v-4.19814c0-1.79199-1.45801-3.25-3.25-3.25H5.5c-1.79199,0-3.25,1.45801-3.25,3.25ZM14.5,2.5c1.24023,0,2.25,1.00977,2.25,2.25v4.19814c0,.41406-.33594.75-.75.75s-.75-.33594-.75-.75v-4.19814c0-.41309-.33691-.75-.75-.75H5.5c-.41309,0-.75.33691-.75.75v4.19814c0,.41406-.33594.75-.75.75s-.75-.33594-.75-.75v-4.19814c0-1.24023,1.00977-2.25,2.25-2.25h9Z" fill="var(--iconPrimary, #222)" opacity=".1"/>
  <path d="M2.5,4.75v4.19814c0,.82812.67188,1.5,1.5,1.5s1.5-.67188,1.5-1.5v-4.19814h9v4.19814c0,.82812.67188,1.5,1.5,1.5s1.5-.67188,1.5-1.5v-4.19814c0-1.6543-1.3457-3-3-3H5.5c-1.6543,0-3,1.3457-3,3ZM14.5,2.5c1.24023,0,2.25,1.00977,2.25,2.25v4.19814c0,.41406-.33594.75-.75.75s-.75-.33594-.75-.75v-4.19814c0-.41309-.33691-.75-.75-.75H5.5c-.41309,0-.75.33691-.75.75v4.19814c0,.41406-.33594.75-.75.75s-.75-.33594-.75-.75v-4.19814c0-1.24023,1.00977-2.25,2.25-2.25h9Z" fill="var(--iconPrimary, #222)" opacity=".1"/>
  <path d="M2.75,4.75v4.19814c0,.69043.55957,1.25,1.25,1.25s1.25-.55957,1.25-1.25v-4.19814c0-.1377.1123-.25.25-.25h9c.1377,0,.25.1123.25.25v4.19814c0,.69043.55957,1.25,1.25,1.25s1.25-.55957,1.25-1.25v-4.19814c0-1.5166-1.2334-2.75-2.75-2.75H5.5c-1.5166,0-2.75,1.2334-2.75,2.75ZM14.5,2.5c1.24023,0,2.25,1.00977,2.25,2.25v4.19814c0,.41406-.33594.75-.75.75s-.75-.33594-.75-.75v-4.19814c0-.41309-.33691-.75-.75-.75H5.5c-.41309,0-.75.33691-.75.75v4.19814c0,.41406-.33594.75-.75.75s-.75-.33594-.75-.75v-4.19814c0-1.24023,1.00977-2.25,2.25-2.25h9Z" fill="var(--iconPrimary, #222)" opacity=".1"/>
  <path d="M16.75,4.75v4.19814c0,.41406-.33594.75-.75.75s-.75-.33594-.75-.75v-4.19814c0-.41309-.33691-.75-.75-.75H5.5c-.41309,0-.75.33691-.75.75v4.19814c0,.41406-.33594.75-.75.75s-.75-.33594-.75-.75v-4.19814c0-1.24023,1.00977-2.25,2.25-2.25h9c1.24023,0,2.25,1.00977,2.25,2.25Z" fill="var(--iconPrimary, #222)" opacity=".7"/>
  <path d="M3,4.75v4.19814c0,.55273.44727,1,1,1s1-.44727,1-1v-4.19814c0-.27539.22461-.5.5-.5h9c.27539,0,.5.22461.5.5v4.19814c0,.55273.44727,1,1,1s1-.44727,1-1v-4.19814c0-1.37891-1.12109-2.5-2.5-2.5H5.5c-1.37891,0-2.5,1.12109-2.5,2.5ZM14.5,2.5c1.24023,0,2.25,1.00977,2.25,2.25v4.19814c0,.41406-.33594.75-.75.75s-.75-.33594-.75-.75v-4.19814c0-.41309-.33691-.75-.75-.75H5.5c-.41309,0-.75.33691-.75.75v4.19814c0,.41406-.33594.75-.75.75s-.75-.33594-.75-.75v-4.19814c0-1.24023,1.00977-2.25,2.25-2.25h9Z" fill="var(--iconPrimary, #222)" opacity=".2"/>
  <path d="M16.75,13.25v3.5c0,1.24023-1.00977,2.25-2.25,2.25H5.5c-1.24023,0-2.25-1.00977-2.25-2.25v-3.5c0-.41406.33594-.75.75-.75s.75.33594.75.75v3.5c0,.41309.33691.75.75.75h9c.41309,0,.75-.33691.75-.75v-3.5c0-.41406.33594-.75.75-.75s.75.33594.75.75Z" fill="var(--iconPrimary, #222)"/>
</svg>