<?xml version="1.0" encoding="UTF-8"?>
<svg   xmlns="http://www.w3.org/2000/svg" width="20" height="20" viewBox="0 0 20 20">
  <path d="M15.25,1.5h-3.48892c-1.38086,0-2.5,1.11914-2.5,2.5s1.11914,2.5,2.5,2.5h2.48892v7h-2.48892c-1.38086,0-2.5,1.11914-2.5,2.5s1.11914,2.5,2.5,2.5h3.48892c2.20605,0,4-1.79395,4-4V5.5c0-2.20605-1.79395-4-4-4ZM17.5,14.5c0,1.24023-1.00977,2.25-2.25,2.25h-3.48892c-.41406,0-.75-.33594-.75-.75s.33594-.75.75-.75h3.48892c.41309,0,.75-.33691.75-.75V5.5c0-.41309-.33691-.75-.75-.75h-3.48892c-.41406,0-.75-.33594-.75-.75s.33594-.75.75-.75h3.48892c1.24023,0,2.25,1.00977,2.25,2.25v9Z" fill="var(--iconPrimary, #222)" opacity=".1"/>
  <path d="M15.25,1.75h-3.48892c-1.24219,0-2.25,1.00781-2.25,2.25s1.00781,2.25,2.25,2.25h2.73892v7.5h-2.73892c-1.24219,0-2.25,1.00781-2.25,2.25s1.00781,2.25,2.25,2.25h3.48892c2.06738,0,3.75-1.68262,3.75-3.75V5.5c0-2.06738-1.68262-3.75-3.75-3.75ZM17.5,14.5c0,1.24023-1.00977,2.25-2.25,2.25h-3.48892c-.41406,0-.75-.33594-.75-.75s.33594-.75.75-.75h3.48892c.41309,0,.75-.33691.75-.75V5.5c0-.41309-.33691-.75-.75-.75h-3.48892c-.41406,0-.75-.33594-.75-.75s.33594-.75.75-.75h3.48892c1.24023,0,2.25,1.00977,2.25,2.25v9Z" fill="var(--iconPrimary, #222)" opacity=".1"/>
  <path d="M15.25,2h-3.48892c-1.10449,0-2,.89551-2,2s.89551,2,2,2h2.98892v8h-2.98892c-1.10449,0-2,.89551-2,2s.89551,2,2,2h3.48892c1.92969,0,3.5-1.57031,3.5-3.5V5.5c0-1.92969-1.57031-3.5-3.5-3.5ZM17.5,14.5c0,1.24023-1.00977,2.25-2.25,2.25h-3.48892c-.41406,0-.75-.33594-.75-.75s.33594-.75.75-.75h3.48892c.41309,0,.75-.33691.75-.75V5.5c0-.41309-.33691-.75-.75-.75h-3.48892c-.41406,0-.75-.33594-.75-.75s.33594-.75.75-.75h3.48892c1.24023,0,2.25,1.00977,2.25,2.25v9Z" fill="var(--iconPrimary, #222)" opacity=".1"/>
  <path d="M15.25,2.25h-3.48892c-.9668,0-1.75.7832-1.75,1.75s.7832,1.75,1.75,1.75h3.23892v8.5h-3.23892c-.9668,0-1.75.7832-1.75,1.75s.7832,1.75,1.75,1.75h3.48892c1.79199,0,3.25-1.45801,3.25-3.25V5.5c0-1.79199-1.45801-3.25-3.25-3.25ZM17.5,14.5c0,1.24023-1.00977,2.25-2.25,2.25h-3.48892c-.41406,0-.75-.33594-.75-.75s.33594-.75.75-.75h3.48892c.41309,0,.75-.33691.75-.75V5.5c0-.41309-.33691-.75-.75-.75h-3.48892c-.41406,0-.75-.33594-.75-.75s.33594-.75.75-.75h3.48892c1.24023,0,2.25,1.00977,2.25,2.25v9Z" fill="var(--iconPrimary, #222)" opacity=".1"/>
  <path d="M15.25,2.5h-3.48892c-.82812,0-1.5.67188-1.5,1.5s.67188,1.5,1.5,1.5h3.48892v9h-3.48892c-.82812,0-1.5.67188-1.5,1.5s.67188,1.5,1.5,1.5h3.48892c1.6543,0,3-1.3457,3-3V5.5c0-1.6543-1.3457-3-3-3ZM17.5,14.5c0,1.24023-1.00977,2.25-2.25,2.25h-3.48892c-.41406,0-.75-.33594-.75-.75s.33594-.75.75-.75h3.48892c.41309,0,.75-.33691.75-.75V5.5c0-.41309-.33691-.75-.75-.75h-3.48892c-.41406,0-.75-.33594-.75-.75s.33594-.75.75-.75h3.48892c1.24023,0,2.25,1.00977,2.25,2.25v9Z" fill="var(--iconPrimary, #222)" opacity=".1"/>
  <path d="M15.25,2.75h-3.48892c-.69043,0-1.25.55957-1.25,1.25s.55957,1.25,1.25,1.25h3.48892c.1377,0,.25.1123.25.25v9c0,.1377-.1123.25-.25.25h-3.48892c-.69043,0-1.25.55957-1.25,1.25s.55957,1.25,1.25,1.25h3.48892c1.5166,0,2.75-1.2334,2.75-2.75V5.5c0-1.5166-1.2334-2.75-2.75-2.75ZM17.5,14.5c0,1.24023-1.00977,2.25-2.25,2.25h-3.48892c-.41406,0-.75-.33594-.75-.75s.33594-.75.75-.75h3.48892c.41309,0,.75-.33691.75-.75V5.5c0-.41309-.33691-.75-.75-.75h-3.48892c-.41406,0-.75-.33594-.75-.75s.33594-.75.75-.75h3.48892c1.24023,0,2.25,1.00977,2.25,2.25v9Z" fill="var(--iconPrimary, #222)" opacity=".1"/>
  <path d="M15.25,16.75h-3.48892c-.41406,0-.75-.33594-.75-.75s.33594-.75.75-.75h3.48892c.41309,0,.75-.33691.75-.75V5.5c0-.41309-.33691-.75-.75-.75h-3.48892c-.41406,0-.75-.33594-.75-.75s.33594-.75.75-.75h3.48892c1.24023,0,2.25,1.00977,2.25,2.25v9c0,1.24023-1.00977,2.25-2.25,2.25Z" fill="var(--iconPrimary, #222)" opacity=".7"/>
  <path d="M15.25,3h-3.48892c-.55273,0-1,.44727-1,1s.44727,1,1,1h3.48892c.27539,0,.5.22461.5.5v9c0,.27539-.22461.5-.5.5h-3.48892c-.55273,0-1,.44727-1,1s.44727,1,1,1h3.48892c1.37891,0,2.5-1.12109,2.5-2.5V5.5c0-1.37891-1.12109-2.5-2.5-2.5ZM17.5,14.5c0,1.24023-1.00977,2.25-2.25,2.25h-3.48892c-.41406,0-.75-.33594-.75-.75s.33594-.75.75-.75h3.48892c.41309,0,.75-.33691.75-.75V5.5c0-.41309-.33691-.75-.75-.75h-3.48892c-.41406,0-.75-.33594-.75-.75s.33594-.75.75-.75h3.48892c1.24023,0,2.25,1.00977,2.25,2.25v9Z" fill="var(--iconPrimary, #222)" opacity=".2"/>
  <path d="M7.75,16.75H3.25c-1.24023,0-2.25-1.00977-2.25-2.25V5.5c0-1.24023,1.00977-2.25,2.25-2.25h4.5c.41406,0,.75.33594.75.75s-.33594.75-.75.75H3.25c-.41309,0-.75.33691-.75.75v9c0,.41309.33691.75.75.75h4.5c.41406,0,.75.33594.75.75s-.33594.75-.75.75Z" fill="var(--iconPrimary, #222)"/>
</svg>