<?xml version="1.0" encoding="UTF-8"?>
<svg   xmlns="http://www.w3.org/2000/svg" width="20" height="20" viewBox="0 0 20 20">
  <path d="m17.01807,17h-8.03613c-1.64404,0-2.98193-1.33789-2.98193-2.98193V5.98193c0-1.64404,1.33789-2.98193,2.98193-2.98193h8.03613c1.64404,0,2.98193,1.33789,2.98193,2.98193v8.03613c0,1.64404-1.33789,2.98193-2.98193,2.98193ZM8.98193,4.5c-.81738,0-1.48193.66455-1.48193,1.48193v8.03613c0,.81738.66455,1.48193,1.48193,1.48193h8.03613c.81738,0,1.48193-.66455,1.48193-1.48193V5.98193c0-.81738-.66455-1.48193-1.48193-1.48193h-8.03613Z" fill="var(--iconPrimary, #222)" stroke-width="0"/>
  <path d="m3.75,15.5c-.41406,0-.75-.32133-.75-.71739V5.21739c0-.39606.33594-.71739.75-.71739s.75.32133.75.71739v9.56522c0,.39606-.33594.71739-.75.71739Z" fill="var(--iconPrimary, #222)" stroke-width="0"/>
  <path d="m.75,14.25c-.41406,0-.75-.33594-.75-.75v-7c0-.41406.33594-.75.75-.75s.75.33594.75.75v7c0,.41406-.33594.75-.75.75Z" fill="var(--iconPrimary, #222)" stroke-width="0"/>
  <path d="m10.15527,14.13672c-.10742,0-.21484-.02734-.3125-.08398-.23535-.13574-.35547-.40723-.29883-.67285l.12598-.58301-.40039-.44238c-.18262-.20215-.21387-.49805-.07812-.73242.13574-.23535.41016-.35254.67285-.29883l.58398.12695.44141-.40137c.20215-.18164.49609-.21582.73242-.07812.23535.13574.35547.4082.29883.67285l-.12695.58398.40137.44238c.18262.20117.21387.49707.07812.73242s-.41016.35156-.67285.29883l-.58398-.12695-.44141.40039c-.11816.10742-.26855.16211-.41992.16211Z" fill="var(--iconPrimary, #222)" stroke-width="0"/>
  <path d="m13.2627,10.92285c-.10742,0-.21484-.02734-.3125-.08398-.23535-.13574-.35547-.4082-.29785-.67285l.30176-1.39551-.95898-1.05762c-.18262-.20117-.21387-.49707-.07812-.73242s.40918-.35156.67285-.29883l1.39551.30176,1.05762-.95801c.20117-.18457.49609-.21484.73242-.07812.23535.13574.35547.40723.29883.67285l-.30176,1.39551.95801,1.05762c.18262.20117.21387.49707.07812.73242s-.41016.35645-.67285.29785l-1.39551-.30176-1.05762.95898c-.11816.10742-.26855.16211-.41992.16211Z" fill="var(--iconPrimary, #222)" stroke-width="0"/>
</svg>