<?xml version="1.0" encoding="UTF-8"?>
<svg   xmlns="http://www.w3.org/2000/svg" width="20" height="20" viewBox="0 0 20 20">
  <path d="m3.75,15.5c-.41406,0-.75-.32133-.75-.71739V5.21739c0-.39606.33594-.71739.75-.71739s.75.32133.75.71739v9.56522c0,.39606-.33594.71739-.75.71739Z" fill="var(--iconPrimary, #222)" stroke-width="0"/>
  <path d="m.75,14.25c-.41406,0-.75-.33594-.75-.75v-7c0-.41406.33594-.75.75-.75s.75.33594.75.75v7c0,.41406-.33594.75-.75.75Z" fill="var(--iconPrimary, #222)" stroke-width="0"/>
  <path d="m17.01807,3h-8.03613c-1.64404,0-2.98193,1.33789-2.98193,2.98193v8.03613c0,1.64404,1.33789,2.98193,2.98193,2.98193h8.03613c1.64404,0,2.98193-1.33789,2.98193-2.98193V5.98193c0-1.64404-1.33789-2.98193-2.98193-2.98193Zm-4.85836,10.30254c-.1462.25348-.44175.37864-.72468.32184l-.62896-.13673-.4754.43123c-.12727.1157-.28924.1746-.45227.1746-.1157,0-.23139-.02945-.33657-.09045-.25348-.1462-.38285-.43859-.32184-.72468l.13568-.62791-.43123-.47646c-.19668-.21772-.23034-.53641-.08414-.78883.1462-.25348.44175-.37969.72468-.32184l.62896.13673.4754-.43228c.21772-.19563.5343-.23244.78883-.08414.25348.1462.38285.43964.32184.72468l-.13673.62896.43228.47646c.19668.21667.23034.53536.08414.78883Zm4.78609-3.8593c-.13574.23535-.41016.35645-.67285.29785l-1.39551-.30176-1.05762.95898c-.11816.10742-.26855.16211-.41992.16211-.10742,0-.21484-.02734-.3125-.08398-.23535-.13574-.35547-.4082-.29785-.67285l.30176-1.39551-.95898-1.05762c-.18262-.20117-.21387-.49707-.07812-.73242s.40918-.35156.67285-.29883l1.39551.30176,1.05762-.95801c.20117-.18457.49609-.21484.73242-.07812.23535.13574.35547.40723.29883.67285l-.30176,1.39551.95801,1.05762c.18262.20117.21387.49707.07812.73242Z" fill="var(--iconPrimary, #222)" stroke-width="0"/>
</svg>