<?xml version="1.0" encoding="UTF-8"?>
<svg id="b" data-name="ICON" xmlns="http://www.w3.org/2000/svg" width="20" height="20" viewBox="0 0 20 20">
  <path d="M10.75293,15.4873c.03223-.60059.2959-1.15234.74316-1.55371.44336-.40234,1.02051-.60547,1.62012-.57422.60156.03125,1.1543.29492,1.55664.74316l.54492.60547,1.78223-2.4306v-6.29547c0-1.64404-1.33789-2.98193-2.98193-2.98193H5.98193c-1.64404,0-2.98193,1.33789-2.98193,2.98193v8.03613c0,1.64404,1.33789,2.98193,2.98193,2.98193h5.26331c-.34167-.43042-.52112-.9588-.49231-1.5127ZM9.15973,13.30255c-.14624.25348-.44177.3786-.72467.32184l-.62897-.13672-.4754.43121c-.12732.11566-.28925.17456-.45227.17456-.11572,0-.23138-.02942-.33661-.09045-.25348-.14618-.38281-.4386-.32184-.72467l.13568-.62787-.43121-.4765c-.19672-.21771-.23035-.53638-.08417-.78882.14624-.25348.44177-.3797.72467-.32184l.62897.13672.4754-.43225c.21777-.19568.5343-.23248.78888-.08417.25348.14618.38281.43964.32184.72467l-.13672.62897.43225.47644c.19672.21667.23035.5354.08417.78888ZM10.0874,10.47644c-.23535-.13574-.35547-.4082-.29785-.67285l.30176-1.39551-.95898-1.05762c-.18262-.20117-.21387-.49707-.07812-.73242s.40918-.35156.67285-.29883l1.39551.30176,1.05762-.95801c.20117-.18457.49609-.21484.73242-.07812.23535.13574.35547.40723.29883.67285l-.30176,1.39551.95801,1.05762c.18262.20117.21387.49707.07812.73242s-.41016.35645-.67285.29785l-1.39551-.30176-1.05762.95898c-.11816.10742-.26855.16211-.41992.16211-.10742,0-.21484-.02734-.3125-.08398Z" fill="var(--iconPrimary, #222)"/>
  <path d="M15.40152,19c-.21191,0-.41504-.08984-.55762-.24805l-2.39551-2.66406c-.27734-.30859-.25195-.78223.05566-1.05957s.78125-.25195,1.05957.05566l1.77832,1.97852,3.30371-4.50391c.24316-.33301.71191-.41016,1.04785-.16113.33398.24512.40625.71387.16113,1.04785l-3.84863,5.24805c-.13281.18262-.3418.29492-.56738.30566-.0127.00098-.02441.00098-.03711.00098Z" fill="var(--iconPrimary, #222)"/>
</svg>