<?xml version="1.0" encoding="UTF-8"?>
<svg xmlns="http://www.w3.org/2000/svg" width="28.00005" height="28" viewBox="0 0 28.00005 28">
  <g id="circles">
    <circle id="Ellipse_10213" data-name="Ellipse 10213" cx="14.00002" cy="14" r="14.00001" fill="#eb1000"/>
  </g>
  <g id="ICONS">
    <rect id="S2_Icon_GenStudio_20_N" x="5" y="5" width="18" height="18" fill="none" opacity=".1"/>
    <g>
      <path d="M11.14811,18.85156c-.4778-.20435-.99849-.14941-1.41476.09492-1.27831-1.09028-2.10256-2.62969-2.26143-4.33389-.03472-.37178-.36958-.64775-.73433-.60996-.37134.03516-.64424.36387-.60952.73477.19644,2.11113,1.23948,4.01001,2.85035,5.33101-.10212.68994.26065,1.38911.93192,1.67651.79887.34146,1.72381-.029,2.06554-.82793s-.02889-1.72397-.82776-2.06543Z" fill="#fff"/>
      <path d="M20.89062,16.025c-.7981-.34365-1.72381.02505-2.06735.8231-.20588.47813-.15178,1.0002.09305,1.41768-1.08896,1.27573-2.61859,2.10059-4.30593,2.26274-.3709.03516-.64292.36475-.60732.73564.0334.3498.32739.61084.67104.61084.02153,0,.04351-.00088.06548-.00352,2.0918-.20083,3.97974-1.24365,5.29821-2.85073.68895.10239,1.38757-.25884,1.67596-.92856.34354-.79805-.02505-1.72354-.82315-2.06719Z" fill="#fff"/>
      <path d="M7.07356,11.975c.79799.34365,1.72386-.02461,2.06752-.82266.20599-.47813.152-1.0002-.09272-1.41768,1.09567-1.28364,2.63677-2.10894,4.33729-2.2623.37134-.0334.64512-.36211.61172-.73301-.03384-.37178-.36519-.64688-.73301-.61172-2.10833.19028-4.01045,1.23442-5.33721,2.85161-.68901-.10239-1.38779.25796-1.67635.92812-.34365.79805.02477,1.72397.82277,2.06763Z" fill="#fff"/>
      <path d="M22.46343,10.42197l-1.46821-1.61895.46143-2.13662c.09448-.43594-.10151-.87715-.48691-1.10039-.38672-.22324-.86792-.17051-1.19619.12832l-1.61938,1.46865-2.13662-.4623c-.4355-.09492-.87715.10107-1.09995.48691s-.17139.8666.12744,1.19619l1.46821,1.61982-.46187,2.13662c-.0936.43594.10283.87715.48823,1.10039.15996.09141.33574.13711.51064.13711.24697,0,.49175-.09053.68511-.26543l1.61895-1.46865,2.13662.4623c.4355.09316.87715-.10107,1.09995-.48691.2228-.38496.17183-.8666-.12744-1.19707ZM19.47559,10.28926c-.32124-.07031-.65742.02197-.90264.24082l-.98525.89385.28081-1.30078c.06987-.3208-.02065-.6583-.24126-.90088l-.89297-.98525,1.30386.28213c.32124.06592.65522-.02285.89736-.24258l.98525-.89297-.28081,1.29902c-.06987.31992.02021.65742.24126.90176l.89341.98525-1.29902-.28037Z" fill="#fff"/>
      <path d="M15.37856,15.78242c.14678-.254.1125-.57393-.08438-.79102l-.58096-.64072.18281-.84551c.06196-.28652-.06812-.58008-.32212-.72686-.25356-.14678-.57393-.11338-.79102.08437l-.64072.58096-.84551-.18281c-.28608-.05977-.58008.06855-.72686.32256s-.1125.57305.08438.79102l.58096.64072-.18281.84551c-.06196.28652.06812.58008.32212.72686.10503.06064.22148.09053.3375.09053.16348,0,.32607-.05977.45352-.1749l.64072-.58096.84551.18281c.28916.06064.58096-.06855.72686-.32256Z" fill="#fff"/>
    </g>
  </g>
</svg>