<?xml version="1.0" encoding="UTF-8"?>
<svg id="e" data-name="ICONS" xmlns="http://www.w3.org/2000/svg" width="20" height="20" viewBox="0 0 20 20">
  <path d="M15.75,18H4.25c-1.24072,0-2.25-1.00977-2.25-2.25V4.25c0-1.24023,1.00928-2.25,2.25-2.25h11.5c1.24072,0,2.25,1.00977,2.25,2.25v11.5c0,1.24023-1.00928,2.25-2.25,2.25ZM4.25,3.5c-.41357,0-.75.33691-.75.75v11.5c0,.41309.33643.75.75.75h11.5c.41357,0,.75-.33691.75-.75V4.25c0-.41309-.33643-.75-.75-.75H4.25Z" fill="var(--iconPrimary, #222)"/>
  <path d="M12.25,15.5c-1.79199,0-3.25-1.45801-3.25-3.25s1.45801-3.25,3.25-3.25,3.25,1.45801,3.25,3.25-1.45801,3.25-3.25,3.25ZM12.25,10.5c-.96484,0-1.75.78516-1.75,1.75s.78516,1.75,1.75,1.75,1.75-.78516,1.75-1.75-.78516-1.75-1.75-1.75Z" fill="var(--iconPrimary, #222)"/>
  <path d="M5.24951,7.27539c-.40479,0-.73633-.29688-.74805-.70215-.00146-1.17578.89551-2.07324,1.99854-2.07324.48047,0,.94482.17285,1.30762.48633.31299.27148.34668.74512.07568,1.05859-.27148.3125-.74414.3457-1.05811.07617-.06348-.05566-.17139-.12109-.3252-.12109-.27588,0-.5.22461-.5.5,0,.41016-.32861.76953-.73828.77539h-.01221Z" fill="var(--iconPrimary, #222)"/>
  <path d="M7.31836,12.1123c-.09717,0-.19629-.01855-.2915-.05957-.92773-.3916-1.52686-1.2959-1.52686-2.30273,0-1.37891,1.12158-2.5,2.5-2.5.56104,0,1.11182.19141,1.55176.54004.32471.25684.37939.72852.12207,1.05371-.25684.32422-.72949.37988-1.05371.12207-.17822-.1416-.39258-.21582-.62012-.21582-.55127,0-1,.44824-1,1,0,.40332.23975.76465.61084.92188.38135.16113.56006.60059.39893.98242-.12109.28613-.39893.45801-.69141.45801Z" fill="var(--iconPrimary, #222)"/>
</svg>