<?xml version="1.0" encoding="UTF-8"?>
<svg xmlns="http://www.w3.org/2000/svg" width="14" height="14" viewBox="0 0 14 14">
  <path d="M11.11523,3.74023h-.71143c.11792-.26294.18701-.55225.18701-.8584,0-1.16211-.94629-2.10742-2.1084-2.10742-.5769,0-1.09985.23389-1.48071.61072-.00061,0-.0011-.00037-.00171-.00037s-.0011.00037-.00171.00037c-.38086-.37683-.90381-.61072-1.48071-.61072-1.16211,0-2.1084.94531-2.1084,2.10742,0,.30615.06909.59546.18701.8584h-.72119c-1.03418,0-1.875.84082-1.875,1.875v.76953c0,.71655.4082,1.33276,1,1.64832v3.09192c0,1.03418.84082,1.875,1.875,1.875h6.25c1.03418,0,1.875-.84082,1.875-1.875v-3.09717c.58643-.31726.99023-.93054.99023-1.64307v-.76953c0-1.03418-.84082-1.875-1.875-1.875ZM11.74023,5.61523v.76953c0,.34473-.28027.625-.625.625h-3.49023v-2.01953h3.49023c.34473,0,.625.28027.625.625ZM8.48242,2.02441c.47363,0,.8584.38477.8584.85742,0,.47363-.38477.8584-.8584.8584h-.85742v-.8584c0-.47266.38477-.85742.85742-.85742ZM4.65918,2.88184c0-.47266.38477-.85742.8584-.85742.47266,0,.85742.38477.85742.85742v.8584h-.85742c-.47363,0-.8584-.38477-.8584-.8584ZM2.25,5.61523c0-.34473.28027-.625.625-.625h3.5v2.01953h-3.5c-.34473,0-.625-.28027-.625-.625v-.76953ZM3.25,11.125v-2.86523h3.125v3.49023h-2.5c-.34473,0-.625-.28027-.625-.625ZM10.125,11.75h-2.5v-3.49023h3.125v2.86523c0,.34473-.28027.625-.625.625Z" fill="var(--iconPrimary, #222)"/>
</svg>