<?xml version="1.0" encoding="UTF-8"?>
<svg id="e" data-name="ICONS" xmlns="http://www.w3.org/2000/svg" width="20" height="20" viewBox="0 0 20 20">
  <path d="M7.875,13.75h-2.75c-.34521,0-.625.28027-.625.625s.27979.625.625.625h2.75c.34521,0,.625-.28027.625-.625s-.27979-.625-.625-.625Z" fill="var(--iconPrimary, #222)"/>
  <path d="M5.125,12.75h2c.34521,0,.625-.28027.625-.625s-.27979-.625-.625-.625h-2c-.34521,0-.625.28027-.625.625s.27979.625.625.625Z" fill="var(--iconPrimary, #222)"/>
  <circle cx="13" cy="6.5" r="1.5" fill="var(--iconPrimary, #222)"/>
  <path d="M15.75,2H4.25c-1.24072,0-2.25,1.00977-2.25,2.25v11.5c0,1.24023,1.00928,2.25,2.25,2.25h11.5c1.24072,0,2.25-1.00977,2.25-2.25V4.25c0-1.24023-1.00928-2.25-2.25-2.25ZM4.25,3.5h11.5c.41357,0,.75.33691.75.75v8.22559l-1.81641-1.81641c-.8501-.85059-2.34082-.84277-3.17383-.00781l-.50977.49414v-.89551c0-1.24023-1.00928-2.25-2.25-2.25h-4.5c-.26428,0-.51428.0542-.75.13818v-3.88818c0-.41309.33643-.75.75-.75ZM4.25,16.5c-.41357,0-.75-.33691-.75-.75v-5.5c0-.41309.33643-.75.75-.75h4.5c.41357,0,.75.33691.75.75v5.5c0,.41309-.33643.75-.75.75h-4.5ZM15.75,16.5h-4.88824c.08411-.23584.13824-.48584.13824-.75v-2.51611l1.56201-1.51416c.2832-.2832.77734-.2832,1.06055,0l2.87744,2.87695v1.15332c0,.41309-.33643.75-.75.75Z" fill="var(--iconPrimary, #222)"/>
</svg>