<?xml version="1.0" encoding="UTF-8"?>
<svg id="c" data-name="text" xmlns="http://www.w3.org/2000/svg" width="20" height="20" viewBox="0 0 20 20">
  <path d="M18.72898,5.30691c-.16943-.59106-.43115-1.14771-.77271-1.65942-.13403-.20117-.27527-.44116-.47168-.58569.01306.03589-.4801-.5459-.8053-.80518-1.11072-.88574-2.47009-1.31787-3.88-1.31787-2.36304,0-4.54492,1.41333-5.53174,3.56274-.19568.42627-.34485.88086-.43188,1.34229-.05029.26685-.06311.53906-.11255.80518.18811-.00391.73206-.00464.81763.00244-2.41919-.13574-4.78247,1.15601-5.87488,3.34082-.245.48999-.45325,1.01807-.54456,1.56152-.28833,1.71533.02661,3.46704,1.07837,4.88062.16077.21606.34021.40918.51831.61011.06079.06836.10413.15234.17529.21094.02979.02441.06445.03979.09521.0625.14111.21436.43225.38477.6355.52832.71191.50244,1.55762.83936,2.41589.98145,2.0105.33301,4.13049-.29761,5.53711-1.80762.46985-.50439.85486-1.08179,1.1416-1.70825.30566-.66772.46252-1.39429.5199-2.12305-.1748,0,1.01538-.10425,1.73267-.36743.54614-.2002,1.07129-.47656,1.53735-.82568,2.06128-1.5437,2.92749-4.22559,2.22046-6.68872ZM6.96726,14.77273c-.37256-.02612-.64746-.21021-.97559-.34253-.0061-.01562-.02075-.03003-.0249-.04565-.19531-.1377-.35669-.33862-.48804-.53687-.20215-.30493-.3374-.70483-.3374-1.07373,0-1.43604,1.67554-2.44385,2.92395-1.72119.24377.14111.44885.34448.60999.57422.01611.00366.03235.01538.04846.02148.0481.10181.11462.19336.16345.2959.14038.29541.21655.62427.20215.95166-.04749,1.07275-1.06116,1.95117-2.12207,1.87671ZM12.75046,9.03616c-.35132-.03394-.71472-.14355-1.00049-.35596-.20142-.1499-.37573-.33765-.56042-.51147.00818.00562.0155.01196.02356.01758-.04517-.11987-.12305-.22339-.17383-.34155-.11975-.27881-.18005-.57568-.16675-.87866.04883-1.11182,1.09863-1.99194,2.19531-1.87476.32715.03516.66309.17285.92725.36572.13379.0979.2395.22412.36597.32983.0376.03149.05884.04565.02441.03247.27344.44287.474.85474.43701,1.39087-.06836.99365-1.05176,1.92456-2.07202,1.82593Z" fill="#fff" opacity=".65"/>
  <path d="M6.72319,6.64896c.18804-.00388.37179-.03175.56125-.02345.98373.04309,1.96687.31313,2.83067.78754.39915.21921.72792.51555,1.09811.77326-.04534-.11982-.12318-.22353-.17392-.34163-.11972-.27868-.18004-.57548-.16676-.87848.04878-1.11194,1.09867-1.99216,2.19526-1.87473.32716.03502.66316.17265.92729.36567.13387.09783.23951.22399.36603.32982.19869.16623.43639.30513.68327.38568.9003.29373,1.96417-.0692,2.45358-.89019.28172-.4726.34886-1.02705.25093-1.56175-.11564-.63156-.5889-1.0808-1.06955-1.46404-1.11079-.88567-2.47015-1.31782-3.87997-1.31782-2.36302,0-4.54495,1.41326-5.53178,3.56274-.19571.42623-.34488.88087-.43187,1.34213-.05034.26701-.06313.53924-.11252.80527Z" fill="var(--iconPrimary, #222)"/>
  <path d="M8.69978,11.60263c.04644.1225.13121.2234.18741.34163.14041.29541.21652.62436.20208.95169-.04741,1.0729-1.06108,1.95116-2.12205,1.87681-.39163-.02745-.67362-.23092-1.02489-.36386.24454.37006.51123.73705.55708,1.19571.11557,1.15562-.88495,2.0934-1.99682,2.16963-.38802.02657-.77526-.06357-1.12251-.23719-.14463-.0723-.2684-.1835-.41484-.24868.13165.22911.44583.40737.65886.55774.71182.50244,1.55762.83941,2.41583.98156,2.01046.33302,4.13046-.29761,5.53713-1.80773.4698-.50432.85474-1.0817,1.14157-1.70816.30566-.66755.46247-1.39435.51999-2.123-.28156,0-.57377.02253-.85408-.00415-.88837-.08453-1.72732-.33368-2.51344-.75986-.27582-.14951-.53278-.32953-.78088-.5208-.12809-.09876-.24409-.23311-.39043-.30134Z" fill="var(--iconPrimary, #222)" opacity=".8"/>
  <path d="M17.48461,3.06182c.12021.33031.3003.61184.31628.97609.04907,1.11958-.82307,2.19174-1.97564,2.24406-.33494.01521-.67421-.05442-.97609-.20056-.15952-.07723-.29993-.19915-.46364-.26213.27343.44307.47399.85474.43707,1.39093-.06843.99361-1.05191,1.92468-2.07203,1.82602-.35137-.03397-.71477-.14353-1.00049-.35605-.255-.18968-.46059-.44749-.70767-.64971-.49307-.40357-1.05821-.75205-1.65936-.97006-.56145-.20361-1.15906-.36735-1.75696-.40927-2.44892-.17162-4.85499,1.13053-5.96019,3.34094-.24503.49007-.45325,1.01818-.54461,1.56175-.2883,1.71526.02674,3.46703,1.07846,4.88046.16076.21608.34017.40928.51833.61006.06067.06835.10405.15254.17528.2111.98722.81194,2.55766.65379,3.2998-.40632.13246-.18924.23128-.40762.27904-.63446.09478-.45042.00901-.91008-.19483-1.31772-.08494-.16989-.26198-.3338-.31064-.51245-.19527-.13755-.35659-.33865-.48795-.53685-.20208-.30486-.33736-.70479-.33736-1.0737,0-1.4361,1.67556-2.44374,2.92391-1.72122.24371.14105.44886.34458.61006.57431.20398.04654.41562.29761.58566.42387.3316.24624.69859.44615,1.0737.61789,1.43593.65749,3.15768.69483,4.63644.15266.5461-.20022,1.07129-.47682,1.53734-.82582,2.06131-1.54362,2.92745-4.22567,2.22061-6.6888-.16965-.59112-.43138-1.14752-.77275-1.65936-.13412-.2011-.27536-.44107-.47177-.58566Z" fill="var(--iconPrimary, #222)" opacity=".65"/>
</svg>