<?xml version="1.0" encoding="UTF-8"?>
<svg id="c" data-name="text" xmlns="http://www.w3.org/2000/svg" width="20" height="20" viewBox="0 0 20 20">
  <path d="M18.96157,9.46704c-.00195-.01099-.00476-.02124-.00696-.03223-.01636-.09106-.03027-.18237-.05811-.27271-.02002-.05469-.04688-.10645-.07251-.15894-.0083-.02075-.0105-.04346-.01941-.06396-.01794-.03638-.03052-.07495-.05029-.11035-.01624-.02905-.03845-.05225-.05579-.08032-.01379-.02612-.02563-.05273-.03784-.07959-.01367-.02271-.02612-.0459-.04053-.06812-.00439-.00708-.01025-.0127-.01477-.01953-.03455-.05347-.07532-.10107-.11414-.15137-.02002-.02515-.03784-.05273-.05835-.07739-.02124-.0249-.04431-.04834-.06567-.07275-.03491-.03833-.06812-.07715-.10547-.11304-.02625-.02417-.0531-.04712-.07983-.07056-.01733-.01465-.03809-.02661-.05566-.04102-.07812-.06445-.15723-.12646-.24353-.18042-.0072-.00439-.01257-.01025-.0199-.01465-.00867-.00464-.01636-.00928-.0249-.01465l-.23828-.13672c-.00464-.0022-.01001-.00244-.01465-.00464L5.55166.80835c-.51868-.31323-1.11011-.39209-1.66028-.27881-.02039.00415-.0415.00439-.06152.00928-.37598.08765-.72363.27563-1.01758.54077-.0188.01709-.0387.03271-.05713.05078-.06482.0625-.12524.12915-.18335.2002-.04968.06104-.09839.1228-.14258.18994-.01648.02515-.03809.04541-.05371.07153-.01636.0271-.03259.05518-.0481.08301-.00134.00244-.00208.00513-.00342.00757-.19238.33203-.28333.69189-.30103,1.05078h0c-.00403.06177-.02368.11963-.02295.18286v13.94946l.00854.00024v.00024h0c0,.00146.00049.00269.00049.00391-.00049.02002-.00598.03857-.00598.05884,0,.43115.12512.82959.32935,1.17578.00452.00806.00562.01685.01038.02466.00317.00513.00757.00903.01074.01416.07568.12305.16223.23682.25879.34326.00586.00659.01013.01514.01611.02148.00171.00195.00391.00317.00562.00488.1001.10718.20996.2041.32849.29077.00378.00269.00671.00659.0105.00928.00061.00049.00146.00073.00208.00098.17358.12524.36523.2229.57019.29663.02551.00928.05115.01562.07703.02393.1709.05493.34888.09033.53442.104.02588.0022.05005.01367.07593.01489.01587.00073.03198-.00269.04785-.0022.01697.00024.03271.00488.04993.00488.04834,0,.09351-.01123.14111-.01416.07117-.00391.14221,0,.21313-.01025.02551-.00366.05017-.01416.07556-.0188.04639-.00879.09021-.02271.1355-.03394.10852-.02637.21558-.05713.32129-.09961.02344-.00977.04517-.02222.06824-.03271.09216-.04053.18567-.0769.27405-.13062l10.9834-6.32495,1.20569-.67358c.00122-.00073.00305-.0022.00427-.00269.24463-.12891.44409-.30713.62036-.50366.0022-.0022.00439-.00464.00659-.00708.04468-.05029.09692-.09448.13745-.14795.05981-.07007.11719-.14014.15771-.20386.03271-.05493.04761-.1145.0752-.17114.03662-.07397.07056-.14844.09912-.22559.02661-.07349.05176-.14575.07056-.22021.03223-.12329.05322-.24878.06494-.37646.00195-.02539.00928-.05005.0105-.07544.01001-.1709-.00488-.34375-.03357-.5166ZM2.60573,4.39111c.03076.03442.06079.06934.09375.10229-.03308-.0332-.06299-.06738-.09375-.10229ZM2.30495,3.96826c-.00696-.01294-.01599-.02441-.02271-.0376.00671.01318.01575.0249.02271.0376ZM6.6592,12.88037l.00195-6.01782,5.24146,2.99902-.01343.00781-5.22998,3.01099ZM11.9031,9.86206l-.00024-.00024.00073.00049h0l-.00049-.00024Z" fill="#fff"/>
  <path d="M18.91968,10.43555c.03223-.12329.05322-.24878.06494-.37646.00195-.02539.00928-.05005.0105-.07544.01001-.1709-.00488-.34375-.03357-.5166-.00195-.01099-.00476-.02124-.00696-.03223-.01636-.09106-.03027-.18237-.05811-.27271-.02002-.05469-.04688-.10645-.07251-.15894-.0083-.02075-.0105-.04346-.01941-.06396-.01794-.03638-.03052-.07495-.05029-.11035-.01624-.02905-.03845-.05225-.05579-.08032-.01379-.02612-.02563-.05273-.03784-.07959-.01367-.02271-.02612-.0459-.04053-.06812-.00439-.00708-.01025-.0127-.01477-.01953-.03455-.05347-.07532-.10107-.11414-.15137-.02002-.02515-.03784-.05273-.05835-.07739-.02124-.0249-.04431-.04834-.06567-.07275-.03491-.03833-.06812-.07715-.10547-.11304-.02625-.02417-.0531-.04712-.07983-.07056-.01733-.01465-.03809-.02661-.05566-.04102-.07812-.06445-.15723-.12646-.24353-.18042-.0072-.00439-.01257-.01025-.0199-.01465-.00867-.00464-.01636-.00928-.0249-.01465l-.23828-.13672c-.68164-.30688-1.49731-.2854-2.18481.13208l-3.51123,2.02148-.00049-.00024-.00049-.00049-.01343.00781-5.22998,3.01099-.01099.00635v.00122l-2.09717,1.20752-1.33093.76636c-.02954.01636-.05896.0332-.08826.05127-.06323.03833-.10522.09448-.1626.13794-.12476.09473-.25415.18579-.35376.30054-.00391.00439-.00781.00879-.0116.01318-.00159.00171-.00305.00342-.00476.00537-.09375.11035-.15955.23779-.23145.36157.01233.0166-.02417.15015-.078.32007-.01794.05664-.03784.11719-.05847.17896-.08264.24683-.17749.5105-.20996.60034-.00745.02026-.01245.03467-.0127.03491v.00024h0c-.00354.1604.02393.32056.05481.47998.00635.03296.00378.06592.01123.09863.0061.02637.01306.05273.01965.07886.00342.01318.0061.02661.00989.03955.02319.08179.06946.15845.10071.23877.04272.11011.07446.2229.13794.32739.08398.13818.17981.26465.28564.37891.10571.11401.22119.21582.3446.30493.37.26685.8092.41846,1.25964.44043.15015.00732.30151.00024.45203-.02173.3009-.04419.59827-.14795.87463-.31567l10.9834-6.32495,1.20569-.67358c.00122-.00073.00305-.0022.00427-.00269.31006-.16357.56323-.39355.7644-.65869.05981-.07007.11719-.14014.15771-.20386.03271-.05493.04761-.1145.0752-.17114.03662-.07397.07056-.14844.09912-.22559.02661-.07349.05176-.14575.07056-.22021ZM18.37268,11.41162c.00183-.00195.00378-.00366.00562-.00562-.00183.00195-.00378.00366-.00562.00562Z" fill="var(--iconPrimary, #222)" opacity=".35"/>
  <path d="M3.16287,4.86125c.00787.0046.01561.00847.02336.01331l3.47485,1.98805,5.24144,2.99902,3.51237-2.02218c.68495-.41581,1.49769-.43711,2.17684-.13142L5.5516.80843c-.51867-.31319-1.11008-.39209-1.66034-.27882-.02033.00411-.04139.00436-.06148.0092-.37588.08762-.72355.27567-1.0175.5407-.01888.01718-.03873.03292-.05712.05083-.06486.06244-.12537.12925-.18346.2004-.04962.06099-.09826.12271-.14244.18975-.01658.02517-.03812.0455-.05385.07164-.01622.02711-.03255.05518-.04804.08302-.00133.00242-.00206.00508-.00351.0075-.64259,1.10899-.26866,2.53069.839,3.17861Z" fill="#fff"/>
  <path d="M3.16287,4.86125c.00787.0046.01561.00847.02336.01331l3.47485,1.98805,5.24144,2.99902,3.51237-2.02218c.68495-.41581,1.49769-.43711,2.17684-.13142L5.5516.80843c-.51867-.31319-1.11008-.39209-1.66034-.27882-.02033.00411-.04139.00436-.06148.0092-.37588.08762-.72355.27567-1.0175.5407-.01888.01718-.03873.03292-.05712.05083-.06486.06244-.12537.12925-.18346.2004-.04962.06099-.09826.12271-.14244.18975-.01658.02517-.03812.0455-.05385.07164-.01622.02711-.03255.05518-.04804.08302-.00133.00242-.00206.00508-.00351.0075-.64259,1.10899-.26866,2.53069.839,3.17861Z" fill="var(--iconPrimary, #222)" opacity=".65"/>
  <path d="M3.18623,4.87456c-.00775-.00484-.01549-.00871-.02336-.01331-.77608-.45381-1.18148-1.28785-1.13997-2.12795-.00399.06196-.02372.11981-.02287.18298v13.94951l.00847.00024v.00024l4.63842.08399.00133-4.06347.01089-.00629.00194-6.01788-3.47485-1.98805Z" fill="#fff" opacity=".87"/>
  <path d="M3.18623,4.87456c-.00775-.00484-.01549-.00871-.02336-.01331-.77608-.45381-1.18148-1.28785-1.13997-2.12795-.00399.06196-.02372.11981-.02287.18298v13.94951l.00847.00024v.00024l4.63842.08399.00133-4.06347.01089-.00629.00194-6.01788-3.47485-1.98805Z" fill="var(--iconPrimary, #222)" opacity=".8"/>
  <circle cx="4.33042" cy="16.92905" r="2.3274" fill="var(--iconPrimary, #222)"/>
</svg>