<?xml version="1.0" encoding="UTF-8"?>
<svg id="c" data-name="text" xmlns="http://www.w3.org/2000/svg" width="20" height="20" viewBox="0 0 20 20">
  <path d="M15.4172,7.8411c1.10477-.67062,2.54369-.31864,3.21353.78613.67062,1.10477.31864,2.54369-.78613,3.21353-.02946.01783-.05892.03489-.08838.05117l-12.18815,7.0186c-1.10477.67062-2.54369.31864-3.2143-.78613-.67062-1.10477-.31864-2.54369.78613-3.2143.02946-.01783.05892-.03489.08838-.05117l12.18893-7.01782Z" fill="#81c995"/>
  <path d="M6.65965,2.83591c.00543-1.28929-1.03577-2.33979-2.32506-2.34522-.16591-.00078-.33104.01628-.49385.05039-1.09237.26825-1.85602,1.2544-1.84051,2.3801v13.94028l4.65477.0845.00465-14.11006Z" fill="#34a853"/>
  <path d="M15.46992,11.90046c1.12648.58378,2.51268.2101,3.19337-.86133.65433-1.1009.29228-2.52431-.80862-3.17864-.00853-.00465-.01628-.0093-.02481-.01473L5.56031.81476c-1.09237-.65976-2.51345-.30934-3.17399.78303-.01628.02713-.03256.05504-.04807.08295-.64813,1.10942-.27445,2.53516.83497,3.18407.00775.00465.01551.00853.02326.01318l12.27343,7.02247Z" fill="#5bb974"/>
  <path d="M17.74924,11.91674l-11.09346,6.1968v-5.32306l8.80251-4.90829c1.16679-.64658,2.6375-.22483,3.28408.94274.06047.10854.11164.22173.15428.33802.33027,1.07376-.15195,2.23125-1.14741,2.75379Z" fill="#81c995"/>
  <circle cx="4.33228" cy="16.97776" r="2.3274" fill="#1e8e3e"/>
</svg>