<?xml version="1.0" encoding="UTF-8"?>
<svg id="c" data-name="text" xmlns="http://www.w3.org/2000/svg" width="20" height="20" viewBox="0 0 20 20">
  <g id="d" data-name="surface1">
    <path d="M8.5171,14.27308c-.72706.72721-1.97787.80077-2.78493-.00614l-2.93625,2.93625c2.39631,2.39631,6.27969,2.39526,8.676,0,2.39616-2.39526,2.39616-6.27969,0-8.67585l-2.94973,2.94958c.79882.79777.74878,2.04244-.00509,2.79617Z" fill="#34a853"/>
    <path d="M14.26495,8.52524c-.74354.74354-1.9963.79882-2.79302.0021l-2.94449,2.94449c2.39616,2.39616,6.27954,2.39526,8.67585,0s2.39631-6.27969,0-8.676l-2.94029,2.94044c.80886.80991.73215,2.05877.00195,2.78898Z" fill="#5bb974"/>
    <path d="M17.20329,2.79687C14.80698.40056,10.9236.40161,8.52744,2.79687c-2.39526,2.39526-2.39631,6.27969,0,8.67585l2.94449-2.94449c-.82024-.82024-.72616-2.06387.00405-2.79407.78444-.78444,2.0342-.74863,2.78703.00405.812.81215,2.12829.81215,2.94029,0,.81215-.81305.81215-2.12934,0-2.94134Z" fill="#1e8e3e"/>
    <path d="M11.47193,8.52823c-2.39631-2.39616-6.27969-2.39526-8.676,0-2.39526,2.39526-2.39526,6.27969,0,8.67496.87133.87148,2.2838.87148,3.15513,0,.87148-.87133.65155-2.06686-.21993-2.93834-.70159-.70159-.84167-1.94521-.00405-2.78388.68226-.68211,1.90341-.87642,2.79512-.00509.87148.87133,2.18162.77215,2.95992-.00509.75073-.74863.86114-2.07211-.01019-2.94254Z" fill="#5bb974"/>
  </g>
</svg>