<?xml version="1.0" encoding="UTF-8"?>
<svg   xmlns="http://www.w3.org/2000/svg" width="20" height="20" viewBox="0 0 20 20">
  <path d="M15.10449,15.6377l-6.25439-3.70117c-.69189-.40918-1.10449-1.13281-1.10449-1.93652s.4126-1.52734,1.10449-1.93652l6.25439-3.70117c.7041-.41504,1.54883-.4209,2.26025-.01758.71094.40625,1.13525,1.13574,1.13525,1.9541v7.40234c0,.81836-.42432,1.54785-1.13525,1.9541-.3501.19922-.73291.2998-1.11572.2998-.39355,0-.78711-.10645-1.14453-.31738ZM15.86816,5.65332l-6.25439,3.70117c-.33252.19629-.36816.5166-.36816.64551s.03564.44922.36816.64551l6.25439,3.70117c.33936.19727.63965.07031.75342.00586.11377-.06543.37842-.25879.37842-.65137v-7.40234c0-.39258-.26465-.58594-.37842-.65137-.06836-.03906-.20508-.10156-.37646-.10156-.11328,0-.24219.02734-.37695.10742Z" fill="var(--iconPrimary, #222)"/>
  <path d="M1,13.75v-7.5c0-1.24023,1.00928-2.25,2.25-2.25h.5c1.24072,0,2.25,1.00977,2.25,2.25v7.5c0,1.24023-1.00928,2.25-2.25,2.25h-.5c-1.24072,0-2.25-1.00977-2.25-2.25ZM3.25,5.5c-.41357,0-.75.33691-.75.75v7.5c0,.41309.33643.75.75.75h.5c.41357,0,.75-.33691.75-.75v-7.5c0-.41309-.33643-.75-.75-.75h-.5Z" fill="var(--iconPrimary, #222)"/>
</svg>