<?xml version="1.0" encoding="UTF-8"?>
<svg   xmlns="http://www.w3.org/2000/svg" width="20" height="20" viewBox="0 0 20 20">
  <path d="M14.47327,13.1392c-2.0011-1.91357-2.35461-5.25952-2.63049-7.8833-.23633-2.23828-.42188-4.00586-1.87207-4.00586-1.42285,0-1.6084,1.76758-1.84473,4.00586-.27588,2.62378-.62939,5.96973-2.63049,7.8833-2.21594.54321-3.39392,1.42432-3.39392,2.55908,0,2.0957,4.0791,3.05078,7.86914,3.05078.00488,0,.00879-.00269.01367-.00269s.00879.00269.01367.00269c3.79004,0,7.86914-.95508,7.86914-3.05078,0-1.13477-1.17798-2.01587-3.39392-2.55908ZM9.99805,17.24907c-.00488,0-.00879.00269-.01367.00269s-.00879-.00269-.01367-.00269c-3.80713,0-5.94214-.9502-6.29626-1.42163,4.9823-1.41772,5.58606-7.01587,5.94373-10.41431.08789-.83203.20117-1.90918.36621-2.43848.16504.5293.27832,1.60645.36621,2.43848.35767,3.39844.96143,8.99658,5.94373,10.41431-.35413.47144-2.48914,1.42163-6.29626,1.42163Z" fill="var(--iconPrimary, #222)"/>
</svg>