<?xml version="1.0" encoding="UTF-8"?>
<svg id="e" data-name="ICONS" xmlns="http://www.w3.org/2000/svg" width="20" height="20" xmlns:xlink="http://www.w3.org/1999/xlink" viewBox="0 0 20 20">
  <defs>
    <radialGradient id="f" cx="10" cy="10" fx="10" fy="10" r="7.50248" gradientUnits="userSpaceOnUse">
      <stop offset="0" stop-color="var(--iconPrimary, #222)"/>
      <stop offset=".02339" stop-color="color-mix(in srgb, var(--iconPrimary, #222), var(--iconPrimary, #222) 3.19787%)" stop-opacity=".96802"/>
      <stop offset=".62156" stop-color="color-mix(in srgb, var(--iconPrimary, #222), var(--iconPrimary, #222) 73.90055%)" stop-opacity=".26099"/>
      <stop offset=".9906" stop-color="var(--iconPrimary, #222)" stop-opacity="0"/>
    </radialGradient>
  </defs>
  <path d="M15.75,18H4.25c-1.24072,0-2.25-1.00977-2.25-2.25V4.25c0-1.24023,1.00928-2.25,2.25-2.25h11.5c1.24072,0,2.25,1.00977,2.25,2.25v11.5c0,1.24023-1.00928,2.25-2.25,2.25ZM4.25,3.5c-.41357,0-.75.33691-.75.75v11.5c0,.41309.33643.75.75.75h11.5c.41357,0,.75-.33691.75-.75V4.25c0-.41309-.33643-.75-.75-.75H4.25Z" fill="var(--iconPrimary, #222)"/>
  <circle cx="10" cy="10" r="8" fill="url(#f)"/>
</svg>