<?xml version="1.0" encoding="UTF-8"?>
<svg id="f" data-name="ICONS" xmlns="http://www.w3.org/2000/svg" width="20" height="20" viewBox="0 0 20 20">
  <path d="M7.98381,5.67753c0,.69036-.55964,1.25-1.25,1.25s-1.25-.55964-1.25-1.25.55964-1.25,1.25-1.25,1.25.55964,1.25,1.25Z" fill="var(--iconPrimary, #222)"/>
  <path d="M12.35775,7.67083c0,.49706-.40294.9-.9.9s-.9-.40294-.9-.9.40294-.9.9-.9.9.40294.9.9Z" fill="var(--iconPrimary, #222)"/>
  <path d="M6.62237,12.8703c0,.46944-.38056.85-.85.85s-.85-.38056-.85-.85.38056-.85.85-.85.85.38056.85.85Z" fill="var(--iconPrimary, #222)"/>
  <path d="M9.38647,9.61051c0,.82843-.67157,1.5-1.5,1.5s-1.5-.67157-1.5-1.5.67157-1.5,1.5-1.5,1.5.67157,1.5,1.5Z" fill="var(--iconPrimary, #222)"/>
  <path d="M14.70401,10.92592c0,.60752-.49248,1.1-1.1,1.1s-1.1-.49248-1.1-1.1.49248-1.1,1.1-1.1,1.1.49248,1.1,1.1Z" fill="var(--iconPrimary, #222)"/>
  <path d="M11.63935,13.42769c0,.69036-.55964,1.25-1.25,1.25s-1.25-.55964-1.25-1.25.55964-1.25,1.25-1.25,1.25.55964,1.25,1.25Z" fill="var(--iconPrimary, #222)"/>
  <path d="M15.35704,14.6605c0,.59809-.48484,1.08293-1.08293,1.08293s-1.08293-.48484-1.08293-1.08293.48484-1.08293,1.08293-1.08293,1.08293.48484,1.08293,1.08293Z" fill="var(--iconPrimary, #222)"/>
  <path d="M15.75,2H4.25c-1.24023,0-2.25,1.00977-2.25,2.25v11.5c0,1.24023,1.00977,2.25,2.25,2.25h11.5c1.24023,0,2.25-1.00977,2.25-2.25V4.25c0-1.24023-1.00977-2.25-2.25-2.25ZM15.75,16.5h-7.18018c.03687-.10449.06641-.21289.06641-.32983,0-.55225-.44751-1-1-1-.55225,0-1,.44775-1,1,0,.11694.02979.22534.06665.32983h-2.45288c-.41309,0-.75-.33691-.75-.75v-6.41846c.08105.02393.16138.05054.25.05054.49707,0,.8999-.40308.8999-.90015s-.40283-.8999-.8999-.8999c-.08862,0-.16895.02661-.25.05054v-3.38257c0-.41309.33691-.75.75-.75h7.95825c-.2395.26587-.38916.61401-.38916,1,0,.82837.67163,1.5,1.5,1.5s1.5-.67163,1.5-1.5c0-.38599-.1499-.73413-.3894-1h1.32031c.41309,0,.75.33691.75.75v3.26025c-.05859-.00928-.11108-.03467-.17212-.03467-.63501,0-1.1499.51465-1.1499,1.1499s.51489,1.1499,1.1499,1.1499c.06104,0,.11353-.02539.17212-.03467v6.00928c0,.41309-.33691.75-.75.75Z" fill="var(--iconPrimary, #222)"/>
</svg>