<?xml version="1.0" encoding="UTF-8"?>
<svg id="f" data-name="ICONS" xmlns="http://www.w3.org/2000/svg" width="20" height="20" viewBox="0 0 20 20">
  <path d="M7.83381,5.35253c0,.64894-.52606,1.175-1.175,1.175s-1.175-.52606-1.175-1.175.52606-1.175,1.175-1.175,1.175.52606,1.175,1.175Z" fill="var(--iconPrimary, #222)"/>
  <path d="M12.45775,7.17083c0,.69036-.55964,1.25-1.25,1.25s-1.25-.55964-1.25-1.25.55964-1.25,1.25-1.25,1.25.55964,1.25,1.25Z" fill="var(--iconPrimary, #222)"/>
  <path d="M6.77237,12.3703c0,.69036-.55964,1.25-1.25,1.25s-1.25-.55964-1.25-1.25.55964-1.25,1.25-1.25,1.25.55964,1.25,1.25Z" fill="var(--iconPrimary, #222)"/>
  <path d="M8.88647,9.11051c0,.69036-.55964,1.25-1.25,1.25s-1.25-.55964-1.25-1.25.55964-1.25,1.25-1.25,1.25.55964,1.25,1.25Z" fill="var(--iconPrimary, #222)"/>
  <path d="M14.60401,10.42592c0,.69036-.55964,1.25-1.25,1.25s-1.25-.55964-1.25-1.25.55964-1.25,1.25-1.25,1.25.55964,1.25,1.25Z" fill="var(--iconPrimary, #222)"/>
  <path d="M11.38935,12.92769c0,.69036-.55964,1.25-1.25,1.25s-1.25-.55964-1.25-1.25.55964-1.25,1.25-1.25,1.25.55964,1.25,1.25Z" fill="var(--iconPrimary, #222)"/>
  <path d="M15.53059,14.60933c0,.69036-.55964,1.25-1.25,1.25s-1.25-.55964-1.25-1.25.55964-1.25,1.25-1.25,1.25.55964,1.25,1.25Z" fill="var(--iconPrimary, #222)"/>
  <path d="M15.75,2H4.25c-1.24023,0-2.25,1.00977-2.25,2.25v11.5c0,1.24023,1.00977,2.25,2.25,2.25h11.5c1.24023,0,2.25-1.00977,2.25-2.25V4.25c0-1.24023-1.00977-2.25-2.25-2.25ZM15.75,16.5h-7.78564c.06763-.15381.10791-.32202.10791-.50098,0-.69019-.55969-1.25-1.25-1.25-.69043,0-1.25.55981-1.25,1.25,0,.17896.04028.34717.10791.50098h-1.43018c-.41309,0-.75-.33691-.75-.75v-6.51807c.69043,0,1.25-.55957,1.25-1.25,0-.69019-.55957-1.25-1.25-1.25v-2.48193c0-.41309.33691-.75.75-.75h7.36951c-.01758.0835-.05042.16138-.05042.25,0,.69043.55957,1.25,1.25,1.25.69031,0,1.25-.55957,1.25-1.25,0-.08862-.03296-.1665-.05054-.25h1.73145c.41309,0,.75.33691.75.75v2.71069c-.13306-.0481-.27246-.08521-.42212-.08521-.69043,0-1.25.55957-1.25,1.25s.55957,1.25,1.25,1.25c.14966,0,.28906-.03687.42212-.08521v6.45972c0,.41309-.33691.75-.75.75Z" fill="var(--iconPrimary, #222)"/>
</svg>