<?xml version="1.0" encoding="UTF-8"?>
<svg id="f" data-name="ICONS" xmlns="http://www.w3.org/2000/svg" width="20" height="20" viewBox="0 0 20 20">
  <path d="M8,14.75c-.41406,0-.75-.33594-.75-.75v-2.79297c0-.41406.33594-.75.75-.75s.75.33594.75.75v2.79297c0,.41406-.33594.75-.75.75Z"/>
  <path d="M5.5,14.75c-.41406,0-.75-.33594-.75-.75v-1.29297c0-.41406.33594-.75.75-.75s.75.33594.75.75v1.29297c0,.41406-.33594.75-.75.75Z"/>
  <path d="M15.375,5.375h-1.79199c-.34521,0-.625.28027-.625.625s.27979.625.625.625h.13025l-2.66833,2.46582c-.04492.04297-.11328.0459-.16211.00586l-2.00537-1.57227c-.52295-.41113-1.26221-.38965-1.75928.0498l-2.78174,2.45703c-.25879.22852-.2832.62402-.05469.88281.12354.13965.29541.21094.46826.21094.14746,0,.29492-.05176.41357-.15625l2.78125-2.45703c.04639-.03906.11328-.04199.16064-.00391l2.00586,1.57324c.5332.41895,1.28369.38965,1.78223-.07227l2.85645-2.63965v.4375c0,.34473.27979.625.625.625s.625-.28027.625-.625v-1.80664c0-.34473-.27979-.625-.625-.625Z"/>
  <path d="M8.26074,17.00195H3.25146c-1.24072,0-2.25-1.00977-2.25-2.25V5.25195c0-1.24023,1.00928-2.25,2.25-2.25h13.5c1.24072,0,2.25,1.00977,2.25,2.25v3.99681c0,.41406-.33594.75-.75.75s-.75-.33594-.75-.75v-3.99681c0-.41309-.33643-.75-.75-.75H3.25146c-.41357,0-.75.33691-.75.75v9.5c0,.41309.33643.75.75.75h5.00928c.41406,0,.75.33594.75.75s-.33594.75-.75.75Z"/>
  <path d="M14.99811,10.5c-2.48529,0-4.5,2.01465-4.5,4.5s2.01471,4.5,4.5,4.5,4.5-2.01465,4.5-4.5-2.01471-4.5-4.5-4.5ZM16.87781,15.33838l-2.72986,3.0647c-.21124.23706-.59741,0-.47266-.29028l.92084-2.14722-1.30267-.54907c-.30377-.12817-.3927-.5105-.17468-.75513l2.72992-3.06445c.21082-.23706.59735,0,.4726.29028l-.92114,2.14722,1.30267.54907c.30408.12817.39233.51025.17499.75488Z"/>
</svg>