<?xml version="1.0" encoding="UTF-8"?>
<svg xmlns="http://www.w3.org/2000/svg" width="20" height="20" viewBox="0 0 20 20">
  <path d="M6.75,9h-2.5c-1.24023,0-2.25-1.00977-2.25-2.25v-3.5c0-1.24023,1.00977-2.25,2.25-2.25h2.5c1.24023,0,2.25,1.00977,2.25,2.25v3.5c0,1.24023-1.00977,2.25-2.25,2.25ZM4.25,2.5c-.41309,0-.75.33691-.75.75v3.5c0,.41309.33691.75.75.75h2.5c.41309,0,.75-.33691.75-.75v-3.5c0-.41309-.33691-.75-.75-.75h-2.5Z" fill="var(--iconPrimary, #222)"/>
  <rect x="2.75" y="1.75" width="5.5" height="6.5" rx="1.5" ry="1.5" fill="var(--iconPrimary, #222)" opacity=".2"/>
  <path d="M15.75,9h-2.5c-1.24023,0-2.25-1.00977-2.25-2.25v-3.5c0-1.24023,1.00977-2.25,2.25-2.25h2.5c1.24023,0,2.25,1.00977,2.25,2.25v3.5c0,1.24023-1.00977,2.25-2.25,2.25ZM13.25,2.5c-.41309,0-.75.33691-.75.75v3.5c0,.41309.33691.75.75.75h2.5c.41309,0,.75-.33691.75-.75v-3.5c0-.41309-.33691-.75-.75-.75h-2.5Z" fill="var(--iconPrimary, #222)"/>
  <path d="M2.25,19h-.25c-.41406,0-.75-.33594-.75-.75s.33594-.75.75-.75h.25c.41309,0,.75-.33691.75-.75v-3.5c0-.41309-.33691-.75-.75-.75h-.25c-.41406,0-.75-.33594-.75-.75s.33594-.75.75-.75h.25c1.24023,0,2.25,1.00977,2.25,2.25v3.5c0,1.24023-1.00977,2.25-2.25,2.25Z" fill="var(--iconPrimary, #222)"/>
  <path d="M18,19h-.25c-1.24023,0-2.25-1.00977-2.25-2.25v-3.5c0-1.24023,1.00977-2.25,2.25-2.25h.25c.41406,0,.75.33594.75.75s-.33594.75-.75.75h-.25c-.41309,0-.75.33691-.75.75v3.5c0,.41309.33691.75.75.75h.25c.41406,0,.75.33594.75.75s-.33594.75-.75.75Z" fill="var(--iconPrimary, #222)"/>
  <path d="M11.25,19h-2.5c-1.24023,0-2.25-1.00977-2.25-2.25v-3.5c0-1.24023,1.00977-2.25,2.25-2.25h2.5c1.24023,0,2.25,1.00977,2.25,2.25v3.5c0,1.24023-1.00977,2.25-2.25,2.25ZM8.75,12.5c-.41309,0-.75.33691-.75.75v3.5c0,.41309.33691.75.75.75h2.5c.41309,0,.75-.33691.75-.75v-3.5c0-.41309-.33691-.75-.75-.75h-2.5Z" fill="var(--iconPrimary, #222)"/>
</svg>