<?xml version="1.0" encoding="UTF-8"?>
<svg id="e" data-name="ICONS" xmlns="http://www.w3.org/2000/svg" width="20" height="20" viewBox="0 0 20 20">
  <path d="M17.25,2.02148h-3.25c-.41406,0-.75.33594-.75.75s.33594.75.75.75h1.43945l-3.45239,3.45239c-.07666.07397-.13892.16162-.17969.26172-.07544.18311-.0752.3894.00049.57251.07605.18323.22205.32935.40527.4054.09155.03796.18896.05798.28687.05798s.19531-.02002.28687-.05798c.09155-.03809.17432-.09265.24341-.16174l3.46973-3.46973v1.43945c0,.41406.33594.75.75.75s.75-.33594.75-.75v-3.25c0-.41406-.33594-.75-.75-.75Z" fill="var(--iconPrimary, #222)"/>
  <path d="M2.75,6.77148c.41406,0,.75-.33594.75-.75v-1.43945l3.46973,3.46973c.14648.14648.33789.21973.53027.21973s.38379-.07324.53027-.21973c.14929-.14929.22046-.3457.21753-.54126.00012-.00366.0022-.00684.0022-.0105,0-.2356-.1156-.43726-.28564-.57471l-3.40381-3.40381h1.43945c.41406,0,.75-.33594.75-.75s-.33594-.75-.75-.75h-3.25c-.41406,0-.75.33594-.75.75v3.25c0,.41406.33594.75.75.75Z" fill="var(--iconPrimary, #222)"/>
  <path d="M17.25,13.27148c-.41406,0-.75.33594-.75.75v1.43945l-3.49121-3.49121c-.29297-.29297-.76758-.29297-1.06055,0s-.29297.76758,0,1.06055l3.49121,3.49121h-1.43945c-.41406,0-.75.33594-.75.75s.33594.75.75.75h3.25c.41406,0,.75-.33594.75-.75v-3.25c0-.41406-.33594-.75-.75-.75Z" fill="var(--iconPrimary, #222)"/>
  <path d="M6.99121,11.96973l-3.49121,3.49121v-1.43945c0-.41406-.33594-.75-.75-.75s-.75.33594-.75.75v3.25c0,.41406.33594.75.75.75h3.25c.41406,0,.75-.33594.75-.75s-.33594-.75-.75-.75h-1.43945l3.49121-3.49121c.29297-.29297.29297-.76758,0-1.06055s-.76758-.29297-1.06055,0Z" fill="var(--iconPrimary, #222)"/>
</svg>