<?xml version="1.0" encoding="UTF-8"?>
<svg  xmlns="http://www.w3.org/2000/svg" width="20" height="20" viewBox="0 0 20 20">
  <path d="M17.74414,3.14355c-1.02441-.41016-2.18945.08887-2.60059,1.1123-.11841.29541-.15308.60107-.12927.89868l-6.26428,3.13208v-3.43311c.24207-.09766.46899-.2439.66504-.43945.77832-.7793.77832-2.04883,0-2.82812l-.00098-.00098c-.77832-.77637-2.04688-.7793-2.8291.00098-.77832.7793-.77832,2.04883.00098,2.8291.19568.19531.42212.34131.66406.43872v4.18286l-2.93506,1.46753c-.16614-.14648-.35376-.27344-.5708-.3606-1.02344-.41211-2.18945.08887-2.60059,1.1123-.41016,1.02344.08887,2.18945,1.1123,2.60059.24316.09766.49414.14355.74121.14355.79297,0,1.5459-.47559,1.85938-1.25488v-.00098c.11841-.29541.15308-.60107.12927-.89868l2.26428-1.13208v4.43335c-.24194.09717-.46875.24341-.66504.43921-.77832.7793-.77832,2.04883.00098,2.8291.38965.38867.90137.58398,1.41406.58398.51172,0,1.02441-.19531,1.41504-.58496.77832-.7793.77832-2.04883,0-2.82812l-.00098-.00098c-.19556-.19507-.42212-.34106-.66406-.43823v-5.18335l6.93506-3.46753c.16614.14648.35376.27344.5708.3606.24316.09766.49414.14355.74121.14355.79297,0,1.5459-.47559,1.85938-1.25488v-.00098c.41016-1.02344-.08887-2.18945-1.1123-2.60059ZM7.46875,2.46973c.14648-.14648.33887-.21973.53125-.21973s.38477.07324.53027.21973c.29199.29199.29199.76855.00098,1.06055-.29297.29297-.77051.29199-1.06152.00098-.29199-.29297-.29199-.76953-.00098-1.06152ZM3.69629,12.2793c-.15527.38379-.58984.56934-.97461.41699-.38379-.1543-.57129-.5918-.41797-.97461.11719-.29297.40039-.47168.69824-.47168.0918,0,.18555.01758.27637.05371.38379.1543.57129.5918.41797.97559ZM8.53125,17.53027c-.29297.29297-.77051.29199-1.06152.00098-.29199-.29297-.29199-.76953-.00098-1.06152.14648-.14648.33887-.21973.53125-.21973s.38477.07324.53027.21973c.29199.29199.29199.76855.00098,1.06055ZM17.69629,5.2793c-.1543.38281-.58887.57031-.97461.41699-.38379-.1543-.57129-.5918-.41797-.97461.11719-.29297.40039-.47168.69824-.47168.0918,0,.18555.01758.27637.05371.38379.1543.57129.5918.41797.97559Z" fill="var(--iconPrimary, #222)"/>
</svg>