<?xml version="1.0" encoding="UTF-8"?>
<svg xmlns="http://www.w3.org/2000/svg" width="20" height="20" viewBox="0 0 20 20">
  <path d="M17.99756,14.51074c0-.82715-.66162-1.5-1.47461-1.5H3.4751c-.81348,0-1.4751.67285-1.4751,1.50098l.00244,2.73828c0,.82715.66162,1.5,1.47461,1.5h13.04785c.81348,0,1.4751-.67285,1.4751-1.50098l-.00244-2.73828ZM3.50244,17.24902l-.02734-2.73828h1.39746v1.27344c0,.34473.27979.625.625.625s.625-.28027.625-.625v-1.27319h1.75732v.65796c0,.34473.27979.625.625.625s.625-.28027.625-.625v-.65771h1.74072v1.27295c0,.34473.27979.625.625.625s.625-.28027.625-.625v-1.27271h1.75635v.65747c0,.34473.27979.625.625.625s.625-.28027.625-.625v-.65723h1.37061l.00049,2.73828-12.99561-.00098Z" fill="var(--iconPrimary, #222)"/>
  <path d="M17.24133,10h-.6496c.46582-.37451.83228-.85986,1.04608-1.43457.31201-.84082.27832-1.75195-.09473-2.56641-.37354-.81445-1.0415-1.43555-1.88184-1.74805-.83936-.31152-1.75098-.27832-2.56689.09473-.37646.17188-.54199.61719-.36914.99414s.61865.54492.99414.36914c.44971-.20605.95361-.22559,1.41943-.05176.46436.17188.83398.51562,1.04053.9668.20654.4502.2251.9541.05225,1.41895-.13818.37256-.39008.6792-.71533.89453v-.66211c0-.41406-.33594-.75-.75-.75s-.75.33594-.75.75v2.47461c0,.41406.33594.75.75.75h2.4751c.41406,0,.75-.33594.75-.75s-.33594-.75-.75-.75Z" fill="var(--iconPrimary, #222)"/>
  <path d="M11,7.26855v-2.53711c.80139-.30444,1.375-1.07446,1.375-1.98145,0-1.17188-.95312-2.125-2.125-2.125-.90698,0-1.67706.57373-1.98151,1.375h-2.53693c-.30444-.80127-1.07458-1.375-1.98157-1.375-1.17188,0-2.125.95312-2.125,2.125,0,.90698.57361,1.677,1.375,1.98145v2.53711c-.80139.30444-1.375,1.07446-1.375,1.98145,0,1.17188.95312,2.125,2.125,2.125.90698,0,1.67706-.57373,1.98151-1.375h2.53699c.30444.80127,1.07452,1.375,1.98151,1.375,1.17188,0,2.125-.95312,2.125-2.125,0-.90698-.57361-1.67725-1.375-1.98145ZM8.26849,8.5h-2.53693c-.21552-.56738-.66425-1.01611-1.23157-1.23145v-2.53711c.56732-.21533,1.01599-.66406,1.23151-1.23145h2.53699c.21552.56738.66418,1.01611,1.23151,1.23145v2.53711c-.56732.21533-1.01599.66406-1.23151,1.23145ZM10.25,1.875c.48242,0,.875.39258.875.875s-.39258.875-.875.875-.875-.39258-.875-.875.39258-.875.875-.875ZM3.75,1.875c.48242,0,.875.39258.875.875s-.39258.875-.875.875-.875-.39258-.875-.875.39258-.875.875-.875ZM3.75,10.125c-.48242,0-.875-.39258-.875-.875s.39258-.875.875-.875.875.39258.875.875-.39258.875-.875.875ZM10.25,10.125c-.48242,0-.875-.39258-.875-.875s.39258-.875.875-.875.875.39258.875.875-.39258.875-.875.875Z" fill="var(--iconPrimary, #222)"/>
</svg>