<?xml version="1.0" encoding="UTF-8"?>
<svg xmlns="http://www.w3.org/2000/svg" width="20" height="20" viewBox="0 0 20 20">
  <polygon points="17 11.875 13.125 11.875 13.125 3 11.875 3 11.875 11.875 3 11.875 3 13.125 11.875 13.125 11.875 17 13.125 17 13.125 13.125 17 13.125 17 11.875" fill="var(--iconPrimary, #222)" opacity=".35"/>
  <path d="M15.75,2H4.25c-1.24023,0-2.25,1.00977-2.25,2.25v11.5c0,1.24023,1.00977,2.25,2.25,2.25h11.5c1.24023,0,2.25-1.00977,2.25-2.25V4.25c0-1.24023-1.00977-2.25-2.25-2.25ZM16.5,4.25v2.625h-8.375v-3.375h7.625c.41309,0,.75.33691.75.75ZM4.25,3.5h2.625v3.375h-3.375v-2.625c0-.41309.33691-.75.75-.75ZM3.5,15.75v-7.625h3.375v8.375h-2.625c-.41309,0-.75-.33691-.75-.75ZM15.75,16.5h-7.625v-8.375h8.375v7.625c0,.41309-.33691.75-.75.75Z" fill="var(--iconPrimary, #222)"/>
</svg>