<?xml version="1.0" encoding="UTF-8"?>
<svg xmlns="http://www.w3.org/2000/svg" width="20" height="20" viewBox="0 0 20 20">
  <path d="M18.25,6h-8.75V1.75c0-.41406-.33594-.75-.75-.75s-.75.33594-.75.75v4.25h-2.5V1.75c0-.41406-.33594-.75-.75-.75s-.75.33594-.75.75v4.25H1.75c-.41406,0-.75.33594-.75.75s.33594.75.75.75h2.25v5.5H1.75c-.41406,0-.75.33594-.75.75s.33594.75.75.75h2.25v3.75c0,.41406.33594.75.75.75s.75-.33594.75-.75v-3.75h2.5v3.75c0,.41406.33594.75.75.75s.75-.33594.75-.75v-3.75h1.5c.41406,0,.75-.33594.75-.75s-.33594-.75-.75-.75h-1.5v-5.5h8.75c.41406,0,.75-.33594.75-.75s-.33594-.75-.75-.75ZM8,13h-2.5v-5.5h2.5v5.5Z" fill="var(--iconPrimary, #222)"/>
  <path d="M18,14h-2.75v-2c0-.41602.34082-.75391.75977-.75391.41504,0,.74023.33105.74023.75391,0,.34473.28027.625.625.625s.625-.28027.625-.625c0-1.10449-.89258-2.00391-1.99023-2.00391-1.1084,0-2.00977.89941-2.00977,2.00391v2c-.55225,0-1,.44775-1,1v3c0,.55225.44775,1,1,1h4c.55225,0,1-.44775,1-1v-3c0-.55225-.44775-1-1-1Z" fill="var(--iconPrimary, #222)"/>
</svg>