<?xml version="1.0" encoding="UTF-8"?>
<svg   xmlns="http://www.w3.org/2000/svg" width="20" height="20" viewBox="0 0 20 20">
  <path d="M16.75586,14.00004c-.41406,0-.75.33594-.75.75v.69531l-5.25586-5.25586V3.56327l.48633.48755c.14648.14746.33887.2207.53125.2207.19141,0,.38379-.07324.5293-.21875.29395-.29297.29395-.76758.00195-1.06055l-1.76758-1.77148c-.28125-.2832-.78125-.2832-1.0625,0l-1.76758,1.77148c-.29199.29297-.29199.76758.00195,1.06055.29199.29102.76855.29297,1.06055-.00195l.48633-.48755v6.62622l-5.25,5.25v-.68945c0-.41406-.33594-.75-.75-.75s-.75.33594-.75.75v2.5c0,.41406.33594.75.75.75h2.5c.41406,0,.75-.33594.75-.75s-.33594-.75-.75-.75h-.68945l4.93945-4.93945,4.93945,4.93945h-.68359c-.41406,0-.75.33594-.75.75s.33594.75.75.75h2.5c.41406,0,.75-.33594.75-.75v-2.5c0-.41406-.33594-.75-.75-.75Z" fill="var(--iconPrimary, #222)"/>
</svg>