<?xml version="1.0" encoding="UTF-8"?>
<svg id="e" data-name="ICONS" xmlns="http://www.w3.org/2000/svg" width="20" height="20" viewBox="0 0 20 20">
  <path d="M19.16895,8.93848l-1.22021-1.42578c-.33057-.33105-.77002-.5127-1.2373-.5127h-5.96143V1.75c0-.41406-.33594-.75-.75-.75s-.75.33594-.75.75v1.25H3.28857c-.46729,0-.90674.18164-1.27734.55566l-1.17969,1.38281c-.40283.46973-.40283,1.15332-.00049,1.62305l1.22021,1.42578c.33057.33105.77002.5127,1.2373.5127h5.96143v9.75c0,.41406.33594.75.75.75s.75-.33594.75-.75v-5.75h5.96143c.46729,0,.90674-.18164,1.27734-.55566l1.17969-1.38281c.40283-.46973.40283-1.15332.00049-1.62305ZM3.28857,7c-.06592,0-.12988-.02637-.13672-.03027l-1.0415-1.21973,1.00146-1.17676c.04688-.04688.11084-.07324.17676-.07324h5.96143v2.5H3.28857ZM16.88818,10.92676c-.04688.04688-.11084.07324-.17676.07324h-5.96143v-2.5h5.96143c.06592,0,.12988.02637.13672.03027l1.0415,1.21973-1.00146,1.17676Z" fill="var(--iconPrimary, #222)"/>
</svg>