<?xml version="1.0" encoding="UTF-8"?>
<svg   xmlns="http://www.w3.org/2000/svg" width="20" height="20" viewBox="0 0 20 20">
  <path d="M18.55664,14.24418l-2.30762-10c-.2373-1.02734-1.13867-1.74414-2.19238-1.74414H5.94336c-1.05371,0-1.95508.7168-2.19238,1.74414L1.44336,14.24418c-.15527.67188.00195,1.36719.43164,1.90625.42871.54004,1.07129.84961,1.76074.84961h12.72852c.68945,0,1.33203-.30957,1.76074-.84961.42969-.53906.58691-1.23438.43164-1.90625ZM14.78809,4.58207l.90076,3.90332h-4.93884v-4.48535h3.30664c.35156,0,.65234.23926.73145.58203ZM5.94336,4.00004h3.30664v4.48535h-4.93884l.90076-3.90332c.0791-.34277.37988-.58203.73145-.58203ZM3.04883,15.21684c-.14355-.17969-.19629-.41113-.14453-.63477l1.06079-4.59668h5.28491v5.51465H3.63574c-.23047,0-.44434-.10352-.58691-.2832ZM16.95117,15.21684c-.14258.17969-.35645.2832-.58691.2832h-5.61426v-5.51465h5.28491l1.06079,4.59668c.05176.22363-.00098.45508-.14453.63477Z" fill="var(--iconPrimary, #222)"/>
</svg>