<?xml version="1.0" encoding="UTF-8"?>
<svg xmlns="http://www.w3.org/2000/svg" width="20" height="20" viewBox="0 0 20 20">
  <path d="M18,14h-.00391v-.99902c0-1.10156-.89551-1.99707-1.99609-1.99707s-1.99609.89551-1.99609,1.99707v.99902h-.00391c-.55225,0-1,.44775-1,1v3c0,.55225.44775,1,1,1h4c.55225,0,1-.44775,1-1v-3c0-.55225-.44775-1-1-1ZM15.24609,13.00098c0-.41602.33789-.75488.75391-.75488s.75391.33887.75391.75488v.99902h-1.50781v-.99902Z" fill="var(--iconPrimary, #222)"/>
  <path d="M18.25,6h-8.75V1.75c0-.41406-.33594-.75-.75-.75s-.75.33594-.75.75v4.25h-2.5V1.75c0-.41406-.33594-.75-.75-.75s-.75.33594-.75.75v4.25H1.75c-.41406,0-.75.33594-.75.75s.33594.75.75.75h2.25v5.5H1.75c-.41406,0-.75.33594-.75.75s.33594.75.75.75h2.25v3.75c0,.41406.33594.75.75.75s.75-.33594.75-.75v-3.75h2.5v3.75c0,.41406.33594.75.75.75s.75-.33594.75-.75v-3.75h1.5c.41406,0,.75-.33594.75-.75s-.33594-.75-.75-.75h-1.5v-5.5h8.75c.41406,0,.75-.33594.75-.75s-.33594-.75-.75-.75ZM8,13h-2.5v-5.5h2.5v5.5Z" fill="var(--iconPrimary, #222)"/>
</svg>