<?xml version="1.0" encoding="UTF-8"?>
<svg xmlns="http://www.w3.org/2000/svg" width="16" height="16" viewBox="0 0 16 16">
  <path d="M8,14.55062c-.42383,0-.84766-.13867-1.20117-.41602v-.00049c-1.27734-1.00293-4.19043-3.63721-5.13477-5.18359-.7666-1.25244-1.0293-2.8042-.7041-4.15088.28125-1.16309.96289-2.10303,1.9707-2.71729,1.14453-.69629,2.51758-.8252,3.58203-.33789.50195.22949,1.03418.61523,1.47852,1.05664.4541-.46582.98535-.84277,1.51758-1.06592,1.09277-.4585,2.45703-.32471,3.55957.34717,1.00879.61426,1.69043,1.5542,1.97168,2.71729.3252,1.34668.0625,2.89844-.7041,4.15137-.94531,1.54688-3.85742,4.18066-5.13477,5.18262-.35352.27783-.77734.41699-1.20117.41699Z" fill="var(--iconPrimary, #222)"/>
</svg>