<?xml version="1.0" encoding="UTF-8"?>
<svg xmlns="http://www.w3.org/2000/svg" width="14" height="14" viewBox="0 0 14 14">
  <path d="M6.99201,10.71331c-.15497.00546-.30596-.04963-.421-.1536-.22194-.24527-.22194-.61881,0-.86408.11378-.1065.26527-.16332.42102-.15791.1588-.00637.31302.05399.42531.16646.10889.11281.1674.26494.16217.42164.00832.15787-.04676.31252-.15299.4296-.11663.11069-.27403.16789-.43451.15791Z" fill="var(--iconPrimary, #222)"/>
  <path d="M6.99463,8.93945c-.34521,0-.625-.28027-.625-.625,0-.69824.05127-1.20703.73438-1.88867.50049-.50098.58057-.68652.58057-1.02344,0-.16992-.05762-.72363-.80176-.72363-.79004,0-.89209.62695-.90479.81934-.02246.34375-.32324.59961-.66406.58301-.34473-.02246-.60547-.32031-.58301-.66504.04492-.6875.55225-1.9873,2.15186-1.9873,1.34717,0,2.05176.99316,2.05176,1.97363,0,.80664-.33301,1.29297-.94678,1.90723-.35693.35645-.36816.46875-.36816,1.00488,0,.34473-.27979.625-.625.625Z" fill="var(--iconPrimary, #222)"/>
  <path d="M7,13.1748c-3.40479,0-6.1748-2.76953-6.1748-6.1748S3.59521.8252,7,.8252s6.1748,2.76953,6.1748,6.1748-2.77002,6.1748-6.1748,6.1748ZM7,2.0752c-2.71533,0-4.9248,2.20898-4.9248,4.9248s2.20947,4.9248,4.9248,4.9248,4.9248-2.20898,4.9248-4.9248-2.20947-4.9248-4.9248-4.9248Z" fill="var(--iconPrimary, #222)"/>
</svg>