<?xml version="1.0" encoding="UTF-8"?>
<svg   xmlns="http://www.w3.org/2000/svg" width="20" height="20" viewBox="0 0 20 20">
  <path d="M10,15.75c-3.17564,0-5.75-2.57436-5.75-5.75s2.57436-5.75,5.75-5.75v11.5Z" fill="#fff" stroke-width="0"/>
  <path d="M10,1.25C5.17529,1.25,1.25,5.1748,1.25,10s3.92529,8.75,8.75,8.75,8.75-3.9248,8.75-8.75S14.82471,1.25,10,1.25ZM16.34515,13.5h-5.59515v-1.5h6.21313c-.15149.52661-.35754,1.02979-.61798,1.5ZM10.75,6h5.29102c.30865.4646.55945.96899.75549,1.5h-6.04651v-1.5ZM10.75,4.5v-1.71094c1.5047.15527,2.87091.77612,3.96075,1.71094h-3.96075ZM10.75,10.5v-1.5h6.42273c.04553.32764.07727.65991.07727,1,0,.1687-.01392.33398-.02533.5h-6.47467ZM2.75,10c0-3.74463,2.85352-6.83447,6.5-7.21094v14.42188c-3.64648-.37646-6.5-3.46631-6.5-7.21094ZM10.75,17.21094v-2.21094h4.48706c-1.15857,1.21289-2.72845,2.0293-4.48706,2.21094Z" fill="var(--iconPrimary, #222)" stroke-width="0"/>
</svg>