<?xml version="1.0" encoding="UTF-8"?>
<svg xmlns="http://www.w3.org/2000/svg" width="20" height="20" viewBox="0 0 20 20">
  <path d="M9.99973,15.25c-.10059,0-.2002-.02051-.29004-.06055s-.16992-.08984-.24023-.16016c-.07031-.06934-.12012-.14941-.16016-.23926s-.05957-.19043-.05957-.29004c0-.10059.01953-.2002.05957-.29004s.08984-.16992.16016-.24023.15039-.12012.24023-.16016c.18945-.08008.39941-.08008.58008,0,.08984.04004.16992.08984.23926.16016.07031.07031.12012.15039.16016.24023s.06055.18945.06055.29004c0,.09961-.02051.2002-.06055.29004s-.08984.16992-.16016.23926c-.06934.07031-.14941.12012-.23926.16016s-.19043.06055-.29004.06055Z" fill="var(--iconPrimary, #222)"/>
  <path d="M9.99973,12.75c-.10059,0-.2002-.02051-.29004-.06055s-.16992-.08984-.24023-.16016c-.07031-.06934-.12012-.14941-.16016-.23926s-.05957-.19043-.05957-.29004c0-.2002.08008-.39062.21973-.53027.07031-.07031.15039-.12012.24023-.16016.18945-.08008.39941-.08008.58008,0,.08984.04004.16992.08984.23926.16016.14062.13965.2207.33008.2207.53027,0,.09961-.02051.2002-.06055.29004-.0293.08984-.08984.16992-.16016.23926-.06934.07031-.14941.12012-.23926.16016s-.19043.06055-.29004.06055Z" fill="var(--iconPrimary, #222)"/>
  <path d="M15.24973,17h-.75v-1.93262c0-1.74609-.67969-3.38672-1.95117-4.6582-.11133-.11133-.17285-.25977-.17285-.41699s.06152-.30566.20996-.4541c1.23438-1.23438,1.91406-2.875,1.91406-4.62109v-1.91699h.75c.41406,0,.75-.33594.75-.75s-.33594-.75-.75-.75H4.74973c-.41406,0-.75.33594-.75.75s.33594.75.75.75h.75v1.91699c0,1.74609.67969,3.38672,1.95117,4.6582.11133.11133.17285.25977.17285.41699s-.06152.30566-.20996.4541c-1.23438,1.23438-1.91406,2.875-1.91406,4.62109v1.93262h-.75c-.41406,0-.75.33594-.75.75s.33594.75.75.75h10.5c.41406,0,.75-.33594.75-.75s-.33594-.75-.75-.75ZM12.99973,3v1.91699c0,.55371-.11035,1.08716-.28369,1.6001-.02905-.00342-.05444-.01709-.08447-.01709h-5.26465c-.03027,0-.05615.01379-.08569.01733-.17163-.51123-.28149-1.04541-.28149-1.60034v-1.91699h6ZM6.99973,15.06738c0-1.34473.52344-2.60938,1.51172-3.59766.81445-.81445.81445-2.14062-.03711-2.99219-.14771-.14771-.26562-.31543-.39258-.47754h3.83179c-.13599.1748-.26465.35376-.42554.51465-.81445.81445-.81445,2.14062.03711,2.99219.95117.95117,1.47461,2.21582,1.47461,3.56055v1.93262h-6v-1.93262Z" fill="var(--iconPrimary, #222)"/>
</svg>