<?xml version="1.0" encoding="UTF-8"?>
<svg id="e" data-name="ICONS" xmlns="http://www.w3.org/2000/svg" width="20" height="20" viewBox="0 0 20 20">
  <path d="M9.99707,13.25c-1.79199,0-3.25-1.45801-3.25-3.25s1.45801-3.25,3.25-3.25,3.25,1.45801,3.25,3.25-1.45801,3.25-3.25,3.25ZM9.99707,8.25c-.96484,0-1.75.78516-1.75,1.75s.78516,1.75,1.75,1.75,1.75-.78516,1.75-1.75-.78516-1.75-1.75-1.75Z" fill="var(--iconPrimary, #222)"/>
  <path d="M7.26855,18.41016c-.89258,0-1.78564-.28027-2.56885-.84082-1.58691-1.13477-2.22949-3.07031-1.63623-4.92871l.08398-.26465-.31201-.23145c-1.55811-1.15332-2.17236-3.08789-1.56494-4.92871s2.25195-3.03027,4.19043-3.03027h.29785l.03662-.11328c.59473-1.86621,2.24512-3.07227,4.20361-3.07227,1.95898,0,3.60938,1.20605,4.20459,3.07227h0l.03662.11328h.29736c1.93848,0,3.5835,1.18945,4.19043,3.03027.60742,1.84082-.00635,3.77539-1.56445,4.92871l-.31201.23145.08398.26367c.59277,1.85938-.0498,3.79492-1.63672,4.92969-1.58691,1.13574-3.62598,1.11816-5.19336-.04199l-.10596-.07812-.10645.07812c-.79395.58789-1.70898.88281-2.62451.88281ZM9.99951,15.76562c.15674,0,.31396.04883.44629.14746l.55225.40918c1.25586.93066,2.59424.625,3.42822.02734.8335-.5957,1.55518-1.76465,1.08057-3.25391l-.24756-.77441c-.09766-.30664.01025-.64062.26807-.83105l.74365-.55078c1.24805-.9248,1.35205-2.28711,1.03271-3.25391-.31885-.9668-1.21338-2-2.76611-2h-.8457c-.32666,0-.61523-.21094-.71436-.52246l-.20264-.63574c-.47705-1.49414-1.74658-2.02734-2.77588-2.02734-1.02881,0-2.29785.5332-2.7749,2.02734l-.20264.63574c-.09912.31152-.3877.52246-.71436.52246h-.84619c-1.55273,0-2.44678,1.0332-2.76611,2-.31885.9668-.21484,2.3291,1.0332,3.25391l.74365.55078c.25781.19043.36572.52441.26807.83105l-.24756.77539c-.47461,1.48828.24658,2.65625,1.08008,3.25293.8335.59766,2.17236.90332,3.42822-.02734l.55273-.40918c.13281-.09863.28955-.14746.44629-.14746Z" fill="var(--iconPrimary, #222)"/>
</svg>