<?xml version="1.0" encoding="UTF-8"?>
<svg xmlns="http://www.w3.org/2000/svg" width="20" height="20" viewBox="0 0 20 20">
  <path d="M18.25879,12.69531c-.07715,0-.15625-.01172-.23438-.0376l-.66504-.21875c-.39355-.12939-.60742-.55322-.47852-.94678.12988-.39258.55078-.60986.94727-.47803l.66504.21875c.39355.12939.60742.55322.47852.94678-.10449.31543-.39746.51562-.71289.51562Z" fill="var(--iconPrimary, #222)"/>
  <path d="M2.84766,7.63428c-.07715,0-.15625-.01172-.23438-.0376l-.66504-.21875c-.39355-.12939-.60742-.55322-.47852-.94678.12988-.39307.54883-.60986.94727-.47803l.66504.21875c.39355.12939.60742.55322.47852.94678-.10449.31543-.39746.51562-.71289.51562Z" fill="var(--iconPrimary, #222)"/>
  <path d="M17.14746,6.55371c-.27441,0-.53906-.15088-.6709-.41211-.18652-.36963-.03809-.8208.33203-1.00732l.625-.31543c.37109-.18701.82129-.0376,1.00781.33154.18652.36963.03809.8208-.33203,1.00732l-.625.31543c-.1084.05469-.22363.08057-.33691.08057Z" fill="var(--iconPrimary, #222)"/>
  <path d="M2.67188,13.87256c-.27441,0-.53809-.15039-.66992-.41113-.1875-.36963-.03906-.8208.33008-1.00781l.62402-.31592c.37207-.18945.82129-.03809,1.00781.33008.1875.36963.03906.8208-.33008,1.00781l-.62402.31592c-.1084.05518-.22461.08105-.33789.08105Z" fill="var(--iconPrimary, #222)"/>
  <path d="M6.7207,3.12988c-.27441,0-.53809-.15039-.66992-.41113l-.31641-.625c-.1875-.36963-.03906-.8208.33008-1.00781.37109-.18896.82129-.03809,1.00781.33008l.31641.625c.1875.36963.03906.8208-.33008,1.00781-.1084.05518-.22461.08105-.33789.08105Z" fill="var(--iconPrimary, #222)"/>
  <path d="M14.03906,17.60596c-.27441,0-.53906-.15088-.6709-.41211l-.31543-.625c-.18652-.36963-.03809-.8208.33203-1.00732.37012-.1875.82129-.0376,1.00781.33154l.31543.625c.18652.36963.03809.8208-.33203,1.00732-.1084.05469-.22363.08057-.33691.08057Z" fill="var(--iconPrimary, #222)"/>
  <path d="M12.6543,2.66602c-.07715,0-.15625-.01172-.23438-.0376-.39355-.12939-.60742-.55322-.47852-.94678l.21875-.66504c.13086-.39258.5498-.60938.94727-.47803.39355.12939.60742.55322.47852.94678l-.21875.66504c-.10449.31543-.39746.51562-.71289.51562Z" fill="var(--iconPrimary, #222)"/>
  <path d="M6.83887,18.27588c-.16992,0-.3418-.05127-.49414-.15527-.35742-.24268-.4834-.6875-.30664-1.08154l1.99707-4.45312h-1.36426c-.27734,0-.53223-.12695-.69922-.34863s-.21875-.50146-.1416-.76807l1.68555-5.88184c.1084-.37402.45508-.63379.8418-.63379h3.69922c.3125,0,.59473.16064.75293.43018.15918.26855.16406.59277.0127.86621l-1.63672,2.99609h2.75391c.35352,0,.66992.20996.80664.53516.1377.3252.06641.69824-.17969.95068l-7.10352,7.27637c-.17188.17676-.39648.26758-.62402.26758ZM7.16895,11.33594h1.83203c.21191,0,.40918.10742.52441.28516.11523.17822.13281.40234.0459.5957l-1.5293,3.40869,5.00781-5.12939h-2.91797c-.2207,0-.4248-.11621-.53711-.30615-.11328-.18994-.11719-.4248-.01172-.61865l1.84082-3.36768h-2.78418l-1.4707,5.13232Z" fill="var(--iconPrimary, #222)"/>
</svg>