<?xml version="1.0" encoding="UTF-8"?>
<svg   xmlns="http://www.w3.org/2000/svg" width="20" height="20" viewBox="0 0 20 20">
  <path d="M2.75,6.98926c-.41406,0-.75-.33594-.75-.75v-1.98926c0-1.24023,1.00928-2.25,2.25-2.25h1.99902c.41406,0,.75.33594.75.75s-.33594.75-.75.75h-1.99902c-.41357,0-.75.33691-.75.75v1.98926c0,.41406-.33594.75-.75.75Z" fill="var(--iconPrimary, #222)"/>
  <path d="M12.84326,6.51465c-.26855-.51465-.66895-.95215-1.16016-1.2666-.49951-.31738-1.07666-.48535-1.66553-.48535h-.01367c-.59131,0-1.16797.16797-1.67139.48633-.48877.31348-.88916.75098-1.15625,1.26465-.2832.54102-.42822,1.14844-.41895,1.7334-.02246,1.20215.56494,2.3125,1.5791,2.97559.49658.31641,1.07129.48438,1.66357.48535h.02002c.59082-.00098,1.16553-.16895,1.66943-.49023,1.00732-.6582,1.59473-1.76855,1.57178-2.94531.00977-.60938-.13525-1.21777-.41797-1.75781ZM10.87646,9.95703c-.25635.16406-.55371.25-.85938.25098h-.01562c-.30566-.00098-.60303-.08691-.85156-.24609-.57178-.37402-.90576-1.00391-.89258-1.71289-.00537-.36035.08008-.71973.24854-1.04102.14746-.2832.36719-.52344.6333-.69336.25928-.16504.55859-.25195.86816-.25195h.00342c.29248.03027.60791.08594.86572.25.26904.17188.48926.41309.63721.69629.16797.32031.25342.67969.24756,1.06641.01318.68262-.32031,1.3125-.88477,1.68164Z" fill="var(--iconPrimary, #222)"/>
  <path d="M17.24902,6.98926c-.41406,0-.75-.33594-.75-.75v-1.98926c0-.41309-.33643-.75-.75-.75h-1.99902c-.41406,0-.75-.33594-.75-.75s.33594-.75.75-.75h1.99902c1.24072,0,2.25,1.00977,2.25,2.25v1.98926c0,.41406-.33594.75-.75.75Z" fill="var(--iconPrimary, #222)"/>
  <path d="M6.24902,17.98926h-1.99902c-1.24072,0-2.25-1.00977-2.25-2.25v-1.98926c0-.41406.33594-.75.75-.75s.75.33594.75.75v1.98926c0,.41309.33643.75.75.75h1.99902c.41406,0,.75.33594.75.75s-.33594.75-.75.75Z" fill="var(--iconPrimary, #222)"/>
  <path d="M15.74902,17.98926h-1.99902c-.41406,0-.75-.33594-.75-.75s.33594-.75.75-.75h1.99902c.41357,0,.75-.33691.75-.75v-1.98926c0-.41406.33594-.75.75-.75s.75.33594.75.75v1.98926c0,1.24023-1.00928,2.25-2.25,2.25Z" fill="var(--iconPrimary, #222)"/>
  <path d="M13.6167,14.97754c-.10205,0-.20557-.02051-.30469-.06445-.65137-.29102-1.35205-.48828-2.08252-.58691-.4082-.05469-.85156-.06934-.86279-.06934-.11719-.00586-.39062-.00586-.49609,0-.03857.00098-.47705.01465-.88135.06934-.72363.09766-1.41992.29297-2.06836.58008-.37939.16797-.82227-.00293-.98926-.38184-.16797-.37891.00293-.82227.38184-.98926.77832-.34473,1.61084-.5791,2.4751-.69531.47705-.06445.99609-.08203,1.04004-.08203.09717-.00684.45752-.00879.59814,0h0c.00244,0,.52295.01758,1.00342.08203.87207.11816,1.71045.35449,2.49219.70215.37842.16895.54834.6123.37988.99121-.12451.27832-.39844.44434-.68555.44434Z" fill="var(--iconPrimary, #222)"/>
</svg>