<?xml version="1.0" encoding="UTF-8"?>
<svg   xmlns="http://www.w3.org/2000/svg" width="20" height="20" viewBox="0 0 20 20">
  <path d="M11.89551,19.07324c-.17578,0-.35254-.06152-.49512-.1875-.31104-.27344-.34082-.74707-.06738-1.05859,1.85352-2.10449,2.94971-4.5293,3.54297-6.19336.13867-.38965.56689-.59668.9585-.4541.39014.13867.59375.56738.45459.95801-.6377,1.78809-1.81934,4.39844-3.83008,6.68164-.14844.16797-.35547.25391-.56348.25391Z" fill="var(--iconPrimary, #222)"/>
  <path d="M16.354,9.6875c-.02539,0-.05127-.00098-.07715-.00391-.41211-.04199-.71191-.41016-.66992-.82227.24316-2.37891-1.00977-4.68848-3.11719-5.74707-.37012-.18555-.51953-.63672-.33398-1.00684.18652-.36914.6377-.52051,1.00684-.33301,2.66064,1.33594,4.24268,4.24512,3.93652,7.23926-.03955.38574-.36523.67383-.74512.67383Z" fill="var(--iconPrimary, #222)"/>
  <path d="M4.69189,5.37598c-.14307,0-.28711-.04102-.41504-.12598-.34473-.22949-.43848-.69434-.20898-1.03906,1.32666-1.99414,3.54102-3.18457,5.92334-3.18457.41406,0,.75.33594.75.75s-.33594.75-.75.75c-1.87939,0-3.62695.94043-4.67432,2.51465-.14453.21777-.38281.33496-.625.33496Z" fill="var(--iconPrimary, #222)"/>
  <path d="M2.01758,10.77148c-.26416,0-.52051-.13965-.65723-.3877-.19824-.36035-.07031-.81152.28564-1.01367.23828-.17285.92334-1.24902,1.28467-2.35156.12988-.39355.55273-.60938.94629-.47949.39404.12891.6084.55273.47949.94629-.33936,1.03516-1.20264,2.76562-1.97754,3.19336-.11475.0625-.23877.09277-.36133.09277Z" fill="var(--iconPrimary, #222)"/>
  <path d="M7.15381,18.95801c-.24707,0-.48877-.12207-.63232-.3457-.22314-.34863-.12158-.8125.22754-1.03613,4.34668-2.7832,5.6333-8.76074,5.646-8.82031.26221-1.36328-.60107-2.69238-1.92578-2.9541-1.34424-.25195-2.60059.58496-2.85742,1.91406-.29932,1.25586-1.67627,4.97754-4.08496,5.98438-.38184.1582-.82129-.02051-.98096-.40332-.15967-.38184.02051-.82129.40283-.98145,1.58789-.66309,2.86621-3.5293,3.19727-4.91602.40918-2.12207,2.43604-3.4873,4.60889-3.06934,2.13721.42188,3.53125,2.53711,3.11133,4.7168-.01367.06934-1.35547,6.62109-6.30859,9.79297-.125.08008-.26514.11816-.40381.11816Z" fill="var(--iconPrimary, #222)"/>
  <path d="M3.23779,17.15527c-.33789,0-.64404-.22949-.72803-.57227-.09863-.40234.14795-.80762.55029-.90625.38135-.09277.75049-.21777,1.09814-.37012,3.4707-1.51074,4.7251-5.5293,5.10303-7.18652.09277-.40332.49414-.65527.89844-.56445.40381.09277.65625.49414.56445.89844-.4292,1.87988-1.86914,6.44434-5.96582,8.22754-.42529.18652-.87695.33887-1.3418.45215-.06006.01465-.11963.02148-.17871.02148Z" fill="var(--iconPrimary, #222)"/>
</svg>