<?xml version="1.0" encoding="UTF-8"?>
<svg xmlns="http://www.w3.org/2000/svg" width="20" height="20" viewBox="0 0 20 20">
  <path d="M18,14.26843V5.73151c.80139-.30444,1.375-1.07452,1.375-1.98151,0-1.17188-.95312-2.125-2.125-2.125-.90698,0-1.67706.57361-1.98151,1.375H4.73157c-.30444-.80139-1.07458-1.375-1.98157-1.375C1.57812,1.625.625,2.57812.625,3.75c0,.90698.57361,1.67706,1.375,1.98151v8.53699c-.80139.30444-1.375,1.07452-1.375,1.98151,0,1.17188.95312,2.125,2.125,2.125.90698,0,1.67706-.57361,1.98151-1.375h10.53699c.30444.80139,1.07452,1.375,1.98151,1.375,1.17188,0,2.125-.95312,2.125-2.125,0-.90698-.57361-1.67712-1.375-1.98157ZM15.26849,15.5H4.73157c-.21552-.56732-.66425-1.01605-1.23157-1.23157v-.93396l.03027.03027,2.82666-2.82666c.19434-.19434.50977-.19434.7041,0l2.68848,2.68848c.61523.61621,1.61963.61719,2.23682,0l1.0249-1.0249c.19434-.19434.50977-.19434.7041,0l2.31409,2.31409c-.34387.2428-.60919.58484-.76093.98425ZM4.73151,4.5h10.53699c.21552.56732.66418,1.01599,1.23151,1.23151v7.13373l-1.72412-1.72412c-.75488-.75488-2.07031-.75488-2.8252,0l-1.0249,1.0249c-.03223.03271-.08301.0332-.11572,0l-2.68848-2.68848c-.75488-.75488-2.07031-.75488-2.8252,0l-1.79639,1.79639v-5.54242c.56732-.21552,1.01599-.66418,1.23151-1.23151ZM17.25,2.875c.48242,0,.875.39258.875.875s-.39258.875-.875.875-.875-.39258-.875-.875.39258-.875.875-.875ZM2.75,2.875c.48242,0,.875.39258.875.875s-.39258.875-.875.875-.875-.39258-.875-.875.39258-.875.875-.875ZM2.75,17.125c-.48242,0-.875-.39258-.875-.875s.39258-.875.875-.875.875.39258.875.875-.39258.875-.875.875ZM17.25,17.125c-.48242,0-.875-.39258-.875-.875s.39258-.875.875-.875.875.39258.875.875-.39258.875-.875.875Z" fill="var(--iconPrimary, #222)"/>
  <path id="b" data-name="Path 1005062" d="M14.54346,7.52114c0,.82843-.67157,1.5-1.5,1.5-.82843,0-1.5-.67157-1.5-1.5,0-.82843.67157-1.5,1.5-1.5s1.5.67157,1.5,1.5h0" fill="var(--iconPrimary, #222)"/>
</svg>