<?xml version="1.0" encoding="UTF-8"?>
<svg id="e" data-name="ICONS" xmlns="http://www.w3.org/2000/svg" width="20" height="20" viewBox="0 0 20 20">
  <path d="M18.49414,17.56421l-2,1.75c-.2832.24805-.70508.24805-.98828,0l-2-1.75c-.31152-.27246-.34277-.74707-.07031-1.05859.27441-.31152.74707-.34082,1.05859-.07031l.75586.66162v-4.34717c0-.41406.33594-.75.75-.75s.75.33594.75.75v4.34717l.75586-.66162c.14258-.12402.31836-.18555.49414-.18555.20801,0,.41602.08691.56445.25586.27246.31152.24121.78613-.07031,1.05859Z" fill="var(--iconPrimary, #222)"/>
  <path d="M10.99951,14.35547c-.44775,0-.89551-.16992-1.23633-.50977l-3.23291-3.2334c-.2832-.2832-.77783-.2832-1.06006,0l-3.08545,3.08496c-.29297.29297-.76758.29297-1.06055,0s-.29297-.76758,0-1.06055l3.08496-3.08496c.84863-.84961,2.33252-.84961,3.18213,0l3.23193,3.23242c.09717.09668.25684.0957.354-.00098l1.23193-1.23145c.29297-.29297.76758-.29297,1.06055,0s.29297.76758,0,1.06055l-1.23242,1.23242c-.34131.34082-.78955.51074-1.23779.51074Z" fill="var(--iconPrimary, #222)"/>
  <path id="f" data-name="Path 1005062" d="M14.5,7.52114c0,.82843-.67157,1.5-1.5,1.5-.82843,0-1.5-.67157-1.5-1.5,0-.82843.67157-1.5,1.5-1.5s1.5.67157,1.5,1.5h0" fill="var(--iconPrimary, #222)"/>
  <path d="M11.0752,17H3.25c-1.24072,0-2.25-1.00977-2.25-2.25V5.25c0-1.24023,1.00928-2.25,2.25-2.25h13.5c1.24072,0,2.25,1.00977,2.25,2.25v5.5c0,.41406-.33594.75-.75.75s-.75-.33594-.75-.75v-5.5c0-.41309-.33643-.75-.75-.75H3.25c-.41357,0-.75.33691-.75.75v9.5c0,.41309.33643.75.75.75h7.8252c.41406,0,.75.33594.75.75s-.33594.75-.75.75Z" fill="var(--iconPrimary, #222)"/>
</svg>