<?xml version="1.0" encoding="UTF-8"?>
<svg xmlns="http://www.w3.org/2000/svg" width="20" height="20" viewBox="0 0 20 20">
  <path d="M17.25,12.2998c0-2.72949-2.2207-4.94971-4.9502-4.94971s-4.9502,2.22021-4.9502,4.94971,2.2207,4.9502,4.9502,4.9502,4.9502-2.2207,4.9502-4.9502Z" fill="#222" opacity=".12"/>
  <path d="M7.7002,14.1499c3.55371,0,6.44507-2.88892,6.44971-6.44116.00049.00012.00073.00024.00122.00037l-.00085-.00623c0-.00092.00012-.00177.00012-.00269,0-.56549-.07312-1.1142-.21045-1.63721l-.00171-.00024-.00024-.00195c-.52332-.13745-1.07227-.21069-1.63818-.21069-3.55664,0-6.4502,2.89355-6.4502,6.44971,0,.56061.0719,1.1048.20703,1.62372l.00562.00073.00195.0155c.52271.13715,1.07104.21014,1.63599.21014Z" fill="var(--iconPrimary, #222)" opacity=".35"/>
  <path d="M5.84961,12.2998c0-3.55615,2.89355-6.44971,6.4502-6.44971s6.4502,2.89355,6.4502,6.44971c0,3.55664-2.89355,6.4502-6.4502,6.4502s-6.4502-2.89355-6.4502-6.4502ZM17.25,12.2998c0-2.72949-2.2207-4.94971-4.9502-4.94971s-4.9502,2.22021-4.9502,4.94971,2.2207,4.9502,4.9502,4.9502,4.9502-2.2207,4.9502-4.9502Z" fill="var(--iconPrimary, #222)"/>
  <path d="M3.63086,12.4375c-.19434,0-.38867-.0752-.53516-.22461-1.19043-1.21484-1.8457-2.81738-1.8457-4.5127C1.25,4.14355,4.14355,1.25,7.7002,1.25c1.69629,0,3.29883.65527,4.51367,1.8457.29492.28906.2998.76465.00977,1.06055-.29004.29492-.76465.2998-1.06055.00977-.93164-.91309-2.16113-1.41602-3.46289-1.41602-2.72949,0-4.9502,2.2207-4.9502,4.9502,0,1.30078.50293,2.53027,1.41602,3.46191.29004.2959.28516.77148-.00977,1.06055-.14648.14355-.33594.21484-.52539.21484Z" fill="var(--iconPrimary, #222)"/>
  <path d="M6.0498,12.2998c0-3.44592,2.80371-6.24976,6.25-6.24976.59143,0,1.16162.08801,1.70435.24225-.63733-2.90643-3.22339-5.08319-6.32117-5.08319C4.10693,1.20911,1.20801,4.10803,1.20801,7.68408c0,3.09821,2.17725,5.68451,5.08435,6.32141-.15442-.54303-.24255-1.11377-.24255-1.70569Z" fill="var(--iconPrimary, #222)" opacity=".12"/>
  <path d="M9.71191,13.77734c-.30273,0-.58789-.18457-.70117-.48535-.14648-.38672.04883-.81934.43652-.96582,1.32715-.50195,2.37695-1.55176,2.87891-2.87891.14648-.3877.58008-.58398.96582-.43652.3877.14648.58301.5791.43652.96582-.65332,1.73047-2.02148,3.09863-3.75195,3.75195-.08691.0332-.17676.04883-.26465.04883Z" fill="var(--iconPrimary, #222)" opacity=".5"/>
</svg>