<?xml version="1.0" encoding="UTF-8"?>
<svg xmlns="http://www.w3.org/2000/svg" width="20" height="20" viewBox="0 0 20 20">
  <path d="M14.6875,1H5.3125c-1.24023,0-2.25,1.00977-2.25,2.25v13.5c0,1.24023,1.00977,2.25,2.25,2.25h9.375c1.24023,0,2.25-1.00977,2.25-2.25V3.25c0-1.24023-1.00977-2.25-2.25-2.25ZM5.3125,2.5h9.375c.41309,0,.75.33691.75.75v8.8667l-1.41406-1.41455c-.84863-.84961-2.33203-.85059-3.18262,0l-1.23242,1.23242c-.09766.09766-.25586.09766-.35352,0l-3.23242-3.23242c-.40027-.40039-.92236-.60156-1.45996-.63306V3.25c0-.41309.33691-.75.75-.75ZM14.6875,17.5H5.3125c-.41309,0-.75-.33691-.75-.75v-7.19482c.14771.02612.2876.0957.39941.20752l3.23242,3.23242c.68164.68164,1.79297.68164,2.47461,0l1.23242-1.23242c.2832-.2832.77734-.2832,1.06055,0l2.47559,2.47559v2.51172c0,.41309-.33691.75-.75.75Z" fill="var(--iconPrimary, #222)"/>
  <path id="g"  d="M12.93192,6.67178c0,.82843-.67157,1.5-1.5,1.5-.82843,0-1.5-.67157-1.5-1.5,0-.82843.67157-1.5,1.5-1.5s1.5.67157,1.5,1.5h0" fill="var(--iconPrimary, #222)"/>
</svg>