<?xml version="1.0" encoding="UTF-8"?>
<svg xmlns="http://www.w3.org/2000/svg" width="20" height="20" viewBox="0 0 20 20">
  <path d="M16,18.83153c-1.90918,0-3.34961-1.39404-3.34961-3.24219,0-1.3623,1.0459-2.79053,1.96973-4.05078.27539-.37646.53906-.73486.74902-1.06201.27539-.43066.98633-.43066,1.26172,0,.20996.32715.47363.68555.74902,1.06201.92383,1.26025,1.96973,2.68848,1.96973,4.05078,0,1.84814-1.44043,3.24219-3.34961,3.24219ZM16,12.19237c-.05566.07666-.1123.1543-.16992.23242-.74805,1.02148-1.67969,2.29297-1.67969,3.16455,0,1.02588.76074,1.74219,1.84961,1.74219s1.84961-.71631,1.84961-1.74219c0-.87158-.93164-2.14307-1.67969-3.16455-.05762-.07812-.11426-.15576-.16992-.23242Z" fill="var(--iconPrimary, #222)"/>
  <circle cx="11.25" cy="6.74998" r="1.1" fill="var(--iconPrimary, #222)"/>
  <path d="M14.02246,2.99998H2.97754c-1.09082,0-1.97754.84814-1.97754,1.89014v7.21973c0,1.04199.88672,1.89014,1.97754,1.89014h8.09766c.41406,0,.75-.33594.75-.75s-.33594-.75-.75-.75H2.97754c-.25879,0-.47754-.17871-.47754-.39014v-1.09546l2.33594-2.3606c.1922-.19423.50677-.1943.69906-.00016l2.68961,2.71549c.29883.30225.69727.46826,1.12012.46826.42383,0,.82227-.16602,1.12207-.46875l1.02441-1.03467c.18848-.19043.50293-.19678.70605.00732l.2666.26172c.29492.29053.77148.28516,1.06055-.00977.29004-.29541.28613-.77051-.00977-1.06055l-.27549-.27081c-.77857-.76535-2.04503-.75774-2.81436.0169l-.94448.95102c-.07233.07283-.19012.07287-.2625.00009l-2.61724-2.63177c-.75391-.7627-2.07324-.76367-2.83008,0l-1.27051,1.28345v-3.99146c0-.21143.21875-.39014.47754-.39014h11.04492c.25879,0,.47754.17871.47754.39014v3.10791c0,.41406.33594.75.75.75s.75-.33594.75-.75v-3.10791c0-1.04199-.88672-1.89014-1.97754-1.89014Z" fill="var(--iconPrimary, #222)"/>
</svg>