<?xml version="1.0" encoding="UTF-8"?>
<svg id="e" data-name="ICONS" xmlns="http://www.w3.org/2000/svg" width="20" height="20" viewBox="0 0 20 20">
  <path d="M18.625,16.5l-1.31403.01221c-.02118-.00171-.03937-.01221-.06097-.01221-.02374,0-.0437.01123-.06689.01343l-4.18311.03931v-5.80273c0-.41406-.33594-.75-.75-.75s-.75.33594-.75.75v.75h-.75c-.41406,0-.75.33594-.75.75s.33594.75.75.75h.75v3.55273c0,.79785.64941,1.44727,1.44775,1.44727h3.55225v.75c0,.41406.33594.75.75.75s.75-.33594.75-.75v-.75h.625c.41406,0,.75-.33594.75-.75s-.33594-.75-.75-.75Z" fill="var(--iconPrimary, #222)"/>
  <path d="M14.75,11.5c-.41406,0-.75.33594-.75.75s.33594.75.75.75l1.75-.05273v1.80273c0,.41406.33594.75.75.75s.75-.33594.75-.75v-1.80273c0-.79785-.64941-1.44727-1.44775-1.44727h-1.80225Z" fill="var(--iconPrimary, #222)"/>
  <path d="M7.07568,6.91211c-.87695-.87695-2.30371-.87695-3.18164,0l-1.39404,1.39429V3.25c0-.41309.33643-.75.75-.75h11.5c.41357,0,.75.33691.75.75v6.00684c0,.41406.33594.75.75.75s.75-.33594.75-.75V3.25c0-1.24023-1.00928-2.25-2.25-2.25H3.25c-1.24072,0-2.25,1.00977-2.25,2.25v8c0,1.24023,1.00928,2.25,2.25,2.25h4.54053c.41406,0,.75-.33594.75-.75s-.33594-.75-.75-.75H3.25c-.41357,0-.75-.33691-.75-.75v-.82227l2.4541-2.4541c.29248-.29199.76855-.29297,1.06104-.00098l2.40723,2.40723c.29297.29297.76758.29297,1.06055,0s.29297-.76758,0-1.06055l-2.40723-2.40723Z" fill="var(--iconPrimary, #222)"/>
  <circle cx="11.75" cy="5" r="1.31815" fill="var(--iconPrimary, #222)"/>
</svg>