<?xml version="1.0" encoding="UTF-8"?>
<svg id="e" data-name="ICONS" xmlns="http://www.w3.org/2000/svg" width="20" height="20" viewBox="0 0 20 20">
  <path d="M18.75,9.5h-2.75c-.41406,0-.75.33594-.75.75s.33594.75.75.75h1.11572l-1.55762,1.55762c-.24414.24414-.24414.64062,0,.88477.12207.12207.28174.18262.44189.18262s.31982-.06055.44189-.18262l1.55811-1.55811v1.11572c0,.41406.33594.75.75.75s.75-.33594.75-.75v-2.75c0-.41406-.33594-.75-.75-.75Z" fill="var(--iconPrimary, #222)"/>
  <circle cx="14.125" cy="13" r=".625" fill="var(--iconPrimary, #222)"/>
  <circle cx="12.25" cy="13" r=".625" fill="var(--iconPrimary, #222)"/>
  <circle cx="16" cy="14.875" r=".625" fill="var(--iconPrimary, #222)"/>
  <circle cx="16" cy="16.75" r=".625" fill="var(--iconPrimary, #222)"/>
  <path d="M7.07568,6.91211c-.87695-.87695-2.30371-.87695-3.18164,0l-1.39404,1.39429V3.25c0-.41309.33643-.75.75-.75h11.5c.41357,0,.75.33691.75.75v3.99902c0,.41406.33594.75.75.75s.75-.33594.75-.75v-3.99902c0-1.24023-1.00928-2.25-2.25-2.25H3.25c-1.24072,0-2.25,1.00977-2.25,2.25v8c0,1.24023,1.00928,2.25,2.25,2.25h3.99902c.41406,0,.75-.33594.75-.75s-.33594-.75-.75-.75h-3.99902c-.41357,0-.75-.33691-.75-.75v-.82227l2.4541-2.4541c.29248-.29199.76904-.29297,1.06104-.00098l1.42773,1.42773c.29297.29297.76758.29297,1.06055,0s.29297-.76758,0-1.06055l-1.42773-1.42773Z" fill="var(--iconPrimary, #222)"/>
  <circle cx="11.63641" cy="5.06396" r="1.31815" fill="var(--iconPrimary, #222)"/>
  <path d="M18.75,15.24902c-.41406,0-.75.33594-.75.75v1.25098c0,.41309-.33643.75-.75.75h-5.5c-.41357,0-.75-.33691-.75-.75v-5.5c0-.41309.33643-.75.75-.75h1.24902c.41406,0,.75-.33594.75-.75s-.33594-.75-.75-.75h-1.24902c-1.24072,0-2.25,1.00977-2.25,2.25v5.5c0,1.24023,1.00928,2.25,2.25,2.25h5.5c1.24072,0,2.25-1.00977,2.25-2.25v-1.25098c0-.41406-.33594-.75-.75-.75Z" fill="var(--iconPrimary, #222)"/>
</svg>