<?xml version="1.0" encoding="UTF-8"?>
<svg xmlns="http://www.w3.org/2000/svg" width="14" height="14" viewBox="0 0 14 14">
  <path d="M10.65918,7.08105c-.31006-.37695-.76709-.59277-1.25488-.59277h-5.24268c-.77441,0-1.44482.55176-1.59424,1.31055l-.67218,3.40906c-.02698-.05579-.0451-.11633-.0451-.1825v-5.34375c0-.20703.16846-.375.375-.375h1.30664c.34521,0,.625-.28027.625-.625s-.27979-.625-.625-.625h-1.30664c-.896,0-1.625.72852-1.625,1.625v5.34375c0,.92383.75146,1.6748,1.6748,1.6748.01611,0,.02972-.00806.04553-.00928.01416.00098.02655.00928.04089.00928h6.45898c.77344,0,1.44434-.55078,1.59473-1.31055l.58398-2.96094c.09424-.47949-.02979-.9707-.33984-1.34766ZM9.18848,11.14746c-.03467.17578-.18945.30273-.36816.30273H3.12158l.67236-3.40918c.03467-.17578.18896-.30273.36768-.30273h5.24268c.15381,0,.24756.08594.28955.13672.04199.05176.1084.16016.07861.31152l-.58398,2.96094Z" fill="var(--iconPrimary, #222)"/>
  <path id="j" data-name="Path 1005062" d="M11.21157,3.05915c0,.3866-.3134.7-.7.7-.3866,0-.7-.3134-.7-.7,0-.3866.3134-.7.7-.7s.7.3134.7.7h0" fill="var(--iconPrimary, #222)"/>
  <path d="M11.7749.59961h-5.3501c-.896,0-1.625.72852-1.625,1.625v3.00293c0,.34473.27979.625.625.625s.625-.28027.625-.625v-.05884l.80518-.43921c.12305-.06836.38379-.06836.50684,0l1.51123.83789c.33301.18555.81641.18457,1.14746.00098l.57715-.31934c.12256-.06934.3833-.06836.52832.01074l1.02393.505v.70984c0,.1416-.07031.27344-.1875.35254-.28613.19336-.36133.58203-.16846.86816.12061.17871.31787.27539.51855.27539.12012,0,.2417-.03418.34912-.10645.4624-.3125.73828-.83203.73828-1.38965V2.22461c0-.89648-.729-1.625-1.625-1.625ZM11.58984,4.37402c-.42188-.23242-1.05615-.23242-1.47705,0l-.57666.31934c-.03809.01758-.13965.01758-.17676,0l-1.5127-.83887c-.42334-.23535-1.05908-.23242-1.47461-.00098l-.32227.17554v-1.80444c0-.20703.16846-.375.375-.375h5.3501c.20654,0,.375.16797.375.375v2.42554l-.56006-.27612Z" fill="var(--iconPrimary, #222)"/>
</svg>