<?xml version="1.0" encoding="UTF-8"?>
<svg id="f" data-name="ICONS" xmlns="http://www.w3.org/2000/svg" width="20" height="20" viewBox="0 0 20 20">
  <path d="M7.25,16H3.25c-1.24023,0-2.25-1.00977-2.25-2.25V4.25c0-1.24023,1.00977-2.25,2.25-2.25h13.5c1.24023,0,2.25,1.00977,2.25,2.25v3.09961c0,.41406-.33594.75-.75.75s-.75-.33594-.75-.75v-3.09961c0-.41309-.33691-.75-.75-.75H3.25c-.41309,0-.75.33691-.75.75v9.5c0,.41309.33691.75.75.75h4c.41406,0,.75.33594.75.75s-.33594.75-.75.75Z" fill="var(--iconPrimary, #222)"/>
  <path d="M1.89062,12.87988c-.19238,0-.38379-.07324-.53027-.21973-.29297-.29297-.29297-.76758,0-1.06055l3.04883-3.04785c.87695-.87695,2.30469-.87695,3.18164,0l.68066.65918c.29785.28906.30566.76367.01758,1.06055-.28809.29883-.7627.30469-1.06055.01758l-.68945-.66797c-.30078-.30078-.78613-.29199-1.06934-.00879l-3.04883,3.04785c-.14648.14648-.33887.21973-.53027.21973Z" fill="var(--iconPrimary, #222)"/>
  <path id="g" data-name="Path 1005062" d="M14.5,6.5c0,.82843-.67157,1.5-1.5,1.5-.82843,0-1.5-.67157-1.5-1.5,0-.82843.67157-1.5,1.5-1.5s1.5.67157,1.5,1.5h0" fill="var(--iconPrimary, #222)"/>
  <path d="M17.25,19.5h-5.5c-1.24023,0-2.25-1.00977-2.25-2.25v-5.5c0-1.24023,1.00977-2.25,2.25-2.25h5.5c1.24023,0,2.25,1.00977,2.25,2.25v5.5c0,1.24023-1.00977,2.25-2.25,2.25ZM11.75,11c-.41309,0-.75.33691-.75.75v5.5c0,.41309.33691.75.75.75h5.5c.41309,0,.75-.33691.75-.75v-5.5c0-.41309-.33691-.75-.75-.75h-5.5Z" fill="var(--iconPrimary, #222)"/>
  <path d="M16.375,16.5h-3.75c-.34473,0-.625-.28027-.625-.625s.28027-.625.625-.625h3.75c.34473,0,.625.28027.625.625s-.28027.625-.625.625Z" fill="var(--iconPrimary, #222)"/>
  <path d="M15.625,14.25h-3c-.34473,0-.625-.28027-.625-.625s.28027-.625.625-.625h3c.34473,0,.625.28027.625.625s-.28027.625-.625.625Z" fill="var(--iconPrimary, #222)"/>
</svg>