<?xml version="1.0" encoding="UTF-8"?>
<svg id="e" data-name="ICONS" xmlns="http://www.w3.org/2000/svg" width="20" height="20" viewBox="0 0 20 20">
  <path d="M10.625,2.5h-1.25c-.41406,0-.75-.33594-.75-.75s.33594-.75.75-.75h1.25c.41406,0,.75.33594.75.75s-.33594.75-.75.75Z" fill="var(--iconPrimary, #222)"/>
  <path d="M6.75,2.5h-1.25c-.41406,0-.75-.33594-.75-.75s.33594-.75.75-.75h1.25c.41406,0,.75.33594.75.75s-.33594.75-.75.75Z" fill="var(--iconPrimary, #222)"/>
  <path d="M1.75,7.75c-.41406,0-.75-.33594-.75-.75v-1.25c0-.41406.33594-.75.75-.75s.75.33594.75.75v1.25c0,.41406-.33594.75-.75.75Z" fill="var(--iconPrimary, #222)"/>
  <path d="M18.25,7.75c-.41406,0-.75-.33594-.75-.75v-1.25c0-.41406.33594-.75.75-.75s.75.33594.75.75v1.25c0,.41406-.33594.75-.75.75Z" fill="var(--iconPrimary, #222)"/>
  <path d="M1.75,12c-.41406,0-.75-.33594-.75-.75v-1.25c0-.41406.33594-.75.75-.75s.75.33594.75.75v1.25c0,.41406-.33594.75-.75.75Z" fill="var(--iconPrimary, #222)"/>
  <path d="M14.5,2.5h-1.25c-.41406,0-.75-.33594-.75-.75s.33594-.75.75-.75h1.25c.41406,0,.75.33594.75.75s-.33594.75-.75.75Z" fill="var(--iconPrimary, #222)"/>
  <path d="M6.625,16h-1c-.41406,0-.75-.33594-.75-.75s.33594-.75.75-.75h1c.41406,0,.75.33594.75.75s-.33594.75-.75.75Z" fill="var(--iconPrimary, #222)"/>
  <path d="M1.75,3.5c-.08398,0-.16895-.01367-.25195-.04395-.38965-.13867-.59375-.56738-.4541-.95801.24316-.68262.77344-1.21387,1.45605-1.45508.3877-.13672.81836.06738.95703.45703s-.06641.81836-.45703.95703c-.25.08887-.45312.29199-.54395.54492-.10938.30664-.39746.49805-.70605.49805Z" fill="var(--iconPrimary, #222)"/>
  <path d="M2.75,16c-.08398,0-.16895-.01367-.25195-.04395-.68262-.24316-1.21387-.77344-1.45508-1.45605-.13867-.38965.06641-.81836.45703-.95703.3877-.1377.81836.06641.95703.45703.08887.25.29199.45312.54492.54395.38965.13867.59375.56738.4541.95801-.10938.30664-.39746.49805-.70605.49805Z" fill="var(--iconPrimary, #222)"/>
  <path d="M18.25,3.5c-.30859,0-.59766-.19238-.70703-.5-.08887-.25-.29199-.45312-.54492-.54395-.38965-.13867-.59375-.56738-.4541-.95801.13867-.39062.56934-.59473.95801-.4541.68262.24316,1.21387.77344,1.45508,1.45605.13867.38965-.06641.81836-.45703.95703-.08203.0293-.16699.04297-.25.04297Z" fill="var(--iconPrimary, #222)"/>
  <path d="M14.31641,4H5.68359c-.92871,0-1.68359.74023-1.68359,1.65039v5.69922c0,.91016.75488,1.65039,1.68359,1.65039h1.67578c.41406,0,.75-.33594.75-.75s-.33594-.75-.75-.75h-1.67578c-.09961,0-.18359-.06934-.18359-.15039v-.89453l1.8125-1.8125c.15625-.15625.2793-.15918.43848,0l.99902.99902c.24414.24414.64062.24414.88477,0,.24316-.24414.24316-.64062,0-.88477l-.99902-.99902c-.60938-.60645-1.59863-.6084-2.20801,0l-.92773.92773v-3.03516c0-.08105.08398-.15039.18359-.15039h8.63281c.09961,0,.18359.06934.18359.15039v1.71094c0,.41406.33594.75.75.75s.75-.33594.75-.75v-1.71094c0-.91016-.75488-1.65039-1.68359-1.65039Z" fill="var(--iconPrimary, #222)"/>
  <path id="f" data-name="Path 1005062" d="M12.83436,7.10256c0,.5168-.41895.93575-.93575.93575-.5168,0-.93575-.41895-.93575-.93575,0-.5168.41895-.93575.93575-.93575s.93575.41895.93575.93575h0Z" fill="var(--iconPrimary, #222)"/>
  <circle cx="14.52537" cy="14.5" r="1.11096" fill="var(--iconPrimary, #222)"/>
  <path d="M16.32127,19.57324c-.43164,0-.85254-.20898-1.11621-.59277l-.3916-.57031c-.10059.00879-.18164.0127-.30566.01172h0c-.10254-.00098-.2041-.00488-.30469-.01367l-.39648.56543c-.40234.5752-1.19238.74707-1.79883.39551l-.48047-.28027c-.61621-.36035-.84863-1.11719-.54297-1.75977l.29883-.62598c-.11426-.16699-.21484-.34375-.30176-.52734l-.69043-.06055c-.71094-.06445-1.24414-.64941-1.24023-1.36133l.00195-.55566c.00391-.70215.55371-1.29492,1.25195-1.35059l.69238-.05469c.08789-.18262.18945-.35742.30566-.52441l-.29297-.62891c-.29688-.63574-.05176-1.40723.55859-1.75488l.4834-.27539c.61816-.35449,1.38965-.17871,1.79395.41016l.3916.57031c.09961-.00879.16895-.02148.30566-.01172.10254.00098.2041.00488.30469.01367l.39648-.56543c.40137-.5752,1.19238-.74707,1.79883-.39551l.48047.28027c.61621.36035.84863,1.11719.54297,1.75977l-.29883.62598c.11426.16699.21484.34375.30176.52734l.69043.06055c.71094.06445,1.24414.64941,1.24023,1.36133l-.00195.55566c-.00391.70215-.55371,1.29492-1.25195,1.35059l-.69238.05469c-.08789.18262-.18945.35742-.30566.52441l.29297.62891c.29688.63574.05176,1.40723-.55859,1.75488l-.4834.27539c-.21484.12305-.44824.18262-.67773.18262ZM15.11228,17.11719c.20312,0,.39746.09961.51465.27051l.60742.88379c.03223.04688.09082.0625.14453.03418l.48438-.27637c.04883-.02832.06836-.08984.04492-.1416l-.45312-.97266c-.10352-.22266-.06738-.48535.09277-.67188.21387-.24805.37891-.53125.49023-.84082.08301-.23145.29395-.39258.53906-.41211l1.07031-.08398c.05566-.00488.10059-.05273.10059-.10938l.00195-.55566c0-.05859-.04297-.10547-.10059-.11133l-1.06836-.09277c-.24414-.02148-.4541-.18457-.53516-.41602-.10938-.31348-.27148-.59766-.48242-.8457-.15918-.1875-.19336-.45117-.08789-.67285l.46191-.96875c.02539-.05273.00586-.11426-.04395-.14355l-.47949-.2793c-.05176-.02832-.11426-.01465-.14648.03223l-.61523.87793c-.14062.20117-.39355.29688-.62793.25586-.16309-.03125-.37109-.06055-.49805-.04883-.16406,0-.32227.0166-.47754.04492-.23633.04102-.48633-.05859-.625-.26074l-.60742-.88379c-.0332-.04785-.0918-.06445-.14453-.03418l-.48438.27637c-.04883.02832-.06836.08984-.04492.1416l.45312.97266c.10352.22266.06738.48535-.09277.67188-.21387.24805-.37891.53125-.49023.84082-.08301.23145-.29395.39258-.53906.41211l-1.07031.08398c-.05566.00488-.10059.05273-.10059.10938l-.00195.55566c0,.05859.04297.10547.10059.11133l1.06836.09277c.24414.02148.4541.18457.53516.41602.10938.31348.27148.59766.48242.8457.15918.1875.19336.45117.08789.67285l-.46191.96875c-.02539.05273-.00586.11426.04395.14355l.47949.2793c.05078.02734.11328.01367.14648-.03223l.61523-.87793c.1416-.20117.39551-.2959.62793-.25586.16309.03027.37207.0459.49805.04883.16406,0,.32227-.0166.47754-.04492.03613-.00684.07324-.00977.11035-.00977Z" fill="var(--iconPrimary, #222)"/>
</svg>