<?xml version="1.0" encoding="UTF-8"?>
<svg id="e" data-name="ICONS" xmlns="http://www.w3.org/2000/svg" width="20" height="20" viewBox="0 0 20 20">
  <path id="f" data-name="Path 1005062" d="M11.66411,4.92114c0,.69588-.57855,1.26-1.29222,1.26-.71368,0-1.29222-.56412-1.29222-1.26,0-.69588.57855-1.26,1.29222-1.26s1.29222.56412,1.29222,1.26h0Z" fill="var(--iconPrimary, #222)"/>
  <path d="M15,3.00977c0-1.1084-.88672-2.00977-1.97705-2.00977H2.97705c-1.09033,0-1.97705.90137-1.97705,2.00977v7.98047c0,1.1084.88672,2.00977,1.97705,2.00977h3.77588c.41406,0,.75-.33594.75-.75s-.33594-.75-.75-.75h-3.77588c-.26318,0-.47705-.22852-.47705-.50977v-.77295l2.5957-2.53174c.16699-.15918.44678-.16016.60303-.00684l1.22754,1.22852c.29297.29297.76807.29297,1.06104,0s.29297-.76758.00049-1.06055l-1.23535-1.23535c-.74512-.72754-1.95801-.72559-2.70312,0l-1.54932,1.51074V3.00977c0-.28125.21387-.50977.47705-.50977h10.0459c.26318,0,.47705.22852.47705.50977l.00098,4.24219c0,.41406.33594.75.75.75.41455,0,.75-.33594.75-.75l-.00098-4.24219Z" fill="var(--iconPrimary, #222)"/>
  <path d="M17.26455,9.50057c.95898,0,1.73633.7832,1.73633,1.74951v6.00098c0,.96631-.77734,1.74951-1.73633,1.74951h-6.52734c-.95898,0-1.73633-.7832-1.73633-1.74951v-6.00098c0-.96631.77734-1.74951,1.73633-1.74951h6.52734ZM12.74575,15.66902c-.20117,0-.40698-.0293-.61719-.0874s-.40918-.14502-.59692-.26172c-.01025-.00488-.01953-.00732-.02759-.00732-.0061,0-.01147.00098-.01611.00391-.01123.00684-.01685.01953-.01685.03711v.79834c0,.05811.01782.09619.05371.11426.13867.06689.30957.12158.51318.16406s.43042.06396.68091.06396c.33984,0,.63501-.05371.8855-.16113s.44629-.26025.58691-.45947c.14087-.19922.21143-.43066.21143-.69434,0-.18359-.03345-.35449-.10059-.51318s-.18359-.30664-.34888-.44287c-.16553-.13623-.39575-.26514-.69092-.38574l-.24829-.09424c-.16553-.07568-.29517-.1416-.38916-.19775-.09375-.05566-.16089-.11182-.20117-.16797-.04028-.05566-.0603-.11963-.0603-.19092,0-.05371.01343-.10645.04028-.15771s.06812-.09375.12402-.12744.12842-.06152.21802-.08398c.08936-.02197.19897-.03369.32861-.03369.19214,0,.37793.02051.55688.06055.17896.04053.33545.09619.46948.16797.00977.00732.01855.01074.02637.01074.00635,0,.01221-.00244.01733-.00732.01123-.01123.01685-.02148.01685-.03027v-.7583c0-.04004-.01587-.06934-.04712-.0874-.11182-.05811-.2605-.10059-.44604-.12744s-.38574-.04004-.60059-.04004c-.35303,0-.64844.05713-.88525.1709-.23706.11426-.41602.26953-.53687.46631-.12061.19678-.18091.41602-.18091.65771,0,.17432.02905.33789.08716.48975s.16431.29395.3186.42578c.1543.13232.36792.25635.64062.37256l.33545.14062c.15649.06299.27954.12354.3689.18115.0896.05859.1521.11768.18799.17822.03564.06006.05347.12842.05347.20459,0,.11621-.05469.21338-.16406.2915-.10986.07861-.29199.11768-.54688.11768h0ZM14.68179,13.8619h.40527v1.67285c0,.33545.08252.5791.24805.73145.16528.15186.39355.22803.68408.22803.12085,0,.22827-.00928.32227-.02686.09375-.01807.18311-.04053.26831-.06689.03564-.00928.05371-.03809.05371-.0874v-.55029c0-.02197-.00586-.03662-.01685-.04346-.00684-.00391-.01367-.00586-.02124-.00586-.00513,0-.01025.00049-.01562.00244-.03589.00439-.07178.00781-.10742.01025-.03589.00195-.07373.00342-.11401.00342-.13867,0-.23364-.03271-.28516-.09766-.05127-.06445-.06763-.17334-.06763-.3252v-1.44482h.59155c.02222-.00391.03345-.02002.03345-.04639l.00513-.67432c0-.03564-.01343-.05371-.04028-.05371h-.5874c.00439-.16553.00366-.33154.00806-.5083.00464-.17627.01123-.31641.02026-.41895,0-.02246-.00439-.03613-.01343-.04053-.00464-.00195-.00952-.00342-.01514-.00342s-.01172.00146-.01855.00342l-.7981.10059c-.01343.00488-.02466.0127-.03345.02344-.00903.01123-.01587.02344-.02026.03711-.00903.0625-.01904.14404-.03003.24512-.01123.10059-.02026.20117-.02686.30176-.00684.10059-.00732.18359-.01172.25977h-.40527c-.04028,0-.0603.01807-.0603.05371l-.00513.66064c0,.04004.01782.06006.05371.06006h0Z" fill="var(--iconPrimary, #222)"/>
  <path d="M17.26443,9.50057h-6.5271c-.95902,0-1.73645.78329-1.73645,1.74952v6.00095c0,.96623.77743,1.74952,1.73645,1.74952h6.5271c.95902,0,1.73645-.78329,1.73645-1.74952v-6.00095c0-.96623-.77743-1.74952-1.73645-1.74952ZM14.19131,15.87358c-.14068.19907-.33646.35229-.58686.45957-.25055.10736-.54566.161-.88562.161-.25039,0-.47729-.02121-.68084-.06371-.20355-.04242-.37461-.09728-.51316-.16436-.03586-.01778-.05371-.05593-.05371-.11407v-.79836c0-.01786.00564-.03022.01678-.03693.01114-.00664.02579-.00557.04364.00336.18783.11636.38681.20357.59708.26164.21011.05822.41596.08729.61707.08729.25497,0,.43717-.03914.54688-.11751.10941-.07813.16418-.17542.16418-.29179,0-.076-.01786-.14421-.05356-.20465-.03586-.06043-.09842-.11964-.18783-.17779-.08957-.05807-.2124-.11842-.36896-.18114l-.33539-.14086c-.27283-.11629-.48645-.24043-.64072-.37236s-.26047-.27393-.31861-.42608c-.05813-.152-.08713-.31528-.08713-.48972,0-.24157.06027-.46072.18097-.65758.12085-.19671.29968-.35222.53681-.46621.23682-.11407.53207-.17107.88532-.17107.21484,0,.41489.01335.60058.04021.18539.02678.33417.06936.44602.1275.03128.01786.04699.04693.04699.08714v.75815c0,.009-.00564.01907-.01678.03021-.01114.01122-.02579.01007-.04364-.00336-.13412-.0715-.29068-.12743-.46951-.16771-.17898-.04029-.36468-.06043-.55694-.06043-.1297,0-.23926.01129-.32867.03357-.08942.02243-.16205.05036-.21789.08393-.056.0335-.09735.07608-.12421.12743-.02686.05143-.04028.104-.04028.15764,0,.07157.02014.13536.06042.19122.04028.05601.10742.11186.20126.16771.09384.05601.22354.12193.3891.19793l.24826.09393c.29511.12079.52536.24944.69092.38579.16541.13651.28168.28408.34882.44279.06714.15886.10071.32993.10071.51322,0,.26401-.07049.49552-.21149.69443v.00002ZM16.10324,15.63207c.05142.06486.14648.09728.28503.09728.04028,0,.07828-.00107.11413-.00336.03571-.00221.07141-.00557.10742-.01007.01328-.00443.02563-.00336.03677.00336s.01678.02129.01678.04357v.55014c0,.04929-.01786.07829-.05356.08729-.08514.02678-.17456.04914-.2684.06707-.09384.01778-.20126.02678-.32211.02678-.29068,0-.5188-.076-.68421-.22807-.16541-.152-.24811-.39586-.24811-.73129v-1.67264h-.40512c-.03586,0-.05371-.02007-.05371-.06028l.00503-.66064c0-.03571.02014-.05372.06042-.05372h.40512c.00443-.076.00503-.15925.01175-.25989s.01557-.20129.02686-.30185c.01099-.10072.02106-.18221.03006-.24494.00443-.01343.01114-.02564.02014-.03693.009-.01106.02014-.01892.03357-.0235l.79819-.10057c.01343-.00443.02457-.00443.03357,0,.009.0045.01343.01786.01343.04029-.009.10286-.01572.24265-.02014.41928-.00443.17672-.00382.34275-.00824.5081h.58746c.02686,0,.04028.01801.04028.05372l-.00503.67407c0,.02678-.01129.0425-.03357.04685h-.59143v1.44457c0,.15207.01617.26058.06759.32536v.00002Z" fill="var(--iconPrimary, #222)"/>
</svg>