<?xml version="1.0" encoding="UTF-8"?>
<svg id="f" data-name="ICONS" xmlns="http://www.w3.org/2000/svg" width="20" height="20" viewBox="0 0 20 20">
  <path d="M16.7502,2H3.2502c-1.24023,0-2.25,1.00977-2.25,2.25v9.5c0,1.24023,1.00977,2.25,2.25,2.25h7.5c.41406,0,.75-.33594.75-.75s-.33594-.75-.75-.75H3.2502c-.41309,0-.75-.33691-.75-.75v-1.16895l2.96973-2.96875c.29297-.29199.76758-.29102,1.08984.02734l1.03223.92773c.30664.27734.7832.25293,1.05859-.05664.27734-.30762.25195-.78223-.05664-1.05859l-1.00293-.90039c-.87695-.87695-2.30469-.87695-3.18164,0l-1.90918,1.90857v-6.21033c0-.41309.33691-.75.75-.75h13.5c.41309,0,.75.33691.75.75v2.84961c0,.41406.33594.75.75.75s.75-.33594.75-.75v-2.84961c0-1.24023-1.00977-2.25-2.25-2.25Z" fill="var(--iconPrimary, #222)"/>
  <path id="g" data-name="Path 1005062" d="M14.5002,6.5c0,.82843-.67157,1.5-1.5,1.5-.82843,0-1.5-.67157-1.5-1.5,0-.82843.67157-1.5,1.5-1.5s1.5.67157,1.5,1.5h0Z" fill="var(--iconPrimary, #222)"/>
  <path d="M17.7502,9.5h-5.5c-.96484,0-1.75.78516-1.75,1.75v.76953c0,.41406.33594.75.75.75s.75-.33594.75-.75v-.76953c0-.1377.1123-.25.25-.25h2v6.9668h-.70117c-.41406,0-.75.33594-.75.75s.33594.75.75.75h2.90137c.41406,0,.75-.33594.75-.75s-.33594-.75-.75-.75h-.7002v-6.9668h2c.1377,0,.25.1123.25.25v.76953c0,.41406.33594.75.75.75s.75-.33594.75-.75v-.76953c0-.96484-.78516-1.75-1.75-1.75Z" fill="var(--iconPrimary, #222)"/>
</svg>