<?xml version="1.0" encoding="UTF-8"?>
<svg xmlns="http://www.w3.org/2000/svg" width="14" height="14" viewBox="0 0 14 14">
  <path d="M.7793,9.77734c-.17236,0-.34375-.07129-.46729-.20996-.22949-.25879-.20557-.65332.05225-.88281l2.41064-2.13965c.70996-.63965,1.82764-.63965,2.54053.00391l1.80566,1.67773c.16553.1543.41943.15137.5791-.00977l.38672-.38672c.24365-.24414.63965-.24512.88428-.00098.24414.24414.24414.63965.00049.88379l-.38721.3877c-.63916.63867-1.65527.65625-2.31494.04102l-1.79785-1.6709c-.22559-.20312-.63184-.20117-.86328.00586l-2.41406,2.14355c-.11914.10547-.26709.15723-.41504.15723Z" fill="var(--iconPrimary, #222)"/>
  <path d="M7.1001,12H1.875c-1.03369,0-1.875-.84082-1.875-1.875V3.875c0-1.03418.84131-1.875,1.875-1.875h8.25c1.03369,0,1.875.84082,1.875,1.875v3.25781c0,.34473-.27979.625-.625.625s-.625-.28027-.625-.625v-3.25781c0-.34473-.28027-.625-.625-.625H1.875c-.34473,0-.625.28027-.625.625v6.25c0,.34473.28027.625.625.625h5.2251c.34521,0,.625.28027.625.625s-.27979.625-.625.625Z" fill="var(--iconPrimary, #222)"/>
  <circle cx="8.33594" cy="5.30574" r="1.05" fill="var(--iconPrimary, #222)"/>
  <path d="M10.125,2H1.875c-1.03369,0-1.875.84082-1.875,1.875v6.25c0,1.03418.84131,1.875,1.875,1.875h5.2251c.34521,0,.625-.28027.625-.625s-.27979-.625-.625-.625H1.875c-.34473,0-.625-.28027-.625-.625v-.55432l2.3584-2.09412c.23145-.20703.6377-.20898.86328-.00586l1.79785,1.6709c.65967.61523,1.67578.59766,2.31494-.04102l.38721-.3877c.24365-.24414.24365-.63965-.00049-.88379-.24463-.24414-.64062-.24316-.88428.00098l-.38672.38672c-.15967.16113-.41357.16406-.5791.00977l-1.80566-1.67773c-.71289-.64355-1.83057-.64355-2.54053-.00391l-1.5249,1.35352V3.875c0-.34473.28027-.625.625-.625h8.25c.34473,0,.625.28027.625.625v3.25781c0,.34473.27979.625.625.625s.625-.28027.625-.625v-3.25781c0-1.03418-.84131-1.875-1.875-1.875Z" fill="var(--iconPrimary, #222)"/>
  <circle cx="8.33594" cy="5.30574" r="1.05" fill="var(--iconPrimary, #222)"/>
  <path d="M13.36523,10.74023h-1.375v-1.375c0-.34473-.27979-.625-.625-.625s-.625.28027-.625.625v1.375h-1.375c-.34521,0-.625.28027-.625.625s.27979.625.625.625h1.375v1.375c0,.34473.27979.625.625.625s.625-.28027.625-.625v-1.375h1.375c.34521,0,.625-.28027.625-.625s-.27979-.625-.625-.625Z" fill="var(--iconPrimary, #222)"/>
</svg>