<?xml version="1.0" encoding="UTF-8"?>
<svg xmlns="http://www.w3.org/2000/svg" width="20" height="20" viewBox="0 0 20 20">
  <path id="b" data-name="Path 1005062" d="M11.66411,4.92114c0,.69588-.57855,1.26-1.29222,1.26-.71368,0-1.29222-.56412-1.29222-1.26,0-.69588.57855-1.26,1.29222-1.26s1.29222.56412,1.29222,1.26h0" fill="var(--iconPrimary, #222)"/>
  <path d="M17,19H6.97705c-1.09033,0-1.97705-.90137-1.97705-2.00977v-5.98047c0-1.1084.88672-2.00977,1.97705-2.00977h10.0459c1.09033,0,1.97705.90137,1.97705,2.00977v5.99023c0,1.10303-.89697,2-2,2ZM6.97705,10.5c-.26318,0-.47705.22852-.47705.50977v5.98047c0,.28125.21387.50977.47705.50977h10.02295c.27588,0,.5-.22412.5-.5v-5.99023c0-.28125-.21387-.50977-.47705-.50977H6.97705Z" fill="var(--iconPrimary, #222)"/>
  <path d="M13.02295,1H2.97705c-1.09033,0-1.97705.90137-1.97705,2.00977v7.98047c0,1.1084.88672,2.00977,1.97705,2.00977.41406,0,.75-.33594.75-.75s-.33594-.75-.75-.75c-.26318,0-.47705-.22852-.47705-.50977v-1.77295l2.59668-2.53125c.16406-.16113.44336-.16113.60254-.00684l.96826.96777c.29297.29297.76758.29297,1.06055,0s.29297-.76807,0-1.06055l-.97461-.97461c-.74561-.72607-1.9585-.72705-2.7041,0l-1.54932,1.51056V3.00977c0-.28125.21387-.50977.47705-.50977h10.0459c.26318,0,.47705.22852.47705.50977v3.99023c0,.41406.33594.75.75.75s.75-.33594.75-.75v-3.99023c0-1.1084-.88672-2.00977-1.97705-2.00977Z" fill="var(--iconPrimary, #222)"/>
  <path d="M12.4165,16.625h-.5c-.34521,0-.625-.27979-.625-.625s.27979-.625.625-.625h.5c.34521,0,.625.27979.625.625s-.27979.625-.625.625Z" fill="var(--iconPrimary, #222)"/>
  <path d="M15.4165,16.625h-.5c-.34521,0-.625-.27979-.625-.625s.27979-.625.625-.625h.5c.34521,0,.625.27979.625.625s-.27979.625-.625.625Z" fill="var(--iconPrimary, #222)"/>
  <path d="M9.0835,16.625h-.5c-.34521,0-.625-.27979-.625-.625s.27979-.625.625-.625h.5c.34521,0,.625.27979.625.625s-.27979.625-.625.625Z" fill="var(--iconPrimary, #222)"/>
  <path d="M12.4165,12.625h-.5c-.34521,0-.625-.27979-.625-.625s.27979-.625.625-.625h.5c.34521,0,.625.27979.625.625s-.27979.625-.625.625Z" fill="var(--iconPrimary, #222)"/>
  <path d="M15.4165,12.625h-.5c-.34521,0-.625-.27979-.625-.625s.27979-.625.625-.625h.5c.34521,0,.625.27979.625.625s-.27979.625-.625.625Z" fill="var(--iconPrimary, #222)"/>
  <path d="M9.0835,12.625h-.5c-.34521,0-.625-.27979-.625-.625s.27979-.625.625-.625h.5c.34521,0,.625.27979.625.625s-.27979.625-.625.625Z" fill="var(--iconPrimary, #222)"/>
</svg>