<?xml version="1.0" encoding="UTF-8"?>
<svg xmlns="http://www.w3.org/2000/svg" width="20" height="20" viewBox="0 0 20 20">
  <path id="g"  d="M14.6,8.01691c0,.66274-.53726,1.2-1.2,1.2-.66274,0-1.2-.53726-1.2-1.2,0-.66274.53726-1.2,1.2-1.2s1.2.53726,1.2,1.2h0" fill="var(--iconPrimary, #222)"/>
  <path d="M16.95508,4.5H3.04492c-1.12793,0-2.04492.91699-2.04492,2.04492v6.91016c0,1.12793.91699,2.04492,2.04492,2.04492h13.91016c1.12793,0,2.04492-.91699,2.04492-2.04492v-6.91016c0-1.12793-.91699-2.04492-2.04492-2.04492ZM2.5,6.54492c0-.30078.24414-.54492.54492-.54492h13.91016c.30078,0,.54492.24414.54492.54492v6.51074l-1.92188-1.92188c-.75977-.75781-1.99707-.75879-2.75684.00098l-1.05664.98633-2.58594-2.58594c-.73633-.73633-2.02148-.73633-2.75781,0l-3.92065,3.92065c0-.00024-.00024-.00049-.00024-.00073v-6.91016ZM16.32324,14H4.07715l3.4043-3.4043c.16992-.16992.4668-.16992.63672,0l2.58594,2.58594c.29297.29297.68164.4541,1.0957.4541h.00195c.41406,0,.80273-.16211,1.09375-.4541l.98535-.98535c.17773-.17578.46191-.1748.6377-.00098l1.80469,1.80469Z" fill="var(--iconPrimary, #222)"/>
</svg>