<?xml version="1.0" encoding="UTF-8"?>
<svg xmlns="http://www.w3.org/2000/svg" width="20" height="20" viewBox="0 0 20 20">
  <path d="M3.25,18c-1.24023,0-2.25-1.00928-2.25-2.25v-7.56152c0-1.24072,1.00977-2.25,2.25-2.25h1.79492c.41406,0,.75.33594.75.75s-.33594.75-.75.75h-1.79492c-.41309,0-.75.33643-.75.75v7.56152c0,.41357.33691.75.75.75.41406,0,.75.33594.75.75s-.33594.75-.75.75Z" fill="var(--iconPrimary, #222)"/>
  <path d="M12.54199,18H3.37305c-.22461,0-.43652-.10059-.5791-.27393s-.2002-.40088-.15625-.62109l1.15918-5.87793c.20703-1.05127,1.13574-1.81445,2.20703-1.81445h7.34375c.67676,0,1.31055.2998,1.73926.82178s.59961,1.20117.46777,1.86377l-.80566,4.08691c-.20703,1.05176-1.13574,1.81494-2.20703,1.81494ZM4.28516,16.5h8.25684c.35742,0,.66699-.25439.73633-.60498l.80469-4.0874c.06055-.30273-.07129-.51904-.15527-.62109-.14258-.17383-.35449-.27393-.58008-.27393h-7.34375c-.35742,0-.66699.25439-.73633.60449l-.98242,4.98291Z" fill="var(--iconPrimary, #222)"/>
  <path id="b" data-name="Path 1005062" d="M16.01653,4.17342c0,.55228-.44772,1-1,1-.55228,0-1-.44772-1-1,0-.55228.44772-1,1-1s1,.44772,1,1h0" fill="var(--iconPrimary, #222)"/>
  <path d="M18.21777,8.61475c-.11133,0-.22461-.0249-.33105-.07764l-2.00879-.99121c-.19629-.10693-.55664-.10742-.7207-.0166l-.8252.45703c-.48242.26758-1.18652.26904-1.6709.00049l-2.16211-1.19922c-.16406-.09082-.52637-.09131-.69043.00049l-1.51758.82764c-.36328.2002-.81934.06494-1.01758-.29883s-.06445-.81934.29883-1.01758l1.5127-.8252c.61719-.34277,1.51953-.34375,2.14258.00195l2.16016,1.19873c.04297.01855.17188.01904.22168-.00244l.82031-.45459c.61035-.34033,1.53418-.33936,2.14453,0l1.97656.97461c.37109.18311.52344.63281.34082,1.00439-.13086.26465-.39648.41797-.67383.41797Z" fill="var(--iconPrimary, #222)"/>
  <path d="M17.58984,11.24365c-.24121,0-.47754-.11523-.62207-.32959-.23242-.34326-.14258-.80957.20117-1.0415.20703-.14062.33105-.37305.33105-.62256V3.25c0-.41357-.33691-.75-.75-.75h-7.5c-.41309,0-.75.33643-.75.75v4.21826c0,.41406-.33594.75-.75.75s-.75-.33594-.75-.75V3.25c0-1.24072,1.00977-2.25,2.25-2.25h7.5c1.24023,0,2.25,1.00928,2.25,2.25v6c0,.74805-.37012,1.44531-.99121,1.86475-.12891.0874-.27441.12891-.41895.12891Z" fill="var(--iconPrimary, #222)"/>
</svg>