<?xml version="1.0" encoding="UTF-8"?>
<svg id="e" data-name="ICONS" xmlns="http://www.w3.org/2000/svg" width="20" height="20" viewBox="0 0 20 20">
  <path id="f" data-name="Path 1005062" d="M11.66411,4.92114c0,.69588-.57855,1.26-1.29222,1.26-.71368,0-1.29222-.56412-1.29222-1.26,0-.69588.57855-1.26,1.29222-1.26s1.29222.56412,1.29222,1.26h0Z" fill="var(--iconPrimary, #222)"/>
  <path d="M13.02246,1H2.97754c-1.09082,0-1.97754.90137-1.97754,2.00977v7.98047c0,1.1084.88672,2.00977,1.97754,2.00977h3.19727c.41406,0,.75-.33594.75-.75s-.33594-.75-.75-.75h-3.19727c-.26367,0-.47754-.22852-.47754-.50977v-.77295l2.59473-2.53076c.16504-.16211.44629-.16211.60449-.00781l1.04004,1.03906c.29395.29297.76855.29297,1.06055,0,.29297-.29297.29297-.76855,0-1.06055l-1.04688-1.0459c-.74316-.72559-1.95703-.72656-2.7041,0l-1.54883,1.51062V3.00977c0-.28125.21387-.50977.47754-.50977h10.04492c.26367,0,.47754.22852.47754.50977v3.86816c0,.41406.33594.75.75.75s.75-.33594.75-.75v-3.86816c0-1.1084-.88672-2.00977-1.97754-2.00977Z" fill="var(--iconPrimary, #222)"/>
  <path d="M14.62329,11.50903l1.51868-.37158c.3429.44653.87659.7395,1.48206.7395,1.03418,0,1.875-.84082,1.875-1.875s-.84082-1.875-1.875-1.875c-.92432,0-1.68945.6731-1.84253,1.5542l-1.52942.37415c-.52429-.99255-1.55505-1.67834-2.75305-1.67834-1.72266,0-3.125,1.40234-3.125,3.125,0,1.19824.68604,2.22925,1.67871,2.7533l-.37451,1.52917c-.8811.15308-1.5542.91821-1.5542,1.84253,0,1.03418.84082,1.875,1.875,1.875s1.875-.84082,1.875-1.875c0-.60547-.29309-1.13916-.73962-1.48206l.37219-1.51868c.58655-.00146,1.12988-.17432,1.599-.45813l1.46094,1.46094c-.12122.26697-.1925.56116-.1925.87292,0,1.17188.95312,2.125,2.125,2.125s2.125-.95312,2.125-2.125-.95312-2.125-2.125-2.125c-.31128,0-.60498.07104-.87158.19189l-1.46167-1.46167c.28345-.46899.45618-1.01196.45752-1.59814ZM17.62402,9.37695c.34473,0,.625.28027.625.625s-.28027.625-.625.625-.625-.28027-.625-.625.28027-.625.625-.625ZM11.49902,9.87695c.89648,0,1.625.72852,1.625,1.625s-.72852,1.625-1.625,1.625-1.625-.72852-1.625-1.625.72852-1.625,1.625-1.625ZM9.99902,18.25195c-.34473,0-.625-.28027-.625-.625s.28027-.625.625-.625.625.28027.625.625-.28027.625-.625.625ZM17.37402,16.50195c0,.48242-.39258.875-.875.875s-.875-.39258-.875-.875.39258-.875.875-.875.875.39258.875.875Z" fill="var(--iconPrimary, #222)"/>
</svg>