<?xml version="1.0" encoding="UTF-8"?>
<svg   xmlns="http://www.w3.org/2000/svg" width="20" height="20" viewBox="0 0 20 20">
  <path d="M18.25,9.75004c-.41406,0-.75.33594-.75.75v2.96094l-1.90918-1.90918c-.87695-.87695-2.30469-.87695-3.18164,0l-1.23145,1.23145c-.09961.09766-.25684.09668-.35449.00098l-3.23242-3.23242c-.84961-.84961-2.33203-.84961-3.18164,0l-1.90918,1.90918v-6.21094c0-.41309.33691-.75.75-.75h2.5c.41406,0,.75-.33594.75-.75s-.33594-.75-.75-.75h-2.5c-1.24023,0-2.25,1.00977-2.25,2.25v9.5c0,1.24023,1.00977,2.25,2.25,2.25h13.5c1.24023,0,2.25-1.00977,2.25-2.25v-4.25c0-.41406-.33594-.75-.75-.75ZM3.25,15.50004c-.41309,0-.75-.33691-.75-.75v-1.16797l2.96973-2.96973c.29297-.29297.76758-.29297,1.06055,0l3.2334,3.2334c.68164.67969,1.79199.68066,2.47363-.00098l1.23242-1.23242c.29297-.29297.76758-.29297,1.06055,0l2.70068,2.70068c-.1311.11206-.29565.18701-.48096.18701H3.25Z" fill="var(--iconPrimary, #222)"/>
  <path d="M13,4.50004c-.41406,0-.75-.33594-.75-.75V1.25004c0-.41406.33594-.75.75-.75s.75.33594.75.75v2.5c0,.41406-.33594.75-.75.75Z" fill="var(--iconPrimary, #222)"/>
  <path d="M15.65137,5.59868c-.19238,0-.38379-.07324-.53027-.21973-.29297-.29297-.29297-.76758,0-1.06055l1.76758-1.76758c.29297-.29297.76758-.29297,1.06055,0s.29297.76758,0,1.06055l-1.76758,1.76758c-.14648.14648-.33789.21973-.53027.21973Z" fill="var(--iconPrimary, #222)"/>
  <path d="M19.25,8.25004h-2.5c-.41406,0-.75-.33594-.75-.75s.33594-.75.75-.75h2.5c.41406,0,.75.33594.75.75s-.33594.75-.75.75Z" fill="var(--iconPrimary, #222)"/>
  <path d="M10.34863,5.59868c-.19238,0-.38379-.07324-.53027-.21973l-1.76758-1.76758c-.29297-.29297-.29297-.76758,0-1.06055s.76758-.29297,1.06055,0l1.76758,1.76758c.29297.29297.29297.76758,0,1.06055-.14648.14648-.33789.21973-.53027.21973Z" fill="var(--iconPrimary, #222)"/>
  <circle cx="13" cy="7.50004" r="1.5" fill="var(--iconPrimary, #222)"/>
</svg>