<?xml version="1.0" encoding="UTF-8"?>
<svg id="f" data-name="ICONS" xmlns="http://www.w3.org/2000/svg" width="20" height="20" viewBox="0 0 20 20">
  <path id="g" data-name="Path 1005062" d="M14.5,7.52114c0,.82843-.67157,1.5-1.5,1.5-.82843,0-1.5-.67157-1.5-1.5,0-.82843.67157-1.5,1.5-1.5s1.5.67157,1.5,1.5h0" fill="var(--iconPrimary, #222)"/>
  <path d="M16.75,3H3.25c-1.24023,0-2.25,1.00977-2.25,2.25v9.5c0,1.24023,1.00977,2.25,2.25,2.25h5.01465c.41406,0,.75-.33594.75-.75s-.33594-.75-.75-.75H3.25c-.41309,0-.75-.33691-.75-.75v-1.16797l2.96973-2.96973c.2832-.2832.77734-.2832,1.06055,0l2.02832,2.02734c.29297.29297.76758.29297,1.06055,0s.29297-.76758,0-1.06055l-2.02832-2.02734c-.87695-.87695-2.30469-.87695-3.18164,0l-1.90918,1.90918v-6.21094c0-.41309.33691-.75.75-.75h13.5c.41309,0,.75.33691.75.75v3.75098c0,.41406.33594.75.75.75s.75-.33594.75-.75v-3.75098c0-1.24023-1.00977-2.25-2.25-2.25Z" fill="var(--iconPrimary, #222)"/>
  <path d="M15,10.5c-2.48535,0-4.5,2.01465-4.5,4.5s2.01465,4.5,4.5,4.5,4.5-2.01465,4.5-4.5-2.01465-4.5-4.5-4.5ZM17.39941,13.84961l-2.30957,3.14941c-.11133.15234-.28516.24609-.47266.25488-.01074.00098-.02051.00098-.03125.00098-.17676,0-.3457-.0752-.46484-.20703l-1.4375-1.59863c-.23047-.25684-.20996-.65234.04688-.88281.25488-.23145.65234-.20996.88281.04688l.92285,1.02734,1.85547-2.5293c.20312-.27832.59375-.34082.87305-.13477.2793.2041.33887.59473.13477.87305Z" fill="var(--iconPrimary, #222)"/>
</svg>