<?xml version="1.0" encoding="UTF-8"?>
<svg id="e" data-name="ICONS" xmlns="http://www.w3.org/2000/svg" width="20" height="20" viewBox="0 0 20 20">
  <path id="f" data-name="Path 1005062" d="M14.49858,7.52114c0,.82843-.67157,1.5-1.5,1.5-.82843,0-1.5-.67157-1.5-1.5,0-.82843.67157-1.5,1.5-1.5s1.5.67157,1.5,1.5h0Z" fill="var(--iconPrimary, #222)"/>
  <path d="M2.5,5.25v2.75h3.5v-3.5h-2.75c-.41309,0-.75.33691-.75.75Z" fill="var(--iconPrimary, #222)" opacity=".35"/>
  <path d="M15.125,12.75c-2.35449,0-4.26709,1.87402-4.35791,4.20654l-.48682-.48682c-.29297-.29297-.76758-.29297-1.06055,0s-.29297.76758,0,1.06055l1.75,1.75c.14648.14648.33789.21973.53027.21973s.38379-.07324.53027-.21973l1.75-1.75c.29297-.29297.29297-.76758,0-1.06055s-.76758-.29297-1.06055,0l-.44885.44873c.10803-1.4873,1.33984-2.66846,2.85413-2.66846,1.58496,0,2.875,1.29004,2.87695,2.8291-.00488.03125-.01367.12207-.01465.1543-.00879.41406.31836.77344.73242.7832.4248.02246.75684-.30176.76562-.71582.00586-.03711.01465-.13867.01465-.17578,0-2.41211-1.96289-4.375-4.375-4.375Z" fill="var(--iconPrimary, #222)"/>
  <rect x="10" y="4.5" width="4" height="3.5" fill="var(--iconPrimary, #222)" opacity=".35"/>
  <path d="M17.5,11.26953v-3.26953h-3.5v3.36084c.3645-.07104.73999-.11084,1.125-.11084.00635,0,.01245.00098.0188.00098.00537,0,.0105-.00098.01587-.00098.04199,0,.08228.00708.12415.00806.17224.00464.34338.01392.51184.0332.12769.01392.25232.03564.37744.05786.07666.01367.15295.02783.22852.04468.15381.03345.30518.07178.4541.11694.01538.00488.03027.01025.04553.01514.38293.12012.75354.26831,1.09875.45996v-.01685c-.28979-.10376-.5-.37402-.5-.69946Z" fill="var(--iconPrimary, #222)" opacity=".35"/>
  <path d="M6,8v.91431c.58276.00024,1.16528.21289,1.58984.63745l2.41016,2.41089v-3.96265h-4Z" fill="var(--iconPrimary, #222)" opacity=".35"/>
  <path d="M10.51465,12.47754c.2428.24268.27258.60498.11292.89062.45837-.5481,1.00818-1.01636,1.63525-1.36816h-2.22546l.47729.47754Z" fill="var(--iconPrimary, #222)" opacity=".35"/>
  <path d="M6.8584,15.5h-3.6084c-.41309,0-.75-.33691-.75-.75v-1.17163c.00146-.00122.00342-.00171.00488-.00317l2.96289-2.96289c.28418-.28418.7793-.28223,1.06152,0l2.9248,2.92578c.29297.29199.76758.29395,1.06055,0,.29297-.29297.29297-.76758,0-1.06055l-2.9248-2.92578c-.84961-.84961-2.33203-.85059-3.18262,0l-1.90723,1.90723v-6.20898c0-.41309.33691-.75.75-.75h13.5c.41309,0,.75.33691.75.75v6.01953c0,.41406.33594.75.75.75s.75-.33594.75-.75v-6.01953c0-1.24023-1.00977-2.25-2.25-2.25H3.25c-1.24023,0-2.25,1.00977-2.25,2.25v9.5c0,1.24023,1.00977,2.25,2.25,2.25h3.6084c.41406,0,.75-.33594.75-.75s-.33594-.75-.75-.75Z" fill="var(--iconPrimary, #222)"/>
</svg>