<?xml version="1.0" encoding="UTF-8"?>
<svg xmlns="http://www.w3.org/2000/svg" width="20" height="20" viewBox="0 0 20 20">
  <path id="b"  d="m15,7.52114c0,.82843-.67157,1.5-1.5,1.5-.82843,0-1.5-.67157-1.5-1.5,0-.82843.67157-1.5,1.5-1.5s1.5.67157,1.5,1.5h0" fill="var(--iconPrimary, #222)" stroke-width="0"/>
  <path d="m16.75,3H5.25c-1.24023,0-2.25,1.00928-2.25,2.25v1h-1.25c-.41406,0-.75.33594-.75.75s.33594.75.75.75h1.25v4.5h-1.25c-.41406,0-.75.33594-.75.75s.33594.75.75.75h1.25v1c0,1.24072,1.00977,2.25,2.25,2.25h11.5c1.24023,0,2.25-1.00928,2.25-2.25V5.25c0-1.24072-1.00977-2.25-2.25-2.25Zm-11.5,3.25h-.75v-1c0-.41357.33691-.75.75-.75h11.5c.41309,0,.75.33643.75.75v7.89551l-1.52441-1.52441c-.78027-.77979-2.04688-.77881-2.8252,0l-1.02441,1.0249c-.0332.03174-.08301.03271-.11621,0l-2.68848-2.68848c-.7793-.7793-2.04688-.7793-2.82617.00098l-1.99512,2.00122v-4.20972h.75c.41406,0,.75-.33594.75-.75s-.33594-.75-.75-.75Zm11.5,9.25H5.25c-.41309,0-.75-.33643-.75-.75v-.66577l3.05664-3.06616c.1875-.18848.5166-.1875.7041,0l2.68848,2.68848c.61816.61816,1.62109.61621,2.2373,0l1.02441-1.0249c.19336-.19287.51074-.19482.7041,0l2.45898,2.45898c-.13281.21106-.35718.35938-.62402.35938Z" fill="var(--iconPrimary, #222)" stroke-width="0"/>
</svg>