<?xml version="1.0" encoding="UTF-8"?>
<svg xmlns="http://www.w3.org/2000/svg" width="20" height="20" viewBox="0 0 20 20">
  <path d="M15.75,2H4.25c-1.24023,0-2.25,1.00977-2.25,2.25v11.5c0,1.24023,1.00977,2.25,2.25,2.25h11.5c1.24023,0,2.25-1.00977,2.25-2.25V4.25c0-1.24023-1.00977-2.25-2.25-2.25ZM4.25,3.5h11.5c.41309,0,.75.33691.75.75v8.21045l-.90918-.90869c-.84961-.84961-2.33203-.84961-3.18164,0l-1.23145,1.23145c-.09961.09766-.25684.09668-.35449.00098l-3.23242-3.23242c-.87695-.87695-2.30469-.87695-3.18164,0l-.90918.90869v-6.21045c0-.41309.33691-.75.75-.75ZM15.75,16.5H4.25c-.41309,0-.75-.33691-.75-.75v-3.16895l1.96973-1.96875c.29297-.29297.76758-.29297,1.06055,0l3.2334,3.2334c.68164.67969,1.79004.68066,2.47363-.00098l1.23242-1.23242c.2832-.2832.77734-.2832,1.06055,0l1.96973,1.96875v1.16895c0,.41309-.33691.75-.75.75Z" fill="var(--iconPrimary, #222)"/>
  <path id="g"  d="M14.5,7.52114c0,.82843-.67157,1.5-1.5,1.5-.82843,0-1.5-.67157-1.5-1.5,0-.82843.67157-1.5,1.5-1.5s1.5.67157,1.5,1.5h0" fill="var(--iconPrimary, #222)"/>
</svg>