<?xml version="1.0" encoding="UTF-8"?>
<svg id="e" data-name="ICONS" xmlns="http://www.w3.org/2000/svg" width="20" height="20" viewBox="0 0 20 20">
  <path d="M12.75,5h-5.5c-1.24072,0-2.25,1.00977-2.25,2.25v5.5c0,1.24023,1.00928,2.25,2.25,2.25h1.25977c.41406,0,.75-.33594.75-.75s-.33594-.75-.75-.75h-1.25977c-.28424,0-.52338-.16504-.65057-.39893l1.52802-1.52783c.12646-.12695.22461-.12891.354,0l.62012.62012c.29297.29297.76758.29297,1.06055,0s.29297-.76758,0-1.06055l-.62012-.62012c-.68164-.67969-1.7915-.68164-2.4751,0l-.56689.56689v-3.82959c0-.41309.33643-.75.75-.75h5.5c.41357,0,.75.33691.75.75v1.16895c0,.41406.33594.75.75.75s.75-.33594.75-.75v-1.16895c0-1.24023-1.00928-2.25-2.25-2.25Z" fill="var(--iconPrimary, #222)"/>
  <path d="M15,10.5c-2.48529,0-4.5,2.01465-4.5,4.5s2.01471,4.5,4.5,4.5,4.5-2.01465,4.5-4.5-2.01471-4.5-4.5-4.5ZM17.5,15.625h-1.875v1.875c0,.34473-.27979.625-.625.625s-.625-.28027-.625-.625v-1.875h-1.875c-.34521,0-.625-.28027-.625-.625s.27979-.625.625-.625h1.875v-1.875c0-.34473.27979-.625.625-.625s.625.28027.625.625v1.875h1.875c.34521,0,.625.28027.625.625s-.27979.625-.625.625Z" fill="var(--iconPrimary, #222)"/>
  <path d="M9.52478,17.44238c-.61285-.12207-1.14661-.46143-1.51105-.94336h-2.18964c-.2818.58984-.87903,1.00098-1.57465,1.00098-.96466,0-1.74969-.78516-1.74969-1.75,0-.69531.41089-1.29248.99988-1.57422v-2.19092c-.60168-.45654-.99695-1.17236-.99695-1.98486s.39526-1.52832.99695-1.98486v-2.19238c-.5874-.28271-.99695-.87842-.99695-1.57275,0-.96484.78503-1.75,1.74969-1.75.69501,0,1.29169.41064,1.57379.99902h2.18884c.45679-.60303,1.1734-.99902,1.98645-.99902s1.52966.396,1.98645.99902h2.18884c.2821-.58838.87878-.99902,1.57379-.99902.96466,0,1.74969.78516,1.74969,1.75,0,.69678-.41217,1.29443-1.00269,1.57617v2.18408c.48334.36475.82343.8999.94507,1.51465.54944.24609,1.05377.57275,1.5011.96436.02069-.1626.05627-.3208.05627-.48926,0-1.229-.56873-2.31641-1.44342-3.05078.86951-.58398,1.44342-1.5752,1.44342-2.69922,0-1.79199-1.45776-3.25-3.24945-3.25-1.12366,0-2.11511.57422-2.69885,1.44385-.73425-.875-1.82153-1.44385-3.05023-1.44385s-2.31598.56885-3.05023,1.44385c-.58374-.86963-1.5752-1.44385-2.69885-1.44385-1.79169,0-3.24945,1.45801-3.24945,3.25,0,1.12402.57391,2.11523,1.44342,2.69922-.87469.73438-1.44342,1.82178-1.44342,3.05078,0,1.22852.56824,2.31543,1.44226,3.0498-.87048.5835-1.44519,1.57568-1.44519,2.7002,0,1.79199,1.45776,3.25,3.24945,3.25,1.12451,0,2.11646-.5752,2.70001-1.4458.73425.87598,1.82227,1.4458,3.052,1.4458.16809,0,.32574-.03564.48798-.05615-.39185-.44775-.71851-.95215-.96466-1.50146Z" fill="var(--iconPrimary, #222)"/>
  <path id="f" data-name="Path 1005062" d="M12.36052,8.66055c0,.55228-.44772,1-1,1-.55228,0-1-.44772-1-1,0-.55228.44772-1,1-1s1,.44772,1,1h0Z" fill="var(--iconPrimary, #222)"/>
</svg>