<?xml version="1.0" encoding="UTF-8"?>
<svg id="e" data-name="ICONS" xmlns="http://www.w3.org/2000/svg" width="20" height="20" viewBox="0 0 20 20">
  <path d="M17.55657,6.94922c.86949-.58398,1.44343-1.5752,1.44343-2.69922,0-1.79199-1.45777-3.25-3.24947-3.25-1.12366,0-2.11507.57422-2.69884,1.44385-.73426-.875-1.82154-1.44385-3.05022-1.44385s-2.31597.56885-3.05022,1.44385c-.58377-.86963-1.57518-1.44385-2.69884-1.44385-1.7917,0-3.24947,1.45801-3.24947,3.25,0,1.12402.57394,2.11523,1.44343,2.69922-.87467.73438-1.44343,1.82178-1.44343,3.05078,0,1.22852.56827,2.31543,1.44227,3.0498-.87046.5835-1.4452,1.57568-1.4452,2.7002,0,1.79199,1.45777,3.25,3.24947,3.25,1.12451,0,2.11642-.5752,2.7-1.4458.73426.87598,1.82227,1.4458,3.05199,1.4458,1.22868,0,2.31597-.56885,3.05022-1.44385.58377.86963,1.57518,1.44385,2.69884,1.44385,1.7917,0,3.24947-1.45801,3.24947-3.25,0-1.12402-.57394-2.11523-1.44343-2.69922.87467-.73438,1.44343-1.82178,1.44343-3.05078s-.56876-2.31641-1.44343-3.05078ZM17.50024,10c0,.81494-.39764,1.5332-1.00271,1.98975v2.18408c.59054.28174,1.00271.87939,1.00271,1.57617,0,.96484-.78503,1.75-1.74972,1.75-.69563,0-1.29282-.41113-1.57463-1.00098h-2.18672c-.45671.604-1.17394,1.00098-1.98771,1.00098s-1.531-.39697-1.98771-1.00098h-2.18965c-.28181.58984-.87901,1.00098-1.57463,1.00098-.96469,0-1.74972-.78516-1.74972-1.75,0-.69531.41088-1.29248.9999-1.57422v-2.19092c-.60171-.45654-.99697-1.17236-.99697-1.98486s.39526-1.52832.99697-1.98486v-2.19238c-.58743-.28271-.99697-.87842-.99697-1.57275,0-.96484.78503-1.75,1.74972-1.75.69502,0,1.29166.41064,1.57378.99902h2.18885c.45677-.60303,1.17339-.99902,1.98643-.99902s1.52966.396,1.98643.99902h2.18885c.28212-.58838.87876-.99902,1.57378-.99902.96469,0,1.74972.78516,1.74972,1.75,0,.69678-.41216,1.29443-1.00271,1.57617v2.18408c.60507.45654,1.00271,1.1748,1.00271,1.98975Z" fill="var(--iconPrimary, #222)"/>
  <path id="f" data-name="Path 1005062" d="M12.36052,8.66055c0,.55228-.44772,1-1,1-.55228,0-1-.44772-1-1,0-.55228.44772-1,1-1s1,.44772,1,1h0Z" fill="var(--iconPrimary, #222)"/>
  <path d="M12.75,5h-5.5c-1.24072,0-2.25,1.00977-2.25,2.25v5.5c0,1.24023,1.00928,2.25,2.25,2.25h5.5c1.24072,0,2.25-1.00977,2.25-2.25v-5.5c0-1.24023-1.00928-2.25-2.25-2.25ZM6.59973,13.10156l1.5282-1.52832c.09766-.09766.25586-.09766.35352,0l1.92676,1.92676h-3.1582c-.284,0-.52295-.16504-.65027-.39844ZM13.5,12.75c0,.41309-.33643.75-.75.75h-.2207l-2.9873-2.9873c-.66113-.66211-1.81348-.66211-2.47461,0l-.56738.56738v-3.83008c0-.41309.33643-.75.75-.75h5.5c.41357,0,.75.33691.75.75v5.5Z" fill="var(--iconPrimary, #222)"/>
</svg>