<?xml version="1.0" encoding="UTF-8"?>
<svg id="e" data-name="ICONS" xmlns="http://www.w3.org/2000/svg" width="20" height="20" viewBox="0 0 20 20">
  <path d="M14.31641,4H5.68359c-.92871,0-1.68359.74023-1.68359,1.65039v5.69922c0,.91016.75488,1.65039,1.68359,1.65039h3.16113c.41406,0,.75-.33594.75-.75s-.33594-.75-.75-.75h-3.16113c-.09961,0-.18359-.06934-.18359-.15039v-.89453l1.8125-1.8125c.15723-.15625.2793-.15918.43848,0l1.49902,1.49902c.24414.24414.64062.24414.88477,0,.24316-.24414.24316-.64062,0-.88477l-1.49902-1.49902c-.59082-.58887-1.61914-.58691-2.20801,0l-.92773.92773v-3.03516c0-.08105.08398-.15039.18359-.15039h8.63281c.09961,0,.18359.06934.18359.15039v2.60449c0,.41406.33594.75.75.75s.75-.33594.75-.75v-2.60449c0-.91016-.75488-1.65039-1.68359-1.65039Z" fill="var(--iconPrimary, #222)"/>
  <path id="f" data-name="Path 1005062" d="M12.83436,7.10256c0,.5168-.41895.93575-.93575.93575-.5168,0-.93575-.41895-.93575-.93575,0-.5168.41895-.93575.93575-.93575s.93575.41895.93575.93575h0Z" fill="var(--iconPrimary, #222)"/>
  <path d="M15,10.5c-2.48535,0-4.5,2.01465-4.5,4.5s2.01465,4.5,4.5,4.5,4.5-2.01465,4.5-4.5-2.01465-4.5-4.5-4.5ZM17.5,15.625h-1.875v1.89648c0,.34473-.28027.625-.625.625s-.625-.28027-.625-.625v-1.89648h-1.875c-.34473,0-.625-.28027-.625-.625s.28027-.625.625-.625h1.875v-1.875c0-.34473.28027-.625.625-.625s.625.28027.625.625v1.875h1.875c.34473,0,.625.28027.625.625s-.28027.625-.625.625Z" fill="var(--iconPrimary, #222)"/>
  <path d="M10.625,2.5h-1.25c-.41406,0-.75-.33594-.75-.75s.33594-.75.75-.75h1.25c.41406,0,.75.33594.75.75s-.33594.75-.75.75Z" fill="var(--iconPrimary, #222)"/>
  <path d="M6.75,2.5h-1.25c-.41406,0-.75-.33594-.75-.75s.33594-.75.75-.75h1.25c.41406,0,.75.33594.75.75s-.33594.75-.75.75Z" fill="var(--iconPrimary, #222)"/>
  <path d="M1.75,7.75c-.41406,0-.75-.33594-.75-.75v-1.25c0-.41406.33594-.75.75-.75s.75.33594.75.75v1.25c0,.41406-.33594.75-.75.75Z" fill="var(--iconPrimary, #222)"/>
  <path d="M18.25,7.75c-.41406,0-.75-.33594-.75-.75v-1.25c0-.41406.33594-.75.75-.75s.75.33594.75.75v1.25c0,.41406-.33594.75-.75.75Z" fill="var(--iconPrimary, #222)"/>
  <path d="M1.75,12c-.41406,0-.75-.33594-.75-.75v-1.25c0-.41406.33594-.75.75-.75s.75.33594.75.75v1.25c0,.41406-.33594.75-.75.75Z" fill="var(--iconPrimary, #222)"/>
  <path d="M14.5,2.5h-1.25c-.41406,0-.75-.33594-.75-.75s.33594-.75.75-.75h1.25c.41406,0,.75.33594.75.75s-.33594.75-.75.75Z" fill="var(--iconPrimary, #222)"/>
  <path d="M6.625,16h-1c-.41406,0-.75-.33594-.75-.75s.33594-.75.75-.75h1c.41406,0,.75.33594.75.75s-.33594.75-.75.75Z" fill="var(--iconPrimary, #222)"/>
  <path d="M1.75,3.5c-.08398,0-.16895-.01367-.25195-.04395-.38965-.13867-.59375-.56738-.4541-.95801.24316-.68262.77344-1.21387,1.45605-1.45508.38867-.13672.81836.06738.95703.45703s-.06641.81836-.45703.95703c-.25.08887-.45312.29199-.54395.54492-.10938.30664-.39746.49805-.70605.49805Z" fill="var(--iconPrimary, #222)"/>
  <path d="M2.75,16c-.08398,0-.16895-.01367-.25195-.04395-.68262-.24316-1.21387-.77344-1.45508-1.45605-.13867-.38965.06641-.81836.45703-.95703.38867-.1377.81836.06641.95703.45703.08887.25.29199.45312.54492.54395.38965.13867.59375.56738.4541.95801-.10938.30664-.39746.49805-.70605.49805Z" fill="var(--iconPrimary, #222)"/>
  <path d="M18.25,3.5c-.30859,0-.59766-.19238-.70703-.5-.08887-.25-.29199-.45312-.54492-.54395-.38965-.13867-.59375-.56738-.4541-.95801s.57129-.59473.95801-.4541c.68262.24316,1.21387.77344,1.45508,1.45605.13867.38965-.06641.81836-.45703.95703-.08203.0293-.16699.04297-.25.04297Z" fill="var(--iconPrimary, #222)"/>
</svg>