<?xml version="1.0" encoding="UTF-8"?>
<svg xmlns="http://www.w3.org/2000/svg" width="14" height="14" viewBox="0 0 14 14">
  <path d="M9.55273,6.55737l-2.22363-2.22363c-.24414-.24414-.64062-.24414-.88477,0-.24316.24414-.24316.64062,0,.88477l1.15686,1.15625H.98535c-.34473,0-.625.28027-.625.625s.28027.625.625.625h6.61658l-1.15759,1.1582c-.24414.24414-.24316.63965.00098.88379.12207.12207.28125.18262.44141.18262s.32031-.06152.44238-.18359l2.22363-2.22461c.24316-.24414.24316-.63965,0-.88379Z" fill="var(--iconPrimary, #222)"/>
  <path d="M11.12207,13h-6.24413c-1.0358,0-1.87793-.84082-1.87793-1.875v-1.37793c0-.34473.28071-.625.62598-.625s.62598.28027.62598.625v1.37793c0,.34473.28071.625.62598.625h6.24413c.34527,0,.62598-.28027.62598-.625V2.875c0-.34473-.28071-.625-.62598-.625h-6.24413c-.34527,0-.62598.28027-.62598.625v1.32031c0,.34473-.28071.625-.62598.625s-.62598-.28027-.62598-.625v-1.32031c0-1.03418.84214-1.875,1.87793-1.875h6.24413c1.0358,0,1.87793.84082,1.87793,1.875v8.25c0,1.03418-.84214,1.875-1.87793,1.875Z" fill="var(--iconPrimary, #222)"/>
</svg>