<?xml version="1.0" encoding="UTF-8"?>
<svg   xmlns="http://www.w3.org/2000/svg" width="20" height="20" viewBox="0 0 20 20">
  <path d="M15.74365,17H4.25635c-1.24414,0-2.25635-1.00977-2.25635-2.25v-4c0-.41406.33594-.75.75-.75s.75.33594.75.75v4c0,.41309.33936.75.75635.75h11.4873c.41699,0,.75635-.33691.75635-.75v-4c0-.41406.33594-.75.75-.75s.75.33594.75.75v4c0,1.24023-1.01221,2.25-2.25635,2.25Z" fill="var(--iconPrimary, #222)"/>
  <path d="M14.21973,11H5.71973c-.41406,0-.75-.33594-.75-.75s.33594-.75.75-.75h8.5c.41406,0,.75.33594.75.75s-.33594.75-.75.75Z" fill="var(--iconPrimary, #222)"/>
  <path d="M14.21973,8H5.71973c-.41406,0-.75-.33594-.75-.75s.33594-.75.75-.75h8.5c.41406,0,.75.33594.75.75s-.33594.75-.75.75Z" fill="var(--iconPrimary, #222)"/>
  <path d="M14.21973,5H5.71973c-.41406,0-.75-.33594-.75-.75s.33594-.75.75-.75h8.5c.41406,0,.75.33594.75.75s-.33594.75-.75.75Z" fill="var(--iconPrimary, #222)"/>
</svg>