<?xml version="1.0" encoding="UTF-8"?>
<svg   xmlns="http://www.w3.org/2000/svg" width="20" height="20" viewBox="0 0 20 20">
  <path d="M16.26367,4.49516c-.82861-1.43164-2.22656-2.47266-3.93555-2.93066-1.71045-.45801-3.44336-.25488-4.87598.56836-1.43018.82422-2.46875,2.21484-2.9248,3.91602-.78827,2.94141.7699,7.25293,2.93091,8.88965l-2.22534,1.8877c-.2124.18066-.30762.46484-.24658.73633.06104.27246.26855.48828.5376.56055l4.66162,1.24902c.06445.0166.12988.02539.19434.02539.21289,0,.41992-.09082.56396-.25586.18848-.21484.23828-.51855.12842-.78223l-1.16364-2.79907c1.06293-.14111,2.27979-.66357,3.48004-1.55737,1.75049-1.30371,3.00879-3.00098,3.45264-4.65625.45459-1.69824.24951-3.42188-.57764-4.85156ZM7.29492,17.04496l1.1875-1.00781.62012,1.49121-1.80762-.4834ZM15.39209,8.95805c-.35254,1.31641-1.43652,2.75293-2.89941,3.8418-1.31152.97656-2.72607,1.48828-3.51709,1.27637-1.63623-.44043-3.80225-4.64258-2.99902-7.63867.35205-1.31348,1.14209-2.38086,2.22412-3.00488.69971-.40332,1.49951-.6084,2.33447-.6084.46094,0,.93311.0625,1.40479.18945,1.32275.35449,2.39746,1.14746,3.02539,2.2334.62646,1.08203.77783,2.40039.42676,3.71094Z" fill="var(--iconPrimary, #222)"/>
</svg>