<?xml version="1.0" encoding="UTF-8"?>
<svg xmlns="http://www.w3.org/2000/svg" width="14" height="14" viewBox="0 0 14 14">
  <path d="M6.89648,4.79566c.14708.38276.46757.67695.86194.79058.14712.04239.48965.10779.86047-.04623.45671-.1897.91762.20156.77329.67457-.14723.48252-.4482.92948-.91018,1.26739-.78929.57732-1.89336.61945-2.72295.10169-1.35829-.84773-1.55467-2.66022-.52381-3.7755.25553-.27646.55934-.47927.8864-.60891.43354-.17185.91416.25804.76021.69826-.09828.28101-.10111.59698.01462.89816Z" fill="var(--iconPrimary, #222)"/>
  <path d="M8.37646,13.25h-.7417c-.34521,0-.625-.28027-.625-.625s.27979-.625.625-.625h.7417c.34521,0,.625.28027.625.625s-.27979.625-.625.625Z" fill="var(--iconPrimary, #222)"/>
  <path d="M8.37646,11h-.7417c-.34521,0-.625-.28027-.625-.625s.27979-.625.625-.625h.7417c.34521,0,.625.28027.625.625s-.27979.625-.625.625Z" fill="var(--iconPrimary, #222)"/>
  <path d="M13.00977,13.25h-2.96533c-.34521,0-.625-.28027-.625-.625s.27979-.625.625-.625h2.96533c.34521,0,.625.28027.625.625s-.27979.625-.625.625Z" fill="var(--iconPrimary, #222)"/>
  <path d="M13.00977,11h-2.96533c-.34521,0-.625-.28027-.625-.625s.27979-.625.625-.625h2.96533c.34521,0,.625.28027.625.625s-.27979.625-.625.625Z" fill="var(--iconPrimary, #222)"/>
  <path d="M5.6001,10.04492c-.05322,0-.10693-.00684-.16016-.02051C2.82568,9.33203.5,7.01074.5,5.66504c0-1.2207,1.7915-3.20996,3.7583-4.17383.8374-.42285,1.78467-.65527,2.7334-.66797,3.62598,0,6.5083,3.47656,6.5083,4.8418,0,.81055-.76514,1.70898-1.22168,2.17285-.24121.24609-.6377.25-.88379.00684-.24609-.24219-.24902-.6377-.00684-.88379.65137-.66211.8623-1.15918.8623-1.2959-.00537-.57715-2.25879-3.5918-5.25-3.5918-.75098.01074-1.50928.19629-2.18506.53711-1.74268.85352-3.06494,2.53711-3.06494,3.05469,0,.50488,1.66357,2.53027,4.00928,3.15039.33398.08887.53271.43066.44434.76465-.07373.28027-.32666.46484-.60352.46484Z" fill="var(--iconPrimary, #222)"/>
</svg>