<?xml version="1.0" encoding="UTF-8"?>
<svg id="g" data-name="ICONS" xmlns="http://www.w3.org/2000/svg" width="20" height="20" viewBox="0 0 20 20">
  <path d="M10.00064,5.26036c.23065-.00813.45538.07387.62661.22862.33033.36505.33033.92102,0,1.28607-.16935.15851-.39483.24308-.62664.23504-.23635.00948-.46589-.08035-.63302-.24775-.16207-.1679-.24916-.39432-.24137-.62755-.01238-.23497.06959-.46515.2277-.6394.17358-.16474.40786-.24988.64671-.23503Z" fill="var(--iconInformative, #147af3)"/>
  <path d="M10,15.06445c-.41406,0-.75-.33594-.75-.75v-4.83496c0-.41406.33594-.75.75-.75s.75.33594.75.75v4.83496c0,.41406-.33594.75-.75.75Z" fill="var(--iconInformative, #147af3)"/>
  <path d="M10,18.75c-4.82471,0-8.75-3.9248-8.75-8.75S5.17529,1.25,10,1.25s8.75,3.9248,8.75,8.75-3.92529,8.75-8.75,8.75ZM10,2.75c-3.99756,0-7.25,3.25195-7.25,7.25s3.25244,7.25,7.25,7.25,7.25-3.25195,7.25-7.25-3.25244-7.25-7.25-7.25Z" fill="var(--iconInformative, #147af3)"/>
</svg>