<?xml version="1.0" encoding="UTF-8"?>
<svg xmlns="http://www.w3.org/2000/svg" width="20" height="20" viewBox="0 0 20 20">
  <path d="m9.85022,6.96412c.21279.55378.67648.97942,1.24706,1.14381.21286.06133.70844.15595,1.24493-.06689.66077-.27446,1.32762.29162,1.1188.97598-.21302.69811-.64846,1.34478-1.31685,1.83367-1.14196.83527-2.73933.89622-3.93958.14712-1.96518-1.22651-2.24931-3.84883-.75785-5.46243.36971-.39998.80926-.69341,1.28245-.88097.62725-.24864,1.32262.37334,1.09987,1.01025-.14219.40657-.14629.86371.02115,1.29947Z" fill="var(--iconPrimary, #222)" stroke-width="0"/>
  <path d="m12,17.5h-1c-.41406,0-.75-.33594-.75-.75s.33594-.75.75-.75h1c.41406,0,.75.33594.75.75s-.33594.75-.75.75Z" fill="var(--iconPrimary, #222)" stroke-width="0"/>
  <path d="m12,14.5h-1c-.41406,0-.75-.33594-.75-.75s.33594-.75.75-.75h1c.41406,0,.75.33594.75.75s-.33594.75-.75.75Z" fill="var(--iconPrimary, #222)" stroke-width="0"/>
  <path d="m18.25,17.5h-4c-.41406,0-.75-.33594-.75-.75s.33594-.75.75-.75h4c.41406,0,.75.33594.75.75s-.33594.75-.75.75Z" fill="var(--iconPrimary, #222)" stroke-width="0"/>
  <path d="m18.25,14.5h-4c-.41406,0-.75-.33594-.75-.75s.33594-.75.75-.75h4c.41406,0,.75.33594.75.75s-.33594.75-.75.75Z" fill="var(--iconPrimary, #222)" stroke-width="0"/>
  <path d="m7.97461,14.40527c-.06348,0-.12793-.00781-.19238-.02539-3.72119-.98535-7.03223-4.26465-7.03223-6.1582,0-1.68555,2.60059-4.55273,5.35156-5.89941,1.19385-.60352,2.5415-.93359,3.88916-.9502,5.15723,0,9.25928,4.91895,9.25928,6.84961,0,1.16016-1.20508,2.50977-1.72314,3.03613-.29102.29395-.76562.2998-1.06055.00781-.29541-.29004-.29932-.76465-.00879-1.06055.94824-.96289,1.29248-1.71387,1.29248-1.9834,0-1.04883-3.48145-5.34961-7.75-5.34961-1.11084.01367-2.23096.28809-3.23047.79297-2.61475,1.28027-4.51953,3.75391-4.51953,4.55664,0,.91113,2.56055,3.82031,5.91602,4.70898.40039.10547.63916.5166.5332.91699-.08887.33594-.39258.55762-.72461.55762Z" fill="var(--iconPrimary, #222)" stroke-width="0"/>
</svg>