<?xml version="1.0" encoding="UTF-8"?>
<svg xmlns="http://www.w3.org/2000/svg" width="16" height="16" viewBox="0 0 16 16">
  <path d="M8.00057,4.32661c.20429-.0072.40334.06542.555.20249.29258.32333.29258.81576,0,1.13909-.14999.14039-.3497.2153-.55502.20817-.20934.0084-.41265-.07117-.56067-.21943-.14355-.14871-.22068-.34926-.21378-.55583-.01097-.20811.06164-.41199.20168-.56632.15375-.14592.36125-.22133.5728-.20817Z" fill="var(--iconPrimary, #222)"/>
  <path d="M8,11.98535c-.41406,0-.75-.33594-.75-.75v-3.62598c0-.41406.33594-.75.75-.75s.75.33594.75.75v3.62598c0,.41406-.33594.75-.75.75Z" fill="var(--iconPrimary, #222)"/>
  <path d="M8,14.75c-3.72168,0-6.75-3.02783-6.75-6.75S4.27832,1.25,8,1.25s6.75,3.02783,6.75,6.75-3.02832,6.75-6.75,6.75ZM8,2.75c-2.89453,0-5.25,2.35498-5.25,5.25s2.35547,5.25,5.25,5.25,5.25-2.35498,5.25-5.25-2.35547-5.25-5.25-5.25Z" fill="var(--iconPrimary, #222)"/>
</svg>