<?xml version="1.0" encoding="UTF-8"?>
<svg   xmlns="http://www.w3.org/2000/svg" width="20" height="20" viewBox="0 0 20 20">
  <path d="m10,3.441c2.136,0,2.389.009,3.233.047.50717.00609,1.00951.09946,1.485.276.34778.12848.66221.33354.92.6.26646.25779.47152.57222.6.92.17654.47549.26991.97783.276,1.485.038.844.047,1.1.047,3.233s-.009,2.389-.047,3.233c-.00609.50717-.09946,1.00951-.276,1.485-.26857.6979-.8201,1.24943-1.518,1.518-.47549.17654-.97783.26991-1.485.276-.844.038-1.1.047-3.233.047s-2.389-.009-3.233-.047c-.50717-.00609-1.00951-.09946-1.485-.276-.34778-.12848-.66221-.33354-.92-.6-.26646-.25779-.47152-.57222-.6-.92-.17654-.47549-.26991-.97783-.276-1.485-.038-.844-.047-1.1-.047-3.233s.009-2.389.047-3.233c.00609-.50717.09946-1.00951.276-1.485.12848-.34778.33354-.66221.6-.92.25779-.26646.57222-.47152.92-.6.47549-.17654.97783-.26991,1.485-.276.842-.036,1.095-.045,3.231-.045Zm0-1.441c-2.173,0-2.445.009-3.3.048-.66304.01348-1.319.13927-1.94.372-.53404.20056-1.01769.5156-1.417.923-.4074.39931-.72244.88296-.923,1.417-.23273.621-.35852,1.27696-.372,1.94-.039.855-.048,1.127-.048,3.3s.009,2.445.048,3.3c.01348.66304.13927,1.319.372,1.94.20056.53404.5156,1.01769.923,1.417.39931.4074.88296.72244,1.417.923.62163.23296,1.27828.35874,1.942.372.853.039,1.125.048,3.298.048s2.445-.009,3.3-.048c.66372-.01326,1.32037-.13904,1.942-.372,1.07454-.41595,1.92405-1.26546,2.34-2.34.23296-.62163.35874-1.27829.372-1.942.039-.853.048-1.125.048-3.3s-.009-2.445-.048-3.3c-.01435-.66248-.1408-1.31775-.374-1.938-.20056-.53404-.5156-1.01769-.923-1.417-.39931-.4074-.88296-.72244-1.417-.923-.621-.23273-1.27696-.35852-1.94-.372-.855-.039-1.127-.048-3.3-.048Z" fill="var(--iconPrimary, #222)" stroke-width="0"/>
  <path d="m10,5.892c-2.26879,0-4.108,1.83921-4.108,4.108s1.83921,4.108,4.108,4.108,4.108-1.83921,4.108-4.108-1.83921-4.108-4.108-4.108h0Zm0,6.775c-1.47294,0-2.667-1.19406-2.667-2.667s1.19406-2.667,2.667-2.667,2.667,1.19406,2.667,2.667h0c0,1.47294-1.19406,2.667-2.667,2.667Z" fill="var(--iconPrimary, #222)" stroke-width="0"/>
  <circle cx="14.27" cy="5.73" r=".96" fill="var(--iconPrimary, #222)" stroke-width="0"/>
</svg>