<?xml version="1.0" encoding="UTF-8"?>
<svg xmlns="http://www.w3.org/2000/svg" width="20" height="20" viewBox="0 0 20 20">
  <path d="m15.75,18.02148h-6.5c-1.24023,0-2.25-1.00977-2.25-2.25v-2.75h-2.75c-1.24023,0-2.25-1.00977-2.25-2.25v-6.5c0-1.24023,1.00977-2.25,2.25-2.25h6.5c1.24023,0,2.25,1.00977,2.25,2.25v2.75h2.75c1.24023,0,2.25,1.00977,2.25,2.25v6.5c0,1.24023-1.00977,2.25-2.25,2.25ZM4.25,3.52148c-.41309,0-.75.33691-.75.75v6.5c0,.41309.33691.75.75.75h4.25v4.25c0,.41309.33691.75.75.75h6.5c.41309,0,.75-.33691.75-.75v-6.5c0-.41309-.33691-.75-.75-.75h-4.25v-4.25c0-.41309-.33691-.75-.75-.75h-6.5Z" fill="var(--iconPrimary, #222)" opacity=".35"/>
  <path d="m11.25,13.02148h-2.5c-.96484,0-1.75-.78516-1.75-1.75v-2.5c0-.96484.78516-1.75,1.75-1.75h2.5c.96484,0,1.75.78516,1.75,1.75v2.5c0,.96484-.78516,1.75-1.75,1.75Zm-2.5-4.5c-.1377,0-.25.1123-.25.25v2.5c0,.1377.1123.25.25.25h2.5c.1377,0,.25-.1123.25-.25v-2.5c0-.1377-.1123-.25-.25-.25h-2.5Z" fill="var(--iconPrimary, #222)"/>
</svg>