<?xml version="1.0" encoding="UTF-8"?>
<svg xmlns="http://www.w3.org/2000/svg" width="14" height="14" viewBox="0 0 14 14">
  <path d="M3.4873,8.17676c-.0918,0-.18359-.01953-.27148-.0625-1.43262-.69043-2.30762-2.21973-2.17871-3.80469C1.21094,2.17969,3.09668.59863,5.21289.7627c1.83789.14941,3.32422,1.58691,3.53418,3.41602.03906.34277-.20703.65332-.5498.69238-.34766.04199-.65234-.20801-.69238-.5498-.1416-1.23828-1.14844-2.21094-2.39355-2.3125-1.44824-.11914-2.71094.95996-2.82812,2.40234-.08789,1.07422.50488,2.11035,1.47559,2.57812.31055.14941.44141.52344.29102.83398-.10742.22363-.33008.35352-.5625.35352Z" fill="var(--iconPrimary, #222)"/>
  <path d="M9.27637,13.25098c-1.16602,0-2.28809-.45996-3.18945-.82812l-.23242-.0957c-.38672-.15625-.70312-.27734-.96484-.37793-.89844-.34473-1.30859-.50195-1.58301-1.01367-.17285-.32129-.2041-.71582-.08691-1.08105.11426-.35645.36035-.65723.67676-.82617.46582-.25195.86426-.20117,1.95898.11621l-1.28809-2.39551c-.16309-.30371-.26465-.49121-.26465-.49316-.18652-.34277-.22949-.75781-.11133-1.15137.11719-.39258.38086-.71582.74121-.91016.6875-.37305,1.54199-.15723,1.98828.49609.02441.04004.48926.88184.89551,1.62695.75488-.37402,1.75391-.61621,2.69141-.34863.80566.22852,1.41504.7959,1.76367,1.64062h0c1.03027,2.5.62598,4.25293-1.20312,5.21094-.59277.31152-1.19824.43066-1.79199.43066ZM4.54785,10.12012c-.02734,0-.04785.00293-.06055.00977-.06836.03613-.11523.14844-.0791.21582.05176.09668.32227.2041.92871.43652.26758.10254.5918.22656.98633.38672l.2373.09668c1.26074.51562,2.68652,1.09863,3.92773.44727,1.22363-.64062,1.41113-1.72559.62695-3.62695h0c-.20215-.49121-.51367-.79102-.94922-.91504-.7373-.20996-1.66895.125-2.22363.52246-.14648.10547-.33105.14453-.50488.10254-.17578-.04102-.3252-.1543-.41016-.3125-.42676-.79102-1.16992-2.1377-1.16992-2.13867-.04395-.05762-.19434-.12402-.33105-.05078-.08984.04883-.125.12695-.1377.16895s-.02637.12598.02246.2168l2.25781,4.19727c.11914.22266.09277.49512-.06641.69043-.15918.19629-.42188.27637-.66211.2041l-.66797-.19922c-.86133-.25781-1.51074-.45215-1.72461-.45215Z" fill="var(--iconPrimary, #222)"/>
</svg>