<?xml version="1.0" encoding="UTF-8"?>
<svg id="e" data-name="ICONS" xmlns="http://www.w3.org/2000/svg" width="20" height="20" viewBox="0 0 20 20">
  <path d="M15.75,18H4.25c-1.24023,0-2.25-1.00977-2.25-2.25V4.25c0-1.24023,1.00977-2.25,2.25-2.25h11.5c1.24023,0,2.25,1.00977,2.25,2.25v11.5c0,1.24023-1.00977,2.25-2.25,2.25ZM4.25,3.5c-.41309,0-.75.33691-.75.75v11.5c0,.41309.33691.75.75.75h11.5c.41309,0,.75-.33691.75-.75V4.25c0-.41309-.33691-.75-.75-.75H4.25Z" fill="var(--iconPrimary, #222)"/>
  <path d="M12.5,12h-5c-.41406,0-.75-.33594-.75-.75s.33594-.75.75-.75h5c.41406,0,.75.33594.75.75s-.33594.75-.75.75Z" fill="var(--iconPrimary, #222)"/>
  <path d="M14.25,15H5.75c-.41406,0-.75-.33594-.75-.75s.33594-.75.75-.75h8.5c.41406,0,.75.33594.75.75s-.33594.75-.75.75Z" fill="var(--iconPrimary, #222)"/>
  <path d="M8.91406,9.56055c-.17871,0-.35645-.05566-.50977-.16602-.29395-.21387-.42285-.5791-.32812-.93066l.19336-.7041-.56836-.45605c-.28516-.22852-.39551-.60059-.2832-.94629s.41992-.58008.7832-.59766l.72852-.03418.25781-.68164c.12891-.34082.44727-.56152.8125-.56152s.68359.2207.8125.56152l.25781.68164.72754.03418c.36426.01758.67188.25195.78418.59766s.00195.71777-.28223.94629l-.56934.45605.19141.70312c.09668.35156-.03223.71777-.32812.93164-.29688.21387-.68555.22168-.98828.01953l-.60254-.39844-.6123.40137c-.14648.09668-.31152.14355-.47656.14355ZM10.14941,8.91992l-.00195.00098c.00098,0,.00098-.00098.00195-.00098ZM9.25879,6.95703c.23145.22656.33691.55176.28223.87109.28613-.15234.62695-.1543.91699-.00391-.05371-.31641.05176-.6416.2832-.86719-.32031-.04785-.59766-.24902-.74121-.54004-.14258.29004-.41992.49219-.74121.54004ZM8.31445,7.59473c-.00098.00098-.00098.00195-.00098.00195l.00098-.00195ZM11.68555,7.59277v.00195-.00195ZM8.86914,5.88574v.00195-.00195ZM11.12988,5.88379l.00098.00195q-.00098-.00098-.00098-.00195Z" fill="var(--iconPrimary, #222)"/>
</svg>