<?xml version="1.0" encoding="UTF-8"?>
<svg xmlns="http://www.w3.org/2000/svg" width="14" height="14" viewBox="0 0 14 14">
  <path d="M13.36523,10.74023h-1.375v-1.375c0-.34473-.27979-.625-.625-.625s-.625.28027-.625.625v1.375h-1.375c-.34521,0-.625.28027-.625.625s.27979.625.625.625h1.375v1.375c0,.34473.27979.625.625.625s.625-.28027.625-.625v-1.375h1.375c.34521,0,.625-.28027.625-.625s-.27979-.625-.625-.625Z" fill="var(--iconPrimary, #222)"/>
  <path d="M7.03711,8.06152c-.43457.00488-.91895-.12109-1.31152-.37012-.37402-.24023-.67871-.57227-.88281-.96289-.21533-.41113-.3252-.87305-.31787-1.33594-.01709-.89355.4292-1.73828,1.19482-2.23828.77979-.49512,1.77783-.49512,2.5498-.00391.37109.24023.67529.56934.88379.95605.21582.39844.32715.84863.32227,1.30273.00684.44922-.10303.91211-.31836,1.32422-.20459.39258-.50977.72656-.88135.9668-.37305.2373-.79932.36133-1.23877.36133ZM7.00732,6.81152h.00732c.22314-.0127.41162-.05273.58643-.16406.1875-.12012.34326-.29199.44824-.49316.11914-.22852.18018-.48438.17627-.74316.00293-.25781-.05664-.49805-.17188-.70996-.10938-.20312-.26807-.375-.45898-.49902-.36182-.22949-.83252-.22949-1.19824.00293-.396.25879-.63086.70312-.62158,1.18555-.00439.27637.05615.53125.17529.75781.104.19922.25879.36816.44824.49023.17773.1123.38525.17285.59814.17285h.01074Z" fill="var(--iconPrimary, #222)"/>
  <path d="M7,.8252C3.59521.8252.8252,3.59473.8252,7s2.77002,6.1748,6.1748,6.1748c.34521,0,.625-.28027.625-.625s-.27979-.625-.625-.625c-1.19971,0-2.28607-.44824-3.1413-1.16382.90399-.80017,2.56317-1.22974,4.12225-.94751.3418.0625.66504-.16504.72656-.50391.06104-.33984-.16406-.66504-.50391-.72656-1.95685-.35522-4.00928.19775-5.20148,1.27124-.57794-.80701-.92694-1.78809-.92694-2.85425,0-2.71582,2.20947-4.9248,4.9248-4.9248s4.9248,2.20898,4.9248,4.9248c0,.34473.27979.625.625.625s.625-.28027.625-.625c0-3.40527-2.77002-6.1748-6.1748-6.1748Z" fill="var(--iconPrimary, #222)"/>
</svg>