<?xml version="1.0" encoding="UTF-8"?>
<svg xmlns="http://www.w3.org/2000/svg" width="28.00005" height="28" viewBox="0 0 28.00005 28">
  <g id="circles">
    <circle id="Ellipse_10213" data-name="Ellipse 10213" cx="14.00002" cy="14" r="14.00001" fill="#e434a3"/>
  </g>
  <g id="ICONS">
    <rect id="S2_Icon_GraphBarMoney_20_N" x="5" y="5" width="18" height="18" fill="none" opacity=".1"/>
    <path d="M14,11.24111c-1.36494,0-2.475-1.11006-2.475-2.475s1.11006-2.475,2.475-2.475,2.475,1.11006,2.475,2.475-1.11006,2.475-2.475,2.475ZM14,7.64111c-.62051,0-1.125.50449-1.125,1.125s.50449,1.125,1.125,1.125,1.125-.50449,1.125-1.125-.50449-1.125-1.125-1.125Z" fill="#fff"/>
    <path d="M19.37319,20.48809c-1.36494,0-2.475-1.11006-2.475-2.475s1.11006-2.475,2.475-2.475,2.475,1.11006,2.475,2.475-1.11006,2.475-2.475,2.475ZM19.37319,16.88809c-.62051,0-1.125.50449-1.125,1.125s.50449,1.125,1.125,1.125,1.125-.50449,1.125-1.125-.50449-1.125-1.125-1.125Z" fill="#fff"/>
    <path d="M19.90142,14.2417c-.30981,0-.58887-.21445-.65874-.5291-.23159-1.04502-.7686-1.98896-1.55259-2.73076-.27114-.25664-.28301-.68379-.02681-.95449.2562-.26982.68423-.28213.95405-.02637.9813.92812,1.65322,2.11025,1.9437,3.41982.08042.36387-.14897.72422-.51284.80508-.04922.01055-.09844.01582-.14678.01582Z" fill="#fff"/>
    <path d="M14,21.6043c-.66313,0-1.321-.09756-1.95557-.29092-.3564-.10898-.55767-.48604-.44868-.84287.10811-.35771.4856-.55459.84243-.44912,1.01338.30938,2.11025.30938,3.12363,0,.3542-.10459.73433.09316.84243.44912.10898.35684-.09229.73389-.44868.84287-.63457.19336-1.29243.29092-1.95557.29092Z" fill="#fff"/>
    <path d="M8.09858,14.2417c-.04834,0-.09756-.00527-.14678-.01582-.36387-.08086-.59326-.44121-.51284-.80508.29048-1.30957.9624-2.4917,1.9437-3.41982.26938-.25576.69785-.24346.95405.02637.2562.2707.24434.69785-.02681.95449-.78398.7418-1.321,1.68574-1.55259,2.73076-.06987.31465-.34893.5291-.65874.5291Z" fill="#fff"/>
    <path d="M8.62681,20.48809c-1.36494,0-2.475-1.11006-2.475-2.475s1.11006-2.475,2.475-2.475,2.475,1.11006,2.475,2.475-1.11006,2.475-2.475,2.475ZM8.62681,16.88809c-.62051,0-1.125.50449-1.125,1.125s.50449,1.125,1.125,1.125,1.125-.50449,1.125-1.125-.50449-1.125-1.125-1.125Z" fill="#fff"/>
  </g>
</svg>