<?xml version="1.0" encoding="UTF-8"?>
<svg id="e" data-name="ICONS" xmlns="http://www.w3.org/2000/svg" width="20" height="20" viewBox="0 0 20 20">
  <path d="M14.25,14.95898c-.41406,0-.75.37695-.75.79102,0,.41309-.33691.75-.75.75H4.25c-.41309,0-.75-.33691-.75-.75V3.25c0-.41309.33691-.75.75-.75h8.5c.2793,0,.5332.15918.66406.41406.18652.37012.63965.5166,1.00781.32812.36914-.1875.5166-.63867.32812-1.00781-.38672-.76172-1.15332-1.23438-2-1.23438H4.25c-1.24023,0-2.25,1.00977-2.25,2.25v3h-.75c-.41406,0-.75.33594-.75.75s.33594.75.75.75h.75v3.5h-.75c-.41406,0-.75.33594-.75.75s.33594.75.75.75h.75v3c0,1.24023,1.00977,2.25,2.25,2.25h8.5c1.24023,0,2.25-1.00977,2.25-2.33301,0-.41406-.33594-.70801-.75-.70801Z" fill="var(--iconPrimary, #222)"/>
  <path d="M18.58203,4.31055c-.96875-.78809-2.45215-.68555-3.37988.23926l-5.93359,5.93359c-.00098,0-.00098.00098-.00195.00195-.24707.24902-.43066.55566-.53027.8877l-.9541,3.16016c-.08008.26465-.00781.55176.1875.74707.14258.14258.33398.21973.53027.21973.07227,0,.14551-.01074.2168-.03223l3.15918-.95312c.33301-.10059.63965-.28418.89062-.5332,0,0,5.87109-5.87207,6.00293-6.00293.49316-.49414.75586-1.17676.7207-1.87402-.03418-.69531-.36523-1.34961-.9082-1.79395ZM9.62207,13.62793l.55078-1.82227c.01636-.05591.05823-.10181.09094-.15186l1.33215,1.33252c-.05005.03296-.0957.07495-.15259.0918l-1.82129.5498ZM17.71094,6.91602c-.1001.09937-3.60425,3.604-5.20898,5.20898l-1.37646-1.37744,5.13721-5.13721c.3877-.38574.98926-.44922,1.37012-.13867.21777.17871.3457.43066.35938.70801.01465.2793-.08691.54102-.28125.73633Z" fill="var(--iconPrimary, #222)"/>
  <path d="M8.32031,9h-1.57031c-.96484,0-1.75-.78516-1.75-1.75v-1.5c0-.96484.78516-1.75,1.75-1.75h3.5c.72559,0,1.36426.44043,1.62793,1.12305.14844.38672-.04395.82031-.43066.96973-.38574.14941-.82031-.04297-.96973-.43066-.02832-.07422-.10547-.16211-.22754-.16211h-3.5c-.1377,0-.25.1123-.25.25v1.5c0,.1377.1123.25.25.25h1.57031c.41406,0,.75.33594.75.75s-.33594.75-.75.75Z" fill="var(--iconPrimary, #222)"/>
</svg>