<?xml version="1.0" encoding="UTF-8"?>
<svg xmlns="http://www.w3.org/2000/svg" width="28.00005" height="28" viewBox="0 0 28.00005 28">
  <g id="circles">
    <circle id="Ellipse_10213" data-name="Ellipse 10213" cx="14.00002" cy="14" r="14.00001" fill="#e434a3"/>
  </g>
  <g id="ICONS">
    <rect id="S2_Icon_BuildingsJourney_20_N" x="5" y="5" width="18" height="18" transform="translate(28 0) rotate(90)" fill="none" opacity=".1"/>
    <g>
      <path d="M20.30439,7.47676v3.61758c0,.37266.30234.675.675.675s.675-.30234.675-.675v-3.61758c0-1.11621-.90879-2.025-2.025-2.025h-6.75c-1.11621,0-2.025.90879-2.025,2.025v10.35c0,.37266.30234.675.675.675s.675-.30234.675-.675V7.47676c0-.37178.30322-.675.675-.675h6.75c.37178,0,.675.30322.675.675Z" fill="#fff"/>
      <path d="M9.05439,18.50176h-1.575c-.37266,0-.67588-.30322-.67588-.675v-5.85c0-.37178.30322-.675.67588-.675h1.575c.37266,0,.675-.30234.675-.675s-.30234-.675-.675-.675h-1.575c-1.11709,0-2.02588.90879-2.02588,2.025v5.85c0,1.11621.90879,2.025,2.02588,2.025h1.575c.37266,0,.675-.30234.675-.675s-.30234-.675-.675-.675Z" fill="#fff"/>
      <circle cx="14.45406" cy="9.05154" r=".9" fill="#fff"/>
      <circle cx="18.05406" cy="9.05154" r=".9" fill="#fff"/>
      <circle cx="14.45406" cy="11.75154" r=".9" fill="#fff"/>
      <circle cx="18.05406" cy="11.75154" r=".9" fill="#fff"/>
      <circle cx="9.05406" cy="13.55176" r=".9" fill="#fff"/>
      <circle cx="9.05406" cy="16.25154" r=".9" fill="#fff"/>
      <path d="M13.55406,14.45154c0,.36299.21753.6717.52701.81409.25994-.0835.53163-.14062.81892-.14062.04032,0,.07789.01011.11777.01187.20061-.16501.33629-.40518.33629-.68533,0-.49702-.40287-.9-.9-.9s-.9.40298-.9.9Z" fill="#fff"/>
      <path d="M18.5,16.475v-1.21465c0-.07471.06064-.13535.13535-.13535h1.40186c.23379.40188.66434.675,1.16279.675.74553,0,1.35-.60447,1.35-1.35s-.60447-1.35-1.35-1.35c-.49845,0-.929.27312-1.16279.675h-1.40186c-.81914,0-1.48535.66621-1.48535,1.48535v1.21465c0,.37178-.30322.675-.675.675h-.41221c-.23379-.40188-.66434-.675-1.16279-.675-.74553,0-1.35.60447-1.35,1.35s.60447,1.35,1.35,1.35c.49845,0,.929-.27312,1.16279-.675h.41221c1.11621,0,2.025-.90879,2.025-2.025Z" fill="#fff"/>
      <path d="M21.2,19.85c-.49845,0-.929.27312-1.16279.675h-1.40186c-.07471,0-.13535-.06064-.13535-.13535v-.53965c0-.37266-.30234-.675-.675-.675s-.675.30234-.675.675v.53965c0,.81914.66621,1.48535,1.48535,1.48535h1.40186c.23379.40188.66434.675,1.16279.675.74553,0,1.35-.60447,1.35-1.35s-.60447-1.35-1.35-1.35Z" fill="#fff"/>
    </g>
  </g>
</svg>