<?xml version="1.0" encoding="UTF-8"?>
<svg xmlns="http://www.w3.org/2000/svg" width="28.00005" height="28" viewBox="0 0 28.00005 28">
  <g id="circles">
    <circle id="Ellipse_10213" data-name="Ellipse 10213" cx="14.00002" cy="14" r="14.00001" fill="#e434a3"/>
  </g>
  <g id="ICONS">
    <path id="S2_Icon_UserAvatarJourney_20_N" d="M5,5v18h18V5H5Z" fill="none" opacity=".1"/>
    <g>
      <path d="M12.425,5.45088c-3.84609,0-6.975,3.12891-6.975,6.975,0,3.50771,2.6209,6.48281,6.09609,6.92051.029.00352.05713.00527.08525.00527.33486,0,.62578-.24961.66885-.59063.04658-.37002-.21533-.70752-.58535-.7541-.90703-.11437-1.72881-.46055-2.44314-.94878.84023-.50098,1.96436-.80266,3.11375-.80815.37266-.00176.67324-.30586.67148-.67852-.00176-.37178-.3041-.67148-.675-.67148h-.00352c-1.57357.00758-3.08474.46538-4.17415,1.24124-.87682-.99712-1.40427-2.30273-1.40427-3.71536,0-3.10166,2.52334-5.625,5.625-5.625,2.8793,0,5.28311,2.15508,5.5916,5.01152.04043.3709.38232.64248.74355.59941.3709-.04043.63896-.37354.59941-.74355-.3832-3.54463-3.36445-6.21738-6.93457-6.21738Z" fill="#fff"/>
      <path d="M12.425,7.925c-1.55039,0-2.8125,1.3623-2.8125,3.0375s1.26211,3.0375,2.8125,3.0375,2.8125-1.3623,2.8125-3.0375-1.26211-3.0375-2.8125-3.0375ZM12.425,12.65c-.80684,0-1.4625-.75674-1.4625-1.6875s.65566-1.6875,1.4625-1.6875,1.4625.75674,1.4625,1.6875-.65566,1.6875-1.4625,1.6875Z" fill="#fff"/>
    </g>
    <g>
      <path d="M18.5,16.475v-1.21465c0-.07471.06064-.13535.13535-.13535h1.40186c.23379.40188.66434.675,1.16279.675.74553,0,1.35-.60447,1.35-1.35s-.60447-1.35-1.35-1.35c-.49845,0-.929.27312-1.16279.675h-1.40186c-.81914,0-1.48535.66621-1.48535,1.48535v1.21465c0,.37178-.30322.675-.675.675h-.41221c-.23379-.40188-.66434-.675-1.16279-.675-.74553,0-1.35.60447-1.35,1.35s.60447,1.35,1.35,1.35c.49845,0,.929-.27312,1.16279-.675h.41221c1.11621,0,2.025-.90879,2.025-2.025Z" fill="#fff"/>
      <path d="M21.2,19.85c-.49845,0-.929.27312-1.16279.675h-1.40186c-.07471,0-.13535-.06064-.13535-.13535v-.53965c0-.37266-.30234-.675-.675-.675s-.675.30234-.675.675v.53965c0,.81914.66621,1.48535,1.48535,1.48535h1.40186c.23379.40188.66434.675,1.16279.675.74553,0,1.35-.60447,1.35-1.35s-.60447-1.35-1.35-1.35Z" fill="#fff"/>
    </g>
  </g>
</svg>