<?xml version="1.0" encoding="UTF-8"?>
<svg id="f" data-name="ICONS" xmlns="http://www.w3.org/2000/svg" width="20" height="20" viewBox="0 0 20 20">
  <path d="M16,13.75c-1.11597,0-2.05176.73914-2.37244,1.75h-2.37756c-.41309,0-.75-.33691-.75-.75v-1.99805c0-.41406-.33594-.75-.75-.75s-.75.33594-.75.75v1.99805c0,1.24023,1.00977,2.25,2.25,2.25h2.37756c.32068,1.01086,1.25647,1.75,2.37244,1.75,1.37891,0,2.5-1.12109,2.5-2.5s-1.12109-2.5-2.5-2.5ZM16,17.25c-.55176,0-1-.44824-1-1s.44824-1,1-1,1,.44824,1,1-.44824,1-1,1Z" fill="var(--iconPrimary, #222)"/>
  <path d="M10.49805,8.50098l.00195-3.25098c0-.41309.33691-.75.75098-.75h2.37659c.32068,1.01086,1.25647,1.75,2.37244,1.75,1.37891,0,2.5-1.12109,2.5-2.5s-1.12109-2.5-2.5-2.5c-1.11597,0-2.05176.73914-2.37244,1.75h-2.37659c-1.24121,0-2.25098,1.00977-2.25098,2.25l-.00195,3.25098c0,.41309-.33691.74902-.75.74902h-1.87561c-.32068-1.01086-1.25647-1.75-2.37244-1.75-1.37891,0-2.5,1.12109-2.5,2.5s1.12109,2.5,2.5,2.5c1.11597,0,2.05176-.73914,2.37244-1.75h1.87561c1.24023,0,2.25-1.00879,2.25-2.24902ZM16,2.75c.55176,0,1,.44824,1,1s-.44824,1-1,1-1-.44824-1-1,.44824-1,1-1ZM4,11c-.55176,0-1-.44824-1-1s.44824-1,1-1,1,.44824,1,1-.44824,1-1,1Z" fill="var(--iconPrimary, #222)"/>
</svg>