<?xml version="1.0" encoding="UTF-8"?>
<svg xmlns="http://www.w3.org/2000/svg" width="20" height="20" viewBox="0 0 20 20">
  <path d="M10,18c-.19238,0-.38379-.07324-.53027-.21973l-1.76758-1.76758c-.29297-.29297-.29297-.76758,0-1.06055s.76758-.29297,1.06055,0l1.2373,1.2373,1.2373-1.2373c.29297-.29297.76758-.29297,1.06055,0s.29297.76758,0,1.06055l-1.76758,1.76758c-.14648.14648-.33789.21973-.53027.21973Z" fill="var(--iconPrimary, #222)"/>
  <path d="M16.75,13H3.25c-1.24023,0-2.25-1.00977-2.25-2.25v-6.5c0-1.24023,1.00977-2.25,2.25-2.25h13.5c1.24023,0,2.25,1.00977,2.25,2.25v6.5c0,1.24023-1.00977,2.25-2.25,2.25ZM3.25,3.5c-.41309,0-.75.33691-.75.75v6.5c0,.41309.33691.75.75.75h13.5c.41309,0,.75-.33691.75-.75v-6.5c0-.41309-.33691-.75-.75-.75H3.25Z" fill="var(--iconPrimary, #222)"/>
  <path d="M12.25,10h-4.5c-.41406,0-.75-.33594-.75-.75s.33594-.75.75-.75h4.5c.41406,0,.75.33594.75.75s-.33594.75-.75.75Z" fill="var(--iconPrimary, #222)"/>
  <circle cx="5" cy="6" r="1" fill="var(--iconPrimary, #222)"/>
  <circle cx="8.33333" cy="6" r="1" fill="var(--iconPrimary, #222)"/>
  <circle cx="11.66667" cy="6" r="1" fill="var(--iconPrimary, #222)"/>
  <circle cx="15" cy="6" r="1" fill="var(--iconPrimary, #222)"/>
  <circle cx="5" cy="9" r="1" fill="var(--iconPrimary, #222)"/>
  <circle cx="15" cy="9" r="1" fill="var(--iconPrimary, #222)"/>
</svg>