<?xml version="1.0" encoding="UTF-8"?>
<svg xmlns="http://www.w3.org/2000/svg" width="20" height="20" viewBox="0 0 20 20">
  <path d="M13,16.34863c-.34717,0-.69482-.08594-.99805-.25781l-4.60449-2.60059c-.51904-.29395-.84277-.78125-.88818-1.33789-.04395-.54199.19434-1.07812.63721-1.43457.32422-.25977.7959-.20703,1.0542.11523.25977.32324.20801.79492-.11475,1.05469-.05615.04492-.08545.0957-.08154.14258.00439.05371.05176.10938.13086.15332l4.60498,2.60156c.15332.08789.36621.08691.51855.00098l4.60645-2.60254c.07861-.04395.12598-.09961.13037-.15332.00391-.04688-.02539-.09766-.08154-.14258-.32275-.25977-.37451-.73145-.11475-1.05469.25928-.32227.73145-.37402,1.0542-.11523.44287.35645.68115.89258.63721,1.43457-.04541.55664-.36914,1.04395-.8877,1.33789l-4.60596,2.60156c-.30273.1709-.6499.25684-.99707.25684Z" fill="var(--iconPrimary, #222)"/>
  <path d="M6.61182,6.32422l-1.96533-1.94141c-.24609-.24414-.64062-.24023-.88428.00488-.24219.24609-.23975.6416.00537.88379l.78113.77197c-.0141-.00098-.02606-.0083-.04041-.0083l-.63281.00098c-1.1123-.06055-2.19482.41016-2.90723,1.25781-.60693.72363-.896,1.64062-.81396,2.58105s.52588,1.79297,1.24951,2.40039c.14014.11816.31152.17578.48145.17578.21387,0,.42676-.09082.5752-.26758.26611-.31738.22461-.79102-.09277-1.05664-.85938-.72168-.97217-2.00879-.25049-2.86816.41699-.49609,1.02979-.74805,1.7168-.72363h.67432c.01282,0,.02344-.00659.03607-.00732l-.74799.75732c-.24268.24609-.23975.6416.00586.88379.12158.12109.28027.18066.43896.18066.16113,0,.32227-.0625.44482-.18555l1.93115-1.95605c.24219-.24609.23975-.6416-.00537-.88379Z" fill="var(--iconPrimary, #222)" stroke-width="0"/>
  <path d="M12.99951,11.73633c-.34766,0-.69531-.08691-.99854-.25879l-3.83838-2.18945c-.35986-.20508-.48535-.66309-.27979-1.02246.20508-.36133.66309-.4873,1.02295-.28027l3.8374,2.18848c.15088.08691.36279.08594.51465-.00098l4.60449-2.625c.0874-.0498.1377-.11523.1377-.17871s-.05029-.12891-.1377-.17871l-4.60547-2.62598c-.15186-.08691-.36328-.08594-.51318,0l-3.12256,1.78027c-.3584.20801-.81738.08105-1.02295-.28027-.20557-.35938-.08008-.81738.27979-1.02246l3.12207-1.78027c.60742-.34766,1.39209-.34766,2.00049,0l4.60498,2.62598c.56006.31934.89453.87305.89453,1.48145s-.33447,1.16211-.89453,1.48145l-4.60547,2.62598c-.3042.17285-.65234.25977-1.00049.25977Z" fill="var(--iconPrimary, #222)"/>
</svg>