<?xml version="1.0" encoding="UTF-8"?>
<svg xmlns="http://www.w3.org/2000/svg" width="20" height="20" viewBox="0 0 20 20">
  <path d="M9.62305,14.89062c-.41016,0-.81982-.11719-1.17773-.35352l-5.60596-3.68164c-.60596-.39844-.96729-1.06836-.9668-1.79297.00049-.72363.36182-1.39258.9668-1.79004l2.52539-1.65918c.34424-.22656.81104-.13086,1.03857.21484.22754.34668.13086.81152-.21533,1.03906l-2.52539,1.65918c-.26172.17188-.29004.43262-.29004.53711s.02832.36621.29053.53809l5.60645,3.68262c.21436.1416.49121.14258.70557.00098l1.52441-1.00195c.34375-.22559.81104-.13086,1.03857.21484.22754.34668.13086.81152-.21533,1.03906l-1.52344,1.00098c-.35693.23535-.7666.35254-1.17627.35254Z" fill="var(--iconPrimary, #222)"/>
  <path d="M9.62207,18.67383c-.40918,0-.81885-.11719-1.17627-.35156l-6.13477-4.03613c-.34619-.22852-.44189-.69336-.21436-1.03906.22852-.3457.69336-.43945,1.03857-.21484l6.13428,4.03613c.21387.14062.4917.14062.70654,0l6.22314-4.09473c.3457-.22461.81152-.13086,1.03857.21484.22754.3457.13184.81055-.21436,1.03906l-6.22363,4.09473c-.35791.23438-.76758.35156-1.17773.35156Z" fill="var(--iconPrimary, #222)"/>
  <path d="M8.75,3.5c-.41406,0-.75-.33594-.75-.75,0-.96484.78516-1.75,1.75-1.75.41406,0,.75.33594.75.75s-.33594.75-.75.75c-.1377,0-.25.1123-.25.25,0,.41406-.33594.75-.75.75Z" fill="var(--iconPrimary, #222)"/>
  <path d="M13.5,2.5h-1c-.41406,0-.75-.33594-.75-.75s.33594-.75.75-.75h1c.41406,0,.75.33594.75.75s-.33594.75-.75.75Z" fill="var(--iconPrimary, #222)"/>
  <path d="M13.5,11h-1c-.41406,0-.75-.33594-.75-.75s.33594-.75.75-.75h1c.41406,0,.75.33594.75.75s-.33594.75-.75.75Z" fill="var(--iconPrimary, #222)"/>
  <path d="M16.25,11c-.41406,0-.75-.33594-.75-.75s.33594-.75.75-.75c.1377,0,.25-.1123.25-.25,0-.41406.33594-.75.75-.75s.75.33594.75.75c0,.96484-.78516,1.75-1.75,1.75Z" fill="var(--iconPrimary, #222)"/>
  <path d="M17.25,3.5c-.41406,0-.75-.33594-.75-.75,0-.1377-.1123-.25-.25-.25-.41406,0-.75-.33594-.75-.75s.33594-.75.75-.75c.96484,0,1.75.78516,1.75,1.75,0,.41406-.33594.75-.75.75Z" fill="var(--iconPrimary, #222)"/>
  <path d="M17.25,7.25c-.41406,0-.75-.33594-.75-.75v-1c0-.41406.33594-.75.75-.75s.75.33594.75.75v1c0,.41406-.33594.75-.75.75Z" fill="var(--iconPrimary, #222)"/>
  <path d="M8.75,7.25c-.41406,0-.75-.33594-.75-.75v-1c0-.41406.33594-.75.75-.75s.75.33594.75.75v1c0,.41406-.33594.75-.75.75Z" fill="var(--iconPrimary, #222)"/>
  <path d="M9.75,11c-.96484,0-1.75-.78516-1.75-1.75,0-.41406.33594-.75.75-.75s.75.33594.75.75c0,.1377.1123.25.25.25.41406,0,.75.33594.75.75s-.33594.75-.75.75Z" fill="var(--iconPrimary, #222)"/>
</svg>