<?xml version="1.0" encoding="UTF-8"?>
<svg xmlns="http://www.w3.org/2000/svg" width="20" height="20" viewBox="0 0 20 20">
  <path d="M9.62305,15.89062c-.41016,0-.81934-.11719-1.17773-.35254l-5.60645-3.68262c-.60547-.39844-.9668-1.06836-.9668-1.79297.00098-.72363.3623-1.39258.96777-1.79004l4.18945-2.75293c.34766-.22656.81152-.12988,1.03906.21484.22754.34668.13086.81152-.21484,1.03906l-4.19043,2.75293c-.26172.17188-.29004.43262-.29102.53711,0,.10449.02832.36621.29102.53809l5.60645,3.68262c.21484.14258.49219.1416.70508.00098l5.60742-3.68359c.18066-.11816.28613-.30957.29004-.52441.00781-.40918.3418-.73633.75-.73633h.01367c.41406.00781.74316.34961.73633.76367-.0127.70703-.37402,1.36133-.96582,1.75098l-5.60645,3.68262c-.35742.23535-.7666.35254-1.17676.35254Z" fill="var(--iconPrimary, #222)" stroke-width="0"/>
  <path d="M9.62305,19.67383c-.41016,0-.81934-.11719-1.17676-.35156l-6.13477-4.03613c-.3457-.22852-.44238-.69336-.21484-1.03906.22852-.3457.69336-.44043,1.03906-.21484l6.13379,4.03613c.21484.14062.49316.14062.70605,0l6.22363-4.09473c.3457-.22559.81055-.13086,1.03906.21484.22754.3457.13086.81055-.21484,1.03906l-6.22363,4.09473c-.35742.23438-.76758.35156-1.17676.35156Z" fill="var(--iconPrimary, #222)" stroke-width="0"/>
  <path d="M18.77246.85156c-.81836-.81836-2.24707-.81836-3.06348,0l-.73047.73047c-.69824-.47168-1.71582-.37988-2.32129.22754l-.33594.33594c-.62964.62964-.70398,1.60742-.22412,2.32178l-3.59912,3.59814c-.39941.39941-.60938.93652-.59082,1.5127.01758.55762.24902,1.08691.65234,1.49023.40234.40332.93164.63477,1.49023.65137.02246.00098.04492.00098.06836.00098.5498,0,1.05957-.20801,1.43359-.58301.02832-.02734,2.29517-2.29419,3.6084-3.60742.30713.20532.66284.30859,1.01855.30859.4707,0,.94043-.17871,1.29883-.53711l.33594-.33594c.62988-.62988.70605-1.60742.22754-2.32031l.73047-.73145c.84473-.84473.84473-2.21777.00098-3.0625ZM10.49902,10.06836c-.10254.10254-.27539.14844-.40234.15234-.17578-.00488-.34473-.08105-.47656-.21289-.13281-.13281-.20801-.30176-.21387-.47754-.00488-.15723.04883-.2998.15234-.40332l3.57373-3.57373.94189.94189c-1.2998,1.29956-3.49988,3.49878-3.5752,3.57324ZM17.71094,2.85352l-1.23633,1.23633c-.29297.29199-.29297.7666-.00098,1.05957l.27832.2793.00098.00098c.13086.13086.13086.34473,0,.47559l-.33594.33594c-.12988.13086-.34375.13281-.47559,0l-2.55859-2.55859c-.13184-.13184-.13184-.3457-.00098-.47656l.33691-.33691c.08496-.08496.18457-.09766.2373-.09766.05176,0,.15137.0127.2373.09863l.27832.27832c.29199.29199.7666.29395,1.06055,0l1.23828-1.23633c.25-.25195.68848-.25195.94043,0,.25977.25977.25977.68164,0,.94141Z" fill="var(--iconPrimary, #222)" stroke-width="0"/>
</svg>