<?xml version="1.0" encoding="UTF-8"?>
<svg xmlns="http://www.w3.org/2000/svg" width="20" height="20" viewBox="0 0 20 20">
  <path d="M8.58398,13.86523c-.14062,0-.28418-.04004-.41113-.12305l-5.44434-3.57715c-.63477-.41699-1.01465-1.11914-1.01465-1.87891,0-.76074.37891-1.46387,1.01465-1.88184l6.03613-3.96582c.75-.49219,1.71973-.49219,2.46973,0l6.03711,3.96582c.87305.57324,1.23633,1.66211.87988,2.64844-.13965.38965-.56934.58887-.95996.4502-.38965-.13965-.59082-.57031-.4502-.95996.09668-.26953.04688-.66211-.29297-.88477l-6.03711-3.96582c-.25-.16406-.57324-.16406-.82324,0l-6.03516,3.96582c-.21582.1416-.33887.37012-.33887.62695s.12305.48535.33789.62598l5.44531,3.57715c.3457.22754.44238.69238.21484,1.03906-.14453.21875-.38379.33789-.62793.33789Z" fill="var(--iconPrimary, #222)"/>
  <path d="M15,10.5c-2.48529,0-4.5,2.01471-4.5,4.5s2.01471,4.5,4.5,4.5,4.5-2.01471,4.5-4.5-2.01471-4.5-4.5-4.5ZM17.5,15.625h-1.875v1.875c0,.34473-.28027.625-.625.625s-.625-.28027-.625-.625v-1.875h-1.875c-.34473,0-.625-.28027-.625-.625s.28027-.625.625-.625h1.875v-1.875c0-.34473.28027-.625.625-.625s.625.28027.625.625v1.875h1.875c.34473,0,.625.28027.625.625s-.28027.625-.625.625Z" fill="var(--iconPrimary, #222)"/>
</svg>