<?xml version="1.0" encoding="UTF-8"?>
<svg xmlns="http://www.w3.org/2000/svg" width="20" height="20" viewBox="0 0 20 20">
  <path d="m14.51758,18.7168c-2.66504,0-5.26758-2.38867-5.26758-3.77441,0-1.15039,1.59375-2.73438,3.02637-3.43848.68457-.34375,1.4502-.53125,2.21484-.54004,2.8291,0,5.25879,2.66895,5.25879,3.97852,0,1.38574-2.58594,3.77441-5.23242,3.77441Zm-.01758-6.25293c-.5293.00586-1.06934.13867-1.55176.38184-.00293.00098-.00488.00195-.00781.00391-1.25488.61523-2.14941,1.7793-2.19141,2.10547.09277.50195,1.83496,2.26172,3.76855,2.26172,1.91992,0,3.64258-1.75879,3.7334-2.29688-.08105-.45312-1.70215-2.45605-3.75098-2.45605Zm-1.88965-.28809h.00977-.00977Z" fill="var(--iconPrimary, #222)"/>
  <path d="m14.43128,14.3544c.09764.2541.31041.44941.57222.52485.09767.02814.32507.07156.57125-.03069.3032-.12594.60919.13381.51337.44783-.09774.32033-.29755.61706-.60424.84139-.52399.38327-1.25696.41124-1.8077.06751-.90174-.56279-1.03211-1.76606-.34774-2.50647.16964-.18353.37133-.31817.58846-.40424.28782-.11409.60689.17131.50468.46356-.06525.18656-.06712.39632.00971.59627Z" fill="var(--iconPrimary, #222)"/>
  <path d="m7.75977,18H3.25c-1.24023,0-2.25-1.00977-2.25-2.25v-6.5c0-1.24023,1.00977-2.25,2.25-2.25h6.5c1.24023,0,2.25,1.00977,2.25,2.25v.23926c0,.41406-.33594.75-.75.75s-.75-.33594-.75-.75v-.23926c0-.41309-.33691-.75-.75-.75H3.25c-.41309,0-.75.33691-.75.75v6.5c0,.41309.33691.75.75.75h4.50977c.41406,0,.75.33594.75.75s-.33594.75-.75.75Z" fill="var(--iconPrimary, #222)"/>
  <path d="m14.25,9.4707c-.41406,0-.75-.33594-.75-.75v-2.4707c0-.41309-.33691-.75-.75-.75h-6.5c-.15039,0-.2959.04395-.41992.12793-.34473.23438-.81055.13965-1.04102-.20312-.23145-.34375-.14062-.80957.20312-1.04102.37305-.25098.80762-.38379,1.25781-.38379h6.5c1.24023,0,2.25,1.00977,2.25,2.25v2.4707c0,.41406-.33594.75-.75.75Z" fill="var(--iconPrimary, #222)"/>
  <path d="m17.25,10.04492c-.41406,0-.75-.33594-.75-.75V3.25c0-.41309-.33691-.75-.75-.75h-6.5c-.15234,0-.29688.04492-.41992.12891-.3418.23535-.80762.14844-1.04297-.19336-.23438-.3418-.14746-.80859.19336-1.04297.37402-.25684.8125-.39258,1.26953-.39258h6.5c1.24023,0,2.25,1.00977,2.25,2.25v6.04492c0,.41406-.33594.75-.75.75Z" fill="var(--iconPrimary, #222)"/>
</svg>