<?xml version="1.0" encoding="UTF-8"?>
<svg xmlns="http://www.w3.org/2000/svg" width="20" height="20" viewBox="0 0 20 20">
  <path d="M8.99951,9.73633c-.34766,0-.69531-.08691-.99854-.25879l-.00098-.00098-4.60547-2.62598c-.56006-.31934-.89453-.87305-.89453-1.48145s.33447-1.16211.89453-1.48145l4.60547-2.62598c.60742-.34766,1.39209-.34766,2.00049,0l4.60498,2.62598c.56006.31934.89453.87305.89453,1.48145s-.33447,1.16211-.89453,1.48145l-4.60547,2.62598c-.3042.17285-.65234.25977-1.00049.25977ZM8.74316,8.17383c.15137.08594.3623.08691.51465-.00098l4.60449-2.625c.0874-.0498.1377-.11523.1377-.17871s-.05029-.12891-.1377-.17871l-4.60547-2.62598c-.15234-.08691-.36377-.08594-.51318,0l-4.60596,2.62598c-.0874.0498-.1377.11523-.1377.17871s.05029.12891.1377.17871l4.60547,2.62598Z" fill="var(--iconPrimary, #222)"/>
  <path d="M15,10.5c-2.48529,0-4.5,2.01465-4.5,4.5s2.01471,4.5,4.5,4.5,4.5-2.01465,4.5-4.5-2.01471-4.5-4.5-4.5ZM17.50049,13.92383l-2.30908,3.14941c-.13379.18262-.3418.29395-.56738.30566-.0127.00098-.02539.00098-.0376.00098-.21191,0-.41504-.08984-.55762-.24805l-1.43848-1.59863c-.27686-.30859-.25195-.78223.05615-1.05957.30713-.27539.78125-.25195,1.05908.05566l.82129.91309,1.76367-2.40527c.24512-.33398.71484-.40723,1.04834-.16113.33398.24414.40625.71387.16162,1.04785Z" fill="var(--iconPrimary, #222)"/>
  <path d="M8.42236,14.22266c-.12549,0-.25244-.03125-.36914-.09766l-4.65674-2.63574c-.51807-.29297-.8418-.78027-.88721-1.33691-.04395-.54199.19434-1.07812.63721-1.43457.32471-.25977.7959-.20703,1.0542.11523.25977.32324.20801.79492-.11475,1.05469-.05615.04492-.08545.0957-.08154.14258.00439.05371.05176.10938.13086.15332l4.65723,2.63672c.36035.2041.4873.66113.2832,1.02148-.13818.24414-.39209.38086-.65332.38086Z" fill="var(--iconPrimary, #222)"/>
  <path d="M8.99854,19c-.35254,0-.69434-.08789-.99561-.25781l-4.60547-2.60156c-.51904-.29297-.84229-.78027-.88818-1.33691-.04443-.54199.19385-1.0791.63672-1.43555.32275-.25977.79492-.20898,1.0542.11328.25977.32324.20898.79492-.11377,1.05469-.05664.0459-.08594.09766-.08203.14453.00439.05371.05225.10938.13086.15332l4.60498,2.60156c.08301.04688.18213.07129.29346.06348.41406-.02441.76758.29297.79102.70703.02295.41309-.29346.76758-.70703.79102-.03955.00195-.07959.00293-.11914.00293Z" fill="var(--iconPrimary, #222)"/>
</svg>