<?xml version="1.0" encoding="UTF-8"?>
<svg xmlns="http://www.w3.org/2000/svg" width="20" height="20" viewBox="0 0 20 20">
  <g>
    <path d="m12.71582,11.84961c-.24707,0-.48828-.12109-.63184-.34375-.22363-.34863-.12305-.8125.22461-1.03711l.25195-.16211c.34961-.22461.8125-.12305,1.03711.22461.22363.34863.12305.8125-.22461,1.03711l-.25195.16211c-.12598.08105-.2666.11914-.40527.11914Z" fill="var(--iconPrimary, #222)"/>
    <path d="m15.10547,10.32324c-.24805,0-.49023-.12207-.63281-.34668-.22363-.34863-.12109-.8125.22852-1.03516l.5127-.32715c.35059-.22363.8125-.12012,1.03516.22852.22363.34863.12109.8125-.22852,1.03516l-.5127.32715c-.125.08008-.26465.11816-.40234.11816Zm-10.30078-.05176c-.13867,0-.27832-.03809-.4043-.11914l-.5127-.3291c-.34863-.22363-.44922-.6875-.22559-1.03613.22266-.34766.68555-.45117,1.03613-.22559l.5127.3291c.34863.22363.44922.6875.22559,1.03613-.14258.22266-.38477.34473-.63184.34473Zm12.65625-1.91699c-.06055,0-.12207-.00684-.18262-.02246-.40234-.10059-.64648-.50781-.5459-.90918.0127-.05176.01855-.10352.01855-.15527,0-.04883-.00391-.09082-.01172-.13281-.07324-.40723.19629-.79785.60449-.87207.40234-.06836.79688.19727.87207.60449.02344.12988.03516.26172.03516.39355.00195.17285-.01953.35156-.06348.52539-.08496.34082-.39062.56836-.72656.56836Zm-14.94238-.10156c-.3584,0-.67578-.25781-.73828-.62402-.02051-.12109-.03125-.24512-.03125-.36816,0-.18652.02441-.37305.07227-.55273.10547-.40039.51465-.64258.91602-.5332.40039.10547.63965.51562.5332.91602-.01367.05566-.02148.1123-.02148.16992,0,.03906.00293.07715.00977.11621.06934.4082-.20508.7959-.61328.86523-.04199.00781-.08496.01074-.12695.01074Zm13.17188-2.18164c-.1377,0-.27734-.03809-.40234-.11816l-.5127-.32715c-.34961-.22266-.45215-.68652-.22852-1.03516.22168-.34863.68555-.45312,1.03516-.22852l.5127.32715c.34961.22266.45215.68652.22852,1.03516-.14258.22461-.38477.34668-.63281.34668Zm-11.29297-.05566c-.24707,0-.48926-.12207-.63281-.3457-.22363-.34863-.12109-.8125.22754-1.03613l.5127-.32812c.34863-.22363.8125-.12012,1.03613.22754.22363.34863.12109.8125-.22754,1.03613l-.5127.32812c-.125.08008-.26562.11816-.40332.11816Zm8.64258-1.63672c-.1377,0-.27734-.03809-.40234-.11816l-.5127-.32715c-.34961-.22266-.45215-.68652-.22852-1.03516.22168-.34961.68457-.45312,1.03516-.22852l.5127.32715c.34961.22266.45215.68652.22852,1.03516-.14258.22461-.38477.34668-.63281.34668Zm-5.99219-.05566c-.24707,0-.48926-.12207-.63281-.3457-.22363-.34863-.12109-.8125.22754-1.03613l.5127-.32812c.34961-.22461.8125-.12012,1.03613.22754.22363.34863.12109.8125-.22754,1.03613l-.5127.32812c-.125.08008-.26562.11816-.40332.11816Zm3.30664-1.56055c-.05762,0-.11523-.00586-.17285-.01953-.05859-.01465-.1123-.03223-.1748-.02051-.0498,0-.09375.00391-.1377.01074-.39941.0752-.79395-.21094-.86035-.62012-.06641-.4082.21094-.79395.62012-.86035.12988-.02148.28613-.0166.38867-.03027.16602,0,.33789.02051.50781.05957.40332.0957.65332.49902.55859.90234-.08203.3457-.38965.57812-.72949.57812Z" fill="var(--iconPrimary, #222)"/>
    <path d="m7.21094,11.81543c-.13867,0-.27832-.03809-.40332-.11816l-.25293-.16211c-.34961-.22363-.4502-.6875-.22754-1.03613.22461-.34863.68848-.4502,1.03613-.22754l.25293.16211c.34961.22363.4502.6875.22754,1.03613-.14355.22363-.38574.3457-.63281.3457Z" fill="var(--iconPrimary, #222)"/>
  </g>
  <path d="m10,19c-.43066,0-.86035-.12305-1.23535-.36914l-6.03613-3.96582c-.50195-.3291-.84375-.83203-.96289-1.41699-.12012-.58496.00098-1.20508.33105-1.70117.22949-.34375.69336-.43848,1.04004-.20801.34473.22949.4375.69434.20801,1.04004-.11035.16504-.15039.37305-.11035.56934.02832.13379.10547.32324.31738.46289l6.03613,3.96582c.25.16406.57324.16406.8252,0l6.03418-3.96582c.37891-.24805.40918-.70996.2207-1.0127-.21875-.35156-.11133-.81445.24023-1.0332.35254-.2207.81445-.11133,1.0332.24023.64941,1.04297.35449,2.38672-.6709,3.05957l-6.03418,3.96582c-.37598.24609-.80664.36914-1.23633.36914Z" fill="var(--iconPrimary, #222)"/>
  <path d="m12.49414,7.02051l-2-1.75c-.2832-.24805-.70508-.24805-.98828,0l-2,1.75c-.31152.27246-.34277.74707-.07031,1.05859.27344.31152.74707.34082,1.05859.07031l.75879-.66431c0,.00513-.00293.00952-.00293.01489v7.25c0,.41406.33594.75.75.75s.75-.33594.75-.75v-7.25c0-.00537-.00293-.00977-.00293-.01489l.75879.66431c.14258.12402.31836.18555.49414.18555.20801,0,.41602-.08691.56445-.25586.27246-.31152.24121-.78613-.07031-1.05859Z" fill="var(--iconPrimary, #222)"/>
</svg>