<?xml version="1.0" encoding="UTF-8"?>
<svg xmlns="http://www.w3.org/2000/svg" width="20" height="20" viewBox="0 0 20 20">
  <path d="m12.56445,10.50586c-.27441-.31152-.74707-.3418-1.05859-.07031l-.75586.66162V2.75c0-.41406-.33594-.75-.75-.75s-.75.33594-.75.75v8.34717l-.75586-.66162c-.31152-.27148-.78516-.24121-1.05859.07031-.27246.31152-.24121.78613.07031,1.05859l2,1.75c.1416.12402.31836.18555.49414.18555s.35254-.06152.49414-.18555l2-1.75c.31152-.27246.34277-.74707.07031-1.05859Z" fill="var(--iconPrimary, #222)"/>
  <path d="m10,17.93066c-.42969,0-.85938-.12305-1.23438-.36914l-6.03711-3.96582c-.63574-.41797-1.01465-1.12109-1.01465-1.88184,0-.75977.37988-1.46191,1.01562-1.87891l3.30664-2.17285c.34766-.22656.81152-.12988,1.03906.21484.22754.34668.13086.81152-.21484,1.03906l-3.30762,2.17285c-.21582.14062-.33887.36914-.33887.62598s.12305.48535.33887.62695l6.03613,3.96582c.25.16406.57324.16406.82324,0l6.03516-3.96582c.21582-.1416.33887-.37012.33887-.62695s-.12305-.48535-.33789-.62598l-3.28418-2.15723c-.3457-.22754-.44238-.69238-.21484-1.03906.22754-.3457.69043-.44238,1.03906-.21484l3.2832,2.15723c.63477.41699,1.01465,1.11914,1.01465,1.87891,0,.76074-.37891,1.46387-1.01465,1.88184l-6.03613,3.96582c-.375.24609-.80566.36914-1.23535.36914Z" fill="var(--iconPrimary, #222)"/>
</svg>