<?xml version="1.0" encoding="UTF-8"?>
<svg xmlns="http://www.w3.org/2000/svg" width="20" height="20" viewBox="0 0 20 20">
  <path d="m18,18.5h-7c-.41406,0-.75-.33594-.75-.75s.33594-.75.75-.75h7c.41406,0,.75.33594.75.75s-.33594.75-.75.75Z" fill="var(--iconPrimary, #222)"/>
  <path d="m18,15.5h-7c-.41406,0-.75-.33594-.75-.75s.33594-.75.75-.75h7c.41406,0,.75.33594.75.75s-.33594.75-.75.75Z" fill="var(--iconPrimary, #222)"/>
  <path d="m18,12.5h-7c-.41406,0-.75-.33594-.75-.75s.33594-.75.75-.75h7c.41406,0,.75.33594.75.75s-.33594.75-.75.75Z" fill="var(--iconPrimary, #222)"/>
  <path d="m7.99463,12.47754c-.1416,0-.28418-.04004-.41113-.12305l-4.85449-3.18945c-.63525-.41699-1.01465-1.11914-1.01465-1.87891-.00049-.76074.37891-1.46387,1.01416-1.88184l6.03613-3.96582c.75-.49219,1.71973-.49219,2.4707,0l6.03564,3.96582c.63574.41797,1.01514,1.12109,1.01465,1.88184,0,.75977-.37939,1.46191-1.01465,1.87891l-.31445.20703c-.34521.22656-.81055.13184-1.03906-.21484-.22705-.34668-.13135-.81152.21484-1.03906l.31494-.20703c.21533-.14062.33838-.36914.33838-.62598s-.12305-.48535-.33838-.62695l-6.03516-3.96582c-.25-.16406-.57422-.16406-.82422,0l-6.03564,3.96582c-.21484.1416-.33789.37012-.33789.62695s.12305.48535.33789.62598l4.85449,3.18945c.34619.22754.44287.69238.21533,1.03906-.14404.21875-.38379.33789-.62744.33789Z" fill="var(--iconPrimary, #222)"/>
  <path d="m8.03516,18.00391c-.1416,0-.28418-.04004-.41113-.12305l-4.89502-3.21582c-.57715-.37891-.94238-.99023-1.00098-1.6748-.05957-.69434.19678-1.36426.70312-1.83887.30176-.28223.77734-.2666,1.06006.03516.2832.30273.26758.77734-.03467,1.06055-.16895.15723-.25391.38184-.23389.61426.01123.13184.06885.37891.32959.5498l4.89502,3.21582c.34619.22754.44287.69238.21533,1.03906-.14404.21875-.3833.33789-.62744.33789Z" fill="var(--iconPrimary, #222)"/>
</svg>