<?xml version="1.0" encoding="UTF-8"?>
<svg xmlns="http://www.w3.org/2000/svg" width="20" height="20" viewBox="0 0 20 20">
  <path d="m10,19c-.43066,0-.86035-.12305-1.23535-.36914l-6.03613-3.96582c-.57715-.37891-.94238-.98926-1.00098-1.6748-.05957-.69434.19629-1.36426.70312-1.83887.30273-.28223.77539-.2666,1.06055.03516.2832.30273.26758.77734-.03516,1.06055-.16895.15723-.25391.38184-.23438.61426.01172.13184.06934.37891.33008.5498l6.03613,3.96582c.25.16406.57324.16406.8252,0l6.03418-3.96582c.26172-.1709.31934-.41797.33105-.5498.01953-.23242-.06543-.45703-.23438-.61426-.30273-.2832-.31836-.75781-.03516-1.06055.28418-.30176.75879-.31738,1.06055-.03516.50684.47461.7627,1.14453.70312,1.83887-.05859.68555-.42383,1.2959-1.00195,1.6748l-6.03418,3.96582c-.37598.24609-.80664.36914-1.23633.36914Z" fill="var(--iconPrimary, #222)"/>
  <path d="m12.56445,12.50586c-.27344-.31152-.74707-.3418-1.05859-.07031l-.75586.66162v-3.15674c0-.41406-.33594-.75-.75-.75s-.75.33594-.75.75v3.15674l-.75586-.66162c-.31152-.27148-.78418-.24121-1.05859.07031-.27246.31152-.24121.78613.07031,1.05859l2,1.75c.1416.12402.31836.18555.49414.18555s.35254-.06152.49414-.18555l2-1.75c.31152-.27246.34277-.74707.07031-1.05859Z" fill="var(--iconPrimary, #222)"/>
  <path d="m6.42285,11.44531c-.14062,0-.28418-.04004-.41113-.12305l-3.2832-2.15723c-.63477-.41699-1.01465-1.11914-1.01465-1.87891,0-.76074.37891-1.46387,1.01465-1.88184l6.03613-3.96582c.34766-.22754.81055-.12988,1.03906.21484.22754.34668.13086.81152-.21484,1.03906l-6.03613,3.96582c-.21582.1416-.33887.37012-.33887.62695s.12305.48535.33789.62598l3.28418,2.15723c.3457.22754.44238.69238.21484,1.03906-.14453.21875-.38379.33789-.62793.33789Z" fill="var(--iconPrimary, #222)"/>
  <path d="m14.51758,9.43652c-2.66504,0-5.26758-2.3877-5.26758-3.77344,0-1.15234,1.59473-2.73535,3.02734-3.43848.68262-.34375,1.44824-.53027,2.21289-.54102,2.83008,0,5.25977,2.66895,5.25977,3.97949,0,1.38574-2.58594,3.77344-5.23242,3.77344Zm-.01758-6.25293c-.5293.00684-1.06934.13965-1.55176.38281-.00293.00098-.00586.00195-.00781.00391-1.25586.61426-2.14941,1.77832-2.19141,2.10547.09277.50195,1.83496,2.26074,3.76855,2.26074,1.91992,0,3.64258-1.75781,3.7334-2.2959-.08105-.45312-1.70215-2.45703-3.75098-2.45703Zm-1.88965-.28711h.00977-.00977Z" fill="var(--iconPrimary, #222)"/>
  <path d="m14.43128,5.07481c.09764.2541.31041.44941.57222.52485.09767.02814.32507.07156.57125-.03069.3032-.12594.60919.13381.51337.44783-.09774.32033-.29755.61706-.60424.84139-.52399.38327-1.25696.41124-1.8077.06751-.90174-.56279-1.03211-1.76606-.34774-2.50647.16964-.18353.37133-.31817.58846-.40424.28782-.11409.60689.17131.50468.46356-.06525.18656-.06712.39632.00971.59627Z" fill="var(--iconPrimary, #222)"/>
</svg>