<?xml version="1.0" encoding="UTF-8"?>
<svg xmlns="http://www.w3.org/2000/svg" width="20" height="20" viewBox="0 0 20 20">
  <path d="m10.43945,14.03906c-.36133,0-.71533-.15234-.979-.44727-.4458-.49805-.46045-1.20605-.03662-1.72266l1.98193-2.41211-2.354-1.08887c-.43359-.2002-.72705-.62109-.76416-1.09863s.1875-.93848.58643-1.2041L15.33838,1.75781c.55664-.37207,1.26025-.28516,1.71143.20898.45117.49316.47266,1.20215.05225,1.72266l-2.10986,2.61328,2.34912,1.08691c.43652.20117.72949.62402.76465,1.10449.03467.48047-.19482.94336-.59912,1.20605l-6.33887,4.11816c-.22852.14844-.47998.2207-.72852.2207Zm-.47168-6.89941l2.2749,1.05176c.37402.17285.64209.50293.73438.90527.09229.40332-.00488.81738-.26709,1.13672l-1.40186,1.70508,5.11328-3.32129-2.26416-1.04785c-.37158-.1709-.63916-.49902-.73291-.89844-.09375-.40039.00049-.81348.2583-1.13379l1.52686-1.89062-5.2417,3.49316Zm6.74414,1.61133c.00049,0,.00049.00098.00098.00098l-.00098-.00098Z" fill="var(--iconPrimary, #222)"/>
  <path d="m10.00146,18.4707c-.44873,0-.89746-.12891-1.28857-.38574l-6.42676-4.22266c-.66309-.43555-1.05859-1.16895-1.05859-1.96191,0-.79199.39551-1.52539,1.05859-1.96094l3.31592-2.17871c.34473-.22559.81152-.12988,1.03857.21484.22754.34668.13086.81152-.21533,1.03906l-3.31592,2.17871c-.24268.15918-.38184.41699-.38184.70703,0,.29102.13916.54883.38184.70801l6.42676,4.22266c.2832.18555.64746.18555.93066,0l6.42676-4.22266c.229-.15039.32031-.35352.35645-.49805.10107-.40039.51074-.64746.90967-.54492.40186.10059.646.50781.54541.91016-.14307.57031-.49414,1.0625-.98877,1.38672l-6.42627,4.22266c-.39111.25684-.83984.38574-1.28857.38574Z" fill="var(--iconPrimary, #222)"/>
</svg>