<?xml version="1.0" encoding="UTF-8"?>
<svg xmlns="http://www.w3.org/2000/svg" width="20" height="20" viewBox="0 0 20 20">
  <path d="m10,19c-.43066,0-.86035-.12305-1.23535-.36914l-6.03613-3.96582c-.57715-.37891-.94238-.98926-1.00098-1.6748-.05957-.69434.19629-1.36426.70312-1.83887.30176-.28223.77637-.2666,1.06055.03516.2832.30273.26758.77734-.03516,1.06055-.16895.15723-.25391.38184-.23438.61426.01172.13184.06934.37891.33008.5498l6.03613,3.96582c.25.16406.57324.16406.8252,0l6.03418-3.96582c.26172-.1709.31934-.41797.33105-.5498.01953-.23242-.06543-.45703-.23438-.61426-.30273-.2832-.31836-.75781-.03516-1.06055.28516-.30176.75781-.31738,1.06055-.03516.50684.47461.7627,1.14453.70312,1.83887-.05859.68555-.42383,1.2959-1.00195,1.6748l-6.03418,3.96582c-.37598.24609-.80664.36914-1.23633.36914Z" fill="var(--iconPrimary, #222)"/>
  <path d="m12.56445,12.50586c-.27344-.31152-.74805-.3418-1.05859-.07031l-.75586.66162v-5.84717c0-.41406-.33594-.75-.75-.75s-.75.33594-.75.75v5.84717l-.75586-.66162c-.31152-.27148-.78418-.24121-1.05859.07031-.27246.31152-.24121.78613.07031,1.05859l2,1.75c.1416.12402.31836.18555.49414.18555s.35254-.06152.49414-.18555l2-1.75c.31152-.27246.34277-.74707.07031-1.05859Z" fill="var(--iconPrimary, #222)"/>
  <path d="m13.55273,11.46094c-.24414,0-.4834-.11914-.62793-.33789-.22754-.34668-.13086-.81152.21484-1.03906l3.30762-2.17285c.21582-.14062.33887-.36914.33887-.62598s-.12305-.48535-.33887-.62695l-6.03613-3.96582c-.25-.16406-.57324-.16406-.82324,0l-6.03516,3.96582c-.21582.1416-.33887.37012-.33887.62695s.12305.48535.33789.62598l3.28418,2.15723c.3457.22754.44238.69238.21484,1.03906-.22754.34473-.69238.44043-1.03906.21484l-3.2832-2.15723c-.63477-.41699-1.01465-1.11914-1.01465-1.87891,0-.76074.37891-1.46387,1.01465-1.88184l6.03613-3.96582c.75-.49219,1.71973-.49219,2.46973,0l6.03711,3.96582c.63574.41797,1.01465,1.12109,1.01465,1.88184,0,.75977-.37988,1.46191-1.01562,1.87891l-3.30664,2.17285c-.12695.08301-.27051.12305-.41113.12305Z" fill="var(--iconPrimary, #222)"/>
</svg>