<?xml version="1.0" encoding="UTF-8"?>
<svg xmlns="http://www.w3.org/2000/svg" width="20" height="20" viewBox="0 0 20 20">
  <path d="m17.25,18c-.19238,0-.38379-.07324-.53027-.21973L2.21973,3.28027c-.29297-.29297-.29297-.76758,0-1.06055s.76758-.29297,1.06055,0l14.5,14.5c.29297.29297.29297.76758,0,1.06055-.14648.14648-.33789.21973-.53027.21973Z" fill="var(--iconPrimary, #222)"/>
  <path d="m10,15.41895c-.31152,0-.62305-.09082-.87109-.27246l-3.29004-2.40332c-.33496-.24414-.40723-.71387-.16309-1.04785.24316-.33496.71094-.40918,1.04785-.16309l3.29004,2.40332c.33496-.24316.79004-.1709,1.03418.16211.24414.33496.1582.80371-.17676,1.04883-.24805.18164-.55957.27246-.87109.27246Z" fill="var(--iconPrimary, #222)"/>
  <path d="m12.95508,18H4.25c-1.24023,0-2.25-1.00977-2.25-2.25V7.08301c0-.41406.33594-.75.75-.75s.75.33594.75.75v8.66699c0,.41309.33691.75.75.75h8.70508c.41406,0,.75.33594.75.75s-.33594.75-.75.75Z" fill="var(--iconPrimary, #222)"/>
  <path d="m17.25,13.69922c-.41406,0-.75-.33594-.75-.75V4.25c0-.41309-.33691-.75-.75-.75H6.9375c-.41406,0-.75-.33594-.75-.75s.33594-.75.75-.75h8.8125c1.24023,0,2.25,1.00977,2.25,2.25v8.69922c0,.41406-.33594.75-.75.75Z" fill="var(--iconPrimary, #222)"/>
  <path d="m13.12305,9.6748c-.23145,0-.45996-.10645-.60645-.30762-.24414-.33496-.1709-.80371.16309-1.04785l.19629-.14355-2.88965-2.11133c-.33301.24512-.78906.17285-1.03418-.16211-.24414-.33496-.1582-.80371.17676-1.04883.49609-.36328,1.24609-.36328,1.74219,0l3.29004,2.40332c.30957.22754.48535.5625.48438.9209,0,.35742-.17676.69238-.48438.91699l-.59668.43555c-.13379.09766-.28809.14453-.44141.14453Z" fill="var(--iconPrimary, #222)"/>
</svg>