<?xml version="1.0" encoding="UTF-8"?>
<svg xmlns="http://www.w3.org/2000/svg" width="20" height="20" viewBox="0 0 20 20">
  <path d="m10,9.73535c-.34863,0-.69629-.08594-.99902-.25781l-.00098-.00098-4.60547-2.62598c-.56055-.31934-.89453-.87305-.89453-1.48145s.33398-1.16211.89355-1.48145l4.60645-2.62598c.60742-.34766,1.39258-.34766,2,0l4.60547,2.62598c.56055.31934.89453.87305.89453,1.48145s-.33398,1.16211-.89355,1.48145l-4.60645,2.62598c-.30371.17285-.65234.25879-1,.25879Zm-.25781-1.56152c.15234.08594.36426.08496.5166-.00098l4.60449-2.625c.08691-.0498.13672-.11523.13672-.17871s-.0498-.12891-.1377-.17871l-4.60449-2.62598c-.15234-.08594-.36328-.08594-.51562,0l-4.60547,2.62598c-.08691.0498-.13672.11523-.13672.17871s.0498.12891.1377.17871l4.60449,2.62598Z" fill="var(--iconPrimary, #222)"/>
  <path d="m10,14.34863c-.34766,0-.69434-.08594-.99805-.25684l-4.60449-2.60156c-.51855-.29297-.84277-.78027-.8877-1.33789-.04492-.54199.19336-1.07812.63672-1.43457.32227-.25879.79395-.20898,1.05469.11523.25879.32324.20801.79492-.11523,1.05469-.05664.04492-.08496.0957-.08203.14258.00488.05273.05273.10938.13086.15332l4.60547,2.60156c.15234.08789.36719.08789.51953,0l4.60449-2.60156c.0791-.04395.12695-.10059.13184-.15332.00293-.04688-.02539-.09766-.08203-.14258-.32324-.25977-.37402-.73145-.11523-1.05469.26074-.32324.73242-.37402,1.05469-.11523.44336.35645.68164.89258.63672,1.43457-.04492.55762-.36914,1.04492-.88867,1.33789l-4.60352,2.60156c-.30371.1709-.65039.25684-.99805.25684Z" fill="var(--iconPrimary, #222)"/>
  <path d="m10,19.00195c-.34473,0-.68945-.08691-.99707-.25977l-4.60547-2.60156c-.51855-.29297-.8418-.78027-.8877-1.33691-.04492-.54199.19336-1.0791.63574-1.43555.32031-.25781.79297-.20996,1.05469.11328.25977.32324.20898.79492-.11328,1.05469-.05762.0459-.08691.09766-.08301.14453.00488.05273.05273.10938.13086.15332l4.60547,2.60156c.15234.08594.36816.08594.52051,0l4.60352-2.60156c.0791-.04395.12695-.10059.13184-.15332.00391-.04688-.02539-.09863-.08301-.14453-.32227-.25977-.37305-.73145-.11328-1.05469.26074-.32324.7334-.37109,1.05469-.11328.44238.35645.68066.89355.63574,1.43555-.0459.55664-.36914,1.04395-.88867,1.33691l-4.60352,2.60156c-.30859.17285-.65332.25977-.99805.25977Z" fill="var(--iconPrimary, #222)"/>
</svg>