<?xml version="1.0" encoding="UTF-8"?>
<svg xmlns="http://www.w3.org/2000/svg" width="20" height="20" viewBox="0 0 20 20">
  <path d="m14.51758,18.5918c-2.55078,0-5.14258-2.34082-5.14258-3.64941,0-.48926.45312-1.00586.72266-1.27051.24805-.24219.6416-.2373.88281.00879.24219.24609.23828.6416-.00684.88281-.1543.15234-.3291.375-.35938.45898.05957.40039,1.84863,2.31934,3.90332,2.31934.34473,0,.625.28027.625.625s-.28027.625-.625.625Z" fill="var(--iconPrimary, #222)"/>
  <path d="m18.18994,17.12939c.72095-.60522,1.43506-1.4541,1.43506-2.18701,0-1.23633-2.4248-3.85352-5.13281-3.85352-.65771.00781-1.31445.15796-1.91943.42334l-1.04248-1.04248c-.29297-.29297-.76758-.29297-1.06055,0s-.29297.76758,0,1.06055l7.29883,7.29883c.14648.14648.33789.21973.53027.21973s.38379-.07324.53027-.21973c.29297-.29297.29297-.76758,0-1.06055l-.63916-.63916Zm-3.68994-4.79053c2.15527,0,3.82812,2.16309,3.875,2.59766-.01611.17383-.37256.72803-1.07935,1.29858l-3.74438-3.74438c.31177-.08813.62988-.14795.94873-.15186Z" fill="var(--iconPrimary, #222)"/>
  <path d="m7.75977,18H3.25c-1.24023,0-2.25-1.00977-2.25-2.25v-6.5c0-1.24023,1.00977-2.25,2.25-2.25h6.5c.60059,0,1.16602.23438,1.59082.65918.29297.29297.29297.76758,0,1.06055s-.76758.29297-1.06055,0c-.1416-.1416-.33008-.21973-.53027-.21973H3.25c-.41309,0-.75.33691-.75.75v6.5c0,.41309.33691.75.75.75h4.50977c.41406,0,.75.33594.75.75s-.33594.75-.75.75Z" fill="var(--iconPrimary, #222)"/>
  <path d="m14.25,9.4707c-.41406,0-.75-.33594-.75-.75v-2.4707c0-.41309-.33691-.75-.75-.75h-6.5c-.15039,0-.2959.04395-.41992.12793-.34473.23438-.80957.13965-1.04102-.20312-.23145-.34375-.14062-.80957.20312-1.04102.37305-.25098.80762-.38379,1.25781-.38379h6.5c1.24023,0,2.25,1.00977,2.25,2.25v2.4707c0,.41406-.33594.75-.75.75Z" fill="var(--iconPrimary, #222)"/>
  <path d="m17.25,10.04492c-.41406,0-.75-.33594-.75-.75V3.25c0-.41309-.33691-.75-.75-.75h-6.5c-.15234,0-.29688.04492-.41992.12891-.34082.23535-.80762.14844-1.04297-.19336-.23438-.3418-.14746-.80859.19336-1.04297.37402-.25684.8125-.39258,1.26953-.39258h6.5c1.24023,0,2.25,1.00977,2.25,2.25v6.04492c0,.41406-.33594.75-.75.75Z" fill="var(--iconPrimary, #222)"/>
</svg>