<?xml version="1.0" encoding="UTF-8"?>
<svg   xmlns="http://www.w3.org/2000/svg" width="20" height="20" viewBox="0 0 20 20">
  <path d="M10.00049,13.50004c-.43018,0-.86035-.12305-1.23584-.36914l-6.03564-3.96582c-.63525-.41699-1.01465-1.11914-1.01465-1.87891-.00049-.76074.37891-1.46387,1.01416-1.88184l6.03613-3.96582c.75-.49219,1.71973-.49219,2.4707,0l1.94922,1.28125c.34619.22754.44189.69336.21436,1.03906-.22754.34668-.69336.44141-1.03857.21484l-1.94873-1.28125c-.25-.16406-.57373-.16406-.82373,0l-6.03564,3.96582c-.21484.1416-.33789.37012-.33789.62695s.12305.48535.33789.62598l6.03564,3.96582c.25.16406.57422.16406.82422,0l.27588-.17969c.34717-.22754.81152-.12891,1.0376.21777.22656.34766.12891.81152-.21826,1.03809l-.27393.17871c-.37402.24609-.80322.36816-1.23291.36816Z" fill="var(--iconPrimary, #222)"/>
  <path d="M18.8501,8.49125c-.41406,0-.75-.33594-.75-.75v-.14551c0-.99219-.80762-1.7998-1.80029-1.7998-.99219,0-1.7998.80762-1.7998,1.7998v.14551c0,.41406-.33594.75-.75.75s-.75-.33594-.75-.75v-.14551c0-1.81934,1.48047-3.2998,3.2998-3.2998,1.81982,0,3.30029,1.48047,3.30029,3.2998v.14551c0,.41406-.33594.75-.75.75Z" fill="var(--iconPrimary, #222)"/>
  <path d="M16.2998,15.70414c-1.81934,0-3.2998-1.48047-3.2998-3.2998v-.14551c0-.41406.33594-.75.75-.75s.75.33594.75.75v.14551c0,.99219.80762,1.7998,1.7998,1.7998.99268,0,1.80029-.80762,1.80029-1.7998v-.14551c0-.41406.33594-.75.75-.75s.75.33594.75.75v.14551c0,1.81934-1.48047,3.2998-3.30029,3.2998Z" fill="var(--iconPrimary, #222)"/>
  <path d="M16.2998,12.35258c-.41406,0-.75-.33594-.75-.75v-3.20508c0-.41406.33594-.75.75-.75s.75.33594.75.75v3.20508c0,.41406-.33594.75-.75.75Z" fill="var(--iconPrimary, #222)"/>
  <path d="M10.00049,19.00004c-.43018,0-.86035-.12305-1.23584-.36914l-6.03564-3.96582c-.57715-.37891-.94238-.98926-1.00146-1.6748-.05957-.69434.19678-1.36426.70361-1.83887.30176-.28125.77734-.2666,1.06006.03516.2832.30273.26758.77734-.03467,1.06055-.16895.1582-.25439.38184-.23438.61426.01123.13184.06934.37891.33008.5498l6.03564,3.96582c.25.16406.57422.16406.82422,0l2.0918-1.36914c.34619-.22656.81201-.12988,1.03809.2168.22705.34668.12988.81152-.2168,1.03906l-2.09082,1.36816c-.37451.24512-.8042.36816-1.23389.36816Z" fill="var(--iconPrimary, #222)"/>
</svg>