<?xml version="1.0" encoding="UTF-8"?>
<svg xmlns="http://www.w3.org/2000/svg" width="20" height="20" viewBox="0 0 20 20">
  <path d="m15.75,18H4.25c-1.24023,0-2.25-1.00977-2.25-2.25V4.25c0-1.24023,1.00977-2.25,2.25-2.25h11.5c1.24023,0,2.25,1.00977,2.25,2.25v11.5c0,1.24023-1.00977,2.25-2.25,2.25ZM4.25,3.5c-.41309,0-.75.33691-.75.75v11.5c0,.41309.33691.75.75.75h11.5c.41309,0,.75-.33691.75-.75V4.25c0-.41309-.33691-.75-.75-.75H4.25Z" fill="var(--iconPrimary, #222)"/>
  <path d="m10,11.77148c-.31152,0-.62305-.09082-.87109-.27246l-3.29004-2.4043c-.30762-.22461-.48438-.55957-.48535-.91699,0-.3584.17578-.69336.4834-.91992l.00195-.00098,3.29004-2.40332c.49609-.36328,1.24609-.36328,1.74219,0l3.29004,2.40332c.30957.22754.48535.5625.48535.9209-.00098.35742-.17773.69238-.48535.91699l-3.29004,2.4043c-.24805.18164-.55957.27246-.87109.27246Zm-2.87793-3.59668l2.8916,2.11328,2.86426-2.11133-2.8916-2.1123-2.86426,2.11035Zm-.39648.29199h0c0-.00098.00098-.00098.00098-.00098l-.00098.00098Zm6.55078-.58301s-.00098,0-.00098.00098l.00098-.00098Z" fill="var(--iconPrimary, #222)"/>
  <path d="m10.00098,15.24706c-.3125,0-.625-.0918-.87402-.27441l-3.28809-2.33397c-.33496-.24414-.40723-.71387-.16309-1.04785.24316-.33496.71191-.40918,1.04785-.16309l3.29004,2.40332,3.2627-2.40332c.33496-.24609.80371-.17188,1.04785.16309.24414.33398.17188.80371-.16309,1.04785l-3.29004,2.33495c-.24805.18262-.55859.27344-.87012.27344Z" fill="var(--iconPrimary, #222)"/>
</svg>