<?xml version="1.0" encoding="UTF-8"?>
<svg id="e" data-name="ICONS" xmlns="http://www.w3.org/2000/svg" width="20" height="20" viewBox="0 0 20 20">
  <path d="M15.75,19H4.25c-1.24072,0-2.25-1.00977-2.25-2.25V3.25c0-1.24023,1.00928-2.25,2.25-2.25h11.5c1.24072,0,2.25,1.00977,2.25,2.25v13.5c0,1.24023-1.00928,2.25-2.25,2.25ZM4.25,2.5c-.41357,0-.75.33691-.75.75v13.5c0,.41309.33643.75.75.75h11.5c.41357,0,.75-.33691.75-.75V3.25c0-.41309-.33643-.75-.75-.75H4.25Z" fill="var(--iconPrimary, #222)"/>
  <path d="M7.75,5.5h-2c-.41406,0-.75-.33594-.75-.75s.33594-.75.75-.75h2c.41406,0,.75.33594.75.75s-.33594.75-.75.75Z" fill="var(--iconPrimary, #222)"/>
  <path d="M14.25,8.5H5.75c-.41406,0-.75-.33594-.75-.75s.33594-.75.75-.75h8.5c.41406,0,.75.33594.75.75s-.33594.75-.75.75Z" fill="var(--iconPrimary, #222)"/>
  <path d="M11.75,11.5h-6c-.41406,0-.75-.33594-.75-.75s.33594-.75.75-.75h6c.41406,0,.75.33594.75.75s-.33594.75-.75.75Z" fill="var(--iconPrimary, #222)"/>
  <path id="f" data-name="Path 1005062" d="M15,14.75c0,.69036-.55964,1.25-1.25,1.25-.69036,0-1.25-.55964-1.25-1.25,0-.69036.55964-1.25,1.25-1.25s1.25.55964,1.25,1.25h0Z" fill="var(--iconPrimary, #222)"/>
</svg>