<?xml version="1.0" encoding="UTF-8"?>
<svg xmlns="http://www.w3.org/2000/svg" width="20" height="20" viewBox="0 0 20 20">
  <path d="m16,1.875c-.99634,0-1.82837.69141-2.05713,1.61816-3.28491.83179-4.01953,3.72095-4.67041,6.3252-.61694,2.46729-1.12915,4.51294-3.40344,5.19189-.3573-.67188-1.0564-1.13525-1.86902-1.13525-1.17188,0-2.125.95312-2.125,2.125s.95312,2.125,2.125,2.125c.99634,0,1.82837-.69165,2.05713-1.61816,3.28491-.83179,4.01953-3.72095,4.67041-6.3252.61694-2.46729,1.12915-4.51343,3.40356-5.19189.3573.67188,1.05627,1.13525,1.8689,1.13525,1.17188,0,2.125-.95312,2.125-2.125s-.95312-2.125-2.125-2.125Zm-12,15c-.48242,0-.875-.39258-.875-.875s.39258-.875.875-.875.875.39258.875.875-.39258.875-.875.875Zm12-12c-.48242,0-.875-.39258-.875-.875s.39258-.875.875-.875.875.39258.875.875-.39258.875-.875.875Z" fill="var(--iconPrimary, #222)"/>
  <path d="m4,12.375c.80688,0,1.56946.27405,2.1889.75h.09894c.69135-.58972,1.03003-1.67664,1.52954-3.66992.09436-.3772.4343-1.72512.75116-2.58008h-.44354v-3.375h2.61249c.5672-.50006,1.2478-.92487,2.08282-1.22949.05096-.09442.11188-.1817.17053-.27051H4.25c-1.24023,0-2.25,1.00977-2.25,2.25v8.73102c.57385-.38141,1.26068-.60602,2-.60602Zm-.5-8.125c0-.41309.33691-.75.75-.75h2.625v3.375h-3.375v-2.625Zm0,3.875h3.375v3.75h-3.375v-3.75Z" fill="var(--iconPrimary, #222)" opacity=".35"/>
  <path d="m16,7.625c-.80688,0-1.56946-.27405-2.1889-.75h-.09894c-.69049.58966-1.03003,1.67566-1.52954,3.66895-.09436.37732-.44834,1.75938-.75116,2.58105h.44354v3.375h-2.61163c-.56714.50024-1.24768.92505-2.0827,1.22949-.05115.09442-.11206.1817-.1709.27051h8.74023c1.24023,0,2.25-1.00977,2.25-2.25V7.01898c-.57385.38141-1.26068.60602-2,.60602Zm.5,8.125c0,.41309-.33691.75-.75.75h-2.625v-3.375h3.375v2.625Zm0-3.875h-3.375v-3.75h3.375v3.75Z" fill="var(--iconPrimary, #222)" opacity=".35"/>
</svg>