<?xml version="1.0" encoding="UTF-8"?>
<svg xmlns="http://www.w3.org/2000/svg" width="20" height="20" viewBox="0 0 20 20">
  <path d="m2.75,18c-.41406,0-.75-.33594-.75-.75v-3.25c0-.41406.33594-.75.75-.75s.75.33594.75.75v3.25c0,.41406-.33594.75-.75.75Z" fill="var(--iconPrimary, #222)"/>
  <path d="m5.75,18c-.41406,0-.75-.33594-.75-.75v-7.25c0-.41406.33594-.75.75-.75s.75.33594.75.75v7.25c0,.41406-.33594.75-.75.75Z" fill="var(--iconPrimary, #222)"/>
  <path d="m8.75,18c-.41406,0-.75-.33594-.75-.75V3c0-.41406.33594-.75.75-.75s.75.33594.75.75v14.25c0,.41406-.33594.75-.75.75Z" fill="var(--iconPrimary, #222)"/>
  <path d="m11.75,18c-.41406,0-.75-.33594-.75-.75v-9.25c0-.41406.33594-.75.75-.75s.75.33594.75.75v9.25c0,.41406-.33594.75-.75.75Z" fill="var(--iconPrimary, #222)"/>
  <path d="m14.75,18c-.41406,0-.75-.33594-.75-.75V6c0-.41406.33594-.75.75-.75s.75.33594.75.75v11.25c0,.41406-.33594.75-.75.75Z" fill="var(--iconPrimary, #222)"/>
  <path d="m17.75,18c-.41406,0-.75-.33594-.75-.75v-2.25c0-.41406.33594-.75.75-.75s.75.33594.75.75v2.25c0,.41406-.33594.75-.75.75Z" fill="var(--iconPrimary, #222)"/>
</svg>