<?xml version="1.0" encoding="UTF-8"?>
<svg id="e" data-name="ICONS" xmlns="http://www.w3.org/2000/svg" width="20" height="20" viewBox="0 0 20 20">
  <path d="M10,19c-1.09131,0-2.10498-.54199-2.71094-1.4502l-.06934-.10352c-.11426-.1709-.31934-.25586-.51807-.21484l-.125.02441c-1.06787.21484-2.16895-.12012-2.94043-.8916-.77197-.77246-1.10547-1.87207-.8916-2.94238l.02393-.12207c.04053-.20215-.04346-.40527-.21338-.51855l-.10742-.07227c-.90576-.60449-1.44775-1.61719-1.44775-2.70898s.54199-2.10449,1.44971-2.71094l.10205-.06836c.17334-.11523.25732-.31836.21729-.51953l-.0249-.12402c-.21338-1.06934.12012-2.16895.89209-2.94141.77148-.77246,1.87158-1.1084,2.94141-.8916l.12256.02441c.2041.03516.40576-.04395.51953-.21484l.06982-.10449c.60547-.90723,1.61914-1.44922,2.71045-1.44922s2.10498.54199,2.71094,1.4502l.06934.10352c.11426.1709.31934.25488.51807.21484l.125-.02441c1.06641-.2168,2.16846.11914,2.94043.8916s1.10547,1.87207.8916,2.94238l-.02393.12207c-.04053.20215.04346.40527.21338.51855l.10742.07227c.90576.60449,1.44775,1.61719,1.44775,2.70898,0,1.09082-.5415,2.10352-1.44824,2.70996l-.10352.06934c-.17334.11523-.25732.31836-.21729.51953l.0249.12402c.21338,1.06934-.12012,2.16895-.89209,2.94141-.77148.77148-1.87109,1.10645-2.94141.8916l-.12256-.02441c-.20117-.03418-.40527.04395-.51953.21484l-.06982.10449c-.60547.90723-1.61914,1.44922-2.71045,1.44922ZM6.8042,15.7207c.65918,0,1.28467.32715,1.6626.8916l.06982.10449c.66406.99609,2.26318.99512,2.92627.00098l.07031-.10547c.45312-.67676,1.2627-1.01074,2.05908-.85156l.12207.02441c.58643.11621,1.16602-.05859,1.58887-.48145s.59814-1.00195.48145-1.58887l-.0249-.12402c-.15869-.79883.17627-1.60645.854-2.05762l.10352-.07031c.49756-.33203.78271-.86523.78271-1.46289s-.28516-1.13086-.78271-1.46289l-.10693-.07227c-.67432-.44922-1.00928-1.25684-.8501-2.05664l.02393-.12207c.11719-.58789-.05811-1.16699-.48096-1.58984s-1.00098-.59668-1.58789-.48145l-.12451.02441c-.79492.15918-1.60498-.1748-2.05762-.85156l-.06982-.10449c-.66406-.99609-2.26318-.99512-2.92627-.00098l-.07031.10547c-.45312.67676-1.26172,1.0127-2.05908.85156l-.12207-.02441c-.58447-.11328-1.16553.05859-1.58887.48145-.42285.42285-.59814,1.00195-.48145,1.58887l.0249.12402c.15869.79883-.17627,1.60645-.854,2.05762l-.10107.06836c-.5.33398-.78516.86719-.78516,1.46484s.28516,1.13086.78271,1.46289l.10693.07227c.67432.44922,1.00928,1.25684.8501,2.05664l-.02393.12207c-.11719.58789.05811,1.16699.48096,1.58984.42236.42285,1.00098.5957,1.58789.48145l.12451-.02441c.13184-.02637.26416-.04004.39502-.04004Z" fill="var(--iconPrimary, #222)"/>
  <path d="M9.30273,13.25c-.21191,0-.41504-.08984-.55762-.24805l-2.30273-2.55957c-.27686-.30859-.25195-.78223.05615-1.05957.30664-.27734.78125-.25098,1.05908.05566l1.68555,1.87402,3.15186-4.29883c.24512-.33398.71338-.4082,1.04834-.16113.33398.24414.40625.71387.16162,1.04785l-3.69727,5.04297c-.13379.18262-.3418.29395-.56738.30566-.0127.00098-.02539.00098-.0376.00098Z" fill="var(--iconPrimary, #222)"/>
</svg>