<?xml version="1.0" encoding="UTF-8"?>
<svg id="e" data-name="ICONS" xmlns="http://www.w3.org/2000/svg" width="20" height="20" viewBox="0 0 20 20">
  <path d="M19.02148,11.31445c-.32812-.07812-.67285.12598-.75391.46094l-.07495.31006c-.84961-1.04834-2.1377-1.69775-3.53345-1.69775-1.95312,0-3.68652,1.24414-4.3125,3.09668-.13281.39258.07715.81836.46973.9502.0791.02734.16016.04004.24023.04004.3125,0,.60449-.19727.70996-.50977.4209-1.24219,1.58301-2.07715,2.89258-2.07715.94873,0,1.82422.4458,2.39355,1.16602l-.62988-.15234c-.33008-.07715-.67285.125-.75391.46094-.08105.33496.125.67285.46094.75391l2.09277.50586c.04883.01172.09863.01758.14746.01758.28125,0,.53711-.19238.60645-.47852l.50586-2.09277c.08105-.33496-.125-.67285-.46094-.75391Z" fill="var(--iconPrimary, #222)"/>
  <path d="M18.49023,15.45898c-.39355-.13574-.81836.07617-.95117.46875-.42188,1.23926-1.58301,2.07227-2.88965,2.07227-.96167,0-1.82666-.44556-2.3916-1.16528l.62695.15161c.3291.0791.67285-.125.75391-.46094.08105-.33496-.125-.67285-.46094-.75391l-2.09277-.50586c-.33008-.07812-.67188.12598-.75391.46094l-.03223.13367c-.01196.04431-.02856.08606-.03223.13245l-.44141,1.82666c-.08105.33496.125.67285.46094.75391.04883.01172.09863.01758.14746.01758.28125,0,.53711-.19238.60645-.47852l.0752-.3103c.84277,1.04932,2.11719,1.698,3.53418,1.698,1.9502,0,3.68164-1.24121,4.30957-3.08984.13379-.3916-.07617-.81836-.46875-.95117Z" fill="var(--iconPrimary, #222)"/>
  <path d="M8.38574,11.94727c-.21191,0-.41504-.08984-.55762-.24805l-2.02441-2.25c-.27734-.30859-.25195-.78223.05566-1.05957s.78125-.25195,1.05957.05566l1.40723,1.56445,2.7041-3.6875c.24316-.33301.71191-.41016,1.04785-.16113.33398.24414.40625.71387.16113,1.04785l-3.24902,4.43164c-.13281.18262-.3418.29395-.56738.30566-.01172.00098-.02441.00098-.03711.00098Z" fill="var(--iconPrimary, #222)"/>
  <path d="M7.94531,16.68164c-.11523,0-.23242-.02637-.3418-.08301-.45898-.23535-.83301-.56836-1.11328-.98828-.08691-.12891-.24121-.19141-.39355-.16309-.98828.19727-2.00879-.11133-2.72266-.8252-.71289-.71387-1.02148-1.73145-.82324-2.7207.03027-.15234-.03418-.30762-.16309-.39355-.83984-.56055-1.34082-1.49805-1.34082-2.50684-.00098-1.01074.50098-1.94824,1.33984-2.50977.13086-.08594.19434-.24023.16406-.39355-.19824-.98828.11035-2.00586.82422-2.71973.71387-.71582,1.7334-1.02051,2.72168-.82617.15234.03027.30762-.0332.39453-.16309.55957-.83887,1.49707-1.34082,2.50684-1.34082s1.94727.50195,2.50781,1.3418c.08594.12891.24219.19238.39355.16211.98438-.19434,2.00781.11035,2.72168.82617.71387.71387,1.02246,1.73145.82422,2.7207-.03027.15234.0332.30664.16211.3916.54883.36816.95215.90137,1.16895,1.54492.13184.39258-.0791.81836-.47168.9502-.3916.13184-.81836-.0791-.9502-.47168-.11133-.33203-.30664-.59277-.5791-.77539-.63477-.42188-.9502-1.18066-.80078-1.93164.10059-.50586-.0498-1.00488-.41406-1.36914-.36328-.36328-.85938-.51562-1.36816-.41504-.74902.15332-1.50879-.16406-1.93359-.7998-.57422-.85742-1.94824-.85645-2.52051-.00098-.42578.63672-1.18555.95312-1.93457.80078-.50488-.09961-1.00293.05176-1.36816.41504-.36426.36426-.51465.86328-.41406,1.36816.14941.75195-.16602,1.51074-.80273,1.93457-.42676.28516-.67188.74512-.67188,1.25977,0,.51562.24512.97461.67285,1.25977.63574.42383.9502,1.18262.80176,1.93359-.10059.50586.0498,1.00391.41406,1.36816.36328.36328.8623.5166,1.36816.41504.75-.1543,1.50977.16406,1.93457.80176.13672.20508.32227.36914.55078.48633.36816.18945.51367.6416.32422,1.00977-.13281.25879-.39551.40723-.66797.40723Z" fill="var(--iconPrimary, #222)"/>
</svg>