<?xml version="1.0" encoding="UTF-8"?>
<svg   xmlns="http://www.w3.org/2000/svg" width="20" height="20" viewBox="0 0 20 20">
  <path d="M10,16.11528c-3.30859,0-6-2.69141-6-6s2.69141-6,6-6,6,2.69141,6,6-2.69141,6-6,6ZM10,5.61528c-2.48145,0-4.5,2.01855-4.5,4.5s2.01855,4.5,4.5,4.5,4.5-2.01855,4.5-4.5-2.01855-4.5-4.5-4.5Z" fill="var(--iconPrimary, #222)"/>
  <path d="M18.45361,10.77153h-.69971c-.41406,0-.75-.33594-.75-.75s.33594-.75.75-.75h.69971c.41406,0,.75.33594.75.75s-.33594.75-.75.75Z" fill="var(--iconPrimary, #222)"/>
  <path d="M2.23291,10.77153h-.7002c-.41406,0-.75-.33594-.75-.75s.33594-.75.75-.75h.7002c.41406,0,.75.33594.75.75s-.33594.75-.75.75Z" fill="var(--iconPrimary, #222)"/>
  <path d="M4.51074,5.2891c-.19189,0-.38379-.07324-.53027-.21973l-.49512-.49512c-.29297-.29297-.29297-.76758,0-1.06055s.76758-.29297,1.06055,0l.49512.49512c.29297.29297.29297.76758,0,1.06055-.14648.14648-.33838.21973-.53027.21973Z" fill="var(--iconPrimary, #222)"/>
  <path d="M15.47607,5.2891c-.19189,0-.38379-.07324-.53027-.21973-.29297-.29199-.29297-.76758-.00049-1.06055l.49463-.49512c.29297-.29297.76807-.29297,1.06104,0,.29297.29199.29297.76758.00049,1.06055l-.49463.49512c-.14648.14648-.33887.21973-.53076.21973Z" fill="var(--iconPrimary, #222)"/>
  <path d="M10,2.99125c-.41406,0-.75-.33594-.75-.75v-.7002c0-.41406.33594-.75.75-.75s.75.33594.75.75v.7002c0,.41406-.33594.75-.75.75Z" fill="var(--iconPrimary, #222)"/>
  <path d="M15.9707,16.76762c-.19189,0-.38379-.07324-.53027-.21973l-.49463-.49414c-.29297-.29199-.29297-.76758-.00049-1.06055.29297-.29297.76807-.29297,1.06104,0l.49463.49414c.29297.29199.29297.76758.00049,1.06055-.14648.14648-.33887.21973-.53076.21973Z" fill="var(--iconPrimary, #222)"/>
  <path d="M4.01562,16.76762c-.19238,0-.38428-.07324-.53076-.21973-.29248-.29395-.29199-.76855.00098-1.06152l.49512-.49414c.29346-.29102.76807-.29199,1.06055.00098.29248.29395.29199.76855-.00098,1.06152l-.49512.49414c-.14648.14551-.33789.21875-.52979.21875Z" fill="var(--iconPrimary, #222)"/>
  <path d="M9.98633,19.27153c-.41406,0-.75-.33594-.75-.75v-.7002c0-.41406.33594-.75.75-.75s.75.33594.75.75v.7002c0,.41406-.33594.75-.75.75Z" fill="var(--iconPrimary, #222)"/>
</svg>