<?xml version="1.0" encoding="UTF-8"?>
<svg   xmlns="http://www.w3.org/2000/svg" width="20" height="20" viewBox="0 0 20 20">
  <path d="M17.47498,12.23356c0-.2251-.10059-.44775-.29297-.5957l-2.35937-1.81055c-.3291-.25195-.7998-.18994-1.05176.13867-.25293.32861-.19141.79834.1377,1.05176l2.35937,1.81055c.3291.25195.7998.18994,1.05176-.13867.10449-.13623.15527-.29687.15527-.45605Z" fill="var(--iconPrimary, #222)"/>
  <path d="M18.54626,9.07731c0-.25879-.13477-.51123-.375-.6499l-2.59766-1.5c-.3584-.20703-.81738-.08447-1.02441.27441s-.08398.81738.27441,1.02441l2.59766,1.5c.3584.20703.81738.08447,1.02441-.27441.06836-.11816.10059-.24707.10059-.37451Z" fill="var(--iconPrimary, #222)"/>
  <path d="M14.91943,15.68657c-.19189,0-.38379-.07324-.53027-.21973l-2.12158-2.12109c-.29297-.29297-.29297-.76758,0-1.06055s.76758-.29297,1.06055,0l2.12158,2.12109c.29297.29297.29297.76758,0,1.06055-.14648.14648-.33838.21973-.53027.21973Z" fill="var(--iconPrimary, #222)"/>
  <path d="M12.1958,17.51274c-.2251,0-.44775-.10059-.5957-.29297l-1.81055-2.35938c-.25195-.3291-.18994-.7998.13867-1.05176.32861-.25293.79834-.19141,1.05176.1377l1.81055,2.35938c.25195.3291.18994.7998-.13867,1.05176-.13623.10449-.29688.15527-.45605.15527Z" fill="var(--iconPrimary, #222)"/>
  <path d="M9.03955,18.58403c-.25879,0-.51123-.13477-.6499-.375l-1.5-2.59766c-.20703-.3584-.08447-.81738.27441-1.02441s.81738-.08398,1.02441.27441l1.5,2.59766c.20703.3584.08447.81738-.27441,1.02441-.11816.06836-.24707.10059-.37451.10059Z" fill="var(--iconPrimary, #222)"/>
  <path d="M14.33594,4.70903c-.09863-.70605-.5127-1.30957-1.13574-1.65527l-3.63672-2.02051c-.87451-.4873-1.97803-.33105-2.68359.37598l-1.15393,1.15381c-.00104-.00098-.00128-.00244-.00232-.00342l-1.17334-1.17383c-.84961-.85059-2.33252-.85059-3.18213,0-.87744.87695-.87744,2.30469,0,3.18164l1.17651,1.177-1.1355,1.1355c-.70703.70703-.86133,1.81055-.37598,2.68359l2.02002,3.63672c.34619.62305.94971,1.03711,1.65527,1.13574.10693.01465.21289.02246.31885.02246.59229,0,1.15674-.23242,1.58398-.66016l1.68079-1.68066c.4043.22583.8562.35742,1.3324.35742.73486,0,1.42529-.28613,1.94434-.80566.88715-.88721,1.02844-2.22998.44769-3.27637l1.6817-1.68164c.50391-.50391.73633-1.19727.6377-1.90234ZM2.42871,3.50688c-.29248-.29199-.29248-.76855,0-1.06055.2832-.2832.77734-.2832,1.06055,0l1.17383,1.17383c.00104.00098.0025.00122.00354.00244l-1.0614,1.06128-1.17651-1.177ZM10.5083,10.50883c-.27374.27368-.66156.36963-1.034.32642l1.36884-1.3689c.04773.37158-.05029.75781-.33484,1.04248ZM12.6377,5.55082l-7.08691,7.08691c-.16797.16797-.39893.24512-.63428.21289-.23535-.0332-.43652-.1709-.55176-.37891l-2.02002-3.63672c-.16211-.29102-.11035-.65918.125-.89453L7.94043,2.46977c.14404-.14355.3374-.21875.53223-.21875.12402,0,.24902.03027.3623.09277l3.63672,2.02051c.20752.11621.3457.31738.37842.55273.0332.23438-.04443.46582-.2124.63379Z" fill="var(--iconPrimary, #222)"/>
</svg>