<?xml version="1.0" encoding="UTF-8"?>
<svg   xmlns="http://www.w3.org/2000/svg" width="20" height="20" viewBox="0 0 20 20">
  <path d="M10.0415,18.81254c-.26514,0-.53271-.05957-.77783-.17969l-4.49658-2.0791c-.62695-.29004-1.01611-.89941-1.01562-1.58984.00049-.68945.38965-1.29785,1.01562-1.58691l4.50586-2.08398c.46973-.23438,1.05518-.23633,1.54541.00977l4.48633,2.07422c.62598.28906,1.01514.89746,1.01562,1.58691,0,.69043-.38867,1.2998-1.01562,1.58984l-4.50586,2.08301c-.23242.11719-.49365.17578-.75732.17578ZM10.03076,12.61918c-.03857,0-.07471.00879-.10791.02539l-4.52637,2.09375c-.12598.05859-.14502.16699-.14502.22656s.01904.16895.14551.22754l4.52783,2.09375c.06934.03516.15234.03418.22266,0l4.52734-2.09375c.12646-.05859.14551-.16797.14551-.22754s-.01904-.16797-.14502-.22656l-4.50635-2.08398c-.04785-.02344-.09473-.03516-.13818-.03516Z" fill="var(--iconPrimary, #222)"/>
  <path d="M18.2002,10.75004h-2.86572c-.41406,0-.75-.33594-.75-.75s.33594-.75.75-.75h2.86572c.41406,0,.75.33594.75.75s-.33594.75-.75.75Z" fill="var(--iconPrimary, #222)"/>
  <path d="M10,5.25004c-.41406,0-.75-.33594-.75-.75V1.75004c0-.41406.33594-.75.75-.75s.75.33594.75.75v2.75c0,.41406-.33594.75-.75.75Z" fill="var(--iconPrimary, #222)"/>
  <path d="M13.88916,6.86137c-.19189,0-.38379-.07324-.53027-.21973-.29297-.29297-.29297-.76758,0-1.06055l1.94434-1.94531c.29297-.29297.76758-.29297,1.06055,0s.29297.76758,0,1.06055l-1.94434,1.94531c-.14648.14648-.33838.21973-.53027.21973Z" fill="var(--iconPrimary, #222)"/>
  <path d="M6.11084,6.86137c-.19189,0-.38379-.07324-.53027-.21973l-1.94434-1.94531c-.29297-.29297-.29297-.76758,0-1.06055s.76758-.29297,1.06055,0l1.94434,1.94531c.29297.29297.29297.76758,0,1.06055-.14648.14648-.33838.21973-.53027.21973Z" fill="var(--iconPrimary, #222)"/>
  <path d="M4.5,10.75004H1.7002c-.41406,0-.75-.33594-.75-.75s.33594-.75.75-.75h2.7998c.41406,0,.75.33594.75.75s-.33594.75-.75.75Z" fill="var(--iconPrimary, #222)"/>
</svg>