<?xml version="1.0" encoding="UTF-8"?>
<svg id="e" data-name="ICONS" xmlns="http://www.w3.org/2000/svg" width="20" height="20" viewBox="0 0 20 20">
  <path d="M3,17.87988c-.22998,0-.4502-.10059-.62012-.25977-.16016-.16992-.25-.39062-.25-.62012,0-.23047.08984-.4502.25-.62012.33008-.33008.91016-.32031,1.23975,0,.16016.16992.26025.38965.26025.62012,0,.22949-.1001.4502-.26025.62012-.16992.15918-.38965.25977-.61963.25977Z" fill="var(--iconPrimary, #222)"/>
  <path d="M4.71973,15.29004c-.3501-.35059-.3501-.90039,0-1.24023h0c.34033-.33984.89014-.33984,1.22998,0h0c.34033.33984.34033.88965,0,1.24023h0c-.16992.16992-.38965.25-.62012.25h0c-.21973,0-.43994-.08008-.60986-.25ZM7.0498,12.9502c-.33984-.34082-.33984-.89062,0-1.24023h0c.33984-.33984.89014-.33984,1.24023,0h0c.33984.34961.33984.89941,0,1.24023h0c-.17041.16992-.40039.25977-.62012.25977h0c-.22998,0-.4502-.08984-.62012-.25977ZM9.37988,10.62012c-.33984-.34082-.33984-.90039,0-1.24023h0c.33984-.33984.8999-.33984,1.23975,0h0c.34033.33984.34033.89941,0,1.24023h0c-.16992.16992-.3999.25977-.61963.25977h0c-.22021,0-.4502-.08984-.62012-.25977ZM11.70996,8.29004c-.34033-.35059-.34033-.90039,0-1.24023h0c.3501-.33984.8999-.33984,1.23975,0h0c.34033.33984.34033.88965,0,1.24023h0c-.16992.16992-.38965.25-.62012.25h0c-.21973,0-.43994-.08008-.61963-.25ZM14.0498,5.9502c-.33984-.34082-.33984-.89062,0-1.23047h0c.33984-.33984.89014-.33984,1.24023,0h0c.33984.33984.33984.88965,0,1.23047h0c-.18018.16992-.40039.25977-.62012.25977h0c-.22998,0-.4502-.08984-.62012-.25977Z" fill="var(--iconPrimary, #222)"/>
  <path d="M17,3.87988c-.22998,0-.4502-.10059-.62012-.25977-.16016-.16016-.25-.39062-.25-.62012,0-.11035.02002-.23047.06006-.33008.0498-.11035.10986-.20996.18994-.29004.25-.24023.62988-.32031.95996-.19043.1001.05078.2002.11035.27979.19043.08008.08008.14014.17969.19043.29004.03955.09961.05957.21973.05957.33008,0,.22949-.08984.45996-.25.62012-.07959.08008-.17969.13965-.27979.18945-.10986.04004-.22021.07031-.33984.07031Z" fill="var(--iconPrimary, #222)"/>
</svg>