<?xml version="1.0" encoding="UTF-8"?>
<svg   xmlns="http://www.w3.org/2000/svg" width="20" height="20" viewBox="0 0 20 20">
  <path d="M4.96973,13.96975l-.46973.46973V5.06057l.46973.46973c.14648.14648.33838.21973.53027.21973s.38379-.07324.53027-.21973c.29297-.29297.29297-.76758,0-1.06055l-1.75-1.75c-.29297-.29297-.76758-.29297-1.06055,0l-1.75,1.75c-.29297.29297-.29297.76758,0,1.06055s.76758.29297,1.06055,0l.46973-.46973v9.37891l-.46973-.46973c-.29297-.29297-.76758-.29297-1.06055,0s-.29297.76758,0,1.06055l1.75,1.75c.06909.06909.15204.12378.24365.16187.09174.03784.18896.05786.28662.05786s.19489-.02002.28662-.05786c.09167-.03809.17456-.09277.24365-.16187l1.75-1.75c.29297-.29297.29297-.76758,0-1.06055s-.76758-.29297-1.06055,0Z" fill="var(--iconPrimary, #222)" stroke-width="0"/>
  <path d="M17.25,5.50003h-7.5c-.41406,0-.75-.33594-.75-.75s.33594-.75.75-.75h7.5c.41406,0,.75.33594.75.75s-.33594.75-.75.75Z" fill="var(--iconPrimary, #222)" stroke-width="0"/>
  <path d="M17.25,10.50003h-7.5c-.41406,0-.75-.33594-.75-.75s.33594-.75.75-.75h7.5c.41406,0,.75.33594.75.75s-.33594.75-.75.75Z" fill="var(--iconPrimary, #222)" stroke-width="0"/>
  <path d="M17.25,15.50003h-7.5c-.41406,0-.75-.33594-.75-.75s.33594-.75.75-.75h7.5c.41406,0,.75.33594.75.75s-.33594.75-.75.75Z" fill="var(--iconPrimary, #222)" stroke-width="0"/>
</svg>