<?xml version="1.0" encoding="UTF-8"?>
<svg id="e" data-name="ICONS" xmlns="http://www.w3.org/2000/svg" width="20" height="20" viewBox="0 0 20 20">
  <g>
    <path d="M1.74023,13.87988c-.23047,0-.4502-.10059-.62012-.25977-.16016-.16992-.25-.39062-.25-.62012,0-.11035.01953-.23047.06934-.33008.04004-.11035.10059-.20996.18066-.29004s.17969-.13965.29004-.19043c.31934-.12988.70996-.0498.94922.19043.08008.08008.15039.17969.19043.29004.04004.09961.07031.21973.07031.33008,0,.22949-.10059.45996-.26074.62012-.0791.08008-.17969.13965-.2793.18945-.11035.04004-.2207.07031-.33984.07031Z" fill="var(--iconPrimary, #222)"/>
    <path d="M6.51953,15.87988c-.14941-.45996.10059-.9502.56055-1.10059h0c.45996-.14941.9502.10059,1.09961.56055h0c.15039.45996-.09961.9502-.55957,1.09961h0c-.08984.03027-.18066.05078-.27051.05078h0c-.37012,0-.70996-.24023-.83008-.61035ZM3.79004,15.89941c-.43066-.23926-.58984-.76953-.35059-1.18945h0c.23047-.43066.76074-.58008,1.18066-.35059h0c.42969.23047.58008.76074.34961,1.18066h0c-.15039.29004-.45996.45996-.76953.45996h0c-.14062,0-.28027-.03027-.41016-.10059ZM9.33008,14.29004c-.33984-.35059-.32031-.90039.01953-1.24023h0c.35059-.33008.91016-.32031,1.24023.03027h0c.33984.34961.32031.89941-.03027,1.23926v-.00977c-.16992.16992-.37988.25-.59961.25h0c-.23047,0-.45996-.08984-.62988-.26953ZM15.39941,13.10938h0c-.42969-.21973-.59961-.75-.37988-1.17969h0c.23047-.42969.75-.59961,1.18066-.37012h0c.42969.21973.59961.75.37988,1.18066h0c-.16016.2998-.45996.46973-.78027.46973h0c-.13965,0-.26953-.03027-.40039-.10059ZM11.79004,12.09961c-.12012-.46973.14941-.9502.62012-1.08008h0c.45996-.12012.93945.15039,1.06934.62012h0c.12988.45996-.14941.94043-.60938,1.07031h0c-.08008.01953-.16016.03027-.23047.03027h0c-.38965,0-.74023-.25-.84961-.64062Z" fill="var(--iconPrimary, #222)"/>
    <path d="M18.24023,15.37988c-.23047,0-.4502-.10059-.62012-.25977-.08008-.08008-.14062-.18066-.18066-.29004-.0498-.10059-.06934-.2207-.06934-.33008,0-.12012.01953-.23047.06934-.33008.04004-.11035.10059-.20996.18066-.29004.25-.24023.63965-.32031.95996-.19043.10938.05078.2002.11035.2793.19043.08008.08008.15039.17969.19043.29004.0498.09961.07031.21973.07031.33008,0,.22949-.08984.4502-.26074.62012-.0791.08008-.17969.13965-.2793.18945-.11035.04004-.2207.07031-.33984.07031Z" fill="var(--iconPrimary, #222)"/>
  </g>
  <path d="M.99207,5.74976c1.8981,1.50692,4.36574,2.73249,6.52247,1.56529,1.45578-.84418,2.55317-2.30233,4.20191-3.10092,2.73898-1.3754,6.10926.60566,7.27559,3.03565-1.36801-1.11696-2.92184-1.90822-4.4609-2.00661-2.71324-.22089-3.93811,2.50208-6.26555,3.5429-2.73882,1.36902-6.10681-.60722-7.27352-3.0363h0Z" fill="var(--iconPrimary, #222)"/>
</svg>