<?xml version="1.0" encoding="UTF-8"?>
<svg id="e" data-name="ICONS" xmlns="http://www.w3.org/2000/svg" width="20" height="20" viewBox="0 0 20 20">
  <path d="M3,17.75c-.19189,0-.38379-.07324-.53027-.21973-.29297-.29297-.29297-.76758,0-1.06055l2.82861-2.82812c.29297-.29297.76758-.29297,1.06055,0s.29297.76758,0,1.06055l-2.82861,2.82812c-.14648.14648-.33838.21973-.53027.21973ZM8.65674,12.09277c-.19189,0-.38379-.07324-.53027-.21973-.29297-.29297-.29297-.76758,0-1.06055l2.82861-2.82812c.29297-.29297.76758-.29297,1.06055,0s.29297.76758,0,1.06055l-2.82861,2.82812c-.14648.14648-.33838.21973-.53027.21973ZM14.31348,6.43652c-.19189,0-.38379-.07324-.53027-.21973-.29297-.29297-.29297-.76758,0-1.06055l2.68652-2.68652c.29297-.29297.76758-.29297,1.06055,0s.29297.76758,0,1.06055l-2.68652,2.68652c-.14648.14648-.33838.21973-.53027.21973Z" fill="var(--iconPrimary, #222)"/>
</svg>