<?xml version="1.0" encoding="UTF-8"?>
<svg id="e" data-name="ICONS" xmlns="http://www.w3.org/2000/svg" width="20" height="20" viewBox="0 0 20 20">
  <rect x="2" y="2.00002" width="16" height="15.99998" rx="3.60701" ry="3.60701" fill="#06c755"/>
  <g>
    <path d="M15.33279,9.24622c0-2.38696-2.39297-4.32897-5.33443-4.32897-2.94119,0-5.33441,1.942-5.33441,4.32897,0,2.13994,1.89776,3.9321,4.46127,4.2709.17368.03754.41019.11456.46996.26307.05378.13481.0352.34611.01727.48233,0,0-.06259.37641-.07616.45667-.02326.13478-.10723.52745.46206.28758.56938-.23991,3.07204-1.80895,4.19122-3.09707h-.00025c.77306-.84783,1.14345-1.70819,1.14345-2.66348Z" fill="#fff"/>
    <g>
      <path d="M13.55816,10.62453h-1.49869c-.05626,0-.10185-.04559-.10185-.10185v-2.32806c0-.05626.04559-.10185.10185-.10185h1.49869c.05603,0,.10186.04582.10186.10185v.3783c0,.05626-.04561.10186-.10186.10186h-1.01852v.39285h1.01852c.05603,0,.10186.04584.10186.10186v.3783c0,.05626-.04561.10186-.10186.10186h-1.01852v.39285h1.01852c.05603,0,.10186.04584.10186.10185v.37832c0,.05626-.04561.10185-.10186.10185Z" fill="#06c755"/>
      <path d="M8.01446,10.62453c.05624,0,.10185-.04559.10185-.10185v-.37832c0-.05601-.04584-.10185-.10185-.10185h-1.01854v-1.8479c0-.05603-.04584-.10185-.10185-.10185h-.37832c-.05626,0-.10185.04559-.10185.10185v2.32806c0,.05626.04559.10185.10185.10185h1.4987Z" fill="#06c755"/>
      <rect x="8.43651" y="8.09276" width=".58201" height="2.53177" rx=".10185" ry=".10185" fill="#06c755"/>
      <path d="M11.4921,8.09276h-.37832c-.05626,0-.10185.04561-.10185.10185v1.38275l-1.06516-1.43847c-.00247-.0037-.00526-.00718-.00819-.01053-.0002-.00025-.00043-.00048-.00066-.00074-.00197-.0022-.004-.00432-.00613-.00635-.00063-.00058-.00128-.00115-.00191-.00174-.00181-.00161-.00364-.00318-.00553-.00467-.00091-.00071-.00183-.00137-.00277-.00206-.00174-.00128-.00353-.00252-.00538-.0037-.00103-.00066-.00207-.00128-.00312-.00189-.00186-.00109-.0037-.00214-.00562-.0031-.00106-.00055-.00215-.00106-.00324-.00157-.00195-.00091-.00393-.00177-.00594-.00257-.00111-.00041-.00222-.00081-.00332-.00121-.00204-.00071-.00409-.00138-.00618-.00198-.0012-.00034-.00241-.00063-.00361-.00092-.00201-.00049-.00401-.00095-.00605-.00132-.00144-.00026-.00289-.00046-.00433-.00066-.00183-.00026-.00366-.00052-.0055-.00068-.00181-.00015-.00361-.00022-.00544-.00026-.00115-.00005-.0023-.00018-.00349-.00018h-.37623c-.05624,0-.10185.04561-.10185.10185v2.32808c0,.05624.0456.10185.10185.10185h.37832c.05626,0,.10185-.04561.10185-.10185v-1.38232l1.06649,1.44028c.00735.01039.01632.01889.02626.02565.0004.00028.00078.00055.0012.00081.00207.00138.00423.00267.00639.00389.00097.00055.00195.00111.00297.00163.00161.00085.00326.00163.00493.00238.00166.00075.0033.00148.00499.00215.00106.00041.00215.0008.00323.00118.0023.00081.00463.00158.00702.00224.00047.00014.00097.00026.00146.00038.00851.00224.01741.00356.02661.00356h.37624c.05624,0,.10185-.04561.10185-.10185v-2.32808c0-.05624-.04561-.10185-.10185-.10185Z" fill="#06c755"/>
    </g>
  </g>
</svg>