<?xml version="1.0" encoding="UTF-8"?>
<svg id="e" data-name="ICONS" xmlns="http://www.w3.org/2000/svg" width="20" height="20" viewBox="0 0 20 20">
  <path d="M11.49213,8.09277h-.37836c-.05621,0-.10181.04565-.10181.10181v1.38281l-1.06519-1.43848c-.00244-.00366-.00525-.00708-.00818-.0105-.00018-.00024-.00043-.00049-.00067-.00073-.00195-.0022-.00397-.00439-.0061-.00635-.00067-.00073-.00128-.00122-.00195-.00171-.00177-.00171-.0036-.00342-.00549-.00488-.00092-.00049-.00183-.00122-.00281-.00195-.00171-.00122-.00348-.00244-.00537-.00366-.00104-.00073-.00208-.00122-.00311-.00195-.00183-.00098-.00366-.0022-.00562-.00317-.00104-.00049-.00214-.00098-.00323-.00146-.00195-.00098-.00397-.00171-.00592-.00244-.00116-.00049-.00226-.00098-.00336-.00146-.00201-.00049-.00409-.00122-.00616-.00195-.00122-.00024-.00244-.00049-.0036-.00098-.00201-.00049-.00403-.00073-.00604-.00122-.00146-.00024-.00293-.00049-.00433-.00073-.00183,0-.00366-.00049-.00555-.00049-.00177-.00024-.0036-.00024-.00543-.00049h-.3797c-.05621,0-.10187.04565-.10187.10181v2.32812c0,.05615.04565.10181.10187.10181h.3783c.05627,0,.10187-.04565.10187-.10181v-1.38232l1.06653,1.44019c.00732.0105.0163.01904.02625.02563.00037.00024.00079.00073.00116.00098.00208.00122.00426.00269.00641.00366.00098.00073.00195.00122.00299.00171.00159.00098.00323.00171.00494.00244l.00494.0022c.0011.00049.0022.00073.00323.00122.00232.00073.00464.00146.00702.0022.00049,0,.00098.00024.00146.00049.00854.00195.0174.00342.02661.00342h.37628c.05621,0,.10181-.04565.10181-.10181v-2.32812c0-.05615-.04559-.10181-.10181-.10181Z" fill="var(--iconPrimary, #222)"/>
  <path d="M8.01447,10.04248h-1.01855v-1.8479c0-.05591-.04584-.10181-.10181-.10181h-.37836c-.05627,0-.10187.04565-.10187.10181v2.32812c0,.05615.04559.10181.10187.10181h1.49872c.05621,0,.10187-.04565.10187-.10181v-.37842c0-.05591-.04584-.10181-.10187-.10181Z" fill="var(--iconPrimary, #222)"/>
  <rect x="8.43652" y="8.09277" width=".58197" height="2.53174" rx=".10181" ry=".10181" fill="var(--iconPrimary, #222)"/>
  <path d="M14.39301,2H5.60699c-1.99207,0-3.60699,1.61499-3.60699,3.60693v8.78613c0,1.99194,1.61493,3.60693,3.60699,3.60693h8.78601c1.99207,0,3.60699-1.61499,3.60699-3.60693V5.60693c0-1.99194-1.61493-3.60693-3.60699-3.60693ZM14.18933,11.90967h.00024c-1.1192,1.28809-3.62183,2.85718-4.19122,3.09717-.56927.23975-.48529-.15283-.46204-.2876.01355-.08032.07611-.45679.07611-.45679.01794-.13623.03656-.34741-.01721-.48218-.05981-.14868-.29633-.22559-.46997-.26318-2.56354-.33887-4.4613-2.13086-4.4613-4.271,0-2.38672,2.39325-4.32886,5.33441-4.32886,2.94147,0,5.33441,1.94214,5.33441,4.32886,0,.95532-.37036,1.81567-1.14343,2.66357Z" fill="var(--iconPrimary, #222)"/>
  <path d="M13.55817,8.09277h-1.49872c-.05621,0-.10181.04565-.10181.10181v2.32812c0,.05615.04559.10181.10181.10181h1.49872c.05627,0,.10187-.04565.10187-.10181v-.37842c0-.05591-.04584-.10181-.10187-.10181h-1.01855v-.39282h1.01855c.05627,0,.10187-.04565.10187-.10181v-.37842c0-.05591-.04584-.10181-.10187-.10181h-1.01855v-.39282h1.01855c.05627,0,.10187-.04565.10187-.10205v-.37817c0-.05591-.04584-.10181-.10187-.10181Z" fill="var(--iconPrimary, #222)"/>
</svg>