<?xml version="1.0" encoding="UTF-8"?>
<svg   xmlns="http://www.w3.org/2000/svg" width="20" height="20" viewBox="0 0 20 20">
  <path d="M5.31348,18.74805c-1.04102,0-2.08105-.39648-2.87305-1.18848-1.58398-1.58398-1.58398-4.16211,0-5.74707l3.90527-3.90527c1.43066-1.42871,3.71875-1.58398,5.3252-.36719.33008.25.39453.7207.14453,1.05078-.24902.3291-.71973.39551-1.05078.14453-1.01367-.76855-2.45801-.66797-3.3584.23242l-3.90527,3.90527c-.99902,1-.99902,2.62695,0,3.62598,1.00098,1.00098,2.62695.99707,3.62598,0,.29395-.29395.76855-.29199,1.06055,0,.29297.29297.29297.76758,0,1.06055-.79297.79199-1.83301,1.1875-2.87402,1.18848Z" fill="var(--iconPrimary, #222)"/>
  <path d="M17.0293,8.40723c-.19043,0-.38086-.07227-.52637-.21582-.29492-.29102-.29883-.76562-.00781-1.06055.05566-.05664.1084-.11328.15918-.17285.84375-1.00684.77539-2.52539-.15527-3.45703-1-1.00098-2.62598-.99707-3.62598,0l-1.95215,1.95215c-.29297.29297-.76758.29297-1.06055,0s-.29297-.76758,0-1.06055l1.95215-1.95215c1.58398-1.58398,4.16309-1.58398,5.74707,0,1.50098,1.5,1.60449,3.85742.24316,5.48242-.07617.09082-.15625.17676-.23926.26074-.14648.14941-.34082.22363-.53418.22363Z" fill="var(--iconPrimary, #222)"/>
  <path d="M8.8252,12.64453c-.15234,0-.30664-.04688-.43945-.14355-.16699-.12012-.32617-.25684-.47656-.40625-.21875-.21973-.40918-.45898-.56836-.71191-.2207-.35059-.11523-.81348.23535-1.03418.35254-.22168.81445-.11426,1.03418.23535.10059.16016.22168.31152.35938.44922.0918.0918.19238.17773.29688.25488.33594.24316.41016.71191.16602,1.04688-.14648.20215-.375.30957-.60742.30957Z" fill="var(--iconPrimary, #222)"/>
  <path d="M15.00002,10.27098c-2.48535,0-4.5,2.01489-4.5,4.5,0,2.48535,2.01465,4.5,4.5,4.5s4.5-2.01465,4.5-4.5c0-2.48511-2.01465-4.5-4.5-4.5Z" fill="var(--iconPrimary, #222)"/>
  <path d="M17.35793,13.77147l-2.59766,3.15918c-.1167.14258-.29004.22559-.47363.22852h-.00928c-.18018,0-.35205-.07812-.4707-.21387l-1.15234-1.32031c-.22705-.25977-.2002-.65527.05957-.88184.26074-.22754.65576-.2002.88184.05957l.66748.76465,2.12891-2.58887c.21875-.2666.61328-.30566.87988-.08594.2666.21875.30518.6123.08594.87891Z" fill="#fff"/>
</svg>