<?xml version="1.0" encoding="UTF-8"?>
<svg   xmlns="http://www.w3.org/2000/svg" width="20" height="20" viewBox="0 0 20 20">
  <path d="M5.31348,18.74805c-1.04053,0-2.08105-.39648-2.87305-1.18848-.76758-.76758-1.19043-1.78809-1.19043-2.87305s.42285-2.10645,1.19043-2.87402l3.90527-3.90527c1.5835-1.58398,4.16211-1.58398,5.74658,0,.11035.11035.21191.22461.30615.34277.2583.32422.20508.7959-.11865,1.05371-.32275.25977-.79443.20605-1.0542-.11816-.06006-.0752-.12549-.14844-.19531-.21875-.99902-.99902-2.625-.99902-3.62402.00098l-3.90527,3.90527c-.48438.48438-.75098,1.12891-.75098,1.81348s.2666,1.32812.75098,1.8125c1.00049,1,2.62598,1.00098,3.62549,0,.03223-.03223.07617-.07617.12988-.12402.01562-.01953.03223-.03809.05029-.05566l.00732.00684c.00244-.00195.00488-.00391.00732-.00488l-.0083-.00879.48291-.48242c.29297-.29297.76758-.29297,1.06055,0s.29297.76758,0,1.06055c-.09424.09375-.18359.18359-.26904.26562l-.21143.21484-.01367-.01367c-.00195.00195-.00391.00391-.00635.00586l.01367.01367-.18262.18262c-.79199.79199-1.83252,1.18848-2.87354,1.18848Z" fill="var(--iconPrimary, #222)" stroke-width="0"/>
  <path d="M16.41064,9.02539c-.19189,0-.38379-.07324-.53027-.21973-.29297-.29297-.29297-.76758,0-1.06055l.61865-.61816c.48438-.48438.75098-1.12891.75098-1.81348s-.2666-1.32812-.75098-1.8125c-.99902-.99902-2.62451-1-3.62549,0l-1.95264,1.95215c-.29297.29297-.76758.29297-1.06055,0s-.29297-.76758,0-1.06055l1.95264-1.95215c1.5835-1.58301,4.16211-1.58496,5.74658,0,.76758.76758,1.19043,1.78809,1.19043,2.87305s-.42285,2.10645-1.19043,2.87402l-.61865.61816c-.14648.14648-.33838.21973-.53027.21973Z" fill="var(--iconPrimary, #222)" stroke-width="0"/>
  <path d="M8.73242,12.57422c-.16211,0-.3252-.05176-.4624-.16016-.125-.09766-.24561-.20508-.36084-.32031-.21729-.21777-.40771-.45605-.56836-.70996-.22119-.35059-.11621-.81348.23389-1.03516.3501-.21875.81299-.11523,1.03467.23438.10156.16113.22266.3125.35986.4502.0708.07031.14746.13867.22656.20117.32617.25586.38281.72656.12695,1.05273-.14795.18848-.36816.28711-.59033.28711Z" fill="var(--iconPrimary, #222)" stroke-width="0"/>
  <path d="M14.75,10.125c-2.55029,0-4.625,2.0752-4.625,4.625s2.07471,4.625,4.625,4.625,4.625-2.0752,4.625-4.625-2.07471-4.625-4.625-4.625ZM18.06177,14.125h-1.05756c-.0835-.85156-.33514-1.66309-.72717-2.3678.91302.46814,1.58893,1.32898,1.78473,2.3678ZM13.77594,14.125c.11151-.90149.45111-1.72168.97711-2.35547.52362.63232.86127,1.45239.97162,2.35547h-1.94873ZM15.72491,15.375c-.11017.90527-.44897,1.72705-.97443,2.36011-.52588-.63525-.86517-1.45728-.97546-2.36011h1.94989ZM13.22913,11.75391c-.39502.7063-.64862,1.51904-.73303,2.37109h-1.05786c.19623-1.04114.87469-1.90381,1.79089-2.37109ZM11.43823,15.375h1.05737c.08331.8501.3349,1.66187.72742,2.3678-.91309-.46814-1.58899-1.32898-1.78479-2.3678ZM16.27838,17.74194c.3916-.70471.6427-1.51587.72595-2.36694h1.05743c-.19568,1.03833-.87103,1.89868-1.78339,2.36694Z" fill="var(--iconPrimary, #222)" stroke-width="0"/>
</svg>