<?xml version="1.0" encoding="UTF-8"?>
<svg id="f" data-name="ICONS" xmlns="http://www.w3.org/2000/svg" width="20" height="20" viewBox="0 0 20 20">
  <path d="M6.35645,14h-1.36035c-2.20605,0-4-1.79395-4-4s1.79395-4,4-4h3.60352c2.20605,0,4,1.79395,4,4,0,.41406-.33594.75-.75.75s-.75-.33594-.75-.75c0-1.37891-1.12109-2.5-2.5-2.5h-3.60352c-1.37891,0-2.5,1.12109-2.5,2.5s1.12109,2.5,2.5,2.5h1.36035c.41406,0,.75.33594.75.75s-.33594.75-.75.75Z" fill="var(--iconPrimary, #222)"/>
  <path d="M14.99609,14h-3.45996c-2.20605,0-4-1.79395-4-4,0-.41406.33594-.75.75-.75s.75.33594.75.75c0,1.37891,1.12109,2.5,2.5,2.5h3.45996c1.37891,0,2.5-1.12109,2.5-2.5s-1.12109-2.5-2.5-2.5h-1.20996c-.41406,0-.75-.33594-.75-.75s.33594-.75.75-.75h1.20996c2.20605,0,4,1.79395,4,4s-1.79395,4-4,4Z" fill="var(--iconPrimary, #222)"/>
</svg>