<?xml version="1.0" encoding="UTF-8"?>
<svg   xmlns="http://www.w3.org/2000/svg" width="20" height="20" viewBox="0 0 20 20">
  <path d="M16.81566,2.00023H3.18091c-.65154,0-1.18091.51646-1.18091,1.15291v13.69223c0,.63714.52937,1.1544,1.18091,1.1544h13.63474c.65269,0,1.18434-.51726,1.18434-1.1544V3.15314c0-.63646-.53166-1.15291-1.18434-1.15291ZM6.74537,15.63394h-2.37314v-7.63554h2.37314v7.63554ZM5.55931,6.95463c-.76057,0-1.37623-.61657-1.37623-1.37611,0-.75897.61566-1.37554,1.37623-1.37554.75874,0,1.3752.61657,1.3752,1.37554,0,.75954-.61646,1.37611-1.3752,1.37611ZM15.63383,15.63394h-2.37143v-3.71326c0-.88537-.01623-2.02434-1.23314-2.02434-1.23474,0-1.42434.96457-1.42434,1.96034v3.77726h-2.37097v-7.63554h2.276v1.04331h.03177c.31691-.60023,1.09097-1.23314,2.24537-1.23314,2.40309,0,2.84674,1.5816,2.84674,3.63726v4.18812Z" fill="var(--iconPrimary, #222)" stroke-width="0"/>
</svg>