<?xml version="1.0" encoding="UTF-8"?>
<svg xmlns="http://www.w3.org/2000/svg" width="16" height="40" viewBox="0 0 16 40">
  <path d="M10.82685,29.83242c-.72455.72153-1.72438,1.16758-2.82685,1.16758-2.20493,0-3.99932-1.78691-4-3.98332v-5.99292c.00068-2.19641,1.79507-3.98197,4-3.98332.30246.00068.60153.03452.88836.0995.39762.09002.64639.48396.55599.87992-.09108.39799-.48666.64302-.8836.55367-.18148-.04129-.37111-.06227-.56279-.06227-1.39065,0-2.52167,1.12765-2.52167,2.51251v5.99292c.00068,1.38553,1.13305,2.51318,2.5237,2.51318,1.39337,0,2.52234-1.12968,2.5237-2.51318v-2.70609c0-.40612.33033-.73507.73815-.73507s.73815.32895.73815.73507v2.70609c0,1.09787-.44928,2.09353-1.17315,2.81574Z" fill="var(--iconPrimary, #222)"/>
  <path d="M5.17315,10.16758c.72455-.72153,1.72438-1.16758,2.82685-1.16758,2.20493,0,3.99932,1.78691,4,3.98332v5.99292c-.00068,2.19641-1.79507,3.98197-4,3.98332-.30246-.00068-.60153-.03452-.88836-.0995-.39762-.09002-.64639-.48396-.55599-.87992.09108-.39799.48666-.64302.8836-.55367.18148.04129.37111.06227.56279.06227,1.39065,0,2.52167-1.12765,2.52167-2.51251v-5.99292c-.00068-1.38553-1.13305-2.51318-2.5237-2.51318-1.39337,0-2.52234,1.12968-2.5237,2.51318v2.70609c0,.40612-.33033.73507-.73815.73507s-.73815-.32895-.73815-.73507v-2.70609c0-1.09787.44928-2.09353,1.17315-2.81574Z" fill="var(--iconPrimary, #222)"/>
</svg>