<?xml version="1.0" encoding="UTF-8"?>
<svg   xmlns="http://www.w3.org/2000/svg" width="20" height="20" viewBox="0 0 20 20">
  <circle cx="11.93799" cy="12.83356" r=".625" fill="var(--iconPrimary, #222)"/>
  <path d="M17.75,10h-6.5c-1.24023,0-2.25,1.00977-2.25,2.25v5.5c0,1.24023,1.00977,2.25,2.25,2.25h6.5c1.24023,0,2.25-1.00977,2.25-2.25v-5.5c0-1.24023-1.00977-2.25-2.25-2.25ZM11.25,11.5h6.5c.41309,0,.75.33691.75.75v1.75h-8v-1.75c0-.41309.33691-.75.75-.75ZM17.75,18.5h-6.5c-.41309,0-.75-.33691-.75-.75v-2.5h8v2.5c0,.41309-.33691.75-.75.75Z" fill="var(--iconPrimary, #222)"/>
  <path d="M6.74219,13.83496l-.57227.53516c-.8125.8125-2.22754.8125-3.04004,0-.40625-.40625-.62988-.94531-.62988-1.51953s.22363-1.11426.62988-1.52051l3.41699-3.41699c.83691-.83691,2.20117-.83691,3.03809-.00195.11523.11621.2168.24316.30176.37891.2207.34961.68164.45508,1.03516.23438.34961-.22168.45508-.68457.23438-1.03516-.14355-.22754-.31445-.44141-.50879-.63672-1.42383-1.42188-3.73926-1.42188-5.16113,0l-3.41699,3.41699c-.68945.68945-1.06934,1.60645-1.06934,2.58105s.37988,1.8916,1.06934,2.58008c.68848.68945,1.60547,1.06934,2.58008,1.06934s1.8916-.37988,2.5625-1.05176l.55371-.51758c.30273-.2832.31934-.75781.03613-1.05957-.28223-.30371-.75781-.31836-1.05957-.03613Z" fill="var(--iconPrimary, #222)"/>
  <path d="M9.90625,4.55371l1.42383-1.42383c.8125-.8125,2.22754-.8125,3.04004,0,.40625.40625.62988.94531.62988,1.51953s-.22363,1.11426-.62988,1.52051l-1.59082,1.59082c-.29297.29297-.29297.76758,0,1.06055.14648.14648.33789.21973.53027.21973s.38379-.07324.53027-.21973l1.59082-1.59082c.68945-.68945,1.06934-1.60645,1.06934-2.58105s-.37988-1.8916-1.06934-2.58008c-1.37695-1.37891-3.78223-1.37891-5.16113,0l-1.42383,1.42383c-.29297.29199-.29297.76758,0,1.06055.29199.29199.7666.29395,1.06055,0Z" fill="var(--iconPrimary, #222)"/>
  <path d="M7.86328,9.45996c-.2207-.34961-.68262-.4541-1.03516-.23438-.34961.22168-.45508.68457-.23438,1.03516.14355.22754.31445.44141.50684.63477.14648.14746.33984.22168.53223.22168.19141,0,.38281-.07227.52832-.21777.29395-.29199.2959-.76758.00391-1.06055-.11523-.11621-.2168-.24316-.30176-.37891Z" fill="var(--iconPrimary, #222)"/>
</svg>