<?xml version="1.0" encoding="UTF-8"?>
<svg xmlns="http://www.w3.org/2000/svg" width="20" height="20" viewBox="0 0 20 20">
  <path d="M8.45117,13.78125c-.50879,0-1.00977-.19824-1.39844-.58301-.65723-.64941-.78809-1.62305-.32617-2.42285l4.50098-7.79004h0c.35156-.6084.95312-1.01172,1.64844-1.10449.69629-.09668,1.38184.13477,1.88184.62988l2.89355,2.86328c.49902.49316.7373,1.17578.65137,1.87305-.08594.69824-.48145,1.30371-1.08691,1.66211l-7.7373,4.58691c-.32422.19141-.67676.28516-1.02734.28516ZM12.52637,3.73535l-4.50098,7.79004c-.17383.30176-.00098.52441.08105.60547.08301.08105.30664.25098.60645.07422l7.73828-4.58691c.20215-.11914.33398-.32129.36328-.55371.02832-.23242-.05078-.45898-.21777-.62402l-2.89355-2.86328c-.16602-.16504-.39551-.24609-.62695-.20996-.23242.03125-.43262.16504-.5498.36816Z" fill="var(--iconPrimary, #222)"/>
  <path d="M16.68359,17.84277c-.0957,0-.19336-.01855-.28711-.05664-1.4707-.6084-2.61914-.66895-3.54199-.7168-1.11914-.05664-2.3877.12891-3.60938.30664-2.62988.38379-5.61426.82227-6.66602-1.71582-.59277-1.42773-.14746-2.68262.20996-3.69043.28418-.80176.55176-1.55859.41797-2.46875-.11426-.77441-.39453-1.75098-1.07324-1.99707-.38965-.14062-.5918-.57129-.4502-.96094.1416-.38867.57324-.58887.95996-.44922,1.10449.39941,1.79297,1.47266,2.04785,3.1875.1875,1.2793-.1709,2.29297-.4873,3.1875-.32812.9248-.61133,1.72168-.24023,2.61719.56445,1.36035,2.29297,1.21094,5.06543.80566,1.2334-.17871,2.63574-.38184,3.90039-.32031.98535.05176,2.33203.12207,4.04102.82812.38281.1582.56445.59766.40625.98047-.12012.28809-.39941.46289-.69336.46289Z" fill="var(--iconPrimary, #222)"/>
</svg>