<?xml version="1.0" encoding="UTF-8"?>
<svg xmlns="http://www.w3.org/2000/svg" width="20" height="20" viewBox="0 0 20 20">
  <path d="M3,5.125c-.55225,0-1-.44727-1-1v-.25c0-.55273.44775-1,1-1s1,.44727,1,1v.25c0,.55273-.44775,1-1,1Z" fill="var(--iconPrimary, #222)"/>
  <path d="M3,8.125c-.55225,0-1-.44727-1-1v-.25c0-.55273.44775-1,1-1s1,.44727,1,1v.25c0,.55273-.44775,1-1,1Z" fill="var(--iconPrimary, #222)"/>
  <path d="M3,11.125c-.55225,0-1-.44727-1-1v-.25c0-.55273.44775-1,1-1s1,.44727,1,1v.25c0,.55273-.44775,1-1,1Z" fill="var(--iconPrimary, #222)"/>
  <path d="M6,11.125c-.55225,0-1-.44727-1-1v-.25c0-.55273.44775-1,1-1s1,.44727,1,1v.25c0,.55273-.44775,1-1,1Z" fill="var(--iconPrimary, #222)"/>
  <path d="M3,14.125c-.55225,0-1-.44727-1-1v-.25c0-.55273.44775-1,1-1s1,.44727,1,1v.25c0,.55273-.44775,1-1,1Z" fill="var(--iconPrimary, #222)"/>
  <path d="M6,8.125c-.55225,0-1-.44727-1-1v-.25c0-.55273.44775-1,1-1s1,.44727,1,1v.25c0,.55273-.44775,1-1,1Z" fill="var(--iconPrimary, #222)"/>
  <path d="M6,14.125c-.55225,0-1-.44727-1-1v-.25c0-.55273.44775-1,1-1s1,.44727,1,1v.25c0,.55273-.44775,1-1,1Z" fill="var(--iconPrimary, #222)"/>
  <path d="M3,17.125c-.55225,0-1-.44727-1-1v-.25c0-.55273.44775-1,1-1s1,.44727,1,1v.25c0,.55273-.44775,1-1,1Z" fill="var(--iconPrimary, #222)"/>
  <path d="M6,5.125c-.55225,0-1-.44727-1-1v-.25c0-.55273.44775-1,1-1s1,.44727,1,1v.25c0,.55273-.44775,1-1,1Z" fill="var(--iconPrimary, #222)"/>
  <path d="M6,17.125c-.55225,0-1-.44727-1-1v-.25c0-.55273.44775-1,1-1s1,.44727,1,1v.25c0,.55273-.44775,1-1,1Z" fill="var(--iconPrimary, #222)"/>
  <path d="M14,5.125c-.55225,0-1-.44727-1-1v-.25c0-.55273.44775-1,1-1s1,.44727,1,1v.25c0,.55273-.44775,1-1,1Z" fill="var(--iconPrimary, #222)" opacity=".5"/>
  <path d="M14,8.125c-.55225,0-1-.44727-1-1v-.25c0-.55273.44775-1,1-1s1,.44727,1,1v.25c0,.55273-.44775,1-1,1Z" fill="var(--iconPrimary, #222)" opacity=".5"/>
  <path d="M14,11.125c-.55225,0-1-.44727-1-1v-.25c0-.55273.44775-1,1-1s1,.44727,1,1v.25c0,.55273-.44775,1-1,1Z" fill="var(--iconPrimary, #222)" opacity=".5"/>
  <path d="M14,14.125c-.55225,0-1-.44727-1-1v-.25c0-.55273.44775-1,1-1s1,.44727,1,1v.25c0,.55273-.44775,1-1,1Z" fill="var(--iconPrimary, #222)" opacity=".5"/>
  <path d="M14,17.125c-.55225,0-1-.44727-1-1v-.25c0-.55273.44775-1,1-1s1,.44727,1,1v.25c0,.55273-.44775,1-1,1Z" fill="var(--iconPrimary, #222)" opacity=".5"/>
  <path d="M17,5.125c-.55225,0-1-.44727-1-1v-.25c0-.55273.44775-1,1-1s1,.44727,1,1v.25c0,.55273-.44775,1-1,1Z" fill="var(--iconPrimary, #222)" opacity=".5"/>
  <path d="M17,8.125c-.55225,0-1-.44727-1-1v-.25c0-.55273.44775-1,1-1s1,.44727,1,1v.25c0,.55273-.44775,1-1,1Z" fill="var(--iconPrimary, #222)" opacity=".5"/>
  <path d="M17,11.125c-.55225,0-1-.44727-1-1v-.25c0-.55273.44775-1,1-1s1,.44727,1,1v.25c0,.55273-.44775,1-1,1Z" fill="var(--iconPrimary, #222)" opacity=".5"/>
  <path d="M17,14.125c-.55225,0-1-.44727-1-1v-.25c0-.55273.44775-1,1-1s1,.44727,1,1v.25c0,.55273-.44775,1-1,1Z" fill="var(--iconPrimary, #222)" opacity=".5"/>
  <path d="M17,17.125c-.55225,0-1-.44727-1-1v-.25c0-.55273.44775-1,1-1s1,.44727,1,1v.25c0,.55273-.44775,1-1,1Z" fill="var(--iconPrimary, #222)" opacity=".5"/>
  <path d="M11,12.75c-.19189,0-.38379-.07324-.53027-.21973l-2-2c-.29297-.29297-.29297-.76758,0-1.06055l2-2c.29297-.29297.76758-.29297,1.06055,0s.29297.76758,0,1.06055l-1.46973,1.46973,1.46973,1.46973c.29297.29297.29297.76758,0,1.06055-.14648.14648-.33838.21973-.53027.21973Z" fill="var(--iconPrimary, #222)"/>
</svg>