<?xml version="1.0" encoding="UTF-8"?>
<svg xmlns="http://www.w3.org/2000/svg" width="20" height="20" viewBox="0 0 20 20">
  <path d="M14.95703,17l-.24609-.04199-3.25781-1.13281c-.9375-.32422-1.96924-.32422-2.90576,0l-3.50439,1.1748c-1.12646,0-2.04297-.91602-2.04297-2.04297l.0415-.24609,1.1333-3.25781c.32617-.9375.32617-1.96875,0-2.90625l-1.1748-3.50391c0-1.12695.9165-2.04297,2.04297-2.04297l.24609.04199,3.25781,1.13281c.9375.32422,1.96924.32422,2.90576,0l3.50439-1.1748c1.12646,0,2.04297.91602,2.04297,2.04297l-.0415.24609-1.1333,3.25781c-.32617.9375-.32617,1.96875,0,2.90625l1.1748,3.50391c0,1.12695-.9165,2.04297-2.04297,2.04297ZM4.50928,15.05762c.04102.21875.21436.39258.43359.43359l3.11182-1.08203c1.25391-.4375,2.63623-.4375,3.89111,0l3.11133,1.08203c.21924-.04102.39258-.21484.43359-.43359l-1.08252-3.1123c-.43604-1.25391-.43604-2.63672,0-3.89062l1.08252-3.1123c-.04102-.21875-.21436-.39258-.43359-.43359l-3.11182,1.08203c-1.25391.4375-2.63623.4375-3.89111,0l-3.11133-1.08203c-.21924.04102-.39258.21484-.43359.43359l1.08252,3.1123c.43604,1.25391.43604,2.63672,0,3.89062l-1.08252,3.1123Z" fill="var(--iconPrimary, #222)"/>
  <path d="M10,2.625c-.13818,0-.27637-.0459-.39062-.13672l-1.25-1c-.26953-.21582-.31299-.60938-.09766-.87891s.60889-.3125.87891-.09766l.85938.6875.85938-.6875c.26953-.21484.66406-.17188.87891.09766.21533.26953.17188.66309-.09766.87891l-1.25,1c-.11426.09082-.25244.13672-.39062.13672Z" fill="var(--iconPrimary, #222)"/>
  <path d="M19.00049,11.875c-.18359,0-.36523-.08008-.48877-.23438l-1-1.25c-.18213-.22852-.18213-.55273,0-.78125l1-1.25c.21533-.26953.60889-.3125.87891-.09766.26953.21582.31299.60938.09766.87891l-.68799.85938.68799.85938c.21533.26953.17188.66309-.09766.87891-.11523.0918-.25342.13672-.39014.13672Z" fill="var(--iconPrimary, #222)"/>
  <path d="M11.24951,19.625c-.13672,0-.2749-.04492-.39014-.13672l-.85938-.6875-.85938.6875c-.27002.21484-.66357.17188-.87891-.09766s-.17188-.66309.09766-.87891l1.25-1c.22852-.18164.55273-.18164.78125,0l1.25,1c.26953.21582.31299.60938.09766.87891-.12354.1543-.30518.23438-.48877.23438Z" fill="var(--iconPrimary, #222)"/>
  <path d="M.99951,11.875c-.13672,0-.2749-.04492-.39014-.13672-.26953-.21582-.31299-.60938-.09766-.87891l.68799-.85938-.68799-.85938c-.21533-.26953-.17188-.66309.09766-.87891.26953-.21484.66406-.17188.87891.09766l1,1.25c.18213.22852.18213.55273,0,.78125l-1,1.25c-.12354.1543-.30518.23438-.48877.23438Z" fill="var(--iconPrimary, #222)"/>
</svg>