<?xml version="1.0" encoding="UTF-8"?>
<svg xmlns="http://www.w3.org/2000/svg" width="20" height="20" viewBox="0 0 20 20">
  <path d="M10,15.99902c-.68799,0-1.37598-.08398-2.04443-.25098l-2.20752-.55176c-.4668-.11621-.8291-.47852-.94482-.94629l-.55127-2.20508c-.33496-1.33789-.33496-2.75195,0-4.08984l.55176-2.20605c.11523-.4668.47754-.8291.94531-.94531l2.20605-.55176c1.33789-.33398,2.75244-.33398,4.08936,0l2.20752.55176c.4668.11621.8291.47852.94482.94629l.55127,2.20508c.33496,1.33789.33496,2.75195,0,4.08984l-.55176,2.20605c-.11523.46582-.47754.8291-.94434.94531l-2.20703.55176c-.66895.16699-1.35693.25098-2.04492.25098ZM6.22949,13.77051l2.08984.52246c1.09863.27539,2.26123.27539,3.36182,0l2.08936-.52246.52246-2.08887c.27539-1.10059.27539-2.2627,0-3.36328l-.52246-2.08887-2.08984-.52246c-1.09863-.27539-2.26123-.27539-3.36182,0l-2.08936.52246-.52246,2.08887c-.27539,1.10059-.27539,2.2627,0,3.36328l.52246,2.08887ZM13.74072,13.88867h0ZM6.25879,13.88672v.00098-.00098ZM13.74121,6.1123v.00098-.00098ZM6.25928,6.11133h0Z" fill="var(--iconPrimary, #222)"/>
  <path d="M11.5,3.25c-.19189,0-.38379-.07324-.53027-.21973l-.96973-.96973-.96973.96973c-.29297.29297-.76758.29297-1.06055,0s-.29297-.76758,0-1.06055l1.5-1.5c.29297-.29297.76758-.29297,1.06055,0l1.5,1.5c.29297.29297.29297.76758,0,1.06055-.14648.14648-.33838.21973-.53027.21973Z" fill="var(--iconPrimary, #222)"/>
  <path d="M17.5,12.25c-.19189,0-.38379-.07324-.53027-.21973-.29297-.29297-.29297-.76758,0-1.06055l.96973-.96973-.96973-.96973c-.29297-.29297-.29297-.76758,0-1.06055s.76758-.29297,1.06055,0l1.5,1.5c.29297.29297.29297.76758,0,1.06055l-1.5,1.5c-.14648.14648-.33838.21973-.53027.21973Z" fill="var(--iconPrimary, #222)"/>
  <path d="M10,19.75c-.19189,0-.38379-.07324-.53027-.21973l-1.5-1.5c-.29297-.29297-.29297-.76758,0-1.06055s.76758-.29297,1.06055,0l.96973.96973.96973-.96973c.29297-.29297.76758-.29297,1.06055,0s.29297.76758,0,1.06055l-1.5,1.5c-.14648.14648-.33838.21973-.53027.21973Z" fill="var(--iconPrimary, #222)"/>
  <path d="M2.5,12.25c-.19189,0-.38379-.07324-.53027-.21973l-1.5-1.5c-.29297-.29297-.29297-.76758,0-1.06055l1.5-1.5c.29297-.29297.76758-.29297,1.06055,0s.29297.76758,0,1.06055l-.96973.96973.96973.96973c.29297.29297.29297.76758,0,1.06055-.14648.14648-.33838.21973-.53027.21973Z" fill="var(--iconPrimary, #222)"/>
</svg>