<?xml version="1.0" encoding="UTF-8"?>
<svg xmlns="http://www.w3.org/2000/svg" width="20" height="20" viewBox="0 0 20 20">
  <path d="M19.23779,4.78613c-.00488-.60352-.2583-1.15918-.69629-1.52441-.88135-.73535-2.26367-.53613-3.08545.44824-.06396.07715-2.62939,3.14746-4.43848,5.3125l-1.25452,1.50195c-.23523.01758-.4729.05347-.71033.11914-1.52979.4248-2.06885,1.69824-2.54443,2.82227-.36523.8623-.68066,1.60742-1.36523,1.97852-.28662.1543-.43994.47656-.38037.79688.05957.31934.31885.56445.6416.60645.68604.08789,1.44775.15137,2.21729.15137,1.61572,0,3.26367-.28125,4.3042-1.20996.71924-.6416,1.07617-1.50293,1.06152-2.56055-.00024-.02246-.00781-.0437-.00879-.06616,1.44031-1.72363,5.62866-6.73657,5.67236-6.78931.38281-.45801.59082-1.02148.58691-1.58691ZM10.92725,14.66992c-.66699.5957-1.99023.87598-3.74756.82129.29639-.46387.50928-.96777.70947-1.44043.45459-1.07324.77295-1.74219,1.56494-1.96191.57275-.15918,1.1333-.07812,1.53418.22363.31201.2334.49414.5752.49902.9375.00879.61133-.1748,1.07617-.56006,1.41992ZM17.49951,5.41113c-.04004.0481-3.39917,4.06958-5.13843,6.15137-.13806-.16504-.29492-.31738-.47339-.45117-.13855-.10376-.2937-.17822-.44714-.25562l.72791-.87134c1.82764-2.18652,4.4248-5.29492,4.44189-5.31641.28418-.33984.729-.45508.96924-.25586.13574.11426.15723.29004.1582.38477.00146.20801-.08496.43164-.23828.61426Z" fill="var(--iconPrimary, #222)"/>
  <path d="M3.2251,15.25293c-.18311,0-.36621-.06641-.51025-.2002l-1.72949-1.60645c-.30322-.28223-.3208-.75684-.03857-1.06055.28125-.30371.75781-.32031,1.05957-.03906l1.72949,1.60645c.30322.28223.3208.75684.03857,1.06055-.14746.15918-.34814.23926-.54932.23926Z" fill="var(--iconPrimary, #222)"/>
  <path d="M4.74561,12.71094c-.18457,0-.36963-.06738-.51465-.2041l-3.24951-3.06445c-.30127-.28418-.31494-.75879-.03076-1.06055.28369-.30078.75879-.31543,1.06006-.03125l3.24951,3.06445c.30127.28418.31494.75879.03076,1.06055-.14746.15625-.34619.23535-.54541.23535Z" fill="var(--iconPrimary, #222)"/>
  <path d="M6.11572,10.14453c-.18848,0-.37744-.07031-.52344-.21289L.97266,5.43359c-.29639-.28906-.30273-.76367-.01367-1.06055.28955-.29492.76416-.30273,1.06055-.01367l4.61963,4.49805c.29639.28906.30273.76367.01367,1.06055-.14697.15039-.3418.22656-.53711.22656Z" fill="var(--iconPrimary, #222)"/>
  <path d="M12.9751,18.87891c-.18311,0-.3667-.06641-.51123-.20117l-.36035-.33594c-.30322-.28223-.31982-.75684-.0376-1.06055.28418-.30176.75781-.31836,1.06006-.03711l.36035.33594c.30322.28223.31982.75684.0376,1.06055-.14795.1582-.34814.23828-.54883.23828Z" fill="var(--iconPrimary, #222)"/>
  <path d="M14.46826,16.42188c-.16943,0-.33789-.0625-.47559-.19336l-.05957-.05664c-.30029-.28613-.3125-.76074-.02686-1.06055.28516-.30078.75977-.3125,1.06006-.02734.30029.28613.34229.78906.05664,1.08887-.1543.16211-.35498.24902-.55469.24902Z" fill="var(--iconPrimary, #222)"/>
  <path d="M16.08887,17.94434c-.16895,0-.3374-.06055-.47607-.18652l-.0459-.04199c-.30566-.28027-.32666-.75391-.04688-1.05957s.75488-.32422,1.05957-.04785c.30566.28027.34961.77539.06982,1.08105-.15283.16699-.35693.25488-.56055.25488Z" fill="var(--iconPrimary, #222)"/>
  <path d="M17.6582,19.42676c-.16699,0-.3335-.06055-.47119-.18652l-.0542-.05078c-.30518-.2793-.3252-.75391-.04492-1.05957.28174-.30371.75586-.32324,1.05957-.04395.30518.2793.35205.7793.07178,1.08398-.15332.16699-.35742.25684-.56104.25684Z" fill="var(--iconPrimary, #222)"/>
  <path d="M15.95752,13.87891c-.18701,0-.37451-.06934-.52002-.20996l-.1958-.18848c-.29834-.28711-.30762-.76172-.02051-1.06055.28857-.29688.76318-.30762,1.06055-.01953l.1958.18848c.29834.28711.30762.76172.02051,1.06055-.14746.15234-.34375.22949-.54053.22949Z" fill="var(--iconPrimary, #222)"/>
  <path d="M17.84033,15.69531c-.18408,0-.36816-.06738-.5127-.20215l-.13867-.12988c-.30225-.2832-.31787-.75781-.03467-1.06055.2832-.30176.7583-.31641,1.06006-.03516l.13867.12988c.30225.2832.31787.75781.03467,1.06055-.14746.15723-.34717.2373-.54736.2373Z" fill="var(--iconPrimary, #222)"/>
</svg>