<?xml version="1.0" encoding="UTF-8"?>
<svg xmlns="http://www.w3.org/2000/svg" width="20" height="20" viewBox="0 0 20 20">
  <path d="M15.75015,1.99968H4.25015c-1.24023,0-2.25,1.00977-2.25,2.25v11.5c0,1.24023,1.00977,2.25,2.25,2.25h11.5c1.24023,0,2.25-1.00977,2.25-2.25V4.24968c0-1.24023-1.00977-2.25-2.25-2.25ZM13.72378,13.8698c.45776-.98218.80835-1.95386,1.00525-2.91577.21497.01514.42053.02319.61292.02319.45398,0,.83691-.03809,1.1582-.08838v3.87646c-.78223-.07568-1.74731-.43066-2.77637-.89551ZM11.8146,12.95281c-1.2251-.60669-2.40723-1.19165-3.47803-1.54858.35803-1.3772.52869-2.44995.53967-3.3689.53394.31299,1.08069.67041,1.60144,1.01123,1.0813.7085,2.11182,1.37842,3.02161,1.68726-.17615.84399-.49304,1.71289-.9071,2.60156-.25928-.12646-.5188-.25439-.77759-.38257ZM12.03372,14.45403c-.35852.67358-.75513,1.35669-1.1676,2.04565h-4.16113c.53772-1.50879.96509-2.78735,1.29321-3.88794.98877.33765,2.13647.90405,3.26172,1.46118.2572.12744.5155.25488.7738.3811ZM3.50015,8.73699c.66235-.66162,1.8147-1.60156,3.04297-1.60156.31055,0,.67444.10254,1.06421.25977.08533.8833-.02148,1.9646-.48071,3.70776-.21057-.03125-.41589-.05054-.61279-.05054-.96191,0-2.11182.69604-3.01367,1.37988v-3.69531ZM8.66617,6.2116c-.26587-1.05078-1.07385-1.99219-1.88013-2.71191h4.64502c.62402.97803,2.15625,3.61768,2.20361,5.95459-.71509-.30298-1.604-.88452-2.47241-1.45361-.80774-.52905-1.62939-1.06543-2.4248-1.46655-.02197-.10815-.04419-.21606-.07129-.32251ZM16.50015,4.24968v5.37085c-.36914.07202-.90796.13306-1.61255.09106.04932-2.32031-1.1731-4.81201-1.99023-6.21191h2.85278c.41309,0,.75.33691.75.75ZM4.25015,3.49968h.49243c.79956.53296,1.97388,1.46729,2.49976,2.4751-.23828-.05225-.47314-.08936-.69922-.08936-1.16992,0-2.23047.57422-3.04297,1.19556v-2.8313c0-.41309.33691-.75.75-.75ZM3.50015,15.74968v-1.70435c.94189-.82275,2.23975-1.74292,3.01367-1.74292.08264,0,.17542.01416.26416.02295-.34082,1.13232-.79956,2.49951-1.40161,4.17432h-1.12622c-.41309,0-.75-.33691-.75-.75ZM15.75015,16.49968h-3.4314c.29639-.50659.58081-1.01074.84644-1.51245,1.17163.53101,2.30151.94409,3.28125,1.0271-.10779.28223-.37695.48535-.69629.48535Z" fill="var(--iconPrimary, #222)"/>
</svg>