<?xml version="1.0" encoding="UTF-8"?>
<svg xmlns="http://www.w3.org/2000/svg" width="20" height="20" viewBox="0 0 20 20">
  <path d="M18.29785,3.26172c-.88135-.73535-2.26367-.53613-3.08545.44824-.06396.07715-2.62939,3.14746-4.43848,5.3125l-1.25439,1.50195c-.23547.01758-.47314.05322-.71045.11914-1.52979.4248-2.06885,1.69824-2.54443,2.82227-.36523.8623-.68066,1.60742-1.36523,1.97852-.28662.1543-.43994.47656-.38037.79688.05957.31934.31885.56445.6416.60645.68604.08789,1.44775.15137,2.21729.15137,1.61572,0,3.26367-.28125,4.3042-1.20996.71924-.6416,1.07617-1.50293,1.06152-2.56055-.00024-.02271-.00781-.04395-.00879-.06665,1.44067-1.72412,5.62866-6.73608,5.67285-6.78979.81885-.97949.76953-2.375-.10986-3.11035ZM10.68359,14.66992c-.66748.5957-1.99512.87598-3.74756.82129.29639-.46387.50928-.96777.70947-1.44043.45459-1.07324.77295-1.74219,1.56494-1.96191.57178-.15918,1.13281-.07812,1.53418.22363.31201.2334.49414.5752.49902.9375.00879.61133-.1748,1.07617-.56006,1.41992ZM17.25586,5.41113c-.04004.0481-3.39917,4.06909-5.13867,6.15088-.13794-.16479-.2948-.31714-.47314-.45068-.13855-.10376-.2937-.17822-.44727-.25562l.72803-.87134c1.82764-2.18652,4.4248-5.29492,4.44189-5.31641.28467-.34082.72754-.45508.96924-.25586.24072.20117.20459.65918-.08008.99902Z" fill="var(--iconPrimary, #222)"/>
  <path d="M2.97168,17H.8501c-.41406,0-.75-.33594-.75-.75s.33594-.75.75-.75h2.12158c.41406,0,.75.33594.75.75s-.33594.75-.75.75Z" fill="var(--iconPrimary, #222)"/>
  <path d="M18.97119,17c-.17822,0-.35693-.06348-.5-.19141l-1.7959-1.61035c-.28906-.25977-.73389-.25293-1.01611.01465l-1.67188,1.58203c-.30029.2832-.77539.27148-1.06055-.0293-.28467-.30078-.27148-.77539.0293-1.06055l1.67188-1.58203c.84473-.79883,2.18262-.81543,3.04834-.04199l1.7959,1.61035c.30859.27637.33447.75098.05811,1.05957-.14844.16504-.35303.24902-.55908.24902Z" fill="var(--iconPrimary, #222)"/>
</svg>