<?xml version="1.0" encoding="UTF-8"?>
<svg xmlns="http://www.w3.org/2000/svg" width="20" height="20" viewBox="0 0 20 20">
  <path d="M13.37598,18.68457c-.8252,0-1.65918-.19141-2.35352-.56836-.96191-.52051-1.58008-1.3584-1.74121-2.3584-.13965-.86914.05566-1.69141.53809-2.25684.3623-.4248.85352-.65918,1.38379-.65918.32812,0,.61719.21289.71582.52539.05469.16016.30859.70898.9541.63672.35449-.03711.63184-.51465.60449-1.04492-.03906-.75977-.71973-1.57227-2.51172-1.57227-2.67871,0-3.20508,2.86621-3.22656,2.98828-.06152.35938-.37402.625-.73926.625h-2.75c-1.24023,0-2.25-1.00977-2.25-2.25V4.25c0-1.24023,1.00977-2.25,2.25-2.25h8.5c1.24023,0,2.25,1.00977,2.25,2.25v2.26074c1.17188.57227,4,2.33398,4,6.01758,0,2.58691-1.38184,4.74414-3.69629,5.76953-.58398.25879-1.25293.38672-1.92773.38672ZM10.8916,14.57227c-.11621.19824-.19727.52441-.12988.94727.08789.54492.41602.97559.97559,1.27832.84668.46094,2.09277.51172,2.95898.12891,1.78125-.79004,2.80371-2.39258,2.80371-4.39844,0-3.48438-3.36523-4.77148-3.50781-4.82422-.29492-.10938-.49219-.39062-.49219-.7041v-2.75c0-.41309-.33691-.75-.75-.75H4.25c-.41309,0-.75.33691-.75.75v8.5c0,.41309.33691.75.75.75h2.15918c.46094-1.51172,1.7998-3.61328,4.55664-3.61328,2.84473,0,3.93848,1.61328,4.00977,2.99512.06934,1.3457-.78613,2.49316-1.94824,2.61426-1.01855.11035-1.72656-.38867-2.13574-.92383Z" fill="var(--iconPrimary, #222)"/>
</svg>