<?xml version="1.0" encoding="UTF-8"?>
<svg id="e" data-name="ICONS" xmlns="http://www.w3.org/2000/svg" width="20" height="20" viewBox="0 0 20 20">
  <path d="M4.5,16h-2c-.68945,0-1.25-.56055-1.25-1.25v-2c0-.68945.56055-1.25,1.25-1.25h2c.68945,0,1.25.56055,1.25,1.25v2c0,.68945-.56055,1.25-1.25,1.25ZM2.75,14.5h1.5v-1.5h-1.5v1.5ZM4.5,13h.00977-.00977Z" fill="var(--iconPrimary, #222)"/>
  <path d="M3.37402,7.78613c-.19531,0-.39062-.07617-.53809-.22754l-1.24805-1.28418c-.28809-.29688-.28125-.77148.01562-1.06055.29688-.28809.77051-.28125,1.06055.01562l1.24805,1.28418c.28809.29688.28125.77148-.01562,1.06055-.14551.1416-.33398.21191-.52246.21191Z" fill="var(--iconPrimary, #222)"/>
  <path d="M3.37305,7.78613c-.14941,0-.30078-.04492-.43262-.1377-.33789-.24023-.41797-.70801-.17871-1.0459l2-2.82227c.23926-.33789.70605-.41797,1.0459-.17871.33789.24023.41797.70801.17871,1.0459l-2,2.82227c-.14648.20605-.37793.31641-.61328.31641Z" fill="var(--iconPrimary, #222)"/>
  <path d="M17.25,14.52148h-9.25c-.41406,0-.75-.33594-.75-.75s.33594-.75.75-.75h9.25c.41406,0,.75.33594.75.75s-.33594.75-.75.75Z" fill="var(--iconPrimary, #222)"/>
  <path d="M17.25,6.52148h-9.25c-.41406,0-.75-.33594-.75-.75s.33594-.75.75-.75h9.25c.41406,0,.75.33594.75.75s-.33594.75-.75.75Z" fill="var(--iconPrimary, #222)"/>
</svg>