<?xml version="1.0" encoding="UTF-8"?>
<svg id="f" data-name="ICONS" xmlns="http://www.w3.org/2000/svg" width="20" height="20" viewBox="0 0 20 20">
  <path d="M8.06689,10c-1.37842,0-2.5-1.12109-2.5-2.5s1.12158-2.5,2.5-2.5,2.5,1.12109,2.5,2.5-1.12158,2.5-2.5,2.5ZM8.06689,6.5c-.55127,0-1,.44824-1,1s.44873,1,1,1,1-.44824,1-1-.44873-1-1-1Z" fill="var(--iconPrimary, #222)"/>
  <path d="M8.07129,18.58301c-.04053,0-.08105-.00195-.12158-.00391-.50977-.03418-.98145-.2793-1.29492-.67383-1.8999-2.39258-5.08789-6.92578-5.08789-10.41504,0-3.44629,2.91602-6.25,6.5-6.25s6.5,2.80371,6.5,6.25c0,.31836-.02588.6543-.07715.99902-.06006.41016-.44727.68457-.85156.63281-.40967-.06055-.69287-.44238-.63184-.85156.03906-.2666.06055-.52637.06055-.78027,0-2.61914-2.24316-4.75-5-4.75S3.06689,4.87109,3.06689,7.49023c0,3.14648,3.33057,7.67871,4.7627,9.48145.06982.08789.16699.10742.21924.11035.09814.00684.1792-.02441.23926-.08203.29834-.28711.77344-.27734,1.06055.01953.2876.29785.27881.77246-.01953,1.06055-.33496.32324-.78809.50293-1.25781.50293Z" fill="var(--iconPrimary, #222)"/>
  <path d="M15.0661,10.49976c-2.48529,0-4.5,2.01465-4.5,4.5s2.01471,4.5,4.5,4.5,4.5-2.01477,4.5-4.5-2.01477-4.5-4.5-4.5ZM16.94574,15.33813l-2.72986,3.0647c-.21124.23706-.59741,0-.4726-.29041l.92078-2.14709-1.30267-.54907c-.30377-.12817-.3927-.5105-.17462-.75513l2.72986-3.06445c.21082-.23718.59735,0,.47266.29028l-.9212,2.14722,1.30267.54907c.30414.12817.39233.51025.17499.75488Z" fill="var(--iconPrimary, #222)"/>
</svg>