<?xml version="1.0" encoding="UTF-8"?>
<svg id="ICONS" xmlns="http://www.w3.org/2000/svg" width="16" height="16" viewBox="0 0 16 16">
  <path d="m11.75,6.02527v-.27527c0-2.06738-1.68262-3.75-3.75-3.75s-3.75,1.68262-3.75,3.75v.27527c-.70795.11987-1.25.73322-1.25,1.47473v5c0,.82715.67285,1.5,1.5,1.5h7c.82715,0,1.5-.67285,1.5-1.5v-5c0-.74152-.54199-1.35486-1.25-1.47473Zm-3.75-2.52527c1.24023,0,2.25,1.00977,2.25,2.25v.25h-4.5v-.25c0-1.24023,1.00977-2.25,2.25-2.25Zm3.49902,9h-6.99902v-5h7l-.00098,5Z" fill="var(--iconPrimary, #222)"/>
</svg>