<?xml version="1.0" encoding="UTF-8"?>
<svg id="ICONS" xmlns="http://www.w3.org/2000/svg" width="16" height="16" viewBox="0 0 16 16">
  <path d="m11.5,6h-5.75v-1.86719c0-1.31348,1.06934-2.38281,2.38281-2.38281.75195,0,1.44434.34375,1.89844.94238.25.3291.71973.39453,1.05078.14453.33008-.25098.39453-.7207.14453-1.05078-.74121-.97656-1.86816-1.53613-3.09375-1.53613-2.14062,0-3.88281,1.74219-3.88281,3.88281v1.89246c-.70801.11987-1.25.73322-1.25,1.47473v5c0,.82715.67285,1.5,1.5,1.5h7c.82715,0,1.5-.67285,1.5-1.5v-5c0-.82715-.67285-1.5-1.5-1.5Zm-.00098,6.5h-6.99902v-5h7l-.00098,5Z" fill="var(--iconPrimary, #222)"/>
</svg>