<?xml version="1.0" encoding="UTF-8"?>
<svg id="e" data-name="ICONS" xmlns="http://www.w3.org/2000/svg" width="20" height="20" viewBox="0 0 20 20">
  <path d="M14,7.02539v-.52539c0-2.75684-2.24316-5-5-5s-5,2.24316-5,5v.52539c-1.12189.12646-2,1.06982-2,2.22461v6.5c0,1.24023,1.00928,2.25,2.25,2.25h5c.41406,0,.75-.33594.75-.75s-.33594-.75-.75-.75h-5c-.41357,0-.75-.33691-.75-.75v-6.5c0-.41309.33643-.75.75-.75h9.5c.41357,0,.75.33691.75.75,0,.41406.33594.75.75.75s.75-.33594.75-.75c0-1.15479-.87811-2.09814-2-2.22461ZM9,3c1.92969,0,3.5,1.57031,3.5,3.5v.5h-7v-.5c0-1.92969,1.57031-3.5,3.5-3.5Z" fill="var(--iconPrimary, #222)"/>
  <path d="M10.25,11.5c0-.68945-.56055-1.25-1.25-1.25s-1.25.56055-1.25,1.25c0,.40283.20361.74512.5.97363v.77637c0,.41406.33594.75.75.75s.75-.33594.75-.75v-.77637c.29639-.22852.5-.5708.5-.97363Z" fill="var(--iconPrimary, #222)"/>
  <g>
    <path d="M19,16.5h-4.93945l.71973-.71973c.29297-.29297.29297-.76758,0-1.06055s-.76758-.29297-1.06055,0l-2,2c-.29297.29297-.29297.76758,0,1.06055l2,2c.14648.14648.33838.21973.53027.21973s.38379-.07324.53027-.21973c.29297-.29297.29297-.76758,0-1.06055l-.71973-.71973h4.93945c.41406,0,.75-.33594.75-.75s-.33594-.75-.75-.75Z" fill="var(--iconPrimary, #222)"/>
    <path d="M12.25,13.5h4.93945l-.71973.71973c-.29297.29297-.29297.76758,0,1.06055.14648.14648.33838.21973.53027.21973s.38379-.07324.53027-.21973l2-2c.29297-.29297.29297-.76758,0-1.06055l-2-2c-.29297-.29297-.76758-.29297-1.06055,0s-.29297.76758,0,1.06055l.71973.71973h-4.93945c-.41406,0-.75.33594-.75.75s.33594.75.75.75Z" fill="var(--iconPrimary, #222)"/>
  </g>
</svg>