<?xml version="1.0" encoding="UTF-8"?>
<svg id="e" data-name="ICONS" xmlns="http://www.w3.org/2000/svg" width="20" height="20" viewBox="0 0 20 20">
  <path d="M10,8.75c-.41406,0-.75-.33594-.75-.75V2c0-.41406.33594-.75.75-.75s.75.33594.75.75v6c0,.41406-.33594.75-.75.75Z" fill="var(--iconPrimary, #222)"/>
  <path d="M10,18.75c-4.54883,0-8.25-3.70117-8.25-8.25,0-3.27734,1.94287-6.24414,4.94922-7.55957.38232-.16406.82227.00781.98779.38672.16602.37988-.00684.82227-.38623.98828-2.46094,1.07617-4.05078,3.50391-4.05078,6.18457,0,3.72168,3.02783,6.75,6.75,6.75s6.75-3.02832,6.75-6.75c0-2.68066-1.58984-5.1084-4.05078-6.18457-.37939-.16602-.55225-.6084-.38623-.98828.16553-.37891.60596-.55078.98779-.38672,3.00635,1.31543,4.94922,4.28223,4.94922,7.55957,0,4.54883-3.70117,8.25-8.25,8.25Z" fill="var(--iconPrimary, #222)"/>
</svg>