<?xml version="1.0" encoding="UTF-8"?>
<svg id="e" data-name="ICONS" xmlns="http://www.w3.org/2000/svg" width="20" height="20" viewBox="0 0 20 20">
  <path d="M15.99048,6.81104c-.10107-3.2207-2.74561-5.81104-5.99048-5.81104-3.24585,0-5.89136,2.59204-5.9906,5.81421-1.84509,1.07666-2.98206,3.00269-2.98206,5.15063,0,3.30859,2.69141,6,6,6,1.05176,0,2.06543-.29053,2.97412-.81494.90112.51196,1.90344.79541,2.94189.79541,3.30859,0,6-2.69141,6-6,0-2.13623-1.12524-4.0542-2.95288-5.13428ZM12.94336,16.44531c-.86389,0-1.69702-.25732-2.42798-.72998-.0603-.05371-.12427-.0957-.19653-.12646-1.17383-.84888-1.87549-2.20361-1.87549-3.64355l.00488-.21289c.02734-.48242.13281-.9541.3125-1.40234.1543-.38477-.0332-.82129-.41699-.97559-.38574-.15234-.82227.03223-.97559.41699-.24023.59961-.38086,1.23047-.41895,1.89258l-.00586.28125c0,1.57983.6377,3.07788,1.73071,4.19067-.52319.20874-1.0769.32886-1.64673.32886-2.48145,0-4.5-2.01855-4.5-4.5,0-1.69312.94189-3.2085,2.45947-3.9856.62048-.31079,1.31409-.47925,2.01318-.47925,1.42285,0,2.77734.68457,3.62305,1.83008.14746.19922.37402.30469.60449.30469.1543,0,.31055-.04785.44434-.14648.33301-.24609.4043-.71582.1582-1.04883-1.12793-1.52734-2.93359-2.43945-4.83008-2.43945-.47778,0-.95374.05859-1.41626.17065.39124-2.08569,2.21875-3.67065,4.41626-3.67065,2.48145,0,4.5,2.01855,4.49512,4.53809-.00659.05151-.01196.10303-.01489.15527-.00024.00171-.00049.00342-.00049.00513-.00012.00049-.00024.00122-.00024.00171s.00024.00073.00024.00122c0,.00024-.00024.00049-.00024.00073-.09766,2.15723-1.70703,3.94434-3.82812,4.25098-.41016.05859-.69434.43945-.63477.84961.05371.37305.37402.64258.74121.64258.03613,0,.07227-.00293.1084-.00781,2.41992-.34961,4.32983-2.14502,4.91895-4.45239,1.03723.84155,1.6582,2.09082,1.6582,3.46021,0,2.48145-2.01855,4.5-4.5,4.5Z" fill="var(--iconPrimary, #222)"/>
</svg>