<?xml version="1.0" encoding="UTF-8"?>
<svg id="e" data-name="ICONS" xmlns="http://www.w3.org/2000/svg" width="20" height="20" viewBox="0 0 20 20">
  <path d="M8.9834,14.03027c-.32129-.63184-.4834-1.31445-.4834-2.03027,0-.57715.10742-1.13965.32031-1.6709.1543-.38379-.0332-.82031-.41797-.97461-.38184-.15234-.82129.03223-.97461.41797-.28418.70898-.42773,1.45801-.42773,2.22754,0,.94043.22363,1.87695.64551,2.70996.13281.25977.39648.41016.66992.41016.11426,0,.22949-.02637.33887-.08105.36914-.1875.5166-.63867.3291-1.00879Z" fill="var(--iconPrimary, #222)"/>
  <path d="M6.79297,16.49512c-2.40723-.1084-4.29297-2.08301-4.29297-4.49512,0-2.48145,2.01855-4.5,4.5-4.5,1.42285,0,2.77734.68457,3.62305,1.83105.24609.33203.71582.40332,1.04883.1582.33301-.24609.4043-.71582.1582-1.04883-1.12695-1.52832-2.93262-2.44043-4.83008-2.44043-.48877,0-.96155.06519-1.41675.17603.38916-2.08813,2.21753-3.67603,4.41675-3.67603,2.48145,0,4.5,2.01855,4.5,4.5,0,2.22168-1.6543,4.13574-3.84863,4.45312-.41016.05957-.69434.43945-.63477.84961.05371.37305.375.64258.74121.64258.03613,0,.07227-.00293.1084-.00781,2.42407-.3501,4.33325-2.16943,4.9248-4.46411.89014.70288,1.49243,1.71826,1.66016,2.8645.05469.37207.375.64062.74121.64062.03613,0,.07324-.00293.11035-.00781.40918-.06055.69238-.44141.63281-.85156-.26831-1.82349-1.36011-3.39746-2.94531-4.31055-.10229-3.21948-2.74634-5.80859-5.99023-5.80859-3.24304,0-5.88635,2.5874-5.99023,5.80566-1.7959,1.03809-3.00977,2.9751-3.00977,5.19434,0,3.2168,2.51562,5.84961,5.72656,5.99316.01074.00098.02246.00098.03418.00098.39844,0,.73047-.31445.74805-.7168.01855-.41309-.30176-.76367-.71582-.78223Z" fill="var(--iconPrimary, #222)"/>
  <path d="M15.13379,12.75c-2.35449,0-4.26709,1.87402-4.35791,4.20654l-.48682-.48682c-.29297-.29297-.76758-.29297-1.06055,0s-.29297.76758,0,1.06055l1.75,1.75c.14648.14648.33789.21973.53027.21973s.38379-.07324.53027-.21973l1.75-1.75c.29297-.29297.29297-.76758,0-1.06055s-.76758-.29297-1.06055,0l-.44885.44873c.10803-1.4873,1.33984-2.66846,2.85413-2.66846,1.58496,0,2.875,1.29004,2.87598,2.83789-.00293.02344-.01172.10352-.0127.12695-.01855.40039.2832.71582.68164.75391.39941.03809.75977-.27148.81641-.66797.00488-.03516.01367-.14062.01367-.17578,0-2.41211-1.96289-4.375-4.375-4.375Z" fill="var(--iconPrimary, #222)"/>
</svg>