<?xml version="1.0" encoding="UTF-8"?>
<svg xmlns="http://www.w3.org/2000/svg" width="20" height="20" viewBox="0 0 20 20">
  <path d="M15.8125,1H4.1875c-1.76041,0-3.1875,1.42709-3.1875,3.1875v11.125c0,1.76041,1.42709,3.1875,3.1875,3.1875h11.625c1.76041,0,3.1875-1.42709,3.1875-3.1875V4.1875c0-1.76041-1.42709-3.1875-3.1875-3.1875ZM10.57379,13.24506c-.00104.03609-.01892.06961-.04831.09057-.0224.01164-.04723.01785-.07248.0181h-4.75753c-.08054,0-.12079-.04427-.12076-.13281v-7.66764c-.00749-.05253.02901-.10118.08154-.10867.00901-.00128.01815-.00128.02716,0h1.47315c.04092-.00576.07877.02275.08453.06367.00097.00692.00097.01394,0,.02086v6.30317h3.46551c.07245,0,.10063.03622.08454.10867l-.21735,1.30408ZM15.25879,7.34039v1.46109c0,.0564-.04025.08457-.12076.08451-.4864-.03009-.97293.05688-1.41879.2536-.15153.06553-.28891.15984-.40451.27771v3.82779c0,.07245-.03221.10867-.09662.10867h-1.46111c-.05833.00837-.11239-.03213-.12076-.09046-.00144-.01005-.00144-.02025,0-.0303v-4.15381c0-.17697-.002-.36414-.006-.56149-.00412-.19717-.01016-.39238-.01813-.58563-.00534-.16589-.02145-.33126-.04825-.49506-.00962-.03708.01265-.07493.04973-.08455.0114-.00296.02337-.00296.03478-.00001h1.31616c.07345.00062.13755.04993.157.12076.02874.0529.04911.10993.06039.16906.01686.07768.02896.15632.03623.23548.00793.0845.01195.17505.01208.27166.22572-.26282.49793-.48181.803-.646.34269-.18529.72744-.27888,1.11695-.2717.05251-.0075.10117.02899.10867.0815.00129.00901.00129.01816,0,.02717h-.00006Z" fill="var(--iconPrimary, #222)"/>
</svg>