<?xml version="1.0" encoding="UTF-8"?>
<svg   xmlns="http://www.w3.org/2000/svg" width="20" height="20" viewBox="0 0 20 20">
  <circle cx="8" cy="13.69149" r=".86972" fill="var(--iconPrimary, #222)" stroke-width="0"/>
  <path d="M8,18.5c-3.30859,0-6-2.69141-6-6v-5c0-3.30859,2.69141-6,6-6,.94434,0,1.85449.22461,2.70605.66797.36719.19141.50977.64355.31836,1.01172-.19043.36719-.63867.51074-1.01172.31836-.63477-.33008-1.31152-.49805-2.0127-.49805-2.48145,0-4.5,2.01855-4.5,4.5v5c0,2.48145,2.01855,4.5,4.5,4.5s4.5-2.01855,4.5-4.5c0-.41406.33594-.75.75-.75s.75.33594.75.75c0,3.30859-2.69141,6-6,6Z" fill="var(--iconPrimary, #222)" stroke-width="0"/>
  <path d="M16.67871,7.90918l-1.05371,1.05432V3.69763l1.05371,1.05432c.12207.12207.28223.18262.44238.18262s.32031-.06055.44238-.18262c.24316-.24414.24316-.64062,0-.88477l-2.12109-2.12109c-.24414-.24414-.64062-.24414-.88477,0l-2.12109,2.12109c-.24316.24414-.24316.64062,0,.88477.24414.24414.64062.24414.88477,0l1.05371-1.05432v5.26587l-1.05371-1.05432c-.24414-.24414-.64062-.24414-.88477,0-.24316.24414-.24316.64062,0,.88477l2.12109,2.12109c.12207.12207.28223.18262.44238.18262s.32031-.06055.44238-.18262l2.12109-2.12109c.24316-.24414.24316-.64062,0-.88477-.24414-.24414-.64062-.24414-.88477,0Z" fill="var(--iconPrimary, #222)" stroke-width="0"/>
</svg>