<?xml version="1.0" encoding="UTF-8"?>
<svg   xmlns="http://www.w3.org/2000/svg" width="20" height="20" viewBox="0 0 20 20">
  <circle cx="8" cy="13.69149" r=".86972" fill="var(--iconPrimary, #222)" stroke-width="0"/>
  <path d="M8,18.5c-3.30859,0-6-2.69141-6-6v-5c0-3.30859,2.69141-6,6-6,.94434,0,1.85449.22461,2.70605.66797.36719.19141.50977.64355.31836,1.01172-.19043.36719-.63965.51074-1.01172.31836-.63477-.33008-1.31152-.49805-2.0127-.49805-2.48145,0-4.5,2.01855-4.5,4.5v5c0,2.48145,2.01855,4.5,4.5,4.5s4.5-2.01855,4.5-4.5v-.38184c0-.41406.33594-.75.75-.75s.75.33594.75.75v.38184c0,3.30859-2.69141,6-6,6Z" fill="var(--iconPrimary, #222)" stroke-width="0"/>
  <path d="M19.02051,6.55762l-2.12109-2.12109c-.24414-.24414-.64062-.24414-.88477,0-.24316.24414-.24316.64062,0,.88477l1.0542,1.05371h-5.2666l1.0542-1.05371c.24414-.24414.24512-.63965.00098-.88379s-.63965-.24512-.88379-.00098l-2.12207,2.12109c-.11816.11719-.18359.27637-.18359.44238s.06543.3252.18359.44238l2.12207,2.12109c.12207.12207.28125.18262.44141.18262s.32031-.06152.44238-.18359c.24414-.24414.24316-.63965-.00098-.88379l-1.0542-1.05371h5.2666l-1.0542,1.05371c-.24316.24414-.24316.64062,0,.88477.12207.12207.28223.18262.44238.18262s.32031-.06055.44238-.18262l2.12109-2.12109c.24316-.24414.24316-.64062,0-.88477Z" fill="var(--iconPrimary, #222)" stroke-width="0"/>
</svg>