<?xml version="1.0" encoding="UTF-8"?>
<svg   xmlns="http://www.w3.org/2000/svg" width="20" height="20" viewBox="0 0 20 20">
  <path d="M15.5625,4.04004c-.40625-.06543-.78906.22656-.84668.6377-.05859.41016.22754.78906.6377.84668,1.22363.17285,2.14648,1.2373,2.14648,2.47559v6.75c0,.41309-.33691.75-.75.75h-7.75v-7.5c0-.95068-.34692-1.81299-.90259-2.5h1.95239c.41406,0,.75-.33594.75-.75s-.33594-.75-.75-.75h-4.7998c-.02954,0-.05469.01343-.08337.01685-.05652-.00244-.1095-.01685-.16663-.01685-2.20605,0-4,1.79395-4,4v6.75c0,1.24023,1.00977,2.25,2.25,2.25h13.5c1.24023,0,2.25-1.00977,2.25-2.25v-6.75c0-1.98145-1.47754-3.68359-3.4375-3.95996ZM3.25,15.5c-.41309,0-.75-.33691-.75-.75v-6.75c0-1.37891,1.12109-2.5,2.5-2.5s2.5,1.12109,2.5,2.5v7.5H3.25Z" fill="var(--iconPrimary, #222)" stroke-width="0"/>
  <path d="M12.75,9h-.00488c-.41406-.00293-.74805-.34082-.74512-.75488l.03516-5.50684c.00684-.95898.79199-1.73828,1.75-1.73828h2.00684c.41406,0,.75.33594.75.75s-.33594.75-.75.75h-2.00684c-.13672,0-.24902.11133-.25.24805l-.03516,5.50684c-.00293.41211-.33789.74512-.75.74512Z" fill="var(--iconPrimary, #222)" stroke-width="0"/>
  <path d="M5,12.75c-.41406,0-.75-.33594-.75-.75v-2c0-.41406.33594-.75.75-.75s.75.33594.75.75v2c0,.41406-.33594.75-.75.75Z" fill="var(--iconPrimary, #222)" stroke-width="0"/>
</svg>