<?xml version="1.0" encoding="UTF-8"?>
<svg id="e" data-name="ICONS" xmlns="http://www.w3.org/2000/svg" width="20" height="20" viewBox="0 0 20 20">
  <path d="M15.75,18H4.25c-1.24023,0-2.25-1.00977-2.25-2.25V4.25c0-1.24023,1.00977-2.25,2.25-2.25h11.5c1.24023,0,2.25,1.00977,2.25,2.25v11.5c0,1.24023-1.00977,2.25-2.25,2.25ZM4.25,3.5c-.41309,0-.75.33691-.75.75v11.5c0,.41309.33691.75.75.75h11.5c.41309,0,.75-.33691.75-.75V4.25c0-.41309-.33691-.75-.75-.75H4.25Z" fill="var(--iconPrimary, #222)"/>
  <path d="M15.75,2.75H4.25c-.82849,0-1.5.67163-1.5,1.5v11.5c0,.82837.67151,1.5,1.5,1.5h11.5c.82837,0,1.5-.67163,1.5-1.5V4.25c0-.82837-.67163-1.5-1.5-1.5ZM13.75,12.25c0,.82837-.67163,1.5-1.5,1.5h-4.5c-.82837,0-1.5-.67163-1.5-1.5v-4.5c0-.82837.67163-1.5,1.5-1.5h4.5c.82837,0,1.5.67163,1.5,1.5v4.5Z" fill="var(--iconPrimary, #222)" opacity=".2"/>
  <path d="M12.25,14.5h-4.5c-1.24023,0-2.25-1.00977-2.25-2.25v-4.5c0-1.24023,1.00977-2.25,2.25-2.25h4.5c1.24023,0,2.25,1.00977,2.25,2.25v4.5c0,1.24023-1.00977,2.25-2.25,2.25ZM7.75,7c-.41309,0-.75.33691-.75.75v4.5c0,.41309.33691.75.75.75h4.5c.41309,0,.75-.33691.75-.75v-4.5c0-.41309-.33691-.75-.75-.75h-4.5Z" fill="var(--iconPrimary, #222)"/>
</svg>