<?xml version="1.0" encoding="UTF-8"?>
<svg xmlns="http://www.w3.org/2000/svg" width="28.00005" height="28" viewBox="0 0 28.00005 28">
  <g id="circles">
    <circle id="Ellipse_10213" data-name="Ellipse 10213" cx="14.00002" cy="14" r="14.00001" fill="#e434a3"/>
  </g>
  <g id="ICONS">
    <rect id="S2_Icon_PromoteEmail_20_N" x="5" y="5" width="18" height="18" transform="translate(28 0) rotate(90)" fill="none" opacity=".1"/>
    <g>
      <path d="M20.52368,15.34912h-4.95c-1.11665,0-2.025.90879-2.025,2.025v3.15c0,1.11621.90835,2.025,2.025,2.025h4.95c1.11665,0,2.025-.90879,2.025-2.025v-3.15c0-1.11621-.90835-2.025-2.025-2.025ZM20.39377,16.69912l-2.35959,1.771-2.27208-1.771h4.63167ZM20.52368,21.19912h-4.95c-.37222,0-.675-.30322-.675-.675v-2.78624l2.27681,1.77374c.2606.22676.58799.33926.91055.33926.31333,0,.62227-.10635.86001-.31465l2.25264-1.74364v2.73153c0,.37178-.30278.675-.675.675Z" fill="#fff"/>
      <path d="M12.909,13.33445c.64962.04021,1.70118.16985,3.43196.52053.11206.02197.22412.0334.33574.0334.43813,0,.86353-.16963,1.18301-.48164.4021-.39199.58403-.95713.48647-1.50996l-.88945-5.04316c-.098-.55547-.46362-1.0248-.97778-1.25596-.51196-.23115-1.10479-.19248-1.58247.10547-1.83076,1.12939-3.24097,1.84131-3.86851,1.95293-.00011,0-.00027.00022-.00038.00022l-3.18829.5614h-.00088c-1.56973.27686-2.62178,1.77803-2.34536,3.346.13403.76025.55635,1.42295,1.18872,1.86504.49131.34365,1.06348.52295,1.65146.52295.16919,0,.3397-.01494.50977-.04482h.00005l2.10405,3.30029c.02813.04395.08306.10723.12832.15205.1314.14238.31289.21709.49658.21709.14106,0,.28301-.04395.40474-.13535.29795-.22324.35859-.646.13491-.94482-.0145-.01934-.03691-.04482-.06064-.06943l-1.76874-2.77383,1.10407-.19479.8532,1.33737c.20083.31377.61919.40518.93208.20479.31421-.20039.40605-.61787.20522-.93252l-.46785-.73323ZM15.6062,6.85098c.13491-.08174.25884-.04834.3208-.02109.05054.02285.17095.09316.19995.25752l.88945,5.04316c.029.16436-.05977.27158-.09932.31025-.04878.04746-.15161.12305-.3085.09053-1.84845-.37408-3.23053-.5603-4.13437-.56151l-.55931-3.17241c.85968-.3108,2.09301-.95944,3.6913-1.94645ZM7.45566,12.32305c-.33662-.23643-.56162-.58887-.63281-.99316-.14766-.83496.41309-1.63477,1.24937-1.7833l2.52554-.44385.53438,3.02959-2.07993.3665c-.00077.00011-.00126.00077-.00203.00088l-.44313.07822c-.40518.07031-.81387-.01934-1.15137-.25488Z" fill="#fff"/>
    </g>
  </g>
</svg>