<?xml version="1.0" encoding="UTF-8"?>
<svg xmlns="http://www.w3.org/2000/svg" width="20" height="20" viewBox="0 0 20 20">
  <circle cx="10" cy="10" r="5.75" fill="var(--iconPrimary, #222)" opacity=".35"/>
  <path d="m13.44336,17.97363c-.27979,0-.54834-.15723-.67725-.42676-.17871-.37402-.02051-.82129.35352-1,.33545-.16016.66016-.34766.96484-.55566.34229-.23438.80859-.14551,1.04248.19531.23389.3418.146.80859-.1958,1.04297-.36768.25195-.75977.47754-1.16504.6709-.10449.0498-.21436.07324-.32275.07324Z" fill="var(--iconPrimary, #222)"/>
  <path d="m5.46729,4.1582c-.23828,0-.47266-.11328-.61816-.32422-.23486-.3418-.14893-.80859.19238-1.04297.37012-.25586.76172-.4834,1.1626-.67578.37402-.18164.82178-.02246,1.00098.35059.17969.37305.02246.82129-.35059,1.00098-.33154.15918-.65527.34766-.9624.55859-.12988.08984-.27783.13281-.4248.13281Z" fill="var(--iconPrimary, #222)"/>
  <path d="m8.99259,2.68237c-.20643-.11901-.3529-.33421-.37361-.58963-.03276-.41342.27484-.7749.68759-.80748.44844-.0368.90134-.03834,1.34473-.00479.41475.02945.72316.39098.69208.80367-.03065.41293-.39074.72273-.80367.69208-.36673-.02769-.74133-.02609-1.11276.00325-.1574.01296-.30703-.02371-.43436-.09711Z" fill="var(--iconPrimary, #222)"/>
  <path d="m14.49854,4.13477c-.14551,0-.29248-.04199-.42188-.12988-.30762-.20996-.63232-.39648-.96631-.55469-.37402-.17871-.53271-.62598-.35498-1,.17773-.37305.62549-.53223.99951-.35547.40283.19238.79541.41699,1.1665.66992.34229.2334.43066.7002.19775,1.04199-.14551.21387-.38086.32812-.62061.32812Z" fill="var(--iconPrimary, #222)"/>
  <path d="m17.2041,7.26562c-.27832,0-.5459-.15527-.67529-.42285-.16064-.33203-.34961-.65527-.56152-.96289-.23535-.34082-.1499-.80762.19092-1.04297s.80762-.15039,1.04346.19141c.25537.36914.48291.75977.67676,1.16016.18066.37305.0249.82129-.34814,1.00195-.10498.05078-.21631.0752-.32617.0752Z" fill="var(--iconPrimary, #222)"/>
  <path d="m16.58887,15.28809c-.14697,0-.29492-.04297-.4248-.13184-.34131-.23535-.42725-.70215-.19238-1.04297.21094-.30664.39941-.63086.56055-.96484.17969-.37305.62842-.53125,1.00146-.34961.37305.18066.5293.62891.34912,1.00195-.19434.40234-.42139.79297-.67578,1.16211-.14551.21191-.37988.3252-.61816.3252Z" fill="var(--iconPrimary, #222)"/>
  <path d="m9.00233,18.63491c-.24239-.13974-.39652-.41008-.37358-.70797.03199-.41329.39243-.72176.80572-.68977.3706.02879.74556.02853,1.11341.00051.4136-.03209.77319.2778.80559.68988.03191.41293-.27738.77343-.69055.80577-.44437.03464-.89672.03424-1.3444-.00066-.1154-.00904-.22229-.04361-.3162-.09775Z" fill="var(--iconPrimary, #222)"/>
  <path d="m6.53906,17.96484c-.10938,0-.22021-.02344-.32471-.07422-.40332-.19434-.79443-.4209-1.16309-.67383-.34131-.23438-.42871-.70117-.19434-1.04199.23486-.3418.70117-.42773,1.04297-.19434.30566.20898.63037.39746.96484.55859.37354.17969.53027.62793.35059,1.00098-.12939.26855-.39746.4248-.67627.4248Z" fill="var(--iconPrimary, #222)"/>
  <path d="m3.39893,15.27148c-.23828,0-.47314-.11328-.61865-.3252-.25342-.36914-.47998-.75977-.67285-1.16309-.1792-.37402-.02148-.82129.35254-1.00098.37451-.17676.82129-.02051,1,.35254.15967.33301.34668.65723.55664.96191.23438.34082.14795.80859-.19336,1.04297-.12988.08887-.27783.13184-.42432.13184Z" fill="var(--iconPrimary, #222)"/>
  <path d="m2.01904,11.35547c-.37939,0-.70215-.27441-.74072-.66016-.00146-.01367-.00488-.05957-.00586-.07422-.01465-.19629-.02246-.41504-.02246-.62988,0-.2207.0083-.43945.02441-.65625.03076-.41211.39746-.71094.80322-.69238.41309.03027.72314.39062.69287.80371-.01318.17969-.02051.36133-.02051.54492,0,.17969.00684.36133.02002.54395.02979.40918-.27344.78223-.68213.81738-.02295.00195-.0459.00293-.06885.00293Z" fill="var(--iconPrimary, #222)"/>
  <path d="m2.77881,7.30273c-.10889,0-.21875-.02344-.32324-.07324-.37402-.17969-.53174-.62695-.35254-1.00098.19385-.40527.41992-.79688.67236-1.16504.23389-.34082.70117-.42969,1.04248-.19531.3418.23438.4292.70117.19482,1.04297-.2085.30469-.396.62988-.55713.96582-.12891.26855-.39697.42578-.67676.42578Z" fill="var(--iconPrimary, #222)"/>
  <path d="m18.34087,11.2974c-.1274.07328-.27708.10979-.43397.09751-.4132-.03385-.72043-.39565-.68675-.80819.02997-.37098.03171-.746.00488-1.11585-.03022-.41296.27988-.77382.69382-.80235.41345-.02938.77237.28128.80217.69449.03213.44566.03006.89748-.00642,1.3443-.02048.25624-.16717.47129-.37373.59009Z" fill="var(--iconPrimary, #222)"/>
</svg>