<?xml version="1.0" encoding="UTF-8"?>
<svg xmlns="http://www.w3.org/2000/svg" width="20" height="20" viewBox="0 0 20 20">
  <path d="m18.75,19h-7.95264c-.41406,0-.75-.33594-.75-.75s.33594-.75.75-.75h7.95264c.41406,0,.75.33594.75.75s-.33594.75-.75.75Z" fill="var(--iconPrimary, #222)"/>
  <path d="m15.03857,10.75c-1.91309,0-3.53516,1.25781-4.16791,3.0105l-.08356-.14038c-.17725-.29688-.56055-.39551-.85693-.21777-.29639.17676-.39355.56055-.21729.85645l.98877,1.66113c.08643.14551.22754.24902.3916.28809.04834.01172.09717.01758.14551.01758.11719,0,.2334-.0332.33447-.09668l1.69629-1.07422c.2915-.18457.37842-.57129.19336-.8623-.18311-.29102-.56934-.37695-.8623-.19434l-.30121.19067c.44214-1.13525,1.50177-1.93872,2.7392-1.93872,1.63281,0,2.96143,1.39648,2.96143,3.1123,0,.41406.33594.75.75.75s.75-.33594.75-.75c0-2.54297-2.00146-4.6123-4.46143-4.6123Z" fill="var(--iconPrimary, #222)"/>
  <path d="m7.52246,13.8916c-.16504,0-.33154-.05273-.4707-.15918-.02393-.01855-.09229-.08008-.11426-.10059-1.06885-.89844-1.6875-2.22461-1.6875-3.63184,0-2.61914,2.13086-4.75,4.75-4.75,2.00391,0,3.80273,1.26758,4.47559,3.15527.13916.39062-.06445.81934-.45459.95801-.39258.1416-.81982-.06445-.9585-.4541-.46045-1.29102-1.69092-2.15918-3.0625-2.15918-1.79199,0-3.25,1.45801-3.25,3.25,0,.96289.42334,1.87012,1.16162,2.49023.01514.0127.06396.05859.07812.07227.32861.25195.37842.71387.12549,1.04199-.14551.18945-.36768.28711-.59277.28711Z" fill="var(--iconPrimary, #222)"/>
  <path d="m8.28369,17H3.25c-1.24072,0-2.25-1.00977-2.25-2.25V5.25c0-1.24023,1.00928-2.25,2.25-2.25h13.5c1.24072,0,2.25,1.00977,2.25,2.25v4.12598c0,.41406-.33594.75-.75.75s-.75-.33594-.75-.75v-4.12598c0-.41309-.33643-.75-.75-.75H3.25c-.41357,0-.75.33691-.75.75v9.5c0,.41309.33643.75.75.75h5.03369c.41406,0,.75.33594.75.75s-.33594.75-.75.75Z" fill="var(--iconPrimary, #222)"/>
  <path d="m17.5,9.37598v-4.12598c0-.41309-.33643-.75-.75-.75H3.25c-.41357,0-.75.33691-.75.75v9.5c0,.41309.33643.75.75.75h5.03369c.31287,0,.57996.19238.69238.4646l.00598-.00024-.55823-.93896c-.29919-.50269-.35144-1.07666-.21704-1.60352-.0257.0625-.0481.12622-.09155.18262-.14551.18945-.36768.28711-.59277.28711-.16504,0-.33154-.05273-.4707-.15918-.02393-.01855-.09229-.08008-.11426-.10059-1.06885-.89844-1.6875-2.22461-1.6875-3.63184,0-2.61914,2.13086-4.75,4.75-4.75,2.00391,0,3.80273,1.26758,4.47559,3.15527.13916.39062-.06445.81934-.45459.95801-.02936.0105-.05884.00635-.08844.01294.00037.00146.00104.00269.0014.00415,0,0,.80231-.17212,1.97955.00977,1.1402.17627,1.94952.61987,1.94952.61987l.00055-.00684c-.2135-.13208-.36359-.35767-.36359-.6272Z" fill="var(--iconPrimary, #222)" opacity=".2"/>
</svg>