<?xml version="1.0" encoding="UTF-8"?>
<svg xmlns="http://www.w3.org/2000/svg" width="20" height="20" viewBox="0 0 20 20">
  <path d="M9,15c0-.37915.03931-.74878.10645-1.1084-2.06202-.47217-3.52071-2.52825-3.00053-4.82587.32867-1.45173,1.50808-2.63114,2.95981-2.95981,2.29763-.52018,4.3537.93851,4.82587,3.00053.35962-.06714.72925-.10645,1.1084-.10645,1.03386,0,2.00489.26441,2.85356.72573.17966.09766.39644-.0213.39644-.22578v-4.24995c0-.82843-.67157-1.5-1.5-1.5H3.25c-.82843,0-1.5.67157-1.5,1.5v9.5c0,.82843.67157,1.5,1.5,1.5h5.88232c-.08545-.40344-.13232-.82104-.13232-1.25Z" fill="var(--iconPrimary, #222)" opacity=".2"/>
  <path d="M15,10.5c-2.48529,0-4.5,2.01471-4.5,4.5s2.01471,4.5,4.5,4.5,4.5-2.01471,4.5-4.5-2.01471-4.5-4.5-4.5ZM17.5,15.625h-1.875v1.875c0,.34473-.28027.625-.625.625s-.625-.28027-.625-.625v-1.875h-1.875c-.34473,0-.625-.28027-.625-.625s.28027-.625.625-.625h1.875v-1.875c0-.34473.28027-.625.625-.625s.625.28027.625.625v1.875h1.875c.34473,0,.625.28027.625.625s-.28027.625-.625.625Z" fill="var(--iconPrimary, #222)"/>
  <path d="M8.39062,17H3.25c-1.24023,0-2.25-1.00928-2.25-2.25V5.25c0-1.24072,1.00977-2.25,2.25-2.25h13.5c1.24023,0,2.25,1.00928,2.25,2.25v3.82471c0,.41406-.33594.75-.75.75s-.75-.33594-.75-.75v-3.82471c0-.41357-.33691-.75-.75-.75H3.25c-.41309,0-.75.33643-.75.75v9.5c0,.41357.33691.75.75.75h5.14062c.41406,0,.75.33594.75.75s-.33594.75-.75.75Z" fill="var(--iconPrimary, #222)"/>
  <path d="M8.39062,14.41309c-.10156,0-.2041-.02051-.30176-.06348-1.72461-.75879-2.83887-2.46582-2.83887-4.34961,0-2.61914,2.13086-4.75,4.75-4.75,1.88477,0,3.59375,1.11572,4.35156,2.84229.16699.37939-.00586.82178-.38477.98828-.37793.1665-.82227-.00537-.98828-.38477-.51953-1.18213-1.68848-1.9458-2.97852-1.9458-1.79199,0-3.25,1.45801-3.25,3.25,0,1.28906.7627,2.45752,1.94238,2.97656.37988.16699.55176.60938.38477.98877-.12402.28076-.39844.44775-.68652.44775Z" fill="var(--iconPrimary, #222)"/>
</svg>