<?xml version="1.0" encoding="UTF-8"?>
<svg xmlns="http://www.w3.org/2000/svg" width="20" height="20" viewBox="0 0 20 20">
  <path d="M10.52051,2.82617c-.09619,0-.19482-.01855-.28906-.05859-.14648-.05957-.31445-.0625-.46094-.00098-.38184.15918-.82129-.02246-.98047-.4043-.15869-.38281.02246-.82227.40527-.98047.51221-.21484,1.10107-.21387,1.61523.00293.38232.16016.56201.59961.40234.98145-.12061.28711-.39893.45996-.69238.45996Z" fill="var(--iconPrimary, #222)"/>
  <path d="M12.21143,6.76562l-1.7998-1.57422c-.23633-.20508-.58691-.20508-.82324,0l-1.7998,1.57422c-.25977.22754-.28613.62207-.05859.88184.22705.25977.62061.28613.88184.05957l.63818-.55859v4.85156c0,.41406.33594.75.75.75s.75-.33594.75-.75v-4.85156l.63818.55859c.11865.10352.26514.1543.41113.1543.17432,0,.34717-.07227.4707-.21387.22754-.25977.20117-.6543-.05859-.88184Z" fill="var(--iconPrimary, #222)"/>
  <path d="M10,19.09473c-.44971,0-.89941-.12891-1.29199-.38672l-5.71875-3.75684c-.61963-.40723-.98926-1.09277-.98926-1.83398s.36963-1.42578.98828-1.83301l.43652-.28711c.34521-.22559.81104-.12988,1.03857.21484.22754.3457.13184.81152-.21436,1.03906l-.43652.28711c-.19873.12988-.3125.3418-.3125.5791,0,.23828.11377.44922.31299.58008l5.71826,3.75684c.28516.1875.65234.1875.9375,0l5.71875-3.75684c.19873-.13086.3125-.3418.3125-.58008,0-.2373-.11377-.44922-.3125-.5791l-.35791-.23633c-.3457-.22754-.44141-.69238-.21387-1.03809.22803-.3457.69238-.44141,1.03906-.21387l.35742.23535c.61816.40625.98779,1.09082.98779,1.83203s-.36963,1.42676-.98877,1.83398l-5.71924,3.75684c-.39258.25781-.84229.38672-1.29199.38672Z" fill="var(--iconPrimary, #222)"/>
  <path d="M15.75955,11.19337l.82598,1.09777c.21943.14363.34511.37703.34511.63935s-.12568.49572-.34511.64035l-6.16462,4.05056c-.25551.16789-.58635.16788-.84185-.00002l-6.16409-4.05055c-.21993-.14463-.34561-.37803-.34561-.64035,0-.26232,1.18361-1.5906,1.40304-1.73423l2.76834,1.80373s1.14125,1.5,2.75927,1.5,2.59095-1.17978,2.59095-1.17978l3.1686-2.12685Z" fill="var(--iconPrimary, #222)" opacity=".2"/>
  <path d="M10,15.25c-1.71729,0-3.0625-.98828-3.0625-2.25,0-.34473.27979-.625.625-.625s.625.28027.625.625c0,.47168.7749,1,1.8125,1s1.8125-.52832,1.8125-1c0-.34473.27979-.625.625-.625s.625.28027.625.625c0,1.26172-1.34521,2.25-3.0625,2.25Z" fill="var(--iconPrimary, #222)"/>
  <path d="M7.07275,4.31641c-.24707,0-.48877-.12207-.63184-.3457-.22363-.34863-.12207-.8125.22656-1.03613l.33691-.21582c.34912-.22363.8125-.12207,1.03613.22754.22363.34863.12207.8125-.22656,1.03613l-.33691.21582c-.12549.08008-.26562.11816-.4043.11816Z" fill="var(--iconPrimary, #222)"/>
  <path d="M4.69092,5.83789c-.24756,0-.48975-.12207-.63281-.34668-.22266-.34961-.12012-.8125.229-1.03613l.33691-.21484c.34961-.22168.81299-.12109,1.03564.22949.22266.34961.12012.8125-.229,1.03613l-.33691.21484c-.125.0791-.26465.11719-.40283.11719Z" fill="var(--iconPrimary, #222)"/>
  <path d="M12.92725,4.31641c-.13867,0-.27881-.03809-.4043-.11816l-.33691-.21582c-.34863-.22363-.4502-.6875-.22656-1.03613.22363-.34961.68701-.45117,1.03613-.22754l.33691.21582c.34863.22363.4502.6875.22656,1.03613-.14307.22363-.38477.3457-.63184.3457Z" fill="var(--iconPrimary, #222)"/>
  <path d="M15.30908,5.83789c-.13818,0-.27783-.03809-.40283-.11719l-.33691-.21484c-.34912-.22363-.45166-.68652-.229-1.03613.22314-.35059.68701-.45117,1.03564-.22949l.33691.21484c.34912.22363.45166.68652.229,1.03613-.14307.22461-.38525.34668-.63281.34668Z" fill="var(--iconPrimary, #222)"/>
  <path d="M2.79541,8.1875c-.33203,0-.63525-.22168-.72461-.55762-.10742-.40625-.09326-.83105.0415-1.22852.13281-.3916.55811-.60547.95068-.46973.39258.13184.60303.55762.47021.9502-.04004.11816-.04395.24316-.01221.36328.10596.40039-.13281.81152-.5332.91699-.06396.01758-.12891.02539-.19238.02539Z" fill="var(--iconPrimary, #222)"/>
  <path d="M4.94482,9.97363c-.13916,0-.2793-.03809-.40479-.11914l-.2373-.15234c-.34863-.22363-.44971-.6875-.22607-1.03613.22461-.34863.68896-.4502,1.03662-.22559l.2373.15234c.34863.22363.44971.6875.22607,1.03613-.14355.22266-.38525.34473-.63184.34473Z" fill="var(--iconPrimary, #222)"/>
  <circle cx="7.07242" cy="10.60113" r=".75" fill="var(--iconPrimary, #222)"/>
  <path d="M17.20459,8.1875c-.06348,0-.12842-.00781-.19238-.02539-.40039-.10547-.63916-.5166-.5332-.91699.03174-.12012.02783-.24512-.01221-.36328-.13281-.39258.07764-.81836.47021-.9502.3916-.13477.81787.07812.95068.46973.13477.39746.14893.82227.0415,1.22852-.08936.33594-.39258.55762-.72461.55762Z" fill="var(--iconPrimary, #222)"/>
  <path d="M15.05518,9.97363c-.24658,0-.48828-.12207-.63184-.34473-.22363-.34863-.12256-.8125.22607-1.03613l.2373-.15234c.34766-.22461.81201-.12305,1.03662.22559.22363.34863.12256.8125-.22607,1.03613l-.2373.15234c-.12549.08105-.26562.11914-.40479.11914Z" fill="var(--iconPrimary, #222)"/>
  <circle cx="12.92758" cy="10.60113" r=".75" fill="var(--iconPrimary, #222)"/>
</svg>