<?xml version="1.0" encoding="UTF-8"?>
<svg xmlns="http://www.w3.org/2000/svg" width="20" height="20" viewBox="0 0 20 20">
  <path d="m7.45508,13.83691c-.16797,0-.3374-.05664-.47705-.17188-1.09814-.90723-1.72803-2.24316-1.72803-3.66504,0-2.61914,2.13086-4.75,4.75-4.75,2.03174,0,3.83789,1.29102,4.49512,3.21191.13428.39258-.07471.81836-.4668.95312-.39258.13379-.81836-.0752-.95215-.4668-.44971-1.31543-1.68604-2.19824-3.07617-2.19824-1.79199,0-3.25,1.45801-3.25,3.25,0,.97363.43115,1.8877,1.18311,2.50879.31934.26367.36475.73633.10059,1.05566-.14795.17969-.3623.27246-.57861.27246Z" fill="var(--iconPrimary, #222)"/>
  <path d="m17.5,9.79688v-4.54688c0-.41309-.33643-.75-.75-.75H3.25c-.41357,0-.75.33691-.75.75v9.5c0,.41309.33643.75.75.75h3.97314c.25397,0,.46747.13452.60315.32788-.08948-.25439-.20331-.646-.20331-.99927,0-.40381.24298-.95044.39294-1.25049-.14716.16797-.35181.25879-.56085.25879-.16797,0-.3374-.05664-.47705-.17188-1.09814-.90723-1.72803-2.24316-1.72803-3.66504,0-2.61914,2.13086-4.75,4.75-4.75,2.03174,0,3.83789,1.29102,4.49512,3.21191.13379.39111-.07373.81445-.46301.95093.07672-.01245.96362-.14429,2.09241.22021.8678.28052,1.37952.55933,1.59137.68823-.13287-.13525-.21588-.31982-.21588-.52441Z" fill="var(--iconPrimary, #222)" opacity=".2"/>
  <path d="m7.22314,17h-3.97314c-1.24072,0-2.25-1.00977-2.25-2.25V5.25c0-1.24023,1.00928-2.25,2.25-2.25h13.5c1.24072,0,2.25,1.00977,2.25,2.25v4.54688c0,.41406-.33594.75-.75.75s-.75-.33594-.75-.75v-4.54688c0-.41309-.33643-.75-.75-.75H3.25c-.41357,0-.75.33691-.75.75v9.5c0,.41309.33643.75.75.75h3.97314c.41406,0,.75.33594.75.75s-.33594.75-.75.75Z" fill="var(--iconPrimary, #222)"/>
  <path d="m14.51807,18.7168c-2.66504,0-5.26807-2.38867-5.26807-3.77441,0-1.15039,1.59424-2.73438,3.02637-3.43848.68408-.34375,1.44971-.53125,2.21484-.54004,2.82861,0,5.25879,2.66895,5.25879,3.97852,0,1.38574-2.58545,3.77441-5.23193,3.77441Zm-.01807-6.25293c-.53027.00684-1.06982.13867-1.55176.38184-.00244.00098-.00537.00195-.00781.00391-1.25537.61523-2.14941,1.7793-2.19092,2.10547.09229.50195,1.83447,2.26172,3.76855,2.26172,1.91992,0,3.64258-1.75879,3.7334-2.29688-.08154-.45312-1.70264-2.45605-3.75146-2.45605Zm-1.88965-.28809h.00977-.00977Z" fill="var(--iconPrimary, #222)"/>
  <path d="m14.43128,14.3544c.09764.2541.31041.44941.57222.52485.09767.02814.32507.07156.57125-.03069.3032-.12594.60919.13381.51337.44783-.09774.32033-.29755.61706-.60424.84139-.52399.38327-1.25696.41124-1.8077.06751-.90174-.56279-1.03211-1.76606-.34774-2.50647.16964-.18353.37133-.31817.58846-.40424.28782-.11409.60689.17131.50468.46356-.06525.18656-.06712.39632.00971.59627Z" fill="var(--iconPrimary, #222)"/>
</svg>