<?xml version="1.0" encoding="UTF-8"?>
<svg xmlns="http://www.w3.org/2000/svg" width="20" height="20" viewBox="0 0 20 20">
  <path d="m12.7998,19.5c-.88135,0-1.70996-.34375-2.33301-.9668-.62354-.62305-.9668-1.45117-.9668-2.33301s.34326-1.70996.9668-2.33301l.10156-.10254c.29248-.29395.76758-.29395,1.06104-.00195s.29443.7666.00244,1.06055l-.10303.10352c-.3418.34082-.52881.79297-.52881,1.27344s.18701.93262.52734,1.27246c.68066.68066,1.8667.67969,2.54541,0l.104-.10352c.29346-.29102.76855-.29297,1.06104.00195.29199.29395.29102.76855-.00244,1.06055l-.10303.10254c-.62207.62207-1.45068.96582-2.33252.96582Z" fill="var(--iconPrimary, #222)"/>
  <path d="m17.8999,15.45605c-.19141,0-.38281-.07324-.5293-.21875-.29346-.29199-.29443-.7666-.00244-1.06055l.10303-.10352c.3418-.34082.52881-.79297.52881-1.27344s-.18701-.93262-.52734-1.27246c-.67969-.67969-1.86572-.67871-2.54541,0l-.104.10352c-.29395.29199-.76904.29199-1.06104-.00195s-.29102-.76855.00244-1.06055l.10303-.10254c1.24365-1.24414,3.41895-1.24512,4.66553.00098.62354.62305.9668,1.45117.9668,2.33301s-.34326,1.70996-.9668,2.33301l-.10156.10254c-.14648.14746-.33936.2207-.53174.2207Z" fill="var(--iconPrimary, #222)"/>
  <path d="m13.3667,16.38379c-.19189,0-.38379-.07324-.53027-.21973-.29297-.29297-.29297-.76758,0-1.06055l2.2666-2.26758c.29297-.29297.76758-.29297,1.06055,0s.29297.76758,0,1.06055l-2.2666,2.26758c-.14648.14648-.33838.21973-.53027.21973Z" fill="var(--iconPrimary, #222)"/>
  <path d="m7.96484,14.19434c-.12988,0-.26172-.0332-.38135-.10449-1.43945-.85156-2.3335-2.41895-2.3335-4.08984,0-2.61914,2.13086-4.75,4.75-4.75,1.66992,0,3.23682.89355,4.08887,2.33105.21143.35645.09375.81641-.2627,1.02832-.35547.20898-.81494.09473-1.02734-.2627-.5835-.98535-1.65625-1.59668-2.79883-1.59668-1.79199,0-3.25,1.45801-3.25,3.25,0,1.14355.6123,2.21582,1.59717,2.79883.35645.21094.47461.6709.26367,1.02734-.14014.23633-.38965.36816-.646.36816Z" fill="var(--iconPrimary, #222)"/>
  <path d="m7.229,17h-3.979c-1.24072,0-2.25-1.00977-2.25-2.25V5.25c0-1.24023,1.00928-2.25,2.25-2.25h13.5c1.24072,0,2.25,1.00977,2.25,2.25v2.3916c0,.41406-.33594.75-.75.75s-.75-.33594-.75-.75v-2.3916c0-.41309-.33643-.75-.75-.75H3.25c-.41357,0-.75.33691-.75.75v9.5c0,.41309.33643.75.75.75h3.979c.41406,0,.75.33594.75.75s-.33594.75-.75.75Z" fill="var(--iconPrimary, #222)"/>
  <path d="m7.229,17h-3.979c-1.24072,0-2.25-1.00977-2.25-2.25V5.25c0-1.24023,1.00928-2.25,2.25-2.25h13.5c1.24072,0,2.25,1.00977,2.25,2.25v2.3916c0,.41406-.33594.75-.75.75s-.75-.33594-.75-.75v-2.3916c0-.41309-.33643-.75-.75-.75H3.25c-.41357,0-.75.33691-.75.75v9.5c0,.41309.33643.75.75.75h3.979c.41406,0,.75.33594.75.75s-.33594.75-.75.75Z" fill="var(--iconPrimary, #222)"/>
  <path d="m17.5,7.6416v-2.3916c0-.41309-.33643-.75-.75-.75H3.25c-.41357,0-.75.33691-.75.75v9.5c0,.41309.33643.75.75.75h3.979c.34552,0,.62402.23877.71094.55664l.01495-.00049s.00641-.59277.12891-1.04199.4082-1.04199.4082-1.04199c-.00653-.00317-.01257-.0083-.0191-.01123-.14148.1377-.315.2334-.50806.2334-.12988,0-.26172-.0332-.38135-.10449-1.43945-.85156-2.3335-2.41895-2.3335-4.08984,0-2.61914,2.13086-4.75,4.75-4.75,1.66992,0,3.23682.89355,4.08887,2.33105.20496.34546.09564.78394-.23566,1.00391.06171-.02954,1.13458-.53442,2.12622-.54248,1.151-.00928,1.77124.19287,1.91223.24536-.2298-.12817-.39166-.3645-.39166-.64624Z" fill="var(--iconPrimary, #222)" opacity=".2"/>
</svg>