<?xml version="1.0" encoding="UTF-8"?>
<svg xmlns="http://www.w3.org/2000/svg" width="20" height="20" viewBox="0 0 20 20">
  <path d="M15.93164,5.95898l-5.55249-3.64868c-.22998-.15088-.52832-.15088-.7583,0l-5.55286,3.64868c-.19763.13037-.31091.34058-.31091.57666,0,.23633.11328.44678.31091.57617l5.55286,3.64844c.22998.15088.52832.15088.7583,0l5.55286-3.64844c.19763-.12939.31091-.33984.31091-.57617,0-.23608-.11328-.44629-.31128-.57666ZM10,8.34351c-1.52441,0-2.76001-.82397-2.76001-1.84009s1.2356-1.84009,2.76001-1.84009,2.76001.82397,2.76001,1.84009-1.2356,1.84009-2.76001,1.84009Z" fill="var(--iconPrimary, #222)" opacity=".2"/>
  <path d="M16.58447,4.78906l-5.34912-3.51367c-.75098-.49219-1.7207-.49219-2.4707,0l-5.34912,3.51367c-.59277.38965-.94678,1.0459-.94727,1.75488-.00049.70996.35352,1.36621.94629,1.75684l5.34863,3.51953c.15283.10059.31934.1665.48682.22607v1.80518l-.63818-.55859c-.26123-.22754-.65479-.20117-.88184.05957-.22754.25977-.20117.6543.05859.88184l1.7998,1.57422c.11816.10254.26465.1543.41162.1543s.29346-.05176.41162-.1543l1.7998-1.57422c.25977-.22754.28613-.62207.05859-.88184-.22705-.26074-.62207-.28711-.88184-.05957l-.63818.55859v-1.80518c.16748-.05957.33398-.12549.48682-.22607l5.34863-3.51953.00049-.00098c.59229-.38965.94629-1.0459.9458-1.75586-.00049-.70898-.35449-1.36523-.94727-1.75488ZM15.76123,7.04688l-5.34863,3.51953c-.25098.16602-.57422.16602-.8252,0l-5.34814-3.51855c-.24463-.16113-.271-.40527-.271-.50293s.02637-.3418.27051-.50195l5.34912-3.51367c.125-.08203.26855-.12305.41211-.12305s.28711.04102.41211.12305l5.34912,3.51367c.24414.16016.27051.4043.27051.50195s-.02637.3418-.27051.50195Z" fill="var(--iconPrimary, #222)"/>
  <path d="M10,8.96875c-1.89844,0-3.38525-1.08301-3.38525-2.46484,0-1.38281,1.48682-2.46582,3.38525-2.46582s3.38525,1.08301,3.38525,2.46582c0,1.38184-1.48682,2.46484-3.38525,2.46484ZM10,5.28809c-1.2583,0-2.13525.64062-2.13525,1.21582,0,.57422.87695,1.21484,2.13525,1.21484s2.13525-.64062,2.13525-1.21484c0-.5752-.87695-1.21582-2.13525-1.21582Z" fill="var(--iconPrimary, #222)"/>
  <path d="M10,19.12402c-.40137,0-.80322-.11523-1.15332-.3457l-5.43164-3.56836c-.59326-.38965-.94727-1.0459-.94727-1.75586,0-.70898.354-1.36523.94727-1.75488l.81152-.5332c.34473-.22559.81152-.13086,1.03857.21484.22754.34668.13086.81152-.21533,1.03906l-.81152.5332c-.24414.16016-.27051.4043-.27051.50098,0,.09766.02637.3418.27051.50195l5.43213,3.56836c.20166.13379.45898.13184.65869,0l5.43262-3.56836c.24414-.16016.27051-.4043.27051-.50195,0-.09668-.02637-.34082-.27051-.50098l-.84521-.55469c-.34619-.22754-.44287-.69238-.21533-1.03809.22754-.34668.69287-.44141,1.03857-.21582l.84521.55469c.59326.38965.94727,1.0459.94727,1.75488,0,.70996-.354,1.36621-.94727,1.75586l-5.43213,3.56836c-.3501.23047-.75146.3457-1.15283.3457Z" fill="var(--iconPrimary, #222)"/>
</svg>