<?xml version="1.0" encoding="UTF-8"?>
<svg xmlns="http://www.w3.org/2000/svg" width="20" height="20" viewBox="0 0 20 20">
  <path d="M16.75,3H3.25c-1.24023,0-2.25,1.00977-2.25,2.25v9.5c0,1.24023,1.00977,2.25,2.25,2.25h13.5c1.24023,0,2.25-1.00977,2.25-2.25V5.25c0-1.24023-1.00977-2.25-2.25-2.25ZM17.5,14.75c0,.41309-.33691.75-.75.75H3.25c-.35913,0-.64648-.25977-.71924-.5979l3.94336-2.77905c-.45703-.67773-.72412-1.49414-.72412-2.37305,0-2.34717,1.90283-4.25,4.25-4.25,1.40234,0,2.6355.68774,3.40967,1.73511l3.71631-2.6189c.21924.1311.37402.3606.37402.63379v9.5Z" fill="var(--iconPrimary, #222)"/>
  <path d="M6.47412,12.12305c.76343,1.13208,2.05762,1.87695,3.52588,1.87695,2.34717,0,4.25-1.90283,4.25-4.25,0-.94482-.31885-1.80933-.84033-2.51489l-6.93555,4.88794Z" fill="var(--iconPrimary, #222)"/>
</svg>