<?xml version="1.0" encoding="UTF-8"?>
<svg   xmlns="http://www.w3.org/2000/svg" width="20" height="20" viewBox="0 0 20 20">
  <path d="m13.25,7.77515v-3.52515c0-.82837-.67163-1.5-1.5-1.5h-7.5c-.82837,0-1.5.67163-1.5,1.5v7.5c0,.82837.67163,1.5,1.5,1.5h3.52515c.1333,2.78076,2.41101,5,5.22485,5,2.89941,0,5.25-2.35059,5.25-5.25,0-2.81396-2.21924-5.09155-5-5.22485Z" fill="var(--iconPrimary, #222)" opacity=".12"/>
  <path d="m13,19c-2.95508,0-5.42041-2.14453-5.89746-5h-2.85254c-1.24072,0-2.25-1.00977-2.25-2.25v-7.5c0-1.24023,1.00928-2.25,2.25-2.25h7.5c1.24072,0,2.25,1.00977,2.25,2.25v2.85254c2.85547.47656,5,2.94238,5,5.89746,0,3.30859-2.69141,6-6,6ZM4.25,3.5c-.41357,0-.75.33691-.75.75v7.5c0,.41309.33643.75.75.75h3.52539c.40039,0,.72998.31445.74902.71387.11475,2.40332,2.08057,4.28613,4.47559,4.28613,2.48145,0,4.5-2.01855,4.5-4.5,0-2.39453-1.88232-4.36035-4.28564-4.47559-.3999-.01855-.71436-.34863-.71436-.74902v-3.52539c0-.41309-.33643-.75-.75-.75h-7.5Z" fill="var(--iconPrimary, #222)"/>
  <path d="m15,12.375h-1.375v-1.375c0-.34473-.27979-.625-.625-.625s-.625.28027-.625.625v1.375h-1.375c-.34521,0-.625.28027-.625.625s.27979.625.625.625h1.375v1.375c0,.34473.27979.625.625.625s.625-.28027.625-.625v-1.375h1.375c.34521,0,.625-.28027.625-.625s-.27979-.625-.625-.625Z" fill="var(--iconPrimary, #222)"/>
</svg>