<?xml version="1.0" encoding="UTF-8"?>
<svg   xmlns="http://www.w3.org/2000/svg" width="20" height="20" viewBox="0 0 20 20">
  <path d="m7.84758,11.98736c.40492-2.07207,2.02873-3.70798,4.09438-4.1307.34176-.06994,1.22332-.08543,1.30804-.08152v-3.52515c0-.82837-.67163-1.5-1.5-1.5h-7.5c-.82837,0-1.5.67163-1.5,1.5v7.5c0,.82837.67163,1.5,1.5,1.5h3.52515c-.00391-.08472.00841-.93497.07244-1.26264Z" fill="var(--iconPrimary, #222)" opacity=".12"/>
  <path d="m7.77539,14h-3.52539c-1.24072,0-2.25-1.00977-2.25-2.25v-7.5c0-1.24023,1.00928-2.25,2.25-2.25h7.5c1.24072,0,2.25,1.00977,2.25,2.25v3.52539c0,.20508-.08398.40039-.23193.54199s-.33838.21973-.55273.20703c-.13379.00195-.89404.01953-1.12451.06738-1.78125.36426-3.1582,1.75391-3.50684,3.53906-.04297.2207-.0625.94434-.05908,1.09277.00439.20215-.07227.40137-.21338.5459s-.33447.23047-.53613.23047ZM4.25,3.5c-.41357,0-.75.33691-.75.75v7.5c0,.41309.33643.75.75.75h2.79492c.0127-.24121.03369-.4873.06641-.65625.46533-2.38184,2.30225-4.23535,4.68018-4.72168.18066-.03711.44873-.06055.7085-.0752v-2.79688c0-.41309-.33643-.75-.75-.75h-7.5Z" fill="var(--iconPrimary, #222)"/>
  <path d="m13,19c-2.08203,0-3.98535-1.06738-5.0918-2.85547-.21826-.35254-.10938-.81445.24316-1.03223.3501-.21777.81396-.10938,1.03223.24316.83105,1.34277,2.25781,2.14453,3.81641,2.14453,2.48145,0,4.5-2.01855,4.5-4.5,0-1.55859-.80176-2.98535-2.14453-3.81641-.35205-.21777-.46143-.67969-.24316-1.03223.21777-.35254.6792-.46191,1.03223-.24316,1.78809,1.10547,2.85547,3.00977,2.85547,5.0918,0,3.30859-2.69141,6-6,6Z" fill="var(--iconPrimary, #222)" opacity=".35"/>
  <path d="m14.625,14h-3.25c-.41406,0-.75-.33594-.75-.75s.33594-.75.75-.75h3.25c.41406,0,.75.33594.75.75s-.33594.75-.75.75Z" fill="var(--iconPrimary, #222)"/>
</svg>