<?xml version="1.0" encoding="UTF-8"?>
<svg xmlns="http://www.w3.org/2000/svg" width="20" height="20" viewBox="0 0 20 20">
  <path d="M9,15c0-.37915.03931-.74878.10645-1.1084-2.06202-.47217-3.52071-2.52825-3.00053-4.82587.32867-1.45173,1.50808-2.63114,2.95981-2.95981,2.29763-.52018,4.3537.93851,4.82587,3.00053.35962-.06714.72925-.10645,1.1084-.10645,1.03386,0,2.00489.26441,2.85356.72573.17966.09766.39644-.0213.39644-.22578v-4.24995c0-.82843-.67157-1.5-1.5-1.5H3.25c-.82843,0-1.5.67157-1.5,1.5v9.5c0,.82843.67157,1.5,1.5,1.5h5.88232c-.08545-.40344-.13232-.82104-.13232-1.25Z" fill="var(--iconPrimary, #222)" opacity=".2"/>
  <path d="M8.39111,17H3.25c-1.24072,0-2.25-1.00977-2.25-2.25V5.25c0-1.24023,1.00928-2.25,2.25-2.25h13.5c1.24072,0,2.25,1.00977,2.25,2.25v3.8252c0,.41406-.33594.75-.75.75s-.75-.33594-.75-.75v-3.8252c0-.41309-.33643-.75-.75-.75H3.25c-.41357,0-.75.33691-.75.75v9.5c0,.41309.33643.75.75.75h5.14111c.41406,0,.75.33594.75.75s-.33594.75-.75.75Z" fill="var(--iconPrimary, #222)"/>
  <path d="M8.39014,14.41309c-.10059,0-.20312-.02051-.30127-.06348-1.72461-.75879-2.83887-2.46582-2.83887-4.34961,0-2.61914,2.13086-4.75,4.75-4.75,1.88525,0,3.59326,1.11523,4.35107,2.8418.1665.37988-.00586.82227-.38525.98828-.37793.16699-.82129-.00488-.98779-.38477-.51904-1.18164-1.68799-1.94531-2.97803-1.94531-1.79199,0-3.25,1.45801-3.25,3.25,0,1.28906.7627,2.45801,1.94238,2.97656.37939.16699.55176.60938.38477.98828-.12354.28125-.39844.44824-.68701.44824Z" fill="var(--iconPrimary, #222)"/>
  <path d="M15,10.5c-2.48529,0-4.5,2.01465-4.5,4.5s2.01471,4.5,4.5,4.5,4.5-2.01465,4.5-4.5-2.01471-4.5-4.5-4.5ZM17.375,15.77148h-4.75c-.41406,0-.75-.33594-.75-.75s.33594-.75.75-.75h4.75c.41406,0,.75.33594.75.75s-.33594.75-.75.75Z" fill="var(--iconPrimary, #222)"/>
</svg>