<?xml version="1.0" encoding="UTF-8"?>
<svg id="e" data-name="ICONS" xmlns="http://www.w3.org/2000/svg" width="20" height="20" viewBox="0 0 20 20">
  <path d="M12.40527,13.16699c-.00977.00781-1.05664.83301-2.42773.83301-1.3623,0-2.3623-.81641-2.37012-.82227-.31445-.2666-.78809-.22949-1.05664.08789-.26758.31543-.22852.78906.08789,1.05664.05664.04785,1.41211,1.17773,3.33887,1.17773,1.91895,0,3.31543-1.12109,3.37402-1.16895.31934-.26074.36719-.73047.10742-1.05176-.25977-.32031-.73145-.37109-1.05371-.1123Z" fill="var(--iconPrimary, #222)"/>
  <path d="M18.75,7.5v-1c0-.27612-.22388-.5-.5-.5h-.47681c-1.45532-2.81689-4.38977-4.75-7.77319-4.75S3.68213,3.18311,2.22681,6h-.47681c-.27612,0-.5.22388-.5.5v1c0,.18652.10657.34277.25793.42871-.16248.66553-.25793,1.35645-.25793,2.07129,0,4.8252,3.9248,8.75,8.75,8.75s8.75-3.9248,8.75-8.75c0-.71484-.09546-1.40601-.25793-2.07129.15137-.08594.25793-.24219.25793-.42871ZM10,2.75c2.52002,0,4.74146,1.29346,6.04126,3.25H3.95874c1.2998-1.95654,3.52124-3.25,6.04126-3.25ZM14.24707,9.94238c-.12207.12207-.28223.18262-.44238.18262s-.32031-.06055-.44238-.18262l-1.5-1.5c-.24316-.24414-.24316-.64062,0-.88477.24414-.24414.64062-.24414.88477,0l1.5,1.5c.24316.24414.24316.64062,0,.88477ZM3.80762,7.55762c.24414-.24414.64062-.24414.88477,0l1.5,1.5c.24316.24414.24316.64062,0,.88477-.12207.12207-.28223.18262-.44238.18262s-.32031-.06055-.44238-.18262l-1.5-1.5c-.24316-.24414-.24316-.64062,0-.88477ZM10,17.25c-3.99805,0-7.25-3.25195-7.25-7.25,0-.1687.01392-.33398.02539-.5h.72473v.5c0,.27612.22388.5.5.5h.49988v.5c0,.27612.22388.5.5.5h2c.27612,0,.5-.22388.5-.5v-.5h.5c.27612,0,.5-.22388.5-.5v-1h.5c.27612,0,.5-.22388.5-.5v-.5h1v.5c0,.27612.22388.5.5.5h.5v1c0,.27612.22388.5.5.5h.5v.5c0,.27612.22388.5.5.5h2c.27612,0,.5-.22388.5-.5v-.5h.49988c.27612,0,.5-.22388.5-.5v-.5h.72473c.01147.16602.02539.3313.02539.5,0,3.99805-3.25195,7.25-7.25,7.25Z" fill="var(--iconPrimary, #222)"/>
</svg>