<?xml version="1.0" encoding="UTF-8"?>
<svg id="e" data-name="ICONS" xmlns="http://www.w3.org/2000/svg" width="20" height="20" viewBox="0 0 20 20">
  <path d="M15.63672,5.72852H3.63672c-.41406,0-.75-.33594-.75-.75s.33594-.75.75-.75h12c.41406,0,.75.33594.75.75s-.33594.75-.75.75Z" fill="var(--iconPrimary, #222)"/>
  <path d="M15.63672,10.72852H3.63672c-.41406,0-.75-.33594-.75-.75s.33594-.75.75-.75h12c.41406,0,.75.33594.75.75s-.33594.75-.75.75Z" fill="var(--iconPrimary, #222)"/>
  <path d="M8.09473,15.72852H3.63672c-.41406,0-.75-.33594-.75-.75s.33594-.75.75-.75h4.45801c.41406,0,.75.33594.75.75s-.33594.75-.75.75Z" fill="var(--iconPrimary, #222)"/>
  <g>
    <path d="M13.88672,17.42871c-.19434,0-.3877-.0752-.53418-.22363-.29102-.2959-.28711-.77051.00781-1.06055l3.125-3.0752c.29492-.29199.76953-.28613,1.06055.00781.29102.2959.28711.77051-.00781,1.06055l-3.125,3.0752c-.14648.14453-.33594.21582-.52637.21582Z" fill="var(--iconPrimary, #222)"/>
    <path d="M13.88672,17.42871c-.19043,0-.37988-.07129-.52637-.21582l-3.125-3.0752c-.29492-.29004-.29883-.76465-.00781-1.06055.28906-.29395.76367-.2998,1.06055-.00781l3.125,3.0752c.29492.29004.29883.76465.00781,1.06055-.14648.14844-.33984.22363-.53418.22363Z" fill="var(--iconPrimary, #222)"/>
  </g>
</svg>