<?xml version="1.0" encoding="UTF-8"?>
<svg id="e" data-name="ICONS" xmlns="http://www.w3.org/2000/svg" width="20" height="20" viewBox="0 0 20 20">
  <path d="M17.25,13.5H6.25c-.41406,0-.75-.33594-.75-.75s.33594-.75.75-.75h11c.41357,0,.75-.33691.75-.75v-3.5c0-.41309-.33643-.75-.75-.75H6.25c-.41406,0-.75-.33594-.75-.75s.33594-.75.75-.75h11c1.24072,0,2.25,1.00977,2.25,2.25v3.5c0,1.24023-1.00928,2.25-2.25,2.25Z" fill="var(--iconPrimary, #222)" opacity=".35"/>
  <path d="M6.25,13.5h-3.5c-1.24072,0-2.25-1.00977-2.25-2.25v-3.5c0-1.24023,1.00928-2.25,2.25-2.25h3.5c1.24072,0,2.25,1.00977,2.25,2.25v3.5c0,1.24023-1.00928,2.25-2.25,2.25ZM2.75,7c-.41357,0-.75.33691-.75.75v3.5c0,.41309.33643.75.75.75h3.5c.41357,0,.75-.33691.75-.75v-3.5c0-.41309-.33643-.75-.75-.75h-3.5Z" fill="var(--iconPrimary, #222)"/>
</svg>