<?xml version="1.0" encoding="UTF-8"?>
<svg id="e" data-name="ICONS" xmlns="http://www.w3.org/2000/svg" width="20" height="20" viewBox="0 0 20 20">
  <path d="M17.25146,13.5h-5.5c-.41406,0-.75-.33594-.75-.75s.33594-.75.75-.75h5.5c.41357,0,.75-.33691.75-.75v-3.5c0-.41309-.33643-.75-.75-.75h-5.5c-.41406,0-.75-.33594-.75-.75s.33594-.75.75-.75h5.5c1.24072,0,2.25,1.00977,2.25,2.25v3.5c0,1.24023-1.00928,2.25-2.25,2.25Z" fill="var(--iconPrimary, #222)" opacity=".35"/>
  <path d="M6.5,13.5h-3.74951c-1.24072,0-2.25-1.00977-2.25-2.25v-3.5c0-1.24023,1.00928-2.25,2.25-2.25h3.74951c.41406,0,.75.33594.75.75s-.33594.75-.75.75h-3.74951c-.41357,0-.75.33691-.75.75v3.5c0,.41309.33643.75.75.75h3.74951c.41406,0,.75.33594.75.75s-.33594.75-.75.75Z" fill="var(--iconPrimary, #222)" opacity=".35"/>
  <path d="M11.75146,13.5H2.75146c-1.24072,0-2.25-1.00977-2.25-2.25v-3.5c0-1.24023,1.00928-2.25,2.25-2.25h9c1.24072,0,2.25,1.00977,2.25,2.25v3.5c0,1.24023-1.00928,2.25-2.25,2.25ZM2.75146,7c-.41357,0-.75.33691-.75.75v3.5c0,.41309.33643.75.75.75h9c.41357,0,.75-.33691.75-.75v-3.5c0-.41309-.33643-.75-.75-.75H2.75146Z" fill="var(--iconPrimary, #222)"/>
</svg>