<?xml version="1.0" encoding="UTF-8"?>
<svg   xmlns="http://www.w3.org/2000/svg" width="20" height="20" viewBox="0 0 20 20">
  <path d="M19,10.00684c0-.00122-.00073-.0022-.00073-.00342.00049-.09863-.0188-.19727-.05713-.29004-.03809-.0918-.09277-.17456-.16187-.24365l-2.11426-2.11426c-.29297-.29297-.76758-.29297-1.06055,0s-.29297.76758,0,1.06055l.83398.83398h-2.83203c-3.78516,0-6.50195-6.13281-6.5293-6.19434-.16602-.37988-.61035-.5498-.98633-.38867-.37988.16504-.55371.60645-.38867.98633.0874.20264,1.58667,3.57959,4.10547,5.60059H2.00293c-.41406,0-.75.33594-.75.75s.33594.75.75.75h7.80432c-2.51794,2.021-4.01685,5.39697-4.10413,5.59961-.16504.37988.00879.82129.38867.98633.09766.04297.19824.0625.29883.0625.28906,0,.56543-.16895.6875-.45117.02734-.06152,2.73535-6.19434,6.5293-6.19434h2.8252l-.82715.82715c-.29297.29297-.29297.76758,0,1.06055.14648.14648.33789.21973.53027.21973s.38379-.07324.53027-.21973l2.09326-2.09326c.07996-.07471.14355-.16431.18481-.26758.01245-.03052.01099-.06372.01929-.09521.01514-.05957.03662-.11719.03662-.18164Z" fill="var(--iconPrimary, #222)"/>
</svg>