<?xml version="1.0" encoding="UTF-8"?>
<svg   xmlns="http://www.w3.org/2000/svg" width="20" height="20" viewBox="0 0 20 20">
  <path d="M18.53027,9.46973l-2.11426-2.11426c-.29297-.29297-.76758-.29297-1.06055,0s-.29297.76758,0,1.06055l.81836.81836h-4.08789c-1.13574,0-2.20215-.44141-3.00488-1.24414L3.89941,2.80859c-.29297-.29297-.76758-.29297-1.06055,0s-.29297.76758,0,1.06055l5.18164,5.18164c.38489.38477.82642.68433,1.28931.94165-.46289.25757-.90466.55713-1.28931.94214l-5.18164,5.18066c-.29297.29297-.29297.76758,0,1.06055.14648.14648.33789.21973.53027.21973s.38379-.07324.53027-.21973l5.18164-5.18066c.80273-.80273,1.86914-1.24512,3.00488-1.24512h4.10352l-.83398.83398c-.29297.29297-.29297.76758,0,1.06055.14648.14648.33789.21973.53027.21973s.38379-.07324.53027-.21973l2.11426-2.11426c.29297-.29297.29297-.76758,0-1.06055Z" fill="var(--iconPrimary, #222)"/>
</svg>