<?xml version="1.0" encoding="UTF-8"?>
<svg xmlns="http://www.w3.org/2000/svg" width="20" height="20" viewBox="0 0 20 20">
  <path d="M17.29395,4.56055c-2.17676-1.16602-4.76758-1.80762-7.29395-1.80762-2.52734,0-5.11816.64258-7.2959,1.80957-.92773.49707-1.39648,1.61133-1.11426,2.64844l2.53223,9.30664c.08887.32324.3291.5791.64355.68457.10254.03418.20898.05078.31445.05078.2168,0,.43164-.07129.6084-.20703,2.50684-1.91992,6.11328-1.91797,8.62012-.00293.2666.20508.6123.26367.92676.15723s.55469-.36328.64062-.68457l2.5332-9.30566c.28223-1.03809-.18652-2.15234-1.11523-2.64941ZM11.9541,4.40381l-.32446,4.38574c-1.08179-.12891-2.17749-.12891-3.25928,0l-.32446-4.38574c.6499-.09155,1.30322-.15088,1.9541-.15088s1.3042.05933,1.9541.15088ZM3.41309,5.88477c1.04614-.56104,2.20203-.97607,3.39685-1.2522l.3241,4.38159c-1.10657.23682-2.17688.61475-3.19165,1.12964l-.90527-3.32739c-.10059-.36914.05762-.76074.37598-.93164ZM5.38086,15.43066l-1.10461-4.06006c.93396-.50098,1.9248-.87061,2.95032-1.10596l.31006,4.19214c-.75525.22144-1.48364.54321-2.15576.97388ZM8.76978,14.18774l-.30762-4.15747c1.02026-.12695,2.05542-.12671,3.07568,0l-.30762,4.1582c-.81531-.11499-1.64526-.11548-2.46045-.00073ZM14.61719,15.42969c-.67188-.42969-1.39966-.75049-2.15405-.97192l.3103-4.19336c1.02502.2356,2.01526.60498,2.94873,1.10547l-1.10498,4.05981ZM16.96191,6.81543l-.90576,3.32764c-1.01428-.51465-2.08423-.89209-3.19019-1.12891l.32422-4.38159c1.19434.27563,2.34973.69019,3.39575,1.25024.31836.1709.47656.5625.37598.93262Z" fill="var(--iconPrimary, #222)"/>
</svg>