<?xml version="1.0" encoding="UTF-8"?>
<svg id="d" data-name="canvas" xmlns="http://www.w3.org/2000/svg" width="20" height="20" viewBox="0 0 20 20">
  <path d="M8.52197,9.71387c.42139.36719.94971.55078,1.47803.55078s1.05664-.18359,1.47803-.55078l6.02197-5.24475v1.52014c0,.41406.33594.75.75.75s.75-.33594.75-.75v-1.73926c0-1.24023-1.00928-2.25-2.25-2.25H3.25c-1.24072,0-2.25,1.00977-2.25,2.25v9.5c0,1.24023,1.00928,2.25,2.25,2.25h5.82129c.41406,0,.75-.33594.75-.75s-.33594-.75-.75-.75H3.25c-.41357,0-.75-.33691-.75-.75V4.46912l6.02197,5.24475ZM16.32892,3.5l-5.83624,5.08301c-.28125.24414-.7041.24414-.98535,0L3.67108,3.5h12.65784Z" fill="var(--iconPrimary, #222)"/>
  <path d="M19.84415,12.5625c-.22021-.39844-.63916-.64551-1.09424-.64551h-2.13232l.68359-2.7207c.15381-.61328-.146-1.21191-.72852-1.45703-.58398-.24316-1.22021-.03906-1.55029.5l-3.54053,5.77539c-.23535.38574-.24463.87012-.02393,1.26367.22119.39355.63867.63867,1.09033.63867h2.13721l-.65527,2.51367c-.15869.61035.13477,1.21191.71338,1.46191.16797.07227.34082.10742.50977.10742.41406,0,.80566-.20996,1.04492-.58887l3.50977-5.57812c.24219-.38477.25635-.87207.03613-1.27051ZM15.88956,17.24414l.32861-1.26172c.09863-.37793.01807-.77051-.22021-1.0791-.23877-.30957-.59912-.48633-.98926-.48633h-2.01416l2.45361-4.00293-.36377,1.44824c-.09473.37598-.01221.76758.22656,1.07324.23828.30566.59766.48145.98584.48145h2.00098l-2.4082,3.82715Z" fill="var(--iconPrimary, #222)"/>
</svg>