<?xml version="1.0" encoding="UTF-8"?>
<svg id="c" data-name="text" xmlns="http://www.w3.org/2000/svg" width="20" height="20" viewBox="0 0 20 20">
  <path d="M14.35376,3.33545c-1.63989,0-2.92188,1.23535-4.08228,2.8042-.02686-.03418-.05225-.06104-.07886-.09448-.14526-.18213-.28882-.35425-.43018-.51562-.03735-.04272-.0752-.08813-.1123-.12915-.16846-.18726-.33496-.36035-.49951-.51953-.03613-.03491-.07202-.06641-.10791-.09985-.13672-.12769-.27271-.24609-.40771-.35522-.03955-.03198-.07935-.06567-.1189-.09619-.16162-.12451-.323-.23828-.48389-.33789-.02905-.01758-.05811-.03223-.08691-.04932-.13745-.0813-.27539-.15332-.41357-.21704-.04199-.01929-.08423-.03955-.12646-.05737-.1626-.06885-.32568-.12915-.49048-.17554-.01929-.00562-.03906-.00854-.05859-.01392-.14966-.03955-.30103-.06934-.45361-.0918-.04443-.00684-.08936-.01294-.13403-.01807-.17139-.01978-.34448-.0332-.52148-.0332C2.49316,3.33545,0,7.57007,0,12.05225c0,2.80469,1.35693,4.57373,3.62964,4.57373,1.63599,0,2.81226-.771,4.90381-4.427,0,0,.87109-1.53833,1.47095-2.59888.02466.04004.04956.08008.07471.12061.18896.30688.3833.62671.59009.9751l.14673.24707h0l.83398,1.40283c1.9104,3.19678,2.97485,4.28027,4.90381,4.28027,2.21411,0,3.44629-1.79321,3.44629-4.65625,0-4.69287-2.54932-8.63428-5.64624-8.63428ZM6.93848,11.20898c-1.69556,2.6582-2.28223,3.25391-3.22632,3.25391-.97144,0-1.54907-.85303-1.54907-2.37402,0-3.25391,1.62256-6.58105,3.5564-6.58105.11597,0,.229.0105.34155.02637.02979.00415.05957.00928.08936.01465.10205.01855.20361.04297.30444.07642.01147.00391.02319.0061.03467.01001.1106.03882.22095.08984.33228.14844.02832.01514.05713.03198.08569.04858.09595.05542.19287.11816.29102.18994.01929.01416.03809.02588.05737.04053.11401.08716.23022.18774.34863.29907.0293.02734.05884.05737.08813.08618.10083.09888.20361.20679.30884.32422.02612.02905.05127.05542.07764.08569.12671.14526.25732.30518.39258.47925.03027.03882.06152.08179.09229.12207.11475.15137.2334.31323.35547.48608.02075.0293.04126.05811.06226.08813-1.27222,1.95142-2.04321,3.17554-2.04321,3.17554ZM16.59937,14.46289c-.96582,0-1.427-.63794-3.26099-3.58838l-1.17261-1.95581c-.30371-.4939-.59473-.94702-.87646-1.36646-.01245-.01904-.02588-.04004-.03833-.05859,1.05664-1.63135,1.92847-2.44409,2.96533-2.44409,2.15405,0,3.8772,3.17139,3.8772,7.06689,0,1.48486-.48633,2.34644-1.49414,2.34644Z" fill="var(--iconPrimary, #222)"/>
</svg>