<?xml version="1.0" encoding="UTF-8"?>
<svg id="e" data-name="ICONS" xmlns="http://www.w3.org/2000/svg" width="20" height="20" viewBox="0 0 20 20">
  <path d="M15.44531,7.36914c.95801,0,1.73828-.78027,1.73828-1.73926,0-.95801-.78027-1.73828-1.73828-1.73828s-1.73828.78027-1.73828,1.73828c0,.95898.78027,1.73926,1.73828,1.73926ZM14.49512,5.62988c0-.52441.42578-.9502.9502-.9502s.95117.42578.95117.9502-.42676.95117-.95117.95117-.9502-.42676-.9502-.95117Z" fill="var(--iconPrimary, #222)"/>
  <path d="M17.65715,7.97001h-7.3149v-.73966c1.49772.17572,2.74207-.98792,2.74207-2.43456,0-1.35162-1.09928-2.45192-2.4509-2.45192s-2.4509,1.1003-2.4509,2.45192c0,.27073.04291.53329.12668.78359H2.34591c-.46689,0-.84591.37903-.84591.84591v7.1494c0,.46689.37903.84591.84591.84591h4.03852c.54351,1.91046,2.2762,3.23552,4.24898,3.23552,1.70409,0,3.25493-.99507,3.98744-2.54694.34633.15018.71719.22578,1.12686.22578,1.51713,0,2.75228-1.23413,2.75228-2.75126v-3.76983c0-.46484-.378-.84387-.84285-.84387ZM15.053,8.79549l2.62254.01839v3.76983c0,1.0625-.86532,1.9268-1.9595,1.9268-.28504,0-.55679-.06028-.81118-.17879.0991-.37596.14916-.76418.14916-1.15649,0,0,0-4.3491-.00102-4.37975ZM9.00595,4.79579c0-.897.73047-1.62746,1.62746-1.62746s1.62746.73047,1.62746,1.62746-.73047,1.62746-1.62746,1.62746c-.0991,0-.19718-.00919-.29117-.02554-.01532-.45361-.38924-.81833-.84694-.81833h-.2881c-.13179-.23906-.20126-.50775-.20126-.78359ZM14.22957,8.82614v4.3491c0,.28299-.03167.56394-.09501.83468-.04495.19718-.10625.38822-.17981.56803-.5619,1.36899-1.8655,2.25373-3.32133,2.25373-1.52939,0-2.86671-.96136-3.38161-2.41106h2.24351c.46689,0,.84694-.37903.84694-.84591v-4.78023s3.86587,0,3.88732.03167ZM4.15319,8.32145v-.52921h3.53588v.52921h-1.42927v3.89243h-.6845v-3.89243h-1.42212Z" fill="var(--iconPrimary, #222)"/>
</svg>