<?xml version="1.0" encoding="UTF-8"?>
<svg xmlns="http://www.w3.org/2000/svg" width="28.00005" height="28" viewBox="0 0 28.00005 28">
  <g id="circles">
    <circle id="Ellipse_10213" data-name="Ellipse 10213" cx="14.00002" cy="14" r="14.00001" fill="#9a47e2"/>
  </g>
  <g id="ICONS">
    <rect id="S2_Icon_GraphChartAutomation_20_N" x="5" y="5" width="18" height="18" fill="none" opacity=".1"/>
    <path d="M12.2,18.275c-.37266,0-.675-.30234-.675-.675v-2.51367c0-.37266.30234-.675.675-.675s.675.30234.675.675v2.51367c0,.37266-.30234.675-.675.675Z" fill="#fff"/>
    <path d="M9.95,18.275c-.37266,0-.675-.30234-.675-.675v-1.16367c0-.37266.30234-.675.675-.675s.675.30234.675.675v1.16367c0,.37266-.30234.675-.675.675Z" fill="#fff"/>
    <path d="M18.8375,9.8375h-1.61279c-.31069,0-.5625.25225-.5625.5625s.25181.5625.5625.5625h.11722l-2.4015,2.21924c-.04043.03867-.10195.04131-.1459.00527l-1.80483-1.41504c-.47065-.37002-1.13599-.35068-1.58335.04482l-2.50356,2.21133c-.23291.20566-.25488.56162-.04922.79453.11118.12568.26587.18984.42144.18984.13271,0,.26543-.04658.37222-.14062l2.50312-2.21133c.04175-.03516.10195-.03779.14458-.00352l1.80527,1.41592c.47988.37705,1.15532.35068,1.604-.06504l2.5708-2.37568v.39375c0,.31025.25181.5625.5625.5625s.5625-.25225.5625-.5625v-1.62598c0-.31025-.25181-.5625-.5625-.5625Z" fill="#fff"/>
    <path d="M12.43467,20.30176h-4.50835c-1.11665,0-2.025-.90879-2.025-2.025v-8.55c0-1.11621.90835-2.025,2.025-2.025h12.15c1.11665,0,2.025.90879,2.025,2.025v3.59713c0,.37266-.30234.675-.675.675s-.675-.30234-.675-.675v-3.59713c0-.37178-.30278-.675-.675-.675H7.92632c-.37222,0-.675.30322-.675.675v8.55c0,.37178.30278.675.675.675h4.50835c.37266,0,.675.30234.675.675s-.30234.675-.675.675Z" fill="#fff"/>
    <path d="M18.4983,14.45c-2.23676,0-4.05,1.81318-4.05,4.05s1.81324,4.05,4.05,4.05,4.05-1.81318,4.05-4.05-1.81324-4.05-4.05-4.05ZM20.19003,18.80454l-2.45687,2.75823c-.19012.21335-.53767,0-.42539-.26125l.82875-1.9325-1.17241-.49417c-.27339-.11536-.35343-.45945-.15721-.67961l2.45693-2.75801c.18973-.21335.53762,0,.42534.26125l-.82903,1.9325,1.17241.49417c.27367.11536.3531.45923.15749.67939Z" fill="#fff"/>
  </g>
</svg>