<?xml version="1.0" encoding="UTF-8"?>
<svg xmlns="http://www.w3.org/2000/svg" width="20" height="20" viewBox="0 0 20 20">
  <path d="M17.75,12.42554v-4.85107c.58911-.28204,1-.87903,1-1.57446,0-.96484-.78516-1.75-1.75-1.75-.37109,0-.71423.11798-.9978.31586l-4.27319-2.44183c.0083-.06873.021-.13611.021-.20703,0-.96484-.78516-1.75-1.75-1.75s-1.75.78516-1.75,1.75c0,.07092.0127.13831.021.20703l-4.27319,2.44183c-.28357-.19788-.62671-.31586-.9978-.31586-.96484,0-1.75.78516-1.75,1.75,0,.69543.41089,1.29242,1,1.57446v4.85107c-.58911.28204-1,.87903-1,1.57446,0,.96484.78516,1.75,1.75,1.75.37109,0,.71423-.11798.9978-.31586l4.26514,2.43726c-.00317.04321-.01294.08459-.01294.1286,0,.96484.78516,1.75,1.75,1.75s1.75-.78516,1.75-1.75c0-.04401-.00977-.08539-.01294-.1286l4.26514-2.43726c.28357.19788.62671.31586.9978.31586.96484,0,1.75-.78516,1.75-1.75,0-.69543-.41089-1.29242-1-1.57446ZM17,5.25c.41309,0,.75.33643.75.75s-.33691.75-.75.75-.75-.33643-.75-.75.33691-.75.75-.75ZM15.26306,5.87109c-.0033.04333-.01306.08478-.01306.12891,0,.69543.41089,1.29242,1,1.57446v4.16107L10.74432,3.4787c.06085-.02954.12738-.04846.18427-.08435l4.33447,2.47675ZM10,1.16699c.41309,0,.75.33643.75.75s-.33691.75-.75.75-.75-.33643-.75-.75.33691-.75.75-.75ZM4.75,6c0-.04413-.00977-.08557-.01306-.12891l4.33447-2.47675c.06024.03796.13049.05847.19513.08929L3.75,11.74988v-4.17542c.58911-.28204,1-.87903,1-1.57446ZM3,5.25c.41309,0,.75.33643.75.75s-.33691.75-.75.75-.75-.33643-.75-.75.33691-.75.75-.75ZM3,14.75c-.41309,0-.75-.33643-.75-.75s.33691-.75.75-.75.75.33643.75.75-.33691.75-.75.75ZM10,18.75c-.41309,0-.75-.33643-.75-.75s.33691-.75.75-.75.75.33643.75.75-.33691.75-.75.75ZM10.99792,16.56598c-.28357-.19794-.62671-.31598-.99792-.31598s-.71436.11804-.99792.31598l-4.26514-2.43707c.0033-.04333.01306-.08478.01306-.12891,0-.37579-.12683-.71704-.33008-1.00116l5.5874-8.37238,5.57837,8.36591c-.20624.2854-.33569.62878-.33569,1.00763,0,.04413.00977.08557.01306.12891l-4.26514,2.43707ZM17,14.75c-.41309,0-.75-.33643-.75-.75s.33691-.75.75-.75.75.33643.75.75-.33691.75-.75.75Z" fill="var(--iconPrimary, #222)"/>
</svg>