<?xml version="1.0" encoding="UTF-8"?>
<svg xmlns="http://www.w3.org/2000/svg" width="20" height="20" viewBox="0 0 20 20">
  <path d="M11.61328,14.49756c.0918.03613.18555.05322.27832.05322.29785,0,.5791-.17871.69629-.47217.3877-.97021,1.27148-1.64307,2.30664-1.75586.87305-.09351,1.71387.22559,2.30469.82452l-.34668-.04474c-.33398-.04688-.65625.19629-.7002.53955-.04395.34229.19727.65576.54004.69971l2.00098.25879c.02734.00391.05371.00537.08105.00537.30957,0,.57812-.22949.61914-.54492l.25879-2.00098c.04395-.34229-.19727-.65576-.54004-.69971-.33105-.04932-.65527.19629-.7002.53955l-.04004.3089c-.91162-.99109-2.25476-1.52655-3.63965-1.37726-1.58887.17334-2.94434,1.20459-3.53711,2.69141-.1543.38477.0332.8208.41797.97461Z" fill="var(--iconPrimary, #222)"/>
  <path d="M17,4.25c-.37109,0-.71423.11798-.9978.31586l-4.27319-2.44183c.0083-.06873.021-.13611.021-.20703,0-.96484-.78516-1.75-1.75-1.75s-1.75.78516-1.75,1.75c0,.07092.0127.13831.021.20703l-4.27319,2.44183c-.28357-.19788-.62671-.31586-.9978-.31586-.96484,0-1.75.78516-1.75,1.75,0,.69543.41089,1.29242,1,1.57446v4.85107c-.58911.28204-1,.87903-1,1.57446,0,.96484.78516,1.75,1.75,1.75.37109,0,.71436-.11798.9978-.31592l4.29248,2.45685c.11719.06689.24512.09863.37109.09863.26074,0,.51367-.13574.65234-.37793.20508-.35986.08008-.81787-.2793-1.02344l-4.29749-2.45941c.0033-.04327.01306-.08466.01306-.12878,0-.37579-.12683-.71704-.33008-1.00116l5.58447-8.36847,3.33008,5.04736c.18994.28809.57764.36914.86572.17725.28809-.18994.36768-.57764.17725-.86572l-3.63501-5.5097c.06152-.02972.12872-.04895.18616-.08521l4.33447,2.47675c-.0033.04333-.01306.08478-.01306.12891,0,.69543.41089,1.29242,1,1.57446v1.68872c0,.41406.33594.75.75.75s.75-.33594.75-.75v-1.68872c.58911-.28204,1-.87903,1-1.57446,0-.96484-.78516-1.75-1.75-1.75ZM4.75,6c0-.04413-.00977-.08557-.01306-.12891l4.33447-2.47675c.06024.03796.13049.05847.19513.08929L3.75,11.74988v-4.17542c.58911-.28204,1-.87903,1-1.57446ZM3,5.25c.41309,0,.75.33643.75.75s-.33691.75-.75.75-.75-.33643-.75-.75.33691-.75.75-.75ZM3,14.75c-.41309,0-.75-.33643-.75-.75s.33691-.75.75-.75.75.33643.75.75-.33691.75-.75.75ZM10,2.66699c-.41309,0-.75-.33643-.75-.75s.33691-.75.75-.75.75.33643.75.75-.33691.75-.75.75ZM17,6.75c-.41309,0-.75-.33643-.75-.75s.33691-.75.75-.75.75.33643.75.75-.33691.75-.75.75Z" fill="var(--iconPrimary, #222)"/>
  <path d="M18.83984,15.16602c-.40625-.08643-.80566.16602-.89453.5708-.03125.1416-.07324.28027-.12695.41504-.38477.97852-1.27148,1.65723-2.3125,1.77051-.87378.09259-1.69141-.21625-2.27612-.79694l.31812.04108c.33594.04688.65625-.19727.7002-.53955s-.19824-.65576-.54004-.69971l-2.00098-.2583c-.16504-.02344-.33008.02393-.46191.125-.13086.10107-.2168.25049-.23828.41455l-.25781,2.00098c-.04395.34277.19824.65576.54004.69971.02734.00391.05469.00537.08105.00537.30957,0,.57812-.22998.61914-.54492l.04224-.32855c.80298.87811,1.9364,1.39838,3.15894,1.39838.1582,0,.31738-.0083.47754-.02588,1.59766-.17383,2.95703-1.21338,3.5459-2.71143.08203-.20752.14746-.42139.19629-.64209.08887-.4043-.16602-.80469-.57031-.89404Z" fill="var(--iconPrimary, #222)"/>
</svg>