<?xml version="1.0" encoding="UTF-8"?>
<svg xmlns="http://www.w3.org/2000/svg" width="20" height="20" viewBox="0 0 20 20">
  <path fill="var(--iconPrimary, #222)" d="m7.25684,11.24072h-.78809c-.50781,0-.96289-.26221-1.21777-.70117s-.25781-.96436-.00586-1.40576l1.8877-3.3042c.25488-.44482.71289-.70947,1.22363-.70947h.00098c.51172,0,.96875.26562,1.22266.70947l.78906,1.38135c.1709.2998.06641.68164-.2334.85254-.30078.17334-.68262.06592-.85254-.23242l-.78906-1.38135c-.03711-.06592-.0957-.07959-.1377-.07959h0c-.04199,0-.10059.01367-.13867.08057l-1.88672,3.30273c-.03711.06543-.02051.12207.00098.1582.02051.03613.06152.0791.13672.0791h.78809c.34473,0,.625.27979.625.625s-.28027.625-.625.625Z"/>
  <path fill="var(--iconPrimary, #222)" d="m11.55176,14.60254c-1.69629,0-3.07715-1.38037-3.07715-3.07715s1.38086-3.07764,3.07715-3.07764,3.07715,1.38086,3.07715,3.07764-1.38086,3.07715-3.07715,3.07715Zm0-4.90479c-1.00781,0-1.82715.81982-1.82715,1.82764,0,1.00732.81934,1.82715,1.82715,1.82715s1.82715-.81982,1.82715-1.82715c0-1.00781-.81934-1.82764-1.82715-1.82764Z"/>
  <path fill="var(--iconPrimary, #222)" d="m17.75,12.42554v-4.85107c.58911-.28204,1-.87903,1-1.57446,0-.96484-.78516-1.75-1.75-1.75-.37109,0-.71423.11798-.9978.31586l-4.27319-2.44183c.0083-.06873.021-.13611.021-.20703,0-.96484-.78516-1.75-1.75-1.75s-1.75.78516-1.75,1.75c0,.07092.0127.13831.021.20703l-4.27319,2.44183c-.28357-.19788-.62671-.31586-.9978-.31586-.96484,0-1.75.78516-1.75,1.75,0,.69543.41089,1.29242,1,1.57446v4.85107c-.58911.28204-1,.87903-1,1.57446,0,.96484.78516,1.75,1.75,1.75.37109,0,.71423-.11798.9978-.31586l4.26514,2.43726c-.00317.04321-.01294.08459-.01294.1286,0,.96484.78516,1.75,1.75,1.75s1.75-.78516,1.75-1.75c0-.04401-.00977-.08539-.01294-.1286l4.26514-2.43726c.28357.19788.62671.31586.9978.31586.96484,0,1.75-.78516,1.75-1.75,0-.69543-.41089-1.29242-1-1.57446Zm-.75,2.32446c-.41309,0-.75-.33643-.75-.75s.33691-.75.75-.75.75.33643.75.75-.33691.75-.75.75Zm-7.75,3.25c0-.41357.33691-.75.75-.75s.75.33643.75.75-.33691.75-.75.75-.75-.33643-.75-.75Zm.75-1.75c-.37122,0-.71436.11804-.99792.31598l-4.26514-2.43707c.0033-.04333.01306-.08478.01306-.12891,0-.69543-.41089-1.29242-1-1.57446v-4.85107c.58911-.28204,1-.87903,1-1.57446,0-.04413-.00977-.08557-.01306-.12891l4.33447-2.47675c.2699.17023.58679.27264.92859.27264s.65869-.10242.92859-.27264l4.33447,2.47675c-.0033.04333-.01306.08478-.01306.12891,0,.69543.41089,1.29242,1,1.57446v4.85107c-.58911.28204-1,.87903-1,1.57446,0,.04413.00977.08557.01306.12891l-4.26514,2.43707c-.28357-.19794-.62671-.31598-.99792-.31598Zm-7.75-2.25c0-.41357.33691-.75.75-.75s.75.33643.75.75-.33691.75-.75.75-.75-.33643-.75-.75Zm.75-8.75c.41309,0,.75.33643.75.75s-.33691.75-.75.75-.75-.33643-.75-.75.33691-.75.75-.75ZM10,1.16699c.41309,0,.75.33643.75.75s-.33691.75-.75.75-.75-.33643-.75-.75.33691-.75.75-.75Zm7.75,4.83301c0,.41357-.33691.75-.75.75s-.75-.33643-.75-.75.33691-.75.75-.75.75.33643.75.75Z"/>
</svg>