<?xml version="1.0" encoding="UTF-8"?>
<svg id="g" data-name="ICONS" xmlns="http://www.w3.org/2000/svg" width="16" height="16" viewBox="0 0 16 16">
  <path d="M13,9.33997v-2.69995c1.79301-.82446.31067-3.41192-1.29999-2.26001l-2.40002-1.37c.18424-1.96495-2.78476-1.96371-2.59998,0l-2.39001,1.37c-1.60112-1.18023-3.11312,1.42248-1.31,2.25v2.70996c-1.79948.83301-.30176,3.41251,1.31,2.26001l2.39001,1.37c-.19433,1.94994,2.7948,1.94878,2.59998,0l2.39001-1.37h.01001c1.61225,1.15223,3.09197-1.43699,1.29999-2.26001ZM8,2.51996c.4111-.00423.42086.652-.00003.65002-.42082.00193-.41109-.6543.00003-.65002ZM3.5,5.08997c.41713-.00195.41519.64875-.00003.64001-.41515.00869-.41712-.64201.00003-.64001ZM3.5,10.88c-.41644.00967-.41645-.64973.00003-.64001.41641-.00967.41643.64973-.00003.64001ZM8,13.45001c-.41644.00967-.41645-.64973.00003-.64001.41641-.00967.41643.64973-.00003.64001ZM12,9.33997c-.52291.21307-.91018.7987-.79999,1.39001l-2.39001,1.37c-.42668-.38534-1.19332-.38533-1.62,0l-2.39001-1.37c.11012-.59144-.27699-1.1768-.79999-1.39001v-2.70996c.51842-.21167.90879-.79246.79999-1.38l2.39001-1.37c.42955.38107,1.19046.38104,1.62,0l2.39001,1.37c-.11012.59144.27699,1.1768.79999,1.39001v2.69995ZM12.5,10.88c-.41518.00869-.41714-.64201.00003-.64001.4171-.00195.41517.64875-.00003.64001ZM12.5,5.73999c-.41713.00195-.41519-.64875.00003-.64001.41515-.00869.41712.64201-.00003.64001Z" fill="var(--iconPrimary, #222)"/>
</svg>