<?xml version="1.0" encoding="UTF-8"?>
<svg xmlns="http://www.w3.org/2000/svg" width="20" height="20" viewBox="0 0 20 20">
  <path fill="var(--iconPrimary, #222)" d="m17.75,12.42554v-4.85107c.58911-.28204,1-.87903,1-1.57446,0-.96484-.78516-1.75-1.75-1.75-.37109,0-.71423.11798-.9978.31586l-4.27319-2.44183c.0083-.06873.021-.13611.021-.20703,0-.96484-.78516-1.75-1.75-1.75s-1.75.78516-1.75,1.75c0,.07092.0127.13831.021.20703l-4.27319,2.44183c-.28357-.19788-.62671-.31586-.9978-.31586-.96484,0-1.75.78516-1.75,1.75,0,.69543.41089,1.29242,1,1.57446v4.85107c-.58911.28204-1,.87903-1,1.57446,0,.96484.78516,1.75,1.75,1.75.37109,0,.71423-.11798.9978-.31586l4.26514,2.43726c-.00317.04321-.01294.08459-.01294.1286,0,.96484.78516,1.75,1.75,1.75s1.75-.78516,1.75-1.75c0-.04401-.00977-.08539-.01294-.1286l4.26514-2.43726c.28357.19788.62671.31586.9978.31586.96484,0,1.75-.78516,1.75-1.75,0-.69543-.41089-1.29242-1-1.57446Zm-.75,2.32446c-.41309,0-.75-.33643-.75-.75s.33691-.75.75-.75.75.33643.75.75-.33691.75-.75.75Zm-7.75,3.25c0-.41357.33691-.75.75-.75s.75.33643.75.75-.33691.75-.75.75-.75-.33643-.75-.75Zm.75-1.75c-.37122,0-.71436.11804-.99792.31598l-4.26514-2.43707c.0033-.04333.01306-.08478.01306-.12891,0-.69543-.41089-1.29242-1-1.57446v-4.85107c.58911-.28204,1-.87903,1-1.57446,0-.04413-.00977-.08557-.01306-.12891l4.33447-2.47675c.2699.17023.58679.27264.92859.27264s.65869-.10242.92859-.27264l4.33447,2.47675c-.0033.04333-.01306.08478-.01306.12891,0,.69543.41089,1.29242,1,1.57446v4.85107c-.58911.28204-1,.87903-1,1.57446,0,.04413.00977.08557.01306.12891l-4.26514,2.43707c-.28357-.19794-.62671-.31598-.99792-.31598Zm-7.75-2.25c0-.41357.33691-.75.75-.75s.75.33643.75.75-.33691.75-.75.75-.75-.33643-.75-.75Zm.75-8.75c.41309,0,.75.33643.75.75s-.33691.75-.75.75-.75-.33643-.75-.75.33691-.75.75-.75ZM10,1.16699c.41309,0,.75.33643.75.75s-.33691.75-.75.75-.75-.33643-.75-.75.33691-.75.75-.75Zm7.75,4.83301c0,.41357-.33691.75-.75.75s-.75-.33643-.75-.75.33691-.75.75-.75.75.33643.75.75Z"/>
  <path fill="var(--iconPrimary, #222)" d="m13.2627,8.16321c-.12622-1.69849-1.53296-3.04602-3.2627-3.04602s-3.13647,1.34753-3.2627,3.04602c-.92505.58228-1.5459,1.60541-1.5459,2.77722,0,1.8125,1.47461,3.28711,3.28711,3.28711.55176,0,1.06445-.14966,1.52148-.39093.45703.24127.96973.39093,1.52148.39093,1.8125,0,3.28711-1.47461,3.28711-3.28711,0-1.17181-.62085-2.19495-1.5459-2.77722Zm-1.73291,1.57245c-.1123-.28375-.26685-.54285-.44971-.78162.14258-.03174.28955-.05121.44141-.05121.14844,0,.29236.01794.43188.04822-.08264.29437-.22803.56006-.42358.78461Zm-1.52979,2.54535c-.16199-.18365-.29175-.39386-.37964-.62701.1261.01477.24963.03839.37964.03839s.25354-.02362.37964-.03839c-.08789.23315-.21765.44336-.37964.62701Zm-1.95337-3.32996c.13953-.03027.28345-.04822.43188-.04822.15186,0,.29883.01947.44141.05121-.18286.23877-.3374.49786-.44971.78162-.19556-.22455-.34094-.49023-.42358-.78461Zm2.38525,1.44312c-.13953.03027-.28345.04822-.43188.04822s-.29236-.01794-.43188-.04822c.08386-.29877.23206-.56812.43188-.79474.19983.22662.34802.49597.43188.79474Zm-.43188-4.02698c.87122,0,1.61084.5528,1.90137,1.32404-.12622-.01477-.24976-.03839-.37988-.03839-.55176,0-1.06445.1496-1.52148.39093-.45703-.24133-.96973-.39093-1.52148-.39093-.13013,0-.25366.02362-.37976.03839.29041-.77124,1.03003-1.32404,1.90125-1.32404Zm-3.55859,4.57324c0-.51093.19556-.97284.50732-1.33087.25916.65442.72131,1.2019,1.31006,1.57245.04858.65424.28418,1.25195.66101,1.74432-.14246.03168-.28943.05121-.44128.05121-1.12305,0-2.03711-.91406-2.03711-2.03711Zm5.08008,2.03711c-.15186,0-.29883-.01953-.44128-.05121.37683-.49237.61243-1.09009.66101-1.74432.58875-.37054,1.0509-.91803,1.31006-1.57245.31177.35803.50732.81995.50732,1.33087,0,1.12305-.91406,2.03711-2.03711,2.03711Z"/>
</svg>