<?xml version="1.0" encoding="UTF-8"?>
<svg xmlns="http://www.w3.org/2000/svg" width="20" height="20" viewBox="0 0 20 20">
  <path d="M15,10.5c-2.48535,0-4.5,2.01471-4.5,4.5s2.01465,4.5,4.5,4.5,4.5-2.01471,4.5-4.5-2.01465-4.5-4.5-4.5ZM16.78027,16.78027c-.14648.14648-.33789.21973-.53027.21973s-.38379-.07324-.53027-.21973l-1.17944-1.1795c-.17261-.13745-.29028-.34021-.29028-.57782v-2.75c0-.41406.33594-.75.75-.75s.75.33594.75.75v2.4165l1.03027,1.03027c.29297.29297.29297.76758,0,1.06055Z" fill="var(--iconPrimary, #222)"/>
  <path d="M17,4.25c-.37109,0-.71423.11798-.9978.31586l-4.27319-2.44183c.0083-.06873.021-.13611.021-.20703,0-.96484-.78516-1.75-1.75-1.75s-1.75.78516-1.75,1.75c0,.07092.0127.13831.021.20703l-4.27319,2.44183c-.28357-.19788-.62671-.31586-.9978-.31586-.96484,0-1.75.78516-1.75,1.75,0,.69543.41089,1.29242,1,1.57446v4.85107c-.58911.28204-1,.87903-1,1.57446,0,.96484.78516,1.75,1.75,1.75.37109,0,.71436-.11798.9978-.31592l4.69116,2.64441c.11719.06689.24512.09863.37109.09863.26074,0,.51367-.13574.65234-.37793.20508-.35986.08008-.81787-.2793-1.02344l-4.69617-2.64697c.0033-.04327.01306-.08466.01306-.12878,0-.37579-.12683-.71704-.33008-1.00116l5.58447-8.36847,3.01123,4.56445c.18994.28857.57764.36865.86572.17725.28809-.18994.36768-.57764.17725-.86572l-3.31616-5.02679c.06152-.02972.12872-.04895.18616-.08521l4.33447,2.47675c-.0033.04333-.01306.08478-.01306.12891,0,.69543.41089,1.29242,1,1.57446v1.43872c0,.41406.33594.75.75.75s.75-.33594.75-.75v-1.43872c.58911-.28204,1-.87903,1-1.57446,0-.96484-.78516-1.75-1.75-1.75ZM4.75,6c0-.04413-.00977-.08557-.01306-.12891l4.33447-2.47675c.06024.03796.13049.05847.19513.08929L3.75,11.74988v-4.17542c.58911-.28204,1-.87903,1-1.57446ZM3,5.25c.41309,0,.75.33643.75.75s-.33691.75-.75.75-.75-.33643-.75-.75.33691-.75.75-.75ZM3,14.75c-.41309,0-.75-.33643-.75-.75s.33691-.75.75-.75.75.33643.75.75-.33691.75-.75.75ZM10,2.66699c-.41309,0-.75-.33643-.75-.75s.33691-.75.75-.75.75.33643.75.75-.33691.75-.75.75ZM17,6.75c-.41309,0-.75-.33643-.75-.75s.33691-.75.75-.75.75.33643.75.75-.33691.75-.75.75Z" fill="var(--iconPrimary, #222)"/>
</svg>