<?xml version="1.0" encoding="UTF-8"?>
<svg xmlns="http://www.w3.org/2000/svg" width="20" height="20" viewBox="0 0 20 20">
  <path d="M19.00293,10.10938c-.98145-.80225-2.4834-.69482-3.41992.24219l-4.25391,4.25439c-.25.24902-.43652.56006-.54004.90039l-.9707,3.21436c-.08008.26465-.00781.55176.1875.74707.14258.14258.33398.21973.53027.21973.07227,0,.14551-.01025.2168-.03223l3.21582-.9707c.33984-.10303.65039-.28906.89844-.53809l4.32617-4.32617c.49902-.49902.76465-1.18994.72949-1.89502s-.37012-1.3667-.91992-1.81592ZM11.6582,17.81494l.56641-1.87305c.01978-.06525.0647-.1167.10278-.1723l1.37793,1.37726c-.05518.03784-.10645.08246-.17114.10217l-1.87598.56592ZM18.13281,12.75977l-3.52393,3.52399-1.4187-1.41791,3.45337-3.45374c.22754-.22803.52734-.3457.81543-.3457.2168,0,.42676.06689.59473.2041.22461.18408.35742.44336.37109.72998.01465.28662-.08887.55664-.29199.75928Z" fill="var(--iconPrimary, #222)"/>
  <path d="M17,4.25c-.37109,0-.71423.11798-.9978.31586l-4.27319-2.44183c.0083-.06873.021-.13611.021-.20703,0-.96484-.78516-1.75-1.75-1.75s-1.75.78516-1.75,1.75c0,.07092.0127.13831.021.20703l-4.27319,2.44183c-.28357-.19788-.62671-.31586-.9978-.31586-.96484,0-1.75.78516-1.75,1.75,0,.69543.41089,1.29242,1,1.57446v4.85107c-.58911.28204-1,.87903-1,1.57446,0,.96484.78516,1.75,1.75,1.75.37109,0,.71436-.11798.9978-.31592l3.80823,2.16058c.11719.06689.24512.09863.37109.09863.26074,0,.51367-.13574.65234-.37793.20508-.35986.08008-.81787-.2793-1.02344l-3.81323-2.16315c.0033-.04327.01306-.08466.01306-.12878,0-.37579-.12683-.71704-.33008-1.00116l5.58447-8.36847,3.33008,5.04736c.18994.28809.57764.36914.86572.17725.28809-.18994.36768-.57764.17725-.86572l-3.63501-5.5097c.06152-.02972.12872-.04895.18616-.08521l4.33447,2.47675c-.0033.04333-.01306.08478-.01306.12891,0,.69543.41089,1.29242,1,1.57446v.43872c0,.41406.33594.75.75.75s.75-.33594.75-.75v-.43872c.58911-.28204,1-.87903,1-1.57446,0-.96484-.78516-1.75-1.75-1.75ZM4.75,6c0-.04413-.00977-.08557-.01306-.12891l4.33447-2.47675c.06024.03796.13049.05847.19513.08929L3.75,11.74988v-4.17542c.58911-.28204,1-.87903,1-1.57446ZM3,5.25c.41309,0,.75.33643.75.75s-.33691.75-.75.75-.75-.33643-.75-.75.33691-.75.75-.75ZM3,14.75c-.41309,0-.75-.33643-.75-.75s.33691-.75.75-.75.75.33643.75.75-.33691.75-.75.75ZM10,2.66699c-.41309,0-.75-.33643-.75-.75s.33691-.75.75-.75.75.33643.75.75-.33691.75-.75.75ZM17,6.75c-.41309,0-.75-.33643-.75-.75s.33691-.75.75-.75.75.33643.75.75-.33691.75-.75.75Z" fill="var(--iconPrimary, #222)"/>
</svg>