<?xml version="1.0" encoding="UTF-8"?>
<svg   xmlns="http://www.w3.org/2000/svg" width="20" height="20" viewBox="0 0 20 20">
  <path d="M14,18.5H6c-.41406,0-.75-.33594-.75-.75s.33594-.75.75-.75h8c.41406,0,.75.33594.75.75s-.33594.75-.75.75Z" fill="var(--iconPrimary, #222)"/>
  <path d="M16.75,16H3.25c-1.24072,0-2.25-1.00977-2.25-2.25V5.25c0-1.24023,1.00928-2.25,2.25-2.25h13.5c1.24072,0,2.25,1.00977,2.25,2.25v8.5c0,1.24023-1.00928,2.25-2.25,2.25ZM3.25,4.5c-.41357,0-.75.33691-.75.75v8.5c0,.41309.33643.75.75.75h13.5c.41357,0,.75-.33691.75-.75V5.25c0-.41309-.33643-.75-.75-.75H3.25Z" fill="var(--iconPrimary, #222)"/>
  <path d="M9.85254,13c-.28418,0-.54541-.16113-.67236-.41797l-1.03516-2.0957-.34766.69727c-.12646.25391-.38672.41504-.6709.41504h-2.15771c-.41406,0-.75-.33594-.75-.75s.33594-.75.75-.75h1.69385l.81445-1.63379c.12695-.25391.38721-.41504.67139-.41504h.00146c.28467.00098.54492.16211.6709.41797l.92773,1.87793,1.39941-3.84082c.10791-.29688.36768-.52051.70898-.49316.31641.00195.59814.20215.70312.50098l1.26172,3.58594h1.28076c.41406,0,.75.33594.75.75s-.33594.75-.75.75h-1.81201c-.31836,0-.60205-.20117-.70752-.50098l-.74268-2.11133-1.2832,3.52051c-.10254.28223-.36377.47559-.66357.49219-.01367.00098-.02734.00098-.04102.00098Z" fill="var(--iconPrimary, #222)"/>
</svg>