<?xml version="1.0" encoding="UTF-8"?>
<svg   xmlns="http://www.w3.org/2000/svg" width="20" height="20" viewBox="0 0 20 20">
  <path d="M10,10c-.41406,0-.75-.33594-.75-.75v-4.25c0-.41406.33594-.75.75-.75s.75.33594.75.75v4.25c0,.41406-.33594.75-.75.75Z" fill="var(--iconPrimary, #222)"/>
  <path d="M10,18.75c-3.30859,0-6-2.69141-6-6v-5.5c0-3.30859,2.69141-6,6-6s6,2.69141,6,6v5.5c0,3.30859-2.69141,6-6,6ZM10,2.75c-2.48145,0-4.5,2.01855-4.5,4.5v5.5c0,2.48145,2.01855,4.5,4.5,4.5s4.5-2.01855,4.5-4.5v-5.5c0-2.48145-2.01855-4.5-4.5-4.5Z" fill="var(--iconPrimary, #222)"/>
</svg>