<?xml version="1.0" encoding="UTF-8"?>
<svg xmlns="http://www.w3.org/2000/svg" width="20" height="20" viewBox="0 0 20 20">
  <path d="m10,1.25c-3.30859,0-6,2.69141-6,6v5.5c0,3.30859,2.69141,6,6,6s6-2.69141,6-6v-5.5c0-3.30859-2.69141-6-6-6Zm4.5,6v1.25h-3c-.41309,0-.75-.33691-.75-.75V2.82581c2.12378.35974,3.75,2.19958,3.75,4.42419Zm-4.5,10c-2.48145,0-4.5-2.01855-4.5-4.5v-5.5c0-2.22461,1.62622-4.06445,3.75-4.42419v4.92419c0,1.24023,1.00977,2.25,2.25,2.25h3v2.75c0,2.48145-2.01855,4.5-4.5,4.5Z" fill="var(--iconPrimary, #222)" stroke-width="0"/>
</svg>