<?xml version="1.0" encoding="UTF-8"?>
<svg xmlns="http://www.w3.org/2000/svg" width="20" height="20" viewBox="0 0 20 20">
  <path d="m10,1.25c-3.30859,0-6,2.69141-6,6v5.5c0,3.30859,2.69141,6,6,6s6-2.69141,6-6v-5.5c0-3.30859-2.69141-6-6-6Zm1,1.62085v4.87915c0,.41309-.33691.75-.75.75h-.5c-.41309,0-.75-.33691-.75-.75V2.87085c.32275-.07373.65527-.12085,1-.12085s.67725.04712,1,.12085Zm3.5,9.87915c0,2.48145-2.01855,4.5-4.5,4.5s-4.5-2.01855-4.5-4.5v-5.5c0-1.55664.79529-2.92993,2-3.73828v4.23828c0,1.24023,1.00977,2.25,2.25,2.25h.5c1.24023,0,2.25-1.00977,2.25-2.25V3.51172c1.20471.80835,2,2.18164,2,3.73828v5.5Z" fill="var(--iconPrimary, #222)" stroke-width="0"/>
</svg>