<?xml version="1.0" encoding="UTF-8"?>
<svg xmlns="http://www.w3.org/2000/svg" width="20" height="20" viewBox="0 0 20 20">
  <path d="m10,1.25c-3.30859,0-6,2.69141-6,6v5.5c0,3.30859,2.69141,6,6,6s6-2.69141,6-6v-5.5c0-3.30859-2.69141-6-6-6Zm-.75,1.57581v4.92419c0,.41309-.33691.75-.75.75h-3v-1.25c0-2.22461,1.62622-4.06445,3.75-4.42419Zm5.25,9.92419c0,2.48145-2.01855,4.5-4.5,4.5s-4.5-2.01855-4.5-4.5v-2.75h3c1.24023,0,2.25-1.00977,2.25-2.25V2.82581c2.12378.35974,3.75,2.19958,3.75,4.42419v5.5Z" fill="var(--iconPrimary, #222)" stroke-width="0"/>
</svg>