<?xml version="1.0" encoding="UTF-8"?>
<svg id="e" data-name="ICONS" xmlns="http://www.w3.org/2000/svg" width="20" height="20" viewBox="0 0 20 20">
  <path d="M12.46973,14.71973l-1.71973,1.71973V3.56055l1.71973,1.71973c.14648.14648.33838.21973.53027.21973s.38379-.07324.53027-.21973c.29297-.29297.29297-.76758,0-1.06055l-3-3c-.06909-.06909-.15198-.12378-.24365-.16187-.18335-.07593-.38989-.07593-.57324,0-.09161.03809-.17456.09277-.24365.16187l-3,3c-.29297.29297-.29297.76758,0,1.06055s.76758.29297,1.06055,0l1.71973-1.71973v12.87891l-1.71973-1.71973c-.29297-.29297-.76758-.29297-1.06055,0s-.29297.76758,0,1.06055l3,3c.06909.06909.15204.12378.24365.16187.09174.03784.18896.05786.28662.05786s.19489-.02002.28662-.05786c.09167-.03809.17456-.09277.24365-.16187l3-3c.29297-.29297.29297-.76758,0-1.06055s-.76758-.29297-1.06055,0Z" fill="var(--iconPrimary, #222)"/>
</svg>