<?xml version="1.0" encoding="UTF-8"?>
<svg id="e" data-name="ICONS" xmlns="http://www.w3.org/2000/svg" width="20" height="20" viewBox="0 0 20 20">
  <path d="M15.55762,19H4.44238c-.64355,0-1.25684-.27637-1.68359-.75781s-.62695-1.12402-.54883-1.7627L3.8457,2.97949c.13672-1.12891,1.09766-1.97949,2.2334-1.97949h7.8418c1.13574,0,2.09668.85059,2.2334,1.97852l1.63574,13.50098c.07812.63867-.12207,1.28125-.54883,1.7627s-1.04004.75781-1.68359.75781ZM6.0791,2.5c-.37891,0-.69922.28418-.74512.66016l-1.63574,13.49902c-.02539.2168.03906.42578.18359.58887.14453.16211.34375.25195.56055.25195h11.11523c.2168,0,.41602-.08984.56055-.25195.14453-.16309.20898-.37207.18359-.58887l-1.63574-13.5c-.0459-.375-.36621-.65918-.74512-.65918h-7.8418Z" fill="var(--iconPrimary, #222)"/>
  <path d="M13.03027,12.38379c-.29297-.29297-.76758-.29297-1.06055,0l-1.21973,1.21973v-7.16406l.71973.71973c.14648.14648.33789.21973.53027.21973s.38379-.07324.53027-.21973c.29297-.29297.29297-.76758,0-1.06055l-2-2c-.29297-.29297-.76758-.29297-1.06055,0l-2,2c-.29297.29297-.29297.76758,0,1.06055s.76758.29297,1.06055,0l.71973-.71973v7.16406l-1.21973-1.21973c-.29297-.29297-.76758-.29297-1.06055,0s-.29297.76758,0,1.06055l2.5,2.5c.14648.14648.33789.21973.53027.21973s.38379-.07324.53027-.21973l2.5-2.5c.29297-.29297.29297-.76758,0-1.06055Z" fill="var(--iconPrimary, #222)"/>
</svg>