<?xml version="1.0" encoding="UTF-8"?>
<svg id="g" data-name="ICONS" xmlns="http://www.w3.org/2000/svg" width="20" height="20" viewBox="0 0 20 20">
  <path d="M7.04297,13h-3.79297c-1.24023,0-2.25-1.00928-2.25-2.25v-6.5c0-1.24072,1.00977-2.25,2.25-2.25h7.5c1.24023,0,2.25,1.00928,2.25,2.25v.74463l2.39648-1.54199c.03125-.01953.06348-.0376.09766-.05273.57031-.25635,1.22363-.20996,1.74414.12646.47656.30762.76172.81836.76172,1.36621v5.21484c0,.54785-.28516,1.05859-.76172,1.36621-.52051.33691-1.17383.38428-1.74414.12646-.03418-.01562-.06641-.0332-.09766-.05273l-.61816-.39795c-.34766-.22461-.44824-.68848-.22461-1.03662s.6875-.44971,1.03711-.2251l.55859.35986c.10938.03613.21289.00635.27539-.03418.03418-.02246.0752-.05859.0752-.10596v-5.21484c0-.04736-.04102-.0835-.0752-.10596-.0625-.04102-.16699-.06982-.27539-.03418l-3.49316,2.24756c-.23145.14844-.52344.15967-.76562.02734-.24121-.13135-.39062-.38379-.39062-.6582v-2.11914c0-.41357-.33691-.75-.75-.75H3.25c-.41309,0-.75.33643-.75.75v6.5c0,.41357.33691.75.75.75h3.79297c.41406,0,.75.33594.75.75s-.33594.75-.75.75Z" fill="var(--iconPrimary, #222)"/>
  <path d="M16.25,19.5c-1.79199,0-3.25-1.45801-3.25-3.25s1.45801-3.25,3.25-3.25,3.25,1.45801,3.25,3.25-1.45801,3.25-3.25,3.25ZM16.25,14.5c-.96484,0-1.75.78516-1.75,1.75s.78516,1.75,1.75,1.75,1.75-.78516,1.75-1.75-.78516-1.75-1.75-1.75Z" fill="var(--iconPrimary, #222)"/>
  <path d="M9.24805,11.27539c-.39453,0-.72266-.28369-.74609-.68066-.00195-1.19775.89551-2.09473,1.99805-2.09473.48047,0,.94531.17285,1.30762.48682.3125.271.34668.74463.07617,1.05811-.27148.31348-.74707.34668-1.05859.07568-.06348-.05518-.1709-.12061-.3252-.12061-.27539,0-.5.22412-.5.5,0,.40576-.32227.76318-.72754.7749-.00781.00049-.0166.00049-.02441.00049Z" fill="var(--iconPrimary, #222)"/>
  <path d="M11.31836,16.11231c-.09766,0-.19727-.01904-.29199-.05908-.92773-.39258-1.52637-1.29639-1.52637-2.30322,0-1.37842,1.12109-2.5,2.5-2.5.56055,0,1.11133.19141,1.55078.53906.3252.25684.37988.72852.12305,1.05371-.25488.32471-.72559.38184-1.05273.12305-.17871-.14111-.39355-.21582-.62109-.21582-.55176,0-1,.44873-1,1,0,.40283.23926.76465.61035.92139.38184.16162.56055.60156.39844.98291-.12109.28613-.39844.45801-.69043.45801Z" fill="var(--iconPrimary, #222)"/>
</svg>