<?xml version="1.0" encoding="UTF-8"?>
<svg id="e" data-name="ICONS" xmlns="http://www.w3.org/2000/svg" width="20" height="20" viewBox="0 0 20 20">
  <path d="M18.25,19c-.19238,0-.38379-.07324-.53027-.21973L1.21973,2.28027c-.29297-.29297-.29297-.76758,0-1.06055s.76758-.29297,1.06055,0l16.5,16.5c.29297.29297.29297.76758,0,1.06055-.14648.14648-.33789.21973-.53027.21973Z" fill="var(--iconPrimary, #222)"/>
  <path d="M17.88672,14.39355c-.21484,0-.42969-.09277-.57812-.27148-.26367-.31934-.21973-.79199.09961-1.05664.06055-.0498.0918-.11133.0918-.18359v-5.76367c0-.12109-.07422-.18555-.11914-.21289-.03906-.02441-.11426-.05664-.20508-.02637l-3.49121,2.48242c-.22754.16211-.52832.18457-.77832.05566s-.40625-.38672-.40625-.66699v-2.5c0-.41309-.33691-.75-.75-.75h-2.75781c-.41406,0-.75-.33594-.75-.75s.33594-.75.75-.75h2.75781c1.24023,0,2.25,1.00977,2.25,2.25v1.0459l2.36816-1.68359c.03125-.02246.06445-.04199.09863-.05957.54688-.27246,1.18359-.24512,1.70215.07617.52051.32129.83105.87793.83105,1.48926v5.76367c0,.5166-.23145,1.00488-.63477,1.33984-.13965.11523-.30957.17188-.47852.17188Z" fill="var(--iconPrimary, #222)"/>
  <path d="M11.00781,16H3.25c-1.24023,0-2.25-1.00977-2.25-2.25v-7.5c0-.11816.01465-.23242.03223-.34668.06152-.41016.43945-.69531.85352-.62891.41016.06152.69141.44434.62891.85352-.00586.04004-.01465.08008-.01465.12207v7.5c0,.41309.33691.75.75.75h7.75781c.41406,0,.75.33594.75.75s-.33594.75-.75.75Z" fill="var(--iconPrimary, #222)"/>
</svg>