<?xml version="1.0" encoding="UTF-8"?>
<svg xmlns="http://www.w3.org/2000/svg" width="20" height="20" viewBox="0 0 20 20">
  <path d="M7.04297,13h-3.79297c-1.24023,0-2.25-1.00928-2.25-2.25v-6.5c0-1.24072,1.00977-2.25,2.25-2.25h7.5c1.24023,0,2.25,1.00928,2.25,2.25v.74463l2.39648-1.54199c.03125-.01953.06348-.0376.09766-.05273.57031-.25635,1.22266-.20996,1.74414.12646.47656.30762.76172.81836.76172,1.36621v5.21484c0,.54785-.28516,1.05859-.76172,1.36621-.52148.33691-1.17383.38428-1.74414.12646-.03418-.01562-.06641-.0332-.09766-.05273l-.61816-.39795c-.34766-.22461-.44824-.68848-.22461-1.03662s.68652-.44971,1.03711-.2251l.55859.35986c.1084.03613.21289.00635.27539-.03418.03418-.02246.0752-.05859.0752-.10596v-5.21484c0-.04736-.04102-.0835-.0752-.10596-.06348-.04102-.16797-.06982-.27539-.03418l-3.49316,2.24756c-.23145.14844-.52344.15967-.76562.02734-.24121-.13135-.39062-.38379-.39062-.6582v-2.11914c0-.41357-.33691-.75-.75-.75H3.25c-.41309,0-.75.33643-.75.75v6.5c0,.41357.33691.75.75.75h3.79297c.41406,0,.75.33594.75.75s-.33594.75-.75.75Z" fill="var(--iconPrimary, #222)"/>
  <path d="M15.13086,16.5h-2.15479c-.13843-1.1969-.62988-2.32971-1.40527-3.25031l1.31787-1.39667c.28418-.30127.27051-.77588-.03125-1.06006-.30078-.28418-.77637-.27051-1.06055.03076l-5.57715,5.91162c-.20508.21777-.26172.53662-.14258.81152.11816.2749.38867.45312.68848.45312h8.36523c.41406,0,.75-.33594.75-.75s-.33594-.75-.75-.75ZM10.52368,14.35944c.48657.62372.80188,1.35809.92285,2.14056h-2.94263l2.01978-2.14056Z" fill="var(--iconPrimary, #222)"/>
</svg>