<?xml version="1.0" encoding="UTF-8"?>
<svg id="e" data-name="ICONS" xmlns="http://www.w3.org/2000/svg" width="20" height="20" viewBox="0 0 20 20">
  <path d="M18.68701,12h-.75c-.31537-.8706-1.14032-1.5-2.11719-1.5-.97644,0-1.80121.62891-2.11182,1.5h-4.396c-.41406,0-.75.33594-.75.75s.33594.75.75.75h4.396c.31061.87109,1.13538,1.5,2.11182,1.5.97687,0,1.80182-.62939,2.11212-1.50098.00507.00098.75507.00098.75507.00098.41406,0,.75-.33594.75-.75s-.33594-.75-.75-.75ZM15.81982,13.5c-.41357,0-.75-.33643-.75-.75s.33643-.75.75-.75.75.33643.75.75-.33643.75-.75.75Z" fill="var(--iconPrimary, #222)"/>
  <path d="M18.68701,16.5h-4.396c-.31061-.87109-1.13538-1.5-2.11182-1.5-.97687,0-1.80182.62939-2.11212,1.50098-.00507-.00098-.75507-.00098-.75507-.00098-.41406,0-.75.33594-.75.75s.33594.75.75.75h.75c.31537.8706,1.14032,1.5,2.11719,1.5.97644,0,1.80121-.62891,2.11182-1.5h4.396c.41406,0,.75-.33594.75-.75s-.33594-.75-.75-.75ZM12.1792,18c-.41357,0-.75-.33643-.75-.75s.33643-.75.75-.75.75.33643.75.75-.33643.75-.75.75Z" fill="var(--iconPrimary, #222)"/>
  <path d="M6.25,15h-3c-1.24023,0-2.25-1.00977-2.25-2.25v-7.5c0-1.24023,1.00977-2.25,2.25-2.25h8.5c1.24023,0,2.25,1.00977,2.25,2.25v1.0459l2.36816-1.68359c.03125-.02246.06445-.04199.09961-.05957.5459-.27246,1.18262-.24414,1.70312.07715.51855.32129.8291.87793.8291,1.48828v2.76367c0,.41406-.33594.75-.75.75s-.75-.33594-.75-.75v-2.76367c0-.12109-.07422-.18555-.11816-.21289-.04004-.02344-.11621-.05664-.20703-.02637l-3.49023,2.48242c-.22656.16211-.52832.18457-.77832.05566s-.40625-.38672-.40625-.66699v-2.5c0-.41309-.33691-.75-.75-.75H3.25c-.41309,0-.75.33691-.75.75v7.5c0,.41309.33691.75.75.75h3c.41406,0,.75.33594.75.75s-.33594.75-.75.75Z" fill="var(--iconPrimary, #222)"/>
</svg>