<?xml version="1.0" encoding="UTF-8"?>
<svg id="e" data-name="ICONS" xmlns="http://www.w3.org/2000/svg" width="20" height="20" viewBox="0 0 20 20">
  <path d="M14.73145,5.75h-.28418v-1.5c0-1.24023-1.00977-2.25-2.25-2.25H3.69727c-1.24023,0-2.25,1.00977-2.25,2.25v11.5c0,1.24023,1.00977,2.25,2.25,2.25h8.5c1.24023,0,2.25-1.00977,2.25-2.25v-1.5h.28418c2.18652,0,3.96582-1.90625,3.96582-4.25s-1.7793-4.25-3.96582-4.25ZM2.94727,6.5h3.35352c.25977.91406.98242,1.63672,1.89648,1.89648v2.20703c-.91406.25977-1.63672.98242-1.89648,1.89648h-3.35352v-6ZM12.94727,15.75c0,.41309-.33691.75-.75.75H3.69727c-.41309,0-.75-.33691-.75-.75v-1.75h4c.41406,0,.75-.33594.75-.75,0-.68945.56055-1.25,1.25-1.25.41406,0,.75-.33594.75-.75v-3.5c0-.41406-.33594-.75-.75-.75-.68945,0-1.25-.56055-1.25-1.25,0-.41406-.33594-.75-.75-.75H2.94727v-.75c0-.41309.33691-.75.75-.75h8.5c.41309,0,.75.33691.75.75v11.5ZM14.73145,12.75h-.28418v-5.5h.28418c1.35938,0,2.46582,1.2334,2.46582,2.75s-1.10645,2.75-2.46582,2.75Z" fill="var(--iconPrimary, #222)"/>
</svg>