<?xml version="1.0" encoding="UTF-8"?>
<svg   xmlns="http://www.w3.org/2000/svg" width="20" height="20" viewBox="0 0 20 20">
  <path d="M10.25,4.5H2.75c-.41406,0-.75-.33594-.75-.75s.33594-.75.75-.75h7.5c.41406,0,.75.33594.75.75s-.33594.75-.75.75Z" fill="var(--iconPrimary, #222)" stroke-width="0"/>
  <path d="M10.25,7.5H2.75c-.41406,0-.75-.33594-.75-.75s.33594-.75.75-.75h7.5c.41406,0,.75.33594.75.75s-.33594.75-.75.75Z" fill="var(--iconPrimary, #222)" stroke-width="0"/>
  <path d="M10.25,10.5H2.75c-.41406,0-.75-.33594-.75-.75s.33594-.75.75-.75h7.5c.41406,0,.75.33594.75.75s-.33594.75-.75.75Z" fill="var(--iconPrimary, #222)" stroke-width="0"/>
  <path d="M16.34277,4.05566c-1.15479-.7373-1.7998-1.69238-1.84277-2.30566,0-.41406-.33594-.75-.75-.75s-.75.33594-.75.75v11.72534c-.85065-.32471-1.94867-.29028-3.02472.18872-1.82373.81348-2.77344,2.52441-2.1626,3.89551.30908.69238.98584,1.18164,1.85693,1.3418.2124.03906.43213.05762.65625.05762.6001,0,1.23145-.1377,1.83008-.4043.82275-.36719,1.50439-.94141,1.91992-1.61816.28094-.45825.42413-.94116.42413-1.40723V4.50952c.30908.29297.65527.56738,1.03516.80981.84033.53711,1.89746,1.56348,1.38525,4.27051-.07715.40723.19043.7998.59717.87695.04736.00879.09424.0127.14062.0127.35303,0,.66797-.25098.73584-.61035.50488-2.66602-.18555-4.62207-2.05127-5.81348ZM12.79706,16.15234c-.25439.41406-.71045.79102-1.25195,1.03223-.5415.24023-1.12695.32812-1.60498.24121-.22119-.04102-.61426-.15625-.75732-.47754-.22656-.50781.29443-1.41992,1.40332-1.91406.43408-.19336.85547-.27734,1.2207-.27734.56934,0,1.00391.20312,1.1416.5127.14307.32031-.0332.69043-.15137.88281Z" fill="var(--iconPrimary, #222)" stroke-width="0"/>
</svg>