<?xml version="1.0" encoding="UTF-8"?>
<svg id="e" data-name="ICONS" xmlns="http://www.w3.org/2000/svg" width="20" height="20" viewBox="0 0 20 20">
  <path d="M17.67627,1.53027c-.52295-.42773-1.20459-.59766-1.86719-.46582l-6.99951,1.40039c-1.04834.20898-1.80957,1.13672-1.80957,2.20605v8.99634c-.85083-.32568-1.94946-.29175-3.02637.18823-1.82324.81348-2.77295,2.52441-2.1626,3.89551.40381.9043,1.37256,1.40234,2.50928,1.40234.58496,0,1.21436-.13184,1.83447-.4082,1.42834-.63721,2.30762-1.82397,2.33356-2.96777.00159-.02002.01166-.03711.01166-.05762V7.09082l8.5-1.69995v2.63257c0,.41406.33594.75.75.75s.75-.33594.75-.75V3.27051c0-.67676-.30029-1.31055-.82373-1.74023ZM5.54395,17.375c-1.1084.49512-2.13574.27344-2.36279-.23438-.22656-.50879.29443-1.4209,1.40332-1.91504.43408-.19336.85547-.27734,1.2207-.27734.56934,0,1.00391.20312,1.1416.5127.22705.50781-.29346,1.41992-1.40283,1.91406ZM8.5,5.56128v-.89038c0-.35645.25342-.66602.60303-.73535l7-1.40039c.21875-.0459.44727.01172.62256.15527.17432.14355.27441.35449.27441.58008v.59082l-8.5,1.69995Z" fill="var(--iconPrimary, #222)"/>
  <path d="M15,10.49997c-2.48529,0-4.5,2.01471-4.5,4.5s2.01471,4.5,4.5,4.5,4.5-2.01471,4.5-4.5-2.01471-4.5-4.5-4.5Z" fill="var(--iconPrimary, #222)"/>
  <path d="M17.5,15.62497h-1.875v1.875c0,.34473-.28027.625-.625.625s-.625-.28027-.625-.625v-1.875h-1.875c-.34473,0-.625-.28027-.625-.625s.28027-.625.625-.625h1.875v-1.875c0-.34473.28027-.625.625-.625s.625.28027.625.625v1.875h1.875c.34473,0,.625.28027.625.625s-.28027.625-.625.625Z" fill="#fff"/>
</svg>