<?xml version="1.0" encoding="UTF-8"?>
<svg id="e" data-name="ICONS" xmlns="http://www.w3.org/2000/svg" width="20" height="20" viewBox="0 0 20 20">
  <path d="M16,6.75c1.5166,0,2.75-1.2334,2.75-2.75s-1.2334-2.75-2.75-2.75c-1.44165,0-2.61426,1.11841-2.72791,2.53125l-2.83521.56689c-.67426-1.80396-2.40082-3.09814-4.43689-3.09814C3.38086,1.25,1.25,3.38086,1.25,6c0,1.97607,1.21442,3.67139,2.935,4.38611l-.92615,3.88831c-1.12616.12231-2.00885,1.06787-2.00885,2.22559,0,1.24023,1.00928,2.25,2.25,2.25s2.25-1.00977,2.25-2.25c0-.79028-.41187-1.48401-1.03033-1.8855l.92889-3.90002c.1181.00891.23108.03552.35144.03552,1.03912,0,1.99335-.34497,2.77618-.91333l2.96552,2.96558c-.30621.49561-.4917,1.07373-.4917,1.69775,0,1.79199,1.45801,3.25,3.25,3.25s3.25-1.45801,3.25-3.25-1.45801-3.25-3.25-3.25c-.62408,0-1.20215.18555-1.69775.4917l-2.96552-2.96558c.56824-.78271.91327-1.73706.91327-2.77612,0-.06213-.01593-.11987-.01831-.1814l2.83386-.56665c.45734.88525,1.37103,1.49805,2.43445,1.49805ZM3.5,17.25c-.41357,0-.75-.33691-.75-.75s.33643-.75.75-.75.75.33691.75.75-.33643.75-.75.75ZM6,9.25c-1.79199,0-3.25-1.45801-3.25-3.25s1.45801-3.25,3.25-3.25,3.25,1.45801,3.25,3.25-1.45801,3.25-3.25,3.25ZM16.25,14.5c0,.96484-.78516,1.75-1.75,1.75s-1.75-.78516-1.75-1.75.78516-1.75,1.75-1.75,1.75.78516,1.75,1.75ZM16,2.75c.68945,0,1.25.56055,1.25,1.25s-.56055,1.25-1.25,1.25-1.25-.56055-1.25-1.25.56055-1.25,1.25-1.25Z" fill="var(--iconPrimary, #222)"/>
</svg>