<?xml version="1.0" encoding="UTF-8"?>
<svg  xmlns="http://www.w3.org/2000/svg" width="20" height="20" viewBox="0 0 20 20">
  <path d="m18.18164,11.81787c-.84961-.8501-1.97949-1.31787-3.18164-1.31787s-2.33203.46777-3.18164,1.31787c-.85059.8501-1.31836,1.97998-1.31836,3.18213s.46777,2.33203,1.31836,3.18213c.84961.8501,1.97949,1.31787,3.18164,1.31787s2.33203-.46777,3.18164-1.31787c.85059-.8501,1.31836-1.97998,1.31836-3.18213,0-1.20166-.46777-2.33203-1.31836-3.18213Zm-1.06055,1.06055c.56641.56689.87891,1.32031.87891,2.12158,0,.54358-.1543,1.05988-.42371,1.51611l-4.09216-4.0929c.45581-.26917.97205-.42322,1.51587-.42322.80176,0,1.55469.31201,2.12109.87842Zm-4.24219,4.24316c-.56641-.56689-.87891-1.32031-.87891-2.12158,0-.54358.1543-1.05988.42371-1.51611l4.08557,4.0863c-1.1416.64386-2.68018.50159-3.63037-.44861Z" fill="var(--iconPrimary, #222)" stroke-width="0"/>
  <path d="m8.29785,15H3.25c-1.24023,0-2.25-1.00928-2.25-2.25V4.25c0-1.24072,1.00977-2.25,2.25-2.25h13.5c1.24023,0,2.25,1.00928,2.25,2.25v4.85791c0,.41406-.33594.75-.75.75s-.75-.33594-.75-.75v-4.85791c0-.41357-.33691-.75-.75-.75H3.25c-.41309,0-.75.33643-.75.75v8.5c0,.41357.33691.75.75.75h5.04785c.41406,0,.75.33594.75.75s-.33594.75-.75.75Z" fill="var(--iconPrimary, #222)" stroke-width="0"/>
  <path d="m9.36523,5h-4.23047c-.76367,0-1.38477.62793-1.38477,1.3999v.74561c0,.41406.33594.75.75.75s.75-.33594.75-.75v-.64551h1.25v4h-.58594c-.41406,0-.75.33594-.75.75s.33594.75.75.75h2.63965c.41406,0,.75-.33594.75-.75s-.33594-.75-.75-.75h-.55371v-4h1.25v.64551c0,.41406.33594.75.75.75s.75-.33594.75-.75v-.74561c0-.77197-.62109-1.3999-1.38477-1.3999Z" fill="var(--iconPrimary, #222)" stroke-width="0"/>
</svg>