<?xml version="1.0" encoding="UTF-8"?>
<svg id="e" data-name="ICONS" xmlns="http://www.w3.org/2000/svg" width="20" height="20" viewBox="0 0 20 20">
  <path d="M14.63818,1.93555H5.42725c-1.88965,0-3.42725,1.53711-3.42725,3.42676v9.21094c0,1.88965,1.5376,3.42676,3.42725,3.42676h9.21094c1.88965,0,3.42725-1.53711,3.42725-3.42676V5.3623c0-1.88965-1.5376-3.42676-3.42725-3.42676ZM13.51538,13.4209h-1.91919c0-2.70264.00977-3.14941,0-4.00146-.02295-.75049-.23511-1.10645-.81274-1.17529-.61035-.06836-2.32068-.00977-2.32068-.00977v5.18994h-1.91931v-6.86426c1.34485,0,3.18579-.06836,4.50757-.03271,1.77246.0459,2.44153.81934,2.46436,2.72559.02283,1.08057,0,4.16797,0,4.16797Z" fill="var(--iconPrimary, #222)"/>
</svg>