<?xml version="1.0" encoding="UTF-8"?>
<svg id="e" data-name="ICONS" xmlns="http://www.w3.org/2000/svg" width="20" height="20" viewBox="0 0 20 20">
  <path d="M12.25,10h-4.5c-.96484,0-1.75-.78516-1.75-1.75v-2.5c0-.96484.78516-1.75,1.75-1.75h4.5c.96484,0,1.75.78516,1.75,1.75v2.5c0,.96484-.78516,1.75-1.75,1.75ZM7.75,5.5c-.1377,0-.25.1123-.25.25v2.5c0,.1377.1123.25.25.25h4.5c.1377,0,.25-.1123.25-.25v-2.5c0-.1377-.1123-.25-.25-.25h-4.5Z" fill="var(--iconPrimary, #222)"/>
  <path d="M14.75,1H5.25c-1.24072,0-2.25,1.00977-2.25,2.25v3h-1.25c-.41406,0-.75.33594-.75.75s.33594.75.75.75h1.25v3.5h-1.25c-.41406,0-.75.33594-.75.75s.33594.75.75.75h1.25v3c0,1.24023,1.00928,2.25,2.25,2.25h9.5c1.24072,0,2.25-1.00977,2.25-2.25V3.25c0-1.24023-1.00928-2.25-2.25-2.25ZM15.5,15.75c0,.41309-.33643.75-.75.75H5.25c-.41357,0-.75-.33691-.75-.75V3.25c0-.41309.33643-.75.75-.75h9.5c.41357,0,.75.33691.75.75v12.5Z" fill="var(--iconPrimary, #222)"/>
</svg>