<?xml version="1.0" encoding="UTF-8"?>
<svg id="f" data-name="ICONS" xmlns="http://www.w3.org/2000/svg" width="20" height="20" viewBox="0 0 20 20">
  <rect x="2.03264" y="1.96736" width="16" height="16" rx="3.39453" ry="3.39453" fill="#fff"/>
  <path d="M6.54345,6.55977c1.34476,0,3.18564-.06854,4.50755-.03264,1.77234.0457,2.44145.81926,2.4643,2.72542.02285,1.08038,0,4.16809,0,4.16809h-1.91922c0-2.70257.00979-3.14973,0-4.00163-.02285-.75071-.23501-1.10649-.81273-1.17503-.61036-.06854-2.32069-.00979-2.32069-.00979v5.18972h-1.91922v-6.86414Z" fill="var(--iconPrimary, #222)"/>
  <path d="M14.6377,18H5.42676c-1.88965,0-3.42676-1.53711-3.42676-3.42676V5.3623c0-1.88965,1.53711-3.42676,3.42676-3.42676h9.21094c1.88965,0,3.42676,1.53711,3.42676,3.42676v9.21094c0,1.88965-1.53711,3.42676-3.42676,3.42676ZM5.42676,2c-1.85352,0-3.3623,1.50879-3.3623,3.3623v9.21094c0,1.85352,1.50879,3.3623,3.3623,3.3623h9.21094c1.85352,0,3.3623-1.50879,3.3623-3.3623V5.3623c0-1.85352-1.50879-3.3623-3.3623-3.3623H5.42676Z" fill="#ebebeb"/>
</svg>