<?xml version="1.0" encoding="UTF-8"?>
<svg xmlns="http://www.w3.org/2000/svg" width="20" height="20" viewBox="0 0 20 20">
  <path d="M14.54248,4.56592l-3.76709-1.85742c-.48047-.23633-1.05273-.23633-1.53223,0l-3.76758,1.85742c-.59619.29346-.96631.88916-.96631,1.5542v4.76123c0,.65918.36621,1.25293.95557,1.54883l3.76807,1.89014c.24316.12158.50928.18213.77588.18213s.53369-.06104.77734-.18262l3.76709-1.88965c.58984-.29639.95605-.88965.95605-1.54883v-4.76123c0-.65527-.37988-1.26514-.9668-1.5542ZM9.90674,4.05371c.03271-.01611.06738-.02393.10254-.02393s.07031.0083.10303.02441l2.92834,1.44366-2.94006,1.40009c-.06396.03027-.13672.02979-.19971-.00049l-2.93018-1.39606,2.93604-1.44769ZM6.1377,11.08936c-.0791-.03955-.12842-.11963-.12842-.20801v-4.17603l3.2417,1.54431v4.40143l-3.11328-1.56171ZM13.88037,11.08936l-3.12939,1.56976v-4.40973l3.2583-1.55145v4.18341c0,.08838-.04932.16797-.12891.20801Z" fill="var(--iconPrimary, #222)" stroke-width="0"/>
  <path d="M10.09766,17.54297c-5.08008,0-9.05908-2.30615-9.05908-5.25,0-.79688.2876-1.55811.85449-2.26318.26025-.32227.73242-.37305,1.05469-.11426.32275.25977.37402.73193.11426,1.05469-.34717.43164-.52344.87646-.52344,1.32275,0,2.03271,3.46143,3.75,7.55908,3.75,4.09717,0,7.55859-1.71729,7.55859-3.75,0-.44434-.17725-.88916-.52686-1.32129-.26074-.32227-.21094-.79443.11133-1.05469.32227-.25977.79492-.20947,1.05469.11133.57129.70605.86084,1.46826.86084,2.26465,0,2.94385-3.979,5.25-9.05859,5.25Z" fill="var(--iconPrimary, #222)" stroke-width="0"/>
</svg>