<?xml version="1.0" encoding="UTF-8"?>
<svg xmlns="http://www.w3.org/2000/svg" width="20" height="20" viewBox="0 0 20 20">
  <path d="M10,14.125c-2.27441,0-4.125-1.85059-4.125-4.125s1.85059-4.125,4.125-4.125,4.125,1.85059,4.125,4.125-1.85059,4.125-4.125,4.125ZM10,7.125c-1.58545,0-2.875,1.29004-2.875,2.875s1.28955,2.875,2.875,2.875,2.875-1.29004,2.875-2.875-1.28955-2.875-2.875-2.875Z" fill="var(--iconPrimary, #222)"/>
  <path d="M18,14.26855V5.73145c.80139-.30444,1.375-1.07446,1.375-1.98145,0-1.17188-.95312-2.125-2.125-2.125-.90698,0-1.67706.57373-1.98151,1.375H4.73157c-.30444-.80127-1.07458-1.375-1.98157-1.375C1.57812,1.625.625,2.57812.625,3.75c0,.90698.57361,1.677,1.375,1.98145v8.53711c-.80139.30444-1.375,1.07446-1.375,1.98145,0,1.17188.95312,2.125,2.125,2.125.90698,0,1.67706-.57373,1.98151-1.375h10.53699c.30444.80127,1.07452,1.375,1.98151,1.375,1.17188,0,2.125-.95312,2.125-2.125,0-.90698-.57361-1.67725-1.375-1.98145ZM15.26849,15.5H4.73157c-.21552-.56738-.66425-1.01611-1.23157-1.23145V5.73145c.56732-.21533,1.01599-.66406,1.23151-1.23145h10.53699c.21552.56738.66418,1.01611,1.23151,1.23145v8.53711c-.56732.21533-1.01599.66406-1.23151,1.23145ZM17.25,2.875c.48242,0,.875.39258.875.875s-.39258.875-.875.875-.875-.39258-.875-.875.39258-.875.875-.875ZM2.75,2.875c.48242,0,.875.39258.875.875s-.39258.875-.875.875-.875-.39258-.875-.875.39258-.875.875-.875ZM2.75,17.125c-.48242,0-.875-.39258-.875-.875s.39258-.875.875-.875.875.39258.875.875-.39258.875-.875.875ZM17.25,17.125c-.48242,0-.875-.39258-.875-.875s.39258-.875.875-.875.875.39258.875.875-.39258.875-.875.875Z" fill="var(--iconPrimary, #222)"/>
  <path d="M15,3.75H5l-2.25,2.25v8l2.25,2.25h10l2.25-2.25V6l-2.25-2.25ZM10,13.5c-1.93011,0-3.5-1.57056-3.5-3.5s1.56989-3.5,3.5-3.5,3.5,1.57056,3.5,3.5-1.56989,3.5-3.5,3.5Z" fill="var(--iconPrimary, #222)" opacity=".2"/>
</svg>