<?xml version="1.0" encoding="UTF-8"?>
<svg xmlns="http://www.w3.org/2000/svg" width="20" height="20" viewBox="0 0 20 20">
  <path d="M6.26172,13.7041H2.04395c-.44434,0-.85742-.24023-1.07617-.62695-.21973-.3877-.21387-.86426.01465-1.24609L6.94336,1.89648c.45312-.75195,1.6709-.75195,2.12207,0l2.45117,4.0498c.21484.35449.10059.81641-.25293,1.03027-.35742.21387-.81738.09961-1.03027-.25293l-2.22754-3.68164L2.50781,12.2041h3.75391c.41406,0,.75.33594.75.75s-.33594.75-.75.75ZM7.78125,2.6709l.00098.00098-.00098-.00098Z" fill="var(--iconPrimary, #222)"/>
  <path d="M13.63647,9.43176c2.06775,0,3.75,1.68225,3.75,3.75s-1.68225,3.75-3.75,3.75-3.75-1.68225-3.75-3.75,1.68225-3.75,3.75-3.75M13.63647,7.93176c-2.89954,0-5.25,2.35059-5.25,5.25s2.35046,5.25,5.25,5.25,5.25-2.35046,5.25-5.25-2.35059-5.25-5.25-5.25h0Z" fill="var(--iconPrimary, #222)"/>
</svg>