<?xml version="1.0" encoding="UTF-8"?>
<svg   xmlns="http://www.w3.org/2000/svg" width="20" height="20" viewBox="0 0 20 20">
  <path d="m16.75,6h-2.5c-.57812,0-1.10095.22559-1.5.58545-.39905-.35986-.92188-.58545-1.5-.58545h-2.5c-.57812,0-1.10095.22559-1.5.58545-.39905-.35986-.92188-.58545-1.5-.58545h-2.5c-1.24023,0-2.25,1.00977-2.25,2.25v3.5c0,1.24023,1.00977,2.25,2.25,2.25h2.5c.57812,0,1.10095-.22559,1.5-.58545.39905.35986.92188.58545,1.5.58545h2.5c.57812,0,1.10095-.22559,1.5-.58545.39905.35986.92188.58545,1.5.58545h2.5c1.24023,0,2.25-1.00977,2.25-2.25v-3.5c0-1.24023-1.00977-2.25-2.25-2.25Zm-11,6.5h-2.5c-.41309,0-.75-.33691-.75-.75v-3.5c0-.41309.33691-.75.75-.75h2.5c.41309,0,.75.33691.75.75v3.5c0,.41309-.33691.75-.75.75Zm5.5,0h-2.5c-.41309,0-.75-.33691-.75-.75v-3.5c0-.41309.33691-.75.75-.75h2.5c.41309,0,.75.33691.75.75v3.5c0,.41309-.33691.75-.75.75Zm6.25-.75c0,.41309-.33691.75-.75.75h-2.5c-.41309,0-.75-.33691-.75-.75v-3.5c0-.41309.33691-.75.75-.75h2.5c.41309,0,.75.33691.75.75v3.5Z" fill="var(--iconPrimary, #222)" stroke-width="0"/>
</svg>