<?xml version="1.0" encoding="UTF-8"?>
<svg   xmlns="http://www.w3.org/2000/svg" width="20" height="20" viewBox="0 0 20 20">
  <path d="M14.92285,19.73926c-.16797,0-.33984-.03516-.50684-.10742-.5752-.24902-.86719-.84668-.70898-1.45312l.64258-2.46289h-2.09082c-.45117-.00098-.86621-.24512-1.08496-.6377-.21875-.3916-.20898-.87305.02539-1.25488l3.49023-5.68945c.3291-.53516.96094-.7373,1.54199-.49512.5791.24414.87598.83984.72266,1.44922l-.67188,2.66602h2.08984c.45215.00098.86816.24805,1.08691.64453.21777.39551.20312.87891-.03809,1.26172l-3.45996,5.49414c-.2373.37695-.62598.58496-1.03809.58496ZM12.71777,14.21582h1.96484c.38965.00098.74707.17773.9834.48438s.31641.69727.21875,1.07129l-.30664,1.1748,2.3252-3.69238h-1.95117c-.3877-.00098-.74414-.17578-.98047-.48047-.23633-.30371-.31836-.69238-.22461-1.06543l.3418-1.35547-2.37109,3.86328Z" fill="var(--iconPrimary, #222)"/>
  <path d="M8.25,14h-2.5c-.96484,0-1.75-.78516-1.75-1.75v-1.5c0-.96484.78516-1.75,1.75-1.75h2.5c.96484,0,1.75.78516,1.75,1.75v1.5c0,.96484-.78516,1.75-1.75,1.75ZM5.75,10.5c-.1377,0-.25.1123-.25.25v1.5c0,.1377.1123.25.25.25h2.5c.1377,0,.25-.1123.25-.25v-1.5c0-.1377-.1123-.25-.25-.25h-2.5Z" fill="var(--iconPrimary, #222)"/>
  <path d="M9.34863,17H3.25c-1.24023,0-2.25-1.00977-2.25-2.25V5.25c0-1.24023,1.00977-2.25,2.25-2.25h13.5c1.24023,0,2.25,1.00977,2.25,2.25v1.5c0,.41406-.33594.75-.75.75s-.75-.33594-.75-.75v-1.5c0-.41309-.33691-.75-.75-.75H3.25c-.41309,0-.75.33691-.75.75v9.5c0,.41309.33691.75.75.75h6.09863c.41406,0,.75.33594.75.75s-.33594.75-.75.75Z" fill="var(--iconPrimary, #222)"/>
  <path d="M12.75,7.5H4.75c-.41406,0-.75-.33594-.75-.75s.33594-.75.75-.75h8c.41406,0,.75.33594.75.75s-.33594.75-.75.75Z" fill="var(--iconPrimary, #222)"/>
</svg>