<?xml version="1.0" encoding="UTF-8"?>
<svg id="e" data-name="ICONS" xmlns="http://www.w3.org/2000/svg" width="20" height="20" viewBox="0 0 20 20">
  <path d="M6.375,14.36914c-.14551,0-.29297-.04199-.42188-.13086-1.87402-1.2793-3.02344-3.31152-3.15332-5.57422-.11035-1.93359.53809-3.79395,1.82715-5.24023,1.28809-1.44531,3.0625-2.30176,4.99609-2.41309,1.93359-.10059,3.79395.53906,5.24023,1.82617,1.44531,1.28906,2.30273,3.06348,2.41406,4.99707.04199.75195-.03027,1.5-.21582,2.22168-.10352.40332-.51758.64062-.91309.54004-.40137-.10352-.64258-.5127-.54004-.91309.14746-.57324.20508-1.16602.1709-1.7627-.18262-3.16602-2.90039-5.59961-6.07031-5.41113-1.5332.08789-2.94043.76758-3.96289,1.91406-1.02148,1.14551-1.53613,2.62207-1.44824,4.15527.10254,1.79492,1.01465,3.40625,2.50098,4.42188.3418.2334.42969.7002.19629,1.04199-.14453.21289-.37988.32715-.62012.32715Z" fill="var(--iconPrimary, #222)"/>
  <path d="M10.5791,18.8916c-.20801,0-.41699-.04004-.61719-.12305-.60156-.24902-.99121-.83203-.99121-1.48438v-7.13574c0-.64941.38672-1.23047.98633-1.48145.59668-.25,1.28418-.11816,1.74805.33789l4.81348,4.75098c.46484.45996.60547,1.14844.35742,1.75391-.24902.60547-.83203.99609-1.48633.99609h-1.72168l-1.95312,1.91309c-.30859.30957-.71875.47266-1.13574.47266ZM10.58203,10.04102c-.0127,0-.02832.00293-.0459.00977-.06543.02734-.06543.07617-.06543.09766v7.13574c0,.02148,0,.07129.06543.09863.06934.02734.10156-.00879.11719-.02344l1.87793-1.88184c.29785-.2998.71191-.47168,1.13672-.47168h1.72168c.02148,0,.07129,0,.09863-.06543.02734-.06641-.00879-.10156-.02441-.11719l-4.8125-4.75c-.01074-.01074-.03223-.03223-.06934-.03223Z" fill="var(--iconPrimary, #222)"/>
</svg>