<?xml version="1.0" encoding="UTF-8"?>
<svg xmlns="http://www.w3.org/2000/svg" width="20" height="20" viewBox="0 0 20 20">
  <path d="M9.97949,18.77051c-4.8252,0-8.75-3.9248-8.75-8.75S5.1543,1.27051,9.97949,1.27051s8.75,3.9248,8.75,8.75-3.9248,8.75-8.75,8.75ZM9.97949,2.77051c-3.99805,0-7.25,3.25195-7.25,7.25s3.25195,7.25,7.25,7.25,7.25-3.25195,7.25-7.25-3.25195-7.25-7.25-7.25Z" fill="var(--iconPrimary, #222)"/>
  <circle cx="10" cy="10" r="2" fill="var(--iconPrimary, #222)" opacity=".5"/>
  <path d="M10,4c-3.31348,0-6,2.68579-6,6,0,3.31348,2.68652,6,6,6,3.31421,0,6-2.68652,6-6,0-3.31421-2.68579-6-6-6ZM6.94922,7.60352c-.12402.1543-.30566.23438-.48828.23438-.1377,0-.27539-.04492-.39062-.13672-.26953-.21582-.31348-.60938-.09766-.87891.40918-.51074.90625-.93457,1.47852-1.25977.29883-.17188.68066-.06641.85156.23438.1709.2998.06641.68164-.23438.85156-.43262.24707-.80957.56836-1.11914.95508ZM10,12c-1.10449,0-2-.89551-2-2s.89551-2,2-2,2,.89551,2,2-.89551,2-2,2Z" fill="var(--iconPrimary, #222)"/>
</svg>