<?xml version="1.0" encoding="UTF-8"?>
<svg   xmlns="http://www.w3.org/2000/svg" width="20" height="20" viewBox="0 0 20 20">
  <path d="m15.28882,7.68677c.11279-.37329.19165-.76147.19165-1.17114,0-2.25293-1.83252-4.08496-4.08496-4.08496-1.65686,0-3.07953.99487-3.71997,2.41528-3.44281-.43408-6.01007.42236-6.7312,2.29565-.88574,2.30078,1.26221,5.26172,5.34424,7.36719l.14111.07324c.01196.0061.01862.00952.03009.01538l-1.27228.47388c-.38818.14453-.58594.57715-.44092.96484.1123.30176.39844.48828.70264.48828.08691,0,.17578-.01465.26172-.04688l3-1.11816c.38818-.14551.58594-.57715.44092-.96484l-1.11816-3c-.14453-.3877-.57715-.58594-.96436-.44141-.38818.14453-.58594.57715-.44092.96484l.4975,1.33545c-.00269-.00146-.00409-.00195-.00677-.00342l-.14258-.07422c-3.20947-1.65527-5.20117-4.01855-4.63281-5.49512.43835-1.13916,2.41602-1.65918,4.98682-1.36768-.00342.06836-.02051.1333-.02051.20264,0,2.25293,1.83252,4.08496,4.08545,4.08496,1.30267,0,2.45148-.62402,3.20001-1.57666,2.26337,1.53906,3.51794,3.36377,3.06073,4.55225-.43604,1.13281-2.47559,1.68164-5.06982,1.36914-.40332-.04785-.78516.24219-.83447.6543-.0498.41113.24365.78516.65479.83398.56885.06934,1.11182.10254,1.62451.10254,2.59229,0,4.42383-.86133,5.0249-2.4209.74335-1.93286-.74011-4.42188-3.76733-6.42847Zm-3.89331,1.41382c-1.42578,0-2.58545-1.15918-2.58545-2.58496s1.15967-2.58496,2.58545-2.58496c1.42529,0,2.58496,1.15918,2.58496,2.58496s-1.15967,2.58496-2.58496,2.58496Z" fill="var(--iconPrimary, #222)" stroke-width="0"/>
</svg>