<?xml version="1.0" encoding="UTF-8"?>
<svg id="f" data-name="ICONS" xmlns="http://www.w3.org/2000/svg" width="20" height="20" viewBox="0 0 20 20">
  <path d="M10,10.06445c-1.5127,0-2.74414-1.2334-2.74414-2.75s1.23145-2.75,2.74414-2.75,2.74414,1.2334,2.74414,2.75-1.23145,2.75-2.74414,2.75ZM10,6.06445c-.68555,0-1.24414.56055-1.24414,1.25s.55859,1.25,1.24414,1.25,1.24414-.56055,1.24414-1.25-.55859-1.25-1.24414-1.25Z" fill="var(--iconPrimary, #222)"/>
  <path d="M15.75,2H4.25c-1.24023,0-2.25,1.00977-2.25,2.25v11.5c0,1.24023,1.00977,2.25,2.25,2.25h11.5c1.24023,0,2.25-1.00977,2.25-2.25V4.25c0-1.24023-1.00977-2.25-2.25-2.25ZM8.31445,12.5752c1.08594.42285,2.29297.41992,3.37305-.00098,1.0481.64526.9718,2.96631.83765,3.92578h-5.04443c-.06006-.39209-.43469-3.19116.83374-3.9248ZM16.5,15.75c0,.41309-.33691.75-.75.75h-1.71313c.12524-1.14612.30286-4.6582-2.10718-5.45703-.18652-.0625-.38672-.04785-.55957.03516-.87012.41699-1.86133.41797-2.73535.00293-.17383-.08203-.37207-.09473-.55664-.03418-2.51147.82812-2.25391,4.36914-2.11255,5.45312h-1.71558c-.41309,0-.75-.33691-.75-.75V4.25c0-.41309.33691-.75.75-.75h11.5c.41309,0,.75.33691.75.75v11.5Z" fill="var(--iconPrimary, #222)"/>
</svg>