<?xml version="1.0" encoding="UTF-8"?>
<svg   xmlns="http://www.w3.org/2000/svg" width="20" height="20" viewBox="0 0 20 20">
  <path d="M16.75,3H3.25c-1.24023,0-2.25,1.00977-2.25,2.25v9.5c0,1.24023,1.00977,2.25,2.25,2.25h13.5c1.24023,0,2.25-1.00977,2.25-2.25V5.25c0-1.24023-1.00977-2.25-2.25-2.25ZM16.75,4.5c.41309,0,.75.33691.75.75v3h-9v-3.75h8.25ZM2.5,5.25c0-.41309.33691-.75.75-.75h3.75v3.75H2.5v-3ZM2.5,14.75v-5h9v5.75H3.25c-.41309,0-.75-.33691-.75-.75ZM16.75,15.5h-3.75v-5.75h4.5v5c0,.41309-.33691.75-.75.75Z" fill="var(--iconPrimary, #222)" stroke-width="0"/>
</svg>