<?xml version="1.0" encoding="UTF-8"?>
<svg id="e" data-name="ICONS" xmlns="http://www.w3.org/2000/svg" width="20" height="20" viewBox="0 0 20 20">
  <path d="M9.99707,18.75c-1.20068,0-2.36328-.23828-3.45605-.70898-.38037-.16309-.55615-.60449-.39258-.98535.16309-.37988.60303-.55859.98535-.3916.9043.38867,1.86768.58594,2.86328.58594,3.80859,0,6.98633-2.97363,7.23438-6.76953.02734-.41406.39209-.73438.79736-.69922.41357.02637.72656.38379.69971.79688-.2998,4.58203-4.13525,8.17188-8.73145,8.17188Z" fill="var(--iconPrimary, #222)"/>
  <path d="M2.00684,10.36035c-.01221,0-.02441,0-.03662-.00098-.41357-.01953-.73291-.37109-.71289-.78516C1.48145,4.90625,5.32031,1.25,9.99707,1.25c1.75586,0,3.4502.51855,4.8999,1.5.34277.23242.43311.69824.20068,1.04102-.23242.3457-.69775.43262-1.0415.20117-1.20068-.8125-2.604-1.24219-4.05908-1.24219-3.875,0-7.05566,3.0293-7.2417,6.89648-.01904.40137-.35059.71387-.74854.71387Z" fill="var(--iconPrimary, #222)"/>
  <path d="M1.82094,16.12354c.28413-.92218,3.76402-10.77293,6.80214-11.10296s1.94166,5.6997,4.10253,5.10468c1.46087-.40227,3.2015-3.85531,3.94939-6.24499.47071-1.50402,1.28596-2.54614,1.56101-2.27409s.10874,1.67705-.23202,2.99131c-.75717,2.92032-3.46188,8.85258-6.28053,8.59685-2.81865-.25573-2.60123-4.25944-3.11666-4.24462-.56634.01629-3.65473,7.13672-4.21153,8.34715-.72029,1.56585-3.47619,1.75375-2.57434-1.17332Z" fill="var(--iconPrimary, #222)"/>
</svg>