<?xml version="1.0" encoding="UTF-8"?>
<svg id="e" data-name="ICONS" xmlns="http://www.w3.org/2000/svg" width="20" height="20" viewBox="0 0 20 20">
  <path d="M10,1.25C5.17529,1.25,1.25,5.1748,1.25,10s3.92529,8.75,8.75,8.75,8.75-3.9248,8.75-8.75S14.82471,1.25,10,1.25ZM10,2.75c2.45349,0,4.62238,1.22803,5.93488,3.09863-.87231,1.98486-2.11322,3.97705-3.20172,4.27637-2.16089.59521-1.06445-5.43457-4.10254-5.10449-1.94727.21167-4.06866,4.32349-5.42029,7.49805-.29254-.78589-.46033-1.63184-.46033-2.51855,0-3.99805,3.25244-7.25,7.25-7.25ZM10,17.25c-1.82587,0-3.49152-.68359-4.76758-1.80176,1.13062-2.51416,2.9585-6.48657,3.38196-6.49854.5155-.01465.29797,3.98877,3.11658,4.24463,1.98969.18066,3.91748-2.71973,5.14801-5.46948.23761.71655.37103,1.47998.37103,2.27515,0,3.99805-3.25244,7.25-7.25,7.25Z" fill="var(--iconPrimary, #222)"/>
</svg>