<?xml version="1.0" encoding="UTF-8"?>
<svg xmlns="http://www.w3.org/2000/svg" width="20" height="20" viewBox="0 0 20 20">
  <path d="M11.75,18H3.25c-1.24023,0-2.25-1.00977-2.25-2.25V3.25c0-1.24023,1.00977-2.25,2.25-2.25h8.5c1.24023,0,2.25,1.00977,2.25,2.25v12.5c0,1.24023-1.00977,2.25-2.25,2.25ZM3.25,2.5c-.41309,0-.75.33691-.75.75v12.5c0,.41309.33691.75.75.75h8.5c.41309,0,.75-.33691.75-.75V3.25c0-.41309-.33691-.75-.75-.75H3.25Z" fill="var(--iconPrimary, #222)" stroke-width="0"/>
  <rect x="4" y="4.5" width="1.5" height="1.5" rx=".5" ry=".5" fill="var(--iconPrimary, #222)"/>
  <rect x="7" y="4.5" width="4" height="1.5" rx=".50188" ry=".50188" fill="var(--iconPrimary, #222)"/>
  <rect x="4" y="8.5" width="1.5" height="1.5" rx=".5" ry=".5" fill="var(--iconPrimary, #222)"/>
  <rect x="7" y="8.5" width="4" height="1.5" rx=".50188" ry=".50188" fill="var(--iconPrimary, #222)"/>
  <rect x="4" y="12.5" width="1.5" height="1.5" rx=".5" ry=".5" fill="var(--iconPrimary, #222)"/>
  <rect x="7" y="12.5" width="4" height="1.5" rx=".50188" ry=".50188" fill="var(--iconPrimary, #222)"/>
  <path d="M16.01023,12.45435c-.18848,0-.36523-.07373-.49805-.20801-.13135-.1333-.20312-.30957-.20166-.49658s.0752-.3623.20801-.49316l1.78564-1.76367-1.771-1.74902c-.13281-.13135-.20703-.30664-.20801-.49365-.00146-.18701.07031-.36328.20166-.49609.13281-.13428.30957-.2085.49854-.2085.18506,0,.35986.07178.4917.20215l2.2749,2.24707c.1377.13965.20947.31592.20801.50293s-.0752.3623-.20801.49316l-2.28955,2.26172c-.13184.12988-.30664.20166-.49219.20166Z" fill="var(--iconPrimary, #222)"/>
</svg>