<?xml version="1.0" encoding="UTF-8"?>
<svg   xmlns="http://www.w3.org/2000/svg" width="20" height="20" viewBox="0 0 20 20">
  <path d="M4.479,9.45219c-.39307,0-.77783-.15527-1.0625-.43945l-1.4292-1.42871c-.37744-.37793-.52637-.93262-.38818-1.44922l.52295-1.95215c.13818-.51562.54492-.92188,1.06055-1.06055l1.95215-.52344c.51416-.13965,1.0708.01074,1.44873.38867l1.4292,1.42871c.37744.37793.52637.93262.38818,1.44922l-.52295,1.95215c-.13818.51562-.54492.92188-1.06055,1.06055l-1.95215.52344c-.12744.03418-.25732.05078-.38623.05078ZM5.52295,4.04789l-1.95166.52344-.52295,1.95215,1.42871,1.42871,1.95166-.52344.52295-1.95215-1.42871-1.42871Z" fill="var(--iconPrimary, #222)"/>
  <path d="M6.14941,15.25004h-1.29883c-.3999,0-.77344-.21484-.97412-.56152l-.6499-1.12598c-.20068-.34668-.20068-.77832.00049-1.12598l.64893-1.12402c.20117-.34766.57471-.5625.97461-.5625h1.29883c.3999,0,.77344.21484.97412.56152l.6499,1.12598c.20068.34668.20068.77832-.00049,1.12598l-.64893,1.12402c-.20117.34766-.57471.5625-.97461.5625ZM4.92285,14.00004h1.1543l.57764-1-.57764-1h-1.1543l-.57764,1,.57764,1Z" fill="var(--iconPrimary, #222)"/>
  <path d="M11.14209,11.62407c-.30078,0-.5957-.12207-.81006-.34473l-.90186-.93359c-.27832-.28711-.38281-.70605-.27197-1.0918l.3584-1.24902c.1084-.38184.41797-.68164.80615-.78027l1.26367-.31445c.38965-.09766.80371.02051,1.08154.31055l.90186.93359c.27832.28711.38281.70605.27197,1.0918l-.3584,1.24902c-.1084.38184-.41797.68164-.80615.78027l-1.26367.31445c-.08984.02246-.18115.03418-.27148.03418ZM11.11035,10.377c-.00049,0-.00098.00098-.00146.00098l.00146-.00098ZM10.37988,9.52934l.80176.83008,1.12012-.27832.31836-1.11035-.80176-.83008-1.12012.27832-.31836,1.11035Z" fill="var(--iconPrimary, #222)"/>
  <path d="M14.5,5.96293c-.10791,0-.21582-.02832-.3125-.08398l-1.375-.79395c-.19336-.11133-.3125-.31738-.3125-.54102v-1.58789c0-.22363.11914-.42969.3125-.54102l1.375-.79395c.19336-.11133.43164-.11133.625,0l1.375.79395c.19336.11133.3125.31738.3125.54102v1.58789c0,.22363-.11914.42969-.3125.54102l-1.375.79395c-.09668.05566-.20459.08398-.3125.08398ZM13.75,4.18364l.75.43262.75-.43262v-.86719l-.75-.43262-.75.43262v.86719Z" fill="var(--iconPrimary, #222)"/>
  <path d="M14.28711,19.35942c-.05957,0-.11914-.00293-.1792-.01074l-2.00684-.24609c-.53125-.06641-.98926-.41211-1.19775-.90234l-.78955-1.86035c-.20898-.49219-.13867-1.0625.18359-1.48926l1.21484-1.61328c.32178-.42578.84863-.6582,1.37988-.58594l2.00879.24609c.5293.06641.9873.41211,1.1958.90234l.78955,1.86035c.20898.49219.13867,1.0625-.18359,1.48926l-1.21484,1.61328c-.28564.37793-.7334.59668-1.20068.59668ZM12.71045,14.13969l-1.21582,1.61426.78955,1.86035,2.00537.24609,1.21582-1.61426-.78955-1.86035-2.00537-.24609Z" fill="var(--iconPrimary, #222)"/>
</svg>