<?xml version="1.0" encoding="UTF-8"?>
<svg id="e" data-name="ICONS" xmlns="http://www.w3.org/2000/svg" width="20" height="20" viewBox="0 0 20 20">
  <path d="M10.6792,6.47339c-.29492.29102-.29883.76562-.00781,1.06055.14746.14941.34082.22363.53418.22363.19043,0,.38086-.07227.52637-.21582,1.90039-1.87402,2.38379-4.83691,1.0791-6.60352-.24609-.33301-.71484-.4043-1.04883-.1582-.33301.24609-.4043.71582-.1582,1.04883.75391,1.02148.55957,3.17969-.9248,4.64453Z" fill="var(--iconPrimary, #222)"/>
  <path d="M19.41357,7.79077c-.9043-.66797-2.26074-.95898-3.53125-.75391-1.29297.20605-2.41113.88867-3.14844,1.92383-.24121.33789-.16211.80566.1748,1.0459.13184.09473.28418.13965.43457.13965.23438,0,.46582-.10938.61133-.31445.64453-.90332,1.53223-1.21289,2.16309-1.31348.87598-.13867,1.82227.04785,2.40527.47949.33301.24609.80273.17383,1.04883-.1582.24609-.33301.1748-.80273-.1582-1.04883Z" fill="var(--iconPrimary, #222)"/>
  <path d="M16,5.875c.62122,0,1.125-.50342,1.125-1.12524,0-.62134-.50366-1.12476-1.125-1.12476s-1.125.50342-1.125,1.12476c0,.62183.50366,1.12524,1.125,1.12524Z" fill="var(--iconPrimary, #222)"/>
  <circle cx="15.73828" cy="1.36304" r=".75" fill="var(--iconPrimary, #222)"/>
  <circle cx="18.75" cy="3.2019" r=".75" fill="var(--iconPrimary, #222)"/>
  <path d="M15.87793,10.14551c-.39844.11328-.62891.5293-.51465.92676.23047.80469.1377,1.25195-.02539,1.40137-.54492.50293-2.88965-.41797-5.18555-2.92773-1.09277-1.19434-1.92773-2.47754-2.34961-3.61328-.36621-.98438-.31836-1.61914-.1084-1.81152.23047-.21289.98047-.17285,2.08203.41504.36328.19531.81934.05762,1.01465-.30762s.05762-.81934-.30762-1.01465c-1.63672-.87598-2.98535-.94434-3.80176-.19922-.29456.26929-.48584.6228-.57959,1.04199-.01685.03101-.04248.05469-.05518.08887l-3.16699,8.54102c-.00287.00757-.0011.01562-.00366.02319-.00348.00854-.01074.01392-.01392.02271l-1.25391,3.42383c-.23535.64453-.08105,1.34668.4043,1.83105.33496.33496.77344.5127,1.22461.5127.20215,0,.40723-.03516.60645-.1084l3.37402-1.23633c.00415-.00146.00671-.00513.01086-.00659.00378-.00146.00781-.00073.0116-.0022l8.5918-3.21875c.04419-.0166.07617-.04834.11523-.07178.14233-.0752.27917-.16235.40332-.27588.4668-.42773.92383-1.28125.4541-2.91992-.11328-.39941-.53223-.63281-.92676-.51465ZM9.04492,10.55762c1.12549,1.22998,2.44324,2.29443,3.69324,2.92798l-2.08557.78149c-1.02466-.48438-2.10913-1.30859-3.08228-2.37256-.745-.81445-1.36914-1.70801-1.83337-2.59912l.87427-2.35791c.52295,1.18262,1.35999,2.44751,2.43372,3.62012ZM6.96521,15.64844c-.62073-.44824-1.22607-.97241-1.79626-1.59473-.29468-.32178-.55981-.66846-.81958-1.01611l.71631-1.93188c.40991.62207.87585,1.23096,1.39722,1.80151.74414.8125,1.5564,1.49512,2.37427,2.03979l-1.87195.70142ZM3.32812,16.9834c-.12695.0459-.21484-.0166-.25488-.05664-.04102-.04102-.10254-.12793-.05664-.25488l.73108-1.99609c.10938.12793.20197.26733.3158.3916.3988.43506.81543.82812,1.24146,1.19165l-1.97681.72437Z" fill="var(--iconPrimary, #222)"/>
</svg>