<?xml version="1.0" encoding="UTF-8"?>
<svg id="e" data-name="ICONS" xmlns="http://www.w3.org/2000/svg" width="20" height="20" viewBox="0 0 20 20">
  <circle cx="9.99609" cy="3.99951" r="1" fill="var(--iconPrimary, #222)"/>
  <path d="M9.1709,16.5h-4.9248c-.41309,0-.75-.33691-.75-.75V6.25c0-.41309.33691-.75.75-.75h.71289l.03711,1.25c0,1.24023,1.00977,2.25,2.25,2.25h5.5c1.24023,0,2.25-1.00977,2.25-2.25v-1.25h.75c.41309,0,.75.33691.75.75v5.03906c0,.41406.33594.75.75.75s.75-.33594.75-.75v-5.03906c0-1.24023-1.00977-2.25-2.25-2.25h-2.26074c-.1377-1.82031-1.5791-3.31543-3.33203-3.3916-.95215-.05566-1.87988.29883-2.57617.96582-.67188.64258-1.05273,1.50098-1.0791,2.42578h-2.25195c-1.24023,0-2.25,1.00977-2.25,2.25v9.5c0,1.24023,1.00977,2.25,2.25,2.25h4.9248c.41406,0,.75-.33594.75-.75s-.33594-.75-.75-.75ZM7.24609,5.5c.41406,0,.75-.33594.75-.75v-.64551c0-.55176.21973-1.06543.61816-1.44629.39746-.38086.91797-.57422,1.47363-.55176,1.05176.0459,1.9082,1.02246,1.9082,2.17773v.46582c0,.41406.33594.75.75.75h.75v1.25c0,.41309-.33691.75-.75.75h-5.5c-.41309,0-.75-.33691-.75-.75v-1.25h.75Z" fill="var(--iconPrimary, #222)"/>
  <path d="M19.28052,15.71973l-2-2c-.29297-.29297-.76758-.29297-1.06055,0-.07349.07324-.12817.15771-.16479.24805-.10986.271-.05518.59277.16455.8125l.71973.71973h-4.93921c-.41406,0-.75.33594-.75.75h0c0,.41406.33594.75.75.75h4.93921l-.71948.71973c-.07349.07324-.12817.15771-.16479.24805-.10986.271-.05518.59277.16455.8125.14648.14648.33789.21973.53027.21973s.38379-.07324.53027-.21973l2-2c.07349-.07324.12842-.15771.16504-.24805.10986-.271.05493-.59277-.16479-.8125Z" fill="var(--iconPrimary, #222)"/>
</svg>