<?xml version="1.0" encoding="UTF-8"?>
<svg xmlns="http://www.w3.org/2000/svg" width="20" height="20" viewBox="0 0 20 20">
  <path d="M18.62207,7.98242c-.23145-.76562-.74707-1.39551-1.45312-1.77344-1.45215-.77832-3.27441-.23047-4.05371,1.22559-.36096.67334-.42603,1.42188-.25977,2.11182-.19165-.02417-.39136-.03979-.60547-.04346l-1.81763-.03076c-.02954-.04468-.05029-.09033-.08179-.13428L5.38574,2.55664c-.24609-.33398-.71387-.40723-1.04883-.16211-.33398.24512-.40625.71387-.16211,1.04883l4.36719,5.96484h-1.68652c-.41406,0-.75.33594-.75.75s.33594.75.75.75h2.66809c.04114.08496.08508.17163.12292.25293.25684.54907.74109,1.1792,1.36084,1.80322-.65674.24658-1.23511.71143-1.59229,1.37646-.7793,1.45508-.22949,3.27344,1.22559,4.05371.44922.24023.93262.35449,1.40918.35449,1.06934,0,2.10547-.57324,2.64551-1.58008.37793-.70508.45898-1.51562.22656-2.28125-.224-.74097-.71851-1.34985-1.38892-1.7312-.01282-.0105-.01929-.02563-.03296-.0354-.91113-.65332-1.74524-1.46753-2.21411-2.13403l.9397.01587c.28711.00488.53418.0332.75391.08691.52734.12891,1.05469.29883,1.56641.50488.04492.01758.09106.01733.13672.02637.34888.13477.70728.22266,1.06641.22266,1.07031,0,2.10645-.57422,2.64551-1.58008.37793-.70508.45898-1.51562.22754-2.28125ZM13.37305,16.45996c-.18848.35254-.50293.61035-.88574.72559-.37891.11426-.78516.07617-1.1377-.11328-.72656-.38965-1.00098-1.29785-.6123-2.02344.26953-.50293.78711-.78906,1.32129-.78906.2373,0,.47852.05664.70215.17676.35254.18848.61035.50293.72559.88574.11523.38184.0752.78613-.11328,1.1377ZM17.07227,9.55566c-.3877.72656-1.29785,1.00098-2.02344.61133-.35254-.18848-.60938-.50293-.72461-.88477-.11621-.38281-.0752-.78711.11328-1.13965.39062-.72559,1.29883-1,2.02344-.61133.35254.18848.60938.50293.72461.88477.11621.38281.0752.78711-.11328,1.13965Z" fill="var(--iconPrimary, #222)"/>
  <path d="M9.33691,4.80566c-.25195,0-.49707-.12598-.63867-.35547-.21777-.35254-.10938-.81445.24316-1.03223,2.12207-1.3125,4.53027-2.00586,6.96387-2.00586.41406,0,.75.33594.75.75s-.33594.75-.75.75c-2.1543,0-4.29004.61621-6.1748,1.78125-.12305.07617-.25879.1123-.39355.1123Z" fill="var(--iconPrimary, #222)"/>
  <path d="M1.77539,18.09277h-.01758c-.41504-.00977-.74219-.35352-.73242-.76758.08691-3.61328,1.19141-7.01367,3.19434-9.83398.23926-.33789.70508-.41895,1.0459-.17676.33691.23926.41699.70801.17676,1.0459-1.82812,2.5752-2.83691,5.6875-2.91699,9-.00977.4082-.34375.73242-.75.73242Z" fill="var(--iconPrimary, #222)"/>
</svg>