<?xml version="1.0" encoding="UTF-8"?>
<svg xmlns="http://www.w3.org/2000/svg" width="20" height="20" viewBox="0 0 20 20">
  <path d="M13.25,14.5c-2.48145,0-4.5-2.01855-4.5-4.5s2.01855-4.5,4.5-4.5,4.5,2.01855,4.5,4.5-2.01855,4.5-4.5,4.5ZM13.25,7c-1.6543,0-3,1.3457-3,3s1.3457,3,3,3,3-1.3457,3-3-1.3457-3-3-3Z" fill="var(--iconPrimary, #222)"/>
  <path d="M9.5,10c0-1.58374.98492-2.93115,2.37305-3.48096l-.32227-.22217c-.75537-.52148-1.6377-.79688-2.55078-.79688-2.48145,0-4.5,2.01855-4.5,4.5s2.01855,4.5,4.5,4.5c.91309,0,1.79541-.27539,2.55078-.79688l.32227-.22217c-1.38812-.5498-2.37305-1.89722-2.37305-3.48096ZM9,13c-1.6543,0-3-1.3457-3-3s1.3457-3,3-3c.27393,0,.54395.03711.8042.11035-.67285.80078-1.0542,1.82129-1.0542,2.88965s.38135,2.08887,1.0542,2.88965c-.26025.07324-.53027.11035-.8042.11035Z" fill="var(--iconPrimary, #222)"/>
  <path d="M9,13.74707c-2.07104,0-3.75-1.67749-3.75-3.74707s1.67896-3.74707,3.75-3.74707c.78918,0,1.51947.24609,2.1236.66211.60468-.41772,1.33588-.66504,2.1264-.66504v-2.5c0-.55225-.44769-1-1-1H3.75c-.55231,0-1,.44775-1,1v12.5c0,.55225.44769,1,1,1h8.5c.55231,0,1-.44775,1-1v-2.5c-.79053,0-1.52173-.24731-2.1264-.66504-.60413.41602-1.33441.66211-2.1236.66211Z" fill="var(--iconPrimary, #222)" opacity=".35"/>
  <path d="M13.25,13.75c-.2569,0-.50763-.02637-.75-.07568v2.57568c0,.1377-.1123.25-.25.25H3.75c-.1377,0-.25-.1123-.25-.25V3.75c0-.1377.1123-.25.25-.25h8.5c.1377,0,.25.1123.25.25v2.57568c.24237-.04932.4931-.07568.75-.07568s.50763.02637.75.07568v-2.57568c0-.96484-.78516-1.75-1.75-1.75H3.75c-.96484,0-1.75.78516-1.75,1.75v12.5c0,.96484.78516,1.75,1.75,1.75h8.5c.96484,0,1.75-.78516,1.75-1.75v-2.57568c-.24237.04932-.4931.07568-.75.07568Z" fill="var(--iconPrimary, #222)"/>
  <g opacity=".12">
    <circle cx="13.25" cy="10" r="3.75" fill="var(--iconPrimary, #222)"/>
  </g>
</svg>