<?xml version="1.0" encoding="UTF-8"?>
<svg xmlns="http://www.w3.org/2000/svg" width="20" height="20" viewBox="0 0 20 20">
  <path d="M16,11.375c-.45044,0-.86829.12451-1.23914.3252l-3.20032-3.2002h1.43945c.41406,0,.75-.33594.75-.75s-.33594-.75-.75-.75h-3.25c-.41406,0-.75.33594-.75.75v3.25c0,.41406.33594.75.75.75s.75-.33594.75-.75v-1.43945l3.20044,3.20044c-.20081.37085-.32544.78857-.32544,1.23901,0,.35938.07324.70166.20459,1.01392-1.95374,1.21216-4.13879,1.44678-6.05835.67627.06079-.22144.10376-.44995.10376-.69019,0-1.44727-1.17773-2.625-2.625-2.625-.27954,0-.54395.05566-.79675.13696-.3136-.80518-.43579-1.69458-.33118-2.65454.12378-1.12866.55908-2.28833,1.22717-3.40186.2821.104.58301.16943.90076.16943,1.44727,0,2.625-1.17773,2.625-2.625s-1.17773-2.625-2.625-2.625-2.625,1.17773-2.625,2.625c0,.58252.19702,1.11597.51941,1.55176-.82568,1.33984-1.36157,2.75488-1.51257,4.14258-.14453,1.32178.07251,2.56445.57581,3.67725-.35889.44897-.58264,1.01025-.58264,1.62842,0,1.44727,1.17773,2.625,2.625,2.625.65039,0,1.23901-.24658,1.698-.64014.98022.43164,2.02319.66162,3.08716.66162,1.61609,0,3.26392-.49707,4.76208-1.46289.41638.27783.91565.44141,1.45276.44141,1.44727,0,2.625-1.17773,2.625-2.625s-1.17773-2.625-2.625-2.625ZM6,2.625c.75781,0,1.375.61719,1.375,1.375s-.61719,1.375-1.375,1.375-1.375-.61719-1.375-1.375.61719-1.375,1.375-1.375ZM5,16.375c-.75781,0-1.375-.61719-1.375-1.375s.61719-1.375,1.375-1.375,1.375.61719,1.375,1.375-.61719,1.375-1.375,1.375ZM16,15.375c-.75781,0-1.375-.61719-1.375-1.375s.61719-1.375,1.375-1.375,1.375.61719,1.375,1.375-.61719,1.375-1.375,1.375Z" fill="var(--iconPrimary, #222)"/>
</svg>