<?xml version="1.0" encoding="UTF-8"?>
<svg xmlns="http://www.w3.org/2000/svg" width="20" height="20" viewBox="0 0 20 20">
  <path d="M9.5,10.25c0-2.07104,1.67896-3.75,3.75-3.75v-2.75c0-.55225-.44769-1-1-1H3.75c-.55231,0-1,.44775-1,1v12.5c0,.55225.44769,1,1,1h8.5c.55231,0,1-.44775,1-1v-2.25c-2.07104,0-3.75-1.67896-3.75-3.75Z" fill="var(--iconPrimary, #222)" opacity=".35"/>
  <circle cx="13.25" cy="10.25" r="3.75" fill="var(--iconPrimary, #222)" opacity=".12"/>
  <path d="M17.75,10.25c0-2.22461-1.62622-4.06445-3.75-4.42432v-2.07568c0-.96484-.78516-1.75-1.75-1.75H3.75c-.96484,0-1.75.78516-1.75,1.75v12.5c0,.96484.78516,1.75,1.75,1.75h8.5c.96484,0,1.75-.78516,1.75-1.75v-1.57568c2.12378-.35986,3.75-2.19971,3.75-4.42432ZM12.25,16.5H3.75c-.1377,0-.25-.1123-.25-.25V3.75c0-.1377.1123-.25.25-.25h8.5c.1377,0,.25.1123.25.25v2.07568c-2.12378.35986-3.75,2.19971-3.75,4.42432s1.62622,4.06445,3.75,4.42432v1.57568c0,.1377-.1123.25-.25.25ZM13.25,13.25c-1.6543,0-3-1.3457-3-3s1.3457-3,3-3,3,1.3457,3,3-1.3457,3-3,3Z" fill="var(--iconPrimary, #222)"/>
</svg>