<?xml version="1.0" encoding="UTF-8"?>
<svg id="e" data-name="ICONS" xmlns="http://www.w3.org/2000/svg" width="20" height="20" viewBox="0 0 20 20">
  <path d="M18.07422,1.59863c-.52832-.44141-1.19434-.65039-1.88281-.58789-.68555.06152-1.30664.38672-1.74512.91211-.03638.04297-5.02954,6.01855-6.69336,8.01172-.34412.0166-.69287.06714-1.04199.16406-1.97266.54688-2.68652,2.23242-3.31543,3.71875-.50098,1.18359-.97461,2.30176-2.00293,2.8584-.28613.1543-.43945.47656-.37988.79688.05957.31934.31836.56445.6416.60645.93555.12012,1.97559.20801,3.02344.20801,2.16016,0,4.35059-.37207,5.7207-1.59375.9248-.82617,1.38477-1.93848,1.36523-3.30762-.00085-.06226-.01978-.12109-.02405-.18286l1.20667-1.44312c2.10254-2.5166,5.38086-6.44238,5.45508-6.5293.91113-1.09082.76465-2.7207-.32715-3.63184ZM9.39941,15.57324c-1.05273.93848-3.10156,1.34375-5.86426,1.17969.55371-.72461.91016-1.56934,1.24121-2.35059.56934-1.34375,1.06055-2.50488,2.33496-2.8584.875-.24023,1.73145-.11426,2.35352.35352.5.37402.79102.92383.79883,1.50977.0127.92773-.26953,1.63574-.86426,2.16602ZM17.25293,4.26465c-.04297.05078-3.34473,4.00293-5.45801,6.5332l-.63391.75903c-.21716-.31934-.4718-.61768-.79578-.8606-.27332-.20459-.57483-.3606-.89075-.48462,2.01099-2.40747,6.05823-7.25073,6.12122-7.32495.18359-.2207.44336-.35645.72949-.38281.29395-.02051.56641.0625.78809.24707.45605.38086.51758,1.06152.13965,1.51367Z" fill="var(--iconPrimary, #222)"/>
  <path d="M1.87891,12.21777c.14648,0,.29492-.04297.4248-.13281.34082-.23535.42676-.70215.19141-1.04297-.3877-.5625-.7998-2.38477.00391-4.05176.06305-.13135.13782-.25781.21454-.3833.11853-.03613.23163-.09106.32159-.18408.79492.99316,1.99512,1.42285,3.01855,1.42285.10742,0,.21387-.00488.31641-.01367.98438-.08984,1.71777-.57812,1.96191-1.30664.26758-.79883.08301-1.5918-.50586-2.17773-.82031-.81641-2.35352-1.12207-3.56738-.71191-.31055.10547-.61523.25195-.90625.43555-.34082-.73926-.57227-1.59863-.41113-2.42871.0791-.40723-.1875-.7998-.59375-.87891-.39844-.0791-.7998.1875-.87891.59375-.21338,1.10474.01923,2.33569.65662,3.60327-.07147.04297-.14062.09204-.19666.1604-.31055.37695-.57324.78711-.78125,1.21777-1.05566,2.18848-.56934,4.56543.11328,5.55469.14551.21094.37988.32422.61816.32422ZM4.74121,5.05566c.6748-.22656,1.60352-.06641,2.02734.35547.18652.18555.22852.37695.1416.6377-.0332.09766-.26367.25195-.6748.28906-.67871.0752-1.59473-.22168-2.11816-.97363.20312-.13281.41406-.2373.62402-.30859Z" fill="var(--iconPrimary, #222)"/>
</svg>