<?xml version="1.0" encoding="UTF-8"?>
<svg id="f" data-name="ICONS" xmlns="http://www.w3.org/2000/svg" width="20" height="20" viewBox="0 0 20 20">
  <g>
    <path d="M9.26074,13.5h4.38843c.31079.87085,1.1355,1.5,2.11157,1.5s1.8009-.62915,2.11169-1.5h.88831c.41406,0,.75-.33594.75-.75s-.33594-.75-.75-.75h-.88831c-.31067-.87085-1.13562-1.5-2.11169-1.5s-1.8009.62915-2.11157,1.5h-4.38843c-.41406,0-.75.33594-.75.75s.33594.75.75.75ZM15.76074,12c.41309,0,.75.33691.75.75s-.33691.75-.75.75-.75-.33691-.75-.75.33691-.75.75-.75Z" fill="var(--iconPrimary, #222)"/>
    <path d="M18.76074,16.5h-4.38831c-.31067-.87085-1.13562-1.5-2.11169-1.5s-1.8009.62915-2.11157,1.5h-.88843c-.41406,0-.75.33594-.75.75s.33594.75.75.75h.88843c.31079.87085,1.1355,1.5,2.11157,1.5s1.8009-.62915,2.11169-1.5h4.38831c.41406,0,.75-.33594.75-.75s-.33594-.75-.75-.75ZM12.26074,18c-.41309,0-.75-.33691-.75-.75s.33691-.75.75-.75.75.33691.75.75-.33691.75-.75.75Z" fill="var(--iconPrimary, #222)"/>
  </g>
  <g>
    <path d="M13.76074,1H3.26074c-1.24023,0-2.25,1.00977-2.25,2.25v10.5c0,1.24023,1.00977,2.25,2.25,2.25h3.72168c.41406,0,.75-.33594.75-.75s-.33594-.75-.75-.75h-2.95557c.63464-.64038,1.47766-1.14648,2.45264-1.44727.39551-.12207.61719-.54199.49512-.93848-.12207-.39453-.53906-.61523-.93848-.49512-1.43506.4436-2.64795,1.2644-3.48926,2.30884-.01489-.05859-.03613-.11499-.03613-.17798V3.25c0-.41309.33691-.75.75-.75h10.5c.41309,0,.75.33691.75.75v5.02637c0,.41406.33594.75.75.75s.75-.33594.75-.75V3.25c0-1.24023-1.00977-2.25-2.25-2.25Z" fill="var(--iconPrimary, #222)"/>
    <path d="M8.51074,3.5c-1.72266,0-3.125,1.51367-3.125,3.375s1.40234,3.375,3.125,3.375,3.125-1.51367,3.125-3.375-1.40234-3.375-3.125-3.375ZM8.51074,8.75c-.89648,0-1.625-.84082-1.625-1.875s.72852-1.875,1.625-1.875,1.625.84082,1.625,1.875-.72852,1.875-1.625,1.875Z" fill="var(--iconPrimary, #222)"/>
  </g>
</svg>