<?xml version="1.0" encoding="UTF-8"?>
<svg   xmlns="http://www.w3.org/2000/svg" width="20" height="20" viewBox="0 0 20 20">
  <path d="M11.8335,5.50684c-.27197-.50684-.67188-.94141-1.1626-1.25977-1.01318-.64453-2.32129-.64453-3.34229.00488-1.00684.6582-1.59424,1.76953-1.57129,2.94629-.00928.61133.13574,1.21973.41846,1.75781.26807.51562.66895.95312,1.1582,1.26562.49951.31836,1.07617.48633,1.65186.48633h.05322c.24854,0,.47656-.04297.66846-.08496l.22559-.05078.15869-.16797c.43311-.46094.93115-.86035,1.47998-1.18555l.18945-.1123.09863-.19629c.26807-.53516.40527-1.12695.39648-1.69141.00684-.59766-.14014-1.19043-.42285-1.71191ZM9.1864,9.18433c-.06067.0083-.12268.02368-.17859.02368-.27734-.03906-.60791-.08594-.86719-.25098-.26807-.17188-.4873-.41113-.63574-.69629-.16748-.31934-.25293-.67871-.24756-1.06543-.01318-.68262.32031-1.31348.88379-1.68262.5249-.33398,1.20166-.33203,1.71875-.00391.27393.17773.49902.42188.65381.70996.1626.2998.24658.63965.24268,1.00293.00244.15869-.01819.31812-.05188.47559-.01019.04785-.02747.09424-.04089.14136-.0224.07861-.05292.15503-.08411.23145-.50482.32153-.97168.69434-1.39307,1.11426Z" fill="var(--iconPrimary, #222)"/>
  <path d="M15,10.521c-2.48529,0-4.5,2.01489-4.5,4.5,0,2.48535,2.01471,4.5,4.5,4.5s4.5-2.01465,4.5-4.5c0-2.48511-2.01471-4.5-4.5-4.5ZM17.5,15.64648h-1.875v1.875c0,.34473-.27979.625-.625.625s-.625-.28027-.625-.625v-1.875h-1.875c-.34521,0-.625-.28027-.625-.625s.27979-.625.625-.625h1.875v-1.875c0-.34473.27979-.625.625-.625s.625.28027.625.625v1.875h1.875c.34521,0,.625.28027.625.625s-.27979.625-.625.625Z" fill="var(--iconPrimary, #222)"/>
  <path d="M14.75,1H3.25c-1.24072,0-2.25,1.00977-2.25,2.25v11.5c0,1.24023,1.00928,2.25,2.25,2.25h4.35938c.41406,0,.75-.33594.75-.75s-.33594-.75-.75-.75h-3.74182c.93298-1.13306,2.45239-1.93994,4.15002-2.17383l.0058-.00122c.41003-.05762.69189-.43457.63428-.84448-.0575-.40918-.42719-.69751-.8363-.64136l-.00886.00073c-2.18383.30103-4.15209,1.40601-5.30267,2.9585-.00116-.01685-.00983-.03125-.00983-.04834V3.25c0-.41309.33643-.75.75-.75h11.5c.41357,0,.75.33691.75.75v4.38477c0,.41406.33594.75.75.75s.75-.33594.75-.75V3.25c0-1.24023-1.00928-2.25-2.25-2.25Z" fill="var(--iconPrimary, #222)"/>
</svg>