<?xml version="1.0" encoding="UTF-8"?>
<svg   xmlns="http://www.w3.org/2000/svg" width="20" height="20" viewBox="0 0 20 20">
  <path d="M14.18066,19.99805c-.3916,0-.7832-.14648-1.08203-.44043l-2.76758-2.72852c-.29199-.28809-.4541-.67188-.4541-1.08008,0-.40918.16211-.79297.4541-1.08105l4.20898-4.18945c.31055-.30859.72168-.47852,1.15918-.47852h2.65918c.90527,0,1.6416.73633,1.6416,1.64062v2.59863c0,.43848-.18066.86621-.49414,1.17285l-4.24707,4.14746c-.29688.29297-.6875.43848-1.07812.43848ZM15.69922,11.5c-.03809,0-.07422.01562-.10156.04199l-4.21094,4.19141,2.76562,2.75586,4.30469-4.14941c.02734-.02734.04297-.0625.04297-.10059v-2.59863c0-.07715-.06348-.14062-.1416-.14062h-2.65918Z" fill="var(--iconPrimary, #222)" stroke-width="0"/>
  <circle cx="16.50438" cy="13.26168" r=".75793" fill="var(--iconPrimary, #222)" stroke-width="0"/>
  <path d="M14.75,1H3.25c-1.24023,0-2.25,1.00977-2.25,2.25v11.5c0,1.24023,1.00977,2.25,2.25,2.25h4.35938c.41406,0,.75-.33594.75-.75s-.33594-.75-.75-.75h-3.74707c.92578-1.12598,2.43433-1.92798,4.11719-2.16895.0127-.00195.02539-.00293.03809-.00488.39746-.05469.82812-.06836.8584-.06934l.32227-.01367c.41406-.01172.74023-.35645.72949-.77051-.01172-.41406-.36523-.74316-.77051-.72949-.11523.00293-.23633.00879-.34668.01465,0,0-.51953.0166-.99805.08203-2.16589.29858-4.11865,1.38867-5.27319,2.92126-.00928.01099-.02258.01636-.03137.02795-.00073-.01367-.00793-.02515-.00793-.03906V3.25c0-.41309.33691-.75.75-.75h11.5c.41309,0,.75.33691.75.75v4.38477c0,.41406.33594.75.75.75s.75-.33594.75-.75V3.25c0-1.24023-1.00977-2.25-2.25-2.25Z" fill="var(--iconPrimary, #222)" stroke-width="0"/>
  <path d="M9.02051,10.70801h-.02051c-.59277-.00098-1.16699-.16895-1.66406-.48535-1.01465-.66406-1.60156-1.77441-1.57812-2.97656-.00977-.58398.13477-1.19238.41895-1.7334.2666-.51172.66602-.94922,1.15527-1.2627.50293-.31934,1.08008-.4873,1.67285-.4873.00293.00098.00684,0,.01367,0,.58789,0,1.16504.16797,1.66504.48535.49219.31543.8916.75293,1.15918,1.2666.28223.53809.42773,1.14551.41895,1.75684.02246,1.17676-.56543,2.28809-1.57227,2.94629-.50391.32129-1.07812.48926-1.66895.49023ZM9.00781,5.2627c-.31055,0-.60938.08691-.86816.25098-.2666.1709-.48633.41211-.63379.69434-.16797.32129-.25391.68066-.24805,1.04102-.01367.70898.31934,1.33887.8916,1.71289.24902.15918.54688.24512.85254.24609h.01465c.30566-.00098.60352-.08691.85938-.25098.56445-.36914.89844-1,.88574-1.68262.00488-.38574-.08105-.74512-.24805-1.06445-.14844-.28418-.36816-.52539-.6377-.69824-.25586-.16211-.55469-.24902-.86133-.24902h-.00684Z" fill="var(--iconPrimary, #222)" stroke-width="0"/>
</svg>