<?xml version="1.0" encoding="UTF-8"?>
<svg xmlns="http://www.w3.org/2000/svg" width="20" height="20" viewBox="0 0 20 20">
  <path d="M10.98694,4.52393c.36389-.37451.59021-.88379.59021-1.4458,0-1.14551-.93164-2.07715-2.07715-2.07715s-2.07715.93164-2.07715,2.07715c0,.56201.22632,1.07129.59021,1.4458-.43835.04688-.83618.21655-1.16284.479-.27441-.24146-.61682-.40869-.9989-.47095.32275-.33691.52368-.79126.52368-1.2937,0-1.03418-.84082-1.875-1.875-1.875s-1.875.84082-1.875,1.875c0,.50244.20093.95679.52368,1.2937-.93384.1521-1.64868.93091-1.64868,1.87231v3.14551c0,.59961.38184,1.10938.9082,1.28516l.19922,3.72363c.04297.80859.73047,1.44141,1.56641,1.44141h.65234c.83594,0,1.52344-.63281,1.56641-1.44043l.13696-2.55957c.16699.14868.35376.27197.57202.32812l.25195,5.00879c.0459.93262.81348,1.66309,1.74707,1.66309h.79883c.93359,0,1.70117-.73047,1.74707-1.66211l.25195-5.00977c.63086-.16211,1.10156-.76758,1.10156-1.48828v-4.08984c0-1.15918-.88525-2.10571-2.01306-2.22607ZM9.5,2.25098c.45605,0,.82715.37109.82715.82715,0,.45703-.37109.82812-.82715.82812s-.82715-.37109-.82715-.82812c0-.45605.37109-.82715.82715-.82715ZM4.5,2.61328c.34473,0,.625.28027.625.625s-.28027.625-.625.625-.625-.28027-.625-.625.28027-.625.625-.625ZM5.87695,9.40039c-.39844,0-.72754.31152-.74902.70996l-.30176,4.38965-.7207-.02051-.2334-4.36914c-.02148-.39844-.35059-.70996-.74902-.70996h-.12305v-2.99609c0-.22266.21387-.4043.47754-.4043h2.04492c.26367,0,.47754.18164.47754.4043v2.99609h-.12305ZM11.18359,10.87012c-.39941,0-.72852.31348-.74902.71191l-.28613,5.68066c-.00684.13281-.11621.2373-.24902.2373h-.79883c-.13281,0-.24219-.10449-.24902-.23828l-.28613-5.67969c-.02051-.39844-.34961-.71191-.74902-.71191l-.31641-.03027v-4.08984c0-.41309.33691-.75.75-.75h2.5c.41309,0,.75.33691.75.75l.0625,4.12012h-.37891Z" fill="var(--iconPrimary, #222)"/>
  <path d="M17.65015,4.65234c.32544-.30664.53149-.73828.53149-1.21973,0-.92773-.75391-1.68164-1.68164-1.68164s-1.68164.75391-1.68164,1.68164c0,.48145.20605.91309.53149,1.21973-.78589.12939-1.38696.78516-1.38696,1.57812v2.6748c0,.50684.32422.9375.77148,1.08203l.16992,3.1748c.03613.67969.61523,1.21289,1.31836,1.21289h.55469c.70312,0,1.28223-.5332,1.31836-1.21289l.16992-3.1748c.44727-.14453.77148-.5752.77148-1.08203v-2.6748c0-.79297-.60107-1.44873-1.38696-1.57812ZM16.5,3.00098c.23828,0,.43164.19336.43164.43164,0,.2373-.19336.43066-.43164.43066s-.43164-.19336-.43164-.43066c0-.23828.19336-.43164.43164-.43164ZM17.78711,8.79004h-.11621c-.33203,0-.60645.25977-.62402.5918l-.26953,3.74316-.625-.0293-.19922-3.71387c-.01758-.33203-.29199-.5918-.62402-.5918h-.11621v-2.55957c0-.19629.1875-.35547.41797-.35547h1.73828c.23047,0,.41797.15918.41797.35547v2.55957Z" fill="var(--iconPrimary, #222)"/>
</svg>