<?xml version="1.0" encoding="UTF-8"?>
<svg xmlns="http://www.w3.org/2000/svg" width="20" height="20" viewBox="0 0 20 20">
  <path d="M16.16895,5.03125L4.66992,2.85156c-.66504-.12793-1.33691.04688-1.85449.47656-.51855.42871-.81543,1.06055-.81543,1.7334v9.87695c0,.67285.29688,1.30469.81543,1.7334.40723.33789.91309.5166,1.43164.5166.13965,0,.28125-.0127.42188-.03906l11.5-2.18066c1.06055-.20117,1.83105-1.13086,1.83105-2.21094v-5.51562c0-1.08008-.77051-2.00977-1.83105-2.21094ZM16.5,7.24219v2.00781h-2.75v-3.1499l2.13965.40576c.35352.06641.61035.37598.61035.73633ZM8.84961,9.25v-4.0791l3.40039.64478v3.43433h-3.40039ZM12.25,10.75v3.43457l-3.40039.64502v-4.07959h3.40039ZM3.77148,4.4834c.08496-.06934.24707-.17285.47266-.17285.0459,0,.09473.00488.14551.01465l2.95996.56128v4.36353h-3.84961v-4.18848c0-.22461.09863-.43457.27148-.57812ZM4.38867,15.67578c-.29883.05371-.51465-.0752-.61719-.15918-.17285-.14355-.27148-.35352-.27148-.57812v-4.18848h3.84961v4.36426l-2.96094.56152ZM15.88965,13.49414l-2.13965.40576v-3.1499h2.75v2.00781c0,.36035-.25684.66992-.61035.73633Z" fill="var(--iconPrimary, #222)"/>
</svg>