<?xml version="1.0" encoding="UTF-8"?>
<svg id="f" data-name="ICONS" xmlns="http://www.w3.org/2000/svg" width="20" height="20" viewBox="0 0 20 20">
  <path d="M14.14453,19c-2.54395,0-5.58105-1.63086-8.55176-4.59082C2.6748,11.52246,1,8.3877,1,5.81055c0-1.41797.50781-2.68359,1.46973-3.66211.03809-.0459.07617-.08398.11328-.12012.67383-.66992,1.41797-1.02832,2.14062-1.02832h.00391c.73438.00195,1.38867.37402,1.84375,1.04785l1.78418,2.6377c.47852.71484.47363,1.56836-.01074,2.3457l-.90527,1.42188c.00586.01074.01562.0332.03125.0625.15918.31445.72461,1.07422,1.80566,2.19922.98535,1.01074,1.67676,1.50391,2.08203,1.73828.19043.10938.21973.09375.36523.02148l1.50293-.71191c.84766-.41797,1.72559-.35742,2.53125.18066l2.18945,1.49512c.6748.44336,1.05273,1.10059,1.05273,1.84277,0,.74121-.36523,1.48926-1.05566,2.16309l-.08203.07227c-.95801.96094-2.25391,1.4834-3.71777,1.4834ZM4.72363,2.5c-.30957,0-.70801.21973-1.09375.60254-.76172.76953-1.12988,1.67969-1.12988,2.70801,0,2.17871,1.5127,4.9248,4.14941,7.53418,2.65039,2.6416,5.38184,4.15527,7.49512,4.15527,1.07227,0,1.97656-.36035,2.68848-1.07227l.08887-.0791c.36426-.35742.57812-.74414.57812-1.06738,0-.08496,0-.3418-.3877-.59668l-2.19434-1.49805c-.35645-.2373-.6582-.26074-1.03906-.07324l-1.50586.71289c-.60254.29297-1.16406.26855-1.7627-.07227-.71191-.41309-1.52246-1.08398-2.41211-1.99609-1.0332-1.0752-1.7832-2.00684-2.0625-2.55859-.2793-.53809-.27246-1.04004.02246-1.52637l.91699-1.44043c.2168-.34766.13965-.55469.03613-.70996l-1.78223-2.63477c-.17578-.26074-.37402-.38672-.60449-.3877h-.00098Z" fill="var(--iconPrimary, #222)"/>
</svg>