<?xml version="1.0" encoding="UTF-8"?>
<svg id="f" data-name="ICONS" xmlns="http://www.w3.org/2000/svg" width="20" height="20" viewBox="0 0 20 20">
  <path d="M19.03027,17.69629L2.53027,1.19629c-.29297-.29297-.76758-.29297-1.06055,0s-.29297.76758,0,1.06055l3.7392,3.73926C2.53632,8.77026,1,11.7323,1,14.18945c0,1.41797.5083,2.68359,1.47021,3.66309.03711.04492.07227.08105.10254.10938.68457.67969,1.42871,1.03809,2.15186,1.03809h.00391c.7334-.00195,1.3877-.37402,1.84277-1.04785l1.78662-2.64062c.47607-.71289.47119-1.56641-.01758-2.34863l-.91064-1.38184c0-.00098.00635-.0293.04443-.10254.13544-.26831.60431-.89526,1.42816-1.78906l9.06744,9.06738c.14648.14648.33838.21973.53027.21973s.38379-.07324.53027-.21973c.29297-.29297.29297-.76758,0-1.06055ZM6.13818,10.79492c-.28174.5459-.2749,1.04688.02881,1.5459l.9043,1.42188c.22021.35254.14355.55957.04199.71191l-1.78467,2.6377c-.17578.26074-.37305.38672-.60303.3877h-.00146c-.30957,0-.7085-.21973-1.08691-.58984l-.07422-.08594c-.69531-.69629-1.06299-1.60742-1.06299-2.63477,0-2.06787,1.37567-4.64575,3.76862-7.13379l1.5719,1.57202c-.83911.90564-1.46002,1.68872-1.70233,2.16724Z" fill="var(--iconPrimary, #222)"/>
  <path d="M8.74854,4.80859c3.33008-2.55078,6.24463-3.06543,8.14893-1.17969.38867.37988.60254.7666.60254,1.08984,0,.14648-.04004.36816-.39893.60449l-2.17676,1.48535c-.36279.24219-.66455.26367-1.05566.07324l-1.48877-.7041c-.60742-.29883-1.1709-.27344-1.77686.07227l-.20459.125c-.35059.21973-.45654.68262-.23633,1.0332.22021.35156.68311.45801,1.03418.23633l.1582-.0957c.19092-.11035.2251-.0918.37646-.01953l1.48584.70312c.375.18457.75391.27734,1.12988.27734.48291,0,.96094-.15332,1.41699-.45801l2.17188-1.48242c.68652-.4502,1.06445-1.10742,1.06445-1.85059,0-.74121-.36475-1.48926-1.10693-2.20703-.98877-.98926-2.28516-1.51172-3.74805-1.51172-1.88965,0-4.07129.90527-6.30859,2.61719-.32861.25195-.39111.72266-.13965,1.05176.25293.32812.72266.38965,1.05176.13965Z" fill="var(--iconPrimary, #222)"/>
</svg>