<?xml version="1.0" encoding="UTF-8"?>
<svg id="e" data-name="ICONS" xmlns="http://www.w3.org/2000/svg" width="20" height="20" viewBox="0 0 20 20">
  <path d="M18.98633,4.125l-3.1123-3.11133c-.47607-.47754-1.16846-.63672-1.80518-.41797-.63623.21777-1.08447.76855-1.16846,1.43652l-.0459.36719-1.83008,1.83008c-.16113.16113-.38281.24316-.60889.21582l-1.69336-.17871c-.0166-.00195-.0332-.00293-.0498-.00293-.37354-.04297-.729.08203-.98389.33789-.49268.49316-.45068,1.33594.09229,1.87793l2.34045,2.34058-4.13098,4.12915c-.29297.29297-.29297.76758,0,1.06055.14648.14648.33838.21973.53027.21973s.38379-.07324.53027-.21973l4.13092-4.12891,2.33978,2.33984c.27881.27832.65137.4375,1.02246.4375h.00244c.32812-.00098.63135-.12402.854-.34766.25195-.25391.37256-.60547.3374-.97852-.00049-.01758-.00195-.03613-.00391-.05371l-.17969-1.69434c-.02393-.22656.05469-.44922.21582-.61035l1.83057-1.8291.36572-.0459c.66846-.08398,1.21973-.53223,1.43799-1.16895.21826-.6377.05811-1.3291-.41797-1.80469ZM17.98535,5.44336c-.01904.05469-.0708.15039-.20459.16699l-.62061.07715c-.16602.02051-.31982.0957-.43799.21387l-2.0127,2.01172c-.48291.4834-.71875,1.14941-.64648,1.8291l.10645,1.00488-4.91406-4.91602,1.00391.10645c.67627.06543,1.34326-.16602,1.82568-.64746l2.01172-2.01172c.11768-.11816.19336-.27148.21387-.43652l.07812-.62207c.01709-.13477.11182-.18652.16699-.20508.05371-.02051.16211-.03613.25781.05957l3.1123,3.11133c.0957.0957.07861.20215.05957.25781Z" fill="var(--iconPrimary, #222)"/>
  <path d="M13.62988,19H3.37012c-1.30713,0-2.37012-1.06348-2.37012-2.37012V6.37012c0-1.30664,1.06299-2.37012,2.37012-2.37012h1.78369c.41406,0,.75.33594.75.75s-.33594.75-.75.75h-1.78369c-.47998,0-.87012.39062-.87012.87012v10.25977c0,.47949.39014.87012.87012.87012h10.25977c.47998,0,.87012-.39062.87012-.87012v-1.79492c0-.41406.33594-.75.75-.75s.75.33594.75.75v1.79492c0,1.30664-1.06299,2.37012-2.37012,2.37012Z" fill="var(--iconPrimary, #222)"/>
</svg>