<?xml version="1.0" encoding="UTF-8"?>
<svg id="e" data-name="ICONS" xmlns="http://www.w3.org/2000/svg" width="20" height="20" viewBox="0 0 20 20">
  <path d="M7.75,15.5h-1.5c-.96484,0-1.75-.78516-1.75-1.75v-7.5c0-.96484.78516-1.75,1.75-1.75h1.5c.96484,0,1.75.78516,1.75,1.75v7.5c0,.96484-.78516,1.75-1.75,1.75ZM6.25,6c-.1377,0-.25.1123-.25.25v7.5c0,.1377.1123.25.25.25h1.5c.1377,0,.25-.1123.25-.25v-7.5c0-.1377-.1123-.25-.25-.25h-1.5Z" fill="var(--iconPrimary, #222)"/>
  <path d="M13.75,12h-1.5c-.96484,0-1.75-.78516-1.75-1.75v-4c0-.96484.78516-1.75,1.75-1.75h1.5c.96484,0,1.75.78516,1.75,1.75v4c0,.96484-.78516,1.75-1.75,1.75ZM12.25,6c-.1377,0-.25.1123-.25.25v4c0,.1377.1123.25.25.25h1.5c.1377,0,.25-.1123.25-.25v-4c0-.1377-.1123-.25-.25-.25h-1.5Z" fill="var(--iconPrimary, #222)"/>
  <path d="M15.75,18H4.25c-1.24023,0-2.25-1.00977-2.25-2.25V4.25c0-1.24023,1.00977-2.25,2.25-2.25h11.5c1.24023,0,2.25,1.00977,2.25,2.25v11.5c0,1.24023-1.00977,2.25-2.25,2.25ZM4.25,3.5c-.41309,0-.75.33691-.75.75v11.5c0,.41309.33691.75.75.75h11.5c.41309,0,.75-.33691.75-.75V4.25c0-.41309-.33691-.75-.75-.75H4.25Z" fill="var(--iconPrimary, #222)"/>
</svg>