<?xml version="1.0" encoding="UTF-8"?>
<svg   xmlns="http://www.w3.org/2000/svg" width="20" height="20" viewBox="0 0 20 20">
  <path d="M10.00146,17.75004h-.05713c-2.09082-.01465-4.04541-.84961-5.50391-2.35059-2.89551-2.97949-2.8501-7.9707.1001-10.89941,2.2832-2.2666,5.77344-2.88184,8.69873-1.53516.18799-.08008.62256-.35547.94873-.5625,1.25928-.79883,2.98389-1.89453,4.14404-.73438,1.29248,1.29199.05713,3.10059-.76025,4.29688-.18555.27148-.42871.62793-.52441.82227,1.33105,2.95801.70166,6.42383-1.56738,8.69336-1.46484,1.46484-3.40869,2.26953-5.47852,2.26953ZM10.00439,3.75785c-1.61865,0-3.21631.62402-4.40723,1.80664-2.37891,2.36133-2.41602,6.38672-.08057,8.79004,1.17578,1.20996,2.75244,1.88379,4.43848,1.89551,1.67041.01172,3.27197-.6377,4.46436-1.83008,1.8501-1.85059,2.34766-4.68945,1.23779-7.06445-.05225-.1123-.15967-.34375-.13574-.63574.03711-.4668.3623-.94238.81152-1.60059.50537-.73926,1.35107-1.97754.93848-2.39062-.31104-.30664-1.68945.56543-2.27979.94043-.72461.45996-1.24805.79199-1.7417.81348-.26318.02734-.49463-.08887-.60059-.1377-.00049-.00098-.00146-.00098-.00244-.00098-.84326-.39453-1.74609-.58594-2.64258-.58594ZM13.27979,2.99028l.03857.00977c-.00146,0-.01514-.00488-.03857-.00977Z" fill="var(--iconPrimary, #222)"/>
</svg>