<?xml version="1.0" encoding="UTF-8"?>
<svg id="f" data-name="ICONS" xmlns="http://www.w3.org/2000/svg" width="20" height="20" viewBox="0 0 20 20">
  <path d="M15.78711,11.4043l-1.78711-1.50293v-4.47754c.44531-.35352.71484-.89941.71484-1.49805,0-1.06152-.86328-1.92578-1.92383-1.92578h-5.58105c-1.06055,0-1.92285.86426-1.92285,1.92578,0,.59863.26855,1.14453.71289,1.49707v4.47852l-1.77539,1.49414c-.58203.47266-.79688,1.23438-.54688,1.94043.25.70703.89746,1.16406,1.64941,1.16406h3.92285v2.75c0,.41406.33594.75.75.75s.75-.33594.75-.75v-2.75h3.92383c.75195,0,1.39941-.45703,1.64941-1.16406.25-.70605.03516-1.46777-.53613-1.93164Z" fill="var(--iconPrimary, #222)"/>
</svg>