<?xml version="1.0" encoding="UTF-8"?>
<svg id="f" data-name="ICONS" xmlns="http://www.w3.org/2000/svg" width="20" height="20" viewBox="0 0 20 20">
  <path d="M17.38086,6.56641l-3.94629-3.94629c-.3623-.36328-.8457-.5625-1.35938-.5625h-.00098c-.51465,0-.99902.20117-1.36035.56348-.4248.42383-.62109.99902-.55664,1.56445l-3.16504,3.16504-2.31152-.19824c-.74805-.08594-1.4375.30957-1.75977.98535-.32227.67773-.1875,1.45898.34375,1.99023l2.77344,2.77344-3.81836,3.81836c-.29297.29297-.29297.76758,0,1.06055.14648.14648.33789.21973.53027.21973s.38379-.07324.53027-.21973l3.81836-3.81836,2.77441,2.77441c.33887.33984.78027.5166,1.23145.5166.25488,0,.5127-.05664.75781-.17285.67676-.32227,1.06348-1.0127.98633-1.74609l-.2002-2.32617,3.16602-3.16602c.56738.06738,1.14062-.12988,1.56445-.55371.36328-.36328.56348-.8457.56445-1.35938.00098-.51562-.19922-.99902-.5625-1.3623Z" fill="var(--iconPrimary, #222)"/>
</svg>