<?xml version="1.0" encoding="UTF-8"?>
<svg   xmlns="http://www.w3.org/2000/svg" width="20" height="20" viewBox="0 0 20 20">
  <path d="M10.00114,1.24743c-4.83273-.0004-8.75075,3.91698-8.75114,8.74971-.00029,3.60243,2.20719,6.83691,5.56195,8.14955-.11548-.83354-.10524-1.67969.03037-2.5102.1597-.68585,1.02681-4.35023,1.02681-4.35023-.17865-.40955-.26816-.85241-.26258-1.29919,0-1.21591.70544-2.12514,1.58333-2.12514.60707-.00881,1.10634.47617,1.11516,1.08324.00072.0499-.00195.09979-.008.14932-.15786.99015-.4001,1.96499-.72406,2.91387-.17068.68243.24417,1.37402.92661,1.5447.12044.03012.24465.04248.36866.03667,1.55589,0,2.75123-1.64015,2.75123-4.0073.06118-1.907-1.43515-3.50253-3.34215-3.56372-.10448-.00335-.20906-.00196-.31342.00417-2.08947-.09038-3.85659,1.5302-3.94697,3.61966-.00256.05929-.00373.11863-.00351.17797.0011.71751.22879,1.41634.65057,1.99679.06313.06701.08622.16236.06075.25082-.06662.2763-.21359.87103-.24299.99252-.03821.1597-.12639.19596-.29393.11659-1.13926-.74559-1.80992-2.02904-1.77144-3.39004,0-2.76004,2.00561-5.29082,5.78071-5.29082,2.83252-.14048,5.24261,2.04184,5.3831,4.87436.0029.05844.0048.11693.0057.17543,0,3.01577-1.90176,5.44268-4.54129,5.44268-.79603.02799-1.55166-.35075-2.00561-1.00526,0,0-.43894,1.67151-.54476,2.08008-.26145.80882-.62703,1.58018-1.08756,2.29465,4.61682,1.43019,9.51889-1.15309,10.94908-5.76991,1.43019-4.61682-1.15309-9.51889-5.76991-10.94908-.83709-.25931-1.70837-.39142-2.58471-.39191Z" fill="var(--iconPrimary, #222)" stroke-width="0"/>
</svg>