<?xml version="1.0" encoding="UTF-8"?>
<svg id="e" data-name="ICONS" xmlns="http://www.w3.org/2000/svg" width="20" height="20" viewBox="0 0 20 20">
  <path d="M19.36035,12.72656l-2.65283-7.25c-.20099-.54883-.61731-.96362-1.12054-1.21582-.00726-.00391-.01465-.00732-.02197-.01099-.14282-.06958-.28668-.12891-.44263-.16724-.10754-.02905-.21924-.03906-.33112-.05176-.06671-.0061-.12872-.03076-.19653-.03076H5.396c-.94043,0-1.78955.59375-2.11279,1.47656L.63037,12.72656c-.25195.68945-.15137,1.46094.26953,2.0625.42041.60156,1.10986.96094,1.84375.96094h9.14258c.94043,0,1.78955-.59375,2.11328-1.47656l2.16425-5.91699,1.78741,4.88574c.08545.2334.05273.4834-.08984.6875-.14209.20312-.36621.32031-.61426.32031h-1.604c-.41406,0-.75.33594-.75.75s.33594.75.75.75h1.604c.73389,0,1.42334-.35938,1.84375-.96094.4209-.60156.52148-1.37305.26953-2.0625ZM15.24316,6.50781l-2.65234,7.25c-.10791.29395-.39111.49219-.70459.49219H2.74365c-.24805,0-.47217-.11719-.61426-.32031-.14258-.2041-.17529-.4541-.09033-.6875l2.65234-7.25c.10791-.29395.39111-.49219.70459-.49219h9.14258c.24854,0,.47266.11719.61475.32031.14258.2041.17529.4541.08984.6875Z" fill="var(--iconPrimary, #222)"/>
  <path d="M12.43457,9h-6.58691c-.41406,0-.75-.33594-.75-.75s.33594-.75.75-.75h6.58691c.41406,0,.75.33594.75.75s-.33594.75-.75.75Z" fill="var(--iconPrimary, #222)"/>
  <path d="M11.43457,12h-6.58691c-.41406,0-.75-.33594-.75-.75s.33594-.75.75-.75h6.58691c.41406,0,.75.33594.75.75s-.33594.75-.75.75Z" fill="var(--iconPrimary, #222)"/>
</svg>