<?xml version="1.0" encoding="UTF-8"?>
<svg id="e" data-name="ICONS" xmlns="http://www.w3.org/2000/svg" width="20" height="20" viewBox="0 0 20 20">
  <path d="M15.75,18H4.25c-1.24023,0-2.25-1.00977-2.25-2.25V6c0-.41406.33594-.75.75-.75s.75.33594.75.75v9.75c0,.41309.33691.75.75.75h11.5c.41309,0,.75-.33691.75-.75V4.25c0-.41309-.33691-.75-.75-.75h-5.27148c-.41406,0-.75-.33594-.75-.75s.33594-.75.75-.75h5.27148c1.24023,0,2.25,1.00977,2.25,2.25v11.5c0,1.24023-1.00977,2.25-2.25,2.25Z" fill="var(--iconPrimary, #222)"/>
  <path d="M13.5332,8.21973c-.29297-.29297-.76758-.29297-1.06055,0l-1.71973,1.71973v-.93945c0-3.72168-3.02832-6.75-6.75-6.75h-1.2998c-.41406,0-.75.33594-.75.75s.33594.75.75.75h1.2998c2.89453,0,5.25,2.35547,5.25,5.25v.93945l-1.71973-1.71973c-.29297-.29297-.76758-.29297-1.06055,0s-.29297.76758,0,1.06055l3,3c.14648.14648.33789.21973.53027.21973s.38379-.07324.53027-.21973l3-3c.29297-.29297.29297-.76758,0-1.06055Z" fill="var(--iconPrimary, #222)"/>
</svg>