<?xml version="1.0" encoding="UTF-8"?>
<svg xmlns="http://www.w3.org/2000/svg" width="28.00005" height="28" viewBox="0 0 28.00005 28">
  <g id="circles">
    <circle id="Ellipse_10213" data-name="Ellipse 10213" cx="14.00002" cy="14" r="14.00001" fill="#0a8d99"/>
  </g>
  <g id="ICONS">
    <rect id="S2_Icon_LocationService_20_N" x="5.09281" y="5.00404" width="18" height="18" fill="none" opacity=".1"/>
    <path d="M12.35301,14.00404c-1.24058,0-2.25-1.00898-2.25-2.25s1.00942-2.25,2.25-2.25,2.25,1.00898,2.25,2.25-1.00942,2.25-2.25,2.25ZM12.35301,10.85404c-.49614,0-.9.40342-.9.9s.40386.9.9.9.9-.40342.9-.9-.40386-.9-.9-.9Z" fill="#fff"/>
    <path d="M12.35697,21.72875c-.03647,0-.07295-.00176-.10942-.00352-.45879-.03076-.8833-.25137-1.16543-.60645-1.70991-2.15332-4.5791-6.2332-4.5791-9.37354,0-3.10166,2.62441-5.625,5.85-5.625s5.85,2.52334,5.85,5.625c0,.28652-.02329.58887-.06943.89912-.05405.36914-.40254.61611-.76641.56953-.3687-.05449-.62358-.39814-.56865-.76641.03516-.23994.05449-.47373.05449-.70225,0-2.35723-2.01885-4.275-4.5-4.275s-4.5,1.91777-4.5,4.275c0,2.83184,2.99751,6.91084,4.28643,8.5333.06284.0791.15029.09668.19731.09932.08833.00615.16128-.02197.21533-.07383.26851-.2584.69609-.24961.95449.01758.25884.26807.25093.69521-.01758.95449-.30146.29092-.70928.45264-1.13203.45264Z" fill="#fff"/>
    <path d="M18.6523,14.45382c-2.23676,0-4.05,1.81318-4.05,4.05s1.81324,4.05,4.05,4.05,4.05-1.81329,4.05-4.05-1.81329-4.05-4.05-4.05ZM20.34397,18.80836l-2.45687,2.75823c-.19012.21335-.53767,0-.42534-.26136l.8287-1.93239-1.17241-.49417c-.27339-.11536-.35343-.45945-.15716-.67961l2.45687-2.75801c.18973-.21346.53762,0,.42539.26125l-.82908,1.9325,1.17241.49417c.27372.11536.3531.45923.15749.67939Z" fill="#fff"/>
  </g>
</svg>