<?xml version="1.0" encoding="UTF-8"?>
<svg   xmlns="http://www.w3.org/2000/svg" width="20" height="20" viewBox="0 0 20 20">
  <path d="M15.75,2.00004H4.25c-1.24072,0-2.25,1.00977-2.25,2.25v11.5c0,1.24023,1.00928,2.25,2.25,2.25h11.5c1.24072,0,2.25-1.00977,2.25-2.25V4.25004c0-1.24023-1.00928-2.25-2.25-2.25ZM16.5,4.25004v5h-5.75V3.50004h5c.41357,0,.75.33691.75.75ZM4.25,3.50004h5v5.75H3.5v-5c0-.41309.33643-.75.75-.75ZM3.5,15.75004v-5h5.75v5.75h-5c-.41357,0-.75-.33691-.75-.75ZM15.75,16.50004h-5v-5.75h5.75v5c0,.41309-.33643.75-.75.75Z" fill="var(--iconPrimary, #222)"/>
</svg>