<?xml version="1.0" encoding="UTF-8"?>
<svg xmlns="http://www.w3.org/2000/svg" width="14" height="14" viewBox="0 0 14 14">
  <path d="M5,8.95523v-3.90657c0-.567.60492-.92895,1.10456-.6609l3.63033,1.94763c.52653.28248.52744,1.03719.00159,1.32094l-3.63033,1.95894c-.49969.26963-1.10616-.09224-1.10616-.66004Z" fill="var(--iconPrimary, #222)"/>
  <path d="M7,13.1748c-3.40479,0-6.1748-2.76953-6.1748-6.1748S3.59521.8252,7,.8252s6.1748,2.76953,6.1748,6.1748-2.77002,6.1748-6.1748,6.1748ZM7,2.0752c-2.71533,0-4.9248,2.20898-4.9248,4.9248s2.20947,4.9248,4.9248,4.9248,4.9248-2.20898,4.9248-4.9248-2.20947-4.9248-4.9248-4.9248Z" fill="var(--iconPrimary, #222)"/>
</svg>