<?xml version="1.0" encoding="UTF-8"?>
<svg   xmlns="http://www.w3.org/2000/svg" width="20" height="20" viewBox="0 0 20 20">
  <path d="m10,18.75c-4.8252,0-8.75-3.9248-8.75-8.75S5.1748,1.25,10,1.25s8.75,3.9248,8.75,8.75-3.9248,8.75-8.75,8.75Zm0-16c-3.99805,0-7.25,3.25195-7.25,7.25s3.25195,7.25,7.25,7.25,7.25-3.25195,7.25-7.25-3.25195-7.25-7.25-7.25Z" fill="var(--iconPrimary, #222)" stroke-width="0"/>
  <path d="m13.07307,9.11916l-4.59971-2.47212c-.66621-.35806-1.47342.12451-1.47342.88085v4.94424c0,.75633.80721,1.2389,1.47342.88085l4.59972-2.47213c.70212-.37736.70212-1.38433,0-1.76169Z" fill="var(--iconPrimary, #222)" stroke-width="0"/>
</svg>