<?xml version="1.0" encoding="UTF-8"?>
<svg xmlns="http://www.w3.org/2000/svg" width="20" height="20" viewBox="0 0 20 20">
  <path d="M11.06055,10l2.96973-2.96973c.29297-.29297.29297-.76758,0-1.06055s-.76758-.29297-1.06055,0l-2.96973,2.96973-2.96973-2.96973c-.29297-.29297-.76758-.29297-1.06055,0s-.29297.76758,0,1.06055l2.96973,2.96973-2.96973,2.96973c-.29297.29297-.29297.76758,0,1.06055.14648.14648.33838.21973.53027.21973s.38379-.07324.53027-.21973l2.96973-2.96973,2.96973,2.96973c.14648.14648.33838.21973.53027.21973s.38379-.07324.53027-.21973c.29297-.29297.29297-.76758,0-1.06055l-2.96973-2.96973Z" fill="var(--iconPrimary, #222)"/>
  <path d="M6,10.75H1.5c-.41406,0-.75-.33594-.75-.75s.33594-.75.75-.75h4.5c.41406,0,.75.33594.75.75s-.33594.75-.75.75Z" fill="var(--iconPrimary, #222)"/>
  <path d="M18.5,10.75h-4.5c-.41406,0-.75-.33594-.75-.75s.33594-.75.75-.75h4.5c.41406,0,.75.33594.75.75s-.33594.75-.75.75Z" fill="var(--iconPrimary, #222)"/>
</svg>