<?xml version="1.0" encoding="UTF-8"?>
<svg   xmlns="http://www.w3.org/2000/svg" width="20" height="20" viewBox="0 0 20 20">
  <path d="M18.87695,14.625L11.94824,2.625c-.40625-.7041-1.13477-1.125-1.94824-1.125s-1.5415.4209-1.94824,1.125L1.12305,14.625c-.40674.7041-.40674,1.5459,0,2.25s1.13525,1.125,1.94873,1.125h13.85645c.81348,0,1.54199-.4209,1.94873-1.125s.40674-1.5459,0-2.25ZM9.35059,3.375c.19531-.33887.51904-.375.64941-.375s.4541.03613.64941.375l2.81482,4.875h-6.92834l2.8147-4.875ZM13.46436,9.75l-3.46436,6-3.46436-6h6.92871ZM2.42236,16.125c-.06543-.1123-.1958-.41113-.00049-.75l2.81494-4.87524,3.46423,6.00024H3.07178c-.39062,0-.58447-.2627-.64941-.375ZM17.57764,16.125c-.06494.1123-.25879.375-.64941.375h-5.62927l3.46423-6.00024,2.81494,4.87524c.19531.33887.06494.6377-.00049.75Z" fill="var(--iconPrimary, #222)"/>
</svg>