<?xml version="1.0" encoding="UTF-8"?>
<svg xmlns="http://www.w3.org/2000/svg" width="20" height="20" viewBox="0 0 20 20">
  <path d="M14.46582,18.99219H5.58496c-.9248,0-1.73633-.59082-2.02148-1.46973L.81836,9.07715c-.28418-.87891.02637-1.83301.77246-2.37598L8.77637,1.48047c.74512-.54297,1.74902-.54297,2.49805,0l7.18457,5.2207c.74805.54199,1.05762,1.49707.77246,2.37598l-2.74414,8.44629c-.28613.87891-1.09863,1.46875-2.02148,1.46875ZM10.02539,2.32422c-.18066,0-.36035.05566-.51465.16797L2.3252,7.71289c-.30664.22266-.43457.61621-.31738.97852l2.74512,8.44531c.11719.3623.45117.60547.83203.60547h8.88086c.37988,0,.71484-.24316.83203-.60547l2.74414-8.44629c.11816-.36133-.00977-.75391-.31738-.97754l-7.18457-5.2207c-.1543-.1123-.33496-.16797-.51465-.16797Z" fill="var(--iconPrimary, #222)" opacity=".35"/>
  <path d="M5.52734,18.63184c-.35938,0-.71875-.1123-1.02734-.33691-.59375-.43164-.85352-1.16797-.66016-1.87695l.97852-3.57715c.0791-.28809-.02148-.5957-.25488-.7832l-2.89258-2.31836c-.57324-.45898-.79688-1.20703-.57031-1.90625.22656-.69824.84766-1.17188,1.58105-1.20703l3.7041-.17578c.29883-.01465.56055-.2041.66504-.4834l1.3125-3.46875c.25977-.68652.90137-1.13086,1.63574-1.13086.73535,0,1.37793.44336,1.6377,1.13086l1.31152,3.46777c.10547.28027.36719.46973.66602.48438l3.70312.17578c.73438.03516,1.35547.50879,1.58203,1.20703.22656.69922.00293,1.44727-.57031,1.90625l-2.89258,2.31836c-.2334.1875-.33398.49512-.25488.7832l.97656,3.5752c.19336.70996-.06641,1.44727-.66211,1.87793-.59668.43359-1.37988.44727-1.99219.04102l-3.07227-2.03516c-.25195-.16602-.57617-.16602-.82617-.00195l-3.11719,2.04395c-.29492.19336-.62793.29004-.96094.29004ZM10,2.86719c-.0791,0-.18359.02832-.23438.16211l-1.31152,3.46777c-.31641.83887-1.10059,1.40918-1.99805,1.45117l-3.70312.17578c-.14258.00684-.20117.09766-.22559.17285s-.03027.18262.08105.27246l2.89258,2.31836c.7002.56055,1.00098,1.48242.76465,2.34863l-.97852,3.57715c-.03809.13672.03027.22168.09473.26758.06348.04785.16504.08496.28418.00684l3.11719-2.04395c.75293-.49512,1.72656-.49219,2.47754.00586l3.07129,2.03516c.11816.0791.21973.03906.28418-.00586.06445-.0459.13281-.12988.09473-.26855l-.97656-3.5752c-.23633-.86523.06445-1.78711.76465-2.34766l2.89258-2.31836c.11133-.08984.10547-.19727.08105-.27246s-.08301-.16602-.22656-.17285l-3.70215-.17578c-.89746-.04199-1.68164-.6123-1.99902-1.45215l-1.31055-3.4668c-.05078-.13379-.15625-.16211-.23438-.16211Z" fill="var(--iconPrimary, #222)"/>
</svg>