<?xml version="1.0" encoding="UTF-8"?>
<svg id="e" data-name="ICONS" xmlns="http://www.w3.org/2000/svg" width="20" height="20" viewBox="0 0 20 20">
  <path d="M14.25,18H4.25c-1.24072,0-2.25-1.00977-2.25-2.25V5.75c0-1.24023,1.00928-2.25,2.25-2.25h2.5c.41406,0,.75.33594.75.75s-.33594.75-.75.75h-2.5c-.41357,0-.75.33691-.75.75v10c0,.41309.33643.75.75.75h10c.41357,0,.75-.33691.75-.75v-3.5c0-.41406.33594-.75.75-.75s.75.33594.75.75v3.5c0,1.24023-1.00928,2.25-2.25,2.25Z" fill="var(--iconPrimary, #222)"/>
  <path d="M15.75,10h-4.5c-1.24072,0-2.25-1.00977-2.25-2.25v-3.5c0-1.24023,1.00928-2.25,2.25-2.25h4.5c1.24072,0,2.25,1.00977,2.25,2.25v3.5c0,1.24023-1.00928,2.25-2.25,2.25ZM11.25,3.5c-.41357,0-.75.33691-.75.75v3.5c0,.41309.33643.75.75.75h4.5c.41357,0,.75-.33691.75-.75v-3.5c0-.41309-.33643-.75-.75-.75h-4.5Z" fill="var(--iconPrimary, #222)" opacity=".5"/>
</svg>