<?xml version="1.0" encoding="UTF-8"?>
<svg xmlns="http://www.w3.org/2000/svg" width="20" height="20" viewBox="0 0 20 20">
  <path d="M10,9.60742c-2.36719,0-4.29297-1.93066-4.29297-4.30371S7.63281,1,10,1s4.29297,1.93066,4.29297,4.30371-1.92578,4.30371-4.29297,4.30371ZM10,2.5c-1.54004,0-2.79297,1.25781-2.79297,2.80371s1.25293,2.80371,2.79297,2.80371,2.79297-1.25781,2.79297-2.80371-1.25293-2.80371-2.79297-2.80371Z" fill="var(--iconPrimary, #222)"/>
  <path d="M14.98633,19H5.01758c-.65527,0-1.28711-.29395-1.7334-.80469-.48828-.55859-.70996-1.30957-.6084-2.05859.40527-2.98828,1.80859-4.81641,4.29102-5.58789.17871-.05664.375-.04199.54395.03809,1.58887.75586,3.39941.75488,4.98828-.00488.16895-.08203.36426-.0957.54297-.04004,2.48828.7627,3.89062,2.59473,4.28613,5.59961h0c.09961.75-.12402,1.5-.6123,2.05762-.44629.50879-1.07715.80078-1.72949.80078ZM7.15039,12.06934c-1.72754.63281-2.67969,1.99707-2.98828,4.26855-.04297.32031.04785.6377.25098.87012.16504.18848.37988.29199.60449.29199h9.96875c.22363,0,.4375-.10254.60156-.29004.20312-.23242.2959-.55078.25391-.87305h0c-.30469-2.31445-1.22754-3.64453-2.97754-4.27441-1.82715.7832-3.8877.78613-5.71387.00684Z" fill="var(--iconPrimary, #222)"/>
</svg>