<?xml version="1.0" encoding="UTF-8"?>
<svg xmlns="http://www.w3.org/2000/svg" width="20" height="20" viewBox="0 0 20 20">
  <path d="M15.75,2H4.25c-1.24072,0-2.25,1.00977-2.25,2.25v11.5c0,1.24023,1.00928,2.25,2.25,2.25h11.5c1.24072,0,2.25-1.00977,2.25-2.25V4.25c0-1.24023-1.00928-2.25-2.25-2.25ZM14.43701,13.35742c-.74219-.63477-1.90527-.63281-2.64941,0l-.97168.83008c-.02783.02539-.11572.02441-.14355.00098l-2.55273-2.17871c-.74268-.63477-1.90625-.63379-2.65674.00684l-1.96289,1.72461v-4.24121h13v5.67505l-2.06299-1.81763ZM4.25,3.5h11.5c.41357,0,.75.33691.75.75v3.75H3.5v-3.75c0-.41309.33643-.75.75-.75ZM3.5,15.75v-.01172l2.94434-2.58691c.18408-.1582.51807-.15723.70215-.00098l2.55225,2.17871c.58594.5,1.50293.49902,2.09082,0l.97168-.83105c.18408-.15527.51855-.15625.69336-.00781l2.28119,2.00977H4.25c-.41357,0-.75-.33691-.75-.75Z" fill="var(--iconPrimary, #222)"/>
  <path d="M5.57666,6.5h9c.41406,0,.75-.33594.75-.75s-.33594-.75-.75-.75H5.57666c-.41406,0-.75.33594-.75.75s.33594.75.75.75Z" fill="var(--iconPrimary, #222)"/>
  <circle cx="11.47766" cy="11.19141" r="1" fill="var(--iconPrimary, #222)"/>
</svg>