<?xml version="1.0" encoding="UTF-8"?>
<svg id="e" data-name="ICONS" xmlns="http://www.w3.org/2000/svg" width="20" height="20" viewBox="0 0 20 20">
  <path d="M11.24951,16.5h-7.01123c-.41357,0-.75-.33691-.75-.75v-3.75h6.60254c.41406,0,.75-.33594.75-.75s-.33594-.75-.75-.75h-5.45514l2.77985-2.78027c.29248-.29297.76904-.29199,1.06152-.00098l2.16406,2.16406c.29297.29297.76758.29297,1.06055,0s.29297-.76758,0-1.06055l-2.16455-2.16504c-.87695-.875-2.30371-.87598-3.18164.00098l-2.86719,2.86816v-5.27637c0-.41309.33643-.75.75-.75h11.5c.41357,0,.75.33691.75.75v3.19238c0,.41406.33594.75.75.75s.75-.33594.75-.75v-3.19238c0-1.24023-1.00928-2.25-2.25-2.25H4.23828c-1.24072,0-2.25,1.00977-2.25,2.25v11.5c0,1.24023,1.00928,2.25,2.25,2.25h7.01123c.41406,0,.75-.33594.75-.75s-.33594-.75-.75-.75Z" fill="var(--iconPrimary, #222)"/>
  <circle cx="13.49622" cy="6.24951" r="1.5" fill="var(--iconPrimary, #222)"/>
  <path d="M5.73828,13.5c-.41406,0-.75.33594-.75.75s.33594.75.75.75h4.08643c.41406,0,.75-.33594.75-.75s-.33594-.75-.75-.75h-4.08643Z" fill="var(--iconPrimary, #222)"/>
  <path d="M19.48828,13.25c0-2.06738-1.68213-3.75-3.75-3.75s-3.75,1.68262-3.75,3.75c0,1.22559.59949,2.30566,1.5116,2.99023-.00159.02002-.0116.03711-.0116.05762v1.09082c0,1.16406,1.00928,2.11133,2.25,2.11133s2.25-.94727,2.25-2.11133v-1.13867c0-.00586-.00317-.01074-.0033-.0166.90723-.68506,1.5033-1.76172,1.5033-2.9834ZM16.48828,17.38867c0,.33691-.33643.61133-.75.61133s-.75-.27441-.75-.61133v-.46436c.24243.04932.49316.07568.75.07568s.50757-.02637.75-.07568v.46436ZM15.73828,15.5c-1.24072,0-2.25-1.00977-2.25-2.25s1.00928-2.25,2.25-2.25,2.25,1.00977,2.25,2.25-1.00928,2.25-2.25,2.25Z" fill="var(--iconPrimary, #222)"/>
</svg>