<?xml version="1.0" encoding="UTF-8"?>
<svg id="e" data-name="ICONS" xmlns="http://www.w3.org/2000/svg" width="20" height="20" viewBox="0 0 20 20">
  <path d="M15.75,1H4.25c-1.24072,0-2.25,1.00977-2.25,2.25v13.5c0,1.24023,1.00928,2.25,2.25,2.25h11.5c1.24072,0,2.25-1.00977,2.25-2.25V3.25c0-1.24023-1.00928-2.25-2.25-2.25ZM4.25,2.5h11.5c.41357,0,.75.33691.75.75v11.92896l-1.3916-1.39185c-.84961-.84961-2.33252-.85059-3.18213,0l-.86816.86816c-.12793.12695-.22559.12695-.35352,0l-2.62549-2.625c-.84961-.84961-2.33252-.85059-3.18213,0l-1.39697,1.39697V3.25c0-.41309.33643-.75.75-.75ZM15.75,17.5H4.25c-.41357,0-.75-.33691-.75-.75v-1.20166l2.45752-2.45752c.2832-.2832.77734-.2832,1.06055,0l2.62549,2.625c.66162.66113,1.81445.66309,2.4751,0l.86816-.86816c.2832-.2832.77734-.2832,1.06055,0l2.31311,2.31299c-.13489.19971-.35205.33936-.61047.33936Z" fill="var(--iconPrimary, #222)"/>
  <path d="M5.75,5.5h7c.41406,0,.75-.33594.75-.75s-.33594-.75-.75-.75h-7c-.41406,0-.75.33594-.75.75s.33594.75.75.75Z" fill="var(--iconPrimary, #222)"/>
  <path d="M5.75,8.5h3c.41406,0,.75-.33594.75-.75s-.33594-.75-.75-.75h-3c-.41406,0-.75.33594-.75.75s.33594.75.75.75Z" fill="var(--iconPrimary, #222)"/>
  <circle cx="12.5" cy="10" r="1.31793" fill="var(--iconPrimary, #222)"/>
</svg>