<?xml version="1.0" encoding="UTF-8"?>
<svg xmlns="http://www.w3.org/2000/svg" width="20" height="20" xmlns:xlink="http://www.w3.org/1999/xlink" viewBox="0 0 20 20">
  <defs>
    <linearGradient id="b" x1="-452.62791" y1="1062.40937" x2="-452.62791" y2="1041.35273" gradientTransform="translate(-413.39367 -1053.50589) rotate(-45)" gradientUnits="userSpaceOnUse">
      <stop offset="0" stop-color="#3b63fb"/>
      <stop offset=".46817" stop-color="#7155fa"/>
      <stop offset="1" stop-color="#b539c8"/>
    </linearGradient>
  </defs>
  <path d="M1.99896,15.74478c3.17519,4.42105,9.32811,5.42716,13.74572,2.25444,4.41765-3.17274,5.42963-9.32467,2.25444-13.74572C14.82852-.16117,8.67128-1.17385,4.25341,1.99906-.16451,5.172-1.17165,11.33011,1.99896,15.74478Z" fill="url(#b)"/>
  <path d="M6.21595,13.29523l-1.15288-5.32927c-.11863-.54838.56473-.91745.98564-.53232l1.90369,1.74187,1.51267-3.09779c.21337-.43697.85648-.43697,1.06986,0l1.51267,3.09779,1.90369-1.74187c.42091-.38513,1.10427-.01606.98564.53232l-1.15288,5.32927c-.05732.26496-.29898.45477-.579.45477h-6.4101c-.28003,0-.52168-.18981-.579-.45477Z" fill="#fff"/>
</svg>