<?xml version="1.0" encoding="UTF-8"?>
<svg id="e" data-name="ICONS" xmlns="http://www.w3.org/2000/svg" width="20" height="20" viewBox="0 0 20 20">
  <path d="M9.22168,15.26953c.03516-.66699.32812-1.28027.82422-1.72656.49512-.44629,1.12695-.66602,1.80273-.63867.66699.03516,1.28125.32812,1.72754.82617l.45508.50488,2.21484-3.02051c.3645-.49756.88354-.81018,1.44275-.94189l.95081-4.39502c.20752-.95972-.98828-1.60547-1.72485-.93164l-3.33154,3.04834-2.64722-5.42114c-.37329-.76465-1.49878-.76465-1.87207,0l-2.64722,5.42114-3.33154-3.04834c-.73657-.67383-1.93237-.02808-1.72485.93164l2.01758,9.32617c.10034.46375.52319.7959,1.01318.7959h4.91089c-.05835-.23682-.09351-.4801-.08032-.73047Z" fill="var(--iconPrimary, #222)"/>
  <path d="M14.22949,18.94336c-.21191,0-.41504-.08984-.55762-.24805l-2.51172-2.79199c-.27734-.30859-.25195-.78223.05566-1.05957s.78125-.25195,1.05957.05566l1.89453,2.10645,3.4873-4.75586c.24219-.33301.71191-.40918,1.04785-.16113.33398.24414.40625.71387.16113,1.04785l-4.03223,5.5c-.13281.18262-.3418.29395-.56738.30566-.01172.00098-.02441.00098-.03711.00098Z" fill="var(--iconPrimary, #222)"/>
</svg>