<?xml version="1.0" encoding="UTF-8"?>
<svg id="e" data-name="ICONS" xmlns="http://www.w3.org/2000/svg" width="20" height="20" viewBox="0 0 20 20">
  <g>
    <path d="M8.50098,15.57031c-.36914-.18359-.81934-.03418-1.00586.33594l-1.12891,2.25879c-.18555.37012-.03516.82031.33594,1.00586.10742.05371.22168.0791.33398.0791.27539,0,.54004-.15137.67188-.41504l1.12891-2.25879c.18555-.37012.03516-.82031-.33594-1.00586Z" fill="var(--iconPrimary, #222)"/>
    <path d="M4.75,8.5h3c.41406,0,.75-.33594.75-.75s-.33594-.75-.75-.75h-3c-.41406,0-.75.33594-.75.75s.33594.75.75.75Z" fill="var(--iconPrimary, #222)"/>
    <path d="M9.32324,10h-4.57324c-.41406,0-.75.33594-.75.75s.33594.75.75.75h4.57324c.41406,0,.75-.33594.75-.75s-.33594-.75-.75-.75Z" fill="var(--iconPrimary, #222)"/>
    <path d="M16.5,1H3.5c-1.35547,0-2.5,1.14453-2.5,2.5v8.5c0,1.35547,1.14453,2.5,2.5,2.5h4.58203c.41406,0,.75-.33594.75-.75s-.33594-.75-.75-.75H3.5c-.53223,0-1-.46777-1-1v-6.5h15v3.48926c0,.41406.33594.75.75.75s.75-.33594.75-.75V3.5c0-1.35547-1.14453-2.5-2.5-2.5ZM2.5,4v-.5c0-.53223.46777-1,1-1h13c.53223,0,1,.46777,1,1v.5H2.5Z" fill="var(--iconPrimary, #222)"/>
  </g>
  <path d="M14.75,10.25c-2.48535,0-4.5,2.01465-4.5,4.5s2.01465,4.5,4.5,4.5,4.5-2.01465,4.5-4.5-2.01465-4.5-4.5-4.5ZM14.97461,15.16016l-1.49414,1.74707c-.12305.14453-.29883.21875-.47461.21875-.14355,0-.28809-.04883-.40625-.15039-.2627-.22363-.29297-.61816-.06836-.88086l1.14648-1.34082-1.15234-1.34668c-.22461-.26172-.19434-.65625.06836-.88086.26172-.22266.65625-.19531.88086.06836l1.5,1.75293c.2002.2334.2002.57812,0,.8125ZM17,16.49902c0,.34473-.28027.625-.625.625s-.625-.28027-.625-.625v-3.5c0-.34473.28027-.625.625-.625s.625.28027.625.625v3.5Z" fill="var(--iconPrimary, #222)"/>
</svg>