<?xml version="1.0" encoding="UTF-8"?>
<svg id="e" data-name="ICONS" xmlns="http://www.w3.org/2000/svg" width="20" height="20" viewBox="0 0 20 20">
  <path d="M7.03613,19.25c-.1123,0-.22656-.02539-.33398-.0791-.37109-.18555-.52148-.63574-.33594-1.00586l1.12891-2.25879c.18652-.37012.63672-.51953,1.00586-.33594.37109.18555.52148.63574.33594,1.00586l-1.12891,2.25879c-.13184.26367-.39648.41504-.67188.41504Z" fill="var(--iconPrimary, #222)"/>
  <g>
    <path d="M4.75,8.5h3c.41406,0,.75-.33594.75-.75s-.33594-.75-.75-.75h-3c-.41406,0-.75.33594-.75.75s.33594.75.75.75Z" fill="var(--iconPrimary, #222)"/>
    <path d="M9.32324,10h-4.57324c-.41406,0-.75.33594-.75.75s.33594.75.75.75h4.57324c.41406,0,.75-.33594.75-.75s-.33594-.75-.75-.75Z" fill="var(--iconPrimary, #222)"/>
    <path d="M16.5,1H3.5c-1.35547,0-2.5,1.14453-2.5,2.5v8.5c0,1.35547,1.14453,2.5,2.5,2.5h4.58203c.41406,0,.75-.33594.75-.75s-.33594-.75-.75-.75H3.5c-.53223,0-1-.46777-1-1v-6.5h15v3.48926c0,.41406.33594.75.75.75s.75-.33594.75-.75V3.5c0-1.35547-1.14453-2.5-2.5-2.5ZM2.5,4v-.5c0-.53223.46777-1,1-1h13c.53223,0,1,.46777,1,1v.5H2.5Z" fill="var(--iconPrimary, #222)"/>
  </g>
  <path d="M14.75,10.25c-2.48535,0-4.5,2.01465-4.5,4.5s2.01465,4.5,4.5,4.5,4.5-2.01465,4.5-4.5-2.01465-4.5-4.5-4.5ZM14,16.49902c0,.34473-.28027.625-.625.625s-.625-.28027-.625-.625v-3.5c0-.34473.28027-.625.625-.625s.625.28027.625.625v3.5ZM17.21875,16.09473c.22461.2627.19434.65723-.06836.88086-.11816.10156-.2627.15039-.40625.15039-.17578,0-.35156-.07422-.47461-.21875l-1.49414-1.74707c-.2002-.23438-.2002-.5791,0-.8125l1.5-1.75293c.22461-.26367.61914-.29297.88086-.06836.2627.22461.29297.61914.06836.88086l-1.15234,1.34668,1.14648,1.34082Z" fill="var(--iconPrimary, #222)"/>
</svg>