<?xml version="1.0" encoding="UTF-8"?>
<svg xmlns="http://www.w3.org/2000/svg" width="20" height="20" viewBox="0 0 20 20">
  <path d="m18.75,8c0-3.72168-3.02783-6.75-6.75-6.75-2.86444,0-5.34589,1.77197-6.31799,4.43213-2.66016.97119-4.43201,3.45264-4.43201,6.31787,0,3.72168,3.02783,6.75,6.75,6.75,2.86444,0,5.34589-1.77197,6.31799-4.43213,2.66016-.97119,4.43201-3.45264,4.43201-6.31787Zm-5.22607,5.02344c-.24872.0752-.41644.27295-.48712.50415l-.01337-.00415c-.67529,2.22949-2.69434,3.72656-5.02344,3.72656-2.89502,0-5.25-2.35547-5.25-5.25,0-2.33008,1.49756-4.34863,3.72607-5.02344l-.0036-.01196c.23108-.0708.42877-.23999.50409-.48804.67529-2.22949,2.69434-3.72656,5.02344-3.72656,2.89502,0,5.25,2.35547,5.25,5.25,0,2.33008-1.49756,4.34863-3.72607,5.02344Z" fill="var(--iconPrimary, #222)"/>
  <path d="m12,14.75c-3.72217,0-6.75-3.02783-6.75-6.75,0-.48016.05231-.94806.14807-1.40015-2.00873.96985-3.39807,3.02008-3.39807,5.40015,0,3.31372,2.68628,6,6,6,2.38007,0,4.4303-1.38934,5.40015-3.39807-.45209.09576-.91998.14807-1.40015.14807Z" fill="var(--iconPrimary, #222)" opacity=".3"/>
  <circle cx="8" cy="7.5" r="1" fill="var(--iconPrimary, #222)"/>
  <circle cx="8" cy="10.5" r="1" fill="var(--iconPrimary, #222)"/>
  <circle cx="12" cy="10.5" r="1" fill="var(--iconPrimary, #222)"/>
  <circle cx="12" cy="13.5" r="1" fill="var(--iconPrimary, #222)"/>
  <circle cx="10" cy="9" r="1" fill="var(--iconPrimary, #222)"/>
  <circle cx="10" cy="12" r="1" fill="var(--iconPrimary, #222)"/>
  <path d="m5.3703,6.75928c.17316.14362.38715.24072.6297.24072.55231,0,1-.44775,1-1,0-.24255-.09711-.4566-.24072-.62976-.3736.07172-.737.17279-1.08704.302-.12921.35004-.23022.7135-.30194,1.08704Z" fill="var(--iconPrimary, #222)"/>
  <path d="m8.59851,5.28033c-.19757-.01746-.39648-.03033-.59851-.03033-.203,0-.40375.0097-.60193.02802.16913.13098.37146.22198.60193.22198.22894,0,.42993-.09021.59851-.21967Z" fill="var(--iconPrimary, #222)"/>
  <path d="m10,7c.55231,0,1-.44775,1-1,0-.01489-.00781-.02722-.00848-.04193-.54645-.27173-1.13263-.47327-1.75024-.58862-.14404.17328-.24127.38763-.24127.63055,0,.55225.44769,1,1,1Z" fill="var(--iconPrimary, #222)"/>
  <path d="m6,10c.55231,0,1-.44775,1-1,0-.55231-.44769-1-1-1-.29297,0-.55029.13086-.73322.3316.02576.52655.10901,1.03754.24915,1.52588.14551.08264.30481.14252.48407.14252Z" fill="var(--iconPrimary, #222)"/>
  <path d="m6,11c-.01221,0-.02234.00653-.03448.00696.25464.50897.56976.98108.93927,1.40698.05829-.12689.09521-.26514.09521-.41394,0-.55231-.44769-1-1-1Z" fill="var(--iconPrimary, #222)"/>
  <path d="m8,12.5c-.28583,0-.53986.12286-.72205.31512.46802.45905,1.00226.84943,1.58716,1.15765.07843-.1427.13489-.29846.13489-.47278,0-.55231-.44769-1-1-1Z" fill="var(--iconPrimary, #222)"/>
  <path d="m10,14c-.23267,0-.43707.0921-.60693.22534.48572.2041,1.00244.34583,1.53772.43158-.14081-.38171-.50018-.65692-.93079-.65692Z" fill="var(--iconPrimary, #222)"/>
  <path d="m13,9c0,.55225.44769,1,1,1,.14844,0,.2865-.03668.41321-.09473-.20862-.63708-.50958-1.23151-.88702-1.76971-.30872.17023-.52618.48694-.52618.86444Z" fill="var(--iconPrimary, #222)"/>
  <path d="m14,11c-.55231,0-1,.44769-1,1,0,.55225.44769,1,1,1,.27673,0,.52698-.11261.70801-.29425.02521-.23218.04199-.46686.04199-.70575,0-.23535-.01251-.46783-.03613-.69702-.18158-.18604-.43335-.30298-.71387-.30298Z" fill="var(--iconPrimary, #222)"/>
  <path d="m14.40485,14.08905c-.12427-.05536-.26001-.08905-.40485-.08905-.43079,0-.79016.27551-.93091.65747.43396-.07172.85553-.18091,1.25867-.32971.02887-.07812.05096-.1593.07709-.23871Z" fill="var(--iconPrimary, #222)"/>
  <path d="m11,7.5c0,.55225.44769,1,1,1s1-.44775,1-1c0-.00854-.0047-.01556-.00488-.02405-.3233-.35663-.68231-.67889-1.07434-.95996-.51324.04242-.92078.45978-.92078.98401Z" fill="var(--iconPrimary, #222)"/>
</svg>