<?xml version="1.0" encoding="UTF-8"?>
<svg id="e" data-name="ICONS" xmlns="http://www.w3.org/2000/svg" width="20" height="20" viewBox="0 0 20 20">
  <path d="M7.03613,19.25c-.1123,0-.22656-.02539-.33398-.0791-.37109-.18555-.52148-.63574-.33594-1.00586l1.12891-2.25879c.18652-.37012.63574-.51953,1.00586-.33594.37109.18555.52148.63574.33594,1.00586l-1.12891,2.25879c-.13184.26367-.39648.41504-.67188.41504Z" fill="var(--iconPrimary, #222)"/>
  <path d="M7.75,8.5h-3c-.41406,0-.75-.33594-.75-.75s.33594-.75.75-.75h3c.41406,0,.75.33594.75.75s-.33594.75-.75.75Z" fill="var(--iconPrimary, #222)"/>
  <path d="M9.32324,11.5h-4.57324c-.41406,0-.75-.33594-.75-.75s.33594-.75.75-.75h4.57324c.41406,0,.75.33594.75.75s-.33594.75-.75.75Z" fill="var(--iconPrimary, #222)"/>
  <path d="M16.5,1H3.5c-1.35547,0-2.5,1.14453-2.5,2.5v8.5c0,1.35547,1.14453,2.5,2.5,2.5h4.58203c.41406,0,.75-.33594.75-.75s-.33594-.75-.75-.75H3.5c-.53223,0-1-.46777-1-1v-6.5h15v3.48926c0,.41406.33594.75.75.75s.75-.33594.75-.75V3.5c0-1.35547-1.14453-2.5-2.5-2.5ZM2.5,4v-.5c0-.53223.46777-1,1-1h13c.53223,0,1,.46777,1,1v.5H2.5Z" fill="var(--iconPrimary, #222)"/>
  <path d="M14.75,10.25c-2.48535,0-4.5,2.01465-4.5,4.5s2.01465,4.5,4.5,4.5,4.5-2.01465,4.5-4.5-2.01465-4.5-4.5-4.5ZM16.95996,16.0752c.24316.24414.24316.64062,0,.88477-.12207.12207-.28223.18262-.44238.18262s-.32031-.06055-.44238-.18262l-1.3252-1.3252-1.3252,1.3252c-.12207.12207-.28223.18262-.44238.18262s-.32031-.06055-.44238-.18262c-.24316-.24414-.24316-.64062,0-.88477l1.3252-1.3252-1.3252-1.3252c-.24316-.24414-.24316-.64062,0-.88477.24414-.24414.64062-.24414.88477,0l1.3252,1.3252,1.3252-1.3252c.24414-.24414.64062-.24414.88477,0,.24316.24414.24316.64062,0,.88477l-1.3252,1.3252,1.3252,1.3252Z" fill="var(--iconPrimary, #222)"/>
</svg>