<?xml version="1.0" encoding="UTF-8"?>
<svg xmlns="http://www.w3.org/2000/svg" width="20" height="20" viewBox="0 0 20 20">
  <path d="M9,15.02148c0-.32935.03369-.65015.08496-.96509-2.58179-1.2771-3.83496-3.83374-3.83496-6.0564,0-.48022.05225-.948.14807-1.40015-2.00867.96997-3.39807,3.02002-3.39807,5.40015,0,3.31372,2.68628,6,6,6,.27417,0,1.01076-.02308,1.65541-.18226-.01659-.06638-.02953-.1354-.06142-.20148-.37919-.78581-.59399-1.66536-.59399-2.59477Z" fill="var(--iconPrimary, #222)" opacity=".3"/>
  <circle cx="8" cy="7.5" r="1" fill="var(--iconPrimary, #222)"/>
  <circle cx="8" cy="10.5" r="1" fill="var(--iconPrimary, #222)"/>
  <circle cx="10" cy="9" r="1" fill="var(--iconPrimary, #222)"/>
  <path d="M5.3703,6.75928c.17316.14362.38715.24072.6297.24072.55231,0,1-.44775,1-1,0-.24255-.09711-.4566-.24072-.62976-.3736.07172-.737.17279-1.08704.302-.12921.35004-.23022.7135-.30194,1.08704Z" fill="var(--iconPrimary, #222)"/>
  <path d="M8.59851,5.28033c-.19757-.01746-.39648-.03033-.59851-.03033-.203,0-.40375.0097-.60193.02802.16913.13098.37146.22198.60193.22198.22894,0,.42993-.09021.59851-.21967Z" fill="var(--iconPrimary, #222)"/>
  <path d="M10,7c.55231,0,1-.44775,1-1,0-.01489-.00781-.02722-.00848-.04193-.54645-.27173-1.13263-.47327-1.75024-.58862-.14404.17328-.24127.38763-.24127.63055,0,.55225.44769,1,1,1Z" fill="var(--iconPrimary, #222)"/>
  <path d="M6,10c.55231,0,1-.44775,1-1,0-.55231-.44769-1-1-1-.29297,0-.55029.13086-.73322.3316.02576.52655.10901,1.03754.24915,1.52588.14551.08264.30481.14252.48407.14252Z" fill="var(--iconPrimary, #222)"/>
  <path d="M6,11c-.01221,0-.02234.00653-.03448.00696.25464.50897.56976.98108.93927,1.40698.05829-.12689.09521-.26514.09521-.41394,0-.55231-.44769-1-1-1Z" fill="var(--iconPrimary, #222)"/>
  <path d="M8,12.5c-.28583,0-.53986.12286-.72205.31512.46802.45905,1.00226.84943,1.58716,1.15765.07843-.1427.13489-.29846.13489-.47278,0-.55231-.44769-1-1-1Z" fill="var(--iconPrimary, #222)"/>
  <path d="M11,7.5c0,.55225.44769,1,1,1s1-.44775,1-1c0-.00854-.0047-.01556-.00488-.02405-.3233-.35663-.68231-.67889-1.07434-.95996-.51324.04242-.92078.45978-.92078.98401Z" fill="var(--iconPrimary, #222)"/>
  <path d="M12.43164,9.60718c-.13184-.06421-.27515-.10718-.43164-.10718-.55225,0-1,.44775-1,1,0,.01855.00952.03394.0105.05225.42432-.37915.90186-.69775,1.42114-.94507Z" fill="var(--iconPrimary, #222)"/>
  <path d="M14.08081,9.09937c-.16113-.33618-.34216-.66089-.55469-.96387-.30859.17017-.52612.48706-.52612.8645,0,.12256.0293.2373.06982.34595.32544-.11108.66333-.19263,1.01099-.24658Z" fill="var(--iconPrimary, #222)"/>
  <path d="M15,10.521c-2.48535,0-4.5,2.01489-4.5,4.5,0,2.48535,2.01465,4.5,4.5,4.5s4.5-2.01465,4.5-4.5c0-2.48511-2.01465-4.5-4.5-4.5ZM17.5,15.64648h-1.875v1.875c0,.34473-.28027.625-.625.625s-.625-.28027-.625-.625v-1.875h-1.875c-.34473,0-.625-.28027-.625-.625s.28027-.625.625-.625h1.875v-1.875c0-.34473.28027-.625.625-.625s.625.28027.625.625v1.875h1.875c.34473,0,.625.28027.625.625s-.28027.625-.625.625Z" fill="var(--iconPrimary, #222)"/>
  <path d="M12,1.25c-2.8645,0-5.34595,1.77197-6.31799,4.43213-2.66003.97192-4.43201,3.45337-4.43201,6.31787,0,3.72168,3.02832,6.75,6.75,6.75.35059,0,.69824-.02637,1.03418-.0791.40918-.06445.68848-.44824.625-.85742-.06445-.41016-.45312-.68652-.85742-.625-.25879.04102-.5293.06152-.80176.06152-2.89453,0-5.25-2.35547-5.25-5.25,0-2.33008,1.49707-4.34863,3.72656-5.02344.01929-.00586.03247-.02026.05103-.02734.05676-.02222.10791-.04956.15771-.08496.03333-.02344.06323-.04785.09204-.07617.03662-.03613.06763-.07471.09656-.11865.02747-.04126.04944-.08276.06836-.12842.0094-.02295.02698-.04028.0343-.06445.6748-2.22949,2.69336-3.72656,5.02344-3.72656,2.89453,0,5.25,2.35547,5.25,5.25,0,.26465-.02246.53613-.06934.8291-.06445.40918.21484.79297.62402.8584.04004.00586.0791.00879.11816.00879.3623,0,.68164-.26367.74023-.63281.05859-.37109.08691-.71973.08691-1.06348,0-3.72168-3.02832-6.75-6.75-6.75Z" fill="var(--iconPrimary, #222)"/>
  <path d="M9.43115,12.80029c.24719-.61743.59302-1.18359,1.01965-1.68018-.13708-.0708-.28601-.12012-.45081-.12012-.55225,0-1,.44775-1,1,0,.33618.17676.6189.43115.80029Z" fill="var(--iconPrimary, #222)"/>
</svg>