<?xml version="1.0" encoding="UTF-8"?>
<svg id="e" data-name="ICONS" xmlns="http://www.w3.org/2000/svg" width="20" height="20" viewBox="0 0 20 20">
  <path d="M14.75,10.25c-2.48535,0-4.5,2.01465-4.5,4.5s2.01465,4.5,4.5,4.5,4.5-2.01465,4.5-4.5-2.01465-4.5-4.5-4.5ZM16.58386,15.21289l-2.35071,1.45325c-.31909.22717-.73315-.03406-.73315-.46277v-2.90674c0-.42871.41406-.68994.73315-.46289l2.35071,1.45337c.30029.21387.30029.71191,0,.92578Z" fill="var(--iconPrimary, #222)"/>
  <g>
    <path d="M8.50098,15.57031c-.36914-.18359-.81934-.03418-1.00586.33594l-1.12891,2.25879c-.18555.37012-.03516.82031.33594,1.00586.10742.05371.22168.0791.33398.0791.27539,0,.54004-.15137.67188-.41504l1.12891-2.25879c.18555-.37012.03516-.82031-.33594-1.00586Z" fill="var(--iconPrimary, #222)"/>
    <path d="M4.75,8.5h3c.41406,0,.75-.33594.75-.75s-.33594-.75-.75-.75h-3c-.41406,0-.75.33594-.75.75s.33594.75.75.75Z" fill="var(--iconPrimary, #222)"/>
    <path d="M9.32324,10h-4.57324c-.41406,0-.75.33594-.75.75s.33594.75.75.75h4.57324c.41406,0,.75-.33594.75-.75s-.33594-.75-.75-.75Z" fill="var(--iconPrimary, #222)"/>
    <path d="M16.5,1H3.5c-1.35547,0-2.5,1.14453-2.5,2.5v8.5c0,1.35547,1.14453,2.5,2.5,2.5h4.58203c.41406,0,.75-.33594.75-.75s-.33594-.75-.75-.75H3.5c-.53223,0-1-.46777-1-1v-6.5h15v3.48926c0,.41406.33594.75.75.75s.75-.33594.75-.75V3.5c0-1.35547-1.14453-2.5-2.5-2.5ZM2.5,4v-.5c0-.53223.46777-1,1-1h13c.53223,0,1,.46777,1,1v.5H2.5Z" fill="var(--iconPrimary, #222)"/>
  </g>
</svg>