<?xml version="1.0" encoding="UTF-8"?>
<svg id="e" data-name="ICONS" xmlns="http://www.w3.org/2000/svg" width="20" height="20" viewBox="0 0 20 20">
  <path d="M16.5,1H3.5c-1.35547,0-2.5,1.14453-2.5,2.5v8.5c0,1.35547,1.14453,2.5,2.5,2.5h5.28662l-1.83252,3.66504c-.18555.37012-.03516.82031.33594,1.00586.10742.05371.22168.0791.33398.0791.27539,0,.54004-.15137.67188-.41504l1.7041-3.4082,1.7041,3.4082c.13184.26367.39648.41504.67188.41504.1123,0,.22656-.02539.33398-.0791.37109-.18555.52148-.63574.33594-1.00586l-1.83252-3.66504h5.28662c1.35547,0,2.5-1.14453,2.5-2.5V3.5c0-1.35547-1.14453-2.5-2.5-2.5ZM3.5,2.5h13c.53223,0,1,.46777,1,1v.5H2.5v-.5c0-.53223.46777-1,1-1ZM16.5,13H3.5c-.53223,0-1-.46777-1-1v-6.5h15v6.5c0,.53223-.46777,1-1,1Z" fill="var(--iconPrimary, #222)"/>
  <path d="M4.75,8.5h3c.41406,0,.75-.33594.75-.75s-.33594-.75-.75-.75h-3c-.41406,0-.75.33594-.75.75s.33594.75.75.75Z" fill="var(--iconPrimary, #222)"/>
  <path d="M11.75,10h-7c-.41406,0-.75.33594-.75.75s.33594.75.75.75h7c.41406,0,.75-.33594.75-.75s-.33594-.75-.75-.75Z" fill="var(--iconPrimary, #222)"/>
</svg>