<?xml version="1.0" encoding="UTF-8"?>
<svg   xmlns="http://www.w3.org/2000/svg" width="20" height="20" viewBox="0 0 20 20">
  <path d="M12.75,13.5h-5.5c-.41406,0-.75-.33594-.75-.75v-5.5c0-.41406.33594-.75.75-.75h5.5c.41406,0,.75.33594.75.75v5.5c0,.41406-.33594.75-.75.75ZM8,12h4v-4h-4v4Z" fill="var(--iconPrimary, #222)"/>
  <path d="M15.75,18H4.25c-1.24072,0-2.25-1.00977-2.25-2.25V4.25c0-1.24023,1.00928-2.25,2.25-2.25h11.5c1.24072,0,2.25,1.00977,2.25,2.25v11.5c0,1.24023-1.00928,2.25-2.25,2.25ZM4.25,3.5c-.41357,0-.75.33691-.75.75v11.5c0,.41309.33643.75.75.75h11.5c.41357,0,.75-.33691.75-.75V4.25c0-.41309-.33643-.75-.75-.75H4.25Z" fill="var(--iconPrimary, #222)"/>
</svg>