<?xml version="1.0" encoding="UTF-8"?>
<svg   xmlns="http://www.w3.org/2000/svg" width="20" height="20" viewBox="0 0 20 20">
  <path d="M8.35059,14.06836c-.35449,0-.70703-.0957-1.02637-.28613-.6084-.36426-.97266-1.00586-.97266-1.71582v-4.13281c0-.70996.36426-1.35156.97266-1.71582.61035-.36523,1.34473-.38379,1.97168-.04688l3.85742,2.06641c.65039.34863,1.05566,1.02344,1.05566,1.7627,0,.73828-.4043,1.41406-1.05566,1.7627l-3.85742,2.06641c-.29883.16016-.62207.23926-.94531.23926ZM8.35352,7.43262c-.11914,0-.21289.04492-.25879.07227-.07324.04395-.24316.17285-.24316.42871v4.13281c0,.25586.16992.38477.24316.42871.07324.04297.2666.13379.49219.01172l3.85742-2.06641h.00098c.2373-.12793.26367-.35059.26367-.44043s-.02637-.3125-.26367-.44043l-3.8584-2.06641c-.08398-.04492-.16309-.06055-.2334-.06055Z" fill="var(--iconPrimary, #222)"/>
  <path d="M15.75,18H4.25c-1.24072,0-2.25-1.00977-2.25-2.25V4.25c0-1.24023,1.00928-2.25,2.25-2.25h11.5c1.24072,0,2.25,1.00977,2.25,2.25v11.5c0,1.24023-1.00928,2.25-2.25,2.25ZM4.25,3.5c-.41357,0-.75.33691-.75.75v11.5c0,.41309.33643.75.75.75h11.5c.41357,0,.75-.33691.75-.75V4.25c0-.41309-.33643-.75-.75-.75H4.25Z" fill="var(--iconPrimary, #222)"/>
</svg>