<?xml version="1.0" encoding="UTF-8"?>
<svg id="e" data-name="ICONS" xmlns="http://www.w3.org/2000/svg" width="20" height="20" viewBox="0 0 20 20">
  <path d="M17.25,7c-.41406,0-.75-.33594-.75-.75v-2c0-.41309-.33643-.75-.75-.75h-2c-.41406,0-.75-.33594-.75-.75s.33594-.75.75-.75h2c1.24072,0,2.25,1.00977,2.25,2.25v2c0,.41406-.33594.75-.75.75Z" fill="var(--iconPrimary, #222)"/>
  <path d="M2.75,7c-.41406,0-.75-.33594-.75-.75v-2c0-1.24023,1.00928-2.25,2.25-2.25h2c.41406,0,.75.33594.75.75s-.33594.75-.75.75h-2c-.41357,0-.75.33691-.75.75v2c0,.41406-.33594.75-.75.75Z" fill="var(--iconPrimary, #222)"/>
  <path d="M6.25,18h-2c-1.24072,0-2.25-1.00977-2.25-2.25v-2c0-.41406.33594-.75.75-.75s.75.33594.75.75v2c0,.41309.33643.75.75.75h2c.41406,0,.75.33594.75.75s-.33594.75-.75.75Z" fill="var(--iconPrimary, #222)"/>
  <path d="M19.28027,18.22168l-1.97351-1.97351c.43671-.64087.69324-1.4137.69324-2.24622,0-2.20605-1.79443-4-4-4s-4,1.79395-4,4,1.79443,4,4,4c.83234,0,1.60529-.25659,2.24615-.69336l1.97357,1.97363c.14648.14648.33838.21973.53027.21973s.38379-.07324.53027-.21973c.29297-.29297.29297-.76758,0-1.06055ZM11.5,14.00195c0-1.37891,1.12158-2.5,2.5-2.5s2.5,1.12109,2.5,2.5-1.12158,2.5-2.5,2.5-2.5-1.12109-2.5-2.5Z" fill="var(--iconPrimary, #222)"/>
  <path d="M17.25,7c-.41406,0-.75-.33594-.75-.75v-2c0-.41309-.33643-.75-.75-.75h-2c-.41406,0-.75-.33594-.75-.75s.33594-.75.75-.75h2c1.24072,0,2.25,1.00977,2.25,2.25v2c0,.41406-.33594.75-.75.75Z" fill="var(--iconPrimary, #222)"/>
  <path d="M2.75,7c-.41406,0-.75-.33594-.75-.75v-2c0-1.24023,1.00928-2.25,2.25-2.25h2c.41406,0,.75.33594.75.75s-.33594.75-.75.75h-2c-.41357,0-.75.33691-.75.75v2c0,.41406-.33594.75-.75.75Z" fill="var(--iconPrimary, #222)"/>
  <path d="M6.25,18h-2c-1.24072,0-2.25-1.00977-2.25-2.25v-2c0-.41406.33594-.75.75-.75s.75.33594.75.75v2c0,.41309.33643.75.75.75h2c.41406,0,.75.33594.75.75s-.33594.75-.75.75Z" fill="var(--iconPrimary, #222)"/>
</svg>