<?xml version="1.0" encoding="UTF-8"?>
<svg xmlns="http://www.w3.org/2000/svg" width="28.00005" height="28" viewBox="0 0 28.00005 28">
  <g id="circles">
    <circle id="Ellipse_10213" data-name="Ellipse 10213" cx="14.00002" cy="14" r="14.00001" fill="#b539c8"/>
  </g>
  <g id="ICONS">
    <rect id="S2_Icon_DesktopStreaming_20_N" x="5" y="5" width="18" height="18" fill="none" opacity=".1"/>
    <path d="M10.71465,20.75h-.76465c-.37266,0-.675-.30234-.675-.675s.30234-.675.675-.675h.76465c.37266,0,.675.30234.675.675s-.30234.675-.675.675Z" fill="#fff"/>
    <path d="M17.375,22.55c-2.85337,0-5.175-2.32119-5.175-5.175s2.32163-5.175,5.175-5.175,5.175,2.32119,5.175,5.175-2.32163,5.175-5.175,5.175ZM17.375,13.55c-2.10894,0-3.825,1.71563-3.825,3.825s1.71606,3.825,3.825,3.825,3.825-1.71563,3.825-3.825-1.71606-3.825-3.825-3.825Z" fill="#fff"/>
    <path d="M10.19785,18.5h-2.27285c-1.11665,0-2.025-.90879-2.025-2.025v-7.65c0-1.11621.90835-2.025,2.025-2.025h11.25c1.11665,0,2.025.90879,2.025,2.025v2.37656c0,.37266-.30234.675-.675.675s-.675-.30234-.675-.675v-2.37656c0-.37178-.30278-.675-.675-.675H7.925c-.37222,0-.675.30322-.675.675v7.65c0,.37178.30278.675.675.675h2.27285c.37266,0,.675.30234.675.675s-.30234.675-.675.675Z" fill="#fff"/>
    <path d="M16.25,18.84339v-2.61602c0-.38581.3726-.62102.65984-.41654l2.11562,1.30801c.27026.19239.27026.64069,0,.83308l-2.11562,1.30801c-.28725.20448-.65984-.03073-.65984-.41654Z" fill="#fff"/>
  </g>
</svg>