<?xml version="1.0" encoding="UTF-8"?>
<svg id="e" data-name="ICONS" xmlns="http://www.w3.org/2000/svg" width="20" height="20" viewBox="0 0 20 20">
  <path d="M6.79248,13.51562h-1.04785c-.41846,0-.75928-.33691-.75928-.74707l.00928-2.51855c0-.41309.33643-.75.75-.75h6c.20117,0,.39014.0791.53174.22266.2915.29492.76611.29688,1.06055.00586.29492-.29102.29785-.76562.00684-1.06055-.42578-.43066-.99365-.66797-1.59912-.66797h-6c-1.24072,0-2.25,1.00977-2.25,2.24707l-.00354.96484h-.46863c-.28809,0-.52246-.23438-.52246-.52246v-4.66699c0-.28809.23438-.52246.52246-.52246h11.45508c.28809,0,.52246.23438.52246.52246v2.31641c0,.41406.33594.75.75.75s.75-.33594.75-.75v-2.31641c0-1.11523-.90723-2.02246-2.02246-2.02246h-.52295v-.97754c0-1.11523-.90771-2.02246-2.02295-2.02246h-6.36328c-1.11523,0-2.02295.90723-2.02295,2.02246v.97754h-.52295c-1.11523,0-2.02246.90723-2.02246,2.02246v4.66699c0,1.11523.90723,2.02246,2.02246,2.02246h.46307l-.00018.05371c0,1.24023,1.01367,2.25,2.25928,2.25h1.04785c.41406,0,.75-.33594.75-.75s-.33594-.75-.75-.75ZM5.04541,3.02246c0-.28809.23438-.52246.52295-.52246h6.36328c.28857,0,.52295.23438.52295.52246v.97754h-7.40918v-.97754Z" fill="var(--iconPrimary, #222)"/>
  <path d="M18.8385,13.83191c-.01129-.01245-.02277-.02466-.03442-.03674l-2.66052-2.75366c-.33582-.33167-.74402-.5-1.17511-.5-.44244,0-.87292.18127-1.18115.49719-.30359.3147-.46777.72205-.46777,1.15283v.25781c-.1806.0271-.35303.0448-.51831.04919l-.09631.00159c-.24805,0-.47437-.03088-.69202-.09436-.26099-.0752-.54388-.21069-.82251-.39307-.26764-.17578-.58026-.26941-.9021-.26941-.4425,0-.87329.18225-1.18195.50012-.54242.56091-.6239,1.40662-.20001,2.05872.25372.39026.53741.74854.84338,1.06506.14087.14575.28906.28601.44562.41968.50537.43457,1.09668.79883,1.75317,1.07886.46301.19983.92493.34448,1.37146.45996l.00006.27356c0,.43079.16412.83813.46216,1.14709.31403.32214.74481.50366,1.18719.50366.43079,0,.83868-.16809,1.14856-.47339l2.68414-2.76648c.01245-.01294.02472-.026.03674-.03931.55042-.60986.55029-1.5293-.00031-2.13892ZM17.72534,14.9657l-2.66003,2.74231c-.03137.03088-.06506.04199-.09595.04199-.04736,0-.08875-.02576-.10779-.04529-.02533-.02625-.04156-.0625-.04156-.10571l-.00024-1.47522c-.72449-.14868-1.52441-.31055-2.28284-.63782-.49658-.21179-.96722-.49548-1.36786-.84009-.11987-.10229-.23322-.20984-.34076-.32104-.25342-.26221-.47339-.54651-.66431-.84021-.03534-.05432-.0379-.13794.01855-.19629.02832-.02917.06665-.04504.10571-.04504.02759,0,.05548.00793.08057.02441.39349.25757.80835.45825,1.22412.57812.37048.10803.74188.1543,1.11194.1543.04553,0,.09106-.00073.13654-.00208.64111-.01721,1.27429-.16541,1.97809-.32617v-1.48035c0-.04297.0163-.07922.04163-.10547.01855-.01904.05988-.04456.1073-.04456.03113,0,.06482.01111.09637.04224l2.66052,2.75366c.04578.05066.01697.1095,0,.1283Z" fill="var(--iconPrimary, #222)"/>
</svg>