<?xml version="1.0" encoding="UTF-8"?>
<svg xmlns="http://www.w3.org/2000/svg" width="28.00005" height="28" viewBox="0 0 28.00005 28">
  <g id="circles">
    <circle id="Ellipse_10213" data-name="Ellipse 10213" cx="14.00002" cy="14" r="14.00001" fill="#0a8d99"/>
  </g>
  <g id="ICONS">
    <rect id="S2_Icon_UserHighlight_20_N" x="5.09281" y="5.00404" width="18" height="18" fill="none" opacity=".1"/>
    <path d="M22.19105,17.60404v-.9c0-1.24102-1.00898-2.25-2.25-2.25s-2.25,1.00898-2.25,2.25v.9c-.49702,0-.9.40298-.9.9v2.7c0,.49702.40298.9.9.9h4.5c.49702,0,.9-.40298.9-.9v-2.7c0-.49702-.40298-.9-.9-.9ZM19.04105,16.70404c0-.49658.40342-.9.9-.9s.9.40342.9.9v.9h-1.8v-.9Z" fill="#fff"/>
    <path d="M15.66605,18.50404c0-.70049.35771-1.31924.9-1.68311v-.11689c0-1.8234,1.45701-3.30513,3.26624-3.36401l.27883-2.12992c0-2.34877-1.90415-4.2527-4.25281-4.2527h-1.82219v14.39407c.5759,0,1.11973-.12579,1.62993-.33926v-2.50818Z" fill="#fff" opacity=".2"/>
    <path d="M14.09281,22.01791c-.0668,0-.13403-.00967-.19863-.02988-.67061-.20654-6.55137-2.19639-6.55137-8.42695v-3.90586c0-.85342.54009-1.61982,1.34341-1.90723l4.71533-1.7209c.44561-.1626.93516-.1626,1.38076-.00352l4.75093,1.71123c.78926.30586,1.30957,1.06436,1.30957,1.89404v3.15088c0,.37266-.30234.675-.675.675s-.675-.30234-.675-.675v-3.15088c0-.27598-.17358-.5291-.43154-.6293l-4.73643-1.70508c-.14941-.05537-.31245-.05361-.46099.00088l-4.71841,1.72178c-.27246.09756-.45264.35332-.45264.63809v3.90586c0,4.84541,4.2627,6.66914,5.38418,7.06553.17754-.07207.46099-.19512.80552-.37354.33179-.17051.73872-.04219.90967.28916.17139.33135.04175.73828-.28916.90967-.68862.35684-1.17202.52295-1.19224.52998-.07031.02373-.14414.03604-.21797.03604Z" fill="#fff"/>
  </g>
</svg>