<?xml version="1.0" encoding="UTF-8"?>
<svg id="f" data-name="ICONS" xmlns="http://www.w3.org/2000/svg" width="20" height="20" viewBox="0 0 20 20">
  <path d="M16.25781,15.67664c-1.36621,0-2.47803-1.16016-2.47803-2.58594s1.11182-2.58594,2.47803-2.58594,2.47754,1.16016,2.47754,2.58594-1.11133,2.58594-2.47754,2.58594ZM16.25781,12.00476c-.53906,0-.97803.4873-.97803,1.08594s.43896,1.08594.97803,1.08594.97754-.4873.97754-1.08594-.43848-1.08594-.97754-1.08594Z" fill="var(--iconPrimary, #222)"/>
  <path d="M13.25195,20.00488c-.08203,0-.16602-.01367-.24805-.04199-.39062-.13672-.59668-.56543-.45996-.95605.45996-1.3125,1.98633-2.22852,3.71289-2.22852,1.72754,0,3.21289.88086,3.69727,2.19141.14258.38867-.05566.82031-.44434.96387-.38867.14258-.81934-.05566-.96387-.44434-.22168-.60156-1.0791-1.21094-2.28906-1.21094-1.22656,0-2.08398.61621-2.29688,1.22461-.1084.30859-.39844.50195-.70801.50195Z" fill="var(--iconPrimary, #222)"/>
  <path d="M16,8.36133v-3.22266c0-.30664-.19238-.58789-.47949-.69922l-5.2627-1.89453c-.08301-.03052-.17017-.04492-.25781-.04443v14.85034c.16968-.06958.41699-.17651.71973-.32739.37012-.18555.82129-.03418,1.00586.33594.0083.01636.00684.03418.01367.05078.43311-.59045,1.00854-1.08508,1.69604-1.44507-.71362-.73877-1.15601-1.75415-1.15601-2.87427,0-2.25293,1.78516-4.08594,3.97852-4.08594.05249,0,.10229.01123.15356.01587-.24146-.12463-.41138-.36914-.41138-.65942Z" fill="var(--iconPrimary, #222)" opacity=".2"/>
  <path d="M16.04492,3.03418l-5.2793-1.90137c-.49512-.17676-1.04004-.17578-1.5332.00391l-5.23926,1.91211c-.89258.31934-1.49316,1.1709-1.49316,2.11914v4.33984c0,6.92285,6.53418,9.13379,7.2793,9.36328.07227.02246.14648.0332.2207.0332.08203,0,.16406-.01367.24316-.04004.01953-.00684.47656-.16504,1.14648-.49902.35376-.17639.49878-.59424.34961-.95508-.00684-.0166-.00537-.03442-.01367-.05078-.18457-.37012-.63574-.52148-1.00586-.33594-.30273.15088-.55005.25781-.71973.32739-.00488.00208-.0127.00562-.01758.00757-1.24707-.44043-5.98242-2.4668-5.98242-7.85059v-4.33984c0-.31641.2002-.60059.50293-.70898l5.24316-1.91309c.08203-.03003.16821-.04492.25391-.04541.08765-.00049.1748.01392.25781.04443l5.2627,1.89453c.28711.11133.47949.39258.47949.69922v3.22266c0,.29028.16992.53479.41138.65942.10303.05322.21484.09058.33862.09058.41406,0,.75-.33594.75-.75v-3.22266c0-.92188-.57812-1.76465-1.45508-2.10449Z" fill="var(--iconPrimary, #222)"/>
</svg>