<?xml version="1.0" encoding="UTF-8"?>
<svg xmlns="http://www.w3.org/2000/svg" width="20" height="20" viewBox="0 0 20 20">
  <g id="e" data-name="strokes">
    <path d="M9.19238,18.60254c-.09863,0-.19727-.01953-.29395-.05957-1.92383-.81836-6.39844-3.33691-6.39844-9.03516v-4.33984c0-.94824.60059-1.7998,1.49316-2.11914l5.23926-1.91211c.49219-.17969,1.03711-.18066,1.5332-.00391l5.2793,1.90137c.87695.33984,1.45508,1.18262,1.45508,2.10449v3.83105c0,.41406-.33594.75-.75.75s-.75-.33594-.75-.75v-3.83105c0-.30664-.19238-.58789-.47949-.69922l-5.2627-1.89453c-.16406-.06055-.3457-.05957-.51172.00098l-5.24316,1.91309c-.30273.1084-.50293.39258-.50293.70898v4.33984c0,4.80273,3.83691,6.95312,5.48633,7.6543.38086.16211.55859.60254.39648.98438-.12207.28516-.39941.45605-.69043.45605Z" fill="var(--iconPrimary, #222)"/>
    <path d="M15,9.25c.34155,0,.67444.03552.99976.0929,0,0,.04712.01023.11431.02273-.11563-.17656-.11431-.35624-.11431-.35624v-3.87022c0-.30762-.19238-.58789-.47852-.69824l-5.26367-1.89551c-.08203-.03027-.16846-.04492-.25439-.04492-.0011,0-.0022.00061-.00342.00061v9.67029c.98926-1.7417,2.85815-2.92139,5.00024-2.92139Z" fill="var(--iconPrimary, #222)" isolation="isolate" opacity=".2"/>
  </g>
  <g id="f" data-name="ICONS">
    <path d="M15,10.5c-2.48535,0-4.5,2.01465-4.5,4.5s2.01465,4.5,4.5,4.5,4.5-2.01465,4.5-4.5-2.01465-4.5-4.5-4.5ZM15.75,17.5c0,.41406-.33594.75-.75.75s-.75-.33594-.75-.75v-.2002c0-.41406.33594-.75.75-.75s.75.33594.75.75v.2002ZM15.75,14.90039c0,.41406-.33594.75-.75.75s-.75-.33594-.75-.75v-2.65039c0-.41406.33594-.75.75-.75s.75.33594.75.75v2.65039Z" fill="var(--iconNotice, #cb5d00)"/>
  </g>
</svg>