<?xml version="1.0" encoding="UTF-8"?>
<svg id="f" data-name="ICONS" xmlns="http://www.w3.org/2000/svg" width="20" height="20" viewBox="0 0 20 20">
  <path d="M14.75293,16.00195c-.16895,0-.3418-.03418-.50879-.10645-.58008-.25-.87402-.85156-.71484-1.46289l.6543-2.51367h-2.13574c-.45215,0-.86914-.24512-1.09082-.63867-.2207-.39453-.21191-.87891.02441-1.26367l3.54004-5.77539c.33008-.53906.96582-.74609,1.55176-.49902.58203.24512.88086.84375.72656,1.45703l-.68359,2.71973h2.13281c.45508,0,.87402.24707,1.09375.64551.2207.39746.20703.88477-.03418,1.26953l-3.51172,5.5791c-.23828.37891-.62988.58887-1.04395.58887ZM12.49316,10.41895h2.01465c.39062,0,.75098.17773.98926.48633.23828.30957.31836.70312.21973,1.08008l-.3291,1.26172,2.40918-3.82812h-2.00098c-.3877,0-.74707-.1748-.98535-.48047-.23926-.30566-.32129-.69727-.22754-1.07324l.36328-1.44727-2.45312,4.00098Z" fill="var(--iconPrimary, #222)"/>
  <path d="M10.45801,6.89453l-3.18286-3.18188c.14001-.29297.22485-.61694.22485-.96265,0-1.24023-1.00977-2.25-2.25-2.25s-2.25,1.00977-2.25,2.25,1.00977,2.25,2.25,2.25c.34668,0,.67151-.08545.96509-.22632l3.18237,3.1814c.14648.14648.33789.21973.53027.21973s.38379-.07324.53027-.21973c.29297-.29297.29297-.76758,0-1.06055ZM5.25,3.5c-.41309,0-.75-.33691-.75-.75s.33691-.75.75-.75.75.33691.75.75-.33691.75-.75.75Z" fill="var(--iconPrimary, #222)"/>
  <path d="M10.45801,13.10547l-3.18286,3.18188c.14001.29297.22485.61694.22485.96265,0,1.24023-1.00977,2.25-2.25,2.25s-2.25-1.00977-2.25-2.25,1.00977-2.25,2.25-2.25c.34668,0,.67151.08545.96509.22632l3.18237-3.1814c.14648-.14648.33789-.21973.53027-.21973s.38379.07324.53027.21973c.29297.29297.29297.76758,0,1.06055ZM5.25,16.5c-.41309,0-.75.33691-.75.75s.33691.75.75.75.75-.33691.75-.75-.33691-.75-.75-.75Z" fill="var(--iconPrimary, #222)"/>
  <path d="M8.60742,9.25h-2.22449c-.32886-1.15063-1.37805-2-2.63293-2-1.5166,0-2.75,1.2334-2.75,2.75s1.2334,2.75,2.75,2.75c1.25488,0,2.30408-.84937,2.63293-2h2.22449c.41406,0,.75-.33594.75-.75s-.33594-.75-.75-.75ZM3.75,11.25c-.68945,0-1.25-.56055-1.25-1.25s.56055-1.25,1.25-1.25,1.25.56055,1.25,1.25-.56055,1.25-1.25,1.25Z" fill="var(--iconPrimary, #222)"/>
</svg>