<?xml version="1.0" encoding="UTF-8"?>
<svg id="f" data-name="ICONS" xmlns="http://www.w3.org/2000/svg" width="20" height="20" viewBox="0 0 20 20">
  <path d="M6.25,19c-.09668,0-.19434-.01855-.28711-.05762-.28027-.11523-.46289-.38867-.46289-.69238v-3.25h-.75c-2.06787,0-3.75-1.68262-3.75-3.75v-5.5c0-2.06738,1.68213-3.75,3.75-3.75h10.5c2.06787,0,3.75,1.68262,3.75,3.75v5.5c0,2.06738-1.68213,3.75-3.75,3.75h-4.68555l-3.78418,3.78027c-.14355.14355-.33545.21973-.53027.21973ZM4.75,3.5c-1.24072,0-2.25,1.00977-2.25,2.25v5.5c0,1.24023,1.00928,2.25,2.25,2.25h1.5c.41406,0,.75.33594.75.75v2.19043l2.72363-2.7207c.14062-.14062.33154-.21973.53027-.21973h4.99609c1.24072,0,2.25-1.00977,2.25-2.25v-5.5c0-1.24023-1.00928-2.25-2.25-2.25H4.75Z" fill="var(--iconPrimary, #222)"/>
  <path d="M8.37207,11.96973c-.20508,0-.40918-.06445-.58447-.19238-.33545-.24414-.48096-.66113-.37061-1.06055l.3501-1.27539-1.01904-.77246c-.32568-.26074-.45264-.68457-.32373-1.0791.12842-.39551.48047-.66406.89648-.68262l1.32617-.0625.42578-1.20508c.14746-.38867.51123-.63965.92725-.63965s.77979.25098.92725.63965l.46973,1.2373,1.28271.03027c.41553.01855.76758.28711.896.68262.12891.39453.00195.81836-.32227,1.07812l-1.03809.82812.36816,1.2207c.10986.40039-.03613.81738-.37158,1.06152-.33643.24316-.77832.25684-1.12793.02832l-.86475-.56543c-.12988-.08594-.30859-.08496-.43848-.00098l-.86523.56641c-.16699.10938-.35547.16309-.54346.16309ZM10,9.92578c.32275,0,.63525.09277.90381.26953l.29248.19043-.16846-.61328c-.12695-.46289.0332-.9541.4082-1.25293l.49609-.39648-.6377-.03027c-.47998-.02441-.89746-.32715-1.06641-.77246l-.22803-.60059-.22803.60059c-.16895.44531-.58643.74805-1.06396.77246l-.64014.03027.49609.39648c.375.29883.53516.79004.4082,1.25195l-.16846.61426.29297-.19141c.26807-.17578.58057-.26855.90332-.26855Z" fill="var(--iconPrimary, #222)"/>
</svg>