<?xml version="1.0" encoding="UTF-8"?>
<svg id="e" data-name="ICONS" xmlns="http://www.w3.org/2000/svg" width="20" height="20" viewBox="0 0 20 20">
  <path d="M5.75195,16.99902h-1.5c-1.24023,0-2.25-1.00977-2.25-2.25v-1.5c0-1.24023,1.00977-2.25,2.25-2.25h1.5c1.24023,0,2.25,1.00977,2.25,2.25v1.5c0,1.24023-1.00977,2.25-2.25,2.25ZM4.25195,12.49902c-.41309,0-.75.33691-.75.75v1.5c0,.41309.33691.75.75.75h1.5c.41309,0,.75-.33691.75-.75v-1.5c0-.41309-.33691-.75-.75-.75h-1.5Z" fill="var(--iconPrimary, #222)"/>
  <path d="M5.75195,8.99902h-1.5c-1.24023,0-2.25-1.00977-2.25-2.25v-1.5c0-1.24023,1.00977-2.25,2.25-2.25h1.5c1.24023,0,2.25,1.00977,2.25,2.25v1.5c0,1.24023-1.00977,2.25-2.25,2.25ZM4.25195,4.49902c-.41309,0-.75.33691-.75.75v1.5c0,.41309.33691.75.75.75h1.5c.41309,0,.75-.33691.75-.75v-1.5c0-.41309-.33691-.75-.75-.75h-1.5Z" fill="var(--iconPrimary, #222)"/>
  <path d="M17.25195,5.49902h-6.5c-.41406,0-.75-.33594-.75-.75s.33594-.75.75-.75h6.5c.41406,0,.75.33594.75.75s-.33594.75-.75.75Z" fill="var(--iconPrimary, #222)"/>
  <path d="M15.25195,8.49902h-4.5c-.41406,0-.75-.33594-.75-.75s.33594-.75.75-.75h4.5c.41406,0,.75.33594.75.75s-.33594.75-.75.75Z" fill="var(--iconPrimary, #222)"/>
  <path d="M17.25195,13.49902h-6.5c-.41406,0-.75-.33594-.75-.75s.33594-.75.75-.75h6.5c.41406,0,.75.33594.75.75s-.33594.75-.75.75Z" fill="var(--iconPrimary, #222)"/>
  <path d="M15.25195,16.49902h-4.5c-.41406,0-.75-.33594-.75-.75s.33594-.75.75-.75h4.5c.41406,0,.75.33594.75.75s-.33594.75-.75.75Z" fill="var(--iconPrimary, #222)"/>
</svg>