<?xml version="1.0" encoding="UTF-8"?>
<svg xmlns="http://www.w3.org/2000/svg" width="20" height="20" viewBox="0 0 20 20">
  <path d="M17.75,19h-5.5c-1.24072,0-2.25-1.00977-2.25-2.25v-5.5c0-1.24023,1.00928-2.25,2.25-2.25h5.5c1.24072,0,2.25,1.00977,2.25,2.25v5.5c0,1.24023-1.00928,2.25-2.25,2.25ZM12.25,10.5c-.41357,0-.75.33691-.75.75v5.5c0,.41309.33643.75.75.75h5.5c.41357,0,.75-.33691.75-.75v-5.5c0-.41309-.33643-.75-.75-.75h-5.5Z" fill="var(--iconPrimary, #222)"/>
  <rect x="10.75" y="9.75" width="8.5" height="8.5" rx="1.5" ry="1.5" transform="translate(30 28) rotate(180)" fill="var(--iconPrimary, #222)" opacity=".12"/>
  <path d="M3,11h-.75c-1.24072,0-2.25-1.00977-2.25-2.25V3.25C0,2.00977,1.00928,1,2.25,1h5.5c1.13721,0,2.09766.85059,2.23389,1.97852.0498.41113-.24316.78516-.65479.83398-.40723.05469-.78516-.24316-.83447-.6543-.04541-.375-.36523-.6582-.74463-.6582H2.25c-.41357,0-.75.33691-.75.75v5.5c0,.41309.33643.75.75.75h.75c.41406,0,.75.33594.75.75s-.33594.75-.75.75Z" fill="var(--iconPrimary, #222)"/>
  <path d="M12.75,5h-5.5c-1.24072,0-2.25,1.00977-2.25,2.25v5.5c0,1.24023,1.00928,2.25,2.25,2.25h.75c.41406,0,.75-.33594.75-.75v-1.75h-.75v1h-.75c-.41357,0-.75-.33691-.75-.75v-.25h1.5v-1.5h-1.5v-1.5h1.5v-1.5h-1.5v-.75c0-.41309.33643-.75.75-.75h.75v1.5h1.5v-1.5h1.5v1.48535c.38428-.18579.79712-.29932,1.23267-.29932h.26733v-1.18604h.25c.37939,0,.69922.2832.74463.6582.0498.41211.42871.71289.83447.6543.41162-.04883.70459-.42285.65479-.83398-.13623-1.12793-1.09668-1.97852-2.23389-1.97852Z" fill="var(--iconPrimary, #222)"/>
  <path d="M10.95337,8h-1.45337v1.09717c.37842-.4834.87354-.86768,1.45337-1.09717Z" fill="var(--iconPrimary, #222)"/>
  <path d="M9.22827,9.5h-1.22827v1.5h.77344c.03662-.54492.19604-1.05225.45483-1.5Z" fill="var(--iconPrimary, #222)"/>
</svg>