<?xml version="1.0" encoding="UTF-8"?>
<svg   xmlns="http://www.w3.org/2000/svg" width="20" height="20" viewBox="0 0 20 20">
  <path d="M8.5,16.50004c-3.58398,0-6.5-2.91602-6.5-6.5s2.91602-6.5,6.5-6.5,6.5,2.91602,6.5,6.5-2.91602,6.5-6.5,6.5ZM8.5,5.00004c-2.75684,0-5,2.24316-5,5s2.24316,5,5,5,5-2.24316,5-5-2.24316-5-5-5Z" fill="var(--iconPrimary, #222)"/>
  <path d="M14.61426,17.1143c-.19238,0-.38379-.07324-.53027-.21973-.29297-.29297-.29297-.76758,0-1.06055,3.2168-3.2168,3.2168-8.45117,0-11.66797-.29297-.29297-.29297-.76758,0-1.06055s.76758-.29297,1.06055,0c3.80176,3.80176,3.80176,9.9873,0,13.78906-.14648.14648-.33789.21973-.53027.21973Z" fill="var(--iconPrimary, #222)"/>
</svg>