<?xml version="1.0" encoding="UTF-8"?>
<svg xmlns="http://www.w3.org/2000/svg" width="20" height="20" viewBox="0 0 20 20">
  <path d="M13.45947,9.12207c-.19434,0-.39014-.05029-.56787-.15283-.42871-.24756-.646-.73877-.54102-1.22217l.5127-2.37402-1.63135-1.79932c-.33203-.36621-.38965-.8999-.14209-1.32861.24805-.42822.73779-.64648,1.22266-.5415l2.37402.5127,1.79932-1.63135c.36621-.33252.89893-.39062,1.32861-.14209.42871.24707.64648.73828.5415,1.22217l-.5127,2.37402,1.63135,1.79932c.33203.3667.38916.90039.14209,1.32861-.24756.42871-.73926.64307-1.22168.54248l-2.375-.51318-1.79932,1.63135c-.21484.19434-.48633.29443-.76123.29443ZM16.16064,7.06885l-.00098.00098c0-.00049.00049-.00049.00098-.00098ZM14.36914,5.50635l-.31201,1.44482,1.09473-.99268c.27051-.24512.64355-.34473,1.00293-.26807l1.44385.31201-.99316-1.09521c-.24561-.27197-.3457-.646-.26807-1.00244l.31201-1.44336-1.09473.99268c-.27148.24561-.64404.34717-1.00293.26807l-1.44336-.31201.99268,1.09473c.24561.27148.34521.64551.26807,1.00146Z" fill="var(--iconPrimary, #222)"/>
  <path d="M8.91797,12.87842c-.12891,0-.2583-.0332-.375-.10059-.28223-.1626-.42676-.48926-.35791-.80762l.20264-.93945-.64502-.7124c-.21875-.24121-.25684-.59619-.09375-.87842.16309-.28174.48926-.42871.80762-.35791l.93945.20264.71143-.64551c.24121-.21973.5957-.25684.87891-.09375.28223.1626.42676.48926.35791.80762l-.20264.93945.64551.71191c.21875.2417.25684.59668.09375.87891-.1626.28223-.4873.43066-.80762.35791l-.93945-.20264-.71191.64551c-.1416.12842-.32227.19434-.50391.19434Z" fill="var(--iconPrimary, #222)"/>
  <path d="M1.25,14.37302c-.41406,0-.75-.33594-.75-.75V4.74998C.5,2.68211,2.18213.99998,4.25.99998h3.25c.41406,0,.75.33594.75.75s-.33594.75-.75.75h-3.25c-1.24072,0-2.25,1.00928-2.25,2.25v8.87305c0,.41406-.33594.75-.75.75Z" fill="var(--iconPrimary, #222)"/>
  <path d="M14.25,18.5h-6.5c-2.06787,0-3.75-1.68213-3.75-3.75v-6.5c0-2.06787,1.68213-3.75,3.75-3.75h1.104c.41406,0,.75.33594.75.75s-.33594.75-.75.75h-1.104c-1.24072,0-2.25,1.00928-2.25,2.25v6.5c0,1.24072,1.00928,2.25,2.25,2.25h6.5c1.24072,0,2.25-1.00928,2.25-2.25v-3.68945c0-.41406.33594-.75.75-.75s.75.33594.75.75v3.68945c0,2.06787-1.68213,3.75-3.75,3.75Z" fill="var(--iconPrimary, #222)"/>
</svg>