<?xml version="1.0" encoding="UTF-8"?>
<svg xmlns="http://www.w3.org/2000/svg" width="28.00005" height="28" viewBox="0 0 28.00005 28">
  <g id="circles">
    <circle id="Ellipse_10213" data-name="Ellipse 10213" cx="14.00002" cy="14" r="14.00001" fill="#515151"/>
  </g>
  <g id="ICONS">
    <rect id="S2_Icon_CustomerDevelopment_20_N" x="5" y="5" width="18" height="18" transform="translate(28 0) rotate(90)" fill="none" opacity=".1"/>
    <path d="M16.925,13.1h3.15c1.11621,0,2.025-.90879,2.025-2.025v-3.15c0-1.11621-.90879-2.025-2.025-2.025h-3.15c-1.11621,0-2.025.90879-2.025,2.025v.9h-1.8v-.9c0-1.11621-.90879-2.025-2.025-2.025h-3.15c-1.11621,0-2.025.90879-2.025,2.025v3.15c0,1.11621.90879,2.025,2.025,2.025h.9v4.05c0,1.11621.90879,2.025,2.025,2.025h4.05v.9c0,1.11621.90879,2.025,2.025,2.025h3.15c1.11621,0,2.025-.90879,2.025-2.025v-3.15c0-1.11621-.90879-2.025-2.025-2.025h-3.15c-1.11621,0-2.025.90879-2.025,2.025v.9h-4.05c-.37178,0-.675-.30322-.675-.675v-4.05h.9c1.11621,0,2.025-.90879,2.025-2.025v-.9h1.8v.9c0,1.11621.90879,2.025,2.025,2.025ZM16.25,16.925c0-.37178.30322-.675.675-.675h3.15c.37178,0,.675.30322.675.675v3.15c0,.37178-.30322.675-.675.675h-3.15c-.37178,0-.675-.30322-.675-.675v-.9h1.21465c.22094.33816.60139.5625,1.03535.5625.68346,0,1.2375-.55404,1.2375-1.2375s-.55404-1.2375-1.2375-1.2375c-.43396,0-.81442.22434-1.03535.5625h-1.21465v-.9ZM11.75,11.075c0,.37178-.30322.675-.675.675h-.9v-1.21465c.33816-.22094.5625-.60139.5625-1.03535,0-.68346-.55404-1.2375-1.2375-1.2375s-1.2375.55404-1.2375,1.2375c0,.43396.22434.81442.5625,1.03535v1.21465h-.9c-.37178,0-.675-.30322-.675-.675v-3.15c0-.37178.30322-.675.675-.675h3.15c.37178,0,.675.30322.675.675v3.15ZM16.25,7.925c0-.37178.30322-.675.675-.675h3.15c.37178,0,.675.30322.675.675v3.15c0,.37178-.30322.675-.675.675h-3.15c-.37178,0-.675-.30322-.675-.675v-.9h1.21465c.22094.33816.60139.5625,1.03535.5625.68346,0,1.2375-.55404,1.2375-1.2375s-.55404-1.2375-1.2375-1.2375c-.43396,0-.81442.22434-1.03535.5625h-1.21465v-.9Z" fill="#fff"/>
  </g>
</svg>