<?xml version="1.0" encoding="UTF-8"?>
<svg   xmlns="http://www.w3.org/2000/svg" width="20" height="20" viewBox="0 0 20 20">
  <path d="M9.25,14c.41421,0,.75-.33579.75-.75h0c0-.4125-.3375-.75-.75-.75h-.5v-5h1.75v1c0,.41421.33579.75.75.75h0c.41421,0,.75-.33579.75-.75v-1c0-.82843-.67157-1.5-1.5-1.5h-5c-.82843,0-1.5.67157-1.5,1.5v1c0,.41421.33579.75.75.75h0c.41421,0,.75-.33579.75-.75v-1h1.75v5h-1c-.4125,0-.75.3375-.75.75h0c0,.41421.33579.75.75.75h3Z" fill="var(--iconPrimary, #222)" stroke-width="0"/>
  <path d="M7.75,17H3.25c-1.24072,0-2.25-1.00977-2.25-2.25V5.25c0-1.24023,1.00928-2.25,2.25-2.25h13.5c1.24072,0,2.25,1.00977,2.25,2.25v2.25c0,.41406-.33594.75-.75.75s-.75-.33594-.75-.75v-2.25c0-.41309-.33643-.75-.75-.75H3.25c-.41357,0-.75.33691-.75.75v9.5c0,.41309.33643.75.75.75h4.5c.41406,0,.75.33594.75.75s-.33594.75-.75.75Z" fill="var(--iconPrimary, #222)" stroke-width="0"/>
  <path d="M18.55322,10.09375c-.84851-.69385-2.08984-.69897-3.00818-.0686-.13116.09009-.2558.19312-.3717.30884l-4.18311,4.18262q-.00049,0-.00098.00098c-.24609.24707-.43018.55371-.53174.88867l-.9541,3.16016c-.08008.26465-.00781.55176.1875.74707.14258.14258.33447.21973.53027.21973.07227,0,.14551-.01074.2168-.03223l3.15967-.9541c.3335-.10059.64111-.28418.89014-.53223,0,0,4.12256-4.12305,4.25293-4.25293.49365-.49316.75635-1.17676.72119-1.87305-.03467-.69629-.36572-1.35059-.90869-1.79492ZM11.34326,17.66113l.5498-1.82031c.01727-.05713.05896-.10278.09186-.15332l1.33221,1.33228c-.05017.03271-.09552.07397-.15259.09155l-1.82129.5498ZM17.68115,12.7002c-.0932.09277-2.2536,2.25317-3.45764,3.45728l-1.37653-1.37646,3.3869-3.38647c.38965-.3877.99023-.44922,1.36963-.13965.21875.17871.34668.43066.36035.70801.01416.2793-.08691.54102-.28271.7373Z" fill="var(--iconPrimary, #222)" stroke-width="0"/>
</svg>