<?xml version="1.0" encoding="UTF-8"?>
<svg id="g" data-name="ICONS" xmlns="http://www.w3.org/2000/svg" width="20" height="20" viewBox="0 0 20 20">
  <path d="M12.01412,18.34108c-.10742,0-.21484-.02734-.3125-.0835-.23535-.13574-.35596-.4082-.29834-.67334l.12598-.58398-.40088-.44238c-.18213-.20117-.21387-.49707-.07764-.73193.13477-.23535.40625-.35889.67285-.29834l.5835.12598.44238-.40088c.20068-.18262.49756-.21533.73193-.07764.23535.13574.35596.40771.29834.67285l-.12598.58301.40088.44238c.18262.20117.21436.49707.07861.73242-.13623.23486-.40723.35596-.67334.29834l-.5835-.12598-.44238.40088c-.11816.10693-.26855.16211-.41991.16211Z" fill="var(--iconPrimary, #222)"/>
  <path d="M15.37252,15.12673c-.10742,0-.21484-.02734-.3125-.0835-.23535-.13574-.35596-.4082-.29834-.67334l.30127-1.39551-.9585-1.05762c-.18262-.20117-.21436-.49707-.07812-.73242.13525-.23535.40479-.35889.67334-.29834l1.39502.30176,1.05762-.95898c.20166-.18311.49756-.21533.73242-.07812.23535.13574.35596.40771.29834.67334l-.30176,1.39502.95898,1.05762c.18262.20117.21436.49707.07861.73242-.13574.23486-.40674.35596-.67334.29834l-1.39551-.30127-1.05762.9585c-.11816.10693-.26855.16211-.41992.16211h0Z" fill="var(--iconPrimary, #222)"/>
  <path d="M9.29785,16H3.25c-1.24023,0-2.25-1.00928-2.25-2.25V5.25c0-1.24072,1.00977-2.25,2.25-2.25h13.5c1.24023,0,2.25,1.00928,2.25,2.25v2.85791c0,.41406-.33594.75-.75.75s-.75-.33594-.75-.75v-2.85791c0-.41357-.33691-.75-.75-.75H3.25c-.41309,0-.75.33643-.75.75v8.5c0,.41357.33691.75.75.75h6.04785c.41406,0,.75.33594.75.75s-.33594.75-.75.75Z" fill="var(--iconPrimary, #222)"/>
  <path d="M9.36523,6h-4.23047c-.76367,0-1.38477.62793-1.38477,1.3999v.74561c0,.41406.33594.75.75.75s.75-.33594.75-.75v-.64551h1.25v4h-.58594c-.41406,0-.75.33594-.75.75s.33594.75.75.75h2.63965c.41406,0,.75-.33594.75-.75s-.33594-.75-.75-.75h-.55371v-4h1.25v.64551c0,.41406.33594.75.75.75s.75-.33594.75-.75v-.74561c0-.77197-.62109-1.3999-1.38477-1.3999Z" fill="var(--iconPrimary, #222)"/>
</svg>