<?xml version="1.0" encoding="UTF-8"?>
<svg  xmlns="http://www.w3.org/2000/svg" width="20" height="20" viewBox="0 0 20 20">
  <path d="m15,10.5c-2.48535,0-4.5,2.01471-4.5,4.5s2.01465,4.5,4.5,4.5,4.5-2.01471,4.5-4.5-2.01465-4.5-4.5-4.5Zm2.39941,3.3501l-2.30957,3.1499c-.11133.15186-.28516.24512-.47266.25439-.01074.00049-.02051.00098-.03125.00098-.17676,0-.3457-.0752-.46484-.20703l-1.4375-1.59912c-.23047-.25684-.20996-.65186.04688-.88281.25488-.23047.65137-.21045.88281.04688l.92383,1.02734,1.85449-2.52979c.20312-.27832.59375-.33838.87305-.13428.27832.2041.33887.59521.13477.87354Z" fill="var(--iconPrimary, #222)" stroke-width="0"/>
  <path d="m8.29785,15H3.25c-1.24023,0-2.25-1.00928-2.25-2.25V4.25c0-1.24072,1.00977-2.25,2.25-2.25h13.5c1.24023,0,2.25,1.00928,2.25,2.25v4.85791c0,.41406-.33594.75-.75.75s-.75-.33594-.75-.75v-4.85791c0-.41357-.33691-.75-.75-.75H3.25c-.41309,0-.75.33643-.75.75v8.5c0,.41357.33691.75.75.75h5.04785c.41406,0,.75.33594.75.75s-.33594.75-.75.75Z" fill="var(--iconPrimary, #222)" stroke-width="0"/>
  <path d="m9.36523,5h-4.23047c-.76367,0-1.38477.62793-1.38477,1.3999v.74561c0,.41406.33594.75.75.75s.75-.33594.75-.75v-.64551h1.25v4h-.58594c-.41406,0-.75.33594-.75.75s.33594.75.75.75h2.63965c.41406,0,.75-.33594.75-.75s-.33594-.75-.75-.75h-.55371v-4h1.25v.64551c0,.41406.33594.75.75.75s.75-.33594.75-.75v-.74561c0-.77197-.62109-1.3999-1.38477-1.3999Z" fill="var(--iconPrimary, #222)" stroke-width="0"/>
</svg>