<?xml version="1.0" encoding="UTF-8"?>
<svg   xmlns="http://www.w3.org/2000/svg" width="20" height="20" viewBox="0 0 20 20">
  <path d="M19.28027,18.22168l-1.97351-1.97363c.43671-.64062.69324-1.41357.69324-2.24609,0-2.20605-1.79443-4-4-4s-4,1.79395-4,4,1.79443,4,4,4c.83234,0,1.60529-.25659,2.24615-.69336l1.97357,1.97363c.14648.14648.33838.21973.53027.21973s.38379-.07324.53027-.21973c.29297-.29297.29297-.76758,0-1.06055ZM11.5,14.00195c0-1.37891,1.12158-2.5,2.5-2.5s2.5,1.12109,2.5,2.5-1.12158,2.5-2.5,2.5-2.5-1.12109-2.5-2.5Z" fill="var(--iconPrimary, #222)" stroke-width="0"/>
  <path d="M8.75,12.36206v-4.86206h1.75v1c0,.4126.33344.74634.74536.74902.19092-.11108.38678-.21436.59131-.30225.09613-.12598.16333-.27588.16333-.44678v-1c0-.82837-.67157-1.5-1.5-1.5h-5c-.82843,0-1.5.67163-1.5,1.5v1c0,.41406.33582.75.75.75s.75-.33594.75-.75v-1h1.75v5h-1c-.41248,0-.75.3374-.75.75,0,.41406.33582.75.75.75h2.25012c.00018-.57031.08783-1.12036.24988-1.63794Z" fill="var(--iconPrimary, #222)" stroke-width="0"/>
  <path d="M8.25,17H3.25c-1.24072,0-2.25-1.00977-2.25-2.25V5.25c0-1.24023,1.00928-2.25,2.25-2.25h13.5c1.24072,0,2.25,1.00977,2.25,2.25v4.25c0,.41406-.33594.75-.75.75s-.75-.33594-.75-.75v-4.25c0-.41309-.33643-.75-.75-.75H3.25c-.41357,0-.75.33691-.75.75v9.5c0,.41309.33643.75.75.75h5c.41406,0,.75.33594.75.75s-.33594.75-.75.75Z" fill="var(--iconPrimary, #222)" stroke-width="0"/>
</svg>