<?xml version="1.0" encoding="UTF-8"?>
<svg   xmlns="http://www.w3.org/2000/svg" width="20" height="20" viewBox="0 0 20 20">
  <path d="M7.24469,18.04392h-1.99469c-1.24072,0-2.25-1.00977-2.25-2.25V3.29392c0-1.24023,1.00928-2.25,2.25-2.25h9.5c1.24072,0,2.25,1.00977,2.25,2.25v4.99264c0,.41406-.33594.75-.75.75s-.75-.33594-.75-.75V3.29392c0-.41309-.33643-.75-.75-.75H5.25c-.41357,0-.75.33691-.75.75v12.5c0,.41309.33643.75.75.75h1.99469c.41406,0,.75.33594.75.75s-.33594.75-.75.75Z" fill="var(--iconPrimary, #222)"/>
  <path d="M13.25,5.54392h-6.5c-.41406,0-.75-.33594-.75-.75s.33594-.75.75-.75h6.5c.41406,0,.75.33594.75.75s-.33594.75-.75.75Z" fill="var(--iconPrimary, #222)"/>
  <path d="M9.25,8.54392h-2.5c-.41406,0-.75-.33594-.75-.75s.33594-.75.75-.75h2.5c.41406,0,.75.33594.75.75s-.33594.75-.75.75Z" fill="var(--iconPrimary, #222)"/>
  <path d="M19.12317,10.98557h.00006c-.40137-.10278-.80975.13892-.91254.54028l-.16272.63501c-.84821-1.07397-2.12152-1.70581-3.49719-1.70581-1.53809,0-2.95166.78516-3.78125,2.09961-.22119.35059-.11621.81348.23389,1.03516.12451.07812.2627.11523.3999.11523.24854,0,.49219-.12402.63477-.34961.55322-.87695,1.49268-1.40039,2.5127-1.40039.83215,0,1.59827.3623,2.15747.9668l-.59668-.15308c-.40137-.10278-.80975.13892-.9126.54028-.10278.40137.13904.80981.54034.9126l2.39746.61426c.20068.05127.40314.0166.56824-.08105.16516-.0979.29291-.25854.34436-.45923l.6142-2.39746c.10278-.40137-.13904-.80981-.54041-.9126Z" fill="var(--iconPrimary, #222)"/>
  <path d="M18.09863,16.31638c-.35059-.22266-.81348-.11621-1.03467.2334-.55371.87695-1.49316,1.40039-2.51318,1.40039-.83221,0-1.59833-.3623-2.15729-.9668l.59668.15283c.40137.10303.80975-.13892.9126-.54028.10278-.40137-.13904-.80981-.54034-.9126l-2.39746-.61401c-.20068-.05151-.40314-.01685-.56824.08105-.16516.09766-.29297.25854-.34436.45923l-.6142,2.39746c-.10278.40137.13904.80981.54041.91235l-.00006.00024c.40137.10278.80975-.13916.91254-.54028l.16272-.63525c.84766,1.07397,2.12079,1.70605,3.49701,1.70605,1.5376,0,2.95166-.78516,3.78174-2.09961.22119-.35059.11621-.81348-.23389-1.03418Z" fill="var(--iconPrimary, #222)"/>
</svg>