<?xml version="1.0" encoding="UTF-8"?>
<svg id="g" data-name="ICONS" xmlns="http://www.w3.org/2000/svg" width="20" height="20" viewBox="0 0 20 20">
  <path d="M10.29785,16H3.25c-1.24023,0-2.25-1.00928-2.25-2.25V5.25c0-1.24072,1.00977-2.25,2.25-2.25h13.5c1.24023,0,2.25,1.00928,2.25,2.25v2.60791c0,.41406-.33594.75-.75.75s-.75-.33594-.75-.75v-2.60791c0-.41357-.33691-.75-.75-.75H3.25c-.41309,0-.75.33643-.75.75v8.5c0,.41357.33691.75.75.75h7.04785c.41406,0,.75.33594.75.75s-.33594.75-.75.75Z" fill="var(--iconPrimary, #222)"/>
  <path d="M15.42383,19.26758c-.1543,0-.31055-.03125-.46094-.09668-.52441-.22754-.79883-.79395-.6543-1.34668l.47559-1.82373-1.48828-.00049c-.42188,0-.8125-.229-1.01855-.59766-.20508-.36865-.19629-.8208.02539-1.18018l2.81934-4.59668c.29883-.48828.89746-.68213,1.42773-.4585.52734.22217.80859.78662.66895,1.34131l-.50098,1.99121,1.48633.00049c.4248,0,.81543.23096,1.02051.60254.20508.37207.19238.82617-.03418,1.18555l-2.7959,4.44043c-.21777.3457-.58691.53906-.9707.53906ZM13.89258,14.5l1.32324.00049c.36328,0,.7002.16504.92285.45264.22266.28809.29785.65479.20605,1.00684l-.01367.05371,1.26758-2.01367-1.30957-.00049c-.3623,0-.69727-.16406-.91992-.44971-.22266-.28613-.29883-.65137-.21094-1.00195l.04785-.19043-1.31348,2.14258ZM18.20117,14h.00293-.00293Z" fill="var(--iconPrimary, #222)"/>
  <path d="M9.36523,6h-4.23047c-.76367,0-1.38477.62793-1.38477,1.3999v.74561c0,.41406.33594.75.75.75s.75-.33594.75-.75v-.64551h1.25v4h-.58594c-.41406,0-.75.33594-.75.75s.33594.75.75.75h2.63965c.41406,0,.75-.33594.75-.75s-.33594-.75-.75-.75h-.55371v-4h1.25v.64551c0,.41406.33594.75.75.75s.75-.33594.75-.75v-.74561c0-.77197-.62109-1.3999-1.38477-1.3999Z" fill="var(--iconPrimary, #222)"/>
</svg>