<?xml version="1.0" encoding="UTF-8"?>
<svg   xmlns="http://www.w3.org/2000/svg" width="20" height="20" viewBox="0 0 20 20">
  <path d="M14.75,18.00003H5.25c-1.24072,0-2.25-1.00977-2.25-2.25V3.25003c0-1.24023,1.00928-2.25,2.25-2.25h9.5c1.24072,0,2.25,1.00977,2.25,2.25v12.5c0,1.24023-1.00928,2.25-2.25,2.25ZM5.25,2.50003c-.41357,0-.75.33691-.75.75v12.5c0,.41309.33643.75.75.75h9.5c.41357,0,.75-.33691.75-.75V3.25003c0-.41309-.33643-.75-.75-.75H5.25Z" fill="var(--iconPrimary, #222)"/>
  <path d="M13.25,5.50003h-6.5c-.41406,0-.75-.33594-.75-.75s.33594-.75.75-.75h6.5c.41406,0,.75.33594.75.75s-.33594.75-.75.75Z" fill="var(--iconPrimary, #222)"/>
  <path d="M9.25,8.50003h-2.5c-.41406,0-.75-.33594-.75-.75s.33594-.75.75-.75h2.5c.41406,0,.75.33594.75.75s-.33594.75-.75.75Z" fill="var(--iconPrimary, #222)"/>
</svg>