<?xml version="1.0" encoding="UTF-8"?>
<svg id="f" data-name="ICONS" xmlns="http://www.w3.org/2000/svg" width="20" height="20" viewBox="0 0 20 20">
  <path d="M17.24854,11.49902h-5.5c-1.24072,0-2.25,1.00977-2.25,2.25v3.5c0,1.24023,1.00928,2.25,2.25,2.25h5.5c1.24072,0,2.25-1.00977,2.25-2.25v-3.5c0-1.24023-1.00928-2.25-2.25-2.25ZM17.10419,12.99902l-2.62177,1.96777-2.52454-1.96777h5.1463ZM17.24854,17.99902h-5.5c-.41357,0-.75-.33691-.75-.75v-3.09583l2.52979,1.97083c.28955.25195.65332.37695,1.01172.37695.34814,0,.69141-.11816.95557-.34961l2.50293-1.93738v3.03503c0,.41309-.33643.75-.75.75Z" fill="var(--iconPrimary, #222)"/>
  <path d="M8.78778,9.2605c.7218.04468,1.8902.18872,3.81329.57837.12451.02441.24902.03711.37305.03711.48682,0,.95947-.18848,1.31445-.53516.44678-.43555.64893-1.06348.54053-1.67773l-.98828-5.60352c-.10889-.61719-.51514-1.13867-1.08643-1.39551-.56885-.25684-1.22754-.21387-1.7583.11719-2.03418,1.25488-3.60107,2.0459-4.29834,2.16992-.00012,0-.00031.00024-.00043.00024l-3.54254.62378h-.00098c-1.74414.30762-2.91309,1.97559-2.60596,3.71777.14893.84473.61816,1.58105,1.3208,2.07227.5459.38184,1.18164.58105,1.83496.58105.18799,0,.37744-.0166.56641-.0498h.00006l2.33783,3.66699c.03125.04883.09229.11914.14258.16895.146.1582.34766.24121.55176.24121.15674,0,.31445-.04883.44971-.15039.33105-.24805.39844-.71777.1499-1.0498-.01611-.02148-.04102-.0498-.06738-.07715l-1.96527-3.08203,1.22675-.21643.948,1.48596c.22314.34863.68799.4502,1.03564.22754.34912-.22266.45117-.68652.22803-1.03613l-.51984-.8147ZM11.78467,2.05664c.1499-.09082.2876-.05371.35645-.02344.05615.02539.18994.10352.22217.28613l.98828,5.60352c.03223.18262-.06641.30176-.11035.34473-.0542.05273-.16846.13672-.34277.10059-2.05383-.41565-3.58948-.62256-4.59375-.6239l-.62146-3.5249c.9552-.34534,2.32556-1.06604,4.10144-2.16272ZM2.72852,8.13672c-.37402-.2627-.62402-.6543-.70312-1.10352-.16406-.92773.45898-1.81641,1.38818-1.98145l2.80615-.49316.59375,3.36621-2.31104.40723c-.00085.00012-.0014.00085-.00226.00098l-.49237.08691c-.4502.07812-.9043-.02148-1.2793-.2832Z" fill="var(--iconPrimary, #222)"/>
</svg>