<?xml version="1.0" encoding="UTF-8"?>
<svg   xmlns="http://www.w3.org/2000/svg" width="20" height="20" viewBox="0 0 20 20">
  <path d="M19.14697,11.31445c-.33398-.0791-.67383.125-.75439.46094l-.07489.31006c-.8493-1.04834-2.13715-1.69775-3.53351-1.69775-1.95361,0-3.68652,1.24414-4.3125,3.09668-.13281.39258.07812.81836.47021.95117.07959.02637.16064.03906.24023.03906.31299,0,.60498-.19727.71045-.50977.41992-1.24219,1.58203-2.07715,2.8916-2.07715.94861,0,1.82446.4458,2.39355,1.16602l-.62939-.15234c-.3335-.0791-.67383.125-.75439.46094-.08105.33496.125.67285.46045.75391l2.09277.50586c.04932.01172.09863.01758.14746.01758.28174,0,.53809-.19238.60693-.47852l.50586-2.09277c.08105-.33496-.125-.67285-.46045-.75391Z" fill="var(--iconPrimary, #222)" stroke-width="0"/>
  <path d="M18.62598,15.45898c-.39355-.13477-.81885.07617-.95166.46875-.42188,1.23926-1.58301,2.07227-2.89014,2.07227-.96173,0-1.82678-.44556-2.3916-1.16528l.62695.15161c.33252.08008.67383-.125.75439-.46094.08105-.33496-.125-.67285-.46045-.75391l-2.09277-.50586c-.33447-.07617-.67383.12598-.75439.46094l-.03052.12622c-.01318.04712-.03046.0918-.03418.14136l-.44116,1.8252c-.08105.33496.125.67285.46045.75391.04932.01172.09863.01758.14746.01758.28174,0,.53809-.19238.60693-.47852l.07495-.31006c.84308,1.04932,2.11749,1.69775,3.53394,1.69775,1.94922,0,3.68164-1.24121,4.31006-3.08984.1333-.3916-.07617-.81738-.46826-.95117Z" fill="var(--iconPrimary, #222)" stroke-width="0"/>
  <path d="M8,17H3.25c-1.24072,0-2.25-1.00977-2.25-2.25V5.25c0-1.24023,1.00928-2.25,2.25-2.25h13.5c1.24072,0,2.25,1.00977,2.25,2.25v4c0,.41406-.33594.75-.75.75s-.75-.33594-.75-.75v-4c0-.41309-.33643-.75-.75-.75H3.25c-.41357,0-.75.33691-.75.75v9.5c0,.41309.33643.75.75.75h4.75c.41406,0,.75.33594.75.75s-.33594.75-.75.75Z" fill="var(--iconPrimary, #222)" stroke-width="0"/>
  <path d="M6.25,14c-.41418,0-.75-.33594-.75-.75,0-.4126.33752-.75.75-.75h1v-5h-1.75v1c0,.41406-.33582.75-.75.75s-.75-.33594-.75-.75v-1c0-.82843.67157-1.5,1.5-1.5h5c.82843,0,1.5.67157,1.5,1.5v.99805c0,.41475-.33622.75098-.75098.75098h0c-.41196,0-.74902-.33706-.74902-.74902v-1h-1.75v5.5c0,.55228-.44772,1-1,1h-1.5Z" fill="var(--iconPrimary, #222)" stroke-width="0"/>
</svg>