<?xml version="1.0" encoding="UTF-8"?>
<svg id="g" data-name="ICONS" xmlns="http://www.w3.org/2000/svg" width="20" height="20" viewBox="0 0 20 20">
  <path d="M10.29785,16H3.25c-1.24023,0-2.25-1.00928-2.25-2.25V5.25c0-1.24072,1.00977-2.25,2.25-2.25h13.5c1.24023,0,2.25,1.00928,2.25,2.25v2.85791c0,.41406-.33594.75-.75.75s-.75-.33594-.75-.75v-2.85791c0-.41357-.33691-.75-.75-.75H3.25c-.41309,0-.75.33643-.75.75v8.5c0,.41357.33691.75.75.75h7.04785c.41406,0,.75.33594.75.75s-.33594.75-.75.75Z" fill="var(--iconPrimary, #222)"/>
  <path d="M9.36523,6h-4.23047c-.76367,0-1.38477.62793-1.38477,1.3999v.74561c0,.41406.33594.75.75.75s.75-.33594.75-.75v-.64551h1.25v4h-.58594c-.41406,0-.75.33594-.75.75s.33594.75.75.75h2.63965c.41406,0,.75-.33594.75-.75s-.33594-.75-.75-.75h-.55371v-4h1.25v.64551c0,.41406.33594.75.75.75s.75-.33594.75-.75v-.74561c0-.77197-.62109-1.3999-1.38477-1.3999Z" fill="var(--iconPrimary, #222)"/>
  <path d="M19.5,13.25c0-2.06787-1.68262-3.75-3.75-3.75s-3.75,1.68213-3.75,3.75c0,1.22028.59473,2.29559,1.5,2.98077v1.01923c0,1.24072,1.00977,2.25,2.25,2.25s2.25-1.00928,2.25-2.25v-1.01923c.90527-.68518,1.5-1.7605,1.5-2.98077ZM16.5,17.25c0,.41357-.33691.75-.75.75s-.75-.33643-.75-.75v-.32581c.24243.04944.49316.07581.75.07581s.50757-.02637.75-.07581v.32581ZM15.75,15.5c-1.24023,0-2.25-1.00928-2.25-2.25s1.00977-2.25,2.25-2.25,2.25,1.00928,2.25,2.25-1.00977,2.25-2.25,2.25Z" fill="var(--iconPrimary, #222)"/>
</svg>