<?xml version="1.0" encoding="UTF-8"?>
<svg id="f" data-name="ICONS" xmlns="http://www.w3.org/2000/svg" width="20" height="20" viewBox="0 0 20 20">
  <path d="M12.75,5.27148h-2.02319c-.34064-1.43018-1.62128-2.5-3.15405-2.5s-2.81342,1.06982-3.15405,2.5H1.75c-.41406,0-.75.33594-.75.75s.33594.75.75.75h2.6687c.34064,1.43018,1.62128,2.5,3.15405,2.5s2.81342-1.06982,3.15405-2.5h2.02319c.41406,0,.75-.33594.75-.75s-.33594-.75-.75-.75ZM7.57275,7.77148c-.96484,0-1.75-.78516-1.75-1.75s.78516-1.75,1.75-1.75,1.75.78516,1.75,1.75-.78516,1.75-1.75,1.75Z" fill="var(--iconPrimary, #222)"/>
  <path d="M18.25,13.27148h-2.52319c-.34064-1.43018-1.62128-2.5-3.15405-2.5s-2.81342,1.06982-3.15405,2.5H1.75c-.41406,0-.75.33594-.75.75s.33594.75.75.75h7.6687c.34064,1.43018,1.62128,2.5,3.15405,2.5s2.81342-1.06982,3.15405-2.5h2.52319c.41406,0,.75-.33594.75-.75s-.33594-.75-.75-.75ZM12.57275,15.77148c-.96484,0-1.75-.78516-1.75-1.75s.78516-1.75,1.75-1.75,1.75.78516,1.75,1.75-.78516,1.75-1.75,1.75Z" fill="var(--iconPrimary, #222)"/>
  <circle id="g" data-name="Ellipse 32" cx="17" cy="3" r="3" fill="var(--iconOrangePrimary, #e86a00)"/>
</svg>