<?xml version="1.0" encoding="UTF-8"?>
<svg   xmlns="http://www.w3.org/2000/svg" width="20" height="20" viewBox="0 0 20 20">
  <path d="M8.61151,7.05746c-.2807-.1091-.58051-.16043-.88147-.15091-.19318,0-.36426.00201-.51318.00601-.14905.00415-.25165.01019-.30792.01813v2.5166c.10455.00812.20117.01215.28979.01208h.3985c.29315-.00098.58441-.04749.86334-.13785.23926-.07104.453-.20935.61584-.39847.15698-.18509.23547-.44269.23547-.7728.00635-.23358-.05444-.46408-.17511-.66412-.12689-.19345-.3103-.34314-.52527-.42868Z" fill="var(--iconPrimary, #222)"/>
  <path d="M15.8125,1H4.1875c-1.76038,0-3.1875,1.42709-3.1875,3.1875v11.125c0,1.76041,1.42712,3.1875,3.1875,3.1875h11.625c1.76038,0,3.1875-1.42709,3.1875-3.1875V4.1875c0-1.76041-1.42712-3.1875-3.1875-3.1875ZM10.50732,9.70795c-.2998.4202-.72131.73837-1.20752.91165-.5072.18924-1.07074.25342-1.69049.25342-.17719,0-.30194-.00201-.37433-.00604-.07245-.00397-.18115-.00598-.32605-.00604v2.40915c.00757.05252-.02899.10117-.08154.10867-.00897.00128-.01813.00128-.0271,0h-1.43762c-.0564,0-.08453-.0321-.08453-.09662v-7.71591c0-.05624.02417-.08453.07245-.08453.12866,0,.24609-.00189.42334-.00604.17694-.00397.36816-.00797.57349-.01205.20532-.004.42273-.00803.6521-.01208.22937-.00397.45679-.00598.68225-.00604.61169,0,1.12683.07648,1.54553.22943.37775.12775.72217.33813,1.0083.61581.24255.24069.43005.53113.54944.85129.11292.31158.17017.64062.16907.97205,0,.6441-.14893,1.17542-.44678,1.5939ZM15.61249,7.34375v1.46109c0,.0564-.04022.08459-.12073.08453-.27301-.01038-.5462.01517-.81256.07596-.216.04294-.42664.10974-.62787.19925-.14612.0654-.27734.15988-.38568.27771v3.82779c0,.07245-.03223.10867-.09662.10867h-1.47992c-.05835.00836-.11237-.03214-.12073-.09045-.00146-.01004-.00146-.02026,0-.0303v-4.15381c0-.17697-.00201-.36414-.00604-.56149-.00415-.19714-.01019-.39236-.01813-.58563-.0011-.17065-.01208-.34109-.03284-.51047-.00964-.03711.0127-.07495.0498-.08456.01135-.00293.02332-.00293.03467,0h1.31616c.07349.00064.13757.04996.15698.12076.02246.05942.0376.12137.04498.18448.01685.07767.02899.15631.03619.23547.00793.0845.01196.17508.01208.27167.22571-.26282.49792-.48181.80298-.646.34869-.19241.74036-.2933,1.13861-.29333.05255-.00748.10114.02899.1087.08151.00122.009.00122.01816-.00006.02716Z" fill="var(--iconPrimary, #222)"/>
</svg>