<?xml version="1.0" encoding="UTF-8"?>
<svg xmlns="http://www.w3.org/2000/svg" width="20" height="20" viewBox="0 0 20 20">
  <path d="M8.38651,7.08249c-.28067-.1091-.58047-.16046-.88147-.15094-.19321,0-.36426.00201-.51315.00601-.14905.00418-.25171.01019-.30792.01813v2.5166c.10452.00812.20111.01215.28979.01208h.39847c.29318-.00098.58444-.04749.86337-.13782.23923-.07108.45297-.20938.61581-.3985.15695-.18506.23544-.44266.23547-.7728.00638-.23358-.05441-.46405-.17511-.66412-.12689-.19345-.3103-.34314-.52527-.42865Z" fill="var(--iconPrimary, #222)"/>
  <path d="M15.81401,1H4.1945c-1.75957,0-3.18599,1.42649-3.18599,3.18615l-.00851,11.1277c0,1.75966,1.42642,3.18615,3.18599,3.18615h11.6195c1.75957,0,3.18599-1.42649,3.18599-3.18615l.00851-11.1277c0-1.75966-1.42642-3.18615-3.18599-3.18615ZM10.28232,9.68295c-.29984.4202-.72125.73837-1.20752.91165-.50717.18924-1.07071.25342-1.69049.25342-.17719,0-.30194-.00201-.37433-.00604-.07245-.00397-.18112-.00598-.32602-.00604v2.40915c.00751.05252-.02899.10117-.08154.10867-.009.00128-.01813.00128-.02713,0h-1.43765c-.0564,0-.0845-.03207-.0845-.09662v-7.71591c0-.05624.02417-.08453.07248-.08453.12863,0,.24609-.00189.42328-.00604.177-.00394.36816-.00797.57355-.01205.20532-.00397.42267-.008.6521-.01208.22937-.00397.45679-.00598.68219-.00604.61169,0,1.12689.07648,1.54559.22943.37772.12775.72217.33813,1.0083.61581.24255.24069.42999.53113.54938.85129.11298.31158.17023.64062.1691.97205,0,.64413-.14893,1.17542-.44678,1.5939ZM15.57898,12.60535c-.20975.29919-.50107.5318-.83926.67014-.36639.16095-.81918.24146-1.35843.24152-.34253.00348-.68451-.0289-1.02032-.09659-.26459-.04852-.52216-.12964-.76678-.24152-.05389-.02783-.08682-.08429-.0845-.1449v-1.30411c-.00296-.026.00864-.05154.03021-.06641.02121-.01199.04767-.00961.06638.00604.28891.17035.6026.29459.92978.36829.28839.07227.5842.11078.88147.11472.28171,0,.48898-.03622.62186-.10867.12259-.05612.20068-.17914.19928-.31396-.00003-.10452-.06039-.20514-.18115-.30185-.12073-.09662-.36627-.21335-.73657-.35019-.37915-.13199-.73865-.31476-1.06866-.54337-.23602-.16415-.43036-.38126-.5675-.63397-.11874-.23792-.17877-.50085-.17508-.76675-.00067-.31949.0871-.63293.25357-.90561.18982-.30029.46237-.53931.78488-.68826.35413-.17697.79688-.26553,1.32825-.26566.31122-.0025.6221.01968.92978.06641.22281.02826.44064.08719.64731.17508.03323.00955.06006.03415.07245.06641.00815.02951.01221.05997.01208.09058v1.21957c.00168.02887-.01212.05649-.03622.07245-.03275.0163-.0712.0163-.10394,0-.22693-.11661-.46863-.2019-.71848-.25357-.27527-.06317-.55673-.09558-.8392-.09662-.15277-.00412-.30533.01419-.45282.05435-.09384.0209-.17728.07437-.23547.15094-.03934.06125-.0603.13248-.06033.20526.0022.07065.02765.13855.07242.19321.07056.08252.15674.15021.25357.19925.17218.09271.34958.17535.53131.24753.40524.13565.79248.32016,1.15317.54941.2457.15506.44901.36877.59167.62186.11996.23969.18005.50485.17508.77283.00723.35382-.09387.70142-.28976.99619Z" fill="var(--iconPrimary, #222)"/>
</svg>