<?xml version="1.0" encoding="UTF-8"?>
<svg   xmlns="http://www.w3.org/2000/svg" width="20" height="20" viewBox="0 0 20 20">
  <path d="M15,10.5c-2.4853,0-4.5,2.0149-4.5,4.5,0,2.4853,2.0147,4.5,4.5,4.5s4.5-2.0147,4.5-4.5c0-2.4851-2.0147-4.5-4.5-4.5ZM17.3579,14.0005l-2.5976,3.1592c-.1168.1425-.2901.2255-.4737.2285h-.0093c-.1801,0-.352-.0781-.4707-.2139l-1.1523-1.3203c-.2271-.2598-.2002-.6553.0596-.8818.2612-.2276.6552-.2002.8818.0595l.6675.7647,2.1289-2.5889c.2183-.2666.6133-.3057.8799-.0859.2666.2187.3052.6123.0859.8789Z" fill="var(--iconPrimary, #222)" stroke-width="0"/>
  <path d="M18.7793,1.21875c-.21143-.21094-.52832-.27539-.80469-.16602L1.47461,7.56152c-.26953.10547-.45361.3584-.47314.64746-.01904.28906.12988.56348.38281.7041l6.25378,3.49402.43079.75989c.13818.24316.3916.37988.65283.37988.12549,0,.25244-.03125.36963-.09766.35986-.2041.48682-.66211.28223-1.02246l-.25269-.4458,7.12915-7.16797-1.32129,3.38721c-.1499.38574.04199.82031.42822.96973.38428.14551.82031-.04199.97021-.42871l2.62158-6.71875c.1084-.27734.04199-.59375-.16943-.80371ZM15.16986,3.77124l-7.11359,7.15222-4.5592-2.54749L15.16986,3.77124Z" fill="var(--iconPrimary, #222)" stroke-width="0"/>
</svg>