<?xml version="1.0" encoding="UTF-8"?>
<svg xmlns="http://www.w3.org/2000/svg" width="20" height="20" viewBox="0 0 20 20">
  <path d="M6.75,18h-2.5c-1.24023,0-2.25-1.00977-2.25-2.25v-2.5c0-1.24023,1.00977-2.25,2.25-2.25h2.5c1.24023,0,2.25,1.00977,2.25,2.25v2.5c0,1.24023-1.00977,2.25-2.25,2.25ZM4.25,12.5c-.41309,0-.75.33691-.75.75v2.5c0,.41309.33691.75.75.75h2.5c.41309,0,.75-.33691.75-.75v-2.5c0-.41309-.33691-.75-.75-.75h-2.5Z" fill="var(--iconPrimary, #292929)"/>
  <path d="M6.75,9h-2.5c-1.24023,0-2.25-1.00977-2.25-2.25v-2.5c0-1.24023,1.00977-2.25,2.25-2.25h2.5c1.24023,0,2.25,1.00977,2.25,2.25v2.5c0,1.24023-1.00977,2.25-2.25,2.25ZM4.25,3.5c-.41309,0-.75.33691-.75.75v2.5c0,.41309.33691.75.75.75h2.5c.41309,0,.75-.33691.75-.75v-2.5c0-.41309-.33691-.75-.75-.75h-2.5Z" fill="var(--iconPrimary, #292929)"/>
  <path d="M15.75,9h-2.5c-1.24023,0-2.25-1.00977-2.25-2.25v-2.5c0-1.24023,1.00977-2.25,2.25-2.25h2.5c1.24023,0,2.25,1.00977,2.25,2.25v2.5c0,1.24023-1.00977,2.25-2.25,2.25ZM13.25,3.5c-.41309,0-.75.33691-.75.75v2.5c0,.41309.33691.75.75.75h2.5c.41309,0,.75-.33691.75-.75v-2.5c0-.41309-.33691-.75-.75-.75h-2.5Z" fill="var(--iconPrimary, #292929)"/>
  <rect x="4.75" y="4.75" width="1.5" height="1.5" fill="var(--iconPrimary, #292929)"/>
  <rect x="13.75" y="4.75" width="1.5" height="1.5" fill="var(--iconPrimary, #292929)"/>
  <rect x="4.75" y="13.75" width="1.5" height="1.5" fill="var(--iconPrimary, #292929)"/>
  <rect x="14" y="14" width="1" height="1" fill="var(--iconPrimary, #292929)"/>
  <rect x="12" y="12" width="2" height="2" fill="var(--iconPrimary, #292929)"/>
  <rect x="16" y="12" width="1" height="1" fill="var(--iconPrimary, #292929)"/>
  <rect x="12" y="16" width="1" height="1" fill="var(--iconPrimary, #292929)"/>
  <rect x="15" y="15" width="2" height="2" fill="var(--iconPrimary, #292929)"/>
</svg>