<?xml version="1.0" encoding="UTF-8"?>
<svg id="e" data-name="ICONS" xmlns="http://www.w3.org/2000/svg" width="20" height="20" viewBox="0 0 20 20">
  <path d="M13.24902,18h-6.5c-2.61914,0-4.75-2.13086-4.75-4.75v-6.5c0-2.61914,2.13086-4.75,4.75-4.75h6.5c2.61914,0,4.75,2.13086,4.75,4.75v6.5c0,2.61914-2.13086,4.75-4.75,4.75ZM6.74902,3.5c-1.79199,0-3.25,1.45801-3.25,3.25v6.5c0,1.79199,1.45801,3.25,3.25,3.25h6.5c1.79199,0,3.25-1.45801,3.25-3.25v-6.5c0-1.79199-1.45801-3.25-3.25-3.25h-6.5Z" fill="var(--iconPrimary, #222)"/>
</svg>