<?xml version="1.0" encoding="UTF-8"?>
<svg id="e" data-name="ICONS" xmlns="http://www.w3.org/2000/svg" width="20" height="20" viewBox="0 0 20 20">
  <polygon points="5.5 5.5 5.5 2.5 2.5 2.5 2.5 8.5 8.5 8.5 8.5 5.5 5.5 5.5" fill="var(--iconPrimary, #222)"/>
  <polygon points="14.5 5.5 17.5 5.5 17.5 2.5 8.5 2.5 8.5 5.5 11.5 5.5 11.5 8.5 8.5 8.5 8.5 11.5 14.5 11.5 14.5 5.5" fill="var(--iconPrimary, #222)"/>
  <polygon points="8.5 14.5 8.5 11.5 5.5 11.5 5.5 14.5 2.5 14.5 2.5 17.5 14.5 17.5 14.5 14.5 8.5 14.5" fill="var(--iconPrimary, #222)"/>
  <rect x="14.5" y="11.5" width="3" height="3" fill="var(--iconPrimary, #222)"/>
</svg>