<?xml version="1.0" encoding="UTF-8"?>
<svg id="e" data-name="ICONS" xmlns="http://www.w3.org/2000/svg" width="20" height="20" viewBox="0 0 20 20">
  <path d="M4,8.5h3c.82837,0,1.5-.67163,1.5-1.5s-.67163-1.5-1.5-1.5h-1.5v-1.5c0-.82837-.67163-1.5-1.5-1.5s-1.5.67163-1.5,1.5v3c0,.82837.67163,1.5,1.5,1.5Z" fill="var(--iconPrimary, #222)"/>
  <path d="M13,14.5h-4.5v-1.5c0-.82837-.67163-1.5-1.5-1.5s-1.5.67163-1.5,1.5v1.5h-1.5c-.82837,0-1.5.67163-1.5,1.5s.67163,1.5,1.5,1.5h9c.82837,0,1.5-.67163,1.5-1.5s-.67163-1.5-1.5-1.5Z" fill="var(--iconPrimary, #222)"/>
  <circle cx="16" cy="13" r="1.5" fill="var(--iconPrimary, #222)"/>
  <path d="M10,5.5h1.5v3h-1.5c-.82837,0-1.5.67163-1.5,1.5s.67163,1.5,1.5,1.5h3c.82837,0,1.5-.67163,1.5-1.5v-4.5h1.5c.82837,0,1.5-.67163,1.5-1.5s-.67163-1.5-1.5-1.5h-6c-.82837,0-1.5.67163-1.5,1.5s.67163,1.5,1.5,1.5Z" fill="var(--iconPrimary, #222)"/>
</svg>