<?xml version="1.0" encoding="UTF-8"?>
<svg id="f" data-name="ICONS" xmlns="http://www.w3.org/2000/svg" width="20" height="20" viewBox="0 0 20 20">
  <path d="M9.75,19c-.01611,0-.03223-.00098-.04834-.00195-.27979-.01758-.52637-.19043-.63867-.44727l-1.11621-2.55078h-3.69678c-1.24072,0-2.25-1.00977-2.25-2.25V4.25c0-1.24023,1.00928-2.25,2.25-2.25h11.5c1.24072,0,2.25,1.00977,2.25,2.25v9.5c0,1.24023-1.00928,2.25-2.25,2.25h-3.77246l-1.58496,2.63672c-.13574.22656-.38037.36328-.64258.36328ZM4.25,3.5c-.41357,0-.75.33691-.75.75v9.5c0,.41309.33643.75.75.75h4.1875c.29785,0,.56787.17676.68701.44922l.73047,1.66992,1.05566-1.75586c.13525-.22559.37939-.36328.64258-.36328h4.19678c.41357,0,.75-.33691.75-.75V4.25c0-.41309-.33643-.75-.75-.75H4.25Z" fill="var(--iconPrimary, #222)"/>
  <path d="M10.17412,13.02723c-.16867.00595-.33302-.05402-.45823-.16719-.24157-.26696-.24157-.67353,0-.94049.12384-.11591.28873-.17776.45825-.17188.17284-.00693.3407.05876.46292.18117.11852.12278.18221.28836.17651.45892.00905.17183-.05089.34016-.16652.46758-.12694.12048-.29826.18274-.47293.17187Z" fill="var(--iconPrimary, #222)"/>
  <path d="M10.17676,11.16602c-.41406,0-.75-.33594-.75-.75,0-.77637.05713-1.34277.81934-2.10449.55957-.55957.6123-.73633.6123-1.06543,0-.21582-.07812-.71777-.80322-.71777-.79834,0-.90234.63281-.91504.82715-.02734.41309-.38623.71094-.79834.69824-.41309-.02734-.72607-.38477-.69873-.79785.07129-1.07227.85645-2.22754,2.41211-2.22754,1.51221,0,2.30322,1.11523,2.30322,2.21777,0,.90332-.36963,1.44434-1.05176,2.12598-.36963.36914-.37988.47461-.37988,1.04395,0,.41406-.33594.75-.75.75Z" fill="var(--iconPrimary, #222)"/>
</svg>