<?xml version="1.0" encoding="UTF-8"?>
<svg xmlns="http://www.w3.org/2000/svg" width="20" height="20" viewBox="0 0 20 20">
  <path d="M2.19531,18.27539c-.44757-.27171-.71094-.75195-.71094-1.27539V3c0-.52344.26562-1,.71094-1.27539.4458-.27539.99121-.29883,1.45947-.06641h.00049l14,7c.51123.25586.82959.76953.82959,1.3418s-.31836,1.08594-.83008,1.3418l-13.99951,7c-.47239.23656-1.01291.20499-1.45996-.06641Z" fill="#fff"/>
  <path d="M3.23492,3.1543c-.13123,0-.25018.10522-.25018.25024v13.19092c0,.14478.11896.25024.25018.25024.03705,0,.07501-.0083.11163-.02661l13.19098-6.59546c.18427-.09204.18427-.35522,0-.44727L3.34656,3.18091c-.03656-.01831-.07458-.02661-.11163-.02661h0Z" fill="var(--iconBluePrimary, #0063e4)"/>
</svg>