<?xml version="1.0" encoding="UTF-8"?>
<svg xmlns="http://www.w3.org/2000/svg" width="20" height="20" viewBox="0 0 20 20">
  <path d="M5.43848,18.43848c-.33301,0-.66602-.10449-.95117-.3125-.5498-.39941-.78906-1.08105-.61035-1.73633l.31543-1.15234c.5127-1.87402-.13574-3.87012-1.65234-5.08594l-.93164-.74707c-.53027-.42383-.7373-1.11621-.52832-1.76172.20996-.64746.78418-1.08594,1.46289-1.11816l1.19434-.05664c1.94043-.0918,3.63867-1.3252,4.32617-3.14258l.42285-1.11816c.24023-.63574.83398-1.0459,1.51367-1.0459s1.27344.41016,1.51367,1.0459l.42285,1.11719c.6875,1.81836,2.38574,3.05176,4.32617,3.14355l1.19336.05664c.67969.03223,1.25391.4707,1.46387,1.11816.20898.64551.00195,1.33789-.52832,1.7627l-.93164.74609c-1.51562,1.21484-2.16504,3.21191-1.65332,5.08691l.31543,1.15039c.17871.6582-.06152,1.34082-.61328,1.73926-.55078.39746-1.27344.41309-1.84277.03906l-.96973-.64355c-1.62598-1.07715-3.73145-1.08398-5.36328-.0127l-1.00586.65918c-.27246.17969-.58105.26855-.88867.26855ZM10,2.66113c-.08203,0-.10254.05371-.11133.07715l-.42285,1.11719c-.89844,2.37695-3.11914,3.99121-5.6582,4.11035l-1.19336.05664c-.02441.00098-.08203.00391-.10742.08203s.01953.11426.03906.12891l.93164.74805c1.9834,1.58887,2.83203,4.2002,2.16211,6.65234l-.31543,1.15234c-.00684.02344-.02148.07812.04492.12695.06445.04883.11426.0166.13574.00293l1.00586-.65918c2.13379-1.39941,4.8877-1.39355,7.01367.0166l.96973.64258c.02051.0127.06738.04297.13574-.00293.06641-.04883.05176-.10547.04492-.12891l-.31543-1.15039c-.66895-2.45312.17969-5.06445,2.16309-6.65234l.93164-.74707c.01953-.01562.06445-.05176.03906-.12988s-.08301-.08105-.1084-.08203l-1.19238-.05664c-2.53906-.11914-4.75977-1.7334-5.6582-4.11133l-.42285-1.11621c-.00879-.02344-.0293-.07715-.11133-.07715Z" fill="var(--iconPrimary, #222)"/>
</svg>