<?xml version="1.0" encoding="UTF-8"?>
<svg xmlns="http://www.w3.org/2000/svg" width="20" height="20" viewBox="0 0 20 20">
  <path d="M6.39258,18.49414c-.60645,0-1.20996-.19043-1.73047-.56836-.99805-.72559-1.43359-1.96484-1.10742-3.15625l.37891-1.38477c.15137-.55469-.04102-1.14648-.49023-1.50684l-1.11816-.89648c-.96484-.77246-1.34082-2.03125-.95898-3.20605s1.42578-1.97168,2.66016-2.0293l1.43164-.06836c.57617-.02734,1.0791-.39258,1.28125-.93066l.50879-1.34277c.43652-1.15527,1.5166-1.90137,2.75195-1.90137s2.31543.74609,2.75195,1.90234l.50781,1.34082c.20312.53906.70605.9043,1.28125.93164l1.43359.06836c1.2334.05762,2.27734.85449,2.65918,2.0293s.00586,2.43359-.95898,3.20605l-1.85742,1.48926.62207,2.2793c.32617,1.19434-.11133,2.43457-1.11523,3.16016s-2.31738.75195-3.34863.06836l-1.15918-.76855c-.4834-.31934-1.10742-.32031-1.58887-.00391l-1.2207.80078c-.49512.3252-1.05566.4873-1.61426.4873ZM10,3.00293c-.48242,0-1.08984.24512-1.34961.93164l-.50781,1.34277c-.41406,1.09766-1.43945,1.84375-2.61328,1.89844l-1.43164.06836c-.73535.03418-1.15625.53613-1.30469.99512-.14941.45801-.10449,1.1123.46973,1.57227l1.11914.89648c.91602.73438,1.30762,1.94043.99902,3.07227l-.37891,1.38574c-.19434.70801.15332,1.26367.54297,1.54688s1.02539.44141,1.63965.04004l1.2207-.80078c.9834-.64551,2.25586-.64453,3.23926.00781l1.15918.76855c.61621.40625,1.25098.24805,1.6416-.03418.3916-.2832.74121-.83887.54688-1.5498l-.6582-2.41113c-.13574-.49805.03711-1.02734.43945-1.34766l1.96387-1.57422c.57422-.45996.61914-1.11426.46973-1.57227-.14844-.45898-.56934-.96094-1.30371-.99512l-1.43359-.06836c-1.17285-.05469-2.19824-.80078-2.61328-1.89941l-.50684-1.3418c-.25977-.68652-.86719-.93164-1.34961-.93164ZM15.71094,12.55664h-.00098.00098Z" fill="var(--iconPrimary, #222)"/>
</svg>