<?xml version="1.0" encoding="UTF-8"?>
<svg xmlns="http://www.w3.org/2000/svg" width="22" height="22" viewBox="0 0 22 22">
  <circle cx="11" cy="11" r="10" fill="#fff"/>
  <path d="M11,21.75C5.07227,21.75.25,16.92773.25,11S5.07227.25,11,.25s10.75,4.82227,10.75,10.75-4.82227,10.75-10.75,10.75ZM11,1.75C5.89941,1.75,1.75,5.89941,1.75,11s4.14941,9.25,9.25,9.25,9.25-4.14941,9.25-9.25S16.10059,1.75,11,1.75Z" fill="var(--iconBluePrimary, #0063e4)"/>
  <path d="M11,16.41699c-.14502,0-.29004-.04199-.41602-.12598l-3.5-2.33398c-.34473-.22949-.43799-.69531-.20801-1.04004.22949-.3457.69629-.43652,1.04004-.20801l3.08398,2.05664,3.08398-2.05664c.34424-.22949.80957-.1377,1.04004.20801.22998.34473.13672.81055-.20801,1.04004l-3.5,2.33398c-.12598.08398-.271.12598-.41602.12598Z" fill="var(--iconBluePrimary, #0063e4)"/>
  <path d="M14.49951,9.41699c-.14307,0-.2876-.04102-.41553-.12598l-3.08398-2.05664-3.08398,2.05664c-.34473.22852-.81055.13672-1.04004-.20801-.22998-.34473-.13672-.81055.20801-1.04004l3.5-2.33398c.25195-.16797.58008-.16797.83203,0l3.5,2.33398c.34473.22949.43799.69531.20801,1.04004-.14453.2168-.38232.33398-.62451.33398Z" fill="var(--iconBluePrimary, #0063e4)"/>
</svg>