<?xml version="1.0" encoding="UTF-8"?>
<svg xmlns="http://www.w3.org/2000/svg" width="20" height="20" viewBox="0 0 20 20">
  <path d="M5.52832,18.43164c-.36035,0-.71973-.1123-1.02832-.33691-.59375-.43164-.85352-1.16797-.66016-1.87695l.97852-3.57715c.0791-.28809-.02148-.5957-.25488-.7832l-2.89258-2.31836c-.57324-.45898-.79688-1.20703-.57031-1.90625.22656-.69824.84766-1.17188,1.58105-1.20703l3.7041-.1748c.29883-.01465.55957-.2041.66504-.48438l1.3125-3.46875c.25977-.68652.90234-1.13086,1.63672-1.13086s1.37695.44434,1.63672,1.13086l1.31152,3.46777c.10645.28125.36719.4707.66602.48535l3.70312.1748c.73438.03516,1.35547.50879,1.58203,1.20703.22656.69922.00293,1.44727-.57031,1.90625l-2.89258,2.31836c-.2334.1875-.33398.49512-.25488.78418l.97656,3.57422c.19434.70996-.06641,1.44824-.66309,1.87891-.59863.43164-1.37988.44531-1.99219.04004l-3.07129-2.03516c-.25195-.16602-.57617-.16602-.82617-.00195l-3.11719,2.04492c-.29492.19336-.62793.28906-.95996.28906ZM10,2.66699c-.0791,0-.18359.02832-.23438.16211l-1.31152,3.46777c-.31641.83887-1.10059,1.41016-1.99805,1.45215l-3.70312.1748c-.14258.00684-.20117.09766-.22559.17285s-.03027.18262.08105.27246l2.89258,2.31836c.7002.56055,1.00098,1.48242.76465,2.34863l-.97852,3.57715c-.03809.13672.03027.22168.09473.26855.06348.04492.16309.08496.28418.00684l3.11719-2.04492c.75293-.49512,1.72656-.49219,2.47754.00586l3.07129,2.03516c.11816.0791.2207.04004.28418-.00586.06445-.0459.13281-.12988.09473-.26855l-.97656-3.57422c-.23633-.86621.06445-1.78809.76465-2.34863l2.89258-2.31836c.11133-.08984.10547-.19727.08105-.27246s-.08301-.16602-.22656-.17285l-3.70215-.1748c-.89746-.04199-1.68164-.61328-1.99902-1.45312l-1.31055-3.4668c-.05078-.13379-.15527-.16211-.23438-.16211Z" fill="var(--iconPrimary, #222)" opacity=".35"/>
  <path d="M11.29199,4.38184c-.35352,0-.68652-.21582-.81836-.56543l-.35645-.94336c-.00977-.02637-.03027-.08008-.11719-.08008s-.10742.05371-.11719.08008l-.35645.94336c-.16992.45117-.67188.68164-1.12793.50879-.45215-.1709-.67969-.67578-.50879-1.12793l.35645-.94336c.27832-.73633.9668-1.21094,1.75391-1.21094s1.47559.47461,1.75391,1.21094l.35645.94336c.1709.45215-.05664.95703-.50879,1.12793-.10254.03906-.20703.05664-.30957.05664Z" fill="var(--iconPrimary, #222)"/>
  <path d="M17.07227,10.46191c-.25684,0-.51074-.1123-.68359-.32715-.30273-.37695-.24219-.92773.13477-1.23047l.78906-.63281c.02246-.01758.06836-.05469.04102-.13672-.02637-.08203-.08496-.08496-.11328-.08594l-1.00391-.04785c-.48242-.02344-.85547-.43262-.83203-.91602.02246-.48242.42188-.875.91602-.83203l1.00391.04785c.78613.03711,1.45117.54492,1.69434,1.29395.24316.74805.00293,1.5498-.61133,2.04199l-.78809.63281c-.16211.12988-.35547.19238-.54688.19238Z" fill="var(--iconPrimary, #222)"/>
  <path d="M2.92773,10.46191c-.19141,0-.38477-.0625-.54688-.19238l-.78906-.63281c-.61328-.49219-.85352-1.29395-.61035-2.04199.24316-.74902.9082-1.25684,1.69434-1.29395l1.00391-.04785c.4668-.04688.89258.34863.91602.83203s-.34961.89258-.83203.91602l-1.00391.04785c-.02832.00098-.08691.00391-.11328.08594-.02734.08203.01855.11914.04004.13672l.79004.63281c.37695.30273.4375.85352.13477,1.23047-.17285.21484-.42676.32715-.68359.32715Z" fill="var(--iconPrimary, #222)"/>
  <path d="M14.47168,18.55469c-.35938,0-.71973-.10449-1.03711-.31543l-.83496-.55273c-.40234-.2666-.5127-.80957-.24609-1.21289.26562-.40234.80762-.51367,1.21289-.24609l.83496.55273c.02246.01562.07324.04688.1416-.00195.07031-.05078.05469-.10742.04785-.13477l-.26562-.97461c-.12793-.4668.14746-.94727.61328-1.07422.46582-.12988.94824.14746,1.07422.61328l.26562.97461c.20801.76172-.07031,1.55176-.70996,2.01367-.33008.23828-.71387.3584-1.09668.3584Z" fill="var(--iconPrimary, #222)"/>
  <path d="M5.52832,18.55762c-.38574,0-.77148-.12109-1.10156-.36133-.63672-.46289-.91406-1.25195-.70703-2.01172l.26758-.97754c.12793-.4668.61621-.73828,1.0752-.6123.46582.12793.74023.60938.6123,1.0752l-.26758.97656c-.00684.02637-.02246.08301.04785.13379.07129.05176.12012.01855.14258.00391l.87207-.57324c.4043-.2666.94629-.15234,1.21191.25098.26562.4043.15234.94629-.25098,1.21191l-.87305.57324c-.31641.20703-.67383.31055-1.0293.31055Z" fill="var(--iconPrimary, #222)"/>
  
</svg>