<?xml version="1.0" encoding="UTF-8"?>
<svg xmlns="http://www.w3.org/2000/svg" width="12" height="22" viewBox="0 0 12 22">
  <path d="M11.25,1.25C5.86512,1.25,1.5,5.61536,1.5,11s4.36512,9.75,9.75,9.75V1.25Z" fill="#fff"/>
  <path d="M10.23682,21.83984c-.06348,0-.12744-.00293-.19141-.01074C4.52051,21.2207.35498,16.56445.35498,11S4.52051.7793,10.04492.1709c.49805-.06445.99805.10449,1.37109.44043.37109.33203.58398.80762.58398,1.30469v18.16797c0,.49707-.21289.97266-.58398,1.30469-.3252.29199-.74658.45117-1.1792.45117ZM10.23877,1.66016c-.00977,0-.01953,0-.03027.00098C5.44629,2.18652,1.85498,6.20117,1.85498,11s3.59131,8.81348,8.354,9.33887c.10254.01074.17285-.03711.20605-.06641.03174-.0293.08496-.09082.08496-.18848V1.91602c0-.09766-.05322-.15918-.08496-.18848-.02979-.02637-.08984-.06738-.17627-.06738Z" fill="var(--iconBluePrimary, #0063e4)"/>
  <path d="M7.50049,14.75c-.24219,0-.47998-.11719-.62451-.33398l-2-3c-.16797-.25195-.16797-.58008,0-.83203l2-3c.22949-.34473.69629-.43652,1.04004-.20801.34473.22949.43799.69531.20801,1.04004l-1.72266,2.58398,1.72266,2.58398c.22998.34473.13672.81055-.20801,1.04004-.12793.08496-.27246.12598-.41553.12598Z" fill="var(--iconBluePrimary, #0063e4)"/>
</svg>