<?xml version="1.0" encoding="UTF-8"?>
<svg xmlns="http://www.w3.org/2000/svg" width="20" height="20" viewBox="0 0 20 20">
  <path d="M6.25879,18.23633c-.51074,0-1.01953-.16016-1.45703-.47852-.8418-.61133-1.20801-1.6543-.93359-2.6582l.75195-2.74707-2.22266-1.78125c-.81152-.65039-1.12891-1.70996-.80664-2.7002.32129-.98926,1.20117-1.66016,2.24023-1.70898l2.84375-.13477,1.00781-2.66406c.36719-.97266,1.27734-1.60156,2.31738-1.60156s1.9502.62891,2.31738,1.60156l1.00781,2.66406,2.84375.13477c1.03906.04883,1.91895.71973,2.24023,1.70898.32227.99023.00488,2.0498-.80664,2.7002l-2.22266,1.78125.74707,2.73438c.27441,1.00488-.09375,2.0498-.93848,2.66016-.84473.61133-1.95117.63281-2.82031.05762l-2.34668-1.55469-2.40332,1.57617c-.41699.27344-.88867.41016-1.35938.41016ZM10,3.26172c-.1582,0-.69336.0459-.91504.63184l-1.06738,2.82227c-.1748.46191-.60742.77734-1.10254.80176l-3.01367.14258c-.62695.0293-.83496.52441-.88477.6748-.04883.15137-.1709.67383.31836,1.06641l2.35352,1.88574c.38672.30762.55371.81738.42285,1.29688l-.7959,2.91211c-.16602.60449.24023.95605.36816,1.04883s.58789.37012,1.1123.02734l2.54395-1.66895c.41602-.27246.95312-.27246,1.36719.00195l2.48926,1.64941c.52441.3457.9834.07031,1.11328-.02246.12891-.09277.53613-.44434.37012-1.0498l-.79102-2.89746c-.12988-.47852.03613-.9873.42188-1.29785l2.35449-1.88574c.48926-.39258.36719-.91504.31836-1.06641-.0498-.15039-.25781-.64551-.88477-.6748l-3.01172-.14258c-.49707-.02441-.92969-.33984-1.10449-.80273l-1.06738-2.82129c-.22168-.58594-.75684-.63184-.91504-.63184Z" fill="var(--iconPrimary, #222)"/>
</svg>