<?xml version="1.0" encoding="UTF-8"?>
<svg xmlns="http://www.w3.org/2000/svg" width="20" height="20" viewBox="0 0 20 20">
  <path d="M5.52734,18.63184c-.35938,0-.71875-.1123-1.02734-.33691-.59375-.43164-.85352-1.16797-.66016-1.87695l.97852-3.57715c.0791-.28809-.02148-.5957-.25488-.7832l-2.89258-2.31836c-.57324-.45898-.79688-1.20703-.57031-1.90625.22656-.69824.84766-1.17188,1.58105-1.20703l3.7041-.17578c.29883-.01465.56055-.2041.66504-.4834l1.3125-3.46875c.25977-.68652.90234-1.13086,1.63672-1.13086s1.37695.44434,1.63672,1.13086l1.31152,3.46777c.10547.28027.36719.46973.66602.48438l3.70312.17578c.73438.03516,1.35547.50879,1.58203,1.20703.22656.69922.00293,1.44727-.57031,1.90625l-2.89258,2.31836c-.2334.1875-.33398.49512-.25488.7832l.97656,3.5752c.19336.70996-.06641,1.44727-.66211,1.87793-.59668.43359-1.37891.44727-1.99219.04102l-3.07227-2.03516c-.25195-.16602-.57617-.16602-.82617-.00195l-3.11719,2.04395c-.29492.19336-.62793.29004-.96094.29004ZM10,2.86719c-.0791,0-.18359.02832-.23438.16211l-1.31152,3.46777c-.31641.83887-1.10059,1.40918-1.99805,1.45117l-3.70312.17578c-.14258.00684-.20117.09766-.22559.17285s-.03027.18262.08105.27246l2.89258,2.31836c.7002.56055,1.00098,1.48242.76465,2.34863l-.97852,3.57715c-.03809.13672.03027.22168.09473.26758.06445.04785.16504.08496.28418.00684l3.11719-2.04395c.75293-.49512,1.72656-.49219,2.47754.00586l3.07129,2.03516c.11914.0791.21973.03906.28418-.00586.06445-.0459.13281-.12988.09473-.26855l-.97656-3.5752c-.23633-.86523.06445-1.78711.76465-2.34766l2.89258-2.31836c.11133-.08984.10547-.19727.08105-.27246s-.08301-.16602-.22656-.17285l-3.70215-.17578c-.89746-.04199-1.68164-.6123-1.99902-1.45215l-1.31055-3.4668c-.05078-.13379-.15527-.16211-.23438-.16211Z" fill="var(--iconPrimary, #222)" opacity=".35"/>
  <path d="M11.29199,4.58203c-.35352,0-.68652-.21582-.81836-.56543l-.35645-.94336c-.00977-.02637-.03125-.08105-.11719-.08105s-.10742.05469-.11719.08105l-.35645.94336c-.16992.45117-.67285.68164-1.12793.50879-.45215-.1709-.67969-.67578-.50879-1.12793l.35645-.94336c.27832-.73633.9668-1.21191,1.75391-1.21191s1.47559.47559,1.75391,1.21191l.35645.94336c.1709.45215-.05664.95703-.50879,1.12793-.10254.03906-.20703.05664-.30957.05664Z" fill="var(--iconPrimary, #222)"/>
  <path d="M14.68262,14.73926c-.38379,0-.7373-.25586-.84277-.64453l-.22559-.82617c-.24902-.91309.06641-1.88574.80469-2.47852l.66895-.53516c.37793-.30469.92773-.24121,1.22949.13574.30273.37695.24121.92773-.13574,1.22949l-.66797.53516c-.19336.15625-.27734.41211-.21191.65234l.22559.82617c.12793.46582-.14746.94727-.61328,1.07422-.07715.02148-.1543.03125-.23145.03125Z" fill="var(--iconPrimary, #222)"/>
</svg>