<?xml version="1.0" encoding="UTF-8"?>
<svg xmlns="http://www.w3.org/2000/svg" width="12" height="22" viewBox="0 0 12 22">
  <path d="M.75,20.75c5.38488,0,9.75-4.36536,9.75-9.75S6.13488,1.25.75,1.25v19.5Z" fill="#fff"/>
  <path d="M1.76318,21.83984c-.43262,0-.854-.15918-1.1792-.45117-.37109-.33203-.58398-.80762-.58398-1.30469V1.91602c0-.49707.21289-.97266.58398-1.30469C.95654.27734,1.45557.1123,1.95459.1709c5.5249.6084,9.69043,5.26465,9.69043,10.8291S7.47949,21.2207,1.95508,21.8291c-.06396.00781-.12793.01074-.19189.01074ZM1.76074,1.66016c-.08594,0-.146.04102-.17578.06738-.03174.0293-.08496.09082-.08496.18848v18.16797c0,.09766.05322.15918.08496.18848.03271.0293.09814.07422.20654.06641,4.76221-.52539,8.35352-4.54004,8.35352-9.33887S6.55371,2.18652,1.79102,1.66113c-.01025-.00098-.02051-.00098-.03027-.00098Z" fill="var(--iconBluePrimary, #0063e4)"/>
  <path d="M4.49951,14.75c-.14307,0-.2876-.04102-.41553-.12598-.34473-.22949-.43799-.69531-.20801-1.04004l1.72266-2.58398-1.72266-2.58398c-.22998-.34473-.13672-.81055.20801-1.04004.34375-.22949.81006-.1377,1.04004.20801l2,3c.16797.25195.16797.58008,0,.83203l-2,3c-.14453.2168-.38232.33398-.62451.33398Z" fill="var(--iconBluePrimary, #0063e4)"/>
</svg>