<?xml version="1.0" encoding="UTF-8"?>
<svg xmlns="http://www.w3.org/2000/svg" width="20" height="20" viewBox="0 0 20 20">
  <path d="M5.46094,18.54883c-.36328,0-.72559-.11328-1.03711-.33984-.59863-.43555-.85938-1.17871-.66406-1.89355l.99219-3.62891c.08105-.29785-.02148-.61426-.26172-.80566l-2.93652-2.35449c-.57812-.46387-.80371-1.21875-.5752-1.92285.22949-.7041.85547-1.18262,1.5957-1.2168l3.75879-.17773c.30664-.01465.57617-.21094.68555-.49902l1.33105-3.51953c.26172-.69238.91016-1.14062,1.65039-1.14062s1.38867.44824,1.65039,1.14062l1.33105,3.51953c.10938.28906.37793.48438.68652.49902l3.75781.17773c.74023.03418,1.36621.5127,1.5957,1.2168.22852.7041.00293,1.45898-.5752,1.92285l-2.93652,2.35352c-.24023.19238-.34277.50879-.26172.80664l.99121,3.62793c.19531.71484-.06641,1.45898-.66797,1.89453-.60254.43457-1.39062.45215-2.00977.04102l-3.11719-2.06641c-.25781-.1709-.59082-.16992-.85059-.00195l-3.16406,2.0752c-.29688.19531-.63281.29199-.96875.29199ZM10,2.5498c-.06836,0-.19141.02246-.24805.17188l-1.33105,3.51953c-.32031.84668-1.1123,1.42188-2.0166,1.46582l-3.75977.17773c-.15918.00781-.21777.11719-.23926.18262s-.03809.18945.08594.28906l2.93652,2.35352c.70703.56445,1.00977,1.49609.77148,2.37109l-.99219,3.62988c-.04199.1543.04395.24414.09863.28516.05664.03906.16797.09375.30176.00684l3.16406-2.0752c.75977-.5,1.74121-.49707,2.50098.00488l3.11719,2.06738c.13281.08887.24707.0332.30176-.00684.05566-.04004.14258-.12988.10059-.2832l-.99121-3.62891c-.23828-.875.06445-1.80664.77148-2.37207l2.93652-2.35254c.12402-.09961.10742-.22363.08594-.28906s-.08008-.1748-.23926-.18262l-3.75879-.17773c-.90723-.04395-1.69922-.61914-2.01855-1.4668l-1.33008-3.51855c-.05664-.14941-.17969-.17188-.24805-.17188Z" fill="var(--iconPrimary, #222)" opacity=".35"/>
  <path d="M5.56152,7.91504c-.46387,0-.85059-.36426-.87305-.83301-.02344-.48242.34961-.89258.83203-.91602l.53027-.02539c.44922-.02051.8418-.30566,1-.72461l.1875-.49609c.17188-.45312.68066-.67676,1.12793-.50879.45215.1709.67969.67676.50879,1.12793l-.1875.49512c-.4043,1.07324-1.40723,1.80078-2.55371,1.85449l-.5293.02539c-.01465.00098-.02832.00098-.04297.00098Z" fill="var(--iconPrimary, #222)"/>
  <path d="M14.43848,7.91504c-.01465,0-.02832,0-.04297-.00098l-.53027-.02539c-1.14551-.05371-2.14844-.78125-2.55273-1.85547l-.1875-.49414c-.1709-.45117.05664-.95703.50879-1.12793.44824-.16797.95605.05566,1.12793.50879l.1875.49512c.1582.41992.55078.70508.99902.72559l.53125.02539c.48242.02344.85547.43359.83203.91602-.02246.46875-.40918.83301-.87305.83301Z" fill="var(--iconPrimary, #222)"/>
  <path d="M14.68262,14.54004c-.38477,0-.7373-.25586-.84375-.64551l-.13867-.50977c-.30176-1.10547.08203-2.28418.97656-3l.41113-.3291c.37695-.30469.92969-.24121,1.22949.13574.30273.37695.24121.92773-.13574,1.22949l-.41113.3291c-.34961.28027-.5.74121-.38184,1.1748l.13965.51074c.12598.46582-.14844.94727-.61523,1.07422-.07715.02051-.1543.03027-.23047.03027Z" fill="var(--iconPrimary, #222)"/>
  <path d="M5.31738,14.53906c-.07617,0-.1543-.00977-.23145-.03125-.46582-.12695-.74121-.60742-.61328-1.07422l.13867-.50879c.11816-.43262-.03223-.89355-.38281-1.1748l-.41016-.3291c-.37695-.30176-.43848-.85254-.13574-1.22949.2998-.37695.85156-.44043,1.22949-.13574l.41113.3291c.89551.71777,1.27832,1.89551.97559,3.00098l-.13867.50879c-.10547.38867-.45801.64453-.84277.64453Z" fill="var(--iconPrimary, #222)"/>
  <path d="M8.46484,16.82422c-.28516,0-.56543-.13965-.7334-.39551-.26465-.4043-.15137-.94727.25293-1.21191l.45508-.29785c.96191-.62988,2.20312-.62891,3.16309.00781l.42676.28223c.40234.26758.5127.81055.24609,1.21289-.26758.40234-.80957.51367-1.21289.24609l-.42578-.28223c-.37598-.25-.8623-.25098-1.23828-.00293l-.45508.29883c-.14844.09668-.31445.14258-.47852.14258Z" fill="var(--iconPrimary, #222)"/>
</svg>