<?xml version="1.0" encoding="UTF-8"?>
<svg   xmlns="http://www.w3.org/2000/svg" width="20" height="20" viewBox="0 0 20 20">
  <path d="m19.07471,1.2334c-.42725-.50391-1.00684-.7959-1.63184-.82129-.63721-.01074-1.25439.22656-1.71777.69043l-.64258.6377c-.67871-.28125-1.47461-.15918-2.00928.37402l-.23584.23633c-.60986.61133-.67737,1.5647-.22192,2.29272l-1.573,1.57349c-1.23828,1.23828-2.51611,2.51562-2.53076,2.53125-.72705.72754-.7041,1.93359.05078,2.6875.37549.37695.86963.58496,1.39111.58496h.00098c.49414,0,.95459-.18945,1.29248-.52734.0127-.01172.89746-.89648,1.91064-1.91016l2.19373-2.19336c.30945.19971.66541.30957,1.03674.30957.48584,0,.93896-.18555,1.27539-.52246l.23584-.23633c.53125-.53223.65479-1.3252.37695-2.00195l.58447-.57324c.00146-.00098.00293-.00293.00488-.00488.89795-.89746.98584-2.21191.20898-3.12695Zm-8.88281,9.19434c-.07666.07617-.17139.09277-.2373.09277-.11865,0-.23926-.05273-.33105-.14453-.08887-.08887-.14014-.20215-.14355-.31836-.00195-.06934.01221-.16895.09668-.25293.0498-.05078,1.30762-1.30859,2.52637-2.52734l1.53442-1.53467.61987.62012-4.06543,4.06494Zm7.61523-7.12988l-1.01416.99512c-.14258.13965-.22363.33105-.22461.53125s.07812.39258.21973.53418c.15771.1582.18018.39258.05078.52148l-.23584.23535c-.19434.19629-.39062.08203-.52148-.0498l-2.13232-2.13281c-.15771-.1582-.18018-.39258-.05127-.52148l.23486-.23535c.05615-.05566.1333-.08301.21484-.08301.10596,0,.22021.0459.30762.13281.29199.29102.76562.29297,1.05859.00195l1.06982-1.0625c.17236-.17188.38135-.25.59766-.25391.2041.00879.39404.10938.5498.29297.30713.36133.15918.80957-.12402,1.09375Z" fill="var(--iconPrimary, #222)" stroke-width="0"/>
  <path d="m18.61377,14.38184l-2.04736-4.85547c-.11719-.27832-.38916-.45898-.69092-.45898h-.45557c-.41406,0-.75.33594-.75.75,0,.40039.31299.72656.70752.74902l.92493,2.19336H3.43091l.84277-2.31738h1.72632c.34521,0,.625-.28027.625-.625s-.27979-.625-.625-.625h-1.27173l.58569-1.61035c.12842-.35352.39209-.58203.67139-.58203h2.22168c.41406,0,.75-.33594.75-.75s-.33594-.75-.75-.75h-2.22168c-.91797,0-1.73486.61621-2.08154,1.57031l-2.70264,7.43164c-.30811.84668-.18652,1.82031.31689,2.53906.42676.60938,1.07031.95898,1.76465.95898h13.29688c.71631,0,1.37207-.36719,1.79883-1.00781.50244-.75586.59326-1.75488.23535-2.61035Zm-6.80518-.37207l.26733,2.49023h-4.14758l.29102-2.49023h3.58923Zm-9.06201,2.1709c-.17822-.25488-.30713-.69434-.13525-1.16699l.36511-1.00391h3.98474l-.29102,2.49023h-3.38745c-.27148,0-.45264-.2002-.53613-.31934Zm14.3833-.01953c-.08447.12598-.26807.33887-.55029.33887h-3.24609l-.26746-2.49023h3.76343l.40149.95215c.16309.39062.12354.86133-.10107,1.19922Z" fill="var(--iconPrimary, #222)" stroke-width="0"/>
</svg>