<?xml version="1.0" encoding="UTF-8"?>
<svg   xmlns="http://www.w3.org/2000/svg" width="20" height="20" viewBox="0 0 20 20">
  <path d="m19.07471,1.2334c-.42725-.50391-1.00684-.7959-1.63184-.82129-.63281-.01074-1.25439.22656-1.71777.69043l-.64258.6377c-.67773-.28125-1.4751-.15918-2.00928.37402l-.23584.23633c-.60992.61133-.67737,1.5647-.22186,2.29272l-1.57306,1.57349c-1.23828,1.23828-2.51611,2.51562-2.53076,2.53125-.72705.72754-.7041,1.93359.05078,2.6875.37549.37695.86963.58496,1.39111.58496h.00098c.49414,0,.95459-.18945,1.29248-.52734.0127-.01172.89746-.89648,1.91064-1.91016l2.19373-2.19336c.30939.19971.66541.30957,1.03674.30957.48584,0,.93896-.18555,1.27539-.52246l.23584-.23633c.53125-.53223.65479-1.3252.37695-2.00195l.58447-.57324c.00146-.00098.00293-.00293.00488-.00488.89795-.89746.98584-2.21191.20898-3.12695Zm-8.88281,9.19434c-.07666.07617-.17139.09277-.2373.09277-.11865,0-.23926-.05273-.33105-.14453-.08887-.08887-.14014-.20215-.14355-.31836-.00195-.06934.01221-.16895.09668-.25293.0498-.05078,1.30762-1.30859,2.52637-2.52734l1.53442-1.53467.61993.62012-4.06549,4.06494Zm7.61523-7.12988l-1.01416.99512c-.14258.13965-.22363.33105-.22461.53125s.07812.39258.21973.53418c.15771.1582.18018.39258.05078.52148l-.23584.23535c-.19482.19629-.38965.08203-.52148-.0498l-2.13232-2.13281c-.15771-.1582-.18018-.39258-.05127-.52148l.23486-.23535c.05615-.05566.1333-.08301.21484-.08301.10596,0,.22021.0459.30762.13281.29199.29102.76562.29297,1.05859.00195l1.06982-1.0625c.17285-.17188.38867-.25.59766-.25391.2041.00879.39404.10938.5498.29297.30713.36133.15918.80957-.12402,1.09375Z" fill="var(--iconPrimary, #222)" stroke-width="0"/>
  <path d="m9.5,18.75c-4.54883,0-8.25-3.70117-8.25-8.25S4.95117,2.25,9.5,2.25c.14697,0,.29395.00391.43945.01172.41357.02148.73193.37402.71045.78711-.02148.41406-.35742.72656-.7876.71094-.12012-.00586-.24072-.00977-.3623-.00977-3.72217,0-6.75,3.02832-6.75,6.75s3.02783,6.75,6.75,6.75,6.75-3.02832,6.75-6.75c0-.13672-.00391-.27246-.01172-.40723-.02441-.41309.29102-.76855.70459-.79297.40625-.0293.76807.29199.79248.70508.00977.16406.01465.3291.01465.49512,0,4.54883-3.70117,8.25-8.25,8.25Z" fill="var(--iconPrimary, #222)" stroke-width="0"/>
  <path d="m16.25,10.5c0-.13672-.00391-.27246-.01172-.40723-.02362-.40015.27405-.73999.66852-.78345-.0011-.00024-.00214-.00415-.00323-.00391-.16223.02808-.50787.05493-.6767.05493-.22406,0-.44482-.02295-.66034-.06519-1.04968,1.04907-2.35266,2.35181-2.98535,2.98364l2.75781,1.59229c.57581-.99341.91101-2.14258.91101-3.37109Z" fill="var(--iconPrimary, #222)" opacity=".2" stroke-width="0"/>
  <path d="m9.51715,13.47729l-.01324,3.77246c2.49194-.00146,4.66699-1.36353,5.83508-3.37866l-2.75781-1.59229c-.1911.19092-.31445.31396-.31653.31592-.58008.58203-1.41602.92578-2.31006.92578-.14844,0-.29236-.02466-.43744-.04321Z" fill="var(--iconPrimary, #222)" opacity=".35" stroke-width="0"/>
  <path d="m7.5,12.49414c-.17181-.17163-.31976-.36035-.45032-.55933l-3.38678,1.93945c1.16919,2.0144,3.34479,3.37573,5.8371,3.37573.00134,0,.00256-.00024.00391-.00024l.01324-3.77246c-.75787-.09692-1.46387-.42749-2.01715-.98315Z" fill="var(--iconPrimary, #222)" opacity=".5" stroke-width="0"/>
  <path d="m6.48145,10.11035c-.008-.4292.07001-.84277.21295-1.23022l-3.03339-1.75122c-.57581.99316-.91101,2.14258-.91101,3.37109,0,1.22974.33594,2.38013.9129,3.37427l3.38678-1.93945c-.35461-.54028-.55573-1.16772-.56824-1.82446Z" fill="var(--iconPrimary, #222)" opacity=".65" stroke-width="0"/>
  <path d="m3.66101,7.12891l3.03339,1.75122c.16333-.44263.41382-.84985.75629-1.19263-.00024.00049,1.00421-1.00415,2.07147-2.07153l-.00208-1.86548c-.00671,0-.01331-.00049-.02008-.00049-2.49359,0-4.67023,1.36255-5.83899,3.37891Z" fill="var(--iconPrimary, #222)" opacity=".8" stroke-width="0"/>
</svg>