<?xml version="1.0" encoding="UTF-8"?>
<svg   xmlns="http://www.w3.org/2000/svg" width="20" height="20" viewBox="0 0 20 20">
  <path d="m19.07471,1.2334c-.42725-.50391-1.00684-.7959-1.63184-.82129-.64014-.01074-1.25488.22656-1.71777.69043l-.64258.6377c-.67822-.28125-1.47461-.15918-2.00928.37402l-.23584.23633c-.60986.61133-.67737,1.5647-.22192,2.29272l-1.573,1.57349c-1.23828,1.23828-2.51611,2.51562-2.53076,2.53125-.72705.72754-.7041,1.93359.05078,2.6875.37549.37695.86963.58496,1.39111.58496h.00098c.49414,0,.95459-.18945,1.29248-.52734.0127-.01172.89746-.89648,1.91064-1.91016l2.19373-2.19336c.30945.19971.66541.30957,1.03674.30957.48584,0,.93896-.18555,1.27539-.52246l.23584-.23633c.53125-.53223.65479-1.3252.37695-2.00195l.58447-.57324c.00146-.00098.00293-.00293.00488-.00488.89795-.89746.98584-2.21191.20898-3.12695Zm-8.88281,9.19434c-.07666.07617-.17139.09277-.2373.09277-.11865,0-.23926-.05273-.33105-.14453-.08887-.08887-.14014-.20215-.14355-.31836-.00195-.06934.01221-.16895.09668-.25293.0498-.05078,1.30762-1.30859,2.52637-2.52734l1.53442-1.53467.61987.62012-4.06543,4.06494Zm7.61523-7.12988l-1.01416.99512c-.14258.13965-.22363.33105-.22461.53125s.07812.39258.21973.53418c.15771.1582.18018.39258.05078.52148l-.23584.23535c-.19531.19629-.39014.08203-.52148-.0498l-2.13232-2.13281c-.15771-.1582-.18018-.39258-.05127-.52148l.23486-.23535c.05615-.05566.1333-.08301.21484-.08301.10596,0,.22021.0459.30762.13281.29199.29102.76562.29297,1.05859.00195l1.06982-1.0625c.17236-.17188.38477-.25.59766-.25391.2041.00879.39404.10938.5498.29297.30713.36133.15918.80957-.12402,1.09375Z" fill="var(--iconPrimary, #222)" stroke-width="0"/>
  <path d="m9,16c-2.75684,0-5-2.24316-5-5,0-2.01172,1.19922-3.82031,3.05469-4.60547.38428-.16504.82129.0166.98291.39844.16162.38086-.0166.82129-.39795.98242-1.2998.55078-2.13965,1.81641-2.13965,3.22461,0,1.92969,1.57031,3.5,3.5,3.5,1.01025,0,1.97168-.43848,2.63867-1.2041.27197-.31152.48486-.66504.63232-1.0498.14844-.3877.58252-.58105.96875-.43164.38672.14844.58008.58203.43164.96875-.21045.54883-.51367,1.05273-.90186,1.49805-.95166,1.09277-2.32568,1.71875-3.76953,1.71875Z" fill="var(--iconPrimary, #222)" stroke-width="0"/>
  <path d="m9,5.10742c-.41406,0-.75-.33594-.75-.75v-1.10742c0-.41406.33594-.75.75-.75s.75.33594.75.75v1.10742c0,.41406-.33594.75-.75.75Z" fill="var(--iconPrimary, #222)" stroke-width="0"/>
  <path d="m9,19.5c-.41406,0-.75-.33594-.75-.75v-1.10742c0-.41406.33594-.75.75-.75s.75.33594.75.75v1.10742c0,.41406-.33594.75-.75.75Z" fill="var(--iconPrimary, #222)" stroke-width="0"/>
  <path d="m2.35693,11.75h-1.10693c-.41406,0-.75-.33594-.75-.75s.33594-.75.75-.75h1.10693c.41406,0,.75.33594.75.75s-.33594.75-.75.75Z" fill="var(--iconPrimary, #222)" stroke-width="0"/>
  <path d="m16.75,11.75h-1.10693c-.41406,0-.75-.33594-.75-.75s.33594-.75.75-.75h1.10693c.41406,0,.75.33594.75.75s-.33594.75-.75.75Z" fill="var(--iconPrimary, #222)" stroke-width="0"/>
  <path d="m3.52002,17.23047c-.19189,0-.38379-.07324-.53027-.21973-.29297-.29297-.29297-.76758,0-1.06055l.78271-.7832c.29199-.29297.76758-.29297,1.06055,0s.29297.76758,0,1.06055l-.78271.7832c-.146.14648-.33838.21973-.53027.21973Z" fill="var(--iconPrimary, #222)" stroke-width="0"/>
  <path d="m4.30273,7.05273c-.19189,0-.38379-.07324-.53027-.21973l-.78271-.7832c-.29297-.29297-.29297-.76758,0-1.06055s.76758-.29297,1.06055,0l.78271.7832c.29297.29297.29297.76758,0,1.06055-.14648.14648-.33838.21973-.53027.21973Z" fill="var(--iconPrimary, #222)" stroke-width="0"/>
  <path d="m14.47998,17.23047c-.19189,0-.38379-.07324-.53027-.21973l-.78271-.7832c-.29297-.29297-.29297-.76758,0-1.06055s.76758-.29297,1.06055,0l.78271.7832c.29297.29297.29297.76758,0,1.06055-.14648.14648-.33838.21973-.53027.21973Z" fill="var(--iconPrimary, #222)" stroke-width="0"/>
</svg>