<?xml version="1.0" encoding="UTF-8"?>
<svg id="e" data-name="ICONS" xmlns="http://www.w3.org/2000/svg" width="20" height="20" viewBox="0 0 20 20">
  <path d="M8.05566,19.05859c-.19189,0-.38379-.07324-.53027-.21973l-.88428-.88379-.35352.35352c-.14062.14062-.33154.21973-.53027.21973s-.38965-.0791-.53027-.21973l-3.53564-3.53613c-.29297-.29297-.29297-.76758,0-1.06055l.35352-.35352-.88379-.88379c-.29297-.29297-.29297-.76758,0-1.06055L11.41406,1.16113c.29297-.29297.76758-.29297,1.06055,0l.88428.88379.35352-.35352c.14062-.14062.33154-.21973.53027-.21973s.38965.0791.53027.21973l3.53564,3.53613c.29297.29297.29297.76758,0,1.06055l-.35352.35352.88379.88379c.29297.29297.29297.76758,0,1.06055l-10.25293,10.25293c-.14648.14648-.33838.21973-.53027.21973ZM6.64111,16.14453c.19189,0,.38379.07324.53027.21973l.88428.88379,9.19238-9.19238-.88379-.88379c-.29297-.29297-.29297-.76758,0-1.06055l.35352-.35352-2.4751-2.47559-.35352.35352c-.29297.29297-.76758.29297-1.06055,0l-.88428-.88379L2.75195,11.94434l.88379.88379c.29297.29297.29297.76758,0,1.06055l-.35352.35352,2.4751,2.47559.35352-.35352c.14648-.14648.33838-.21973.53027-.21973Z" fill="var(--iconPrimary, #222)"/>
  <path d="M14.46338,6.86133l-1.41406-1.41406c-.24414-.24414-.63965-.24414-.88379,0s-.24414.64062,0,.88477l.30908.30908-1.70776,1.70752c-.67578-.31226-1.50195-.19702-2.05884.3584-.34521.3457-.53516.80469-.53516,1.29297,0,.27051.06372.52979.17456.76807l-1.7063,1.70605-.30908-.30908c-.24414-.24414-.63965-.24414-.88379,0s-.24414.64062,0,.88477l1.41406,1.41406c.12207.12207.28174.18262.44189.18262s.31982-.06055.44189-.18262c.24414-.24414.24414-.64062,0-.88477l-.2207-.2207,1.70728-1.70728c.24341.11255.50415.17505.76733.17505.46777,0,.93555-.17773,1.29199-.5332.34521-.3457.53516-.80469.53516-1.29297,0-.27075-.06372-.52979-.17468-.76831l1.70642-1.7063.2207.2207c.12207.12207.28174.18262.44189.18262s.31982-.06055.44189-.18262c.24414-.24414.24414-.64062,0-.88477ZM10.4082,10.4082c-.22461.22461-.5918.22461-.81641,0-.2251-.22461-.2251-.5918,0-.81641.1123-.1123.26025-.16895.4082-.16895s.2959.05664.4082.16895c.2251.22461.2251.5918,0,.81641Z" fill="var(--iconPrimary, #222)"/>
</svg>