<?xml version="1.0" encoding="UTF-8"?>
<svg id="e" data-name="ICONS" xmlns="http://www.w3.org/2000/svg" width="20" height="20" viewBox="0 0 20 20">
  <path d="M10,18.6123c-.48145,0-.96289-.15332-1.36475-.46094l-1.21582-.92578c-.26172-.20117-.61768-.20703-.88623-.01758l-1.56348,1.10059c-.38184.26953-.87842.30371-1.29541.08789-.41602-.2168-.67432-.6416-.67432-1.11035V3.25c0-1.24023,1.00928-2.25,2.25-2.25h9.5c1.24072,0,2.25,1.00977,2.25,2.25v14.03613c0,.46875-.2583.89355-.67432,1.11035-.4165.21484-.9126.18066-1.29541-.08789l-1.56299-1.10059c-.26953-.19043-.62598-.18262-.88574.0166l-1.21729.92773c-.40137.30664-.88281.45996-1.36426.45996ZM6.96484,15.56934c.48047,0,.96045.1543,1.36475.46387l1.21533.92578c.26904.20508.64257.2041.90967.00098l1.2168-.92773c.78369-.59863,1.85156-.61914,2.65967-.05078l1.16895.82324V3.25c0-.41309-.33643-.75-.75-.75H5.25c-.41357,0-.75.33691-.75.75v13.55469l1.16943-.82324c.39062-.27539.84326-.41211,1.29541-.41211Z" fill="var(--iconPrimary, #222)"/>
  <path d="M10.5,5.5h-3.75c-.41406,0-.75-.33594-.75-.75s.33594-.75.75-.75h3.75c.41406,0,.75.33594.75.75s-.33594.75-.75.75Z" fill="var(--iconPrimary, #222)"/>
  <path id="f" data-name="Path 1005062" d="M14.25,4.75c0,.48325-.39175.875-.875.875-.48325,0-.875-.39175-.875-.875,0-.48325.39175-.875.875-.875s.875.39175.875.875h0Z" fill="var(--iconPrimary, #222)"/>
  <path d="M10.5,8.5h-3.75c-.41406,0-.75-.33594-.75-.75s.33594-.75.75-.75h3.75c.41406,0,.75.33594.75.75s-.33594.75-.75.75Z" fill="var(--iconPrimary, #222)"/>
  <path id="g" data-name="Path 1005062" d="M14.25,7.75c0,.48325-.39175.875-.875.875-.48325,0-.875-.39175-.875-.875,0-.48325.39175-.875.875-.875s.875.39175.875.875h0Z" fill="var(--iconPrimary, #222)"/>
  <path d="M10.5,11.5h-3.75c-.41406,0-.75-.33594-.75-.75s.33594-.75.75-.75h3.75c.41406,0,.75.33594.75.75s-.33594.75-.75.75Z" fill="var(--iconPrimary, #222)"/>
  <path id="h" data-name="Path 1005062" d="M14.25,10.75c0,.48325-.39175.875-.875.875-.48325,0-.875-.39175-.875-.875,0-.48325.39175-.875.875-.875s.875.39175.875.875h0Z" fill="var(--iconPrimary, #222)"/>
</svg>