<?xml version="1.0" encoding="UTF-8"?>
<svg xmlns="http://www.w3.org/2000/svg" width="20" height="20" viewBox="0 0 20 20">
  <path d="M17.25,8c-.41406,0-.75-.33594-.75-.75v-3c0-.41309-.33691-.75-.75-.75h-3c-.41406,0-.75-.33594-.75-.75s.33594-.75.75-.75h3c1.24023,0,2.25,1.00977,2.25,2.25v3c0,.41406-.33594.75-.75.75Z" fill="var(--iconPrimary, #222)"/>
  <path d="M2.75,8c-.41406,0-.75-.33594-.75-.75v-3c0-1.24023,1.00977-2.25,2.25-2.25h3c.41406,0,.75.33594.75.75s-.33594.75-.75.75h-3c-.41309,0-.75.33691-.75.75v3c0,.41406-.33594.75-.75.75Z" fill="var(--iconPrimary, #222)"/>
  <path d="M7.25,18h-3c-1.24023,0-2.25-1.00977-2.25-2.25v-3c0-.41406.33594-.75.75-.75s.75.33594.75.75v3c0,.41309.33691.75.75.75h3c.41406,0,.75.33594.75.75s-.33594.75-.75.75Z" fill="var(--iconPrimary, #222)"/>
  <path d="M15.75,18h-3c-.41406,0-.75-.33594-.75-.75s.33594-.75.75-.75h3c.41309,0,.75-.33691.75-.75v-3c0-.41406.33594-.75.75-.75s.75.33594.75.75v3c0,1.24023-1.00977,2.25-2.25,2.25Z" fill="var(--iconPrimary, #222)"/>
</svg>