<?xml version="1.0" encoding="UTF-8"?>
<svg xmlns="http://www.w3.org/2000/svg" width="20" height="20" viewBox="0 0 20 20">
  <path d="M13.45508,19h-6.91016c-1.12793,0-2.04492-.91699-2.04492-2.04492V3.04492c0-1.12793.91699-2.04492,2.04492-2.04492h6.91016c1.12793,0,2.04492.91699,2.04492,2.04492v13.91016c0,1.12793-.91699,2.04492-2.04492,2.04492ZM6.54492,2.5c-.30078,0-.54492.24414-.54492.54492v13.91016c0,.30078.24414.54492.54492.54492h6.91016c.30078,0,.54492-.24414.54492-.54492V3.04492c0-.30078-.24414-.54492-.54492-.54492h-6.91016Z" fill="var(--iconPrimary, #222)"/>
</svg>