<?xml version="1.0" encoding="UTF-8"?>
<svg xmlns="http://www.w3.org/2000/svg" width="20" height="20" viewBox="0 0 20 20">
  <path d="M16.95508,15.5H3.04492c-1.12793,0-2.04492-.91699-2.04492-2.04492v-6.91016c0-1.12793.91699-2.04492,2.04492-2.04492h13.91016c1.12793,0,2.04492.91699,2.04492,2.04492v6.91016c0,1.12793-.91699,2.04492-2.04492,2.04492ZM3.04492,6c-.30078,0-.54492.24414-.54492.54492v6.91016c0,.30078.24414.54492.54492.54492h13.91016c.30078,0,.54492-.24414.54492-.54492v-6.91016c0-.30078-.24414-.54492-.54492-.54492H3.04492Z" fill="var(--iconPrimary, #222)"/>
</svg>