<?xml version="1.0" encoding="UTF-8"?>
<svg xmlns="http://www.w3.org/2000/svg" width="20" height="20" viewBox="0 0 20 20">
  <path d="M16.95459,17.5H6.04541c-1.12793,0-2.04541-.91699-2.04541-2.04492v-4.91016c0-1.12793.91748-2.04492,2.04541-2.04492h10.90918c1.12793,0,2.04541.91699,2.04541,2.04492v4.91016c0,1.12793-.91748,2.04492-2.04541,2.04492ZM6.04541,10c-.30078,0-.54541.24414-.54541.54492v4.91016c0,.30078.24463.54492.54541.54492h10.90918c.30078,0,.54541-.24414.54541-.54492v-4.91016c0-.30078-.24463-.54492-.54541-.54492H6.04541Z" fill="var(--iconPrimary, #222)"/>
  <path d="M9.40137,3.46973l-1.75-1.75c-.29297-.29297-.76758-.29297-1.06055,0s-.29297.76758,0,1.06055l.46973.46973h-1.31055c-2.61914,0-4.75,2.13086-4.75,4.75v2c0,.41406.33594.75.75.75s.75-.33594.75-.75v-2c0-1.79199,1.45801-3.25,3.25-3.25h1.31055l-.46973.46973c-.29297.29297-.29297.76758,0,1.06055.14648.14648.33838.21973.53027.21973s.38379-.07324.53027-.21973l1.75-1.75c.29297-.29297.29297-.76758,0-1.06055Z" fill="var(--iconPrimary, #222)"/>
</svg>