<?xml version="1.0" encoding="UTF-8"?>
<svg xmlns="http://www.w3.org/2000/svg" width="20" height="20" viewBox="0 0 20 20">
  <path d="M9.45459,19h-4.90918c-1.12793,0-2.04541-.91699-2.04541-2.04492V6.04492c0-1.12793.91748-2.04492,2.04541-2.04492h4.90918c1.12793,0,2.04541.91699,2.04541,2.04492v10.91016c0,1.12793-.91748,2.04492-2.04541,2.04492ZM4.54541,5.5c-.30078,0-.54541.24414-.54541.54492v10.91016c0,.30078.24463.54492.54541.54492h4.90918c.30078,0,.54541-.24414.54541-.54492V6.04492c0-.30078-.24463-.54492-.54541-.54492h-4.90918Z" fill="var(--iconPrimary, #222)"/>
  <path d="M18.28027,6.59082c-.29297-.29297-.76758-.29297-1.06055,0l-.46973.46973v-1.31055c0-2.61914-2.13086-4.75-4.75-4.75h-2c-.41406,0-.75.33594-.75.75s.33594.75.75.75h2c1.79199,0,3.25,1.45801,3.25,3.25v1.31055l-.46973-.46973c-.29297-.29297-.76758-.29297-1.06055,0s-.29297.76758,0,1.06055l1.75,1.75c.14648.14648.33838.21973.53027.21973s.38379-.07324.53027-.21973l1.75-1.75c.29297-.29297.29297-.76758,0-1.06055Z" fill="var(--iconPrimary, #222)"/>
</svg>