<?xml version="1.0" encoding="UTF-8"?>
<svg   xmlns="http://www.w3.org/2000/svg" width="20" height="20" viewBox="0 0 20 20">
  <path d="M15.5,2.74993v14.5c0,1.24072-1.00928,2.25-2.25,2.25h-6.5c-1.24072,0-2.25-1.00928-2.25-2.25V2.74993c0-1.24072,1.00928-2.25,2.25-2.25h6.5c1.24072,0,2.25,1.00928,2.25,2.25ZM6,17.24993c0,.41357.33643.75.75.75h6.5c.41357,0,.75-.33643.75-.75V2.74993c0-.41357-.33643-.75-.75-.75h-6.5c-.41357,0-.75.33643-.75.75v14.5Z" fill="var(--iconPrimary, #222)" stroke-width="0"/>
</svg>