<?xml version="1.0" encoding="UTF-8"?>
<svg   xmlns="http://www.w3.org/2000/svg" width="20" height="20" viewBox="0 0 20 20">
  <path d="M17.25007,15.5H2.75007c-1.24072,0-2.25-1.00928-2.25-2.25v-6.5c0-1.24072,1.00928-2.25,2.25-2.25h14.5c1.24072,0,2.25,1.00928,2.25,2.25v6.5c0,1.24072-1.00928,2.25-2.25,2.25ZM2.75007,6c-.41357,0-.75.33643-.75.75v6.5c0,.41357.33643.75.75.75h14.5c.41357,0,.75-.33643.75-.75v-6.5c0-.41357-.33643-.75-.75-.75H2.75007Z" fill="var(--iconPrimary, #222)" stroke-width="0"/>
</svg>