<?xml version="1.0" encoding="UTF-8"?>
<svg id="e" data-name="ICONS" xmlns="http://www.w3.org/2000/svg" width="20" height="20" viewBox="0 0 20 20">
  <path d="M12.91667,10.91075c-.00047.50296-.40778.91098-.91075.91217-.50296,0-.91075-.40778-.91075-.91075s.40778-.91075.91075-.91075c.50249,0,.9098.40683.91075.90932ZM8.90483,10.91359c.00071-.50296-.40636-.91122-.90932-.91217-.50296-.00071-.91122.40636-.91217.90932.00047.50296.40778.91098.91075.91217.50249,0,.9098-.40683.91075-.90932ZM11.85211,12.97933c-.53287.3793-1.17849.56681-1.8317.5324-.65321.03584-1.2993-.15167-1.8317-.5324-.09328-.09328-.24424-.09328-.33752,0s-.09328.24448,0,.33752c.62188.46309,1.38428.69784,2.15902.66508.77521.03655,1.5388-.19843,2.15902-.66508.08687-.09257.09566-.23546.02041-.33752-.09352-.0921-.24377-.0921-.33752,0ZM18.75,10c0,4.83239-3.91737,8.75-8.75,8.75S1.25,14.83239,1.25,10,5.16737,1.25,10,1.25s8.75,3.91737,8.75,8.75ZM15.83333,10c-.00047-.70614-.57275-1.27865-1.27889-1.27889-.32945-.00356-.64657.12533-.88013.35794-1.00806-.68193-2.1913-1.05862-3.40824-1.08497l.58343-2.73224,1.89579.39876c.02231.50296.44766.89271.95062.87063.50296-.02231.89271-.4479.87063-.95086-.0216-.48706-.42274-.87111-.91051-.87111-.34631-.00285-.66199.19653-.80868.51032l-2.11819-.44908c-.05981-.01092-.12177,0-.17422.03038-.05079.03465-.08735.0864-.10206.14598l-.64467,3.04935c-1.23593.00783-2.44147.38476-3.46141,1.08283-.50534-.48943-1.31188-.47614-1.80132.02943-.23119.23878-.35984.55898-.35841.89152-.00071.50463.29646.96202.75765,1.16662-.02089.12841-.03109.25848-.03062.38856,0,1.96533,2.28221,3.55113,5.10417,3.55113s5.10417-1.58674,5.10417-3.55113c.00024-.12675-.00997-.25326-.03062-.37835.4498-.22027.73676-.67576.74151-1.17683Z" fill="var(--iconPrimary, #222)"/>
</svg>