<?xml version="1.0" encoding="UTF-8"?>
<svg xmlns="http://www.w3.org/2000/svg" width="20" height="20" viewBox="0 0 20 20">
  <path d="M11.03027,18.68262c-4.3623,0-8.28027-3.93164-8.28027-5.78906,0-1.54199,2.27148-4.05859,4.7666-5.2832,1.07227-.54004,2.27246-.83301,3.47363-.84961,4.60156,0,8.25977,4.4043,8.25977,6.13281,0,1.85742-3.88867,5.78906-8.21973,5.78906ZM11,8.26074c-.96582.0127-1.94141.25195-2.81152.69141-.00293.00098-.00488.00195-.00781.00391-2.27051,1.1123-3.93066,3.24902-3.93066,3.9375,0,.84082,3.0459,4.28906,6.78027,4.28906,3.70117,0,6.71973-3.44824,6.71973-4.28906,0-.9082-3.03223-4.63281-6.75-4.63281ZM7.85059,8.28223h.00977-.00977Z" fill="var(--iconPrimary, #222)"/>
  <path d="M10.86784,11.78391c.18776.48863.5969.86419,1.10035,1.00925.18782.05411.62509.1376,1.09847-.05902.58304-.24217,1.17143.25731.98718.86116-.18796.61598-.57217,1.18657-1.16193,1.61794-1.00761.737-2.41706.79078-3.4761.12981-1.73399-1.08221-1.98468-3.39603-.66869-4.81979.32621-.35292.71405-.61183,1.13158-.77733.55346-.21938,1.16702.32942.97047.89139-.12546.35874-.12908.7621.01867,1.14659Z" fill="var(--iconPrimary, #222)"/>
  <path d="M6.75,3.25h-2V1.25c0-.41406-.33594-.75-.75-.75s-.75.33594-.75.75v2H1.25c-.41406,0-.75.33594-.75.75s.33594.75.75.75h2v2c0,.41406.33594.75.75.75s.75-.33594.75-.75v-2h2c.41406,0,.75-.33594.75-.75s-.33594-.75-.75-.75Z" fill="var(--iconPrimary, #222)"/>
</svg>