<?xml version="1.0" encoding="UTF-8"?>
<svg   xmlns="http://www.w3.org/2000/svg" width="20" height="20" viewBox="0 0 20 20">
  <path d="M16.7959,4.79789h-.00098l-5.67578-3.25586c-.69141-.39648-1.54883-.39648-2.23828,0l-5.67676,3.25586c-.69629.40039-1.12891,1.14746-1.12891,1.95117v6.49512c0,.80371.43262,1.55176,1.12988,1.95215l5.67578,3.25586c.3457.19824.73242.29688,1.11914.29688s.77441-.09863,1.11914-.29688l5.67676-3.25586c.69629-.40039,1.12891-1.14844,1.12891-1.95215v-6.49512c0-.80371-.43262-1.55078-1.12891-1.95117ZM9.62695,2.84282c.11523-.06543.24414-.09863.37305-.09863s.25781.0332.37305.09863l5.29492,3.03809-3.75195,2.15234c-.49585-.48291-1.17065-.7832-1.91602-.7832s-1.42017.30029-1.91577.7832l-3.7522-2.15308,5.29492-3.03735ZM10,11.25004c-.68945,0-1.25-.56055-1.25-1.25s.56055-1.25,1.25-1.25,1.25.56055,1.25,1.25-.56055,1.25-1.25,1.25ZM3.95215,13.89555c-.23242-.13379-.37695-.38281-.37695-.65137v-6.06836l3.76514,2.16016c-.05347.21387-.09033.43384-.09033.66406,0,1.25488.84937,2.3042,2,2.63281v4.30225l-5.29785-3.03955ZM16.4248,13.24418c0,.26855-.14453.51758-.37598.65137l-5.29883,3.03955v-4.30225c1.15063-.32861,2-1.37793,2-2.63281,0-.23047-.03687-.45068-.09045-.66455l3.76526-2.16016v6.06885Z" fill="var(--iconPrimary, #222)"/>
</svg>