<?xml version="1.0" encoding="UTF-8"?>
<svg id="d" data-name="ICONS" xmlns="http://www.w3.org/2000/svg" width="20" height="20" viewBox="0 0 20 20">
  <path d="M18,15.75V4.25c0-1.24023-1.00977-2.25-2.25-2.25h-3.11707c-.32886-1.15063-1.37805-2-2.63293-2s-2.30408.84937-2.63293,2h-3.11707c-1.24023,0-2.25,1.00977-2.25,2.25v11.5c0,1.24023,1.00977,2.25,2.25,2.25h11.5c1.24023,0,2.25-1.00977,2.25-2.25ZM11.25,2.75c0,.68945-.56055,1.25-1.25,1.25s-1.25-.56055-1.25-1.25.56055-1.25,1.25-1.25,1.25.56055,1.25,1.25ZM16.5,15.75c0,.41309-.33691.75-.75.75H4.25c-.41309,0-.75-.33691-.75-.75V4.25c0-.41309.33691-.75.75-.75h3.11707c.32886,1.15063,1.37805,2,2.63293,2s2.30408-.84937,2.63293-2h3.11707c.41309,0,.75.33691.75.75v11.5Z" fill="var(--iconPrimary, #222)"/>
</svg>