<?xml version="1.0" encoding="UTF-8"?>
<svg   xmlns="http://www.w3.org/2000/svg" width="20" height="20" viewBox="0 0 20 20">
  <path d="M10,12.75004c-1.5166,0-2.75-1.2334-2.75-2.75s1.2334-2.75,2.75-2.75,2.75,1.2334,2.75,2.75-1.2334,2.75-2.75,2.75ZM10,8.75004c-.68945,0-1.25.56055-1.25,1.25s.56055,1.25,1.25,1.25,1.25-.56055,1.25-1.25-.56055-1.25-1.25-1.25Z" fill="var(--iconPrimary, #222)"/>
  <path d="M15.75,18.00004H4.25c-1.24023,0-2.25-1.00977-2.25-2.25V4.25004c0-1.24023,1.00977-2.25,2.25-2.25h11.5c1.24023,0,2.25,1.00977,2.25,2.25v11.5c0,1.24023-1.00977,2.25-2.25,2.25ZM4.25,3.50004c-.41309,0-.75.33691-.75.75v11.5c0,.41309.33691.75.75.75h11.5c.41309,0,.75-.33691.75-.75V4.25004c0-.41309-.33691-.75-.75-.75H4.25Z" fill="var(--iconPrimary, #222)"/>
</svg>