<?xml version="1.0" encoding="UTF-8"?>
<svg xmlns="http://www.w3.org/2000/svg" width="20" height="20" viewBox="0 0 20 20">
  <path d="M16.79492,8.18359c-.0918-.67969-.48242-1.27246-1.07129-1.62695l-7.29785-4.37793c-.62109-.37305-1.36035-.42773-2.03027-.14453-.66895.28125-1.14941.84766-1.31641,1.55469l-2.30859,9.74414c-.22461.95117.18457,1.93164,1.01758,2.43945l2.85742,1.74219c.36035.21973.76465.32617,1.16797.32617.60254,0,1.2002-.23926,1.63477-.69727l6.74902-7.10742c.47266-.49805.69043-1.17285.59766-1.85254ZM6.53809,3.93457c.05664-.23535.21582-.42383.43945-.51855.09473-.04004.19336-.05957.29199-.05957.13379,0,.26562.03613.38477.1084l3.09924,1.85938-1.33679,2.42773-3.30615-2.01318.42749-1.8042ZM4.22949,13.67773l1.57788-6.65918,3.00537,1.83008-3.39258,6.16138-.85083-.5188c-.27832-.16895-.41406-.49609-.33984-.81348ZM8.36035,16.11035c-.24121.25488-.63477.30469-.93359.12305l-.9375-.57153,3.39307-6.16187,3.01294,1.83472-4.53491,4.77563ZM15.10938,9.00293l-1.33301,1.40381-3.29028-2.00342,1.34082-2.43506,3.12427,1.87451c.19629.11816.32715.31543.35742.54297.03125.22656-.04199.45117-.19922.61719Z" fill="var(--iconPrimary, #222)"/>
</svg>