<?xml version="1.0" encoding="UTF-8"?>
<svg id="e" data-name="ICONS" xmlns="http://www.w3.org/2000/svg" width="20" height="20" viewBox="0 0 20 20">
  <path d="M16.75,1h-2c-.41406,0-.75.33594-.75.75s.33594.75.75.75h2c.41309,0,.75.33691.75.75v2c0,.41406.33594.75.75.75s.75-.33594.75-.75v-2c0-1.24023-1.00977-2.25-2.25-2.25Z" fill="var(--iconPrimary, #222)"/>
  <path d="M18.25,14.00098c-.41406,0-.75.33594-.75.75v2c0,.41309-.33691.75-.75.75h-2c-.41406,0-.75.33594-.75.75s.33594.75.75.75h2c1.24023,0,2.25-1.00977,2.25-2.25v-2c0-.41406-.33594-.75-.75-.75Z" fill="var(--iconPrimary, #222)"/>
  <path d="M1.75,6c.41406,0,.75-.33594.75-.75v-2c0-.41309.33691-.75.75-.75h2c.41406,0,.75-.33594.75-.75s-.33594-.75-.75-.75h-2c-1.24023,0-2.25,1.00977-2.25,2.25v2c0,.41406.33594.75.75.75Z" fill="var(--iconPrimary, #222)"/>
  <path d="M5.25,17.5h-2c-.41309,0-.75-.33691-.75-.75v-2c0-.41406-.33594-.75-.75-.75s-.75.33594-.75.75v2c0,1.24023,1.00977,2.25,2.25,2.25h2c.41406,0,.75-.33594.75-.75s-.33594-.75-.75-.75Z" fill="var(--iconPrimary, #222)"/>
  <path d="M14.17188,12.82812c.14648.14648.33789.21973.53027.21973s.38379-.07324.53027-.21973l2.29785-2.29785c.29297-.29297.29297-.76758,0-1.06055l-2.29785-2.29785c-.29297-.29297-.76758-.29297-1.06055,0s-.29297.76758,0,1.06055l1.01758,1.01758h-4.43945v-4.43945l.96973.96973c.14648.14648.33789.21973.53027.21973s.38379-.07324.53027-.21973c.29297-.29297.29297-.76758,0-1.06055l-2.29785-2.29785c-.29199-.29199-.7666-.29395-1.06055,0l-2.29883,2.29785c-.29297.29297-.29297.76758,0,1.06055.29199.29199.7666.29395,1.06055,0l1.06641-1.0658v4.53552h-4.53564l1.01807-1.01758c.29297-.29297.29297-.76758,0-1.06055s-.76758-.29297-1.06055,0l-2.29883,2.29785c-.14062.14062-.21973.33105-.21973.53027s.0791.38965.21973.53027l2.29883,2.29785c.14648.14648.33789.21973.53027.21973s.38379-.07324.53027-.21973c.29297-.29297.29297-.76758,0-1.06055l-1.01807-1.01758h4.53564v4.53552l-1.06641-1.0658c-.29297-.29297-.76758-.29297-1.06055,0s-.29297.76758,0,1.06055l2.29883,2.29785c.14648.14648.33789.21973.53027.21973s.38379-.07324.53027-.21973l2.29785-2.29785c.29297-.29297.29297-.76758,0-1.06055s-.76758-.29297-1.06055,0l-.96973.96973v-4.43945h4.43945l-1.01758,1.01758c-.29297.29297-.29297.76758,0,1.06055Z" fill="var(--iconPrimary, #222)"/>
</svg>