<?xml version="1.0" encoding="UTF-8"?>
<svg xmlns="http://www.w3.org/2000/svg" width="20" height="20" viewBox="0 0 20 20">
  <path d="M18.20605,3.89746c-.39551-.09375-.80762.15039-.90527.55371l-.38013,1.57373c-1.39771-2.4314-4.00146-4.00342-6.92065-4.00342-3.68555,0-6.87598,2.5-7.75977,6.08008-.09863.40234.14648.80859.54883.9082.40332.10156.80859-.14648.9082-.54883.7168-2.9082,3.30957-4.93945,6.30273-4.93945,2.51685,0,4.73584,1.44629,5.80908,3.63257l-2.10303-.50854c-.39551-.09277-.80762.15039-.90527.55371-.09668.40234.15039.80762.55371.9043l3.62402.87695c.05859.01367.11816.02051.17676.02051.33789,0,.64551-.23047.72852-.57422l.87598-3.62402c.09668-.40234-.15039-.80762-.55371-.90527Z" fill="var(--iconPrimary, #222)"/>
  <path d="M19.47998,15.0211c0,2.48523-1.99463,4.5-4.47998,4.5s-4.5-2.01477-4.5-4.5,2.01465-4.5,4.5-4.5,4.47998,2.01477,4.47998,4.5ZM15.75,17.32127c0-.41406-.33594-.75-.75-.75s-.75.33594-.75.75v.2002c0,.41406.33594.75.75.75s.75-.33594.75-.75v-.2002ZM15.75,12.27147c0-.41406-.33594-.75-.75-.75s-.75.33594-.75.75v2.64941c0,.41406.33594.75.75.75s.75-.33594.75-.75v-2.64941Z" fill="var(--iconPrimary, #222)"/>
  <path d="M8.80469,16.41113c-2.0293-.37744-3.71973-1.71191-4.61304-3.52319l2.10229.50757c.39941.10254.80859-.14941.90527-.55273.09668-.40234-.15039-.80762-.55371-.90527l-3.62402-.87598c-.39551-.09473-.80762.15039-.90527.55371l-.87598,3.62402c-.09668.40234.15039.80762.55371.90527.05859.01367.11816.02051.17676.02051.33789,0,.64551-.23047.72852-.57422l.38062-1.57544c1.15015,1.99365,3.12573,3.43799,5.44946,3.87036.04688.00879.09277.0127.13867.0127.35449,0,.66895-.25195.73633-.6123.07617-.40723-.19238-.79883-.59961-.875Z" fill="var(--iconPrimary, #222)"/>
</svg>