<?xml version="1.0" encoding="UTF-8"?>
<svg xmlns="http://www.w3.org/2000/svg" width="20" height="20" viewBox="0 0 20 20">
  <path d="m17.29492,15.63184h-1.49414c-2.13135-.05469-3.15234-1.16699-4.2334-2.34473l-.34619-.375c-.28271-.30225-.26709-.77686.03564-1.06006.30176-.28271.77637-.26758,1.06006.03564l.35547.38477c1.00684,1.09717,1.67188,1.82178,3.14795,1.85986l1.47461-.00049c.41406,0,.75.33594.75.75s-.33594.75-.75.75Z" fill="var(--iconPrimary, #222)"/>
  <path d="m18.50684,5.46533l-2.49805-2.49805c-.29297-.29297-.76758-.29297-1.06055,0s-.29297.76758,0,1.06055l1.22424,1.22424-.56311.00085c-2.80859-.25146-4.76025,2.40674-6.64307,4.98096-1.44385,1.97412-2.9375,4.01562-4.46631,4.01562-.84668,0-1.75-.28955-1.75-3.75,0-3.45996.90332-3.74951,1.75-3.74951.81885,0,1.67822.53467,2.78613,1.7334.28174.3042.75586.32227,1.06006.0415.3042-.28125.32275-.75586.0415-1.06006-.95312-1.03125-2.25635-2.21484-3.8877-2.21484-3.25,0-3.25,3.81396-3.25,5.24951,0,1.43604,0,5.25,3.25,5.25,2.29004,0,4.01172-2.354,5.67676-4.63037,1.63672-2.23779,3.32178-4.55859,5.36475-4.36914h.62219l-1.21594,1.21777c-.29248.29297-.29248.76807.00098,1.06055.14648.146.33789.21924.52979.21924s.38428-.07324.53076-.22021l2.49805-2.50195c.29248-.29297.29248-.76758-.00049-1.06006Z" fill="var(--iconPrimary, #222)"/>
</svg>