<?xml version="1.0" encoding="UTF-8"?>
<svg xmlns="http://www.w3.org/2000/svg" width="14" height="14" viewBox="0 0 14 14">
  <path d="M12.4082,11h-1.10742c-1.7002-.04395-2.43457-.70312-3.44531-1.78418-.23633-.25195-.22266-.64746.0293-.88281.25195-.23633.64648-.22266.88281.0293.87891.93945,1.31934,1.35645,2.5498,1.3877h1.09082c.34473,0,.625.28027.625.625s-.28027.625-.625.625Z" fill="var(--iconPrimary, #222)"/>
  <path d="M13.35547,3.21387l-1.85156-1.85156c-.24414-.24414-.64062-.24414-.88477,0-.24316.24414-.24316.64062,0,.88477l.76562.76514-.21973.00049c-2.10547-.19629-3.4834,1.77539-4.81641,3.67578-1.05078,1.50098-2.13867,3.05176-3.34863,3.05176-.52441,0-1.00977-.33203-1.00977-2.74023,0-2.35938.29785-2.74023,1.00977-2.74023.47559,0,1.03223.62598,1.57031,1.23047.12109.13672.24316.27344.36719.40723.23438.25391.62891.26855.88281.03516.25391-.23438.26953-.62988.03516-.88281l-.35156-.39062c-.72168-.81055-1.46777-1.64941-2.50391-1.64941C.74023,3.00977.74023,5.41113.74023,7c0,1.19434,0,3.99023,2.25977,3.99023,1.86035,0,3.1377-1.82227,4.37305-3.58398,1.17969-1.68359,2.28125-3.27637,3.73535-3.14648h.3186l-.80786.80957c-.24414.24414-.24316.63965.00098.88379.12207.12207.28125.18262.44141.18262s.32031-.06152.44238-.18359l1.85156-1.85449c.24414-.24414.24316-.63965,0-.88379Z" fill="var(--iconPrimary, #222)"/>
</svg>