<?xml version="1.0" encoding="UTF-8"?>
<svg   xmlns="http://www.w3.org/2000/svg" width="20" height="20" viewBox="0 0 20 20">
  <path d="M15,10.50004c-2.48535,0-4.5,2.01465-4.5,4.5s2.01465,4.5,4.5,4.5,4.5-2.01465,4.5-4.5-2.01465-4.5-4.5-4.5ZM17.375,15.77153h-4.75c-.41406,0-.75-.33594-.75-.75s.33594-.75.75-.75h4.75c.41406,0,.75.33594.75.75s-.33594.75-.75.75Z" fill="var(--iconPrimary, #222)"/>
  <path d="M7.68457,4.12602c-.08594-.40527-.48633-.66797-.88965-.57715l-1.46729.31177-.31201-1.46802c-.08594-.40527-.48633-.66797-.88965-.57715-.40527.08594-.66309.48438-.57715.88965l.31177,1.46729-1.46802.31201c-.40527.08594-.66309.48438-.57715.88965.0752.35254.38574.59375.73242.59375.05176,0,.10449-.00488.15723-.0166l1.46729-.31177.31201,1.46802c.0752.35254.38574.59375.73242.59375.05176,0,.10449-.00488.15723-.0166.40527-.08594.66309-.48438.57715-.88965l-.31177-1.46729,1.46802-.31201c.40527-.08594.66309-.48438.57715-.88965Z" fill="var(--iconPrimary, #222)"/>
  <path d="M11.64648,6.82133c-.20801-.27637-.60156-.33008-.875-.12305l-.89844.67676-.67676-.89844c-.20898-.27637-.60156-.33008-.875-.12305-.27539.20703-.33105.59961-.12305.875l.67676.89844-.89844.67676c-.27539.20703-.33105.59961-.12305.875.12305.16309.30957.24902.49902.24902.13184,0,.26367-.04102.37598-.12598l.89844-.67676.67676.89844c.12305.16309.30957.24902.49902.24902.13184,0,.26367-.04102.37598-.12598.27539-.20703.33105-.59961.12305-.875l-.67676-.89844.89844-.67676c.27539-.20703.33105-.59961.12305-.875Z" fill="var(--iconPrimary, #222)"/>
  <path d="M6.8418,12.42289l-.85938-.16699.16699-.85938c.06641-.33887-.15527-.66699-.49414-.73242-.33301-.06543-.66699.1543-.73242.49414l-.16699.85938-.85938-.16699c-.33203-.0625-.66699.1543-.73242.49414-.06641.33887.15527.66699.49414.73242l.85938.16699-.16699.85938c-.06641.33887.15527.66699.49414.73242.04004.00781.08008.01172.12012.01172.29297,0,.55469-.20703.6123-.50586l.16699-.85938.85938.16699c.04004.00781.08008.01172.12012.01172.29297,0,.55469-.20703.6123-.50586.06641-.33887-.15527-.66699-.49414-.73242Z" fill="var(--iconPrimary, #222)"/>
</svg>