<?xml version="1.0" encoding="UTF-8"?>
<svg xmlns="http://www.w3.org/2000/svg" width="20" height="20" viewBox="0 0 20 20">
  <path d="M16.75,3H3.25c-1.24023,0-2.25,1.00977-2.25,2.25v9.5c0,1.24023,1.00977,2.25,2.25,2.25h13.5c1.24023,0,2.25-1.00977,2.25-2.25V5.25c0-1.24023-1.00977-2.25-2.25-2.25ZM3.25,4.5h9.25v6.25c0,.41309-.33691.75-.75.75H2.5v-6.25c0-.41309.33691-.75.75-.75ZM17.5,14.75c0,.41309-.33691.75-.75.75H3.25c-.41309,0-.75-.33691-.75-.75v-1.75h9.25c1.24023,0,2.25-1.00977,2.25-2.25v-6.25h2.75c.41309,0,.75.33691.75.75v9.5Z" fill="var(--iconPrimary, #222)" />
  <rect x="2" y="4" width="11" height="8" fill="var(--iconPrimary, #222)" opacity=".12"/>
</svg>