<?xml version="1.0" encoding="UTF-8"?>
<svg id="g" data-name="ICONS" xmlns="http://www.w3.org/2000/svg" width="20" height="20" viewBox="0 0 20 20">
  <path d="M10.23148,15.00049h0l-5.98145-.00049c-1.24023,0-2.25-1.00928-2.25-2.25v-5.49951c0-.12354.00977-.24365.0293-.36133.06543-.40918.45605-.69043.85938-.62061.40918.06592.6875.45068.62109.85986-.00586.03955-.00977.08057-.00977.12207v5.49951c0,.41357.33691.75.75.75l5.98145.00049c.41406,0,.75.33594.75.75s-.33594.75-.75.75Z" fill="var(--iconPrimary, #222)"/>
  <path d="M17.23148,13.74072c-.04004,0-.08008-.00293-.12012-.00977-.40918-.06592-.6875-.45068-.62109-.85986.00586-.03955.00977-.07959.00977-.12061v-2.5c0-.41406.33594-.75.75-.75s.75.33594.75.75v2.5c0,.12207-.00977.24219-.0293.35986-.05957.36816-.37793.63037-.73926.63037Z" fill="var(--iconPrimary, #222)"/>
  <path d="M14.53031,5.22021l-2.5-2.5c-.29297-.29297-.76758-.29297-1.06055,0s-.29297.76758,0,1.06055l1.21973,1.21973h-2.43555c-.41406,0-.75.33594-.75.75s.33594.75.75.75h2.4353l-.88062.88037c-.29297.29297-.29297.76758,0,1.06055.14648.14648.33789.21973.53027.21973s.38379-.07324.53027-.21973l2.16113-2.16064c.14062-.14062.21973-.33154.21973-.53027s-.0791-.38965-.21973-.53027Z" fill="var(--iconPrimary, #222)"/>
  <path d="M17.25004,18c-.19238,0-.38379-.07324-.53027-.21973L2.21976,3.28027c-.29297-.29297-.29297-.76758,0-1.06055s.76758-.29297,1.06055,0l14.5,14.5c.29297.29297.29297.76758,0,1.06055-.14648.14648-.33789.21973-.53027.21973Z" fill="var(--iconPrimary, #222)"/>
</svg>