<?xml version="1.0" encoding="UTF-8"?>
<svg   xmlns="http://www.w3.org/2000/svg" width="20" height="20" viewBox="0 0 20 20">
  <path d="M8.75,7.25c-.55176,0-1,.44824-1,1v3.5c0,.55176.44824,1,1,1h2.5c.55176,0,1-.44824,1-1v-3.5c0-.55176-.44824-1-1-1h-2.5Z" fill="var(--iconPrimary, #222)" opacity=".2"/>
  <path d="M11.25,14h-2.5c-1.24023,0-2.25-1.00977-2.25-2.25v-3.5c0-1.24023,1.00977-2.25,2.25-2.25h2.5c1.24023,0,2.25,1.00977,2.25,2.25v3.5c0,1.24023-1.00977,2.25-2.25,2.25ZM8.75,7.5c-.41309,0-.75.33691-.75.75v3.5c0,.41309.33691.75.75.75h2.5c.41309,0,.75-.33691.75-.75v-3.5c0-.41309-.33691-.75-.75-.75h-2.5Z" fill="var(--iconPrimary, #222)"/>
</svg>