<?xml version="1.0" encoding="UTF-8"?>
<svg id="e" data-name="ICONS" xmlns="http://www.w3.org/2000/svg" width="20" height="20" viewBox="0 0 20 20">
  <path d="M17.25,9.5c-.41406,0-.75.33594-.75.75v2.5c0,.41309-.33691.75-.75.75H4.25c-.41309,0-.75-.33691-.75-.75v-5.5c0-.41309.33691-.75.75-.75h7.94006l-1.22034,1.21973c-.29297.29297-.29297.76758,0,1.06055.14648.14648.33789.21973.53027.21973.19141,0,.38379-.07324.53027-.21973l2.5-2.49902c.14062-.14062.21973-.33105.21973-.53027s-.0791-.38965-.21973-.53027l-2.5-2.50098c-.29199-.29199-.7666-.29395-1.06055,0-.29297.29297-.29297.76758,0,1.06055l1.21912,1.21973h-7.93884c-1.24023,0-2.25,1.00977-2.25,2.25v5.5c0,1.24023,1.00977,2.25,2.25,2.25h11.5c1.24023,0,2.25-1.00977,2.25-2.25v-2.5c0-.41406-.33594-.75-.75-.75Z" fill="var(--iconPrimary, #222)"/>
</svg>