<?xml version="1.0" encoding="UTF-8"?>
<svg xmlns="http://www.w3.org/2000/svg" width="20" height="20" viewBox="0 0 20 20">
  <rect x="7.75" y="1.75" width="4.5" height="4.5" rx="1.25" ry="1.25" fill="var(--iconPrimary, #222)" opacity=".3" stroke-width="0"/>
  <path d="M11,7h-2c-1.10303,0-2-.89746-2-2v-2c0-1.10254.89697-2,2-2h2c1.10303,0,2,.89746,2,2v2c0,1.10254-.89697,2-2,2ZM9,2.5c-.27588,0-.5.22461-.5.5v2c0,.27539.22412.5.5.5h2c.27588,0,.5-.22461.5-.5v-2c0-.27539-.22412-.5-.5-.5h-2Z" fill="var(--iconPrimary, #222)"/>
  <path d="M11,19h-2c-1.10303,0-2-.89746-2-2v-2c0-1.10254.89697-2,2-2h2c1.10303,0,2,.89746,2,2v2c0,1.10254-.89697,2-2,2ZM9,14.5c-.27588,0-.5.22461-.5.5v2c0,.27539.22412.5.5.5h2c.27588,0,.5-.22461.5-.5v-2c0-.27539-.22412-.5-.5-.5h-2Z" fill="var(--iconPrimary, #222)"/>
  <path d="M15.55908,16.36719c-.34668,0-.68896-.0918-.99756-.26953l-1.73145-1c-.4624-.2666-.79346-.69824-.93164-1.21387-.13867-.5166-.06738-1.05469.19971-1.51758l1-1.73242c.26709-.46289.69824-.79395,1.21436-.93164.51807-.13867,1.05615-.06641,1.51807.2002l1.73145,1c.4624.2666.79346.69727.93213,1.21387.13818.5166.06689,1.05469-.2002,1.51758l-1,1.73242c-.26709.46289-.69824.79395-1.21436.93164-.17188.0459-.34668.06934-.52051.06934ZM14.83057,11.13379c-.04346,0-.08691.00586-.12988.01758-.12891.03418-.23682.11719-.30371.23242l-1,1.73242c-.06689.11523-.08447.25-.0498.37891s.11719.2373.23242.30371l1.73242,1c.11621.06836.25195.08496.37939.0498.12891-.03418.23682-.11719.30371-.23242l1-1.73242c.06689-.11523.08447-.25.0498-.37891-.03418-.12891-.1167-.23633-.23242-.30371l-1.73242-1c-.07715-.04492-.16309-.06738-.24951-.06738ZM12.74756,12.74121h.00977-.00977Z" fill="var(--iconPrimary, #222)"/>
  <path d="M5.16699,10.36719c-.34717,0-.68945-.0918-.99756-.26953l-1.73145-1c-.4624-.2666-.79346-.69727-.93213-1.21387-.13818-.5166-.06689-1.05469.2002-1.51758l1-1.73242c.26709-.46289.69824-.79395,1.21436-.93164.51514-.1377,1.05518-.06641,1.51807.2002l1.73145,1c.4624.2666.79346.69824.93164,1.21387.13867.5166.06738,1.05469-.19971,1.51758l-1,1.73242c-.26709.46289-.69824.79395-1.21436.93164-.17236.0459-.34717.06934-.52051.06934ZM4.43848,5.13379c-.04346,0-.08691.00586-.12988.01758-.12891.03418-.23682.11719-.30371.23242l-1,1.73242c-.06689.11523-.08447.25-.0498.37891.03418.12891.1167.23633.23242.30371l1.73242,1c.11621.06738.25195.08594.37939.0498.12891-.03418.23682-.11719.30371-.23242l1-1.73242c.06689-.11523.08447-.25.0498-.37891s-.11719-.2373-.23242-.30371l-1.73242-1c-.07715-.04492-.16309-.06738-.24951-.06738Z" fill="var(--iconPrimary, #222)"/>
  <path d="M4.44092,16.36719c-.17383,0-.34814-.02344-.52051-.06934-.51611-.1377-.94727-.46875-1.21436-.93164l-1-1.73242c-.26709-.46289-.33838-1.00098-.2002-1.51758.13867-.5166.46973-.94727.93262-1.21387l1.73145-1c.4624-.2666,1.00195-.33789,1.51758-.2002.51611.1377.94727.46875,1.21436.93164l1,1.73242c.26709.46289.33838,1.00098.19971,1.51758-.13818.51562-.46924.94727-.93213,1.21387l-1.73145,1c-.30811.17773-.65039.26953-.99707.26953ZM5.16943,11.13379c-.08691,0-.17188.02246-.24902.06738l-1.73242,1c-.11621.06738-.19873.1748-.23291.30371-.03467.12891-.01709.26367.0498.37891l1,1.73242c.06689.11523.1748.19824.30371.23242.12793.03418.2627.01758.37891-.0498l1.73242-1c.11572-.06641.19824-.1748.23291-.30371s.01709-.26367-.0498-.37891l-1-1.73242c-.06689-.11523-.1748-.19824-.30371-.23242-.04297-.01172-.08643-.01758-.12988-.01758Z" fill="var(--iconPrimary, #222)"/>
  <path d="M14.8335,10.36719c-.17383,0-.34863-.02344-.521-.06934-.51611-.1377-.94727-.46875-1.21436-.93164l-1-1.73242c-.26709-.46289-.33838-1.00098-.19971-1.51758.13818-.51562.46924-.94727.93213-1.21387l1.73145-1c.4624-.2666,1.00098-.33789,1.51758-.2002.51611.1377.94727.46875,1.21436.93164l1,1.73242c.26709.46289.33838,1.00098.2002,1.51758-.13867.5166-.46973.94727-.93262,1.21387l-1.73145,1c-.30811.17773-.6499.26953-.99658.26953ZM15.56152,5.13379c-.08643,0-.17188.02246-.24902.06738l-1.73242,1c-.11572.06641-.19824.1748-.23291.30371s-.01709.26367.0498.37891l1,1.73242c.06689.11523.1748.19824.30371.23242.12793.03418.2627.0166.37891-.0498l1.73242-1c.11621-.06738.19873-.1748.23291-.30371.03467-.12891.01709-.26367-.0498-.37891l-1-1.73242c-.06689-.11523-.1748-.19824-.30371-.23242-.04297-.01172-.08643-.01758-.12988-.01758Z" fill="var(--iconPrimary, #222)"/>
</svg>