<?xml version="1.0" encoding="UTF-8"?>
<svg xmlns="http://www.w3.org/2000/svg" width="20" height="20" viewBox="0 0 20 20">
  <path d="M6,8h-2c-1.10303,0-2-.89746-2-2v-2c0-1.10254.89697-2,2-2h2c1.10303,0,2,.89746,2,2v2c0,1.10254-.89697,2-2,2ZM4,3.5c-.27588,0-.5.22461-.5.5v2c0,.27539.22412.5.5.5h2c.27588,0,.5-.22461.5-.5v-2c0-.27539-.22412-.5-.5-.5h-2Z" fill="var(--iconPrimary, #222)"/>
  <rect x="2.75" y="2.75" width="4.5" height="4.5" rx="1.25" ry="1.25" fill="var(--iconPrimary, #222)" opacity=".3"/>
  <path d="M16,8h-2c-1.10303,0-2-.89746-2-2v-2c0-1.10254.89697-2,2-2h2c1.10303,0,2,.89746,2,2v2c0,1.10254-.89697,2-2,2ZM14,3.5c-.27588,0-.5.22461-.5.5v2c0,.27539.22412.5.5.5h2c.27588,0,.5-.22461.5-.5v-2c0-.27539-.22412-.5-.5-.5h-2Z" fill="var(--iconPrimary, #222)"/>
  <path d="M16,18.5h-2c-1.10303,0-2-.89746-2-2v-2c0-1.10254.89697-2,2-2h2c1.10303,0,2,.89746,2,2v2c0,1.10254-.89697,2-2,2ZM14,14c-.27588,0-.5.22461-.5.5v2c0,.27539.22412.5.5.5h2c.27588,0,.5-.22461.5-.5v-2c0-.27539-.22412-.5-.5-.5h-2Z" fill="var(--iconPrimary, #222)"/>
  <path d="M6,18.5h-2c-1.10303,0-2-.89746-2-2v-2c0-1.10254.89697-2,2-2h2c1.10303,0,2,.89746,2,2v2c0,1.10254-.89697,2-2,2ZM4,14c-.27588,0-.5.22461-.5.5v2c0,.27539.22412.5.5.5h2c.27588,0,.5-.22461.5-.5v-2c0-.27539-.22412-.5-.5-.5h-2Z" fill="var(--iconPrimary, #222)"/>
  <path d="M11,13.25h-2c-1.10303,0-2-.89746-2-2v-2c0-1.10254.89697-2,2-2h2c1.10303,0,2,.89746,2,2v2c0,1.10254-.89697,2-2,2ZM9,8.75c-.27588,0-.5.22461-.5.5v2c0,.27539.22412.5.5.5h2c.27588,0,.5-.22461.5-.5v-2c0-.27539-.22412-.5-.5-.5h-2Z" fill="var(--iconPrimary, #222)"/>
</svg>