<?xml version="1.0" encoding="UTF-8"?>
<svg xmlns="http://www.w3.org/2000/svg" width="20" height="20" viewBox="0 0 20 20">
  <path d="M16.5,18.75h-3c-1.24072,0-2.25-1.00977-2.25-2.25v-3c0-1.24023,1.00928-2.25,2.25-2.25h3c1.24072,0,2.25,1.00977,2.25,2.25v3c0,1.24023-1.00928,2.25-2.25,2.25ZM13.5,12.75c-.41357,0-.75.33691-.75.75v3c0,.41309.33643.75.75.75h3c.41357,0,.75-.33691.75-.75v-3c0-.41309-.33643-.75-.75-.75h-3Z" fill="var(--iconPrimary, #222)"/>
  <path d="M7.76855,17H2.73145c-.71875,0-1.36475-.37109-1.72705-.99121-.36279-.62109-.36816-1.36621-.01465-1.99219l2.51904-4.45898c.35938-.63574,1.01025-1.01562,1.74121-1.01562s1.38184.37988,1.74121,1.01562l2.51855,4.45801c.354.62695.34863,1.37207-.01416,1.99316-.3623.62012-1.0083.99121-1.72705.99121ZM5.25,10.04199c-.08789,0-.30566.02441-.43555.25391l-2.51855,4.45801c-.12744.22559-.04004.42383.00391.49805.04346.0752.17236.24805.43164.24805h5.03711c.25928,0,.38818-.17285.43164-.24805.04395-.07422.13135-.27246.00342-.49902l-2.51807-4.45703c-.12988-.22949-.34766-.25391-.43555-.25391Z" fill="var(--iconPrimary, #222)" stroke-width="0"/>
  <path d="M11,9.5c-2.20557,0-4-1.79395-4-4s1.79443-4,4-4,4,1.79395,4,4-1.79443,4-4,4ZM11,3c-1.37842,0-2.5,1.12109-2.5,2.5s1.12158,2.5,2.5,2.5,2.5-1.12109,2.5-2.5-1.12158-2.5-2.5-2.5Z" fill="var(--iconPrimary, #222)"/>
</svg>