<?xml version="1.0" encoding="UTF-8"?>
<svg xmlns="http://www.w3.org/2000/svg" width="20" height="20" viewBox="0 0 20 20">
  <path d="M13.19024,9.12207l-4.51144-2.46043c-.66637-.36342-1.4788.11889-1.4788.87792v4.92087c0,.75903.81243,1.24135,1.4788.87792l4.51144-2.46043c.69493-.379.69493-1.37685,0-1.75585Z" fill="var(--iconPrimary, #222)"/>
  <path d="M13.32812,5.78418c-.12207.39551.10059.81543.49707.93652l3.37891,1.03711c.07324.02246.14746.0332.21973.0332.32129,0,.61816-.20703.7168-.5293l1.03809-3.37891c.12207-.39648-.10059-.81641-.49609-.9375-.40332-.12305-.81641.10156-.9375.49609l-.50464,1.64209c-1.61499-2.39087-4.29175-3.8335-7.24048-3.8335C5.1748,1.25,1.25,5.1748,1.25,10s3.9248,8.75,8.75,8.75c3.55762,0,6.73438-2.125,8.0918-5.41406.1582-.38281-.02441-.82129-.40723-.97949-.38086-.1543-.82129.02441-.97949.40723-1.125,2.72559-3.75684,4.48633-6.70508,4.48633-3.99805,0-7.25-3.25195-7.25-7.25s3.25195-7.25,7.25-7.25c2.38257,0,4.54492,1.14282,5.89258,3.03687l-1.62793-.49976c-.39941-.12207-.81543.10059-.93652.49707Z" fill="var(--iconPrimary, #222)"/>
</svg>