<?xml version="1.0" encoding="UTF-8"?>
<svg   xmlns="http://www.w3.org/2000/svg" width="20" height="20" viewBox="0 0 20 20">
  <path d="M16.34082,5.28027l-3.62109-3.62109c-.41895-.41895-.99902-.65918-1.59082-.65918h-5.87891c-1.24023,0-2.25,1.00977-2.25,2.25v12.5c0,1.24023,1.00977,2.25,2.25,2.25h9.5c1.24023,0,2.25-1.00977,2.25-2.25V6.87109c0-.5918-.24023-1.17188-.65918-1.59082ZM15.28027,6.34082c.04565.04565.07373.10376.10596.15918h-3.13623c-.41309,0-.75-.33691-.75-.75v-3.13623c.05542.0321.11353.0603.15918.10596l3.62109,3.62109ZM14.75,16.5H5.25c-.41309,0-.75-.33691-.75-.75V3.25c0-.41309.33691-.75.75-.75h4.75v3.25c0,1.24023,1.00977,2.25,2.25,2.25h3.25v7.75c0,.41309-.33691.75-.75.75Z" fill="var(--iconPrimary, #222)"/>
  <path d="M8.375,7h-1.75c-.34473,0-.625-.28027-.625-.625s.28027-.625.625-.625h1.75c.34473,0,.625.28027.625.625s-.28027.625-.625.625Z" fill="var(--iconPrimary, #222)"/>
  <path d="M8.375,5h-1.75c-.34473,0-.625-.28027-.625-.625s.28027-.625.625-.625h1.75c.34473,0,.625.28027.625.625s-.28027.625-.625.625Z" fill="var(--iconPrimary, #222)"/>
  <path d="M13.375,15h-1.75c-.34473,0-.625-.28027-.625-.625s.28027-.625.625-.625h1.75c.34473,0,.625.28027.625.625s-.28027.625-.625.625Z" fill="var(--iconPrimary, #222)"/>
  <path d="M13.375,13h-1.75c-.34473,0-.625-.28027-.625-.625s.28027-.625.625-.625h1.75c.34473,0,.625.28027.625.625s-.28027.625-.625.625Z" fill="var(--iconPrimary, #222)"/>
  <path d="M13.375,11h-1.75c-.34473,0-.625-.28027-.625-.625s.28027-.625.625-.625h1.75c.34473,0,.625.28027.625.625s-.28027.625-.625.625Z" fill="var(--iconPrimary, #222)"/>
  <path d="M8.625,15h-1.25c-.75781,0-1.375-.61719-1.375-1.375v-2.5c0-.75781.61719-1.375,1.375-1.375h1.25c.75781,0,1.375.61719,1.375,1.375v2.5c0,.75781-.61719,1.375-1.375,1.375ZM7.375,11c-.06934,0-.125.05566-.125.125v2.5c0,.06934.05566.125.125.125h1.25c.06934,0,.125-.05566.125-.125v-2.5c0-.06934-.05566-.125-.125-.125h-1.25Z" fill="var(--iconPrimary, #222)"/>
</svg>