<?xml version="1.0" encoding="UTF-8"?>
<svg xmlns="http://www.w3.org/2000/svg" width="28.00005" height="28" viewBox="0 0 28.00005 28">
  <g id="circles">
    <circle id="Ellipse_10213" data-name="Ellipse 10213" cx="14.00002" cy="14" r="14.00001" fill="#9a47e2"/>
  </g>
  <g id="ICONS">
    <rect id="S2_Icon_FileTextMapping_20_N" x="5" y="5" width="18" height="18" fill="none" opacity=".1"/>
    <g>
      <path d="M14.90176,14.675h2.35536c.29597,1.03557,1.24025,1.8,2.36964,1.8,1.36494,0,2.475-1.11006,2.475-2.475s-1.11006-2.475-2.475-2.475c-1.12939,0-2.07367.76443-2.36964,1.8h-2.35536v-1.19355c0-.10129-.01467-.19973-.02917-.29817l2.53658-2.5363c.264.12634.55591.20303.86759.20303,1.11665,0,2.025-.90879,2.025-2.025s-.90835-2.025-2.025-2.025-2.025.90879-2.025,2.025c0,.31157.07663.60348.20297.86748l-2.25203,2.25176-1.85856-1.85361c-.38188-.38057-.88989-.59062-1.42954-.59062h-2.98784c-1.11665,0-2.025.90879-2.025,2.025v6.75c0,1.11621.90835,2.025,2.025,2.025h4.95c.77673,0,1.4447-.44462,1.78429-1.08798l1.79429,1.79429c-.12667.26422-.20358.55668-.20358.86869,0,1.11621.90835,2.025,2.025,2.025s2.025-.90879,2.025-2.025-.90835-2.025-2.025-2.025c-.31119,0-.60276.07625-.86644.20237l-2.50856-2.50862v-1.51875ZM19.62676,12.875c.62051,0,1.125.50449,1.125,1.125s-.50449,1.125-1.125,1.125-1.125-.50449-1.125-1.125.50449-1.125,1.125-1.125ZM18.27676,6.8c.37222,0,.675.30322.675.675s-.30278.675-.675.675-.675-.30322-.675-.675.30278-.675.675-.675ZM12.99843,11.3h-.91093c-.43418,0-.7875-.35332-.7875-.7875v-.87649c.02988.02142.06449.0345.09097.06086l1.60746,1.60312ZM12.87676,17.6h-4.95c-.37222,0-.675-.30322-.675-.675v-6.75c0-.37178.30278-.675.675-.675h2.24824v1.0125c0,1.05469.85781,1.9125,1.9125,1.9125h1.46426v4.5c0,.37178-.30278.675-.675.675ZM18.95176,20.525c0,.37178-.30278.675-.675.675s-.675-.30322-.675-.675.30278-.675.675-.675.675.30322.675.675Z" fill="#fff"/>
      <path d="M12.20176,15.575h-3.6c-.31069,0-.5625.25225-.5625.5625s.25181.5625.5625.5625h3.6c.31069,0,.5625-.25225.5625-.5625s-.25181-.5625-.5625-.5625Z" fill="#fff"/>
      <path d="M12.20176,13.775h-3.6c-.31069,0-.5625.25225-.5625.5625s.25181.5625.5625.5625h3.6c.31069,0,.5625-.25225.5625-.5625s-.25181-.5625-.5625-.5625Z" fill="#fff"/>
    </g>
  </g>
</svg>