<?xml version="1.0" encoding="UTF-8"?>
<svg id="e" data-name="ICONS" xmlns="http://www.w3.org/2000/svg" width="20" height="20" viewBox="0 0 20 20">
  <path d="M16.34082,5.30176l-3.62109-3.62207c-.4248-.4248-.98926-.6582-1.59082-.6582h-5.87891c-1.24023,0-2.25,1.00977-2.25,2.25v12.5c0,1.24023,1.00977,2.25,2.25,2.25h3.3916c.41406,0,.75-.33594.75-.75s-.33594-.75-.75-.75h-3.3916c-.41309,0-.75-.33691-.75-.75V3.27148c0-.41309.33691-.75.75-.75h4.75v3.25c0,1.24023,1.00977,2.25,2.25,2.25h3.25v.34375c0,.41406.33594.75.75.75s.75-.33594.75-.75v-1.47266c0-.60059-.23438-1.16602-.65918-1.59082ZM11.5,5.77148v-3.13696c.05542.03198.11377.0603.15918.10571l3.62109,3.62207c.04639.04639.07446.104.10669.15918h-3.13696c-.41309,0-.75-.33691-.75-.75Z" fill="var(--iconPrimary, #222)"/>
  <path d="M15.00122,10.50049c-2.48535,0-4.5,2.01465-4.5,4.5s2.01465,4.5,4.5,4.5,4.5-2.01465,4.5-4.5-2.01465-4.5-4.5-4.5ZM17.50098,15.62598h-1.875v1.875c0,.34473-.28027.625-.625.625s-.625-.28027-.625-.625v-1.875h-1.875c-.34473,0-.625-.28027-.625-.625s.28027-.625.625-.625h1.875v-1.875c0-.34473.28027-.625.625-.625s.625.28027.625.625v1.875h1.875c.34473,0,.625.28027.625.625s-.28027.625-.625.625Z" fill="var(--iconPrimary, #222)"/>
  <path d="M8.26953,15.125h-1.14453c-.75781,0-1.375-.61719-1.375-1.375v-1.5c0-.75781.61719-1.375,1.375-1.375h1.5c.33105,0,.65137.11914.90137.33594.26074.22656.28906.62109.06348.88184-.22754.26172-.62207.28906-.88184.06348l-1.58301-.03125c-.06934,0-.125.05566-.125.125v1.5c0,.06934.05566.125.125.125h1.14453c.34473,0,.625.28027.625.625s-.28027.625-.625.625Z" fill="var(--iconPrimary, #222)"/>
  <path d="M8.38281,9.125h-2c-.34473,0-.625-.28027-.625-.625s.28027-.625.625-.625h2c.34473,0,.625.28027.625.625s-.28027.625-.625.625Z" fill="var(--iconPrimary, #222)"/>
  <path d="M8.38184,6.125h-2c-.34473,0-.625-.28027-.625-.625s.28027-.625.625-.625h2c.34473,0,.625.28027.625.625s-.28027.625-.625.625Z" fill="var(--iconPrimary, #222)"/>
</svg>