<?xml version="1.0" encoding="UTF-8"?>
<svg id="f" data-name="ICONS" xmlns="http://www.w3.org/2000/svg" width="20" height="20" viewBox="0 0 20 20">
  <path d="M14.75,18H5.25c-1.24072,0-2.25-1.00977-2.25-2.25V3.25c0-1.24023,1.00928-2.25,2.25-2.25h5.87891c.60059,0,1.16553.23438,1.59033.65918l3.62207,3.62109c.41895.41895.65869.99902.65869,1.59082v1.47754c0,.06934-.00928.13672-.02734.20117.01807.06348.02734.13086.02734.2002v7c0,1.24023-1.00928,2.25-2.25,2.25ZM5.25,2.5c-.41357,0-.75.33691-.75.75v12.5c0,.41309.33643.75.75.75h9.5c.41357,0,.75-.33691.75-.75v-7c0-.06934.00928-.13672.02734-.2002-.01807-.06445-.02734-.13184-.02734-.20117v-1.47754c0-.19727-.08008-.39062-.21973-.53027l-3.62158-3.62109c-.13965-.13965-.33301-.21973-.52979-.21973h-5.87891Z" fill="var(--iconPrimary, #222)"/>
  <path d="M9.9881,14.91236c-.23065.00813-.45538-.07387-.62661-.22862-.33033-.36505-.33033-.92102,0-1.28607.16935-.15851.39483-.24308.62664-.23504.23635-.00948.46589.08035.63302.24775.16207.1679.24916.39432.24137.62755.01238.23497-.06959.46515-.2277.6394-.17358.16474-.40786.24988-.64671.23503Z" fill="var(--iconPrimary, #222)"/>
  <path d="M9.94189,12.0918c-.41406,0-.75-.33594-.75-.75,0-.82715.06055-1.42969.87061-2.23926.58936-.58984.68359-.80762.68359-1.20215,0-.19824-.06738-.84375-.93604-.84375-.92334,0-1.04297.73242-1.05762.95703-.02734.41309-.37354.71777-.79785.69922-.41309-.02637-.72607-.38379-.69922-.79688.05371-.81641.65674-2.35938,2.55469-2.35938,1.59912,0,2.43604,1.17871,2.43604,2.34375,0,.95703-.39453,1.53418-1.12256,2.2627-.41846.41797-.43164.5498-.43164,1.17871,0,.41406-.33594.75-.75.75Z" fill="var(--iconPrimary, #222)"/>
</svg>