<?xml version="1.0" encoding="UTF-8"?>
<svg xmlns="http://www.w3.org/2000/svg" width="20" height="20" viewBox="0 0 20 20">
  <circle cx="10" cy="12.25" r=".75" fill="var(--iconPrimary, #222)"/>
  <circle cx="12.25" cy="12.25" r=".75" fill="var(--iconPrimary, #222)"/>
  <circle cx="7.75" cy="10" r=".75" fill="var(--iconPrimary, #222)"/>
  <circle cx="7.75" cy="7.75" r=".75" fill="var(--iconPrimary, #222)"/>
  <circle cx="10" cy="7.75" r=".75" fill="var(--iconPrimary, #222)"/>
  <circle cx="7.75" cy="7.75" r=".75" fill="var(--iconPrimary, #222)"/>
  <circle cx="12.25" cy="10" r=".75" fill="var(--iconPrimary, #222)"/>
  <circle cx="12.25" cy="12.25" r=".75" fill="var(--iconPrimary, #222)"/>
  <path d="M15.75,18h-6.74414c-.41406,0-.75-.33594-.75-.75s.33594-.75.75-.75h6.74414c.41357,0,.75-.33691.75-.75v-6.75c0-.41406.33594-.75.75-.75s.75.33594.75.75v6.75c0,1.24023-1.00928,2.25-2.25,2.25Z" fill="var(--iconPrimary, #222)"/>
  <path d="M2.75,11.71191c-.41406,0-.75-.33594-.75-.75v-6.71191c0-1.24023,1.00928-2.25,2.25-2.25h6.75c.41406,0,.75.33594.75.75s-.33594.75-.75.75h-6.75c-.41357,0-.75.33691-.75.75v6.71191c0,.41406-.33594.75-.75.75Z" fill="var(--iconPrimary, #222)"/>
  <path d="M17.25,2h-3.25c-.41406,0-.75.33594-.75.75s.33594.75.75.75h1.43945l-3.72168,3.72168c-.29297.29297-.29297.76758,0,1.06055.14648.14648.33838.21973.53027.21973s.38379-.07324.53027-.21973l3.72168-3.72168v1.43945c0,.41406.33594.75.75.75s.75-.33594.75-.75v-3.25c0-.41406-.33594-.75-.75-.75Z" fill="var(--iconPrimary, #222)"/>
  <path d="M8.26562,11.73438c-.29297-.29297-.76758-.29297-1.06055,0l-3.70508,3.70508v-1.43945c0-.41406-.33594-.75-.75-.75s-.75.33594-.75.75v3.25c0,.41406.33594.75.75.75h3.25c.41406,0,.75-.33594.75-.75s-.33594-.75-.75-.75h-1.43945l3.70508-3.70508c.29297-.29297.29297-.76758,0-1.06055Z" fill="var(--iconPrimary, #222)"/>
</svg>