<?xml version="1.0" encoding="UTF-8"?>
<svg   xmlns="http://www.w3.org/2000/svg" width="20" height="20" viewBox="0 0 20 20">
  <path d="M13.7002,2.50098l-1.10059-1.91504c-.20605-.35938-.66553-.48145-1.02393-.27637-.35938.20605-.48291.66504-.27686,1.02441l.17346.30176c-1.05157-.18262-2.13647-.17725-3.18518.03711-.54688.1123-1.08398.2793-1.59473.49512-.50195.21191-.98828.47559-1.4458.78418-.45166.30566-.87451.6543-1.25684,1.03711-.29297.29297-.29297.76758,0,1.06055.14648.14648.33838.21973.53027.21973s.38379-.07324.53027-.21973c.31543-.31543.66406-.60352,1.03662-.85547.37598-.25391.77539-.46973,1.18896-.64453.42139-.17871.86279-.31543,1.31152-.40723.84198-.17188,1.7157-.17871,2.56171-.04053l-.38837.22314c-.35938.20605-.48291.66504-.27686,1.02441.13867.24121.39111.37598.65088.37598.12695,0,.25537-.03223.37305-.09961l1.91553-1.10059c.17236-.09961.29883-.2627.35059-.45508.05176-.19141.02539-.39648-.07373-.56934Z" fill="var(--iconPrimary, #222)" stroke-width="0"/>
  <path d="M19.72705,11.58984c-.20459-.36035-.66211-.48633-1.02246-.28223l-.34521.19531c.08813-.49414.14062-.99756.14062-1.50293,0-.57617-.05811-1.15234-.17236-1.71191-.11182-.54492-.27881-1.08203-.49561-1.59668-.21387-.50488-.47803-.99121-.78418-1.44434-.30469-.4502-.65332-.87402-1.0376-1.25781-.29297-.29297-.76758-.29297-1.06055,0s-.29297.76758,0,1.06055c.31641.31641.604.66504.85547,1.03711.25244.37305.46924.77344.64502,1.18848.17871.42285.31592.86523.40771,1.31348.09424.46094.14209.93555.14209,1.41113,0,.36743-.03723.73218-.09369,1.09253l-.19-.33569c-.20508-.36133-.6626-.4873-1.02246-.2832-.36035.2041-.4873.66113-.2832,1.02148l1.08838,1.92285c.02631.04663.06763.07983.10254.11914.00122.00146.00214.00269.00336.00391.09485.10547.20801.19238.34674.23047.06592.01855.1333.02734.2002.02734.12842,0,.25586-.0332.36963-.09766l1.92236-1.08887c.36035-.2041.4873-.66113.2832-1.02246Z" fill="var(--iconPrimary, #222)" stroke-width="0"/>
  <path d="M16.01025,14.9502c-.29297-.29297-.76758-.29297-1.06055,0-.31543.31543-.66406.60352-1.03662.85547-.37598.25391-.77539.46973-1.18896.64453-.42139.17871-.86279.31543-1.31152.40723-.81268.16577-1.65491.177-2.47339.05371l.302-.16309c.36426-.19727.50049-.65234.30322-1.0166-.19678-.36426-.65234-.49805-1.01611-.30371l-1.94385,1.0498c-.1748.09473-.30518.25488-.3623.44531-.05664.19141-.03564.39648.05908.57129l1.05029,1.94336c.13574.25098.39355.39355.66016.39355.12061,0,.24268-.0293.35596-.08984.36475-.19727.50049-.65234.30322-1.0166l-.20105-.37207c.51141.09375,1.03119.14746,1.55017.14746.57324,0,1.14893-.05762,1.71289-.17285.54688-.1123,1.08398-.2793,1.59473-.49512.50195-.21191.98828-.47559,1.4458-.78418.45166-.30566.87451-.6543,1.25684-1.03711.29297-.29297.29297-.76758,0-1.06055Z" fill="var(--iconPrimary, #222)" stroke-width="0"/>
  <path d="M5.05029,14.9502c-.31641-.31641-.604-.66504-.85547-1.03711-.25244-.37305-.46924-.77344-.64502-1.18848-.17871-.42285-.31592-.86523-.40771-1.31348-.09424-.46094-.14209-.93555-.14209-1.41113,0-.38428.03949-.76611.10126-1.14233l.21613.38354c.1377.24414.39209.38184.65381.38184.125,0,.25146-.03125.36768-.09668.36084-.20312.48877-.66113.28516-1.02148l-1.08496-1.9248c-.09766-.17383-.26025-.30078-.45215-.35449-.18994-.05273-.39551-.02734-.56982.06934l-1.92432,1.08594c-.36084.2041-.48828.66113-.28467,1.02148.2041.36133.65967.4873,1.02197.28516l.30804-.17383c-.08618.48877-.13812.98657-.13812,1.48633,0,.57617.05811,1.15234.17236,1.71191.11182.54492.27881,1.08203.49561,1.59668.21387.50488.47803.99121.78418,1.44434.30469.4502.65332.87402,1.0376,1.25781.14648.14648.33838.21973.53027.21973s.38379-.07324.53027-.21973c.29297-.29297.29297-.76758,0-1.06055Z" fill="var(--iconPrimary, #222)" stroke-width="0"/>
</svg>