<?xml version="1.0" encoding="UTF-8"?>
<svg id="f" data-name="ICONS" xmlns="http://www.w3.org/2000/svg" width="20" height="20" viewBox="0 0 20 20">
  <path d="M8.25,10.42773c-.41406,0-.75-.33594-.75-.75v-.42773c0-.41406.33594-.75.75-.75s.75.33594.75.75v.42773c0,.41406-.33594.75-.75.75Z" fill="var(--iconPrimary, #222)"/>
  <path d="M11.25,10.42773c-.41406,0-.75-.33594-.75-.75v-.42773c0-.41406.33594-.75.75-.75s.75.33594.75.75v.42773c0,.41406-.33594.75-.75.75Z" fill="var(--iconPrimary, #222)"/>
  <path d="M5.25,18c-.41406,0-.75-.33594-.75-.75V7.75c0-.41406.33594-.75.75-.75s.75.33594.75.75v9.5c0,.41406-.33594.75-.75.75Z" fill="var(--iconPrimary, #222)"/>
  <path d="M2.25,18c-.41406,0-.75-.33594-.75-.75v-6.5c0-.41406.33594-.75.75-.75s.75.33594.75.75v6.5c0,.41406-.33594.75-.75.75Z" fill="var(--iconPrimary, #222)"/>
  <path d="M15.73047.51953l-2.47461-.01953h-.00586c-.41113,0-.74707.33203-.75.74414-.00293.41406.33008.75293.74414.75586l.55713.00439-3.95361,3.57373c-.08691.08008-.22168.08594-.31445.01758l-3.13281-2.2627c-.70996-.51367-1.69922-.41992-2.29785.2207L.7041,7.16406c-.28418.30078-.26953.77637.03223,1.05957.14453.13672.3291.2041.51367.2041.19922,0,.39844-.0791.5459-.23633l3.39941-3.61035c.08594-.0918.22656-.10547.32715-.03125l3.13184,2.2627c.66504.47949,1.58984.42871,2.19922-.12109l4.10767-3.71289-.0061.75977c-.00293.41406.33008.75293.74414.75586h.00586c.41113,0,.74707-.33203.75-.74414l.01953-2.47461c.00293-.41406-.33008-.75293-.74414-.75586Z" fill="var(--iconPrimary, #222)"/>
  <path d="M18.25,19.5h-9.5c-.68945,0-1.25-.56055-1.25-1.25v-5c0-.68945.56055-1.25,1.25-1.25h9.5c.68945,0,1.25.56055,1.25,1.25v5c0,.68945-.56055,1.25-1.25,1.25ZM9,18h9v-4.5h-9v4.5Z" fill="var(--iconPrimary, #222)"/>
  <path d="M13.5,17.125c-.75781,0-1.375-.61719-1.375-1.375s.61719-1.375,1.375-1.375,1.375.61719,1.375,1.375-.61719,1.375-1.375,1.375Z" fill="var(--iconPrimary, #222)"/>
  <circle cx="10.5" cy="15.75" r=".625" fill="var(--iconPrimary, #222)"/>
  <path d="M14.25,10.42773c-.41406,0-.75-.33594-.75-.75v-2.92773c0-.41406.33594-.75.75-.75s.75.33594.75.75v2.92773c0,.41406-.33594.75-.75.75Z" fill="var(--iconPrimary, #222)"/>
  <circle cx="16.5" cy="15.75" r=".625" fill="var(--iconPrimary, #222)"/>
</svg>