<?xml version="1.0" encoding="UTF-8"?>
<svg id="f" data-name="ICONS" xmlns="http://www.w3.org/2000/svg" width="20" height="20" viewBox="0 0 20 20">
  <path d="M9.75,18c-.41406,0-.75-.33594-.75-.75v-6.25c0-.41406.33594-.75.75-.75s.75.33594.75.75v6.25c0,.41406-.33594.75-.75.75Z" fill="var(--iconPrimary, #222)"/>
  <path d="M12.75,18c-.41406,0-.75-.33594-.75-.75v-6.25c0-.41406.33594-.75.75-.75s.75.33594.75.75v6.25c0,.41406-.33594.75-.75.75Z" fill="var(--iconPrimary, #222)"/>
  <path d="M3.75,18c-.41406,0-.75-.33594-.75-.75v-5.5c0-.41406.33594-.75.75-.75s.75.33594.75.75v5.5c0,.41406-.33594.75-.75.75Z" fill="var(--iconPrimary, #222)"/>
  <path d="M6.75,18c-.41406,0-.75-.33594-.75-.75v-8c0-.41406.33594-.75.75-.75s.75.33594.75.75v8c0,.41406-.33594.75-.75.75Z" fill="var(--iconPrimary, #222)"/>
  <path d="M15.75,18c-.41406,0-.75-.33594-.75-.75v-9c0-.41406.33594-.75.75-.75s.75.33594.75.75v9c0,.41406-.33594.75-.75.75Z" fill="var(--iconPrimary, #222)"/>
  <path d="M17.25586,2.01953l-2.47461-.01953h-.00586c-.41113,0-.74707.33203-.75.74414-.00293.41406.33008.75293.74414.75586l.61133.00488-4.0332,3.64551c-.08691.08008-.2207.08496-.31445.01758l-3.13281-2.2627c-.70898-.5127-1.69922-.41992-2.29785.2207l-3.39844,3.61035c-.28418.30078-.26953.77637.03223,1.05957.14453.13672.3291.2041.51367.2041.19922,0,.39844-.0791.5459-.23633l3.39941-3.61035c.08594-.0918.22559-.10547.32715-.03125l3.13184,2.2627c.66504.47949,1.58984.42871,2.19922-.12109l4.13257-3.73535-.00562.70996c-.00293.41406.33008.75293.74414.75586h.00586c.41113,0,.74707-.33203.75-.74414l.01953-2.47461c.00293-.41406-.33008-.75293-.74414-.75586Z" fill="var(--iconPrimary, #222)"/>
</svg>