<?xml version="1.0" encoding="UTF-8"?>
<svg   xmlns="http://www.w3.org/2000/svg" width="20" height="20" viewBox="0 0 20 20">
  <path d="M8.01562,12.12402c-.21191,0-.41504-.08984-.55762-.24805l-2.21484-2.46191c-.27734-.30859-.25195-.78223.05566-1.05957s.78125-.25195,1.05957.05566l1.59766,1.77637,3.00977-4.10449c.24316-.33398.71191-.41016,1.04785-.16113.33398.24414.40625.71387.16113,1.04785l-3.55469,4.84863c-.13281.18262-.3418.29395-.56738.30566-.01172.00098-.02441.00098-.03711.00098Z" fill="var(--iconPrimary, #222)" stroke-width="0"/>
  <path d="M8.77637,16.21094c-4.13574,0-7.5-3.36426-7.5-7.5S4.64062,1.21094,8.77637,1.21094s7.5,3.36426,7.5,7.5c0,.23047-.01074.45898-.03125.68359-.03809.41309-.41016.71094-.81543.67871-.41309-.03809-.7168-.40332-.67871-.81543.0166-.17969.02539-.36328.02539-.54688,0-3.30859-2.69141-6-6-6s-6,2.69141-6,6,2.69141,6,6,6c.10156,0,.20215-.00293.30273-.00781.40918-.01953.7666.2959.78809.70996s-.29688.7666-.70996.78809c-.12598.00684-.25391.00977-.38086.00977Z" fill="var(--iconPrimary, #222)" stroke-width="0"/>
  <path d="M13.19092,19.03298v-1.40806c-1.17432-.06445-2.10986-1.04102-2.10986-2.23242v-1.96501c0-1.23293.99949-2.23242,2.23242-2.23242h3.9541c1.23293,0,2.23242.99949,2.23242,2.23242v1.96501c0,1.22944-1.00591,2.23535-2.23535,2.23535h-1.2793l-1.94758,1.76526c-.31759.30588-.84685.08081-.84685-.36013ZM13.31348,12.69507c-.40451,0-.73242.32792-.73242.73242v1.84001c0,.40444.33091.73535.73535.73535h.62451c.41421,0,.75.33579.75.75v.03906l.25434-.2448c.27948-.269.6523-.41926,1.0402-.41926h1.28212c.40451,0,.73242-.32792.73242-.73242v-1.96501c0-.40444-.33091-.73535-.73535-.73535h-3.95117Z" fill="var(--iconPrimary, #222)" stroke-width="0"/>
</svg>