<?xml version="1.0" encoding="UTF-8"?>
<svg xmlns="http://www.w3.org/2000/svg" width="14" height="14" viewBox="0 0 14 14">
  <path d="M7.08496,9.71191h-.16992c-2.39648,0-4.3457-1.94922-4.3457-4.3457v-.16895C2.56934,2.80078,4.51855.85059,6.91504.85059h.16992c2.39648,0,4.3457,1.9502,4.3457,4.34668v.16895c0,2.39648-1.94922,4.3457-4.3457,4.3457ZM6.91504,2.10059c-1.70703,0-3.0957,1.38965-3.0957,3.09668v.16895c0,1.70703,1.38867,3.0957,3.0957,3.0957h.16992c1.70703,0,3.0957-1.38867,3.0957-3.0957v-.16895c0-1.70703-1.38867-3.09668-3.0957-3.09668h-.16992Z" fill="var(--iconPrimary, #222)"/>
  <path d="M8.37402,13.35059c-.03223,0-.06445-.00195-.0957-.00781-.2168-.0332-.39941-.17773-.48242-.37988l-1.37988-3.35645c-.13086-.31934.02148-.68457.34082-.81543.31641-.13379.68359.02051.81543.34082l.9873,2.40137.33105-.39453c.12695-.15039.32031-.23438.51367-.22168l.53418.0293-.97168-2.24609c-.1377-.31641.00781-.68457.3252-.82129s.68555.00781.82129.3252l1.37402,3.1748c.08594.19824.06348.42773-.06055.60547s-.33398.28418-.54785.2666l-1.23242-.06836-.79395.94531c-.12012.14258-.2959.22266-.47852.22266Z" fill="var(--iconPrimary, #222)"/>
  <path d="M5.62598,13.35059c-.18262,0-.3584-.08008-.47852-.22266l-.79395-.94531-1.23242.06836c-.21289.0166-.42383-.08887-.54785-.2666s-.14648-.40723-.06055-.60547l1.37402-3.1748c.13672-.31738.50391-.46289.82129-.3252.31738.13672.46289.50488.3252.82129l-.97168,2.24609.53418-.0293c.18848-.0127.38672.07129.51367.22168l.33105.39453.9873-2.40137c.13184-.31934.49805-.47266.81543-.34082.31934.13086.47168.49609.34082.81543l-1.37988,3.35645c-.08301.20215-.26562.34668-.48242.37988-.03125.00586-.06348.00781-.0957.00781Z" fill="var(--iconPrimary, #222)"/>
</svg>