<?xml version="1.0" encoding="UTF-8"?>
<svg xmlns="http://www.w3.org/2000/svg" width="20" height="20" viewBox="0 0 20 20">
  <path d="m9.54492,9.95703c-.21191,0-.41504-.08984-.55762-.24854l-1.58203-1.75879c-.27686-.30762-.25195-.78223.05615-1.05908.30615-.27686.78174-.25244,1.05908.05615l.96484,1.07275,1.99512-2.7207c.24512-.33447.71533-.40527,1.04834-.16162.33398.24512.40625.71436.16162,1.04834l-2.54053,3.46484c-.13379.18213-.34229.29443-.56738.30566-.0127.00049-.02539.00098-.0376.00098Z" fill="var(--iconPrimary, #222)"/>
  <path d="m16.34521,16.11328l-1.85022-4.2749c1.08411-1.12463,1.755-2.65039,1.755-4.33203,0-3.44629-2.80371-6.25-6.25-6.25S3.75,4.06006,3.75,7.50635c0,1.68164.6709,3.2074,1.755,4.33203l-1.85022,4.2749c-.10303.23828-.07568.51367.07324.72656.14844.21338.3916.32568.65674.32031l1.85791-.10254,1.19727,1.4248c.14355.1709.35449.26758.57422.26758.03613,0,.07227-.00244.1084-.00781.25732-.0376.47656-.20557.58008-.44434l1.29736-2.99792,1.29736,2.99792c.10352.23877.32275.40674.58008.44434.03613.00537.07227.00781.1084.00781.21973,0,.43066-.09668.57422-.26758l1.19727-1.4248,1.85791.10254c.2666.00586.5083-.10693.65674-.32031.14893-.21289.17627-.48828.07324-.72656ZM10,2.75635c2.61914,0,4.75,2.13086,4.75,4.75s-2.13086,4.75-4.75,4.75-4.75-2.13086-4.75-4.75,2.13086-4.75,4.75-4.75Zm-2.19238,13.83203l-.65771-.78271c-.15186-.18018-.37158-.271-.61572-.2666l-1.02051.05664,1.20349-2.78101c.70331.43665,1.49786.73572,2.34961.86414l-1.25916,2.90955Zm5.6582-1.04932c-.24316-.00537-.46338.08643-.61572.2666l-.65771.78271-1.25916-2.90955c.85175-.12842,1.6463-.42749,2.34961-.86414l1.20349,2.78101-1.02051-.05664Z" fill="var(--iconPrimary, #222)"/>
</svg>