<?xml version="1.0" encoding="UTF-8"?>
<svg xmlns="http://www.w3.org/2000/svg" width="14" height="14" viewBox="0 0 14 14">
  <path d="M11.4873,11.37891l-1.29297-2.98718c.76221-.78333,1.23633-1.84875,1.23633-3.02551v-.16895c0-2.39648-1.94922-4.34668-4.3457-4.34668h-.16992c-2.39648,0-4.3457,1.9502-4.3457,4.34668v.16895c0,1.17676.47412,2.24219,1.23633,3.02551l-1.29297,2.98718c-.08594.19824-.06348.42773.06055.60547s.32715.2832.54785.2666l1.23242-.06836.79395.94531c.12012.14258.2959.22266.47852.22266.03223,0,.06445-.00195.0957-.00781.2168-.0332.39941-.17773.48242-.37988l.7959-1.93604.7959,1.93604c.08301.20215.26562.34668.48242.37988.03125.00586.06348.00781.0957.00781.18262,0,.3584-.08008.47852-.22266l.79395-.94531,1.23242.06836c.22363.01758.42383-.08887.54785-.2666s.14648-.40723.06055-.60547ZM3.81934,5.19727c0-1.70703,1.38867-3.09668,3.0957-3.09668h.16992c1.70703,0,3.0957,1.38965,3.0957,3.09668v.16895c0,1.70703-1.38867,3.0957-3.0957,3.0957h-.16992c-1.70703,0-3.0957-1.38867-3.0957-3.0957v-.16895ZM5.44043,11.5332l-.33105-.39453c-.12695-.15039-.31836-.23438-.51367-.22168l-.53418.0293.77368-1.78833c.42505.23425.88672.40271,1.38306.48352l-.77783,1.89172ZM9.4043,10.91699c-.1875-.0127-.38672.07129-.51367.22168l-.33105.39453-.77783-1.89172c.49634-.08081.95801-.24927,1.38306-.48352l.77368,1.78833-.53418-.0293Z" fill="var(--iconPrimary, #222)"/>
  <path d="M6.68652,7.0791c-.17676,0-.3457-.0752-.46484-.20703l-1.08887-1.21094c-.23047-.25684-.20996-.65234.04688-.88281.25488-.23145.65137-.20996.88281.04688l.57422.63965,1.29492-1.76562c.20312-.27832.59277-.34082.87305-.13477.27832.2041.33887.59473.13477.87305l-1.74902,2.38574c-.11133.15234-.28516.24609-.47266.25488-.01074.00098-.02051.00098-.03125.00098Z" fill="var(--iconPrimary, #222)"/>
</svg>