<?xml version="1.0" encoding="UTF-8"?>
<svg xmlns="http://www.w3.org/2000/svg" width="14" height="14" viewBox="0 0 14 14">
  <path d="M11.4873,11.37891l-1.29297-2.98718c.76221-.78333,1.23633-1.84875,1.23633-3.02551v-.16895c0-2.39648-1.94922-4.34668-4.3457-4.34668h-.16992c-2.39648,0-4.3457,1.9502-4.3457,4.34668v.16895c0,1.17676.47412,2.24219,1.23633,3.02551l-1.29297,2.98718c-.08594.19824-.06348.42773.06055.60547.12305.17773.33105.2832.54785.2666l1.23242-.06836.79395.94531c.12012.14258.2959.22266.47852.22266.03223,0,.06445-.00195.0957-.00781.2168-.0332.39941-.17773.48242-.37988l.7959-1.93604.7959,1.93604c.08301.20215.26562.34668.48242.37988.03125.00586.06348.00781.0957.00781.18262,0,.3584-.08008.47852-.22266l.79395-.94531,1.23242.06836c.20996.01758.42383-.08887.54785-.2666s.14648-.40723.06055-.60547ZM3.81934,5.19727c0-1.70703,1.38867-3.09668,3.0957-3.09668h.16992c1.70703,0,3.0957,1.38965,3.0957,3.09668v.16895c0,1.70703-1.38867,3.0957-3.0957,3.0957h-.16992c-1.70703,0-3.0957-1.38867-3.0957-3.0957v-.16895ZM5.44043,11.5332l-.33105-.39453c-.12695-.15039-.32227-.23438-.51367-.22168l-.53418.0293.77368-1.78833c.42505.23425.88672.40271,1.38306.48352l-.77783,1.89172ZM9.4043,10.91699c-.19043-.0127-.38672.07129-.51367.22168l-.33105.39453-.77783-1.89172c.49634-.08081.95801-.24927,1.38306-.48352l.77368,1.78833-.53418-.0293Z" fill="var(--iconPrimary, #222)"/>
  <path d="M7.98145,7.25781l-.98535-.68945-.98828.68457c-.13281.08984-.30664.08691-.43457-.00586-.12891-.09375-.18457-.25977-.1377-.41211l.35059-1.14941-.95703-.72949c-.12695-.09668-.17871-.2627-.12891-.41406.0498-.15234.18945-.25586.34961-.25879l1.20215-.02246.39746-1.13477c.05176-.15039.19434-.25098.35352-.25098h.00098c.15918,0,.30176.10156.35352.25293l.39258,1.13672,1.20215.02734c.15918.00391.29883.1084.34766.25977.0498.15234-.00293.31836-.13086.41504l-.95898.72363.3457,1.15234c.0459.15234-.02428.34149-.1628.42033-.13439.07648-.29786.05416-.41141-.00529ZM7.21191,5.80371l.31543.2207-.11133-.36914c-.04492-.14941.00879-.3125.13379-.40723l.30566-.23047-.38379-.00879c-.15625-.00391-.29492-.10449-.3457-.25293l-.12598-.36328-.12695.3623c-.05176.14746-.18945.24805-.34668.25098l-.38477.00684.30664.23438c.12402.09473.17676.25684.13086.40723l-.1123.36816.31641-.21973c.12712-.08986.32344-.06955.42871.00098Z" fill="var(--iconPrimary, #222)"/>
</svg>