<?xml version="1.0" encoding="UTF-8"?>
<svg xmlns="http://www.w3.org/2000/svg" width="20" height="20" viewBox="0 0 20 20">
  <path d="m16.34521,16.11328l-1.85022-4.2749c1.08411-1.12463,1.755-2.65039,1.755-4.33203,0-3.44629-2.80371-6.25-6.25-6.25S3.75,4.06006,3.75,7.50635c0,1.68164.6709,3.2074,1.755,4.33203l-1.85022,4.2749c-.10303.23828-.07568.51367.07324.72656.14844.21338.3916.32568.65674.32031l1.85791-.10254,1.19727,1.4248c.14355.1709.35449.26758.57422.26758.03613,0,.07227-.00244.1084-.00781.25732-.0376.47656-.20557.58008-.44434l1.29736-2.99792,1.29736,2.99792c.10352.23877.32275.40674.58008.44434.03613.00537.07227.00781.1084.00781.21973,0,.43066-.09668.57422-.26758l1.19727-1.4248,1.85791.10254c.2666.00586.5083-.10693.65674-.32031.14893-.21289.17627-.48828.07324-.72656ZM10,2.75635c2.61914,0,4.75,2.13086,4.75,4.75s-2.13086,4.75-4.75,4.75-4.75-2.13086-4.75-4.75,2.13086-4.75,4.75-4.75Zm-2.19238,13.83203l-.65771-.78271c-.15186-.18018-.37158-.271-.61572-.2666l-1.02051.05664,1.20349-2.78101c.70331.43665,1.49786.73572,2.34961.86414l-1.25916,2.90955Zm5.6582-1.04932c-.24316-.00537-.46338.08643-.61572.2666l-.65771.78271-1.25916-2.90955c.85175-.12842,1.6463-.42749,2.34961-.86414l1.20349,2.78101-1.02051-.05664Z" fill="var(--iconPrimary, #222)"/>
  <path d="m8.58301,10.37549c-.19434,0-.38818-.06055-.55469-.18164-.3208-.23291-.46045-.63086-.35596-1.01318l.2832-1.03711-.83887-.67236c-.30908-.24756-.42969-.65137-.30713-1.02832s.45752-.63281.854-.65137l1.07324-.05078.38037-1.00586c.14014-.37061.48682-.60986.88281-.60986s.74268.23926.88281.60986l.38037,1.00586,1.07422.05078c.39551.01855.73047.27441.85303.65137s.00195.78076-.30762,1.02881l-.83838.67188.2832,1.0376c.10449.38184-.03516.77979-.35596,1.0127-.32129.23193-.74219.24219-1.07373.02441l-.75195-.49365c-.08594-.05664-.20264-.05713-.2915-.00049l-.75342.49463c-.15869.10449-.33887.15674-.51807.15674Zm-.05273-3.37354l.271.21729c.35059.28174.50049.74316.38135,1.17578l-.09131.33496.07715-.05029c.49268-.32471,1.16699-.3252,1.66357-.00049l.07666.05078-.0918-.33545c-.11865-.43213.03125-.89355.38184-1.1748l.271-.21777-.34717-.01611c-.44873-.021-.84131-.30664-1-.72754l-.12256-.32422-.12305.3252c-.1582.41992-.55078.70557-1,.72656l-.34668.01611Z" fill="var(--iconPrimary, #222)"/>
</svg>