<?xml version="1.0" encoding="UTF-8"?>
<svg id="e" data-name="ICONS" xmlns="http://www.w3.org/2000/svg" width="20" height="20" viewBox="0 0 20 20">
  <path d="M10.98535.97754h-.00293c-2.30176,0-4.16113,2.8457-4.62695,7.08203-.00159.01416-.00085.02954-.00244.04395l-.74463-.84375c-.27539-.3125-.75-.33984-1.05859-.06641-.31055.27441-.33984.74805-.06641,1.05859l1.95215,2.21094c.00415.00488.0105.00635.01489.01074.13721.15137.33032.25.55054.25.18872,0,.35645-.07617.48828-.19141.00146-.00122.00342-.00171.00488-.00293l.00171-.00146c.01611-.0144.03284-.02637.04761-.04224l2.16162-1.90845c.31055-.27441.33984-.74805.06641-1.05859-.27539-.3125-.74902-.33984-1.05859-.06641l-.86621.76465c.35693-3.21997,1.73267-5.73926,3.13574-5.73926h.00098c1.52637.00098,3.22461,3.08301,3.2207,7.50195-.00195,2.09375-.39062,4.0498-1.09473,5.50781-.61133,1.26465-1.38965,1.99023-2.13672,1.99023-1.11621.01172-2.21387-1.55078-2.7959-3.86328-.10156-.40234-.50879-.64648-.91016-.54492-.40234.10156-.64551.50879-.54492.91016.78711,3.12891,2.375,4.99707,4.24805,4.99805h.00293c1.36523,0,2.60352-1.00781,3.4873-2.83789.7998-1.65723,1.24219-3.84375,1.24414-6.1582.00391-5.04688-2.06836-9.00195-4.71875-9.00391Z" fill="var(--iconPrimary, #222)"/>
</svg>