<?xml version="1.0" encoding="UTF-8"?>
<svg xmlns="http://www.w3.org/2000/svg" width="20" height="20" viewBox="0 0 20 20">
  <path d="M19,10c0-1.91309-1.84253-3.54199-4.61536-4.38477-.84265-2.77271-2.47156-4.61523-4.38464-4.61523-2.80371,0-5,3.95312-5,9,0,.92603.07544,1.81421.21338,2.64893-1.69727-.68994-2.71338-1.69971-2.71338-2.64893,0-.74805.5752-1.35742,1.05762-1.73633.32617-.25586.38281-.72754.12695-1.05273-.25488-.3252-.72852-.38379-1.05273-.12695-1.06738.83789-1.63184,1.84668-1.63184,2.91602,0,1.91309,1.84253,3.54199,4.61536,4.38477.84265,2.77271,2.47156,4.61523,4.38464,4.61523,1.88232,0,3.50244-1.7251,4.37634-4.61255,2.77759-.84204,4.62366-2.47241,4.62366-4.38745ZM10,2.5c.9491,0,1.95886,1.01611,2.64905,2.71338-.83484-.13794-1.72302-.21338-2.64905-.21338-.91956,0-1.80139.09863-2.66016.24268.69043-1.71436,1.70581-2.74268,2.66016-2.74268ZM10,17.5c-.9491,0-1.95886-1.01611-2.64905-2.71338.83484.13794,1.72302.21338,2.64905.21338.92676,0,1.81567-.07544,2.65088-.21362-.67297,1.67261-1.65771,2.71362-2.65088,2.71362ZM10,13.5c-1.15503,0-2.21533-.12817-3.15625-.34375-.21558-.94092-.34375-2.00122-.34375-3.15625,0-1.15088.1272-2.20801.34131-3.14648.99561-.22754,2.05261-.35352,3.15869-.35352,1.15503,0,2.21533.12817,3.15625.34375.21558.94092.34375,2.00122.34375,3.15625,0,.1748-.00293.34961-.00879.52246-.01562.41406.30664.7627.7207.77734.38379.02832.76172-.30664.77734-.7207.00781-.19238.01074-.38477.01074-.5791,0-.92603-.07544-1.81421-.21338-2.64893,1.69727.68994,2.71338,1.69971,2.71338,2.64893,0,1.65527-3.08008,3.5-7.5,3.5Z" fill="var(--iconPrimary, #222)"/>
</svg>