<?xml version="1.0" encoding="UTF-8"?>
<svg id="e" data-name="ICONS" xmlns="http://www.w3.org/2000/svg" width="20" height="20" viewBox="0 0 20 20">
  <path d="M16.16211,5.51758c-1.65723-.7998-3.84375-1.24219-6.1582-1.24414h-.0166C4.94922,4.27344,1.00195,6.34473,1,8.99219c-.00195,2.30273,2.84375,4.16406,7.08203,4.62988.0144.00146.02991.00098.04431.00244l-.84412.74463c-.31055.27441-.33984.74805-.06641,1.05859.14844.16797.35547.25391.5625.25391.17676,0,.35352-.06152.49609-.1875l2.21191-1.95215c.00488-.00439.00696-.01099.01172-.01538.0564-.05127.09839-.11353.13708-.17969.00928-.01636.02307-.02905.03113-.04614.03589-.07373.05371-.15454.06372-.23926.00134-.01221.00854-.02295.00928-.03516.00012-.0022-.00098-.00439-.00098-.00659.00098-.01514.00879-.02783.00879-.04321,0-.07983-.02234-.15283-.04541-.2251-.00195-.00586-.00171-.01221-.00378-.01831-.0321-.09204-.07996-.17407-.14294-.24585-.00098-.00122-.00122-.00269-.0022-.00391l-.00146-.00171c-.0144-.01611-.02649-.03296-.04224-.04761l-1.90942-2.16162c-.27539-.31152-.75-.34082-1.05859-.06641-.31055.27441-.33984.74902-.06641,1.05859l.76514.86621c-3.22009-.35693-5.74072-1.7334-5.73975-3.13672.00098-1.52441,3.07617-3.2207,7.4873-3.2207h.01465c2.09375.00195,4.0498.39062,5.50781,1.09473,1.26562.61133,1.99121,1.39062,1.99023,2.13867-.00098,1.08984-1.55371,2.21289-3.86328,2.79395-.40234.10156-.64551.50879-.54492.91016.10156.40234.50781.64648.91016.54492,3.12891-.78711,4.99707-2.375,4.99805-4.24805.00098-1.36621-1.00684-2.60547-2.83789-3.49023Z" fill="var(--iconPrimary, #222)"/>
</svg>