<?xml version="1.0" encoding="UTF-8"?>
<svg   xmlns="http://www.w3.org/2000/svg" width="20" height="20" viewBox="0 0 20 20">
  <path d="M18.50391,7.68852c-.36523-1.00684-.91211-1.91895-1.62598-2.71191-.74023-.82227-1.62695-1.47754-2.63379-1.94824s-2.07715-.73047-3.18262-.77246c-1.06348-.04102-2.11621.125-3.12305.49023-.48535.17603-.94751.39648-1.38599.65527l.18481-1.31348c.05762-.41016-.22852-.79004-.63867-.84766-.40039-.05566-.79004.22754-.84766.63867l-.43066,3.06641c-.05762.41016.22852.78906.63867.84766l3.06641.43164c.03516.00488.07031.00684.10547.00684.36816,0,.68848-.27051.74219-.64551.05762-.41016-.22852-.78906-.63867-.84668l-1.16675-.16431c.28638-.15308.573-.30664.88257-.4187.82324-.2998,1.67773-.43164,2.55566-.40234.90234.03516,1.77832.24805,2.60352.63379.82422.38477,1.54883.9209,2.1543,1.59277.58398.64844,1.03125,1.39453,1.33008,2.21973.29883.82422.43457,1.68359.40234,2.55566-.03516.90234-.24805,1.77832-.63379,2.60352-.38477.82422-.9209,1.54883-1.59277,2.1543-.64844.58398-1.39453,1.03125-2.21973,1.33008-.82324.2998-1.67871.43262-2.55566.40234-.90234-.03516-1.77832-.24805-2.60352-.63379-.82422-.38477-1.54883-.9209-2.1543-1.59277-.547-.60742-.96191-1.30737-1.25928-2.07153.89893-.45264,1.52295-1.37451,1.52295-2.448,0-1.5166-1.2334-2.75-2.75-2.75s-2.75,1.2334-2.75,2.75c0,1.42065,1.08618,2.5791,2.46973,2.72168.01025.02954.01562.0603.02637.08984.36523,1.00684.91211,1.91895,1.62598,2.71191.74023.82227,1.62695,1.47754,2.63379,1.94824s2.07715.73047,3.18262.77246c.10254.00391.20605.00586.30859.00586.95996,0,1.90527-.16602,2.81445-.49609,1.00684-.36523,1.91895-.91211,2.71191-1.62598.82227-.74023,1.47754-1.62695,1.94824-2.63379s.73047-2.07715.77246-3.18262c.04004-1.06543-.125-2.11719-.49023-3.12305ZM2,10.50004c0-.68945.56055-1.25,1.25-1.25s1.25.56055,1.25,1.25-.56055,1.25-1.25,1.25-1.25-.56055-1.25-1.25Z" fill="var(--iconPrimary, #222)"/>
</svg>