<?xml version="1.0" encoding="UTF-8"?>
<svg id="e" data-name="ICONS" xmlns="http://www.w3.org/2000/svg" width="20" height="20" viewBox="0 0 20 20">
  <path d="M16.75,8.99902H3.25c-1.24023,0-2.25-1.00977-2.25-2.25v-.5c0-1.24023,1.00977-2.25,2.25-2.25h13.5c1.24023,0,2.25,1.00977,2.25,2.25v.5c0,1.24023-1.00977,2.25-2.25,2.25ZM3.25,5.49902c-.41309,0-.75.33691-.75.75v.5c0,.41309.33691.75.75.75h13.5c.41309,0,.75-.33691.75-.75v-.5c0-.41309-.33691-.75-.75-.75H3.25Z" fill="var(--iconPrimary, #222)"/>
  <path d="M8.25586,16H3.25c-1.24023,0-2.25-1.00977-2.25-2.25v-.5c0-1.24023,1.00977-2.25,2.25-2.25h5.82715c.41406,0,.75.33594.75.75s-.33594.75-.75.75H3.25c-.41309,0-.75.33691-.75.75v.5c0,.41309.33691.75.75.75h5.00586c.41406,0,.75.33594.75.75s-.33594.75-.75.75Z" fill="var(--iconPrimary, #222)"/>
  <path d="M15,10.5c-2.48535,0-4.5,2.01465-4.5,4.5s2.01465,4.5,4.5,4.5,4.5-2.01465,4.5-4.5-2.01465-4.5-4.5-4.5ZM18.125,15.02148c0,.34473-.28027.625-.625.625h-1.875v1.875c0,.34473-.28027.625-.625.625s-.625-.28027-.625-.625v-1.875h-1.875c-.34473,0-.625-.28027-.625-.625,0-.00391.0022-.00684.0022-.01074s-.0022-.00684-.0022-.01074c0-.34473.28027-.625.625-.625h1.875v-1.875c0-.34473.28027-.625.625-.625s.625.28027.625.625v1.875h1.875c.34473,0,.625.28027.625.625,0,.00391-.0022.00684-.0022.01074s.0022.00684.0022.01074Z" fill="var(--iconPrimary, #222)"/>
</svg>