<?xml version="1.0" encoding="UTF-8"?>
<svg id="f" data-name="ICONS" xmlns="http://www.w3.org/2000/svg" width="20" height="20" viewBox="0 0 20 20">
  <path d="M15.25195,12.49707H3.25098c-1.24023,0-2.25-1.00977-2.25-2.25v-.5c0-1.24023,1.00977-2.25,2.25-2.25h12.00098c.41406,0,.75.33594.75.75s-.33594.75-.75.75H3.25098c-.41309,0-.75.33691-.75.75v.5c0,.41309.33691.75.75.75h12.00098c.41406,0,.75.33594.75.75s-.33594.75-.75.75Z" fill="var(--iconPrimary, #222)"/>
  <path d="M12.5,19H3.25c-1.24023,0-2.25-1.00977-2.25-2.25v-.5c0-1.24023,1.00977-2.25,2.25-2.25h9.25c.41406,0,.75.33594.75.75s-.33594.75-.75.75H3.25c-.41309,0-.75.33691-.75.75v.5c0,.41309.33691.75.75.75h9.25c.41406,0,.75.33594.75.75s-.33594.75-.75.75Z" fill="var(--iconPrimary, #222)"/>
  <path d="M16.75098,2.49707h-2.18945l.71973-.71973c.29297-.29297.29297-.76758,0-1.06055s-.76758-.29297-1.06055,0l-2,2c-.29297.29297-.29297.76758,0,1.06055l2,2c.14648.14648.33789.21973.53027.21973s.38379-.07324.53027-.21973c.29297-.29297.29297-.76758,0-1.06055l-.71973-.71973h2.18945c.41309,0,.75.33691.75.75v10.25c0,.41309-.33691.75-.75.75h-1.5c-.41406,0-.75.33594-.75.75s.33594.75.75.75h1.5c1.24023,0,2.25-1.00977,2.25-2.25V4.74707c0-1.24023-1.00977-2.25-2.25-2.25Z" fill="var(--iconPrimary, #222)"/>
  <path d="M12.50098,16.49707c0-.66797.24902-1.27344.64648-1.75H3.25122c-.82837,0-1.5.67188-1.5,1.5v.5c0,.82812.67163,1.5,1.5,1.5h9.896c-.39746-.47705-.64624-1.08203-.64624-1.75Z" fill="var(--iconPrimary, #222)" isolation="isolate" opacity=".35"/>
</svg>