<?xml version="1.0" encoding="UTF-8"?>
<svg   xmlns="http://www.w3.org/2000/svg" width="20" height="20" viewBox="0 0 20 20">
  <path d="M15.75,18H4.25c-1.24072,0-2.25-1.00977-2.25-2.25V4.25c0-1.24023,1.00928-2.25,2.25-2.25h11.5c1.24072,0,2.25,1.00977,2.25,2.25v11.5c0,1.24023-1.00928,2.25-2.25,2.25ZM4.25,3.5c-.41357,0-.75.33691-.75.75v11.5c0,.41309.33643.75.75.75h11.5c.41357,0,.75-.33691.75-.75V4.25c0-.41309-.33643-.75-.75-.75H4.25Z" fill="var(--iconPrimary, #222)" stroke-width="0"/>
  <path d="M13,15h-1.75c-1.10303,0-2-.89746-2-2v-6c0-1.10254.89697-2,2-2h1.75c1.10303,0,2,.89746,2,2v6c0,1.10254-.89697,2-2,2ZM11.25,6.5c-.27588,0-.5.22461-.5.5v6c0,.27539.22412.5.5.5h1.75c.27588,0,.5-.22461.5-.5v-6c0-.27539-.22412-.5-.5-.5h-1.75Z" fill="var(--iconPrimary, #222)" stroke-width="0"/>
  <rect x="10" y="5.75" width="4.25" height="8.5" rx="1.25" ry="1.25" fill="var(--iconPrimary, #222)" opacity=".12" stroke-width="0"/>
</svg>