<?xml version="1.0" encoding="UTF-8"?>
<svg id="f" data-name="ICONS" xmlns="http://www.w3.org/2000/svg" width="20" height="20" viewBox="0 0 20 20">
  <path d="M10,7.02763c-2.20915,0-4,1.79085-4,4s1.79085,4,4,4,4-1.79085,4-4-1.79085-4-4-4ZM7.8202,12.90431c.52734-.61572,1.3093-.97906,2.14513-.95757.85992-.03309,1.66661.3386,2.20117.97363-.52957.60563-1.29877.99615-2.1665.99615-.87522,0-1.65001-.39746-2.1798-1.01221ZM9.8329,8.24768c.78114-.04617,1.45182.5497,1.49799,1.33084.00163.02789.00244.05583.00244.08377.02143.75836-.57503,1.391-1.33333,1.41423-.78114.04612-1.45182-.5497-1.49799-1.33089-.04612-.78114.5497-1.45182,1.33089-1.49794Z" fill="var(--iconPrimary, #222)"/>
  <path d="M10,5.52734c-1.37891,0-2.5-1.12109-2.5-2.5s1.12109-2.5,2.5-2.5,2.5,1.12109,2.5,2.5-1.12109,2.5-2.5,2.5ZM10,2.02734c-.55176,0-1,.44824-1,1s.44824,1,1,1,1-.44824,1-1-.44824-1-1-1Z" fill="var(--iconPrimary, #222)"/>
  <path d="M17,17.52734c-1.37891,0-2.5-1.12109-2.5-2.5s1.12109-2.5,2.5-2.5,2.5,1.12109,2.5,2.5-1.12109,2.5-2.5,2.5ZM17,14.02734c-.55176,0-1,.44824-1,1s.44824,1,1,1,1-.44824,1-1-.44824-1-1-1Z" fill="var(--iconPrimary, #222)"/>
  <path d="M3,17.52734c-1.37891,0-2.5-1.12109-2.5-2.5s1.12109-2.5,2.5-2.5,2.5,1.12109,2.5,2.5-1.12109,2.5-2.5,2.5ZM3,14.02734c-.55176,0-1,.44824-1,1s.44824,1,1,1,1-.44824,1-1-.44824-1-1-1Z" fill="var(--iconPrimary, #222)"/>
  <path d="M17.96582,11.12793c-.38672,0-.71484-.29688-.74707-.68945-.17578-2.18652-1.31543-4.15234-3.12695-5.39453-.3418-.2334-.42871-.7002-.19434-1.04199.23242-.34082.69824-.42969,1.04199-.19434,2.18652,1.49805,3.5625,3.87109,3.77539,6.50977.0332.41309-.27539.77441-.6875.80859-.02051.00098-.04102.00195-.06152.00195Z" fill="var(--iconPrimary, #222)"/>
  <path d="M10,19.77734c-1.33105,0-2.61914-.2998-3.83008-.89062-.37207-.18164-.52637-.63086-.34473-1.00293s.62891-.52637,1.00293-.34473c2.00781.98047,4.33594.98047,6.34375,0,.37305-.18359.82129-.02832,1.00293.34473.18164.37207.02734.82129-.34473,1.00293-1.21094.59082-2.49902.89062-3.83008.89062Z" fill="var(--iconPrimary, #222)"/>
  <path d="M2.03418,11.12793c-.02051,0-.04102-.00098-.06152-.00195-.41211-.03418-.7207-.39551-.6875-.80859.21289-2.63867,1.58887-5.01172,3.77539-6.50977.34082-.23535.80957-.14648,1.04199.19434.23438.3418.14746.80859-.19434,1.04199-1.81152,1.24219-2.95117,3.20801-3.12695,5.39453-.03223.3916-.36035.68945-.74707.68945Z" fill="var(--iconPrimary, #222)"/>
</svg>