<?xml version="1.0" encoding="UTF-8"?>
<svg id="e" data-name="ICONS" xmlns="http://www.w3.org/2000/svg" width="20" height="20" viewBox="0 0 20 20">
  <path d="M10,19c-1.0918,0-2.10547-.54199-2.71094-1.4502l-.06836-.10156c-.11621-.17383-.32227-.25098-.51855-.2168l-.12402.02539c-1.06836.20996-2.16992-.12012-2.94238-.89258-.77148-.77246-1.10547-1.87207-.89258-2.94238l.02441-.12305c.04102-.20117-.04297-.4043-.21289-.51758l-.10742-.07227c-.90527-.60352-1.44727-1.61719-1.44727-2.70898s.54199-2.10547,1.4502-2.71094l.10156-.06836c.17285-.11523.25684-.31836.2168-.51855l-.02539-.12402c-.21289-1.07031.12109-2.16992.89258-2.94238.77246-.77051,1.875-1.10059,2.94238-.89258l.12305.02441c.20117.04004.4043-.04297.51758-.21289l.07227-.10742c.60352-.90527,1.61719-1.44727,2.70898-1.44727s2.10547.54199,2.71094,1.4502l.06836.10156c.11621.17383.32031.24902.51855.2168l.12402-.02539c1.06836-.20898,2.1709.12012,2.94238.89258s1.10547,1.87207.89258,2.94238l-.02441.12305c-.04102.20117.04297.4043.21289.51758l.10742.07227c.90527.60352,1.44727,1.61719,1.44727,2.70898,0,1.09082-.54102,2.10352-1.44727,2.70898l-.10449.07031c-.17285.11523-.25684.31836-.2168.51855l.02539.12402c.21289,1.07031-.12109,2.16992-.89258,2.94238s-1.87305,1.10352-2.94238.89258l-.12305-.02441c-.19922-.04004-.4043.04297-.51758.21289l-.07227.10742c-.60352.90527-1.61719,1.44727-2.70898,1.44727ZM6.80469,15.7207c.66016,0,1.28516.32715,1.66211.89258l.06836.10156c.66797,1,2.26367.99707,2.92773.00293l.07227-.10742c.4502-.67578,1.26172-1.01074,2.05762-.84961l.12207.02344c.58789.11816,1.16504-.05957,1.58789-.48145.42285-.42285.59863-1.00098.48145-1.58789l-.02441-.12305c-.15918-.79883.17578-1.60742.85352-2.05859l.10449-.07031c.49707-.33203.78223-.86523.78223-1.46289s-.28516-1.13086-.78223-1.46289l-.10742-.07227c-.6748-.44922-1.00977-1.25781-.84961-2.05762l.02344-.12207c.11719-.58691-.05859-1.16504-.48145-1.58789s-1.00098-.60156-1.58789-.48145l-.12305.02441c-.80273.15918-1.60645-.17578-2.05859-.85352l-.06836-.10156c-.66797-1-2.26367-.99707-2.92773-.00293l-.07227.10742c-.44922.67578-1.25879,1.0166-2.05762.84961l-.12207-.02344c-.58887-.12109-1.16504.05859-1.58789.48145s-.59863,1.00098-.48145,1.58789l.02441.12305c.15918.79883-.17578,1.60742-.85352,2.05859l-.10156.06836c-.5.33398-.78516.86719-.78516,1.46484s.28516,1.13086.78223,1.46289l.10742.07227c.6748.44922,1.00977,1.25781.84961,2.05762l-.02344.12207c-.11719.58691.05859,1.16504.48145,1.58789s1,.60059,1.58789.48145l.12305-.02441c.13281-.02637.26562-.03906.39648-.03906Z" fill="var(--iconPrimary, #222)"/>
  <path d="M6.25,14.375c-.16016,0-.32031-.06055-.44238-.18262-.24316-.24414-.24316-.64062,0-.88477l7.5-7.5c.24414-.24414.64062-.24414.88477,0,.24316.24414.24316.64062,0,.88477l-7.5,7.5c-.12207.12207-.28223.18262-.44238.18262Z" fill="var(--iconPrimary, #222)"/>
  <path d="M7.4668,9.4248c-1.08008,0-1.95801-.87793-1.95801-1.95801s.87793-1.95801,1.95801-1.95801,1.95801.87793,1.95801,1.95801-.87793,1.95801-1.95801,1.95801ZM7.4668,6.75879c-.39062,0-.70801.31738-.70801.70801s.31738.70801.70801.70801.70801-.31738.70801-.70801-.31738-.70801-.70801-.70801Z" fill="var(--iconPrimary, #222)"/>
  <path d="M12.5332,14.49121c-1.08008,0-1.95801-.87793-1.95801-1.95801s.87793-1.95801,1.95801-1.95801,1.95801.87793,1.95801,1.95801-.87793,1.95801-1.95801,1.95801ZM12.5332,11.8252c-.39062,0-.70801.31738-.70801.70801s.31738.70801.70801.70801.70801-.31738.70801-.70801-.31738-.70801-.70801-.70801Z" fill="var(--iconPrimary, #222)"/>
</svg>