<?xml version="1.0" encoding="UTF-8"?>
<svg   xmlns="http://www.w3.org/2000/svg" width="20" height="20" viewBox="0 0 20 20">
  <path id="b"  d="m13.76246,4.45949c0,.60751-.49249,1.1-1.1,1.1-.60751,0-1.1-.49249-1.1-1.1,0-.60751.49249-1.1,1.1-1.1s1.1.49249,1.1,1.1h0" fill="var(--iconPrimary, #222)"/>
  <path d="m14.75098,1H5.25098c-1.24023,0-2.25,1.00928-2.25,2.25v6.5c0,1.24072,1.00977,2.25,2.25,2.25h9.5c1.24023,0,2.25-1.00928,2.25-2.25V3.25c0-1.24072-1.00977-2.25-2.25-2.25Zm-9.5,1.5h9.5c.41309,0,.75.33643.75.75v5.37115l-1.57227-1.53326c-.6875-.6709-1.80859-.6709-2.49609,0l-.76074.8208-2.20898-2.15332c-.6875-.6709-1.80859-.6709-2.49609,0l-1.46582,1.42914v-3.93451c0-.41357.33691-.75.75-.75Zm0,8c-.41309,0-.75-.33643-.75-.75v-.5329c.06689-.03375.13403-.06818.19043-.12335l2.32227-2.26416c.10938-.10645.29297-.10645.40234,0l2.20898,2.15283c.55371.5415,1.45703.54199,2.0127.00049l.8418-.8208c.10938-.10645.29297-.10645.40234,0l2.2627,2.20654c.00073.00073.00171.00098.00256.00171-.11682.07501-.24744.12964-.39612.12964H5.25098Z" fill="var(--iconPrimary, #222)"/>
  <path d="m14.75098,13H5.25098c-1.24023,0-2.25,1.00928-2.25,2.25v.5c0,1.24072,1.00977,2.25,2.25,2.25h9.5c1.24023,0,2.25-1.00928,2.25-2.25v-.5c0-1.24072-1.00977-2.25-2.25-2.25Zm-3.50098,1.5v2h-2.5v-2h2.5Zm-6.74902,1.25v-.5c0-.41357.33691-.75.75-.75h1.99902v2h-1.99902c-.41309,0-.75-.33643-.75-.75Zm11,0c0,.41357-.33691.75-.75.75h-2.00098v-2h2.00098c.41309,0,.75.33643.75.75v.5Z" fill="var(--iconPrimary, #222)"/>
</svg>