<?xml version="1.0" encoding="UTF-8"?>
<svg   xmlns="http://www.w3.org/2000/svg" width="20" height="20" viewBox="0 0 20 20">
  <path d="M16.75.94629h-1.5c-1.24023,0-2.25,1.00977-2.25,2.25h-4.00537c-.0293-1.21497-1.02271-2.19629-2.24463-2.19629h-3.5c-1.24023,0-2.25,1.00977-2.25,2.25v3.5c0,1.24023,1.00977,2.25,2.25,2.25h.05371v4h-.05371c-1.24023,0-2.25,1.00977-2.25,2.25v1.5c0,1.24023,1.00977,2.25,2.25,2.25h1.5c1.24023,0,2.25-1.00977,2.25-2.25v-1.5c0-1.22192-.98145-2.21533-2.19629-2.24463v-4.00537h1.94629c1.24023,0,2.25-1.00977,2.25-2.25v-2.05371h4c0,1.24023,1.00977,2.25,2.25,2.25h1.5c1.24023,0,2.25-1.00977,2.25-2.25v-1.5c0-1.24023-1.00977-2.25-2.25-2.25ZM5.5,15.25v1.5c0,.41309-.33691.75-.75.75h-1.5c-.41309,0-.75-.33691-.75-.75v-1.5c0-.41309.33691-.75.75-.75h1.5c.41309,0,.75.33691.75.75ZM7.5,6.75c0,.41309-.33691.75-.75.75h-3.5c-.41309,0-.75-.33691-.75-.75v-3.5c0-.41309.33691-.75.75-.75h3.5c.41309,0,.75.33691.75.75v3.5ZM17.5,4.69629c0,.41309-.33691.75-.75.75h-1.5c-.41309,0-.75-.33691-.75-.75v-1.5c0-.41309.33691-.75.75-.75h1.5c.41309,0,.75.33691.75.75v1.5Z" fill="var(--iconPrimary, #222)"/>
  <path d="M12.15918,19.66113c-.23047,0-.46387-.05762-.67578-.17871l-.49316-.28125c-.61719-.35156-.86426-1.13184-.56445-1.77539l.30078-.64648c-.12109-.17383-.22852-.35645-.32031-.54785l-.71191-.05566c-.70703-.05469-1.26367-.6543-1.26758-1.36426l-.00293-.56738c-.00391-.72168.53516-1.31348,1.25391-1.37695l.70996-.0625c.04492-.0957.09277-.18945.14551-.28223.05176-.09082.10938-.18164.16992-.26953l-.30762-.64355c-.30664-.63965-.06641-1.42188.54785-1.78027l.49023-.28711c.61133-.35645,1.41211-.18164,1.81836.39844l.41113.58496c.21191-.01855.42383-.01855.63379-.00293l.4043-.58887c.40137-.58398,1.19727-.76855,1.81543-.41602l.49316.28125c.61719.35156.86426,1.13184.56445,1.77539l-.30078.64648c.12109.17383.22852.35645.32031.54785l.71191.05566c.70703.05469,1.26367.6543,1.26758,1.36426l.00293.56738c.00391.72168-.53516,1.31348-1.25391,1.37695l-.70996.0625c-.04492.0957-.09277.18945-.14551.28223,0,0,0,.00098-.00098.00098-.05176.09082-.1084.18066-.16895.26855l.30762.64355c.30664.63965.06641,1.42188-.54785,1.78027l-.49023.28711c-.60938.35742-1.41113.18164-1.81836-.39844l-.41113-.58496c-.21191.01855-.42383.01953-.63379.00293l-.4043.58887c-.26367.38379-.69824.59473-1.13965.59473ZM12.12598,10.60547c-.02148,0-.04297.00488-.06152.0166l-.49121.28711c-.05566.03223-.07715.10254-.0498.16016l.47266.98926c.10547.22266.07129.48633-.08789.67383-.10645.12598-.2041.26172-.29004.41016-.08398.14746-.15039.30176-.20508.45898-.08203.23047-.29102.39258-.53418.41406l-1.09082.09668c-.06543.00586-.11426.06055-.11426.12598l.00293.56738c0,.06543.0498.11914.11523.12402l1.0918.08594c.24512.01953.45605.18066.53906.41211.11328.31543.2832.60449.50391.86133.16113.18555.19727.44922.09375.67188l-.46191.99316c-.02734.05859-.00488.12988.05078.16113l.49316.28125c.05762.03125.12891.01367.16504-.03711l.62012-.90332c.14062-.20312.38379-.30762.62695-.26172.33105.05957.66797.05957.99707-.00391.24316-.04688.48926.05371.62988.25391l.62891.89648c.03711.05371.11133.07031.16504.03711l.49121-.28711c.05566-.03223.07715-.10254.0498-.16016l-.47266-.98926c-.10547-.22266-.07129-.48633.08789-.67383.10645-.12598.2041-.26172.29004-.41016.08398-.14844.15039-.30273.20508-.45898.08203-.23047.29102-.39258.53418-.41406l1.09082-.09668c.06543-.00586.11426-.06055.11426-.12598l-.00293-.56738c0-.06543-.0498-.11914-.11523-.12402l-1.0918-.08594c-.24512-.01953-.45605-.18066-.53906-.41211-.11328-.31543-.2832-.60449-.50391-.86133-.16113-.18555-.19727-.44922-.09375-.67188l.46191-.99316c.02734-.05859.00488-.12988-.05078-.16113l-.49316-.28125c-.05957-.0332-.13086-.01465-.16504.03711l-.62012.90332c-.13965.20312-.38672.30762-.62695.26172-.33105-.05957-.66797-.05859-.99707.00391-.24121.04883-.48828-.05273-.62988-.25391l-.62891-.89648c-.02441-.03516-.06348-.05371-.10352-.05371ZM16.92383,16.16797h.00977-.00977Z" fill="var(--iconPrimary, #222)"/>
  <circle cx="13.96121" cy="14.53859" r="1.24979" fill="var(--iconPrimary, #222)"/>
</svg>