<?xml version="1.0" encoding="UTF-8"?>
<svg   xmlns="http://www.w3.org/2000/svg" width="20" height="20" viewBox="0 0 20 20">
  <path d="m11.75,14h-3.5c-1.24023,0-2.25-1.00977-2.25-2.25v-3.5c0-1.24023,1.00977-2.25,2.25-2.25h3.5c1.24023,0,2.25,1.00977,2.25,2.25v3.5c0,1.24023-1.00977,2.25-2.25,2.25Zm-3.5-6.5c-.41309,0-.75.33691-.75.75v3.5c0,.41309.33691.75.75.75h3.5c.41309,0,.75-.33691.75-.75v-3.5c0-.41309-.33691-.75-.75-.75h-3.5Z" fill="var(--iconPrimary, #222)"/>
  <path d="m16.75,17H3.25c-1.24023,0-2.25-1.00977-2.25-2.25V5.25c0-1.24023,1.00977-2.25,2.25-2.25h13.5c1.24023,0,2.25,1.00977,2.25,2.25v9.5c0,1.24023-1.00977,2.25-2.25,2.25ZM3.25,4.5c-.41309,0-.75.33691-.75.75v9.5c0,.41309.33691.75.75.75h13.5c.41309,0,.75-.33691.75-.75V5.25c0-.41309-.33691-.75-.75-.75H3.25Z" fill="var(--iconPrimary, #222)"/>
</svg>