<?xml version="1.0" encoding="UTF-8"?>
<svg   xmlns="http://www.w3.org/2000/svg" width="20" height="20" viewBox="0 0 20 20">
  <path d="m14.86035,3c-.20508,0-.40918-.08398-.55762-.24805-.14551-.16211-.34277-.25195-.55273-.25195h-7.5c-.20996,0-.40723.08984-.55273.25195-.27734.30762-.75098.33301-1.05957.05566-.30762-.27734-.33301-.75195-.05566-1.05957.42871-.47559,1.03613-.74805,1.66797-.74805h7.5c.63184,0,1.23926.27246,1.66797.74805.27734.30762.25195.78223-.05566,1.05957-.14355.12891-.32324.19238-.50195.19238Z" fill="var(--iconPrimary, #222)"/>
  <path d="m13.75,19h-7.5c-.63184,0-1.23926-.27246-1.66797-.74805-.27734-.30762-.25195-.78223.05566-1.05957s.78125-.25195,1.05957.05566c.14551.16211.34277.25195.55273.25195h7.5c.20996,0,.40723-.08984.55273-.25195.27832-.30664.75098-.33203,1.05957-.05566.30762.27734.33301.75195.05566,1.05957-.42871.47559-1.03613.74805-1.66797.74805Z" fill="var(--iconPrimary, #222)"/>
  <path d="m15.25,13.75c-.41406,0-.75-.33594-.75-.75v-6c0-.41406.33594-.75.75-.75s.75.33594.75.75v6c0,.41406-.33594.75-.75.75Z" fill="var(--iconPrimary, #222)"/>
  <path d="m4.75,13.75c-.41406,0-.75-.33594-.75-.75v-6c0-.41406.33594-.75.75-.75s.75.33594.75.75v6c0,.41406-.33594.75-.75.75Z" fill="var(--iconPrimary, #222)"/>
  <path d="m16.75,16H3.25c-1.24023,0-2.25-1.00977-2.25-2.25v-7.5c0-1.24023,1.00977-2.25,2.25-2.25h13.5c1.24023,0,2.25,1.00977,2.25,2.25v7.5c0,1.24023-1.00977,2.25-2.25,2.25ZM3.25,5.5c-.41309,0-.75.33691-.75.75v7.5c0,.41309.33691.75.75.75h13.5c.41309,0,.75-.33691.75-.75v-7.5c0-.41309-.33691-.75-.75-.75H3.25Z" fill="var(--iconPrimary, #222)"/>
</svg>