<?xml version="1.0" encoding="UTF-8"?>
<svg   xmlns="http://www.w3.org/2000/svg" width="20" height="20" viewBox="0 0 20 20">
  <rect x="9.97664" y="8.98832" width="1.02336" height="1.02336" rx=".34112" ry=".34112" fill="var(--iconPrimary, #222)" stroke-width="0"/>
  <rect x="8.23832" y="8.98832" width="1.02336" height="1.02336" rx=".34112" ry=".34112" fill="var(--iconPrimary, #222)" stroke-width="0"/>
  <rect x="9.98832" y="10.73832" width="1.02336" height="1.02336" rx=".34112" ry=".34112" fill="var(--iconPrimary, #222)" stroke-width="0"/>
  <path d="M14.91651,2.25024h-.03241l.5578-.55762c.24414-.24414.24414-.64062,0-.88477s-.63965-.24414-.88379,0l-1.75,1.75c-.24414.24414-.24414.64062,0,.88477l1.75,1.75c.12207.12207.28174.18262.44189.18262s.31982-.06055.44189-.18262c.24414-.24414.24414-.64062,0-.88477l-.5578-.55762h.03241c1.42432,0,2.5835,1.15918,2.5835,2.58301,0,.41406.33594.75.75.75s.75-.33594.75-.75c0-2.25098-1.83203-4.08301-4.0835-4.08301h.00001Z" fill="var(--iconPrimary, #222)" stroke-width="0"/>
  <path d="M7.1919,16.55786l-1.75-1.75c-.24414-.24414-.63965-.24414-.88379,0s-.24414.64062,0,.88477l.5578.55762h-.03241c-1.42432,0-2.5835-1.15918-2.5835-2.58301,0-.41406-.33594-.75-.75-.75s-.75.33594-.75.75c0,2.25098,1.83203,4.08301,4.0835,4.08301h.03241l-.5578.55762c-.24414.24414-.24414.64062,0,.88477.12207.12207.28174.18262.44189.18262s.31982-.06055.44189-.18262l1.75-1.75c.24414-.24414.24414-.64062,0-.88477h.00001Z" fill="var(--iconPrimary, #222)" stroke-width="0"/>
  <path d="M12.25,5.5h-4.5c-1.24072,0-2.25,1.00977-2.25,2.25v4.5c0,1.24023,1.00928,2.25,2.25,2.25h4.5c1.24072,0,2.25-1.00977,2.25-2.25v-4.5c0-1.24023-1.00928-2.25-2.25-2.25ZM13,12.25c0,.41309-.33643.75-.75.75h-1.23834v-.18225c0-.18835-.15271-.34119-.34113-.34119h-.34106c-.18842,0-.34113.15283-.34113.34119v.18225h-2.23834c-.41357,0-.75-.33691-.75-.75v-2.23828h.18225c.18835,0,.34113-.15283.34113-.34119v-.34119c0-.18823-.15277-.34106-.34113-.34106h-.18225v-1.23828c0-.41309.33643-.75.75-.75h4.5c.41357,0,.75.33691.75.75v4.5Z" fill="var(--iconPrimary, #222)" stroke-width="0"/>
</svg>