<?xml version="1.0" encoding="UTF-8"?>
<svg   xmlns="http://www.w3.org/2000/svg" width="20" height="20" viewBox="0 0 20 20">
  <path d="M14.25,8h1.5c1.24072,0,2.25-1.00977,2.25-2.25v-1.5c0-1.24023-1.00928-2.25-2.25-2.25h-1.5c-1.23505,0-2.23907,1.00098-2.24829,2.2334h-4.00342c-.00922-1.23242-1.01324-2.2334-2.24829-2.2334h-1.5c-1.24072,0-2.25,1.00977-2.25,2.25v1.5c0,1.15466.87811,2.09839,2,2.22461v5.52539c0,1.24023,1.00928,2.25,2.25,2.25h5.75c0,1.24023,1.00928,2.25,2.25,2.25h1.5c1.24072,0,2.25-1.00977,2.25-2.25v-1.5c0-1.24023-1.00928-2.25-2.25-2.25h-1.5c-1.24072,0-2.25,1.00977-2.25,2.25h-5.75c-.41357,0-.75-.33691-.75-.75v-5.5h.25c1.24072,0,2.25-1.00977,2.25-2.25v-.0166h4v.0166c0,1.24023,1.00928,2.25,2.25,2.25ZM13.5,14.25c0-.41309.33643-.75.75-.75h1.5c.41357,0,.75.33691.75.75v1.5c0,.41309-.33643.75-.75.75h-1.5c-.41357,0-.75-.33691-.75-.75v-1.5ZM13.5,4.25c0-.41309.33643-.75.75-.75h1.5c.41357,0,.75.33691.75.75v1.5c0,.41309-.33643.75-.75.75h-1.5c-.41357,0-.75-.33691-.75-.75v-1.5ZM6.5,5.75c0,.41309-.33643.75-.75.75h-1.5c-.41357,0-.75-.33691-.75-.75v-1.5c0-.41309.33643-.75.75-.75h1.5c.41357,0,.75.33691.75.75v1.5Z" fill="var(--iconPrimary, #222)"/>
  <rect x="2.75" y="2.75" width="4.5" height="4.5" rx="1.5" ry="1.5" transform="translate(0 10) rotate(-90)" fill="var(--iconPrimary, #222)" opacity=".2"/>
</svg>