<?xml version="1.0" encoding="UTF-8"?>
<svg   xmlns="http://www.w3.org/2000/svg" width="20" height="20" viewBox="0 0 20 20">
  <path d="M10,12.75004c-1.5166,0-2.75-1.2334-2.75-2.75s1.2334-2.75,2.75-2.75,2.75,1.2334,2.75,2.75-1.2334,2.75-2.75,2.75ZM10,8.75004c-.68945,0-1.25.56055-1.25,1.25s.56055,1.25,1.25,1.25,1.25-.56055,1.25-1.25-.56055-1.25-1.25-1.25Z" fill="var(--iconPrimary, #222)"/>
  <path d="M2.75,7.25004c-.41406,0-.75-.33594-.75-.75v-3.75c0-.41406.33594-.75.75-.75h3.75c.41406,0,.75.33594.75.75s-.33594.75-.75.75h-3v3c0,.41406-.33594.75-.75.75Z" fill="var(--iconPrimary, #222)"/>
  <path d="M17.25,18.00004h-3.75c-.41406,0-.75-.33594-.75-.75s.33594-.75.75-.75h3v-3c0-.41406.33594-.75.75-.75s.75.33594.75.75v3.75c0,.41406-.33594.75-.75.75Z" fill="var(--iconPrimary, #222)"/>
  <path d="M17.78027,2.21977c-.29297-.29297-.76758-.29297-1.06055,0l-2.46973,2.46973v-1.18945c0-.41406-.33594-.75-.75-.75s-.75.33594-.75.75v3c0,.41406.33594.75.75.75h3c.41406,0,.75-.33594.75-.75s-.33594-.75-.75-.75h-1.18945l2.46973-2.46973c.29297-.29297.29297-.76758,0-1.06055Z" fill="var(--iconPrimary, #222)"/>
  <path d="M6.5,12.75004h-3c-.41406,0-.75.33594-.75.75s.33594.75.75.75h1.18945l-2.46973,2.46973c-.29297.29297-.29297.76758,0,1.06055.14648.14648.33838.21973.53027.21973s.38379-.07324.53027-.21973l2.46973-2.46973v1.18945c0,.41406.33594.75.75.75s.75-.33594.75-.75v-3c0-.41406-.33594-.75-.75-.75Z" fill="var(--iconPrimary, #222)"/>
  <path d="M17.25,12.75004c-.41406,0-.75.33594-.75.75v3h-3c-.41406,0-.75.33594-.75.75s.33594.75.75.75h3.75c.41406,0,.75-.33594.75-.75v-3.75c0-.41406-.33594-.75-.75-.75Z" fill="var(--iconPrimary, #222)"/>
</svg>