<?xml version="1.0" encoding="UTF-8"?>
<svg id="f" data-name="ICONS" xmlns="http://www.w3.org/2000/svg" width="20" height="20" viewBox="0 0 20 20">
  <path d="M14.25,5h-5.5c-.41406,0-.75.33594-.75.75s.33594.75.75.75h5.5c.41406,0,.75-.33594.75-.75s-.33594-.75-.75-.75Z" fill="var(--iconPrimary, #222)"/>
  <path d="M14.25,8h-5.5c-.41406,0-.75.33594-.75.75s.33594.75.75.75h5.5c.41406,0,.75-.33594.75-.75s-.33594-.75-.75-.75Z" fill="var(--iconPrimary, #222)"/>
  <path d="M19.25,12.5h-1.25V4.25c0-1.79199-1.45801-3.25-3.25-3.25H3.7998c-.00592,0-.01074.00317-.0166.00342-.01135-.00024-.02185-.00342-.0332-.00342-1.5166,0-2.75,1.2334-2.75,2.75391l.01123,2c.00244.41309.3374.74609.75.74609h3.23877v8.75c0,1.57324,1.3584,2.80957,2.92188,2.74512.0293.00293.05908.00488.08936.00488h9.23877c1.5166,0,2.75-1.2334,2.75-2.75v-2c0-.41406-.33594-.75-.75-.75ZM2.5,3.75c0-.68945.56055-1.25,1.25-1.25s1.25.56055,1.25,1.25v1.25h-2.49316l-.00684-1.25ZM9,13.25v2c0,.68945-.56055,1.25-1.25,1.25s-1.25-.56055-1.25-1.25V3.75c0-.45239-.12024-.87329-.31451-1.25h8.56451c.96484,0,1.75.78516,1.75,1.75v8.25h-6.75c-.41406,0-.75.33594-.75.75ZM18.5,15.25c0,.68945-.56055,1.25-1.25,1.25h-7.05078c.19238-.375.30078-.7998.30078-1.25v-1.25h8v1.25Z" fill="var(--iconPrimary, #222)"/>
</svg>