<?xml version="1.0" encoding="UTF-8"?>
<svg xmlns="http://www.w3.org/2000/svg" width="28.00005" height="28" viewBox="0 0 28.00005 28">
  <g id="circles">
    <circle id="Ellipse_10213" data-name="Ellipse 10213" cx="14.00002" cy="14" r="14.00001" fill="#b539c8"/>
  </g>
  <g id="ICONS">
    <rect id="S2_Icon_AIGenRevenue_20_N" x="5" y="5" width="18" height="18" fill="none" opacity=".1"/>
    <g>
      <path d="M12.425,12.65c-.37266,0-.675.30234-.675.675v4.45957c0,.37266.30234.675.675.675s.675-.30234.675-.675v-4.45957c0-.37266-.30234-.675-.675-.675Z" fill="#fff"/>
      <path d="M14.45,13.325v.76904c0,.37266.30234.675.675.675s.675-.30234.675-.675v-.76904c0-.37266-.30234-.675-.675-.675s-.675.30234-.675.675Z" fill="#fff"/>
      <path d="M9.725,11.3c-.37266,0-.675.30234-.675.675v7.2c0,.37266.30234.675.675.675s.675-.30234.675-.675v-7.2c0-.37266-.30234-.675-.675-.675Z" fill="#fff"/>
      <path d="M17.825,10.4c-.37266,0-.675.30234-.675.675v1.67256c0,.37266.30234.675.675.675s.675-.30234.675-.675v-1.67256c0-.37266-.30234-.675-.675-.675Z" fill="#fff"/>
      <path d="M9.67578,9.18799c.07734-.08262.20391-.09492.29443-.02813l2.81865,2.03643c.59854.43154,1.43086.38584,1.9793-.10898l3.71931-3.36182-.00505.63896c-.00264.37266.29707.67764.66973.68027h.00527c.37002,0,.67236-.29883.675-.66973l.01758-2.22715c.00264-.37266-.29707-.67764-.66973-.68027l-2.22715-.01758h-.00527c-.37002,0-.67236.29883-.675.66973-.00264.37266.29707.67764.66973.68027l.5502.00439-3.62988,3.28096c-.07822.07207-.19863.07646-.28301.01582l-2.81953-2.03643c-.63809-.4623-1.53018-.37793-2.06807.19863l-3.05859,3.24932c-.25576.2707-.24258.69873.029.95361.13008.12305.29619.18369.4623.18369.1793,0,.35859-.07119.49131-.2127l3.05947-3.24932Z" fill="#fff"/>
      <path d="M16.69121,20.32549l.18369-.84463c.06152-.28652-.06855-.58096-.32256-.72773-.25313-.14678-.57393-.11338-.79102.08438l-.64072.58096-.84551-.18281c-.28564-.05801-.58008.06855-.72686.32256s-.1125.57393.08437.79102l.58096.63984-.18369.84551c-.06152.2874.06855.58096.32256.72773.10459.06064.22148.09053.3375.09053.16348,0,.32607-.05977.45352-.1749l.64072-.58096.84551.18281c.28389.05889.58008-.06855.72686-.32256s.1125-.57305-.08438-.79102l-.58096-.64072Z" fill="#fff"/>
      <path d="M22.31709,17.39346l-.94131-1.03799.29531-1.36934c.0835-.38145-.08789-.76904-.42627-.96504-.33926-.19687-.76113-.15117-1.05117.11162l-1.03799.94131-1.37109-.29707c-.37793-.08086-.76904.09053-.96328.42891-.19512.3375-.15117.7585.11162,1.05029l.94131,1.03711-.29531,1.36934c-.0835.38232.08877.7708.42803.96592.13975.08086.29443.12041.44824.12041.21709,0,.43242-.0791.60117-.23291l1.03799-.94131,1.37109.29707c.37969.07998.76904-.09141.96416-.42979.19424-.3375.14941-.75937-.1125-1.04854ZM20.26133,17.22998c-.34893-.07471-.71982.02285-.98525.26455l-.07998.07295.02197-.10283c.07734-.35068-.02109-.71982-.26191-.98789-.00088-.00088-.00176-.00088-.00176-.00176l-.07207-.0791.10635.02285c.3498.07734.7207-.02285.98525-.26455l.07998-.07295-.02197.10283c-.07822.35244.02109.72246.26367.98965l.07207.0791-.10635-.02285Z" fill="#fff"/>
      <path d="M7.025,13.55c-.37266,0-.675.30234-.675.675v4.95c0,.37266.30234.675.675.675s.675-.30234.675-.675v-4.95c0-.37266-.30234-.675-.675-.675Z" fill="#fff"/>
    </g>
  </g>
</svg>