<?xml version="1.0" encoding="UTF-8"?>
<svg xmlns="http://www.w3.org/2000/svg" width="14" height="14" viewBox="0 0 14 14">
  <path d="M13.03223,12.14746l-3.09839-3.09839c.65808-.84668,1.06616-1.89624,1.06616-3.04907,0-2.75684-2.24316-5-5-5S1,3.24316,1,6s2.24316,5,5,5c1.15283,0,2.20239-.40808,3.04907-1.06616l3.09839,3.09839c.12207.12207.28223.18262.44238.18262s.32031-.06055.44238-.18262c.24316-.24414.24316-.64062,0-.88477ZM2.25,6c0-2.06738,1.68262-3.75,3.75-3.75s3.75,1.68262,3.75,3.75-1.68262,3.75-3.75,3.75-3.75-1.68262-3.75-3.75Z" fill="var(--iconPrimary, #222)"/>
</svg>