<?xml version="1.0" encoding="UTF-8"?>
<svg id="f" data-name="ICONS" xmlns="http://www.w3.org/2000/svg" width="20" height="20" viewBox="0 0 20 20">
  <path d="M16.04492,3.12988l-5.27881-1.90137c-.49512-.17773-1.03906-.17676-1.53418.00391l-5.23926,1.91211c-.89258.31934-1.49268,1.1709-1.49268,2.11914v4.33984c0,6.92285,6.53418,9.13379,7.2793,9.36328.07178.02246.14648.0332.2207.0332.08203,0,.16406-.01367.24268-.04004.07275-.02539,7.25732-2.56055,7.25732-9.35645v-4.36914c0-.92383-.57861-1.7666-1.45508-2.10449ZM16,9.5791v.02441c0,.05273-.008.10046-.00903.15259-.09741,5.02417-4.83832,7.2312-5.99097,7.69238-.00446.00183-.01129.00488-.01562.00659-1.24219-.43848-5.98438-2.46387-5.98438-7.85156v-4.33984c0-.31641.2002-.60059.50293-.70898l5.24268-1.91309c.0824-.02979.16815-.04492.25439-.04529.00116,0,.00226-.00061.00342-.00061.08594,0,.17236.01465.25439.04492l5.26367,1.89551c.28613.11035.47852.39062.47852.69824v4.34473Z" fill="var(--iconPrimary, #222)"/>
  <path d="M15.52148,4.53613l-5.26367-1.89551c-.08203-.03027-.16846-.04492-.25439-.04492-.00116,0-.00226.00061-.00342.00061v14.85217c1.15265-.46118,5.89355-2.66821,5.99097-7.69238.00116-.0603.00903-.11584.00903-.177v-4.34473c0-.30762-.19238-.58789-.47852-.69824Z" fill="var(--iconPrimary, #222)" opacity=".2"/>
</svg>