<?xml version="1.0" encoding="UTF-8"?>
<svg id="e" data-name="ICONS" xmlns="http://www.w3.org/2000/svg" width="20" height="20" viewBox="0 0 20 20">
  <path d="M3.75,9h-1.5c-1.24072,0-2.25-1.00977-2.25-2.25v-2.5c0-1.24023,1.00928-2.25,2.25-2.25h1.5c1.24072,0,2.25,1.00977,2.25,2.25v2.5c0,1.24023-1.00928,2.25-2.25,2.25ZM2.25,3.5c-.41357,0-.75.33691-.75.75v2.5c0,.41309.33643.75.75.75h1.5c.41357,0,.75-.33691.75-.75v-2.5c0-.41309-.33643-.75-.75-.75h-1.5Z" fill="var(--iconPrimary, #222)"/>
  <path d="M10.75,9h-1.5c-1.24072,0-2.25-1.00977-2.25-2.25v-2.5c0-1.24023,1.00928-2.25,2.25-2.25h1.5c1.24072,0,2.25,1.00977,2.25,2.25v2.5c0,1.24023-1.00928,2.25-2.25,2.25ZM9.25,3.5c-.41357,0-.75.33691-.75.75v2.5c0,.41309.33643.75.75.75h1.5c.41357,0,.75-.33691.75-.75v-2.5c0-.41309-.33643-.75-.75-.75h-1.5Z" fill="var(--iconPrimary, #222)"/>
  <path d="M17.75,9h-1.5c-1.24072,0-2.25-1.00977-2.25-2.25v-2.5c0-1.24023,1.00928-2.25,2.25-2.25h1.5c1.24072,0,2.25,1.00977,2.25,2.25v2.5c0,1.24023-1.00928,2.25-2.25,2.25ZM16.25,3.5c-.41357,0-.75.33691-.75.75v2.5c0,.41309.33643.75.75.75h1.5c.41357,0,.75-.33691.75-.75v-2.5c0-.41309-.33643-.75-.75-.75h-1.5Z" fill="var(--iconPrimary, #222)"/>
  <path d="M10.75,18h-1.5c-1.24072,0-2.25-1.00977-2.25-2.25v-2.5c0-1.24023,1.00928-2.25,2.25-2.25h1.5c1.24072,0,2.25,1.00977,2.25,2.25v2.5c0,1.24023-1.00928,2.25-2.25,2.25ZM9.25,12.5c-.41357,0-.75.33691-.75.75v2.5c0,.41309.33643.75.75.75h1.5c.41357,0,.75-.33691.75-.75v-2.5c0-.41309-.33643-.75-.75-.75h-1.5Z" fill="var(--iconPrimary, #222)"/>
</svg>