<?xml version="1.0" encoding="UTF-8"?>
<svg xmlns="http://www.w3.org/2000/svg" width="20" height="20" viewBox="0 0 20 20">
  <path d="m8.25,9h7.5c1.24072,0,2.25-1.00977,2.25-2.25v-2.5c0-1.24023-1.00928-2.25-2.25-2.25h-7.5c-1.24072,0-2.25,1.00977-2.25,2.25v.5h-1.75c-1.24072,0-2.25,1.00977-2.25,2.25v6c0,1.24023,1.00928,2.25,2.25,2.25h1.75v.5c0,1.24023,1.00928,2.25,2.25,2.25h7.5c1.24072,0,2.25-1.00977,2.25-2.25v-2.5c0-1.24023-1.00928-2.25-2.25-2.25h-7.5c-1.24072,0-2.25,1.00977-2.25,2.25v.5h-1.75c-.41357,0-.75-.33691-.75-.75v-6c0-.41309.33643-.75.75-.75h1.75v.5c0,1.24023,1.00928,2.25,2.25,2.25Zm-.75,4.25c0-.41309.33643-.75.75-.75h7.5c.41357,0,.75.33691.75.75v2.5c0,.41309-.33643.75-.75.75h-7.5c-.41357,0-.75-.33691-.75-.75v-2.5Zm0-9c0-.41309.33643-.75.75-.75h7.5c.41357,0,.75.33691.75.75v2.5c0,.41309-.33643.75-.75.75h-7.5c-.41357,0-.75-.33691-.75-.75v-2.5Z" fill="var(--iconPrimary, #222)" stroke-width="0"/>
</svg>