<?xml version="1.0" encoding="UTF-8"?>
<svg id="e" data-name="ICONS" xmlns="http://www.w3.org/2000/svg" width="20" height="20" viewBox="0 0 20 20">
  <path d="M16.24805,17.99805H3.74805c-1.24072,0-2.25-1.00977-2.25-2.25v-3c0-1.24023,1.00928-2.25,2.25-2.25h12.5c1.24072,0,2.25,1.00977,2.25,2.25v3c0,1.24023-1.00928,2.25-2.25,2.25ZM3.74805,11.99805c-.41357,0-.75.33691-.75.75v3c0,.41309.33643.75.75.75h12.5c.41357,0,.75-.33691.75-.75v-3c0-.41309-.33643-.75-.75-.75H3.74805Z" fill="var(--iconPrimary, #222)"/>
  <path d="M16.24805,9.49805h-2.5c-1.24072,0-2.25-1.00977-2.25-2.25v-3c0-1.24023,1.00928-2.25,2.25-2.25h2.5c1.24072,0,2.25,1.00977,2.25,2.25v3c0,1.24023-1.00928,2.25-2.25,2.25ZM12.99805,4.24985v2.9982c0,.41309.33643.75.75.75h2.5c.41357,0,.75-.33691.75-.75v-3c0-.41309-.33643-.75-.75-.75h-2.5c-.41357,0-.75.33691-.75.75v.0018Z" fill="var(--iconPrimary, #222)"/>
  <path d="M3.49805,9.49805c-1.10303,0-2-.89746-2-2v-3.5c0-1.10254.89697-2,2-2s2,.89746,2,2v3.5c0,1.10254-.89697,2-2,2ZM3.99805,3.99805c0-.27539-.22412-.5-.5-.5s-.5.22461-.5.5v3.5c0,.27539.22412.5.5.5s.5-.22461.5-.5v-3.5Z" fill="var(--iconPrimary, #222)"/>
  <path d="M8.49805,9.49805c-1.10303,0-2-.89746-2-2v-3.5c0-1.10254.89697-2,2-2s2,.89746,2,2v3.5c0,1.10254-.89697,2-2,2ZM8.49805,3.49805c-.27588,0-.5.22461-.5.5v3.5c0,.27539.22412.5.5.5s.5-.22461.5-.5v-3.5c0-.27539-.22412-.5-.5-.5Z" fill="var(--iconPrimary, #222)"/>
</svg>