<?xml version="1.0" encoding="UTF-8"?>
<svg xmlns="http://www.w3.org/2000/svg" width="14" height="14" viewBox="0 0 14 14">
  <path d="M2.7373,4.28906h1.2793c.08459.9563.88086,1.71094,1.8584,1.71094h5.25c1.03369,0,1.875-.84082,1.875-1.875v-1.25c0-1.03418-.84131-1.875-1.875-1.875h-5.25c-1.03369,0-1.875.84082-1.875,1.875v.16406h-1.2627c-.95801,0-1.7373.7793-1.7373,1.73633v4.44922c0,.95703.7793,1.73633,1.7373,1.73633h1.2627v.16406c0,1.03418.84131,1.875,1.875,1.875h5.25c1.03369,0,1.875-.84082,1.875-1.875v-1.25c0-1.03418-.84131-1.875-1.875-1.875h-5.25c-.97754,0-1.7738.75464-1.8584,1.71094h-1.2793c-.26855,0-.4873-.21777-.4873-.48633v-4.44922c0-.26855.21875-.48633.4873-.48633ZM5.25,2.875c0-.34473.28027-.625.625-.625h5.25c.34473,0,.625.28027.625.625v1.25c0,.34473-.28027.625-.625.625h-5.25c-.34473,0-.625-.28027-.625-.625v-1.25ZM5.25,9.875c0-.34473.28027-.625.625-.625h5.25c.34473,0,.625.28027.625.625v1.25c0,.34473-.28027.625-.625.625h-5.25c-.34473,0-.625-.28027-.625-.625v-1.25Z" fill="var(--iconPrimary, #222)"/>
</svg>