<?xml version="1.0" encoding="UTF-8"?>
<svg xmlns="http://www.w3.org/2000/svg" width="20" height="20" viewBox="0 0 20 20">
  <path d="M14,19H6c-2.75684,0-5-2.24316-5-5V6C1,3.24316,3.24316,1,6,1h8c2.75684,0,5,2.24316,5,5v8c0,2.75684-2.24316,5-5,5ZM6,2.5c-1.92969,0-3.5,1.57031-3.5,3.5v8c0,1.92969,1.57031,3.5,3.5,3.5h8c1.92969,0,3.5-1.57031,3.5-3.5V6c0-1.92969-1.57031-3.5-3.5-3.5H6Z" fill="var(--iconPrimary, #222)" opacity=".1"/>
  <path d="M14,17.5H6c-1.92969,0-3.5-1.57031-3.5-3.5V6c0-1.92969,1.57031-3.5,3.5-3.5h8c1.92969,0,3.5,1.57031,3.5,3.5v8c0,1.92969-1.57031,3.5-3.5,3.5ZM6,4c-1.10303,0-2,.89746-2,2v8c0,1.10254.89697,2,2,2h8c1.10303,0,2-.89746,2-2V6c0-1.10254-.89697-2-2-2H6Z" fill="var(--iconPrimary, #222)" opacity=".3"/>
  <path d="M4.75,6.73535c-.41406,0-.75-.33594-.75-.75,0-1.09473.89062-1.98535,1.98535-1.98535.41406,0,.75.33594.75.75s-.33594.75-.75.75c-.26758,0-.48535.21777-.48535.48535,0,.41406-.33594.75-.75.75Z" fill="var(--iconPrimary, #222)"/>
  <path d="M10.61768,5.5h-1.23535c-.41406,0-.75-.33594-.75-.75s.33594-.75.75-.75h1.23535c.41406,0,.75.33594.75.75s-.33594.75-.75.75Z" fill="var(--iconPrimary, #222)"/>
  <path d="M10.61768,16h-1.23535c-.41406,0-.75-.33594-.75-.75s.33594-.75.75-.75h1.23535c.41406,0,.75.33594.75.75s-.33594.75-.75.75Z" fill="var(--iconPrimary, #222)"/>
  <path d="M14.01465,16c-.41406,0-.75-.33594-.75-.75s.33594-.75.75-.75c.26758,0,.48535-.21777.48535-.48535,0-.41406.33594-.75.75-.75s.75.33594.75.75c0,1.09473-.89062,1.98535-1.98535,1.98535Z" fill="var(--iconPrimary, #222)"/>
  <path d="M15.25,6.73535c-.41406,0-.75-.33594-.75-.75,0-.26758-.21777-.48535-.48535-.48535-.41406,0-.75-.33594-.75-.75s.33594-.75.75-.75c1.09473,0,1.98535.89062,1.98535,1.98535,0,.41406-.33594.75-.75.75Z" fill="var(--iconPrimary, #222)"/>
  <path d="M15.25,11.36719c-.41406,0-.75-.33594-.75-.75v-1.23438c0-.41406.33594-.75.75-.75s.75.33594.75.75v1.23438c0,.41406-.33594.75-.75.75Z" fill="var(--iconPrimary, #222)"/>
  <path d="M4.75,11.36719c-.41406,0-.75-.33594-.75-.75v-1.23438c0-.41406.33594-.75.75-.75s.75.33594.75.75v1.23438c0,.41406-.33594.75-.75.75Z" fill="var(--iconPrimary, #222)"/>
  <path d="M5.98535,16c-1.09473,0-1.98535-.89062-1.98535-1.98535,0-.41406.33594-.75.75-.75s.75.33594.75.75c0,.26758.21777.48535.48535.48535.41406,0,.75.33594.75.75s-.33594.75-.75.75Z" fill="var(--iconPrimary, #222)"/>
</svg>