<?xml version="1.0" encoding="UTF-8"?>
<svg xmlns="http://www.w3.org/2000/svg" width="20" height="20" viewBox="0 0 20 20">
  <path d="M4.1709,11.32715c.5752-1.3584,1.44336-3.40918,3.86914-4.08105.16016-.04492.32324-.08203.48633-.11328.61951-.74023,1.4928-1.78516,2.35034-2.81128l-.09106-.11133c-.40857-.58374-2.50293-1.80127-2.50293-1.80127-1.11182-.52539-2.33691-.81006-3.97803.09253-2.47339,1.36035-3.07361,6.89404-1.05688,10.41016.34619-.23901.62866-.88647.9231-1.58447Z" fill="var(--iconPrimary, #222)" opacity=".2" stroke-width="0"/>
  <path d="M15.77612,10.31445l-1.41382,1.69238c-.08301,1.44629-.66211,2.67773-1.69043,3.59375-.98535.87939-2.36133,1.43213-4.10156,1.65186,2.2616.84424,4.63184.78687,6.25171-.65649,1.81396-1.61646,2.26562-4.21143,1.01489-6.20728l-.06079-.07422Z" fill="var(--iconPrimary, #222)" opacity=".2"/>
  <path d="M2.94043,13.07812c-.28223,0-.55273-.16016-.67969-.43359-.05762-.12305-.1123-.24805-.16406-.375-.1582-.38281.02441-.82129.4082-.97852.37793-.15918.82031.02441.97852.4082.04395.10547.08887.20898.13672.3125.1748.375.0127.82129-.36328.99609-.10254.04785-.20996.07031-.31641.07031Z" fill="var(--iconPrimary, #222)"/>
  <path id="b"  d="M8.14355,3.09473c-.10352,0-.20801-.02148-.30762-.06641-.1875-.08398-.37988-.16016-.57715-.21973-.39648-.12012-.62012-.53906-.5-.93555.12109-.39648.54297-.61816.93555-.5.25977.0791.51074.17676.75684.28809.37793.16992.5459.61426.37598.99121-.125.27832-.39844.44238-.68359.44238Z" fill="var(--iconPrimary, #222)"/>
  <path d="M10.78613,4.95996c-.2373,0-.46973-.11133-.61621-.32031-.00098-.00195-.03418-.04883-.14062-.14453-.30859-.27539-.33496-.75-.05859-1.05859.27441-.31055.75098-.33496,1.05859-.05859.16016.14258.28125.27441.37109.40234.23633.33984.1543.80762-.18555,1.04492-.13086.09082-.28027.13477-.42871.13477Z" fill="var(--iconPrimary, #222)"/>
  <path d="M16.02441,11.46387c-.26953,0-.53027-.14551-.66406-.40039-.0498-.09277-.10156-.18457-.15918-.27637-.21973-.35059-.11328-.81348.2373-1.03418.35254-.21875.81445-.11426,1.03418.2373.07715.12305.14844.24805.21387.37402.19336.36621.05273.82031-.31348,1.0127-.11133.05957-.23145.08691-.34863.08691Z" fill="var(--iconPrimary, #222)"/>
  <path d="M8.89941,18.12402c-.08008,0-.16113-.0127-.24023-.04004-.12695-.04297-.25293-.08691-.37988-.13477-.38672-.14746-.58203-.58008-.43457-.96777.14844-.3877.5791-.58398.96777-.43457.10938.04199.21777.08008.32715.11719.39258.13281.60352.55859.46973.9502-.10547.3125-.39746.50977-.70996.50977Z" fill="var(--iconPrimary, #222)"/>
  <path d="M19.00195,3.0625c-.05469-.6123-.34473-1.16602-.81641-1.55957-.97168-.81445-2.42773-.68457-3.24414.29297-.07031.08545-4.20288,5.03125-5.64014,6.75-.28418.01733-.57263.06519-.86084.14551-1.72754.47852-2.34375,1.93555-2.8877,3.2207-.41699.98535-.81055,1.91504-1.64844,2.36914-.28613.1543-.43945.47656-.37988.79688.05957.31934.31836.56445.6416.60645.79688.10254,1.68262.17676,2.5752.17676,1.8584,0,3.74707-.32227,4.93359-1.38086.81152-.72266,1.21387-1.69531,1.19727-2.8916-.00061-.04053-.01343-.07886-.01575-.11914l5.61926-6.72559c.39453-.47168.58203-1.06836.52637-1.68164ZM10.67676,13.36133c-.84473.75293-2.4834,1.0918-4.68457.9834.40625-.58301.68359-1.2373.94238-1.84766.54395-1.28613.92773-2.08887,1.90625-2.36035.70605-.19727,1.39844-.09473,1.89844.28125.39551.2959.62598.73047.63281,1.19238.01074.75098-.2168,1.32422-.69531,1.75098ZM17.32617,3.78027l-5.07104,6.06909c-.17554-.23218-.37354-.45044-.61646-.63257-.19763-.14795-.41406-.26465-.63806-.36499,1.74451-2.08813,5.07117-6.06909,5.09412-6.09692.2832-.33887.78906-.38477,1.12988-.10156.16406.1377.26465.33008.28418.54297.01855.21387-.04688.4209-.18262.58398Z" fill="var(--iconPrimary, #222)"/>
  <path d="M16.41113,14.7168c-.05859,0-.11914-.00684-.17871-.02148-.40234-.09766-.64844-.50293-.55078-.90625.04395-.18164.0752-.36719.09375-.55371.03906-.41309.41113-.72754.81836-.67383.41211.03906.71387.40625.67383.81836-.02441.25684-.06738.5127-.12891.76465-.08301.34277-.38965.57227-.72754.57227Z" fill="var(--iconPrimary, #222)"/>
  <path d="M14.64941,17.49219c-.21973,0-.4375-.09668-.58594-.28125-.25879-.32324-.20605-.7959.11719-1.05469.04785-.03809.09473-.07715.14062-.11914.09668-.08594.1875-.17383.27441-.26465.28418-.30078.75977-.31445,1.05957-.03027.30176.28418.31543.75879.03027,1.05957-.11426.12207-.23633.23926-.36328.35254-.06641.05957-.13477.11816-.2041.17383-.13867.11035-.30371.16406-.46875.16406Z" fill="var(--iconPrimary, #222)"/>
  <path id="c"  d="M11.54199,18.55469c-.40723,0-.74121-.3252-.75-.7334-.00879-.41406.31934-.75781.7334-.7666.19922-.00391.39453-.01855.58691-.04395.40723-.05078.78809.23633.84082.64746s-.2373.78711-.64746.84082c-.24512.03125-.49512.0498-.74707.05566h-.0166Z" fill="var(--iconPrimary, #222)"/>
  <path d="M2.09766,9.96777c-.37695,0-.70215-.2832-.74414-.66699-.02832-.25488-.04883-.51074-.05859-.76465-.01758-.41406.30469-.76367.71777-.78027.40137-.04297.76367.30371.78027.71777.00977.2207.02637.44141.05078.66113.0459.41211-.25098.78223-.66211.82812-.02832.00391-.05664.00488-.08398.00488Z" fill="var(--iconPrimary, #222)"/>
  <path d="M2.30078,6.41602c-.05859,0-.11719-.00684-.17578-.02051-.40234-.09668-.65137-.50195-.55469-.9043.0625-.25977.13477-.51172.2168-.75391.13379-.3916.55957-.60156.95215-.46777.3916.13379.60156.55957.46777.95215-.06836.19922-.12695.40625-.17773.61914-.08301.34375-.38965.5752-.72852.5752Z" fill="var(--iconPrimary, #222)"/>
  <path d="M4.06934,3.39844c-.23926,0-.47461-.11426-.62012-.32715-.2334-.3418-.14648-.80859.19629-1.04199.09473-.06543.19336-.12598.29199-.18164.15527-.08594.30273-.15918.44727-.22461.37402-.17188.82129-.00586.99219.37305.17188.37695.00488.82129-.37305.99219-.10938.0498-.22168.10742-.33691.1709-.05664.03125-.11621.06836-.17578.1084-.12891.08887-.27637.13086-.42188.13086Z" fill="var(--iconPrimary, #222)"/>
</svg>