<?xml version="1.0" encoding="UTF-8"?>
<svg data-name="outline / production" xmlns="http://www.w3.org/2000/svg" width="20" height="20" viewBox="0 0 20 20">
  <path d="M8.74707,18.93164c-.32617,0-.625-.21582-.71582-.54492-.10938-.39502.12305-.8042.51758-.91309.35059-.09717.68652-.24268.99805-.43311.34863-.21387.80664-.10352,1.02051.24707.21387.34961.10352.80664-.24707,1.02051-.42871.26172-.8916.46289-1.375.59619-.06641.01855-.13281.02734-.19824.02734Z" fill="var(--iconPrimary, #222)"/>
  <path d="M5.69727,18.73926c-.0957,0-.19336-.01855-.28613-.05762-.46191-.19336-.89453-.44971-1.28809-.7627-.32129-.25537-.37402-.72266-.11914-1.04346.25586-.3208.72266-.37207,1.04297-.11865.28711.22803.60156.41455.93652.55469.37891.15869.55664.59326.39844.97168-.11914.28467-.39453.45605-.68457.45605Z" fill="var(--iconPrimary, #222)"/>
  <path d="M2.91406,15.51807c-.3291,0-.62891-.21924-.71777-.55176-.125-.4707-.18848-.96094-.18848-1.45605,0-.41016.33203-.75098.74219-.75098s.74219.32324.74219.7334v.01758c0,.36621.04688.72754.13965,1.07422.10547.396-.13086.80273-.52637.9082-.06445.01709-.12891.02539-.19141.02539Z" fill="var(--iconPrimary, #222)"/>
  <path d="M2.75,11.1167c-.41016,0-.74219-.33203-.74219-.74219v-1.29932c0-.41016.33203-.74219.74219-.74219s.74219.33203.74219.74219v1.29932c0,.41016-.33203.74219-.74219.74219Z" fill="var(--iconPrimary, #222)"/>
  <path d="M2.78125,6.70117c-.02734,0-.05469-.00195-.08301-.00488-.40723-.04541-.70117-.4126-.65625-.81982.05566-.49463.17578-.98096.35742-1.44482.15039-.38232.58496-.56934.96289-.41943.38184.1499.56934.58057.41992.9624-.13477.34229-.22363.70068-.26367,1.06592-.04297.37988-.36426.66064-.7373.66064Z" fill="var(--iconPrimary, #222)"/>
  <path d="M5.05371,3.09766c-.24902,0-.49316-.12549-.63281-.35303-.21484-.34912-.10645-.80664.24219-1.02148.42871-.26416.88965-.46631,1.37305-.60205.39062-.11084.80469.11963.91504.51416s-.11914.80469-.51465.91553c-.34863.09814-.68359.24463-.99414.43604-.12109.0752-.25586.11084-.38867.11084Z" fill="var(--iconPrimary, #222)"/>
  <path d="M10.40039,3.41406c-.16113,0-.32324-.05225-.45996-.15967-.28711-.22656-.60254-.41211-.93848-.55176-.37891-.15674-.55859-.59131-.40137-.97021s.59277-.55811.96973-.40088c.46191.19141.89551.44629,1.29004.75684.32227.25439.37695.72119.12305,1.04297-.14648.18555-.36426.28271-.58301.28271Z" fill="var(--iconPrimary, #222)"/>
  <path d="M13.41797,16.80469c-.16504,0-.33301-.03418-.49707-.10449-.56641-.24463-.85352-.83252-.69922-1.4292l.78223-3.00098h-2.58789c-.44141,0-.85059-.23926-1.06641-.62402-.21582-.38525-.20605-.85889.02441-1.23584l3.93164-6.41406c.32129-.52734.94434-.72949,1.51562-.4873.56934.23926.8623.8252.71094,1.42432l-.81055,3.22754h2.58203c.44434,0,.85449.2417,1.06934.63086s.20117.86523-.03516,1.2417l-3.89844,6.19531c-.2334.37061-.61621.57617-1.02148.57617ZM10.61523,10.93701h2.53223c.38086,0,.7334.17236.9668.47363s.3125.68604.2168,1.05469l-.63672,2.44434,3.40723-5.41602h-2.52344c-.37891,0-.72949-.17139-.96289-.46973-.2334-.29883-.31445-.68164-.22168-1.04932l.66797-2.66016-3.44629,5.62256Z" fill="var(--iconPrimary, #222)"/>
</svg>