<?xml version="1.0" encoding="UTF-8"?>
<svg   xmlns="http://www.w3.org/2000/svg" width="20" height="20" viewBox="0 0 20 20">
  <path d="m17,6.02539v-2.77539c0-1.24023-1.00928-2.25-2.25-2.25H5.25c-1.24072,0-2.25,1.00977-2.25,2.25v2.77539c-.84589.12256-1.5.84521-1.5,1.72461v3.5c0,.87939.65411,1.60205,1.5,1.72461v2.77539c0,1.24023,1.00928,2.25,2.25,2.25h9.5c1.24072,0,2.25-1.00977,2.25-2.25v-2.77539c.84589-.12256,1.5-.84521,1.5-1.72461v-3.5c0-.87939-.65411-1.60205-1.5-1.72461Zm-14,1.72461c0-.1377.1123-.25.25-.25h1c.1377,0,.25.1123.25.25v3.5c0,.1377-.1123.25-.25.25h-1c-.1377,0-.25-.1123-.25-.25v-3.5Zm11.75,8.75H5.25c-.41357,0-.75-.33691-.75-.75v-2.77539c.84589-.12256,1.5-.84521,1.5-1.72461v-3.5c0-.87939-.65411-1.60205-1.5-1.72461v-2.77539c0-.41309.33643-.75.75-.75h9.5c.41357,0,.75.33691.75.75v2.77539c-.84589.12256-1.5.84521-1.5,1.72461v3.5c0,.87939.65411,1.60205,1.5,1.72461v2.77539c0,.41309-.33643.75-.75.75Zm2.25-5.25c0,.1377-.1123.25-.25.25h-1c-.1377,0-.25-.1123-.25-.25v-3.5c0-.1377.1123-.25.25-.25h1c.1377,0,.25.1123.25.25v3.5Z" fill="var(--iconPrimary, #222)"/>
</svg>