<?xml version="1.0" encoding="UTF-8"?>
<svg   xmlns="http://www.w3.org/2000/svg" width="20" height="20" viewBox="0 0 20 20">
  <path d="M1.75586,12.74023c-.03027,0-.05957-.00195-.09082-.00488-.41113-.0498-.7041-.42285-.65527-.83496.02246-.18164.06543-.3584.12793-.52539.2207-.58594.68066-1.05762,1.26172-1.29395.38379-.15527.82129.0293.97754.41309.15527.38379-.0293.82129-.41309.97754-.19434.07812-.34863.23633-.42188.43164-.02051.05566-.03516.11426-.04199.17676-.0459.38086-.37012.66016-.74414.66016Z" fill="var(--iconPrimary, #222)"/>
  <path d="M9.21484,12.74023c-.37402,0-.69824-.2793-.74414-.66016-.00684-.0625-.02148-.12109-.04199-.17578-.07324-.19629-.22754-.35449-.42188-.43262-.38379-.15625-.56836-.59375-.41309-.97754.15527-.38281.59082-.56738.97754-.41309.58105.23633,1.04102.70801,1.26172,1.29492.0625.16602.10547.34277.12793.52441.04883.41211-.24414.78516-.65527.83496-.03125.00293-.06055.00488-.09082.00488Z" fill="var(--iconPrimary, #222)"/>
  <path d="M13.37598,16.25488c-.17676,0-.35254-.03418-.52148-.10449-.51855-.21582-.85449-.71875-.85449-1.28125v-7c0-.55957.33398-1.0625.85059-1.2793.51562-.21875,1.10742-.10254,1.50879.28906l4.77246,4.68262c.4043.39648.52637.99121.3125,1.51465-.21387.52441-.71875.86328-1.28418.86328h-1.96973c-.1582,0-.30566.07031-.40527.19141l-1.36816,1.66602c-.30371.30566-.67285.45801-1.04102.45801ZM13.5,8.13672v6.41797l1.125-1.375c.38672-.4707.95703-.74023,1.56543-.74023h1.69434l-4.38477-4.30273Z" fill="var(--iconPrimary, #222)"/>
  <path d="M5.84668,11.5h-.69336c-.41406,0-.75-.33594-.75-.75s.33594-.75.75-.75h.69336c.41406,0,.75.33594.75.75s-.33594.75-.75.75Z" fill="var(--iconPrimary, #222)"/>
  <path d="M2.68164,18.97363c-.09375,0-.18945-.01758-.28223-.05469-.58105-.23633-1.04102-.70801-1.26172-1.29492-.0625-.16602-.10547-.34277-.12793-.52441-.04883-.41211.24414-.78516.65527-.83496.41602-.04492.78516.24316.83496.65527.00684.0625.02148.12109.04199.17578.07324.19629.22754.35449.42188.43262.38379.15625.56836.59375.41309.97754-.11816.29102-.39941.46777-.69531.46777Z" fill="var(--iconPrimary, #222)"/>
  <path d="M8.28906,18.97363c-.2959,0-.57715-.17676-.69531-.46777-.15527-.38379.0293-.82129.41309-.97754.19434-.07812.34863-.23633.42188-.43164.02051-.05566.03516-.11426.04199-.17676.0498-.41211.41699-.70117.83496-.65527.41113.0498.7041.42285.65527.83496-.02246.18164-.06543.3584-.12793.52539-.2207.58594-.68066,1.05762-1.26172,1.29395-.09277.03711-.18848.05469-.28223.05469Z" fill="var(--iconPrimary, #222)"/>
  <path d="M5.84668,19h-.69336c-.41406,0-.75-.33594-.75-.75s.33594-.75.75-.75h.69336c.41406,0,.75.33594.75.75s-.33594.75-.75.75Z" fill="var(--iconPrimary, #222)"/>
  <path d="M1.75,15.59668c-.41406,0-.75-.33594-.75-.75v-.69336c0-.41406.33594-.75.75-.75s.75.33594.75.75v.69336c0,.41406-.33594.75-.75.75Z" fill="var(--iconPrimary, #222)"/>
  <path d="M9.25,15.59668c-.41406,0-.75-.33594-.75-.75v-.69336c0-.41406.33594-.75.75-.75s.75.33594.75.75v.69336c0,.41406-.33594.75-.75.75Z" fill="var(--iconPrimary, #222)"/>
  <path d="M9.76172,3.74023c-.02832,0-.05566-.00195-.08398-.00488-.41211-.0459-.70801-.41699-.66211-.82812.01953-.17773.06152-.35449.125-.52637.22266-.5918.68262-1.06348,1.26367-1.2998.38477-.15527.82129.0293.97754.41309.15527.38379-.0293.82129-.41309.97754-.19434.07812-.34863.23633-.42188.43164-.02051.05469-.03418.11328-.04102.16992-.04297.38379-.36719.66699-.74414.66699Z" fill="var(--iconPrimary, #222)"/>
  <path d="M17.21973,3.74023c-.37695,0-.70117-.2832-.74414-.66699-.00684-.05664-.02051-.11523-.04297-.1748-.07129-.19043-.22559-.34863-.41992-.42676-.38379-.15625-.56836-.59375-.41309-.97754s.5918-.56738.97754-.41309c.58105.23633,1.04102.70801,1.26172,1.29492.06543.17676.10742.35352.12695.53125.0459.41113-.25.78223-.66211.82812-.02832.00293-.05566.00488-.08398.00488Z" fill="var(--iconPrimary, #222)"/>
  <path d="M13.85156,2.5h-.69238c-.41406,0-.75-.33594-.75-.75s.33594-.75.75-.75h.69238c.41406,0,.75.33594.75.75s-.33594.75-.75.75Z" fill="var(--iconPrimary, #222)"/>
  <path d="M9.84473,9.11035c-.30566,0-.5918-.1875-.7041-.49121-.06348-.17188-.10547-.34863-.125-.52637-.0459-.41113.25-.78223.66211-.82812.4043-.03809.78223.25.82812.66211.00684.05664.02051.11523.04297.1748.14258.38867-.05566.81934-.44434.96289-.08594.03125-.17383.0459-.25977.0459Z" fill="var(--iconPrimary, #222)"/>
  <path d="M9.75586,6.59668c-.41406,0-.75-.33594-.75-.75v-.69336c0-.41406.33594-.75.75-.75s.75.33594.75.75v.69336c0,.41406-.33594.75-.75.75Z" fill="var(--iconPrimary, #222)"/>
  <path d="M17.25586,6.97633c-.41406,0-.75-.33594-.75-.75v-1.07301c0-.41406.33594-.75.75-.75s.75.33594.75.75v1.07301c0,.41406-.33594.75-.75.75Z" fill="var(--iconPrimary, #222)"/>
</svg>