<?xml version="1.0" encoding="UTF-8"?>
<svg xmlns="http://www.w3.org/2000/svg" width="20" height="20" viewBox="0 0 20 20">
  <path d="M8.4751,3.5h-1.1001c-.41406,0-.75-.33594-.75-.75s.33594-.75.75-.75h1.1001c.41406,0,.75.33594.75.75s-.33594.75-.75.75Z" fill="var(--iconPrimary, #222)"/>
  <path d="M12.625,3.5h-1.1001c-.41406,0-.75-.33594-.75-.75s.33594-.75.75-.75h1.1001c.41406,0,.75.33594.75.75s-.33594.75-.75.75Z" fill="var(--iconPrimary, #222)"/>
  <path d="M3.75293,5.06641c-.1582,0-.31689-.0498-.45264-.15234-.33008-.25-.39453-.7207-.14453-1.05078.23633-.31152.52637-.5752.86182-.78418.35059-.2168.81396-.10938,1.03271.24219.21826.35156.11035.81445-.2417,1.0332-.17871.11035-.33252.25-.45752.41504-.14746.19434-.37158.29688-.59814.29688Z" fill="var(--iconPrimary, #222)"/>
  <path d="M16.24707,5.06641c-.22656,0-.45068-.10254-.59814-.29688-.125-.16504-.27881-.30469-.45752-.41504-.35205-.21875-.45996-.68164-.2417-1.0332.21924-.35156.68164-.45898,1.03271-.24219.33545.20898.62549.47266.86182.78418.25.33008.18555.80078-.14453,1.05078-.13525.10254-.29492.15234-.45264.15234Z" fill="var(--iconPrimary, #222)"/>
  <path d="M15.5874,17.0332c-.25049,0-.49561-.12598-.6377-.35449-.21826-.35156-.11035-.81445.2417-1.0332.17871-.11035.33252-.25.45752-.41504.25098-.3291.72021-.39355,1.05078-.14453.33008.25.39453.7207.14453,1.05078-.23633.31152-.52637.5752-.86182.78418-.12305.07617-.25977.1123-.39502.1123Z" fill="var(--iconPrimary, #222)"/>
  <path d="M4.4126,17.0332c-.13525,0-.27197-.03613-.39502-.1123-.33545-.20898-.62549-.47266-.86182-.78418-.25-.33008-.18555-.80078.14453-1.05078.32861-.25098.80029-.18555,1.05078.14453.125.16504.27881.30469.45752.41504.35205.21875.45996.68164.2417,1.0332-.14209.22852-.38721.35449-.6377.35449Z" fill="var(--iconPrimary, #222)"/>
  <path d="M17.25,9.22461c-.41406,0-.75-.33594-.75-.75v-1.09961c0-.41406.33594-.75.75-.75s.75.33594.75.75v1.09961c0,.41406-.33594.75-.75.75Z" fill="var(--iconPrimary, #222)"/>
  <path d="M17.25,13.375c-.41406,0-.75-.33594-.75-.75v-1.09961c0-.41406.33594-.75.75-.75s.75.33594.75.75v1.09961c0,.41406-.33594.75-.75.75Z" fill="var(--iconPrimary, #222)"/>
  <path d="M2.75,9.22461c-.41406,0-.75-.33594-.75-.75v-1.09961c0-.41406.33594-.75.75-.75s.75.33594.75.75v1.09961c0,.41406-.33594.75-.75.75Z" fill="var(--iconPrimary, #222)"/>
  <path d="M2.75,13.375c-.41406,0-.75-.33594-.75-.75v-1.09961c0-.41406.33594-.75.75-.75s.75.33594.75.75v1.09961c0,.41406-.33594.75-.75.75Z" fill="var(--iconPrimary, #222)"/>
  <path d="M12.625,18h-1.1001c-.41406,0-.75-.33594-.75-.75s.33594-.75.75-.75h1.1001c.41406,0,.75.33594.75.75s-.33594.75-.75.75Z" fill="var(--iconPrimary, #222)"/>
  <path d="M8.4751,18h-1.1001c-.41406,0-.75-.33594-.75-.75s.33594-.75.75-.75h1.1001c.41406,0,.75.33594.75.75s-.33594.75-.75.75Z" fill="var(--iconPrimary, #222)"/>
</svg>