<?xml version="1.0" encoding="UTF-8"?>
<svg xmlns="http://www.w3.org/2000/svg" width="20" height="20" viewBox="0 0 20 20">
  <path d="M12.48828,19.7168c-.19043,0-.38086-.03809-.5625-.11328-.5625-.2334-.92578-.77734-.92578-1.38574v-8.23535c0-.60547.36035-1.14844.91895-1.38281.55859-.23633,1.19922-.1123,1.63086.31055l5.61621,5.51074c.43652.42773.56934,1.07031.33789,1.63672-.23145.56738-.77637.93359-1.38867.93359h-2.31738c-.22559,0-.43652.09961-.58008.27441l-1.6084,1.95898c-.3252.32812-.72363.49219-1.12109.49219ZM12.5,9.98145v8.24316l1.55859-1.91113c.43066-.52246,1.06348-.82227,1.73926-.82227h2.31738l-5.61523-5.50977Z" fill="var(--iconPrimary, #222)" stroke-width="0"/>
  <path d="M16.25,1.625c-.90698,0-1.677.57361-1.98145,1.375H5.73157c-.30444-.80139-1.07458-1.375-1.98157-1.375-1.17188,0-2.125.95312-2.125,2.125,0,.90698.57361,1.677,1.375,1.98145v7.53711c-.80139.30444-1.375,1.07446-1.375,1.98145,0,1.17188.95312,2.125,2.125,2.125.90698,0,1.677-.57361,1.98145-1.375h3.01855c.41406,0,.75-.33594.75-.75s-.33594-.75-.75-.75h-3.01843c-.21545-.56738-.66418-1.01611-1.23157-1.23157v-7.53699c.56738-.21545,1.01599-.66406,1.23145-1.23145h8.53711c.21545.56738.66406,1.01599,1.23145,1.23145v2.51855c0,.41406.33594.75.75.75s.75-.33594.75-.75v-2.51855c.80139-.30444,1.375-1.07446,1.375-1.98145,0-1.17188-.95312-2.125-2.125-2.125ZM3.75,16.125c-.48242,0-.875-.39258-.875-.875s.39258-.875.875-.875.875.39258.875.875-.39258.875-.875.875ZM3.75,4.625c-.48242,0-.875-.39258-.875-.875s.39258-.875.875-.875.875.39258.875.875-.39258.875-.875.875ZM16.25,4.625c-.48242,0-.875-.39258-.875-.875s.39258-.875.875-.875.875.39258.875.875-.39258.875-.875.875Z" fill="var(--iconPrimary, #222)" stroke-width="0"/>
</svg>