<?xml version="1.0" encoding="UTF-8"?>
<svg xmlns="http://www.w3.org/2000/svg" width="20" height="20" viewBox="0 0 20 20">
  <path d="m7.75,13v-5.25h5.25v-3.44995c0-1.27028-1.02977-2.30005-2.30005-2.30005h-6.3999c-1.27028,0-2.30005,1.02977-2.30005,2.30005v6.3999c0,1.27028,1.02977,2.30005,2.30005,2.30005h3.44995Z" fill="var(--iconPrimary, #222)" opacity=".2"/>
  <path d="m17.25,10.92285c-.41406,0-.75.33594-.75.75v1.50293c0,.41406.33594.75.75.75s.75-.33594.75-.75v-1.50293c0-.41406-.33594-.75-.75-.75Z" fill="var(--iconPrimary, #222)"/>
  <path d="m17.40234,15.45898c-.07129-.02148-.14355-.03125-.21387-.03125-.32324,0-.62207.21094-.71875.53613-.07227.24316-.26855.4375-.51172.50781-.39746.11426-.62793.5293-.51367.92773.11328.39844.53027.63281.92773.51367.74121-.21289,1.31543-.78125,1.53516-1.52148.11816-.39746-.1084-.81445-.50488-.93262Z" fill="var(--iconPrimary, #222)"/>
  <path d="m15.88574,8.51172c.24902.04492.46289.21875.55859.45312.15723.38281.5957.56543.97852.41016.38379-.15723.56738-.5957.41016-.97852-.29395-.71484-.92188-1.22363-1.67969-1.36133-.0459-.00781-.09082-.01172-.13477-.01172-.35547,0-.67188.25391-.7373.61621-.07324.4082.19727.79785.60449.87207Z" fill="var(--iconPrimary, #222)"/>
  <path d="m11.66016,18h1.50391c.41406,0,.75-.33594.75-.75s-.33594-.75-.75-.75h-1.50391c-.41406,0-.75.33594-.75.75s.33594.75.75.75Z" fill="var(--iconPrimary, #222)"/>
  <path d="m8.37891,17.82422c.38184.16211.82227-.01953.98145-.40137.16016-.38184-.01953-.82129-.40137-.98145-.2334-.09863-.40527-.31348-.44824-.5625-.0625-.36523-.37988-.62305-.73828-.62305-.04199,0-.08496.00391-.12793.01074-.4082.07031-.68262.45801-.6123.86621.13086.76074.63477,1.39355,1.34668,1.69141Z" fill="var(--iconPrimary, #222)"/>
  <path d="m11.04102,3.55859c.2334.09863.40527.31348.44824.5625.06934.40723.45312.67383.86621.6123.4082-.07031.68262-.45801.6123-.86621-.13086-.76074-.63477-1.39355-1.34668-1.69141-.09473-.04004-.19336-.05859-.29004-.05859-.29297,0-.57129.17285-.69141.45996-.16016.38184.01953.82129.40137.98145Z" fill="var(--iconPrimary, #222)"/>
  <path d="m3.55566,11.03516c-.11914-.29004-.39941-.46582-.69434-.46582-.09473,0-.19141.01758-.28418.05566-.38379.15723-.56738.5957-.41016.97852.29395.71484.92188,1.22363,1.67969,1.36133.41406.06836.79883-.19727.87207-.60449.07324-.4082-.19727-.79785-.60449-.87207-.24902-.04492-.46289-.21875-.55859-.45312Z" fill="var(--iconPrimary, #222)"/>
  <path d="m6.83594,3.5h1.50391c.41406,0,.75-.33594.75-.75s-.33594-.75-.75-.75h-1.50391c-.41406,0-.75.33594-.75.75s.33594.75.75.75Z" fill="var(--iconPrimary, #222)"/>
  <path d="m7.75,10.92285c-.35278,0-.63525.24902-.71509.57715h-.19897c-.41406,0-.75.33594-.75.75s.33594.75.75.75h.16406v.17578c0,.41406.33594.75.75.75s.75-.33594.75-.75v-1.50293c0-.41406-.33594-.75-.75-.75Z" fill="var(--iconPrimary, #222)"/>
  <path d="m2.59766,4.54102c.40137.12012.81543-.10938.93262-.50488.07227-.24316.26855-.4375.51172-.50781.39746-.11426.62793-.5293.51367-.92773-.09375-.3291-.39453-.54297-.7207-.54297-.06836,0-.1377.00879-.20703.0293-.74121.21289-1.31543.78125-1.53516,1.52148-.11816.39746.1084.81445.50488.93262Z" fill="var(--iconPrimary, #222)"/>
  <path d="m7.5574,9.5068c.40137.12012.81543-.10938.93262-.50488.07227-.24316.26855-.4375.51172-.50781.39746-.11426.62793-.5293.51367-.92773-.09375-.3291-.39453-.54297-.7207-.54297-.06836,0-.1377.00879-.20703.0293-.74121.21289-1.31543.78125-1.53516,1.52148-.11816.39746.1084.81445.50488.93262Z" fill="var(--iconPrimary, #222)"/>
  <path d="m2.75,9.07715c.41406,0,.75-.33594.75-.75v-1.50293c0-.41406-.33594-.75-.75-.75s-.75.33594-.75.75v1.50293c0,.41406.33594.75.75.75Z" fill="var(--iconPrimary, #222)"/>
  <path d="m13.25,7h-.25v-.17578c0-.41406-.33594-.75-.75-.75s-.75.33594-.75.75v.92578c0,.41406.33594.75.75.75h1c.41406,0,.75-.33594.75-.75s-.33594-.75-.75-.75Z" fill="var(--iconPrimary, #222)"/>
</svg>