<?xml version="1.0" encoding="UTF-8"?>
<svg xmlns="http://www.w3.org/2000/svg" width="20" height="20" viewBox="0 0 20 20">
  <path d="M15.75,18H4.25c-1.24072,0-2.25-1.00977-2.25-2.25V4.25c0-1.24023,1.00928-2.25,2.25-2.25h11.5c1.24072,0,2.25,1.00977,2.25,2.25v11.5c0,1.24023-1.00928,2.25-2.25,2.25ZM4.25,3.5c-.41357,0-.75.33691-.75.75v11.5c0,.41309.33643.75.75.75h11.5c.41357,0,.75-.33691.75-.75V4.25c0-.41309-.33643-.75-.75-.75H4.25Z" fill="var(--iconPrimary, #222)"/>
  <path d="M5.75,7.5c-.41406,0-.75-.33594-.75-.75,0-.96484.78516-1.75,1.75-1.75.41406,0,.75.33594.75.75s-.33594.75-.75.75c-.1377,0-.25.1123-.25.25,0,.41406-.33594.75-.75.75Z" fill="var(--iconPrimary, #222)"/>
  <path d="M10.5,6.5h-1c-.41406,0-.75-.33594-.75-.75s.33594-.75.75-.75h1c.41406,0,.75.33594.75.75s-.33594.75-.75.75Z" fill="var(--iconPrimary, #222)"/>
  <path d="M10.5,15h-1c-.41406,0-.75-.33594-.75-.75s.33594-.75.75-.75h1c.41406,0,.75.33594.75.75s-.33594.75-.75.75Z" fill="var(--iconPrimary, #222)"/>
  <path d="M13.25,15c-.41406,0-.75-.33594-.75-.75s.33594-.75.75-.75c.1377,0,.25-.1123.25-.25,0-.41406.33594-.75.75-.75s.75.33594.75.75c0,.96484-.78516,1.75-1.75,1.75Z" fill="var(--iconPrimary, #222)"/>
  <path d="M14.25,7.5c-.41406,0-.75-.33594-.75-.75,0-.1377-.1123-.25-.25-.25-.41406,0-.75-.33594-.75-.75s.33594-.75.75-.75c.96484,0,1.75.78516,1.75,1.75,0,.41406-.33594.75-.75.75Z" fill="var(--iconPrimary, #222)"/>
  <path d="M14.25,11.25c-.41406,0-.75-.33594-.75-.75v-1c0-.41406.33594-.75.75-.75s.75.33594.75.75v1c0,.41406-.33594.75-.75.75Z" fill="var(--iconPrimary, #222)"/>
  <path d="M5.75,11.25c-.41406,0-.75-.33594-.75-.75v-1c0-.41406.33594-.75.75-.75s.75.33594.75.75v1c0,.41406-.33594.75-.75.75Z" fill="var(--iconPrimary, #222)"/>
  <path d="M6.75,15c-.96484,0-1.75-.78516-1.75-1.75,0-.41406.33594-.75.75-.75s.75.33594.75.75c0,.1377.1123.25.25.25.41406,0,.75.33594.75.75s-.33594.75-.75.75Z" fill="var(--iconPrimary, #222)"/>
</svg>