<?xml version="1.0" encoding="UTF-8"?>
<svg xmlns="http://www.w3.org/2000/svg" width="20" height="20" viewBox="0 0 20 20">
  <path d="M14.25,6.97852h-3.76843c-.30444-.80127-1.07458-1.375-1.98157-1.375s-1.677.57373-1.98145,1.375h-.76855c-.41406,0-.75.33594-.75.75s.33594.75.75.75h.76855c.30444.80127,1.07446,1.375,1.98145,1.375s1.677-.57373,1.98145-1.375h3.76855c.41406,0,.75-.33594.75-.75s-.33594-.75-.75-.75ZM8.5,8.60352c-.48242,0-.875-.39258-.875-.875s.39258-.875.875-.875.875.39258.875.875-.39258.875-.875.875Z" fill="var(--iconPrimary, #222)" stroke-width="0"/>
  <path d="M14.25,11.47852h-.76843c-.30444-.80127-1.07458-1.375-1.98157-1.375s-1.677.57373-1.98145,1.375h-3.76855c-.41406,0-.75.33594-.75.75s.33594.75.75.75h3.76855c.30444.80127,1.07446,1.375,1.98145,1.375s1.677-.57373,1.98145-1.375h.76855c.41406,0,.75-.33594.75-.75s-.33594-.75-.75-.75ZM11.5,13.10352c-.48242,0-.875-.39258-.875-.875s.39258-.875.875-.875.875.39258.875.875-.39258.875-.875.875Z" fill="var(--iconPrimary, #222)" stroke-width="0"/>
  <path d="M17.75,4.40918c-.41406,0-.75-.33594-.75-.75,0-.36328-.2959-.65918-.65918-.65918-.41406,0-.75-.33594-.75-.75s.33594-.75.75-.75c1.19043,0,2.15918.96875,2.15918,2.15918,0,.41406-.33594.75-.75.75Z" fill="var(--iconPrimary, #222)" stroke-width="0"/>
  <path d="M17.75,8.98828c-.41406,0-.75-.33594-.75-.75v-1.17383c0-.41406.33594-.75.75-.75s.75.33594.75.75v1.17383c0,.41406-.33594.75-.75.75Z" fill="var(--iconPrimary, #222)" stroke-width="0"/>
  <path d="M2.25,8.98828c-.41406,0-.75-.33594-.75-.75v-1.17383c0-.41406.33594-.75.75-.75s.75.33594.75.75v1.17383c0,.41406-.33594.75-.75.75Z" fill="var(--iconPrimary, #222)" stroke-width="0"/>
  <path d="M17.75,13.6748c-.41406,0-.75-.33594-.75-.75v-1.17383c0-.41406.33594-.75.75-.75s.75.33594.75.75v1.17383c0,.41406-.33594.75-.75.75Z" fill="var(--iconPrimary, #222)" stroke-width="0"/>
  <path d="M2.25,13.6748c-.41406,0-.75-.33594-.75-.75v-1.17383c0-.41406.33594-.75.75-.75s.75.33594.75.75v1.17383c0,.41406-.33594.75-.75.75Z" fill="var(--iconPrimary, #222)" stroke-width="0"/>
  <path d="M8.23828,3h-1.17383c-.41406,0-.75-.33594-.75-.75s.33594-.75.75-.75h1.17383c.41406,0,.75.33594.75.75s-.33594.75-.75.75Z" fill="var(--iconPrimary, #222)" stroke-width="0"/>
  <path d="M8.23828,18.5h-1.17383c-.41406,0-.75-.33594-.75-.75s.33594-.75.75-.75h1.17383c.41406,0,.75.33594.75.75s-.33594.75-.75.75Z" fill="var(--iconPrimary, #222)" stroke-width="0"/>
  <path d="M12.9248,3h-1.17383c-.41406,0-.75-.33594-.75-.75s.33594-.75.75-.75h1.17383c.41406,0,.75.33594.75.75s-.33594.75-.75.75Z" fill="var(--iconPrimary, #222)" stroke-width="0"/>
  <path d="M12.9248,18.5h-1.17383c-.41406,0-.75-.33594-.75-.75s.33594-.75.75-.75h1.17383c.41406,0,.75.33594.75.75s-.33594.75-.75.75Z" fill="var(--iconPrimary, #222)" stroke-width="0"/>
  <path d="M3.65918,18.5c-1.19043,0-2.15918-.96875-2.15918-2.15918,0-.41406.33594-.75.75-.75s.75.33594.75.75c0,.36328.2959.65918.65918.65918.41406,0,.75.33594.75.75s-.33594.75-.75.75Z" fill="var(--iconPrimary, #222)" stroke-width="0"/>
  <path d="M2.25,4.40918c-.41406,0-.75-.33594-.75-.75,0-1.19043.96875-2.15918,2.15918-2.15918.41406,0,.75.33594.75.75s-.33594.75-.75.75c-.36328,0-.65918.2959-.65918.65918,0,.41406-.33594.75-.75.75Z" fill="var(--iconPrimary, #222)" stroke-width="0"/>
  <path d="M16.34082,18.5c-.41406,0-.75-.33594-.75-.75s.33594-.75.75-.75c.36328,0,.65918-.2959.65918-.65918,0-.41406.33594-.75.75-.75s.75.33594.75.75c0,1.19043-.96875,2.15918-2.15918,2.15918Z" fill="var(--iconPrimary, #222)" stroke-width="0"/>
</svg>