<?xml version="1.0" encoding="UTF-8"?>
<svg xmlns="http://www.w3.org/2000/svg" width="20" height="20" viewBox="0 0 20 20">
  <path d="M11.75,3.52148h-1.25c-.41406,0-.75-.33594-.75-.75s.33594-.75.75-.75h1.25c.41406,0,.75.33594.75.75s-.33594.75-.75.75Z" fill="var(--iconPrimary, #222)"/>
  <path d="M7.5,3.52148h-1.25c-.41406,0-.75-.33594-.75-.75s.33594-.75.75-.75h1.25c.41406,0,.75.33594.75.75s-.33594.75-.75.75Z" fill="var(--iconPrimary, #222)"/>
  <path d="M6.5,18.02148h-.25c-.41406,0-.75-.33594-.75-.75s.33594-.75.75-.75h.25c.41406,0,.75.33594.75.75s-.33594.75-.75.75Z" fill="var(--iconPrimary, #222)"/>
  <path d="M16.25,5.02148c-.41406,0-.75-.33594-.75-.75,0-.41309-.33691-.75-.75-.75-.41406,0-.75-.33594-.75-.75s.33594-.75.75-.75c1.24023,0,2.25,1.00977,2.25,2.25,0,.41406-.33594.75-.75.75Z" fill="var(--iconPrimary, #222)"/>
  <path d="M16.25,9.27148c-.41406,0-.75-.33594-.75-.75v-1.25c0-.41406.33594-.75.75-.75s.75.33594.75.75v1.25c0,.41406-.33594.75-.75.75Z" fill="var(--iconPrimary, #222)"/>
  <path d="M1.75,9.27148c-.41406,0-.75-.33594-.75-.75v-1.25c0-.41406.33594-.75.75-.75s.75.33594.75.75v1.25c0,.41406-.33594.75-.75.75Z" fill="var(--iconPrimary, #222)"/>
  <path d="M1.75,13.52148c-.41406,0-.75-.33594-.75-.75v-1.25c0-.41406.33594-.75.75-.75s.75.33594.75.75v1.25c0,.41406-.33594.75-.75.75Z" fill="var(--iconPrimary, #222)"/>
  <path d="M3.25,18.02148c-1.24023,0-2.25-1.00977-2.25-2.25,0-.41406.33594-.75.75-.75s.75.33594.75.75c0,.41309.33691.75.75.75.41406,0,.75.33594.75.75s-.33594.75-.75.75Z" fill="var(--iconPrimary, #222)"/>
  <path d="M1.75,5.02148c-.41406,0-.75-.33594-.75-.75,0-1.24023,1.00977-2.25,2.25-2.25.41406,0,.75.33594.75.75s-.33594.75-.75.75c-.41309,0-.75.33691-.75.75,0,.41406-.33594.75-.75.75Z" fill="var(--iconPrimary, #222)"/>
  <path d="M11.20508,8.90112c.28052,0,.5448.17139.65002.44922.04858.12842.82788,1.65137,1.19702,2.41797.11096.23022.32727.38232.56726.38232.311,0,1.16945-.25562,1.91711-.25562,1.4385,0,2.36877,1.63574,2.16748,3.38892-.14062,1.22583-1.17432,2.35034-2.47961,2.35034-.53577,0-1.51416-.30591-2.18909-.60498-.19312-.08569-3.72351-1.88403-3.84937-2.00977-.12573-.12573-.20349-.29956-.20349-.49146,0-.38354.31116-.69482.69482-.69482.30566,0,2.26519.98804,2.47974.98804.23303,0,.63037-.39575.03906-1.52222-.10095-.19238-1.56274-3.25073-1.64075-3.45703-.13562-.35889.04529-.75977.40405-.89575.08093-.03052.24573-.04517.24573-.04517ZM10.46411,7.63672c-1.0802.40942-1.62634,1.62061-1.21838,2.7002.07397.1958.59082,1.28369,1.03723,2.21484-.38379-.11841-.52612-.11841-.60571-.11841-1.15503,0-2.09485.9397-2.09485,2.09473,0,.55957.2179,1.08569.61353,1.48145.40991.40942,4.23608,2.28369,4.27161,2.29956.16797.07446,1.66821.7251,2.75684.7251,1.93945,0,3.63953-1.57715,3.87048-3.59058.16553-1.44141-.23877-2.86597-1.08142-3.81104-.65417-.73364-1.84973-1.13745-2.47693-1.13745s-1.0271.06714-1.47876.14404c-.14868-.30029-.31494-.63184-.4668-.93457-.20581-.4104-.38391-.76367-.44153-.88843-.31677-.78833-1.09574-1.31494-1.94421-1.31494-.28103,0-.50305.04565-.74109.1355Z" fill="var(--iconPrimary, #222)"/>
</svg>