<?xml version="1.0" encoding="UTF-8"?>
<svg xmlns="http://www.w3.org/2000/svg" width="20" height="20" viewBox="0 0 20 20">
  <path d="M12.75,3.5h-1.25c-.41406,0-.75-.33594-.75-.75s.33594-.75.75-.75h1.25c.41406,0,.75.33594.75.75s-.33594.75-.75.75Z" fill="var(--iconPrimary, #222)"/>
  <path d="M8.5,3.5h-1.25c-.41406,0-.75-.33594-.75-.75s.33594-.75.75-.75h1.25c.41406,0,.75.33594.75.75s-.33594.75-.75.75Z" fill="var(--iconPrimary, #222)"/>
  <path d="M17.25,5c-.41406,0-.75-.33594-.75-.75,0-.41309-.33691-.75-.75-.75-.41406,0-.75-.33594-.75-.75s.33594-.75.75-.75c1.24023,0,2.25,1.00977,2.25,2.25,0,.41406-.33594.75-.75.75Z" fill="var(--iconPrimary, #222)"/>
  <path d="M17.25,8.6084c-.41406,0-.75-.33594-.75-.75v-.6084c0-.41406.33594-.75.75-.75s.75.33594.75.75v.6084c0,.41406-.33594.75-.75.75Z" fill="var(--iconPrimary, #222)"/>
  <path d="M2.75,9.25c-.41406,0-.75-.33594-.75-.75v-1.25c0-.41406.33594-.75.75-.75s.75.33594.75.75v1.25c0,.41406-.33594.75-.75.75Z" fill="var(--iconPrimary, #222)"/>
  <path d="M2.75,13.5c-.41406,0-.75-.33594-.75-.75v-1.25c0-.41406.33594-.75.75-.75s.75.33594.75.75v1.25c0,.41406-.33594.75-.75.75Z" fill="var(--iconPrimary, #222)"/>
  <path d="M4.25,18c-1.24023,0-2.25-1.00977-2.25-2.25,0-.41406.33594-.75.75-.75s.75.33594.75.75c0,.41309.33691.75.75.75.41406,0,.75.33594.75.75s-.33594.75-.75.75Z" fill="var(--iconPrimary, #222)"/>
  <path d="M2.75,5c-.41406,0-.75-.33594-.75-.75,0-1.24023,1.00977-2.25,2.25-2.25.41406,0,.75.33594.75.75s-.33594.75-.75.75c-.41309,0-.75.33691-.75.75,0,.41406-.33594.75-.75.75Z" fill="var(--iconPrimary, #222)"/>
  <path d="M11.29492,18c-.41406,0-.77246-.33594-.77246-.75s.31348-.75.72754-.75h.04492c.41406,0,.75.33594.75.75s-.33594.75-.75.75Z" fill="var(--iconPrimary, #222)"/>
  <path d="M8.40039,18h-1.25c-.41406,0-.75-.33594-.75-.75s.33594-.75.75-.75h1.25c.41406,0,.75.33594.75.75s-.33594.75-.75.75Z" fill="var(--iconPrimary, #222)"/>
  <path d="M14.5,20c-.25195,0-.50098-.07031-.72266-.20898-.40137-.25098-.64062-.68262-.64062-1.15625v-3.78711l-2.28613-2.62891c-.00879-.00977-.0166-.02051-.02539-.03125-.32422-.41504-.38086-.96875-.14844-1.44336.23145-.47168.7002-.76367,1.22363-.76367h6.73633c.50488.00098.95801.29199,1.18457.75879.24219.5.18164,1.09863-.1543,1.52539l-2.26758,2.58496v3.03809c0,.51855-.30078,1-.7666,1.22656l-1.53516.74707c-.19043.09277-.39453.13867-.59766.13867ZM12.19727,11.48047l2.25586,2.59473c.11816.13672.18359.31152.18359.49219v3.85059l1.2627-.61523v-3.23535c0-.18164.06641-.35742.18652-.49512l2.27441-2.5918h-6.16309ZM11.90332,11.48047h.00098-.00098Z" fill="var(--iconPrimary, #222)"/>
</svg>