<?xml version="1.0" encoding="UTF-8"?>
<svg xmlns="http://www.w3.org/2000/svg" width="20" height="20" viewBox="0 0 20 20">
  <path d="M19.16309,12.53125l-1.87402-1.65039c-.25879-.22754-.6543-.20312-.88184.05566-.22852.25879-.20312.6543.05566.88184l.63208.55664h-3.46997v-3.44946l.54004.62329c.12402.14258.29785.21582.47266.21582.14551,0,.29102-.0498.40918-.15234.26074-.22656.28906-.62109.06348-.88184l-1.6377-1.88965c-.23828-.27344-.70703-.27344-.94531,0l-1.6377,1.88965c-.22559.26074-.19727.65527.06348.88184.25977.22559.65527.19824.88184-.06348l.54004-.62329v3.44946h-3.46997l.63208-.55664c.25879-.22754.28418-.62305.05566-.88184-.22656-.25879-.62207-.2832-.88184-.05566l-1.87402,1.65039c-.13477.11816-.21191.28906-.21191.46875s.07715.35059.21191.46875l1.87402,1.65039c.11914.10449.2666.15625.41309.15625.17285,0,.3457-.07129.46875-.21191.22852-.25879.20312-.6543-.05566-.88184l-.63208-.55664h3.46997v3.44946l-.54004-.62329c-.22754-.26172-.62207-.28906-.88184-.06348-.26074.22656-.28906.62109-.06348.88184l1.6377,1.88965c.11914.13672.29102.21582.47266.21582s.35352-.0791.47266-.21582l1.6377-1.88965c.22559-.26074.19727-.65527-.06348-.88184-.25977-.22559-.6543-.19727-.88184.06348l-.54004.62329v-3.44946h3.46997l-.63208.55664c-.25879.22754-.28418.62305-.05566.88184.12305.14062.2959.21191.46875.21191.14648,0,.29395-.05176.41309-.15625l1.87402-1.65039c.13477-.11816.21191-.28906.21191-.46875s-.07715-.35059-.21191-.46875Z" fill="var(--iconPrimary, #222)" stroke-width="0"/>
  <path d="M12.75,3.52148h-1.25c-.41406,0-.75-.33594-.75-.75s.33594-.75.75-.75h1.25c.41406,0,.75.33594.75.75s-.33594.75-.75.75Z" fill="var(--iconPrimary, #222)" stroke-width="0"/>
  <path d="M8.5,3.52148h-1.25c-.41406,0-.75-.33594-.75-.75s.33594-.75.75-.75h1.25c.41406,0,.75.33594.75.75s-.33594.75-.75.75Z" fill="var(--iconPrimary, #222)" stroke-width="0"/>
  <path d="M8.5,18.02148h-1.25c-.41406,0-.75-.33594-.75-.75s.33594-.75.75-.75h1.25c.41406,0,.75.33594.75.75s-.33594.75-.75.75Z" fill="var(--iconPrimary, #222)" stroke-width="0"/>
  <path d="M17.25,5.02148c-.41406,0-.75-.33594-.75-.75,0-.41309-.33691-.75-.75-.75-.41406,0-.75-.33594-.75-.75s.33594-.75.75-.75c1.24023,0,2.25,1.00977,2.25,2.25,0,.41406-.33594.75-.75.75Z" fill="var(--iconPrimary, #222)" stroke-width="0"/>
  <path d="M17.25,9.27148c-.41406,0-.75-.33594-.75-.75v-1.25c0-.41406.33594-.75.75-.75s.75.33594.75.75v1.25c0,.41406-.33594.75-.75.75Z" fill="var(--iconPrimary, #222)" stroke-width="0"/>
  <path d="M2.75,9.27148c-.41406,0-.75-.33594-.75-.75v-1.25c0-.41406.33594-.75.75-.75s.75.33594.75.75v1.25c0,.41406-.33594.75-.75.75Z" fill="var(--iconPrimary, #222)" stroke-width="0"/>
  <path d="M2.75,13.52148c-.41406,0-.75-.33594-.75-.75v-1.25c0-.41406.33594-.75.75-.75s.75.33594.75.75v1.25c0,.41406-.33594.75-.75.75Z" fill="var(--iconPrimary, #222)" stroke-width="0"/>
  <path d="M4.25,18.02148c-1.24023,0-2.25-1.00977-2.25-2.25,0-.41406.33594-.75.75-.75s.75.33594.75.75c0,.41309.33691.75.75.75.41406,0,.75.33594.75.75s-.33594.75-.75.75Z" fill="var(--iconPrimary, #222)" stroke-width="0"/>
  <path d="M2.75,5.02148c-.41406,0-.75-.33594-.75-.75,0-1.24023,1.00977-2.25,2.25-2.25.41406,0,.75.33594.75.75s-.33594.75-.75.75c-.41309,0-.75.33691-.75.75,0,.41406-.33594.75-.75.75Z" fill="var(--iconPrimary, #222)" stroke-width="0"/>
</svg>