<?xml version="1.0" encoding="UTF-8"?>
<svg xmlns="http://www.w3.org/2000/svg" width="20" height="20" viewBox="0 0 20 20">
  <path d="M12.75,3.52148h-1.25c-.41406,0-.75-.33594-.75-.75s.33594-.75.75-.75h1.25c.41406,0,.75.33594.75.75s-.33594.75-.75.75Z" fill="var(--iconPrimary, #222)" stroke-width="0"/>
  <path d="M8.5,3.52148h-1.25c-.41406,0-.75-.33594-.75-.75s.33594-.75.75-.75h1.25c.41406,0,.75.33594.75.75s-.33594.75-.75.75Z" fill="var(--iconPrimary, #222)" stroke-width="0"/>
  <path d="M8.5,18.02148h-1.25c-.41406,0-.75-.33594-.75-.75s.33594-.75.75-.75h1.25c.41406,0,.75.33594.75.75s-.33594.75-.75.75Z" fill="var(--iconPrimary, #222)" stroke-width="0"/>
  <path d="M17.25,5.02148c-.41406,0-.75-.33594-.75-.75,0-.41309-.33691-.75-.75-.75-.41406,0-.75-.33594-.75-.75s.33594-.75.75-.75c1.24023,0,2.25,1.00977,2.25,2.25,0,.41406-.33594.75-.75.75Z" fill="var(--iconPrimary, #222)" stroke-width="0"/>
  <path d="M17.25,9.27148c-.41406,0-.75-.33594-.75-.75v-1.25c0-.41406.33594-.75.75-.75s.75.33594.75.75v1.25c0,.41406-.33594.75-.75.75Z" fill="var(--iconPrimary, #222)" stroke-width="0"/>
  <path d="M2.75,9.27148c-.41406,0-.75-.33594-.75-.75v-1.25c0-.41406.33594-.75.75-.75s.75.33594.75.75v1.25c0,.41406-.33594.75-.75.75Z" fill="var(--iconPrimary, #222)" stroke-width="0"/>
  <path d="M2.75,13.52148c-.41406,0-.75-.33594-.75-.75v-1.25c0-.41406.33594-.75.75-.75s.75.33594.75.75v1.25c0,.41406-.33594.75-.75.75Z" fill="var(--iconPrimary, #222)" stroke-width="0"/>
  <path d="M4.25,18.02148c-1.24023,0-2.25-1.00977-2.25-2.25,0-.41406.33594-.75.75-.75s.75.33594.75.75c0,.41309.33691.75.75.75.41406,0,.75.33594.75.75s-.33594.75-.75.75Z" fill="var(--iconPrimary, #222)" stroke-width="0"/>
  <path d="M2.75,5.02148c-.41406,0-.75-.33594-.75-.75,0-1.24023,1.00977-2.25,2.25-2.25.41406,0,.75.33594.75.75s-.33594.75-.75.75c-.41309,0-.75.33691-.75.75,0,.41406-.33594.75-.75.75Z" fill="var(--iconPrimary, #222)" stroke-width="0"/>
  <path d="M11.81152,10.77344c-.3125,0-.60352-.19629-.70996-.50879l-1.00977-2.96777c-.13379-.3916.07617-.81738.46875-.95117.3916-.13574.81738.07617.95117.46875l1.00977,2.96777c.13379.3916-.07617.81738-.46875.95117-.08008.02734-.16113.04004-.24121.04004Z" fill="var(--iconPrimary, #222)" stroke-width="0"/>
  <path d="M18.97656,11.21387c-.9668-.9668-2.53711-.9668-3.50391,0-.36621.36621-.59827.82812-.6842,1.32837-.53308-.2627-1.03809-.43872-1.4574-.49927-.26758-.03906-.54395-.0791-.78027-.15918l-5.25781-1.78809c-.39258-.13477-.81738.07617-.95117.46875-.13379.3916.07617.81836.46875.95117l5.25781,1.78809c.01196.00415.02332.00537.03516.00928l.33301,1.11279c.03857.12891.08252.24756.12866.36377-.49609.08008-.97314.30493-1.35522.68701-.46777.46777-.72559,1.08984-.72559,1.75195s.25781,1.28418.72559,1.75098c.4834.4834,1.11719.72461,1.75195.72461s1.26855-.24121,1.75195-.72461c.46777-.4668.72559-1.08887.72559-1.75098,0-.6333-.2417-1.22632-.67175-1.68652-.00818-.01196-.00964-.02637-.01868-.03809-.24805-.32227-.47461-.66406-.67188-1.0127-.0791-.14062-.14551-.30273-.20312-.49512l-.07373-.24658c.48242.20142,1.07935.52661,1.70068,1.00342.01428.01099.03101.01465.04578.02441.47375.43823,1.07434.66406,1.67786.66406.63477,0,1.26855-.24121,1.75195-.72461.46777-.4668.72559-1.08887.72559-1.75098s-.25781-1.28418-.72559-1.75195ZM13.65332,17.91895c-.37988.37988-1.00098.38184-1.38281,0-.18457-.18457-.28613-.42969-.28613-.69043s.10156-.50684.28613-.69141c.19043-.19043.44141-.28613.69141-.28613s.50098.0957.69141.28613c.18457.18457.28613.43066.28613.69141s-.10156.50586-.28613.69043ZM17.91602,13.65625c-.38086.38086-1.00195.38086-1.38281,0-.18457-.18457-.28613-.42969-.28613-.69043s.10156-.50684.28613-.69141c.19043-.19043.44141-.28613.69141-.28613s.50098.0957.69141.28613c.18457.18457.28613.43066.28613.69141s-.10156.50586-.28613.69043Z" fill="var(--iconPrimary, #222)" stroke-width="0"/>
</svg>