<?xml version="1.0" encoding="UTF-8"?>
<svg xmlns="http://www.w3.org/2000/svg" width="20" height="20" viewBox="0 0 20 20">
  <path d="m10,9.25h-3.02478l.92224-.98828c.2832-.30273.2666-.77734-.03613-1.06055-.30273-.28125-.77637-.26562-1.05957.03711l-2.09961,2.25c-.26953.28809-.26953.73535,0,1.02344l2.09961,2.25c.14746.1582.34766.23828.54785.23828.18359,0,.36719-.06641.51172-.20117.30273-.2832.31934-.75781.03613-1.06055l-.92224-.98828h3.02478v-1.5Z" fill="var(--iconPrimary, #222)"/>
  <path d="m15.75098,2.00244l-5.75098-.00244v7.25h3.52478l-.92224-.98828c-.2832-.30273-.2666-.77734.03613-1.06055.30273-.28125.77637-.26562,1.05957.03711l2.09961,2.25c.26953.28809.26953.73535,0,1.02344l-2.09961,2.25c-.14746.1582-.34766.23828-.54785.23828-.18359,0-.36719-.06641-.51172-.20117-.30273-.2832-.31934-.75781-.03613-1.06055l.92224-.98828h-3.52478v7.25h5.75c1.24268,0,2.25-1.00732,2.25-2.25V4.25244c0-1.24243-1.00684-2.24951-2.24902-2.25Z" fill="var(--iconPrimary, #222)"/>
  <path d="m8.5,3.5h-1.25c-.41406,0-.75-.33594-.75-.75s.33594-.75.75-.75h1.25c.41406,0,.75.33594.75.75s-.33594.75-.75.75Z" fill="var(--iconPrimary, #222)"/>
  <path d="m8.5,18h-1.25c-.41406,0-.75-.33594-.75-.75s.33594-.75.75-.75h1.25c.41406,0,.75.33594.75.75s-.33594.75-.75.75Z" fill="var(--iconPrimary, #222)"/>
  <path d="m2.75,9.25c-.41406,0-.75-.33594-.75-.75v-1.25c0-.41406.33594-.75.75-.75s.75.33594.75.75v1.25c0,.41406-.33594.75-.75.75Z" fill="var(--iconPrimary, #222)"/>
  <path d="m2.75,13.5c-.41406,0-.75-.33594-.75-.75v-1.25c0-.41406.33594-.75.75-.75s.75.33594.75.75v1.25c0,.41406-.33594.75-.75.75Z" fill="var(--iconPrimary, #222)"/>
  <path d="m4.25,18c-1.24023,0-2.25-1.00977-2.25-2.25,0-.41406.33594-.75.75-.75s.75.33594.75.75c0,.41309.33691.75.75.75.41406,0,.75.33594.75.75s-.33594.75-.75.75Z" fill="var(--iconPrimary, #222)"/>
  <path d="m2.75,5c-.41406,0-.75-.33594-.75-.75,0-1.24023,1.00977-2.25,2.25-2.25.41406,0,.75.33594.75.75s-.33594.75-.75.75c-.41309,0-.75.33691-.75.75,0,.41406-.33594.75-.75.75Z" fill="var(--iconPrimary, #222)"/>
</svg>