<?xml version="1.0" encoding="UTF-8"?>
<svg xmlns="http://www.w3.org/2000/svg" width="20" height="20" viewBox="0 0 20 20">
  <path d="M15.75,18H4.25c-1.24023,0-2.25-1.00977-2.25-2.25V4.25c0-1.24023,1.00977-2.25,2.25-2.25h11.5c1.24023,0,2.25,1.00977,2.25,2.25v11.5c0,1.24023-1.00977,2.25-2.25,2.25ZM4.25,3.5c-.41309,0-.75.33691-.75.75v11.5c0,.41309.33691.75.75.75h11.5c.41309,0,.75-.33691.75-.75V4.25c0-.41309-.33691-.75-.75-.75H4.25Z" fill="var(--iconPrimary, #222)"/>
  <path d="M6.125,8.76758c-.12109,0-.25488-.01562-.40137-.0498-.33594-.0791-.54492-.41504-.46582-.75098.07812-.33691.41895-.5498.75098-.46582.03418.00781.06152.01172.08301.01465-.00195-.02441.00293-.06738.00293-.12695,0-.95508.67676-1.55762.75391-1.62305.26172-.22168.65625-.19141.88086.07227.22168.26074.19141.65234-.06641.87598-.0166.01465-.31836.29785-.31836.6748,0,.62891-.25391.96191-.4668,1.12988-.15527.12305-.40039.24902-.75293.24902Z" fill="var(--iconPrimary, #222)"/>
  <path d="M13.58984,10.60547c-.34473,0-.625-.28027-.625-.625,0-.64648-.04199-.8584-.07715-.92188-.34473,0-.63477-.25293-.63477-.59863,0-.34473.27148-.59766.61621-.59766,1.3457,0,1.3457,1.27441,1.3457,2.11816,0,.34473-.28027.625-.625.625Z" fill="var(--iconPrimary, #222)"/>
  <path d="M10.37598,14.51758c-.34473,0-.625-.28027-.625-.625s.28027-.625.625-.625c.1875,0,.2666-.02246.29199-.03223-.00391-.00977.00977-.06152.00977-.16699,0-.34473.28027-.625.625-.625s.625.28027.625.625c0,.54102-.20117,1.44922-1.55176,1.44922Z" fill="var(--iconPrimary, #222)"/>
</svg>