<?xml version="1.0" encoding="UTF-8"?>
<svg   xmlns="http://www.w3.org/2000/svg" width="20" height="20" viewBox="0 0 20 20">
  <path d="M7.6364,19h-.3862c-1.24023,0-2.25-1.00977-2.25-2.25V3.25c0-1.24023,1.00977-2.25,2.25-2.25h5.5c1.24023,0,2.25,1.00977,2.25,2.25v5.27305c0,.41406-.33594.75-.75.75s-.75-.33594-.75-.75V3.25c0-.41309-.33691-.75-.75-.75h-5.5c-.41309,0-.75.33691-.75.75v13.5c0,.41309.33691.75.75.75h.3862c.41406,0,.75.33594.75.75s-.33594.75-.75.75Z" fill="var(--iconPrimary, #222)"/>
  <path d="M11.2502,5.5h-2.5c-.41406,0-.75-.33594-.75-.75s.33594-.75.75-.75h2.5c.41406,0,.75.33594.75.75s-.33594.75-.75.75Z" fill="var(--iconPrimary, #222)"/>
  <path d="M11.2502,8.5h-2.5c-.41406,0-.75-.33594-.75-.75s.33594-.75.75-.75h2.5c.41406,0,.75.33594.75.75s-.33594.75-.75.75Z" fill="var(--iconPrimary, #222)"/>
  <g>
    <path d="M12.39278,17.52148l-1.00781,1.00781c-.24316.24414-.24316.64062,0,.88477.12207.12207.28223.18262.44238.18262s.32031-.06055.44238-.18262l1.00781-1.00781c.24316-.24414.24316-.64062,0-.88477-.24414-.24414-.64062-.24414-.88477,0Z" fill="var(--iconPrimary, #222)"/>
    <path d="M11.85763,16.0918c-.24512-.24414-.64062-.24121-.88379.00293l-1.03516,1.04297c-.24316.24512-.24219.64062.00293.88379.12207.12109.28125.18164.44043.18164.16113,0,.32129-.06152.44336-.18457l1.03516-1.04297c.24316-.24512.24219-.64062-.00293-.88379Z" fill="var(--iconPrimary, #222)"/>
    <path d="M19.31368,9.79688c-.40039-.36523-.97168-.49609-1.7041-.38867-1.30029.19128-2.33276.88135-3.16406,1.65833-.17041-.01562-.33789-.03467-.51953-.03918-1.7168.0166-3.30664.94434-4.25391,2.48438-.20898.33887-.21777.7627-.02344,1.10742.19043.33691.54883.5459.93262.5459h1.39111c.07446.25635.19507.50061.39209.69727l.98438.9834c.19946.20007.44128.33069.69727.40479v1.36377c-.00391.3916.2041.75488.54492.94727.16504.09375.34863.13965.5332.13965.19922,0,.39941-.05469.57617-.16309,1.53809-.94727,2.46582-2.53809,2.48242-4.25195.00195-.17725-.02148-.34937-.03931-.52258.02063-.02197.04541-.04431.06567-.06628.88379-.95605,1.40137-1.94043,1.58203-3.01074.17676-1.03809-.16309-1.60059-.47754-1.88965ZM12.18477,13.77441c-.0321.04541-.05542.09351-.0813.14062h-1.19995c.58594-.81787,1.42261-1.35278,2.34265-1.54504-.34338.42029-.69849.88452-1.0614,1.40442ZM15.2961,18.30664v-1.21143c.04407-.02502.09253-.03638.13477-.06592.52466-.36548.9873-.71765,1.40906-1.06323-.1925.91895-.72693,1.75439-1.54382,2.34058ZM18.5588,11.47754c-.1416.83496-.54395,1.58887-1.26855,2.37207-.55908.60718-1.30359,1.23755-2.24402,1.91541l-.01306.00952c-.10669.07678-.2041.15125-.31616.22937-.14941.10352-.35645.08691-.4834-.04199l-.98535-.98438c-.1123-.1123-.14062-.28516-.06934-.43164l.02832-.05176c.40723-.58398.80371-1.10449,1.17676-1.5459.86035-1.01758,1.93848-2.08691,3.4082-2.30371.10645-.01562.2041-.02344.29102-.02344.18066,0,.31543.0332.38574.09766.11719.10742.15137.39746.08984.75879Z" fill="var(--iconPrimary, #222)"/>
  </g>
</svg>