<?xml version="1.0" encoding="UTF-8"?>
<svg xmlns="http://www.w3.org/2000/svg" width="20" height="20" viewBox="0 0 20 20">
  <path d="m17.95801,10.28711c-.34375-.41016-.8252-.66113-1.35742-.70801-.53027-.03906-1.0498.11621-1.44336.44629l-3,2.37817c-.05078-1.05737-.91943-1.90356-1.98926-1.90356h-3.95215c-.86621,0-1.68164.33789-2.29688.95117l-2.69922,2.69922c-.29297.29297-.29297.76758,0,1.06055.14648.14648.33789.21973.53027.21973s.38379-.07324.53027-.21973l2.69824-2.69824c.33203-.33105.77051-.5127,1.2373-.5127h3.95215c.27539,0,.49902.22363.49902.49902,0,.27637-.22363.50098-.49902.50098h-2.17676c-.41406,0-.75.33594-.75.75s.33594.75.75.75h3.1543c.50684,0,1.00391-.17383,1.39746-.4873l3.5625-2.8252c.10254-.08496.23828-.125.36328-.11426.13281.01172.25293.07422.33887.17676.17676.21094.14844.52637-.05566.69824l-4.29395,3.52246c-.40625.3418-.9209.5293-1.4502.5293h-4.6875c-.21777,0-.42578.09473-.56738.25977l-1.29102,1.49609c-.27148.31348-.23633.78711.07715,1.05762.1416.12305.31641.18262.49023.18262.20996,0,.41992-.08789.56738-.25977l1.06738-1.23633h4.34375c.88184,0,1.74023-.3125,2.4082-.875l4.29395-3.52246c.84375-.70801.95508-1.97168.24805-2.81543Z" fill="var(--iconPrimary, #222)"/>
  <path d="m10,1.25c-3.1709,0-5.75,2.5791-5.75,5.75,0,.50781.06641,1.01465.19824,1.50391.09082.33398.39355.55469.72461.55469.06445,0,.12988-.00781.19531-.02539.39941-.1084.63672-.51953.5293-.91992-.08691-.32202-.12939-.65393-.13916-.98828h1.80542c-.01562.36523-.01562.74658.01636,1.15625.02637.34375.3291.60059.67188.57422.34375-.02637.60156-.32715.57422-.67188-.02979-.37915-.02637-.72632-.00977-1.05859h2.37134c.01831.41052.01538.84485-.03931,1.32812-.03906.34277.20801.65234.55078.69141.02344.00293.04785.00391.07129.00391.31348,0,.58398-.23535.62012-.55469.05933-.52515.07471-1.01355.05762-1.46875h1.79419c-.00366.12744-.00732.25488-.02271.37891-.04883.41211.24414.78516.65527.83496.41406.03809.78516-.24414.83496-.65527.02637-.22559.04004-.45215.04004-.68359,0-3.1709-2.5791-5.75-5.75-5.75Zm-4.07959,4.625c.41455-1.49951,1.61841-2.66919,3.14551-3.01404-.45654.56165-1.07275,1.55359-1.35791,3.01404h-1.7876Zm3.05908,0c.24707-1.06653.69849-1.78564,1.02539-2.19434.32959.40552.77979,1.12671,1.02441,2.19434h-2.0498Zm1.9668-3.01025c1.52124.34839,2.71973,1.51489,3.1333,3.01025h-1.77197c-.2793-1.46313-.89868-2.44824-1.36133-3.01025Z" fill="var(--iconPrimary, #222)"/>
</svg>