<?xml version="1.0" encoding="UTF-8"?>
<svg   xmlns="http://www.w3.org/2000/svg" width="20" height="20" viewBox="0 0 20 20">
  <path d="M12.7502,19h-5.5c-1.24023,0-2.25-1.00977-2.25-2.25V3.25c0-1.24023,1.00977-2.25,2.25-2.25h5.5c1.24023,0,2.25,1.00977,2.25,2.25v13.5c0,1.24023-1.00977,2.25-2.25,2.25ZM7.2502,2.5c-.41309,0-.75.33691-.75.75v13.5c0,.41309.33691.75.75.75h5.5c.41309,0,.75-.33691.75-.75V3.25c0-.41309-.33691-.75-.75-.75h-5.5Z" fill="var(--iconPrimary, #222)"/>
  <path d="M11.2502,5.5h-2.5c-.41406,0-.75-.33594-.75-.75s.33594-.75.75-.75h2.5c.41406,0,.75.33594.75.75s-.33594.75-.75.75Z" fill="var(--iconPrimary, #222)"/>
  <path d="M11.2502,8.5h-2.5c-.41406,0-.75-.33594-.75-.75s.33594-.75.75-.75h2.5c.41406,0,.75.33594.75.75s-.33594.75-.75.75Z" fill="var(--iconPrimary, #222)"/>
  <path d="M11.2502,11.5h-2.5c-.41406,0-.75-.33594-.75-.75s.33594-.75.75-.75h2.5c.41406,0,.75.33594.75.75s-.33594.75-.75.75Z" fill="var(--iconPrimary, #222)"/>
  <circle cx="11.22321" cy="13.96545" r=".75" fill="var(--iconPrimary, #222)"/>
</svg>