<?xml version="1.0" encoding="UTF-8"?>
<svg   xmlns="http://www.w3.org/2000/svg" width="20" height="20" viewBox="0 0 20 20">
  <path d="M19,9.25004h-2c-.01434,0-.02625.00732-.04034.0083-.34607-3.26807-2.94958-5.87183-6.21783-6.21802.00079-.01392.00818-.02612.00818-.04028V1.00004c0-.41406-.33594-.75-.75-.75s-.75.33594-.75.75v2c0,.01416.00739.02637.00818.04028-3.26825.34619-5.87177,2.94995-6.21783,6.21802-.0141-.00098-.026-.0083-.04034-.0083H1c-.41406,0-.75.33594-.75.75s.33594.75.75.75h2c.01434,0,.02625-.00732.04034-.0083.34607,3.26807,2.94958,5.87183,6.21783,6.21802-.00079.01392-.00818.02612-.00818.04028v2c0,.41406.33594.75.75.75s.75-.33594.75-.75v-2c0-.01416-.00739-.02637-.00818-.04028,3.26825-.34619,5.87177-2.94995,6.21783-6.21802.0141.00098.026.0083.04034.0083h2c.41406,0,.75-.33594.75-.75s-.33594-.75-.75-.75ZM10,15.50004c-3.03271,0-5.5-2.46777-5.5-5.5s2.46729-5.5,5.5-5.5,5.5,2.46777,5.5,5.5-2.46729,5.5-5.5,5.5Z" fill="var(--iconPrimary, #222)"/>
</svg>