<?xml version="1.0" encoding="UTF-8"?>
<svg xmlns="http://www.w3.org/2000/svg" width="20" height="20" viewBox="0 0 20 20">
  <path d="M15,10.52112c-2.48535,0-4.5,2.01477-4.5,4.5s2.01465,4.5,4.5,4.5,4.5-2.01477,4.5-4.5-2.01465-4.5-4.5-4.5ZM17.5,15.646h-1.875v1.875c0,.34521-.27979.625-.625.625s-.625-.27979-.625-.625v-1.875h-1.875c-.34521,0-.625-.27979-.625-.625s.27979-.625.625-.625h1.875v-1.875c0-.34521.27979-.625.625-.625s.625.27979.625.625v1.875h1.875c.34521,0,.625.27979.625.625s-.27979.625-.625.625Z" fill="var(--iconPrimary, #222)"/>
  <path d="M18.5,5h-3.86707c-.32886-1.15063-1.37805-2-2.63293-2s-2.30408.84937-2.63293,2H1.5c-.41406,0-.75.33594-.75.75s.33594.75.75.75h7.86707c.32886,1.15063,1.37805,2,2.63293,2s2.30408-.84937,2.63293-2h3.86707c.41406,0,.75-.33594.75-.75s-.33594-.75-.75-.75ZM12,7c-.68945,0-1.25-.56055-1.25-1.25s.56055-1.25,1.25-1.25,1.25.56055,1.25,1.25-.56055,1.25-1.25,1.25Z" fill="var(--iconPrimary, #222)"/>
  <path d="M9.25,11h-1.60242c-.32886-1.15063-1.37805-2-2.63293-2s-2.30408.84937-2.63293,2h-.88171c-.41406,0-.75.33594-.75.75s.33594.75.75.75h.88171c.32886,1.15063,1.37805,2,2.63293,2s2.30408-.84937,2.63293-2h1.60242c.41406,0,.75-.33594.75-.75s-.33594-.75-.75-.75ZM5.01465,13c-.68945,0-1.25-.56055-1.25-1.25s.56055-1.25,1.25-1.25,1.25.56055,1.25,1.25-.56055,1.25-1.25,1.25Z" fill="var(--iconPrimary, #222)"/>
</svg>