<?xml version="1.0" encoding="UTF-8"?>
<svg xmlns="http://www.w3.org/2000/svg" width="14" height="14" viewBox="0 0 14 14">
  <path d="M7.00293,8.7666c-.15186,0-.30518-.02051-.45605-.06055-.45117-.12109-.82861-.41113-1.0625-.81543-.2334-.40527-.29541-.87598-.1748-1.32715.12109-.45215.41064-.8291.81543-1.0625.4043-.2334.875-.29492,1.32715-.17578.45166.12109.82959.41016,1.06348.81543.48145.83496.19482,1.90723-.64014,2.39062-.27002.15527-.56934.23535-.87256.23535ZM7,6.51562c-.08691,0-.17236.02246-.24951.06738-.11621.06738-.19873.1748-.2334.30371s-.0166.26367.05029.37891c.06641.11621.17432.19824.30322.2334.12939.03516.26416.01562.37939-.0498.23828-.13867.3208-.44531.18262-.68359-.06641-.11621-.17432-.19824-.30322-.2334-.04297-.01074-.08643-.0166-.12939-.0166Z" fill="var(--iconPrimary, #222)"/>
  <path d="M4.79688,13.0127c-.25684,0-.51611-.06445-.75049-.2002l-.58398-.33691c-.67627-.38867-.94678-1.24805-.61426-1.95605l.39062-.8291c-.16846-.23633-.31396-.4873-.43408-.75l-.9126-.0752c-.79102-.06543-1.38867-.71387-1.38965-1.50781l-.00049-.6748c-.00098-.78027.60889-1.44434,1.3877-1.51074l.91113-.07617c.06104-.13477.12695-.26367.19922-.3877.0708-.12305.14844-.24414.23438-.36426l-.39014-.82715c-.3335-.70605-.06494-1.56641.61133-1.95703l.5835-.33789c.67725-.38965,1.55664-.19434,2.00195.44727l.52295.75195c.2876-.02734.57666-.02734.86523,0l.52246-.75391c.44531-.6416,1.32373-.84082,2.00195-.44824l.5835.33691c.67725.38867.94727,1.24902.61377,1.95703l-.39014.82812c.16846.23633.31348.4873.43408.75l.9126.0752c.7793.06445,1.38965.72754,1.38965,1.50879l.00049.67383c.00098.78027-.60889,1.44434-1.3877,1.51074l-.91113.07617c-.06104.13477-.12695.26367-.19775.38672-.07178.12402-.1499.24512-.23584.36523l.39014.82715c.33398.70703.06494,1.56641-.61182,1.95703l-.58301.33789c-.6748.3916-1.55566.19434-2.00195-.44727l-.52246-.75098c-.2876.02734-.57666.02734-.86621,0l-.52197.75293c-.29102.41895-.76709.64844-1.25098.64844ZM4.7959,2.26855c-.04492,0-.08984.01172-.13086.03516l-.5835.33789c-.11816.06836-.16553.21875-.10693.3418l.5542,1.1748c.10498.22168.07031.48438-.08838.6709-.13135.15527-.25342.32129-.35791.50391-.09912.16992-.18262.35352-.25684.5625-.08203.23145-.29199.39355-.53662.41406l-1.29443.1084c-.13818.01172-.24268.125-.24268.26367l.00049.6748c0,.1377.10449.25098.24268.2627l1.29541.10742c.24512.02051.45557.18262.5376.41504.13721.3877.34375.74512.61475,1.06152.15967.1875.19482.4502.09033.67285l-.55371,1.17578c-.05811.12305-.01123.27344.10693.34082l.58447.33789c.11963.06934.271.03516.34961-.0791l.74072-1.06836c.14062-.20117.38525-.30762.62744-.25781.4082.07422.82129.07422,1.22656,0,.2417-.04395.4873.05566.62793.25781l.7417,1.06641c.07812.1123.23193.14551.34961.07812l.5835-.33789c.11865-.06836.16553-.21875.10693-.3418l-.5542-1.1748c-.10498-.22168-.07031-.48438.08838-.6709.13184-.15527.25342-.32227.35889-.50488h0c.09766-.16895.18359-.35742.25537-.56055.08203-.23242.29199-.39453.53711-.41504l1.29443-.1084c.13818-.01172.24268-.125.24268-.26367l-.00049-.6748c0-.13867-.10449-.25098-.24268-.2627l-1.29541-.10742c-.24512-.02051-.45557-.18262-.5376-.41504-.13721-.3877-.34375-.74414-.61426-1.06055-.16016-.18652-.1958-.4502-.09082-.67188l.55371-1.17676c.05811-.12402.01123-.27441-.10693-.3418l-.58447-.33789c-.11768-.06738-.27197-.0332-.34961.0791l-.74072,1.06836c-.13965.20117-.38184.30469-.62598.25879-.41113-.07617-.82373-.07617-1.22803,0-.24609.04199-.48779-.05664-.62793-.25781l-.7417-1.06738c-.05078-.07324-.13428-.11328-.21875-.11328Z" fill="var(--iconPrimary, #222)"/>
</svg>