<?xml version="1.0" encoding="UTF-8"?>
<svg id="f" data-name="ICONS" xmlns="http://www.w3.org/2000/svg" width="20" height="20" viewBox="0 0 20 20">
  <path d="M9.14551,12.37695c-.11914,0-.23926-.02832-.35254-.08789-.42383-.22656-.77539-.56641-1.0166-.9834-.34375-.59375-.43457-1.28613-.25684-1.94922s.60254-1.2168,1.19629-1.55957c1.22852-.70703,2.80176-.28516,3.50781.94043.20703.3584.09961.84082-.25684,1.04883-.35742.20898-.80078.1123-1.00977-.24316-.32715-.56543-.98145-.74414-1.49121-.44727-.24707.14258-.42383.37305-.49805.64844-.07324.27637-.03516.56445.10742.81152.10059.17285.24707.31543.4248.40918.36523.19531.50293.64941.30859,1.01562-.13574.25293-.39453.39648-.66309.39648Z" fill="var(--iconPrimary, #222)"/>
  <path d="M6.91895,18.3252c-.34082,0-.68652-.08789-1.00488-.27148l-.81934-.47266c-.89453-.51465-1.25-1.64941-.81055-2.58398l.58008-1.23242c-.26562-.36328-.49023-.75098-.67285-1.16113l-1.35547-.1123c-1.04492-.08594-1.83398-.94141-1.83594-1.99023v-.94824c-.00195-1.03223.80371-1.9082,1.83398-1.99316l1.35352-.11426c.09082-.20898.19141-.4082.30176-.60059.11035-.18945.2334-.37793.36914-.56348l-.58008-1.22949c-.44141-.93359-.08594-2.06934.80762-2.58496l.81934-.47363c.89355-.51562,2.05469-.25879,2.64355.58984l.77637,1.11816c.44531-.04883.89355-.0459,1.34082,0l.77637-1.12012c.58789-.84766,1.74609-1.1084,2.64258-.59277l.81934.47266c.89453.51562,1.25,1.65039.81152,2.58398l-.58105,1.23242c.26562.36426.49023.75195.67188,1.16113l1.35742.1123c.71289.05859,1.34375.49805,1.64746,1.14648.1748.375.01367.82129-.3623.99707-.37695.1748-.82129.0127-.99707-.3623-.0752-.16211-.2334-.27246-.41113-.28711l-1.81934-.15039c-.29395-.02441-.54688-.21875-.64551-.49609-.19824-.56055-.49707-1.07617-.8877-1.5332-.19141-.22461-.2334-.54004-.1084-.80664l.77832-1.65234c.11133-.2373.02441-.51465-.20312-.64648l-.81934-.47266c-.22559-.12793-.51367-.06348-.66113.14844l-1.04102,1.50195c-.16797.24121-.46387.36523-.75195.30957-.59082-.10938-1.1875-.10938-1.77051,0-.28809.05762-.58594-.06738-.75391-.30957l-1.04102-1.49902c-.14648-.21094-.43555-.27832-.66016-.14746l-.82031.47461c-.22656.13086-.31348.4082-.20117.64551l.77832,1.65039c.12598.2666.08398.58203-.10645.80664-.20508.24121-.375.47852-.51758.72559-.14258.24805-.2627.5127-.36816.80957-.09863.27832-.35059.47266-.64355.49707l-1.81836.15332c-.25879.02148-.45898.24023-.45898.49805v.94824c0,.26074.19824.47461.45898.49707l1.81836.15039c.29395.02441.54688.21875.64551.49609.19922.56152.49707,1.07715.8877,1.5332.19141.22363.23438.54004.1084.80664l-.77734,1.65234c-.1123.2373-.02539.51465.20215.64551l.82031.47363c.22754.13184.51172.06543.66113-.14844l.44727-.64453c.23633-.34082.7041-.42676,1.04297-.18945.34082.23535.42578.70312.18945,1.04297l-.44727.64551c-.38867.56055-1.00586.86426-1.63867.86426Z" fill="var(--iconPrimary, #222)"/>
  <path d="M15,10.5c-2.48529,0-4.5,2.0147-4.5,4.5s2.01471,4.5,4.5,4.5,4.5-2.0147,4.5-4.5-2.0147-4.5-4.5-4.5ZM12.54773,17.1113c.59327-.6927,1.47297-1.1015,2.41327-1.0773.9674-.0372,1.8749.3809,2.4763,1.0953-.5957.6814-1.4611,1.1207-2.4373,1.1207-.9846,0-1.8563-.4471-2.45227-1.1387ZM14.812,11.8726c.8788-.052,1.6333.6184,1.6852,1.4972.0019.0313.0028.0628.0028.0942.0241.8531-.6469,1.5649-1.5,1.591-.8788.0519-1.6333-.6184-1.6852-1.4973-.0519-.8787.6184-1.6333,1.4972-1.6851Z" fill="var(--iconPrimary, #222)"/>
</svg>