<?xml version="1.0" encoding="UTF-8"?>
<svg xmlns="http://www.w3.org/2000/svg" width="20" height="20" viewBox="0 0 20 20">
  <path d="M18.5,5h-3.86707c-.32886-1.15063-1.37805-2-2.63293-2s-2.30408.84937-2.63293,2H1.5c-.41406,0-.75.33594-.75.75s.33594.75.75.75h7.86707c.32886,1.15063,1.37805,2,2.63293,2s2.30408-.84937,2.63293-2h3.86707c.41406,0,.75-.33594.75-.75s-.33594-.75-.75-.75ZM12,7c-.68945,0-1.25-.56055-1.25-1.25s.56055-1.25,1.25-1.25,1.25.56055,1.25,1.25-.56055,1.25-1.25,1.25Z" fill="var(--iconPrimary, #222)"/>
  <path d="M15,10.521c-2.48535,0-4.5,2.01489-4.5,4.5,0,2.48535,2.01465,4.5,4.5,4.5s4.5-2.01465,4.5-4.5c0-2.48511-2.01465-4.5-4.5-4.5ZM17.5,15.625h-3.35791l.70459.7041c.24316.24414.24316.64062,0,.88477-.12207.12207-.28223.18262-.44238.18262s-.32031-.06055-.44238-.18262l-1.75-1.75c-.24316-.24414-.24316-.64062,0-.88477l1.75-1.75c.24414-.24414.64062-.24414.88477,0,.24316.24414.24316.64062,0,.88477l-.66162.66113h3.31494c.34473,0,.625.28027.625.625s-.28027.625-.625.625Z" fill="var(--iconPrimary, #222)"/>
  <path d="M9.25,11h-1.60242c-.32886-1.15063-1.37805-2-2.63293-2s-2.30408.84937-2.63293,2h-.88171c-.41406,0-.75.33594-.75.75s.33594.75.75.75h.88171c.32886,1.15063,1.37805,2,2.63293,2s2.30408-.84937,2.63293-2h1.60242c.41406,0,.75-.33594.75-.75s-.33594-.75-.75-.75ZM5.01465,13c-.68945,0-1.25-.56055-1.25-1.25s.56055-1.25,1.25-1.25,1.25.56055,1.25,1.25-.56055,1.25-1.25,1.25Z" fill="var(--iconPrimary, #222)"/>
</svg>