<?xml version="1.0" encoding="UTF-8"?>
<svg   xmlns="http://www.w3.org/2000/svg" width="20" height="20" viewBox="0 0 20 20">
  <path d="M10,15.75c3.17564,0,5.75-2.57436,5.75-5.75s-2.57436-5.75-5.75-5.75v11.5Z" fill="#000" stroke-width="0"/>
  <path d="M10,1.25C5.17529,1.25,1.25,5.1748,1.25,10s3.92529,8.75,8.75,8.75,8.75-3.9248,8.75-8.75S14.82471,1.25,10,1.25ZM3.03687,12h6.21313v1.5H3.65485c-.26044-.47021-.46649-.97339-.61798-1.5ZM3.95898,6h5.29102v1.5H3.20349c.19604-.53101.44684-1.0354.75549-1.5ZM9.25,4.5h-3.96075c1.08984-.93481,2.45605-1.55566,3.96075-1.71094v1.71094ZM9.25,9v1.5H2.77533c-.01141-.16602-.02533-.3313-.02533-.5,0-.34009.03174-.67236.07727-1h6.42273ZM4.76294,15h4.48706v2.21094c-1.75861-.18164-3.32849-.99805-4.48706-2.21094ZM10.75,17.21094V2.78906c3.64648.37646,6.5,3.46631,6.5,7.21094s-2.85352,6.83447-6.5,7.21094Z" fill="var(--iconPrimary, #222)" stroke-width="0"/>
</svg>