<?xml version="1.0" encoding="UTF-8"?>
<svg xmlns="http://www.w3.org/2000/svg" width="20" height="20" viewBox="0 0 20 20">
  <path d="M14.99951,10.5c-2.48529,0-4.5,2.01471-4.5,4.5s2.01471,4.5,4.5,4.5,4.5-2.01471,4.5-4.5-2.01471-4.5-4.5-4.5ZM17.49951,15.625h-1.875v1.875c0,.34473-.28027.625-.625.625s-.625-.28027-.625-.625v-1.875h-1.875c-.34473,0-.625-.28027-.625-.625s.28027-.625.625-.625h1.875v-1.875c0-.34473.28027-.625.625-.625s.625.28027.625.625v1.875h1.875c.34473,0,.625.28027.625.625s-.28027.625-.625.625Z" fill="var(--iconPrimary, #222)"/>
  <path d="M9.40332,11.97949h-1.39648c-.75684,0-1.43457-.3916-1.81348-1.04688-.37793-.65527-.37891-1.43848,0-2.09375L10.22363,1.85742c.37891-.65625,1.05762-1.04785,1.81445-1.04785h.00098c.75684.00098,1.43457.39258,1.8125,1.04785l3.61816,6.26758c.19336.33398.07812.76074-.25586.95312-.33203.19336-.76074.0791-.95312-.25586l-3.61816-6.26758c-.18164-.31445-.4834-.34863-.60449-.34863h0c-.12207,0-.42383.03418-.60547.34961l-4.03027,6.98047c-.18164.31543-.06055.59277,0,.69824.06055.10449.24121.34863.60449.34863h1.39648c.38574,0,.69824.3125.69824.69824s-.3125.69824-.69824.69824Z" fill="var(--iconPrimary, #222)"/>
  <path d="M7.10352,17.93066c-1.56738,0-3.04883-.5957-4.18262-1.68652-1.16211-1.11816-1.81934-2.62207-1.85059-4.23438-.04688-2.45508,1.375-4.67383,3.62402-5.6543.3457-.15234.74707.00781.89648.35156.15039.34473-.00684.74609-.35156.89648-1.74219.75977-2.84375,2.47852-2.80762,4.37988.02441,1.24805.5332,2.41309,1.43359,3.2793s2.07227,1.34277,3.33203,1.30566c.43652-.00879.86621-.07617,1.27734-.20215.36328-.10547.74023.09375.85059.45215.10938.36035-.09277.74023-.45215.85059-.53223.16211-1.08691.25-1.64941.26074-.04004.00098-.08008.00098-.12012.00098Z" fill="var(--iconPrimary, #222)"/>
</svg>