<?xml version="1.0" encoding="UTF-8"?>
<svg   xmlns="http://www.w3.org/2000/svg" width="20" height="20" viewBox="0 0 20 20">
  <ellipse cx="13.02836" cy="6.97173" rx="3.2446" ry="6.20558" transform="translate(-1.11384 11.25441) rotate(-45)" fill="var(--iconPrimary, #222)" opacity=".2"/>
  <path d="M15.86328,12.67587c-.48633,0-1.0166-.08691-1.57861-.26367-1.37549-.43066-2.82471-1.35938-4.08105-2.61621-1.25586-1.25586-2.18506-2.70508-2.61621-4.08008-.48291-1.54199-.29736-2.84277.52246-3.66211.81982-.82129,2.12207-1.00684,3.66211-.52246,1.37549.43066,2.8252,1.36035,4.08105,2.61621h0c1.25586,1.25586,2.18506,2.70508,2.61621,4.08008.48291,1.54199.29736,2.84277-.52246,3.66211-.521.52148-1.23584.78613-2.0835.78613ZM10.20068,2.76864c-.44482,0-.80078.11621-1.03027.3457-.3999.39941-.45508,1.18457-.15186,2.15234.36035,1.14941,1.15771,2.38086,2.24561,3.46875,1.08838,1.08789,2.32031,1.88574,3.46924,2.24609.9668.30176,1.75293.24805,2.15283-.15234.3999-.39941.45508-1.18457.15186-2.15234-.36035-1.14941-1.15771-2.38086-2.24561-3.46875h0c-1.08789-1.08789-2.31982-1.88574-3.46875-2.24609-.41309-.12891-.79248-.19336-1.12305-.19336Z" fill="var(--iconPrimary, #222)"/>
  <path d="M18.74316,9.64848c-.00153-.03711-.01923-.06885-.02606-.10449-.02521-.41357-.10254-.85229-.24786-1.31641-.43115-1.375-1.36035-2.82422-2.61621-4.08008s-2.70557-2.18555-4.08105-2.61621c-.32782-.10303-.64203-.16943-.94592-.21216-.05121-.01538-.09863-.03931-.15417-.0437-.22168-.0166-.4458-.02539-.67188-.02539C5.17529,1.25004,1.25,5.17485,1.25,10.00004s3.92529,8.75,8.75,8.75,8.75-3.9248,8.75-8.75c0-.11816-.00195-.23438-.00684-.35156ZM14.79248,5.20805c1.08789,1.08789,1.88525,2.31934,2.24561,3.46875.30322.96777.24805,1.75293-.15186,2.15234-.3999.40039-1.18604.4541-2.15283.15234-1.14893-.36035-2.38086-1.1582-3.46924-2.24609-1.08789-1.08789-1.88525-2.31934-2.24561-3.46875-.30322-.96777-.24805-1.75293.15186-2.15234.22949-.22949.58545-.3457,1.03027-.3457.33057,0,.70996.06445,1.12305.19336,1.14893.36035,2.38086,1.1582,3.46875,2.24609ZM10,17.25004c-3.99756,0-7.25-3.25195-7.25-7.25,0-3.09766,1.95593-5.73975,4.69446-6.77612-.19385.70581-.15106,1.55322.14294,2.49194.43115,1.375,1.36035,2.82422,2.61621,4.08008,1.25635,1.25684,2.70557,2.18555,4.08105,2.61621.56201.17676,1.09229.26367,1.57861.26367.32928,0,.63135-.052.91699-.13135-1.03351,2.74438-3.67883,4.70557-6.78027,4.70557Z" fill="var(--iconPrimary, #222)"/>
</svg>