<?xml version="1.0" encoding="UTF-8"?>
<svg   xmlns="http://www.w3.org/2000/svg" width="20" height="20" viewBox="0 0 20 20">
  <polygon points="10.75 9.3656 3.49802 5.33876 10.75 1.24444 17.93242 5.44872 17.8776 13.64708 10.92541 17.8975 10.75 9.3656" fill="var(--iconPrimary, #222)" opacity=".2"/>
  <path d="M17.7749,4.25688L11.89551.79985c-.00098,0-.00195-.00098-.00244-.00098-.70898-.41504-1.58545-.4082-2.28857.0127l-6.19482,3.70605c-.2998.17773-.55322.41797-.7334.69238-1.05713,1.61328-1.54248,3.49316-1.40283,5.43555.32666,4.54492,4.27979,8.10449,9.00049,8.10449h.27295c.2666,0,.52881-.07129.75684-.20508l6.4624-3.7793c.68994-.40723,1.11816-1.1582,1.11816-1.95898v-6.61035c0-.79395-.42529-1.53711-1.10938-1.93945ZM10.37549,2.09868c.11816-.07129.25098-.10645.38428-.10645.12988,0,.25977.0332.37646.10156l5.47723,3.22046-5.86017,3.19531-5.75427-3.19482,5.37646-3.21606ZM2.76953,10.53813c-.10712-1.49194.2475-2.9292.99231-4.19531l6.23816,3.46387v7.43066c-3.81445-.13379-6.96631-3.02393-7.23047-6.69922ZM17.00635,13.4727l-5.50635,3.21997v-6.88257l5.88428-3.2085v6.20508c0,.27344-.146.5293-.37793.66602Z" fill="var(--iconPrimary, #222)"/>
</svg>