<?xml version="1.0" encoding="UTF-8"?>
<svg xmlns="http://www.w3.org/2000/svg" width="20" height="20" viewBox="0 0 20 20">
  <path d="M11,3.25c-.93262,0-1.84473.16406-2.71289.48926-.3877.14453-.58496.57715-.43945.96484.1123.30176.39844.4873.70215.4873.08691,0,.17578-.01562.2627-.04785.46375-.17285.94739-.26807,1.4375-.3269v2.18726c0,.41406.33594.75.75.75s.75-.33594.75-.75v-3.00391c0-.41406-.33594-.75-.75-.75Z" fill="var(--iconPrimary, #222)" opacity=".35"/>
  <path d="M6.97363,10.25h-2.15771c.05798-.48389.15112-.96094.3208-1.41895.14453-.38867-.05469-.82031-.44238-.96387-.3877-.14453-.81934.05273-.96387.44238-.31934.86133-.48047,1.76562-.48047,2.69043,0,.41406.33594.75.75.75h2.97363c.41406,0,.75-.33594.75-.75s-.33594-.75-.75-.75Z" fill="var(--iconPrimary, #222)" opacity=".35"/>
  <path d="M13.54688,19.57422c-.19922,0-.39941-.03906-.59082-.11719-.58105-.23926-.95605-.80078-.95605-1.42871v-6.98242c0-.62598.37402-1.18555.95215-1.42578.5791-.24121,1.23926-.10938,1.68262.33203l4.77344,4.75879c.44434.44434.57617,1.10547.33594,1.68555-.23926.5791-.7998.95312-1.42676.95312h-1.90723l-1.76758,1.76562c-.29785.2998-.69238.45898-1.0957.45898ZM13.57617,11.01465l-.07617,7.01367c0,.01758,0,.03027.02734.04102l1.78516-1.76172c.28906-.29199.68945-.45801,1.09766-.45801h1.90723l-4.74121-4.83496Z" fill="var(--iconPrimary, #222)"/>
  <path d="M3.5,4.25c0-.41016.33008-.75.75-.75h0c.40967,0,.75.33984.75.75h0c0,.41016-.34033.75-.75.75h0c-.41992,0-.75-.33984-.75-.75Z" fill="var(--iconPrimary, #222)"/>
  <path d="M9.5,10.25c0-.41016.33008-.75.75-.75h0c.40967,0,.75.33984.75.75h0c0,.41016-.34033.75-.75.75h0c-.41992,0-.75-.33984-.75-.75Z" fill="var(--iconPrimary, #222)"/>
  <path d="M7.5,8.25c0-.41016.33008-.75.75-.75h0c.40967,0,.75.33984.75.75h0c0,.41016-.34033.75-.75.75h0c-.41992,0-.75-.33984-.75-.75Z" fill="var(--iconPrimary, #222)"/>
  <path d="M5.5,6.25c0-.41016.33008-.75.75-.75h0c.40967,0,.75.33984.75.75h0c0,.41016-.34033.75-.75.75h0c-.41992,0-.75-.33984-.75-.75Z" fill="var(--iconPrimary, #222)"/>
  <path d="M9.74219,18.63672c-.04492,0-.08984-.00391-.13477-.01172-3.43945-.625-5.99805-3.46094-6.32227-6.88672-.09082-.00098-.2041-.01953-.28418.00098-.59961,0-1.16406-.2334-1.58887-.65723-.42676-.4248-.66211-.99023-.66211-1.59277V3C.75,1.75977,1.75977.75,3,.75h6.48926c.60254,0,1.16797.23535,1.59277.66211.42578.42676.65918.99414.65723,1.59766,0,.09473-.00098.1875-.00098.27539,3.5791.34082,6.50684,3.13184,6.95312,6.75879.05078.41113-.24121.78516-.65234.83594-.40918.05566-.78516-.24219-.83594-.65234-.38477-3.12305-3.05176-5.47754-6.20312-5.47754-.19922,0-.39062-.0791-.53125-.2207q-.23438-.23438-.22949-1.52539c.00098-.20117-.07715-.39062-.21973-.5332-.1416-.14258-.33008-.2207-.53027-.2207H3c-.41309,0-.75.33691-.75.75v6.48926c0,.2002.07812.38867.2207.53027.1416.1416.33008.21973.53027.21973h.00293c1.28809-.00781,1.29102-.00488,1.52539.22949.1416.14062.2207.33203.2207.53125,0,3.02344,2.15527,5.60938,5.125,6.14844.40723.07422.67773.46484.60449.87207-.06641.3623-.38184.61621-.7373.61621Z" fill="var(--iconPrimary, #222)"/>
</svg>