<?xml version="1.0" encoding="UTF-8"?>
<svg xmlns="http://www.w3.org/2000/svg" width="14" height="14" viewBox="0 0 14 14">
  <path d="M11.125,13H2.875c-1.03553,0-1.875-.83947-1.875-1.875v-1.49023c0-.34473.27979-.625.625-.625s.625.28027.625.625v1.47949c0,.34966.28608.63574.63574.63574h8.22856c.35109,0,.6357-.28461.6357-.6357v-1.47953c0-.34473.27979-.625.625-.625s.625.28027.625.625v1.49023c0,1.03125-.84375,1.875-1.875,1.875Z" fill="var(--iconPrimary, #222)"/>
  <path d="M9.66699,6.70801c-.24365-.24316-.63965-.24609-.88428-.00098l-1.15771,1.15393V1.5c0-.34473-.27979-.625-.625-.625s-.625.28027-.625.625v6.35889l-1.1582-1.15283c-.24512-.24316-.64062-.24219-.88379.00293-.24365.24414-.24268.63965.00195.88379l2.22607,2.21484c.12207.12109.28125.18164.44092.18164s.31934-.06055.44141-.18262l2.22217-2.21484c.24414-.24316.24512-.63867.00146-.88379Z" fill="var(--iconPrimary, #222)"/>
</svg>