<?xml version="1.0" encoding="UTF-8"?>
<svg xmlns="http://www.w3.org/2000/svg" width="14" height="14" viewBox="0 0 14 14">
  <path d="M9.66504,3.40723l-2.22607-2.21484c-.24414-.24219-.63818-.24316-.88232.00098l-2.22217,2.21484c-.24414.24316-.24512.63867-.00146.88379.24365.24414.63965.24512.88428.00098l1.15771-1.15393v5.36096c0,.34473.27979.625.625.625s.625-.28027.625-.625V3.14111l1.1582,1.15283c.12207.12109.28125.18164.44092.18164.16064,0,.3208-.06152.44287-.18457.24365-.24414.24268-.63965-.00195-.88379Z" fill="var(--iconPrimary, #222)"/>
  <path d="M11.125,13H2.875c-1.03369,0-1.875-.84082-1.875-1.875v-4.125c0-.34473.27979-.625.625-.625s.625.28027.625.625v4.125c0,.34473.28027.625.625.625h8.25c.34473,0,.625-.28027.625-.625v-4.125c0-.34473.27979-.625.625-.625s.625.28027.625.625v4.125c0,1.03418-.84131,1.875-1.875,1.875Z" fill="var(--iconPrimary, #222)"/>
</svg>