<?xml version="1.0" encoding="UTF-8"?>
<svg   xmlns="http://www.w3.org/2000/svg" width="20" height="20" viewBox="0 0 20 20">
  <path d="M14.64746,17.67485c-1.31348,0-2.5459-.66797-3.74512-1.31836-1.28857-.69824-2.5083-1.35449-3.60938-1.06055-.71631.19141-1.30957.61914-1.76221,1.27051-.38379.55078-1.03369.82031-1.69238.70508-.66406-.11621-1.18506-.59277-1.35938-1.24414l-1.90332-7.10254c-.08887-.33398-.09961-.6709-.03223-1,.2168-1.05859,1.00342-3.59766,3.62158-4.30078,1.60938-.43164,2.92773.00488,4.09082.38867,1.10205.36426,2.0542.67773,3.23145.36328.76758-.20508,1.41846-.6875,1.93457-1.43164.39355-.56641,1.05811-.8457,1.72803-.72949.64893.11328,1.16064.57617,1.34131,1.21191l2.91895,8.66602c.11426.41992.11475.81152.01514,1.17676-.28809,1.05664-1.23633,3.58887-3.81006,4.27832-.32764.08789-.65039.12695-.96777.12695ZM7.87207,13.71977c1.31299,0,2.54541.66797,3.74463,1.31836,1.2876.69727,2.50586,1.35352,3.60986,1.06055,1.82324-.48828,2.53174-2.41699,2.75146-3.22363.03027-.11133.0293-.22754-.00293-.34766l-2.92578-8.68652c-.0083-.03125-.03369-.12695-.15625-.14844-.04541-.00293-.15576-.01172-.23877.10742-.72363,1.04395-1.65869,1.72559-2.77832,2.02539-1.61035.42969-2.92871-.00293-4.09082-.38867-1.10254-.36328-2.05322-.67676-3.23193-.36328-1.81006.48535-2.37939,2.36621-2.54004,3.15234-.021.10156-.01709.20312.01172.31152l1.90332,7.10156c.02881.10938.10791.14453.16895.15527.05957.00977.14111.00488.20264-.08398.66016-.94922,1.53662-1.57715,2.60449-1.86328.32764-.08789.6499-.12695.96777-.12695Z" fill="var(--iconPrimary, #222)"/>
</svg>