<?xml version="1.0" encoding="UTF-8"?>
<svg   xmlns="http://www.w3.org/2000/svg" width="20" height="20" viewBox="0 0 20 20">
  <path d="M15.75,2.00004H4.25c-1.24072,0-2.25,1.00977-2.25,2.25v11.5c0,1.24023,1.00928,2.25,2.25,2.25h11.5c1.24072,0,2.25-1.00977,2.25-2.25V4.25004c0-1.24023-1.00928-2.25-2.25-2.25ZM15.61572,3.50004l-1.5,1.5h-2.73145l1.5-1.5h2.73145ZM6.25,13.75004v-7.5h7.5v7.5h-7.5ZM11.11572,3.50004l-1.5,1.5h-2.73145l1.5-1.5h2.73145ZM3.5,4.25004c0-.41309.33643-.75.75-.75h2.36572l-3.11572,3.11572v-2.36572ZM3.5,8.38432l1.5-1.5v2.73145l-1.5,1.5v-2.73145ZM3.5,15.61576v-2.73145l1.5-1.5v2.73145l-1.5,1.5ZM4.38428,16.50004l1.5-1.5h2.73145l-1.5,1.5h-2.73145ZM8.88428,16.50004l1.5-1.5h2.73145l-1.5,1.5h-2.73145ZM16.5,15.75004c0,.41309-.33643.75-.75.75h-2.36572l3.11572-3.11572v2.36572ZM16.5,11.61576l-1.5,1.5v-2.73145l1.5-1.5v2.73145ZM16.5,7.11576l-1.5,1.5v-2.73145l1.5-1.5v2.73145Z" fill="var(--iconPrimary, #222)"/>
</svg>