<?xml version="1.0" encoding="UTF-8"?>
<svg   xmlns="http://www.w3.org/2000/svg" width="20" height="20" viewBox="0 0 20 20">
  <path d="M17.21191,9.15039l.88574-4.94727c.07324-.40723-.19824-.79688-.60645-.87012-.39648-.06641-.79688.19824-.87012.60645l-.88574,4.94531c-.06445.35645-.37402.61523-.7373.61523H5.97021l-1.02393-6.1123c-.17969-1.09375-1.11328-1.8877-2.2207-1.8877h-1.72559c-.41406,0-.75.33594-.75.75s.33594.75.75.75h1.72559c.36914,0,.68066.26465.74121.63281l1.58789,9.47852c.17773,1.09473,1.1123,1.88867,2.2207,1.88867h8.72461c.41406,0,.75-.33594.75-.75s-.33594-.75-.75-.75H7.27539c-.36914,0-.68066-.26465-.74121-.63281l-.31274-1.86719h8.77661c1.08887,0,2.01953-.77734,2.21387-1.84961Z" fill="var(--iconPrimary, #222)" stroke-width="0"/>
  <circle cx="15.0001" cy="18.0001" r="1.25" fill="var(--iconPrimary, #222)" stroke-width="0"/>
  <circle cx="7.00118" cy="18.0001" r="1.25" fill="var(--iconPrimary, #222)" stroke-width="0"/>
  <path d="M13.99707,3.25h-2.25V1c0-.41406-.33594-.75-.75-.75s-.75.33594-.75.75v2.25h-2.25c-.41406,0-.75.33594-.75.75s.33594.75.75.75h2.25v2.25c0,.41406.33594.75.75.75s.75-.33594.75-.75v-2.25h2.25c.41406,0,.75-.33594.75-.75s-.33594-.75-.75-.75Z" fill="var(--iconPrimary, #222)" stroke-width="0"/>
</svg>