<?xml version="1.0" encoding="UTF-8"?>
<svg id="e" data-name="ICONS" xmlns="http://www.w3.org/2000/svg" width="20" height="20" viewBox="0 0 20 20">
  <path d="M10,12c-1.6543,0-3-1.45801-3-3.25,0-.41406.33594-.75.75-.75s.75.33594.75.75c0,.96484.67285,1.75,1.5,1.75s1.5-.78516,1.5-1.75c0-.41406.33594-.75.75-.75s.75.33594.75.75c0,1.79199-1.3457,3.25-3,3.25Z" fill="var(--iconPrimary, #222)"/>
  <path d="M14.75,5h-1.75v-.75098c0-1.79199-1.3457-3.24902-3-3.24902s-3,1.45703-3,3.24902v.75098h-1.75c-1.24023,0-2.25,1.00977-2.25,2.25v7c0,2.06738,1.68262,3.75,3.75,3.75h6.5c2.06738,0,3.75-1.68262,3.75-3.75v-7c0-1.24023-1.00977-2.25-2.25-2.25ZM8.5,4.24902c0-.96484.67285-1.74902,1.5-1.74902s1.5.78418,1.5,1.74902v.75098h-3v-.75098ZM15.5,14.25c0,1.24023-1.00977,2.25-2.25,2.25h-6.5c-1.24023,0-2.25-1.00977-2.25-2.25v-7c0-.41309.33691-.75.75-.75h9.5c.41309,0,.75.33691.75.75v7Z" fill="var(--iconPrimary, #222)"/>
</svg>