<?xml version="1.0" encoding="UTF-8"?>
<svg id="f" data-name="ICONS" xmlns="http://www.w3.org/2000/svg" width="20" height="20" viewBox="0 0 20 20">
  <path d="M15.75,18H4.25c-1.24072,0-2.25-1.00977-2.25-2.25V4.25c0-1.24023,1.00928-2.25,2.25-2.25h11.5c1.24072,0,2.25,1.00977,2.25,2.25v11.5c0,1.24023-1.00928,2.25-2.25,2.25ZM4.25,3.5c-.41357,0-.75.33691-.75.75v11.5c0,.41309.33643.75.75.75h11.5c.41357,0,.75-.33691.75-.75V4.25c0-.41309-.33643-.75-.75-.75H4.25Z" fill="var(--iconPrimary, #222)"/>
  <path d="M6.76025,15c-.15918,0-.31934-.0498-.45508-.1543-.19287-.14746-.29395-.37012-.29443-.5957,0-.15918.0498-.31934.1543-.45605l6.5-8.5c.25195-.32812.72314-.3916,1.05127-.13965.19287.14746.29395.37012.29443.5957,0,.15918-.0498.31934-.1543.45605l-6.5,8.5c-.14746.19238-.37061.29395-.59619.29395Z" fill="var(--iconPrimary, #222)"/>
</svg>