<?xml version="1.0" encoding="UTF-8"?>
<svg id="e" data-name="ICONS" xmlns="http://www.w3.org/2000/svg" width="20" height="20" viewBox="0 0 20 20">
  <path d="M5.78125,6.46973c-.29199-.29297-.76758-.29199-1.06152-.00098-.29297.29297-.29297.76758-.00098,1.06152l1.71704,1.71973H1c-.41406,0-.75.33594-.75.75s.33594.75.75.75h5.43872l-1.71899,1.71973c-.29297.29297-.29297.76758,0,1.06055.14648.14648.33789.21973.53027.21973s.38379-.07324.53027-.21973l2.99707-2.99707c.29297-.29297.29297-.76758.00098-1.06055l-2.99707-3.00293Z" fill="var(--iconPrimary, #222)"/>
  <path d="M18.75,9.25h-5.19165l1.71899-1.71973c.29297-.29297.29297-.76758,0-1.06055s-.76758-.29297-1.06055,0l-2.99707,2.99707c-.29297.29297-.29297.76758-.00098,1.06055l2.99707,3.00293c.14648.14648.33887.21973.53125.21973.19141,0,.38379-.07324.53027-.21875.29297-.29297.29297-.76758.00098-1.06152l-1.71704-1.71973h5.18872c.41406,0,.75-.33594.75-.75s-.33594-.75-.75-.75Z" fill="var(--iconPrimary, #222)"/>
</svg>