<?xml version="1.0" encoding="UTF-8"?>
<svg xmlns="http://www.w3.org/2000/svg" width="20" height="20" viewBox="0 0 20 20">
  <path d="M4.25,6H1.75c-.41406,0-.75-.33594-.75-.75v-2.5c0-.41406.33594-.75.75-.75h2.5c.41406,0,.75.33594.75.75v2.5c0,.41406-.33594.75-.75.75ZM2.5,4.5h1v-1h-1v1Z" fill="var(--iconPrimary, #222)"/>
  <path d="M4.25,12H1.75c-.41406,0-.75-.33594-.75-.75v-2.5c0-.41406.33594-.75.75-.75h2.5c.41406,0,.75.33594.75.75v2.5c0,.41406-.33594.75-.75.75ZM2.5,10.5h1v-1h-1v1Z" fill="var(--iconPrimary, #222)"/>
  <path d="M4.25,18H1.75c-.41406,0-.75-.33594-.75-.75v-2.5c0-.41406.33594-.75.75-.75h2.5c.41406,0,.75.33594.75.75v2.5c0,.41406-.33594.75-.75.75ZM2.5,16.5h1v-1h-1v1Z" fill="var(--iconPrimary, #222)"/>
  <path d="M18.25,4.75H7.75c-.41406,0-.75-.33594-.75-.75s.33594-.75.75-.75h10.5c.41406,0,.75.33594.75.75s-.33594.75-.75.75Z" fill="var(--iconPrimary, #222)"/>
  <path d="M18.25,10.75H7.75c-.41406,0-.75-.33594-.75-.75s.33594-.75.75-.75h10.5c.41406,0,.75.33594.75.75s-.33594.75-.75.75Z" fill="var(--iconPrimary, #222)"/>
  <path d="M18.25,16.75H7.75c-.41406,0-.75-.33594-.75-.75s.33594-.75.75-.75h10.5c.41406,0,.75.33594.75.75s-.33594.75-.75.75Z" fill="var(--iconPrimary, #222)"/>
</svg>