<?xml version="1.0" encoding="UTF-8"?>
<svg xmlns="http://www.w3.org/2000/svg" width="20" height="20" viewBox="0 0 20 20">
  <rect x="5" y="3" width="13" height="3" fill="var(--iconPrimary, #222)" opacity=".2"/>
  <path d="M17,2H3c-1.10254,0-2,.89746-2,2v11c0,1.10254.89746,2,2,2h1c1.10254,0,2-.89746,2-2V7h11c1.10254,0,2-.89746,2-2v-1c0-1.10254-.89746-2-2-2ZM4.5,15c0,.27539-.22461.5-.5.5h-1c-.27539,0-.5-.22461-.5-.5V4c0-.27539.22461-.5.5-.5h1c.27539,0,.5.22461.5.5v11ZM17.5,5c0,.27539-.22461.5-.5.5H6.5c-.27539,0-.5-.22461-.5-.5v-1c0-.27539.22461-.5.5-.5h10.5c.27539,0,.5.22461.5.5v1Z" fill="var(--iconPrimary, #222)"/>
</svg>