<?xml version="1.0" encoding="UTF-8"?>
<svg xmlns="http://www.w3.org/2000/svg" width="20" height="20" viewBox="0 0 20 20">
  <rect x="5" y="3" width="8" height="9" fill="var(--iconPrimary, #222)" opacity=".2"/>
  <path d="M11.5,2h-5c-.47522,0-.90649.17358-1.25.45166-.34351-.27808-.77478-.45166-1.25-.45166h-1c-1.10254,0-2,.89746-2,2v11c0,1.10254.89746,2,2,2h1c1.10254,0,2-.89746,2-2v-2.07104c.16077.04175.32642.07104.5.07104h5c1.10254,0,2-.89746,2-2v-7c0-1.10254-.89746-2-2-2ZM4.5,15c0,.27539-.22461.5-.5.5h-1c-.27539,0-.5-.22461-.5-.5V4c0-.27539.22461-.5.5-.5h1c.27539,0,.5.22461.5.5v11ZM12,11c0,.27539-.22461.5-.5.5h-5c-.27539,0-.5-.22461-.5-.5v-7c0-.27539.22461-.5.5-.5h5c.27539,0,.5.22461.5.5v7Z" fill="var(--iconPrimary, #222)"/>
</svg>