<?xml version="1.0" encoding="UTF-8"?>
<svg id="e" data-name="ICONS" xmlns="http://www.w3.org/2000/svg" width="20" height="20" viewBox="0 0 20 20">
  <path d="M2.75,15.75001c-.41406,0-.75-.33594-.75-.75V5.00001c0-.41406.33594-.75.75-.75s.75.33594.75.75v10c0,.41406-.33594.75-.75.75Z" fill="var(--iconPrimary, #222)" opacity=".35"/>
  <path d="M15,18.00001H5c-.41406,0-.75-.33594-.75-.75s.33594-.75.75-.75h10c.41406,0,.75.33594.75.75s-.33594.75-.75.75Z" fill="var(--iconPrimary, #222)" opacity=".35"/>
  <path d="M17.25,15.75001c-.41406,0-.75-.33594-.75-.75V5.00001c0-.41406.33594-.75.75-.75s.75.33594.75.75v10c0,.41406-.33594.75-.75.75Z" fill="var(--iconPrimary, #222)" opacity=".35"/>
  <path d="M15,3.50001H5c-.41406,0-.75-.33594-.75-.75s.33594-.75.75-.75h10c.41406,0,.75.33594.75.75s-.33594.75-.75.75Z" fill="var(--iconPrimary, #222)"/>
</svg>