<?xml version="1.0" encoding="UTF-8"?>
<svg id="e" data-name="ICONS" xmlns="http://www.w3.org/2000/svg" width="20" height="20" viewBox="0 0 20 20">
  <path d="M14.75,1H5.25c-1.24023,0-2.25,1.00977-2.25,2.25v2.99707c0,.41406.33594.75.75.75s.75-.33594.75-.75v-2.99707c0-.41309.33691-.75.75-.75h9.5c.41309,0,.75.33691.75.75v12.5c0,.41309-.33691.75-.75.75H5.25c-.41309,0-.75-.33691-.75-.75v-3.50293c0-.41406-.33594-.75-.75-.75s-.75.33594-.75.75v3.50293c0,1.24023,1.00977,2.25,2.25,2.25h9.5c1.24023,0,2.25-1.00977,2.25-2.25V3.25c0-1.24023-1.00977-2.25-2.25-2.25Z" fill="var(--iconPrimary, #222)"/>
  <path d="M8.71973,11.71973c-.29297.29297-.29297.76758,0,1.06055.14648.14648.33789.21973.53027.21973s.38379-.07324.53027-.21973l3-3c.29297-.29297.29297-.76758,0-1.06055l-3-3c-.29297-.29297-.76758-.29297-1.06055,0s-.29297.76758,0,1.06055l1.71973,1.71973H1.75c-.41406,0-.75.33594-.75.75s.33594.75.75.75h8.68945l-1.71973,1.71973Z" fill="var(--iconPrimary, #222)"/>
</svg>