<?xml version="1.0" encoding="UTF-8"?>
<svg   xmlns="http://www.w3.org/2000/svg" width="20" height="20" viewBox="0 0 20 20">
  <path id="i"  d="M14.5,7.52118c0,.82843-.67157,1.5-1.5,1.5-.82843,0-1.5-.67157-1.5-1.5,0-.82843.67157-1.5,1.5-1.5s1.5.67157,1.5,1.5h0Z" fill="var(--iconPrimary, #222)"/>
  <path d="M18.18066,15.95219c-.19678,0-.38818-.07715-.53027-.21973l-3.12012-3.12012c-.2832-.2832-.77783-.2832-1.06006,0l-1.23291,1.23242c-.68213.68262-1.79199.68066-2.47412.00098l-3.23291-3.2334c-.2832-.2832-.77783-.2832-1.06006,0l-3.18994,3.18848c-.21436.21484-.53809.27832-.81738.16309-.28027-.11621-.46289-.38965-.46289-.69336V5.25004c0-1.24023,1.00928-2.25,2.25-2.25h13.5c1.24072,0,2.25,1.00977,2.25,2.25v9.5c0,.22754-.03418.45215-.10107.66895-.00146.00488-.00293.00977-.00488.01465l-.00195.00586c-.08203.24609-.28613.43262-.53906.49219-.05713.01367-.11523.02051-.17236.02051ZM14,10.89262c.60107,0,1.1665.23438,1.59131.65918l1.90869,1.90918V5.25004c0-.41309-.33643-.75-.75-.75H3.25c-.41357,0-.75.33691-.75.75v6.20996l1.90918-1.9082c.84863-.84961,2.33252-.84961,3.18213,0l3.23193,3.23242c.09668.09473.25635.09766.354-.00098l1.23193-1.23145c.42432-.4248.98975-.65918,1.59082-.65918Z" fill="var(--iconPrimary, #222)"/>
</svg>