<?xml version="1.0" encoding="UTF-8"?>
<svg   xmlns="http://www.w3.org/2000/svg" width="20" height="20" viewBox="0 0 20 20">
  <path d="M17.89111,5.67969l-3.53516-3.53516c-.87793-.87793-2.30615-.87695-3.18213,0l-.70703.70703c-.74023.73975-.84821,1.86841-.33954,2.73096l-3.44562,2.91455c-.18066.15234-.33496.33105-.45605.52734L1.16309,17.13574c-.28125.5-.19385,1.10547.2168,1.50586.24854.24219.56836.36426.88086.36426.20459,0,.40625-.05176.58203-.15723l9.18799-4.56738c.44238-.2207.80469-.58594,1.021-1.03027l1.58124-3.24561c.29742.14111.6214.22314.96027.22314.60059,0,1.16602-.23438,1.59082-.65918l.70703-.70703c.87744-.87695.87744-2.30566,0-3.18262ZM11.70312,12.59473c-.07227.14746-.19287.26953-.34033.34277l-8.4292,4.19238,4.56641-7.31348c.03955-.06445.08984-.12305.1499-.17383l3.48145-2.94434,1.10303,1.10303,1.21326,1.21362-1.74451,3.57983ZM16.83057,7.80176l-.70703.70703c-.2832.2832-.77783.2832-1.06006,0l-3.53613-3.53613c-.29248-.29199-.29248-.76855,0-1.06055l.70703-.70703c.1416-.1416.33008-.21973.53027-.21973.20068,0,.38916.07812.53076.21973l3.53516,3.53516c.29248.29297.29248.76855,0,1.06152Z" fill="var(--iconPrimary, #222)"/>
</svg>