<?xml version="1.0" encoding="UTF-8"?><svg id="e" xmlns="http://www.w3.org/2000/svg" width="20" height="20" viewBox="0 0 20 20"><path d="M5.75,18H1.75c-.41406,0-.75-.33594-.75-.75s.33594-.75.75-.75h4c.41309,0,.75-.33691.75-.75V4.25c0-.41309-.33691-.75-.75-.75H1.75c-.41406,0-.75-.33594-.75-.75s.33594-.75.75-.75h4c1.24023,0,2.25,1.00977,2.25,2.25v11.5c0,1.24023-1.00977,2.25-2.25,2.25Z" fill="var(--iconPrimary,#222)"/><path d="M18.91309,9.4563c-.03442-.06665-.07886-.12915-.1333-.18555l-2.51196-2.59863c-.29419-.30444-.77173-.31372-1.06714-.02124-.29565.29272-.29224.77832-.00171,1.08081l1.1499,1.1897.00684.07861h-5.98071c-.41406,0-.75.33594-.75.75s.33594.75.75.75h6.07593l-1.25806,1.24707c-.29517.29297-.29321.7793-.00171,1.08081.29419.30444.77197.31372,1.06714.02124l2.51978-2.49756c.24072-.23853.2854-.60376.13501-.89526Z" fill="var(--iconPrimary,#222)"/></svg>