<?xml version="1.0" encoding="UTF-8"?>
<svg id="f" data-name="ICONS" xmlns="http://www.w3.org/2000/svg" width="20" height="20" viewBox="0 0 20 20">
  <path d="M8.5,13.25c-1.79199,0-3.25-1.45801-3.25-3.25s1.45801-3.25,3.25-3.25,3.25,1.45801,3.25,3.25-1.45801,3.25-3.25,3.25ZM8.5,8.25c-.96484,0-1.75.78516-1.75,1.75s.78516,1.75,1.75,1.75,1.75-.78516,1.75-1.75-.78516-1.75-1.75-1.75Z" fill="var(--iconPrimary, #222)"/>
  <path d="M18.25,10.75h-4.75c-.41406,0-.75-.33594-.75-.75s.33594-.75.75-.75h4.75c.41406,0,.75.33594.75.75s-.33594.75-.75.75Z" fill="var(--iconPrimary, #222)"/>
  <path d="M3.5,10.75h-1.75c-.41406,0-.75-.33594-.75-.75s.33594-.75.75-.75h1.75c.41406,0,.75.33594.75.75s-.33594.75-.75.75Z" fill="var(--iconPrimary, #222)"/>
</svg>