<?xml version="1.0" encoding="UTF-8"?>
<svg xmlns="http://www.w3.org/2000/svg" width="20" height="20" viewBox="0 0 20 20">
  <rect x="5.75" y="10.75" width="6.5" height="6.5" rx="1.5" ry="1.5" fill="var(--iconPrimary, #222)" opacity=".2"/>
  <path d="M10.75,18h-3.5c-1.24023,0-2.25-1.00977-2.25-2.25v-3.5c0-1.24023,1.00977-2.25,2.25-2.25h3.5c1.24023,0,2.25,1.00977,2.25,2.25v3.5c0,1.24023-1.00977,2.25-2.25,2.25ZM7.25,11.5c-.41309,0-.75.33691-.75.75v3.5c0,.41309.33691.75.75.75h3.5c.41309,0,.75-.33691.75-.75v-3.5c0-.41309-.33691-.75-.75-.75h-3.5Z" fill="var(--iconPrimary, #222)"/>
  <path d="M18.3623,6.21289l-2.68652-3.22363c-.52344-.62891-1.29395-.98926-2.1123-.98926h-3.31348c-1.24023,0-2.25,1.00977-2.25,2.25v3.51758c0,.41406.33594.75.75.75s.75-.33594.75-.75v-3.51758c0-.41309.33691-.75.75-.75h2.77539v2.35547c0,1.17188.95312,2.125,2.125,2.125h2.34961v5.06055c0,.41309-.33691.75-.75.75h-1.69238c-.41406,0-.75.33594-.75.75s.33594.75.75.75h1.69238c1.24023,0,2.25-1.00977,2.25-2.25v-5.06738c0-.64258-.22656-1.26758-.6377-1.76074ZM14.27539,5.85547v-2.12671c.09045.06323.17566.13452.24805.22144l2.31702,2.78027h-1.69006c-.48242,0-.875-.39258-.875-.875Z" fill="var(--iconPrimary, #222)"/>
  <path d="M6.61133,6.32422l-1.96484-1.94141c-.24512-.24414-.64062-.24121-.88379.00488s-.24023.6416.00488.88379l.78064.77173c-.01379-.00073-.02551-.00806-.03943-.00806l-.63379.00098c-1.10547-.04785-2.19336.40918-2.90625,1.25781-.60742.72363-.89648,1.64062-.81445,2.58105s.52539,1.79297,1.24902,2.40039c.14062.11816.31152.17578.48242.17578.21387,0,.42578-.09082.57422-.26758.2666-.31738.22559-.79102-.0918-1.05664-.86035-.72168-.97266-2.00879-.25098-2.86816.41602-.49707,1.02051-.75391,1.7168-.72363h.6748c.01257,0,.02295-.00659.0354-.00708l-.74731.75708c-.24316.24609-.24023.6416.00488.88379.12207.12109.28125.18066.43945.18066.16113,0,.32227-.0625.44434-.18555l1.93066-1.95605c.24316-.24609.24023-.6416-.00488-.88379ZM5.25391,6.80908c.00037-.00854.00488-.01562.00488-.02393,0-.01758-.00879-.03223-.01001-.04956l.03931.03882-.03418.03467Z" fill="var(--iconPrimary, #222)"/>
</svg>