<?xml version="1.0" encoding="UTF-8"?>
<svg   xmlns="http://www.w3.org/2000/svg" width="20" height="20" viewBox="0 0 20 20">
  <path d="M18.99976,10.00004c0,.12939-17.99951.12939-17.99951,0l-.00024,9h18v-9h-.00024Z" fill="var(--iconPrimary, #222)" opacity=".2"/>
  <path d="M10.00098,10.75004c-.25977,0-.51172-.13477-.65039-.375l-2.82617-4.89453c-.19531-.33887-.51953-.375-.64941-.375s-.4541.03613-.64941.375l-2.82617,4.89453c-.20605.3584-.66406.48242-1.02441.27441-.3584-.20703-.48145-.66602-.27441-1.02441l2.82617-4.89453c.40625-.7041,1.13477-1.125,1.94824-1.125s1.54199.4209,1.94824,1.125l2.82617,4.89453c.20703.3584.08398.81738-.27441,1.02441-.11816.06836-.24707.10059-.37402.10059Z" fill="var(--iconPrimary, #222)" opacity=".5"/>
  <path d="M18.25,10.75004H1.75c-.41406,0-.75-.33594-.75-.75s.33594-.75.75-.75h16.5c.41406,0,.75.33594.75.75s-.33594.75-.75.75Z" fill="var(--iconPrimary, #222)"/>
</svg>