<?xml version="1.0" encoding="UTF-8"?>
<svg   xmlns="http://www.w3.org/2000/svg" width="20" height="20" viewBox="0 0 20 20">
  <path d="M7.45996,17.25004c-.26855,0-.52734-.14355-.66211-.39648l-1.0625-1.98926-1.87988.57129c-.43652.13379-.90918.01367-1.23242-.30957s-.44043-.7959-.30762-1.23242l.57129-1.87988-1.7334-.92383c-.40234-.21484-.65332-.63281-.65332-1.08984s.25098-.875.6543-1.08984l1.73242-.92383-.57129-1.88086c-.13281-.43555-.01562-.9082.30762-1.23145.32227-.32324.79492-.44336,1.23145-.30957l1.88086.57129,1.0625-1.98926c.19434-.36523.64844-.50488,1.01465-.30762.36523.19434.50293.64941.30762,1.01465l-1.16504,2.18164c-.27539.51758-.88574.77051-1.44727.59961l-1.61328-.49023.49023,1.61328c.1709.56152-.08105,1.1709-.59863,1.44824l-1.48828.79395,1.4873.79297c.51855.27832.77051.8877.59961,1.44922l-.49023,1.61328,1.61328-.49023c.56348-.1709,1.17285.08105,1.44824.60156l1.16406,2.17969c.19531.36523.05762.82031-.30762,1.01465-.1123.06055-.2334.08887-.35254.08887ZM5.63281,14.67192v.00098-.00098ZM5.63184,5.32914v.00098-.00098Z" fill="var(--iconPrimary, #222)"/>
  <path d="M10,19.25004c-.41406,0-.75-.33594-.75-.75V1.50004c0-.41406.33594-.75.75-.75s.75.33594.75.75v17c0,.41406-.33594.75-.75.75Z" fill="var(--iconPrimary, #222)"/>
  <path d="M12.54004,17.24321c-.39844,0-.73047-.31445-.74805-.7168-.01855-.41406.30273-.76465.71582-.78223,3.08008-.13477,5.49219-2.6582,5.49219-5.74414s-2.41211-5.60938-5.49219-5.74414c-.41309-.01758-.73438-.36816-.71582-.78223.01758-.41406.38281-.74414.78223-.71582,3.88379.16992,6.92578,3.35156,6.92578,7.24219s-3.04199,7.07227-6.92578,7.24219c-.01172.00098-.02246.00098-.03418.00098Z" fill="var(--iconPrimary, #222)"/>
</svg>