<?xml version="1.0" encoding="UTF-8"?>
<svg   xmlns="http://www.w3.org/2000/svg" width="20" height="20" viewBox="0 0 20 20">
  <path d="M18.99976,10.00004c0,.12939-.03345.25879-.10034.375l-2.82617,4.89453c-.40625.7041-1.13477,1.125-1.94824,1.125s-1.54199-.4209-1.94824-1.125l-2.60938-4.51953H1.75c-.26758,0-.51562-.14258-.64941-.375-.06689-.11621-.10034-.24561-.10034-.375h-.00024v9h18v-9h-.00024Z" fill="var(--iconPrimary, #222)" opacity=".2"/>
  <path d="M14.125,16.39457c-.81348,0-1.54199-.4209-1.94824-1.125l-2.75977-4.78027c-.20703-.3584-.08398-.81738.27441-1.02441.36035-.20801.81836-.08301,1.02441.27441l2.75977,4.78027c.19531.33887.51953.375.64941.375s.4541-.03613.64941-.375l2.82617-4.89453c.20703-.35742.66504-.48242,1.02441-.27441.3584.20703.48145.66602.27441,1.02441l-2.82617,4.89453c-.40625.7041-1.13477,1.125-1.94824,1.125Z" fill="var(--iconPrimary, #222)" opacity=".5"/>
  <path d="M18.25,10.75004H1.75c-.41406,0-.75-.33594-.75-.75s.33594-.75.75-.75h16.5c.41406,0,.75.33594.75.75s-.33594.75-.75.75Z" fill="var(--iconPrimary, #222)"/>
</svg>