<?xml version="1.0" encoding="UTF-8"?>
<svg xmlns="http://www.w3.org/2000/svg" width="20" height="20" viewBox="0 0 20 20">
  <path d="M13.75,17h0c-.25977,0-.50098-.13379-.6377-.35449L6.01758,5.20215l-3.62012,6.17676c-.20996.35645-.66895.47656-1.02637.26855-.35742-.20996-.47754-.66895-.26855-1.02637L5.35254,3.37109c.13379-.22754.375-.36816.6377-.37109h.00977c.25977,0,.50098.13379.6377.35449l7.1123,11.47266,3.8623-6.22266c.21875-.35156.68066-.45996,1.0332-.24219.35156.21875.45996.68164.24219,1.0332l-4.5,7.25c-.1377.2207-.37793.35449-.6377.35449Z" fill="var(--iconPrimary, #222)" opacity=".35"/>
  <path d="M13.75,13c-1.79883,0-3.11621-1.24805-4.39062-2.45508-1.11035-1.05176-2.1582-2.04492-3.35938-2.04492-2.4375,0-3.50684,2.6582-3.55078,2.77148-.15137.38574-.58789.57422-.96973.42676-.38574-.14941-.57812-.58203-.42969-.96777.05859-.15234,1.47461-3.73047,4.9502-3.73047,1.79883,0,3.11621,1.24805,4.39062,2.45508,1.11035,1.05176,2.1582,2.04492,3.35938,2.04492,2.47363,0,3.80664-2.78809,3.82031-2.81641.1748-.37402.62109-.53516.99512-.36328.375.1748.53906.61816.36523.99414-.06934.15039-1.74023,3.68555-5.18066,3.68555Z" fill="var(--iconPrimary, #222)"/>
</svg>