<?xml version="1.0" encoding="UTF-8"?>
<svg   xmlns="http://www.w3.org/2000/svg" width="20" height="20" viewBox="0 0 20 20">
  <path d="M7.25,13.25v2.5c0,.82843-.67157,1.5-1.5,1.5h-1.5c-.82843,0-1.5-.67157-1.5-1.5v-2.5s4.5,0,4.5,0Z" fill="var(--iconPrimary, #222)" opacity=".35"/>
  <path d="M17.25,13.25v2.5c0,.82843-.67157,1.5-1.5,1.5h-1.5c-.82843,0-1.5-.67157-1.5-1.5v-2.5h4.5Z" fill="var(--iconPrimary, #222)" opacity=".35"/>
  <path d="M15.67188,4.23828c-1.5835-1.52539-3.7207-2.32715-6-2.23145-4.23047.15723-7.67188,3.83594-7.67188,8.2002v5.54297c0,1.24023,1.00928,2.25,2.25,2.25h1.5c1.24072,0,2.25-1.00977,2.25-2.25v-5.59473c0-1.13184.84863-2.09766,1.89111-2.15234.55859-.02832,1.0835.16504,1.48535.5459.40186.38184.62354.89746.62354,1.45117v5.75c0,1.24023,1.00928,2.25,2.25,2.25h1.5c1.24072,0,2.25-1.00977,2.25-2.25v-6c0-2.1084-.82666-4.06543-2.32812-5.51172ZM5.75,16.5h-1.5c-.41357,0-.75-.33691-.75-.75v-1.74414h3v1.74414c0,.41309-.33643.75-.75.75ZM12.40869,7.46094c-.65723-.62402-1.50537-.96094-2.40625-.96094-.06299,0-.12598.00195-.18994.00488-1.85742.09766-3.3125,1.70117-3.3125,3.65039v2.35059h-3v-2.29883c0-3.56738,2.79395-6.57324,6.22803-6.70215,1.86768-.05273,3.61572.57422,4.90332,1.81348,1.20508,1.16113,1.86865,2.73438,1.86865,4.43164v2.75586h-3v-2.50586c0-.95508-.39746-1.88086-1.09131-2.53906ZM15.75,16.5h-1.5c-.41357,0-.75-.33691-.75-.75v-1.74414h3v1.74414c0,.41309-.33643.75-.75.75Z" fill="var(--iconPrimary, #222)"/>
</svg>