<?xml version="1.0" encoding="UTF-8"?>
<svg   xmlns="http://www.w3.org/2000/svg" width="20" height="20" viewBox="0 0 20 20">
  <path d="M12.25,17.37504h-.125v-3.5h.125c.34473,0,.625-.28027.625-.625s-.28027-.625-.625-.625h-.13013c-.01416-.33228-.28418-.59961-.61987-.59961s-.60571.26733-.61987.59961h-1.58325c-.22742-.9707-.96912-1.7356-1.92188-2.00781v-1.49219h.97461c.34473,0,.625-.28027.625-.625s-.28027-.625-.625-.625h-.97461v-.125c0-.34473-.28027-.625-.625-.625s-.625.28027-.625.625v.125h-3.5v-.125c0-.34473-.28027-.625-.625-.625s-.625.28027-.625.625v.125h-.125c-.34473,0-.625.28027-.625.625s.28027.625.625.625h.125v3.5h-.125c-.34473,0-.625.28027-.625.625s.28027.625.625.625h.125v3.5h-.125c-.34473,0-.625.28027-.625.625s.28027.625.625.625h.125v.125c0,.34473.28027.625.625.625s.625-.28027.625-.625v-.125h3.5v.125c0,.34473.28027.625.625.625s.625-.28027.625-.625v-.125h3.5v.125c0,.34473.28027.625.625.625s.625-.28027.625-.625v-.125h.125c.34473,0,.625-.28027.625-.625s-.28027-.625-.625-.625ZM7.875,13.25004c0,.68945-.56055,1.25-1.25,1.25s-1.25-.56055-1.25-1.25.56055-1.25,1.25-1.25,1.25.56055,1.25,1.25ZM2.625,9.12504h3.5v1.42554c-1.07288.19849-1.92468,1.01929-2.17188,2.07446h-1.32812v-3.5ZM2.625,17.37504v-3.5h1.32812c.24719,1.05518,1.099,1.87598,2.17188,2.07446v1.42554h-3.5ZM10.875,17.37504h-3.5v-1.49219c.95276-.27222,1.69446-1.03711,1.92188-2.00781h1.57812v3.5Z" fill="var(--iconPrimary, #222)"/>
  <path d="M18.12988,2.07231c-.94727-.99902-2.2832-1.57227-3.66504-1.57227h-3.21484c-.41406,0-.75.33594-.75.75v2.5c0,.41406.33594.75.75.75h3.08789c.55957,0,1.01465.44824,1.01465,1s-.45508,1-1.01465,1h-3.08789c-.41406,0-.75.33594-.75.75v2.5c0,.41406.33594.75.75.75h2.97168c2.76758,0,5.13281-2.12305,5.27148-4.73242.07227-1.37988-.41113-2.69238-1.36328-3.69531ZM14.22168,9.00004h-.72168v-1h.83789c1.38672,0,2.51465-1.12109,2.51465-2.5s-1.12793-2.5-2.51465-2.5h-.83789v-1h.96484c.98633,0,1.90137.39258,2.57715,1.10449.66504.70117,1.00391,1.61914.95312,2.58398-.09668,1.82617-1.79004,3.31152-3.77344,3.31152Z" fill="var(--iconPrimary, #222)"/>
</svg>