<?xml version="1.0" encoding="UTF-8"?>
<svg   xmlns="http://www.w3.org/2000/svg" width="20" height="20" viewBox="0 0 20 20">
  <path d="M17.772,13.49043c-.1088-.296-.316-.4544-.552-.5856-.0444-.026-.0852-.0468-.12-.0628-.0704-.0364-.1424-.0716-.214-.1088-.7356-.39-1.31-.882-1.7084-1.4652-.11314-.16418-.21127-.33822-.2932-.52-.034-.0972-.0324-.1524-.008-.2028.0242-.03883.05621-.0722.094-.098.1264-.0836.2568-.1684.3452-.2256.1576-.102.2824-.1828.3628-.24.302-.2112.5132-.4356.6452-.6864.18635-.35062.21103-.76494.0676-1.1352-.2-.5264-.6972-.8532-1.2996-.8532-.12706-.00012-.25378.01329-.378.04-.0332.0072-.0664.0148-.0988.0232.0056-.36-.0024-.74-.0344-1.114-.1136-1.3148-.574-2.004-1.054-2.5536-.30738-.3444-.66943-.63578-1.0716-.8624-.7284-.416-1.5544-.6272-2.4548-.6272s-1.7224.2112-2.4516.6272c-.40315.22669-.76594.51865-1.0736.864-.48.5496-.9404,1.24-1.054,2.5536-.032.374-.04.756-.0348,1.114-.0324-.0084-.0652-.016-.0984-.0232-.12422-.02671-.25094-.04012-.378-.04-.6028,0-1.1008.3268-1.3.8532-.14407.37041-.11999.78516.066,1.1364.1324.2508.3436.4752.6456.6864.08.056.2052.1368.3628.24.0852.0552.2096.136.3316.2168.04268.0276.07896.06401.1064.1068.0256.0524.0264.1088-.0116.2128-.08082.17796-.17734.34837-.2884.5092-.3896.57-.9472,1.0532-1.6592,1.44-.3772.2-.7692.3336-.9348.7836-.1248.3396-.0432.726.274,1.0516h0c.11642.12153.25144.22374.4.3028.30912.16988.63781.30138.9788.3916.07037.01815.13717.04803.1976.0884.1156.1012.0992.2536.2532.4768.0773.11535.17553.21521.2896.2944.3232.2232.6864.2372,1.0712.252.3476.0132.7416.0284,1.1916.1768.1864.0616.38.1808.6044.32.5388.3312,1.2764.7844,2.5108.7844s1.9772-.4556,2.52-.788c.2228-.1368.4152-.2548.5964-.3148.45-.1488.844-.1636,1.1916-.1768.3848-.0148.748-.0288,1.0712-.252.13509-.0942.24765-.21714.3296-.36.1108-.1884.108-.32.212-.412.05669-.03844.11943-.0671.1856-.0848.34564-.0905.67882-.22323.992-.3952.15784-.08468.29991-.1959.42-.3288l.004-.0048c.2976-.3184.3724-.6936.2504-1.0248ZM16.6748,14.08003c-.6692.3696-1.114.33-1.46.5528-.294.1892-.12.5972-.3336.7444-.2624.1812-1.038-.0128-2.04.318-.8264.2732-1.3536,1.0588-2.84,1.0588s-2.0012-.784-2.8412-1.0608c-1-.3308-1.7772-.1368-2.04-.318-.2132-.1472-.04-.5552-.3336-.7444-.3464-.2228-.7912-.1832-1.46-.5508-.426-.2352-.1844-.3808-.0424-.4496,2.424-1.1736,2.8108-2.9856,2.828-3.12.0208-.1628.044-.2908-.1352-.4564-.1732-.16-.9416-.6356-1.1548-.7844-.3528-.2464-.508-.4924-.3936-.7948.08-.2092.2752-.288.48-.288.06473.0002.12924.00744.1924.0216.3872.084.7632.278.9804.3304.02615.00671.053.01034.08.0108.116,0,.1568-.0584.1488-.1912-.0248-.4236-.0848-1.2492-.018-2.0208.0916-1.0616.4336-1.5876.84-2.0528.1952-.2236,1.1124-1.1928,2.8664-1.1928s2.6736.9652,2.8688,1.188c.4068.4652.7492.9912.84,2.0528.0668.7716.0092,1.5976-.018,2.0208-.0092.1396.0328.1912.1488.1912.027-.00043.05385-.00406.08-.0108.2176-.0524.5936-.2464.9808-.3304.06316-.01416.12767-.0214.1924-.0216.206,0,.4.08.48.288.1144.3024-.04.5484-.3932.7948-.2132.1488-.9816.624-1.1548.7844-.1796.1656-.156.2936-.1352.4564.0172.1364.4036,1.9484,2.828,3.12.1432.0716.3848.2172-.0412.4544Z" fill="var(--iconPrimary, #222)" stroke-width="0"/>
</svg>