<?xml version="1.0" encoding="UTF-8"?>
<svg   xmlns="http://www.w3.org/2000/svg" width="20" height="20" viewBox="0 0 20 20">
  <path d="M13.01367,14.32231c-.41406,0-.75.33594-.75.75v.37305l-4.38477-4.38477v-6.49683l.25879.25952c.29199.29297.76758.29199,1.06152.00098.29297-.29297.29297-.76758.00098-1.06152l-1.54004-1.54297c-.2832-.28125-.78125-.28223-1.0625.00098l-1.53906,1.54297c-.29199.29297-.29199.76758.00195,1.06055.14648.14551.33789.21875.5293.21875.19238,0,.38477-.07324.53125-.2207l.25781-.25854v6.49683l-4.37891,4.37891v-.36719c0-.41406-.33594-.75-.75-.75s-.75.33594-.75.75v2.17773c0,.41406.33594.75.75.75h2.17773c.41406,0,.75-.33594.75-.75s-.33594-.75-.75-.75h-.36719l4.06836-4.06836,4.06836,4.06836h-.36133c-.41406,0-.75.33594-.75.75s.33594.75.75.75h2.17773c.41406,0,.75-.33594.75-.75v-2.17773c0-.41406-.33594-.75-.75-.75Z" fill="var(--iconPrimary, #222)"/>
  <path d="M18.12988,2.07231c-.94727-.99902-2.2832-1.57227-3.66504-1.57227h-3.21484c-.41406,0-.75.33594-.75.75v2.5c0,.41406.33594.75.75.75h3.08789c.55957,0,1.01465.44824,1.01465,1s-.45508,1-1.01465,1h-3.08789c-.41406,0-.75.33594-.75.75v2.5c0,.41406.33594.75.75.75h2.97168c2.76758,0,5.13281-2.12305,5.27148-4.73242.07227-1.37988-.41113-2.69238-1.36328-3.69531ZM14.22168,9.00004h-.72168v-1h.83789c1.38672,0,2.51465-1.12109,2.51465-2.5s-1.12793-2.5-2.51465-2.5h-.83789v-1h.96484c.98633,0,1.90137.39258,2.57715,1.10449.66504.70117,1.00391,1.61914.95312,2.58398-.09668,1.82617-1.79004,3.31152-3.77344,3.31152Z" fill="var(--iconPrimary, #222)"/>
  <path d="M18.12988,2.07231c-.94727-.99902-2.2832-1.57227-3.66504-1.57227h-3.21484c-.41406,0-.75.33594-.75.75v2.5c0,.41406.33594.75.75.75h3.08789c.55957,0,1.01465.44824,1.01465,1s-.45508,1-1.01465,1h-3.08789c-.41406,0-.75.33594-.75.75v2.5c0,.41406.33594.75.75.75h2.97168c2.76758,0,5.13281-2.12305,5.27148-4.73242.07227-1.37988-.41113-2.69238-1.36328-3.69531ZM14.22168,9.00004h-.72168v-1h.83789c1.38672,0,2.51465-1.12109,2.51465-2.5s-1.12793-2.5-2.51465-2.5h-.83789v-1h.96484c.98633,0,1.90137.39258,2.57715,1.10449.66504.70117,1.00391,1.61914.95312,2.58398-.09668,1.82617-1.79004,3.31152-3.77344,3.31152Z" fill="var(--iconPrimary, #222)"/>
</svg>