<?xml version="1.0" encoding="UTF-8"?>
<svg   xmlns="http://www.w3.org/2000/svg" width="20" height="20" viewBox="0 0 20 20">
  <path d="M10.87793,17.81547l-2.80176-1.74976c.43445-.93237.67188-1.94873.67188-2.9856,0-3.64087-2.69995-6.61646-6.24805-7.02637v-3.30762c0-.41406-.33594-.75-.75-.75s-.75.33594-.75.75v10.19824c0,.04785-.00159.09009.00293.13867.021.22803.1543.42969.34766.55078l8.73242,5.45312c.12402.07715.26074.11426.39648.11426.25,0,.49512-.125.63672-.35254.21973-.35156.11328-.81445-.23828-1.0332ZM2.5,7.58915c2.70532.40161,4.74805,2.68481,4.74805,5.49097,0,.75659-.15356,1.50073-.44702,2.18921l-4.30103-2.68628v-4.9939Z" fill="var(--iconPrimary, #222)"/>
  <path d="M18.12988,2.07231c-.94727-.99902-2.2832-1.57227-3.66504-1.57227h-3.21484c-.41406,0-.75.33594-.75.75v2.5c0,.41406.33594.75.75.75h3.08789c.55957,0,1.01465.44824,1.01465,1s-.45508,1-1.01465,1h-3.08789c-.41406,0-.75.33594-.75.75v2.5c0,.41406.33594.75.75.75h2.97168c2.76758,0,5.13281-2.12305,5.27148-4.73242.07227-1.37988-.41113-2.69238-1.36328-3.69531ZM14.22168,9.00004h-.72168v-1h.83789c1.38672,0,2.51465-1.12109,2.51465-2.5s-1.12793-2.5-2.51465-2.5h-.83789v-1h.96484c.98633,0,1.90137.39258,2.57715,1.10449.66504.70117,1.00391,1.61914.95312,2.58398-.09668,1.82617-1.79004,3.31152-3.77344,3.31152Z" fill="var(--iconPrimary, #222)"/>
</svg>