<?xml version="1.0" encoding="UTF-8"?>
<svg xmlns="http://www.w3.org/2000/svg" width="28.00005" height="28" viewBox="0 0 28.00005 28">
  <g id="circles">
    <circle id="Ellipse_10213" data-name="Ellipse 10213" cx="14.00002" cy="14" r="14.00001" fill="#7155fa"/>
  </g>
  <g id="ICONS">
    <rect id="S2_Icon_BoxSearch_20_N" x="5" y="5" width="18" height="18" fill="none" opacity=".1"/>
    <g>
      <path d="M12.875,13.27974l4.725-2.71033v1.4425c0,.37266.30234.675.675.675s.675-.30234.675-.675v-1.82637c0-.72334-.39023-1.39658-1.01777-1.75605l-4.72412-2.71055c-.62314-.35684-1.3957-.35596-2.01533,0l-4.725,2.71055c-.62754.35947-1.01777,1.03271-1.01777,1.75605v5.40703c0,.72334.39023,1.39658,1.01777,1.75605l4.725,2.71143c.30586.17578.65742.26807,1.00898.26807.07646,0,.15293-.00439.22852-.01318.3709-.04307.63633-.37793.59326-.74795-.01494-.1303-.07361-.23906-.14854-.3342v-5.95305ZM12.2,12.11112l-1.7877-1.02546,4.78674-2.66814,1.7198.98668-4.71885,2.70692ZM11.86514,6.88965c.20566-.11953.46318-.11953.67061,0l1.52446.87451-4.78696,2.66814-1.79209-1.0281,4.38398-2.51455ZM7.13926,16.17793c-.20918-.12041-.33926-.34453-.33926-.58535v-5.02317l4.725,2.71077v5.4145l-4.38574-2.51675Z" fill="#fff"/>
      <path d="M22.35225,21.39775l-1.77605-1.77605c.39287-.57678.6238-1.27244.6238-2.0217,0-1.98545-1.61455-3.6-3.6-3.6s-3.6,1.61455-3.6,3.6,1.61455,3.6,3.6,3.6c.74927,0,1.44492-.23093,2.0217-.6238l1.77605,1.77605c.13184.13184.3041.19775.47725.19775s.34541-.06592.47725-.19775c.26367-.26367.26367-.69082,0-.95449ZM15.35,17.6c0-1.24102,1.00898-2.25,2.25-2.25s2.25,1.00898,2.25,2.25-1.00898,2.25-2.25,2.25-2.25-1.00898-2.25-2.25Z" fill="#fff"/>
    </g>
  </g>
</svg>