<?xml version="1.0" encoding="UTF-8"?>
<svg id="e" data-name="ICONS" xmlns="http://www.w3.org/2000/svg" width="20" height="20" viewBox="0 0 20 20">
  <path d="M1.11077,9.89846l-.11077.99692.11077.99692c0,.05538.05538.05538.05538.05538.05538,0,.05538-.05538.05538-.05538l.16615-.99692-.16615-.99692c0-.05538-.05538-.05538-.05538-.05538,0,0-.05538,0-.05538.05538ZM1.77538,9.28923l-.16615,1.60615.16615,1.60615c0,.05538.05538.05538.05538.05538.05538,0,.05538-.05538.05538-.05538l.22154-1.60615-.22154-1.60615c0-.05538-.05538-.05538-.05538-.05538l-.05538.05538ZM3.88,9.06769l-.11077,1.82769.11077,1.93846c0,.05538.05538.11077.11077.11077s.11077-.05538.11077-.11077l.22154-1.93846-.16615-1.82769c0-.05538-.05538-.11077-.11077-.11077-.11077,0-.16615.05538-.16615.11077ZM2.49538,8.95692l-.16615,1.93846.16615,1.82769c0,.05538.05538.11077.11077.11077,0,0,.05538-.05538.05538-.11077l.16615-1.82769-.16615-1.93846c0-.05538-.05538-.11077-.11077-.11077,0,.05538-.05538.05538-.05538.11077ZM3.16,8.90154l-.16615,1.99385.16615,1.88308c0,.05538.05538.11077.11077.11077s.11077-.05538.11077-.11077l.16615-1.88308-.16615-1.99385c0-.05538-.05538-.11077-.11077-.11077s-.05538.05538-.11077.11077ZM4.6,7.90462l-.16615,2.99077.16615,1.93846c0,.05538.05538.11077.11077.11077.11077,0,.16615-.05538.16615-.11077l.16615-1.93846-.16615-2.99077c0-.05538-.05538-.11077-.11077-.11077-.11077,0-.16615.05538-.16615.11077ZM5.32,7.24l-.11077,3.65538.11077,1.93846c0,.11077.05538.16615.16615.16615.05538,0,.16615-.05538.16615-.16615l.16615-1.93846-.16615-3.65538c0-.11077-.05538-.16615-.16615-.16615s-.16615.05538-.16615.16615ZM8.25538,7.07385l-.11077,3.82154.11077,1.82769c0,.11077.11077.22154.22154.22154s.22154-.11077.22154-.22154l.11077-1.82769-.11077-3.87692c0-.11077-.11077-.22154-.22154-.22154-.16615.05538-.22154.11077-.22154.27692ZM6.04,6.90769l-.11077,3.98769.11077,1.88308c0,.11077.05538.16615.16615.16615s.16615-.05538.16615-.16615l.11077-1.88308-.11077-3.98769c0-.11077-.05538-.16615-.16615-.16615s-.16615.11077-.16615.16615ZM7.48,6.90769l-.11077,3.98769.11077,1.88308c0,.11077.11077.22154.22154.22154s.22154-.11077.22154-.22154l.11077-1.88308-.11077-3.98769c0-.11077-.11077-.22154-.22154-.22154-.11077,0-.22154.11077-.22154.22154ZM6.76,6.79692l-.11077,4.09846.11077,1.88308c0,.11077.05538.16615.16615.16615s.16615-.05538.16615-.16615l.11077-1.88308-.11077-4.09846c0-.11077-.11077-.16615-.16615-.16615-.05538,0-.16615.05538-.16615.16615ZM8.97538,6.29846l-.11077,4.59692.11077,1.82769c0,.11077.11077.22154.22154.22154s.22154-.11077.22154-.22154l.11077-1.82769-.11077-4.59692c0-.11077-.11077-.22154-.22154-.22154s-.22154.11077-.22154.22154ZM9.75077,5.91077l-.11077,4.98462.11077,1.82769c0,.11077.11077.22154.22154.22154s.22154-.11077.22154-.22154l.11077-1.82769-.11077-4.98462c0-.11077-.11077-.22154-.22154-.22154-.16615,0-.22154.11077-.22154.22154ZM10.63692,5.41231c-.16615.05538-.22154.11077-.22154.27692v7.03385c0,.11077.11077.22154.22154.27692h6.14769c1.21846,0,2.21538-.99692,2.21538-2.21538s-.99692-2.21538-2.21538-2.21538c-.27692,0-.60923.05538-.83077.16615-.16615-1.99385-1.82769-3.54462-3.87692-3.54462h-.27692c-.38769,0-.77538.11077-1.16308.22154Z" fill="var(--iconPrimary, #222)"/>
</svg>