<?xml version="1.0" encoding="UTF-8"?>
<svg   xmlns="http://www.w3.org/2000/svg" width="20" height="20" viewBox="0 0 20 20">
  <path d="M10.06135,18.25c-1.4873,0-2.94629-.40137-4.21875-1.15918-.35645-.21289-.47266-.67285-.26074-1.02832s.67285-.47168,1.02832-.26074c1.04004.62012,2.2334.94824,3.45117.94824,3.72168,0,6.75-3.02832,6.75-6.75s-3.02832-6.75-6.75-6.75c-1.40723,0-2.75586.42871-3.89844,1.23828-.33984.24121-.80664.15918-1.04492-.17773-.24023-.33789-.16016-.80566.17773-1.04492,1.39746-.99121,3.04492-1.51562,4.76562-1.51562,4.54883,0,8.25,3.70117,8.25,8.25s-3.70117,8.25-8.25,8.25Z" fill="var(--iconPrimary, #222)" stroke-width="0"/>
  <path d="M10.86994,9.46973l-2.47461-2.47461c-.29297-.29297-.76758-.29297-1.06055,0s-.29297.76758,0,1.06055l1.19434,1.19434H1.85432c-.41406,0-.75.33594-.75.75s.33594.75.75.75h6.6748l-1.19434,1.19434c-.29297.29297-.29297.76758,0,1.06055.14648.14648.33789.21973.53027.21973s.38379-.07324.53027-.21973l2.47461-2.47461c.29297-.29297.29297-.76758,0-1.06055Z" fill="var(--iconPrimary, #222)" stroke-width="0"/>
</svg>