<?xml version="1.0" encoding="UTF-8"?>
<svg xmlns="http://www.w3.org/2000/svg" width="20" height="20" viewBox="0 0 20 20">
  <path d="M7.82812,10.66016c-.29395-.29199-.76855-.29199-1.06055.00195l-1.01758,1.02197v-5.18408c0-.41406-.33594-.75-.75-.75s-.75.33594-.75.75v5.18213l-1.01562-1.02002c-.29199-.29395-.7666-.29395-1.06055-.00195-.29297.29199-.29492.7666-.00195,1.06055l2.29785,2.30859c.14062.1416.33203.2207.53125.2207s.39062-.0791.53125-.2207l2.29785-2.30859c.29297-.29395.29102-.76855-.00195-1.06055Z" fill="var(--iconPrimary, #222)"/>
  <path d="M17.25,6.25c0,.82837-.67163,1.5-1.5,1.5h-4.5c-.82837,0-1.5-.67163-1.5-1.5v-.5h-.75v8.5h.75v-.5c0-.82837.67163-1.5,1.5-1.5h4.5c.82837,0,1.5.67163,1.5,1.5v.5h.75V5.75h-.75v.5Z" fill="var(--iconPrimary, #222)" opacity=".35"/>
  <path d="M18,13.75v2c0,1.24023-1.00977,2.25-2.25,2.25h-4.5c-1.24023,0-2.25-1.00977-2.25-2.25v-2c0-1.24023,1.00977-2.25,2.25-2.25h4.5c1.24023,0,2.25,1.00977,2.25,2.25ZM10.5,15.75c0,.41309.33691.75.75.75h4.5c.41309,0,.75-.33691.75-.75v-2c0-.41309-.33691-.75-.75-.75h-4.5c-.41309,0-.75.33691-.75.75v2Z" fill="var(--iconPrimary, #222)"/>
  <path d="M18,4.25v2c0,1.24023-1.00977,2.25-2.25,2.25h-4.5c-1.24023,0-2.25-1.00977-2.25-2.25v-2c0-1.24023,1.00977-2.25,2.25-2.25h4.5c1.24023,0,2.25,1.00977,2.25,2.25ZM10.5,6.25c0,.41309.33691.75.75.75h4.5c.41309,0,.75-.33691.75-.75v-2c0-.41309-.33691-.75-.75-.75h-4.5c-.41309,0-.75.33691-.75.75v2Z" fill="var(--iconPrimary, #222)"/>
</svg>