<?xml version="1.0" encoding="UTF-8"?>
<svg xmlns="http://www.w3.org/2000/svg" width="20" height="20" viewBox="0 0 20 20">
  <path d="M13.75,17.25c-.82837,0-1.5-.67163-1.5-1.5v-4.5c0-.82837.67163-1.5,1.5-1.5h.5v-.75H5.75v.75h.5c.82837,0,1.5.67163,1.5,1.5v4.5c0,.82837-.67163,1.5-1.5,1.5h-.5v.75h8.5v-.75h-.5Z" fill="var(--iconPrimary, #222)" opacity=".35"/>
  <path d="M14.69434,5.27539c.03369-.08545.05225-.1748.05371-.26514,0-.00366.00195-.00659.00195-.01025s-.00195-.00659-.00195-.01025c-.00146-.09033-.02002-.17969-.05371-.26514-.01416-.03564-.03833-.06421-.05762-.09692-.02393-.04102-.04004-.08496-.07227-.12183l-1.75-2c-.27344-.31152-.74707-.3418-1.05859-.07031-.31152.27246-.34277.74707-.07031,1.05859l.66162.75586h-6.34717c-.41406,0-.75.33594-.75.75s.33594.75.75.75h6.34717l-.66162.75586c-.27246.31152-.24121.78613.07031,1.05859.14258.12402.31836.18555.49414.18555.20801,0,.41602-.08691.56445-.25586l1.75-2c.03223-.03687.04834-.08081.07227-.12183.01929-.03271.04346-.06128.05762-.09692Z" fill="var(--iconPrimary, #222)"/>
  <path d="M6.25,18h-2c-1.24023,0-2.25-1.00977-2.25-2.25v-4.5c0-1.24023,1.00977-2.25,2.25-2.25h2c1.24023,0,2.25,1.00977,2.25,2.25v4.5c0,1.24023-1.00977,2.25-2.25,2.25ZM4.25,10.5c-.41309,0-.75.33691-.75.75v4.5c0,.41309.33691.75.75.75h2c.41309,0,.75-.33691.75-.75v-4.5c0-.41309-.33691-.75-.75-.75h-2Z" fill="var(--iconPrimary, #222)"/>
  <path d="M15.75,18h-2c-1.24023,0-2.25-1.00977-2.25-2.25v-4.5c0-1.24023,1.00977-2.25,2.25-2.25h2c1.24023,0,2.25,1.00977,2.25,2.25v4.5c0,1.24023-1.00977,2.25-2.25,2.25ZM13.75,10.5c-.41309,0-.75.33691-.75.75v4.5c0,.41309.33691.75.75.75h2c.41309,0,.75-.33691.75-.75v-4.5c0-.41309-.33691-.75-.75-.75h-2Z" fill="var(--iconPrimary, #222)"/>
</svg>