<?xml version="1.0" encoding="UTF-8"?>
<svg id="e" data-name="ICONS" xmlns="http://www.w3.org/2000/svg" width="20" height="20" viewBox="0 0 20 20">
  <g>
    <path d="M3.5127,16.25c-.25879,0-.51074-.13379-.64941-.37402-.72852-1.25586-1.11328-2.68262-1.11328-4.12598C1.75,7.20117,5.45117,3.5,10,3.5s8.25,3.70117,8.25,8.25c0,.13867-.01172.27441-.02344.40918l-.0127.14648c-.02832.41309-.39062.72461-.7998.69629-.41406-.02832-.72559-.38672-.69629-.7998l.01465-.17871c.00879-.09082.01758-.18066.01758-.27344,0-3.72168-3.02832-6.75-6.75-6.75s-6.75,3.02832-6.75,6.75c0,1.17969.31445,2.3457.91016,3.37402.20801.3584.08594.81738-.27246,1.02441-.11816.06934-.24805.10156-.375.10156Z" fill="var(--AD, #222)"/>
    <path d="M3.5127,16.25c-.25879,0-.51074-.13379-.64941-.37402-.72852-1.25586-1.11328-2.68262-1.11328-4.12598C1.75,7.20117,5.45117,3.5,10,3.5s8.25,3.70117,8.25,8.25c0,.13867-.01172.27441-.02344.40918l-.0127.14648c-.02832.41309-.39062.72461-.7998.69629-.41406-.02832-.72559-.38672-.69629-.7998l.01465-.17871c.00879-.09082.01758-.18066.01758-.27344,0-3.72168-3.02832-6.75-6.75-6.75s-6.75,3.02832-6.75,6.75c0,1.17969.31445,2.3457.91016,3.37402.20801.3584.08594.81738-.27246,1.02441-.11816.06934-.24805.10156-.375.10156Z" fill="var(--AD, #222)"/>
  </g>
  <path d="M19.43893,16.26752c.11746-.32484-.01779-.67896-.31626-.81591-1.65448-.75916-8.32704-3.6574-8.75422-3.81187-.62859-.21549-1.32284.1457-1.55065.80674-.22272.64625.0826,1.34304.68974,1.57412.42687.1538,7.40866,2.19616,9.16612,2.67178.3171.08582.64777-.09989.76527-.42486h0Z" fill="var(--AD, #222)"/>
</svg>