<?xml version="1.0" encoding="UTF-8"?>
<svg id="e" data-name="ICONS" xmlns="http://www.w3.org/2000/svg" width="20" height="20" viewBox="0 0 20 20">
  <path d="M2.79683,5.42427c-.24435.24435-.27212.62257-.05981.87325,1.17671,1.38933,5.9898,6.84376,6.31026,7.16497.46697.45162,1.22746.43226,1.71804-.04374.50181-.48689.53412-1.26881.07216-1.74647-.3212-.3212-5.77794-5.13232-7.16766-6.30804-.2507-.2121-.62874-.18423-.87299.06002h0Z" fill="var(--iconPrimary, #222)"/>
  <path d="M3.51221,15.375c.12793,0,.25732-.03223.37549-.10156.3584-.20703.48047-.66602.27295-1.02441-.5957-1.02832-.91064-2.19434-.91064-3.37402,0-.36035.03467-.7373.10645-1.1543.06982-.4082-.2041-.7959-.6123-.86621-.41016-.06543-.7959.2041-.86621.6123-.08594.50195-.12793.96191-.12793,1.4082,0,1.44336.38477,2.87012,1.11279,4.12598.13916.24023.39111.37402.64941.37402Z" fill="var(--iconPrimary, #222)"/>
  <path d="M16.48779,15.375c.25879,0,.51025-.13379.64941-.37402.72803-1.25586,1.11279-2.68262,1.11279-4.12598,0-4.54883-3.70117-8.25-8.25-8.25-1.5127,0-2.99902.4209-4.29932,1.21777-.35303.2168-.46387.67871-.24756,1.03125.21631.35449.67773.46484,1.03174.24805,1.06396-.65234,2.2793-.99707,3.51514-.99707,3.72217,0,6.75,3.02832,6.75,6.75,0,1.17969-.31494,2.3457-.91064,3.37402-.20752.3584-.08545.81738.27295,1.02441.11816.06934.24756.10156.37549.10156Z" fill="var(--iconPrimary, #222)"/>
</svg>