<?xml version="1.0" encoding="UTF-8"?>
<svg id="e" data-name="ICONS" xmlns="http://www.w3.org/2000/svg" width="20" height="20" viewBox="0 0 20 20">
  <path d="M10.00172,2.56491c-.34543,0-.63245.24761-.65974.57486-.15132,1.81404-.60784,9.07451-.60784,9.52876.0111.66441.58684,1.19446,1.28596,1.18391.68347-.01031,1.23492-.53438,1.24577-1.18391-.00052-.45373-.45402-7.71396-.60437-9.52842-.02713-.32739-.31421-.5752-.65977-.5752h0Z" fill="var(--iconPrimary, #222)"/>
  <g>
    <path d="M16.48779,15.5c-.12793,0-.25732-.03223-.37549-.10156-.3584-.20703-.48047-.66602-.27295-1.02441.5957-1.02832.91064-2.19434.91064-3.37402,0-2.68555-1.59326-5.11426-4.05859-6.18848-.37988-.16504-.55371-.60742-.38818-.9873.16504-.37988.60889-.55469.98682-.3877,3.01318,1.31152,4.95996,4.28125,4.95996,7.56348,0,1.44336-.38477,2.87012-1.11279,4.12598-.13916.24023-.39111.37402-.64941.37402Z" fill="var(--iconPrimary, #222)"/>
    <path d="M3.51221,15.5c-.25879,0-.51025-.13379-.64941-.37402-.72803-1.25586-1.11279-2.68262-1.11279-4.12598,0-3.28418,1.94824-6.25293,4.96289-7.56543.38281-.16699.82227.00781.98682.38867.16553.37891-.0083.82129-.38818.98633-2.46729,1.07422-4.06152,3.50391-4.06152,6.19043,0,1.17969.31494,2.3457.91064,3.37402.20752.3584.08545.81738-.27295,1.02441-.11816.06934-.24756.10156-.37549.10156Z" fill="var(--iconPrimary, #222)"/>
  </g>
</svg>