<?xml version="1.0" encoding="UTF-8"?>
<svg id="e" data-name="ICONS" xmlns="http://www.w3.org/2000/svg" width="20" height="20" viewBox="0 0 20 20">
  <g>
    <path d="M16.4873,16.25c-.12695,0-.25684-.03223-.375-.10156-.3584-.20703-.48047-.66602-.27246-1.02441.5957-1.02832.91016-2.19434.91016-3.37402,0-3.72168-3.02832-6.75-6.75-6.75s-6.75,3.02832-6.75,6.75c0,.09277.00879.18262.01758.27344l.01465.17871c.0293.41309-.28223.77148-.69629.7998-.39746.03027-.77051-.2832-.7998-.69629l-.0127-.14648c-.01172-.13477-.02344-.27051-.02344-.40918C1.75,7.20117,5.45117,3.5,10,3.5s8.25,3.70117,8.25,8.25c0,1.44336-.38477,2.87012-1.11328,4.12598-.13867.24023-.39062.37402-.64941.37402Z" fill="var(--AD, #222)"/>
    <path d="M16.4873,16.25c-.12695,0-.25684-.03223-.375-.10156-.3584-.20703-.48047-.66602-.27246-1.02441.5957-1.02832.91016-2.19434.91016-3.37402,0-3.72168-3.02832-6.75-6.75-6.75s-6.75,3.02832-6.75,6.75c0,.09277.00879.18262.01758.27344l.01465.17871c.0293.41309-.28223.77148-.69629.7998-.39746.03027-.77051-.2832-.7998-.69629l-.0127-.14648c-.01172-.13477-.02344-.27051-.02344-.40918C1.75,7.20117,5.45117,3.5,10,3.5s8.25,3.70117,8.25,8.25c0,1.44336-.38477,2.87012-1.11328,4.12598-.13867.24023-.39062.37402-.64941.37402Z" fill="var(--AD, #222)"/>
  </g>
  <path d="M.56107,16.26752c-.11746-.32484.01779-.67896.31626-.81591,1.65448-.75916,8.32704-3.6574,8.75422-3.81187.62859-.21549,1.32284.1457,1.55065.80674.22272.64625-.0826,1.34304-.68974,1.57412-.42687.1538-7.40866,2.19616-9.16612,2.67178-.3171.08582-.64777-.09989-.76527-.42486h0Z" fill="var(--AD, #222)"/>
</svg>