<?xml version="1.0" encoding="UTF-8"?>
<svg xmlns="http://www.w3.org/2000/svg" width="20" height="20" viewBox="0 0 20 20">
  <path d="m10,18.75c-4.8252,0-8.75-3.9248-8.75-8.75S5.1748,1.25,10,1.25s8.75,3.9248,8.75,8.75-3.9248,8.75-8.75,8.75Zm0-16c-3.99805,0-7.25,3.25195-7.25,7.25s3.25195,7.25,7.25,7.25,7.25-3.25195,7.25-7.25-3.25195-7.25-7.25-7.25Z" fill="var(--iconPrimary, #222)" stroke-width="0"/>
  <path d="m10,15.75c-.41406,0-.75-.33594-.75-.75s.33594-.75.75-.75c.18555,0,.36719-.01172.5459-.03418,1.89453-.24219,3.40137-1.7334,3.66309-3.62695.02734-.19238.04102-.38965.04102-.58887,0-.41406.33594-.75.75-.75s.75.33594.75.75c0,.26953-.01855.53516-.05469.79395-.35449,2.56348-2.39453,4.58203-4.96094,4.91016-.24219.03027-.48633.0459-.73438.0459Z" fill="var(--iconPrimary, #222)" stroke-width="0"/>
</svg>