<?xml version="1.0" encoding="UTF-8"?>
<svg   xmlns="http://www.w3.org/2000/svg" width="20" height="20" viewBox="0 0 20 20">
  <path d="M11.8999,17.99023c-1.58105,0-3.04541-.57031-4.12256-1.60547-1.08105-1.03809-1.68018-2.44629-1.68701-3.96484-.00586-1.66211.87061-3.15527,1.39355-3.89746.59619-.99902.75488-1.2832.86182-1.5498-.1792.0498-.40527.13867-.69141.27051-1.13428.52539-2.55371.07812-3.17334-.9834-.34619-.59375-.42627-1.31055-.22021-1.9668.20996-.66699.69629-1.21875,1.33496-1.51367,1.00293-.46484,1.95996-.72559,2.84424-.77441.08984-.00586.18555-.00781.28027-.00781,1.14258,0,2.23145.42188,3.06543,1.1875.94727.875,1.48877,2.10938,1.52637,3.47754.01709.61621-.07617,1.2168-.27588,1.78516-.30127.85156-.62842,1.41113-1.40625,2.70605l-.10889.16602c-.37451.51953-.51416.9873-.52051,1.09082.00098.17383.05908.32031.17871.43457.16113.1543.40186.2373.69385.2373.50195-.01758.98926-.08789,1.46094-.19922,1.16846-.27539,2.42627.34473,2.87793,1.44727.27344.66797.2417,1.41992-.0874,2.0625-.32324.63184-.90039,1.08887-1.58447,1.25488-.80615.19336-1.63525.31055-2.39795.33789-.07275.00488-.1582.00488-.24219.00488ZM8.56348,5.42383c.36914,0,.68896.10352.89941.27051.27881.21387.45117.59082.46533,1.02832.00537.23535-.05957.4502-.10889.59082-.17871.50391-.35156.8125-1.0791,2.02734-.36865.52637-1.15479,1.78125-1.1499,3.07324.00488,1.1084.44043,2.13477,1.22607,2.88867.79688.76562,1.8916,1.1875,3.0835,1.1875l.17432-.00293c.67773-.02441,1.4043-.12793,2.11426-.29883.26123-.0625.4751-.2334.60059-.47852.12939-.25293.14209-.54883.03467-.81152-.17529-.42969-.68115-.66309-1.14307-.55664-.57324.13672-1.14844.21777-1.66357.23633l-.14404.00391c-.67529,0-1.29102-.23242-1.73291-.65527-.41064-.39551-.63672-.93457-.63965-1.51953,0-.50879.32129-1.29492.79883-1.95898l.0542-.08203c.76172-1.26953,1.01758-1.70996,1.26807-2.41699.13818-.39453.20264-.81348.19141-1.24609-.02686-.96094-.39697-1.81836-1.04346-2.41504-.55518-.50977-1.28271-.79102-2.04785-.79102h-.00146c-.06445,0-.12891.00195-.19336.00586-.69824.03809-1.4707.25195-2.30078.6377-.25635.11816-.45117.33789-.53418.60254-.08105.25781-.05078.52832.08496.76074.24463.41992.7959.58691,1.24951.37695.64551-.29785,1.104-.43457,1.53174-.45703h.00537Z" fill="var(--iconPrimary, #222)"/>
</svg>