<?xml version="1.0" encoding="UTF-8"?>
<svg   xmlns="http://www.w3.org/2000/svg" width="20" height="20" viewBox="0 0 20 20">
  <path d="M7.75,10H3.25c-1.24072,0-2.25-1.00977-2.25-2.25V3.25c0-1.24023,1.00928-2.25,2.25-2.25h4.5c1.24072,0,2.25,1.00977,2.25,2.25v4.5c0,1.24023-1.00928,2.25-2.25,2.25ZM3.25,2.5c-.41357,0-.75.33691-.75.75v4.5c0,.41309.33643.75.75.75h4.5c.41357,0,.75-.33691.75-.75V3.25c0-.41309-.33643-.75-.75-.75H3.25Z" fill="var(--iconPrimary, #222)"/>
  <path d="M6.25,6.875h-1.5c-.34521,0-.625-.28027-.625-.625v-1.5c0-.34473.27979-.625.625-.625h1.5c.34521,0,.625.28027.625.625v1.5c0,.34473-.27979.625-.625.625Z" fill="var(--iconPrimary, #222)"/>
  <path d="M16.75,19h-4.5c-1.24072,0-2.25-1.00977-2.25-2.25v-4.5c0-1.24023,1.00928-2.25,2.25-2.25h4.5c1.24072,0,2.25,1.00977,2.25,2.25v4.5c0,1.24023-1.00928,2.25-2.25,2.25ZM12.25,11.5c-.41357,0-.75.33691-.75.75v4.5c0,.41309.33643.75.75.75h4.5c.41357,0,.75-.33691.75-.75v-4.5c0-.41309-.33643-.75-.75-.75h-4.5Z" fill="var(--iconPrimary, #222)"/>
  <path d="M15.25,15.875h-1.5c-.34521,0-.625-.28027-.625-.625v-1.5c0-.34473.27979-.625.625-.625h1.5c.34521,0,.625.28027.625.625v1.5c0,.34473-.27979.625-.625.625Z" fill="var(--iconPrimary, #222)"/>
</svg>