<?xml version="1.0" encoding="UTF-8"?>
<svg   xmlns="http://www.w3.org/2000/svg" width="20" height="20" viewBox="0 0 20 20">
  <path d="M17.25,6.49023c.41406,0,.75-.33594.75-.75v-2.99023c0-.41406-.33594-.75-.75-.75h-2.99023c-.41406,0-.75.33594-.75.75s.33594.75.75.75h1.17975l-5.74957,5.75H2.75c-.41406,0-.75.33594-.75.75s.33594.75.75.75h6.90869l5.75043,5.75h-1.14935c-.41406,0-.75.33594-.75.75s.33594.75.75.75h2.99023c.41406,0,.75-.33594.75-.75v-2.99023c0-.41406-.33594-.75-.75-.75s-.75.33594-.75.75v1.20996l-5.45459-5.4541,5.45459-5.45508v1.17969c0,.41406.33594.75.75.75Z" fill="var(--iconPrimary, #222)"/>
</svg>