<?xml version="1.0" encoding="UTF-8"?>
<svg id="e" data-name="ICONS" xmlns="http://www.w3.org/2000/svg" width="20" height="20" viewBox="0 0 20 20">
  <path d="M15.75,2H4.25c-1.24023,0-2.25,1.00977-2.25,2.25v11.5c0,1.24023,1.00977,2.25,2.25,2.25h11.5c1.24023,0,2.25-1.00977,2.25-2.25V4.25c0-1.24023-1.00977-2.25-2.25-2.25ZM4.25,3.5h5v8.4165l-1.73438-1.73486c-.87695-.875-2.30469-.87598-3.18164.00098l-.83398.83398v-6.7666c0-.41309.33691-.75.75-.75ZM3.5,15.75v-2.62109c.00806-.00732.01855-.00977.02637-.01758l1.86816-1.86719c.29102-.29297.76758-.29199,1.06055-.00098l2.79492,2.79492v2.46191h-5c-.41309,0-.75-.33691-.75-.75ZM16.5,15.75c0,.41309-.33691.75-.75.75h-5V3.5h5c.41309,0,.75.33691.75.75v11.5Z" fill="var(--iconPrimary, #222)"/>
  <path d="M12.5,6.5h1.5c.41406,0,.75-.33594.75-.75s-.33594-.75-.75-.75h-1.5c-.41406,0-.75.33594-.75.75s.33594.75.75.75Z" fill="var(--iconPrimary, #222)"/>
  <path d="M14.75,8h-2.25c-.41406,0-.75.33594-.75.75s.33594.75.75.75h2.25c.41406,0,.75-.33594.75-.75s-.33594-.75-.75-.75Z" fill="var(--iconPrimary, #222)"/>
  <path d="M14.75,11h-2.25c-.41406,0-.75.33594-.75.75s.33594.75.75.75h2.25c.41406,0,.75-.33594.75-.75s-.33594-.75-.75-.75Z" fill="var(--iconPrimary, #222)"/>
  <circle cx="7" cy="6.25" r="1.25" fill="var(--iconPrimary, #222)"/>
</svg>