<?xml version="1.0" encoding="UTF-8"?>
<svg   xmlns="http://www.w3.org/2000/svg" width="20" height="20" viewBox="0 0 20 20">
  <path d="M15.15479,15.9043c-.19189,0-.38379-.07324-.53027-.21973l-2.12158-2.12109c-.29297-.29297-.29297-.76758,0-1.06055s.76758-.29297,1.06055,0l2.12158,2.12109c.29297.29297.29297.76758,0,1.06055-.14648.14648-.33838.21973-.53027.21973Z" fill="var(--iconPrimary, #222)"/>
  <path d="M11.4873,17.91699c-.25098,0-.49658-.12598-.63867-.35547l-1.57373-2.5459c-.21777-.35254-.1084-.81445.24365-1.03223.35156-.21777.81445-.10938,1.03271.24316l1.57373,2.5459c.21777.35254.1084.81445-.24365,1.03223-.12305.07617-.25928.1123-.39404.1123Z" fill="var(--iconPrimary, #222)"/>
  <path d="M17.1665,12.23633c-.13477,0-.271-.03613-.39355-.1123l-2.5459-1.57324c-.35254-.21777-.46191-.67969-.24414-1.03223.21826-.35254.68115-.46094,1.03223-.24316l2.5459,1.57324c.35254.21777.46191.67969.24414,1.03223-.14209.22949-.3877.35547-.63867.35547Z" fill="var(--iconPrimary, #222)"/>
  <path d="M12.27399,7.69751c.28137-.44922.39532-.98267.31293-1.52368-.10889-.71582-.53857-1.31836-1.17969-1.6543l-3.19922-1.67676c-.60724-.33789-1.32184-.35962-1.93933-.10986l-.50061-.50049c-.75537-.75586-2.07227-.75586-2.82861,0l-.70703.70703c-.77979.7793-.77979,2.04883,0,2.82812l.50824.5083c-.24017.61157-.21625,1.31177.11041,1.89893l1.68506,3.21387c.33594.6416.93896,1.07129,1.6543,1.18066.11621.01758.23193.02637.34717.02637.41864,0,.82056-.12158,1.17303-.34131.53015.3457,1.14789.53467,1.79572.53467.88135,0,1.70996-.34375,2.3335-.9668.62305-.62305.96631-1.45215.96631-2.33301,0-.64648-.18811-1.26245-.53217-1.79175ZM3.29297,4.70703c-.19482-.19531-.19482-.51172,0-.70703l.70703-.70703c.19043-.18945.51855-.18848.70703,0l.37128.37085-1.41425,1.41431-.37109-.37109ZM6.4165,11.08594c-.23877-.03613-.43945-.17969-.55176-.39355l-1.69434-3.23047c-.16162-.29102-.10986-.65918.12549-.89453l2.28906-2.28906c.1416-.1416.33154-.2168.52734-.2168.12891,0,.26074.0332.3833.10059l3.21533,1.68555c.21338.1123.35693.31348.39307.55176s-.04053.47168-.21143.64258l-3.83301,3.83301c-.1709.16992-.40479.24805-.64307.21094ZM10.7793,10.76172c-.49274.49243-1.24896.62354-1.88776.40234l2.29834-2.29858c.07312.19751.11627.40698.11627.62378,0,.48047-.18701.93262-.52686,1.27246Z" fill="var(--iconPrimary, #222)"/>
</svg>