<?xml version="1.0" encoding="UTF-8"?>
<svg   xmlns="http://www.w3.org/2000/svg" width="20" height="20" viewBox="0 0 20 20">
  <path d="M5.75,5.75781h-3c-.41406,0-.75-.33594-.75-.75s.33594-.75.75-.75h3c.41406,0,.75.33594.75.75s-.33594.75-.75.75Z" fill="var(--iconPrimary, #222)"/>
  <path d="M7.23975,3.5c-.12744,0-.25635-.03223-.37451-.10059l-2.59766-1.5c-.35889-.20703-.48145-.66602-.27441-1.02441.20654-.35938.66699-.48145,1.02441-.27441l2.59766,1.5c.35889.20703.48145.66602.27441,1.02441-.13867.24023-.39111.375-.6499.375Z" fill="var(--iconPrimary, #222)"/>
  <path d="M4.64307,9.5c-.25879,0-.51123-.13477-.6499-.375-.20703-.3584-.08447-.81738.27441-1.02441l2.59766-1.5c.35791-.20801.81787-.08398,1.02441.27441.20703.3584.08447.81738-.27441,1.02441l-2.59766,1.5c-.11816.06836-.24707.10059-.37451.10059Z" fill="var(--iconPrimary, #222)"/>
  <path d="M16.25,7.5h-.25v-.75c0-.41406-.33594-.75-.75-.75h-.75v-2c0-.41406-.33594-.75-.75-.75h-1.5c-.41406,0-.75.33594-.75.75v2h-.75c-.41406,0-.75.33594-.75.75v.75h-.25c-.41406,0-.75.33594-.75.75v10c0,.41406.33594.75.75.75h6.5c.41406,0,.75-.33594.75-.75v-10c0-.41406-.33594-.75-.75-.75ZM15.5,17.5h-5v-8.5h5v8.5Z" fill="var(--iconPrimary, #222)"/>
</svg>