<?xml version="1.0" encoding="UTF-8"?>
<svg id="f" data-name="ICONS" xmlns="http://www.w3.org/2000/svg" width="20" height="20" viewBox="0 0 20 20">
  <path d="M15.25,19H4.75c-.41406,0-.75-.33594-.75-.75s.33594-.75.75-.75h4.60547l-4.79297-1.23926c-.3418-.08887-.57617-.40332-.56152-.75586.01367-.35254.27051-.64746.61816-.70898l7.31738-1.29492-7.39453-2.13379c-.32227-.09277-.54297-.38867-.54199-.72363.00098-.33594.22559-.62891.54785-.71973l8.23438-2.30176-8.28613-2.97461c-.30957-.11133-.51074-.41211-.49512-.74121s.24414-.60938.5625-.69141L15.06348.52344c.39648-.09668.81055.1377.91309.54004.10254.40137-.13867.81055-.54004.91309l-8.13281,2.08496,8.2002,2.94336c.30664.11035.50781.40723.49512.7334-.01172.32617-.23242.60742-.54688.69531l-7.95801,2.22461,7.96387,2.29785c.33496.09668.55957.41211.54102.76074-.01855.34766-.27441.6377-.61816.69824l-7.10352,1.25684,7.16016,1.85156c.36621.09473.60449.44629.55664.82129s-.36621.65527-.74414.65527Z" fill="var(--iconPrimary, #222)"/>
</svg>