<?xml version="1.0" encoding="UTF-8"?>
<svg id="f" data-name="ICONS" xmlns="http://www.w3.org/2000/svg" width="20" height="20" viewBox="0 0 20 20">
  <path d="M10.83594,7.82422c-.18848,0-.37695-.07031-.52246-.21191-.12402-.12207-.48242-.12402-.67969.04004-.31836.26367-.79102.21875-1.05566-.10254-.26367-.32031-.21777-.79297.10254-1.05566.77441-.63672,2-.61719,2.67773.04199.29688.28906.30371.76367.01562,1.06055-.14746.15137-.34277.22754-.53809.22754Z" fill="var(--iconPrimary, #222)"/>
  <path d="M6.0957,16.93066c-.06055,0-.12109-.00684-.18164-.02246-.40234-.09961-.64746-.50684-.54688-.9082l1.5127-6.08301c.09961-.40332.5127-.64648.9082-.54688.40234.09961.64746.50684.54688.9082l-1.5127,6.08301c-.08496.3418-.39062.56934-.72656.56934Z" fill="var(--iconPrimary, #222)"/>
  <path d="M1.25195,6.72168c-.09766,0-.19727-.01855-.29297-.05957-.38184-.16211-.55957-.60254-.39746-.9834C2.50098,1.10938,4.45801.71484,5.39941.52539c.40527-.0791.82715.17578.91016.58105.08203.40527-.15234.7959-.55859.87891,0,0-.05469.01074-.05566.01074-.68945.13867-2.12305.42773-3.75293,4.26855-.12109.28613-.39844.45703-.69043.45703Z" fill="var(--iconPrimary, #222)"/>
  <path d="M10.00098,19c-.0127,0-.02637,0-.03906-.00098-2.24121-.11816-3.35547-.33008-4.32324-1.81934-1.75195.17773-3.25-.56445-4.25488-2.13965-.41992-.65625-.46973-1.51074-.13965-2.34375.74707-1.88379,2.87305-6.59375,3.08398-7.02637.81348-1.65625,1.85254-2.01367,2.74902-1.92383.38477-.5.95801-.82324,1.59961-.88184.56348-.0498,1.00586.0957,1.3252.26855.33008-.17969.7832-.31152,1.32617-.26855.64062.05859,1.21289.38184,1.59766.88184.88379-.08301,1.93555.26562,2.75,1.92383.21094.43066,2.33398,5.1377,3.08301,7.02637.33105.83203.28125,1.68652-.13867,2.34375-1.00488,1.57617-2.50586,2.31738-4.25488,2.13965-.96777,1.48926-2.08203,1.70117-4.3252,1.81934-.0127.00098-.02637.00098-.03906.00098ZM6.02539,15.61133c.27051,0,.52539.14648.65918.3916.64648,1.18848,1.05371,1.375,3.31738,1.49609,2.26367-.12109,2.6709-.30762,3.31738-1.49609.1582-.29004.48242-.44727.81055-.37598,1.39062.28516,2.44531-.16992,3.22656-1.39355.22266-.34863.08008-.80371.00879-.9834-.73926-1.8623-2.83008-6.49707-3.03711-6.91992-.64551-1.31738-1.20801-1.13477-1.54492-1.02637-.375.12207-.7793-.06836-.92773-.43457-.11719-.29297-.36523-.4834-.66309-.51074-.39258-.03516-.61621.18555-.64062.21094-.25098.25684-.65625.30957-.95801.10742-.05176-.03418-.09863-.07422-.13965-.11816l-.00684.00684c-.00879-.01074-.2168-.24805-.63477-.20703-.29883.02734-.54688.21777-.66406.50977-.14551.36719-.55176.55762-.92773.43555-.33691-.10938-.89941-.29102-1.54492,1.02637-.20801.4248-2.30078,5.0625-3.03711,6.91895-.07129.17969-.21289.63574.00879.98438.78223,1.22363,1.8418,1.67969,3.22656,1.39355.05078-.01074.10156-.01562.15137-.01562Z" fill="var(--iconPrimary, #222)"/>
  <path d="M13.9082,16.93066c-.33594,0-.6416-.22754-.72656-.56934l-1.51367-6.08301c-.10059-.40137.14453-.80859.54688-.9082.39746-.09863.80762.14355.9082.54688l1.51367,6.08301c.10059.40137-.14453.80859-.54688.9082-.06055.01562-.12109.02246-.18164.02246Z" fill="var(--iconPrimary, #222)"/>
  <path d="M18.82544,6.72168c.09766,0,.19727-.01855.29297-.05957.38184-.16211.55957-.60254.39746-.9834C17.57641,1.10938,15.61938.71484,14.67798.52539c-.40527-.0791-.82715.17578-.91016.58105-.08203.40527.15234.7959.55859.87891,0,0,.05469.01074.05566.01074.68945.13867,2.12305.42773,3.75293,4.26855.12109.28613.39844.45703.69043.45703Z" fill="var(--iconPrimary, #222)"/>
</svg>