<?xml version="1.0" encoding="UTF-8"?>
<svg   xmlns="http://www.w3.org/2000/svg" width="20" height="20" viewBox="0 0 20 20">
  <path d="M8.125,18.00004h-4.125c-.41406,0-.75-.33594-.75-.75s.33594-.75.75-.75h4.125c.41406,0,.75.33594.75.75s-.33594.75-.75.75Z" fill="var(--iconPrimary, #222)"/>
  <path d="M15,10.5c-2.48529,0-4.5,2.01471-4.5,4.5s2.01471,4.5,4.5,4.5,4.5-2.01471,4.5-4.5-2.01471-4.5-4.5-4.5ZM17.5,15.625h-1.875v1.875c0,.34473-.28027.625-.625.625s-.625-.28027-.625-.625v-1.875h-1.875c-.34473,0-.625-.28027-.625-.625s.28027-.625.625-.625h1.875v-1.875c0-.34473.28027-.625.625-.625s.625.28027.625.625v1.875h1.875c.34473,0,.625.28027.625.625s-.28027.625-.625.625Z" fill="var(--iconPrimary, #222)"/>
  <path d="M7.78857,15.00004H2.75c-.41406,0-.75-.33594-.75-.75v-2c0-1.24023,1.00928-2.25,2.25-2.25h3.19922l.50098-2.3623c-1.04932-.68555-1.7002-1.86035-1.7002-3.1377,0-2.06738,1.68213-3.75,3.75-3.75s3.75,1.68262,3.75,3.75c0,1.27734-.65088,2.45215-1.7002,3.1377l.18262.85938c.08594.4043-.17285.80273-.57812.88867-.40576.0918-.80322-.17188-.88965-.57812l-.29834-1.40527c-.07373-.34766.10693-.69922.43311-.8418.82031-.36035,1.35059-1.16895,1.35059-2.06055,0-1.24023-1.00928-2.25-2.25-2.25s-2.25,1.00977-2.25,2.25c0,.8916.53027,1.7002,1.35059,2.06055.32617.14258.50684.49414.43311.8418l-.74316,3.50293c-.07373.34668-.37988.59473-.73389.59473h-3.80664c-.41357,0-.75.33691-.75.75v1.25h4.28857c.41406,0,.75.33594.75.75s-.33594.75-.75.75Z" fill="var(--iconPrimary, #222)"/>
</svg>