<?xml version="1.0" encoding="UTF-8"?>
<svg xmlns="http://www.w3.org/2000/svg" width="16" height="16" viewBox="0 0 16 16">
  <path d="m14.76514,7.57031c.44287-.35498.61572-.93262.44043-1.47266-.17529-.53955-.65479-.90576-1.22168-.93213l-3.06104-.14502c-.26562-.0127-.49805-.18164-.59229-.43066l-1.0835-2.86621c-.20068-.53076-.69678-.87354-1.26465-.87354-.56738,0-1.06348.34277-1.26416.87354l-1.0835,2.86621c-.09424.24902-.32666.41797-.59229.43066l-3.06104.14502c-.56689.02637-1.04639.39258-1.22168.93213-.17529.54004-.00244,1.11768.43994,1.47266l2.3916,1.91699c.20752.16602.2959.43896.22607.69531l-.80811,2.95605c-.1499.54736.05029,1.1167.50928,1.4502.4585.3335,1.06201.34766,1.53711.03662l2.02002-1.32715c.5415-.35449,1.27197-.35449,1.81348,0l2.02148,1.32715c.22754.14941.48486.22412.74219.22412.27783,0,.55518-.0874.79395-.26074.45898-.3335.65918-.90234.50928-1.44971l-.80811-2.95605c-.06982-.25684.01904-.52979.22656-.6958l2.39062-1.91699Z" fill="var(--iconPrimary, #222)" stroke-width="0"/>
</svg>