<?xml version="1.0" encoding="UTF-8"?>
<svg id="e" data-name="strokes" xmlns="http://www.w3.org/2000/svg" width="20" height="20" viewBox="0 0 20 20">
  <path d="M13.96777,17.75c-.3125,0-.625-.09082-.90137-.27246l-2.10938-1.38477c-.56738-.375-1.3418-.375-1.91504,0l-2.10742,1.38477c-.57812.37891-1.31055.36035-1.86816-.04492s-.80078-1.09668-.61914-1.76172l.85352-3.12402c.06934-.25195-.01758-.51953-.2207-.68262l-2.52637-2.02539c-.53906-.43066-.74902-1.13379-.53613-1.78906.21289-.65625.7959-1.10156,1.48535-1.13379l3.23438-.15332c.25977-.0127.48828-.17773.58105-.42188l1.14453-3.02832c.24316-.64551.84668-1.0625,1.53711-1.0625s1.29395.41699,1.53711,1.06152v.00098l1.14453,3.0293c.09277.24316.32129.4082.58105.4209l3.23438.15332c.68945.03223,1.27246.47754,1.48535,1.13379.21289.65527.00293,1.3584-.53613,1.78906l-2.52637,2.02539c-.20312.16309-.29004.43066-.2207.68164l.85352,3.125c.18164.66504-.06152,1.35645-.61914,1.76172-.29004.21094-.62793.31738-.96582.31738ZM10,14.30664c.63477,0,1.25098.18457,1.78125.53223l2.1084,1.38477c.01855.01172.08301.05176.16211-.00391.08008-.05859.06055-.12793.05371-.1543l-.85352-3.12402c-.22656-.82812.06055-1.71094.73047-2.24707l2.52637-2.02539c.02148-.01758.07715-.0625.04688-.15625s-.10254-.09766-.12891-.09863l-3.23438-.15332c-.85742-.04004-1.6084-.58496-1.91309-1.38867l-1.14453-3.03027c-.00879-.02246-.03516-.0918-.13477-.0918s-.12598.06934-.13477.09277l-1.14453,3.02832c-.30469.80469-1.05566,1.34961-1.91309,1.38965l-3.23438.15332c-.02637.00098-.09863.00488-.12891.09863s.02539.13867.04688.15625l2.52637,2.02539c.66992.53613.95703,1.41895.73047,2.24805l-.85352,3.12305c-.00684.02637-.02637.0957.05371.1543.07812.05566.14062.01562.16309.00391l2.10742-1.38477c.53223-.34863,1.14746-.53223,1.78125-.53223Z" fill="var(--iconPrimary, #222)"/>
</svg>