<?xml version="1.0" encoding="UTF-8"?>
<svg xmlns="http://www.w3.org/2000/svg" width="16" height="16" viewBox="0 0 16 16">
  <path d="m11.59521,14.8999c-.2832,0-.56689-.08203-.81787-.24707l-1.99023-1.30664c-.47852-.31445-1.13037-.31396-1.60889,0l-1.98975,1.30664c-.52393.34424-1.18896.32666-1.69482-.04053-.50537-.36816-.72559-.99561-.56006-1.59863l.79492-2.90918c.05225-.19092-.01367-.39502-.16846-.51904l-2.354-1.88623c-.48779-.39111-.67822-1.02783-.48535-1.62256.19287-.59521.72119-.99902,1.34619-1.02881l3.01367-.14258c.19824-.00928.37158-.13525.44141-.32031l1.06689-2.82178c.22119-.58496.76855-.96338,1.39355-.96338.62549,0,1.17285.37842,1.39404.96338l1.06689,2.82178c.06982.18506.24316.31104.44092.32031l3.01367.14258c.62549.02979,1.15381.43359,1.34668,1.02881.19285.59473.00244,1.23145-.48584,1.62256l-2.35352,1.88672c-.15479.12354-.2207.32764-.16846.51904l.79541,2.90918c.16504.60254-.05518,1.22998-.56055,1.59814-.26318.19141-.56934.2876-.87646.2876ZM7.9707,2.28809l-1.04541,2.82715c-.28174.74512-.97803,1.25049-1.77393,1.28809l-3.0127.14258,2.35986,1.86914c.62109.49854.88672,1.31689.67725,2.08447l-.79541,2.91016,1.97461-1.31738c.96973-.63672,2.28564-.63672,3.25537,0l1.98975,1.30664-.81055-2.89893c-.20947-.76807.05615-1.58643.67725-2.08447l2.354-1.88721-3.00732-.125c-.79541-.0376-1.4917-.54297-1.77344-1.28809l-1.06934-2.82715Z" fill="var(--iconPrimary, #222)" stroke-width="0"/>
</svg>