<?xml version="1.0" encoding="UTF-8"?>
<svg   xmlns="http://www.w3.org/2000/svg" width="20" height="20" viewBox="0 0 20 20">
  <path d="M12.25,16.75c-3.72217,0-6.75-3.02832-6.75-6.75s3.02783-6.75,6.75-6.75,6.75,3.02832,6.75,6.75-3.02783,6.75-6.75,6.75ZM12.25,4.75c-2.89502,0-5.25,2.35547-5.25,5.25s2.35498,5.25,5.25,5.25,5.25-2.35547,5.25-5.25-2.35498-5.25-5.25-5.25Z" fill="var(--iconPrimary, #222)" stroke-width="0"/>
  <path d="M5.01611,16.08203c-.11523,0-.23242-.02637-.3418-.08301-2.2666-1.16309-3.67432-3.46191-3.67432-5.99902s1.40771-4.83594,3.67432-5.99902c.36719-.19043.81982-.04395,1.00977.32422.18896.36914.04346.82129-.3252,1.00977-1.76318.90527-2.85889,2.69238-2.85889,4.66504s1.0957,3.75977,2.85889,4.66504c.36865.18848.51416.64062.3252,1.00977-.1333.25879-.396.40723-.66797.40723Z" fill="var(--iconPrimary, #222)" stroke-width="0"/>
  <path d="M11.66211,13.14551c-.2124,0-.41504-.08984-.55762-.24805l-1.98291-2.20508c-.27686-.30859-.25195-.78223.05615-1.05957s.78223-.25098,1.05908.05566l1.36621,1.51953,2.6377-3.59863c.24561-.33398.71387-.40723,1.04834-.16113.33398.24414.40625.71387.16162,1.04785l-3.18359,4.34277c-.13379.18262-.34229.29492-.56738.30566-.0127.00098-.02539.00098-.0376.00098Z" fill="var(--iconPrimary, #222)" stroke-width="0"/>
</svg>