<?xml version="1.0" encoding="UTF-8"?>
<svg id="e" data-name="ICONS" xmlns="http://www.w3.org/2000/svg" width="20" height="20" viewBox="0 0 20 20">
  <path d="M15.75,2H4.25c-1.24023,0-2.25,1.00977-2.25,2.25v11.5c0,1.24023,1.00977,2.25,2.25,2.25h11.5c1.24023,0,2.25-1.00977,2.25-2.25V4.25c0-1.24023-1.00977-2.25-2.25-2.25ZM16.5,15.75c0,.41309-.33691.75-.75.75h-1.75v-4c0-.41406-.33594-.75-.75-.75s-.75.33594-.75.75v4h-1.75v-5.25c0-.41406-.33594-.75-.75-.75s-.75.33594-.75.75v5.25h-1.75v-3c0-.41406-.33594-.75-.75-.75s-.75.33594-.75.75v3h-1.75c-.41309,0-.75-.33691-.75-.75V4.25c0-.41309.33691-.75.75-.75h11.5c.41309,0,.75.33691.75.75v11.5Z" fill="var(--iconPrimary, #222)"/>
  <path d="M13.92676,6.99121l-1.34277,1.51465c-.08398.09375-.22949.10547-.32715.02246l-1.60352-1.37207c-.7002-.52539-1.69141-.45312-2.30859.16504l-3.13672,3.13672c-.2998.29883-.2998.78516,0,1.08398.14941.14941.3457.22461.54199.22461s.39258-.0752.54199-.22461l3.13672-3.13672c.08008-.08008.21191-.0918.26562-.05371l1.56445,1.34082c.72949.62402,1.83691.5459,2.47168-.16895l1.34277-1.51465c.28125-.31738.25195-.80176-.06445-1.08203-.31738-.28125-.80078-.25293-1.08203.06445Z" fill="var(--iconPrimary, #222)"/>
</svg>