<?xml version="1.0" encoding="UTF-8"?>
<svg id="e" data-name="ICONS" xmlns="http://www.w3.org/2000/svg" width="20" height="20" viewBox="0 0 20 20">
  <circle cx="7.25" cy="8" r="1.25" fill="var(--iconPrimary, #222)"/>
  <circle cx="12.75" cy="8" r="1.25" fill="var(--iconPrimary, #222)"/>
  <path d="M18.49414,17.56421l-2,1.75c-.2832.24805-.70508.24805-.98828,0l-2-1.75c-.31152-.27246-.34277-.74707-.07031-1.05859.27441-.31152.74707-.34082,1.05859-.07031l.75586.66162v-4.34717c0-.41406.33594-.75.75-.75s.75.33594.75.75v4.34717l.75586-.66162c.14258-.12402.31836-.18555.49414-.18555.20801,0,.41602.08691.56445.25586.27246.31152.24121.78613-.07031,1.05859Z" fill="var(--iconPrimary, #222)"/>
  <path d="M10,1.25C5.17529,1.25,1.25,5.1748,1.25,10s3.92529,8.75,8.75,8.75c.07617,0,.15137-.00488.31543-.01562.22119-.00879.42676-.11523.56201-.29004.13574-.1748.18701-.40039.14062-.61621-.08594-.39941-.12939-.80273-.12939-1.2002,0-3.16699,2.60498-5.74316,5.80713-5.74316.38086,0,.76611.03809,1.14453.11328.21777.04492.44238-.05273.61523-.18945.17236-.13672.27832-.38379.28564-.60352.00488-.06836.00879-.13574.00879-.20508,0-4.8252-3.92529-8.75-8.75-8.75ZM10.41443,12.95337l-.00928-.00342c-.14246.01782-.27625.05005-.42761.05005-1.36182,0-2.36279-.81641-2.37012-.82227-.31641-.26758-.78955-.22949-1.05664.08789-.26758.31543-.22852.78906.08789,1.05664.05396.04565,1.29352,1.06177,3.07507,1.15918l.0097.00244c-.21466.67847-.33484,1.39746-.33478,2.14404,0,.19922.00879.39844.02539.59863-3.72461-.29883-6.66406-3.42578-6.66406-7.22656,0-3.99805,3.25244-7.25,7.25-7.25,3.79688,0,6.92188,2.93457,7.22559,6.6543-2.86261-.20996-5.44434,1.27344-6.81116,3.54907Z" fill="var(--iconPrimary, #222)"/>
</svg>