<?xml version="1.0" encoding="UTF-8"?><svg id="e" xmlns="http://www.w3.org/2000/svg" width="20" height="20" viewBox="0 0 20 20"><circle cx="7.25" cy="8" r="1.25" fill="var(--iconPrimary,#222)"/><circle cx="12.75" cy="8" r="1.25" fill="var(--iconPrimary,#222)"/><path d="M10,1.25C5.17529,1.25,1.25,5.1748,1.25,10s3.92529,8.75,8.75,8.75c.32471,0,.64404-.02148.95947-.05469.16992-.01855.32861-.09473.44971-.21582l7.07031-7.07031c.12061-.12012.19678-.27832.21533-.44824.03467-.31641.05518-.63672.05518-.96094,0-4.8252-3.92529-8.75-8.75-8.75ZM2.75,10c0-3.99805,3.25244-7.25,7.25-7.25,3.8031,0,6.92542,2.94507,7.22083,6.67383-.19452-.01562-.38849-.03711-.58411-.03711-2.6507,0-4.96704,1.43433-6.23157,3.56323-.14246.01782-.27625.05005-.42761.05005-1.36182,0-2.36279-.81641-2.37012-.82227-.31641-.26758-.78955-.22949-1.05664.08789-.26758.31543-.22852.78906.08789,1.05664.05396.04565,1.29352,1.06177,3.07507,1.15918-.21246.68115-.32703,1.40503-.32703,2.15527,0,.1958.02209.38965.03772.58423-3.72876-.29517-6.67444-3.41724-6.67444-7.22095ZM10.90155,16.86548c-.00305-.07642-.01483-.1521-.01483-.22876,0-3.1709,2.57959-5.75,5.75-5.75.07672,0,.15253.01147.22913.01465l-5.96429,5.96411Z" fill="var(--iconPrimary,#222)"/></svg>