<?xml version="1.0" encoding="UTF-8"?>
<svg id="e" data-name="ICONS" xmlns="http://www.w3.org/2000/svg" width="20" height="20" viewBox="0 0 20 20">
  <path d="M8.96973,10.71973c-.29297.29297-.29297.76758,0,1.06055.14648.14648.33789.21973.53027.21973s.38379-.07324.53027-.21973l4.18164-4.18164c.00732-.00732.00952-.01709.01636-.02466.58655.75513,1.0105,1.64941,1.18286,2.64868.07129.40918.45996.67578.86621.6123.4082-.07031.68262-.45801.6123-.86621-.57812-3.35449-3.3125-5.84961-6.6416-6.17896v-1.28979h.75c.41406,0,.75-.33594.75-.75s-.33594-.75-.75-.75h-3c-.41406,0-.75.33594-.75.75s.33594.75.75.75h.75v1.28809c-1.51575.15112-2.90015.75488-4.01514,1.67432l-.86206-.86206.53052-.53003c.29297-.29199.29297-.76758,0-1.06055-.29199-.29199-.7666-.29395-1.06055,0l-2.12305,2.12109c-.29297.29199-.29297.76758,0,1.06055.14648.14648.33789.21973.53027.21973.19141,0,.38379-.07324.53027-.21973l.53149-.53101.86816.86816c-1.04871,1.29028-1.67993,2.93286-1.67993,4.72144,0,3.85938,3.00879,7.1416,6.84961,7.47168.02246.00195.04395.00293.06543.00293.38477,0,.71289-.29492.74609-.68555.03613-.41309-.27051-.77637-.68262-.81152-3.07227-.26465-5.47852-2.88965-5.47852-5.97754,0-3.30859,2.69141-6,6-6,1.38184,0,2.65564.47778,3.67798,1.27173-.00757.00684-.01733.00903-.02466.01636l-4.18164,4.18164Z" fill="var(--iconPrimary, #222)"/>
  <path d="M18.7002,13.25h-3.2002v-.5c0-.41406-.33594-.75-.75-.75s-.75.33594-.75.75v.5h-.75c-.41406,0-.75.33594-.75.75s.33594.75.75.75h.75v1.5h-2.25c-.41406,0-.75.33594-.75.75s.33594.75.75.75h2.25v1c0,.41406.33594.75.75.75s.75-.33594.75-.75v-1h1.7002c.41406,0,.75-.33594.75-.75s-.33594-.75-.75-.75h-1.7002v-1.5h3.2002c.41406,0,.75-.33594.75-.75s-.33594-.75-.75-.75Z" fill="var(--iconPrimary, #222)"/>
</svg>