<?xml version="1.0" encoding="UTF-8"?>
<svg id="e" data-name="ICONS" xmlns="http://www.w3.org/2000/svg" width="20" height="20" viewBox="0 0 20 20">
  <path d="M16.65234,8.98926c-.91284-2.89185-3.43701-4.8855-6.4043-5.17969v-1.30957h.75c.41406,0,.75-.33594.75-.75s-.33594-.75-.75-.75h-3c-.41406,0-.75.33594-.75.75s.33594.75.75.75h.75v1.28809c-1.51562.15161-2.89941.75537-4.01416,1.67529l-.86304-.86304.53052-.53003c.29297-.29199.29297-.76758,0-1.06055-.29199-.29199-.7666-.29395-1.06055,0l-2.12305,2.12109c-.29297.29199-.29297.76758,0,1.06055.14648.14648.33789.21973.53027.21973.19141,0,.38379-.07324.53027-.21973l.53149-.53101.86914.86914c-1.0481,1.29028-1.67896,2.93237-1.67896,4.72046,0,3.39062,2.28418,6.36914,5.55469,7.24512.06543.01758.13086.02539.19434.02539.33203,0,.63477-.2207.72461-.55566.10742-.40039-.13086-.81152-.53027-.91895-2.61621-.7002-4.44336-3.08301-4.44336-5.7959,0-3.30859,2.69141-6,6-6,2.63086,0,4.93066,1.68457,5.72266,4.19043.12402.39551.54297.61816.94043.48926.39551-.12402.61426-.5459.48926-.94043Z" fill="var(--iconPrimary, #222)"/>
  <path d="M13.1123,11.00098c-.33008,0-.63184-.21777-.72266-.55078-.35742-1.29688-1.54688-2.20215-2.89355-2.20215-.41406,0-.75-.33594-.75-.75s.33594-.75.75-.75c2.01953,0,3.80469,1.3584,4.33887,3.30371.11035.39941-.12402.8125-.52344.92188-.06641.01855-.13379.02734-.19922.02734Z" fill="var(--iconPrimary, #222)"/>
  <path d="M18.75,15.79297c-.41406,0-.75.33594-.75.75v1.37988c0,.04297-.03516.07715-.07812.07715h-6.34473c-.04297,0-.07715-.03418-.07715-.07715v-3.5957c0-.04297.03418-.07715.07715-.07715h3.3623l-.0498.0498c-.29297.29297-.29297.76758,0,1.06055.14648.14648.33789.21973.53027.21973s.38379-.07324.53027-.21973l1.33008-1.33008c.29297-.29297.29297-.76758,0-1.06055l-1.33008-1.33008c-.29297-.29297-.76758-.29297-1.06055,0s-.29297.76758,0,1.06055l.0498.0498h-3.3623c-.87012,0-1.57715.70703-1.57715,1.57715v3.5957c0,.87012.70703,1.57715,1.57715,1.57715h6.34473c.87012,0,1.57812-.70703,1.57812-1.57715v-1.37988c0-.41406-.33594-.75-.75-.75Z" fill="var(--iconPrimary, #222)"/>
</svg>