<?xml version="1.0" encoding="UTF-8"?>
<svg id="e" data-name="ICONS" xmlns="http://www.w3.org/2000/svg" width="20" height="20" viewBox="0 0 20 20">
  <path d="M11.25,3.78809v-1.28809h.75c.41406,0,.75-.33594.75-.75s-.33594-.75-.75-.75h-3c-.41406,0-.75.33594-.75.75s.33594.75.75.75h.75v1.28809c-1.50623.15015-2.88184.74805-3.99329,1.6582l-.94617-.94629.53027-.53027c.29297-.29297.29297-.76758,0-1.06055s-.76758-.29297-1.06055,0l-2.12109,2.12109c-.29297.29297-.29297.76758,0,1.06055.14648.14648.33789.21973.53027.21973s.38379-.07324.53027-.21973l.53027-.53027.94617.94629c-1.05896,1.29346-1.69617,2.94482-1.69617,4.74316,0,4.13574,3.36426,7.5,7.5,7.5s7.5-3.36426,7.5-7.5c0-3.88257-2.96521-7.08447-6.75-7.46191ZM10.5,17.25c-3.30859,0-6-2.69141-6-6s2.69141-6,6-6c1.38672,0,2.66138.47729,3.67847,1.27002-.0083.00757-.01904.01001-.0271.01807l-4.18164,4.18164c-.29297.29297-.29297.76758,0,1.06055.14648.14648.33789.21973.53027.21973s.38379-.07324.53027-.21973l4.18164-4.18164c.00806-.00806.0105-.0188.01807-.0271.79272,1.01709,1.27002,2.29175,1.27002,3.67847,0,3.30859-2.69141,6-6,6Z" fill="var(--iconPrimary, #222)"/>
</svg>