<?xml version="1.0" encoding="UTF-8"?>
<svg id="e" data-name="ICONS" xmlns="http://www.w3.org/2000/svg" width="20" height="20" viewBox="0 0 20 20">
  <path d="M16.10645,7.69824c-1.19165-2.21313-3.39331-3.65063-5.8584-3.89722v-1.30103h.75c.41406,0,.75-.33594.75-.75s-.33594-.75-.75-.75h-3c-.41406,0-.75.33594-.75.75s.33594.75.75.75h.75v1.28809c-1.51562.15161-2.89941.75537-4.01416,1.67529l-.86304-.86304.53052-.53003c.29297-.29199.29297-.76758,0-1.06055-.29199-.29199-.7666-.29395-1.06055,0l-2.12305,2.12109c-.29297.29199-.29297.76758,0,1.06055.14648.14648.33789.21973.53027.21973.19141,0,.38379-.07324.53027-.21973l.53149-.53101.86914.86914c-1.0481,1.29028-1.67896,2.93237-1.67896,4.72046,0,3.39062,2.28418,6.36914,5.55469,7.24512.06543.01758.13086.02539.19434.02539.33203,0,.63477-.2207.72461-.55566.10742-.40039-.13086-.81152-.53027-.91895-2.61621-.7002-4.44336-3.08301-4.44336-5.7959,0-3.30859,2.69141-6,6-6,2.21094,0,4.23633,1.21094,5.28613,3.15918.19727.36523.65137.50488,1.01562.30469.36523-.19629.50098-.65137.30469-1.01562Z" fill="var(--iconPrimary, #222)"/>
  <path d="M12.16211,9.36133c-.19336,0-.38672-.07422-.5332-.22266-.56836-.57422-1.3252-.89062-2.13281-.89062-.41406,0-.75-.33594-.75-.75s.33594-.75.75-.75c1.21094,0,2.34766.47461,3.19922,1.33594.29102.29492.28906.76953-.00586,1.06055-.14648.14453-.33691.2168-.52734.2168Z" fill="var(--iconPrimary, #222)"/>
  <path d="M15,10.5c-2.48535,0-4.5,2.01465-4.5,4.5s2.01465,4.5,4.5,4.5,4.5-2.01465,4.5-4.5-2.01465-4.5-4.5-4.5ZM17.375,15.77148h-4.75c-.41406,0-.75-.33594-.75-.75s.33594-.75.75-.75h4.75c.41406,0,.75.33594.75.75s-.33594.75-.75.75Z" fill="var(--iconPrimary, #222)"/>
</svg>