<?xml version="1.0" encoding="UTF-8"?>
<svg xmlns="http://www.w3.org/2000/svg" width="20" height="20" viewBox="0 0 20 20">
  <path d="M17.75,7H2.25c-1.24023,0-2.25,1.00977-2.25,2.25v3.5c0,1.24023,1.00977,2.25,2.25,2.25h15.5c1.24023,0,2.25-1.00977,2.25-2.25v-3.5c0-1.24023-1.00977-2.25-2.25-2.25ZM11.75,8.5c0,.63672-.80176,1.1748-1.75,1.1748s-1.75-.53809-1.75-1.1748h3.5ZM10,10.9248c1.6543,0,3-1.08789,3-2.4248h1v5H5.97461v-5h1.02539c0,1.33691,1.3457,2.4248,3,2.4248ZM1.5,12.75v-3.5c0-.41309.33691-.75.75-.75h2.47461v5h-2.47461c-.41309,0-.75-.33691-.75-.75ZM18.5,12.75c0,.41309-.33691.75-.75.75h-2.5v-5h2.5c.41309,0,.75.33691.75.75v3.5Z" fill="var(--iconPrimary, #222)"/>
  <circle cx="5" cy="5.75" r=".75" fill="var(--iconPrimary, #222)"/>
  <circle cx="15" cy="5.75" r=".75" fill="var(--iconPrimary, #222)"/>
  <circle cx="7.11939" cy="3.6" r=".75" fill="var(--iconPrimary, #222)"/>
  <circle cx="12.9" cy="3.6" r=".75" fill="var(--iconPrimary, #222)"/>
  <circle cx="10" cy="2.75" r=".75" fill="var(--iconPrimary, #222)"/>
</svg>