<?xml version="1.0" encoding="UTF-8"?>
<svg   xmlns="http://www.w3.org/2000/svg" width="20" height="20" viewBox="0 0 20 20">
  <circle cx="11.31885" cy="6.06946" r=".88287" fill="var(--iconPrimary, #222)"/>
  <path d="M16.35352,10.49121l1.31836-2.04883c.19238-.30078.14746-.69434-.10742-.94336l-4.0166-3.91309-.28711-2.00586c-.04102-.28613-.24219-.52344-.51855-.60938-.27246-.08691-.57617-.00684-.77344.20508l-.71582.77051c-.06836.07324-.146.13037-.22168.19141-.04834-.00989-.09326-.0293-.14453-.0293l-3.30469.00195c-1.82129.12305-3.23145,1.00195-4.19043,2.61133-1.17676,1.97656-1.33398,4.52539-1.34766,4.80859-.03711.74707.40234,1.43652,1.02832,1.68555l2.27246,1.18457c.04663.65356.10742,1.33533.19727,2.07617.00098.00854.0061.01514.00732.02344h-.22412c-1.24023,0-2.25,1.00977-2.25,2.25s1.00977,2.25,2.25,2.25h9.4248c1.24023,0,2.25-1.00977,2.25-2.25s-1.00977-2.25-2.25-2.25h-.30176c.02637-.10144.0354-.20837.01562-.31836-.14844-.83398-.58594-1.66211-1.29785-2.46191-.40234-.45215-.61133-1.01172-.59961-1.57031l2.99316.66797c.30469.06641.625-.0625.79395-.32617ZM3.7002,9.85547c-.10156-.04102-.16406-.13867-.1582-.25.04395-.89258.33301-2.76367,1.13867-4.11621.70117-1.17773,1.68359-1.79297,2.95215-1.88086h.64722c-.86108.60449-1.71484,1.43408-2.28394,2.56152-.50977,1.01123-.74951,2.50244-.729,4.50012l-1.56689-.81458ZM15.5,16.75c0,.41309-.33691.75-.75.75H5.3252c-.41309,0-.75-.33691-.75-.75s.33691-.75.75-.75h9.4248c.41309,0,.75.33691.75.75ZM12.13574,8.51563c-.375-.08105-.76562.1377-.88086.51367l-.03613.11816c-.37109,1.2373-.06152,2.57227.82715,3.57031.51758.58105.84375,1.17871.94141,1.72754.00366.02014.01636.03516.02148.05469h-5.99414c.01025-.06738.02441-.13403.01562-.20508-.44434-3.66016-.34082-6.16699.30566-7.44922.91406-1.8125,2.90039-2.70117,3.71387-2.99902.33496-.12402.6543-.30859.94238-.54297l.10742.74805c.02344.16406.10059.31543.21875.43066l3.76074,3.66309-.7041,1.09375-3.23926-.72363Z" fill="var(--iconPrimary, #222)"/>
</svg>