<?xml version="1.0" encoding="UTF-8"?>
<svg xmlns="http://www.w3.org/2000/svg" width="20" height="20" viewBox="0 0 20 20">
  <path d="M18.00009,15.5h-5.88818c-.31079-.87115-1.13574-1.5-2.11182-1.5s-1.80103.62885-2.11169,1.5H2.00009c-.41406,0-.75.33594-.75.75s.33594.75.75.75h5.88831c.31067.87115,1.13562,1.5,2.11169,1.5s1.80103-.62885,2.11182-1.5h5.88818c.41406,0,.75-.33594.75-.75s-.33594-.75-.75-.75ZM10.00009,17c-.41309,0-.75-.33643-.75-.75s.33691-.75.75-.75.75.33643.75.75-.33691.75-.75.75Z" fill="var(--iconPrimary, #222)"/>
  <path d="M4.75,12h-1c-.96484,0-1.75-.78516-1.75-1.75v-2.5c0-.96484.78516-1.75,1.75-1.75h1c.96484,0,1.75.78516,1.75,1.75v2.5c0,.96484-.78516,1.75-1.75,1.75ZM3.75,7.5c-.1377,0-.25.1123-.25.25v2.5c0,.1377.1123.25.25.25h1c.1377,0,.25-.1123.25-.25v-2.5c0-.1377-.1123-.25-.25-.25h-1Z" fill="var(--iconPrimary, #222)"/>
  <path d="M10.5,12h-1c-.96484,0-1.75-.78516-1.75-1.75v-4.5c0-.96484.78516-1.75,1.75-1.75h1c.96484,0,1.75.78516,1.75,1.75v4.5c0,.96484-.78516,1.75-1.75,1.75ZM9.5,5.5c-.1377,0-.25.1123-.25.25v4.5c0,.1377.1123.25.25.25h1c.1377,0,.25-.1123.25-.25v-4.5c0-.1377-.1123-.25-.25-.25h-1Z" fill="var(--iconPrimary, #222)"/>
  <path d="M16.25,12h-1c-.96484,0-1.75-.78516-1.75-1.75V3.75c0-.96484.78516-1.75,1.75-1.75h1c.96484,0,1.75.78516,1.75,1.75v6.5c0,.96484-.78516,1.75-1.75,1.75ZM15.25,3.5c-.1377,0-.25.1123-.25.25v6.5c0,.1377.1123.25.25.25h1c.1377,0,.25-.1123.25-.25V3.75c0-.1377-.1123-.25-.25-.25h-1Z" fill="var(--iconPrimary, #222)"/>
</svg>