<?xml version="1.0" encoding="UTF-8"?>
<svg xmlns="http://www.w3.org/2000/svg" width="20" height="20" viewBox="0 0 20 20">
  <path d="M18,16h-10c-.41406,0-.75-.33594-.75-.75V4.75c0-.41406.33594-.75.75-.75h10c.41406,0,.75.33594.75.75s-.33594.75-.75.75h-9.25v9h9.25c.41406,0,.75.33594.75.75s-.33594.75-.75.75Z" fill="var(--iconPrimary, #222)" opacity=".5"/>
  <path d="M18,5.5h-9.25v9h9.25c.41406,0,.75.33594.75.75V4.75c0,.41406-.33594.75-.75.75Z" fill="var(--iconPrimary, #222)" opacity=".2"/>
  <path d="M18,9.25h-8.15479c-.302-.72168-1.01416-1.229-1.84521-1.229-1.10449,0-2,.89551-2,2,0,1.10474.89551,2,2,2,.84668,0,1.56641-.52783,1.85815-1.271h8.14185c.41406,0,.75-.33594.75-.75s-.33594-.75-.75-.75Z" fill="var(--iconPrimary, #222)"/>
</svg>