<?xml version="1.0" encoding="UTF-8"?>
<svg xmlns="http://www.w3.org/2000/svg" width="20" height="20" viewBox="0 0 20 20">
  <path d="M3,2c-.41406,0-.75.33594-.75.75v14.25c0,.41406.33594.75.75.75h14.25c.41406,0,.75-.33594.75-.75s-.33594-.75-.75-.75H3.75V2.75c0-.41406-.33594-.75-.75-.75Z" fill="var(--iconPrimary, #222)"/>
  <path d="M12.25,2c-.41406,0-.75.33594-.75.75v5c0,.41406.33594.75.75.75h5c.41406,0,.75-.33594.75-.75s-.33594-.75-.75-.75h-4.25V2.75c0-.41406-.33594-.75-.75-.75Z" fill="var(--iconPrimary, #222)" opacity=".5"/>
  <path d="M4.5,17c-.82837,0-1.5-.67163-1.5-1.5V2h9v.05054c-.28979.10376-.5.37402-.5.69946v5c0,.41406.33594.75.75.75h5c.32544,0,.5957-.21021.69946-.5h.05054v9H4.5Z" fill="var(--iconPrimary, #222)" opacity=".2"/>
</svg>