<?xml version="1.0" encoding="UTF-8"?>
<svg xmlns="http://www.w3.org/2000/svg" width="20" height="20" viewBox="0 0 20 20">
  <path d="M3,2c-.41406,0-.75.33594-.75.75v7.25c0,4.27344,3.47656,7.75,7.75,7.75h7.25c.41406,0,.75-.33594.75-.75s-.33594-.75-.75-.75h-7.25c-3.44629,0-6.25-2.80371-6.25-6.25V2.75c0-.41406-.33594-.75-.75-.75Z" fill="var(--iconPrimary, #222)"/>
  <path d="M12.25,2c-.41406,0-.75.33594-.75.75v5c0,.41406.33594.75.75.75h5c.41406,0,.75-.33594.75-.75s-.33594-.75-.75-.75h-4.25V2.75c0-.41406-.33594-.75-.75-.75Z" fill="var(--iconPrimary, #222)" opacity=".5"/>
  <path d="M10,17c-3.86597,0-7-3.13403-7-7V2h9v.05054c-.28979.10376-.5.37402-.5.69946v5c0,.41406.33594.75.75.75h5c.32544,0,.5957-.21021.69946-.5h.05054v9h-8Z" fill="var(--iconPrimary, #222)" opacity=".2"/>
</svg>