<?xml version="1.0" encoding="UTF-8"?>
<svg xmlns="http://www.w3.org/2000/svg" width="20" height="20" viewBox="0 0 20 20">
  <path d="M17.25,8.5h-5c-.41406,0-.75-.33594-.75-.75V2.75c0-.41406.33594-.75.75-.75s.75.33594.75.75v4.25h4.25c.41406,0,.75.33594.75.75s-.33594.75-.75.75Z" fill="var(--iconPrimary, #222)" opacity=".5"/>
  <path d="M17.25,15.25H5.97534c-.21826-.55859-.66406-.99805-1.22534-1.21094V2.75c0-.41406-.33594-.75-.75-.75s-.75.33594-.75.75v11.28906c-.80212.30396-1.375,1.07349-1.375,1.98193,0,1.17383.95142,2.125,2.125,2.125.91626,0,1.69019-.58301,1.98853-1.396h11.26147c.41406,0,.75-.33594.75-.75s-.33594-.75-.75-.75Z" fill="var(--iconPrimary, #222)"/>
  <path d="M17.25,8.5h-5c-.41406,0-.75-.33594-.75-.75V2.75c0-.41406.33594-.75.75-.75H4c.41406,0,.75.33594.75.75v12.5h12.5c.41406,0,.75.33594.75.75V7.75c0,.41406-.33594.75-.75.75Z" fill="var(--iconPrimary, #222)" opacity=".2"/>
</svg>