<?xml version="1.0" encoding="UTF-8"?>
<svg   xmlns="http://www.w3.org/2000/svg" width="20" height="20" viewBox="0 0 20 20">
  <path d="M5.9043,4.37891c1.42334-.65234,2.67969-.80273,3.63623-.43359.65088.25195,1.14746.74023,1.43604,1.41504.8252,1.92578-.23389,3.5918-1.00684,4.80762l-.11279.17773c-.83301,1.31836-.99658,2.32715-.51465,3.17578.68604,1.20801,2.24854,1.61621,4.07861,1.06152l.71777-.21777,1.42206-.47949-.27617-.91205c-.08003-.26431-.35918-.41368-.62348-.33363l-1.67524.5074c-1.12109.33789-2.01807.19824-2.33936-.36719-.17383-.30566-.0127-.85547.47852-1.63281l.11035-.1748c.84424-1.32715,2.25684-3.5498,1.12012-6.20312-.45166-1.05469-1.23828-1.82324-2.2749-2.22363-1.34033-.51465-2.99902-.35547-4.80078.46875l-1.59126.72841c-.25109.11494-.36146.41166-.24652.66275l.40779.89083,2.0545-.91772Z" fill="var(--iconPrimary, #222)"/>
  <path d="M14.57324,15.80078l-.71777.21777c-.72803.2207-1.39404.31738-1.99756.31738-1.91016,0-3.19336-.9707-3.81982-2.07324-.77393-1.36328-.59375-2.90625.55029-4.71777l.11523-.18164c.69238-1.08887,1.40771-2.21387.89404-3.41309-.13135-.30566-.32129-.49902-.59766-.60547-.55176-.21387-1.45312-.06934-2.47168.39746l-2.05408.9187.42457.92746c.11494.25108.41166.36145.66274.24651l1.59128-.72842c.521-.23828.89355-.32617,1.11523-.35156.02197.38477-.26318.91113-.83008,1.80371l-.11768.18555c-1.80225,2.85352-1.31396,4.97852-.58643,6.25977,1.03564,1.82129,2.93506,2.82129,5.15088,2.82129.771,0,1.58105-.12109,2.40576-.37109l1.67486-.50739c.26426-.08006.4136-.35916.33357-.62343l-.29853-.98587-1.42719.46338Z" fill="var(--iconPrimary, #222)"/>
</svg>