<?xml version="1.0" encoding="UTF-8"?>
<svg xmlns="http://www.w3.org/2000/svg" width="20" height="20" viewBox="0 0 20 20">
  <path d="M3,2c-.41406,0-.75.33594-.75.75v7.25c0,.19922.0791.38965.21973.53027l7,7c.14062.14062.33105.21973.53027.21973h7.25c.41406,0,.75-.33594.75-.75s-.33594-.75-.75-.75h-6.93945l-6.56055-6.56055V2.75c0-.41406-.33594-.75-.75-.75Z" fill="var(--iconPrimary, #222)"/>
  <path d="M12.25,2c-.41406,0-.75.33594-.75.75v5c0,.41406.33594.75.75.75h5c.41406,0,.75-.33594.75-.75s-.33594-.75-.75-.75h-4.25V2.75c0-.41406-.33594-.75-.75-.75Z" fill="var(--iconPrimary, #222)" opacity=".4"/>
  <path d="M10,17l-7-7V2h9v.05054c-.28979.10376-.5.37402-.5.69946v5c0,.41406.33594.75.75.75h5c.32544,0,.5957-.21021.69946-.5h.05054v9h-8Z" fill="var(--iconPrimary, #222)" opacity=".2"/>
</svg>