<?xml version="1.0" encoding="UTF-8"?>
<svg xmlns="http://www.w3.org/2000/svg" width="20" height="20" viewBox="0 0 20 20">
  <path d="M18,16H2.75c-.41406,0-.75-.33594-.75-.75V4.75c0-.41406.33594-.75.75-.75h15.25c.41406,0,.75.33594.75.75s-.33594.75-.75.75H3.5v9h14.5c.41406,0,.75.33594.75.75s-.33594.75-.75.75Z" fill="var(--iconPrimary, #222)" opacity=".5"/>
  <path d="M18,5.5H3.5v9h14.5c.41406,0,.75.33594.75.75V4.75c0,.41406-.33594.75-.75.75Z" fill="var(--iconPrimary, #222)" opacity=".2"/>
  <path d="M18,9.25h-8.02466c-.3092-.79126-1.07446-1.354-1.97534-1.354-1.17358,0-2.125.95166-2.125,2.125,0,1.17383.95142,2.125,2.125,2.125.91626,0,1.69019-.58301,1.98853-1.396h8.01147c.41406,0,.75-.33594.75-.75s-.33594-.75-.75-.75Z" fill="var(--iconPrimary, #222)"/>
</svg>