<?xml version="1.0" encoding="UTF-8"?>
<svg xmlns="http://www.w3.org/2000/svg" width="20" height="20" viewBox="0 0 20 20">
  <path d="M17.25,17H5.25c-1.24023,0-2.25-1.00977-2.25-2.25V2.75c0-.41406.33594-.75.75-.75s.75.33594.75.75v12c0,.41309.33691.75.75.75h12c.41406,0,.75.33594.75.75s-.33594.75-.75.75Z" fill="var(--iconPrimary, #222)" opacity=".5"/>
  <path d="M12,8V2H3.75c.41406,0,.75.33594.75.75v12c0,.41309.33691.75.75.75h12c.41406,0,.75.33594.75.75v-8.25h-6Z" fill="var(--iconPrimary, #222)" opacity=".2"/>
  <path d="M17.25,7.25h-3.27466c-.21826-.55859-.66406-.99805-1.22534-1.21094v-3.28906c0-.41406-.33594-.75-.75-.75s-.75.33594-.75.75v3.28906c-.80212.30396-1.375,1.07349-1.375,1.98193,0,1.17383.95142,2.125,2.125,2.125.91626,0,1.69019-.58301,1.98853-1.396h3.26147c.41406,0,.75-.33594.75-.75s-.33594-.75-.75-.75Z" fill="var(--iconPrimary, #222)"/>
</svg>