<?xml version="1.0" encoding="UTF-8"?>
<svg xmlns="http://www.w3.org/2000/svg" width="20" height="20" viewBox="0 0 20 20">
  <path d="M17.25,8.5h-5c-.41406,0-.75-.33594-.75-.75V2.75c0-.41406.33594-.75.75-.75H3.75c.41406,0,.75.33594.75.75v12c0,.41309.33691.75.75.75h12c.41406,0,.75.33594.75.75V7.75c0,.41406-.33594.75-.75.75Z" fill="var(--iconPrimary, #222)" opacity=".2"/>
  <path d="M17.25,17H5.25c-1.24023,0-2.25-1.00977-2.25-2.25V2.75c0-.41406.33594-.75.75-.75s.75.33594.75.75v12c0,.41309.33691.75.75.75h12c.41406,0,.75.33594.75.75s-.33594.75-.75.75Z" fill="var(--iconPrimary, #222)" opacity=".5"/>
  <path d="M17.25,8.5h-5c-.41406,0-.75-.33594-.75-.75V2.75c0-.41406.33594-.75.75-.75s.75.33594.75.75v4.25h4.25c.41406,0,.75.33594.75.75s-.33594.75-.75.75Z" fill="var(--iconPrimary, #222)" opacity=".5"/>
  <path d="M17.25,11.25h-7.26843c-.21545-.56738-.66418-1.01611-1.23157-1.23145V2.75c0-.41406-.33594-.75-.75-.75s-.75.33594-.75.75v7.26855c-.80139.30444-1.375,1.07446-1.375,1.98145,0,1.17188.95312,2.125,2.125,2.125.90698,0,1.677-.57373,1.98145-1.375h7.26855c.41406,0,.75-.33594.75-.75s-.33594-.75-.75-.75Z" fill="var(--iconPrimary, #222)"/>
</svg>