<?xml version="1.0" encoding="UTF-8"?>
<svg xmlns="http://www.w3.org/2000/svg" width="20" height="20" viewBox="0 0 20 20">
  <path d="M18,16.02148h-10c-3.30859,0-6-2.69141-6-6s2.69141-6,6-6h10c.41406,0,.75.33594.75.75s-.33594.75-.75.75h-10c-2.48145,0-4.5,2.01855-4.5,4.5s2.01855,4.5,4.5,4.5h10c.41406,0,.75.33594.75.75s-.33594.75-.75.75Z" fill="var(--iconPrimary, #222)" opacity=".5"/>
  <path d="M18,5.52148h-10c-2.48145,0-4.5,2.01855-4.5,4.5s2.01855,4.5,4.5,4.5h10c.41394,0,.74976.33569.75.74951h0V4.77148c0,.41406-.33594.75-.75.75Z" fill="var(--iconPrimary, #222)" opacity=".2"/>
  <path d="M18,9.25h-8.02466c-.3092-.79126-1.07446-1.354-1.97534-1.354-1.17358,0-2.125.95166-2.125,2.125,0,1.17383.95142,2.125,2.125,2.125.91626,0,1.69019-.58301,1.98853-1.396h8.01147c.41406,0,.75-.33594.75-.75s-.33594-.75-.75-.75Z" fill="var(--iconPrimary, #222)"/>
</svg>