<?xml version="1.0" encoding="UTF-8"?>
<svg xmlns="http://www.w3.org/2000/svg" width="20" height="20" viewBox="0 0 20 20">
  <path d="M11,4.75c0,1.10449-.89551,2-2,2-.97192,0-1.7804-.69385-1.96094-1.61279-1.38989.56152-2.47668,1.70166-2.97925,3.1189,1.07617.03247,1.94019.90991,1.94019,1.9939,0,1.01807-.76343,1.84912-1.74731,1.97461.56213,1.19263,1.55688,2.14111,2.78638,2.63794.18054-.91895.98901-1.61255,1.96094-1.61255,1.10449,0,2,.89551,2,2h6.74866V4.75h-6.74866Z" fill="var(--iconPrimary, #222)" opacity=".2"/>
  <path d="M17,14.5h-5.49731c-.3252-1.08057-1.31775-1.875-2.50269-1.875-.94214,0-1.76318.50342-2.22632,1.25098-.59021-.33936-1.10596-.79199-1.48901-1.35107.7959-.45142,1.34033-1.29663,1.34033-2.2749,0-1.06494-.64001-1.97949-1.55347-2.39087.39807-.72656.98242-1.3269,1.69971-1.7395.46265.75,1.28491,1.25537,2.22876,1.25537,1.18494,0,2.17749-.79443,2.50269-1.875h5.49731c.41406,0,.75-.33594.75-.75s-.33594-.75-.75-.75h-5.49731c-.3252-1.08057-1.31775-1.875-2.50269-1.875-1.39795,0-2.53369,1.10156-2.61035,2.48071-1.30603.63403-2.34106,1.72949-2.90845,3.07178-1.19946.24146-2.1062,1.30298-2.1062,2.57251,0,1.3562,1.03809,2.46265,2.35913,2.59814.59741,1.1001,1.52563,1.98975,2.65479,2.53906.073,1.38257,1.21082,2.48779,2.61108,2.48779,1.18494,0,2.17749-.79443,2.50269-1.875h5.49731c.41406,0,.75-.33594.75-.75s-.33594-.75-.75-.75ZM9,3.25c.82724,0,1.5.6733,1.5,1.5s-.67276,1.5-1.5,1.5-1.5-.6733-1.5-1.5.67276-1.5,1.5-1.5ZM2.5,10.25c0-.8267.67276-1.5,1.5-1.5s1.5.6733,1.5,1.5-.67276,1.5-1.5,1.5-1.5-.6733-1.5-1.5ZM9,16.75c-.82724,0-1.5-.6733-1.5-1.5s.67276-1.5,1.5-1.5,1.5.6733,1.5,1.5-.67276,1.5-1.5,1.5Z" fill="var(--iconPrimary, #222)"/>
</svg>