<?xml version="1.0" encoding="UTF-8"?>
<svg xmlns="http://www.w3.org/2000/svg" width="20" height="20" viewBox="0 0 20 20">
  <path d="M10,8.51367c-1.90918,0-3.4624-1.62891-3.4624-3.63184s1.55322-3.63184,3.4624-3.63184,3.4624,1.62891,3.4624,3.63184-1.55322,3.63184-3.4624,3.63184ZM10,2.75c-1.08203,0-1.9624.95605-1.9624,2.13184s.88037,2.13184,1.9624,2.13184,1.9624-.95605,1.9624-2.13184-.88037-2.13184-1.9624-2.13184Z" fill="var(--iconPrimary, #222)"/>
  <path d="M14.9165,15.18945c-.41406,0-.75-.33594-.75-.75,0-2.80957-2.61035-3.22949-4.1665-3.22949-1.25293,0-4.1665.31445-4.1665,3.22949,0,.41406-.33594.75-.75.75s-.75-.33594-.75-.75c0-2.91699,2.17139-4.72949,5.6665-4.72949s5.6665,1.8125,5.6665,4.72949c0,.41406-.33594.75-.75.75Z" fill="var(--iconPrimary, #222)"/>
  <path d="M17.14453,19H2.85547c-.68262,0-1.3208-.30469-1.75-.83594s-.59326-1.21777-.4502-1.88574l1.60742-7.5c.2207-1.03027,1.14551-1.77832,2.19971-1.77832h.5376c.41406,0,.75.33594.75.75s-.33594.75-.75.75h-.5376c-.35107,0-.65967.24902-.73291.59277l-1.60742,7.5c-.04785.22266.00684.45117.1499.62891.14307.17676.35596.27832.5835.27832h14.28906c.22754,0,.44043-.10156.5835-.27832.14307-.17773.19775-.40625.1499-.62891l-1.60742-7.5c-.07324-.34375-.38184-.59277-.73291-.59277h-.5376c-.41406,0-.75-.33594-.75-.75s.33594-.75.75-.75h.5376c1.0542,0,1.979.74805,2.19971,1.77832l1.60742,7.5c.14307.66797-.021,1.35449-.4502,1.88574s-1.06738.83594-1.75.83594Z" fill="var(--iconPrimary, #222)"/>
</svg>