<?xml version="1.0" encoding="UTF-8"?>
<svg xmlns="http://www.w3.org/2000/svg" width="20" height="20" viewBox="0 0 20 20">
  <path d="M15.87162.96178H4.24662c-1.76038,0-3.1875,1.42297-3.1875,3.17841v11.14313c0,1.75543,1.42712,3.17847,3.1875,3.17847h11.625c1.76038,0,3.1875-1.42303,3.1875-3.17847V4.14019c0-1.75543-1.42712-3.17841-3.1875-3.17841ZM10.40202,12.33684c-.26758.36835-.63367.65411-1.05652.82477-.45093.19263-.98224.28894-1.59387.289-.41138.00372-.82214-.03461-1.22565-.11444-.31873-.06073-.62891-.15979-.92377-.29492-.06445-.03204-.09668-.10022-.09656-.20471v-1.43286c-.00299-.02594.00867-.05139.03021-.06622.02539-.01178.05518-.00958.07843.00604.33386.20703.6958.36511,1.07471.4696.36151.10199.73523.15466,1.1109.15649.4588,0,.78687-.07025.98407-.21069.18188-.11279.29346-.3103.2959-.5238.00195-.12891-.03149-.25586-.09662-.36719-.08722-.13037-.20282-.23944-.33807-.31909-.21069-.12885-.43311-.23767-.66418-.32507l-.60376-.25293c-.49109-.20862-.87549-.43134-1.15314-.66821-.25262-.2027-.44989-.4657-.57355-.76459-.10608-.28082-.1593-.5788-.15698-.87897-.01587-.87036.49335-1.66528,1.29199-2.01678.42664-.20465.95789-.30707,1.59393-.30707.36151-.00171.72266.02246,1.08075.07227.27838.03192.54968.10925.80298.22876.05603.03162.08887.09253.08447.15656v1.36053c-.00269.0213-.01343.04077-.03015.0542-.02014.02014-.04645.01807-.07849-.00598-.26697-.13757-.55127-.23877-.84521-.30103-.32904-.073-.66516-.10938-1.00226-.1084-.19891-.00366-.39758.0166-.59167.06024-.13739.03094-.26959.08167-.39246.15051-.09448.05389-.17194.13312-.22339.22876-.04694.08704-.07184.18414-.07245.28296-.00171.12311.03638.24341.1087.34314.09943.12341.2226.22577.36224.30103.22723.13019.461.24872.70032.35516l.44678.16858c.53137.2168.94592.44751,1.24377.69238.27075.21027.48621.48303.62781.79468.12213.29169.18372.60498.18115.92108.00879.44513-.12439.88147-.38037,1.24622ZM13.84343,11.90337c.09241.11646.26349.17468.51318.17462.07239,0,.14075-.00189.20526-.00604.06433-.00397.12872-.00995.19318-.01807.02191-.00818.04639-.00592.06641.00604.02002.01202.03021.03821.03021.07825v.9873c0,.08844-.03217.14062-.09662.15649-.15845.04956-.31976.08972-.48297.12048-.19128.03394-.38531.05005-.57959.0481-.52338,0-.93396-.13641-1.23163-.40936-.29797-.27277-.4469-.71027-.44678-1.31244v-3.00165h-.72919c-.06451,0-.09662-.03613-.09662-.10834l.00916-1.18555c0-.06415.03625-.09625.10864-.09631h.72913c.008-.13641.00903-.28589.02112-.46649s.02814-.36127.04834-.54181c.01996-.18066.03809-.32715.05426-.43951.008-.02411.02026-.04651.03625-.06622.01556-.01965.03656-.0343.06036-.04211l1.43695-.18066c.01935-.00793.04108-.00793.06036,0,.01599.00812.02417.03223.02417.07227-.01624.18475-.02832.43561-.03625.75256-.00812.3172-.00708.61511-.01501.91199h1.05756c.04828,0,.07245.0321.07245.09631l-.00916,1.20959c.00623.03979-.02063.07715-.0603.08429h-1.0647v2.59235c0,.27295.02917.46765.12183.58392Z" fill="var(--iconPrimary, #222)" stroke-width="0"/>
</svg>