<?xml version="1.0" encoding="UTF-8"?>
<svg id="e" data-name="ICONS" xmlns="http://www.w3.org/2000/svg" width="20" height="20" viewBox="0 0 20 20">
  <path d="M19.00195,9.3291c.00879-.60156-.21875-1.16406-.63965-1.58496L12.25488,1.63965c-.86133-.86133-2.28027-.85156-3.16211.03125l-4.24731,4.24561c-.89307-.7019-2.16125-.67505-2.95386.1167l-.26367.2627c-.4209.4209-.64258.9873-.625,1.59375.01758.58984.26074,1.14941.68652,1.5752l2.54602,2.54468-1.71594,1.71509c-.50195.50195-.77832,1.16895-.77832,1.87891s.27637,1.37793.77832,1.87891c.51855.51855,1.19922.77734,1.87988.77734s1.36133-.25879,1.87988-.77734l1.71631-1.71484,2.54639,2.54492c.45605.45605,1.05273.68652,1.64062.68652.55859-.00098,1.11035-.20801,1.52832-.625l.26367-.26367c.4209-.4209.64355-.9873.62598-1.59375-.01489-.50073-.20142-.97412-.51538-1.36719l4.24585-4.24414c.42383-.42383.66211-.9834.6709-1.57617ZM5.21875,16.42188c-.4375.4375-1.20117.4375-1.63867,0-.21875-.21875-.33887-.50879-.33887-.81836,0-.30859.12012-.59961.33887-.81836l1.71631-1.71533,1.63843,1.63745-1.71606,1.7146ZM12.91406,17.0498l-.26367.2627c-.27051.27148-.74316.24414-1.04785-.06055L2.75098,8.4043c-.1543-.1543-.24316-.35254-.24902-.55859-.00586-.18945.06055-.3623.18652-.48828l.26367-.26367c.12598-.12598.29395-.1875.46875-.1875.20312,0,.41504.08398.58008.24805l8.85156,8.84863c.1543.1543.24219.35156.24805.55762.00586.18945-.06055.36328-.18652.48926ZM17.27051,9.84473l-4.22852,4.22681-7.11646-7.11401,4.22778-4.22607c.14648-.14648.33691-.22852.53809-.23145h.01074c.18848,0,.36328.07129.49219.2002l.74512.74487-1.60254,1.60181c-.29297.29297-.29297.76758,0,1.06055.14648.14648.33789.21973.53027.21973.19141,0,.38379-.07324.53027-.21973l1.60278-1.60205,1.25024,1.25-2.31299,2.31201c-.29297.29297-.29297.76758,0,1.06055.14648.14648.33789.21973.53027.21973.19141,0,.38379-.07324.53027-.21973l2.31311-2.31226,1.9906,1.98999c.13184.13086.20312.30957.2002.50098-.00293.20117-.08496.3916-.23145.53809Z" fill="var(--iconPrimary, #222)"/>
</svg>