<?xml version="1.0" encoding="UTF-8"?>
<svg id="e" data-name="ICONS" xmlns="http://www.w3.org/2000/svg" width="20" height="20" viewBox="0 0 20 20">
  <path d="M18.3623,7.74414L12.25488,1.63965c-.41309-.41309-.96289-.63965-1.55176-.63965-.01074,0-.02246,0-.03418.00098-.59277.00879-1.15234.24609-1.57617.66992l-4.24731,4.24561c-.89307-.7019-2.16125-.67505-2.95386.1167l-.26367.2627c-.4209.4209-.64258.9873-.625,1.59375.01758.58984.26074,1.14941.68652,1.5752l2.54602,2.54468-1.71594,1.71509c-.50195.50195-.77832,1.16895-.77832,1.87891s.27637,1.37793.77832,1.87891c.51855.51855,1.19922.77734,1.87988.77734s1.36133-.25879,1.87988-.77734l1.71643-1.71484.52966.5293c.14648.14648.33887.21973.53027.21973.19238,0,.38379-.07324.53027-.21973.29297-.29297.29297-.76758,0-1.06055l-6.83594-6.83203c-.15332-.1543-.24219-.35254-.24805-.55859-.00586-.18945.06055-.3623.18652-.48828l.26367-.26367c.27148-.27344.74121-.24512,1.04883.06055l5.30469,5.30273c.29297.29297.76758.29297,1.06055,0s.29297-.76758,0-1.06055l-4.44067-4.43896,4.22778-4.22607c.2959-.2959.76367-.30859,1.04102-.03125l.74524.74487-1.60266,1.60181c-.29297.29297-.29297.76758,0,1.06055.14648.14648.33789.21973.53027.21973.19141,0,.38379-.07324.53027-.21973l1.60291-1.60205,1.25037,1.24976-2.31323,2.31226c-.29297.29297-.29297.76758,0,1.06055.14648.14648.33789.21973.53027.21973.19141,0,.38379-.07324.53027-.21973l2.31348-2.3125,1.99023,1.98926c.20117.20117.25586.50879.14062.78516-.15918.38184.02148.82129.40332.98145.09473.03906.19238.05762.28906.05762.29297,0,.57227-.17285.69238-.46094.35059-.83984.16797-1.79102-.46484-2.42383ZM5.21875,16.42188c-.4375.4375-1.20117.4375-1.63867,0-.21875-.21875-.33887-.50879-.33887-.81836,0-.30859.12012-.59961.33887-.81836l1.71631-1.71533,1.63843,1.63745-1.71606,1.7146Z" fill="var(--iconPrimary, #222)"/>
  <path d="M15.00189,10.50009c-2.48529,0-4.5,2.01471-4.5,4.5s2.01471,4.5,4.5,4.5,4.5-2.01471,4.5-4.5-2.01471-4.5-4.5-4.5ZM17.50189,15.62509h-1.875v1.875c0,.34473-.28027.625-.625.625s-.625-.28027-.625-.625v-1.875h-1.875c-.34473,0-.625-.28027-.625-.625s.28027-.625.625-.625h1.875v-1.875c0-.34473.28027-.625.625-.625s.625.28027.625.625v1.875h1.875c.34473,0,.625.28027.625.625s-.28027.625-.625.625Z" fill="var(--iconPrimary, #222)"/>
</svg>