<?xml version="1.0" encoding="UTF-8"?>
<svg id="a" data-name="ICONS" xmlns="http://www.w3.org/2000/svg" width="20" height="20" viewBox="0 0 20 20">
  <path d="m14.1499,12.2998c0-3.55371-2.88892-6.44507-6.44116-6.44971-.57404-.00049-1.12274.07263-1.64575.20996-.13965.52527-.21289,1.07422-.21289,1.64014,0,3.55664,2.89355,6.4502,6.44971,6.4502.56061,0,1.1048-.0719,1.62372-.20703.15338-.53027.22638-1.07861.22638-1.64355Z" fill="var(--iconPrimary, #222)" opacity=".2" stroke-width="0"/>
  <path d="m12.2998,14.15039c-3.55615,0-6.44971-2.89355-6.44971-6.4502S8.74365,1.25,12.2998,1.25c3.55664,0,6.4502,2.89355,6.4502,6.4502s-2.89355,6.4502-6.4502,6.4502Zm0-11.40039c-2.72949,0-4.94971,2.2207-4.94971,4.9502s2.22021,4.9502,4.94971,4.9502,4.9502-2.2207,4.9502-4.9502-2.2207-4.9502-4.9502-4.9502Z" fill="var(--iconPrimary, #222)" stroke-width="0"/>
  <g>
    <path d="m13.02783,11.03809c-.30273,0-.58838-.18457-.70166-.48535-.50146-1.32715-1.55078-2.37695-2.87891-2.87891-.3877-.14648-.58301-.5791-.43652-.9668.14697-.3877.58154-.58008.9668-.43555,1.73047.65332,3.09814,2.02148,3.75195,3.75195.14648.38672-.04932.81934-.43652.96582-.0874.0332-.17676.04883-.26514.04883Z" fill="var(--iconPrimary, #222)" stroke-width="0"/>
    <path d="m7.7002,18.75c-3.55664,0-6.4502-2.89355-6.4502-6.4502,0-1.69629.65527-3.29883,1.84521-4.51367.29053-.29492.76514-.30078,1.06055-.00977.2959.28906.30078.76465.01074,1.06055-.91357.93164-1.4165,2.16113-1.4165,3.46289,0,2.72949,2.2207,4.9502,4.9502,4.9502,1.30127,0,2.53076-.50293,3.4624-1.41602.29639-.29004.77051-.28516,1.06055.00977.29004.2959.28516.77051-.01074,1.06055-1.21338,1.19043-2.81592,1.8457-4.51221,1.8457Z" fill="var(--iconPrimary, #222)" stroke-width="0"/>
  </g>
</svg>