<?xml version="1.0" encoding="UTF-8"?>
<svg   xmlns="http://www.w3.org/2000/svg" width="20" height="20" viewBox="0 0 20 20">
  <path d="M10.25,5.5h-3.5c-.41406,0-.75-.33594-.75-.75s.33594-.75.75-.75h3.5c.41406,0,.75.33594.75.75s-.33594.75-.75.75Z" fill="var(--iconPrimary, #222)"/>
  <path d="M12.25,8.5h-5.5c-.41406,0-.75-.33594-.75-.75s.33594-.75.75-.75h5.5c.41406,0,.75.33594.75.75s-.33594.75-.75.75Z" fill="var(--iconPrimary, #222)"/>
  <path d="M17,6.02539v-2.77539c0-1.24023-1.06836-2.25-2.38086-2.25H5.38086c-1.3125,0-2.38086,1.00977-2.38086,2.25v2.77539c-.50439.05664-.95996.27271-1.30737.60767-.03601.0249-.07666.04004-.10864.07202-.07068.0708-.12256.15283-.15906.2395-.26477.3689-.42493.81763-.42493,1.30542v8.5c0,1.24023,1.00977,2.25,2.25,2.25h13.5c1.24023,0,2.25-1.00977,2.25-2.25v-8.5c0-1.15454-.87842-2.09839-2-2.22461ZM17.5,16.43945l-3.87891-3.87891,3.87891-3.87891v7.75781ZM2.5,8.68164l3.87891,3.87891-3.87891,3.87891v-7.75781ZM7.43945,13.62109l.96973.96973c.43848.43848,1.01465.6582,1.59082.6582s1.15234-.21973,1.59082-.6582l.96973-.96973,3.87891,3.87891H3.56055l3.87891-3.87891ZM5.38086,2.5h9.23828c.48535,0,.88086.33691.88086.75v5.31055l-4.96973,4.96973c-.29297.29297-.76758.29297-1.06055,0l-4.96973-4.96973V3.25c0-.41309.39551-.75.88086-.75Z" fill="var(--iconPrimary, #222)"/>
</svg>