<?xml version="1.0" encoding="UTF-8"?>
<svg   xmlns="http://www.w3.org/2000/svg" width="20" height="20" viewBox="0 0 20 20">
  <path d="M15.1675,2.2005H4.8335c-1.565,0-2.833,1.268-2.833,2.833v9.933c0,1.565,1.269,2.833,2.833,2.833h10.333c1.565,0,2.833-1.268,2.833-2.833V5.0335c0-1.565-1.269-2.833-2.833-2.833h.001ZM14.8985,8.7985h-2.097v-.139c0-.297-.169-.569-.437-.699l-2.023-.985c-.215-.104-.466-.104-.68,0l-2.314,1.133c-.044.022-.044.082-.007.107.006.004.012.007.019.008l-.022-.005,6.982,1.833c.342.09.58.398.58.752v1.557c0,.023,0,.045-.002.068-.024.495-.317.94-.767,1.157l-3.538,1.707c-.373.18-.808.18-1.181,0l-3.538-1.707c-.47-.227-.769-.702-.769-1.224v-1.135h2.097v.125c0,.298.171.57.44.7l2.023.976c.213.103.462.103.675,0l2.298-1.088c.053-.024.046-.102-.011-.116l-6.943-1.812c-.342-.09-.58-.398-.58-.752v-1.625c.008-.511.303-.976.764-1.2l3.539-1.722c.375-.183.814-.183,1.189,0l3.539,1.722c.468.228.764.702.764,1.222v1.143-.001Z" fill="var(--iconPrimary, #222)"/>
</svg>