<?xml version="1.0" encoding="UTF-8"?>
<svg   xmlns="http://www.w3.org/2000/svg" width="20" height="20" viewBox="0 0 20 20">
  <path d="M3.75,19h-.5c-1.24023,0-2.25-1.00977-2.25-2.25v-3.5c0-1.24023,1.00977-2.25,2.25-2.25h.5c1.24023,0,2.25,1.00977,2.25,2.25v3.5c0,1.24023-1.00977,2.25-2.25,2.25ZM3.25,12.5c-.41309,0-.75.33691-.75.75v3.5c0,.41309.33691.75.75.75h.5c.41309,0,.75-.33691.75-.75v-3.5c0-.41309-.33691-.75-.75-.75h-.5Z" fill="var(--iconPrimary, #222)"/>
  <path d="M15.75,19h-.5c-1.24023,0-2.25-1.00977-2.25-2.25v-5.5c0-1.24023,1.00977-2.25,2.25-2.25h.5c1.24023,0,2.25,1.00977,2.25,2.25v5.5c0,1.24023-1.00977,2.25-2.25,2.25ZM15.25,10.5c-.41309,0-.75.33691-.75.75v5.5c0,.41309.33691.75.75.75h.5c.41309,0,.75-.33691.75-.75v-5.5c0-.41309-.33691-.75-.75-.75h-.5Z" fill="var(--iconPrimary, #222)"/>
  <path d="M9.75,19h-.5c-1.24023,0-2.25-1.00977-2.25-2.25V7.25c0-1.24023,1.00977-2.25,2.25-2.25h.5c1.24023,0,2.25,1.00977,2.25,2.25v9.5c0,1.24023-1.00977,2.25-2.25,2.25ZM9.25,6.5c-.41309,0-.75.33691-.75.75v9.5c0,.41309.33691.75.75.75h.5c.41309,0,.75-.33691.75-.75V7.25c0-.41309-.33691-.75-.75-.75h-.5Z" fill="var(--iconPrimary, #222)"/>
  <path d="M5.42285,7.38965c-.04004,0-.08105-.00293-.12207-.00977l-1.40918-.23047c-.40918-.06738-.68555-.45215-.61914-.86133.06738-.40918.44922-.68555.86133-.61914l1.40918.23047c.40918.06738.68555.45215.61914.86133-.06055.36816-.37793.62891-.73926.62891Z" fill="var(--iconPrimary, #222)"/>
  <path d="M6.78906,4.9541c-.20996,0-.41992-.08789-.56836-.26074l-.93262-1.08203c-.27051-.31348-.23535-.78711.0791-1.05762.3125-.26855.78613-.2373,1.05762.0791l.93262,1.08203c.27051.31348.23535.78711-.0791,1.05762-.1416.12207-.31543.18164-.48926.18164Z" fill="var(--iconPrimary, #222)"/>
  <path d="M9.39941,3.96484c-.40918,0-.74414-.3291-.75-.73926l-.01953-1.42969c-.00586-.41406.3252-.75391.73926-.75977h.01074c.40918,0,.74414.3291.75.74023l.01953,1.42871c.00586.41406-.3252.75391-.73926.75977h-.01074Z" fill="var(--iconPrimary, #222)"/>
  <path d="M12.03711,4.87793c-.16699,0-.33398-.05469-.47363-.16797-.32129-.26172-.36914-.73438-.1084-1.05566l.90137-1.10742c.26172-.32129.73438-.37012,1.05566-.1084s.36914.73438.1084,1.05566l-.90137,1.10742c-.14844.18164-.36426.27637-.58203.27637Z" fill="var(--iconPrimary, #222)"/>
  <path d="M13.4707,7.27344c-.35156,0-.66602-.24902-.73535-.60742-.0791-.40625.1875-.7998.59375-.87891l1.40234-.27148c.39648-.08594.7998.18652.87891.59375.0791.40625-.1875.7998-.59375.87891l-1.40234.27148c-.04785.00977-.0957.01367-.14355.01367Z" fill="var(--iconPrimary, #222)"/>
</svg>