<?xml version="1.0" encoding="UTF-8"?>
<svg id="ICONS" xmlns="http://www.w3.org/2000/svg" width="16" height="16" viewBox="0 0 16 16">
  <path d="m7.59082,4.6543l-2.56055-2.56055c-.29297-.29297-.76758-.29297-1.06055,0l-2.56055,2.56055c-.29297.29297-.29297.76758,0,1.06055s.76758.29297,1.06055,0l1.28027-1.28027v8.68945c0,.41406.33594.75.75.75s.75-.33594.75-.75V4.43457l1.28027,1.28027c.14648.14648.33789.21973.53027.21973s.38379-.07324.53027-.21973c.29297-.29297.29297-.76758,0-1.06055Z" fill="var(--iconPrimary, #222)"/>
  <path d="m14.59082,10.0332c-.29297-.29297-.76758-.29297-1.06055,0l-1.28027,1.28027V2.62402c0-.41406-.33594-.75-.75-.75s-.75.33594-.75.75v8.68945l-1.28027-1.28027c-.29297-.29297-.76758-.29297-1.06055,0s-.29297.76758,0,1.06055l2.56055,2.56055c.14648.14648.33789.21973.53027.21973s.38379-.07324.53027-.21973l2.56055-2.56055c.29297-.29297.29297-.76758,0-1.06055Z" fill="var(--iconPrimary, #222)"/>
</svg>