<?xml version="1.0" encoding="UTF-8"?>
<svg xmlns="http://www.w3.org/2000/svg" width="20" height="20" viewBox="0 0 20 20">
  <path d="M6.28564,17.57617c-.05908,0-.11914-.00195-.18115-.00684-1.49463-.09863-4.16943-2.10938-4.16943-3.91406,0-1.15137,1.27148-1.77539,2.50098-2.37891.54004-.26465,1.44336-.70801,1.55859-.95801-.00879-.0957-.03418-.20703-.07617-.24512-.20215-.18457-1.02588-.10547-1.51807-.05664-.74854.07324-1.45557.14062-1.97217-.19141-1.25732-.80762-2.04639-4.05371-1.14209-6.55078.21191-.58496.70996-.98828,1.40186-1.13574,1.48926-.31934,3.60449.57715,5.14404,2.17285.2876.29785.2793.77246-.01904,1.06055-.29785.28613-.77197.2793-1.06006-.01953-1.40576-1.45703-3.04053-1.89844-3.75244-1.74609-.11816.02441-.2666.07617-.3042.17969-.76123,2.10156.09668,4.49121.54199,4.77734.13037.0459.66504-.00586,1.01758-.04004.92871-.08789,1.97705-.19043,2.6709.43945.37109.33691.55908.81055.55908,1.4082,0,1.08008-1.21436,1.67578-2.38916,2.25195-.54932.26953-1.57178.77148-1.66406,1.05176.00244.83496,1.86572,2.33887,2.77051,2.39844.36279.01953.5083-.12891.53271-.16113.21533-.35352.66797-.45215,1.021-.23535.35352.21582.45605.69141.24072,1.04492-.05566.0918-.55518.85352-1.71191.85449Z" fill="var(--iconPrimary, #222)"/>
  <path d="M13.71436,17.57617c-1.15723,0-1.65625-.7627-1.71191-.85449-.21533-.35352-.10303-.81445.25049-1.03027.354-.21387.81592-.10352,1.03076.25098.00488.00098.14502.16113.51318.13086.90479-.05957,2.76807-1.56348,2.76807-2.41797-.08984-.26074-1.1123-.7627-1.66162-1.03223-1.1748-.57617-2.38916-1.17188-2.38916-2.25195,0-.59766.18799-1.07129.55908-1.4082.69385-.63086,1.74365-.52832,2.6709-.43945.35352.03516.8877.08887,1.04102.02734.42188-.27344,1.27979-2.66309.51855-4.76465-.0376-.10352-.18604-.15527-.3042-.17969-.71143-.15137-2.34668.28906-3.75244,1.74609-.28711.29883-.76172.30762-1.06006.01953s-.30664-.7627-.01904-1.06055c1.53955-1.5957,3.65674-2.49023,5.14404-2.17285.69189.14746,1.18994.55078,1.40186,1.13574.9043,2.49707.11523,5.74316-1.1416,6.55078-.51709.33105-1.22412.26367-1.97266.19141-.49268-.04883-1.31689-.12891-1.51807.05664-.04199.03809-.06738.14941-.06738.29785.10645.19727,1.00977.64062,1.5498.90527,1.22949.60352,2.50098,1.22754,2.50098,2.37891,0,1.80469-2.6748,3.81543-4.16943,3.91406-.06201.00488-.12256.00684-.18115.00684Z" fill="var(--iconPrimary, #222)"/>
  <path id="b" data-name="Path 1029747" d="M10.75,2.5c0,.41421-.33579.75-.75.75s-.75-.33579-.75-.75.33579-.75.75-.75.75.33579.75.75Z" fill="var(--iconPrimary, #222)"/>
  <path id="c" data-name="Path 1029749" d="M10.75,5.5c0,.41421-.33579.75-.75.75s-.75-.33579-.75-.75.33579-.75.75-.75.75.33579.75.75Z" fill="var(--iconPrimary, #222)"/>
  <path id="d" data-name="Path 1029751" d="M10.75,8.5c0,.41421-.33579.75-.75.75s-.75-.33579-.75-.75.33579-.75.75-.75.75.33579.75.75Z" fill="var(--iconPrimary, #222)"/>
  <path id="e" data-name="Path 1029753" d="M10.75,11.5c0,.41421-.33579.75-.75.75s-.75-.33579-.75-.75.33579-.75.75-.75.75.33579.75.75Z" fill="var(--iconPrimary, #222)"/>
  <path id="f" data-name="Path 1029755" d="M10.75,14.5c0,.41421-.33579.75-.75.75s-.75-.33579-.75-.75.33579-.75.75-.75.75.33579.75.75Z" fill="var(--iconPrimary, #222)"/>
  <path id="g" data-name="Path 1029756" d="M10.75,17.5c0,.41421-.33579.75-.75.75s-.75-.33579-.75-.75.33579-.75.75-.75.75.33579.75.75Z" fill="var(--iconPrimary, #222)"/>
</svg>