<?xml version="1.0" encoding="UTF-8"?>
<svg xmlns="http://www.w3.org/2000/svg" width="20" height="20" viewBox="0 0 20 20">
  <rect x="1.75" y="9.75" width="5.5" height="7" rx="1.5" ry="1.5" fill="var(--iconPrimary, #222)" opacity=".2"/>
  <path d="M5.75,17.5h-2.5c-1.24072,0-2.25-1.00977-2.25-2.25v-4c0-1.24023,1.00928-2.25,2.25-2.25h2.5c1.24072,0,2.25,1.00977,2.25,2.25v4c0,1.24023-1.00928,2.25-2.25,2.25ZM3.25,10.5c-.41357,0-.75.33691-.75.75v4c0,.41309.33643.75.75.75h2.5c.41357,0,.75-.33691.75-.75v-4c0-.41309-.33643-.75-.75-.75h-2.5Z" fill="var(--iconPrimary, #222)"/>
  <path d="M16.24805,10.17969c-.25977,0-.52051-.0459-.77246-.1377l-3.75781-1.36621c-1.1665-.42578-1.76904-1.71973-1.34473-2.88477l.85498-2.34961c.20508-.56445.61865-1.01562,1.16309-1.26953.54541-.25195,1.15625-.27832,1.72021-.0752l3.75879,1.36816c.56494.20605,1.01611.61914,1.27002,1.16406s.28076,1.15625.07471,1.7207l-.85498,2.34863c-.20508.56445-.61865,1.0166-1.16357,1.27051-.30225.14062-.62451.21094-.94824.21094ZM13.3418,3.46094c-.10791,0-.21582.02344-.31689.07031-.18115.08496-.31885.23535-.3877.42383l-.85498,2.34961c-.1416.38867.06006.81934.44922.96191l3.75781,1.36621c.18896.06934.39209.06055.57324-.02441.18164-.08398.31934-.23438.3877-.42285l.85547-2.34961c.06836-.18848.05957-.3916-.0249-.57324-.08496-.18164-.23486-.31934-.42334-.3877l-3.75879-1.36816c-.08398-.03027-.17041-.0459-.25684-.0459Z" fill="var(--iconPrimary, #222)"/>
  <circle cx="14.63978" cy="16.80935" r=".75" fill="var(--iconPrimary, #222)"/>
  <circle cx="12.99069" cy="14.46077" r=".75" fill="var(--iconPrimary, #222)"/>
  <circle cx="11.35007" cy="12.12067" r=".75" fill="var(--iconPrimary, #222)"/>
  <circle cx="9.71512" cy="9.77806" r=".75" fill="var(--iconPrimary, #222)"/>
  <circle cx="8.06391" cy="7.43545" r=".75" fill="var(--iconPrimary, #222)"/>
  <circle cx="6.42896" cy="5.07657" r=".75" fill="var(--iconPrimary, #222)"/>
  <circle cx="4.77774" cy="2.73395" r=".75" fill="var(--iconPrimary, #222)"/>
</svg>