<?xml version="1.0" encoding="UTF-8"?>
<svg   xmlns="http://www.w3.org/2000/svg" width="20" height="20" viewBox="0 0 20 20">
  <path d="M14.70264,17.73633c-.23193,0-.46045-.10742-.60742-.30957l-4.09521-5.63672-4.09521,5.63672c-.24414.33496-.71289.4082-1.04785.16602-.20215-.14648-.30957-.37598-.30908-.60742,0-.15332.04688-.30664.14307-.43945l4.0957-5.6377-6.62695-2.15332c-.31689-.10254-.51855-.39648-.51807-.71289,0-.07715.01172-.1543.03662-.23145.12793-.39355.55078-.60938.94531-.48145l6.62646,2.15234V2.51367c0-.41406.33594-.75.75-.75s.75.33594.75.75v6.96777l6.62646-2.15234c.39404-.12988.81738.08691.94531.48145.0249.07715.03662.1543.03662.23145.00049.31641-.20117.61035-.51807.71289l-6.62695,2.15332,4.0957,5.6377c.09619.13281.14307.28613.14307.43945.00049.23145-.10693.46094-.30908.60742-.1333.09668-.2876.14355-.44043.14355Z" fill="var(--iconPrimary, #222)"/>
  <path d="M15.05566,14.39648c-.40576,0-.73975-.32422-.74951-.73242-.00928-.41406.31836-.75781.73242-.76758l1.00781-.02344c.36768-.00781.4873-.29688.51514-.38574.02783-.08789.09619-.39355-.2002-.61133l-.56934-.41797c-.33398-.24512-.40576-.71484-.16064-1.04785.24561-.33398.71436-.40723,1.04834-.16113l.56934.41797c.72021.52832,1.01172,1.4209.74316,2.27246-.26904.85059-1.01904,1.41406-1.91162,1.43359l-1.00684.02344h-.01807Z" fill="var(--iconPrimary, #222)"/>
  <path d="M5.25488,7.35645c-.31738,0-.6123-.20312-.71436-.52148l-.28711-.89746c-.27197-.85156.0166-1.74512.73486-2.27539.71826-.53223,1.65576-.54395,2.38965-.03613l.79883.55371c.34082.23535.42578.70215.18994,1.04297-.23584.3418-.7041.42676-1.04346.18945l-.7998-.55371c-.30273-.20996-.56836-.04492-.64355.00977-.07471.05469-.30957.2627-.19775.6123l.28711.89746c.12598.39453-.09131.81641-.48584.94238-.07617.02441-.15283.03613-.22852.03613Z" fill="var(--iconPrimary, #222)"/>
  <path d="M14.60645,7.40234c-.07178,0-.14404-.00977-.21582-.03125-.39697-.11914-.62207-.53711-.50293-.93457l.30908-1.03027c.10547-.35156-.13281-.55469-.20801-.6084-.07568-.05469-.34473-.21289-.64404.00098l-.65674.47266c-.33643.24023-.80469.16602-1.04688-.17188-.2417-.33594-.16553-.80469.1709-1.04688l.65723-.47266c.72559-.51953,1.66406-.52344,2.39062-.00391.72656.51855,1.03027,1.40625.77344,2.26172l-.30908,1.03027c-.09717.32422-.39551.53418-.71777.53418Z" fill="var(--iconPrimary, #222)"/>
  <path d="M10.03711,18.81055c-.88477,0-1.64307-.53809-1.93604-1.37402l-.28516-.81543c-.13672-.3916.06934-.81934.46045-.95605.39209-.13379.81934.06934.95557.45996l.28516.81543c.12158.34863.44043.3877.52588.37012.09277-.00098.40479-.03027.52002-.37891l.24316-.73535c.12988-.39355.55322-.60938.94727-.47656.39355.12988.60693.55371.47656.94727l-.24316.73535c-.27979.84766-1.03809,1.40039-1.93066,1.4082h-.01904Z" fill="var(--iconPrimary, #222)"/>
  <path d="M4.87988,14.4834h-.00391l-.9209-.00488c-.89258-.00391-1.65283-.55371-1.93604-1.40137-.2832-.84668-.00684-1.74316.70361-2.2832l.66992-.50977c.32959-.25195.7998-.1875,1.05078.14258.25098.3291.18701.7998-.14258,1.05078l-.66992.50977c-.29199.22266-.21875.52637-.18945.61426.02979.08789.1543.375.521.37695l.92139.00488c.41406.00195.74805.33984.74609.75391-.00244.41309-.3374.74609-.75.74609Z" fill="var(--iconPrimary, #222)"/>
</svg>