<?xml version="1.0" encoding="UTF-8"?>
<svg   xmlns="http://www.w3.org/2000/svg" width="20" height="20" viewBox="0 0 20 20">
  <path d="M18,9.375h-6.49023l4.58887-4.58887c.24414-.24414.24414-.64062,0-.88477s-.63965-.24414-.88379,0l-4.58984,4.58984V2c0-.34473-.27979-.625-.625-.625s-.625.28027-.625.625v6.49121L4.78516,3.90137c-.24414-.24414-.63965-.24414-.88379,0s-.24414.64062,0,.88477l4.58887,4.58887H2c-.34521,0-.625.28027-.625.625s.27979.625.625.625h6.49121l-4.58984,4.58984c-.24414.24414-.24414.64062,0,.88477.12207.12207.28174.18262.44189.18262s.31982-.06055.44189-.18262l4.58984-4.58984v6.49023c0,.34473.27979.625.625.625s.625-.28027.625-.625v-6.49023l4.58984,4.58984c.12207.12207.28174.18262.44189.18262s.31982-.06055.44189-.18262c.24414-.24414.24414-.64062,0-.88477l-4.58984-4.58984h6.49121c.34521,0,.625-.28027.625-.625s-.27979-.625-.625-.625Z" fill="var(--iconPrimary, #222)"/>
  <circle cx="6.9912" cy="2.72243" r=".75" fill="var(--iconPrimary, #222)"/>
  <circle cx="2.7361" cy="6.97752" r=".75" fill="var(--iconPrimary, #222)"/>
  <circle cx="2.7361" cy="12.99513" r=".75" fill="var(--iconPrimary, #222)"/>
  <circle cx="6.99119" cy="17.25023" r=".75" fill="var(--iconPrimary, #222)"/>
  <circle cx="13.0088" cy="17.25023" r=".75" fill="var(--iconPrimary, #222)"/>
  <circle cx="17.2639" cy="12.99514" r=".75" fill="var(--iconPrimary, #222)"/>
  <circle cx="17.2639" cy="6.97753" r=".75" fill="var(--iconPrimary, #222)"/>
  <circle cx="13.00881" cy="2.72243" r=".75" fill="var(--iconPrimary, #222)"/>
  <circle cx="6.9912" cy="2.72243" r=".75" fill="var(--iconPrimary, #222)"/>
</svg>