<?xml version="1.0" encoding="UTF-8"?>
<svg id="f" data-name="ICONS" xmlns="http://www.w3.org/2000/svg" width="20" height="20" viewBox="0 0 20 20">
  <path d="M8.98535,18H3.25c-1.24072,0-2.25-1.00977-2.25-2.25V4.25c0-1.24023,1.00928-2.25,2.25-2.25h11.5c1.24072,0,2.25,1.00977,2.25,2.25v3.99414c0,.41406-.33594.75-.75.75s-.75-.33594-.75-.75v-3.99414c0-.41309-.33643-.75-.75-.75H3.25c-.41357,0-.75.33691-.75.75v11.5c0,.41309.33643.75.75.75h5.73535c.41406,0,.75.33594.75.75s-.33594.75-.75.75Z" fill="var(--iconPrimary, #222)"/>
  <path d="M11.75,5h-5.5c-.96484,0-1.75.78516-1.75,1.75v.76953c0,.41406.33594.75.75.75s.75-.33594.75-.75v-.76953c0-.1377.1123-.25.25-.25h1.99951v7.0127l-.61768-.0127h-.01514c-.40723,0-.74121.32617-.74951.73535-.00781.41406.3208.75586.73535.76465l1.38232.02734h.01465c.19629,0,.38477-.07715.5249-.21484.14404-.14062.2251-.33398.2251-.53516v-7.77734h2.00049c.1377,0,.25.1123.25.25v.76953c0,.41406.33594.75.75.75s.75-.33594.75-.75v-.76953c0-.96484-.78516-1.75-1.75-1.75Z" fill="var(--iconPrimary, #222)"/>
  <path d="M19.25,12h-5.18945l.71973-.71973c.29297-.29297.29297-.76758,0-1.06055s-.76758-.29297-1.06055,0l-2,2c-.29297.29297-.29297.76758,0,1.06055l2,2c.14648.14648.33838.21973.53027.21973s.38379-.07324.53027-.21973c.29297-.29297.29297-.76758,0-1.06055l-.71973-.71973h5.18945c.41406,0,.75-.33594.75-.75s-.33594-.75-.75-.75Z" fill="var(--iconPrimary, #222)"/>
  <path d="M19.78027,16.71973l-2-2c-.29297-.29297-.76758-.29297-1.06055,0s-.29297.76758,0,1.06055l.71973.71973h-5.18945c-.41406,0-.75.33594-.75.75s.33594.75.75.75h5.18945l-.71973.71973c-.29297.29297-.29297.76758,0,1.06055.14648.14648.33838.21973.53027.21973s.38379-.07324.53027-.21973l2-2c.29297-.29297.29297-.76758,0-1.06055Z" fill="var(--iconPrimary, #222)"/>
</svg>