<?xml version="1.0" encoding="UTF-8"?>
<svg xmlns="http://www.w3.org/2000/svg" width="28.00005" height="28" viewBox="0 0 28.00005 28">
  <g id="circles">
    <circle id="Ellipse_10213" data-name="Ellipse 10213" cx="14.00002" cy="14" r="14.00001" fill="#7155fa"/>
  </g>
  <g id="ICONS">
    <rect id="S2_Icon_MusicList_20_N" x="5" y="5" width="18" height="18" fill="none" opacity=".1"/>
    <path d="M20.48285,10.21934c-.21983-.21983-.56006-.24491-.7857-.05402-1.25075,1.05815-6.16181,5.38815-6.4509,5.67724-.41576.42989-.38669,1.13362.06494,1.57182.44152.4284,1.12597.44582,1.54624.03936.28842-.28908,4.62019-5.19807,5.67923-6.44847.19109-.22561.16609-.56602-.05383-.78593h0Z" fill="#fff"/>
    <path d="M19.83901,19.175c-.11514,0-.23159-.029-.33794-.09141-.32256-.18633-.43242-.59941-.24565-.92197.53613-.92549.81958-1.9749.81958-3.03662,0-.32432-.0312-.66357-.0958-1.03887-.06284-.36738.18369-.71631.55107-.77959.37002-.05625.71631.18457.77959.55107.07734.45176.11514.86572.11514,1.26738,0,1.29902-.34629,2.58311-1.00151,3.71338-.12524.21621-.352.33662-.58447.33662Z" fill="#fff"/>
    <path d="M8.16099,19.175c-.23291,0-.45923-.12041-.58447-.33662-.65522-1.13027-1.00151-2.41436-1.00151-3.71338,0-4.09395,3.33105-7.425,7.425-7.425,1.36143,0,2.69912.37881,3.86938,1.096.31772.19512.41748.61084.2228.92812-.19468.31904-.6104.41836-.92856.22324-.95757-.58711-2.05137-.89736-3.16362-.89736-3.34995,0-6.075,2.72549-6.075,6.075,0,1.06172.28345,2.11113.81958,3.03662.18677.32256.0769.73564-.24565.92197-.10635.0624-.2228.09141-.33794.09141Z" fill="#fff"/>
  </g>
</svg>