<?xml version="1.0" encoding="UTF-8"?>
<svg   xmlns="http://www.w3.org/2000/svg" width="20" height="20" viewBox="0 0 20 20">
  <path d="M15.75,2H4.25c-1.24023,0-2.25,1.00977-2.25,2.25v11.5c0,1.24023,1.00977,2.25,2.25,2.25h4.25c.41406,0,.75-.33594.75-.75s-.33594-.75-.75-.75h-.5v-3h.25c.41406,0,.75-.33594.75-.75s-.33594-.75-.75-.75h-.25v-3h9.25c.41406,0,.75-.33594.75-.75v-4c0-1.24023-1.00977-2.25-2.25-2.25ZM3.5,4.25c0-.41309.33691-.75.75-.75h11.5c.41309,0,.75.33691.75.75v3.25H3.5v-3.25ZM6.5,16.5h-2.25c-.41309,0-.75-.33691-.75-.75v-2.25h3v3ZM6.5,12h-3v-3h3v3Z" fill="var(--iconPrimary, #222)" stroke-width="0"/>
  <path d="M14.75,10.11621c-2.5498,0-4.625,2.0752-4.625,4.625s2.0752,4.625,4.625,4.625,4.625-2.0752,4.625-4.625-2.0752-4.625-4.625-4.625ZM18.06177,14.11621h-1.05847c-.08484-.85352-.33887-1.6665-.73352-2.37183.91687.46704,1.59583,1.33008,1.79199,2.37183ZM13.77734,14.11621c.11255-.89819.4519-1.71509.9762-2.34668.52136.63025.85852,1.4469.96985,2.34668h-1.94604ZM15.72534,15.36621c-.10913.90869-.44824,1.73389-.97485,2.36865-.52722-.63745-.8667-1.46265-.97583-2.36865h1.95068ZM13.23755,11.74048c-.39795.70703-.65479,1.52124-.7406,2.37573h-1.05872c.19678-1.04443.87866-1.90967,1.79932-2.37573ZM11.43823,15.36621h1.05737c.08203.84863.33191,1.65918.72217,2.36499-.9104-.46875-1.58423-1.32812-1.77954-2.36499ZM16.28369,17.73047c.38928-.70447.63879-1.5144.7207-2.36426h1.05737c-.19507,1.03625-.86841,1.89526-1.77808,2.36426Z" fill="var(--iconPrimary, #222)" stroke-width="0"/>
</svg>