<?xml version="1.0" encoding="UTF-8"?>
<svg   xmlns="http://www.w3.org/2000/svg" width="20" height="20" viewBox="0 0 20 20">
  <path d="M15.69922,9.5H4.25c-1.24023,0-2.25,1.00977-2.25,2.25v4c0,1.24023,1.00977,2.25,2.25,2.25h11.44922c1.24023,0,2.25-1.00977,2.25-2.25v-4c0-1.24023-1.00977-2.25-2.25-2.25ZM16.44922,11.75v1.25h-8.44922v-2h7.69922c.41309,0,.75.33691.75.75ZM3.5,11.75c0-.41309.33691-.75.75-.75h2.25v2h-3v-1.25ZM3.5,15.75v-1.25h3v2h-2.25c-.41309,0-.75-.33691-.75-.75ZM16.44922,15.75c0,.41309-.33691.75-.75.75h-7.69922v-2h8.44922v1.25Z" fill="var(--iconPrimary, #222)"/>
  <path d="M15.75,7.97461c.41406,0,.75-.33594.75-.75V1.72461c0-.41406-.33594-.75-.75-.75s-.75.33594-.75.75v5.5c0,.41406.33594.75.75.75Z" fill="var(--iconPrimary, #222)"/>
  <path d="M12.75,7.97461c.41406,0,.75-.33594.75-.75V2.72461c0-.41406-.33594-.75-.75-.75s-.75.33594-.75.75v4.5c0,.41406.33594.75.75.75Z" fill="var(--iconPrimary, #222)"/>
  <path d="M9.75,7.97461c.41406,0,.75-.33594.75-.75v-3.5c0-.41406-.33594-.75-.75-.75s-.75.33594-.75.75v3.5c0,.41406.33594.75.75.75Z" fill="var(--iconPrimary, #222)"/>
  <path d="M6.75,7.97461c.41406,0,.75-.33594.75-.75v-2.5c0-.41406-.33594-.75-.75-.75s-.75.33594-.75.75v2.5c0,.41406.33594.75.75.75Z" fill="var(--iconPrimary, #222)"/>
  <path d="M3.75,7.97461c.41406,0,.75-.33594.75-.75v-1.5c0-.41406-.33594-.75-.75-.75s-.75.33594-.75.75v1.5c0,.41406.33594.75.75.75Z" fill="var(--iconPrimary, #222)"/>
</svg>