<?xml version="1.0" encoding="UTF-8"?>
<svg   xmlns="http://www.w3.org/2000/svg" width="20" height="20" viewBox="0 0 20 20">
  <path d="M15.75781,15.17188c-1.36621,0-2.47754-1.16016-2.47754-2.58594s1.11133-2.58594,2.47754-2.58594,2.47754,1.16016,2.47754,2.58594-1.11133,2.58594-2.47754,2.58594ZM15.75781,11.5c-.53906,0-.97754.4873-.97754,1.08594s.43848,1.08594.97754,1.08594.97754-.4873.97754-1.08594-.43848-1.08594-.97754-1.08594Z" fill="var(--iconPrimary, #222)" stroke-width="0"/>
  <path d="M12.75195,19.5c-.08203,0-.16602-.01367-.24805-.04199-.39062-.13672-.59668-.56543-.45996-.95605.45996-1.3125,1.98633-2.22852,3.71289-2.22852,1.72754,0,3.21289.88086,3.69727,2.19141.14258.38867-.05566.82031-.44434.96387s-.81934-.05566-.96387-.44434c-.22168-.60156-1.0791-1.21094-2.28906-1.21094-1.22656,0-2.08398.61621-2.29688,1.22461-.1084.30859-.39844.50195-.70801.50195Z" fill="var(--iconPrimary, #222)" stroke-width="0"/>
  <path d="M15.75,2H4.25c-1.24023,0-2.25,1.00977-2.25,2.25v11.5c0,1.24023,1.00977,2.25,2.25,2.25h6c.41406,0,.75-.33594.75-.75s-.33594-.75-.75-.75h-2.25v-3h3c.41406,0,.75-.33594.75-.75s-.33594-.75-.75-.75h-3v-3h9.25c.41406,0,.75-.33594.75-.75v-4c0-1.24023-1.00977-2.25-2.25-2.25ZM3.5,4.25c0-.41309.33691-.75.75-.75h11.5c.41309,0,.75.33691.75.75v3.25H3.5v-3.25ZM6.5,16.5h-2.25c-.41309,0-.75-.33691-.75-.75v-2.25h3v3ZM6.5,12h-3v-3h3v3Z" fill="var(--iconPrimary, #222)" stroke-width="0"/>
</svg>