<?xml version="1.0" encoding="UTF-8"?>
<svg   xmlns="http://www.w3.org/2000/svg" width="20" height="20" viewBox="0 0 20 20">
  <path d="M19.15771,10.09766l-1.87744-1.87793c-.13574-.13574-.32324-.21973-.53027-.21973s-.39453.08398-.53027.21973l-1.87744,1.87793c-.29297.29297-.29297.76758,0,1.06055s.76758.29297,1.06055,0l.59717-.59741v4.68921c0,.41309-.33643.75-.75.75h-4.6897l.59741-.59766c.29297-.29297.29297-.76758,0-1.06055s-.76758-.29297-1.06055,0l-1.87744,1.87793c-.06909.06909-.12378.15186-.1618.24365-.07593.18335-.07593.38989,0,.57324.03802.09155.09271.17456.1618.24365l1.87744,1.87793c.14648.14648.33838.21973.53027.21973s.38379-.07324.53027-.21973c.29297-.29297.29297-.76758,0-1.06055l-.59741-.59766h4.6897c1.24072,0,2.25-1.00977,2.25-2.25v-4.68921l.59717.59741c.14648.14648.33838.21973.53027.21973s.38379-.07324.53027-.21973c.29297-.29297.29297-.76758,0-1.06055Z" fill="var(--iconPrimary, #222)" stroke-width="0"/>
  <path d="M15.75,2H4.25c-1.24072,0-2.25,1.00977-2.25,2.25v11.5c0,1.24023,1.00928,2.25,2.25,2.25h1.5c.41406,0,.75-.33594.75-.75V6.5h10.75c.41406,0,.75-.33594.75-.75v-1.5c0-1.24023-1.00928-2.25-2.25-2.25ZM4.25,3.5h.75v1.5h-1.5v-.75c0-.41309.33643-.75.75-.75ZM5,16.5h-.75c-.41357,0-.75-.33691-.75-.75V6.5h1.5v10ZM6.5,3.5h9.25c.41357,0,.75.33691.75.75v.75H6.5v-1.5Z" fill="var(--iconPrimary, #222)" stroke-width="0"/>
</svg>