<?xml version="1.0" encoding="UTF-8"?>
<svg xmlns="http://www.w3.org/2000/svg" width="20" height="20" viewBox="0 0 20 20">
  <path d="M5.90723,16.17773c-.19043,0-.38037-.07227-.52686-.21582l-3.74463-3.69336c-.41016-.40527-.63574-.94434-.63574-1.51855,0-.57324.22559-1.1123.63574-1.51758L9.23584,1.65625c.42432-.42285.98877-.65625,1.58838-.65625h4.82227c1.29785,0,2.35352,1.05566,2.35352,2.35352v4.06934c0,.58887-.22656,1.14648-.6377,1.56934l-2.23682,2.2627c-.29053.29492-.76611.29688-1.06055.00586s-.29736-.76562-.00586-1.06055l2.23242-2.25781c.13281-.13672.2085-.32324.2085-.51953V3.35352c0-.4707-.38281-.85352-.85352-.85352h-4.82227c-.2002,0-.38818.07812-.52979.21875l-7.60254,7.5791c-.12451.12305-.19189.2832-.19189.45215,0,.16992.06738.33008.18945.4502l3.74463,3.69336c.29492.29102.29785.76562.00732,1.06055-.14697.14941-.34033.22363-.53418.22363Z" fill="var(--iconPrimary, #222)"/>
  <circle cx="14" cy="5" r="1" fill="var(--iconPrimary, #222)"/>
  <path d="M18,11.27539c-.95117,0-1.7251.77344-1.7251,1.72461,0,.3335.09943.64233.26398.90649l-1.07916,1.43896c-.14734-.04102-.2995-.07007-.45972-.07007-.23737,0-.46368.04822-.66974.13525l-.73529-.7583c.08276-.20142.13013-.42126.13013-.65234,0-.95117-.77393-1.72461-1.7251-1.72461s-1.7251.77344-1.7251,1.72461c0,.31873.09283.61377.2442.87012l-1.07709,1.46985c-.14197-.03796-.28827-.06458-.44202-.06458-.95117,0-1.7251.77344-1.7251,1.72461s.77393,1.72461,1.7251,1.72461,1.7251-.77344,1.7251-1.72461c0-.34058-.10242-.65637-.2735-.92407l1.05054-1.43335c.15869.04834.32361.08203.49786.08203.26196,0,.50781-.06323.73041-.16809l.70508.72717c-.10071.21875-.16058.45996-.16058.71631,0,.95117.77393,1.72461,1.7251,1.72461s1.7251-.77344,1.7251-1.72461c0-.3335-.09943-.64233-.26398-.90649l1.07922-1.43896c.14728.04102.29944.07007.45966.07007.95117,0,1.7251-.77344,1.7251-1.72461s-.77393-1.72461-1.7251-1.72461ZM9,18.47461c-.26221,0-.4751-.21289-.4751-.47461s.21289-.47461.4751-.47461.4751.21289.4751.47461-.21289.47461-.4751.47461ZM11.5249,14c0-.26172.21289-.47461.4751-.47461s.4751.21289.4751.47461-.21289.47461-.4751.47461-.4751-.21289-.4751-.47461ZM15,17.47461c-.26221,0-.4751-.21289-.4751-.47461s.21289-.47461.4751-.47461.4751.21289.4751.47461-.21289.47461-.4751.47461ZM18,13.47461c-.26221,0-.4751-.21289-.4751-.47461s.21289-.47461.4751-.47461.4751.21289.4751.47461-.21289.47461-.4751.47461Z" fill="var(--iconPrimary, #222)"/>
</svg>