<?xml version="1.0" encoding="UTF-8"?>
<svg   xmlns="http://www.w3.org/2000/svg" width="20" height="20" viewBox="0 0 20 20">
  <path d="M8.08105,18.80469c-.01074,0-.02051,0-.03125-.00098-.54297-.02148-1.05371-.24219-1.4375-.62207L1.63574,13.26758c-.41016-.40332-.63574-.94238-.63574-1.51758,0-.57422.22559-1.11328.63672-1.51758l7.56934-7.5459c.44238-.44238,1.03223-.68652,1.66113-.68652h4.7793c1.29785,0,2.35352,1.05566,2.35352,2.35352v2.92969c0,.41406-.33594.75-.75.75s-.75-.33594-.75-.75v-2.92969c0-.4707-.38281-.85352-.85352-.85352h-4.7793c-.22754,0-.44141.08789-.60156.24805l-7.57324,7.5498c-.125.12305-.19238.2832-.19238.45215,0,.16992.06738.33008.18945.4502l4.97754,4.91504c.11719.11621.27441.18359.44336.19043.41406.0166.73535.36523.71875.7793-.01562.40332-.34766.71973-.74805.71973Z" fill="var(--iconPrimary, #222)"/>
  <circle cx="14" cy="6" r="1" fill="var(--iconPrimary, #222)"/>
  <path d="M19.05273,10.09473c-.9668-.79395-2.45312-.6875-3.37891.23926l-4.18359,4.18262c-.24707.24707-.43164.55469-.53223.88965l-.9541,3.16016c-.08008.26465-.00781.55176.1875.74707.14258.14258.33398.21973.53027.21973.07227,0,.14551-.01074.2168-.03223l3.1582-.95312c.33496-.10059.64258-.28516.89062-.5332l4.25293-4.25293c.49316-.49316.75684-1.17676.72168-1.87305s-.36621-1.35059-.90918-1.79395ZM11.84375,17.66113l.5498-1.82129c.01758-.05713.05859-.10205.09106-.1521l1.33228,1.33228c-.05029.03247-.09546.07373-.15283.09131l-1.82031.5498ZM18.17969,12.70117l-3.45605,3.45605-1.37646-1.37646,3.38721-3.38623c.3877-.3877.98828-.45117,1.36914-.13867.21875.17773.34668.42969.36035.70703.01367.2793-.08691.54102-.28418.73828Z" fill="var(--iconPrimary, #222)"/>
</svg>