<?xml version="1.0" encoding="UTF-8"?>
<svg id="e" data-name="ICONS" xmlns="http://www.w3.org/2000/svg" width="20" height="20" viewBox="0 0 20 20">
  <path d="M5.25,13c-.41406,0-.75-.33594-.75-.75v-4.47461c0-.41406.33594-.75.75-.75s.75.33594.75.75v4.47461c0,.41406-.33594.75-.75.75Z" fill="var(--iconPrimary, #222)"/>
  <path d="M14.24121,16.00098H3.25c-1.24121,0-2.25098-1.00977-2.25098-2.25098v-7.5c0-1.24121,1.00977-2.25098,2.25098-2.25098h10.99121c.75293,0,1.45312.37305,1.87109.99902l2.50781,3.75c.50879.76074.50879,1.74316,0,2.50391l-2.50781,3.75c-.41797.62598-1.11816.99902-1.87109.99902ZM3.25,5.50098c-.41309,0-.74902.33594-.74902.74902v7.5c0,.41309.33594.74902.74902.74902h10.99121c.25098,0,.4834-.125.62305-.33301l2.50781-3.75c.16895-.25293.16895-.5791,0-.83203l-2.50781-3.75c-.13965-.20801-.37207-.33301-.62305-.33301H3.25Z" fill="var(--iconPrimary, #222)"/>
  <circle cx="13" cy="10" r="1.5" fill="var(--iconPrimary, #222)"/>
</svg>