<?xml version="1.0" encoding="UTF-8"?>
<svg   xmlns="http://www.w3.org/2000/svg" width="20" height="20" viewBox="0 0 20 20">
  <path d="M13.7832,16.62793c-1.5332,0-3.02197-.65918-3.99609-1.77441-1.0835-1.19238-1.58447-2.56738-2.02588-3.78125-.16699-.45801-.33057-.91016-.52393-1.34473-.22119-.5625-.46777-.78223-.57422-.79492-.05371-.02637-.22412.07812-.41602.3457-1.14404,1.50684-2.88525,1.45117-4.01953.63184-1.13428-.82031-1.729-2.45703-.67139-3.99805l.02979-.04004c1.5127-1.91406,3.73486-2.81836,5.95068-2.4043,2.20508.40723,3.94727,2.01074,4.66064,4.28906.22217.56055.39111,1.18164.55469,1.78223.22803.83984.44385,1.63281.80908,2.20703.18848.26465.71045.60742,1.229.2666.34473-.22168.78857-.75195,1.0835-1.29199.46387-.81055,1.48193-1.08496,2.27979-.63184.61816.35547.94287,1.06348.80811,1.76172-.26807,1.28223-.71924,2.23535-1.46436,3.10254-.8584,1.04004-2.18848,1.6543-3.63965,1.6748h-.07422ZM6.65527,7.43164c.07129,0,.13574.00488.19287.01172.43359.05469,1.24121.34766,1.77246,1.70605.19434.43457.37109.91895.5498,1.41016.43311,1.18848.8418,2.31152,1.73682,3.29688.71338.81543,1.81982,1.29297,2.9292,1.27148,1.0249-.01465,1.91748-.41992,2.51318-1.1416.58887-.68457.92725-1.4082,1.1416-2.43066.0083-.04492-.0127-.12402-.08398-.16504-.07812-.04492-.17871-.0166-.2251.0625-.32324.5918-.9126,1.39062-1.5752,1.81738-1.19873.78516-2.61719.2666-3.2915-.68945-.50732-.7959-.76367-1.7373-1.01123-2.64844-.15283-.56152-.31104-1.14355-.521-1.67773-.56152-1.78809-1.87061-3.00684-3.51953-3.31152-1.64941-.30664-3.32373.38184-4.48438,1.83789-.55811.83301-.1748,1.5498.32715,1.91309.50635.36621,1.31689.50488,1.93359-.30566.56787-.7959,1.2002-.95703,1.61523-.95703Z" fill="var(--iconPrimary, #222)"/>
</svg>