<?xml version="1.0" encoding="UTF-8"?>
<svg id="f" data-name="ICONS" xmlns="http://www.w3.org/2000/svg" width="20" height="20" viewBox="0 0 20 20">
  <path d="M10.16509,18.74844c-4.82434.09104-8.82249-3.75902-8.91353-8.58335-.01144-.60634.0396-1.21385.15152-1.80494.0773-.4068.46001-.67481.87757-.59674.4068.0773.67402.46979.59674.87757-.09333.48915-.1356.99199-.1261,1.49581.07543,3.99734,3.38816,7.18735,7.3855,7.11192,3.99734-.07543,7.18735-3.38816,7.11192-7.3855-.07543-3.99734-3.38816-7.18735-7.3855-7.11192-.49308.0093-.98424.06839-1.45889.17404-.40354.09552-.80497-.16258-.89563-.56719s.16355-.80499.56719-.89563c.57286-.129,1.16538-.19976,1.75903-.21096,4.82434-.09104,8.82249,3.75902,8.91353,8.58335s-3.75902,8.82249-8.58335,8.91353Z" fill="var(--iconPrimary, #222)"/>
  <path d="M10.76343,8.71533c-.04443.52539-.26001,1.01685-.63647,1.39502-.38196.38464-.88074.60327-1.41577.64551.26074.44336.73743.74414,1.28882.74414.82837,0,1.5-.67163,1.5-1.5,0-.54834-.29736-1.02307-.73657-1.28467Z" fill="var(--iconPrimary, #222)"/>
  <path d="M9.06264,7.99176l-2.94409-2.92798.09546-1.3562c.09082-.55273-.08887-1.11719-.48926-1.51855L3.75502.22028c-.18945-.18945-.46484-.26465-.72266-.19434-.25879.06836-.46094.26953-.53125.52734l-.41699,1.53125-1.53125.41699c-.25781.07031-.45898.27246-.52734.53125-.06934.25781.00488.5332.19434.72266l1.96973,1.96973c.33691.33691.79199.51855,1.21191.51855.0918,0,.18164-.00879.26758-.02637l1.38159-.09827,2.95337,2.93713c.14648.14551.33789.21777.5293.21777.19238,0,.38477-.07422.53223-.2207.29199-.29395.29004-.76855-.00293-1.06152ZM3.47475,4.73297c-.08105.01562-.16699-.00977-.22461-.06836l-1.05566-1.05566.69727-.19043c.25586-.07031.45605-.27051.52637-.52637l.19043-.69824,1.05469,1.05469c.05957.05957.08496.14355.06934.22363-.00586.03027-.00977.06055-.01172.09082l-.07373,1.04834c-.00879.00793-.02026.0105-.02881.01904-.00537.00549-.00696.01294-.01221.01855l-1.13135.08398Z" fill="var(--iconPrimary, #222)"/>
  <path d="M10.12598,5.00098l-.12598-.00098c-.41406,0-.70605.33594-.70605.75,0,.41504.37891.75098.79297.75098,1.88184.0459,3.41309,1.61621,3.41309,3.49902,0,1.92969-1.57031,3.5-3.5,3.5-1.89087,0-3.45312-1.53235-3.49731-3.47729l-.00049-.04468c-.00781-.42627-.34949-.7207-.76404-.71326-.41199.00745-.73706.39709-.73523.81897l-.00195.00024c0,.0022.00073.00439.00073.00659,0,.00146-.00061.00256-.00061.00391h.0011c.05078,2.70605,2.28955,4.90552,4.9978,4.90552,2.75684,0,5-2.24316,5-5,0-2.69043-2.1875-4.93262-4.87402-4.99902Z" fill="var(--iconPrimary, #222)"/>
</svg>