<?xml version="1.0" encoding="UTF-8"?>
<svg xmlns="http://www.w3.org/2000/svg" width="28.00005" height="28" viewBox="0 0 28.00005 28">
  <g id="circles">
    <circle id="Ellipse_10213" data-name="Ellipse 10213" cx="14.00002" cy="14" r="14.00001" fill="#e434a3"/>
  </g>
  <g id="ICONS">
    <rect id="S2_Icon_ContentProfile_20_N" x="5" y="5" width="18" height="18" fill="none" opacity=".1"/>
    <path d="M18.49994,14.44994c-2.23676,0-4.05,1.81324-4.05,4.05s1.81324,4.05,4.05,4.05,4.05-1.81324,4.05-4.05-1.81324-4.05-4.05-4.05ZM16.2929,20.40008c.53394-.62342,1.32567-.9913,2.17194-.96954.87067-.03351,1.68745.34283,2.22869.9858-.53619.6132-1.31501,1.0086-2.19359,1.0086-.88616,0-1.67064-.40243-2.20704-1.02486ZM18.33075,15.68525c.79091-.04675,1.46997.55657,1.51672,1.34747.00165.02823.00247.05652.00247.08481.0217.76783-.58222,1.40839-1.35,1.4319-.79091.04669-1.46997-.55657-1.51672-1.34753-.04669-.79091.55657-1.46997,1.34753-1.51666Z" fill="#fff"/>
    <g>
      <circle cx="17.15005" cy="10.625" r="1.35" fill="#fff"/>
      <path d="M10.175,17.15c-.37266,0-.675.30234-.675.675s.30234.675.675.675h2.29482c.37266,0,.675-.30234.675-.675s-.30234-.675-.675-.675h-2.29482Z" fill="#fff"/>
      <path d="M19.175,6.8h-10.35c-1.11665,0-2.025.90879-2.025,2.025v10.35c0,1.11621.90835,2.025,2.025,2.025h3.95728c.37266,0,.675-.30234.675-.675s-.30234-.675-.675-.675h-3.95728c-.37222,0-.675-.30322-.675-.675v-3.375h5.302c.37266,0,.675-.30234.675-.675s-.30234-.675-.675-.675h-4.27983l2.50225-2.50225c.25488-.254.70005-.254.95493,0l1.996,1.996c.26367.26367.69082.26367.95449,0s.26367-.69082,0-.95449l-1.996-1.996c-.78882-.78926-2.07422-.78926-2.86392,0l-2.56992,2.56992v-4.73818c0-.37178.30278-.675.675-.675h10.35c.37222,0,.675.30322.675.675v3.95156c0,.37266.30234.675.675.675s.675-.30234.675-.675v-3.95156c0-1.11621-.90835-2.025-2.025-2.025Z" fill="#fff"/>
    </g>
  </g>
</svg>