<?xml version="1.0" encoding="UTF-8"?>
<svg id="f" data-name="ICONS" xmlns="http://www.w3.org/2000/svg" width="20" height="20" viewBox="0 0 20 20">
  <path d="M6.77637,9c-.21191,0-.41504-.08984-.55762-.24805l-1.15137-1.28027c-.27734-.30859-.25195-.78223.05566-1.05957s.78125-.25195,1.05957.05566l.53418.59473,1.30371-1.77734c.24316-.33301.71094-.40918,1.04785-.16113.33398.24414.40625.71387.16113,1.04785l-1.84863,2.52148c-.13281.18262-.3418.29492-.56738.30566-.01172.00098-.02441.00098-.03711.00098Z" fill="var(--iconPrimary, #222)"/>
  <path d="M8.625,18h-4.375c-1.24023,0-2.25-1.00977-2.25-2.25V4.25c0-1.24023,1.00977-2.25,2.25-2.25h11.5c1.24023,0,2.25,1.00977,2.25,2.25v3.7959c0,.41406-.33594.75-.75.75s-.75-.33594-.75-.75v-3.7959c0-.41309-.33691-.75-.75-.75H4.25c-.41309,0-.75.33691-.75.75v11.5c0,.41309.33691.75.75.75h4.375c.41406,0,.75.33594.75.75s-.33594.75-.75.75Z" fill="var(--iconPrimary, #222)"/>
  <path d="M14.25,8h-3.5c-.41406,0-.75-.33594-.75-.75s.33594-.75.75-.75h3.5c.41406,0,.75.33594.75.75s-.33594.75-.75.75Z" fill="var(--iconPrimary, #222)"/>
  <path d="M6.77637,15c-.21191,0-.41504-.08984-.55762-.24805l-1.15137-1.28027c-.27734-.30859-.25195-.78223.05566-1.05957s.78125-.25195,1.05957.05566l.53418.59473,1.30371-1.77734c.24316-.33398.71094-.41016,1.04785-.16113.33398.24414.40625.71387.16113,1.04785l-1.84863,2.52148c-.13281.18262-.3418.29492-.56738.30566-.01172.00098-.02441.00098-.03711.00098Z" fill="var(--iconPrimary, #222)"/>
  <path id="g" data-name="Path 1027855" d="M19.48755,14.54582c0,2.48528-2.01472,4.5-4.5,4.5s-4.5-2.01472-4.5-4.5,2.01472-4.5,4.5-4.5,4.5,2.01472,4.5,4.5" fill="var(--iconPrimary, #222)"/>
  <path d="M14.26465,16.93359c-.18066,0-.35254-.07812-.4707-.21387l-1.15234-1.32031c-.22754-.25977-.2002-.65527.05957-.88184.25879-.22656.65527-.20117.88184.05957l.66699.76465,2.12988-2.58887c.21777-.26855.6123-.30566.87891-.08594.2666.21875.30566.6123.08594.87891l-2.59766,3.15918c-.11621.14258-.28906.22559-.47363.22852h-.00879Z" fill="#fff"/>
</svg>