<?xml version="1.0" encoding="UTF-8"?>
<svg id="f" data-name="ICONS" xmlns="http://www.w3.org/2000/svg" width="20" height="20" viewBox="0 0 20 20">
  <path d="M6.77637,9c-.21191,0-.41504-.08984-.55762-.24805l-1.15137-1.28027c-.27734-.30859-.25195-.78223.05566-1.05957.30859-.27734.78125-.25195,1.05957.05566l.53418.59473,1.30371-1.77734c.24219-.33301.71191-.40918,1.04785-.16113.33398.24414.40625.71387.16113,1.04785l-1.84863,2.52148c-.13281.18262-.3418.29492-.56738.30566-.01172.00098-.02441.00098-.03711.00098Z" fill="var(--iconPrimary, #222)"/>
  <path d="M8.625,18h-4.375c-1.24023,0-2.25-1.00977-2.25-2.25V4.25c0-1.24023,1.00977-2.25,2.25-2.25h11.5c1.24023,0,2.25,1.00977,2.25,2.25v3.7959c0,.41406-.33594.75-.75.75s-.75-.33594-.75-.75v-3.7959c0-.41309-.33691-.75-.75-.75H4.25c-.41309,0-.75.33691-.75.75v11.5c0,.41309.33691.75.75.75h4.375c.41406,0,.75.33594.75.75s-.33594.75-.75.75Z" fill="var(--iconPrimary, #222)"/>
  <path d="M14.25,8h-3.5c-.41406,0-.75-.33594-.75-.75s.33594-.75.75-.75h3.5c.41406,0,.75.33594.75.75s-.33594.75-.75.75Z" fill="var(--iconPrimary, #222)"/>
  <path d="M6.77637,15c-.21191,0-.41504-.08984-.55762-.24805l-1.15137-1.28027c-.27734-.30859-.25195-.78223.05566-1.05957.30859-.27734.78125-.25195,1.05957.05566l.53418.59473,1.30371-1.77734c.24219-.33398.71191-.41016,1.04785-.16113.33398.24414.40625.71387.16113,1.04785l-1.84863,2.52148c-.13281.18262-.3418.29492-.56738.30566-.01172.00098-.02441.00098-.03711.00098Z" fill="var(--iconPrimary, #222)"/>
  <path d="M13.93945,19.5c-.0957,0-.19238-.01855-.28516-.05664-.28125-.11523-.46484-.38965-.46484-.69336v-.87988c-1.2168-.05664-2.18945-1.06445-2.18945-2.2959v-2.02539c0-1.26758,1.03125-2.29883,2.29785-2.29883h3.9043c1.2666,0,2.29785,1.03125,2.29785,2.29883v2.02539c0,1.26758-1.03125,2.29883-2.29785,2.29883h-1.34082l-1.38867,1.4043c-.14355.14551-.33691.22266-.5332.22266ZM13.29785,12.75c-.44043,0-.79785.3584-.79785.79883v2.02539c0,.44043.35742.79883.79785.79883h.6416c.35352,0,.64941.24414.72852.57324l.34668-.35059c.14062-.14258.33301-.22266.5332-.22266h1.6543c.44043,0,.79785-.3584.79785-.79883v-2.02539c0-.44043-.35742-.79883-.79785-.79883h-3.9043Z" fill="var(--iconPrimary, #222)"/>
</svg>