<?xml version="1.0" encoding="UTF-8"?>
<svg xmlns="http://www.w3.org/2000/svg" width="20" height="20" viewBox="0 0 20 20">
  <path d="M15.46387,13.9375c-.80029,0-1.69922-.32031-2.44336-1.20996-.22119-.26562-.18604-.65918.07861-.88086.26416-.2207.65918-.18555.88037.07812.83984,1.00488,1.79053.75977,2.06348.66309.47998-.1748.80225-.54102.80225-.91211,0-.39746-.1001-.68945-.30566-.8916-.28125-.27539-.70459-.33594-.89014-.34961-.07764.0127-.14307-.00391-.16504-.00586-.3291-.0293-.57812-.30957-.56934-.63965.00928-.33008.27393-.5957.604-.60742.02148-.00098.0791-.00195.16113.00195.15088-.00488.4707-.04297.69385-.25098.19531-.18262.29395-.4834.29395-.89453,0-.31152-.271-.62695-.65967-.76758-.61865-.22754-1.32129.03711-1.87646.7002-.22168.26562-.61475.30078-.88037.0791-.26465-.22168-.2998-.61523-.07861-.87988,1.06787-1.27734,2.38525-1.39258,3.26221-1.07422.88672.32129,1.48291,1.10254,1.48291,1.94238,0,.73438-.20996,1.32031-.625,1.74316.0376.03223.07422.06543.11035.09961.45898.44434.69189,1.04785.69189,1.79492,0,.90918-.63818,1.72852-1.62598,2.08691-.29883.1084-.64209.1748-1.00537.1748Z" fill="var(--iconPrimary, #222)"/>
  <path d="M4.375,14.02539c-.34521,0-.625-.28027-.625-.625v-5.85938l-1.32764.55957c-.31836.13477-.68506-.01562-.81885-.33398-.13379-.31738.01562-.68457.3335-.81836l2.19531-.9248c.19336-.0791.41455-.06055.58838.05566.17432.11523.2793.31152.2793.52051v6.80078c0,.34473-.27979.625-.625.625Z" fill="var(--iconPrimary, #222)"/>
  <path d="M11.38184,13.80469h-.00293l-3.76367-.01758c-.34424-.00195-.62207-.28125-.62207-.625,0-2.01562,1.38037-2.8457,2.38867-3.45117.80615-.48535,1.26416-.78613,1.28906-1.33984.02295-.49512-.22949-.8877-.67529-1.0498-.47314-.16895-1.1958-.0752-1.79688.71191-.20898.27539-.60107.32715-.87598.11816-.27441-.20996-.32666-.60156-.11719-.87598.83447-1.0918,2.09717-1.53516,3.21729-1.12793.95703.34766,1.54443,1.24316,1.49707,2.28027-.05713,1.25-1.0332,1.83691-1.89404,2.35449-.78809.47363-1.4873.89355-1.70947,1.75781l3.06836.01465c.34521.00195.62354.2832.62207.62793-.00146.34375-.28125.62207-.625.62207Z" fill="var(--iconPrimary, #222)"/>
  <path d="M10,19.25c-.41406,0-.75-.33594-.75-.75v-2.5c0-.41406.33594-.75.75-.75s.75.33594.75.75v2.5c0,.41406-.33594.75-.75.75Z" fill="var(--iconPrimary, #222)"/>
  <path d="M10,4.5498c-.41406,0-.75-.33594-.75-.75V1.5c0-.41406.33594-.75.75-.75s.75.33594.75.75v2.2998c0,.41406-.33594.75-.75.75Z" fill="var(--iconPrimary, #222)"/>
</svg>