<?xml version="1.0" encoding="UTF-8"?>
<svg   xmlns="http://www.w3.org/2000/svg" width="20" height="20" viewBox="0 0 20 20">
  <path d="M17.25,18c-.41406,0-.75-.33594-.75-.75V2.75c0-.41406.33594-.75.75-.75s.75.33594.75.75v14.5c0,.41406-.33594.75-.75.75Z" fill="var(--iconPrimary, #222)"/>
  <path d="M14.78027,9.2168l-2.99707-2.99707c-.29297-.29297-.76758-.29297-1.06055,0s-.29297.76758,0,1.06055l1.71899,1.71973h-6.69165c-.41406,0-.75.33594-.75.75s.33594.75.75.75h6.68872l-1.71704,1.71973c-.29199.29395-.29199.76855.00098,1.06152.14648.14551.33887.21875.53027.21875.19238,0,.38477-.07324.53125-.21973l2.99707-3.00293c.29199-.29297.29199-.76758-.00098-1.06055Z" fill="var(--iconPrimary, #222)"/>
  <path d="M6.25,15h-2c-1.24023,0-2.25-1.00977-2.25-2.25v-5.5c0-1.24023,1.00977-2.25,2.25-2.25h2c.41406,0,.75.33594.75.75s-.33594.75-.75.75h-2c-.41309,0-.75.33691-.75.75v5.5c0,.41309.33691.75.75.75h2c.41406,0,.75.33594.75.75s-.33594.75-.75.75Z" fill="var(--iconPrimary, #222)"/>
</svg>