<?xml version="1.0" encoding="UTF-8"?>
<svg xmlns="http://www.w3.org/2000/svg" width="20" height="20" viewBox="0 0 20 20">
  <path d="M15.61145,10.17577c.02563-.04102.05383-.07861.07117-.12427.01904-.0498.02344-.10229.03149-.15527.00574-.03735.02222-.07104.02222-.11011,0-.00732-.00391-.01367-.00415-.021-.00134-.04663-.01782-.09155-.02808-.13818-.0116-.05225-.01819-.10498-.04004-.15234-.00281-.0061-.00195-.0127-.00488-.01855-.01562-.03198-.04297-.05273-.0625-.08154-.03198-.04736-.06116-.09521-.10303-.13403-.03394-.03149-.07397-.05151-.11267-.07593-.0426-.02734-.08215-.05664-.13-.07495-.04785-.01807-.09827-.02197-.14893-.03003-.03931-.00635-.07471-.02344-.11572-.02344H5.01758c-.03882,0-.07214.01636-.10938.02197-.052.00806-.10327.01245-.15234.03076-.04663.01758-.08521.04541-.12695.07153-.04053.0249-.08142.04614-.11694.07886-.03882.03589-.06604.08008-.09668.12329-.02173.03076-.05127.05298-.0686.08765-.00378.00757-.00293.01611-.00635.02368-.02051.04419-.02661.09326-.03833.14136-.0116.04956-.02832.09741-.02966.14722-.00037.0083-.00476.01538-.00476.02368,0,.03857.01636.07202.02197.10913.00806.052.01245.10327.03088.15259.01758.04688.04565.08594.0719.12769.02478.04004.04565.08057.07788.11572.03638.03931.08081.06689.12463.09766.0304.02148.05261.05078.08679.06812.11816.05859,2.92969,1.45508,5.29199,1.45508,2.3584,0,5.22266-1.39355,5.34375-1.45312.03394-.0166.05591-.04541.08618-.06641.04504-.03101.09106-.05859.12817-.09863.0332-.03564.05444-.07739.07971-.11816Z" fill="var(--iconPrimary, #222)"/>
  <path d="M17.99902,8.54979c-.125,0-.25195-.03125-.36816-.09766l-4.11816-2.33203c-.3877-.21875-.85156-.20312-1.21777.04102l-1.11816.74512c-.71484.47656-1.63867.47656-2.35352,0l-1.11816-.74512c-.36523-.24414-.83203-.26074-1.21582-.04199l-4.12012,2.33301c-.36035.2041-.81836.07715-1.02148-.2832-.2041-.36035-.07812-.81738.2832-1.02148l4.11816-2.33203c.875-.5,1.94629-.46582,2.78809.09766l1.11816.74512c.20898.14062.48047.14062.68945,0l1.11816-.74512c.8418-.55957,1.91113-.59863,2.79004-.09668l4.11621,2.33105c.36133.2041.4873.66113.2832,1.02148-.1377.24414-.3916.38086-.65332.38086Z" fill="var(--iconPrimary, #222)"/>
  <path d="M10.00098,16.07909c-4.67676,0-7.63477-3.61914-7.75879-3.77246-.25879-.32324-.20703-.79395.11523-1.05273.31934-.26074.79297-.20996,1.05371.1123.02637.03223,2.64648,3.21289,6.58984,3.21289,3.96484,0,6.5625-3.17969,6.58789-3.21191.26172-.32324.7334-.37305,1.05469-.11523.32324.25977.37402.73145.11523,1.05469-.12402.15332-3.08203,3.77246-7.75781,3.77246Z" fill="var(--iconPrimary, #222)"/>
</svg>