<?xml version="1.0" encoding="UTF-8"?>
<svg id="f" data-name="ICONS" xmlns="http://www.w3.org/2000/svg" width="20" height="20" viewBox="0 0 20 20">
  <path d="M6.5,18h-3.25c-1.24023,0-2.25-1.00977-2.25-2.25V3.25c0-1.24023,1.00977-2.25,2.25-2.25h9.5c1.24023,0,2.25,1.00977,2.25,2.25v3.75c0,.41406-.33594.75-.75.75s-.75-.33594-.75-.75v-3.75c0-.41309-.33691-.75-.75-.75H3.25c-.41309,0-.75.33691-.75.75v12.5c0,.41309.33691.75.75.75h3.25c.41406,0,.75.33594.75.75s-.33594.75-.75.75Z" fill="var(--iconPrimary, #222)"/>
  <path d="M7.1084,14.93066c-.0625,0-.12598-.00781-.18945-.02441-.40137-.10352-.6416-.51367-.53711-.91406l.65332-2.51367h-2.13574c-.45215,0-.87012-.24512-1.09082-.63965s-.21191-.87891.02441-1.26367l3.54004-5.77539c.33203-.53906.96484-.74609,1.55176-.49902.58203.24512.87988.84473.72656,1.45703l-.68359,2.7207h1.19727c.41406,0,.75.33594.75.75s-.33594.75-.75.75h-1.51758c-.3877,0-.74707-.17578-.98535-.48145-.23926-.30566-.32129-.69727-.22754-1.07324l.36426-1.44824-2.4541,4.00293h2.01465c.39062,0,.75098.17773.99023.48633.2373.30859.31738.70215.21875,1.0791l-.73535,2.8252c-.08789.33789-.3916.56152-.72461.56152ZM7.11719,11.16504v.00098-.00098Z" fill="var(--iconPrimary, #222)"/>
  <circle cx="14.525" cy="14.68005" r="1.11096" fill="var(--iconPrimary, #222)"/>
  <path d="M16.33008,19.74805c-.43652,0-.86523-.20801-1.12598-.58789l-.3916-.56934c-.09961.00781-.18262.00977-.30469.01172-.10254-.00098-.2041-.00586-.30469-.01465l-.39746.56641c-.40137.57422-1.19336.74805-1.79785.39453l-.48047-.28027c-.60742-.35352-.8457-1.12793-.54199-1.76074l.29785-.62402c-.11426-.16797-.21484-.34473-.30176-.52832l-.69043-.06055c-.69922-.06152-1.24512-.65918-1.24121-1.36133l.00293-.55664c.00195-.7002.55176-1.29297,1.25195-1.34863l.69141-.05469c.08887-.18359.19043-.35938.30566-.52539l-.29199-.62793c-.2959-.63672-.05078-1.40723.55859-1.75488l.48145-.27539c.62012-.35547,1.3916-.17871,1.7959.40918l.3916.57031c.10059-.00781.1875-.02344.30566-.01172.10254.00098.2041.00586.30469.01367l.39648-.56543c.40234-.57617,1.19434-.74805,1.79785-.39453l.48047.28027c.60742.35352.8457,1.12695.54199,1.75977l-.29688.625c.11426.16895.21484.34473.30078.52832l.69043.06055c.69922.06152,1.24512.65918,1.24121,1.36035l-.00293.55664c-.00195.7002-.55176,1.29395-1.25195,1.34961l-.69141.05469c-.08887.18262-.19043.3584-.30566.52539l.29199.62793c.2959.63672.05078,1.40723-.55859,1.75488l-.48145.27539c-.20996.12012-.44141.17773-.66992.17773ZM15.11133,17.29785c.20312,0,.39648.09961.51465.27051l.6084.88379c.0332.04883.09473.0625.14551.0332l.48145-.27539c.05078-.0293.07031-.09082.0459-.14258l-.45312-.97266c-.10449-.22266-.06738-.48633.09375-.67285.21289-.24609.37793-.52832.48828-.83984.08301-.23145.29492-.39258.54004-.41211l1.07031-.08398c.05664-.00488.10059-.05078.10059-.1084l.00293-.55762c0-.05664-.04395-.10352-.10059-.1084l-1.06934-.09375c-.24512-.02148-.45508-.18555-.53613-.41797-.10645-.30957-.26953-.59375-.48145-.8457-.1582-.1875-.19238-.4502-.08691-.67188l.46094-.96875c.02539-.05273.00586-.1123-.04297-.1416l-.48047-.28027c-.04883-.0293-.1123-.01465-.14453.03027l-.61621.87891c-.14062.20215-.39062.30371-.625.25586-.16016-.0293-.32324-.04785-.49023-.04883-.20605.00195-.33008.01562-.48828.04492-.2373.04395-.4873-.05957-.625-.26074l-.60742-.88379c-.03223-.04785-.09473-.05957-.14648-.0332l-.48145.27539c-.05078.0293-.07031.09082-.0459.14258l.45312.97168c.10449.22266.06738.48633-.09375.67285-.21289.24512-.37695.52832-.48926.83984-.08301.23145-.29297.39258-.53809.41211l-1.07031.08496c-.05664.00488-.10156.05176-.10156.10742l-.00293.55762c0,.05762.04297.10449.10059.10938l1.06934.09375c.24512.02148.4541.18457.53516.41699.10938.31152.27148.59668.48242.8457.15918.18848.19336.45117.08789.67383l-.46191.96777c-.02539.05078-.00586.11328.04297.1416l.48047.28027c.0498.02832.11133.0166.14551-.03125l.61621-.87891c.1416-.20117.3916-.29492.62891-.25586.15723.03027.31934.04883.48633.0498h.01074c.16309,0,.32129-.0166.47656-.04492.03613-.00684.07324-.00977.11035-.00977Z" fill="var(--iconPrimary, #222)"/>
</svg>