<?xml version="1.0" encoding="UTF-8"?>
<svg id="f" data-name="ICONS" xmlns="http://www.w3.org/2000/svg" width="20" height="20" viewBox="0 0 20 20">
  <path d="M18,11h-4.5c-.82715,0-1.5.67285-1.5,1.5v.5c0,.41406.33594.75.75.75s.75-.33594.75-.75v-.5h1.5v5.5h-.34375c-.41406,0-.75.33594-.75.75s.33594.75.75.75h2.1875c.41406,0,.75-.33594.75-.75s-.33594-.75-.75-.75h-.34375v-5.5h1.5v.5c0,.41406.33594.75.75.75s.75-.33594.75-.75v-.5c0-.82715-.67285-1.5-1.5-1.5Z" fill="var(--iconPrimary, #222)"/>
  <path d="M12,18h-7.75c-1.24023,0-2.25-1.00977-2.25-2.25V3.25c0-1.24023,1.00977-2.25,2.25-2.25h9.5c1.24023,0,2.25,1.00977,2.25,2.25v5.5c0,.41406-.33594.75-.75.75s-.75-.33594-.75-.75V3.25c0-.41309-.33691-.75-.75-.75H4.25c-.41309,0-.75.33691-.75.75v12.5c0,.41309.33691.75.75.75h7.75c.41406,0,.75.33594.75.75s-.33594.75-.75.75Z" fill="var(--iconPrimary, #222)"/>
  <path d="M8.60449,15.56152c-.16895,0-.3418-.03516-.50977-.10742-.5791-.25098-.87305-.85254-.71289-1.46289l.65332-2.5127h-2.13574c-.45215,0-.87012-.24512-1.09082-.63965s-.21191-.87891.02441-1.26367l3.54004-5.77539c.33203-.53906.96484-.74609,1.55176-.49902.58203.24609.87988.84473.72656,1.45703l-.68359,2.7207h2.13281c.40234,0,.7666.18555.99902.50977.23535.32715.29785.75293.16699,1.13672-.13281.39258-.56348.60059-.9502.46973-.28125-.09473-.46875-.33984-.50391-.61621h-2.16504c-.3877,0-.74707-.17578-.98535-.48145-.23926-.30566-.32129-.69727-.22754-1.07324l.36426-1.44824-2.4541,4.00293h2.01465c.39062,0,.75098.17773.99023.48633.2373.30859.31738.70215.21875,1.0791l-.33789,1.29785c.23926-.26465.64062-.32715.9541-.12988.35059.2207.45605.68359.23535,1.03418l-.77148,1.22559c-.23828.37988-.62988.58984-1.04395.58984ZM8.11719,11.16504l-.00098.00098.00098-.00098Z" fill="var(--iconPrimary, #222)"/>
</svg>