<?xml version="1.0" encoding="UTF-8"?>
<svg id="f" data-name="ICONS" xmlns="http://www.w3.org/2000/svg" width="20" height="20" viewBox="0 0 20 20">
  <path d="M9,18h-4.75c-1.24023,0-2.25-1.00977-2.25-2.25V3.25c0-1.24023,1.00977-2.25,2.25-2.25h9.5c1.24023,0,2.25,1.00977,2.25,2.25v4.25c0,.41406-.33594.75-.75.75s-.75-.33594-.75-.75V3.25c0-.41309-.33691-.75-.75-.75H4.25c-.41309,0-.75.33691-.75.75v12.5c0,.41309.33691.75.75.75h4.75c.41406,0,.75.33594.75.75s-.33594.75-.75.75Z" fill="var(--iconPrimary, #222)"/>
  <path d="M8.1084,14.93066c-.06348,0-.12695-.00781-.18945-.02441-.40137-.10449-.6416-.51367-.53711-.91406l.65332-2.51367h-2.13574c-.45215,0-.87012-.24512-1.09082-.63965s-.21191-.87891.02441-1.26367l3.54004-5.77441c.33008-.53906.96582-.74512,1.55176-.49902.58203.24512.88086.84375.72656,1.45703l-.68359,2.71973h2.13281c.41406,0,.75.33594.75.75s-.33594.75-.75.75h-2.45312c-.3877,0-.74707-.17578-.98535-.48145-.23926-.30566-.32129-.69727-.22754-1.07324l.36328-1.44629-2.45312,4.00098h2.01465c.39062,0,.75098.17773.98926.48633.23828.30957.31836.70312.21973,1.08008l-.73535,2.82422c-.08789.33789-.3916.56152-.72461.56152ZM8.11719,11.16602v.00098-.00098Z" fill="var(--iconPrimary, #222)"/>
  <path d="M15,10.5c-2.48535,0-4.5,2.01465-4.5,4.5s2.01465,4.5,4.5,4.5,4.5-2.01465,4.5-4.5-2.01465-4.5-4.5-4.5ZM14.60132,11.77441c.14673-.15454.33936-.23633.53711-.22827.20483-.01489.40552.07007.5542.23462.1355.17407.20581.40405.19531.63867.00659.23291-.06812.45923-.20703.62695-.14331.16699-.33984.25684-.54248.24731-.19873.00806-.39185-.07642-.53711-.23462-.2832-.36475-.2832-.91992,0-1.28467ZM15.88867,17.54492c0,.41406-.33594.75-.75.75s-.75-.33594-.75-.75v-2.5c0-.41406.33594-.75.75-.75s.75.33594.75.75v2.5Z" fill="var(--iconPrimary, #222)"/>
</svg>