<?xml version="1.0" encoding="UTF-8"?>
<svg   xmlns="http://www.w3.org/2000/svg" width="20" height="20" viewBox="0 0 20 20">
  <path d="M15,10.521c-2.48529,0-4.5,2.01489-4.5,4.5,0,2.48535,2.01471,4.5,4.5,4.5s4.5-2.01465,4.5-4.5c0-2.48511-2.01471-4.5-4.5-4.5ZM17.5,15.64648h-1.875v1.875c0,.34473-.27979.625-.625.625s-.625-.28027-.625-.625v-1.875h-1.875c-.34521,0-.625-.28027-.625-.625s.27979-.625.625-.625h1.875v-1.875c0-.34473.27979-.625.625-.625s.625.28027.625.625v1.875h1.875c.34521,0,.625.28027.625.625s-.27979.625-.625.625Z" fill="var(--iconPrimary, #222)" stroke-width="0"/>
  <path d="M8.3374,18h-4.0874c-1.24072,0-2.25-1.00977-2.25-2.25V3.25c0-1.24023,1.00928-2.25,2.25-2.25h9.5c1.24072,0,2.25,1.00977,2.25,2.25v4.93848c0,.41406-.33594.75-.75.75s-.75-.33594-.75-.75V3.25c0-.41309-.33643-.75-.75-.75H4.25c-.41357,0-.75.33691-.75.75v12.5c0,.41309.33643.75.75.75h4.0874c.41406,0,.75.33594.75.75s-.33594.75-.75.75Z" fill="var(--iconPrimary, #222)" stroke-width="0"/>
  <path d="M8.10742,14.93066c-.0625,0-.12598-.00781-.18945-.02441-.40088-.10449-.64111-.51367-.53662-.91504l.65479-2.5127h-2.13721c-.45166,0-.86963-.24512-1.09033-.63965-.22119-.39453-.21143-.87891.02441-1.26367l3.54102-5.77441c.32861-.53906.96631-.74316,1.54883-.5.58301.24512.88281.84375.729,1.45703l-.68359,2.7207h2.13232c.41406,0,.75.33594.75.75s-.33594.75-.75.75h-2.45312c-.38818,0-.74756-.17578-.98633-.48145-.23828-.30664-.3208-.69824-.22559-1.07422l.36328-1.44629-2.45361,4.00195h2.01416c.39014,0,.75049.17676.98877.48535.23877.30859.31934.70215.22119,1.0791l-.73682,2.82715c-.08789.33691-.39209.56055-.7251.56055Z" fill="var(--iconPrimary, #222)" stroke-width="0"/>
</svg>