<?xml version="1.0" encoding="UTF-8"?>
<svg id="e" data-name="ICONS" xmlns="http://www.w3.org/2000/svg" width="20" height="20" viewBox="0 0 20 20">
  <circle cx="15" cy="15" r="4.5" fill="var(--iconPrimary, #222)"/>
  <path d="M16.34082,5.28027l-3.62402-3.62109c-.4248-.4248-.98975-.65918-1.59033-.65918h-5.87646c-1.24072,0-2.25,1.00977-2.25,2.25v12.5c0,1.24023,1.00928,2.25,2.25,2.25h3.44189c.41406,0,.75-.33594.75-.75s-.33594-.75-.75-.75h-3.44189c-.41357,0-.75-.33691-.75-.75V3.25c0-.41309.33643-.75.75-.75h4.75v3.25c0,1.24023,1.00928,2.25,2.25,2.25h3.25v.38281c0,.41406.33594.75.75.75s.75-.33594.75-.75v-1.51172c0-.5918-.24023-1.17188-.65918-1.59082ZM11.5,5.75v-3.13428c.0542.03174.11145.05908.15625.104l3.62402,3.62109c.04565.04565.07385.10376.10602.15918h-3.13629c-.41357,0-.75-.33691-.75-.75Z" fill="var(--iconPrimary, #222)"/>
  <path d="M13.75,16.45334v-2.90669c0-.42868.414-.69002.73316-.46282l2.35068,1.45334c.30029.21377.30029.71188,0,.92565l-2.35068,1.45334c-.31916.2272-.73316-.03415-.73316-.46282Z" fill="#fff"/>
</svg>