<?xml version="1.0" encoding="UTF-8"?>
<svg id="f" data-name="ICONS" xmlns="http://www.w3.org/2000/svg" width="20" height="20" viewBox="0 0 20 20">
  <path d="M8.75,18h-3.5c-1.24023,0-2.25-1.00977-2.25-2.25V3.25c0-1.24023,1.00977-2.25,2.25-2.25h9.5c1.24023,0,2.25,1.00977,2.25,2.25v9c0,.41406-.33594.75-.75.75s-.75-.33594-.75-.75V3.25c0-.41309-.33691-.75-.75-.75H5.25c-.41309,0-.75.33691-.75.75v12.5c0,.41309.33691.75.75.75h3.5c.41406,0,.75.33594.75.75s-.33594.75-.75.75Z" fill="var(--iconPrimary, #222)"/>
  <path d="M9.60449,15.56152c-.16895,0-.3418-.03516-.50977-.10742-.5791-.25098-.87305-.85254-.71289-1.46289l.65332-2.5127h-2.13574c-.45215,0-.87012-.24512-1.09082-.63965s-.21191-.87891.02441-1.26367l3.54004-5.77441c.33008-.53906.96582-.74512,1.55176-.49902.58203.24512.88086.84375.72656,1.45605l-.68359,2.7207h2.13281c.40234,0,.7666.18555.99902.50977.23535.32715.29785.75195.16797,1.1377l-.07422.15527-3.54492,5.69141c-.23828.37891-.62988.58887-1.04395.58887ZM7.34473,9.97852h2.01465c.39062,0,.75098.17773.98926.48633.23828.30957.31836.70312.21973,1.08008l-.32715,1.25586,2.375-3.82227h-1.96875c-.3877,0-.74707-.17578-.98535-.48145-.23926-.30566-.32129-.69727-.22754-1.07324l.36328-1.44629-2.45312,4.00098ZM9.11719,11.16602v.00098-.00098ZM13.55664,8.88574h.00977-.00977Z" fill="var(--iconPrimary, #222)"/>
  <path d="M16.75018,14.50005c.19189,0,.38379.07324.53027.21973l2,2h-.00003c.29297.29297.29297.76758,0,1.06055l-2,2c-.14648.14648-.33789.21973-.53027.21973s-.38379-.07324-.53027-.21973c-.29297-.29297-.29297-.76758,0-1.06055l.71976-.71973h-4.93945c-.41406,0-.75-.33594-.75-.75s.33594-.75.75-.75h4.93945l-.71976-.71973c-.29297-.29297-.29297-.76758,0-1.06055.14648-.14648.33841-.21973.5303-.21973h0Z" fill="var(--iconPrimary, #222)"/>
</svg>