<?xml version="1.0" encoding="UTF-8"?>
<svg id="e" data-name="ICONS" xmlns="http://www.w3.org/2000/svg" width="20" height="20" viewBox="0 0 20 20">
  <path d="M15.75,18h-7.5c-1.24023,0-2.25-1.00977-2.25-2.25V6.25c0-1.24023,1.00977-2.25,2.25-2.25h7.5c1.24023,0,2.25,1.00977,2.25,2.25v9.5c0,1.24023-1.00977,2.25-2.25,2.25ZM8.25,5.5c-.41309,0-.75.33691-.75.75v9.5c0,.41309.33691.75.75.75h7.5c.41309,0,.75-.33691.75-.75V6.25c0-.41309-.33691-.75-.75-.75h-7.5Z" fill="var(--iconPrimary, #222)"/>
  <path d="M11.71875,15.375c-.12988,0-.2627-.02637-.38965-.08203-.44238-.19141-.67578-.66895-.55371-1.13477l.41895-1.60156h-1.34668c-.35156,0-.67676-.19043-.84863-.49707-.1709-.30664-.16309-.68262.02051-.98145l2.45703-3.98926c.25293-.41113.76172-.57324,1.20703-.38574.44434.1875.68164.66309.56445,1.13086l-.44043,1.74512h1.34473c.35449,0,.68164.19336.85254.50391.16992.30957.1582.68652-.03027.98535l-2.43652,3.85254c-.18359.29102-.49512.4541-.81934.4541ZM10.34668,11.30664h1.20898c.30371,0,.58398.1377.76855.37695.18555.23926.24805.54395.17285.83594l-.05762.21777,1.20703-1.9082h-1.19727c-.30273,0-.58203-.13672-.76758-.375-.18457-.23828-.24805-.54199-.17383-.83398l.08496-.33594-1.24609,2.02246ZM12.71973,9.92676v.00098-.00098Z" fill="var(--iconPrimary, #222)"/>
  <path d="M3.75,14c-.41406,0-.75-.33594-.75-.75V3.25c0-1.24023,1.00977-2.25,2.25-2.25h6c.41406,0,.75.33594.75.75s-.33594.75-.75.75h-6c-.41309,0-.75.33691-.75.75v10c0,.41406-.33594.75-.75.75Z" fill="var(--iconPrimary, #222)"/>
</svg>