<?xml version="1.0" encoding="UTF-8"?>
<svg id="e" data-name="ICONS" xmlns="http://www.w3.org/2000/svg" width="20" height="20" viewBox="0 0 20 20">
  <path d="M8.17578,18H3.25195c-1.24023,0-2.25-1.00977-2.25-2.25V3.25c0-1.24023,1.00977-2.25,2.25-2.25h9.5c1.24023,0,2.25,1.00977,2.25,2.25v4c0,.41406-.33594.75-.75.75s-.75-.33594-.75-.75V3.25c0-.41309-.33691-.75-.75-.75H3.25195c-.41309,0-.75.33691-.75.75v12.5c0,.41309.33691.75.75.75h4.92383c.41406,0,.75.33594.75.75s-.33594.75-.75.75Z" fill="var(--iconPrimary, #222)"/>
  <path id="f" data-name="Path 1036932" d="M15.45305,13.02549l-.95305,1.74564h1.90545l-.9524-1.74564Z" fill="var(--iconPrimary, #222)"/>
  <path d="M16.40527,15.39648h-1.90527c-.2207,0-.4248-.11621-.53711-.30566-.11328-.19043-.11719-.4248-.01172-.61914l.95312-1.74609c.10938-.2002.32031-.3252.54883-.3252h0c.22852,0,.43945.125.54883.32617l.95215,1.74609c.10547.19336.10156.42871-.01172.61816-.1123.18945-.31641.30566-.53711.30566Z" fill="var(--iconPrimary, #222)"/>
  <path d="M12.59863,15.39648c-.10059,0-.20312-.02441-.29883-.07617-.30273-.16602-.41406-.54492-.24902-.84863l.68652-1.25781c.16504-.30273.54199-.41504.84863-.24902.30273.16602.41406.54492.24902.84863l-.68652,1.25781c-.11328.20801-.32812.3252-.5498.3252Z" fill="var(--iconPrimary, #222)"/>
  <path d="M7.59473,15.55664c-.31641,0-.62891-.12012-.86914-.3457-.33301-.3125-.46191-.76855-.34375-1.21973l.65332-2.5127h-2.13574c-.45215,0-.87012-.24512-1.09082-.63965s-.21191-.87891.02441-1.26367l3.54004-5.77539c.33203-.54004.9668-.74609,1.55176-.49902.58203.24609.87988.84473.72656,1.45703l-.68359,2.7207h.17383c.41406,0,.75.33594.75.75s-.33594.75-.75.75h-.49414c-.3877,0-.74707-.17578-.98535-.48145-.23926-.30566-.32129-.69727-.22754-1.07324l.36426-1.44824-2.4541,4.00293h2.01465c.39062,0,.75098.17773.99023.48633.2373.30859.31738.70215.21875,1.0791l-.65234,2.50586c.24805.05664.46094.2373.5459.49609.12988.39355-.08301.81738-.47656.94727-.12793.04297-.25977.06348-.39062.06348ZM7.51562,14.06934h-.00098.00098ZM7.11719,11.16504l-.00098.00098.00098-.00098Z" fill="var(--iconPrimary, #222)"/>
  <path d="M14.50293,19.5c-1.17871,0-2.30078-.48047-3.16016-1.35156-.87012-.88281-1.3584-2.08105-1.34082-3.28809v-3.61035c0-.96484.78516-1.75,1.75-1.75h5.5c.96484,0,1.75.78516,1.75,1.75v3.62109c.01758,1.19629-.4707,2.39453-1.34082,3.27734-.85938.87207-1.98047,1.35156-3.1582,1.35156ZM11.75195,11c-.1377,0-.25.1123-.25.25v3.62109c-.01172.81934.31934,1.62598.90918,2.22461,1.15039,1.16602,3.03125,1.16602,4.18164,0,.58984-.59863.9209-1.40527.90918-2.21387v-3.63184c0-.1377-.1123-.25-.25-.25h-5.5Z" fill="var(--iconPrimary, #222)"/>
</svg>