<?xml version="1.0" encoding="UTF-8"?>
<svg id="f" data-name="ICONS" xmlns="http://www.w3.org/2000/svg" width="20" height="20" viewBox="0 0 20 20">
  <path d="M7.75,18h-3.5c-1.24023,0-2.25-1.00977-2.25-2.25V3.25c0-1.24023,1.00977-2.25,2.25-2.25h9.5c1.24023,0,2.25,1.00977,2.25,2.25v4.25c0,.41406-.33594.75-.75.75s-.75-.33594-.75-.75V3.25c0-.41309-.33691-.75-.75-.75H4.25c-.41309,0-.75.33691-.75.75v12.5c0,.41309.33691.75.75.75h3.5c.41406,0,.75.33594.75.75s-.33594.75-.75.75Z" fill="var(--iconPrimary, #222)"/>
  <path d="M8.1084,14.93066c-.06348,0-.12695-.00781-.18945-.02441-.40137-.10449-.6416-.51367-.53711-.91406l.65332-2.51367h-2.13574c-.45215,0-.87012-.24512-1.09082-.63965s-.21191-.87891.02441-1.26367l3.54004-5.77441c.33008-.53906.96582-.74512,1.55176-.49902.58203.24512.88086.84375.72656,1.45703l-.68359,2.71973h2.13281c.40234,0,.7666.18555.99902.50977.23535.32715.29785.75195.16797,1.1377-.13086.39258-.55469.60352-.95117.4707-.28125-.0957-.46973-.3418-.50391-.61816h-2.16504c-.3877,0-.74707-.17578-.98535-.48145-.23926-.30566-.32129-.69727-.22754-1.07324l.36328-1.44629-2.45312,4.00098h2.01465c.39062,0,.75098.17773.98926.48633.23828.30957.31836.70312.21973,1.08008l-.73535,2.82422c-.08789.33789-.3916.56152-.72461.56152ZM8.11719,11.16602v.00098-.00098Z" fill="var(--iconPrimary, #222)"/>
  <path d="M15,10.5c-2.48535,0-4.5,2.01465-4.5,4.5s2.01465,4.5,4.5,4.5,4.5-2.01465,4.5-4.5-2.01465-4.5-4.5-4.5ZM17.39941,13.84961l-2.30957,3.14941c-.11133.15234-.28516.24609-.47266.25488-.01074.00098-.02051.00098-.03125.00098-.17676,0-.3457-.0752-.46484-.20703l-1.4375-1.59863c-.23047-.25684-.20996-.65234.04688-.88281.25488-.23047.65137-.20996.88281.04688l.92285,1.02734,1.85547-2.5293c.20215-.2793.59375-.34082.87305-.13477.2793.2041.33887.59473.13477.87305Z" fill="var(--iconPrimary, #222)"/>
</svg>