<?xml version="1.0" encoding="UTF-8"?>
<svg id="f" data-name="ICONS" xmlns="http://www.w3.org/2000/svg" width="20" height="20" viewBox="0 0 20 20">
  <path d="M15.75781,15.17188c-1.36621,0-2.47754-1.16016-2.47754-2.58594s1.11133-2.58594,2.47754-2.58594,2.47754,1.16016,2.47754,2.58594-1.11133,2.58594-2.47754,2.58594ZM15.75781,11.5c-.53906,0-.97754.4873-.97754,1.08594s.43848,1.08594.97754,1.08594.97754-.4873.97754-1.08594-.43848-1.08594-.97754-1.08594Z" fill="var(--iconPrimary, #222)"/>
  <path d="M12.75195,19.5c-.08203,0-.16602-.01367-.24805-.04199-.39062-.13672-.59668-.56543-.45996-.95605.45996-1.3125,1.98633-2.22852,3.71289-2.22852,1.72754,0,3.21289.88086,3.69727,2.19141.14258.38867-.05566.82031-.44434.96387s-.81934-.05566-.96387-.44434c-.22168-.60156-1.0791-1.21094-2.28906-1.21094-1.22656,0-2.08398.61621-2.29688,1.22461-.1084.30859-.39844.50195-.70801.50195Z" fill="var(--iconPrimary, #222)"/>
  <path d="M10.66797,18h-5.41797c-1.24023,0-2.25-1.00977-2.25-2.25V3.25c0-1.24023,1.00977-2.25,2.25-2.25h9.5c1.24023,0,2.25,1.00977,2.25,2.25v4.51465c0,.41406-.33594.75-.75.75s-.75-.33594-.75-.75V3.25c0-.41309-.33691-.75-.75-.75H5.25c-.41309,0-.75.33691-.75.75v12.5c0,.41309.33691.75.75.75h5.41797c.41406,0,.75.33594.75.75s-.33594.75-.75.75Z" fill="var(--iconPrimary, #222)"/>
  <path d="M9.59473,15.55176c-.29199,0-.58398-.10156-.81738-.29688-.36719-.30762-.51953-.79199-.39551-1.26465l.65332-2.51172h-2.13574c-.45215,0-.87012-.24512-1.09082-.63965s-.21191-.87891.02441-1.26367l3.54004-5.77441c.33008-.53906.96484-.74512,1.55176-.49902.58203.24512.88086.84375.72656,1.45703l-.68359,2.71973h2.13281c.26367,0,.50977.08301.7334.24707.33398.24512.40527.71484.16016,1.04883-.23047.31152-.65625.39355-.98145.2041h-2.36523c-.3877,0-.74707-.17578-.98535-.48145-.23926-.30566-.32129-.69727-.22754-1.07324l.36328-1.44629-2.45312,4.00098h2.01465c.39062,0,.75098.17676.98926.48633.23828.30859.31836.70215.21973,1.0791l-.33789,1.29688.61328-.87012c.23828-.33984.70508-.42285,1.04492-.18164.33887.23828.41992.70605.18164,1.04492l-1.6582,2.35547c-.07617.10742-.17871.19336-.29785.24902-.16504.07617-.3418.11328-.51953.11328Z" fill="var(--iconPrimary, #222)"/>
</svg>