<?xml version="1.0" encoding="UTF-8"?>
<svg id="f" data-name="ICONS" xmlns="http://www.w3.org/2000/svg" width="20" height="20" viewBox="0 0 20 20">
  <path d="M18,14v-1c0-1.37891-1.12109-2.5-2.5-2.5s-2.5,1.12109-2.5,2.5v1c-.55225,0-1,.44775-1,1v3c0,.55225.44775,1,1,1h5c.55225,0,1-.44775,1-1v-3c0-.55225-.44775-1-1-1ZM14.5,13c0-.55176.44824-1,1-1s1,.44824,1,1v1h-2v-1Z" fill="var(--iconPrimary, #222)"/>
  <path d="M9.75,18h-5.5c-1.24023,0-2.25-1.00977-2.25-2.25V3.25c0-1.24023,1.00977-2.25,2.25-2.25h9.5c1.24023,0,2.25,1.00977,2.25,2.25v5c0,.41406-.33594.75-.75.75s-.75-.33594-.75-.75V3.25c0-.41309-.33691-.75-.75-.75H4.25c-.41309,0-.75.33691-.75.75v12.5c0,.41309.33691.75.75.75h5.5c.41406,0,.75.33594.75.75s-.33594.75-.75.75Z" fill="var(--iconPrimary, #222)"/>
  <path d="M8.60449,15.56152c-.16895,0-.3418-.03516-.50977-.10742-.5791-.25098-.87305-.85254-.71289-1.46289l.65332-2.5127h-2.13574c-.45215,0-.87012-.24512-1.09082-.63965s-.21191-.87891.02441-1.26367l3.54004-5.77441c.33008-.53906.96484-.74512,1.55176-.49902.58203.24512.88086.84375.72656,1.45605l-.68359,2.7207h2.13281c.40234,0,.7666.18555.99902.50977.23535.32715.29785.75195.16797,1.1377-.13184.39258-.55176.60352-.95117.4707-.28125-.0957-.46973-.3418-.50391-.61816h-2.16504c-.3877,0-.74707-.17578-.98535-.48145-.23926-.30566-.32129-.69727-.22754-1.07324l.36328-1.44629-2.45312,4.00098h2.01465c.39062,0,.75098.17773.98926.48633.23828.30957.31836.70312.21973,1.08008l-.33789,1.2959c.24219-.26074.6416-.32617.9541-.12891.35059.2207.45605.68359.23535,1.03418l-.77148,1.22656c-.23828.37891-.62988.58887-1.04395.58887ZM8.11719,11.16602v.00098-.00098Z" fill="var(--iconPrimary, #222)"/>
</svg>