<?xml version="1.0" encoding="UTF-8"?>
<svg id="e" data-name="ICONS" xmlns="http://www.w3.org/2000/svg" width="20" height="20" viewBox="0 0 20 20">
  <path d="M19.27881,18.22168l-1.97351-1.97351c.43671-.64087.69324-1.4137.69324-2.24622,0-2.20605-1.79443-4-4-4s-4,1.79395-4,4,1.79443,4,4,4c.83234,0,1.60529-.25659,2.24615-.69336l1.97357,1.97363c.14648.14648.33838.21973.53027.21973s.38379-.07324.53027-.21973c.29297-.29297.29297-.76758,0-1.06055ZM11.49854,14.00195c0-1.37891,1.12158-2.5,2.5-2.5s2.5,1.12109,2.5,2.5-1.12158,2.5-2.5,2.5-2.5-1.12109-2.5-2.5Z" fill="var(--iconPrimary, #222)"/>
  <path d="M8.66846,18H3.25c-1.24072,0-2.25-1.00977-2.25-2.25V3.25c0-1.24023,1.00928-2.25,2.25-2.25h9.5c1.24072,0,2.25,1.00977,2.25,2.25v4.51465c0,.41406-.33594.75-.75.75s-.75-.33594-.75-.75V3.25c0-.41309-.33643-.75-.75-.75H3.25c-.41357,0-.75.33691-.75.75v12.5c0,.41309.33643.75.75.75h5.41846c.41406,0,.75.33594.75.75s-.33594.75-.75.75Z" fill="var(--iconPrimary, #222)"/>
  <path d="M7.59473,15.55176c-.29199,0-.58301-.10156-.81641-.2959-.36768-.30762-.52002-.79102-.39746-1.26367l.65527-2.51367h-2.13672c-.45215,0-.87061-.24512-1.09131-.63965s-.21045-.87988.02588-1.26465l3.53955-5.77344c.3291-.53906.9668-.74316,1.55029-.5.58301.24512.88232.84473.72803,1.45801l-.68359,2.71973h2.13281c.26074,0,.51465.08594.73438.24805.33301.24707.40332.7168.15723,1.0498-.23047.30957-.65527.3916-.97998.20215h-2.36523c-.38818,0-.74756-.17578-.98633-.48145-.23828-.30664-.3208-.69824-.22559-1.07422l.36328-1.44531-2.45312,4.00098h2.01367c.39014,0,.75049.17676.98877.48535.23877.30859.31934.70215.22119,1.0791l-.64502,2.47559c.23486.04004.44678.19141.55469.42383.17383.37598.01025.82227-.36572.99609-.16455.07617-.3418.11328-.51855.11328ZM7.48389,14.07715h-.00049.00049Z" fill="var(--iconPrimary, #222)"/>
</svg>