<?xml version="1.0" encoding="UTF-8"?>
<svg   xmlns="http://www.w3.org/2000/svg" width="20" height="20" viewBox="0 0 20 20">
  <path d="M15.75,2H4.25c-1.24072,0-2.25,1.00977-2.25,2.25v11.5c0,1.24023,1.00928,2.25,2.25,2.25h11.5c1.24072,0,2.25-1.00977,2.25-2.25V4.25c0-1.24023-1.00928-2.25-2.25-2.25ZM16.5,4.25v1.625h-2.375v-2.375h1.625c.41357,0,.75.33691.75.75ZM10.75,14.375h2.125v2.125h-2.125v-2.125ZM10.75,13.125v-2.375h2.125v2.375h-2.125ZM10.75,3.5h2.125v2.375h-2.125v-2.375ZM10.75,7.125h2.125v2.125h-2.125v-2.125ZM14.125,10.75h2.375v2.375h-2.375v-2.375ZM14.125,9.25v-2.125h2.375v2.125h-2.375ZM4.25,3.5h5v5.75H3.5v-5c0-.41309.33643-.75.75-.75ZM3.5,15.75v-5h5.75v5.75h-5c-.41357,0-.75-.33691-.75-.75ZM15.75,16.5h-1.625v-2.125h2.375v1.375c0,.41309-.33643.75-.75.75Z" fill="var(--iconPrimary, #222)"/>
</svg>