<?xml version="1.0" encoding="UTF-8"?>
<svg xmlns="http://www.w3.org/2000/svg" width="20" height="20" viewBox="0 0 20 20">
  <path d="M18,4.25c0-1.24023-1.00977-2.25-2.25-2.25H4.25c-1.24023,0-2.25,1.00977-2.25,2.25v1.5c0,.57812.22559,1.10107.58545,1.5-.35986.39893-.58545.92188-.58545,1.5v3.5c0,.57812.22559,1.10107.58545,1.5-.35986.39893-.58545.92188-.58545,1.5v.5c0,1.24023,1.00977,2.25,2.25,2.25h11.5c1.24023,0,2.25-1.00977,2.25-2.25v-.5c0-.57812-.22559-1.10107-.58545-1.5.35986-.39893.58545-.92188.58545-1.5v-3.5c0-.57812-.22559-1.10107-.58545-1.5.35986-.39893.58545-.92188.58545-1.5v-1.5ZM3.5,4.25c0-.41309.33691-.75.75-.75h11.5c.41309,0,.75.33691.75.75v1.5c0,.41309-.33691.75-.75.75H4.25c-.41309,0-.75-.33691-.75-.75v-1.5ZM16.5,8.75v3.5c0,.41309-.33691.75-.75.75H4.25c-.41309,0-.75-.33691-.75-.75v-3.5c0-.41309.33691-.75.75-.75h11.5c.41309,0,.75.33691.75.75ZM16.5,15.75c0,.41309-.33691.75-.75.75H4.25c-.41309,0-.75-.33691-.75-.75v-.5c0-.41309.33691-.75.75-.75h11.5c.41309,0,.75.33691.75.75v.5Z" fill="var(--iconPrimary, #222)"/>
</svg>