<?xml version="1.0" encoding="UTF-8"?>
<svg id="e" data-name="ICONS" xmlns="http://www.w3.org/2000/svg" width="20" height="20" viewBox="0 0 20 20">
  <path d="M7.78906,10.96777l-3.04639-7.5c-.22949-.56641-1.16016-.56641-1.38965,0L.30664,10.96777c-.15576.38379.02881.82129.4126.97754.38428.1543.82129-.03027.97705-.41309l.92706-2.28223h2.849l.92706,2.28223c.11816.29102.39893.46777.69531.46777.09375,0,.18945-.01758.28174-.05469.38379-.15625.56836-.59375.4126-.97754ZM3.23267,7.75l.81519-2.00684.81519,2.00684h-1.63037Z" fill="var(--iconPrimary, #222)"/>
  <path d="M9.38965,12h-.63818c-.41406,0-.75-.33594-.75-.75V3.75c0-.41406.33594-.75.75-.75h1.61182c1.44678,0,2.58008,1.12891,2.58008,2.57031,0,.58984-.16406,1.11621-.45215,1.53613.43066.30469.77295.74316.96289,1.26953.14111.38965-.06055.81934-.4502.95996-.39062.14062-.81934-.06055-.95996-.4502-.16455-.4541-.55859-.74707-1.00488-.74707h-1.5376v2.36914c.36133.05469.63818.36621.63818.74219,0,.41406-.33594.75-.75.75ZM9.50146,6.63867h.95947c.59668,0,.98242-.41895.98242-1.06836,0-.62012-.4541-1.07031-1.08008-1.07031h-.86182v2.13867Z" fill="var(--iconPrimary, #222)"/>
  <path d="M14.57129,9.0166c-.35352,0-.66846-.25098-.73633-.61133-.05518-.2959-.0835-.60059-.0835-.90527-.00049-2.98145,2.67285-5.34082,5.52295-4.22168.38623.15039.57617.58594.42529.97168-.15088.38672-.5874.57617-.97119.4248-.30127-.11719-.57812-.1748-.84668-.1748-1.4502,0-2.63037,1.3457-2.63037,3,0,.21191.01953.42383.05811.62793.07617.40723-.19189.7998-.59912.87598-.04639.00879-.09326.0127-.13916.0127Z" fill="var(--iconPrimary, #222)"/>
  <circle cx="15" cy="15" r="4.5"/>
  <path d="M14.58643,17.25488c-.17676,0-.3457-.0752-.46484-.20703l-1.43848-1.59863c-.23047-.25684-.20996-.65137.04688-.88281.25537-.23145.65137-.21094.88281.04688l.92432,1.02734,1.85449-2.5293c.2041-.27832.59619-.33887.87354-.13477.27832.2041.33838.59473.13428.87305l-2.30908,3.14941c-.11133.15234-.28467.24609-.47266.25488-.01025.00098-.021.00098-.03125.00098Z" fill="#fff"/>
</svg>