<?xml version="1.0" encoding="UTF-8"?>
<svg id="e" data-name="ICONS" xmlns="http://www.w3.org/2000/svg" width="20" height="20" viewBox="0 0 20 20">
  <path d="M14.52197,3H5.47803c-1.22852,0-2.22803,1.00977-2.22803,2.25v1.11035c0,.41406.33594.75.75.75s.75-.33594.75-.75v-1.11035c0-.41309.32666-.75.72803-.75h3.77197v11h-1.56982c-.41406,0-.75.33594-.75.75s.33594.75.75.75h4.63965c.41406,0,.75-.33594.75-.75s-.33594-.75-.75-.75h-1.56982V4.5h3.77197c.40137,0,.72803.33691.72803.75v1.11035c0,.41406.33594.75.75.75s.75-.33594.75-.75v-1.11035c0-1.24023-.99951-2.25-2.22803-2.25Z" fill="var(--iconPrimary, #222)"/>
  <path d="M7.68018,19c-1.51611,0-2.75-1.2334-2.75-2.75,0-1.37012,1.0073-2.50977,2.31982-2.7168v-7.0332h-.50342c-.07324,1.45215-1.27686,2.61035-2.74658,2.61035-1.5166,0-2.75-1.2334-2.75-2.75v-1.11035C1.25,2.90625,3.14648,1,5.47803,1h9.04395c2.33154,0,4.22803,1.90625,4.22803,4.25v1.11035c0,1.5166-1.2334,2.75-2.75,2.75-1.46973,0-2.67334-1.1582-2.74658-2.61035h-.50342v7.0332c1.31248.20703,2.31982,1.34668,2.31982,2.7168,0,1.5166-1.23389,2.75-2.75,2.75h-4.63965Z" fill="var(--iconPrimary, #222)" opacity=".35"/>
</svg>