<?xml version="1.0" encoding="UTF-8"?>
<svg id="e" data-name="ICONS" xmlns="http://www.w3.org/2000/svg" width="20" height="20" viewBox="0 0 20 20">
  <path d="M17.24805,12H2.74805c-.41406,0-.75-.33594-.75-.75s.33594-.75.75-.75h14.5c.41406,0,.75.33594.75.75s-.33594.75-.75.75Z" fill="var(--iconPrimary, #222)"/>
  <path d="M17.24805,15H2.74805c-.41406,0-.75-.33594-.75-.75s.33594-.75.75-.75h14.5c.41406,0,.75.33594.75.75s-.33594.75-.75.75Z" fill="var(--iconPrimary, #222)"/>
  <path d="M17.24805,18H2.74805c-.41406,0-.75-.33594-.75-.75s.33594-.75.75-.75h14.5c.41406,0,.75.33594.75.75s-.33594.75-.75.75Z" fill="var(--iconPrimary, #222)"/>
</svg>