<?xml version="1.0" encoding="UTF-8"?>
<svg id="e" data-name="ICONS" xmlns="http://www.w3.org/2000/svg" width="20" height="20" viewBox="0 0 20 20">
  <path d="M12.58984,2H3.41016c-1.24072,0-2.25,1.00977-2.25,2.25v1.11035c0,.41406.33594.75.75.75s.75-.33594.75-.75v-1.11035c0-.41309.33643-.75.75-.75h3.83984v13h-1.56982c-.41406,0-.75.33594-.75.75s.33594.75.75.75h4.63965c.41406,0,.75-.33594.75-.75s-.33594-.75-.75-.75h-1.56982V3.5h3.83984c.41357,0,.75.33691.75.75v1.11035c0,.41406.33594.75.75.75s.75-.33594.75-.75v-1.11035c0-1.24023-1.00928-2.25-2.25001-2.25Z" fill="var(--iconPrimary, #222)"/>
  <path d="M19.45898,12.39844c-.21875-.39648-.63477-.64355-1.08691-.64453h-2.08984l.67188-2.66602c.15332-.60938-.14355-1.20508-.72266-1.44922-.58008-.24121-1.21289-.04004-1.54199.49512l-3.49023,5.68945c-.23438.38184-.24414.86328-.02539,1.25488.21875.39258.63379.63672,1.08496.6377h2.09082l-.64258,2.46289c-.1582.60645.13379,1.2041.70898,1.45312.16699.07227.33887.10742.50684.10742.41211,0,.80078-.20801,1.03809-.58496l3.45996-5.49414c.24121-.38281.25586-.86621.03809-1.26172h-.00002ZM15.57812,16.94629l.30664-1.1748c.09766-.37402.01758-.76465-.21875-1.07129s-.59375-.4834-.9834-.48438h-1.96484l2.37109-3.86328-.3418,1.35547c-.09375.37305-.01172.76172.22461,1.06543.23633.30469.59277.47949.98047.48047h1.95117l-2.3252,3.69238h.00001Z" fill="var(--iconPrimary, #222)"/>
</svg>