<?xml version="1.0" encoding="UTF-8"?>
<svg xmlns="http://www.w3.org/2000/svg" width="20" height="20" viewBox="0 0 20 20">
  <path d="M13.11426,4h-6.00391c-.95508,0-1.73145.7832-1.73145,1.74609v.73633c0,.41406.33594.75.75.75s.75-.33594.75-.75v-.73633c0-.13574.10352-.24609.23145-.24609h2.25195v9h-.93066c-.41406,0-.75.33594-.75.75s.33594.75.75.75h3.36035c.41406,0,.75-.33594.75-.75s-.33594-.75-.75-.75h-.92969V5.5h2.25195c.12695,0,.23047.11035.23047.24609v.73633c0,.41406.33594.75.75.75s.75-.33594.75-.75v-.73633c0-.96289-.77637-1.74609-1.73047-1.74609Z" fill="var(--iconPrimary, #222)" opacity=".5"/>
  <path d="M1.75,18c-.41406,0-.75-.33594-.75-.75V2.75c0-.41406.33594-.75.75-.75s.75.33594.75.75v14.5c0,.41406-.33594.75-.75.75Z" fill="var(--iconPrimary, #222)"/>
</svg>