<?xml version="1.0" encoding="UTF-8"?>
<svg id="e" data-name="ICONS" xmlns="http://www.w3.org/2000/svg" width="20" height="20" viewBox="0 0 20 20">
  <path d="M17.25,14.75001h-4.20215c.23926-1.79492,1.34766-2.65039,2.51367-3.5498,1.14258-.88086,2.32324-1.79199,2.32324-3.52539,0-1.41699-.82129-2.60352-2.09277-3.02344-1.11719-.36816-2.76367-.15332-4.0332,1.55664-.24707.33301-.17676.80273.15527,1.0498.33398.24707.80273.17676,1.0498-.15527.79297-1.07031,1.7373-1.2334,2.35742-1.02637.65625.21582,1.06348.8291,1.06348,1.59863,0,.9502-.62793,1.48047-1.73926,2.33789-1.40137,1.08105-3.14551,2.42676-3.14551,5.4873,0,.41406.33594.75.75.75h5c.41406,0,.75-.33594.75-.75s-.33594-.75-.75-.75Z" fill="var(--iconPrimary, #222)"/>
  <path d="M8.77637,4.49219c-.41406,0-.75.33594-.75.75v4.37891H3.5v-4.37891c0-.41406-.33594-.75-.75-.75s-.75.33594-.75.75v10.25781c0,.41406.33594.75.75.75s.75-.33594.75-.75v-4.37891h4.52637v4.37891c0,.41406.33594.75.75.75s.75-.33594.75-.75V5.24219c0-.41406-.33594-.75-.75-.75Z" fill="var(--iconPrimary, #222)"/>
</svg>