<?xml version="1.0" encoding="UTF-8"?>
<svg id="e" data-name="ICONS" xmlns="http://www.w3.org/2000/svg" width="20" height="20" viewBox="0 0 20 20">
  <path d="M16.75,17H3.25c-1.24072,0-2.25-1.00977-2.25-2.25V5.25c0-1.24023,1.00928-2.25,2.25-2.25h13.5c1.24072,0,2.25,1.00977,2.25,2.25v9.5c0,1.24023-1.00928,2.25-2.25,2.25ZM3.25,4.5c-.41357,0-.75.33691-.75.75v9.5c0,.41309.33643.75.75.75h13.5c.41357,0,.75-.33691.75-.75V5.25c0-.41309-.33643-.75-.75-.75H3.25Z" fill="var(--iconPrimary, #222)"/>
  <path d="M15.29785,9.48828l-2.09961-2.25c-.2832-.30273-.75684-.31836-1.05957-.03711-.30273.2832-.31934.75781-.03613,1.06055l.92224.98828h-6.04956l.92224-.98828c.2832-.30273.2666-.77734-.03613-1.06055-.30273-.28125-.77637-.26562-1.05957.03711l-2.09961,2.25c-.26953.28809-.26953.73535,0,1.02344l2.09961,2.25c.14746.1582.34766.23828.54785.23828.18359,0,.36719-.06641.51172-.20117.30273-.2832.31934-.75781.03613-1.06055l-.92224-.98828h6.04956l-.92224.98828c-.2832.30273-.2666.77734.03613,1.06055.14453.13477.32812.20117.51172.20117.2002,0,.40039-.08008.54785-.23828l2.09961-2.25c.26953-.28809.26953-.73535,0-1.02344Z" fill="var(--iconPrimary, #222)"/>
</svg>