<?xml version="1.0" encoding="UTF-8"?>
<svg xmlns="http://www.w3.org/2000/svg" width="20" height="20" viewBox="0 0 20 20">
  <path d="M14.75,11h-3.88831c.08411-.23584.13831-.48584.13831-.75v-1.5c0-.26416-.0542-.51416-.13831-.75h.88831c1.24023,0,2.25-1.00977,2.25-2.25v-1.5c0-1.24023-1.00977-2.25-2.25-2.25h-7.5c-1.24023,0-2.25,1.00977-2.25,2.25v1.5c0,.57812.22559,1.10107.58545,1.5-.35986.39893-.58545.92188-.58545,1.5v1.5c0,.57812.22559,1.10107.58545,1.5-.35986.39893-.58545.92188-.58545,1.5v1.5c0,1.24023,1.00977,2.25,2.25,2.25h10.5c1.24023,0,2.25-1.00977,2.25-2.25v-1.5c0-1.24023-1.00977-2.25-2.25-2.25ZM9.5,8.75v1.5c0,.41309-.33691.75-.75.75h-4.5c-.41309,0-.75-.33691-.75-.75v-1.5c0-.41309.33691-.75.75-.75h4.5c.41309,0,.75.33691.75.75ZM3.5,4.25c0-.41309.33691-.75.75-.75h7.5c.41309,0,.75.33691.75.75v1.5c0,.41309-.33691.75-.75.75h-7.5c-.41309,0-.75-.33691-.75-.75v-1.5ZM15.5,14.75c0,.41309-.33691.75-.75.75H4.25c-.41309,0-.75-.33691-.75-.75v-1.5c0-.41309.33691-.75.75-.75h10.5c.41309,0,.75.33691.75.75v1.5Z" fill="var(--iconPrimary, #222)"/>
</svg>