<?xml version="1.0" encoding="UTF-8"?>
<svg id="d" data-name="ICONS" xmlns="http://www.w3.org/2000/svg" width="20" height="20" viewBox="0 0 20 20">
  <path d="M16.75,15.00003h-5.91748c-.41406,0-.75-.33594-.75-.75s.33594-.75.75-.75h5.91748c.41357,0,.75-.33691.75-.75v-5.5c0-.41309-.33643-.75-.75-.75h-5.97852c-.41406,0-.75-.33594-.75-.75s.33594-.75.75-.75h5.97852c1.24072,0,2.25,1.00977,2.25,2.25v5.5c0,1.24023-1.00928,2.25-2.25,2.25Z" fill="var(--iconPrimary, #222)"/>
  <path d="M4.78857,15.00003h-1.53857c-1.24072,0-2.25-1.00977-2.25-2.25v-5.5c0-1.24023,1.00928-2.25,2.25-2.25h1.52051c.41406,0,.75.33594.75.75s-.33594.75-.75.75h-1.52051c-.41357,0-.75.33691-.75.75v5.5c0,.41309.33643.75.75.75h1.53857c.41406,0,.75.33594.75.75s-.33594.75-.75.75Z" fill="var(--iconPrimary, #222)"/>
  <path d="M10.75,16.50003c-1.24072,0-2.25-1.00977-2.25-2.25V5.75003c0-1.24023,1.00928-2.25,2.25-2.25.41406,0,.75-.33594.75-.75s-.33594-.75-.75-.75c-1.23108,0-2.31592.60425-3,1.52319-.68408-.91895-1.76892-1.52319-3-1.52319-.41406,0-.75.33594-.75.75s.33594.75.75.75c1.24072,0,2.25,1.00977,2.25,2.25v8.5c0,1.24023-1.00928,2.25-2.25,2.25-.41406,0-.75.33594-.75.75s.33594.75.75.75c1.23108,0,2.31592-.60425,3-1.52319.68408.91895,1.76892,1.52319,3,1.52319.41406,0,.75-.33594.75-.75s-.33594-.75-.75-.75Z" fill="var(--iconPrimary, #222)"/>
</svg>