<?xml version="1.0" encoding="UTF-8"?>
<svg id="e" data-name="ICONS" xmlns="http://www.w3.org/2000/svg" width="20" height="20" viewBox="0 0 20 20">
  <path d="M10,1.25C5.17529,1.25,1.25,5.1748,1.25,10s3.92529,8.75,8.75,8.75,8.75-3.9248,8.75-8.75S14.82471,1.25,10,1.25ZM10,17.25c-3.99756,0-7.25-3.25195-7.25-7.25s3.25244-7.25,7.25-7.25,7.25,3.25195,7.25,7.25-3.25244,7.25-7.25,7.25Z" fill="var(--iconPrimary, #222)"/>
  <path d="M12.75,5.5h-5.5c-.96484,0-1.75.78027-1.75,1.73926v.76074c0,.41406.33594.75.75.75s.75-.33594.75-.75v-.76074c0-.13184.1123-.23926.25-.23926h2v7h-.70068c-.41406,0-.75.33594-.75.75s.33594.75.75.75h2.90137c.41406,0,.75-.33594.75-.75s-.33594-.75-.75-.75h-.70068v-7h2c.1377,0,.25.10742.25.23926v.76074c0,.41406.33594.75.75.75s.75-.33594.75-.75v-.76074c0-.95898-.78516-1.73926-1.75-1.73926Z" fill="var(--iconPrimary, #222)"/>
</svg>