<?xml version="1.0" encoding="UTF-8"?>
<svg id="e" data-name="ICONS" xmlns="http://www.w3.org/2000/svg" width="20" height="20" viewBox="0 0 20 20">
  <path d="M7.67969,18c-.96484,0-1.75-.78516-1.75-1.75s.78516-1.75,1.75-1.75h.57031V5.5h-2.5v.86035c0,.96484-.78516,1.75-1.75,1.75s-1.75-.78516-1.75-1.75v-1.11035c0-1.79199,1.44824-3.25,3.22754-3.25h9.04492c1.7793,0,3.22754,1.45801,3.22754,3.25v1.11035c0,.96484-.78516,1.75-1.75,1.75s-1.75-.78516-1.75-1.75v-.86035h-2.5v9h.57031c.96484,0,1.75.78516,1.75,1.75s-.78516,1.75-1.75,1.75h-4.64062Z" fill="var(--iconPrimary, #222)" opacity=".35"/>
  <path d="M14.52246,3H5.47754c-1.22852,0-2.22754,1.00977-2.22754,2.25v1.11035c0,.41406.33594.75.75.75s.75-.33594.75-.75v-1.11035c0-.41309.32617-.75.72754-.75h3.77246v11h-1.57031c-.41406,0-.75.33594-.75.75s.33594.75.75.75h4.64062c.41406,0,.75-.33594.75-.75s-.33594-.75-.75-.75h-1.57031V4.5h3.77246c.40137,0,.72754.33691.72754.75v1.11035c0,.41406.33594.75.75.75s.75-.33594.75-.75v-1.11035c0-1.24023-.99902-2.25-2.22754-2.25Z" fill="var(--iconPrimary, #222)"/>
</svg>