<?xml version="1.0" encoding="UTF-8"?>
<svg id="e" data-name="ICONS" xmlns="http://www.w3.org/2000/svg" width="20" height="20" viewBox="0 0 20 20">
  <circle cx="10" cy="10" r="8.75" fill="var(--iconPrimary, #222)"/>
  <path d="M12.75,5.5h-5.5c-.96484,0-1.75.78027-1.75,1.73926v.76074c0,.41406.33594.75.75.75s.75-.33594.75-.75v-.76074c0-.13184.1123-.23926.25-.23926h2v7h-.7002c-.41406,0-.75.33594-.75.75s.33594.75.75.75h2.90039c.41406,0,.75-.33594.75-.75s-.33594-.75-.75-.75h-.7002v-7h2c.1377,0,.25.10742.25.23926v.76074c0,.41406.33594.75.75.75s.75-.33594.75-.75v-.76074c0-.95898-.78516-1.73926-1.75-1.73926Z" fill="#fff"/>
</svg>