<?xml version="1.0" encoding="UTF-8"?>
<svg id="f" data-name="ICONS" xmlns="http://www.w3.org/2000/svg" width="20" height="20" viewBox="0 0 20 20">
  <path d="M16,9.11035c-.41406,0-.75-.33594-.75-.75v-1.11035c0-.41309-.32666-.75-.72803-.75H5.47803c-.40137,0-.72803.33691-.72803.75v1.11035c0,.41406-.33594.75-.75.75s-.75-.33594-.75-.75v-1.11035c0-1.24023.99951-2.25,2.22803-2.25h9.04395c1.22852,0,2.22803,1.00977,2.22803,2.25v1.11035c0,.41406-.33594.75-.75.75Z" fill="var(--iconPrimary, #222)"/>
  <path d="M10,18.75c-.41406,0-.75-.33594-.75-.75V6.04004c0-.41406.33594-.75.75-.75s.75.33594.75.75v11.95996c0,.41406-.33594.75-.75.75Z" fill="var(--iconPrimary, #222)"/>
  <path d="M12.31982,19h-4.63965c-.41406,0-.75-.33594-.75-.75s.33594-.75.75-.75h4.63965c.41406,0,.75.33594.75.75s-.33594.75-.75.75Z" fill="var(--iconPrimary, #222)"/>
  <path d="M16.25,3.5H3.75c-.41406,0-.75-.33594-.75-.75s.33594-.75.75-.75h12.5c.41406,0,.75.33594.75.75s-.33594.75-.75.75Z" fill="var(--iconPrimary, #222)"/>
</svg>