<?xml version="1.0" encoding="UTF-8"?>
<svg id="e" data-name="ICONS" xmlns="http://www.w3.org/2000/svg" width="20" height="20" viewBox="0 0 20 20">
  <path d="M5.75195,18.00001c-2.06738,0-3.75-1.68262-3.75-3.75l-.00195-11.5c0-.41406.33594-.75.75-.75s.75.33594.75.75l.00195,11.5c0,1.24023,1.00977,2.25,2.25,2.25s2.25-1.00977,2.25-2.25c0-.41406.33594-.7627.75-.7627s.75.32324.75.7373c0,2.09277-1.68262,3.77539-3.75,3.77539Z" fill="var(--iconPrimary, #222)"/>
  <path d="M18.28223,13.71973c-.29297-.29297-.76758-.29297-1.06055,0l-1.72144,1.72144.00171-9.69116c0-2.06738-1.68262-3.75-3.75-3.75s-3.75,1.68262-3.75,3.78516c0,.41406.33594.73242.75.73242s.75-.35352.75-.76758c0-1.24023,1.00977-2.25,2.25-2.25s2.25,1.00977,2.25,2.25l-.00171,9.68774-1.71802-1.71802c-.29297-.29297-.76758-.29297-1.06055,0s-.29297.76758,0,1.06055l2.99414,2.99414c.07056.07202.15527.12939.25.16821.07446.03076.15381.04126.23315.04712.01782.00122.03296.01025.05103.01025.00049,0,.00049-.00024.00098-.00024s.00049.00024.00098.00024c.09814,0,.1958-.02026.28784-.05859.03979-.0166.07007-.04736.10596-.07031.04614-.0293.09619-.05054.13647-.09082l3-3c.29297-.29297.29297-.76758,0-1.06055Z" fill="var(--iconPrimary, #222)"/>
  <path d="M10.51953,12.39259c-.16016,0-.32031-.06055-.44238-.18262l-3.53516-3.53516c-.24316-.24414-.24316-.64062,0-.88477.24414-.24414.64062-.24414.88477,0l3.53516,3.53516c.24316.24414.24316.64062,0,.88477-.12207.12207-.28223.18262-.44238.18262Z" fill="var(--iconPrimary, #222)"/>
  <path d="M6.98438,12.39259c-.16016,0-.32031-.06055-.44238-.18262-.24316-.24414-.24316-.64062,0-.88477l3.53516-3.53516c.24414-.24414.64062-.24414.88477,0,.24316.24414.24316.64062,0,.88477l-3.53516,3.53516c-.12207.12207-.28223.18262-.44238.18262Z" fill="var(--iconPrimary, #222)"/>
</svg>