<?xml version="1.0" encoding="UTF-8"?>
<svg xmlns="http://www.w3.org/2000/svg" width="20" height="20" viewBox="0 0 20 20">
  <path d="M9.03125,17.95508c-2.88477,0-4.52246-3.38867-4.94141-5.01562-.69336-.28906-1.3457-.9541-1.41504-1.84277-.02637-.34473.23047-.64551.57422-.67188.34863-.00781.64551.23047.67188.57422.03223.4082.45801.77051.82129.84082.25879.0498.45801.25586.49902.51562.19043,1.19727,1.64355,4.34961,3.79004,4.34961,1.39941,0,2.40039-.64062,2.99316-1.17773.25586-.23145.65234-.21191.88281.04297.23242.25586.21289.65137-.04297.88281-.75684.68555-2.03516,1.50195-3.83301,1.50195Z" fill="var(--iconPrimary, #222)"/>
  <path d="M5.42969,10.67578c-.22461,0-.44629-.09961-.59375-.29102-.09375-.12012-.90625-1.2168-.64844-2.56152.16797-.875.77246-1.23242,1.21387-1.49316.34375-.20312.64062-.37793.87109-.79492.1123-.20312.3125-.34277.54199-.37793.22461-.03418,2.21875-.31445,3.58789.38574.6543.33594,1.15234.85742,1.59277,1.31738.84863.88574,1.33887,1.33984,2.39453,1.09668.40723-.08887.80664.16016.89941.56348.0918.4043-.16016.80664-.56348.89941-1.93164.44043-2.97656-.64648-3.81543-1.52344-.39258-.41016-.7627-.79883-1.19141-1.01855-.65723-.33496-1.73047-.32812-2.35059-.27539-.39258.53906-.85254.81152-1.2041,1.01953-.40723.24023-.46875.29883-.50391.4834-.13086.68652.35645,1.35449.36133,1.36133.25391.32715.19434.79785-.13379,1.05176-.13672.10645-.29785.15723-.45801.15723Z" fill="var(--iconPrimary, #222)"/>
  <path d="M18.42285,8.49414c-.61328-.05371-.83838-.24707-1.26196-.9834.07568.00659.1499.02637.22583.02637.5293,0,1.05859-.17285,1.5-.6416.28418-.30176.26953-.77637-.03125-1.06055-.30273-.28418-.77637-.27051-1.06055.03125-.47949.50977-1.64844-.31738-1.67285-.33398-.0376-.02832-.0813-.03809-.12183-.05835-.03345-.05444-.05786-.09985-.09302-.15552-1.53027-2.4248-3.58496-3.96875-5.63867-4.23633-1.44336-.19043-3.11914.5459-4.06934,1.78613-.02954.03857-.04028.0835-.06128.12524-.55884-.29858-1.32886-.39478-2.32739.5769-.86426.84082-1.22754,2.04199-1.54688,3.10059-.29102.96484-.56641,1.87598-1.09473,2.01367-.40137.10352-.6416.5127-.53711.91406.08691.33789.3916.56152.72461.56152.0625,0,.12598-.00781.18945-.02441,1.34375-.34863,1.75586-1.71191,2.15332-3.03125.28027-.92871.57031-1.88867,1.15625-2.45801.47754-.46289.47656-.45996.94434-.06055l.08496.07227c.31543.2666.79004.23047,1.05664-.08789.14038-.16602.19165-.37427.16748-.57422.10547-.04932.20386-.11523.27979-.21387.63184-.82324,1.76074-1.34473,2.68652-1.21191,1.60938.20898,3.27246,1.50293,4.56348,3.54883.37988.60059.6582,1.11523.89453,1.55078.68652,1.2666,1.18262,2.18164,2.75879,2.31836.02246.00195.04492.00293.06641.00293.38477,0,.71191-.29492.74609-.68457.03613-.41309-.26953-.77637-.68164-.8125Z" fill="var(--iconPrimary, #222)"/>
  <path d="M14.41797,15.71484c-.19824,0-.3916-.09375-.51172-.27051-.04883-.07227-.47852-.7373-.55469-1.99219-.01758-.29688-.00684-.62695.0332-.97852l.13086-1.55078c.02441-.28809.24316-.52148.52832-.56445.29395-.04199.56445.11426.67383.38184.00586.01465.60938,1.47461,1.55176,2.2998.25977.22754.28613.62207.05957.88184-.22852.26074-.62402.28516-.88184.05957-.32129-.28125-.60645-.6123-.85156-.94434-.00391.12109-.00293.2334.00391.33984.05469.90625.3418,1.36719.34473,1.37207.18359.28809.10449.67383-.18066.86133-.10645.07129-.22754.10449-.3457.10449Z" fill="var(--iconPrimary, #222)"/>
  <path d="M17.59863,12.28906c-.77148,0-1.35449-.67676-1.60645-1.14941-.16211-.30469-.04688-.68359.25781-.8457.30469-.16309.68164-.04785.84375.25586.09277.16797.39453.53809.56152.47656.32227-.12012.68359.04785.80078.37305.11816.32422-.04883.68359-.37305.80078-.16797.06152-.33008.08887-.48438.08887Z" fill="var(--iconPrimary, #222)"/>
</svg>