<?xml version="1.0" encoding="UTF-8"?>
<svg id="e" data-name="ICONS" xmlns="http://www.w3.org/2000/svg" width="20" height="20" viewBox="0 0 20 20">
  <path d="M15.25879,2.75H6.24121c-1.9248,0-3.49121,1.56641-3.49121,3.49121v1.11914c0,1.10449.89551,2,2,2s2-.89551,2-2v-.61035h2v8h-.32031c-1.10449,0-2,.89551-2,2s.89551,2,2,2h4.64062c1.10449,0,2-.89551,2-2s-.89551-2-2-2h-.32031V6.75h2v.61035c0,1.10449.89551,2,2,2s2-.89551,2-2v-1.11914c0-1.9248-1.56641-3.49121-3.49121-3.49121Z" fill="var(--iconPrimary, #222)" opacity=".35"/>
  <path d="M13.25928.75H4.24072C2.31592.75.75,2.31641.75,4.24121v1.11914c0,1.10449.89551,2,2,2s2-.89551,2-2v-.61035h2v8h-.31982c-1.10449,0-2,.89551-2,2s.89551,2,2,2h4.63965c1.10449,0,2-.89551,2-2s-.89551-2-2-2h-.31982V4.75h2v.61035c0,1.10449.89551,2,2,2s2-.89551,2-2v-1.11914c0-1.9248-1.56592-3.49121-3.49072-3.49121Z" fill="var(--iconPrimary, #222)"/>
  <path d="M13.27197,2H4.22803c-1.22852,0-2.22803,1.00977-2.22803,2.25v1.11035c0,.41406.33594.75.75.75s.75-.33594.75-.75v-1.11035c0-.41309.32666-.75.72803-.75h3.77197v10.5h-1.56982c-.41406,0-.75.33594-.75.75s.33594.75.75.75h4.63965c.41406,0,.75-.33594.75-.75s-.33594-.75-.75-.75h-1.56982V3.5h3.77197c.40137,0,.72803.33691.72803.75v1.11035c0,.41406.33594.75.75.75s.75-.33594.75-.75v-1.11035c0-1.24023-.99951-2.25-2.22803-2.25Z" fill="#fff"/>
</svg>