<?xml version="1.0" encoding="UTF-8"?>
<svg id="f" data-name="ICONS" xmlns="http://www.w3.org/2000/svg" width="20" height="20" viewBox="0 0 20 20">
  <path d="M15,19H5c-.41406,0-.75-.33594-.75-.75s.33594-.75.75-.75h10c.41406,0,.75.33594.75.75s-.33594.75-.75.75Z" fill="var(--iconPrimary, #222)"/>
  <path d="M15,16H5c-.41406,0-.75-.33594-.75-.75s.33594-.75.75-.75h10c.41406,0,.75.33594.75.75s-.33594.75-.75.75Z" fill="var(--iconPrimary, #222)"/>
  <path d="M13.75,5.26953c-.41406,0-.75-.33594-.75-.75v-.76953c0-.1377-.1123-.25-.25-.25h-5.5c-.1377,0-.25.1123-.25.25v.76953c0,.41406-.33594.75-.75.75s-.75-.33594-.75-.75v-.76953c0-.96484.78516-1.75,1.75-1.75h5.5c.96484,0,1.75.78516,1.75,1.75v.76953c0,.41406-.33594.75-.75.75Z" fill="var(--iconPrimary, #222)"/>
  <path d="M9.99951,12.49414c-.41406,0-.75-.33594-.75-.75V3.13867c0-.41406.33594-.75.75-.75s.75.33594.75.75v8.60547c0,.41406-.33594.75-.75.75Z" fill="var(--iconPrimary, #222)"/>
  <path d="M11.4502,12.9668h-2.90137c-.41406,0-.75-.33594-.75-.75s.33594-.75.75-.75h2.90137c.41406,0,.75.33594.75.75s-.33594.75-.75.75Z" fill="var(--iconPrimary, #222)"/>
</svg>