<?xml version="1.0" encoding="UTF-8"?>
<svg id="e" data-name="ICONS" xmlns="http://www.w3.org/2000/svg" width="20" height="20" viewBox="0 0 20 20">
  <path d="M14.52246,3H5.47754c-1.22852,0-2.22754,1.00977-2.22754,2.25v1.11035c0,.41406.33594.75.75.75s.75-.33594.75-.75v-1.11035c0-.41309.32617-.75.72754-.75h3.77246v11h-1.57031c-.41406,0-.75.33594-.75.75s.33594.75.75.75h4.64062c.41406,0,.75-.33594.75-.75s-.33594-.75-.75-.75h-1.57031V4.5h3.77246c.40137,0,.72754.33691.72754.75v1.11035c0,.41406.33594.75.75.75s.75-.33594.75-.75v-1.11035c0-1.24023-.99902-2.25-2.22754-2.25Z" fill="var(--iconPrimary, #222)"/>
  <path d="M7.67969,18.5c-1.24023,0-2.25-1.00977-2.25-2.25s1.00977-2.25,2.25-2.25h.07031V6h-1.5v.36035c0,1.24023-1.00977,2.25-2.25,2.25s-2.25-1.00977-2.25-2.25v-1.11035c0-2.06738,1.67188-3.75,3.72754-3.75h9.04492c2.05566,0,3.72754,1.68262,3.72754,3.75v1.11035c0,1.24023-1.00977,2.25-2.25,2.25s-2.25-1.00977-2.25-2.25v-.36035h-1.5v8h.07031c1.24023,0,2.25,1.00977,2.25,2.25s-1.00977,2.25-2.25,2.25h-4.64062Z" fill="var(--iconPrimary, #222)" opacity=".35"/>
</svg>