<?xml version="1.0" encoding="UTF-8"?>
<svg id="e" data-name="ICONS" xmlns="http://www.w3.org/2000/svg" width="20" height="20" viewBox="0 0 20 20">
  <path d="M12.58984,1.99805H3.41016c-1.24023,0-2.25,1.00977-2.25,2.25v1.11035c0,.41406.33594.75.75.75s.75-.33594.75-.75v-1.11035c0-.41309.33691-.75.75-.75h3.83984v2.32129c0,.41406.33594.75.75.75s.75-.33594.75-.75v-2.32129h3.83984c.41309,0,.75.33691.75.75v1.11035c0,.41406.33594.75.75.75s.75-.33594.75-.75v-1.11035c0-1.24023-1.00977-2.25-2.25-2.25Z" fill="var(--iconPrimary, #222)"/>
  <path d="M10.03418,16.49805h-1.28418v-1.44141c0-.41406-.33594-.75-.75-.75s-.75.33594-.75.75v1.44141h-1.5c-.41406,0-.75.33594-.75.75s.33594.75.75.75h4.28418c.41406,0,.75-.33594.75-.75s-.33594-.75-.75-.75Z" fill="var(--iconPrimary, #222)"/>
  <path d="M16.25,18.25c-1.79199,0-3.25-1.45801-3.25-3.25s1.45801-3.25,3.25-3.25,3.25,1.45801,3.25,3.25-1.45801,3.25-3.25,3.25ZM16.25,13.25c-.96484,0-1.75.78516-1.75,1.75s.78516,1.75,1.75,1.75,1.75-.78516,1.75-1.75-.78516-1.75-1.75-1.75Z" fill="var(--iconPrimary, #222)"/>
  <path d="M9.24805,10.02539c-.39453,0-.72266-.28418-.74609-.68066-.00195-1.19727.89551-2.09473,1.99805-2.09473.48047,0,.94531.17285,1.30762.48633.3125.27148.34668.74512.07617,1.05859-.27148.31348-.74707.34473-1.05859.07617-.06348-.05566-.1709-.12109-.3252-.12109-.27539,0-.5.22461-.5.5,0,.40527-.32227.7627-.72754.77539h-.02441Z" fill="var(--iconPrimary, #222)"/>
  <path d="M11.31836,14.8623c-.09766,0-.19727-.01855-.29199-.05957-.92773-.3916-1.52637-1.2959-1.52637-2.30273,0-1.37891,1.12109-2.5,2.5-2.5.56152,0,1.1123.19141,1.55078.53906.3252.25684.37988.72852.12305,1.05273-.25391.3252-.72656.38281-1.05273.12305-.17871-.14062-.39258-.21484-.62109-.21484-.55176,0-1,.44824-1,1,0,.40332.23926.76465.61035.92188.38184.16113.56055.60156.39844.98242-.12109.28613-.39844.45801-.69043.45801Z" fill="var(--iconPrimary, #222)"/>
</svg>