<?xml version="1.0" encoding="UTF-8"?>
<svg id="e" data-name="ICONS" xmlns="http://www.w3.org/2000/svg" width="20" height="20" viewBox="0 0 20 20">
  <path d="M10,16.5h-1.5V3.5h3.77197c.40137,0,.72803.33691.72803.75v1.25c0,.41406.33594.75.75.75s.75-.33594.75-.75v-1.25c0-1.24023-.99951-2.25-2.22803-2.25H3.22803c-1.22852,0-2.22803,1.00977-2.22803,2.25v1.25c0,.41406.33594.75.75.75s.75-.33594.75-.75v-1.25c0-.41309.32666-.75.72803-.75h3.77197v13h-1.5c-.41406,0-.75.33594-.75.75s.33594.75.75.75h4.5c.41406,0,.75-.33594.75-.75s-.33594-.75-.75-.75Z" fill="var(--iconPrimary, #222)"/>
  <path d="M18.25,16.5h-5.25c-.41406,0-.75.33594-.75.75s.33594.75.75.75h5.25c.41406,0,.75-.33594.75-.75s-.33594-.75-.75-.75Z" fill="var(--iconPrimary, #222)"/>
  <path d="M12.25,13.25c0,.41406.33594.75.75.75h5.25c.41406,0,.75-.33594.75-.75s-.33594-.75-.75-.75h-5.25c-.41406,0-.75.33594-.75.75Z" fill="var(--iconPrimary, #222)"/>
</svg>