<?xml version="1.0" encoding="UTF-8"?>
<svg xmlns="http://www.w3.org/2000/svg" width="20" height="20" viewBox="0 0 20 20">
  <path d="M14.28809,18.96582c-.79053,0-1.57715-.32324-2.14307-.95801l-7.56787-7.19727c-.54346-.60449-1.41016-.65625-1.97461-.15527-.27832.24902-.44043.5918-.45605.96484-.01758.41309-.38086.7627-.78125.7168-.41406-.01758-.73535-.36719-.71777-.78125.0332-.78027.37305-1.49805.95654-2.01953,1.18018-1.05176,2.99756-.94922,4.05029.23242l7.56787,7.19727c.54443.60547,1.41211.6582,1.97461.15527.2627-.23438.42334-.55664.45264-.9082.03467-.41309.39355-.70996.81006-.68457.4126.03418.71924.39648.68506.80957-.06152.73535-.39893,1.41211-.94971,1.90234-.5459.48633-1.22754.72559-1.90674.72559Z" fill="var(--iconPrimary, #222)"/>
  <path d="M17.3833,1h-4.7666c-.8916,0-1.6167.72461-1.6167,1.61621v.66699c0,.41406.33594.75.75.75s.75-.33594.75-.75v-.66699c0-.06445.05225-.11621.1167-.11621h1.63281v5.9668h-.70068c-.41406,0-.75.33594-.75.75s.33594.75.75.75h2.90137c.41406,0,.75-.33594.75-.75s-.33594-.75-.75-.75h-.70068V2.5h1.63379c.06445,0,.1167.05176.1167.11621v.66699c0,.41406.33594.75.75.75s.75-.33594.75-.75v-.66699c0-.8916-.7251-1.61621-1.6167-1.61621Z" fill="var(--iconPrimary, #222)"/>
  <path d="M11.54199,5.45801c-.29297-.29297-.76758-.29297-1.06055,0l-1.98145,1.98193v-.66455c0-.41406-.33594-.75-.75-.75s-.75.33594-.75.75v2.47461c0,.41406.33594.75.75.75h2.4751c.41406,0,.75-.33594.75-.75s-.33594-.75-.75-.75h-.66425l1.98114-1.98145c.29297-.29297.29297-.76758,0-1.06055Z" fill="var(--iconPrimary, #222)"/>
</svg>