<?xml version="1.0" encoding="UTF-8"?>
<svg id="e" data-name="ICONS" xmlns="http://www.w3.org/2000/svg" width="20" height="20" viewBox="0 0 20 20">
  <path d="M18.28223,13.71973c-.29297-.29297-.76758-.29297-1.06055,0l-1.71973,1.71973V5.75001c0-2.06738-1.68262-3.75-3.75-3.75s-3.75,1.68262-3.75,3.75v8.5c0,1.24023-1.00977,2.25-2.25,2.25s-2.25-1.00977-2.25-2.25V2.75001c0-.41406-.33594-.75-.75-.75s-.75.33594-.75.75v11.5c0,2.06738,1.68262,3.75,3.75,3.75s3.75-1.68262,3.75-3.75V5.75001c0-1.24023,1.00977-2.25,2.25-2.25s2.25,1.00977,2.25,2.25v9.68945l-1.71973-1.71973c-.29297-.29297-.76758-.29297-1.06055,0s-.29297.76758,0,1.06055l3,3c.06909.06909.15186.12354.24341.16162s.18896.05811.28687.05811.19531-.02002.28687-.05811.17432-.09253.24341-.16162l3-3c.29297-.29297.29297-.76758,0-1.06055Z" fill="var(--iconPrimary, #222)"/>
</svg>