<?xml version="1.0" encoding="UTF-8"?>
<svg id="e" data-name="ICONS" xmlns="http://www.w3.org/2000/svg" width="20" height="20" viewBox="0 0 20 20">
  <path d="M7.79297,10.96777l-3.04639-7.5c-.22949-.56641-1.16016-.56641-1.38965,0L.31055,10.96777c-.15576.38379.02881.82129.4126.97754.38428.1543.82129-.03027.97705-.41309l.92706-2.28223h2.849l.92706,2.28223c.11816.29102.39893.46777.69531.46777.09375,0,.18945-.01758.28174-.05469.38379-.15625.56836-.59375.4126-.97754ZM3.23657,7.75l.81519-2.00684.81519,2.00684h-1.63037Z" fill="var(--iconPrimary, #222)"/>
  <path d="M9.39355,12h-.63818c-.41406,0-.75-.33594-.75-.75V3.75c0-.41406.33594-.75.75-.75h1.61182c1.44678,0,2.58008,1.12891,2.58008,2.57031,0,.58984-.16406,1.11621-.45215,1.53613.43018.30469.77295.74316.96338,1.26855.14111.38965-.06006.82031-.44971.96094-.38916.13965-.81934-.05957-.96045-.44922-.16455-.4541-.55908-.74805-1.00537-.74805h-1.5376v2.36914c.36133.05469.63818.36621.63818.74219,0,.41406-.33594.75-.75.75ZM9.50537,6.63867h.95947c.59668,0,.98242-.41895.98242-1.06836,0-.62012-.4541-1.07031-1.08008-1.07031h-.86182v2.13867Z" fill="var(--iconPrimary, #222)"/>
  <path d="M14.5752,9.0166c-.35352,0-.66846-.25098-.73633-.61133-.05518-.2959-.0835-.60059-.0835-.90527,0-2.98145,2.67139-5.34082,5.52295-4.22168.38623.15039.57617.58594.42529.97168-.15039.38672-.58643.57617-.97119.4248-.30127-.11719-.57812-.1748-.84668-.1748-1.4502,0-2.63037,1.3457-2.63037,3,0,.21191.01953.42383.05811.62793.07617.40723-.19189.7998-.59912.87598-.04639.00879-.09326.0127-.13916.0127Z" fill="var(--iconPrimary, #222)"/>
  <path d="M15,10.5c-2.48145,0-4.5,2.01855-4.5,4.5s2.01855,4.5,4.5,4.5,4.5-2.01855,4.5-4.5-2.01855-4.5-4.5-4.5ZM18,15c0,.55469-.16156,1.06812-.42505,1.5144l-4.08936-4.08936c.44623-.26343.95972-.42505,1.5144-.42505,1.6543,0,3,1.3457,3,3ZM12,15c0-.55469.16156-1.06812.42505-1.5144l4.08936,4.08936c-.44623.26343-.95972.42505-1.5144.42505-1.6543,0-3-1.3457-3-3Z" fill="var(--iconPrimary, #222)"/>
</svg>