<?xml version="1.0" encoding="UTF-8"?><svg xmlns="http://www.w3.org/2000/svg" width="20" height="20" viewBox="0 0 20 20"><path d="M17.25,8h-5.5c-.96484,0-1.75.78516-1.75,1.75v.76953c0,.41406.33594.75.75.75s.75-.33594.75-.75v-.76953c0-.1377.1123-.25.25-.25h2v7.9668h-.70117c-.41406,0-.75.33594-.75.75s.33594.75.75.75h2.90137c.41406,0,.75-.33594.75-.75s-.33594-.75-.75-.75h-.7002v-7.9668h2c.1377,0,.25.1123.25.25v.76953c0,.41406.33594.75.75.75s.75-.33594.75-.75v-.76953c0-.96484-.78516-1.75-1.75-1.75Z" fill="var(--iconPrimary,#222)"/><path d="M11.70703,2H3.24316c-1.2373,0-2.24316,1.00586-2.24316,2.24316v8.50684c0,1.24023,1.00977,2.25,2.25,2.25h8.00879c.41406,0,.75-.33594.75-.75s-.33594-.75-.75-.75h-2.59839l.42163-.42188c.29297-.29297.29297-.76758,0-1.06055-.29395-.29395-.76855-.29199-1.06055,0l-1.48145,1.48242h-2.92969L12.4502,4.66016v1.07715c0,.41406.33594.75.75.75s.75-.33594.75-.75v-1.49414c0-1.2373-1.00586-2.24316-2.24316-2.24316ZM2.5,12.48926v-2.92871l6.06055-6.06055h2.92871L2.5,12.48926ZM3.24316,3.5h3.19629l-3.93945,3.93945v-3.19629c0-.41016.33301-.74316.74316-.74316Z" fill="var(--iconPrimary,#222)"/></svg>