<?xml version="1.0" encoding="UTF-8"?>
<svg   xmlns="http://www.w3.org/2000/svg" width="20" height="20" viewBox="0 0 20 20">
  <path d="M15,19.00003H2.5c-.41406,0-.75-.33594-.75-.75s.33594-.75.75-.75h12.5c.41406,0,.75.33594.75.75s-.33594.75-.75.75Z" fill="var(--iconPrimary, #222)" stroke-width="0"/>
  <path d="M17.00781,2.94534c-.47705-.60059-1.19043-.94531-1.95752-.94531h-7.49756c-.96777,0-1.9668.67773-2.32324,1.57715l-.50879,1.28125c-.2041.51367.04688,1.09473.56006,1.29883.51416.20312,1.09424-.04785,1.29834-.56055l.50928-1.28125c.05469-.13867.31543-.31543.46436-.31543h2.34894l-2.68646,10h-1.03113c-.55225,0-1,.44727-1,1s.44775,1,1,1h5c.55225,0,1-.44727,1-1s-.44775-1-1-1h-.86206l2.68646-10h2.04181c.20996,0,.33545.11816.3916.18945.05615.07031.14307.21875.09521.42383l-.11523.49512c-.125.53809.20947,1.0752.74756,1.2002.07617.01855.15234.02637.22754.02637.4541,0,.86572-.31152.97314-.77344l.11523-.49512c.17383-.74707-.00049-1.52051-.47754-2.12109Z" fill="var(--iconPrimary, #222)" stroke-width="0"/>
</svg>