<?xml version="1.0" encoding="UTF-8"?>
<svg id="e" data-name="ICONS" xmlns="http://www.w3.org/2000/svg" width="20" height="20" viewBox="0 0 20 20">
  <path d="M16.59473,4.61719c-.20996-.13965-.47656-.16406-.70703-.06543l-2.99023,1.26855c-.38086.16211-.55957.60156-.39746.9834.16113.38184.60059.56055.9834.39746l1.94727-.82617v9.125c0,.41406.33594.75.75.75s.75-.33594.75-.75V5.24219c0-.25195-.12598-.48633-.33594-.625Z" fill="var(--iconPrimary, #222)"/>
  <path d="M9.77637,4.49219c-.41406,0-.75.33594-.75.75v4.37891h-4.52637v-4.37891c0-.41406-.33594-.75-.75-.75s-.75.33594-.75.75v10.25781c0,.41406.33594.75.75.75s.75-.33594.75-.75v-4.37891h4.52637v4.37891c0,.41406.33594.75.75.75s.75-.33594.75-.75V5.24219c0-.41406-.33594-.75-.75-.75Z" fill="var(--iconPrimary, #222)"/>
</svg>