<?xml version="1.0" encoding="UTF-8"?>
<svg id="f" data-name="ICONS" xmlns="http://www.w3.org/2000/svg" width="20" height="20" viewBox="0 0 20 20">
  <path d="M4.96973,14.96975l-.46973.46973V4.56057l.46973.46973c.14648.14648.33838.21973.53027.21973s.38379-.07324.53027-.21973c.29297-.29297.29297-.76758,0-1.06055l-1.75-1.75c-.29297-.29297-.76758-.29297-1.06055,0l-1.75,1.75c-.29297.29297-.29297.76758,0,1.06055s.76758.29297,1.06055,0l.46973-.46973v10.87891l-.46973-.46973c-.29297-.29297-.76758-.29297-1.06055,0s-.29297.76758,0,1.06055l1.75,1.75c.14648.14648.33838.21973.53027.21973s.38379-.07324.53027-.21973l1.75-1.75c.29297-.29297.29297-.76758,0-1.06055s-.76758-.29297-1.06055,0Z" fill="var(--iconPrimary, #222)"/>
  <path d="M17.25,18.00003h-7.5c-.41406,0-.75-.33594-.75-.75s.33594-.75.75-.75h7.5c.41406,0,.75.33594.75.75s-.33594.75-.75.75Z" fill="var(--iconPrimary, #222)"/>
  <path d="M17.25,15.00003h-7.5c-.41406,0-.75-.33594-.75-.75s.33594-.75.75-.75h7.5c.41406,0,.75.33594.75.75s-.33594.75-.75.75Z" fill="var(--iconPrimary, #222)"/>
  <path d="M16,2.00003h-5c-.82715,0-1.5.67285-1.5,1.5v.86035c0,.41406.33594.75.75.75s.75-.33594.75-.75v-.86035h1.75v6h-.58594c-.41406,0-.75.33594-.75.75s.33594.75.75.75h2.63965c.41406,0,.75-.33594.75-.75s-.33594-.75-.75-.75h-.55371V3.50003h1.75v.86035c0,.41406.33594.75.75.75s.75-.33594.75-.75v-.86035c0-.82715-.67285-1.5-1.5-1.5Z" fill="var(--iconPrimary, #222)"/>
</svg>