<?xml version="1.0" encoding="UTF-8"?>
<svg   xmlns="http://www.w3.org/2000/svg" width="20" height="20" viewBox="0 0 20 20">
  <path d="m12.75,18h-5.5c-1.24023,0-2.25-1.00928-2.25-2.25s1.00977-2.25,2.25-2.25h.25v-7h-1c0,1.24072-1.00977,2.25-2.25,2.25s-2.25-1.00928-2.25-2.25v-1.25c0-1.79199,1.45801-3.25,3.25-3.25h9.5c1.79199,0,3.25,1.45801,3.25,3.25v1.25c0,1.24072-1.00977,2.25-2.25,2.25s-2.25-1.00928-2.25-2.25h-1v7h.25c1.24023,0,2.25,1.00928,2.25,2.25s-1.00977,2.25-2.25,2.25Zm-5.5-3c-.41309,0-.75.33643-.75.75s.33691.75.75.75h5.5c.41309,0,.75-.33643.75-.75s-.33691-.75-.75-.75h-1c-.41406,0-.75-.33594-.75-.75V5.75c0-.41406.33594-.75.75-.75h2.5c.41406,0,.75.33594.75.75v.75c0,.41357.33691.75.75.75s.75-.33643.75-.75v-1.25c0-.96484-.78516-1.75-1.75-1.75H5.25c-.96484,0-1.75.78516-1.75,1.75v1.25c0,.41357.33691.75.75.75s.75-.33643.75-.75v-.75c0-.41406.33594-.75.75-.75h2.5c.41406,0,.75.33594.75.75v8.5c0,.41406-.33594.75-.75.75h-1Z" fill="var(--iconPrimary, #222)"/>
</svg>