<?xml version="1.0" encoding="UTF-8"?>
<svg id="e" data-name="strokes" xmlns="http://www.w3.org/2000/svg" width="20" height="20" viewBox="0 0 20 20">
  <path d="M10.75488,18.12598c-2.30176,0-3.75-.75781-4.65723-1.65527v.04395c0,.41406-.33594.75-.75.75s-.75-.33594-.75-.75v-3.02051c0-.39941.3125-.72852.71094-.74902.3916-.01465.74414.27344.78516.6709.01465.12695.42871,3.20996,4.66113,3.20996,1.35645,0,2.375-.34082,3.02539-1.0127.84961-.87695.82129-2.07422.82129-2.08594-.08203-2.0459-1.60059-2.47656-4.07324-3.01074-2.29395-.49609-5.14844-1.1123-5.14844-4.49316,0-3.01172,2.65039-4.38281,5.1123-4.38281,1.19727,0,2.63965.42285,3.74023,1.34082v-.63965c0-.41406.33594-.75.75-.75s.75.33594.75.75v3.12598c0,.38379-.29004.70605-.67188.74609-.37598.04102-.73242-.21484-.81152-.58984-.05664-.26562-.17383-.50977-.21387-.58105-.73145-1.30762-2.34863-1.90234-3.54297-1.90234-1.3418,0-3.6123.60742-3.6123,2.88281,0,2.06934,1.43262,2.47949,3.96582,3.02637,2.28223.49316,5.12305,1.10742,5.25391,4.41895.00391.06934.06641,1.81934-1.22266,3.16797-.94434.98828-2.33105,1.48926-4.12207,1.48926Z" fill="var(--iconPrimary, #222)"/>
</svg>