<?xml version="1.0" encoding="UTF-8"?>
<svg   xmlns="http://www.w3.org/2000/svg" width="20" height="20" viewBox="0 0 20 20">
  <path d="M18.5293,8.22363c-.51074-.7666-1.36621-1.22363-2.28711-1.22363h-3.04492c-.3877,0-.71582-.30273-.74805-.68848l-.19922-2.37988c.00195-.05176-.00195-.1377-.01074-.18848-.11133-.65332-.37305-2.18359-2.1748-2.18359-1.48145,0-1.78906,1.66895-2.08594,3.2832-.3175,1.72607-.62366,2.96533-1.47852,3.12524v10.03198h6.79102c1.51562-.00098,2.87402-.91016,3.45996-2.31641l2.03027-4.87695c.35352-.85059.25977-1.81641-.25195-2.58301Z" fill="var(--iconPrimary, #222)" stroke-width="0"/>
  <path d="M5,8h-.75c-1.24023,0-2.25,1.00977-2.25,2.25v5.5c0,.31006.06311.60571.17725.87476.34204.80725,1.14258,1.37524,2.07275,1.37524h.75v-10Z" fill="var(--iconPrimary, #222)" stroke-width="0"/>
</svg>