<?xml version="1.0" encoding="UTF-8"?>
<svg xmlns="http://www.w3.org/2000/svg" width="20" height="20" viewBox="0 0 20 20">
  <path d="M5,2h-.75c-1.24072,0-2.25,1.00977-2.25,2.25098v5.5c0,1.24023,1.00928,2.25,2.25,2.25h.75V2Z" fill="var(--iconPrimary, #222)"/>
  <path d="M18.78076,9.19434l-2.03027-4.87695c-.58545-1.40625-1.94336-2.31641-3.46045-2.31738h-6.79004v10.03247c.8385.15674,1.12494,1.34302,1.44043,3.11206.28076,1.57324.59863,3.35547,2.12451,3.35547,1.85059,0,2.06299-1.4707,2.1792-2.27539.00146-.01172.20605-2.53516.20605-2.53516.03174-.38574.35986-.68848.74707-.68848h3.04492c.92139,0,1.77686-.45801,2.28809-1.22461s.60498-1.73145.25049-2.58203Z" fill="var(--iconPrimary, #222)"/>
</svg>