<?xml version="1.0" encoding="UTF-8"?>
<svg id="f" data-name="ICONS" xmlns="http://www.w3.org/2000/svg" width="20" height="20" viewBox="0 0 20 20">
  <path d="M18.55273,10.03775c-.96582-.7915-2.45312-.68848-3.37891.23926l-4.18262,4.18262c-.24805.24756-.43262.55566-.5332.89062l-.9541,3.15967c-.08008.26465-.00781.55176.1875.74707.14258.14258.33398.21973.53027.21973.07227,0,.14551-.01025.2168-.03223l3.1582-.95361c.33594-.10107.64453-.28516.89062-.53271,0,0,4.125-4.12451,4.25293-4.25293.49316-.49268.75684-1.17529.72168-1.87207-.03418-.69678-.36621-1.35107-.90918-1.79541h0ZM11.34375,17.60416l.55078-1.82129c.01709-.05737.05786-.10181.09033-.15161l1.33228,1.33215c-.05005.03284-.09473.07373-.15308.09143l-1.82031.54932ZM17.67871,12.64566c-.09277.09326-2.25122,2.25146-3.45581,3.45581l-1.37646-1.37598,3.38794-3.38794c.22168-.22168.5127-.33691.79297-.33691.20996,0,.41309.06494.57617.19824.21875.17871.34668.43066.36035.7085.01367.27832-.08691.54004-.28516.73828Z" fill="var(--iconPrimary, #222)"/>
  <path id="g" data-name="Path 1005062" d="M14.5,7.52114c0,.82843-.67157,1.5-1.5,1.5-.82843,0-1.5-.67157-1.5-1.5,0-.82843.67157-1.5,1.5-1.5s1.5.67157,1.5,1.5h0Z" fill="var(--iconPrimary, #222)"/>
  <path d="M15.75,2H4.25c-1.24072,0-2.25,1.00977-2.25,2.25v11.5c0,1.24023,1.00928,2.25,2.25,2.25h2.39941c.41406,0,.75-.33594.75-.75s-.33594-.75-.75-.75h-2.39941c-.41357,0-.75-.33691-.75-.75v-3.16846l1.97021-1.96924c.28223-.2832.77686-.2832,1.06006,0l1.97119,1.9707c.29297.29297.76758.29297,1.06055,0s.29297-.76758,0-1.06055l-1.9707-1.9707c-.84961-.84961-2.3335-.84961-3.18213,0l-.90918.90894v-6.21069c0-.41309.33643-.75.75-.75h11.5c.41357,0,.75.33691.75.75v2.46484c0,.41406.33594.75.75.75s.75-.33594.75-.75v-2.46484c0-1.24023-1.00928-2.25-2.25-2.25Z" fill="var(--iconPrimary, #222)"/>
</svg>