<?xml version="1.0" encoding="UTF-8"?>
<svg id="e" data-name="ICONS" xmlns="http://www.w3.org/2000/svg" width="20" height="20" viewBox="0 0 20 20">
  <path d="M18.53906,7.69336c.2793-.11719.46094-.38965.46094-.69238v-2.25098c0-.96484-.78516-1.75-1.75-1.75H2.75c-.96484,0-1.75.78516-1.75,1.75v2.25098c0,.30273.18164.5752.46094.69238.93457.39062,1.53906,1.2959,1.53906,2.30664,0,1.01172-.60352,1.91699-1.53809,2.30664-.28027.11621-.46191.38965-.46191.69238v2.25098c0,.96484.78516,1.75,1.75,1.75h14.5c.96484,0,1.75-.78516,1.75-1.75v-2.25098c0-.30273-.18164-.57617-.46191-.69238-.93457-.38965-1.53809-1.29492-1.53809-2.30664,0-1.01074.60449-1.91602,1.53906-2.30664ZM17.5,6.53711c-1.22949.70801-2,2.01758-2,3.46289,0,1.44629.77051,2.75586,2,3.46387v1.78613c0,.1377-.1123.25-.25.25h-3.75v-1.5c0-.41406-.33594-.75-.75-.75s-.75.33594-.75.75v1.5H2.75c-.1377,0-.25-.1123-.25-.25v-1.78613c1.22949-.70801,2-2.01758,2-3.46387,0-1.44531-.77051-2.75488-2-3.46289v-1.78711c0-.1377.1123-.25.25-.25h9.25v1.5c0,.41406.33594.75.75.75s.75-.33594.75-.75v-1.5h3.75c.1377,0,.25.1123.25.25v1.78711Z" fill="var(--iconPrimary, #222)"/>
  <path d="M12.75,8.32715c-.41406,0-.75.33594-.75.75v1.8457c0,.41406.33594.75.75.75s.75-.33594.75-.75v-1.8457c0-.41406-.33594-.75-.75-.75Z" fill="var(--iconPrimary, #222)"/>
</svg>