<?xml version="1.0" encoding="UTF-8"?>
<svg   xmlns="http://www.w3.org/2000/svg" width="20" height="20" viewBox="0 0 20 20">
  <path d="M17.50001,5.47179c-1.07895-.03254-2.05642-.54947-2.79363-1.24037-.40289-.38385-.7221-.84684-.93746-1.3599-.21535-.51307-.32234-1.06514-.31425-1.62152h-3.00392v11.57015c0,1.89002-1.13274,3.00402-2.52457,3.00402-.36906.00399-.73452-.0729-1.07065-.22539-.33614-.15238-.63478-.37658-.87493-.65686-.24015-.28028-.41595-.60985-.51504-.96528-.09909-.35555-.11905-.72846-.0585-1.09254.06055-.36418.20016-.71056.40901-1.01483.20884-.30432.48184-.55916.79977-.74662.31794-.18745.67308-.30294,1.04046-.33835s.73806.01012,1.08595.13339v-3.05526c-.26798-.05893-.5417-.08789-.81607-.08636-1.09299-.00025-2.16151.32363-3.07043.93069-.90891.60706-1.61739,1.47002-2.03583,2.47974-.41845,1.00968-.52805,2.12088-.31497,3.19293.21308,1.07194.73928,2.05675,1.51206,2.82965.77278.77301,1.75741,1.29937,2.82939,1.51279,1.07197.21331,2.18314.10396,3.19295-.31425,1.00981-.41832,1.87293-1.12651,2.48019-2.03528.60726-.90877.93135-1.97726.93135-3.07024v-6.22694c1.16404.80481,2.55464,1.1853,4.03908,1.21159l.01003-2.81495h-.00001Z" fill="var(--iconPrimary, #222)" stroke-width="0"/>
</svg>