<?xml version="1.0" encoding="UTF-8"?>
<svg   xmlns="http://www.w3.org/2000/svg" width="20" height="20" viewBox="0 0 20 20">
  <path d="M10.75,16.25h-1.5c-1.10303,0-2-.89746-2-2v-1.5c0-1.10254.89697-2,2-2h1.5c1.10303,0,2,.89746,2,2v1.5c0,1.10254-.89697,2-2,2ZM9.25,12.25c-.27588,0-.5.22461-.5.5v1.5c0,.27539.22412.5.5.5h1.5c.27588,0,.5-.22461.5-.5v-1.5c0-.27539-.22412-.5-.5-.5h-1.5Z" fill="var(--iconPrimary, #222)"/>
  <path d="M10.75,9.5h-1.5c-1.10303,0-2-.89746-2-2v-1.5c0-1.10254.89697-2,2-2h1.5c1.10303,0,2,.89746,2,2v1.5c0,1.10254-.89697,2-2,2ZM9.25,5.5c-.27588,0-.5.22461-.5.5v1.5c0,.27539.22412.5.5.5h1.5c.27588,0,.5-.22461.5-.5v-1.5c0-.27539-.22412-.5-.5-.5h-1.5Z" fill="var(--iconPrimary, #222)"/>
  <path d="M4,16.25h-1.5c-1.10303,0-2-.89746-2-2v-1.5c0-1.10254.89697-2,2-2h1.5c1.10303,0,2,.89746,2,2v1.5c0,1.10254-.89697,2-2,2ZM2.5,12.25c-.27588,0-.5.22461-.5.5v1.5c0,.27539.22412.5.5.5h1.5c.27588,0,.5-.22461.5-.5v-1.5c0-.27539-.22412-.5-.5-.5h-1.5Z" fill="var(--iconPrimary, #222)"/>
  <path d="M17.5,16.25h-1.5c-1.10303,0-2-.89746-2-2v-1.5c0-1.10254.89697-2,2-2h1.5c1.10303,0,2,.89746,2,2v1.5c0,1.10254-.89697,2-2,2ZM16,12.25c-.27588,0-.5.22461-.5.5v1.5c0,.27539.22412.5.5.5h1.5c.27588,0,.5-.22461.5-.5v-1.5c0-.27539-.22412-.5-.5-.5h-1.5Z" fill="var(--iconPrimary, #222)"/>
  <rect x="1.25" y="4.75006" width="4" height="4" rx="1.25" ry="1.25" fill="var(--iconPrimary, #222)" opacity=".3"/>
  <path d="M4,9.5h-1.5c-1.10303,0-2-.89746-2-2v-1.5c0-1.10254.89697-2,2-2h1.5c1.10303,0,2,.89746,2,2v1.5c0,1.10254-.89697,2-2,2ZM2.5,5.5c-.27588,0-.5.22461-.5.5v1.5c0,.27539.22412.5.5.5h1.5c.27588,0,.5-.22461.5-.5v-1.5c0-.27539-.22412-.5-.5-.5h-1.5Z" fill="var(--iconPrimary, #222)"/>
  <path d="M17.5,9.5h-1.5c-1.10303,0-2-.89746-2-2v-1.5c0-1.10254.89697-2,2-2h1.5c1.10303,0,2,.89746,2,2v1.5c0,1.10254-.89697,2-2,2ZM16,5.5c-.27588,0-.5.22461-.5.5v1.5c0,.27539.22412.5.5.5h1.5c.27588,0,.5-.22461.5-.5v-1.5c0-.27539-.22412-.5-.5-.5h-1.5Z" fill="var(--iconPrimary, #222)"/>
</svg>