<?xml version="1.0" encoding="UTF-8"?>
<svg   xmlns="http://www.w3.org/2000/svg" width="20" height="20" viewBox="0 0 20 20">
  <path d="M5.49414,12.09993l-2,1.75c-.2832.24805-.70508.24805-.98828,0l-2-1.75c-.31152-.27246-.34277-.74707-.07031-1.05859.27441-.31152.74707-.34082,1.05859-.07031l.75586.66162v-5.34717c0-.41406.33594-.75.75-.75s.75.33594.75.75v5.34717l.75586-.66162c.14258-.12402.31836-.18555.49414-.18555.20801,0,.41602.08691.56445.25586.27246.31152.24121.78613-.07031,1.05859Z" fill="var(--iconPrimary, #222)"/>
  <path d="M9.25,12c-.41309,0-.75.33691-.75.75v.5c0,.41309.33691.75.75.75h7.5c.41309,0,.75-.33691.75-.75v-.5c0-.41309-.33691-.75-.75-.75h-7.5Z" fill="var(--iconPrimary, #222)" isolation="isolate" opacity=".2"/>
  <path d="M16.75,15.5h-7.5c-1.24023,0-2.25-1.00977-2.25-2.25v-.5c0-1.24023,1.00977-2.25,2.25-2.25h7.5c1.24023,0,2.25,1.00977,2.25,2.25v.5c0,1.24023-1.00977,2.25-2.25,2.25ZM9.25,12c-.41309,0-.75.33691-.75.75v.5c0,.41309.33691.75.75.75h7.5c.41309,0,.75-.33691.75-.75v-.5c0-.41309-.33691-.75-.75-.75h-7.5Z" fill="var(--iconPrimary, #222)"/>
  <path d="M16.75,9h-7.5c-1.24023,0-2.25-1.00977-2.25-2.25v-.5c0-1.24023,1.00977-2.25,2.25-2.25h7.5c1.24023,0,2.25,1.00977,2.25,2.25v.5c0,1.24023-1.00977,2.25-2.25,2.25ZM9.25,5.5c-.41309,0-.75.33691-.75.75v.5c0,.41309.33691.75.75.75h7.5c.41309,0,.75-.33691.75-.75v-.5c0-.41309-.33691-.75-.75-.75h-7.5Z" fill="var(--iconPrimary, #222)"/>
</svg>