<?xml version="1.0" encoding="UTF-8"?>
<svg id="e" data-name="ICONS" xmlns="http://www.w3.org/2000/svg" width="20" height="20" viewBox="0 0 20 20">
  <rect x="4.99931" y="12.99874" width="2" height="2" rx="1" ry="1" fill="var(--iconPrimary, #222)"/>
  <circle cx="5.99933" cy="10.99854" r="1" fill="var(--iconPrimary, #222)"/>
  <path d="M15.74951,2.99902h-2v-1c0-.41406-.33594-.75-.75-.75s-.75.33594-.75.75v1h-4.5v-1c0-.41406-.33594-.75-.75-.75s-.75.33594-.75.75v1h-2c-1.24072,0-2.25,1.00977-2.25,2.25v10.5c0,1.24023,1.00928,2.25,2.25,2.25h4.39404c.41406,0,.75-.33594.75-.75s-.33594-.75-.75-.75h-4.39404c-.41357,0-.75-.33691-.75-.75v-7.25h13v.14453c0,.41406.33594.75.75.75s.75-.33594.75-.75v-3.39453c0-1.24023-1.00928-2.25-2.25-2.25ZM3.49951,6.99902v-1.75c0-.41309.33643-.75.75-.75h2v.5c0,.41406.33594.75.75.75s.75-.33594.75-.75v-.5h4.5v.5c0,.41406.33594.75.75.75s.75-.33594.75-.75v-.5h2c.41357,0,.75.33691.75.75v1.75H3.49951Z" fill="var(--iconPrimary, #222)"/>
  <path d="M9.99927,9.99902c-.55225,0-1,.44727-1,1,0,.49316.36401.88428.83374.96582.29639-.50244.66333-.95703,1.08838-1.35254-.15137-.36035-.50684-.61328-.92212-.61328Z" fill="var(--iconPrimary, #222)"/>
  <path d="M15,10.5c-2.48529,0-4.5,2.01465-4.5,4.5s2.01471,4.5,4.5,4.5,4.5-2.01465,4.5-4.5-2.01471-4.5-4.5-4.5ZM16.66162,16.74316c-.12109.11719-.27783.17578-.43408.17578-.16357,0-.32666-.06348-.44971-.19043l-1.22754-1.27051c-.02386-.02441-.03424-.05566-.05322-.08301-.02673-.03809-.05695-.07324-.07471-.11719-.02112-.05176-.02625-.10693-.03271-.16162-.00305-.0249-.01465-.04688-.01465-.07275v-2c0-.34473.27979-.625.625-.625s.625.28027.625.625v1.74707l1.05225,1.08887c.23975.24902.23291.64453-.01562.88379Z" fill="var(--iconPrimary, #222)"/>
</svg>