<?xml version="1.0" encoding="UTF-8"?>
<svg   xmlns="http://www.w3.org/2000/svg" width="20" height="20" viewBox="0 0 20 20">
  <path d="m17.25,2c-.41406,0-.75.33594-.75.75v6.99658c-.00024-.19189-.07349-.38354-.21973-.52979l-2.99707-2.99707c-.29297-.29297-.76758-.29297-1.06055,0s-.29297.76758,0,1.06055l1.71899,1.71973h-7.8833l1.71899-1.71973c.29297-.29297.29297-.76758,0-1.06055s-.76758-.29297-1.06055,0l-2.99707,2.99707c-.14624.14624-.21948.33789-.21973.52979V2.75c0-.41406-.33594-.75-.75-.75s-.75.33594-.75.75v14.5c0,.41406.33594.75.75.75s.75-.33594.75-.75v-7.50244c0,.19189.073.38354.21875.52979l2.99707,3.00293c.14648.14648.33887.21973.53125.21973.19141,0,.38379-.07324.53027-.21875.29297-.29297.29297-.76758.00098-1.06152l-1.71704-1.71973h7.87744l-1.71704,1.71973c-.29199.29395-.29199.76855.00098,1.06152.14648.14551.33887.21875.53027.21875.19238,0,.38477-.07324.53125-.21973l2.99707-3.00293c.14575-.14624.21875-.33789.21875-.52979v7.50244c0,.41406.33594.75.75.75s.75-.33594.75-.75V2.75c0-.41406-.33594-.75-.75-.75Z" fill="var(--iconPrimary, #222)" stroke-width="0"/>
</svg>