<?xml version="1.0" encoding="UTF-8"?>
<svg id="f" data-name="ICONS" xmlns="http://www.w3.org/2000/svg" width="20" height="20" viewBox="0 0 20 20">
  <path d="M3.74121,17h-.5c-1.24023,0-2.25-1.00977-2.25-2.25V5.25c0-1.24023,1.00977-2.25,2.25-2.25h.5c1.24023,0,2.25,1.00977,2.25,2.25v9.5c0,1.24023-1.00977,2.25-2.25,2.25ZM3.24121,4.5c-.41309,0-.75.33691-.75.75v9.5c0,.41309.33691.75.75.75h.5c.41309,0,.75-.33691.75-.75V5.25c0-.41309-.33691-.75-.75-.75h-.5Z" fill="var(--iconPrimary, #222)"/>
  <path d="M16.74121,17h-7c-1.24023,0-2.25-1.00977-2.25-2.25V5.25c0-1.24023,1.00977-2.25,2.25-2.25h7c1.24023,0,2.25,1.00977,2.25,2.25v9.5c0,1.24023-1.00977,2.25-2.25,2.25ZM9.74121,4.5c-.41309,0-.75.33691-.75.75v9.5c0,.41309.33691.75.75.75h7c.41309,0,.75-.33691.75-.75V5.25c0-.41309-.33691-.75-.75-.75h-7Z" fill="var(--iconPrimary, #222)"/>
</svg>