<?xml version="1.0" encoding="UTF-8"?>
<svg id="f" data-name="ICONS" xmlns="http://www.w3.org/2000/svg" width="20" height="20" viewBox="0 0 20 20">
  <path d="M13.75,15.5H3.25c-1.24023,0-2.25-1.00977-2.25-2.25v-.5c0-1.24023,1.00977-2.25,2.25-2.25h10.5c1.24023,0,2.25,1.00977,2.25,2.25v.5c0,1.24023-1.00977,2.25-2.25,2.25ZM3.25,12c-.41309,0-.75.33691-.75.75v.5c0,.41309.33691.75.75.75h10.5c.41309,0,.75-.33691.75-.75v-.5c0-.41309-.33691-.75-.75-.75H3.25Z" fill="var(--iconPrimary, #222)"/>
  <path d="M16.75,9H6.25c-1.24023,0-2.25-1.00977-2.25-2.25v-.5c0-1.24023,1.00977-2.25,2.25-2.25h10.5c1.24023,0,2.25,1.00977,2.25,2.25v.5c0,1.24023-1.00977,2.25-2.25,2.25ZM6.25,5.5c-.41309,0-.75.33691-.75.75v.5c0,.41309.33691.75.75.75h10.5c.41309,0,.75-.33691.75-.75v-.5c0-.41309-.33691-.75-.75-.75H6.25Z" fill="var(--iconPrimary, #222)"/>
</svg>