<?xml version="1.0" encoding="UTF-8"?>
<svg   xmlns="http://www.w3.org/2000/svg" width="20" height="20" viewBox="0 0 20 20">
  <path d="M6.35254,15.5h-3.10254c-1.24072,0-2.25-1.00977-2.25-2.25v-.5c0-1.24023,1.00928-2.25,2.25-2.25h3.15332c.41406,0,.75.33594.75.75s-.33594.75-.75.75h-3.15332c-.41357,0-.75.33691-.75.75v.5c0,.41309.33643.75.75.75h3.10254c.41406,0,.75.33594.75.75s-.33594.75-.75.75Z" fill="var(--iconPrimary, #222)" stroke-width="0"/>
  <path d="M13.75,15.5h-1.72607c-.41406,0-.75-.33594-.75-.75s.33594-.75.75-.75h1.72607c.41357,0,.75-.33691.75-.75v-.5c0-.41309-.33643-.75-.75-.75h-1.70068c-.41406,0-.75-.33594-.75-.75s.33594-.75.75-.75h1.70068c1.24072,0,2.25,1.00977,2.25,2.25v.5c0,1.24023-1.00928,2.25-2.25,2.25Z" fill="var(--iconPrimary, #222)" stroke-width="0"/>
  <path d="M6.4541,9h-.2041c-1.24072,0-2.25-1.00977-2.25-2.25v-.5c0-1.24023,1.00928-2.25,2.25-2.25h.33154c.41406,0,.75.33594.75.75s-.33594.75-.75.75h-.33154c-.41357,0-.75.33691-.75.75v.5c0,.41309.33643.75.75.75h.2041c.41406,0,.75.33594.75.75s-.33594.75-.75.75Z" fill="var(--iconPrimary, #222)" stroke-width="0"/>
  <path d="M16.75,9h-4.29346c-.41406,0-.75-.33594-.75-.75s.33594-.75.75-.75h4.29346c.41357,0,.75-.33691.75-.75v-.5c0-.41309-.33643-.75-.75-.75h-4.39502c-.41406,0-.75-.33594-.75-.75s.33594-.75.75-.75h4.39502c1.24072,0,2.25,1.00977,2.25,2.25v.5c0,1.24023-1.00928,2.25-2.25,2.25Z" fill="var(--iconPrimary, #222)" stroke-width="0"/>
  <path d="M9.25,18.00098c-.42139,0-.7627-.3418-.7627-.7627V2.76367c0-.4209.34131-.7627.7627-.7627s.7627.3418.7627.7627v14.47461c0,.4209-.34131.7627-.7627.7627Z" fill="var(--iconPrimary, #222)" stroke-width="0"/>
</svg>