<?xml version="1.0" encoding="UTF-8"?>
<svg   xmlns="http://www.w3.org/2000/svg" width="20" height="20" viewBox="0 0 20 20">
  <path d="M6.35254,15.5h-3.10254c-1.24072,0-2.25-1.00977-2.25-2.25v-.5c0-1.24023,1.00928-2.25,2.25-2.25h3.15332c.41406,0,.75.33594.75.75s-.33594.75-.75.75h-3.15332c-.41357,0-.75.33691-.75.75v.5c0,.41309.33643.75.75.75h3.10254c.41406,0,.75.33594.75.75s-.33594.75-.75.75Z" fill="var(--iconPrimary, #222)" stroke-width="0"/>
  <path d="M6.4541,9h-.2041c-1.24072,0-2.25-1.00977-2.25-2.25v-.5c0-1.24023,1.00928-2.25,2.25-2.25h.33154c.41406,0,.75.33594.75.75s-.33594.75-.75.75h-.33154c-.41357,0-.75.33691-.75.75v.5c0,.41309.33643.75.75.75h.2041c.41406,0,.75.33594.75.75s-.33594.75-.75.75Z" fill="var(--iconPrimary, #222)" stroke-width="0"/>
  <path d="M16.75,9h-4.29346c-.41406,0-.75-.33594-.75-.75s.33594-.75.75-.75h4.29346c.41357,0,.75-.33691.75-.75v-.5c0-.41309-.33643-.75-.75-.75h-4.39502c-.41406,0-.75-.33594-.75-.75s.33594-.75.75-.75h4.39502c1.24072,0,2.25,1.00977,2.25,2.25v.5c0,1.24023-1.00928,2.25-2.25,2.25Z" fill="var(--iconPrimary, #222)" stroke-width="0"/>
  <path d="M9.25,18.00098c-.42139,0-.7627-.3418-.7627-.7627V2.76367c0-.4209.34131-.7627.7627-.7627s.7627.3418.7627.7627v14.47461c0,.4209-.34131.7627-.7627.7627Z" fill="var(--iconPrimary, #222)" stroke-width="0"/>
  <path d="M15.75781,15.17188c-1.36621,0-2.47803-1.16016-2.47803-2.58594s1.11182-2.58594,2.47803-2.58594,2.47754,1.16016,2.47754,2.58594-1.11133,2.58594-2.47754,2.58594ZM15.75781,11.5c-.53906,0-.97803.4873-.97803,1.08594s.43896,1.08594.97803,1.08594.97754-.4873.97754-1.08594-.43848-1.08594-.97754-1.08594Z" fill="var(--iconPrimary, #222)" stroke-width="0"/>
  <path d="M12.75244,19.5c-.08203,0-.16553-.01367-.24756-.04199-.39111-.13672-.59717-.56445-.46045-.95605.45898-1.31152,1.98584-2.22852,3.71289-2.22852,1.72656,0,3.21191.88086,3.69629,2.19141.14355.38867-.05518.81934-.44385.96289-.3877.14648-.82031-.05469-.96338-.44336-.22217-.60156-1.08008-1.21094-2.28906-1.21094-1.22705,0-2.08398.61621-2.29688,1.22461-.10791.30859-.39795.50195-.70801.50195Z" fill="var(--iconPrimary, #222)" stroke-width="0"/>
  <path d="M15.75781,15.17188c-1.36621,0-2.47803-1.16016-2.47803-2.58594s1.11182-2.58594,2.47803-2.58594,2.47754,1.16016,2.47754,2.58594-1.11133,2.58594-2.47754,2.58594ZM15.75781,11.5c-.53906,0-.97803.4873-.97803,1.08594s.43896,1.08594.97803,1.08594.97754-.4873.97754-1.08594-.43848-1.08594-.97754-1.08594Z" fill="var(--iconPrimary, #222)" stroke-width="0"/>
</svg>