<?xml version="1.0" encoding="UTF-8"?>
<svg   xmlns="http://www.w3.org/2000/svg" width="20" height="20" viewBox="0 0 20 20">
  <path d="M10,12.77637c2.42285,0,4.25-1.71191,4.25-3.98145,0-1.7002-1.38672-3.52344-2.60986-5.13086-.37451-.49219-.73096-.95996-1.01611-1.3877-.27832-.41797-.96973-.41797-1.24805,0-.28516.42773-.6416.89551-1.01611,1.3877-1.22314,1.60742-2.60986,3.43066-2.60986,5.13086,0,2.26953,1.82715,3.98145,4.25,3.98145ZM9.55371,4.57227c.15283-.20117.30273-.39844.44629-.59082.14355.19238.29346.38965.44629.59082,1.02637,1.34863,2.30371,3.02734,2.30371,4.22266,0,1.4375-1.15674,2.48145-2.75,2.48145s-2.75-1.04395-2.75-2.48145c0-1.19531,1.27734-2.87402,2.30371-4.22266Z" fill="var(--iconPrimary, #222)" stroke-width="0"/>
  <path d="M18.25,5.80176c-.41406,0-.75.33594-.75.75v1.93555h-1.21729c-.41406,0-.75.33594-.75.75s.33594.75.75.75h1.21729v5.81445c0,.41309-.33643.75-.75.75H3.25c-.41357,0-.75-.33691-.75-.75v-5.81445h1.21729c.41406,0,.75-.33594.75-.75s-.33594-.75-.75-.75h-1.21729v-1.93555c0-.41406-.33594-.75-.75-.75s-.75.33594-.75.75v9.25c0,1.24023,1.00928,2.25,2.25,2.25h13.5c1.24072,0,2.25-1.00977,2.25-2.25V6.55176c0-.41406-.33594-.75-.75-.75Z" fill="var(--iconPrimary, #222)" stroke-width="0"/>
</svg>