<?xml version="1.0" encoding="UTF-8"?>
<svg   xmlns="http://www.w3.org/2000/svg" width="20" height="20" viewBox="0 0 20 20">
  <path d="m10,15.90625c-5.04688,0-9-2.7041-9-6.15625S4.95312,3.59375,10,3.59375s9,2.7041,9,6.15625-3.95312,6.15625-9,6.15625Zm0-10.8125c-4.06543,0-7.5,2.13184-7.5,4.65625s3.43457,4.65625,7.5,4.65625,7.5-2.13184,7.5-4.65625-3.43457-4.65625-7.5-4.65625Z" fill="var(--iconPrimary, #222)" stroke-width="0"/>
  <path d="m15.47363,8.52539c-.34863-.22461-.8125-.125-1.03711.22266-.13232.20447-.31128.3916-.51001.56885-.63281-1.10266-2.13281-1.86084-3.92651-1.86084s-3.2937.75818-3.92651,1.86084c-.19873-.17725-.37769-.36438-.51001-.56885-.22461-.34766-.68848-.44727-1.03711-.22266-.34766.22559-.44727.68945-.22266,1.03711.99902,1.54395,3.23535,2.54199,5.69629,2.54199s4.69727-.99805,5.69629-2.54199c.22461-.34766.125-.81152-.22266-1.03711Zm-8.10791,1.58167c.31445-.60095,1.30249-1.151,2.63428-1.151s2.31982.55005,2.63428,1.151c-.76953.31531-1.68262.49744-2.63428.49744s-1.86475-.18213-2.63428-.49744Z" fill="var(--iconPrimary, #222)" stroke-width="0"/>
</svg>