<?xml version="1.0" encoding="UTF-8"?>
<svg   xmlns="http://www.w3.org/2000/svg" width="20" height="20" viewBox="0 0 20 20">
  <path d="M13.02344,18.61035c-1.65039.00098-3.25684-.6084-4.55469-1.10156l-.35547-.13379c-.58691-.2207-1.06738-.39062-1.46387-.53027-1.30859-.46387-1.90625-.67578-2.30078-1.36816-.50488-.88477-.16016-2.11035.7373-2.62305.6875-.39355,1.24902-.2998,3.21875.22949l-3.49414-6.09668c-.25488-.44434-.32129-.95996-.1875-1.4541.13477-.49414.45215-.90625.89648-1.16016.44336-.25488.95898-.32129,1.45508-.1875.49316.13379.90625.45215,1.16016.89648l2.2627,3.94824c.51855-.2832,1.10352-.58105,1.58008-.73535,2.45215-.71387,4.43066.0459,5.30859,2.03027.59375,1.33984,2.39844,5.41504-1.51562,7.59766-.89844.50098-1.8291.68848-2.74707.68848ZM6.02539,14.12012c-.08789,0-.15234.01172-.19531.03613-.18262.10449-.27637.40625-.17871.57715.11328.19922.4502.32617,1.49902.69727.40332.14258.89258.31543,1.49023.54004l.35938.13574c1.84375.69922,4.1377,1.56836,6.04004.50488,1.90527-1.0625,2.16699-2.76074.875-5.67969-.75977-1.71387-2.51758-1.49023-3.49707-1.2041-.47656.1543-1.26758.59668-1.79004.88867l-.14844.08301c-.3623.20215-.8125.07324-1.01562-.28223l-2.62988-4.58984c-.05566-.09668-.14551-.16504-.25293-.19434-.10645-.03027-.21875-.01562-.31543.04004s-.16602.14453-.19434.25195c-.0293.10742-.01465.21875.04004.31543l4.39355,7.66504c.15137.2627.12891.59082-.05664.83105-.18359.23926-.49414.3418-.78809.2666l-1.01562-.27441c-1.43848-.39062-2.24414-.6084-2.61914-.6084Z" fill="var(--iconPrimary, #222)" stroke-width="0"/>
  <path d="M4.24805,10.09277c-.14062,0-.28223-.03906-.4082-.12207-1.35156-.88086-2.1582-2.36914-2.1582-3.98047C1.68164,3.37109,3.8125,1.24023,6.43164,1.24023s4.75,2.13086,4.75,4.75c0,.41406-.33594.75-.75.75s-.75-.33594-.75-.75c0-1.79199-1.45801-3.25-3.25-3.25s-3.25,1.45801-3.25,3.25c0,1.10254.55176,2.12109,1.47656,2.72461.34766.22559.44531.69043.21875,1.03711-.14355.2207-.38379.34082-.62891.34082Z" fill="var(--iconPrimary, #222)" stroke-width="0"/>
  <path d="M17.16412,3.20786l-2.12109-2.12109c-.24414-.24414-.64062-.24414-.88477,0-.24316.24414-.24316.64062,0,.88477l1.0542,1.05371h-2.52588c-.34473,0-.625.28027-.625.625s.28027.625.625.625h2.52588l-1.0542,1.05371c-.24316.24414-.24316.64062,0,.88477.12207.12207.28223.18262.44238.18262s.32031-.06055.44238-.18262l2.12109-2.12109c.24316-.24414.24316-.64062,0-.88477Z" fill="var(--iconPrimary, #222)" stroke-width="0"/>
</svg>