<?xml version="1.0" encoding="UTF-8"?>
<svg xmlns="http://www.w3.org/2000/svg" width="20" height="20" viewBox="0 0 20 20">
  <path d="m13.8291,18.13477c-1.88672,0-3.43555-.80566-4.72754-1.47852-.27832-.14453-.54785-.28516-.80762-.41016l-.53613-.25488c-1.84473-.875-2.99414-1.44824-3.36816-2.17773-.46484-.9082-.06738-2.11719.85156-2.58887.77637-.39746,1.56152-.18359,4.25879.66895v-7.13867c0-1.05566.8584-1.91406,1.91406-1.91406,1.05469,0,1.91309.8584,1.91309,1.91406v3.49316c3.76953.50977,5.24512,1.69531,5.38867,4.24512.08691,1.53418.26855,4.72656-3.53906,5.50391-.46777.0957-.91602.1377-1.34766.1377Zm-7.74121-5.60352c-.07227,0-.12598.00977-.16211.02832-.18555.09473-.29199.39355-.20117.56934.2168.33984,1.75586,1.07031,2.67578,1.50684l.54199.25879c.27441.13184.55762.27832.85156.43164,1.44922.75293,3.09473,1.60645,5.08203,1.20215,2.3457-.47949,2.44824-2.07324,2.3418-3.9502-.0791-1.41406-.45996-2.45117-4.65625-2.91211-.40723-.00879-.73438-.34082-.73438-.75v-4.16113c0-.22461-.18945-.41406-.41309-.41406-.22852,0-.41406.18555-.41406.41406v8.16504c0,.30371-.18262.57715-.46289.69336-.18359.07617-.38672.0752-.56445.00391l-.42676-.13574c-1.80859-.57324-2.99609-.9502-3.45801-.9502Z" fill="var(--iconPrimary, #222)" stroke-width="0"/>
  <path d="m7.34961,3.02539h-3c-.34473,0-.625.28027-.625.625s.28027.625.625.625h1.5957l-3.66992,3.66907v-1.57922c0-.34473-.28027-.625-.625-.625s-.625.28027-.625.625v3c0,.34473.28027.625.625.625h3c.34473,0,.625-.28027.625-.625s-.28027-.625-.625-.625h-1.40137l3.47559-3.47485v1.38501c0,.34473.28027.625.625.625s.625-.28027.625-.625v-3c0-.34473-.28027-.625-.625-.625Z" fill="var(--iconPrimary, #222)" stroke-width="0"/>
</svg>