<?xml version="1.0" encoding="UTF-8"?>
<svg xmlns="http://www.w3.org/2000/svg" width="20" height="20" viewBox="0 0 20 20">
  <path d="m13.15918,8.49023v-4.38672c0-1.05664-.85938-1.91602-1.91504-1.91602-.68628,0-1.28442.36548-1.62305.90906-.21973-.08801-.45801-.13953-.70898-.13953-1.05664,0-1.91602.85938-1.91602,1.91602v5.77661c-1.43799-1.43018-1.88794-1.79822-2.67773-1.79907h-.00488c-.5,0-.99805.21094-1.36816.58008-.36816.36523-.57031.83789-.57129,1.3291-.00195.79785.41211,1.2793,1.31836,2.33398.27344.31738.60547.70312,1.00391,1.18457l.24219.29492c1.37207,1.66797,3.25098,3.95312,6.12891,3.9873h.07812c4.40918,0,4.86426-4.38965,5.01465-5.83789.20605-1.98438-.90723-3.53418-3.00098-4.23242Zm-2.01367,8.57031h-.06055c-2.18066-.02637-3.7373-1.91895-4.9873-3.44043l-.24609-.29883c-.40625-.48926-.74316-.88184-1.02148-1.20605-.72656-.84473-.95703-1.12305-.95605-1.35254,0-.08984.04688-.1875.12891-.26953.08984-.08887.20605-.14258.31152-.14258h.00098c.2627,0,.8584.59668,2.16309,1.90137l.73828.7373c.29395.29102.76855.29297,1.06055-.00195.11841-.11914.17578-.26978.19775-.42407.01245-.01147.021-.03809.021-.10522v-7.58496c0-.22949.18652-.41602.41602-.41602s.41602.18652.41602.41602v4.04004c0,.41406.33594.75.75.75s.75-.33594.75-.75v-4.80957c0-.22949.18652-.41602.41602-.41602.22852,0,.41504.18652.41504.41602v4.95117c0,.34668.2373.64746.57422.72949.99219.23926,2.62793.91895,2.43457,2.78418-.32617,3.14453-1.38086,4.49219-3.52246,4.49219Z" fill="var(--iconPrimary, #222)" stroke-width="0"/>
  <path d="m5,3.75488h-2.526l1.05432-1.05371c.24414-.24414.24512-.63965.00098-.88379s-.63965-.24512-.88379-.00098L.52344,3.9375c-.11816.11719-.18359.27637-.18359.44238s.06543.3252.18359.44238l2.12207,2.12109c.12207.12207.28125.18262.44141.18262s.32031-.06152.44238-.18359c.24414-.24414.24316-.63965-.00098-.88379l-1.05432-1.05371h2.526c.34473,0,.625-.28027.625-.625s-.28027-.625-.625-.625Z" fill="var(--iconPrimary, #222)" stroke-width="0"/>
  <path d="m19.44238,3.9375l-2.12109-2.12109c-.24414-.24414-.64062-.24414-.88477,0-.24316.24414-.24316.64062,0,.88477l1.0542,1.05371h-2.52588c-.34473,0-.625.28027-.625.625s.28027.625.625.625h2.52588l-1.0542,1.05371c-.24316.24414-.24316.64062,0,.88477.12207.12207.28223.18262.44238.18262s.32031-.06055.44238-.18262l2.12109-2.12109c.24316-.24414.24316-.64062,0-.88477Z" fill="var(--iconPrimary, #222)" stroke-width="0"/>
</svg>