<?xml version="1.0" encoding="UTF-8"?>
<svg   xmlns="http://www.w3.org/2000/svg" width="20" height="20" viewBox="0 0 20 20">
  <path d="M13.14453,19.06055h-.07812c-2.87988-.03418-4.75781-2.32031-6.12988-3.98926l-.24121-.29297c-.39648-.47949-.72754-.86426-1-1.18164-.90918-1.05664-1.32324-1.53809-1.32227-2.33594.00293-1.01855.91016-1.91016,1.94043-1.91016.79492.00098,1.2373.3623,2.68262,1.79883v-7.02637c0-1.05566.85938-1.91504,1.91602-1.91504,1.05566,0,1.91504.85938,1.91504,1.91504v4.5498c.59082.0127,1.24609.04492,1.73633.14746,2.48438.59961,3.82031,2.24316,3.59668,4.40234-.15039,1.44824-.60547,5.83789-5.01562,5.83789ZM6.31348,10.85059c-.20898,0-.43945.21582-.44043.41309,0,.22852.23047.50684.95898,1.35449.27832.32324.61426.71484,1.01855,1.20312l.24512.29688c1.25098,1.52246,2.80664,3.41602,4.98828,3.44238,2.19727-.01172,3.25488-1.31641,3.58398-4.49219.19336-1.86523-1.44238-2.54492-2.43457-2.78418-.49316-.10352-1.40039-.11328-2.00195-.11914l-.16309-.00195c-.41113-.00488-.74121-.33887-.74121-.75v-5.29004c0-.22852-.18652-.41504-.41504-.41504-.22949,0-.41602.18652-.41602.41504v8.83496c0,.30273-.18262.57617-.46191.69238-.28125.11719-.60254.05176-.81738-.16113l-.73926-.73828c-1.30469-1.30469-1.90039-1.90039-2.16406-1.90039Z" fill="var(--iconPrimary, #222)" stroke-width="0"/>
  <path d="M6.30371,5.39355l-1.05371,1.05432V2.43201l1.05371,1.05432c.12207.12207.28223.18262.44238.18262s.32031-.06055.44238-.18262c.24316-.24414.24316-.64062,0-.88477L5.06738.48047c-.24414-.24414-.64062-.24414-.88477,0l-2.12109,2.12109c-.24316.24414-.24316.64062,0,.88477.24414.24414.64062.24414.88477,0l1.05371-1.05432v4.01587l-1.05371-1.05432c-.24414-.24414-.64062-.24414-.88477,0-.24316.24414-.24316.64062,0,.88477l2.12109,2.12109c.12207.12207.28223.18262.44238.18262s.32031-.06055.44238-.18262l2.12109-2.12109c.24316-.24414.24316-.64062,0-.88477-.24414-.24414-.64062-.24414-.88477,0Z" fill="var(--iconPrimary, #222)" stroke-width="0"/>
</svg>