<?xml version="1.0" encoding="UTF-8"?>
<svg   xmlns="http://www.w3.org/2000/svg" width="20" height="20" viewBox="0 0 20 20">
  <path d="M13.78906,19.26172h-.07227c-2.61133-.03125-4.30273-2.08984-5.53906-3.59375l-.21484-.26074c-.35547-.42969-.65137-.77344-.89453-1.05762-.82422-.95801-1.2002-1.39551-1.19824-2.13867.00098-.46484.2041-.92578.55664-1.26562.34277-.33008.80078-.51953,1.25684-.51953h.00293c.70996.00195,1.13965.33594,2.31348,1.49609v-6.08594c0-.98828.80371-1.79199,1.79199-1.79199.9873,0,1.79102.80371,1.79102,1.79199v3.9873c.51074.0127,1.06445.04297,1.4873.13086,2.26465.54688,3.48145,2.04785,3.27734,4.01953-.13672,1.3125-.5498,5.28809-4.55859,5.28809ZM7.68262,11.92578c-.06836,0-.15137.03809-.21582.10059-.06055.05762-.09668.12793-.09668.1875-.00098.17676.21387.43555.83496,1.1582.24902.28906.55078.64062.91406,1.07812l.21777.26562c1.10742,1.34668,2.48438,3.02344,4.39746,3.0459h.05273c1.86328,0,2.78125-1.18262,3.06836-3.94238.1582-1.52539-1.0625-2.14746-2.11426-2.40137-.43066-.08984-1.23828-.09863-1.77246-.10352l-.14453-.00195c-.41113-.00488-.74121-.33887-.74121-.75v-4.72656c0-.16113-.13086-.29199-.29102-.29199-.16113,0-.29199.13086-.29199.29199v7.89355c0,.30273-.18262.57617-.46191.69238-.28223.11719-.60156.05273-.81738-.16113l-.66309-.66211c-1.07812-1.07812-1.67285-1.67188-1.875-1.67285h0Z" fill="var(--iconPrimary, #222)"/>
  <path d="M3.5,13h-.25c-1.24023,0-2.25-1.00977-2.25-2.25V3.25c0-1.24023,1.00977-2.25,2.25-2.25h11.5c1.24023,0,2.25,1.00977,2.25,2.25v4.5c0,.41406-.33594.75-.75.75s-.75-.33594-.75-.75V3.25c0-.41309-.33691-.75-.75-.75H3.25c-.41309,0-.75.33691-.75.75v7.5c0,.41309.33691.75.75.75h.25c.41406,0,.75.33594.75.75s-.33594.75-.75.75Z" fill="var(--iconPrimary, #222)"/>
</svg>