<?xml version="1.0" encoding="UTF-8"?>
<svg xmlns="http://www.w3.org/2000/svg" width="20" height="20" viewBox="0 0 20 20">
  <circle cx="3.56318" cy="10.32555" r=".75" fill="var(--iconPrimary, #222)"/>
  <circle cx="5.21343" cy="8.62576" r=".75" fill="var(--iconPrimary, #222)"/>
  <circle cx="7.49544" cy="7.99908" r=".75" fill="var(--iconPrimary, #222)"/>
  <path d="M13.5,2.25c-2.34375,0-4.25,1.90625-4.25,4.25,0,.49316.10742.96484.27039,1.41992-.27991.10889-.47986.37695-.47986.69531,0,.41431.33582.75.75.75.11694,0,.22412-.03198.32263-.07959l.92395,1.96436c.1416.39941.21289.81934.21289,1.25,0,2.06738-1.68262,3.75-3.75,3.75s-3.75-1.68262-3.75-3.75c0-.41406-.33594-.75-.75-.75s-.75.33594-.75.75c0,2.89453,2.35547,5.25,5.25,5.25s5.25-2.35547,5.25-5.25c0-.60156-.10059-1.19043-.32715-1.81836l-.17065-.36401c.2677-.1145.45557-.37964.45557-.68921,0-.41406-.33594-.75-.75-.75-.12366,0-.23535.03711-.33813.09009l-.60498-1.29077c-.17578-.36914-.26465-.76465-.26465-1.17773,0-1.5166,1.2334-2.75,2.75-2.75s2.75,1.2334,2.75,2.75c0,.41406.33594.75.75.75s.75-.33594.75-.75c0-2.34375-1.90625-4.25-4.25-4.25Z" fill="var(--iconPrimary, #222)"/>
  <circle cx="14.29192" cy="9.91045" r=".75" fill="var(--iconPrimary, #222)"/>
  <circle cx="16.27641" cy="8.618" r=".75" fill="var(--iconPrimary, #222)"/>
</svg>