<?xml version="1.0" encoding="UTF-8"?>
<svg id="e" data-name="ICONS" xmlns="http://www.w3.org/2000/svg" width="20" height="20" viewBox="0 0 20 20">
  <path d="M5.76465,18.00195c-.24805,0-.5-.04199-.74805-.12695-.92188-.31836-1.5166-1.15332-1.5166-2.12695V4.25195c0-.97363.59473-1.80859,1.5166-2.12695.91895-.31348,1.9043-.02637,2.50488.73926l4.50293,5.74805c.64062.81738.64062,1.95801,0,2.77539l-4.50293,5.74805c-.43945.55957-1.08301.86621-1.75684.86621ZM5.76758,3.5c-.11816,0-.21387.02637-.26172.04297-.11914.04102-.50586.21289-.50586.70898v11.49609c0,.49609.38672.66797.50586.70898.11719.04102.52734.14453.83398-.24707l4.50391-5.74805c.21387-.27148.21387-.65234.00098-.92383h-.00098L6.33984,3.79004c-.18164-.23242-.40039-.29004-.57227-.29004Z" fill="var(--iconPrimary, #222)"/>
  <path d="M11.47559,18c-.16113,0-.32422-.05176-.46191-.16016-.32617-.25488-.38281-.72656-.12695-1.05273l4.95703-6.3252c.21289-.27148.21289-.65234,0-.92383l-4.95703-6.3252c-.25586-.32617-.19922-.79785.12695-1.05273.32715-.25977.79785-.19824,1.05273.12695l4.95703,6.3252c.64062.81738.64062,1.95801,0,2.77539l-4.95703,6.3252c-.14746.18848-.36816.28711-.59082.28711Z" fill="var(--iconPrimary, #222)" opacity=".35"/>
</svg>