<?xml version="1.0" encoding="UTF-8"?>
<svg xmlns="http://www.w3.org/2000/svg" width="20" height="20" viewBox="0 0 20 20">
  <path d="M10,12.625c-1.44727,0-2.625-1.17773-2.625-2.625s1.17773-2.625,2.625-2.625,2.625,1.17773,2.625,2.625-1.17773,2.625-2.625,2.625ZM10,8.625c-.75781,0-1.375.61719-1.375,1.375s.61719,1.375,1.375,1.375,1.375-.61719,1.375-1.375-.61719-1.375-1.375-1.375Z" fill="var(--iconPrimary, #222)"/>
  <path d="M7.03027,5.96973l-2.46973-2.46973h1.18945c.41406,0,.75-.33594.75-.75s-.33594-.75-.75-.75h-3c-.09766,0-.19495.02002-.28662.05786-.18335.07617-.32935.22217-.40552.40552-.03784.0918-.05786.18896-.05786.28662v3c0,.41406.33594.75.75.75s.75-.33594.75-.75v-1.18945l2.46973,2.46973c.14648.14648.33789.21973.53027.21973s.38379-.07324.53027-.21973c.29297-.29297.29297-.76758,0-1.06055Z" fill="var(--iconPrimary, #222)"/>
  <path d="M17.94214,2.46338c-.07617-.18335-.22217-.32935-.40552-.40552-.09167-.03784-.18896-.05786-.28662-.05786h-3c-.41406,0-.75.33594-.75.75s.33594.75.75.75h1.18945l-2.46973,2.46973c-.29297.29297-.29297.76758,0,1.06055.14648.14648.33789.21973.53027.21973s.38379-.07324.53027-.21973l2.46973-2.46973v1.18945c0,.41406.33594.75.75.75s.75-.33594.75-.75v-3c0-.09766-.02002-.19482-.05786-.28662Z" fill="var(--iconPrimary, #222)"/>
  <path d="M18,14.25c0-.41406-.33594-.75-.75-.75s-.75.33594-.75.75v1.18945l-2.46973-2.46973c-.29297-.29297-.76758-.29297-1.06055,0s-.29297.76758,0,1.06055l2.46973,2.46973h-1.18945c-.41406,0-.75.33594-.75.75s.33594.75.75.75h3c.0979,0,.19531-.02002.28687-.05811.18323-.07593.32922-.22217.40527-.40527.03784-.0918.05786-.18896.05786-.28662v-3Z" fill="var(--iconPrimary, #222)"/>
  <path d="M7.03027,12.96973c-.29297-.29297-.76758-.29297-1.06055,0l-2.46973,2.46973v-1.18945c0-.41406-.33594-.75-.75-.75s-.75.33594-.75.75v3c0,.09766.02002.19482.05786.28662.07605.18311.22205.32935.40527.40527.09155.03809.18896.05811.28687.05811h3c.41406,0,.75-.33594.75-.75s-.33594-.75-.75-.75h-1.18945l2.46973-2.46973c.29297-.29297.29297-.76758,0-1.06055Z" fill="var(--iconPrimary, #222)"/>
</svg>