<?xml version="1.0" encoding="UTF-8"?>
<svg xmlns="http://www.w3.org/2000/svg" width="20" height="20" viewBox="0 0 20 20">
  <path d="M7,7h7v4.75c0,1.24181-1.00819,2.25-2.25,2.25h-4.75v-7h0Z" fill="var(--iconPrimary, #222)" opacity=".12"/>
  <path d="M16.75,19h-8.5c-1.24072,0-2.25-1.00928-2.25-2.25v-8.5c0-1.24072,1.00928-2.25,2.25-2.25h8.5c1.24072,0,2.25,1.00928,2.25,2.25v8.5c0,1.24072-1.00928,2.25-2.25,2.25ZM8.25,7.5c-.41357,0-.75.33643-.75.75v8.5c0,.41357.33643.75.75.75h8.5c.41357,0,.75-.33643.75-.75v-8.5c0-.41357-.33643-.75-.75-.75h-8.5Z" fill="var(--iconPrimary, #222)"/>
  <path d="M3.74707,14h-.49707c-1.24072,0-2.25-1.00928-2.25-2.25V3.25c0-1.24072,1.00928-2.25,2.25-2.25h8.5c1.24072,0,2.25,1.00928,2.25,2.25v.48096c0,.41406-.33594.75-.75.75s-.75-.33594-.75-.75v-.48096c0-.41357-.33643-.75-.75-.75H3.25c-.41357,0-.75.33643-.75.75v8.5c0,.41357.33643.75.75.75h.49707c.41406,0,.75.33594.75.75s-.33594.75-.75.75Z" fill="var(--iconPrimary, #222)"/>
  <path d="M11.75,14h-2c-.41406,0-.75-.33594-.75-.75s.33594-.75.75-.75h2c.41357,0,.75-.33643.75-.75v-2c0-.41406.33594-.75.75-.75s.75.33594.75.75v2c0,1.24072-1.00928,2.25-2.25,2.25Z" fill="var(--iconPrimary, #222)" opacity=".5"/>
  <path d="M8.25,6h5.75v-2.75c0-1.24264-1.00736-2.25-2.25-2.25H3.25c-1.24264,0-2.25,1.00736-2.25,2.25v8.5c0,1.24264,1.00736,2.25,2.25,2.25h2.75v-5.75c0-1.24264,1.00736-2.25,2.25-2.25Z" fill="var(--iconPrimary, #222)" opacity=".2"/>
</svg>