<?xml version="1.0" encoding="UTF-8"?>
<svg   xmlns="http://www.w3.org/2000/svg" width="20" height="20" viewBox="0 0 20 20">
  <path d="M7,16.5h-2.75c-1.24023,0-2.25-1.00977-2.25-2.25V5.75c0-1.24023,1.00977-2.25,2.25-2.25h2.75c.41406,0,.75.33594.75.75s-.33594.75-.75.75h-2.75c-.41309,0-.75.33691-.75.75v8.5c0,.41309.33691.75.75.75h2.75c.41406,0,.75.33594.75.75s-.33594.75-.75.75Z" fill="var(--iconPrimary, #222)" stroke-width="0"/>
  <path d="M15.75,18h-6c-.41406,0-.75-.33594-.75-.75V2.75c0-.41406.33594-.75.75-.75h6c1.24023,0,2.25,1.00977,2.25,2.25v11.5c0,1.24023-1.00977,2.25-2.25,2.25ZM10.5,16.5h5.25c.41309,0,.75-.33691.75-.75V4.25c0-.41309-.33691-.75-.75-.75h-5.25v13Z" fill="var(--iconPrimary, #222)" stroke-width="0"/>
</svg>