<?xml version="1.0" encoding="UTF-8"?><svg id="e" xmlns="http://www.w3.org/2000/svg" width="20" height="20" viewBox="0 0 20 20"><polygon points="3.5 16.5 16.5 16.5 10.02629 10.02629 3.5 16.5" fill="var(--iconPrimary,#222)" opacity=".12"/><polygon points="3.5 3.5 16.5 3.5 10.02629 9.97371 3.5 3.5" fill="var(--iconPrimary,#222)" opacity=".12"/><path d="M15.75,2H4.25c-1.24023,0-2.25,1.00977-2.25,2.25v11.5c0,1.24023,1.00977,2.25,2.25,2.25h11.5c1.24023,0,2.25-1.00977,2.25-2.25V4.25c0-1.24023-1.00977-2.25-2.25-2.25ZM8.93945,10l-5.43945,5.43945V4.56055l5.43945,5.43945ZM4.56055,3.5h10.87891l-5.43945,5.43945L4.56055,3.5ZM10,11.06055l5.43945,5.43945H4.56055l5.43945-5.43945ZM11.06055,10l5.43945-5.43945v10.87891l-5.43945-5.43945Z" fill="var(--iconPrimary,#222)"/></svg>