<?xml version="1.0" encoding="UTF-8"?>
<svg   xmlns="http://www.w3.org/2000/svg" width="20" height="20" viewBox="0 0 20 20">
  <path d="M15.75,18h-6.5c-.41406,0-.75-.33594-.75-.75s.33594-.75.75-.75h6.5c.41309,0,.75-.33691.75-.75V4.25c0-.41309-.33691-.75-.75-.75h-1.5c-.41406,0-.75-.33594-.75-.75s.33594-.75.75-.75h1.5c1.24023,0,2.25,1.00977,2.25,2.25v11.5c0,1.24023-1.00977,2.25-2.25,2.25Z" fill="var(--iconPrimary, #222)" stroke-width="0"/>
  <path d="M10.25,2h-6c-1.24023,0-2.25,1.00977-2.25,2.25v11.5c0,1.24023,1.00977,2.25,2.25,2.25h1c1.24023,0,2.25-1.00977,2.25-2.25v-2.75h.25c1.24023,0,2.25-1.00977,2.25-2.25v-2.75h.25c1.24023,0,2.25-1.00977,2.25-2.25v-1.5c0-1.24023-1.00977-2.25-2.25-2.25ZM6,15.75c0,.41309-.33691.75-.75.75h-1c-.41309,0-.75-.33691-.75-.75v-2.75h2.5v2.75ZM8.5,10.75c0,.41309-.33691.75-.75.75H3.5v-3.5h5v2.75ZM11,5.75c0,.41309-.33691.75-.75.75H3.5v-2.25c0-.41309.33691-.75.75-.75h6c.41309,0,.75.33691.75.75v1.5Z" fill="var(--iconPrimary, #222)" stroke-width="0"/>
</svg>