<?xml version="1.0" encoding="UTF-8"?>
<svg   xmlns="http://www.w3.org/2000/svg" width="20" height="20" viewBox="0 0 20 20">
  <path d="M15.75,16.5c.41309,0,.75-.33691.75-.75V4.25c0-.41309-.33691-.75-.75-.75H4.25c-.41309,0-.75.33691-.75.75v11.5c0,.41309.33691.75.75.75h11.5ZM10,6.98877c1.66309,0,3.01123,1.34814,3.01123,3.01123s-1.34814,3.01123-3.01123,3.01123-3.01123-1.34814-3.01123-3.01123,1.34814-3.01123,3.01123-3.01123Z" fill="var(--iconPrimary, #222)" opacity=".04" stroke-width="0"/>
  <path d="M15.75,16.5c.41309,0,.75-.33691.75-.75V4.25c0-.41309-.33691-.75-.75-.75H4.25c-.41309,0-.75.33691-.75.75v11.5c0,.41309.33691.75.75.75h11.5ZM10,6.52783c1.91748,0,3.47217,1.55444,3.47217,3.47217,0,1.91748-1.55469,3.47217-3.47217,3.47217s-3.47217-1.55469-3.47217-3.47217c0-1.91772,1.55469-3.47217,3.47217-3.47217Z" fill="var(--iconPrimary, #222)" opacity=".05" stroke-width="0"/>
  <path d="M15.75,16.5c.41309,0,.75-.33691.75-.75V4.25c0-.41309-.33691-.75-.75-.75H4.25c-.41309,0-.75.33691-.75.75v11.5c0,.41309.33691.75.75.75h11.5ZM10,6.1416c2.13086,0,3.8584,1.72729,3.8584,3.8584,0,2.13086-1.72754,3.85815-3.8584,3.85815s-3.8584-1.72729-3.8584-3.85815c0-2.1311,1.72754-3.8584,3.8584-3.8584Z" fill="var(--iconPrimary, #222)" opacity=".06" stroke-width="0"/>
  <path d="M15.75,16.5c.41309,0,.75-.33691.75-.75V4.25c0-.41309-.33691-.75-.75-.75H4.25c-.41309,0-.75.33691-.75.75v11.5c0,.41309.33691.75.75.75h11.5ZM10,5.80566c2.31665,0,4.19434,1.87769,4.19434,4.19434s-1.87769,4.19434-4.19434,4.19434-4.19434-1.87769-4.19434-4.19434,1.87769-4.19434,4.19434-4.19434Z" fill="var(--iconPrimary, #222)" opacity=".06" stroke-width="0"/>
  <path d="M15.75,16.5c.41309,0,.75-.33691.75-.75V4.25c0-.41309-.33691-.75-.75-.75H4.25c-.41309,0-.75.33691-.75.75v11.5c0,.41309.33691.75.75.75h11.5ZM10,5.44434c2.51611,0,4.55566,2.03955,4.55566,4.55566s-2.03955,4.55566-4.55566,4.55566-4.55566-2.03955-4.55566-4.55566,2.03955-4.55566,4.55566-4.55566Z" fill="var(--iconPrimary, #222)" opacity=".06" stroke-width="0"/>
  <path d="M15.75,16.5c.41309,0,.75-.33691.75-.75V4.25c0-.41309-.33691-.75-.75-.75H4.25c-.41309,0-.75.33691-.75.75v11.5c0,.41309.33691.75.75.75h11.5ZM10,5.08325c2.71558,0,4.91675,2.20117,4.91675,4.91675,0,2.71533-2.20117,4.9165-4.91675,4.9165s-4.91675-2.20117-4.91675-4.9165c0-2.71558,2.20117-4.91675,4.91675-4.91675Z" fill="var(--iconPrimary, #222)" opacity=".06" stroke-width="0"/>
  <path d="M15.75,16.5c.41309,0,.75-.33691.75-.75V4.25c0-.41309-.33691-.75-.75-.75H4.25c-.41309,0-.75.33691-.75.75v11.5c0,.41309.33691.75.75.75h11.5ZM10,4.72217c2.91504,0,5.27783,2.36279,5.27783,5.27783s-2.36279,5.27783-5.27783,5.27783-5.27783-2.36279-5.27783-5.27783,2.36279-5.27783,5.27783-5.27783Z" fill="var(--iconPrimary, #222)" opacity=".06" stroke-width="0"/>
  <path d="M15.75,16.5c.41309,0,.75-.33691.75-.75V4.25c0-.41309-.33691-.75-.75-.75H4.25c-.41309,0-.75.33691-.75.75v11.5c0,.41309.33691.75.75.75h11.5ZM10,4.36108c3.11426,0,5.63892,2.52466,5.63892,5.63892s-2.52466,5.63892-5.63892,5.63892-5.63892-2.52466-5.63892-5.63892,2.52466-5.63892,5.63892-5.63892Z" fill="var(--iconPrimary, #222)" opacity=".06" stroke-width="0"/>
  <path d="M15.75,16.5c.41309,0,.75-.33691.75-.75V4.25c0-.41309-.33691-.75-.75-.75H4.25c-.41309,0-.75.33691-.75.75v11.5c0,.41309.33691.75.75.75h11.5ZM10,4c3.31372,0,6,2.68628,6,6s-2.68628,6-6,6-6-2.68628-6-6,2.68628-6,6-6Z" fill="var(--iconPrimary, #222)" opacity=".06" stroke-width="0"/>
  <path d="M15.75,16.5c.41309,0,.75-.33691.75-.75V4.25c0-.41309-.33691-.75-.75-.75H4.25c-.41309,0-.75.33691-.75.75v11.5c0,.41309.33691.75.75.75h11.5ZM3.63892,10c0-3.51343,2.8479-6.36108,6.36108-6.36108s6.36108,2.84766,6.36108,6.36108c0,3.51318-2.8479,6.36108-6.36108,6.36108s-6.36108-2.8479-6.36108-6.36108Z" fill="var(--iconPrimary, #222)" opacity=".07" stroke-width="0"/>
  <path d="M8.31226,3.5h-4.06226c-.41309,0-.75.33691-.75.75v4.0625c.60986-2.354,2.45825-4.20264,4.81226-4.8125Z" fill="var(--iconPrimary, #222)" opacity=".08" stroke-width="0"/>
  <path d="M11.6875,16.5h4.0625c.41309,0,.75-.33691.75-.75v-4.0625c-.60986,2.354-2.4585,4.20264-4.8125,4.8125Z" fill="var(--iconPrimary, #222)" opacity=".08" stroke-width="0"/>
  <path d="M16.5,8.3125v-4.0625c0-.41309-.33691-.75-.75-.75h-4.06226c2.354.60986,4.20239,2.4585,4.81226,4.8125Z" fill="var(--iconPrimary, #222)" opacity=".08" stroke-width="0"/>
  <path d="M3.5,11.6875v4.0625c0,.41309.33691.75.75.75h4.0625c-2.354-.60986-4.20264-2.4585-4.8125-4.8125Z" fill="var(--iconPrimary, #222)" opacity=".08" stroke-width="0"/>
  <path d="M16.5,7.1875v-2.9375c0-.41309-.33691-.75-.75-.75h-2.93701c1.64941.71484,2.97217,2.03809,3.68701,3.6875Z" fill="var(--iconPrimary, #222)" opacity=".09" stroke-width="0"/>
  <path d="M12.8125,16.5h2.9375c.41309,0,.75-.33691.75-.75v-2.93774c-.71484,1.64966-2.03809,2.9729-3.6875,3.68774Z" fill="var(--iconPrimary, #222)" opacity=".09" stroke-width="0"/>
  <path d="M7.18701,3.5h-2.93701c-.41309,0-.75.33691-.75.75v2.9375c.71484-1.64941,2.0376-2.97266,3.68701-3.6875Z" fill="var(--iconPrimary, #222)" opacity=".09" stroke-width="0"/>
  <path d="M3.5,12.81226v2.93774c0,.41309.33691.75.75.75h2.9375c-1.64941-.71484-2.97266-2.03809-3.6875-3.68774Z" fill="var(--iconPrimary, #222)" opacity=".09" stroke-width="0"/>
  <path d="M6.37598,3.5h-2.12598c-.41309,0-.75.33691-.75.75v2.12598c.67334-1.20508,1.6709-2.20264,2.87598-2.87598Z" fill="var(--iconPrimary, #222)" opacity=".1" stroke-width="0"/>
  <path d="M13.62402,16.5h2.12598c.41309,0,.75-.33691.75-.75v-2.12598c-.67334,1.20508-1.6709,2.20264-2.87598,2.87598Z" fill="var(--iconPrimary, #222)" opacity=".1" stroke-width="0"/>
  <path d="M16.5,6.37598v-2.12598c0-.41309-.33691-.75-.75-.75h-2.12598c1.20508.67334,2.20264,1.6709,2.87598,2.87598Z" fill="var(--iconPrimary, #222)" opacity=".1" stroke-width="0"/>
  <path d="M3.5,13.62402v2.12598c0,.41309.33691.75.75.75h2.12598c-1.20508-.67334-2.20264-1.6709-2.87598-2.87598Z" fill="var(--iconPrimary, #222)" opacity=".1" stroke-width="0"/>
  <path d="M3.5,14.31885v1.43115c0,.41309.33691.75.75.75h1.43115c-.86401-.5752-1.60596-1.31738-2.18115-2.18115Z" fill="var(--iconPrimary, #222)" opacity=".11" stroke-width="0"/>
  <path d="M14.31885,16.5h1.43115c.41309,0,.75-.33691.75-.75v-1.43115c-.5752.86377-1.31714,1.60596-2.18115,2.18115Z" fill="var(--iconPrimary, #222)" opacity=".11" stroke-width="0"/>
  <path d="M5.68066,3.5h-1.43066c-.41309,0-.75.33691-.75.75v1.43091c.5752-.86377,1.31689-1.60571,2.18066-2.18091Z" fill="var(--iconPrimary, #222)" opacity=".11" stroke-width="0"/>
  <path d="M16.5,5.68091v-1.43091c0-.41309-.33691-.75-.75-.75h-1.43066c.86377.5752,1.60547,1.31714,2.18066,2.18091Z" fill="var(--iconPrimary, #222)" opacity=".11" stroke-width="0"/>
  <path d="M14.92969,16.5h.82031c.41309,0,.75-.33691.75-.75v-.82031c-.4502.59253-.97803,1.12012-1.57031,1.57031Z" fill="var(--iconPrimary, #222)" opacity=".12" stroke-width="0"/>
  <path d="M3.5,14.92969v.82031c0,.41309.33691.75.75.75h.82031c-.59229-.4502-1.12012-.97778-1.57031-1.57031Z" fill="var(--iconPrimary, #222)" opacity=".12" stroke-width="0"/>
  <path d="M16.5,5.07007v-.82007c0-.41309-.33691-.75-.75-.75h-.82007c.59253.44995,1.12012.97754,1.57007,1.57007Z" fill="var(--iconPrimary, #222)" opacity=".12" stroke-width="0"/>
  <path d="M5.07007,3.5h-.82007c-.41309,0-.75.33691-.75.75v.82007c.44995-.59253.97754-1.12012,1.57007-1.57007Z" fill="var(--iconPrimary, #222)" opacity=".12" stroke-width="0"/>
  <path d="M4.48682,3.5h-.23682c-.41309,0-.75.33691-.75.75v.23682c.30176-.35522.63159-.68506.98682-.98682Z" fill="var(--iconPrimary, #222)" opacity=".13" stroke-width="0"/>
  <path d="M15.51318,16.5h.23682c.41309,0,.75-.33691.75-.75v-.23682c-.30176.35522-.63159.68506-.98682.98682Z" fill="var(--iconPrimary, #222)" opacity=".13" stroke-width="0"/>
  <path d="M16.5,4.48682v-.23682c0-.41309-.33691-.75-.75-.75h-.23682c.35522.30176.68506.63159.98682.98682Z" fill="var(--iconPrimary, #222)" opacity=".13" stroke-width="0"/>
  <path d="M3.5,15.51318v.23682c0,.41309.33691.75.75.75h.23682c-.35522-.30176-.68506-.63159-.98682-.98682Z" fill="var(--iconPrimary, #222)" opacity=".13" stroke-width="0"/>
  <path d="M15.75,18H4.25c-1.24023,0-2.25-1.00977-2.25-2.25V4.25c0-1.24023,1.00977-2.25,2.25-2.25h11.5c1.24023,0,2.25,1.00977,2.25,2.25v11.5c0,1.24023-1.00977,2.25-2.25,2.25ZM4.25,3.5c-.41309,0-.75.33691-.75.75v11.5c0,.41309.33691.75.75.75h11.5c.41309,0,.75-.33691.75-.75V4.25c0-.41309-.33691-.75-.75-.75H4.25Z" fill="var(--iconPrimary, #222)" stroke-width="0"/>
</svg>