<?xml version="1.0" encoding="UTF-8"?>
<svg id="e" data-name="ICONS" xmlns="http://www.w3.org/2000/svg" width="20" height="20" viewBox="0 0 20 20">
  <path d="M11.86914,9.13477l-1.34375-3.17676c-.11719-.27734-.38867-.45801-.69043-.45801s-.57324.18066-.69043.45801l-1.65942,3.92212c-.66809-.58862-1.26013-1.24121-1.76074-1.9314,1.49792-1.08008,2.71069-2.66309,3.11206-4.69873h.91357c.41406,0,.75-.33594.75-.75s-.33594-.75-.75-.75h-3.5v-.5c0-.41406-.33594-.75-.75-.75s-.75.33594-.75.75v.5H1.25c-.41406,0-.75.33594-.75.75s.33594.75.75.75h6.05542c-.3811,1.53564-1.32617,2.65088-2.37842,3.42188-.32739-.62109-.58435-1.25488-.74438-1.88477-.10156-.40234-.51465-.64355-.91113-.54199-.40137.10156-.64453.50977-.54199.91113.19458.76636.50635,1.53516.90796,2.28394-.56128.26636-1.10132.44629-1.55151.54712-.4043.08984-.6582.49121-.56738.89551.07812.34863.3877.58594.73047.58594.05469,0,.10938-.00586.16504-.01855.67261-.15039,1.35962-.39551,2.0249-.72559.64111.90381,1.41138,1.75464,2.29443,2.49609.04541.03809.09766.05957.14844.08545l-1.12207,2.65186c-.16211.38086.0166.82129.39844.98242.09473.04102.19434.05957.29199.05957.29199,0,.56934-.17188.69043-.45801l1.07568-2.54199h1.14014c.41406,0,.75-.33594.75-.75s-.33594-.75-.75-.75h-.50537l.98389-2.3252.65332,1.54395c.16211.38184.60352.56152.98242.39844.38184-.16113.56055-.60156.39844-.98242Z" fill="var(--iconPrimary, #222)"/>
  <path d="M15,10.49951c-2.48535,0-4.5,2.01465-4.5,4.5s2.01465,4.5,4.5,4.5,4.5-2.01465,4.5-4.5-2.01465-4.5-4.5-4.5ZM16.87964,15.33789l-2.72986,3.0647c-.21118.23706-.59729,0-.47253-.29028l.92065-2.14722-1.30261-.54907c-.30383-.12817-.3927-.5105-.17468-.75513l2.72998-3.06445c.21082-.23706.59741,0,.47266.29028l-.92126,2.14722,1.30261.54907c.3042.12817.39233.51025.17505.75488Z" fill="var(--iconPrimary, #222)"/>
</svg>