<?xml version="1.0" encoding="UTF-8"?>
<svg xmlns="http://www.w3.org/2000/svg" width="20" height="20" viewBox="0 0 20 20">
  <rect x="4" y="4" width="3" height="3" fill="var(--iconPrimary, #222)" opacity=".5"/>
  <rect x="10" y="4" width="3" height="3" fill="var(--iconPrimary, #222)" opacity=".5"/>
  <rect x="7" y="7" width="3" height="3" fill="var(--iconPrimary, #222)" opacity=".5"/>
  <rect x="4" y="10" width="3" height="3" fill="var(--iconPrimary, #222)" opacity=".5"/>
  <path d="M14.51807,18.7168c-2.66504,0-5.26807-2.38867-5.26807-3.77441,0-1.15039,1.59424-2.73438,3.02637-3.43848.68408-.34375,1.44971-.53125,2.21484-.54004,2.82861,0,5.25879,2.66895,5.25879,3.97852,0,1.38574-2.58545,3.77441-5.23193,3.77441ZM14.5,12.46387c-.53027.00684-1.06982.13867-1.55176.38184-.00244.00098-.00537.00195-.00781.00391-1.25537.61523-2.14941,1.7793-2.19092,2.10547.09229.50195,1.83447,2.26172,3.76855,2.26172,1.91992,0,3.64258-1.75879,3.7334-2.29688-.08154-.45312-1.70264-2.45605-3.75146-2.45605ZM12.61035,12.17578h.00977-.00977Z" fill="var(--iconPrimary, #222)"/>
  <path d="M11.61475,10.1582c.11829-.05957.24341-.10596.3656-.1582h-1.98035v1.22705c.55725-.4563,1.13104-.83105,1.61475-1.06885Z" fill="var(--iconPrimary, #222)" opacity=".5"/>
  <path d="M14.47412,9.46387c.51489,0,1.02606.07764,1.52588.20557v-2.66943h-3v2.65039c.48206-.11719.97839-.18066,1.47412-.18652Z" fill="var(--iconPrimary, #222)" opacity=".5"/>
  <path d="M7.75,14.94238c0-.677.26141-1.33252.64496-1.94238h-1.39496v3h.97437c-.1405-.36108-.22437-.71826-.22437-1.05762Z" fill="var(--iconPrimary, #222)" opacity=".5"/>
  <path d="M14.43128,14.3544c.09764.2541.31041.44941.57222.52485.09767.02814.32507.07156.57125-.03069.3032-.12594.60919.13381.51337.44783-.09774.32033-.29755.61706-.60424.84139-.52399.38327-1.25696.41124-1.8077.06751-.90174-.56279-1.03211-1.76606-.34774-2.50647.16964-.18353.37133-.31817.58846-.40424.28782-.11409.60689.17131.50468.46356-.06525.18656-.06712.39632.00971.59627Z" fill="var(--iconPrimary, #222)"/>
  <path d="M7.77637,18h-3.52637c-1.24072,0-2.25-1.00977-2.25-2.25V4.25c0-1.24023,1.00928-2.25,2.25-2.25h11.5c1.24072,0,2.25,1.00977,2.25,2.25v5.04102c0,.41406-.33594.75-.75.75s-.75-.33594-.75-.75v-5.04102c0-.41309-.33643-.75-.75-.75H4.25c-.41357,0-.75.33691-.75.75v11.5c0,.41309.33643.75.75.75h3.52637c.41406,0,.75.33594.75.75s-.33594.75-.75.75Z" fill="var(--iconPrimary, #222)"/>
</svg>