<?xml version="1.0" encoding="UTF-8"?>
<svg xmlns="http://www.w3.org/2000/svg" width="20" height="20" viewBox="0 0 20 20">
  <path d="M12.79883,17.75018h-5.59766c-1.2207,0-2.2085-.95508-2.24902-2.17578l-.17188-5.18066-.93506.20508c-1.06201.23535-2.10254-.41016-2.36816-1.46484l-.46631-1.85449c-.22461-.89258.18604-1.81836.99854-2.25293l4.06152-2.16602h.00049c.93896-.50098,2.09814-.18164,2.64111.72559.27393.45605.75537.72949,1.2876.72949s1.01367-.27344,1.28809-.73047c.54199-.90527,1.70215-1.22559,2.64062-.72461l4.03711,2.15332c.82227.43945,1.23633,1.40918.98438,2.30664l-.44971,1.60156c-.2583.91699-1.1416,1.52539-2.08545,1.45215l-1.19141-.0957-.17578,5.2959c-.04053,1.2207-1.02832,2.17578-2.24902,2.17578ZM5.5,8.71795c.16504,0,.32764.05469.46045.1582.17578.13672.28174.34473.28906.56738l.20166,6.08203c.01367.40625.34277.72461.75.72461h5.59766c.40723,0,.73633-.31836.75-.72461l.20166-6.08203c.00684-.20508.09717-.39844.25-.53516.15234-.13672.35449-.19922.55957-.18848l1.9751.1582c.23584.03418.45654-.13281.521-.3623l.44971-1.60156c.06299-.22461-.04053-.4668-.24609-.57617l-4.03662-2.15332c-.23193-.12402-.5166-.04883-.64844.1709-.54004.90137-1.52686,1.45996-2.57471,1.45996s-2.03467-.55859-2.57422-1.45898c-.13232-.21973-.4165-.29395-.64893-.17188l-4.06152,2.16602c-.20312.1084-.30615.33984-.24951.56348l.46582,1.85352c.06641.2627.32715.42188.59229.36621l1.81543-.39844c.05322-.01172.10693-.01758.16064-.01758Z" fill="var(--iconPrimary, #222)"/>
</svg>