<?xml version="1.0" encoding="UTF-8"?>
<svg id="e" data-name="ICONS" xmlns="http://www.w3.org/2000/svg" width="20" height="20" viewBox="0 0 20 20">
  <path d="M17.25,2c-.41406,0-.75.33594-.75.75v14.5c0,.41406.33594.75.75.75s.75-.33594.75-.75V2.75c0-.41406-.33594-.75-.75-.75Z" fill="var(--iconPrimary, #222)"/>
  <path d="M12.34668,3H4.16699c-1.24023,0-2.25,1.00977-2.25,2.25v1.11035c0,.41406.33594.75.75.75s.75-.33594.75-.75v-1.11035c0-.41309.33691-.75.75-.75h3.33984v11h-1.57031c-.41406,0-.75.33594-.75.75s.33594.75.75.75h4.64062c.41406,0,.75-.33594.75-.75s-.33594-.75-.75-.75h-1.57031V4.5h3.33984c.41309,0,.75.33691.75.75v1.11035c0,.41406.33594.75.75.75s.75-.33594.75-.75v-1.11035c0-1.24023-1.00977-2.25-2.25-2.25Z" fill="var(--iconPrimary, #222)"/>
</svg>