<?xml version="1.0" encoding="UTF-8"?>
<svg xmlns="http://www.w3.org/2000/svg" width="20" height="20" viewBox="0 0 20 20">
  <path d="M16.19531,2H7.90527c-1.16016,0-2.10449.95312-2.10449,2.125v1.01758c0,.41406.33594.75.75.75s.75-.33594.75-.75v-1.01758c0-.34473.27148-.625.60449-.625h3.39551v13h-1.57031c-.41406,0-.75.33594-.75.75s.33594.75.75.75h4.63965c.41406,0,.75-.33594.75-.75s-.33594-.75-.75-.75h-1.56934V3.5h3.39453c.33398,0,.60547.28027.60547.625v1.01758c0,.41406.33594.75.75.75s.75-.33594.75-.75v-1.01758c0-1.17188-.94434-2.125-2.10547-2.125Z" fill="var(--iconPrimary, #222)"/>
  <path d="M5.25586,14.96631c-.29492-.29053-.76953-.28857-1.06055.00684l-.44531.45056V2.75c0-.41406-.33594-.75-.75-.75s-.75.33594-.75.75v12.70483l-.49414-.48853c-.2959-.29053-.77051-.28857-1.06055.00684-.29102.29443-.28809.76953.00586,1.06055l1.77148,1.75c.14062.13867.33008.21631.52734.21631h.00488c.19824-.00146.38867-.08154.52832-.22314l1.72852-1.75c.29102-.29443.28809-.76953-.00586-1.06055Z" fill="var(--iconPrimary, #222)" stroke-width="0"/>
</svg>