<?xml version="1.0" encoding="UTF-8"?>
<svg xmlns="http://www.w3.org/2000/svg" width="20.00003" height="20.00003" viewBox="0 0 20.00003 20.00003">
  <path d="M2.80659,3.47202l-1.75832,3.26331c-.31741.58908-.09118,1.32917.5043,1.65003l.57515.3099c.3194.1721.71816.05259.89026-.26681s.05259-.71816-.26681-.89026l-.49794-.26829.51954-.96423,3.08553,1.66253-.24354.45198c-.1721.3194-.05259.71816.26681.89026s.71816.05259.89026-.26681l1.09712-2.03618c.1721-.3194.05259-.71816-.26681-.89026s-.71816-.05259-.89026.26681l-.23014.42712-3.08553-1.66253.51954-.96423.49794.26829c.3194.1721.71816.05259.89026-.26681s.05259-.71816-.26681-.89026l-.57515-.3099c-.59548-.32086-1.338-.10275-1.65541.48634h0Z" fill="var(--iconPrimary, #222)"/>
  <path d="M9.56447,5.96095c-.32324,0-.62109-.20996-.71875-.53516l-.64551-2.15527c-.11816-.39648.10645-.81445.50391-.93359.39648-.11914.81445.10742.93359.50391l.64551,2.15527c.11816.39648-.10645.81445-.50391.93359-.07129.02148-.14355.03125-.21484.03125Z" fill="var(--iconPrimary, #222)"/>
  <path d="M4.05568,12.83107c-.32324,0-.62109-.20996-.71875-.53516-.11816-.39648.10645-.81445.50391-.93359l2.15527-.64551c.39648-.11719.81445.10742.93359.50391.11816.39648-.10645.81445-.50391.93359l-2.15527.64551c-.07129.02148-.14355.03125-.21484.03125Z" fill="var(--iconPrimary, #222)"/>
  <path d="M6.02638,16.02541c-.18457,0-.36914-.06738-.51465-.2041-.30078-.28418-.31543-.75879-.03125-1.06055l1.54395-1.6377c.28418-.30078.75781-.31543,1.06055-.03125.30078.28418.31543.75879.03125,1.06055l-1.54395,1.6377c-.14746.15625-.34668.23535-.5459.23535Z" fill="var(--iconPrimary, #222)"/>
  <path d="M9.33107,17.8047c-.05762,0-.11523-.00684-.17383-.02051-.40332-.09473-.65234-.49902-.55664-.90234l.51855-2.18945c.09473-.40332.49902-.65137.90234-.55664s.65234.49902.55664.90234l-.51855,2.18945c-.08105.34473-.38965.57715-.72852.57715Z" fill="var(--iconPrimary, #222)"/>
  <path d="M12.15236,5.88478c-.05762,0-.11523-.00684-.17383-.02051-.40332-.09473-.65234-.49902-.55664-.90234l.51855-2.18945c.09473-.40332.49609-.65332.90234-.55664.40332.09473.65234.49902.55664.90234l-.51855,2.18945c-.08105.34473-.38965.57715-.72852.57715Z" fill="var(--iconPrimary, #222)"/>
  <path d="M14.4297,7.11232c-.18457,0-.36914-.06738-.51465-.2041-.30078-.28418-.31543-.75879-.03125-1.06055l1.54395-1.6377c.28418-.30078.75781-.31543,1.06055-.03125.30078.28418.31543.75879.03125,1.06055l-1.54395,1.6377c-.14746.15625-.34668.23535-.5459.23535Z" fill="var(--iconPrimary, #222)"/>
  <path d="M15.78908,9.31447c-.32324,0-.62109-.20996-.71875-.53516-.11816-.39648.10645-.81445.50391-.93359l2.15527-.64551c.39648-.11914.81445.10742.93359.50391.11816.39648-.10645.81445-.50391.93359l-2.15527.64551c-.07129.02148-.14355.03125-.21484.03125Z" fill="var(--iconPrimary, #222)"/>
  <path d="M18.05568,12.41994c-.05762,0-.11523-.00684-.17383-.02051l-2.18945-.51855c-.40332-.09473-.65234-.49902-.55664-.90234.09473-.40332.49707-.6543.90234-.55664l2.18945.51855c.40332.09473.65234.49902.55664.90234-.08105.34473-.38965.57715-.72852.57715Z" fill="var(--iconPrimary, #222)"/>
  <path d="M16.27541,15.72365c-.18457,0-.36914-.06738-.51465-.2041l-1.6377-1.54395c-.30078-.28418-.31543-.75879-.03125-1.06055s.75781-.31543,1.06055-.03125l1.6377,1.54395c.30078.28418.31543.75879.03125,1.06055-.14746.15625-.34668.23535-.5459.23535Z" fill="var(--iconPrimary, #222)"/>
  <path d="M13.08107,17.69435c-.32324,0-.62109-.20996-.71875-.53516l-.64551-2.15527c-.11816-.39648.10645-.81445.50391-.93359.39551-.11914.81445.10742.93359.50391l.64551,2.15527c.11816.39648-.10645.81445-.50391.93359-.07129.02148-.14355.03125-.21484.03125Z" fill="var(--iconPrimary, #222)"/>
</svg>