<?xml version="1.0" encoding="UTF-8"?>
<svg xmlns="http://www.w3.org/2000/svg" width="20" height="20" viewBox="0 0 20 20">
  <path d="M14.9248,18.58105c-.79004,0-1.57666-.32324-2.14258-.95801l-7.56787-7.19727c-.28613-.31641-.62061-.47852-.98584-.49902-.36621-.03418-.71631.10059-.98877.34375-.27832.24902-.44043.59082-.45605.96484-.01758.41309-.37354.7373-.78125.7168-.41406-.01758-.73535-.36719-.71777-.78125.0332-.78125.37305-1.49902.95654-2.01953.57275-.51074,1.31201-.76465,2.07324-.72266.76514.04395,1.46729.38281,1.97705.95508l7.56738,7.19727c.54443.60645,1.41211.65527,1.97461.15527.2627-.23535.42432-.55762.45312-.9082.03516-.41211.40234-.72266.81006-.68457.4126.03418.71924.39648.68506.80957-.06152.73438-.39844,1.41016-.94971,1.90234-.5459.48633-1.22754.72559-1.90723.72559Z" fill="var(--iconPrimary, #222)"/>
  <path d="M18.46484,5.87988l-3.71533-3.71484c-.66504-.66406-1.74609-.66602-2.41113,0l-.52002.51953c-.29297.29199-.29297.76758-.00049,1.06055.29297.29297.76807.29297,1.06104,0l.52002-.51953c.08008-.08008.20996-.08008.29004,0l1.32721,1.32715-4.57245,4.57227-.44958-.44922c-.29297-.29297-.76758-.29297-1.06055,0s-.29297.76758,0,1.06055l1.95996,1.95898c.14648.14648.33838.21973.53027.21973s.38379-.07324.53027-.21973c.29297-.29297.29297-.76758,0-1.06055l-.44958-.44922,4.57233-4.57227,1.32745,1.32715c.08008.08008.08008.21094,0,.29102l-.51953.51953c-.29297.29297-.29297.76758,0,1.06055.14648.14648.33838.21973.53027.21973s.38379-.07324.53027-.21973l.51953-.51953c.66504-.66504.66504-1.74707,0-2.41211Z" fill="var(--iconPrimary, #222)"/>
</svg>