<?xml version="1.0" encoding="UTF-8"?>
<svg xmlns="http://www.w3.org/2000/svg" width="20.00002" height="20.00002" viewBox="0 0 20.00002 20.00002">
  <path d="M1.1794,7.35274l-.65295,3.64891c-.11787.65869.32788,1.29132.99373,1.41047l.64311.11508c.35714.06391.69875-.174.76266-.53114s-.174-.69875-.53114-.76266l-.55677-.09963.19293-1.07816,3.45012.61737-.09044.50539c-.06391.35714.174.69875.53114.76266s.69875-.174.76266-.53114l.40741-2.27678c.06391-.35714-.174-.69875-.53114-.76266s-.69875.174-.76266.53114l-.08546.47759-3.45012-.61737.19293-1.07816.55677.09963c.35714.06391.69875-.174.76266-.53114s-.174-.69875-.53114-.76266l-.64311-.11508c-.66585-.11915-1.30332.31964-1.42119.97834h0Z" fill="var(--iconPrimary, #222)"/>
  <path d="M8.14356,7.64747c-.2373,0-.4707-.1123-.61621-.32129l-1.28613-1.84668c-.2373-.33984-.15332-.80762.18652-1.04395.3418-.23633.80859-.15234,1.04395.18652l1.28613,1.84668c.2373.33984.15332.80762-.18652,1.04395-.13086.09082-.28027.13477-.42773.13477Z" fill="var(--iconPrimary, #222)"/>
  <path d="M10.57618,6.76759c-.38574,0-.71289-.29492-.74609-.68652l-.19043-2.24121c-.03516-.41309.27051-.77539.68359-.81055.41309-.03418.77637.26953.81055.68359l.19043,2.24121c.03516.41309-.27051.77539-.68359.81055-.02148.00195-.04297.00293-.06445.00293Z" fill="var(--iconPrimary, #222)"/>
  <path d="M13.12403,7.22364c-.10645,0-.21484-.02246-.31738-.07129-.375-.17578-.53613-.62207-.36035-.99707l.95605-2.03613c.17578-.375.62305-.53906.99707-.36035.375.17578.53613.62207.36035.99707l-.95605,2.03613c-.12793.27246-.39746.43164-.67969.43164Z" fill="var(--iconPrimary, #222)"/>
  <path d="M15.10352,8.89259c-.2373,0-.4707-.1123-.61621-.32129-.2373-.33984-.15332-.80762.18652-1.04395l1.84668-1.28613c.34277-.23633.80859-.15137,1.04395.18652.2373.33984.15332.80762-.18652,1.04395l-1.84668,1.28613c-.13086.09082-.28027.13477-.42773.13477Z" fill="var(--iconPrimary, #222)"/>
  <path d="M15.98145,11.32716c-.38574,0-.71289-.29492-.74609-.68652-.03516-.41309.27051-.77539.68359-.81055l2.24121-.19043c.40625-.03711.77539.27051.81055.68359s-.27051.77539-.68359.81055l-2.24121.19043c-.02148.00195-.04297.00293-.06445.00293Z" fill="var(--iconPrimary, #222)"/>
</svg>