<?xml version="1.0" encoding="UTF-8"?>
<svg xmlns="http://www.w3.org/2000/svg" width="20" height="20" viewBox="0 0 20 20">
  <path d="M11.75,7h-3.5c-.96484,0-1.75.78516-1.75,1.75v.20508c0,.41406.33594.75.75.75s.75-.33594.75-.75v-.20508c0-.1377.1123-.25.25-.25h1v4h-.36621c-.41406,0-.75.33594-.75.75s.33594.75.75.75h2.2002c.41406,0,.75-.33594.75-.75s-.33594-.75-.75-.75h-.33398v-4h1c.1377,0,.25.1123.25.25v.20508c0,.41406.33594.75.75.75s.75-.33594.75-.75v-.20508c0-.96484-.78516-1.75-1.75-1.75Z" fill="var(--iconPrimary, #222)"/>
  <path d="M17.97217,8.97559c-.41406.01465-.73828.36133-.72412.77539.03174.93652-.1167,1.85938-.44092,2.74414s-.80811,1.68457-1.43799,2.37988c-.65186.71875-1.43262,1.29102-2.32031,1.70312-.88867.41113-1.83057.63672-2.7998.66895-.93555.0293-1.86035-.11621-2.74512-.44043-.8833-.32324-1.68359-.80664-2.37842-1.4375-.71875-.65137-1.29199-1.43262-1.70312-2.32031-.41211-.88965-.6377-1.83203-.67041-2.7998-.03174-.93652.1167-1.85938.44092-2.74414s.80811-1.68457,1.43799-2.37988c.65186-.71875,1.43262-1.29102,2.32031-1.70312.88867-.41113,1.83057-.63672,2.7998-.66895.93311-.03418,1.86035.11621,2.74512.44043.37659.1377.73456.31055,1.07922.50586l-1.0509.14355c-.41016.05566-.69775.43457-.6416.84473.05127.37598.37305.64844.74219.64844.03369,0,.06787-.00195.10254-.00684l2.86621-.3916c.19727-.02734.37549-.13086.49561-.29004.12061-.1582.17285-.35742.146-.55469l-.39258-2.86621c-.05664-.41016-.43555-.7041-.84473-.6416-.41064.05664-.69775.43457-.6416.84473l.14636,1.06738c-.47107-.28223-.96851-.521-1.4906-.71191-1.06689-.39062-2.18311-.56836-3.31201-.53223-1.1709.04004-2.30762.31152-3.37939.80762-1.07129.49707-2.01367,1.18848-2.80127,2.05664-.76025.83887-1.34375,1.80469-1.73486,2.87109-.39111,1.06738-.56982,2.18164-.53174,3.31152.03955,1.16992.31152,2.30664.80811,3.37988.49658,1.07129,1.18848,2.01367,2.05664,2.80078.83887.76074,1.80469,1.34473,2.87012,1.73438.97266.35645,1.98486.53711,3.01318.53711.09961,0,.19922-.00195.29883-.00488,1.1709-.04004,2.30762-.31152,3.37939-.80762,1.07129-.49707,2.01367-1.18848,2.80127-2.05664.76025-.83887,1.34375-1.80469,1.73486-2.87109.39111-1.06738.56982-2.18164.53174-3.31152-.01367-.41406-.36572-.72461-.7749-.72461Z" fill="var(--iconPrimary, #222)"/>
</svg>