<?xml version="1.0" encoding="UTF-8"?>
<svg xmlns="http://www.w3.org/2000/svg" width="20" height="20" viewBox="0 0 20 20">
  <path d="M6.25,6.25c-.64526,0-1.2439.19434-1.75.52002V2.75c0-.41406-.33594-.75-.75-.75s-.75.33594-.75.75v10.5c0,.41406.33594.75.75.75s.75-.33594.75-.75v-3.75c0-.96484.78516-1.75,1.75-1.75s1.75.78516,1.75,1.75v3.75c0,.41406.33594.75.75.75s.75-.33594.75-.75v-3.75c0-1.79199-1.45801-3.25-3.25-3.25Z" fill="var(--iconPrimary, #222)" opacity=".5"/>
  <path d="M16.25,6.32324c-.31982,0-.58862.20215-.69629.48438-.5166-.35156-1.13672-.55762-1.80371-.55762-1.79199,0-3.25,1.48047-3.25,3.30078v1.14844c0,1.82031,1.45801,3.30078,3.25,3.30078.64526,0,1.2439-.19727,1.75-.52832v3.52832c0,.41406.33594.75.75.75s.75-.33594.75-.75V7.07324c0-.41406-.33594-.75-.75-.75ZM13.75,12.5c-.96484,0-1.75-.80762-1.75-1.80078v-1.14844c0-.99316.78516-1.80078,1.75-1.80078s1.75.80762,1.75,1.80078v1.14844c0,.99316-.78516,1.80078-1.75,1.80078Z" fill="var(--iconPrimary, #222)" opacity=".5"/>
  <path d="M17.25,19H2.75c-.41406,0-.75-.33594-.75-.75s.33594-.75.75-.75h14.5c.41406,0,.75.33594.75.75s-.33594.75-.75.75Z" fill="var(--iconPrimary, #222)"/>
</svg>