<?xml version="1.0" encoding="UTF-8"?>
<svg xmlns="http://www.w3.org/2000/svg" width="20" height="20" viewBox="0 0 20 20">
  <circle cx="1.84628" cy="10.6863" r=".875" fill="var(--iconPrimary, #222)"/>
  <circle cx="3.90166" cy="8.57002" r=".875" fill="var(--iconPrimary, #222)"/>
  <circle cx="6.35635" cy="6.98936" r=".875" fill="var(--iconPrimary, #222)"/>
  <circle cx="9.22997" cy="5.95113" r=".875" fill="var(--iconPrimary, #222)"/>
  <circle cx="12.15257" cy="5.44184" r=".875" fill="var(--iconPrimary, #222)"/>
  <circle cx="15.15685" cy="5.33967" r=".875" fill="var(--iconPrimary, #222)"/>
  <circle cx="18.15229" cy="5.58511" r=".875" fill="var(--iconPrimary, #222)"/>
  <path d="M14.93799,10.14844l-.12305-.59766c-.09473-.45801-.36133-.85156-.75195-1.1084-.39111-.25781-.85889-.34668-1.31543-.25195l-4.40723.9082c-.45752.09375-.85156.36035-1.1084.75098-.25732.39062-.34668.85742-.25195,1.31543l.12305.59766c.07275.35449.38525.59863.7334.59863.05029,0,.10107-.00488.15234-.01562.40576-.08301.66699-.47949.58301-.88574l-.12305-.59766c-.01807-.08887.01465-.15527.03564-.1875.02148-.03223.07031-.08887.15869-.10742l1.4693-.30273,1.2113,5.87646-.54291.11182c-.40576.08301-.66699.48047-.58301.88574.07275.35449.38525.59863.7334.59863.05029,0,.10156-.00488.15234-.01562l2.58545-.5332c.40576-.08301.66699-.48047.58301-.88574-.08301-.40527-.48486-.66895-.88574-.58301l-.57385.11816-1.21118-5.87598,1.47009-.30273c.08398-.01758.14746.00879.18701.03613.03223.02051.08936.07031.10791.1582l.12305.59766c.08301.40527.47949.66504.88574.58301.40576-.08301.66699-.47949.58301-.88574Z" fill="var(--iconPrimary, #222)"/>
</svg>