<?xml version="1.0" encoding="UTF-8"?>
<svg xmlns="http://www.w3.org/2000/svg" width="20.00002" height="20.00002" viewBox="0 0 20.00002 20.00002">
  <path d="M4.76461,6.81225l2.59473,2.64731c.46839.47788.4564,1.25169-.02668,1.72517l-.46658.45732c-.25911.25396-.67538.24979-.92934-.00932s-.24979-.67538.00932-.92934l.40394-.39592-.76668-.78221-2.50309,2.45338.35938.36666c.25396.25911.24979.67538-.00932.92934s-.67538.24979-.92934-.00932l-1.61901-1.65182c-.25396-.25911-.24979-.67538.00932-.92934s.67538-.24979.92934.00932l.33961.3465,2.50309-2.45338-.76668-.78221-.40394.39592c-.25911.25396-.67538.24979-.92934-.00932s-.24979-.67538.00932-.92934l.46658-.45732c.48308-.47348,1.25696-.46996,1.72536.00793h0Z" fill="var(--iconPrimary, #222)"/>
  <path d="M6.85548,15.69923c-.14746,0-.29688-.04395-.42773-.13477-.33984-.23633-.42383-.7041-.18652-1.04395l1.28613-1.84668c.23633-.33984.70312-.42285,1.04395-.18652.33984.23633.42383.7041.18652,1.04395l-1.28613,1.84668c-.14551.20898-.37891.32129-.61621.32129Z" fill="var(--iconPrimary, #222)"/>
  <path d="M10.3877,16.97364c-.02148,0-.04297-.00098-.06445-.00293-.41309-.03516-.71875-.39746-.68359-.81055l.19043-2.24121c.03516-.41309.41211-.72168.81055-.68359.41309.03516.71875.39746.68359.81055l-.19043,2.24121c-.0332.3916-.36035.68652-.74609.68652Z" fill="var(--iconPrimary, #222)"/>
  <path d="M14.08204,16.31251c-.28223,0-.55176-.15918-.67969-.43164l-.95605-2.03613c-.17578-.375-.01465-.82129.36035-.99707.37402-.17871.82031-.01465.99707.36035l.95605,2.03613c.17578.375.01465.82129-.36035.99707-.10254.04883-.21094.07129-.31738.07129Z" fill="var(--iconPrimary, #222)"/>
  <path d="M16.94825,13.89356c-.14746,0-.29688-.04395-.42773-.13477l-1.84668-1.28613c-.33984-.23633-.42383-.7041-.18652-1.04395.23633-.33887.70312-.42285,1.04395-.18652l1.84668,1.28613c.33984.23633.42383.7041.18652,1.04395-.14551.20898-.37891.32129-.61621.32129Z" fill="var(--iconPrimary, #222)"/>
  <path d="M18.22462,10.36329c-.02148,0-.04297-.00098-.06445-.00293l-2.24121-.19043c-.41309-.03516-.71875-.39746-.68359-.81055s.41113-.71582.81055-.68359l2.24121.19043c.41309.03516.71875.39746.68359.81055-.0332.3916-.36035.68652-.74609.68652Z" fill="var(--iconPrimary, #222)"/>
</svg>