<?xml version="1.0" encoding="UTF-8"?>
<svg xmlns="http://www.w3.org/2000/svg" width="20" height="20" viewBox="0 0 20 20">
  <path d="M14.9248,18.58105c-.79004,0-1.57666-.32324-2.14258-.95801l-7.56787-7.19727c-.28613-.31641-.62061-.47852-.98584-.49902-.36182-.03418-.71631.10059-.98877.34375-.27832.24902-.44043.59082-.45605.96484-.01758.41309-.38135.7373-.78125.7168-.41406-.01758-.73535-.36719-.71777-.78125.0332-.78125.37305-1.49902.95654-2.01953.57227-.51074,1.31543-.76465,2.07324-.72266.76514.04395,1.46729.38281,1.97705.95508l7.56738,7.19727c.54492.60645,1.41162.65527,1.97461.15527.2627-.23535.42432-.55762.45312-.9082.03467-.41211.39551-.72266.81006-.68457.4126.03418.71924.39648.68506.80957-.06152.73438-.39844,1.41016-.94971,1.90234-.5459.48633-1.22754.72559-1.90723.72559Z" fill="var(--iconPrimary, #222)"/>
  <path d="M18.05469,1.55859c-.96875-.79004-2.45312-.68652-3.37988.23926l-4.18311,4.18359q-.00049,0-.00098.00098c-.24609.24707-.43018.55371-.53174.88867l-.9541,3.16016c-.08008.26465-.00781.55176.1875.74707.14258.14258.33447.21973.53027.21973.07227,0,.14551-.01074.2168-.03223l3.15967-.9541c.3335-.10059.64111-.28418.89014-.53223,0,0,4.12256-4.12305,4.25293-4.25293.49365-.49316.75635-1.17676.72119-1.87305-.03467-.69629-.36572-1.35059-.90869-1.79492ZM10.84473,9.12598l.5498-1.82031c.01727-.05713.05896-.10303.09186-.15332l1.33221,1.33203c-.05017.03271-.09552.07422-.15259.0918l-1.82129.5498ZM17.18262,4.16504c-.0932.09277-2.2536,2.25293-3.45764,3.45752l-1.37671-1.37695,3.3866-3.38721c.38867-.38867.99072-.44922,1.37012-.13867.21875.17871.34668.43066.36035.70801.01416.2793-.08691.54102-.28271.7373Z" fill="var(--iconPrimary, #222)"/>
</svg>