<?xml version="1.0" encoding="UTF-8"?>
<svg id="f" data-name="ICONS" xmlns="http://www.w3.org/2000/svg" width="20" height="20" viewBox="0 0 20 20">
  <g>
    <path d="M8.25.50098C3.97656.50098.5,3.97754.5,8.25098c0,3.89746,2.91211,7.20312,6.77344,7.68945.03223.00391.06348.00586.09473.00586.37207,0,.69531-.27734.74316-.65625.05176-.41113-.23926-.78613-.65039-.83789-1.00781-.12708-1.9209-.51172-2.7146-1.0542.93359-.55664,2.18262-.89185,3.45972-.89795.41406-.00195.74805-.33984.74609-.75391-.00195-.41309-.33789-.74609-.75-.74609h-.00391c-1.74841.00842-3.42749.51709-4.63794,1.37915-.97424-1.10791-1.5603-2.55859-1.5603-4.12817,0-3.44629,2.80371-6.25,6.25-6.25,3.19922,0,5.87012,2.39453,6.21289,5.56836.04492.41211.4248.71387.82617.66602.41211-.04492.70996-.41504.66602-.82617-.42578-3.93848-3.73828-6.9082-7.70508-6.9082Z" fill="var(--iconPrimary, #222)"/>
    <path d="M8.25,3.25c-1.72266,0-3.125,1.51367-3.125,3.375s1.40234,3.375,3.125,3.375,3.125-1.51367,3.125-3.375-1.40234-3.375-3.125-3.375ZM8.25,8.5c-.89648,0-1.625-.84082-1.625-1.875s.72852-1.875,1.625-1.875,1.625.84082,1.625,1.875-.72852,1.875-1.625,1.875Z" fill="var(--iconPrimary, #222)"/>
  </g>
  <g>
    <path d="M15,12.75v-1.34961c0-.08301.06738-.15039.15039-.15039h1.55762c.25977.44653.73816.75,1.29199.75.82837,0,1.5-.67163,1.5-1.5s-.67163-1.5-1.5-1.5c-.55383,0-1.03223.30347-1.29199.75h-1.55762c-.91016,0-1.65039.74023-1.65039,1.65039v1.34961c0,.41309-.33691.75-.75.75h-.45801c-.25977-.44653-.73816-.75-1.29199-.75-.82837,0-1.5.67163-1.5,1.5s.67163,1.5,1.5,1.5c.55383,0,1.03223-.30347,1.29199-.75h.45801c1.24023,0,2.25-1.00977,2.25-2.25Z" fill="var(--iconPrimary, #222)"/>
    <path d="M18,16.5c-.55383,0-1.03223.30347-1.29199.75h-1.55762c-.08301,0-.15039-.06738-.15039-.15039v-.59961c0-.41406-.33594-.75-.75-.75s-.75.33594-.75.75v.59961c0,.91016.74023,1.65039,1.65039,1.65039h1.55762c.25977.44653.73816.75,1.29199.75.82837,0,1.5-.67163,1.5-1.5s-.67163-1.5-1.5-1.5Z" fill="var(--iconPrimary, #222)"/>
  </g>
</svg>