<?xml version="1.0" encoding="UTF-8"?>
<svg id="f" data-name="ICONS" xmlns="http://www.w3.org/2000/svg" width="20" height="20" viewBox="0 0 20 20">
  <g>
    <path d="M8.25.50098C3.97656.50098.5,3.97754.5,8.25098c0,3.8125,2.72656,7.02734,6.48242,7.64648.04102.00684.08203.00977.12305.00977.36035,0,.67871-.26074.73926-.62793.06738-.40918-.20996-.79492-.61816-.8623-.93066-.15308-1.76831-.52258-2.50244-1.02466.94202-.55908,2.20142-.89233,3.48877-.89233.41406,0,.75-.33594.75-.75s-.33594-.75-.75-.75c-1.75806,0-3.44666.50391-4.66699,1.36768-.96606-1.10474-1.5459-2.54529-1.5459-4.1167,0-3.44629,2.80371-6.25,6.25-6.25,3.41016,0,6.1543,2.66797,6.24707,6.07422.01172.41406.36426.7373.77051.72949.41406-.01172.74023-.35645.72949-.77051-.11621-4.22461-3.51855-7.5332-7.74707-7.5332Z" fill="var(--iconPrimary, #222)"/>
    <path d="M8.25,3.25c-1.72266,0-3.125,1.51367-3.125,3.375s1.40234,3.375,3.125,3.375,3.125-1.51367,3.125-3.375-1.40234-3.375-3.125-3.375ZM8.25,8.5c-.89648,0-1.625-.84082-1.625-1.875s.72852-1.875,1.625-1.875,1.625.84082,1.625,1.875-.72852,1.875-1.625,1.875Z" fill="var(--iconPrimary, #222)"/>
  </g>
  <path d="M18.16029,10.24049l-1.3428,1.51465c-.084.09375-.2295.10547-.3272.02246l-1.60349-1.37207c-.7002-.52539-1.69141-.45312-2.30859.16504l-3.13672,3.13672c-.2998.29883-.2998.78516,0,1.08398.14941.14941.3457.22461.54199.22461s.39258-.0752.54199-.22461l3.13672-3.13672c.08008-.08008.21191-.0918.26562-.05371l1.56445,1.34082c.72949.62402,1.83693.5459,2.47173-.16895l1.3427-1.51465c.2813-.31738.252-.80176-.0644-1.08203-.3174-.28125-.8008-.25292-1.082.06446Z" fill="var(--iconPrimary, #222)"/>
  <path d="M11,19.5c-.41406,0-.75-.33594-.75-.75v-2c0-.41406.33594-.75.75-.75s.75.33594.75.75v2c0,.41406-.33594.75-.75.75Z" fill="var(--iconPrimary, #222)"/>
  <path d="M17.5,19.5c-.41406,0-.75-.33594-.75-.75v-3c0-.41406.33594-.75.75-.75s.75.33594.75.75v3c0,.41406-.33594.75-.75.75Z" fill="var(--iconPrimary, #222)"/>
  <path d="M14.25,19.5c-.41406,0-.75-.33594-.75-.75v-4.25c0-.41406.33594-.75.75-.75s.75.33594.75.75v4.25c0,.41406-.33594.75-.75.75Z" fill="var(--iconPrimary, #222)"/>
</svg>