<?xml version="1.0" encoding="UTF-8"?>
<svg id="e" data-name="ICONS" xmlns="http://www.w3.org/2000/svg" width="20" height="20" viewBox="0 0 20 20">
  <path d="M9.99902,1.25C5.17383,1.25,1.24902,5.1748,1.24902,10s3.9248,8.75,8.75,8.75,8.75-3.9248,8.75-8.75S14.82422,1.25,9.99902,1.25ZM4.18262,14.30981c-.89648-1.20654-1.43359-2.69458-1.43359-4.30981,0-3.99805,3.25195-7.25,7.25-7.25s7.25,3.25195,7.25,7.25c0,1.6416-.55469,3.15259-1.47778,4.36914-1.48218-1.25928-3.59912-1.99902-5.81421-1.99902-2.25439,0-4.39429.73218-5.77441,1.9397ZM9.99902,17.25c-1.84326,0-3.52295-.69702-4.80322-1.83398,1.10254-.94971,2.90015-1.5459,4.76123-1.5459,1.80981,0,3.58447.60083,4.7915,1.59473-1.27344,1.1084-2.93213,1.78516-4.74951,1.78516Z" fill="var(--iconPrimary, #222)"/>
  <path d="M13.0459,5.88086c-.2959-.54883-.72754-1.01758-1.25488-1.3584-1.09277-.69336-2.50098-.69238-3.59961.00488-1.08691.71094-1.7207,1.91016-1.69629,3.18164-.01074.65918.14551,1.31641.45215,1.90137.28906.55469.7207,1.02734,1.25,1.36523.53613.34277,1.15723.52344,1.79395.52344.04785-.00293.04688.00098.07031.00098.61523,0,1.21387-.1748,1.74023-.50977.52637-.3418.95801-.81543,1.24902-1.37207.30664-.58789.46289-1.24805.45215-1.8877.00684-.64648-.15137-1.28711-.45703-1.84961ZM10.99023,9.72754c-.29004.18652-.62012.30078-.9707.27148h-.02832c-.35059,0-.69238-.09961-.98633-.28711-.30762-.19629-.55859-.47168-.72852-.7959-.19043-.36523-.28809-.77344-.28125-1.20898-.01465-.77832.36523-1.49805,1.00879-1.91895.60156-.38281,1.37988-.38379,1.97754-.00293.31055.20117.56738.48047.74512.80859.18555.3418.28125.72852.27637,1.14062.00684.41113-.09082.82324-.28125,1.18945-.17188.32715-.42578.60645-.73145.80371Z" fill="var(--iconPrimary, #222)"/>
  <path d="M9.99902,2.75c-3.99805,0-7.25,3.25195-7.25,7.25,0,1.61523.53711,3.10327,1.43359,4.30981,1.38013-1.20752,3.52002-1.9397,5.77441-1.9397,2.21509,0,4.33203.73975,5.81421,1.99902.9231-1.21655,1.47778-2.72754,1.47778-4.36914,0-3.99805-3.25195-7.25-7.25-7.25ZM13.05078,9.61816c-.29102.55664-.72266,1.03027-1.24902,1.37207-.52637.33496-1.125.50977-1.74023.50977-.02344,0-.02246-.00391-.07031-.00098-.63672,0-1.25781-.18066-1.79395-.52344-.5293-.33789-.96094-.81055-1.25-1.36523-.30664-.58496-.46289-1.24219-.45215-1.90137-.02441-1.27148.60938-2.4707,1.69629-3.18164,1.09863-.69727,2.50684-.69824,3.59961-.00488.52734.34082.95898.80957,1.25488,1.3584.30566.5625.46387,1.20312.45703,1.84961.01074.63965-.14551,1.2998-.45215,1.8877Z" fill="var(--iconPrimary, #222)" opacity=".35"/>
</svg>