<?xml version="1.0" encoding="UTF-8"?>
<svg id="e" data-name="ICONS" xmlns="http://www.w3.org/2000/svg" width="20" height="20" viewBox="0 0 20 20">
  <circle cx="14.275" cy="14.68005" r="1.11096" fill="var(--iconPrimary, #222)"/>
  <path d="M16.08008,19.74805c-.43652,0-.86523-.20801-1.12598-.58789l-.3916-.56934c-.09961.00781-.19336-.00195-.30469.01172-.10254-.00098-.2041-.00586-.30469-.01465l-.39746.56641c-.40234.57422-1.19336.74805-1.79785.39453l-.48047-.28027c-.60742-.35352-.8457-1.12793-.54199-1.76074l.29785-.62402c-.11426-.16797-.21484-.34473-.30176-.52832l-.69043-.06055c-.69922-.06152-1.24512-.65918-1.24121-1.36133l.00293-.55664c.00195-.7002.55176-1.29297,1.25195-1.34863l.69141-.05469c.08887-.18359.19043-.35938.30566-.52539l-.29199-.62793c-.2959-.63672-.05078-1.40723.55859-1.75488l.48145-.27539c.62109-.35449,1.3916-.17773,1.7959.40918l.3916.57031c.10059-.00879.17676-.01465.30566-.01172.10254.00098.2041.00586.30469.01367l.39648-.56543c.40137-.57617,1.19336-.74902,1.79785-.39453l.48047.28027c.60742.35352.8457,1.12695.54199,1.75977l-.29688.625c.11426.16895.21484.34473.30078.52832l.69043.06055c.69922.06152,1.24512.65918,1.24121,1.36035l-.00293.55664c-.00195.7002-.55176,1.29395-1.25195,1.34961l-.69141.05469c-.08887.18262-.19043.3584-.30566.52539l.29199.62793c.2959.63672.05078,1.40723-.55859,1.75488l-.48145.27539c-.20996.12012-.44141.17773-.66992.17773ZM14.86133,17.29785c.20312,0,.39648.09961.51465.27051l.6084.88379c.0332.04883.0957.0625.14551.0332l.48145-.27539c.05078-.0293.07031-.09082.0459-.14258l-.45312-.97266c-.10449-.22266-.06738-.48633.09375-.67285.21289-.24609.37793-.52832.48828-.83984.08301-.23145.29492-.39258.54004-.41211l1.07031-.08398c.05664-.00488.10059-.05078.10059-.1084l.00293-.55762c0-.05664-.04395-.10352-.10059-.1084l-1.06934-.09375c-.24512-.02148-.45508-.18555-.53613-.41797-.10645-.30957-.26953-.59375-.48145-.8457-.1582-.1875-.19238-.4502-.08691-.67188l.46094-.96875c.02539-.05273.00586-.1123-.04297-.1416l-.48047-.28027c-.0498-.03027-.1123-.01465-.14453.03027l-.61621.87891c-.14062.20117-.38965.30664-.625.25586-.16406-.03027-.35938-.07422-.50098-.04883-.16406,0-.32227.0166-.47754.04492-.23438.04199-.4873-.05859-.625-.26074l-.60742-.88379c-.03223-.04785-.09473-.05957-.14648-.0332l-.48145.27539c-.05078.0293-.07031.09082-.0459.14258l.45312.97168c.10449.22266.06738.48633-.09375.67285-.21289.24512-.37695.52832-.48926.83984-.08301.23145-.29297.39258-.53809.41211l-1.07031.08496c-.05664.00488-.10156.05176-.10156.10742l-.00293.55762c0,.05762.04297.10449.10059.10938l1.06934.09375c.24512.02148.4541.18457.53516.41699.10938.31152.27148.59668.48242.8457.15918.18848.19336.45117.08789.67383l-.46191.96777c-.02539.05078-.00586.11328.04297.1416l.48047.28027c.0498.02734.11133.0166.14551-.03125l.61621-.87891c.14062-.20117.38867-.29785.62891-.25586.15723.03027.31934.04883.48633.0498h.01074c.16309,0,.32129-.0166.47656-.04492.03613-.00684.07324-.00977.11035-.00977Z" fill="var(--iconPrimary, #222)"/>
  <path d="M8.42871,11.20703c-.03711,0-.0752-.00293-.11426-.00879-2.31738-.35254-4.06445-2.47949-4.06445-4.94824,0-2.75684,2.13086-5,4.75-5s4.75,2.24316,4.75,5c0,.47852-.06445.95215-.19043,1.40527-.11133.39941-.52441.62988-.92383.52148-.39941-.11133-.63281-.52539-.52148-.92383.08984-.32324.13574-.66016.13574-1.00293,0-1.92969-1.45801-3.5-3.25-3.5s-3.25,1.57031-3.25,3.5c0,1.7334,1.19922,3.22363,2.79102,3.46582.40918.0625.69043.44434.62793.85449-.05664.37109-.37598.63672-.74023.63672Z" fill="var(--iconPrimary, #222)"/>
  <path d="M1.75098,18.75c-.02441,0-.04883-.00098-.07227-.00391-.41309-.03906-.71484-.40527-.6748-.81738.23828-2.48828,2.39551-4.59766,5.49414-5.37402.4043-.10254.81055.14453.91016.54492.10059.40234-.14355.80957-.54492.91016-2.4375.61035-4.19141,2.24316-4.36719,4.06152-.03711.38867-.36328.67871-.74512.67871Z" fill="var(--iconPrimary, #222)"/>
</svg>