<?xml version="1.0" encoding="UTF-8"?>
<svg id="g" data-name="ICONS" xmlns="http://www.w3.org/2000/svg" width="20" height="20" viewBox="0 0 20 20">
  <path d="M18.75,19.5c-.19189,0-.38379-.07324-.53027-.21973l-5.77246-5.77246c-.29297-.29297-.29297-.76758,0-1.06055s.76758-.29297,1.06055,0l5.77246,5.77246c.29297.29297.29297.76758,0,1.06055-.14648.14648-.33838.21973-.53027.21973Z" fill="var(--iconPrimary, #222)"/>
  <path d="M12.75,18.05469c-.41406,0-.75-.33594-.75-.75v-4.55469c0-.41406.33594-.75.75-.75h4.5542c.41406,0,.75.33594.75.75s-.33594.75-.75.75h-3.8042v3.80469c0,.41406-.33594.75-.75.75Z" fill="var(--iconPrimary, #222)"/>
  <path d="M10,11.25c-2.61914,0-4.75-2.24316-4.75-5S7.38086,1.25,10,1.25s4.75,2.24316,4.75,5-2.13086,5-4.75,5ZM10,2.75c-1.79199,0-3.25,1.57031-3.25,3.5s1.45801,3.5,3.25,3.5,3.25-1.57031,3.25-3.5-1.45801-3.5-3.25-3.5Z" fill="#222"/>
  <path d="M2.75098,18.75c-.02393,0-.04834-.00098-.07275-.00391-.41211-.03906-.71436-.40527-.6748-.81836.30615-3.18359,3.81885-5.67773,7.99658-5.67773.41406,0,.75.33594.75.75s-.33594.75-.75.75c-3.41357,0-6.27051,1.89844-6.50342,4.32227-.03711.3877-.36377.67773-.74561.67773Z" fill="#222"/>
  <path d="M19.28027,18.21973l-4.71973-4.71973h2.74365c.41406,0,.75-.33594.75-.75s-.33594-.75-.75-.75h-4.5542c-.41406,0-.75.33594-.75.75v4.55469c0,.41406.33594.75.75.75s.75-.33594.75-.75v-2.74414l4.71973,4.71973c.14648.14648.33838.21973.53027.21973s.38379-.07324.53027-.21973c.29297-.29297.29297-.76758,0-1.06055Z" fill="#222"/>
</svg>