<?xml version="1.0" encoding="UTF-8"?>
<svg id="f" data-name="ICONS" xmlns="http://www.w3.org/2000/svg" width="20" height="20" viewBox="0 0 20 20">
  <path d="M9.90332,14.28027c-.53613.14648-1.0918.2207-1.65332.2207-1.30396,0-2.51489-.40259-3.51782-1.08826,1.31348-.78845,3.25977-1.13025,5.01001-.75549.4043.08789.80273-.17188.88965-.57715.08691-.4043-.17188-.80371-.57715-.88965-2.29834-.48962-4.83228.02075-6.48438,1.18945-.97388-1.10254-1.57031-2.54565-1.57031-4.12891,0-3.44629,2.80371-6.25,6.25-6.25,2.74414,0,5.20703,1.83398,5.99023,4.45996.11719.39746.5332.62598.93262.50488.39746-.11816.62305-.53613.50488-.93262-.9707-3.25781-4.02539-5.53223-7.42773-5.53223C3.97656.50098.5,3.97754.5,8.25098s3.47656,7.75,7.75,7.75c.69434,0,1.38379-.0918,2.04785-.27344.40039-.10938.63574-.52148.52637-.9209-.1084-.40039-.52637-.63379-.9209-.52637Z" fill="var(--iconPrimary, #222)"/>
  <path d="M8.25,3.25c-1.72266,0-3.125,1.51367-3.125,3.375s1.40234,3.375,3.125,3.375c.59473,0,1.17383-.18164,1.67383-.52441.3418-.2334.42871-.7002.19434-1.04199-.23242-.3418-.69824-.42871-1.04199-.19434-.24902.1709-.53516.26074-.82617.26074-.89648,0-1.625-.84082-1.625-1.875s.72852-1.875,1.625-1.875c.83887,0,1.5498.75488,1.61914,1.71875.0293.41309.3916.71289.80176.69434.41309-.0293.72363-.38867.69434-.80176-.125-1.74414-1.49316-3.11133-3.11523-3.11133Z" fill="var(--iconPrimary, #222)"/>
  <path d="M19.5,8.75c0-.41406-.33594-.75-.75-.75s-.75.33594-.75.75c0,1.50781,0,3.2168-2.68066,4.30469-3.56934,1.44922-3.56934,3.98438-3.56934,5.66211l.75.0332.75-.0332c0-1.57422,0-3.20312,2.63379-4.27148,3.61621-1.46875,3.61621-4.11426,3.61621-5.69531Z" fill="var(--iconPrimary, #222)"/>
  <path d="M12.5,8c-.41406,0-.75.33594-.75.75,0,1.05371,0,2.49609.9707,3.79395.14746.19727.37305.30078.60156.30078.15625,0,.31348-.04883.44824-.14941.22437-.1676.31641-.43604.2832-.69531h.72754c.34473,0,.625-.28027.625-.625s-.28027-.625-.625-.625h-1.31201c-.10596-.32922-.16284-.66553-.18994-1h2.9707c.34473,0,.625-.28027.625-.625s-.28027-.625-.625-.625h-3.05054c-.10376-.28979-.37402-.5-.69946-.5Z" fill="var(--iconPrimary, #222)"/>
  <path d="M17.48242,14.77051c-.23242.17603-.32568.46069-.27832.72949h-.84375c-.34473,0-.625.28027-.625.625s.28027.625.625.625h1.44043c.09961.32605.15063.66125.17432,1h-2.9751c-.34473,0-.625.28027-.625.625s.28027.625.625.625h3.05103c.10425.2843.37427.4834.69897.4834.41406,0,.75-.35156.75-.76562,0-1.06348,0-2.51953-.9668-3.80078-.25-.33105-.71973-.39746-1.05078-.14648Z" fill="var(--iconPrimary, #222)"/>
</svg>