<?xml version="1.0" encoding="UTF-8"?>
<svg   xmlns="http://www.w3.org/2000/svg" width="20" height="20" viewBox="0 0 20 20">
  <path d="m11.79248,4.42188c-1.09131-.69287-2.50098-.69238-3.59912.00537-1.0874.71094-1.72168,1.91016-1.69727,3.18262-.01025.65967.14648,1.31738.45215,1.90039.28955.55566.72168,1.02734,1.25098,1.36621.53809.34229,1.15869.52295,1.7959.52295.00586-.00977.0415.00049.06299.00049.61768,0,1.21777-.1748,1.74414-.50977.52686-.34082.95898-.81494,1.24951-1.37109.30664-.5874.46289-1.24805.45215-1.88818.00781-.64453-.15039-1.28516-.45703-1.85059-.29492-.54785-.72656-1.0166-1.25439-1.3584Zm-.0708,4.40283c-.17041.32666-.42432.60547-.72949.80273-.29102.18555-.62451.2876-.97266.27197h-.02441c-.35156,0-.69385-.09961-.98926-.2876-.30713-.19629-.55859-.47168-.72852-.79639-.19043-.36377-.2876-.77246-.28125-1.20801-.01465-.77881.36572-1.49805,1.00977-1.91895.60303-.38281,1.38086-.38184,1.97705-.00391.31055.20117.56787.48047.74414.80859.18604.34277.28174.72998.27686,1.14062.00684.4126-.09082.82471-.28223,1.19092Z" fill="var(--iconPrimary, #222)" opacity=".35" stroke-width="0"/>
  <path d="m10,18.75c-4.82471,0-8.75-3.9248-8.75-8.75S5.17529,1.25,10,1.25s8.75,3.9248,8.75,8.75-3.92529,8.75-8.75,8.75Zm0-16c-3.99756,0-7.25,3.25195-7.25,7.25s3.25244,7.25,7.25,7.25,7.25-3.25195,7.25-7.25-3.25244-7.25-7.25-7.25Z" fill="var(--iconPrimary, #222)" stroke-width="0"/>
  <path d="m15.78821,14.34717c-1.48169-1.24365-3.58673-1.97217-5.78821-1.97217-2.26733,0-4.41754.74097-5.79742,1.95996h-.00006c.14948.19946.30878.39062.47711.57324.00214.00244.00421.00488.00635.00708.16888.18286.34698.35718.53412.52173h.00024c1.10168-.95898,2.90839-1.56201,4.77966-1.56201,1.7973,0,3.56195.59155,4.76843,1.57227h.00018c.18799-.16479.36694-.33911.53656-.52222.0011-.00122.00208-.0022.00311-.00342.16937-.18286.32953-.37451.47992-.57422v-.00024Z" fill="var(--iconPrimary, #222)" opacity=".35" stroke-width="0"/>
</svg>