<?xml version="1.0" encoding="UTF-8"?>
<svg   xmlns="http://www.w3.org/2000/svg" width="20" height="20" viewBox="0 0 20 20">
  <path d="M10.83887,10.67188c-.11035,0-.22266-.02441-.3291-.07617-1.44824-.71094-2.38477-2.25488-2.38477-3.93457,0-2.39258,1.85156-4.33887,4.12793-4.33887s4.12793,1.94629,4.12793,4.33887c0,.55566-.09961,1.09863-.29492,1.61328-.14844.3877-.58301.58203-.96777.43457-.38672-.14746-.58203-.58105-.43457-.96777.13086-.34375.19727-.70703.19727-1.08008,0-1.56543-1.17871-2.83887-2.62793-2.83887s-2.62793,1.27344-2.62793,2.83887c0,1.11133.60645,2.12695,1.54492,2.58691.37207.18262.52539.63184.34375,1.00391-.13086.26562-.39746.41992-.6748.41992Z" fill="var(--iconPrimary, #292929)" stroke-width="0"/>
  <path d="M6.13184,17.22168c-.02734,0-.05371-.00098-.08203-.00391-.41113-.04492-.70898-.41504-.66504-.82715.18262-1.68164,1.33301-3.16211,3.1582-4.06152.37109-.18359.82031-.03027,1.00391.3418.18262.37109.03027.82031-.3418,1.00391-1.35449.66699-2.20312,1.71582-2.32812,2.87793-.04199.38379-.36719.66895-.74512.66895Z" fill="var(--iconPrimary, #292929)" stroke-width="0"/>
  <path d="M6.18262,9.16113c-.10352,0-.20801-.02148-.30762-.06543-1.52246-.68457-2.50586-2.25098-2.50586-3.99121C3.36914,2.71191,5.2207.76562,7.49707.76562c.24512,0,.4834.02246.71582.06445.4082.07422.67871.46387.60547.87109-.07324.4082-.46191.68262-.87109.60547-.14648-.02637-.29688-.04102-.4502-.04102-1.44922,0-2.62793,1.27344-2.62793,2.83887,0,1.15039.63574,2.17969,1.62109,2.62207.37793.16992.5459.61426.37695.99219-.125.27734-.39844.44238-.68457.44238Z" fill="var(--iconPrimary, #292929)" stroke-width="0"/>
  <path d="M1.37598,15.75c-.02734,0-.05371-.00098-.08105-.00391-.41211-.04492-.70996-.41504-.66602-.82617.28809-2.66016,3.00391-4.70215,6.45801-4.85645.38965-.02344.76465.30078.78223.71582.01855.41309-.30176.76367-.71582.78223-2.66504.11914-4.8291,1.63184-5.03223,3.51855-.04199.38477-.36719.66992-.74512.66992Z" fill="var(--iconPrimary, #292929)" stroke-width="0"/>
  <path d="M18.55273,10.09473c-.9668-.79297-2.45312-.6875-3.37891.23926l-4.18359,4.18262c-.24707.24707-.43164.55469-.53223.88965l-.9541,3.16016c-.08008.26465-.00781.55176.1875.74707.14258.14258.33398.21973.53027.21973.07227,0,.14551-.01074.2168-.03223l3.1582-.95312c.33496-.10059.64258-.28516.89062-.5332l4.25293-4.25293c.49316-.49316.75684-1.17676.72168-1.87305s-.36621-1.35059-.90918-1.79395ZM11.34375,17.66113l.5498-1.82129c.01758-.05713.05859-.10205.09106-.1521l1.33215,1.33228c-.05017.03247-.09534.07373-.15271.09131l-1.82031.5498ZM17.67969,12.70117l-3.45605,3.45605-1.37634-1.37646,3.38708-3.38623c.3877-.3877.98828-.4502,1.36914-.13867.21875.17773.34668.42969.36035.70703.01367.2793-.08691.54102-.28418.73828Z" fill="var(--iconPrimary, #292929)" stroke-width="0"/>
</svg>