<?xml version="1.0" encoding="UTF-8"?>
<svg id="f" data-name="ICONS" xmlns="http://www.w3.org/2000/svg" width="20" height="20" viewBox="0 0 20 20">
  <path d="M9.62695,9.82617c-.11328,0-.22754-.02539-.33545-.0791-1.34082-.67285-2.20752-2.11523-2.20752-3.67578,0-2.24512,1.73877-4.07129,3.87549-4.07129,2.13721,0,3.87598,1.82617,3.87598,4.07129,0,.5293-.09521,1.04395-.28271,1.5293-.1499.3877-.58447.58203-.97021.42871-.38623-.14941-.57861-.58301-.4292-.96973.12109-.3125.18213-.64453.18213-.98828,0-1.41797-1.06592-2.57129-2.37598-2.57129s-2.37549,1.15332-2.37549,2.57129c0,.99805.5415,1.91406,1.37939,2.33398.37061.18555.52002.63672.33447,1.00684-.13135.2627-.396.41406-.6709.41406Z" fill="var(--iconPrimary, #222)"/>
  <path d="M5.29541,17c-.02686,0-.0542-.00098-.08154-.00391-.41211-.04492-.70947-.41504-.66504-.82715.15039-1.3877,1.03955-2.6709,2.44043-3.52148.35303-.21582.81494-.10352,1.03027.25098.21484.35449.10205.81543-.25195,1.03027-.99805.60645-1.62793,1.48242-1.72754,2.40234-.0415.38379-.3667.66895-.74463.66895Z" fill="var(--iconPrimary, #222)"/>
  <path d="M5.56885,8.38086c-.10254,0-.20703-.02148-.30664-.06543-1.35986-.61035-2.23828-2.00879-2.23828-3.56152,0-2.13574,1.65479-3.87305,3.68896-3.87305.21973,0,.43408.02051.64307.05957.40771.07422.67725.46484.60254.87305-.0752.40723-.46387.67871-.87305.60156-.12109-.02148-.24561-.03418-.37256-.03418-1.20703,0-2.18896,1.06445-2.18896,2.37305,0,.96289.53076,1.82422,1.35254,2.19238.37793.16992.54688.61426.37695.99219-.12451.27734-.39795.44238-.68457.44238Z" fill="var(--iconPrimary, #222)"/>
  <path d="M1.12598,15.24414c-.02686,0-.0542-.00098-.08154-.00391-.41211-.04492-.70947-.41504-.66504-.82715.26953-2.48926,2.80518-4.40039,6.02881-4.54297.4126-.05664.76416.30176.78223.71582.01855.41406-.30176.76367-.71582.78223-2.43848.1084-4.41748,1.4873-4.604,3.20703-.0415.38379-.3667.66895-.74463.66895Z" fill="var(--iconPrimary, #222)"/>
  <path d="M14.75,10.33325c-2.48529,0-4.5,2.01465-4.5,4.5,0,2.48511,2.01471,4.5,4.5,4.5s4.5-2.01489,4.5-4.5c0-2.48535-2.01471-4.5-4.5-4.5ZM17.10791,13.83398l-2.59766,3.15918c-.1167.14258-.29004.22559-.47363.22852h-.00928c-.18066,0-.35205-.07812-.47119-.21387l-1.15234-1.32129c-.22656-.26074-.19971-.65527.06055-.88184.25928-.22754.65527-.2002.88184.05957l.66699.76562,2.12891-2.58887c.21924-.2666.61328-.30469.87988-.08594s.30518.6123.08594.87891Z" fill="var(--iconPrimary, #222)"/>
</svg>