<?xml version="1.0" encoding="UTF-8"?>
<svg id="e" data-name="ICONS" xmlns="http://www.w3.org/2000/svg" width="20" height="20" viewBox="0 0 20 20">
  <path d="M9.46582,9.73926c-.12695,0-.25586-.03223-.37402-.10059-1.23828-.71582-2.00781-2.08301-2.00781-3.56738,0-2.24512,1.73828-4.07129,3.87598-4.07129,2.13672,0,3.875,1.82617,3.875,4.07129,0,.53125-.0957,1.0459-.2832,1.53027-.15039.38574-.58398.5752-.9707.42773-.38574-.14941-.57715-.58398-.42773-.9707.12012-.31055.18164-.64258.18164-.9873,0-1.41797-1.06543-2.57129-2.375-2.57129-1.31055,0-2.37598,1.15332-2.37598,2.57129,0,.9502.48242,1.82031,1.25781,2.26855.35938.20801.48145.66602.27441,1.02441-.13867.24121-.3916.375-.65039.375Z" fill="var(--iconPrimary, #222)"/>
  <path d="M5.29492,17c-.02734,0-.05469-.00098-.08203-.00391-.41113-.04492-.70898-.41504-.66504-.82715.14551-1.33887.94922-2.5498,2.26367-3.41016.3457-.22754.81055-.12891,1.03809.21777.22656.34668.12891.81152-.21777,1.03809-.93066.6084-1.49609,1.43164-1.5918,2.31641-.04199.38379-.36719.66895-.74512.66895Z" fill="var(--iconPrimary, #222)"/>
  <path d="M5.56934,8.38086c-.10352,0-.20703-.02148-.30762-.06543-1.35938-.61035-2.2373-2.00879-2.2373-3.56152,0-2.13574,1.6543-3.87305,3.68848-3.87305.21875,0,.43457.02051.64355.05957.40723.07422.67676.46484.60156.87305-.0752.40723-.46484.68066-.87305.60156-.12109-.02148-.24512-.03418-.37207-.03418-1.20703,0-2.18848,1.06445-2.18848,2.37305,0,.96289.53027,1.82422,1.35254,2.19238.37793.16992.5459.61426.37695.99219-.125.27734-.39844.44238-.68457.44238Z" fill="var(--iconPrimary, #222)"/>
  <path d="M1.12598,15.24414c-.02734,0-.05469-.00098-.08203-.00391-.41113-.04492-.70898-.41504-.66504-.82715.27051-2.48926,2.80566-4.39941,6.0293-4.54297.38965-.03516.76465.30176.78223.71582.01855.41406-.30176.76367-.71582.78223-2.43848.1084-4.41797,1.4873-4.60352,3.20703-.04199.38379-.36719.66895-.74512.66895Z" fill="var(--iconPrimary, #222)"/>
  <circle cx="14.275" cy="14.68005" r="1.11096" fill="var(--iconPrimary, #222)"/>
  <path d="M16.08008,19.74805c-.43652,0-.86523-.20801-1.12598-.58789l-.3916-.56934c-.09961.00781-.19336-.00195-.30469.01172-.10254-.00098-.2041-.00586-.30469-.01465l-.39746.56641c-.40234.57422-1.19336.74805-1.79785.39453l-.48047-.28027c-.60742-.35352-.8457-1.12793-.54199-1.76074l.29785-.62402c-.11426-.16797-.21484-.34473-.30176-.52832l-.69043-.06055c-.69922-.06152-1.24512-.65918-1.24121-1.36133l.00293-.55664c.00195-.7002.55176-1.29297,1.25195-1.34863l.69141-.05469c.08887-.18359.19043-.35938.30566-.52539l-.29199-.62793c-.2959-.63672-.05078-1.40723.55859-1.75488l.48145-.27539c.62012-.35449,1.3916-.17773,1.7959.40918l.3916.57031c.10059-.00879.17676-.01465.30566-.01172.10254.00098.2041.00586.30469.01367l.39648-.56543c.40137-.57617,1.19336-.74902,1.79785-.39453l.48047.28027c.60742.35352.8457,1.12695.54199,1.75977l-.29688.625c.11426.16895.21484.34473.30078.52832l.69043.06055c.69922.06152,1.24512.65918,1.24121,1.36035l-.00293.55664c-.00195.7002-.55176,1.29395-1.25195,1.34961l-.69141.05469c-.08887.18262-.19043.3584-.30566.52539l.29199.62793c.2959.63672.05078,1.40723-.55859,1.75488l-.48145.27539c-.20996.12012-.44141.17773-.66992.17773ZM14.86133,17.29785c.20312,0,.39648.09961.51465.27051l.6084.88379c.0332.04883.09473.0625.14551.0332l.48145-.27539c.05078-.0293.07031-.09082.0459-.14258l-.45312-.97266c-.10449-.22266-.06738-.48633.09375-.67285.21289-.24609.37793-.52832.48828-.83984.08301-.23145.29492-.39258.54004-.41211l1.07031-.08398c.05664-.00488.10059-.05078.10059-.1084l.00293-.55762c0-.05664-.04395-.10352-.10059-.1084l-1.06934-.09375c-.24512-.02148-.45508-.18555-.53613-.41797-.10645-.30957-.26953-.59375-.48145-.8457-.1582-.1875-.19238-.4502-.08691-.67188l.46094-.96875c.02539-.05273.00586-.1123-.04297-.1416l-.48047-.28027c-.0498-.03027-.1123-.01465-.14453.03027l-.61621.87891c-.13965.20117-.38965.30664-.625.25586-.16016-.0293-.32324-.04785-.49023-.04883h-.01074c-.16406,0-.32227.0166-.47754.04492-.23633.04199-.48633-.05859-.625-.26074l-.60742-.88379c-.03223-.04785-.09473-.05957-.14648-.0332l-.48145.27539c-.05078.0293-.07031.09082-.0459.14258l.45312.97168c.10449.22266.06738.48633-.09375.67285-.21289.24512-.37695.52832-.48926.83984-.08301.23145-.29297.39258-.53809.41211l-1.07031.08496c-.05664.00488-.10156.05176-.10156.10742l-.00293.55762c0,.05762.04297.10449.10059.10938l1.06934.09375c.24512.02148.4541.18457.53516.41699.10938.31152.27148.59668.48242.8457.15918.18848.19336.45117.08789.67383l-.46191.96777c-.02539.05078-.00586.11328.04297.1416l.48047.28027c.0498.02734.1123.0166.14551-.03125l.61621-.87891c.14062-.20117.38867-.29785.62891-.25586.15723.03027.31934.04883.48633.0498h0c.21777-.00684.3291-.01562.4873-.04492.03613-.00684.07324-.00977.11035-.00977Z" fill="var(--iconPrimary, #222)"/>
</svg>