<?xml version="1.0" encoding="UTF-8"?>
<svg id="g" data-name="ICONS" xmlns="http://www.w3.org/2000/svg" width="20" height="20" viewBox="0 0 20 20">
  <path d="M11.50293,11.25c-2.27637,0-4.12793-1.94629-4.12793-4.33887s1.85156-4.33887,4.12793-4.33887c2.27588,0,4.12744,1.94629,4.12744,4.33887s-1.85156,4.33887-4.12744,4.33887ZM11.50293,4.07227c-1.44922,0-2.62793,1.27344-2.62793,2.83887s1.17871,2.83887,2.62793,2.83887c1.44873,0,2.62744-1.27344,2.62744-2.83887s-1.17871-2.83887-2.62744-2.83887Z" fill="var(--iconPrimary, #222)"/>
  <path d="M5.38135,17.47266c-.02686,0-.0542-.00098-.08154-.00391-.41211-.04492-.70947-.41504-.66504-.82715.25488-2.35352,2.41455-4.26953,5.37402-4.76758.40625-.07617.79492.20605.86426.61426.06885.40918-.20654.7959-.61523.86426-2.25391.37988-3.95264,1.79883-4.13184,3.45117-.0415.38379-.3667.66895-.74463.66895Z" fill="var(--iconPrimary, #222)"/>
  <path d="M5.68213,9.41113c-.10254,0-.20703-.02148-.30713-.06641-1.52197-.68359-2.50537-2.25-2.50537-3.99023,0-2.39258,1.85156-4.33887,4.12744-4.33887.24609,0,.48633.02246.72021.06641.40723.0752.67627.4668.60059.87402s-.47266.67578-.87402.60059c-.14502-.02637-.29443-.04102-.44678-.04102-1.44873,0-2.62744,1.27344-2.62744,2.83887,0,1.15039.63623,2.17969,1.62061,2.62207.37744.16992.54639.61426.37646.99219-.125.27734-.39844.44238-.68457.44238Z" fill="var(--iconPrimary, #222)"/>
  <path d="M.87598,16c-.02686,0-.0542-.00098-.08154-.00391-.41211-.04492-.70947-.41504-.66504-.82715.28809-2.65918,3.00342-4.70117,6.45752-4.85547.40137-.04102.76416.30273.78223.71582.01855.41309-.30176.76367-.71582.78223-2.66455.11914-4.82861,1.63184-5.03271,3.51953-.0415.38379-.3667.66895-.74463.66895Z" fill="var(--iconPrimary, #222)"/>
  <path d="M19.28027,18.21973l-4.71973-4.71973h2.74365c.41406,0,.75-.33594.75-.75s-.33594-.75-.75-.75h-4.5542c-.41406,0-.75.33594-.75.75v4.55469c0,.41406.33594.75.75.75s.75-.33594.75-.75v-2.74414l4.71973,4.71973c.14648.14648.33838.21973.53027.21973s.38379-.07324.53027-.21973c.29297-.29297.29297-.76758,0-1.06055Z" fill="var(--iconPrimary, #222)"/>
</svg>