<?xml version="1.0" encoding="UTF-8"?>
<svg xmlns="http://www.w3.org/2000/svg" width="14" height="14" viewBox="0 0 14 14">
  <path d="M7,.8252C3.59521.8252.8252,3.59473.8252,7s2.77002,6.1748,6.1748,6.1748,6.1748-2.76953,6.1748-6.1748S10.40479.8252,7,.8252ZM7,2.0752c2.71533,0,4.9248,2.20898,4.9248,4.9248,0,1.06702-.34961,2.04871-.92834,2.85596-1.01898-.86987-2.4743-1.38135-3.99646-1.38135-1.56744,0-3.05438.52051-4.00226,1.37427-.5755-.80591-.92255-1.78516-.92255-2.84888,0-2.71582,2.20947-4.9248,4.9248-4.9248ZM3.85449,10.75757c.71613-.63293,1.90735-1.03296,3.14551-1.03296,1.18719,0,2.32874.40698,3.11829,1.05542-.85199.7041-1.92932,1.14478-3.11829,1.14478-1.20166,0-2.28967-.44958-3.14551-1.16724Z" fill="var(--iconPrimary, #222)"/>
  <path d="M7.03711,8.06152c-.43848.00488-.91846-.12109-1.31152-.37012-.37402-.24023-.67871-.57227-.88281-.96289-.21533-.41113-.3252-.87305-.31787-1.33594-.01709-.89355.4292-1.73828,1.19482-2.23828.7793-.49512,1.77734-.49512,2.5498-.00391.37109.24023.67529.56934.88379.95605.21582.39844.32715.84863.32227,1.30273.00684.44922-.10303.91211-.31836,1.32422-.20459.39258-.50977.72656-.88135.9668-.37305.2373-.79932.36133-1.23877.36133ZM7.00732,6.81152h.00732c.21582-.0127.41113-.05273.58643-.16406.1875-.12012.34326-.29199.44824-.49316.11914-.22852.18018-.48438.17627-.74316.00293-.25781-.05664-.49805-.17188-.70996-.10938-.20312-.26807-.375-.45898-.49902-.3623-.22949-.83301-.22949-1.19824.00293-.396.25879-.63086.70312-.62158,1.18555-.00439.27637.05615.53125.17529.75781.104.19922.25879.36816.44824.49023.17773.1123.38525.17285.59814.17285h.01074Z" fill="var(--iconPrimary, #222)"/>
</svg>