<?xml version="1.0" encoding="UTF-8"?>
<svg   xmlns="http://www.w3.org/2000/svg" width="20" height="20" viewBox="0 0 20 20">
  <path d="M9,11.07715c2.61914,0,4.75-2.24316,4.75-5S11.61914,1.07715,9,1.07715s-4.75,2.24316-4.75,5,2.13086,5,4.75,5ZM9,2.57715c1.79199,0,3.25,1.57031,3.25,3.5s-1.45801,3.5-3.25,3.5-3.25-1.57031-3.25-3.5,1.45801-3.5,3.25-3.5Z" fill="var(--iconPrimary, #222)" stroke-width="0"/>
  <path d="M8.78516,12.80078c-.04004-.41309-.41406-.7207-.81934-.67285-3.75684.36914-6.68457,2.73633-6.96191,5.62793-.04004.41211.26172.77832.6748.81738.02441.00293.04785.00391.07227.00391.38184,0,.70801-.29004.74512-.67871.20996-2.17871,2.57227-3.97852,5.61621-4.27832.41211-.04004.71387-.40723.67285-.81934Z" fill="var(--iconPrimary, #222)" stroke-width="0"/>
  <path d="M19.7041,11.35645l-1.79492-1.50586c.23413-.31897.18652-.7666-.12305-1.02051-.31934-.26074-.79199-.21582-1.05566.10449l-4.7699,5.8208c-1.24402-.58374-2.64294-.43115-3.42542.46924-.40332.46289-.58887,1.07129-.52148,1.71289.08594.82324.57129,1.62305,1.33008,2.19434.67578.50977,1.4541.7627,2.18262.7627.75879,0,1.46289-.27441,1.93848-.82227.40332-.46289.58887-1.07129.52148-1.71191-.06421-.61536-.35168-1.21777-.80981-1.72205l2.26318-2.76184,1.75366,1.47119c.14062.11816.31152.17578.48242.17578.21387,0,.42578-.09082.57422-.26758.2666-.31738.22559-.79102-.0918-1.05664l-1.76758-1.48291.57385-.70044,1.77478,1.48901c.14062.11816.31152.17578.48242.17578.21387,0,.42578-.09082.57422-.26758.2666-.31738.22559-.79102-.0918-1.05664ZM12.33301,18.08789c-.35352.40625-1.29492.44336-2.08691-.15332-.4209-.31738-.69824-.74902-.74023-1.15332-.02441-.22949.0293-.42188.16113-.57227.16602-.19141.46289-.30078.81348-.30078.39355,0,.85449.13867,1.27344.45312.4209.31836.69824.75.74023,1.1543.02441.22949-.0293.42188-.16113.57227Z" fill="var(--iconPrimary, #222)" stroke-width="0"/>
</svg>