<?xml version="1.0" encoding="UTF-8"?>
<svg id="f" data-name="ICONS" xmlns="http://www.w3.org/2000/svg" width="20" height="20" viewBox="0 0 20 20">
  <path d="M14.5,10.08325c-2.48529,0-4.5,2.01465-4.5,4.5,0,2.48511,2.01471,4.5,4.5,4.5s4.5-2.01489,4.5-4.5c0-2.48535-2.01471-4.5-4.5-4.5ZM16.85791,13.58398l-2.59766,3.15918c-.1167.14258-.29004.22559-.47363.22852h-.00928c-.18066,0-.35205-.07812-.47119-.21387l-1.15234-1.32129c-.22656-.26074-.19971-.65527.06055-.88184.25977-.22754.65576-.2002.88184.05957l.66699.76562,2.12891-2.58887c.21875-.2666.61279-.30566.87988-.08594.2666.21875.30518.6123.08594.87891Z" fill="var(--iconPrimary, #222)"/>
  <path d="M8.29688,10.21875c-2.48145,0-4.5-2.12402-4.5-4.73438S5.81543.75,8.29688.75s4.5,2.12402,4.5,4.73438-2.01855,4.73438-4.5,4.73438ZM8.29688,2.25c-1.6543,0-3,1.45117-3,3.23438s1.3457,3.23438,3,3.23438,3-1.45117,3-3.23438-1.3457-3.23438-3-3.23438Z" fill="var(--iconPrimary, #222)"/>
  <path d="M1.50098,17.25c-.02393,0-.04834-.00098-.07275-.00391-.4126-.03906-.71436-.40527-.6748-.81836.27148-2.82129,3.13428-5.06641,6.80713-5.33789.40723-.01758.77246.28027.80322.69238.03027.41309-.27979.77344-.69287.80371-2.89453.21387-5.22656,1.92773-5.42432,3.98633-.03711.3877-.36377.67773-.74561.67773Z" fill="var(--iconPrimary, #222)"/>
</svg>