<?xml version="1.0" encoding="UTF-8"?>
<svg id="e" data-name="ICONS" xmlns="http://www.w3.org/2000/svg" width="20" height="20" viewBox="0 0 20 20">
  <path d="M14.75,10.33318c-2.48523,0-4.5,2.01465-4.5,4.5s2.01477,4.5,4.5,4.5,4.5-2.01477,4.5-4.5-2.01465-4.5-4.5-4.5ZM17.25,15.45818h-1.875v1.875c0,.34473-.27979.625-.625.625s-.625-.28027-.625-.625v-1.875h-1.875c-.34521,0-.625-.28027-.625-.625s.27979-.625.625-.625h1.875v-1.875c0-.34473.27979-.625.625-.625s.625.28027.625.625v1.875h1.875c.34521,0,.625.28027.625.625s-.27979.625-.625.625Z" fill="var(--iconPrimary, #222)"/>
  <path d="M9.62695,9.82617c-.1123,0-.22754-.02539-.33496-.0791-1.34082-.67188-2.20801-2.11523-2.20801-3.67578,0-2.24512,1.73828-4.07129,3.87598-4.07129,2.13672,0,3.875,1.82617,3.875,4.07129,0,.53125-.0957,1.0459-.2832,1.53027-.15039.38574-.58398.57422-.9707.42773-.38574-.14941-.57715-.58398-.42773-.9707.12012-.31055.18164-.64258.18164-.9873,0-1.41797-1.06543-2.57129-2.375-2.57129-1.31055,0-2.37598,1.15332-2.37598,2.57129,0,.99805.54199,1.91406,1.37988,2.33398.37012.18555.52051.63672.33496,1.00684-.13184.2627-.39648.41406-.67188.41406Z" fill="var(--iconPrimary, #222)"/>
  <path d="M5.29492,17c-.02734,0-.05469-.00098-.08203-.00391-.41113-.04492-.70898-.41504-.66504-.82715.15039-1.38672,1.04004-2.6709,2.44043-3.52148.35449-.21582.81641-.10254,1.03027.25098.21582.35449.10254.81543-.25098,1.03027-.99902.60742-1.62793,1.48242-1.72754,2.40234-.04199.38379-.36719.66895-.74512.66895Z" fill="var(--iconPrimary, #222)"/>
  <path d="M5.56934,8.38086c-.10352,0-.20703-.02148-.30762-.06543-1.35938-.61035-2.2373-2.00879-2.2373-3.56152,0-2.13574,1.6543-3.87305,3.68848-3.87305.21875,0,.43457.02051.64355.05957.40723.07422.67676.46484.60156.87305-.0752.40723-.46484.68164-.87305.60156-.12109-.02148-.24512-.03418-.37207-.03418-1.20703,0-2.18848,1.06445-2.18848,2.37305,0,.96289.53027,1.82422,1.35254,2.19238.37793.16992.5459.61426.37695.99219-.125.27734-.39844.44238-.68457.44238Z" fill="var(--iconPrimary, #222)"/>
  <path d="M1.12598,15.24414c-.02734,0-.05469-.00098-.08203-.00391-.41113-.04492-.70898-.41504-.66504-.82715.27051-2.48926,2.80566-4.39941,6.0293-4.54297.375-.04004.76367.30176.78223.71582s-.30176.76367-.71582.78223c-2.43848.1084-4.41797,1.4873-4.60352,3.20703-.04199.38379-.36719.66895-.74512.66895Z" fill="var(--iconPrimary, #222)"/>
</svg>