<?xml version="1.0" encoding="UTF-8"?>
<svg xmlns="http://www.w3.org/2000/svg" width="20" height="20" viewBox="0 0 20 20">
  <path d="M3.27246,17.79688c-.18408,0-.36816-.06738-.5127-.20215-1.84082-1.72461-2.24707-4.48242-.98779-6.70703.98145-1.73438,2.81543-2.80957,4.78857-2.80957h.0127c1.0249.00195,2.0835.3418,3.06152.9834.31494.20605.61133.43848.90674.67188.31641.25.61523.48535.93115.67871.76953.46973,1.76025.63281,2.7168.44629.42529-.08301.8335-.23438,1.21338-.44922,1.91846-1.08594,2.61182-3.50391,1.54492-5.38965-.33154-.58594-.81299-1.07715-1.39209-1.42188-.35596-.21191-.47314-.67188-.26123-1.02734.21191-.35645.67188-.47266,1.02783-.26172.80322.47754,1.47119,1.15918,1.93115,1.97266,1.47412,2.60449.52686,5.93945-2.11182,7.43359-.52051.29492-1.08057.50195-1.66455.61621-1.32178.25684-2.70068.02344-3.78662-.63965-.39209-.23926-.74072-.51465-1.07812-.78027-.26123-.20605-.52197-.41309-.80029-.5957-.51123-.33496-1.31592-.73535-2.24219-.7373h-.00879c-1.4126,0-2.77881.80273-3.4834,2.04785-.91699,1.62012-.62646,3.62402.70752,4.87305.30225.2832.31787.75781.03467,1.06055-.14746.15723-.34717.2373-.54736.2373Z" fill="var(--iconPrimary, #222)"/>
</svg>