<?xml version="1.0" encoding="UTF-8"?>
<svg xmlns="http://www.w3.org/2000/svg" width="20" height="20" viewBox="0 0 20 20">
  <path d="M19.05957,9.79688c0-.50098-.19434-.97168-.54883-1.32617l-2.21973-2.21973c-.70801-.70801-1.94141-.70996-2.65137,0l-.93555.93555c-.00146.00146-.00183.00342-.0033.00488l-3.32678,1.81445c-.47168.25684-.83594.6748-1.02637,1.17578l-2.44592,6.42773c-1.68713-1.1355-2.85461-2.88135-3.25134-4.90625-.39648-2.02051.01758-4.07422,1.16602-5.78223,1.14844-1.70898,2.89355-2.86816,4.91406-3.26465,1.29785-.25586,2.64453-.1709,3.89355.24023.39258.13184.81836-.08301.94727-.47656.12988-.39355-.08301-.81738-.47656-.94727-1.49414-.49414-3.10254-.59473-4.65332-.28906-2.41309.47363-4.49805,1.85938-5.87012,3.90039s-1.86719,4.49414-1.39355,6.9082c.54395,2.77539,2.29785,5.1123,4.8125,6.41113.06885.03589.14221.03955.2146.05249.0144.01538.02222.03491.03735.05005.32227.32324.75098.49512,1.18945.49512.21094,0,.4248-.04004.62891-.12207l6.93652-2.78906c.50977-.20605.92676-.58984,1.17285-1.08203l1.54675-3.09253.79407-.79321c.35449-.35449.54883-.8252.54883-1.3252ZM15.23047,7.31152l2.21973,2.21973c.14648.14648.14648.38379,0,.53027l-.31958.31909-2.74976-2.74976.31934-.31934c.19336-.19238.34082-.18945.53027,0ZM14.82812,14.33691c-.08203.16406-.2207.29199-.3916.36035l-5.76843,2.32031,2.78333-2.78345c.01538.00073.02808.00879.04346.00879.51782,0,.9375-.41968.9375-.9375s-.41968-.9375-.9375-.9375c-.5177,0-.9375.41968-.9375.9375,0,.01562.00818.02881.00903.04419l-2.93701,2.93701,2.12061-5.57275c.06348-.16602.18457-.30469.3418-.39062l3.14453-1.71582,2.9707,2.97168-1.37891,2.75781Z" fill="var(--iconPrimary, #222)"/>
</svg>