<?xml version="1.0" encoding="UTF-8"?>
<svg   xmlns="http://www.w3.org/2000/svg" width="20" height="20" viewBox="0 0 20 20">
  <path d="m15,10.521c-2.48529,0-4.5,2.01489-4.5,4.5,0,2.48535,2.01471,4.5,4.5,4.5s4.5-2.01465,4.5-4.5c0-2.48511-2.01471-4.5-4.5-4.5Zm2.5,5.12549h-1.875v1.875c0,.34473-.27979.625-.625.625s-.625-.28027-.625-.625v-1.875h-1.875c-.34521,0-.625-.28027-.625-.625s.27979-.625.625-.625h1.875v-1.875c0-.34473.27979-.625.625-.625s.625.28027.625.625v1.875h1.875c.34521,0,.625.28027.625.625s-.27979.625-.625.625Z" fill="var(--iconPrimary, #222)" stroke-width="0"/>
  <path d="m17.67725,4.52441l-2.95898-2.95898c-.87695-.87598-2.30518-.87793-3.18213,0l-1.24658,1.24609c-.00726.00732-.00946.01709-.01636.02466l-4.48267,2.44507c-.5752.31348-1.02002.82324-1.25342,1.43652L1.2207,15.43457c-.2793.7334-.10156,1.56445.45264,2.11816.38184.38184.89062.58496,1.40869.58496.25049,0,.50293-.04785.74463-.14453l4.61719-1.85645c.38428-.15527.5708-.5918.41602-.97656-.1543-.38281-.58887-.56738-.97559-.41602l-3.80383,1.52991,4.26178-4.26184c.05402.0072.10181.03198.15778.03198.69037,0,1.25-.55969,1.25-1.25,0-.69043-.55963-1.25-1.25-1.25s-1.25.55957-1.25,1.25c0,.05579.02472.10352.0318.15747l-4.43945,4.43945,3.09711-8.14014c.10596-.27832.30811-.51074.56982-.65332l4.35742-2.37695,4.60303,4.60352c.00177.00171.00415.0022.00592.00391.00336.00342.00427.0083.00775.01172.14648.14648.33838.21973.53027.21973s.38379-.07324.53027-.21973l1.1333-1.13379c.87744-.87695.87744-2.30469,0-3.18164Zm-1.06055,2.12109l-.60217.60242-4.02002-4.02002.60217-.60193c.28369-.28418.77832-.28223,1.06104,0l2.95898,2.95898c.29248.29199.29248.76855,0,1.06055Z" fill="var(--iconPrimary, #222)" stroke-width="0"/>
</svg>