<?xml version="1.0" encoding="UTF-8"?>
<svg xmlns="http://www.w3.org/2000/svg" width="20" height="20" viewBox="0 0 20 20">
  <path d="M3.11865,14.80371c-.25635,0-.50635-.13184-.64648-.36914C.44434,10.99805.99561,6.62988,3.81299,3.8125,6.62939.99512,10.99756.44434,14.43506,2.47266c.35645.20996.4751.66992.26465,1.02637-.21045.3584-.6709.47656-1.02734.26465-2.84668-1.67871-6.46533-1.22266-8.79883,1.10938-2.33301,2.33301-2.78955,5.95215-1.10938,8.7998.21045.35645.0918.81641-.26514,1.02637-.11963.07129-.25049.10449-.38037.10449Z" fill="var(--iconPrimary, #222)" opacity=".5"/>
  <path d="M10.01123,18.74316c-1.5249,0-3.06104-.39844-4.44629-1.21582-.35645-.20996-.4751-.66992-.26465-1.02637.21143-.35742.67285-.47461,1.02734-.26465,2.84766,1.68066,6.46631,1.22363,8.79883-1.10938,2.33301-2.33301,2.78955-5.95215,1.10938-8.7998-.21045-.35645-.0918-.81641.26514-1.02637.35596-.21094.81592-.09277,1.02686.26465,2.02783,3.43652,1.47656,7.80469-1.34082,10.62207-1.68164,1.68164-3.9165,2.55566-6.17578,2.55566Z" fill="var(--iconPrimary, #222)"/>
  <path d="M14.78027,10.46973c-.29297-.29297-.76758-.29297-1.06055,0l-.96973.96973v-.93945c0-2.34375-1.90674-4.25-4.25-4.25-1.11963,0-2.17578.43164-2.97412,1.21484-.2959.29004-.30078.76465-.01074,1.06055.29053.29492.76611.30078,1.06055.00977.5166-.50586,1.2002-.78516,1.92432-.78516,1.51611,0,2.75,1.2334,2.75,2.75v.93945l-.96973-.96973c-.29297-.29297-.76758-.29297-1.06055,0s-.29297.76758,0,1.06055l2.25,2.25c.14648.14648.33838.21973.53027.21973s.38379-.07324.53027-.21973l2.25-2.25c.29297-.29297.29297-.76758,0-1.06055Z" fill="var(--iconPrimary, #222)"/>
</svg>