<?xml version="1.0" encoding="UTF-8"?>
<svg   xmlns="http://www.w3.org/2000/svg" width="20" height="20" viewBox="0 0 20 20">
  <path d="m12.49414,3.43555l-2-1.75c-.2832-.24707-.70508-.24707-.98828,0l-2,1.75c-.31152.27295-.34277.74658-.07031,1.05811.27344.31396.74805.34277,1.05859.0708l.75586-.6615v5.34705c0,.41406.33594.75.75.75s.75-.33594.75-.75V3.90295l.75586.6615c.14258.12451.31836.18555.49414.18555.20801,0,.41602-.08691.56445-.25635.27246-.31152.24121-.78516-.07031-1.05811Z" fill="var(--iconPrimary, #222)"/>
  <path id="b"  d="m14.07955,9.85525c0,.59236-.49249,1.07257-1.1,1.07257-.60751,0-1.1-.48021-1.1-1.07257,0-.59236.49249-1.07257,1.1-1.07257s1.1.48021,1.1,1.07257h0" fill="var(--iconPrimary, #222)"/>
  <path d="m17.5,14.63824v-5.77649c.87085-.31061,1.5-1.13538,1.5-2.11176,0-1.24072-1.00977-2.25-2.25-2.25-.97607,0-1.80103.62885-2.11169,1.5h-1.39807c-.41406,0-.75.33594-.75.75s.33594.75.75.75h1.39807c.22656.63531.72644,1.13519,1.36169,1.36176v5.34241l-1.76758-1.72369c-.72461-.70508-1.89941-.70508-2.62207,0l-.91895.89209-2.40039-2.34033c-.72461-.70508-1.89941-.70508-2.62207,0l-1.66895,1.62695v-3.79742c.63525-.22656,1.13525-.72638,1.36182-1.36176h1.39795c.41406,0,.75-.33594.75-.75s-.33594-.75-.75-.75h-1.39795c-.31079-.87115-1.13574-1.5-2.11182-1.5-1.24023,0-2.25,1.00928-2.25,2.25,0,.97638.62915,1.80115,1.5,2.11176v5.77649c-.87085.31061-1.5,1.13538-1.5,2.11176,0,1.24072,1.00977,2.25,2.25,2.25.97607,0,1.80103-.62885,2.11182-1.5h9.27649c.31067.87115,1.13562,1.5,2.11169,1.5,1.24023,0,2.25-1.00928,2.25-2.25,0-.97638-.62915-1.80115-1.5-2.11176Zm-.75-8.63824c.41309,0,.75.33643.75.75s-.33691.75-.75.75-.75-.33643-.75-.75.33691-.75.75-.75Zm-10.0332,6.10596c.14355-.14062.38379-.13818.52734.00049l2.40039,2.34033c.57812.56348,1.51953.56348,2.09766,0l.91602-.89258c.14258-.14062.38281-.13818.52734.00049l1.82788,1.78247c-.16064.19708-.28809.41882-.37512.66284H5.36182c-.22021-.61719-.69678-1.10907-1.3064-1.34454.04602-.02844.0957-.04865.13599-.08807l2.52539-2.46143Zm-3.4668-6.10596c.41309,0,.75.33643.75.75s-.33691.75-.75.75-.75-.33643-.75-.75.33691-.75.75-.75Zm0,11.5c-.41309,0-.75-.33643-.75-.75s.33691-.75.75-.75.75.33643.75.75-.33691.75-.75.75Zm13.5,0c-.41309,0-.75-.33643-.75-.75,0-.26562.14697-.48834.35571-.62164.07178-.01874.13721-.04907.20178-.08936.06287-.01721.12439-.039.1925-.039.41309,0,.75.33643.75.75s-.33691.75-.75.75Z" fill="var(--iconPrimary, #222)"/>
</svg>