<?xml version="1.0" encoding="UTF-8"?>
<svg xmlns="http://www.w3.org/2000/svg" width="20" height="20" viewBox="0 0 20 20">
  <path d="M3.29688,19c-.19189,0-.38379-.07324-.53027-.21973-1.13916-1.13867-1.7666-2.65332-1.7666-4.26465,0-1.61035.62744-3.125,1.7666-4.26367,1.13867-1.13965,2.65332-1.7666,4.26416-1.7666.57568,0,1.13916.08008,1.67773.23535-.5835-2.04492-.06836-4.34277,1.54297-5.9541,1.13916-1.13965,2.65381-1.7666,4.26416-1.7666,1.61084,0,3.12549.62695,4.26465,1.7666.29297.29297.29297.76758,0,1.06055s-.76758.29297-1.06055,0c-1.76611-1.76465-4.64062-1.76562-6.40771,0-1.77539,1.77637-1.7832,4.6582-.01709,6.4248.14648.14648.21973.33887.21973.53027,0,.19238-.07324.38379-.21973.53027-.29297.29297-.76758.29297-1.06055,0-.85596-.85547-1.99365-1.32715-3.20361-1.32715s-2.34766.47168-3.20361,1.32715-1.32715,1.99316-1.32715,3.20312.47119,2.34863,1.32715,3.2041c.29297.29297.29297.76758,0,1.06055-.14648.14648-.33838.21973-.53027.21973Z" fill="var(--iconPrimary, #222)"/>
</svg>