<?xml version="1.0" encoding="UTF-8"?>
<svg xmlns="http://www.w3.org/2000/svg" width="20" height="20" viewBox="0 0 20 20">
  <path d="M18,15.26843v-4.99988c0-4.55908-3.70898-8.26855-8.26855-8.26855h-4.99988c-.30444-.80139-1.07458-1.375-1.98157-1.375C1.57812.625.625,1.57812.625,2.75c0,.90698.57361,1.67706,1.375,1.98151v4.99994c0,4.55908,3.70898,8.26855,8.26855,8.26855h4.99994c.30444.80139,1.07452,1.375,1.98151,1.375,1.17188,0,2.125-.95312,2.125-2.125,0-.90698-.57361-1.67712-1.375-1.98157ZM17.25,18.125c-.48242,0-.875-.39258-.875-.875s.39258-.875.875-.875.875.39258.875.875-.39258.875-.875.875ZM2.75,1.875c.48242,0,.875.39258.875.875s-.39258.875-.875.875-.875-.39258-.875-.875.39258-.875.875-.875ZM3.5,9.73145v-4.99994c.56732-.21552,1.01599-.66418,1.23151-1.23151h4.99994c3.73242,0,6.76855,3.03613,6.76855,6.76855v4.99994c-.56732.21552-1.01599.66418-1.23151,1.23151h-4.99994c-3.73242,0-6.76855-3.03613-6.76855-6.76855Z" fill="var(--iconPrimary, #222)"/>
  <path d="M14.91406,13.854l-.89575-.89587c.58807-.79797.95465-1.76941.98071-2.83313.03223-1.31641-.46875-2.57275-1.41016-3.5376-.98438-1.00879-2.3584-1.5874-3.77051-1.5874h-3.08789c-.9541,0-1.73047.77637-1.73047,1.73096v3.0874c0,1.41211.57812,2.78613,1.58691,3.77002.93555.91309,2.14551,1.41162,3.41797,1.41162.04004,0,.08008-.00049.12012-.00146,1.06335-.02606,2.03461-.39227,2.83264-.97998l.89587.896c.14648.14648.33789.21973.53027.21973s.38379-.07324.53027-.21973c.29297-.29297.29297-.76758,0-1.06055ZM10.08789,13.49854c-.9082.02979-1.78027-.32666-2.45312-.98389-.72168-.70312-1.13477-1.68604-1.13477-2.69629v-3.0874c0-.12744.10352-.23096.23047-.23096h3.08789c1.01074,0,1.99316.41357,2.69727,1.13477.65625.67334,1.00586,1.54443.9834,2.45312-.0163.66241-.22235,1.27374-.55585,1.79492l-1.4129-1.41309c-.29297-.29297-.76758-.29297-1.06055,0s-.29297.76758,0,1.06055l1.41284,1.41302c-.52112.33331-1.13239.53912-1.79468.55524Z" fill="var(--iconPrimary, #222)"/>
</svg>