<?xml version="1.0" encoding="UTF-8"?>
<svg xmlns="http://www.w3.org/2000/svg" width="20" height="20" viewBox="0 0 20 20">
  <path d="m10,18.03516c-.81348,0-1.54199-.4209-1.94824-1.125L1.97852,6.39062c-.40723-.7041-.40723-1.54492-.00098-2.24902.40625-.70508,1.13574-1.12598,1.94922-1.12598h12.14648c.81348,0,1.54297.4209,1.94922,1.12598.40625.7041.40625,1.54492-.00098,2.24902l-6.07324,10.51953c-.40625.7041-1.13477,1.125-1.94824,1.125ZM3.92676,4.51562c-.3916,0-.58496.2627-.65039.375-.06445.11328-.19434.41113.00098.75h0l6.07324,10.51953c.19531.33887.51953.375.64941.375s.4541-.03613.64941-.375l6.07324-10.51953c.19531-.33887.06543-.63672.00098-.75-.06543-.1123-.25879-.375-.65039-.375H3.92676Z" fill="var(--iconPrimary, #222)"/>
  <path d="m10,5.5c-1.93298,0-3.5,1.56689-3.5,3.5s1.56702,3.5,3.5,3.5,3.5-1.56689,3.5-3.5-1.56702-3.5-3.5-3.5Zm0,5.5c-1.10449,0-2-.89551-2-2,0-1.10474.89551-2,2-2s2,.89526,2,2c0,1.10449-.89551,2-2,2Z" fill="var(--iconPrimary, #222)" opacity=".12"/>
  <path d="m16.72363,4.89062c-.06543-.1123-.25879-.375-.65039-.375h-1.37634c.60498.63452,1.07837,1.3916,1.3877,2.23022l.63806-1.10522c.19531-.33887.06543-.63672.00098-.75Z" fill="var(--iconPrimary, #222)" opacity=".75"/>
  <g>
    <path d="m10,14c-.79395,0-1.5376-.19287-2.19995-.52563l1.11475,1.93091c.35278.06104.71484.09473,1.08521.09473.37134,0,.73364-.03662,1.08716-.09814l1.11707-1.93481c-.6676.33032-1.40906.53296-2.20422.53296Z" fill="var(--iconPrimary, #222)" opacity=".5"/>
    <path d="m14.96777,8.68018l1.11682-1.93433c-.30933-.83862-.78271-1.5957-1.3877-2.23022h-2.52454c1.57593.76538,2.677,2.32471,2.79541,4.16455Z" fill="var(--iconPrimary, #222)" opacity=".5"/>
  </g>
  <path d="m12.17236,4.51562h-4.34473c-1.57593.76538-2.677,2.32471-2.79541,4.16455l2.76355,4.78687c.6676.33032,1.40906.53296,2.20422.53296s1.53662-.20264,2.20422-.53296l2.76355-4.78687c-.11841-1.83984-1.21948-3.39917-2.79541-4.16455Zm-2.17236,7.98438c-1.93298,0-3.5-1.56689-3.5-3.5s1.56702-3.5,3.5-3.5,3.5,1.56689,3.5,3.5-1.56702,3.5-3.5,3.5Z" fill="var(--iconPrimary, #222)" opacity=".3"/>
  <path d="m5.32629,4.51562h-1.39954c-.3916,0-.58496.2627-.65039.375-.06445.11328-.19434.41113.00098.75l.63831,1.10547c.31091-.84399.80078-1.59326,1.41064-2.23047Z" fill="var(--iconPrimary, #222)" opacity=".75"/>
  <path d="m10,15.5c-.37036,0-.73242-.03369-1.08521-.09473l.43579.75488c.19531.33887.51953.375.64941.375s.4541-.03613.64941-.375l.43774-.7583c-.35352.06152-.71582.09814-1.08716.09814Z" fill="var(--iconPrimary, #222)" opacity=".75"/>
  <path d="m7.82764,4.51562h-2.50134c-.60986.63721-1.09973,1.38647-1.41064,2.23047l1.11658,1.93408c.11841-1.83984,1.21948-3.39917,2.79541-4.16455Z" fill="var(--iconPrimary, #222)" opacity=".5"/>
</svg>