<?xml version="1.0" encoding="UTF-8"?>
<svg id="e" data-name="ICONS" xmlns="http://www.w3.org/2000/svg" width="20" height="20" viewBox="0 0 20 20">
  <rect x="10" y="3.5" width="4" height="2.5" fill="var(--iconPrimary, #222)" opacity=".35"/>
  <path d="M8.47339,6.64697l1.52661.82056v-1.46753h-4v4h.99994v-2.47217c0-.75635.80719-1.23877,1.47345-.88086Z" fill="var(--iconPrimary, #222)" opacity=".35"/>
  <path d="M13.59967,10c0,.34619-.17554.69214-.52661.88086l-3.07306,1.65161v1.46753h4v-4h-.40033Z" fill="var(--iconPrimary, #222)" opacity=".35"/>
  <path d="M13.59967,10c0-.34619-.17554-.69214-.52661-.88086l-3.07306-1.65161-1.52661-.82056c-.66626-.35791-1.47345.12451-1.47345.88086v4.94434c0,.75635.80719,1.23877,1.47339.88086l1.52667-.82056,3.07306-1.65161c.35107-.18872.52661-.53467.52661-.88086Z" fill="var(--iconPrimary, #222)"/>
  <rect x="14" y="6" width="2.5" height="4" fill="var(--iconPrimary, #222)" opacity=".35"/>
  <path d="M14,16.5h1.75c.41357,0,.75-.33691.75-.75v-1.75h-2.5v2.5Z" fill="var(--iconPrimary, #222)" opacity=".35"/>
  <rect x="6" y="14" width="4" height="2.5" fill="var(--iconPrimary, #222)" opacity=".35"/>
  <rect x="3.5" y="10" width="2.5" height="4" fill="var(--iconPrimary, #222)" opacity=".35"/>
  <path d="M6,3.5h-1.75c-.41357,0-.75.33691-.75.75v1.75h2.5v-2.5Z" fill="var(--iconPrimary, #222)" opacity=".35"/>
  <path d="M15.75,2H4.25c-1.24072,0-2.25,1.00977-2.25,2.25v11.5c0,1.24023,1.00928,2.25,2.25,2.25h11.5c1.24072,0,2.25-1.00977,2.25-2.25V4.25c0-1.24023-1.00928-2.25-2.25-2.25ZM16.5,10v5.75c0,.41309-.33643.75-.75.75H4.25c-.41357,0-.75-.33691-.75-.75V4.25c0-.41309.33643-.75.75-.75h11.5c.41357,0,.75.33691.75.75v5.75Z" fill="var(--iconPrimary, #222)"/>
</svg>