<?xml version="1.0" encoding="UTF-8"?>
<svg id="e" data-name="ICONS" xmlns="http://www.w3.org/2000/svg" width="20" height="20" viewBox="0 0 20 20">
  <path d="M16.75,7.5h-3.5c-.41357,0-.75-.33691-.75-.75v-3.5c0-1.24023-1.00928-2.25-2.25-2.25H3.25c-1.24072,0-2.25,1.00977-2.25,2.25v7c0,1.24023,1.00928,2.25,2.25,2.25h3.5c.41357,0,.75.33691.75.75v3.5c0,1.24023,1.00928,2.25,2.25,2.25h7c1.24072,0,2.25-1.00977,2.25-2.25v-7c0-1.24023-1.00928-2.25-2.25-2.25ZM17.5,16.75c0,.41309-.33643.75-.75.75h-7c-.41357,0-.75-.33691-.75-.75v-3.5c0-1.24023-1.00928-2.25-2.25-2.25h-3.5c-.41357,0-.75-.33691-.75-.75V3.25c0-.41309.33643-.75.75-.75h7c.41357,0,.75.33691.75.75v3.5c0,1.24023,1.00928,2.25,2.25,2.25h3.5c.41357,0,.75.33691.75.75v7Z" fill="var(--iconPrimary, #222)"/>
  <path d="M8.80524,10.25903c-.29291.29272-.29291.76782,0,1.06055.29291.29297.76776.29297,1.06067,0,.29291-.29272.29291-.76782,0-1.06055-.29291-.29297-.76776-.29297-1.06067,0Z" fill="var(--iconPrimary, #222)"/>
  <path d="M10.2699,8.79443c-.29291.29272-.29291.76758,0,1.06055s.76776.29297,1.06067,0,.29291-.76782,0-1.06055c-.29291-.29297-.76776-.29297-1.06067,0Z" fill="var(--iconPrimary, #222)"/>
  <path d="M12.48315,11.33374c-.31915-.22705-.73315.03418-.73315.46289v2.90674c0,.42871.414.68994.73315.46265l2.35071-1.45312c.30029-.21387.30029-.71191,0-.92578l-2.35071-1.45337Z" fill="var(--iconPrimary, #222)"/>
  <path d="M5.98315,4.83374c-.31915-.22705-.73315.03418-.73315.46289v2.90674c0,.42871.414.68994.73315.46265l2.35071-1.45312c.30029-.21387.30029-.71191,0-.92578l-2.35071-1.45337Z" fill="var(--iconPrimary, #222)"/>
</svg>