<?xml version="1.0" encoding="UTF-8"?>
<svg id="e" data-name="ICONS" xmlns="http://www.w3.org/2000/svg" width="20" height="20" viewBox="0 0 20 20">
  <path d="M7.25,13.5H3.25c-.41357,0-.75-.33691-.75-.75V3.25c0-.41309.33643-.75.75-.75h9.5c.41357,0,.75.33691.75.75v4c0,.41406.33594.75.75.75s.75-.33594.75-.75V3.25c0-1.24023-1.00928-2.25-2.25-2.25H3.25c-1.24072,0-2.25,1.00977-2.25,2.25v9.5c0,1.24023,1.00928,2.25,2.25,2.25h4c.41406,0,.75-.33594.75-.75s-.33594-.75-.75-.75Z" fill="var(--iconPrimary, #222)"/>
  <path d="M10.42316,7.11914l-3.53601-1.90039c-.6662-.35815-1.47339.12451-1.47339.88086v3.80078c0,.75635.80719,1.23877,1.47339.88086l1.61328-.86719c.51593-.90894,1.38843-1.58667,2.43719-1.81982.0351-.37646-.13123-.76904-.51447-.9751Z" fill="var(--iconPrimary, #222)"/>
  <path d="M18.75,15.25c-.41406,0-.75.33594-.75.75v1.25c0,.41309-.33643.75-.75.75h-5.5c-.41357,0-.75-.33691-.75-.75v-5.5c0-.41309.33643-.75.75-.75h1.25c.41406,0,.75-.33594.75-.75s-.33594-.75-.75-.75h-1.25c-1.24072,0-2.25,1.00977-2.25,2.25v5.5c0,1.24023,1.00928,2.25,2.25,2.25h5.5c1.24072,0,2.25-1.00977,2.25-2.25v-1.25c0-.41406-.33594-.75-.75-.75Z" fill="var(--iconPrimary, #222)"/>
  <path d="M18.75,9.5h-2.7417c-.41406,0-.75.33594-.75.75s.33594.75.75.75h1.10742l-1.55762,1.55762c-.24414.24414-.24414.64062,0,.88477.12207.12207.28174.18262.44189.18262s.31982-.06055.44189-.18262l1.55811-1.55811v1.10791c0,.41406.33594.75.75.75s.75-.33594.75-.75v-2.74219c0-.41406-.33594-.75-.75-.75Z" fill="var(--iconPrimary, #222)"/>
  <circle cx="14.125" cy="13" r=".625" fill="var(--iconPrimary, #222)"/>
  <circle cx="12.25" cy="13" r=".625" fill="var(--iconPrimary, #222)"/>
  <circle cx="16" cy="14.875" r=".625" fill="var(--iconPrimary, #222)"/>
  <circle cx="16" cy="16.75" r=".625" fill="var(--iconPrimary, #222)"/>
</svg>