<?xml version="1.0" encoding="UTF-8"?>
<svg id="e" data-name="ICONS" xmlns="http://www.w3.org/2000/svg" width="20" height="20" viewBox="0 0 20 20">
  <path d="M10.469,7.11858l-3.49665-1.8738c-.66618-.35699-1.47235.12562-1.47235.88143v3.74759c0,.7558.80617,1.23841,1.47234.88142l3.49666-1.8738c.70355-.37702.70355-1.38582,0-1.76284Z" fill="var(--iconPrimary, #222)"/>
  <path d="M8.50586,15H3.25c-1.24023,0-2.25-1.00977-2.25-2.25V3.25c0-1.24023,1.00977-2.25,2.25-2.25h9.5c1.24023,0,2.25,1.00977,2.25,2.25v4.92578c0,.41406-.33594.75-.75.75s-.75-.33594-.75-.75V3.25c0-.41309-.33691-.75-.75-.75H3.25c-.41309,0-.75.33691-.75.75v9.5c0,.41309.33691.75.75.75h5.25586c.41406,0,.75.33594.75.75s-.33594.75-.75.75Z" fill="var(--iconPrimary, #222)"/>
  <path d="M18.58789,10.06152c-.9668-.79395-2.45215-.6875-3.37988.23828l-4.18262,4.18359c-.24707.24707-.43066.55371-.5332.88965l-.9541,3.16016c-.08008.26465-.00781.55176.1875.74707.14258.14258.33398.21973.53027.21973.07227,0,.14551-.01074.2168-.03223l3.15918-.95312c.33496-.10059.64258-.28516.89062-.5332l4.25293-4.25293c.49316-.49316.75684-1.17676.72168-1.87305s-.36621-1.35059-.90918-1.79395ZM11.37793,17.62793l.5498-1.81934c.01257-.04224.04541-.07227.0658-.10986l1.31445,1.31445c-.03748.02002-.06799.05249-.10876.06494l-1.82129.5498ZM17.71484,12.66797l-3.49121,3.49121-1.37646-1.37646,3.42139-3.42236c.22168-.22168.5127-.33594.79297-.33594.20996,0,.41406.06445.57715.19824.21875.17773.34668.42969.36035.70703.01367.2793-.08691.54102-.28418.73828Z" fill="var(--iconPrimary, #222)"/>
</svg>