<?xml version="1.0" encoding="UTF-8"?>
<svg   xmlns="http://www.w3.org/2000/svg" width="20" height="20" viewBox="0 0 20 20">
  <path d="M18.79639,16.67773l-1.75-1.75c-.29297-.29297-.76758-.29297-1.06055,0s-.29297.76758,0,1.06055l.46973.46973h-6.58057c-.41406,0-.75.33594-.75.75s.33594.75.75.75h6.58057l-.46973.46973c-.29297.29297-.29297.76758,0,1.06055.14648.14648.33838.21973.53027.21973s.38379-.07324.53027-.21973l1.75-1.75c.29297-.29297.29297-.76758,0-1.06055Z" fill="var(--iconPrimary, #222)" stroke-width="0"/>
  <path d="M13.07313,9.11916l-4.59971-2.47212c-.66621-.35806-1.47342.12451-1.47342.88085v4.94424c0,.75633.80721,1.2389,1.47342.88085l4.59972-2.47213c.70212-.37736.70212-1.38433,0-1.76169Z" fill="var(--iconPrimary, #222)" stroke-width="0"/>
  <path d="M7,17.97363h-2.75c-1.22656,0-2.22412-.99707-2.22412-2.22363V4.25c0-1.22656.99756-2.22363,2.22412-2.22363h11.5c1.22656,0,2.22412.99707,2.22412,2.22363v8.5c0,.40039-.32422.72363-.72412.72363s-.72412-.32324-.72412-.72363V4.25c0-.42773-.34814-.77637-.77588-.77637H4.25c-.42773,0-.77588.34863-.77588.77637v11.5c0,.42773.34814.77637.77588.77637h2.75c.3999,0,.72412.32324.72412.72363s-.32422.72363-.72412.72363Z" fill="var(--iconPrimary, #222)" stroke-width="0"/>
</svg>