<?xml version="1.0" encoding="UTF-8"?>
<svg id="e" data-name="ICONS" xmlns="http://www.w3.org/2000/svg" width="20" height="20" viewBox="0 0 20 20">
  <path d="M10.42314,7.11916l-3.53598-1.90042c-.66621-.35806-1.47342.12451-1.47342.88085v3.80083c0,.75633.80721,1.2389,1.47342.88085l3.53598-1.90042c.70212-.37736.70212-1.38433,0-1.76169Z" fill="var(--iconPrimary, #222)"/>
  <path d="M6.75,15h-3.5c-1.24072,0-2.25-1.00977-2.25-2.25V3.25c0-1.24023,1.00928-2.25,2.25-2.25h9.5c1.24072,0,2.25,1.00977,2.25,2.25v3.5c0,.41406-.33594.75-.75.75s-.75-.33594-.75-.75v-3.5c0-.41309-.33643-.75-.75-.75H3.25c-.41357,0-.75.33691-.75.75v9.5c0,.41309.33643.75.75.75h3.5c.41406,0,.75.33594.75.75s-.33594.75-.75.75Z" fill="var(--iconPrimary, #222)"/>
  <path d="M14.25,19.5c-2.89502,0-5.25-2.35547-5.25-5.25s2.35498-5.25,5.25-5.25,5.25,2.35547,5.25,5.25-2.35498,5.25-5.25,5.25ZM14.25,10.5c-2.06787,0-3.75,1.68262-3.75,3.75s1.68213,3.75,3.75,3.75,3.75-1.68262,3.75-3.75-1.68213-3.75-3.75-3.75Z" fill="var(--iconPrimary, #222)"/>
  <path d="M14.26807,16.75c-.96191,0-1.82324-.50977-2.24805-1.33105-.15869-.30664-.03857-.68359.26807-.8418.30518-.16016.68311-.03906.84229.26758.20605.39844.65234.65527,1.1377.65527.48486,0,.93115-.25684,1.13721-.65527.15869-.30664.53467-.42773.84229-.26758.30664.1582.42676.53516.26807.8418-.4248.82129-1.28613,1.33105-2.24756,1.33105Z" fill="var(--iconPrimary, #222)"/>
  <circle cx="15.61834" cy="12.99404" r=".7546" fill="var(--iconPrimary, #222)"/>
  <circle cx="12.88166" cy="12.99404" r=".7546" fill="var(--iconPrimary, #222)"/>
</svg>