<?xml version="1.0" encoding="UTF-8"?>
<svg   xmlns="http://www.w3.org/2000/svg" width="20" height="20" viewBox="0 0 20 20">
  <path d="m13.07313,9.11916l-4.59971-2.47212c-.66621-.35806-1.47342.12451-1.47342.88085v4.94424c0,.75633.80721,1.2389,1.47342.88085l4.59972-2.47213c.70212-.37736.70212-1.38433,0-1.76169Z" fill="var(--iconPrimary, #222)" />
  <path d="m12.75,3.5h-1.25c-.41406,0-.75-.33594-.75-.75s.33594-.75.75-.75h1.25c.41406,0,.75.33594.75.75s-.33594.75-.75.75Z" fill="var(--iconPrimary, #222)" />
  <path d="m12.75,18h-1.25c-.41406,0-.75-.33594-.75-.75s.33594-.75.75-.75h1.25c.41406,0,.75.33594.75.75s-.33594.75-.75.75Z" fill="var(--iconPrimary, #222)"/>
  <path d="m8.5,3.5h-1.25c-.41406,0-.75-.33594-.75-.75s.33594-.75.75-.75h1.25c.41406,0,.75.33594.75.75s-.33594.75-.75.75Z" fill="var(--iconPrimary, #222)" />
  <path d="m8.5,18h-1.25c-.41406,0-.75-.33594-.75-.75s.33594-.75.75-.75h1.25c.41406,0,.75.33594.75.75s-.33594.75-.75.75Z" fill="var(--iconPrimary, #222)" />
  <path d="m17.25,5c-.41406,0-.75-.33594-.75-.75,0-.41309-.33643-.75-.75-.75-.41406,0-.75-.33594-.75-.75s.33594-.75.75-.75c1.24072,0,2.25,1.00977,2.25,2.25,0,.41406-.33594.75-.75.75Z" fill="var(--iconPrimary, #222)" />
  <path d="m17.25,9.25c-.41406,0-.75-.33594-.75-.75v-1.25c0-.41406.33594-.75.75-.75s.75.33594.75.75v1.25c0,.41406-.33594.75-.75.75Z" fill="var(--iconPrimary, #222)"/>
  <path d="m2.75,9.25c-.41406,0-.75-.33594-.75-.75v-1.25c0-.41406.33594-.75.75-.75s.75.33594.75.75v1.25c0,.41406-.33594.75-.75.75Z" fill="var(--iconPrimary, #222)"/>
  <path d="m17.25,13.5c-.41406,0-.75-.33594-.75-.75v-1.25c0-.41406.33594-.75.75-.75s.75.33594.75.75v1.25c0,.41406-.33594.75-.75.75Z" fill="var(--iconPrimary, #222)"/>
  <path d="m2.75,13.5c-.41406,0-.75-.33594-.75-.75v-1.25c0-.41406.33594-.75.75-.75s.75.33594.75.75v1.25c0,.41406-.33594.75-.75.75Z" fill="var(--iconPrimary, #222)"/>
  <path d="m4.25,18c-1.24072,0-2.25-1.00977-2.25-2.25,0-.41406.33594-.75.75-.75s.75.33594.75.75c0,.41309.33643.75.75.75.41406,0,.75.33594.75.75s-.33594.75-.75.75Z" fill="var(--iconPrimary, #222)" />
  <path d="m2.75,5c-.41406,0-.75-.33594-.75-.75,0-1.24023,1.00928-2.25,2.25-2.25.41406,0,.75.33594.75.75s-.33594.75-.75.75c-.41357,0-.75.33691-.75.75,0,.41406-.33594.75-.75.75Z" fill="var(--iconPrimary, #222)"/>
  <path d="m15.75,18c-.41406,0-.75-.33594-.75-.75s.33594-.75.75-.75c.41357,0,.75-.33691.75-.75,0-.41406.33594-.75.75-.75s.75.33594.75.75c0,1.24023-1.00928,2.25-2.25,2.25Z" fill="var(--iconPrimary, #222)"/>
</svg>