<?xml version="1.0" encoding="UTF-8"?>
<svg id="e" data-name="ICONS" xmlns="http://www.w3.org/2000/svg" width="20" height="20" viewBox="0 0 20 20">
  <path d="M10.42314,7.11916l-3.53598-1.90042c-.66621-.35806-1.47342.12451-1.47342.88085v3.80083c0,.75633.80721,1.2389,1.47342.88085l3.53598-1.90042c.70212-.37736.70212-1.38433,0-1.76169Z" fill="var(--iconPrimary, #222)"/>
  <path d="M9.27441,15H3.25c-1.24023,0-2.25-1.00977-2.25-2.25V3.25c0-1.24023,1.00977-2.25,2.25-2.25h9.5c1.24023,0,2.25,1.00977,2.25,2.25v4c0,.41406-.33594.75-.75.75s-.75-.33594-.75-.75V3.25c0-.41309-.33691-.75-.75-.75H3.25c-.41309,0-.75.33691-.75.75v9.5c0,.41309.33691.75.75.75h6.02441c.41406,0,.75.33594.75.75s-.33594.75-.75.75Z" fill="var(--iconPrimary, #222)"/>
  <path d="M18.86328,9.90137c-.4043-.33301-.93164-.46973-1.42773-.37109l-3.53809.58887c-.82129.16016-1.41699.88379-1.41504,1.7207l.00488,3.61523c-.52051.00488-1.1416.07324-1.5957.29102-.62012.29688-1.08984.80176-1.29102,1.38477-.16016.46484-.13477.94824.06934,1.36133.32129.65039,1.00391,1.01172,1.76855,1.01172.37695,0,.77344-.08789,1.15625-.27148.83789-.40039,1.38574-1.1748,1.39551-1.98242l-.00098-.95215c.00195-.0332.00195-.06543-.00098-.09766l-.00586-4.36328c0-.11914.08496-.22266.18164-.24121l3.53711-.58887c.10352-.02246.17383.02441.20801.05273.03418.02734.09082.08984.09082.19238v3.13574c-.52148.00488-1.14453.07227-1.59863.29102-.61914.29688-1.08984.80176-1.29102,1.38379-.16016.46484-.13574.94824.06934,1.36328.47949.96973,1.7627,1.2959,2.92383.73926.83887-.40039,1.38672-1.1748,1.39648-1.98145v-4.93164c0-.52441-.23242-1.0166-.63672-1.35059ZM12.49023,17.24219c-.00195.18848-.18945.46777-.54297.63672-.43945.21387-.85156.11035-.93262-.05176-.0332-.06641-.01562-.14941.00391-.20801.05469-.15723.21973-.37598.52051-.52051.19238-.0918.58789-.1377.95117-.14453v.28809ZM18,16.1748c-.00195.18359-.19336.46973-.54395.6377-.44043.21191-.85254.10938-.93164-.05176-.0332-.06641-.0166-.15039.00391-.20898.05469-.15723.21973-.37598.52148-.52051.19238-.09277.58691-.1377.9502-.14453v.28809Z" fill="var(--iconPrimary, #222)"/>
</svg>