<?xml version="1.0" encoding="UTF-8"?>
<svg id="e" data-name="strokes" xmlns="http://www.w3.org/2000/svg" width="20" height="20" viewBox="0 0 20 20">
  <path d="M16.75,3H3.25c-1.24023,0-2.25,1.00928-2.25,2.25v9.5c0,1.24072,1.00977,2.25,2.25,2.25h13.5c1.24023,0,2.25-1.00928,2.25-2.25V5.25c0-1.24072-1.00977-2.25-2.25-2.25ZM6,4.5h2v3.25c0,1.24072,1.00977,2.25,2.25,2.25h7.25v2H6.75c-.41309,0-.75-.33643-.75-.75v-6.75ZM17.5,5.25v3.25h-7.25c-.41309,0-.75-.33643-.75-.75v-3.25h7.25c.41309,0,.75.33643.75.75ZM16.75,15.5H3.25c-.41309,0-.75-.33643-.75-.75V5.25c0-.41357.33691-.75.75-.75h1.25v6.75c0,1.24072,1.00977,2.25,2.25,2.25h10.75v1.25c0,.41357-.33691.75-.75.75Z" fill="var(--iconPrimary, #222)"/>
</svg>