<?xml version="1.0" encoding="UTF-8"?>
<svg id="e" data-name="ICONS" xmlns="http://www.w3.org/2000/svg" width="20" height="20" viewBox="0 0 20 20">
  <path d="M10.42314,7.11916l-3.53598-1.90042c-.66621-.35806-1.47342.12451-1.47342.88085v3.80083c0,.75633.80721,1.2389,1.47342.88085l3.53598-1.90042c.70212-.37736.70212-1.38433,0-1.76169Z" fill="var(--iconPrimary, #222)"/>
  <path d="M6.25,15h-3c-1.24072,0-2.25-1.00977-2.25-2.25V3.25c0-1.24023,1.00928-2.25,2.25-2.25h9.5c1.24072,0,2.25,1.00977,2.25,2.25v5.4502c0,.41406-.33594.75-.75.75s-.75-.33594-.75-.75V3.25c0-.41309-.33643-.75-.75-.75H3.25c-.41357,0-.75.33691-.75.75v9.5c0,.41309.33643.75.75.75h3c.41406,0,.75.33594.75.75s-.33594.75-.75.75Z" fill="var(--iconPrimary, #222)"/>
  <path d="M17.5,19.5h-7c-1.10303,0-2-.89746-2-2v-4.5c0-1.10254.89697-2,2-2h7c1.10303,0,2,.89746,2,2v4.5c0,1.10254-.89697,2-2,2ZM10.5,12.5c-.27588,0-.5.22461-.5.5v4.5c0,.27539.22412.5.5.5h7c.27588,0,.5-.22461.5-.5v-4.5c0-.27539-.22412-.5-.5-.5h-7Z" fill="var(--iconPrimary, #222)"/>
  <path d="M16.24756,17.24414c-.44629,0-.88867-.13867-1.2373-.40039-.48779-.36719-.75684-.9375-.75684-1.60742,0-.83887.396-1.31445.72803-1.56543.5752-.43652,1.34131-.4873,1.84521-.34473.33203.09375.5249.43945.43115.77148-.09473.33301-.44092.51953-.77197.43164-.1665-.0459-.51953-.03613-.75049.13867-.09961.0752-.23193.21582-.23193.56836,0,.27441.08643.47949.25732.60742.18799.1416.47754.18945.72119.11719.33008-.09473.67822.0957.77441.42578.09619.33203-.09424.67871-.42578.77539-.18994.05469-.38672.08203-.58301.08203Z" fill="var(--iconPrimary, #222)"/>
  <path d="M12.72412,17.24414c-.4458,0-.88867-.13867-1.23682-.40039-.48828-.36719-.75684-.9375-.75684-1.60742,0-.83887.396-1.31445.72803-1.56543.5752-.43652,1.34131-.4873,1.84521-.34473.33203.09375.5249.43945.43115.77148-.09473.33301-.44189.51953-.77197.43164-.1665-.0459-.52002-.03613-.75049.13867-.09961.0752-.23193.21582-.23193.56836,0,.27539.08643.47949.25732.60742.1875.1416.479.19043.72119.11719.32812-.09375.67822.09473.77441.42676.09619.33105-.09424.67773-.42578.77441-.18994.05469-.38672.08203-.5835.08203Z" fill="var(--iconPrimary, #222)"/>
</svg>