<?xml version="1.0" encoding="UTF-8"?>
<svg id="e" data-name="ICONS" xmlns="http://www.w3.org/2000/svg" width="20" height="20" viewBox="0 0 20 20">
  <path d="M15.125,12.75c-2.35449,0-4.26709,1.87402-4.35791,4.20654l-.48682-.48682c-.29297-.29297-.76758-.29297-1.06055,0s-.29297.76758,0,1.06055l1.75,1.75c.14648.14648.33789.21973.53027.21973s.38379-.07324.53027-.21973l1.75-1.75c.29297-.29297.29297-.76758,0-1.06055s-.76758-.29297-1.06055,0l-.44885.44873c.10803-1.4873,1.33984-2.66846,2.85413-2.66846,1.58496,0,2.875,1.29004,2.87695,2.8291-.00488.03125-.01367.12207-.01465.1543-.00879.41406.31836.77344.73242.7832.41699-.00879.75684-.30176.76562-.71582.00586-.03711.01465-.13867.01465-.17578,0-2.41211-1.96289-4.375-4.375-4.375Z" fill="var(--iconPrimary, #222)"/>
  <path d="M13.073,9.11914l-3.073-1.65161-1.52661-.82056c-.66626-.35791-1.47339.12451-1.47339.88086v4.94434c0,.75635.80713,1.23877,1.47339.88086l1.52661-.82056,3.073-1.65161c.35107-.18872.52661-.53467.52661-.88086s-.17554-.69214-.52661-.88086Z" fill="var(--iconPrimary, #222)"/>
  <path d="M8.47339,6.64697l1.52661.82056v-1.46753h-4v4h1v-2.47217c0-.75635.80713-1.23877,1.47339-.88086Z" fill="var(--iconPrimary, #222)" opacity=".35"/>
  <path d="M13.59961,10c0,.34619-.17554.69214-.52661.88086l-3.073,1.65161v1.46753h.15894c.84973-1.34546,2.2262-2.32471,3.84106-2.63916v-1.36084h-.40039Z" fill="var(--iconPrimary, #222)" opacity=".35"/>
  <rect x="10" y="3.5" width="4" height="2.5" fill="var(--iconPrimary, #222)" opacity=".35"/>
  <rect x="14" y="6" width="2.5" height="4" fill="var(--iconPrimary, #222)" opacity=".35"/>
  <path d="M3.5,4.25v1.75h2.5v-2.5h-1.75c-.41309,0-.75.33691-.75.75Z" fill="var(--iconPrimary, #222)" opacity=".35"/>
  <rect x="3.5" y="10" width="2.5" height="4" fill="var(--iconPrimary, #222)" opacity=".35"/>
  <path d="M6.7627,16.5c.37256,0,.66821.27686.72632.6333h.0249c-.03662-.61987.17261-1.25146.64514-1.72412.42493-.42505.98999-.65918,1.59094-.65918h.00598c.07422-.16699.15515-.33008.24402-.48877v-.26123h-4v2.5h.7627Z" fill="var(--iconPrimary, #222)" opacity=".35"/>
  <path d="M15.75,2H4.25c-1.24023,0-2.25,1.00977-2.25,2.25v11.5c0,1.24023,1.00977,2.25,2.25,2.25h2.5127c.41406,0,.75-.33594.75-.75,0-.0415-.01709-.07715-.02368-.1167-.05811-.35645-.35376-.6333-.72632-.6333h-2.5127c-.41309,0-.75-.33691-.75-.75V4.25c0-.41309.33691-.75.75-.75h11.5c.41309,0,.75.33691.75.75v6.58496c0,.41406.33594.75.75.75s.75-.33594.75-.75v-6.58496c0-1.24023-1.00977-2.25-2.25-2.25Z" fill="var(--iconPrimary, #222)"/>
</svg>