<?xml version="1.0" encoding="UTF-8"?>
<svg id="e" data-name="ICONS" xmlns="http://www.w3.org/2000/svg" width="20" height="20" viewBox="0 0 20 20">
  <path d="M10.4231,7.11914l-3.53589-1.90039c-.66626-.35815-1.47339.12451-1.47339.88086v3.80078c0,.75635.80713,1.23877,1.47339.88086l3.53589-1.90039c.70215-.37744.70215-1.38428,0-1.76172Z" fill="var(--iconPrimary, #222)"/>
  <path d="M8.5,13.5H3.25c-.41309,0-.75-.33691-.75-.75V3.25c0-.41309.33691-.75.75-.75h9.5c.41309,0,.75.33691.75.75v3.75c0,.41406.33594.75.75.75s.75-.33594.75-.75v-3.75c0-1.24023-1.00977-2.25-2.25-2.25H3.25c-1.24023,0-2.25,1.00977-2.25,2.25v9.5c0,1.24023,1.00977,2.25,2.25,2.25h5.25c.41406,0,.75-.33594.75-.75s-.33594-.75-.75-.75Z" fill="var(--iconPrimary, #222)"/>
  <path d="M12.91602,11.20898v1.69629c0,1.21875.99121,2.20996,2.20898,2.20996s2.20898-.99121,2.20898-2.20996v-1.69629c0-1.21777-.99121-2.20898-2.20898-2.20898s-2.20898.99121-2.20898,2.20898ZM14.41602,11.20898c0-.39062.31836-.70898.70898-.70898s.70898.31836.70898.70898v1.69629c0,.3916-.31836.70996-.70898.70996s-.70898-.31836-.70898-.70996v-1.69629Z" fill="var(--iconPrimary, #222)"/>
  <path d="M19.69824,13.61426c.06348-.40918-.21777-.79297-.62695-.85547-.41211-.06152-.79297.21777-.85547.62695-.2373,1.54297-1.53711,2.66211-3.09082,2.66211s-2.85352-1.11914-3.09082-2.66211c-.0625-.40918-.43945-.68652-.85547-.62695-.40918.0625-.69043.44629-.62695.85547.31152,2.02563,1.86768,3.55029,3.82324,3.86621v.51953h-.38477c-.41406,0-.75.33594-.75.75s.33594.75.75.75h2.26953c.41406,0,.75-.33594.75-.75s-.33594-.75-.75-.75h-.38477v-.51953c1.95557-.31592,3.51172-1.84058,3.82324-3.86621Z" fill="var(--iconPrimary, #222)"/>
</svg>