<?xml version="1.0" encoding="UTF-8"?>
<svg id="e" data-name="ICONS" xmlns="http://www.w3.org/2000/svg" width="20" height="20" viewBox="0 0 20 20">
  <path d="M6.88715,5.21875c-.6662-.35815-1.47339.12451-1.47339.88086v3.80078c0,.75635.80719,1.23877,1.47339.88086l3.53601-1.90039c.70209-.37744.70209-1.38428,0-1.76172l-3.53601-1.90039Z" fill="var(--iconPrimary, #222)"/>
  <path d="M7.5,13.5H3.25c-.41357,0-.75-.33691-.75-.75V3.25c0-.41309.33643-.75.75-.75h9.5c.41357,0,.75.33691.75.75v6c0,.41406.33594.75.75.75s.75-.33594.75-.75V3.25c0-1.24023-1.00928-2.25-2.25-2.25H3.25c-1.24072,0-2.25,1.00977-2.25,2.25v9.5c0,1.24023,1.00928,2.25,2.25,2.25h4.25c.41406,0,.75-.33594.75-.75s-.33594-.75-.75-.75Z" fill="var(--iconPrimary, #222)"/>
  <path d="M17.53766,15.28857c-.01886-.00391-.03387-.01562-.05328-.01807-.53241-.07031-1.06458-.24463-1.5033-.43823l.04041-.02173c.14062-.0752.28906-.13086.51953-.20801.32227-.1084.79871-.27222,1.08679-.3103.01599-.00195.02667-.01123.04205-.01416,1.0304-.13989,1.83014-1.01562,1.83014-2.08374,0-1.16504-.94824-2.11328-2.11328-2.11328s-2.11279.94824-2.11279,2.11328c0,.42993.13062.82935.35211,1.16333-.10455.0437-.21301.0769-.31451.13159l-.83258.44873-4.27289-2.10498c-.37305-.18555-.82129-.03027-1.00391.3418-.18262.37109-.03027.82129.3418,1.00391l4.29297,2.11523c.18164.08887.3623.22363.55273.36523.27704.20679.69873.43799,1.1958.63867-.1936.31885-.31152.68921-.31152,1.08887,0,1.16504.94775,2.11328,2.11279,2.11328s2.11328-.94824,2.11328-2.11328c0-1.11328-.86877-2.01904-1.96234-2.09814ZM17.38672,11.33105c.47607,0,.86328.3877.86328.86328s-.38721.8623-.86328.8623c-.47559,0-.86279-.38672-.86279-.8623s.38721-.86328.86279-.86328ZM17.38672,18.25c-.47559,0-.86279-.3877-.86279-.86328s.38721-.86328.86279-.86328c.47607,0,.86328.3877.86328.86328s-.38721.86328-.86328.86328Z" fill="var(--iconPrimary, #222)"/>
  <path d="M11.44482,15.45605l-1.9043.94824c-.37061.18457-.52148.63477-.33691,1.00488.13135.26367.39648.41602.67188.41602.1123,0,.22656-.02539.33398-.0791l1.9043-.94824c.37061-.18457.52148-.63477.33691-1.00488-.18506-.37109-.63477-.52246-1.00586-.33691Z" fill="var(--iconPrimary, #222)"/>
</svg>