<?xml version="1.0" encoding="UTF-8"?>
<svg id="e" data-name="ICONS" xmlns="http://www.w3.org/2000/svg" width="20" height="20" viewBox="0 0 20 20">
  <path d="M6.63721,5.12476c-.66626-.35815-1.47339.12451-1.47339.88086v3.80078c0,.75635.80713,1.23901,1.47339.88086l3.53589-1.90039c.70215-.3772.70215-1.38428,0-1.76172l-3.53589-1.90039Z" fill="var(--iconPrimary, #222)"/>
  <path d="M8.75,13.5H3.25c-.41309,0-.75-.33691-.75-.75V3.25c0-.41309.33691-.75.75-.75h9.5c.41309,0,.75.33691.75.75v5.5c0,.41406.33594.75.75.75s.75-.33594.75-.75V3.25c0-1.24023-1.00977-2.25-2.25-2.25H3.25c-1.24023,0-2.25,1.00977-2.25,2.25v9.5c0,1.24023,1.00977,2.25,2.25,2.25h5.5c.41406,0,.75-.33594.75-.75s-.33594-.75-.75-.75Z" fill="var(--iconPrimary, #222)"/>
  <path d="M18.46777,16.40625h-6.25v-6.25c0-.41406-.33594-.75-.75-.75s-.75.33594-.75.75v.75h-.75c-.41406,0-.75.33594-.75.75s.33594.75.75.75h.75v4c0,.79883.70117,1.5,1.5,1.5h4v.75c0,.41406.33594.75.75.75s.75-.33594.75-.75v-.75h.75c.41406,0,.75-.33594.75-.75s-.33594-.75-.75-.75Z" fill="var(--iconPrimary, #222)"/>
  <path d="M13.46777,11.65625c0,.41406.33594.75.75.75l2-.05273v2.05273c0,.41406.33594.75.75.75s.75-.33594.75-.75v-2.05273c0-.79785-.64941-1.44727-1.44727-1.44727h-2.05273c-.41406,0-.75.33594-.75.75Z" fill="var(--iconPrimary, #222)"/>
</svg>