<?xml version="1.0" encoding="UTF-8"?>
<svg id="e" data-name="ICONS" xmlns="http://www.w3.org/2000/svg" width="20" height="20" viewBox="0 0 20 20">
  <path d="M10.42314,7.11916l-3.53598-1.90042c-.66621-.35806-1.47342.12451-1.47342.88085v3.80083c0,.75633.80721,1.2389,1.47342.88085l3.53598-1.90042c.70212-.37736.70212-1.38433,0-1.76169Z" fill="var(--iconPrimary, #222)"/>
  <path d="M8.27637,15H3.25098c-1.24023,0-2.25-1.00977-2.25-2.25V3.25c0-1.24023,1.00977-2.25,2.25-2.25h9.5c1.24023,0,2.25,1.00977,2.25,2.25v5.05078c0,.41406-.33594.75-.75.75s-.75-.33594-.75-.75V3.25c0-.41309-.33691-.75-.75-.75H3.25098c-.41309,0-.75.33691-.75.75v9.5c0,.41309.33691.75.75.75h5.02539c.41406,0,.75.33594.75.75s-.33594.75-.75.75Z" fill="var(--iconPrimary, #222)"/>
  <path d="M15.00146,10.5c-2.48535,0-4.5,2.01465-4.5,4.5s2.01465,4.5,4.5,4.5,4.5-2.01465,4.5-4.5-2.01465-4.5-4.5-4.5ZM18.125,15.02148c0,.34473-.28027.625-.625.625h-1.87402v1.85352c0,.00171-.00098.00317-.00098.00488v.0166c0,.34473-.28027.625-.625.625s-.625-.28027-.625-.625v-1.875h-1.875c-.34473,0-.625-.28027-.625-.625,0-.00464.00244-.00854.00269-.01318,0-.00293-.00171-.00537-.00171-.0083,0-.34473.28027-.625.625-.625h1.87402v-1.85352c0-.00171.00098-.00317.00098-.00488v-.0166c0-.34473.28027-.625.625-.625s.625.28027.625.625v1.875h1.875c.34473,0,.625.28027.625.625,0,.00464-.00244.00854-.00269.01318,0,.00293.00171.00537.00171.0083Z" fill="var(--iconPrimary, #222)"/>
</svg>