<?xml version="1.0" encoding="UTF-8"?>
<svg id="e" data-name="ICONS" xmlns="http://www.w3.org/2000/svg" width="20" height="20" viewBox="0 0 20 20">
  <path d="M10.469,7.11864l-3.49665-1.8738c-.66618-.35699-1.47235.12562-1.47235.88143v3.74759c0,.7558.80617,1.23841,1.47234.88142l3.49666-1.8738c.70355-.37702.70355-1.38582,0-1.76284Z" fill="var(--iconPrimary, #222)"/>
  <path d="M7.24316,15h-3.99316c-1.24023,0-2.25-1.00977-2.25-2.25V3.25c0-1.24023,1.00977-2.25,2.25-2.25h9.5c1.24023,0,2.25,1.00977,2.25,2.25v6c0,.41406-.33594.75-.75.75s-.75-.33594-.75-.75V3.25c0-.41309-.33691-.75-.75-.75H3.25c-.41309,0-.75.33691-.75.75v9.5c0,.41309.33691.75.75.75h3.99316c.41406,0,.75.33594.75.75s-.33594.75-.75.75Z" fill="var(--iconPrimary, #222)"/>
  <path d="M12.75,19h-1.20117c-1.12988,0-2.04883-.91895-2.04883-2.04883v-3.40234c0-1.12988.91895-2.04883,2.04883-2.04883h1.20117c.41406,0,.75.33594.75.75s-.33594.75-.75.75h-1.20117c-.30273,0-.54883.24609-.54883.54883v3.40234c0,.30273.24609.54883.54883.54883h1.20117c.41406,0,.75.33594.75.75s-.33594.75-.75.75Z" fill="var(--iconPrimary, #222)"/>
  <path d="M16.95117,19h-1.20117c-.41406,0-.75-.33594-.75-.75s.33594-.75.75-.75h1.20117c.30273,0,.54883-.24609.54883-.54883v-3.40234c0-.30273-.24609-.54883-.54883-.54883h-1.20117c-.41406,0-.75-.33594-.75-.75s.33594-.75.75-.75h1.20117c1.12988,0,2.04883.91895,2.04883,2.04883v3.40234c0,1.12988-.91895,2.04883-2.04883,2.04883Z" fill="var(--iconPrimary, #222)"/>
</svg>