<?xml version="1.0" encoding="UTF-8"?>
<svg id="g" data-name="ICONS" xmlns="http://www.w3.org/2000/svg" width="20" height="20" viewBox="0 0 20 20">
  <path d="M13.75,18h-7.5c-1.24072,0-2.25-1.00977-2.25-2.25V4.25c0-1.24023,1.00928-2.25,2.25-2.25h7.5c1.24072,0,2.25,1.00977,2.25,2.25v11.5c0,1.24023-1.00928,2.25-2.25,2.25ZM6.25,3.5c-.41357,0-.75.33691-.75.75v11.5c0,.41309.33643.75.75.75h7.5c.41357,0,.75-.33691.75-.75V4.25c0-.41309-.33643-.75-.75-.75h-7.5Z" fill="var(--iconPrimary, #222)"/>
  <path d="M18.25,15c-.41406,0-.75-.33594-.75-.75V5.75c0-.41406.33594-.75.75-.75s.75.33594.75.75v8.5c0,.41406-.33594.75-.75.75Z" fill="var(--iconPrimary, #222)"/>
  <path d="M1.75,15c-.41406,0-.75-.33594-.75-.75V5.75c0-.41406.33594-.75.75-.75s.75.33594.75.75v8.5c0,.41406-.33594.75-.75.75Z" fill="var(--iconPrimary, #222)"/>
</svg>