<?xml version="1.0" encoding="UTF-8"?>
<svg id="e" data-name="ICONS" xmlns="http://www.w3.org/2000/svg" width="20" height="20" viewBox="0 0 20 20">
  <path d="M16,18H4c-1.10303,0-2-.89746-2-2s.89697-2,2-2h12c1.10303,0,2,.89746,2,2s-.89697,2-2,2ZM4,15.5c-.27588,0-.5.22461-.5.5s.22412.5.5.5h12c.27588,0,.5-.22461.5-.5s-.22412-.5-.5-.5H4Z" fill="var(--iconPrimary, #222)"/>
  <path d="M16,6H4c-1.10303,0-2-.89746-2-2s.89697-2,2-2h12c1.10303,0,2,.89746,2,2s-.89697,2-2,2ZM4,3.5c-.27588,0-.5.22461-.5.5s.22412.5.5.5h12c.27588,0,.5-.22461.5-.5s-.22412-.5-.5-.5H4Z" fill="var(--iconPrimary, #222)"/>
  <path d="M16,12H4c-1.10303,0-2-.89746-2-2s.89697-2,2-2h12c1.10303,0,2,.89746,2,2s-.89697,2-2,2ZM4,9.5c-.27588,0-.5.22461-.5.5s.22412.5.5.5h12c.27588,0,.5-.22461.5-.5s-.22412-.5-.5-.5H4Z" fill="var(--iconPrimary, #222)"/>
</svg>