<?xml version="1.0" encoding="UTF-8"?>
<svg   xmlns="http://www.w3.org/2000/svg" width="20" height="20" viewBox="0 0 20 20">
  <path d="m10.28526,13.09097c-.41406,0-.75-.33594-.75-.75v-3.62598l-.49414.20898c-.37793.16016-.82129-.01758-.98242-.40039-.16016-.38086.01855-.82129.40039-.98242l1.53516-.64746c.22949-.09668.49609-.07324.70605.06641.20898.13867.33496.37402.33496.625v4.75586c0,.41406-.33594.75-.75.75Z" fill="var(--iconPrimary, #222)" stroke-width="0"/>
  <path d="m1.75,8.75c-.41406,0-.75-.33594-.75-.75v-2.75c0-1.24023,1.00928-2.25,2.25-2.25h4.75c.41406,0,.75.33594.75.75s-.33594.75-.75.75H3.25c-.41357,0-.75.33691-.75.75v2.75c0,.41406-.33594.75-.75.75Z" fill="var(--iconPrimary, #222)" stroke-width="0"/>
  <path d="m18.25,8.75c-.41406,0-.75-.33594-.75-.75v-2.75c0-.41309-.33643-.75-.75-.75h-4.75c-.41406,0-.75-.33594-.75-.75s.33594-.75.75-.75h4.75c1.24072,0,2.25,1.00977,2.25,2.25v2.75c0,.41406-.33594.75-.75.75Z" fill="var(--iconPrimary, #222)" stroke-width="0"/>
  <path d="m8,17H3.25c-1.24072,0-2.25-1.00977-2.25-2.25v-2.75c0-.41406.33594-.75.75-.75s.75.33594.75.75v2.75c0,.41309.33643.75.75.75h4.75c.41406,0,.75.33594.75.75s-.33594.75-.75.75Z" fill="var(--iconPrimary, #222)" stroke-width="0"/>
  <path d="m16.75,17h-4.75c-.41406,0-.75-.33594-.75-.75s.33594-.75.75-.75h4.75c.41357,0,.75-.33691.75-.75v-2.75c0-.41406.33594-.75.75-.75s.75.33594.75.75v2.75c0,1.24023-1.00928,2.25-2.25,2.25Z" fill="var(--iconPrimary, #222)" stroke-width="0"/>
</svg>