<?xml version="1.0" encoding="UTF-8"?>
<svg   xmlns="http://www.w3.org/2000/svg" width="20" height="20" viewBox="0 0 20 20">
  <path d="M16.75,12.5h-8.5c-1.24072,0-2.25-1.00977-2.25-2.25v-.5c0-1.24023,1.00928-2.25,2.25-2.25h8.5c1.24072,0,2.25,1.00977,2.25,2.25v.5c0,1.24023-1.00928,2.25-2.25,2.25ZM8.25,9c-.41357,0-.75.33691-.75.75v.5c0,.41309.33643.75.75.75h8.5c.41357,0,.75-.33691.75-.75v-.5c0-.41309-.33643-.75-.75-.75h-8.5Z" fill="var(--iconPrimary, #222)" stroke-width="0"/>
  <path d="M12.75,6H4.25c-1.24072,0-2.25-1.00977-2.25-2.25v-.5c0-1.24023,1.00928-2.25,2.25-2.25h8.5c1.24072,0,2.25,1.00977,2.25,2.25v.5c0,1.24023-1.00928,2.25-2.25,2.25ZM4.25,2.5c-.41357,0-.75.33691-.75.75v.5c0,.41309.33643.75.75.75h8.5c.41357,0,.75-.33691.75-.75v-.5c0-.41309-.33643-.75-.75-.75H4.25Z" fill="var(--iconPrimary, #222)" stroke-width="0"/>
  <path d="M9.75,19H3.25c-1.24072,0-2.25-1.00977-2.25-2.25v-.5c0-1.24023,1.00928-2.25,2.25-2.25h6.5c1.24072,0,2.25,1.00977,2.25,2.25v.5c0,1.24023-1.00928,2.25-2.25,2.25ZM3.25,15.5c-.41357,0-.75.33691-.75.75v.5c0,.41309.33643.75.75.75h6.5c.41357,0,.75-.33691.75-.75v-.5c0-.41309-.33643-.75-.75-.75H3.25Z" fill="var(--iconPrimary, #222)" stroke-width="0"/>
</svg>