<?xml version="1.0" encoding="UTF-8"?>
<svg id="e" data-name="ICONS" xmlns="http://www.w3.org/2000/svg" width="20" height="20" viewBox="0 0 20 20">
  <path d="M4,18c-1.10303,0-2-.89746-2-2V4c0-1.10254.89697-2,2-2s2,.89746,2,2v12c0,1.10254-.89697,2-2,2ZM4,3.5c-.27588,0-.5.22461-.5.5v12c0,.27539.22412.5.5.5s.5-.22461.5-.5V4c0-.27539-.22412-.5-.5-.5Z" fill="var(--iconPrimary, #222)"/>
  <path d="M16,18c-1.10303,0-2-.89746-2-2V4c0-1.10254.89697-2,2-2s2,.89746,2,2v12c0,1.10254-.89697,2-2,2ZM16,3.5c-.27588,0-.5.22461-.5.5v12c0,.27539.22412.5.5.5s.5-.22461.5-.5V4c0-.27539-.22412-.5-.5-.5Z" fill="var(--iconPrimary, #222)"/>
  <path d="M10,18c-1.10303,0-2-.89746-2-2V4c0-1.10254.89697-2,2-2s2,.89746,2,2v12c0,1.10254-.89697,2-2,2ZM10,3.5c-.27588,0-.5.22461-.5.5v12c0,.27539.22412.5.5.5s.5-.22461.5-.5V4c0-.27539-.22412-.5-.5-.5Z" fill="var(--iconPrimary, #222)"/>
</svg>