<?xml version="1.0" encoding="UTF-8"?>
<svg id="e" data-name="ICONS" xmlns="http://www.w3.org/2000/svg" width="20" height="20" viewBox="0 0 20 20">
  <path d="M15.75,9.5H4.25c-1.24023,0-2.25-1.00977-2.25-2.25v-3c0-1.24023,1.00977-2.25,2.25-2.25h11.5c1.24023,0,2.25,1.00977,2.25,2.25v3c0,1.24023-1.00977,2.25-2.25,2.25ZM4.25,3.5c-.41309,0-.75.33691-.75.75v3c0,.41309.33691.75.75.75h11.5c.41309,0,.75-.33691.75-.75v-3c0-.41309-.33691-.75-.75-.75H4.25Z" fill="var(--iconPrimary, #222)"/>
  <path d="M15.75,18H4.25c-1.24023,0-2.25-1.00977-2.25-2.25v-3c0-1.24023,1.00977-2.25,2.25-2.25h11.5c1.24023,0,2.25,1.00977,2.25,2.25v3c0,1.24023-1.00977,2.25-2.25,2.25ZM4.25,12c-.41309,0-.75.33691-.75.75v3c0,.41309.33691.75.75.75h11.5c.41309,0,.75-.33691.75-.75v-3c0-.41309-.33691-.75-.75-.75H4.25Z" fill="var(--iconPrimary, #222)"/>
</svg>