<?xml version="1.0" encoding="UTF-8"?>
<svg   xmlns="http://www.w3.org/2000/svg" width="20" height="20" viewBox="0 0 20 20">
  <path d="M1.75,8.25c-.41406,0-.75-.33594-.75-.75v-2.75c0-1.24023,1.00928-2.25,2.25-2.25h4.75c.41406,0,.75.33594.75.75s-.33594.75-.75.75H3.25c-.41357,0-.75.33691-.75.75v2.75c0,.41406-.33594.75-.75.75Z" fill="var(--iconPrimary, #222)"/>
  <path d="M18.25,8.25c-.41406,0-.75-.33594-.75-.75v-2.75c0-.41309-.33643-.75-.75-.75h-4.75c-.41406,0-.75-.33594-.75-.75s.33594-.75.75-.75h4.75c1.24072,0,2.25,1.00977,2.25,2.25v2.75c0,.41406-.33594.75-.75.75Z" fill="var(--iconPrimary, #222)"/>
  <path d="M8,16.5H3.25c-1.24072,0-2.25-1.00977-2.25-2.25v-2.75c0-.41406.33594-.75.75-.75s.75.33594.75.75v2.75c0,.41309.33643.75.75.75h4.75c.41406,0,.75.33594.75.75s-.33594.75-.75.75Z" fill="var(--iconPrimary, #222)"/>
  <path d="M18.75,18.5h-7.95264c-.41406,0-.75-.33594-.75-.75s.33594-.75.75-.75h7.95264c.41406,0,.75.33594.75.75s-.33594.75-.75.75Z" fill="var(--iconPrimary, #222)"/>
  <path d="M15.03857,10.25c-1.91309,0-3.53516,1.25781-4.16791,3.0105l-.08356-.14038c-.17725-.29688-.56055-.39551-.85693-.21777-.29639.17676-.39355.56055-.21729.85645l.98877,1.66113c.08643.14551.22754.24902.3916.28809.04834.01172.09717.01758.14551.01758.11719,0,.2334-.0332.33447-.09668l1.69629-1.07422c.2915-.18457.37842-.57129.19336-.8623-.18311-.29102-.56934-.37695-.8623-.19434l-.30121.19067c.44214-1.13525,1.50177-1.93872,2.7392-1.93872,1.63281,0,2.96143,1.39648,2.96143,3.1123,0,.41406.33594.75.75.75s.75-.33594.75-.75c0-2.54297-2.00146-4.6123-4.46143-4.6123h0Z" fill="var(--iconPrimary, #222)"/>
</svg>