<?xml version="1.0" encoding="UTF-8"?>
<svg xmlns="http://www.w3.org/2000/svg" width="20" height="20" viewBox="0 0 20 20">
  <path d="M15.75,18h-2.5c-1.24072,0-2.25-1.00928-2.25-2.25v-2.5c0-1.24072,1.00928-2.25,2.25-2.25h2.5c1.24072,0,2.25,1.00928,2.25,2.25v2.5c0,1.24072-1.00928,2.25-2.25,2.25ZM13.25,12.5c-.41357,0-.75.33643-.75.75v2.5c0,.41357.33643.75.75.75h2.5c.41357,0,.75-.33643.75-.75v-2.5c0-.41357-.33643-.75-.75-.75h-2.5Z" fill="var(--iconPrimary, #222)"/>
  <path d="M15.75,9h-2.5c-1.24072,0-2.25-1.00928-2.25-2.25v-2.5c0-1.24072,1.00928-2.25,2.25-2.25h2.5c1.24072,0,2.25,1.00928,2.25,2.25v2.5c0,1.24072-1.00928,2.25-2.25,2.25ZM13.25,3.5c-.41357,0-.75.33643-.75.75v2.5c0,.41357.33643.75.75.75h2.5c.41357,0,.75-.33643.75-.75v-2.5c0-.41357-.33643-.75-.75-.75h-2.5Z" fill="var(--iconPrimary, #222)"/>
  <path d="M8.25,4.5H2.75c-.41406,0-.75-.33594-.75-.75s.33594-.75.75-.75h5.5c.41406,0,.75.33594.75.75s-.33594.75-.75.75Z" fill="var(--iconPrimary, #222)"/>
  <path d="M8.25,7.5H2.75c-.41406,0-.75-.33594-.75-.75s.33594-.75.75-.75h5.5c.41406,0,.75.33594.75.75s-.33594.75-.75.75Z" fill="var(--iconPrimary, #222)"/>
  <path d="M8.25,13.5H2.75c-.41406,0-.75-.33594-.75-.75s.33594-.75.75-.75h5.5c.41406,0,.75.33594.75.75s-.33594.75-.75.75Z" fill="var(--iconPrimary, #222)"/>
  <path d="M8.25,16.5H2.75c-.41406,0-.75-.33594-.75-.75s.33594-.75.75-.75h5.5c.41406,0,.75.33594.75.75s-.33594.75-.75.75Z" fill="var(--iconPrimary, #222)"/>
</svg>