<?xml version="1.0" encoding="UTF-8"?>
<svg id="e" data-name="ICONS" xmlns="http://www.w3.org/2000/svg" width="20" height="20" viewBox="0 0 20 20">
  <path d="M18,4.75v-.5c0-1.24072-1.00928-2.25-2.25-2.25h-2.5c-1.24072,0-2.25,1.00928-2.25,2.25v.5c0,1.24072,1.00928,2.25,2.25,2.25h2.5c1.24072,0,2.25-1.00928,2.25-2.25ZM12.5,4.25c0-.41357.33643-.75.75-.75h2.5c.41357,0,.75.33643.75.75v.5c0,.41357-.33643.75-.75.75h-2.5c-.41357,0-.75-.33643-.75-.75v-.5Z" fill="var(--iconPrimary, #222)"/>
  <path d="M9,8.75v-4.5c0-1.24072-1.00928-2.25-2.25-2.25h-2.5c-1.24072,0-2.25,1.00928-2.25,2.25v4.5c0,1.24072,1.00928,2.25,2.25,2.25h2.5c1.24072,0,2.25-1.00928,2.25-2.25ZM3.5,4.25c0-.41357.33643-.75.75-.75h2.5c.41357,0,.75.33643.75.75v4.5c0,.41357-.33643.75-.75.75h-2.5c-.41357,0-.75-.33643-.75-.75v-4.5Z" fill="var(--iconPrimary, #222)"/>
  <path d="M18,15.75v-4.5c0-1.24072-1.00928-2.25-2.25-2.25h-2.5c-1.24072,0-2.25,1.00928-2.25,2.25v4.5c0,1.24072,1.00928,2.25,2.25,2.25h2.5c1.24072,0,2.25-1.00928,2.25-2.25ZM12.5,11.25c0-.41357.33643-.75.75-.75h2.5c.41357,0,.75.33643.75.75v4.5c0,.41357-.33643.75-.75.75h-2.5c-.41357,0-.75-.33643-.75-.75v-4.5Z" fill="var(--iconPrimary, #222)"/>
  <path d="M9,15.75v-.5c0-1.24072-1.00928-2.25-2.25-2.25h-2.5c-1.24072,0-2.25,1.00928-2.25,2.25v.5c0,1.24072,1.00928,2.25,2.25,2.25h2.5c1.24072,0,2.25-1.00928,2.25-2.25ZM3.5,15.25c0-.41357.33643-.75.75-.75h2.5c.41357,0,.75.33643.75.75v.5c0,.41357-.33643.75-.75.75h-2.5c-.41357,0-.75-.33643-.75-.75v-.5Z" fill="var(--iconPrimary, #222)"/>
</svg>