<?xml version="1.0" encoding="UTF-8"?>
<svg   xmlns="http://www.w3.org/2000/svg" width="20" height="20" viewBox="0 0 20 20">
  <path d="M1.75,8.75c-.41406,0-.75-.33594-.75-.75v-2.75c0-1.24023,1.00928-2.25,2.25-2.25h4.75c.41406,0,.75.33594.75.75s-.33594.75-.75.75H3.25c-.41357,0-.75.33691-.75.75v2.75c0,.41406-.33594.75-.75.75Z" fill="var(--iconPrimary, #222)"/>
  <path d="M18.25,8.75c-.41406,0-.75-.33594-.75-.75v-2.75c0-.41309-.33643-.75-.75-.75h-4.75c-.41406,0-.75-.33594-.75-.75s.33594-.75.75-.75h4.75c1.24072,0,2.25,1.00977,2.25,2.25v2.75c0,.41406-.33594.75-.75.75Z" fill="var(--iconPrimary, #222)"/>
  <path d="M7.25,17H3.25c-1.24072,0-2.25-1.00977-2.25-2.25v-2.75c0-.41406.33594-.75.75-.75s.75.33594.75.75v2.75c0,.41309.33643.75.75.75h4c.41406,0,.75.33594.75.75s-.33594.75-.75.75Z" fill="var(--iconPrimary, #222)"/>
  <path d="M18.87317,10.94165h.00006c-.40137-.10291-.80975.13892-.91254.54028l-.16272.63501c-.84821-1.07385-2.12152-1.70581-3.49719-1.70581-1.53809,0-2.95166.78516-3.78125,2.09961-.22119.35059-.11621.81348.23389,1.03516.12451.07812.2627.11523.3999.11523.24854,0,.49219-.12402.63477-.34961.55322-.87695,1.49268-1.40039,2.5127-1.40039.83215,0,1.59827.36218,2.15747.96667l-.59668-.15295c-.40137-.10278-.80975.13904-.9126.54041-.10278.40137.13904.80969.54034.91248l2.39746.61426c.20068.05139.40314.0166.56824-.08105.16516-.0979.29291-.25854.34436-.45923l.6142-2.39746c.10278-.40137-.13904-.80981-.54041-.9126Z" fill="var(--iconPrimary, #222)"/>
  <path d="M17.84863,16.27246c-.3501-.22266-.81348-.11621-1.03467.2334-.55371.87695-1.49316,1.40039-2.51318,1.40039-.83221,0-1.59833-.3623-2.15729-.9668l.59668.15283c.40137.10291.80975-.13892.9126-.54028.10278-.40137-.13904-.80981-.54034-.9126l-2.39746-.61414c-.20068-.05139-.40314-.01672-.56824.08118-.16516.09766-.29297.25854-.34436.45923l-.6142,2.39746c-.10278.40137.13904.80969.54041.91248l-.00006.00012c.40137.10278.80975-.13916.91254-.54041l.16272-.63501c.84766,1.07385,2.12079,1.70593,3.49701,1.70593,1.5376,0,2.95166-.78516,3.78174-2.09961.22119-.35059.11621-.81348-.23389-1.03418Z" fill="var(--iconPrimary, #222)"/>
</svg>