<?xml version="1.0" encoding="UTF-8"?>
<svg   xmlns="http://www.w3.org/2000/svg" width="20" height="20" viewBox="0 0 20 20">
  <path d="m1.75,8.75c-.41406,0-.75-.33594-.75-.75v-2.75c0-1.24023,1.00928-2.25,2.25-2.25h4.75c.41406,0,.75.33594.75.75s-.33594.75-.75.75H3.25c-.41357,0-.75.33691-.75.75v2.75c0,.41406-.33594.75-.75.75Z" fill="var(--iconPrimary, #222)" stroke-width="0"/>
  <path d="m18.25,8.75c-.41406,0-.75-.33594-.75-.75v-2.75c0-.41309-.33643-.75-.75-.75h-4.75c-.41406,0-.75-.33594-.75-.75s.33594-.75.75-.75h4.75c1.24072,0,2.25,1.00977,2.25,2.25v2.75c0,.41406-.33594.75-.75.75Z" fill="var(--iconPrimary, #222)" stroke-width="0"/>
  <path d="m8,17H3.25c-1.24072,0-2.25-1.00977-2.25-2.25v-2.75c0-.41406.33594-.75.75-.75s.75.33594.75.75v2.75c0,.41309.33643.75.75.75h4.75c.41406,0,.75.33594.75.75s-.33594.75-.75.75Z" fill="var(--iconPrimary, #222)" stroke-width="0"/>
  <path d="m15,10.5c-2.48529,0-4.5,2.01465-4.5,4.5s2.01471,4.5,4.5,4.5,4.5-2.01465,4.5-4.5-2.01471-4.5-4.5-4.5Zm2.5,5.125h-1.875v1.875c0,.34521-.27979.625-.625.625s-.625-.27979-.625-.625v-1.875h-1.875c-.34521,0-.625-.27979-.625-.625s.27979-.625.625-.625h1.875v-1.875c0-.34521.27979-.625.625-.625s.625.27979.625.625v1.875h1.875c.34521,0,.625.27979.625.625s-.27979.625-.625.625Z" fill="var(--iconPrimary, #222)" stroke-width="0"/>
</svg>