<?xml version="1.0" encoding="UTF-8"?>
<svg id="e" data-name="ICONS" xmlns="http://www.w3.org/2000/svg" width="20" height="20" viewBox="0 0 20 20">
  <path d="M4.98828,12.53711L14.1416,3.38379c.68457-.68262,1.75488-.7832,2.43945-.22461.3916.32129.62109.77344.64648,1.27344.02441.49316-.16211.97656-.51074,1.3252l-2.4248,2.4248c-.29297.29297-.29297.76758,0,1.06055s.76758.29297,1.06055,0l2.4248-2.4248c.64844-.64746.99414-1.54395.94824-2.45996s-.48145-1.77539-1.19531-2.35938c-1.27051-1.04199-3.22559-.90039-4.44922.32422L3.10547,12.29883c-.31934.31738-.55762.71582-.68945,1.15039l-1.38379,4.58398c-.08008.26465-.00781.55176.1875.74707.14258.14258.33398.21973.53027.21973.07227,0,.14551-.01074.2168-.03223l4.58496-1.38379c.43359-.13184.83203-.37012,1.14844-.68848l.29785-.29785c.14062-.14062.21973-.33203.21973-.53125,0-.19824-.0791-.38965-.2207-.53027l-3.00879-2.99902ZM6.11719,16.14844l-3.24512.97949.97949-3.24414c.02637-.08887.06348-.17383.1084-.25391l2.41504,2.40723c-.08105.0459-.16797.08398-.25781.11133Z" fill="var(--iconPrimary, #222)"/>
  <path d="M14.49121,10.96387c-.76465.00879-1.53027.19629-2.21484.54004-1.43262.7041-3.02637,2.28809-3.02637,3.43848,0,1.38574,2.60254,3.77441,5.26758,3.77441,2.64648,0,5.23242-2.38867,5.23242-3.77441,0-1.30957-2.42969-3.97852-5.25879-3.97852ZM14.51758,17.2168c-1.93359,0-3.67578-1.75977-3.76855-2.26172.04199-.32617.93652-1.49023,2.19141-2.10547.00293-.00195.00488-.00293.00781-.00391.48242-.24316,1.02246-.37598,1.55176-.38184,2.04883,0,3.66992,2.00293,3.75098,2.45605-.09082.53809-1.81348,2.29688-3.7334,2.29688Z" fill="var(--iconPrimary, #222)"/>
  <path d="M15.57471,14.84851c-.24609.10229-.47363.05884-.57129.03064-.26172-.07544-.47461-.27063-.57227-.52478-.07666-.19995-.07471-.40967-.00952-.59631.10229-.29224-.21704-.57764-.50464-.4635-.21729.08606-.41895.2207-.58862.40417-.68433.74048-.55396,1.94373.3479,2.50659.55078.34375,1.28369.31567,1.80762-.06763.30664-.22424.50635-.521.60425-.84131.09595-.31396-.21021-.57373-.51343-.44788Z" fill="var(--iconPrimary, #222)"/>
</svg>