<?xml version="1.0" encoding="UTF-8"?>
<svg xmlns="http://www.w3.org/2000/svg" width="20" height="20" viewBox="0 0 20 20">
  <path d="M3.75,9h-1.5c-1.24023,0-2.25-1.00928-2.25-2.25v-1.5c0-1.24072,1.00977-2.25,2.25-2.25h1.5c1.24023,0,2.25,1.00928,2.25,2.25v1.5c0,1.24072-1.00977,2.25-2.25,2.25ZM2.25,4.5c-.41309,0-.75.33643-.75.75v1.5c0,.41357.33691.75.75.75h1.5c.41309,0,.75-.33643.75-.75v-1.5c0-.41357-.33691-.75-.75-.75h-1.5Z" fill="var(--iconPrimary, #222)"/>
  <path d="M10.75,9h-1.5c-1.24023,0-2.25-1.00928-2.25-2.25v-1.5c0-1.24072,1.00977-2.25,2.25-2.25h1.5c1.24023,0,2.25,1.00928,2.25,2.25v1.5c0,1.24072-1.00977,2.25-2.25,2.25ZM9.25,4.5c-.41309,0-.75.33643-.75.75v1.5c0,.41357.33691.75.75.75h1.5c.41309,0,.75-.33643.75-.75v-1.5c0-.41357-.33691-.75-.75-.75h-1.5Z" fill="var(--iconPrimary, #222)"/>
  <path d="M17.75,9h-1.5c-1.24023,0-2.25-1.00928-2.25-2.25v-1.5c0-1.24072,1.00977-2.25,2.25-2.25h1.5c1.24023,0,2.25,1.00928,2.25,2.25v1.5c0,1.24072-1.00977,2.25-2.25,2.25ZM16.25,4.5c-.41309,0-.75.33643-.75.75v1.5c0,.41357.33691.75.75.75h1.5c.41309,0,.75-.33643.75-.75v-1.5c0-.41357-.33691-.75-.75-.75h-1.5Z" fill="var(--iconPrimary, #222)"/>
  <path d="M3.75,17h-1.5c-1.24023,0-2.25-1.00928-2.25-2.25v-1.5c0-1.24072,1.00977-2.25,2.25-2.25h1.5c1.24023,0,2.25,1.00928,2.25,2.25v1.5c0,1.24072-1.00977,2.25-2.25,2.25ZM2.25,12.5c-.41309,0-.75.33643-.75.75v1.5c0,.41357.33691.75.75.75h1.5c.41309,0,.75-.33643.75-.75v-1.5c0-.41357-.33691-.75-.75-.75h-1.5Z" fill="var(--iconPrimary, #222)"/>
  <path d="M10.75,17h-1.5c-1.24023,0-2.25-1.00928-2.25-2.25v-1.5c0-1.24072,1.00977-2.25,2.25-2.25h1.5c1.24023,0,2.25,1.00928,2.25,2.25v1.5c0,1.24072-1.00977,2.25-2.25,2.25ZM9.25,12.5c-.41309,0-.75.33643-.75.75v1.5c0,.41357.33691.75.75.75h1.5c.41309,0,.75-.33643.75-.75v-1.5c0-.41357-.33691-.75-.75-.75h-1.5Z" fill="var(--iconPrimary, #222)"/>
  <path d="M17.75,17h-1.5c-1.24023,0-2.25-1.00928-2.25-2.25v-1.5c0-1.24072,1.00977-2.25,2.25-2.25h1.5c1.24023,0,2.25,1.00928,2.25,2.25v1.5c0,1.24072-1.00977,2.25-2.25,2.25ZM16.25,12.5c-.41309,0-.75.33643-.75.75v1.5c0,.41357.33691.75.75.75h1.5c.41309,0,.75-.33643.75-.75v-1.5c0-.41357-.33691-.75-.75-.75h-1.5Z" fill="var(--iconPrimary, #222)"/>
</svg>