<?xml version="1.0" encoding="UTF-8"?>
<svg xmlns="http://www.w3.org/2000/svg" width="20" height="20" viewBox="0 0 20 20">
  <path d="M6,16.9375h-2.75c-1.24072,0-2.25-1.00977-2.25-2.25V5.3125c0-1.24023,1.00928-2.25,2.25-2.25h2.75c.41406,0,.75.33594.75.75s-.33594.75-.75.75h-2.75c-.41357,0-.75.33691-.75.75v9.375c0,.41309.33643.75.75.75h2.75c.41406,0,.75.33594.75.75s-.33594.75-.75.75Z" fill="var(--iconPrimary, #222)"/>
  <path d="M19,16.47852h-.51843c-.30444-.80127-1.07458-1.375-1.98157-1.375s-1.67706.57373-1.98151,1.375h-4.76849v-3h1.76849c.30444.80127,1.07452,1.375,1.98151,1.375s1.67706-.57373,1.98151-1.375h3.51849c.41406,0,.75-.33594.75-.75s-.33594-.75-.75-.75h-3.51843c-.30444-.80127-1.07458-1.375-1.98157-1.375s-1.67706.57373-1.98151,1.375h-1.76849V1.5c0-.41406-.33594-.75-.75-.75s-.75.33594-.75.75v17c0,.41406.33594.75.75.75s.75-.33594.75-.75v-.52148h4.76849c.30444.80127,1.07452,1.375,1.98151,1.375s1.67706-.57373,1.98151-1.375h.51849c.41406,0,.75-.33594.75-.75s-.33594-.75-.75-.75ZM13.5,11.85352c.48242,0,.875.39258.875.875s-.39258.875-.875.875-.875-.39258-.875-.875.39258-.875.875-.875ZM16.5,18.10352c-.48242,0-.875-.39258-.875-.875s.39258-.875.875-.875.875.39258.875.875-.39258.875-.875.875Z" fill="var(--iconPrimary, #222)"/>
  <path d="M13.5,9.40356c.86989,0,1.66934.3422,2.26106.89206,0-.07871.00004-6.48312.00004-6.48312h-4.5051l.00004,6.47827c.59259-.5459,1.37659-.88721,2.24396-.88721Z" fill="#222" opacity=".3"/>
  <path d="M16.25,10.47656c-.41406,0-.75-.33594-.75-.75v-4.41406c0-.41309-.33643-.75-.75-.75h-2.75c-.41406,0-.75-.33594-.75-.75s.33594-.75.75-.75h2.75c1.24072,0,2.25,1.00977,2.25,2.25v4.41406c0,.41406-.33594.75-.75.75Z" fill="var(--iconPrimary, #222)"/>
</svg>