<?xml version="1.0" encoding="UTF-8"?>
<svg xmlns="http://www.w3.org/2000/svg" width="20" height="20" viewBox="0 0 20 20">
  <path d="M14.51807,18.7168c-2.66504,0-5.26807-2.38867-5.26807-3.77441,0-1.15039,1.59424-2.73438,3.02637-3.43848.68408-.34375,1.44971-.53125,2.21484-.54004,2.82861,0,5.25879,2.66895,5.25879,3.97852,0,1.38574-2.58545,3.77441-5.23193,3.77441ZM14.5,12.46387c-.53027.00684-1.06982.13867-1.55176.38184-.00244.00098-.00537.00195-.00781.00391-1.25537.61523-2.14941,1.7793-2.19092,2.10547.09229.50195,1.83447,2.26172,3.76855,2.26172,1.91992,0,3.64258-1.75879,3.7334-2.29688-.08154-.45312-1.70264-2.45605-3.75146-2.45605ZM12.61035,12.17578h.00977-.00977Z" fill="var(--iconPrimary, #222)"/>
  <path d="M14.43128,14.3544c.09764.2541.31041.44941.57222.52485.09767.02814.32507.07156.57125-.03069.3032-.12594.60919.13381.51337.44783-.09774.32033-.29755.61706-.60424.84139-.52399.38327-1.25696.41124-1.8077.06751-.90174-.56279-1.03211-1.76606-.34774-2.50647.16964-.18353.37133-.31817.58846-.40424.28782-.11409.60689.17131.50468.46356-.06525.18656-.06712.39632.00971.59627Z" fill="var(--iconPrimary, #222)"/>
  <path d="M18.375,3.75c0-1.17188-.95312-2.125-2.125-2.125-.90698,0-1.677.57373-1.98145,1.375H5.73157c-.30444-.80127-1.07458-1.375-1.98157-1.375-1.17188,0-2.125.95312-2.125,2.125,0,.90698.57361,1.677,1.375,1.98145v7.53711c-.80139.30444-1.375,1.07446-1.375,1.98145,0,1.17188.95312,2.125,2.125,2.125.90698,0,1.677-.57373,1.98145-1.375h1.4541c.41406,0,.75-.33594.75-.75s-.33594-.75-.75-.75h-1.45398c-.21545-.56738-.66418-1.01611-1.23157-1.23145v-7.53711c.56738-.21533,1.01599-.66406,1.23145-1.23145h8.53711c.21545.56738.66406,1.01611,1.23145,1.23145v3.26367c0,.41406.33594.75.75.75s.75-.33594.75-.75v-3.26367c.80139-.30444,1.375-1.07446,1.375-1.98145ZM3.75,16.125c-.48242,0-.875-.39258-.875-.875s.39258-.875.875-.875.875.39258.875.875-.39258.875-.875.875ZM3.75,4.625c-.48242,0-.875-.39258-.875-.875s.39258-.875.875-.875.875.39258.875.875-.39258.875-.875.875ZM16.25,4.625c-.48242,0-.875-.39258-.875-.875s.39258-.875.875-.875.875.39258.875.875-.39258.875-.875.875Z" fill="var(--iconPrimary, #222)"/>
</svg>