<?xml version="1.0" encoding="UTF-8"?>
<svg   xmlns="http://www.w3.org/2000/svg" width="20" height="20" viewBox="0 0 20 20">
  <path d="M3.5,4.84082v11.21582c0,.12402.07715.1875.12305.21484.0459.02832.13965.06152.24805.00391l1.62891-.89893V3.58887l-1.87109,1.03223c-.0791.04395-.12891.12793-.12891.21973Z" fill="var(--iconPrimary, #222)" opacity=".2" stroke-width="0"/>
  <path d="M10.75,4.67773v11.80237l2.0293-1.11975c.07068-.03906.14673-.05933.2207-.08801V3.45093l-2.1543,1.18872c-.03064.01697-.06445.02319-.0957.03809Z" fill="var(--iconPrimary, #222)" opacity=".2" stroke-width="0"/>
  <path d="M17.0957,3.30859l-2.625-1.44824c-.5293-.29297-1.16211-.29297-1.69141,0l-2.6582,1.4668c-.07617.04102-.16602.04102-.24219,0l-2.6582-1.4668c-.5293-.29297-1.16211-.29297-1.69141,0l-2.625,1.44824c-.55762.30762-.9043.89453-.9043,1.53223v11.21582c0,.625.32129,1.18848.86035,1.50684.53906.31738,1.1875.32715,1.73535.02441l1.6582-.91504c.07617-.04102.16602-.04102.24219,0l2.6582,1.4668c.26465.14648.55566.21973.8457.21973s.58105-.07324.8457-.21973l2.6582-1.4668c.07617-.04102.16602-.04102.24219,0l1.6582.91504c.54785.30273,1.19629.29297,1.73535-.02441.53906-.31836.86035-.88184.86035-1.50684V4.84082c0-.6377-.34668-1.22461-.9043-1.53223ZM5.5,15.37646l-1.62891.89893c-.1084.05762-.20215.02441-.24805-.00391-.0459-.02734-.12305-.09082-.12305-.21484V4.84082c0-.0918.0498-.17578.12891-.21973l1.87109-1.03223v11.7876ZM9.25,16.4801l-2.0293-1.11975c-.07068-.03906-.14673-.05933-.2207-.08801V3.45093l2.1543,1.18872c.03064.01697.06445.02319.0957.03809v11.80237ZM10.75,4.67773c.03125-.01489.06506-.02112.0957-.03809l2.1543-1.18872v11.82141c-.07397.02869-.15002.04895-.2207.08801l-2.0293,1.11975V4.67773ZM16.5,16.05664c0,.12402-.07715.1875-.12305.21484-.0459.02832-.13965.06152-.24805.00391l-1.62891-.89893V3.58887l1.87109,1.03223c.0791.04395.12891.12793.12891.21973v11.21582Z" fill="var(--iconPrimary, #222)" stroke-width="0"/>
</svg>