<?xml version="1.0" encoding="UTF-8"?>
<svg   xmlns="http://www.w3.org/2000/svg" width="20" height="20" viewBox="0 0 20 20">
  <path d="m1.75,8.75c-.41406,0-.75-.33594-.75-.75v-2.75c0-1.24023,1.00928-2.25,2.25-2.25h4.75c.41406,0,.75.33594.75.75s-.33594.75-.75.75H3.25c-.41357,0-.75.33691-.75.75v2.75c0,.41406-.33594.75-.75.75Z" fill="var(--iconPrimary, #222)" stroke-width="0"/>
  <path d="m18.25,8.75c-.41406,0-.75-.33594-.75-.75v-2.75c0-.41309-.33643-.75-.75-.75h-4.75c-.41406,0-.75-.33594-.75-.75s.33594-.75.75-.75h4.75c1.24072,0,2.25,1.00977,2.25,2.25v2.75c0,.41406-.33594.75-.75.75Z" fill="var(--iconPrimary, #222)" stroke-width="0"/>
  <path d="m8,17H3.25c-1.24072,0-2.25-1.00977-2.25-2.25v-2.75c0-.41406.33594-.75.75-.75s.75.33594.75.75v2.75c0,.41309.33643.75.75.75h4.75c.41406,0,.75.33594.75.75s-.33594.75-.75.75Z" fill="var(--iconPrimary, #222)" stroke-width="0"/>
  <path d="m16.75,17h-4.75c-.41406,0-.75-.33594-.75-.75s.33594-.75.75-.75h4.75c.41357,0,.75-.33691.75-.75v-2.75c0-.41406.33594-.75.75-.75s.75.33594.75.75v2.75c0,1.24023-1.00928,2.25-2.25,2.25Z" fill="var(--iconPrimary, #222)" stroke-width="0"/>
  <path d="m9.72803,14.51758c-.01465,0-.0293-.00098-.04443-.00195-.5835-.04102-1.14502-.19141-1.66846-.44727-.31006-.15137-.43848-.52637-.28711-.83594.15088-.31055.52539-.43848.83594-.28711.37891.18555.78467.29395,1.20752.32422.34424.02344.60352.32227.57959.66699-.02344.3291-.29785.58105-.62305.58105Zm1.94141-.36621c-.23389,0-.4585-.13184-.56543-.35742-.14746-.31152-.01465-.68457.29736-.83203.38184-.18164.7207-.43066,1.00732-.74219.23389-.25391.62988-.26953.88281-.03613.25391.23438.27002.62988.03613.88379-.39551.42871-.86328.77344-1.39111,1.02344-.08643.04102-.17725.06055-.26709.06055Zm-4.87744-1.30762c-.19824,0-.39307-.09375-.51465-.26953-.33252-.48145-.56592-1.01367-.69336-1.58203-.07568-.33691.13623-.6709.47314-.74707.33594-.07227.67139.13672.74658.47363.09229.41113.26074.7959.50195,1.14453.19629.28418.125.67285-.15869.86914-.1084.0752-.23242.11133-.35498.11133Zm7.00439-1.31836c-.04736,0-.09619-.00488-.14453-.0166-.33594-.08008-.54346-.41602-.46436-.75195.05859-.24707.08789-.50098.0874-.75586,0-.16895-.0127-.33398-.03711-.49512-.05127-.34082.18359-.65918.5249-.71094.33936-.05859.65967.18359.71143.52539.0332.22168.05078.44922.05078.67969.00049.35156-.04004.70312-.12061,1.04395-.06836.28809-.32471.48145-.60791.48145Zm-7.53271-2.01855c-.05957,0-.11963-.00879-.17969-.02637-.33057-.09863-.51855-.44727-.41943-.77734.16699-.55957.4375-1.07422.80273-1.53027.21533-.27051.60938-.3125.87842-.09668.26953.21582.31299.6084.09717.87793-.26465.33008-.45996.70215-.58105,1.10645-.08105.27148-.32959.44629-.59814.44629Zm6.81104-1.28223c-.18604,0-.36963-.08203-.49268-.24023-.26123-.33398-.57861-.61035-.94336-.82129-.29883-.17285-.40088-.55566-.22803-.85449.17236-.2998.5542-.39941.854-.22754.50391.29199.94189.67285,1.30176,1.13379.21289.27148.16455.66504-.10742.87695-.11426.08984-.24951.13281-.38428.13281Zm-4.53613-1.2168c-.24707,0-.48096-.14746-.57959-.39062-.12939-.32031.02539-.68457.34521-.81348.53955-.21875,1.11035-.3291,1.6958-.3291.34521,0,.64844.28027.64844.625,0,.3457-.25684.62598-.60205.62598-.40381-.00684-.87012.07422-1.27344.23633-.07666.03125-.15625.0459-.23438.0459Z" fill="var(--iconPrimary, #222)" stroke-width="0"/>
</svg>