<?xml version="1.0" encoding="UTF-8"?>
<svg   xmlns="http://www.w3.org/2000/svg" width="20" height="20" viewBox="0 0 20 20">
  <path d="m1.75,8.75c-.41406,0-.75-.33594-.75-.75v-2.75c0-1.24023,1.00928-2.25,2.25-2.25h4.75c.41406,0,.75.33594.75.75s-.33594.75-.75.75H3.25c-.41357,0-.75.33691-.75.75v2.75c0,.41406-.33594.75-.75.75Z" fill="var(--iconPrimary, #222)" stroke-width="0"/>
  <path d="m18.25,8.75c-.41406,0-.75-.33594-.75-.75v-2.75c0-.41309-.33643-.75-.75-.75h-4.75c-.41406,0-.75-.33594-.75-.75s.33594-.75.75-.75h4.75c1.24072,0,2.25,1.00977,2.25,2.25v2.75c0,.41406-.33594.75-.75.75Z" fill="var(--iconPrimary, #222)" stroke-width="0"/>
  <path d="m8,17H3.25c-1.24072,0-2.25-1.00977-2.25-2.25v-2.75c0-.41406.33594-.75.75-.75s.75.33594.75.75v2.75c0,.41309.33643.75.75.75h4.75c.41406,0,.75.33594.75.75s-.33594.75-.75.75Z" fill="var(--iconPrimary, #222)" stroke-width="0"/>
  <path d="m16.75,17h-4.75c-.41406,0-.75-.33594-.75-.75s.33594-.75.75-.75h4.75c.41357,0,.75-.33691.75-.75v-2.75c0-.41406.33594-.75.75-.75s.75.33594.75.75v2.75c0,1.24023-1.00928,2.25-2.25,2.25Z" fill="var(--iconPrimary, #222)" stroke-width="0"/>
  <path d="m12.7002,13.56152c-.28369,0-.54004-.19434-.60791-.48242-.0791-.33594.12939-.67188.46533-.75098.06201-.01465.09424-.05566.11035-.08691.01465-.0293.03467-.08691.00537-.15723l-2.1748-5.22852-.34082.81934c-.13281.31836-.49658.46875-.81738.33691-.31836-.13281-.46924-.49902-.33691-.81738l.54736-1.31543c.16748-.38477.53809-.62793.94775-.62793h.00098c.40967,0,.77979.24316.94287.61914l2.38477,5.7334c.16309.39062.146.83008-.0459,1.20605-.19043.37207-.53174.63965-.9375.73535-.04834.01172-.09619.0166-.14355.0166Z" fill="var(--iconPrimary, #222)" stroke-width="0"/>
  <path d="m8.35986,14.3916c-1.58545,0-2.875-1.29004-2.875-2.875s1.28955-2.875,2.875-2.875,2.875,1.29004,2.875,2.875-1.28955,2.875-2.875,2.875Zm0-4.5c-.896,0-1.625.72852-1.625,1.625s.729,1.625,1.625,1.625,1.625-.72852,1.625-1.625-.729-1.625-1.625-1.625Z" fill="var(--iconPrimary, #222)" stroke-width="0"/>
</svg>