<?xml version="1.0" encoding="UTF-8"?>
<svg   xmlns="http://www.w3.org/2000/svg" width="20" height="20" viewBox="0 0 20 20">
  <circle cx="10" cy="10" r=".75" fill="var(--iconPrimary, #222)" stroke-width="0"/>
  <path d="M10,18.75c-4.8252,0-8.75-3.9248-8.75-8.75S5.1748,1.25,10,1.25s8.75,3.9248,8.75,8.75-3.9248,8.75-8.75,8.75ZM10,2.75c-3.99805,0-7.25,3.25195-7.25,7.25s3.25195,7.25,7.25,7.25,7.25-3.25195,7.25-7.25-3.25195-7.25-7.25-7.25Z" fill="var(--iconPrimary, #222)" stroke-width="0"/>
  <path d="M10,15.75c-3.1709,0-5.75-2.5791-5.75-5.75s2.5791-5.75,5.75-5.75,5.75,2.5791,5.75,5.75-2.5791,5.75-5.75,5.75ZM10,5.75c-2.34375,0-4.25,1.90625-4.25,4.25s1.90625,4.25,4.25,4.25,4.25-1.90625,4.25-4.25-1.90625-4.25-4.25-4.25Z" fill="var(--iconPrimary, #222)" stroke-width="0"/>
</svg>