<?xml version="1.0" encoding="UTF-8"?>
<svg   xmlns="http://www.w3.org/2000/svg" width="20" height="20" viewBox="0 0 20 20">
  <path d="M15.92297,16.46484c.27063-.06616.47571-.27124.54187-.54199-.17285.18872-.35327.36914-.54187.54199Z" fill="var(--iconPrimary, #222)" opacity=".15" stroke-width="0"/>
  <path d="M15.9231,3.53516c.18848.17285.3689.35327.54175.54175-.06628-.27051-.27124-.47534-.54175-.54175Z" fill="var(--iconPrimary, #222)" opacity=".15" stroke-width="0"/>
  <path d="M3.53516,4.0769c.17285-.18848.35327-.3689.54175-.54175-.27039.06616-.47559.27148-.54175.54175Z" fill="var(--iconPrimary, #222)" opacity=".15" stroke-width="0"/>
  <path d="M3.53503,15.92285c.06628.27075.27136.47583.54211.54199-.18872-.17285-.36926-.35327-.54211-.54199Z" fill="var(--iconPrimary, #222)" opacity=".15" stroke-width="0"/>
  <path d="M15.75,3.5h-.21619c.34729.2959.67029.6189.96619.96606v-.21606c0-.41309-.33691-.75-.75-.75Z" fill="var(--iconPrimary, #222)" opacity=".14" stroke-width="0"/>
  <path d="M4.25,16.5h.21655c-.34741-.29614-.67053-.61914-.96655-.96631v.21631c0,.41309.33691.75.75.75Z" fill="var(--iconPrimary, #222)" opacity=".14" stroke-width="0"/>
  <path d="M15.53345,16.5h.21655c.41309,0,.75-.33691.75-.75v-.21631c-.29602.34717-.61914.67041-.96655.96631Z" fill="var(--iconPrimary, #222)" opacity=".14" stroke-width="0"/>
  <path d="M3.5,4.25v.21606c.2959-.34717.6189-.67017.96619-.96606h-.21619c-.41309,0-.75.33691-.75.75Z" fill="var(--iconPrimary, #222)" opacity=".14" stroke-width="0"/>
  <path d="M4.25,16.5h.58862c-.49573-.39404-.94446-.84302-1.33862-1.33862v.58862c0,.41309.33691.75.75.75Z" fill="var(--iconPrimary, #222)" opacity=".13" stroke-width="0"/>
  <path d="M15.75,3.5h-.58838c.49561.39404.94434.84277,1.33838,1.33838v-.58838c0-.41309-.33691-.75-.75-.75Z" fill="var(--iconPrimary, #222)" opacity=".13" stroke-width="0"/>
  <path d="M15.16138,16.5h.58862c.41309,0,.75-.33691.75-.75v-.58862c-.39417.49561-.8429.94458-1.33862,1.33862Z" fill="var(--iconPrimary, #222)" opacity=".13" stroke-width="0"/>
  <path d="M3.5,4.25v.58838c.39404-.49561.84277-.94434,1.33838-1.33838h-.58838c-.41309,0-.75.33691-.75.75Z" fill="var(--iconPrimary, #222)" opacity=".13" stroke-width="0"/>
  <path d="M15.75,3.5h-.98242c.66211.48657,1.24585,1.07031,1.73242,1.73242v-.98242c0-.41309-.33691-.75-.75-.75Z" fill="var(--iconPrimary, #222)" opacity=".12" stroke-width="0"/>
  <path d="M4.25,16.5h.98254c-.66223-.48657-1.24597-1.07031-1.73254-1.73242v.98242c0,.41309.33691.75.75.75Z" fill="var(--iconPrimary, #222)" opacity=".12" stroke-width="0"/>
  <path d="M14.76746,16.5h.98254c.41309,0,.75-.33691.75-.75v-.98242c-.48657.66211-1.07031,1.24585-1.73254,1.73242Z" fill="var(--iconPrimary, #222)" opacity=".12" stroke-width="0"/>
  <path d="M3.5,4.25v.98242c.48657-.66211,1.07031-1.24585,1.73242-1.73242h-.98242c-.41309,0-.75.33691-.75.75Z" fill="var(--iconPrimary, #222)" opacity=".12" stroke-width="0"/>
  <path d="M4.25,16.5h1.37793c-.83911-.56543-1.5625-1.28882-2.12793-2.12793v1.37793c0,.41309.33691.75.75.75Z" fill="var(--iconPrimary, #222)" opacity=".11" stroke-width="0"/>
  <path d="M3.5,4.25v1.37769c.56543-.83887,1.2887-1.56226,2.12744-2.12769h-1.37744c-.41309,0-.75.33691-.75.75Z" fill="var(--iconPrimary, #222)" opacity=".11" stroke-width="0"/>
  <path d="M15.75,3.5h-1.37744c.83875.56543,1.56201,1.28882,2.12744,2.12769v-1.37769c0-.41309-.33691-.75-.75-.75Z" fill="var(--iconPrimary, #222)" opacity=".11" stroke-width="0"/>
  <path d="M14.37207,16.5h1.37793c.41309,0,.75-.33691.75-.75v-1.37793c-.56543.83911-1.28882,1.5625-2.12793,2.12793Z" fill="var(--iconPrimary, #222)" opacity=".11" stroke-width="0"/>
  <path d="M15.75,3.5h-1.83203c1.05713.63867,1.94336,1.5249,2.58203,2.58203v-1.83203c0-.41309-.33691-.75-.75-.75Z" fill="var(--iconPrimary, #222)" opacity=".1" stroke-width="0"/>
  <path d="M4.25,16.5h1.83203c-1.05688-.63867-1.94336-1.52515-2.58203-2.58203v1.83203c0,.41309.33691.75.75.75Z" fill="var(--iconPrimary, #222)" opacity=".1" stroke-width="0"/>
  <path d="M3.5,4.25v1.83203c.63867-1.05713,1.5249-1.94336,2.58203-2.58203h-1.83203c-.41309,0-.75.33691-.75.75Z" fill="var(--iconPrimary, #222)" opacity=".1" stroke-width="0"/>
  <path d="M13.91797,16.5h1.83203c.41309,0,.75-.33691.75-.75v-1.83203c-.63867,1.05688-1.52515,1.94336-2.58203,2.58203Z" fill="var(--iconPrimary, #222)" opacity=".1" stroke-width="0"/>
  <path d="M4.25,16.5h2.2981c-1.29517-.68921-2.35889-1.75293-3.0481-3.0481v2.2981c0,.41309.33691.75.75.75Z" fill="var(--iconPrimary, #222)" opacity=".09" stroke-width="0"/>
  <path d="M15.75,3.5h-2.29785c1.29492.68921,2.35864,1.75293,3.04785,3.04785v-2.29785c0-.41309-.33691-.75-.75-.75Z" fill="var(--iconPrimary, #222)" opacity=".09" stroke-width="0"/>
  <path d="M3.5,4.25v2.29785c.68921-1.29492,1.75293-2.35864,3.04785-3.04785h-2.29785c-.41309,0-.75.33691-.75.75Z" fill="var(--iconPrimary, #222)" opacity=".09" stroke-width="0"/>
  <path d="M13.4519,16.5h2.2981c.41309,0,.75-.33691.75-.75v-2.2981c-.68921,1.29517-1.75293,2.35889-3.0481,3.0481Z" fill="var(--iconPrimary, #222)" opacity=".09" stroke-width="0"/>
  <path d="M4.25,16.5h2.84155c-1.59485-.71484-2.87671-1.99658-3.59155-3.59155v2.84155c0,.41309.33691.75.75.75Z" fill="var(--iconPrimary, #222)" opacity=".08" stroke-width="0"/>
  <path d="M15.75,3.5h-2.84155c1.59485.71484,2.87671,1.99658,3.59155,3.59155v-2.84155c0-.41309-.33691-.75-.75-.75Z" fill="var(--iconPrimary, #222)" opacity=".08" stroke-width="0"/>
  <path d="M12.90845,16.5h2.84155c.41309,0,.75-.33691.75-.75v-2.84155c-.71484,1.59497-1.9967,2.87671-3.59155,3.59155Z" fill="var(--iconPrimary, #222)" opacity=".08" stroke-width="0"/>
  <path d="M3.5,4.25v2.84155c.71484-1.59497,1.9967-2.87671,3.59155-3.59155h-2.84155c-.41309,0-.75.33691-.75.75Z" fill="var(--iconPrimary, #222)" opacity=".08" stroke-width="0"/>
  <path d="M4.25,16.5h3.48499c-1.9801-.69019-3.5448-2.25488-4.23499-4.23486v3.48486c0,.41309.33691.75.75.75Z" fill="var(--iconPrimary, #222)" opacity=".08" stroke-width="0"/>
  <path d="M15.75,3.5h-3.48499c1.9801.69019,3.5448,2.25488,4.23499,4.23486v-3.48486c0-.41309-.33691-.75-.75-.75Z" fill="var(--iconPrimary, #222)" opacity=".08" stroke-width="0"/>
  <path d="M12.26501,16.5h3.48499c.41309,0,.75-.33691.75-.75v-3.48486c-.69019,1.97998-2.25488,3.54468-4.23499,4.23486Z" fill="var(--iconPrimary, #222)" opacity=".08" stroke-width="0"/>
  <path d="M3.5,4.25v3.48486c.69019-1.97998,2.25488-3.54468,4.23499-4.23486h-3.48499c-.41309,0-.75.33691-.75.75Z" fill="var(--iconPrimary, #222)" opacity=".08" stroke-width="0"/>
  <path d="M15.75,3.5h-4.34033c2.54199.54883,4.5415,2.54834,5.09033,5.09033v-4.34033c0-.41309-.33691-.75-.75-.75Z" fill="var(--iconPrimary, #222)" opacity=".08" stroke-width="0"/>
  <path d="M4.25,16.5h4.34033c-2.54199-.54883-4.5415-2.54834-5.09033-5.09033v4.34033c0,.41309.33691.75.75.75Z" fill="var(--iconPrimary, #222)" opacity=".08" stroke-width="0"/>
  <path d="M3.5,4.25v4.34033c.54883-2.54199,2.54834-4.5415,5.09033-5.09033h-4.34033c-.41309,0-.75.33691-.75.75Z" fill="var(--iconPrimary, #222)" opacity=".08" stroke-width="0"/>
  <path d="M11.40967,16.5h4.34033c.41309,0,.75-.33691.75-.75v-4.34033c-.54883,2.54199-2.54834,4.5415-5.09033,5.09033Z" fill="var(--iconPrimary, #222)" opacity=".08" stroke-width="0"/>
  <path d="M15.75,16.5c.41309,0,.75-.33691.75-.75V4.25c0-.41309-.33691-.75-.75-.75H4.25c-.41309,0-.75.33691-.75.75v11.5c0,.41309.33691.75.75.75h11.5ZM3.58325,10c0-3.54395,2.8728-6.41675,6.41675-6.41675s6.41675,2.8728,6.41675,6.41675-2.8728,6.4165-6.41675,6.4165-6.41675-2.87256-6.41675-6.4165Z" fill="var(--iconPrimary, #222)" opacity=".08" stroke-width="0"/>
  <path d="M15.75,16.5c.41309,0,.75-.33691.75-.75V4.25c0-.41309-.33691-.75-.75-.75H4.25c-.41309,0-.75.33691-.75.75v11.5c0,.41309.33691.75.75.75h11.5ZM10,3.81934c3.41345,0,6.18054,2.76709,6.18054,6.18066s-2.76709,6.18066-6.18054,6.18066-6.18054-2.76709-6.18054-6.18066,2.76709-6.18066,6.18054-6.18066Z" fill="var(--iconPrimary, #222)" opacity=".08" stroke-width="0"/>
  <path d="M15.75,16.5c.41309,0,.75-.33691.75-.75V4.25c0-.41309-.33691-.75-.75-.75H4.25c-.41309,0-.75.33691-.75.75v11.5c0,.41309.33691.75.75.75h11.5ZM10,4.05566c3.28308,0,5.94446,2.66113,5.94446,5.94434s-2.66138,5.94434-5.94446,5.94434-5.94446-2.66113-5.94446-5.94434,2.66138-5.94434,5.94446-5.94434Z" fill="var(--iconPrimary, #222)" opacity=".08" stroke-width="0"/>
  <path d="M15.75,16.5c.41309,0,.75-.33691.75-.75V4.25c0-.41309-.33691-.75-.75-.75H4.25c-.41309,0-.75.33691-.75.75v11.5c0,.41309.33691.75.75.75h11.5ZM10,4.2915c3.15259,0,5.70825,2.55566,5.70825,5.7085,0,3.15259-2.55566,5.70825-5.70825,5.70825s-5.70825-2.55566-5.70825-5.70825c0-3.15283,2.55566-5.7085,5.70825-5.7085Z" fill="var(--iconPrimary, #222)" opacity=".08" stroke-width="0"/>
  <path d="M15.75,16.5c.41309,0,.75-.33691.75-.75V4.25c0-.41309-.33691-.75-.75-.75H4.25c-.41309,0-.75.33691-.75.75v11.5c0,.41309.33691.75.75.75h11.5ZM10,4.52783c3.02222,0,5.47217,2.44971,5.47217,5.47217,0,3.02222-2.44995,5.47217-5.47217,5.47217s-5.47217-2.44995-5.47217-5.47217c0-3.02246,2.44995-5.47217,5.47217-5.47217Z" fill="var(--iconPrimary, #222)" opacity=".07" stroke-width="0"/>
  <path d="M15.75,16.5c.41309,0,.75-.33691.75-.75V4.25c0-.41309-.33691-.75-.75-.75H4.25c-.41309,0-.75.33691-.75.75v11.5c0,.41309.33691.75.75.75h11.5ZM10,4.76392c2.89185,0,5.23608,2.34424,5.23608,5.23608s-2.34424,5.23608-5.23608,5.23608-5.23608-2.34424-5.23608-5.23608,2.34424-5.23608,5.23608-5.23608Z" fill="var(--iconPrimary, #222)" opacity=".06" stroke-width="0"/>
  <path d="M15.75,18H4.25c-1.24023,0-2.25-1.00977-2.25-2.25V4.25c0-1.24023,1.00977-2.25,2.25-2.25h11.5c1.24023,0,2.25,1.00977,2.25,2.25v11.5c0,1.24023-1.00977,2.25-2.25,2.25ZM4.25,3.5c-.41309,0-.75.33691-.75.75v11.5c0,.41309.33691.75.75.75h11.5c.41309,0,.75-.33691.75-.75V4.25c0-.41309-.33691-.75-.75-.75H4.25Z" fill="var(--iconPrimary, #222)" stroke-width="0"/>
</svg>