<?xml version="1.0" encoding="UTF-8"?>
<svg   xmlns="http://www.w3.org/2000/svg" width="20" height="20" viewBox="0 0 20 20">
  <path d="M15.75,2.75H4.25c-.82837,0-1.5.67163-1.5,1.5v11.5c0,.82837.67163,1.5,1.5,1.5h11.5c.82837,0,1.5-.67163,1.5-1.5V4.25c0-.82837-.67163-1.5-1.5-1.5ZM10,16.5c-3.58984,0-6.5-2.91016-6.5-6.5s2.91016-6.5,6.5-6.5,6.5,2.91016,6.5,6.5-2.91016,6.5-6.5,6.5Z" fill="var(--iconPrimary, #222)" opacity=".35" stroke-width="0"/>
  <path d="M15.75,2H4.25c-1.24023,0-2.25,1.00977-2.25,2.25v11.5c0,1.24023,1.00977,2.25,2.25,2.25h11.5c1.24023,0,2.25-1.00977,2.25-2.25V4.25c0-1.24023-1.00977-2.25-2.25-2.25ZM16.5,4.25v2.55859c-.70752-1.4353-1.87329-2.60107-3.30859-3.30859h2.55859c.41309,0,.75.33691.75.75ZM15.75,10c0,3.1709-2.5791,5.75-5.75,5.75s-5.75-2.5791-5.75-5.75,2.5791-5.75,5.75-5.75,5.75,2.5791,5.75,5.75ZM4.25,3.5h2.55859c-1.4353.70752-2.60107,1.87329-3.30859,3.30859v-2.55859c0-.41309.33691-.75.75-.75ZM3.5,15.75v-2.55859c.70752,1.4353,1.87329,2.60107,3.30859,3.30859h-2.55859c-.41309,0-.75-.33691-.75-.75ZM15.75,16.5h-2.55859c1.4353-.70752,2.60107-1.87329,3.30859-3.30859v2.55859c0,.41309-.33691.75-.75.75Z" fill="var(--iconPrimary, #222)" stroke-width="0"/>
</svg>