<?xml version="1.0" encoding="UTF-8"?>
<svg xmlns="http://www.w3.org/2000/svg" width="20" height="20" viewBox="0 0 20 20">
  <path d="m18,15.5h-5.88818c-.31079-.87115-1.13574-1.5-2.11182-1.5s-1.80103.62885-2.11169,1.5H2c-.41406,0-.75.33594-.75.75s.33594.75.75.75h5.88831c.31067.87115,1.13562,1.5,2.11169,1.5s1.80103-.62885,2.11182-1.5h5.88818c.41406,0,.75-.33594.75-.75s-.33594-.75-.75-.75Zm-8,1.5c-.41309,0-.75-.33643-.75-.75s.33691-.75.75-.75.75.33643.75.75-.33691.75-.75.75Z" fill="var(--iconPrimary, #222)"/>
  <path d="m18.75,10c0-4.82471-3.9248-8.75-8.75-8.75S1.25,5.17529,1.25,10c0,.0462-.00049.21899,0,.26758.00977.95557.81445,1.73242,1.79199,1.73242h13.96387c.95117,0,1.73438-.77686,1.74414-1.73242.00049-.04858,0-.22137,0-.26758Zm-2.26062-3.21326l-3.30774,1.67499c-.13965-.15924-.29041-.30505-.45215-.44196l2.1438-3.37201c.66309.60437,1.21265,1.3277,1.61609,2.13898Zm-5.73938.28906V2.78894c1.05591.10901,2.04114.4516,2.91394.96564l-2.2323,3.51117c-.2207-.07959-.4458-.14764-.68164-.18994Zm0,1.54126c.91064.26025,1.62268.97229,1.88293,1.88293h-1.88293v-1.88293Zm-8,1.63489c-.00049-.0437,0-.20618,0-.25195,0-3.74432,2.85315-6.83459,6.5-7.21106v7.71106H3.04199c-.14648,0-.29102-.12305-.29199-.24805Zm14.5,0c-.00098.13916-.1084.24805-.24414.24805h-2.83167c-.04675-.26056-.11975-.51056-.21191-.75244l3.05286-1.54596c.14783.57623.23486,1.17664.23486,1.7984,0,.04584.00049.20831,0,.25195Z" fill="var(--iconPrimary, #222)"/>
</svg>