<?xml version="1.0" encoding="UTF-8"?>
<svg   xmlns="http://www.w3.org/2000/svg" width="20" height="20" viewBox="0 0 20 20">
  <path d="M13.90625,3.43359l-3.18066-1.86426c-.44922-.25879-1.00391-.25977-1.45508.00195l-3.17578,1.86133c-.2218.12964-.40137.3147-.52576.53149-.00037.00073-.0011.00098-.00159.00171-.0011.00195-.00098.00415-.00195.0061-.12207.21558-.19043.46167-.19043.71655v3.6123c0,.06616.01685.12939.02563.19385l-3.30591,1.93799c-.44434.25977-.71973.74121-.71973,1.25586v3.6123c0,.5127.27441.99316.71582,1.25391l3.18848,1.87793c.22168.12695.46973.19141.71875.19141.25098-.00098.50293-.06543.72949-.19531l2.09375-1.2334c.29688-.1748.39648-.55762.2207-.85547-.1748-.29688-.55762-.39941-.85547-.2207l-1.56152.91992v-3.17578l3.68555-2.10645c.19434-.11133.31445-.31836.31445-.54297v-4.35059l2.75-1.57227v3.17383c0,.34473.28027.625.625.625s.625-.28027.625-.625v-3.77637c0-.51465-.27539-.99609-.71875-1.25488ZM9.89941,2.65234c.0625-.03613.14062-.03613.19727-.00293l2.65527,1.55688-2.75195,1.57324-2.75208-1.57349,2.65149-1.55371ZM5.375,17.03906l-2.64844-1.56055c-.06348-.03711-.10156-.10352-.10156-.17773v-3.00977l2.75,1.57129v3.17676ZM6.00012,12.77954l-2.75232-1.57349,2.83179-1.66016c.00415.00244.00708.00635.01123.00879l2.73462,1.61084-2.82532,1.61401ZM9.375,10.03906l-2.64844-1.56055c-.06348-.03711-.10156-.10352-.10156-.17773v-3.00977l2.75,1.57129v3.17676Z" fill="var(--iconPrimary, #222)"/>
  <path d="M15,10.5c-2.48535,0-4.5,2.01465-4.5,4.5s2.01465,4.5,4.5,4.5,4.5-2.01465,4.5-4.5-2.01465-4.5-4.5-4.5ZM17.375,15.77148h-4.75c-.41406,0-.75-.33594-.75-.75s.33594-.75.75-.75h4.75c.41406,0,.75.33594.75.75s-.33594.75-.75.75Z" fill="var(--iconPrimary, #222)"/>
</svg>