<?xml version="1.0" encoding="UTF-8"?>
<svg   xmlns="http://www.w3.org/2000/svg" width="20" height="20" viewBox="0 0 20 20">
  <path d="M17.87598,10.33203l-3.16895-1.85254c-.00098,0-.00293-.00098-.00391-.00195-.03394-.01953-.0719-.02734-.10706-.04395.005-.04858.01917-.09521.01917-.14453v-3.59473c0-.51367-.27539-.99316-.71875-1.25195l-3.16895-1.85254c-.00098,0-.00293-.00098-.00391-.00195-.44629-.25684-1.00098-.25488-1.45117.00195l-3.16797,1.85254c-.44434.25879-.71973.73828-.71973,1.25195v3.59473c0,.04956.01416.09619.01929.14502-.0365.01709-.07568.02539-.11108.04541l-3.16699,1.85254c-.44434.25781-.7207.7373-.7207,1.25195v3.59473c0,.5127.27441.99219.71582,1.25098l3.17871,1.86719c.22168.12695.46973.19043.71875.19043.25,0,.50195-.06445.72754-.19336l3.17285-1.86426c.03003-.01758.05261-.0437.08105-.06323.02844.01953.05103.04565.08105.06323l3.17871,1.86719c.22168.12695.46973.19043.71875.19043.25,0,.50195-.06445.72754-.19336l3.17285-1.86426c.44141-.25879.71582-.73828.71582-1.25098v-3.59473c0-.51465-.27637-.99414-.71875-1.25195ZM6.63477,5.20776l2.74023,1.50903v3.29688l-2.64062-1.55078c-.06152-.03613-.09961-.10254-.09961-.17383v-3.0813ZM10.625,6.71484l2.74023-1.50757v3.08179c0,.07129-.03809.1377-.09863.17285l-2.6416,1.55151v-3.29858ZM9.89941,2.67188c.03125-.01758.06543-.02734.10059-.02734.03418,0,.06836.00879.09961.02637l2.56006,1.49683-2.66187,1.4646-2.65771-1.46411,2.55933-1.49634ZM5.39551,16.90381l-2.6416-1.55225c-.06152-.03613-.09863-.10059-.09863-.17285v-3.0061l2.74023,1.50903v3.22217ZM6.01782,12.59692l-2.72339-1.50024,2.62549-1.53516c.03027-.01758.06543-.02637.10059-.02637.03418,0,.06934.00879.09961.02539l2.62598,1.53516-2.72827,1.50122ZM9.28613,15.35156l-2.64062,1.552v-3.22437l2.71973-1.49634v2.99585c0,.00952.00342.01831.00366.02783-.00977.05811-.03113.11475-.08276.14502ZM13.35449,16.90308l-2.64062-1.55151c-.05164-.03027-.073-.08691-.08276-.14502.00024-.00952.00366-.01831.00366-.02783v-2.99536l2.71973,1.49829v3.22144ZM13.97729,12.59717l-2.72363-1.50073,2.62427-1.53491c.03125-.01758.06641-.02637.10156-.02637s.06934.00879.09961.02539l2.62671,1.53516-2.72852,1.50146ZM17.34473,15.17871c0,.07227-.03711.13672-.09863.17285l-2.6416,1.55249v-3.22437l2.74023-1.50757v3.00659Z" fill="var(--iconPrimary, #222)"/>
</svg>