<?xml version="1.0" encoding="UTF-8"?>
<svg   xmlns="http://www.w3.org/2000/svg" width="20" height="20" viewBox="0 0 20 20">
  <path d="M14.30237,3.5c.56238,0,1.12476.21484,1.55359.64404.85876.85864.85876,2.25024,0,3.10791-.75513.75537-2.48962.73389-3.24744,1.4917-1.146,1.146-.72095,4.96313-2.36731,6.60938-.7605.7605-1.77966,1.14697-2.80151,1.14697-1.01123,0-2.0249-.37842-2.79358-1.14697l.00085.00098c-1.54553-1.54541-1.51294-4.08228,0-5.59521,1.64636-1.64624,5.46338-1.22119,6.60938-2.36743.75781-.75757.73645-2.49121,1.49158-3.24731.42932-.4292.99194-.64404,1.55444-.64404h0ZM14.30237,2c-.98767,0-1.91638.38477-2.61499,1.08325-.64734.64819-.89966,1.50317-1.12231,2.25732-.09497.32178-.25391.86035-.37158.99243-.23621.19702-1.28137.38818-1.97302.5144-1.59644.29175-3.40588.62256-4.63416,1.85059-1.01709,1.01709-1.58044,2.38086-1.58618,3.84009-.00598,1.47119.55737,2.8479,1.58618,3.87671.00476.00464.00964.00928.0144.01416,1.02124,1.01318,2.38367,1.57104,3.83899,1.57104,1.46765,0,2.83923-.56348,3.86218-1.58643,1.22827-1.22803,1.55908-3.03784,1.85083-4.63428.12634-.69165.31726-1.73657.52246-1.9812.12378-.10913.66235-.26807.98413-.36304.75476-.22266,1.61023-.4751,2.25745-1.12256.69824-.69751,1.08325-1.62598,1.08325-2.61401,0-.98779-.38477-1.9165-1.0835-2.61523-.69763-.69824-1.62622-1.08325-2.61414-1.08325h0Z" fill="var(--iconPrimary, #222)"/>
</svg>