<?xml version="1.0" encoding="UTF-8"?>
<svg   xmlns="http://www.w3.org/2000/svg" width="20" height="20" viewBox="0 0 20 20">
  <path d="M7.47021,18.0127c-1.40479,0-2.80908-.53516-3.87891-1.60449l.00098.00098c-2.13916-2.13965-2.13867-5.62012,0-7.75879,2.12744-2.12793,5.32373-4.15527,7.87012-5.68359,2.16846-1.30176,4.17871-1.28125,5.51611.05469,1.33643,1.33594,1.35596,3.34668.05469,5.51562-1.52686,2.5459-3.55322,5.74121-5.68408,7.87109-1.06934,1.06934-2.47412,1.60352-3.87891,1.60449ZM4.65283,15.34863c1.52832,1.52539,4.1084,1.52637,5.63574-.00098,2.01514-2.01465,3.97559-5.11035,5.4585-7.58203.65918-1.09863,1.22412-2.62988.1709-3.68359-1.05273-1.05371-2.58447-.48926-3.68359.1709-2.47266,1.48438-5.56982,3.44629-7.58154,5.45801-1.52783,1.52734-1.52734,4.10938,0,5.6377h0Z" fill="var(--iconPrimary, #222)"/>
</svg>