<?xml version="1.0" encoding="UTF-8"?>
<svg   xmlns="http://www.w3.org/2000/svg" width="20" height="20" viewBox="0 0 20 20">
  <path d="M6.66895,17.99121c-1.24512,0-2.41504-.48535-3.29492-1.36523s-1.36523-2.0498-1.36523-3.29492.48535-2.41504,1.36523-3.29492l6.66211-6.66211c.87988-.88086,2.0498-1.36523,3.29492-1.36523s2.41504.48535,3.29492,1.36523,1.36523,2.0498,1.36523,3.29492-.48535,2.41504-1.36523,3.29492l-6.66211,6.66211c-.87988.87988-2.0498,1.36523-3.29492,1.36523ZM13.33105,3.50879c-.84375,0-1.6377.3291-2.23438.92578h0l-6.66211,6.66211c-.59668.59668-.92578,1.39062-.92578,2.23438s.3291,1.6377.92578,2.23438c1.19336,1.19336,3.27539,1.19336,4.46875,0l6.66211-6.66211c.59668-.59668.92578-1.39062.92578-2.23438s-.3291-1.6377-.92578-2.23438-1.39062-.92578-2.23438-.92578ZM10.56641,3.9043h.00977-.00977Z" fill="var(--iconPrimary, #222)"/>
</svg>