<?xml version="1.0" encoding="UTF-8"?>
<svg id="e" data-name="strokes" xmlns="http://www.w3.org/2000/svg" width="20" height="20" viewBox="0 0 20 20">
  <path d="M6.74902,16.00098h-3.5c-1.24023,0-2.25-1.00977-2.25-2.25V4.25098c0-1.24023,1.00977-2.25,2.25-2.25h13.5c1.24023,0,2.25,1.00977,2.25,2.25v4c0,.41406-.33594.75-.75.75s-.75-.33594-.75-.75v-4c0-.41309-.33691-.75-.75-.75H3.24902c-.41309,0-.75.33691-.75.75v9.5c0,.41309.33691.75.75.75h3.5c.41406,0,.75.33594.75.75s-.33594.75-.75.75Z" fill="var(--iconPrimary, #222)"/>
  <path d="M17.99902,6.50098H2.49902c-.41406,0-.75-.33594-.75-.75s.33594-.75.75-.75h15.5c.41406,0,.75.33594.75.75s-.33594.75-.75.75Z" fill="var(--iconPrimary, #222)"/>
  <path d="M18.02539,14.5h-8.55078c-.41406,0-.75-.33594-.75-.75s.33594-.75.75-.75h8.55078c.41406,0,.75.33594.75.75s-.33594.75-.75.75Z" fill="var(--iconPrimary, #222)"/>
  <path d="M13.75,19c-2.89453,0-5.25-2.35547-5.25-5.25s2.35547-5.25,5.25-5.25,5.25,2.35547,5.25,5.25-2.35547,5.25-5.25,5.25ZM13.75,10c-2.06738,0-3.75,1.68262-3.75,3.75s1.68262,3.75,3.75,3.75,3.75-1.68262,3.75-3.75-1.68262-3.75-3.75-3.75Z" fill="var(--iconPrimary, #222)"/>
  <path d="M13.75,19c-1.60645,0-2.3252-2.63672-2.3252-5.25s.71875-5.25,2.3252-5.25,2.3252,2.63672,2.3252,5.25-.71875,5.25-2.3252,5.25ZM13.8125,17.51172h.00977-.00977ZM13.75,10.03613c-.28613.27832-.8252,1.53418-.8252,3.71387s.53906,3.43555.8252,3.71387c.28613-.27832.8252-1.53418.8252-3.71387s-.53906-3.43555-.8252-3.71387Z" fill="var(--iconPrimary, #222)"/>
</svg>