<?xml version="1.0" encoding="UTF-8"?>
<svg id="e" data-name="ICONS" xmlns="http://www.w3.org/2000/svg" width="20" height="20" viewBox="0 0 20 20">
  <path d="M14.51758,18.5918c-2.55078,0-5.14258-2.34082-5.14258-3.64941,0-.48926.45312-1.00586.72266-1.27051.24805-.24219.64258-.2373.88281.00879.24219.24609.23828.6416-.00684.88281-.1543.15234-.3291.375-.35938.45898.05957.40039,1.84863,2.31934,3.90332,2.31934.34473,0,.625.28027.625.625s-.28027.625-.625.625Z" fill="var(--iconPrimary, #222)"/>
  <path d="M18.19006,17.12939c.72083-.60522,1.43494-1.4541,1.43494-2.18701,0-1.23633-2.4248-3.85352-5.13281-3.85352-.65784.00781-1.31458.15796-1.91943.42334l-1.04248-1.04248c-.29297-.29297-.76758-.29297-1.06055,0s-.29297.76758,0,1.06055l7.29883,7.29883c.14648.14648.33789.21973.53027.21973s.38379-.07324.53027-.21973c.29297-.29297.29297-.76758,0-1.06055l-.63904-.63916ZM14.5,12.33887c2.15527,0,3.82812,2.16309,3.875,2.59766-.01611.17383-.37268.72803-1.07935,1.29858l-3.74426-3.74438c.31165-.08813.62976-.14795.94861-.15186Z" fill="var(--iconPrimary, #222)"/>
  <circle cx="4.125" cy="6" r=".75" fill="var(--iconPrimary, #222)"/>
  <path d="M16.75,3H3.25c-1.24023,0-2.25,1.00977-2.25,2.25v9.5c0,1.24023,1.00977,2.25,2.25,2.25h3.47266c.00488,0,.00879-.00269.01367-.00269s.00879.00269.01367.00269c.41406,0,.75-.33594.75-.75v-7.25h10v.75c0,.41406.33594.75.75.75s.75-.33594.75-.75v-4.5c0-1.24023-1.00977-2.25-2.25-2.25ZM6,15.5h-2.75c-.41309,0-.75-.33691-.75-.75v-5.75h3.5v6.5ZM2.5,7.5v-2.25c0-.41309.33691-.75.75-.75h13.5c.41309,0,.75.33691.75.75v2.25H2.5Z" fill="var(--iconPrimary, #222)"/>
</svg>