<?xml version="1.0" encoding="UTF-8"?>
<svg   xmlns="http://www.w3.org/2000/svg" width="20" height="20" viewBox="0 0 20 20">
  <circle cx="4.125" cy="6" r=".75" fill="var(--iconPrimary, #222)" stroke-width="0"/>
  <path d="M16.75,3H3.25c-1.24072,0-2.25,1.00977-2.25,2.25v9.5c0,1.24023,1.00928,2.25,2.25,2.25h4.97217c.41406,0,.75-.33594.75-.75s-.33594-.75-.75-.75H3.25c-.41357,0-.75-.33691-.75-.75v-5.75h15.5c.03918,0,.07288-.0166.11047-.02234.04681.00916.09003.0282.13953.0282.41406,0,.75-.33594.75-.75v-3.00586c0-1.24023-1.00928-2.25-2.25-2.25ZM2.5,5.25c0-.41309.33643-.75.75-.75h13.5c.41357,0,.75.33691.75.75v2.25H2.5v-2.25Z" fill="var(--iconPrimary, #222)" stroke-width="0"/>
  <path d="M15,10.27112c-2.48529,0-4.5,2.01477-4.5,4.5s2.01471,4.5,4.5,4.5,4.5-2.01477,4.5-4.5-2.01471-4.5-4.5-4.5ZM17.35791,13.77148l-2.59766,3.15918c-.1167.14258-.29004.22559-.47363.22852h-.00928c-.18018,0-.35205-.07812-.4707-.21387l-1.15234-1.32031c-.22705-.25977-.2002-.65527.05957-.88184.26074-.22754.65576-.2002.88184.05957l.66748.76465,2.12891-2.58887c.21875-.2666.61328-.30566.87988-.08594.2666.21875.30518.6123.08594.87891Z" fill="var(--iconPrimary, #222)" stroke-width="0"/>
</svg>