<?xml version="1.0" encoding="UTF-8"?>
<svg   xmlns="http://www.w3.org/2000/svg" width="20" height="20" viewBox="0 0 20 20">
  <circle cx="6" cy="8" r=".65909" fill="var(--iconPrimary, #222)"/>
  <path d="M.75,14c-.41406,0-.75-.33594-.75-.75V4.25c0-1.24023,1.00977-2.25,2.25-2.25h12c.41406,0,.75.33594.75.75s-.33594.75-.75.75H2.25c-.41309,0-.75.33691-.75.75v9c0,.41406-.33594.75-.75.75Z" fill="var(--iconPrimary, #222)"/>
  <path d="M16.75,5H5.25c-1.24023,0-2.25,1.00977-2.25,2.25v8.5c0,1.24023,1.00977,2.25,2.25,2.25h11.5c1.24023,0,2.25-1.00977,2.25-2.25V7.25c0-1.24023-1.00977-2.25-2.25-2.25ZM5.25,6.5h11.5c.41309,0,.75.33691.75.75v2.25H4.5v-2.25c0-.41309.33691-.75.75-.75ZM16.75,16.5H5.25c-.41309,0-.75-.33691-.75-.75v-4.75h13v4.75c0,.41309-.33691.75-.75.75Z" fill="var(--iconPrimary, #222)"/>
</svg>