<?xml version="1.0" encoding="UTF-8"?>
<svg id="e" data-name="ICONS" xmlns="http://www.w3.org/2000/svg" width="20" height="20" viewBox="0 0 20 20">
  <path d="M16.89551,19.5c-.21875,0-.43799-.0625-.63184-.18945l-1.24805-.81738c-.27832-.17969-.65625-.18066-.93652.00098l-1.24561.81543c-.40674.26465-.92188.25098-1.31299-.0332-.39014-.28418-.55957-.76855-.43164-1.2334l.50488-1.84082c.021-.07715-.00586-.15918-.06885-.20996l-1.49512-1.19336c-.37842-.30273-.52588-.79492-.37646-1.25488s.55859-.77148,1.04297-.79395l1.9126-.09082c.08301-.00391.15479-.05566.18311-.13086l.67725-1.78516c.17188-.45215.59521-.74316,1.07861-.74316.48389,0,.90723.29102,1.07861.74219l.00049.00098.67725,1.78516c.02832.0752.1001.12695.18213.13086l1.91406.09082c.4834.02246.89307.33398,1.04248.79395s.00146.95215-.37646,1.25488l-1.49463,1.19336c-.06348.05078-.09033.13281-.06934.20996l.50488,1.84082c.12793.46484-.0415.94922-.43164,1.2334-.2041.14844-.44189.22363-.68018.22363ZM14.54785,17.10449c.40918,0,.80762.11816,1.15137.34277l1.03467.67676-.43652-1.5918c-.15381-.55859.04053-1.1543.49463-1.5166l1.28906-1.0293-1.65381-.0791c-.5791-.02734-1.08643-.39453-1.29199-.93555l-.5874-1.54785-.58691,1.54785c-.20557.54102-.71289.9082-1.29297.93555l-1.65283.0791,1.28955,1.0293c.45361.3623.64795.95801.49414,1.5166l-.43652,1.5918,1.0332-.67578c.34473-.22559.74316-.34375,1.15234-.34375ZM14.4585,11.1875h0Z" fill="var(--iconPrimary, #222)"/>
  <path d="M16.75,2H3.25c-1.24072,0-2.25,1.00977-2.25,2.25v9.5c0,1.24023,1.00928,2.25,2.25,2.25h4.37012c.41406,0,.75-.33594.75-.75s-.33594-.75-.75-.75H3.25c-.41357,0-.75-.33691-.75-.75v-5.75h15v2.48926c0,.41406.33594.75.75.75s.75-.33594.75-.75v-6.23926c0-1.24023-1.00928-2.25-2.25-2.25ZM2.5,6.5v-2.25c0-.41309.33643-.75.75-.75h13.5c.41357,0,.75.33691.75.75v2.25H2.5Z" fill="var(--iconPrimary, #222)"/>
  <circle cx="4.125" cy="5" r=".75" fill="var(--iconPrimary, #222)"/>
</svg>