<?xml version="1.0" encoding="UTF-8"?>
<svg   xmlns="http://www.w3.org/2000/svg" width="20" height="20" viewBox="0 0 20 20">
  <circle cx="14.5" cy="14.5" r="1.11096" fill="var(--iconPrimary, #222)"/>
  <path d="M16.2959,19.57324c-.43164,0-.85254-.20898-1.11621-.59277l-.3916-.57031c-.10156.00781-.19629.00195-.30566.01172h0c-.10254-.00098-.2041-.00488-.30469-.01367l-.39648.56543c-.40234.5752-1.19238.74805-1.79883.39551l-.48047-.28027c-.61621-.36035-.84863-1.11719-.54297-1.75977l.29883-.62598c-.11426-.16699-.21484-.34375-.30176-.52734l-.69043-.06055c-.71094-.06445-1.24414-.64941-1.24023-1.36133l.00195-.55566c.00391-.70215.55371-1.29492,1.25195-1.35059l.69238-.05469c.08789-.18262.18945-.35742.30566-.52441l-.29297-.62891c-.29688-.63574-.05176-1.40723.55859-1.75488l.4834-.27539c.61816-.35449,1.39062-.17871,1.79395.41016l.3916.57031c.09961-.00879.1748-.01172.30566-.01172.10254.00098.2041.00488.30469.01367l.39648-.56543c.40234-.57422,1.19336-.74805,1.79883-.39551l.48047.28027c.61621.36035.84863,1.11719.54297,1.75977l-.29883.62598c.11426.16699.21484.34375.30176.52734l.69043.06055c.71094.06445,1.24414.64941,1.24023,1.36133l-.00195.55566c-.00391.70215-.55371,1.29492-1.25195,1.35059l-.69238.05469c-.08789.18262-.18945.35742-.30566.52441l.29297.62891c.29688.63574.05176,1.40723-.55859,1.75488l-.4834.27539c-.21484.12305-.44824.18262-.67773.18262ZM15.08691,17.11719c.20312,0,.39746.09961.51465.27051l.60742.88379c.03223.04688.09082.0625.14453.03418l.48438-.27637c.04883-.02832.06836-.08984.04492-.1416l-.45312-.97266c-.10352-.22266-.06738-.48535.09277-.67188.21387-.24805.37891-.53125.49023-.84082.08301-.23145.29395-.39258.53906-.41211l1.07031-.08398c.05566-.00488.10059-.05273.10059-.10938l.00195-.55566c0-.05859-.04297-.10547-.10059-.11133l-1.06836-.09277c-.24414-.02148-.4541-.18457-.53516-.41602-.10938-.31348-.27148-.59766-.48242-.8457-.15918-.1875-.19336-.45117-.08789-.67285l.46191-.96875c.02539-.05273.00586-.11426-.04395-.14355l-.47949-.2793c-.05176-.0293-.11426-.01465-.14648.03223l-.61523.87793c-.14062.20117-.39355.29883-.62793.25586-.16309-.03125-.36816-.06543-.49805-.04883-.16406,0-.32227.0166-.47754.04492-.23535.04297-.4873-.05859-.625-.26074l-.60742-.88379c-.0332-.04785-.0918-.06445-.14453-.03418l-.48438.27637c-.04883.02832-.06836.08984-.04492.1416l.45312.97266c.10352.22266.06738.48535-.09277.67188-.21387.24805-.37891.53125-.49023.84082-.08301.23145-.29395.39258-.53906.41211l-1.07031.08398c-.05566.00488-.10059.05273-.10059.10938l-.00195.55566c0,.05859.04297.10547.10059.11133l1.06836.09277c.24414.02148.4541.18457.53516.41602.10938.31348.27148.59766.48242.8457.15918.1875.19336.45117.08789.67285l-.46191.96875c-.02539.05273-.00586.11426.04395.14355l.47949.2793c.0498.02734.11328.01367.14648-.03223l.61523-.87793c.1416-.20215.39551-.29688.62793-.25586.16309.03125.375.04102.49805.04883.16406,0,.32227-.0166.47754-.04492.03613-.00684.07324-.00977.11035-.00977Z" fill="var(--iconPrimary, #222)"/>
  <g>
    <circle cx="4.125" cy="5" r=".75" fill="var(--iconPrimary, #222)"/>
    <path d="M19,4.25c0-1.24023-1.00977-2.25-2.25-2.25H3.25c-1.24023,0-2.25,1.00977-2.25,2.25v9.5c0,1.24023,1.00977,2.25,2.25,2.25h3.43164c.41406,0,.75-.33594.75-.75s-.33594-.75-.75-.75h-3.43164c-.41309,0-.75-.33691-.75-.75v-5.75h15.74609c.41406,0,.75-.33594.75-.75,0-.07886-.02246-.15088-.04492-.22229.02637-.07678.04883-.15588.04883-.24158v-2.53613ZM2.5,4.25c0-.41309.33691-.75.75-.75h13.5c.41309,0,.75.33691.75.75v2.25H2.5v-2.25Z" fill="var(--iconPrimary, #222)"/>
  </g>
</svg>