<?xml version="1.0" encoding="UTF-8"?>
<svg id="e" data-name="ICONS" xmlns="http://www.w3.org/2000/svg" width="20" height="20" viewBox="0 0 20 20">
  <path d="M16.00682,4.045c-3.16112-3.15991-8.28532-3.15893-11.44523.00218-2.5867,2.58769-3.11548,6.58903-1.28977,9.75982l-1.147,4.193,4.289-1.125c1.18611.64623,2.51527.98488,3.866.985h.007c4.47019-.00311,8.09147-3.62945,8.08836-8.09964-.0015-2.14357-.85324-4.19901-2.36836-5.71536ZM10.28682,16.493c-1.20537.00063-2.38872-.32301-3.426-.937l-.246-.146-2.545.668.68-2.482-.16-.254c-1.97387-3.14619-1.02351-7.29681,2.12268-9.27068,3.14619-1.97387,7.29681-1.02351,9.27068,2.12268,1.97387,3.14619,1.02351,7.29681-2.12268,9.27068-1.07089.67186-2.30948,1.02826-3.57368,1.02832Z" fill="var(--iconPrimary, #222)"/>
  <path d="M13.97182,11.457c-.2-.1-1.2-.59-1.381-.658s-.32-.1-.455.1-.522.658-.64.793-.236.152-.438.05c-.5961-.2361-1.14637-.57452-1.626-1-.44266-.41027-.82182-.88413-1.125-1.406-.118-.2-.012-.311.089-.412s.2-.236.3-.354c.08254-.10248.1499-.21632.2-.338.05588-.11115.0525-.24287-.009-.351-.051-.1-.455-1.1-.624-1.5s-.333-.345-.457-.345-.252-.007-.387-.007c-.2072.00502-.40276.09682-.539.253-.46214.43774-.71906,1.04955-.708,1.686.06576.76289.35284,1.48997.826,2.092.86662,1.29977,2.05663,2.35159,3.453,3.052.37642.16257.7613.30478,1.153.426.41223.12588.84825.15328,1.273.08.56908-.11603,1.06387-.46438,1.365-.961.13165-.30212.17265-.636.118-.961-.051-.088-.186-.138-.388-.239Z" fill="var(--iconPrimary, #222)"/>
</svg>