<?xml version="1.0" encoding="UTF-8"?>
<svg xmlns="http://www.w3.org/2000/svg" width="20" height="20" viewBox="0 0 20 20">
  <g>
    <path d="M2.08582,11.87701c.28235-.28223.62891-.45898.99231-.53735-.45117-.97583-.72437-2.19482-.76465-3.5083-.05957-1.94141.41797-3.71191,1.2168-4.50977.80371-.80371,2.43457-1.23633,4.17383-1.23633,1.32642,0,2.70935.2583,3.84302.78857.07764-.36499.25513-.71338.5387-.99683.09534-.09521.19836-.17822.30652-.25024C9.18262.02618,4.33252.39996,2.46973,2.26105c-1.11035,1.10938-1.72949,3.20898-1.65625,5.61621.05005,1.62891.41064,3.11572,1.01489,4.31592.07349-.11182.15918-.21777.25745-.31616Z" fill="var(--iconPrimary, #222)" opacity=".35"/>
    <path d="M15.28369,4.17633c-.09399.1897-.21143.37109-.36951.52905-.22046.2207-.48132.37183-.7572.46777,2.03308,2.57812,3.4668,6.00269,3.47583,8.57129.00391,1.22559-.30273,2.15625-.91309,2.7666-1.05273,1.05273-3.14453,1.19727-5.73535.39746-1.93213-.59619-3.95557-1.68091-5.60132-2.96436-.09583.27734-.24731.53979-.46887.76123-.15662.15674-.33606.27319-.52405.36719,1.80103,1.42432,3.99377,2.60327,6.15186,3.26953,1.25684.3877,2.41797.58008,3.45312.58008,1.5918,0,2.88867-.4541,3.78516-1.35059.89062-.89062,1.3584-2.21582,1.35254-3.83301-.01001-2.9397-1.57202-6.70996-3.84912-9.56226Z" fill="var(--iconPrimary, #222)" opacity=".35"/>
  </g>
  <path d="M5.38135,13.94806c.00037-.00146.00122-.00269.00171-.00391,1.64575,1.28345,3.66919,2.36816,5.60132,2.96436,2.59082.7998,4.68262.65527,5.73535-.39746.61035-.61035.91699-1.54102.91309-2.7666-.00903-2.5686-1.44275-5.99316-3.47583-8.57129.00159-.00049.00293-.00146.00452-.0022-.70203.24976-1.51331.09692-2.07568-.46558-.50427-.50415-.67639-1.20996-.5293-1.85742-.00208.00903-.00745.01709-.0094.02588-1.13367-.53027-2.5166-.78857-3.84302-.78857-1.73926,0-3.37012.43262-4.17383,1.23633-.79883.79785-1.27637,2.56836-1.2168,4.50977.04028,1.31348.31348,2.53247.76465,3.5083-.00366.00073-.00684.00293-.0105.00391.64441-.14307,1.34497.03198,1.84656.53345.56104.56128.71448,1.37012.46716,2.07104Z" fill="var(--iconPrimary, #222)" opacity=".12"/>
  <path d="M17.78027,16.51105l-6.9801-6.97998c.41602-.77417.41602-1.70532,0-2.47949l1.46033-1.46021c.38708.20801.81116.32397,1.2395.32397.67188,0,1.34473-.25586,1.85645-.76758,1.02344-1.02344,1.02344-2.68945,0-3.71289s-2.68945-1.02344-3.71289,0c-.83789.83789-.97803,2.10205-.44373,3.09619l-1.46704,1.46704c-.76416-.39185-1.70105-.39136-2.46521.00024l-3.7373-3.7373c-.29297-.29297-.76758-.29297-1.06055,0s-.29297.76758,0,1.06055l3.7301,3.72998c-.41614.77441-.41589,1.70557.00012,2.479l-1.46033,1.46045c-.99402-.53418-2.25818-.39404-3.09607.44385-1.02344,1.02344-1.02344,2.68945,0,3.71289.51172.51172,1.18457.76758,1.85645.76758s1.34473-.25586,1.85645-.76758c.83789-.83789.97803-2.10205.44373-3.09619l1.45972-1.45972c.37805.20459.79761.32446,1.24011.32446.44202,0,.86182-.11987,1.24023-.32422l6.97949,6.97949c.14648.14648.33789.21973.53027.21973s.38379-.07324.53027-.21973c.29297-.29297.29297-.76758,0-1.06055ZM13.49988,1.91632c.7594,0,1.375.61572,1.375,1.375s-.6156,1.375-1.375,1.375-1.375-.61572-1.375-1.375.6156-1.375,1.375-1.375ZM3.49988,14.66632c-.7594,0-1.375-.61572-1.375-1.375s.6156-1.375,1.375-1.375,1.375.61572,1.375,1.375-.6156,1.375-1.375,1.375ZM8.49988,9.66632c-.7594,0-1.375-.61572-1.375-1.375s.6156-1.375,1.375-1.375,1.375.61572,1.375,1.375-.6156,1.375-1.375,1.375Z" fill="var(--iconPrimary, #222)"/>
</svg>