<?xml version="1.0" encoding="UTF-8"?>
<svg id="f" data-name="ICONS" xmlns="http://www.w3.org/2000/svg" width="20" height="20" viewBox="0 0 20 20">
  <path d="M18.25,10.75c.41406,0,.75-.33594.75-.75s-.33594-.75-.75-.75H1.75c-.41406,0-.75.33594-.75.75s.33594.75.75.75h16.5Z" fill="var(--iconPrimary, #222)"/>
  <path d="M10.00228,17.5c-.19141,0-.38379-.07324-.53027-.21875l-3.00195-2.99707c-.29297-.29297-.29297-.76758,0-1.06152.29004-.29199.7666-.29297,1.06055-.00098l2.47168,2.46777,2.46777-2.4668c.29297-.29395.76758-.29199,1.06055,0,.29297.29297.29297.76758,0,1.06055l-2.99805,2.99707c-.14648.14648-.33789.21973-.53027.21973Z" fill="var(--iconPrimary, #222)"/>
  <path d="M13.00033,6.99707c-.19238,0-.38379-.07324-.53027-.21973l-2.46777-2.4668-2.47168,2.46777c-.29395.29199-.76855.29102-1.06055-.00098-.29297-.29395-.29297-.76855,0-1.06152l3.00195-2.99707c.29297-.29102.76758-.29199,1.06055.00098l2.99805,2.99707c.29297.29297.29297.76758,0,1.06055-.14648.14648-.33789.21973-.53027.21973Z" fill="var(--iconPrimary, #222)"/>
</svg>