<?xml version="1.0" encoding="UTF-8"?>
<svg   xmlns="http://www.w3.org/2000/svg" width="20" height="20" viewBox="0 0 20 20">
  <path d="M14.75,6h1.5c.96484,0,1.75-.78516,1.75-1.75v-1.5c0-.96484-.78516-1.75-1.75-1.75h-1.5c-.8689,0-1.58636.63843-1.72162,1.46973h-1.77838c-1.24072,0-2.25,1.00977-2.25,2.25v4.51367h-2v-.9834c0-1.24023-1.00928-2.25-2.25-2.25h-.5c-1.24072,0-2.25,1.00977-2.25,2.25v3.5c0,1.24023,1.00928,2.25,2.25,2.25h.5c1.24072,0,2.25-1.00977,2.25-2.25v-1.0166h2v4.0166c0,1.24023,1.00928,2.25,2.25,2.25h1.75v.25c0,.96484.78516,1.75,1.75,1.75h1.5c.96484,0,1.75-.78516,1.75-1.75v-1.5c0-.96484-.78516-1.75-1.75-1.75h-1.5c-.87927,0-1.60217.65405-1.72473,1.5h-1.77527c-.41357,0-.75-.33691-.75-.75v-4.0166h2.5v.0166c0,.96484.78516,1.75,1.75,1.75h1.5c.96484,0,1.75-.78516,1.75-1.75v-1.5c0-.96484-.78516-1.75-1.75-1.75h-1.5c-.95917,0-1.73907.77637-1.74829,1.7334h-2.50171v-4.51367c0-.41309.33643-.75.75-.75h1.75v.28027c0,.96484.78516,1.75,1.75,1.75ZM5.5,11.75c0,.41309-.33643.75-.75.75h-.5c-.41357,0-.75-.33691-.75-.75v-3.5c0-.41309.33643-.75.75-.75h.5c.41357,0,.75.33691.75.75v3.5ZM14.5,15.75c0-.1377.1123-.25.25-.25h1.5c.1377,0,.25.1123.25.25v1.5c0,.1377-.1123.25-.25.25h-1.5c-.1377,0-.25-.1123-.25-.25v-1.5ZM14.5,9.25c0-.1377.1123-.25.25-.25h1.5c.1377,0,.25.1123.25.25v1.5c0,.1377-.1123.25-.25.25h-1.5c-.1377,0-.25-.1123-.25-.25v-1.5ZM14.5,2.75c0-.1377.1123-.25.25-.25h1.5c.1377,0,.25.1123.25.25v1.5c0,.1377-.1123.25-.25.25h-1.5c-.1377,0-.25-.1123-.25-.25v-1.5Z" fill="var(--iconPrimary, #222)"/>
  <rect x="2.75" y="6.75" width="3.5" height="6.5" rx="1.5" ry="1.5" transform="translate(9 20) rotate(-180)" fill="var(--iconPrimary, #222)" opacity=".2"/>
</svg>