<?xml version="1.0" encoding="UTF-8"?>
<svg xmlns="http://www.w3.org/2000/svg" width="28.00005" height="28" viewBox="0 0 28.00005 28">
  <g id="circles">
    <circle id="Ellipse_10213" data-name="Ellipse 10213" cx="14.00002" cy="14" r="14.00001" fill="#fff"/>
    <circle id="Ellipse_10213-2" data-name="Ellipse 10213-2" cx="14.00002" cy="14" r="14" fill="#fff"/>
  </g>
  <g id="ICONS">
    <path d="M18.56831,6.07006s-1.9584-.23324-4.56056-.23324-4.57602.23324-4.57602.23324c0,0-3.15793,4.43954-4.04226,7.5559,3.55266,6.17331,8.45241,9.50112,8.61055,9.54419.1545-.04271,4.78642-3.31533,8.61055-9.54419-.88429-3.11636-4.04226-7.5559-4.04226-7.5559ZM15.33256,18.56538h-2.66503l-.48362-1.26992,1.81594-.28316,1.8163.28316-.48358,1.26992ZM16.90516,16.90983c-.00558.01951-.025.03164-.04495.02812l-2.2736-.39882-.31133-.91048,1.17562-.89782c.02883-.02373.01213-.07048-.02513-.07048h-2.84695c-.03726,0-.05396.04675-.02513.07048l1.17562.89782-.31124.91013-2.27096.39882c-.01995.00352-.03937-.00861-.04495-.02812l-1.83137-6.36262,2.69825,1.83572-.1092,2.02766c-.00255.04552.06139.05871.07694.01564l1.11169-3.16083-3.79944-1.30121,1.93094-1.07869,2.8223.95477,2.79914-.95477,1.94962,1.07904-3.79491,1.30086,1.11169,3.16083c.01551.04306.07949.02988.0769-.01564l-.10915-2.02766,2.6983-1.83572-1.82869,6.36297Z" fill="#eb1000"/>
  </g>
</svg>