<?xml version="1.0" encoding="UTF-8"?>
<svg id="e" data-name="ICONS" xmlns="http://www.w3.org/2000/svg" width="20" height="20" viewBox="0 0 20 20">
  <path d="M9.375,15.125h-3c-.34521,0-.625-.28027-.625-.625v-4c0-.26855.17236-.50781.42725-.59277.25586-.08496.53613.00293.69775.21777l3,4c.14209.18945.16504.44238.05908.6543s-.32227.3457-.55908.3457ZM7,13.875h1.125l-1.125-1.5v1.5Z" fill="var(--iconPrimary, #222)"/>
  <path d="M12,13.125h-1.25c-.34521,0-.625-.28027-.625-.625s.27979-.625.625-.625h1.25c.34521,0,.625.28027.625.625s-.27979.625-.625.625Z" fill="var(--iconPrimary, #222)"/>
  <path d="M13.75,11.125h-4c-.34521,0-.625-.28027-.625-.625s.27979-.625.625-.625h4c.34521,0,.625.28027.625.625s-.27979.625-.625.625Z" fill="var(--iconPrimary, #222)"/>
  <path d="M8.125,7.125h-1.75c-.34521,0-.625-.28027-.625-.625s.27979-.625.625-.625h1.75c.34521,0,.625.28027.625.625s-.27979.625-.625.625Z" fill="var(--iconPrimary, #222)"/>
  <path d="M16.34131,5.28027l-3.62207-3.62109c-.4248-.4248-.98975-.65918-1.59033-.65918h-5.87891c-1.24072,0-2.25,1.00977-2.25,2.25v12.5c0,1.24023,1.00928,2.25,2.25,2.25h2.25c.41406,0,.75-.33594.75-.75s-.33594-.75-.75-.75h-2.25c-.41357,0-.75-.33691-.75-.75V3.25c0-.41309.33643-.75.75-.75h4.75v3.25c0,1.24023,1.00928,2.25,2.25,2.25h3.25v.13379c0,.41406.33594.75.75.75s.75-.33594.75-.75v-1.2627c0-.5918-.23975-1.17188-.65869-1.59082ZM11.5,5.75v-3.13599c.05518.03223.11316.0603.15869.10571l3.62158,3.62109c.04565.04565.07385.10376.10602.15918h-3.13629c-.41357,0-.75-.33691-.75-.75Z" fill="var(--iconPrimary, #222)"/>
  <path d="M8.125,3.875h-1.75c-.34521,0-.625.28027-.625.625s.27979.625.625.625h1.75c.34521,0,.625-.28027.625-.625s-.27979-.625-.625-.625Z" fill="var(--iconPrimary, #222)"/>
  <path d="M18.85938,9.91602c-.3667-.30664-.83203-.44727-1.30518-.40918-.47559.04297-.90576.26855-1.2085.63086l-.18994.2334c-.56049.68945-2.26855,2.78979-3.07812,3.76562-.16821.01685-.33716.03735-.50635.08398-1.27002.35156-1.72607,1.42871-2.09229,2.29395-.27246.64453-.5083,1.2002-.99121,1.46191-.28613.1543-.43945.47656-.37988.79688.05957.31934.31885.56445.6416.60645.53955.06934,1.13818.11914,1.74414.11914,1.29541,0,2.62305-.22852,3.47119-.98438.58917-.52637.89435-1.25952.88275-2.12134.75598-.91235,2.30396-2.81494,2.95172-3.61108l.28516-.35059c.63135-.75586.53027-1.88477-.2251-2.51562ZM13.96631,17.39453c-.45557.40625-1.35449.59766-2.5249.60547.16357-.29785.29443-.60645.41895-.90039.34473-.81445.56641-1.28223,1.11182-1.43359.39697-.11035.78076-.05664,1.05273.14648.20166.15137.31934.37109.32275.60156.00586.43164-.11523.74316-.38135.98047ZM17.9375,11.46484c-.00635.00781-.11914.14648-.30176.37109-.52545.64551-1.65198,2.03027-2.45911,3.01343-.08118-.08154-.15845-.16626-.25281-.23706-.06195-.04639-.13403-.07422-.19965-.11426.88171-1.07251,2.13141-2.60986,2.59515-3.18066l.1748-.21484c.06592-.0791.1499-.09766.19385-.10156.04492-.00098.13037,0,.20898.06543.07959.06641.09814.15039.10205.19434s.00049.12988-.06152.2041Z" fill="var(--iconPrimary, #222)"/>
</svg>