<?xml version="1.0" encoding="UTF-8"?>
<svg id="e" data-name="ICONS" xmlns="http://www.w3.org/2000/svg" width="20" height="20" viewBox="0 0 20 20">
  <path d="M9.375,15.18457h-3c-.34521,0-.625-.28027-.625-.625v-4c0-.26855.17236-.50781.42725-.59277.25537-.08496.53662.00293.69775.21777l3,4c.14209.18945.16504.44238.05908.6543s-.32227.3457-.55908.3457ZM7,13.93457h1.125l-1.125-1.5v1.5Z" fill="var(--iconPrimary, #222)"/>
  <path d="M13.75,15.18457h-1.75c-.34521,0-.625-.28027-.625-.625s.27979-.625.625-.625h1.75c.34521,0,.625.28027.625.625s-.27979.625-.625.625Z" fill="var(--iconPrimary, #222)"/>
  <path d="M13.75,13.18457h-3c-.34521,0-.625-.28027-.625-.625s.27979-.625.625-.625h3c.34521,0,.625.28027.625.625s-.27979.625-.625.625Z" fill="var(--iconPrimary, #222)"/>
  <path d="M13.75,11.18457h-4c-.34521,0-.625-.28027-.625-.625s.27979-.625.625-.625h4c.34521,0,.625.28027.625.625s-.27979.625-.625.625Z" fill="var(--iconPrimary, #222)"/>
  <path d="M16.34131,5.33984l-3.62207-3.62207c-.42432-.4248-.98926-.6582-1.59033-.6582h-5.87891c-1.24072,0-2.25,1.00977-2.25,2.25v12.5c0,1.24023,1.00928,2.25,2.25,2.25h9.5c1.24072,0,2.25-1.00977,2.25-2.25V6.92969c0-.59961-.23389-1.16406-.65869-1.58984ZM15.28027,6.40039c.04639.04639.07452.104.10675.15918h-3.13702c-.41357,0-.75-.33691-.75-.75v-3.13721c.05499.03198.11255.06006.15869.10596l3.62158,3.62207ZM14.75,16.55957H5.25c-.41357,0-.75-.33691-.75-.75V3.30957c0-.41309.33643-.75.75-.75h4.75v3.25c0,1.24023,1.00928,2.25,2.25,2.25h3.25v7.75c0,.41309-.33643.75-.75.75Z" fill="var(--iconPrimary, #222)"/>
  <path d="M8.125,7.18457h-1.75c-.34521,0-.625-.28027-.625-.625s.27979-.625.625-.625h1.75c.34521,0,.625.28027.625.625s-.27979.625-.625.625Z" fill="var(--iconPrimary, #222)"/>
  <path d="M8.125,5.18457h-1.75c-.34521,0-.625-.28027-.625-.625s.27979-.625.625-.625h1.75c.34521,0,.625.28027.625.625s-.27979.625-.625.625Z" fill="var(--iconPrimary, #222)"/>
</svg>