<?xml version="1.0" encoding="UTF-8"?>
<svg   xmlns="http://www.w3.org/2000/svg" width="20" height="20" viewBox="0 0 20 20">
  <path d="M10,3.25c-.41406,0-.75-.33594-.75-.75v-1.5c0-.41406.33594-.75.75-.75s.75.33594.75.75v1.5c0,.41406-.33594.75-.75.75Z" fill="var(--iconPrimary, #222)"/>
  <path d="M10,19.75c-.41406,0-.75-.33594-.75-.75v-1.5c0-.41406.33594-.75.75-.75s.75.33594.75.75v1.5c0,.41406-.33594.75-.75.75Z" fill="var(--iconPrimary, #222)"/>
  <path d="M15.87305,8.8623c-.30615,0-.59375-.18848-.70459-.49316-.14209-.38965.05908-.82031.44824-.96191l2.58398-.94043c.38867-.13867.81934.05859.96094.44824.14209.38965-.05908.82031-.44824.96191l-2.58398.94043c-.08447.03027-.17139.04492-.25635.04492Z" fill="var(--iconPrimary, #222)"/>
  <path d="M1.54297,14.07812c-.30615,0-.59375-.18848-.70459-.49316-.14209-.38965.05908-.82031.44824-.96191l2.58398-.94043c.38916-.13965.81934.05957.96094.44824.14209.38965-.05908.82031-.44824.96191l-2.58398.94043c-.08447.03027-.1709.04492-.25635.04492Z" fill="var(--iconPrimary, #222)"/>
  <path d="M8.25049,15.80664c-.40527,0-.80713-.12305-1.14746-.36133-.53418-.37402-.85303-.98633-.85303-1.63867v-6.16406c0-.94238.59473-1.79199,1.47998-2.11523l3.33594-1.21387c.61133-.2207,1.29688-.13281,1.83105.24121s.85303.98633.85303,1.63867v6.16406c0,.94238-.59473,1.79199-1.47998,2.11523h-.00049l-3.33545,1.21387c-.22168.08008-.45312.12012-.68359.12012ZM11.75098,5.69238c-.05273,0-.11084.00879-.17236.03125l-3.33545,1.21387c-.29492.10742-.49316.39062-.49316.70508v6.16406c0,.23535.14893.36523.21338.41016.06299.04395.23535.13867.45801.05957l3.33496-1.21387c.29541-.10742.49365-.39062.49365-.70508v-6.16406c0-.23535-.14893-.36523-.21338-.41016-.0459-.03223-.14893-.09082-.28564-.09082Z" fill="var(--iconPrimary, #222)"/>
</svg>