<?xml version="1.0" encoding="UTF-8"?>
<svg id="e" data-name="ICONS" xmlns="http://www.w3.org/2000/svg" width="20" height="20" viewBox="0 0 20 20">
  <path d="M4.16553,19.07715c-.23633,0-.47559-.02832-.71338-.08496-1.04492-.25293-1.87744-1.0918-2.12207-2.13867-.2085-.89355-.00635-1.80957.55566-2.5127.44971-.56348,4.74219-4.88086,4.92236-5.05664.42529-.41504.67285-1.4873.91211-2.52441.43848-1.89941.98438-4.2627,3.06348-5.18945,2.08789-.92676,4.33154-.84668,5.71631.20996.27881.21484.41943.5498.37793.89844-.04102.35059-.26611.65625-.58691.79883l-2.14648.95996-.25,1.47852,1.27197.79297c.43408-.19629,1.5874-.71777,2.17188-.98438.31348-.14258.6709-.11621.95947.07031.28174.17969.45068.48535.45264.81738.01074,1.71289-1.48926,3.58789-3.64844,4.55957h0c-.60938.27441-1.24072.37109-1.85107.46387-.92627.1416-1.72656.26367-2.33105.97363-.09473.11133-.46191.55664-.95166,1.14941-2.17139,2.63184-3.479,4.20605-3.73779,4.46387-.55518.55566-1.29395.85449-2.06494.85449ZM13.69287,2.42578c-.72607,0-1.52637.1709-2.29883.51562-1.396.62109-1.81104,2.41797-2.21191,4.15527-.30176,1.30566-.58594,2.53906-1.32617,3.26172-.3623.35352-4.45312,4.48535-4.79785,4.91797-.27734.34766-.37256.78613-.26709,1.23535.11475.49316.52197.90332,1.01318,1.02148.50928.12598,1.00684-.01172,1.36621-.37109.2583-.25781,2.54297-3.02734,3.64111-4.35742.49658-.60156.86963-1.05371.96631-1.16699.96729-1.13672,2.17822-1.32129,3.24707-1.48438.53418-.08105,1.03857-.1582,1.46094-.34863h.00049c1.17432-.5293,2.13135-1.41895,2.54443-2.29297-.69629.31543-1.41846.6416-1.41846.6416-.35205.1582-.75488.12988-1.08057-.07227l-1.63086-1.0166c-.39697-.24902-.60254-.70605-.5249-1.16699l.32031-1.89453c.06299-.37695.31006-.69824.66064-.85645l1.33691-.59766c-.30762-.08203-.64502-.12305-1.00098-.12305Z" fill="var(--iconPrimary, #222)"/>
</svg>