<?xml version="1.0" encoding="UTF-8"?>
<svg id="e" data-name="ICONS" xmlns="http://www.w3.org/2000/svg" width="20" height="20" viewBox="0 0 20 20">
  <path d="M4.16895,19.07715c-.2373,0-.47754-.02734-.7168-.08496-1.04492-.25293-1.87793-1.0918-2.12207-2.13867-.20898-.89355-.00586-1.80957.55566-2.5127.45117-.56543,4.74316-4.88086,4.92188-5.05566.42578-.41602.67383-1.48828.91309-2.52539.43848-1.89941.9834-4.2627,3.06348-5.18945,2.08691-.92871,4.33105-.84863,5.71582.21094.27832.21289.41992.54785.37793.89746-.04102.35059-.2666.65625-.58789.7998l-2.14648.95996-.25,1.47754,1.27246.79297c.43555-.19629,1.58789-.71777,2.17188-.98438.31543-.14258.67383-.11426.96094.07031.28125.18066.4502.48633.45215.81738.00293.42578-.08594.86523-.26172,1.30469-.15527.38477-.58984.56836-.97559.41699-.33789-.13574-.52246-.48926-.45801-.83301-.7041.31836-1.44336.65234-1.44336.65234-.34863.1582-.75293.12988-1.0791-.07129l-1.63184-1.01758c-.39648-.24902-.60156-.70605-.52637-1.16504l.32129-1.89648c.06445-.37988.3125-.7002.66309-.85742l1.33398-.59668c-.93457-.25098-2.14844-.12207-3.2998.39258-1.39551.62109-1.81055,2.41797-2.21191,4.15527-.30078,1.30566-.58496,2.53906-1.32617,3.26172-.33496.32715-4.44629,4.47754-4.79785,4.91797-.27734.34766-.37207.78613-.2666,1.23535.11523.49316.52148.90332,1.0127,1.02148.50879.125,1.00781-.01172,1.36523-.37109l1.64355-1.5166c.30566-.28027.7793-.26074,1.06055.04297.28027.30469.26074.7793-.04297,1.06055l-1.62109,1.49512c-.53711.53809-1.27051.83301-2.04004.83301Z" fill="var(--iconPrimary, #222)"/>
  <circle cx="13.95138" cy="14.53859" r="1.24979" fill="var(--iconPrimary, #222)"/>
  <path d="M12.15918,19.66113c-.23047,0-.46387-.05762-.67578-.17871l-.49316-.28125c-.61719-.35156-.86426-1.13184-.56445-1.77539l.30078-.64648c-.12109-.17383-.22852-.35645-.32031-.54785l-.71191-.05566c-.70703-.05469-1.26367-.6543-1.26758-1.36426l-.00293-.56738c-.00391-.72168.53516-1.31348,1.25391-1.37695l.70996-.0625c.04492-.0957.09277-.18945.14551-.28223.05176-.09082.10938-.18164.16992-.26953l-.30762-.64355c-.30664-.63965-.06641-1.42188.54785-1.78027l.49023-.28711c.61133-.35547,1.41113-.18164,1.81836.39844l.41113.58496c.21191-.01855.42383-.01953.63379-.00293l.4043-.58887c.40137-.58398,1.19727-.76953,1.81543-.41602l.49316.28125c.61719.35156.86426,1.13184.56445,1.77539l-.30078.64648c.12109.17383.22852.35645.32031.54785l.71191.05566c.70703.05469,1.26367.6543,1.26758,1.36426l.00293.56738c.00391.72168-.53516,1.31348-1.25391,1.37695l-.70996.0625c-.04492.0957-.09277.18945-.14551.28223,0,0,0,.00098-.00098.00098-.05176.09082-.1084.18066-.16895.26855l.30762.64355c.30664.63965.06641,1.42188-.54785,1.78027l-.49023.28711c-.60938.35742-1.41016.18262-1.81836-.39844l-.41113-.58496c-.21191.01855-.42383.01953-.63379.00293l-.4043.58887c-.26367.38379-.69824.59473-1.13965.59473ZM12.12598,10.60547c-.02148,0-.04297.00488-.06152.0166l-.49121.28711c-.05566.03223-.07715.10254-.0498.16016l.47266.98926c.10547.22266.07129.48633-.08789.67383-.10645.12598-.2041.26172-.29004.41016-.08398.14746-.15039.30176-.20508.45898-.08203.23047-.29102.39258-.53418.41406l-1.09082.09668c-.06543.00586-.11426.06055-.11426.12598l.00293.56738c0,.06543.0498.11914.11523.12402l1.0918.08594c.24512.01953.45605.18066.53906.41211.11328.31543.2832.60449.50391.86133.16113.18555.19727.44922.09375.67188l-.46191.99316c-.02734.05859-.00488.12988.05078.16113l.49316.28125c.05762.03223.12891.01367.16504-.03711l.62012-.90332c.13965-.20312.38672-.30664.62695-.26172.33105.06055.66895.05859.99707-.00391.24219-.04492.48926.05371.62988.25391l.62891.89648c.03711.05371.11133.07031.16504.03711l.49121-.28711c.05566-.03223.07715-.10254.0498-.16016l-.47266-.98926c-.10547-.22266-.07129-.48633.08789-.67383.10645-.12598.2041-.26172.29004-.41016.08398-.14844.15039-.30273.20508-.45898.08203-.23047.29102-.39258.53418-.41406l1.09082-.09668c.06543-.00586.11426-.06055.11426-.12598l-.00293-.56738c0-.06543-.0498-.11914-.11523-.12402l-1.0918-.08594c-.24512-.01953-.45605-.18066-.53906-.41211-.11328-.31543-.2832-.60449-.50391-.86133-.16113-.18555-.19727-.44922-.09375-.67188l.46191-.99316c.02734-.05859.00488-.12988-.05078-.16113l-.49316-.28125c-.05957-.03223-.13086-.01465-.16504.03711l-.62012.90332c-.13965.20312-.38379.30566-.62695.26172-.33105-.05957-.66797-.05957-.99707.00391-.23926.05078-.48828-.05273-.62988-.25391l-.62891-.89648c-.02441-.03516-.06348-.05371-.10352-.05371Z" fill="var(--iconPrimary, #222)"/>
</svg>