<?xml version="1.0" encoding="UTF-8"?>
<svg   xmlns="http://www.w3.org/2000/svg" width="20" height="20" viewBox="0 0 20 20">
  <path d="m13.13867,13.7666c-.41406,0-.75.33594-.75.75v.41504c0,.16699-.09277.31836-.24219.39355l-3.89648,1.95459v-5.59631c.02759-.0116.05688-.01624.08398-.02917l1.07812-.51367c.37402-.17773.5332-.625.35449-.99902-.17676-.375-.62598-.53418-.99902-.35449l-1.07812.51367c-.12109.05664-.25781.05664-.37891,0l-3.95276-1.8833,3.55139-1.75049c.37109-.18359.52344-.63281.34082-1.00488-.18359-.37109-.62988-.52539-1.00488-.34082L1.9707,7.42871c-.65723.32422-1.08203,1.00684-1.08203,1.73926v5.76367c0,.73828.41016,1.40234,1.07031,1.7334l4.56055,2.28906c.27148.13574.57031.2041.86816.2041.29883,0,.59766-.06836.87012-.20508l4.56152-2.28809c.65918-.33105,1.06934-.99512,1.06934-1.7334v-.41504c0-.41406-.33594-.75-.75-.75Zm-10.50684,1.55859c-.15039-.0752-.24316-.22656-.24316-.39355v-5.31519l4.27734,2.03784c.0271.01294.0564.01758.08398.02917v5.70874l-4.11816-2.06702Z" fill="var(--iconPrimary, #222)" stroke-width="0"/>
  <path d="m9.13867,7.69141c-.41406,0-.75-.33594-.75-.75,0-.28906.02344-.58105.06934-.86719.06445-.40918.44727-.69043.8584-.62207.40918.06543.6875.4502.62207.8584-.03223.20605-.0498.41602-.0498.63086,0,.41406-.33594.75-.75.75Z" fill="var(--iconPrimary, #222)" stroke-width="0"/>
  <path d="m15.38574,11.9248c-.29004,0-.56738-.16992-.68945-.4541-.16309-.38086.0127-.82129.39355-.98535.36914-.1582.70996-.37598,1.0127-.64844.30762-.27539.78125-.25195,1.05957.05762.27637.30859.25098.7832-.05762,1.05957-.42578.38086-.9043.6875-1.42285.91016-.09668.04102-.19727.06055-.2959.06055Zm2.49219-2.69141c-.08203,0-.16504-.01367-.24707-.04199-.3916-.13672-.59766-.56445-.46094-.95508.13379-.38281.20703-.78516.2168-1.19629.01074-.40723.34473-.73047.75-.73047h.01953c.41406.01074.74121.35547.73047.76953-.01465.56641-.11621,1.12207-.30078,1.65137-.1084.30957-.39844.50293-.70801.50293Zm-.24707-3.66602c-.27246,0-.53613-.14844-.66895-.4082-.18457-.36133-.4248-.69043-.71387-.97656-.29395-.29102-.2959-.7666-.00391-1.06055.29102-.29297.76465-.29688,1.06055-.00391.40039.39746.73438.85352.99316,1.35742.18848.36816.04297.82031-.32617,1.00977-.10938.05566-.22656.08203-.34082.08203Zm-7.51562-.73438c-.16113,0-.32324-.05176-.46094-.15918-.32617-.25488-.38379-.72559-.12891-1.05273.34863-.44629.7627-.83203,1.23242-1.14746.3457-.23047.81055-.13867,1.04102.20508s.13867.81055-.20508,1.04102c-.33789.22559-.63574.50391-.88672.8252-.14746.18945-.36816.28809-.5918.28809Zm4.67285-1.58301c-.06348,0-.12793-.00781-.19238-.02539-.39062-.10352-.80176-.14062-1.2002-.11719-.41113.01855-.76953-.29004-.79492-.70312-.02441-.41309.29004-.76953.70312-.79492.55762-.03418,1.12988.01953,1.67676.16602.40039.10645.63867.5166.53223.91699-.08887.33594-.39258.55762-.72461.55762Z" fill="var(--iconPrimary, #222)" stroke-width="0"/>
  <path d="m13.0791,12.24707c-.03125,0-.06152-.00195-.09375-.00586-.28711-.03516-.57715-.09766-.86035-.18457-.39551-.12109-.61816-.54004-.49707-.93652.12012-.39453.53809-.61914.93652-.49707.19531.05957.39746.10352.60645.12988.41016.05078.70215.42578.65137.83691-.04688.37891-.37012.65723-.74316.65723Z" fill="var(--iconPrimary, #222)" stroke-width="0"/>
</svg>