<?xml version="1.0" encoding="UTF-8"?>
<svg   xmlns="http://www.w3.org/2000/svg" width="20" height="20" viewBox="0 0 20 20">
  <path d="m18.08546,6.70092c-.07822-.59219-.30389-1.15526-.65631-1.63756-.43741-.44154-1.03129-.69277-1.65277-.69918-2.30954-.16684-5.7727-.16684-5.7727-.16684h-.00737s-3.46316,0-5.7727.16684c-.62146.00651-1.2153.25772-1.65277.69918-.35236.48228-.57789,1.04537-.65585,1.63756-.10281.88747-.15788,1.77982-.165,2.67318v1.25133c.00722.8926.06229,1.78418.165,2.67088.07834.59137.30385,1.15364.65585,1.63525.50203.44588,1.14776.69619,1.81915.70517,1.32046.12675,5.61.16592,5.61.16592,0,0,3.46684-.00553,5.77638-.17237.62149-.00594,1.21549-.25705,1.65276-.69872.35242-.4823.57809-1.04536.65631-1.63756.10242-.88672.15734-1.77829.16454-2.67088v-1.25133c-.00717-.89259-.0621-1.78416-.16454-2.67088Zm-9.92904,5.67775v-4.88824l4.87764,2.45242-4.87764,2.43582Z" fill="var(--iconPrimary, #222)" stroke-width="0"/>
</svg>