<?xml version="1.0" encoding="UTF-8"?>
<svg xmlns="http://www.w3.org/2000/svg" width="20" height="20" viewBox="0 0 20 20">
  <path d="M14.25,5h-3.18164c-.41406,0-.75.33594-.75.75s.33594.75.75.75h1.34961l-5.91797,5.96094v-1.39258c0-.41406-.33594-.75-.75-.75s-.75.33594-.75.75v3.18164c0,.41406.33594.75.75.75h3.18164c.41406,0,.75-.33594.75-.75s-.33594-.75-.75-.75h-1.34961l5.91797-5.96094v1.39258c0,.41406.33594.75.75.75s.75-.33594.75-.75v-3.18164c0-.41406-.33594-.75-.75-.75Z" fill="var(--iconPrimary, #222)"/>
  <path d="M15.75,18H4.25c-1.24023,0-2.25-1.00977-2.25-2.25V4.25c0-1.24023,1.00977-2.25,2.25-2.25h11.5c1.24023,0,2.25,1.00977,2.25,2.25v11.5c0,1.24023-1.00977,2.25-2.25,2.25ZM4.25,3.5c-.41309,0-.75.33691-.75.75v11.5c0,.41309.33691.75.75.75h11.5c.41309,0,.75-.33691.75-.75V4.25c0-.41309-.33691-.75-.75-.75H4.25Z" fill="var(--iconPrimary, #222)"/>
</svg>