<?xml version="1.0" encoding="UTF-8"?>
<svg id="e" data-name="ICONS" xmlns="http://www.w3.org/2000/svg" width="20" height="20" viewBox="0 0 20 20">
  <path d="M8.3907,8.6486c-.37247-.37247-.85955-.55871-1.3514-.55871h0c-.48708,0-.97893.18624-1.3514.55871-.74494.74494-.74494,1.95308,0,2.7028.74494.74494,1.95308.74494,2.7028,0,.74494-.74494.74494-1.95786,0-2.7028ZM7.85109,10.81179c-.44887.44887-1.17471.44887-1.61881,0-.44887-.44887-.44887-1.17471,0-1.61881.44887-.44887,1.17471-.44887,1.61881,0,.4441.4441.4441,1.16994,0,1.61881ZM12.40191,8.6486c-.37247-.37247-.85955-.55871-1.3514-.55871-.48708,0-.97893.18624-1.3514.55871-.74494.74494-.74494,1.95308,0,2.7028.74494.74494,1.95308.74494,2.7028,0,.74494-.74494.74494-1.95786,0-2.7028ZM11.86231,10.81179c-.44887.44887-1.17471.44887-1.61881,0-.44887-.44887-.44887-1.17471,0-1.61881.44887-.44887,1.17471-.44887,1.61881,0,.4441.4441.4441,1.16994,0,1.61881ZM2.26404,11.90055l.19101.00955h2.86516l-.00955-.19101c-.02388-.31517-.24831-.54438-.56348-.56348l-.19101-.00955h-1.71909l2.29212-2.29212-.00955-.19101c-.01433-.31517-.24831-.54915-.56348-.56348l-.19101-.00955H1.5l.00955.19101c.02388.31039.25309.54438.56348.56348l.19101.00955h1.71909l-2.29212,2.29212.00955.19101c.0191.31517.24831.54438.56348.56348ZM15.3387,9.23596c.06685.11461.08595.23876.09551.38202l.00955.19101v1.33707l.00955.19101c.0191.31039.24831.54438.56348.56348l.19101.00955v-2.10111l.00955-.19101c.00955-.14326.02865-.27219.09551-.3868.13371-.22921.37725-.37725.65899-.37725s.53005.15281.66376.38202c.06685.11461.08595.24354.09073.38202l.00955.19101v1.33707l.00955.19101c.0191.31517.24831.54438.56348.56348l.19101.00955v-2.29212c0-.84522-.68286-1.52808-1.52808-1.52808-.45843,0-.86432.20056-1.14606.51573-.28174-.31517-.68764-.51573-1.14606-.51573-.31517,0-.61123.09551-.85477.26264-.14803-.16713-.4823-.26264-.67331-.26264v3.82021l.19101-.00955c.31994-.0191.54915-.24831.56348-.56348l.00955-.19101v-1.33707l.00955-.19101c.00955-.14326.02865-.27219.09551-.38202.13371-.22921.37725-.38202.65899-.38202s.53005.15281.65899.38202Z" fill="var(--iconPrimary, #222)"/>
  <path d="M8.39078,8.6486c-.37247-.37247-.85955-.55871-1.3514-.55871h0c-.48708,0-.97893.18624-1.3514.55871-.74494.74494-.74494,1.95308,0,2.7028.74494.74494,1.95308.74494,2.7028,0,.74494-.74494.74494-1.95786,0-2.7028ZM7.85117,10.81179c-.44887.44887-1.17471.44887-1.61881,0-.44887-.44887-.44887-1.17471,0-1.61881.44887-.44887,1.17471-.44887,1.61881,0,.4441.4441.4441,1.16994,0,1.61881ZM12.40199,8.6486c-.37247-.37247-.85955-.55871-1.3514-.55871-.48708,0-.97893.18624-1.3514.55871-.74494.74494-.74494,1.95308,0,2.7028.74494.74494,1.95308.74494,2.7028,0,.74494-.74494.74494-1.95786,0-2.7028ZM11.86239,10.81179c-.44887.44887-1.17471.44887-1.61881,0-.44887-.44887-.44887-1.17471,0-1.61881.44887-.44887,1.17471-.44887,1.61881,0,.4441.4441.4441,1.16994,0,1.61881ZM2.26412,11.90055l.19101.00955h2.86516l-.00955-.19101c-.02388-.31517-.24831-.54438-.56348-.56348l-.19101-.00955h-1.71909l2.29212-2.29212-.00955-.19101c-.01433-.31517-.24831-.54915-.56348-.56348l-.19101-.00955H1.50008l.00955.19101c.02388.31039.25309.54438.56348.56348l.19101.00955h1.71909l-2.29212,2.29212.00955.19101c.0191.31517.24831.54438.56348.56348ZM15.33878,9.23596c.06685.11461.08595.23876.09551.38202l.00955.19101v1.33707l.00955.19101c.0191.31039.24831.54438.56348.56348l.19101.00955v-2.10111l.00955-.19101c.00955-.14326.02865-.27219.09551-.3868.13371-.22921.37725-.37725.65899-.37725s.53005.15281.66376.38202c.06685.11461.08595.24354.09073.38202l.00955.19101v1.33707l.00955.19101c.0191.31517.24831.54438.56348.56348l.19101.00955v-2.29212c0-.84522-.68286-1.52808-1.52808-1.52808-.45843,0-.86432.20056-1.14606.51573-.28174-.31517-.68764-.51573-1.14606-.51573-.31517,0-.61123.09551-.85477.26264-.14803-.16713-.4823-.26264-.67331-.26264v3.82021l.19101-.00955c.31994-.0191.54915-.24831.56348-.56348l.00955-.19101v-1.33707l.00955-.19101c.00955-.14326.02865-.27219.09551-.38202.13371-.22921.37725-.38202.65899-.38202s.53005.15281.65899.38202Z" fill="var(--iconPrimary, #222)"/>
</svg>