<?xml version="1.0" encoding="UTF-8"?><svg id="e" xmlns="http://www.w3.org/2000/svg" width="20" height="20" viewBox="0 0 20 20"><path d="M12.7998,9.25h-2.0498v-2.0498c0-.41406-.33594-.75-.75-.75s-.75.33594-.75.75v2.0498h-2.0498c-.41406,0-.75.33594-.75.75s.33594.75.75.75h2.0498v2.0498c0,.41406.33594.75.75.75s.75-.33594.75-.75v-2.0498h2.0498c.41406,0,.75-.33594.75-.75s-.33594-.75-.75-.75Z" fill="var(--iconPrimary,#222)"/><path d="M3.87109,12.87109c-.19189,0-.38379-.07324-.53027-.21973l-2.12109-2.12109c-.29297-.29297-.29297-.76758,0-1.06055l2.12109-2.12109c.29297-.29297.76758-.29297,1.06055,0s.29297.76758,0,1.06055l-1.59082,1.59082,1.59082,1.59082c.29297.29297.29297.76758,0,1.06055-.14648.14648-.33838.21973-.53027.21973Z" fill="var(--iconPrimary,#222)"/><path d="M16.12891,12.87109c-.19189,0-.38379-.07324-.53027-.21973-.29297-.29297-.29297-.76758,0-1.06055l1.59082-1.59082-1.59082-1.59082c-.29297-.29297-.29297-.76758,0-1.06055s.76758-.29297,1.06055,0l2.12109,2.12109c.29297.29297.29297.76758,0,1.06055l-2.12109,2.12109c-.14648.14648-.33838.21973-.53027.21973Z" fill="var(--iconPrimary,#222)"/><path d="M10,19c-.19189,0-.38379-.07324-.53027-.21973l-2.12109-2.12109c-.29297-.29297-.29297-.76758,0-1.06055s.76758-.29297,1.06055,0l1.59082,1.59082,1.59082-1.59082c.29297-.29297.76758-.29297,1.06055,0s.29297.76758,0,1.06055l-2.12109,2.12109c-.14648.14648-.33838.21973-.53027.21973Z" fill="var(--iconPrimary,#222)"/><path d="M12.12109,4.62109c-.19189,0-.38379-.07324-.53027-.21973l-1.59082-1.59082-1.59082,1.59082c-.29297.29297-.76758.29297-1.06055,0s-.29297-.76758,0-1.06055l2.12109-2.12109c.29297-.29297.76758-.29297,1.06055,0l2.12109,2.12109c.29297.29297.29297.76758,0,1.06055-.14648.14648-.33838.21973-.53027.21973Z" fill="var(--iconPrimary,#222)"/></svg>